<svg width="60" height="70" viewBox="0 0 60 70" fill="none" xmlns="http://www.w3.org/2000/svg">
<path d="M17.0792 8.92335C16.6572 7.85266 16.9179 6.71399 17.0615 5.67459C17.0647 5.65149 17.0678 5.62836 17.071 5.6052C17.2341 4.33326 17.538 2.86814 18.5318 1.87915C19.516 0.895533 20.8104 0.25521 22.1419 0.0648804C22.973 -0.0565692 23.8152 -0.00494652 24.595 0.198291C25.0649 0.320118 25.5174 0.496572 25.9377 0.721291C27.057 1.31685 27.9298 2.25658 28.433 3.30978C28.7774 4.02492 28.9572 4.79293 28.9735 5.53847C28.981 5.86575 28.9576 6.18825 28.9057 6.50125C28.867 6.7343 28.8125 6.96348 28.7439 7.18368C28.7343 7.21441 28.7068 7.24149 28.6666 7.25826C28.6263 7.27505 28.5768 7.28024 28.5276 7.27303C28.4783 7.2658 28.4324 7.24678 28.3982 7.22079C28.3641 7.19479 28.3446 7.16394 28.3426 7.1343C28.3285 6.91995 28.2998 6.70791 28.2572 6.50294C28.21 6.27469 28.1455 6.05372 28.0661 5.8421C28.2618 5.77459 28.4061 5.69684 28.4535 5.58651C28.4778 5.53041 28.4756 5.45397 28.4258 5.41038C28.3812 5.37118 28.3132 5.35147 28.2485 5.33393C28.1808 5.31561 28.1167 5.29982 28.0854 5.26556C28.0322 5.20734 27.9291 5.16972 27.8211 5.13579C27.7817 5.12339 27.7416 5.1114 27.7029 5.09875C27.5939 4.92105 27.4735 4.75394 27.3437 4.59829C27.3267 4.52048 27.3062 4.44972 27.2679 4.40239C27.2335 4.35991 27.1705 4.34075 27.0993 4.32984C27.0776 4.30796 27.0557 4.28638 27.0335 4.26509C26.8908 4.12757 26.7403 4.00212 26.5841 3.88962C26.5248 3.7448 26.4501 3.59441 26.3074 3.4426C26.2459 3.37736 26.1952 3.29967 26.143 3.22567C26.0664 3.11671 25.9859 3.01571 25.8802 2.98484C25.8097 2.96431 25.761 2.90244 25.7089 2.84103C25.64 2.75915 25.5636 2.67791 25.448 2.71121C25.3755 2.73219 25.3041 2.76668 25.2395 2.80018C25.137 2.85355 25.0516 2.90408 24.9968 2.89C24.894 2.86366 24.7864 2.89804 24.6964 2.93192C24.5868 2.97238 24.5014 3.01135 24.4477 2.9365C24.4395 2.92515 24.4304 2.91049 24.42 2.89388C24.3818 2.83256 24.3243 2.74545 24.2288 2.71425C24.1884 2.70106 24.142 2.69813 24.0899 2.71211C24.028 2.72884 23.9663 2.78464 23.9096 2.84074C23.8266 2.92244 23.7533 3.00427 23.6769 2.96635C23.6654 2.96068 23.6534 2.93714 23.6422 2.91568C23.6279 2.8884 23.6149 2.86468 23.6078 2.88556C23.587 2.94679 23.5548 3.01485 23.5226 3.08951C23.4989 3.14434 23.4753 3.20273 23.4549 3.26406C23.274 3.30938 23.0996 3.36833 22.9334 3.43903C22.8573 3.4714 22.7825 3.50635 22.7098 3.54354C22.6426 3.46867 22.574 3.40464 22.5076 3.36227C22.4205 3.30707 22.3327 3.31389 22.2198 3.32895C22.1367 3.3402 22.0399 3.35581 21.914 3.35964C21.6789 3.36685 21.5037 3.51597 21.4303 3.64481C21.4144 3.6721 21.3993 3.70023 21.3838 3.73057C21.3263 3.84614 21.255 3.98875 21.1281 4.23206C21.0099 4.4624 20.9069 4.63997 20.8354 4.77807C20.7989 4.84856 20.7713 4.90777 20.7565 4.95671C20.7313 5.04016 20.699 5.14037 20.6724 5.24156C20.63 5.39993 20.6032 5.56145 20.611 5.65767C20.6136 5.69181 20.6191 5.72816 20.6256 5.76711C20.6426 5.86716 20.6667 5.98293 20.6771 6.13018C20.678 6.14163 20.6787 6.15325 20.6794 6.16504C20.6901 6.33592 20.6642 6.43423 20.6141 6.54277C20.5941 6.58641 20.5167 6.62637 20.4376 6.67136C20.3255 6.73424 20.2101 6.81039 20.254 6.8973C20.2643 6.91739 20.285 6.9376 20.307 6.95841C20.3475 6.99672 20.3918 7.03557 20.3822 7.08356C20.3788 7.10039 20.3603 7.11789 20.3422 7.13532C20.3224 7.15447 20.3032 7.17363 20.3052 7.19107C20.3125 7.25606 20.3313 7.31743 20.3492 7.37106C20.3723 7.44019 20.3939 7.49732 20.387 7.53888C20.3747 7.61319 20.4265 7.67622 20.4803 7.73531C20.5216 7.78092 20.5641 7.82473 20.5817 7.87691C20.6314 8.02663 20.7819 8.19978 20.9782 8.32708C21.0522 8.37511 21.0507 8.4571 21.0562 8.56663C21.0596 8.63452 21.0656 8.71293 21.0947 8.79604C21.1114 8.84323 21.1702 8.84402 21.2236 8.84293C21.2729 8.84209 21.3177 8.83993 21.3256 8.87525C21.3326 8.90645 21.2938 8.96993 21.2579 9.03108C21.2178 9.099 21.1814 9.16406 21.2138 9.17529C21.231 9.18121 21.2704 9.16846 21.3167 9.15238C21.335 9.14601 21.3543 9.13921 21.3739 9.13277C21.3637 9.14336 21.3548 9.15306 21.3482 9.16045C21.3011 9.21268 21.2999 9.26128 21.3 9.30932C21.3 9.32849 21.3003 9.34754 21.2977 9.36671C21.288 9.43739 21.3394 9.49217 21.3858 9.52433C21.4054 9.53799 21.4094 9.56839 21.4147 9.60403C21.4194 9.63565 21.4251 9.67148 21.4436 9.70276C21.4541 9.72057 21.4543 9.74559 21.4546 9.7665C21.4548 9.78162 21.4551 9.79456 21.4593 9.80078C21.463 9.80616 21.4784 9.79228 21.4956 9.77655C21.508 9.76522 21.5214 9.75294 21.5321 9.74622C21.5577 9.73019 21.5753 9.73187 21.5796 9.74533C21.5816 9.75155 21.5807 9.76031 21.5798 9.76904C21.5787 9.7792 21.5776 9.78942 21.5813 9.79562C21.5982 9.82403 21.6351 9.82012 21.6728 9.81531C21.7145 9.81013 21.7567 9.80368 21.7789 9.83999C21.7859 9.85143 21.7896 9.87042 21.7933 9.88887C21.7971 9.90818 21.8011 9.92688 21.8087 9.93543C21.8395 9.97022 21.8994 9.94503 21.9531 9.92056C21.9889 9.90433 22.0221 9.88856 22.0439 9.89183C22.0842 9.89795 22.1283 9.85188 22.1604 9.81767C22.177 9.79994 22.1905 9.78528 22.1988 9.78274C22.2035 9.78673 22.2081 9.79103 22.2126 9.79543C22.2157 9.80169 22.219 9.80816 22.2244 9.80896C22.2248 9.80902 22.2252 9.80894 22.2257 9.809C22.2499 9.83576 22.2721 9.86778 22.2944 9.89931C22.3444 9.97009 22.3996 10.04 22.4822 10.0407C22.5 10.0408 22.5242 10.0226 22.5484 10.0039C22.5782 9.98091 22.608 9.95703 22.628 9.96552C22.6756 9.98566 22.7146 10.0393 22.7559 10.0917C22.817 10.1703 22.8844 10.2461 22.9684 10.1957C22.9959 10.1791 23.0252 10.1479 23.0538 10.1161C23.0698 10.0984 23.0857 10.0805 23.1012 10.065C23.0932 10.0971 23.0868 10.1275 23.0808 10.1557C23.0684 10.214 23.0578 10.264 23.0377 10.3045C22.9906 10.4003 22.9288 10.5321 22.914 10.6338C22.9101 10.6614 22.9036 10.6918 22.8969 10.7224C22.8802 10.799 22.8625 10.8773 22.8888 10.9188C22.9063 10.9468 22.9553 11.0119 23.0012 10.9581C23.0112 10.9464 23.0198 10.9215 23.0294 10.8938C23.0339 10.8805 23.0387 10.8666 23.0439 10.8532C23.0583 10.8161 23.0759 10.7826 23.1016 10.7755C23.1075 10.7739 23.1139 10.7726 23.1205 10.7714C23.1465 10.7667 23.1756 10.7612 23.1907 10.7211C23.208 10.6749 23.2115 10.6201 23.2159 10.5562C23.2215 10.473 23.2294 10.3744 23.2654 10.2584C23.2725 10.2355 23.2818 10.2283 23.2889 10.2229C23.2939 10.2191 23.2977 10.216 23.2988 10.209C23.3 10.2009 23.3003 10.1839 23.3007 10.1624C23.3019 10.0864 23.3058 9.95406 23.3497 9.95273C23.3617 9.95236 23.3747 9.95986 23.3865 9.96655C23.4038 9.97642 23.4183 9.98442 23.4219 9.96299C23.4233 9.95486 23.4244 9.94603 23.4256 9.93687C23.4395 9.94051 23.4536 9.94405 23.4676 9.94751C23.4843 9.97436 23.51 9.97359 23.5423 9.97198C23.5502 9.97158 23.5584 9.97124 23.567 9.97114C23.595 9.97736 23.6231 9.98321 23.6513 9.98884C23.6736 9.99992 23.6973 10.0177 23.7235 10.0456C23.7756 10.1015 23.8244 10.1932 23.8758 10.282C23.8974 10.3194 23.9196 10.3563 23.9423 10.3897C23.9347 10.3945 23.9279 10.4 23.9229 10.4073C23.8881 10.4574 23.8776 10.5519 23.8669 10.6389C23.8599 10.6968 23.8528 10.7514 23.8383 10.787C23.8116 10.8522 23.8165 10.9269 23.8207 10.9823C23.8228 11.011 23.8245 11.0345 23.8209 11.0486C23.8179 11.0599 23.8104 11.0654 23.8026 11.0711C23.7958 11.076 23.7887 11.0812 23.7843 11.0903C23.7307 11.2012 23.7472 11.2645 23.7753 11.3567C23.7906 11.4076 23.8092 11.4671 23.8195 11.5482C23.8289 11.6341 23.8276 11.6595 23.7952 11.6946C23.8221 11.7366 23.8497 11.7783 23.8778 11.8198C23.888 11.8167 23.8949 11.7897 23.9038 11.7451C23.9199 11.6654 23.9803 11.6334 24.0272 11.6074C24.0488 11.5954 24.0675 11.5848 24.0775 11.5719C24.1301 11.5028 24.1044 11.4149 24.0837 11.3375C24.0722 11.2949 24.0619 11.2555 24.0647 11.2242C24.0659 11.2108 24.0615 11.198 24.0571 11.185C24.0537 11.1749 24.0502 11.1646 24.0492 11.1538C24.0422 11.0756 24.0682 11.0149 24.0909 10.9583C24.1039 10.9259 24.1159 10.8948 24.1208 10.8628C24.1223 10.853 24.1233 10.8431 24.1242 10.8335C24.1254 10.8195 24.1266 10.8061 24.1295 10.7944C24.1361 10.7679 24.1534 10.7485 24.1719 10.7273C24.1814 10.7164 24.1912 10.705 24.2002 10.6918C24.2117 10.6748 24.2124 10.6434 24.2132 10.6105C24.2137 10.5873 24.2142 10.5634 24.2183 10.5432C24.2257 10.5066 24.2481 10.4906 24.2687 10.4755C24.2777 10.4689 24.2863 10.4624 24.2932 10.4546C24.296 10.4515 24.2967 10.4459 24.2959 10.4386C24.3286 10.4084 24.3587 10.3776 24.3872 10.3471C24.5311 10.1932 24.6317 10.059 24.854 10.0664C24.8964 10.0675 24.9358 10.0503 24.9721 10.024C25.112 10.004 25.2529 9.97641 25.3939 9.94079C25.4511 9.991 25.5101 10.0273 25.5698 10.0478C25.6822 10.0861 25.7654 10.0594 25.8616 10.0246C25.9329 9.99866 26.0114 9.96831 26.1194 9.95088C26.301 9.92142 26.4821 9.86555 26.6526 9.75622C26.8228 9.64802 26.9985 9.49591 27.1086 9.37506C27.1687 9.30985 27.2758 9.27442 27.3761 9.23624C27.5168 9.18316 27.6441 9.12337 27.5896 9.00689C27.5722 8.96974 27.5324 8.92025 27.4931 8.87292C27.4651 8.83921 27.4376 8.8065 27.4186 8.77952C27.445 8.75319 27.4711 8.7263 27.4971 8.69905C27.5912 8.67803 27.7089 8.62061 27.6798 8.49584C27.7053 8.46575 27.7303 8.43528 27.7546 8.40552C27.8069 8.34015 27.8572 8.27471 27.9062 8.20677C27.9224 8.18461 27.9384 8.16197 27.9544 8.13904C27.9545 8.13883 27.9547 8.13862 27.9548 8.13841C27.9869 8.09235 28.0183 8.04546 28.0489 7.99827C28.062 7.97808 28.0749 7.95771 28.0877 7.93716C28.1202 7.88517 28.1518 7.83212 28.1825 7.7788C28.1988 7.75069 28.2149 7.72158 28.2307 7.69289C28.2564 7.64611 28.2816 7.59816 28.3061 7.54968C28.3459 7.47079 28.3835 7.39254 28.4196 7.31095C28.4255 7.29765 28.4394 7.28607 28.4588 7.27883C28.4782 7.2716 28.5015 7.26922 28.5247 7.27261C28.5479 7.276 28.5697 7.28502 28.586 7.29788C28.6023 7.31072 28.6118 7.32637 28.6132 7.34139C28.6214 7.43348 28.6273 7.52447 28.6299 7.61839C28.6316 7.67613 28.6324 7.73421 28.632 7.79188C28.6318 7.82729 28.631 7.86337 28.63 7.8988C28.628 7.9659 28.6245 8.03396 28.6194 8.10191C28.6174 8.12875 28.6152 8.15558 28.6128 8.1824C28.6071 8.24526 28.5999 8.30875 28.5915 8.37226C28.5914 8.37264 28.5914 8.37303 28.5913 8.37341C28.5871 8.40471 28.5827 8.43594 28.5781 8.46683C28.5635 8.562 28.5463 8.65644 28.5252 8.75278C28.5147 8.80274 28.5025 8.85415 28.4895 8.90566C28.4823 8.93431 28.4749 8.96289 28.4674 8.99093C28.4633 9.00622 28.4589 9.02167 28.4545 9.03719C28.3542 9.39459 28.2128 9.74508 28.0286 10.0832C27.8452 10.4202 27.6205 10.7425 27.3601 11.0397C27.099 11.3376 26.8018 11.6106 26.4734 11.8514C25.4519 12.607 24.106 13.0339 22.735 12.9755C21.3213 12.9275 19.8668 12.3512 18.7597 11.3436C18.4477 11.0623 18.1554 10.74 17.9021 10.3987C17.6463 10.0536 17.4271 9.68954 17.2413 9.29643C17.1848 9.17724 17.1305 9.05271 17.0792 8.92335Z" fill="black"/>
<path d="M21.629 25.4897C22.4144 24.9539 23.2844 24.6077 24.6004 24.1554C24.9259 24.1263 25.3733 23.9624 25.7609 23.6824C26.2783 23.3116 26.8083 22.7257 27.0987 22.2689C27.0398 22.2277 27.2832 21.7528 27.4684 21.3276C27.6712 20.8847 27.9069 20.4077 28.1956 19.9512C28.847 18.9186 29.5204 17.8331 30.2134 16.7518C30.2683 16.7069 30.2909 16.7348 30.3333 16.6957C30.374 16.6592 30.4222 16.5272 30.4532 16.304C30.5241 15.7943 30.5291 14.9742 30.5729 14.1864C30.6641 13.309 30.5773 12.1933 30.5364 10.9136C30.542 10.9182 30.5471 10.9186 30.5514 10.9155C30.6419 10.3515 29.9379 8.72943 29.3321 7.59292L29.4197 7.69705C29.1649 7.31189 28.9046 6.92937 28.6385 6.54986C27.8924 5.48616 27.0992 4.44388 26.2518 3.43686C25.8797 2.99494 25.4981 2.56082 25.1039 2.13371C25.0941 2.12307 25.0843 2.11244 25.0745 2.10181C24.7843 1.79583 24.4984 1.4906 24.2015 1.19034C24.1592 1.14711 24.1368 1.08005 24.1406 1.00189C24.1447 0.923855 24.1739 0.841191 24.2246 0.770391C24.2754 0.699589 24.3445 0.645176 24.4174 0.616834C24.4905 0.5888 24.5618 0.589801 24.6168 0.617456C24.9994 0.810542 25.3804 1.0158 25.7508 1.2106C25.7743 1.22496 25.7909 1.23404 25.8074 1.24314C26.2459 1.48407 26.6796 1.73358 27.1097 1.99296C26.9401 2.31707 26.8468 2.59236 26.9188 2.81117C26.9559 2.923 27.0499 3.03748 27.1749 3.05819C27.2871 3.0767 27.4124 3.045 27.5316 3.0149C27.6564 2.98346 27.7754 2.95426 27.866 2.98723C28.0199 3.04329 28.2289 3.02724 28.4495 3.0123C28.5297 3.00684 28.6117 3.00158 28.6928 2.99989C29.0928 3.26774 29.4887 3.54332 29.8802 3.82593C29.9856 3.98209 30.0842 4.12304 30.1961 4.21411C30.2966 4.29588 30.4331 4.32628 30.5829 4.3444C30.6427 4.38946 30.7023 4.43464 30.762 4.48007C31.1464 4.77313 31.5263 5.07354 31.9018 5.3805C31.9062 5.38868 31.9106 5.39688 31.915 5.40507C31.9336 5.43064 32.0001 5.49847 32.0164 5.52554C32.1784 5.88894 32.3441 6.26399 32.6024 6.71512C32.7164 6.91465 32.7972 7.13258 32.8715 7.34337C32.9812 7.65478 33.0762 7.95042 33.2524 8.16181C33.3707 8.30396 33.4174 8.49923 33.4592 8.69641C33.516 8.96241 33.5616 9.226 33.783 9.41671C33.9224 9.53732 34.0738 9.65256 34.2137 9.78239C34.3706 9.92758 34.513 10.0899 34.5967 10.2871C34.6243 10.3236 34.6437 10.3602 34.6525 10.3974C34.7085 10.6369 34.8576 10.8344 34.9898 11.0114C35.149 11.2245 35.2841 11.4101 35.2087 11.6102C35.1973 11.6405 35.1812 11.6758 35.1628 11.7157C35.0657 11.9272 34.912 12.2604 35.0902 12.7026C35.1535 12.8608 35.2789 13.0043 35.4005 13.1509C35.5774 13.3636 35.7463 13.5862 35.6968 13.8474C35.6946 13.8589 35.6896 13.8708 35.6828 13.8827C35.6663 13.9051 35.6393 13.928 35.6141 13.9495C35.5685 13.9882 35.5287 14.0219 35.5661 14.0379C35.6759 14.0849 35.7991 14.1645 35.9334 14.2494C36.0322 14.3132 36.1368 14.3779 36.2463 14.44C36.3402 14.9605 36.4507 15.4955 36.5178 16.227C36.5465 16.5619 36.5631 16.9498 36.5336 17.3933C36.3471 17.5993 36.1658 17.8086 36.0026 18.0281C35.7901 18.3122 35.6245 18.7144 35.3537 19.1543C35.3126 19.2212 35.2702 19.2868 35.2241 19.3547C35.1037 19.5062 34.9653 19.6703 34.7848 19.8451C34.365 20.2504 34.1351 20.7789 34.0512 21.1506C34.0331 21.2299 34.0168 21.3089 33.9993 21.3941C33.9312 21.7195 33.8494 22.1248 33.592 22.8627C33.347 23.5622 33.0541 24.1368 32.8078 24.5847C32.6831 24.8122 32.568 25.0107 32.4854 25.1701C32.3408 25.4458 32.1489 25.784 31.8457 26.1942C31.7512 26.3212 31.6369 26.4643 31.5056 26.6107C31.1577 27.0128 30.8844 27.3017 30.7147 27.5135C30.6411 27.6056 30.5646 27.7055 30.4825 27.8109C30.2518 28.1046 29.971 28.4554 29.4909 28.8697C28.9835 29.3036 28.5881 29.5063 28.1348 29.67C27.949 29.7366 27.7288 29.7009 27.502 29.6586C27.4062 29.6405 27.3078 29.622 27.2106 29.609C27.0926 29.5254 26.9627 29.4908 26.866 29.5938C26.8336 29.6282 26.8069 29.6803 26.7774 29.7364C26.7241 29.8388 26.6644 29.9525 26.5484 29.9876C26.5081 29.9996 26.4571 29.9873 26.4076 29.975C26.3529 29.9616 26.2983 29.9493 26.2588 29.9711C26.11 30.0531 25.9697 30.1521 25.843 30.2419C25.6796 30.3577 25.5385 30.4581 25.4301 30.4888C25.2371 30.5433 25.0845 30.7016 24.9266 30.8635C24.806 30.9871 24.6822 31.113 24.5353 31.1954C24.3009 31.3267 24.0342 31.5202 23.7459 31.7524C23.4686 31.9643 23.2362 32.157 23.024 32.3562C22.8425 32.5264 22.6369 32.5428 22.3786 32.5648C22.2187 32.5782 22.0395 32.5928 21.8433 32.6459C21.7319 32.6763 21.6937 32.7892 21.6614 32.8925C21.6314 32.9878 21.6064 33.0751 21.5297 33.0859C21.4618 33.0956 21.359 33.0124 21.2597 32.9345C21.1493 32.8479 21.0442 32.7674 21.0042 32.826C20.9832 32.857 20.9856 32.9334 20.9904 33.0233C20.9924 33.0588 20.9946 33.0963 20.996 33.1342C20.9815 33.113 20.968 33.0944 20.9576 33.0804C20.8843 32.9817 20.7929 32.9689 20.7034 32.9579C20.6676 32.9536 20.632 32.9495 20.5979 32.9401C20.4719 32.9052 20.3465 32.9852 20.2678 33.0604C20.2344 33.0921 20.1781 33.091 20.1123 33.0906C20.0783 33.0904 20.0418 33.0904 20.0048 33.0952C19.9713 33.105 19.9371 33.1174 19.903 33.1343C19.8566 33.1572 19.8051 33.1563 19.7618 33.1558C19.7303 33.1557 19.7035 33.1553 19.687 33.164C19.6727 33.1715 19.6874 33.2059 19.704 33.2446C19.7159 33.2725 19.7288 33.3027 19.7326 33.3267C19.7418 33.3839 19.7211 33.4226 19.6888 33.4312C19.674 33.4351 19.6568 33.4322 19.6398 33.4293C19.62 33.4259 19.6002 33.4223 19.584 33.4295C19.5108 33.4617 19.4811 33.5433 19.4525 33.6257C19.4202 33.7171 19.387 33.8117 19.2896 33.8517C19.259 33.8643 19.2175 33.8672 19.1774 33.8698C19.1359 33.8721 19.0942 33.8759 19.0695 33.8891C18.9693 33.9428 18.9508 34.0778 18.9349 34.2011C18.9239 34.2835 18.9151 34.3596 18.882 34.4051C18.8229 34.4871 18.8545 34.601 18.8787 34.6844C18.8911 34.7276 18.9018 34.7628 18.896 34.7817C18.8824 34.79 18.8683 34.7981 18.8544 34.8056C18.8388 34.8094 18.8227 34.8132 18.8145 34.8242C18.8139 34.825 18.8135 34.8261 18.8128 34.8269C18.7329 34.8653 18.6482 34.894 18.5646 34.9223C18.3781 34.9848 18.1988 35.0445 18.1139 35.1941C18.0954 35.2264 18.1021 35.2819 18.1093 35.3381C18.1182 35.4067 18.1297 35.4751 18.0986 35.5026C18.0245 35.568 17.9106 35.5884 17.8009 35.6099C17.6369 35.6408 17.4786 35.6808 17.5162 35.8321C17.5288 35.8818 17.5646 35.9429 17.6024 36.0027C17.6219 36.0335 17.642 36.0641 17.6594 36.0928C17.6606 36.0953 17.6619 36.0979 17.6631 36.1004C17.6426 36.0864 17.6225 36.073 17.6028 36.0601C17.5765 36.0432 17.5511 36.0272 17.5267 36.0117C17.4386 35.956 17.3632 35.9082 17.3079 35.8529C17.1764 35.7233 16.9999 35.5415 16.845 35.4502C16.8028 35.4256 16.7578 35.3953 16.7126 35.3644C16.599 35.2874 16.4839 35.2067 16.3991 35.2229C16.3633 35.2298 16.2962 35.2468 16.2652 35.2872C16.2463 35.312 16.2401 35.345 16.2615 35.387C16.2741 35.4114 16.3092 35.4417 16.3485 35.4747C16.419 35.5343 16.5031 35.6035 16.4949 35.672C16.4936 35.6834 16.4915 35.6954 16.489 35.7078C16.4791 35.7569 16.4679 35.8134 16.5239 35.864C16.5883 35.9225 16.6765 35.9608 16.7791 36.0059C16.9128 36.0645 17.0706 36.1357 17.2371 36.2696C17.2701 36.296 17.275 36.3179 17.279 36.3341C17.2818 36.3456 17.2842 36.3546 17.295 36.3606C17.3075 36.3676 17.3355 36.3779 17.3708 36.3911C17.4956 36.4375 17.7125 36.5198 17.6822 36.6053C17.6739 36.6289 17.6519 36.6497 17.632 36.6689C17.6026 36.6972 17.5781 36.7219 17.6109 36.7413C17.6233 36.7487 17.637 36.7562 17.6513 36.7637C17.6345 36.7896 17.6177 36.816 17.6009 36.8429C17.5436 36.8609 17.524 36.9153 17.5008 36.9833C17.4952 36.9999 17.4891 37.0174 17.4822 37.0355C17.4493 37.0906 17.4163 37.1472 17.3837 37.2039C17.3469 37.2448 17.2979 37.285 17.2307 37.3226C17.096 37.3979 16.9065 37.4407 16.7208 37.4868C16.6425 37.5062 16.5648 37.5261 16.4924 37.5492C16.491 37.5301 16.4878 37.5122 16.4803 37.4966C16.4286 37.3902 16.2851 37.3035 16.1532 37.2228C16.0655 37.1691 15.983 37.1181 15.9368 37.0658C15.8523 36.9699 15.7273 36.9301 15.6346 36.9012C15.5865 36.8861 15.5471 36.8737 15.5271 36.8574C15.511 36.8443 15.5077 36.8263 15.5044 36.8078C15.5015 36.7917 15.4984 36.7749 15.4869 36.7607C15.3468 36.5871 15.2312 36.5782 15.0611 36.5695C14.9674 36.5645 14.8574 36.5592 14.7184 36.5245C14.5723 36.4848 14.5323 36.4655 14.4982 36.3848C14.411 36.4053 14.3238 36.4268 14.2366 36.4487C14.2345 36.4689 14.2732 36.4988 14.339 36.5446C14.4564 36.6265 14.4639 36.7564 14.4712 36.8577C14.4745 36.9046 14.4776 36.9454 14.491 36.9723C14.5623 37.1149 14.7221 37.1321 14.8619 37.1489C14.939 37.158 15.0102 37.1668 15.058 37.1943C15.0785 37.2061 15.1024 37.207 15.1268 37.208C15.1456 37.2088 15.1647 37.2095 15.1828 37.2153C15.3136 37.2576 15.3904 37.3499 15.4627 37.4343C15.504 37.4826 15.544 37.5285 15.591 37.5617C15.6053 37.5719 15.6203 37.581 15.6349 37.5898C15.6561 37.6026 15.6764 37.6149 15.6926 37.6291C15.7295 37.6617 15.7462 37.7093 15.7646 37.7617C15.774 37.7885 15.784 37.8164 15.7974 37.8438C15.8148 37.8794 15.8639 37.905 15.9151 37.9319C15.9513 37.9509 15.9886 37.9705 16.017 37.9944C16.0684 38.0378 16.0746 38.0951 16.0806 38.1486C16.0833 38.1719 16.0861 38.1944 16.0924 38.2144C16.095 38.2226 16.103 38.2284 16.1152 38.2326C16.1345 38.3223 16.1568 38.4075 16.1794 38.4903C16.2915 38.8894 16.4 39.2254 16.2355 39.5673C16.2314 39.5714 16.2269 39.5763 16.2221 39.582C16.1916 39.6181 16.1904 39.6853 16.2066 39.7604C16.1382 39.999 16.0841 40.3062 16.0417 40.6105C15.9209 40.6767 15.8211 40.7577 15.7457 40.8529C15.6043 41.0324 15.587 41.2131 15.5725 41.4231C15.5619 41.5787 15.5526 41.7504 15.5002 41.9568C15.4524 42.1451 15.417 42.336 15.4027 42.5237C15.4052 42.7399 15.4025 42.9153 15.4206 43.0896C15.4549 43.4661 15.5644 43.8454 15.695 44.1054C15.7635 44.2454 15.7599 44.445 15.7732 44.6397C15.7902 44.9122 15.8402 45.1707 16.0695 45.1431C16.1422 45.1338 16.2467 45.0928 16.3472 45.0514C16.4183 45.0214 16.4875 44.9915 16.5431 44.9734C16.5789 45.0339 16.6139 45.0917 16.6526 45.1522C16.6531 45.1529 16.6535 45.1535 16.6539 45.1542C16.6589 45.3347 16.721 45.578 16.9652 45.607C17.0119 45.6717 17.0593 45.7359 17.1053 45.7983C17.2067 45.9335 17.3085 46.0658 17.4139 46.1981C17.448 46.2413 17.4835 46.2851 17.5186 46.3285C17.5189 46.3289 17.5193 46.3294 17.5196 46.3298C17.5911 46.4177 17.6637 46.5052 17.7365 46.5916C17.7674 46.6284 17.7989 46.6653 17.8304 46.702C17.9107 46.7955 17.9917 46.8879 18.0735 46.9797C18.1167 47.0283 18.16 47.0764 18.2046 47.1252C18.2764 47.204 18.3484 47.2818 18.4223 47.3597C18.5409 47.4849 18.6613 47.6087 18.7813 47.7256C18.8011 47.7448 18.8114 47.7747 18.8129 47.8119C18.8138 47.8488 18.8028 47.8881 18.7832 47.9241C18.7635 47.9601 18.736 47.9906 18.7028 48.0083C18.6692 48.0257 18.6365 48.0305 18.6085 48.0217C18.4392 47.9681 18.2712 47.9073 18.1035 47.8432C17.9994 47.8031 17.8967 47.7628 17.7939 47.7206C17.7302 47.6943 17.6679 47.6682 17.6054 47.6417C17.4871 47.5912 17.3688 47.539 17.2507 47.4849C17.2044 47.4637 17.1579 47.4421 17.1118 47.4206C17.0032 47.3698 16.8941 47.3168 16.7855 47.2625C16.7849 47.2621 16.7842 47.2618 16.7836 47.2615C16.7305 47.235 16.6769 47.2078 16.6246 47.1811C16.4627 47.0977 16.3029 47.012 16.1412 46.92C16.0572 46.8732 15.9707 46.8224 15.8848 46.7711C15.8371 46.7426 15.7891 46.7136 15.7425 46.6852C15.717 46.6695 15.6913 46.6533 15.6655 46.637C15.5714 46.5782 15.4778 46.5179 15.3847 46.4559C14.8749 46.1117 14.3864 45.6942 13.962 45.1659C13.4619 44.5738 13.0945 43.7166 12.8603 43.1647C12.8565 43.1554 12.8527 43.146 12.8489 43.1367C12.5543 42.3954 12.365 41.6903 12.2166 40.9582C12.1026 40.3439 11.9939 39.7889 12.0149 38.9716C12.1159 37.0187 12.3726 35.4644 13.2048 33.5188C14.3602 31.3159 15.6006 30.4288 16.4898 29.3236C17.0204 28.7593 17.5781 28.2829 18.1294 27.8648C18.7177 27.4177 19.3255 27.0264 19.8471 26.6968C20.1065 26.5325 20.352 26.3783 20.508 26.2663C20.7298 26.1155 20.955 25.9596 21.1882 25.7972C21.3292 25.6988 21.4757 25.5965 21.629 25.4897Z" fill="black"/>
<path d="M25.3403 59.9047C26.8776 59.8069 28.3571 60.7297 29.8996 60.7315C31.8149 60.7338 33.7606 59.852 35.6802 60.0162C37.5888 60.1805 39.5066 60.4163 41.4183 60.7071C43.3321 60.9979 45.2431 61.3436 47.1579 61.7264C49.0687 62.1093 50.9835 62.5292 52.8958 62.9699C54.1946 63.2693 55.4949 63.5783 56.7936 63.8911C57.3637 64.0282 57.9322 64.166 58.502 64.3042C58.9271 64.4076 59.3522 64.511 59.7773 64.6143C59.8364 64.6289 59.893 64.688 59.9348 64.7819C59.9765 64.8759 60.0001 64.9962 60 65.1206C59.9999 65.2451 59.9762 65.3657 59.9343 65.4594C59.8924 65.5528 59.8357 65.6111 59.7766 65.6251C59.3479 65.7252 58.9192 65.8253 58.4905 65.9255C58.0144 66.0365 57.539 66.1478 57.063 66.2581C56.988 65.7476 56.8852 65.3605 56.6924 65.1895C56.5941 65.1022 56.4506 65.066 56.345 65.1608C56.2501 65.2461 56.1787 65.398 56.1109 65.5428C56.0399 65.6943 55.9725 65.8381 55.8859 65.8889C55.7388 65.9752 55.599 66.1919 55.4521 66.4196C55.3987 66.5024 55.3443 66.5869 55.2883 66.6669C54.8338 66.7707 54.3794 66.8737 53.925 66.9758C53.7495 66.9215 53.5882 66.8775 53.4513 66.8985C53.3285 66.9172 53.216 67.0251 53.104 67.1592C53.0337 67.1749 52.9634 67.1905 52.893 67.2061C52.439 67.3066 51.9849 67.4055 51.5307 67.5035C51.1763 67.3673 50.8049 67.235 50.322 67.1769C50.1139 67.1519 49.9085 67.0782 49.7111 67.0075C49.4195 66.9031 49.1452 66.805 48.9048 66.8783C48.744 66.9274 48.5749 66.8553 48.4063 66.7833C48.1801 66.6868 47.9543 66.5905 47.7496 66.787C47.6209 66.9105 47.5027 67.0607 47.3932 67.2C47.2191 67.4217 47.0669 67.6156 46.9291 67.629C46.6702 67.654 46.446 67.8155 46.2484 67.958C46.0107 68.1293 45.8114 68.2731 45.6363 68.1182C45.6098 68.0947 45.5794 68.0635 45.5452 68.028C45.365 67.841 45.0769 67.5419 44.6631 67.7063C44.5159 67.7649 44.3775 67.9171 44.242 68.0664C44.0448 68.2838 43.8532 68.4948 43.6481 68.4009C43.6174 68.3868 43.5854 68.328 43.5563 68.2742C43.5192 68.2058 43.4869 68.1461 43.4677 68.198C43.4115 68.3503 43.3222 68.5187 43.2253 68.7019C43.1541 68.8365 43.0786 68.9792 43.009 69.129C42.4775 69.2136 41.9459 69.2947 41.4142 69.3715C41.1706 69.4067 40.9269 69.441 40.6831 69.4744C40.5585 69.2451 40.431 69.0385 40.2963 68.8822C40.1203 68.678 39.8921 68.6154 39.598 68.5343C39.3816 68.4747 39.1293 68.4049 38.8358 68.262C38.2925 67.9974 37.7344 68.0568 37.3767 68.1986C37.3011 68.2286 37.225 68.2607 37.1437 68.2955C36.8352 68.4276 36.4503 68.5931 35.7192 68.7756C35.0275 68.9482 34.4394 68.993 33.9975 69.0266C33.772 69.0438 33.5845 69.0576 33.4409 69.0845C33.1951 69.1305 32.8933 69.1715 32.5904 69.2124C32.1162 69.2765 31.6391 69.3407 31.369 69.4263C31.2729 69.4568 31.172 69.4945 31.063 69.5347C30.7611 69.6464 30.3964 69.781 29.8937 69.8589C29.366 69.9406 29.0389 69.8849 28.6992 69.7638C28.5611 69.7146 28.4392 69.5201 28.3137 69.3191C28.1356 69.0338 27.9498 68.7361 27.6985 68.8249C27.6398 68.8457 27.5772 68.8921 27.5117 68.9407C27.3914 69.0301 27.2613 69.127 27.1281 69.0845C27.0817 69.0697 27.0407 69.0169 27.0006 68.9651C26.9565 68.9081 26.9132 68.8524 26.8642 68.8493C26.6811 68.8377 26.503 68.8509 26.3447 68.8627C26.1405 68.878 25.9693 68.8906 25.8631 68.8444C25.6737 68.7621 25.4667 68.8358 25.257 68.9109C25.0969 68.9682 24.9351 69.0265 24.7784 69.0156C24.3308 68.9846 23.7153 69.1251 23.081 69.3593C22.8411 69.4478 22.6378 69.3269 22.3772 69.1716C22.2152 69.0751 22.031 68.9648 21.8021 68.884C21.6723 68.8383 21.5623 68.946 21.4606 69.0455C21.3668 69.1372 21.2799 69.2219 21.1907 69.1741C21.112 69.1317 21.0622 68.9506 21.0149 68.7786C20.9623 68.5872 20.9128 68.4072 20.83 68.4423C20.7859 68.461 20.7324 68.5516 20.6686 68.6592C20.6434 68.7018 20.6165 68.7468 20.5881 68.7914C20.5895 68.7547 20.5899 68.7219 20.5899 68.697C20.59 68.5213 20.5055 68.4288 20.4226 68.3381C20.3895 68.302 20.3565 68.2662 20.3294 68.2254C20.2298 68.0753 20.0411 68.0509 19.8968 68.0579C19.8358 68.0608 19.7805 68.0063 19.716 67.9427C19.6588 67.8863 19.5942 67.8226 19.5119 67.7855C19.4649 67.7644 19.4289 67.7135 19.399 67.671C19.3774 67.6402 19.3591 67.6139 19.342 67.607C19.3273 67.6011 19.3154 67.6514 19.302 67.7082C19.2924 67.749 19.2819 67.7932 19.269 67.8221C19.2383 67.8911 19.1988 67.9119 19.1711 67.8897C19.1583 67.8795 19.1482 67.8599 19.1381 67.8404C19.1264 67.8177 19.1148 67.7948 19.0987 67.7868C19.0252 67.7501 18.9536 67.8075 18.8792 67.8672C18.7975 67.9328 18.7123 68.0009 18.6174 67.95C18.5875 67.934 18.5557 67.8973 18.5249 67.8617C18.4927 67.8244 18.4614 67.7884 18.4348 67.7788C18.3266 67.7399 18.225 67.8656 18.1315 67.9811C18.0693 68.058 18.0106 68.1303 17.9562 68.1468C17.8563 68.1771 17.8027 68.3279 17.7632 68.4393C17.7427 68.497 17.726 68.5444 17.7085 68.5587C17.6925 68.5545 17.6762 68.5495 17.6602 68.5441C17.6456 68.533 17.6305 68.5215 17.6163 68.5252C17.6152 68.5255 17.6141 68.5261 17.6131 68.5264C17.5238 68.4898 17.4361 68.438 17.3489 68.3863C17.1532 68.2701 16.9599 68.1551 16.7555 68.2199C16.7114 68.2339 16.6665 68.2962 16.6209 68.3595C16.5649 68.437 16.5077 68.5163 16.4494 68.5106C16.3105 68.497 16.1703 68.3943 16.0322 68.2931C15.8245 68.1408 15.6215 67.9922 15.4348 68.1554C15.3732 68.2092 15.3131 68.2989 15.2529 68.3893C15.2193 68.4397 15.1855 68.4905 15.1515 68.5349C15.1587 68.4525 15.1625 68.375 15.1661 68.3028C15.1735 68.154 15.1799 68.0266 15.2126 67.9184C15.2899 67.6626 15.3775 67.3106 15.3678 67.0538C15.3651 66.9841 15.3672 66.9065 15.3696 66.8284C15.3754 66.6323 15.3814 66.4321 15.3096 66.3416C15.2612 66.2806 15.1369 66.1405 15.0578 66.2904C15.0406 66.3231 15.0302 66.3878 15.0185 66.4598C14.9975 66.5891 14.9726 66.7422 14.8976 66.7778C14.885 66.7838 14.8713 66.7892 14.8571 66.7943C14.8006 66.8144 14.7373 66.8366 14.7136 66.9405C14.6864 67.0602 14.6922 67.1973 14.699 67.3572C14.7078 67.5655 14.7183 67.8128 14.6596 68.1109C14.648 68.1698 14.6258 68.19 14.609 68.2053C14.5972 68.2161 14.5882 68.2248 14.5873 68.2425C14.5863 68.2629 14.59 68.3052 14.5948 68.3589C14.6118 68.548 14.6412 68.8786 14.5184 68.8926C14.4852 68.8963 14.4472 68.8806 14.4131 68.8664C14.3629 68.8454 14.3212 68.8281 14.3156 68.8822C14.3135 68.9027 14.312 68.925 14.3108 68.948C14.2708 68.9415 14.2308 68.935 14.1908 68.9285C14.1396 68.864 14.0676 68.8696 13.9778 68.8767C13.956 68.8785 13.933 68.8801 13.9091 68.881C13.8302 68.8677 13.7513 68.8544 13.6724 68.8408C13.6099 68.8134 13.5433 68.7689 13.4731 68.6982C13.3323 68.5566 13.2098 68.3229 13.0902 68.0944C13.0397 67.9982 12.9898 67.9026 12.9391 67.8154C12.9588 67.8047 12.9766 67.792 12.9904 67.7746C13.0842 67.6552 13.1219 67.4204 13.1565 67.2043C13.1796 67.0605 13.2013 66.925 13.2373 66.8375C13.3033 66.6773 13.2966 66.4899 13.2918 66.3513C13.2893 66.2795 13.2874 66.2206 13.2962 66.1856C13.3032 66.1576 13.3196 66.1444 13.3364 66.1308C13.3511 66.1189 13.3663 66.1064 13.376 66.0839C13.4939 65.8095 13.4585 65.6503 13.4069 65.4186C13.3785 65.2907 13.3453 65.1407 13.33 64.9372C13.3169 64.7218 13.3213 64.6587 13.3831 64.5729C13.335 64.4665 13.2868 64.3601 13.2387 64.2536C13.2198 64.2606 13.2055 64.3271 13.1854 64.4376C13.1494 64.6351 13.0324 64.7072 12.9409 64.7636C12.8986 64.7897 12.8617 64.8125 12.8409 64.8428C12.7303 65.0038 12.7624 65.228 12.7908 65.4253C12.8064 65.5338 12.8208 65.6343 12.8096 65.7116C12.8048 65.7447 12.8116 65.7775 12.8185 65.8109C12.8238 65.8368 12.8292 65.8631 12.8295 65.8901C12.8309 66.0866 12.7655 66.2324 12.7047 66.3678C12.6699 66.4453 12.6368 66.5197 12.6184 66.5981C12.6128 66.622 12.6084 66.6463 12.6042 66.67C12.5982 66.7045 12.5922 66.7374 12.583 66.7656C12.5618 66.8299 12.5183 66.8732 12.4706 66.9204C12.4461 66.9446 12.4206 66.9699 12.3964 66.9996C12.3651 67.0381 12.3539 67.1158 12.3419 67.197C12.3335 67.2544 12.3247 67.3134 12.3085 67.3621C12.2792 67.4501 12.22 67.4819 12.165 67.5114C12.1411 67.5242 12.1179 67.537 12.0984 67.5534C12.0905 67.5601 12.0867 67.5735 12.0858 67.5918C11.9956 67.6533 11.9094 67.7161 11.8256 67.7776C11.4052 68.0861 11.0413 68.3535 10.4979 68.1596C10.3951 68.123 10.2848 68.1303 10.1733 68.1596C9.81665 68.0826 9.4598 68.003 9.10328 67.9214C9.03271 67.7444 8.94638 67.5957 8.84419 67.4791C8.65226 67.2601 8.45483 67.2133 8.22186 67.158C8.04962 67.1171 7.85793 67.0715 7.63455 66.9484C7.25925 66.7415 6.87392 66.5666 6.43911 66.4756C6.00619 66.3851 5.51055 66.3183 5.15989 66.2947C4.96874 66.2817 4.76795 66.1234 4.58082 65.976C4.3176 65.7687 4.08141 65.5829 3.93721 65.8523C3.89116 65.9384 3.84664 66.0879 3.80331 66.2331C3.77246 66.3366 3.74203 66.4376 3.71222 66.5128C3.63285 66.4894 3.55339 66.4663 3.47395 66.4427C3.33283 66.2632 3.11352 66.0707 2.90152 66.2709C2.81959 66.2462 2.7376 66.2216 2.65845 66.1966C2.48573 66.1444 2.31674 66.0915 2.14622 66.0382C2.09056 66.0206 2.03434 66.0029 1.97799 65.9852C1.97746 65.985 1.97692 65.9848 1.97639 65.9846C1.86296 65.9488 1.74867 65.9129 1.63627 65.8767C1.58813 65.8613 1.53999 65.8458 1.49185 65.8304C1.36951 65.7912 1.24628 65.7519 1.12518 65.7122C1.06108 65.6911 0.996369 65.6701 0.931546 65.6489C0.826381 65.6143 0.720421 65.5796 0.615003 65.5447C0.44452 65.4882 0.274836 65.431 0.104828 65.3735C0.0770242 65.3639 0.0503059 65.3341 0.0306701 65.2888C0.0110414 65.2434 -3.0007e-05 65.1865 6.10806e-08 65.1279C3.85052e-05 65.0693 0.0112035 65.0123 0.030899 64.9671C0.0505814 64.922 0.0772724 64.8929 0.105056 64.8836C0.275186 64.8276 0.445087 64.7722 0.61569 64.7173C0.721127 64.6833 0.827049 64.6491 0.932232 64.6155C0.997086 64.5949 1.06174 64.5745 1.12587 64.554C1.24698 64.5154 1.37041 64.4769 1.49276 64.4389C1.5409 64.4238 1.58904 64.4088 1.63719 64.3938C1.74988 64.3586 1.86449 64.3237 1.97822 64.289C1.9789 64.2888 1.97959 64.2886 1.98028 64.2884C2.03623 64.2713 2.09209 64.2542 2.14736 64.2372C2.31795 64.1855 2.48704 64.1343 2.65983 64.0837C2.7491 64.0563 2.84213 64.0296 2.93448 64.0026C2.9859 63.9876 3.03722 63.9725 3.0876 63.9575C3.11515 63.9496 3.14307 63.9417 3.17115 63.9338C3.81542 63.7465 4.45516 63.5662 5.10084 63.3934C5.7441 63.2205 6.38851 63.0547 7.03099 62.8956C7.67503 62.7364 8.31794 62.5841 8.96138 62.438C13.0449 61.5102 17.1447 60.7494 21.2463 60.2733C21.8314 60.205 22.4317 60.1433 23.0179 60.0881C23.6105 60.0328 24.1909 59.9838 24.7851 59.9419C24.9655 59.9288 25.1505 59.9165 25.3403 59.9047Z" fill="black"/>
<path d="M25.0073 52.2273C24.9095 51.4586 25.8323 50.7189 25.834 49.9476C25.8363 48.99 24.9545 48.0172 25.1188 47.0573C25.283 46.1031 25.5189 45.1442 25.8097 44.1883C26.1005 43.2314 26.4461 42.2759 26.829 41.3185C27.2118 40.3631 27.6318 39.4057 28.0725 38.4496C28.3718 37.8001 28.6808 37.15 28.9937 36.5007C29.1308 36.2156 29.2685 35.9314 29.4068 35.6465C29.5101 35.4339 29.6135 35.2214 29.7169 35.0088C29.7314 34.9793 29.7906 34.9509 29.8844 34.9301C29.9784 34.9092 30.0988 34.8974 30.2232 34.8975C30.3476 34.8975 30.4682 34.9094 30.5619 34.9303C30.6553 34.9512 30.7136 34.9796 30.7276 35.0091C30.8278 35.2235 30.9279 35.4378 31.028 35.6522C31.1391 35.8903 31.2503 36.1279 31.3607 36.366C30.8502 36.4034 30.463 36.4549 30.292 36.5512C30.2048 36.6004 30.1685 36.6721 30.2634 36.725C30.3486 36.7724 30.5006 36.8081 30.6454 36.842C30.7969 36.8775 30.9407 36.9112 30.9915 36.9545C31.0777 37.0281 31.2944 37.098 31.5221 37.1714C31.605 37.1981 31.6894 37.2253 31.7695 37.2533C31.8733 37.4805 31.9763 37.7077 32.0784 37.9349C32.024 38.0227 31.9801 38.1034 32.001 38.1718C32.0198 38.2332 32.1276 38.2895 32.2618 38.3454C32.2774 38.3806 32.293 38.4158 32.3087 38.4509C32.4092 38.6779 32.508 38.905 32.606 39.1321C32.4698 39.3093 32.3375 39.495 32.2794 39.7365C32.2544 39.8405 32.1807 39.9432 32.1101 40.0419C32.0057 40.1877 31.9075 40.3248 31.9809 40.4451C32.0299 40.5254 31.9578 40.61 31.8858 40.6943C31.7894 40.8074 31.693 40.9203 31.8895 41.0227C32.0131 41.087 32.1633 41.1461 32.3026 41.2008C32.5243 41.2879 32.7181 41.364 32.7315 41.4329C32.7566 41.5624 32.9181 41.6745 33.0605 41.7733C33.2318 41.8921 33.3756 41.9918 33.2207 42.0793C33.1973 42.0925 33.1661 42.1077 33.1306 42.1248C32.9436 42.2149 32.6445 42.359 32.8089 42.5659C32.8674 42.6395 33.0196 42.7087 33.169 42.7765C33.3863 42.8751 33.5974 42.9709 33.5034 43.0734C33.4894 43.0887 33.4305 43.1047 33.3767 43.1193C33.3083 43.1378 33.2486 43.154 33.3006 43.1636C33.4529 43.1917 33.6212 43.2363 33.8044 43.2848C33.939 43.3204 34.0817 43.3581 34.2315 43.3929C34.3162 43.6587 34.3972 43.9245 34.474 44.1904C34.5092 44.3122 34.5435 44.434 34.577 44.5559C34.3477 44.6182 34.1411 44.682 33.9848 44.7493C33.7805 44.8373 33.7179 44.9514 33.6369 45.0984C33.5772 45.2066 33.5075 45.3328 33.3645 45.4795C33.1 45.7512 33.1593 46.0303 33.3012 46.2091C33.3312 46.2469 33.3632 46.2849 33.398 46.3256C33.5302 46.4798 33.6956 46.6723 33.8781 47.0379C34.0508 47.3837 34.0955 47.6778 34.1292 47.8987C34.1463 48.0115 34.1601 48.1052 34.187 48.177C34.2331 48.2999 34.274 48.4508 34.315 48.6023C34.3791 48.8393 34.4433 49.0779 34.5288 49.2129C34.5593 49.261 34.597 49.3115 34.6373 49.3659C34.7489 49.5169 34.8836 49.6993 34.9614 49.9506C35.0431 50.2145 34.9874 50.378 34.8664 50.5479C34.8172 50.6169 34.6226 50.6778 34.4216 50.7406C34.1364 50.8296 33.8387 50.9225 33.9275 51.0482C33.9482 51.0775 33.9946 51.1088 34.0433 51.1416C34.1326 51.2017 34.2295 51.2668 34.187 51.3334C34.1722 51.3566 34.1194 51.3771 34.0676 51.3971C34.0107 51.4192 33.955 51.4408 33.9519 51.4653C33.9403 51.5569 33.9535 51.646 33.9653 51.7251C33.9805 51.8272 33.9932 51.9128 33.947 51.9659C33.8646 52.0606 33.9383 52.1641 34.0134 52.2689C34.0707 52.349 34.129 52.4299 34.1182 52.5082C34.0872 52.732 34.2277 53.0398 34.4618 53.3569C34.5503 53.4769 34.4294 53.5786 34.2742 53.7088C34.1776 53.7899 34.0673 53.8819 33.9866 53.9964C33.9408 54.0613 34.0485 54.1163 34.148 54.1672C34.2397 54.2141 34.3245 54.2575 34.2766 54.3021C34.2343 54.3415 34.0532 54.3663 33.8812 54.39C33.6898 54.4163 33.5098 54.441 33.5449 54.4825C33.5636 54.5045 33.6542 54.5313 33.7618 54.5631C33.8043 54.5757 33.8494 54.5892 33.894 54.6034C33.8573 54.6027 33.8244 54.6025 33.7995 54.6025C33.6239 54.6025 33.5313 54.6447 33.4407 54.6862C33.4045 54.7027 33.3688 54.7192 33.328 54.7327C33.1779 54.7826 33.1535 54.8769 33.1604 54.949C33.1633 54.9795 33.1089 55.0072 33.0453 55.0394C32.9888 55.0681 32.9251 55.1004 32.8881 55.1415C32.867 55.165 32.8161 55.183 32.7735 55.1979C32.7428 55.2087 32.7165 55.2179 32.7096 55.2264C32.7036 55.2338 32.754 55.2398 32.8107 55.2465C32.8515 55.2513 32.8958 55.2565 32.9246 55.2629C32.9936 55.2783 33.0144 55.2981 32.9923 55.3119C32.982 55.3183 32.9624 55.3234 32.9429 55.3284C32.9202 55.3342 32.8973 55.3401 32.8893 55.3481C32.8526 55.3849 32.9101 55.4207 32.9697 55.4578C33.0353 55.4987 33.1034 55.5413 33.0526 55.5887C33.0366 55.6037 32.9999 55.6196 32.9642 55.635C32.927 55.6511 32.891 55.6668 32.8814 55.6801C32.8425 55.7341 32.9681 55.785 33.0837 55.8317C33.1605 55.8628 33.2328 55.8921 33.2494 55.9194C33.2797 55.9693 33.4305 55.9961 33.5418 56.0158C33.5995 56.0261 33.6469 56.0344 33.6612 56.0432C33.657 56.0512 33.6521 56.0594 33.6466 56.0673C33.6355 56.0747 33.6241 56.0822 33.6277 56.0893C33.628 56.0899 33.6287 56.0904 33.629 56.0909C33.5924 56.1356 33.5405 56.1794 33.4888 56.223C33.3727 56.3208 33.2577 56.4175 33.3225 56.5197C33.3365 56.5417 33.3987 56.5642 33.462 56.587C33.5395 56.615 33.6188 56.6436 33.6131 56.6727C33.5995 56.7422 33.4968 56.8123 33.3956 56.8814C33.2434 56.9852 33.0948 57.0867 33.2579 57.18C33.3118 57.2108 33.4015 57.2409 33.4919 57.271C33.5423 57.2878 33.5931 57.3047 33.6375 57.3217C33.555 57.3181 33.4776 57.3162 33.4054 57.3144C33.2565 57.3107 33.1291 57.3075 33.0209 57.2912C32.7652 57.2525 32.4131 57.2087 32.1564 57.2136C32.0867 57.2149 32.0091 57.2138 31.9309 57.2127C31.7349 57.2097 31.5347 57.2068 31.4441 57.2426C31.3831 57.2668 31.243 57.329 31.393 57.3685C31.4256 57.3771 31.4904 57.3824 31.5623 57.3882C31.6916 57.3987 31.8447 57.4112 31.8804 57.4486C31.8864 57.4549 31.8918 57.4618 31.8968 57.4689C31.9169 57.4972 31.9391 57.5288 32.043 57.5406C32.1628 57.5543 32.2999 57.5514 32.4598 57.548C32.668 57.5436 32.9153 57.5383 33.2134 57.5677C33.2724 57.5735 33.2926 57.5846 33.3079 57.5929C33.3187 57.5988 33.3273 57.6034 33.345 57.6038C33.3654 57.6043 33.4078 57.6024 33.4614 57.6C33.6506 57.5916 33.9811 57.5769 33.9951 57.6383C33.9989 57.6549 33.9831 57.6739 33.9689 57.6909C33.948 57.716 33.9307 57.7369 33.9848 57.7397C34.0053 57.7407 34.0275 57.7414 34.0506 57.7421C34.0441 57.7621 34.0376 57.782 34.0311 57.802C33.9666 57.8277 33.9721 57.8637 33.9793 57.9086C33.981 57.9195 33.9826 57.931 33.9835 57.9429C33.9702 57.9823 33.9569 58.0218 33.9433 58.0612C33.916 58.0925 33.8715 58.1258 33.8008 58.1609C33.6591 58.2313 33.4255 58.2925 33.197 58.3524C33.1007 58.3776 33.0052 58.4026 32.9179 58.4279C32.9072 58.418 32.8946 58.4091 32.8771 58.4023C32.7578 58.3553 32.523 58.3365 32.3069 58.3192C32.1631 58.3077 32.0275 58.2968 31.9401 58.2788C31.7798 58.2458 31.5924 58.2491 31.4539 58.2516C31.382 58.2528 31.3231 58.2538 31.2882 58.2494C31.2601 58.2458 31.247 58.2377 31.2333 58.2292C31.2214 58.2219 31.209 58.2143 31.1864 58.2094C30.9121 58.1505 30.7529 58.1682 30.5211 58.194C30.3933 58.2082 30.2433 58.2248 30.0398 58.2324C29.8243 58.239 29.7613 58.2368 29.6754 58.2059C29.569 58.23 29.4626 58.254 29.3562 58.2781C29.3631 58.2875 29.4296 58.2947 29.5402 58.3048C29.7376 58.3227 29.8098 58.3813 29.8661 58.427C29.8922 58.4482 29.9151 58.4666 29.9453 58.477C30.1063 58.5323 30.3305 58.5162 30.5278 58.5021C30.6364 58.4943 30.7369 58.4871 30.8142 58.4927C30.8472 58.4951 30.88 58.4917 30.9135 58.4882C30.9393 58.4856 30.9656 58.4828 30.9927 58.4827C31.1891 58.482 31.3349 58.5147 31.4703 58.5451C31.5479 58.5625 31.6223 58.5791 31.7006 58.5882C31.7245 58.591 31.7489 58.5932 31.7725 58.5953C31.8071 58.5984 31.84 58.6013 31.8682 58.606C31.9324 58.6165 31.9757 58.6383 32.0229 58.6622C32.0471 58.6744 32.0724 58.6872 32.1021 58.6992C32.1407 58.7149 32.2184 58.7205 32.2995 58.7265C32.3569 58.7307 32.416 58.7351 32.4647 58.7432C32.5527 58.7578 32.5844 58.7875 32.6139 58.8149C32.6268 58.8269 32.6395 58.8385 32.656 58.8482C32.6627 58.8522 32.676 58.8541 32.6943 58.8545C32.7558 58.8996 32.8186 58.9427 32.8802 58.9847C33.1886 59.1949 33.456 59.3768 33.2622 59.6485C33.2255 59.6999 33.2328 59.7551 33.2622 59.8108C33.1851 59.9891 33.1056 60.1676 33.024 60.3458C32.8469 60.3811 32.6983 60.4243 32.5816 60.4754C32.3626 60.5713 32.3158 60.67 32.2605 60.7865C32.2197 60.8726 32.1741 60.9685 32.051 61.0802C31.8441 61.2678 31.6691 61.4605 31.5782 61.6779C31.4876 61.8944 31.4209 62.1422 31.3972 62.3175C31.3843 62.4131 31.2259 62.5135 31.0786 62.607C30.8713 62.7387 30.6855 62.8567 30.9549 62.9288C31.041 62.9519 31.1905 62.9741 31.3357 62.9958C31.4391 63.0112 31.5401 63.0264 31.6153 63.0413C31.592 63.081 31.5689 63.1208 31.5453 63.1605C31.3657 63.231 31.1732 63.3407 31.3735 63.4467C31.3487 63.4877 31.3241 63.5287 31.2991 63.5682C31.2469 63.6546 31.194 63.7391 31.1407 63.8243C31.1231 63.8522 31.1055 63.8803 31.0877 63.9085C31.0875 63.9087 31.0873 63.909 31.0871 63.9093C31.0514 63.966 31.0154 64.0231 30.9793 64.0793C30.9638 64.1034 30.9484 64.1275 30.933 64.1515C30.8938 64.2127 30.8545 64.2743 30.8148 64.3349C30.7936 64.3669 30.7727 64.3993 30.7514 64.4317C30.7169 64.4843 30.6822 64.5372 30.6472 64.59C30.5907 64.6752 30.5336 64.76 30.476 64.845C30.4665 64.8589 30.4366 64.8723 30.3913 64.8821C30.346 64.8919 30.2891 64.8975 30.2305 64.8975C30.1718 64.8974 30.1148 64.8919 30.0696 64.882C30.0246 64.8722 29.9954 64.8588 29.9862 64.8449C29.9302 64.7599 29.8748 64.6749 29.8198 64.5896C29.7859 64.5369 29.7516 64.4839 29.7181 64.4313C29.6974 64.3989 29.6771 64.3666 29.6566 64.3345C29.618 64.274 29.5794 64.2122 29.5414 64.1511C29.5264 64.127 29.5113 64.1029 29.4963 64.0789C29.4611 64.0225 29.4263 63.9652 29.3915 63.9083C29.3913 63.908 29.3911 63.9077 29.3909 63.9073C29.3738 63.8793 29.3567 63.8514 29.3397 63.8238C29.288 63.7385 29.2368 63.6539 29.1862 63.5675C29.1589 63.5229 29.1322 63.4764 29.1052 63.4302C29.0901 63.4045 29.075 63.3788 29.0601 63.3537C29.0521 63.3399 29.0442 63.3259 29.0363 63.3119C28.849 62.9897 28.6688 62.6699 28.4959 62.347C28.323 62.0254 28.1573 61.7032 27.9981 61.382C27.839 61.0599 27.6867 60.7385 27.5406 60.4168C26.6127 58.375 25.852 56.3251 25.3759 54.2743C25.3075 53.9818 25.2459 53.6816 25.1906 53.3885C25.1354 53.0922 25.0863 52.802 25.0444 52.5049C25.0313 52.4147 25.019 52.3222 25.0073 52.2273Z" fill="black"/>
<path d="M45.7247 40.2961C45.7596 39.7347 46.3651 39.228 46.6567 38.5806C46.7423 38.3777 46.8014 38.1735 46.8112 37.9688C46.89 36.8844 45.869 35.5925 46.0349 35.7549C46.053 35.7732 46.0761 35.8037 46.1083 35.8489C45.9224 34.9936 45.6477 34.026 45.3413 33.0918C45.2323 32.7544 45.1075 32.4084 45.0341 32.1479C44.762 31.488 44.4097 30.7744 44.0493 30.0921C43.9281 29.8571 43.7842 29.6086 43.7183 29.4378C43.9891 29.6178 43.9613 29.5565 43.9811 29.5506C43.9866 29.5315 43.9655 29.4982 43.9408 29.464C43.8873 29.3934 43.8104 29.313 43.7284 29.2312C43.5627 29.067 43.3754 28.8956 43.1861 28.7237C42.8051 28.3789 42.4094 28.0286 42.0131 27.6751C41.9227 27.5943 41.8321 27.5133 41.7405 27.4317L41.851 27.4747C41.3502 27.013 40.7666 26.6327 40.025 26.2454C39.9841 26.2237 39.9445 26.2022 39.9032 26.1805C39.5696 26.0039 39.2458 25.8265 38.9216 25.6489C38.6496 25.4996 38.3779 25.3503 38.1059 25.2014C38.0682 25.1806 38.0391 25.1159 38.0259 25.0187C38.0126 24.9213 38.0157 24.7999 38.0356 24.6771C38.0555 24.5543 38.091 24.4378 38.1345 24.35C38.1778 24.2624 38.2259 24.2111 38.2683 24.2038C38.5763 24.1523 38.8843 24.1014 39.1915 24.0503C39.5327 23.9936 39.873 23.9367 40.2094 23.8787C40.2001 24.0374 40.1945 24.1847 40.1941 24.318C40.1913 24.6144 40.2191 24.8423 40.2917 24.9729C40.3453 25.0695 40.4378 25.1206 40.5245 25.0384C40.6031 24.9646 40.6764 24.8226 40.7468 24.6873C40.821 24.546 40.8921 24.4121 40.9621 24.3725C41.0813 24.3055 41.22 24.11 41.3733 23.9074C41.4292 23.8337 41.4867 23.7589 41.546 23.6891C41.9186 23.6572 42.3232 23.6501 42.7225 23.6672C42.8491 23.7633 42.9621 23.8474 43.0754 23.8647C43.0896 23.8668 43.1044 23.8673 43.1195 23.8663C43.1417 23.8807 43.2213 23.8983 43.2424 23.9141C43.3231 23.9088 43.421 23.8463 43.5279 23.7666C43.5791 23.7715 43.6293 23.7759 43.6804 23.7808C44.009 23.812 44.3374 23.8452 44.6689 23.8818C44.8436 24.1059 45.0296 24.3307 45.3242 24.5254C45.4515 24.6096 45.5583 24.7386 45.6632 24.8648C45.8205 25.0527 45.9631 25.2283 46.1992 25.2689C46.2661 25.281 46.3287 25.3153 46.3992 25.3711C46.4736 25.4316 46.5349 25.4882 46.7188 25.6664C46.7313 25.6907 46.7434 25.7157 46.7557 25.7408C46.8493 25.9413 46.9154 26.1266 47.1657 26.0859C47.322 26.0595 47.4919 26.0107 47.6482 25.9649C47.8977 25.8929 48.1185 25.834 48.2053 25.8979C48.3692 26.0187 48.606 26.024 48.8161 26.0316C49.0687 26.0405 49.2824 26.0525 49.2676 26.2593C49.2653 26.2906 49.2595 26.3294 49.2527 26.3734C49.2171 26.6057 49.153 26.9702 49.4905 27.0949C49.6112 27.14 49.7965 27.1181 49.9796 27.0991C50.2459 27.0712 50.5084 27.0507 50.5461 27.2393C50.5517 27.2675 50.5238 27.3256 50.4981 27.3785C50.4655 27.4457 50.4368 27.5042 50.4865 27.4827C50.5537 27.4535 50.6273 27.4268 50.706 27.4011C50.8019 27.3754 50.9058 27.3528 51.0151 27.3303C51.1616 27.2968 51.3201 27.2662 51.4777 27.2238C51.858 27.5679 52.1911 27.8929 52.5121 28.2286C52.6585 28.3816 52.8014 28.5362 52.9415 28.6931C52.8056 28.9061 52.6874 29.106 52.6138 29.2836C52.5165 29.5142 52.561 29.7067 52.6123 29.9536C52.6498 30.1351 52.6923 30.3488 52.6815 30.6246C52.6617 31.1344 52.9143 31.5002 53.1691 31.7009C53.2229 31.7429 53.2788 31.7853 53.3388 31.8303C53.526 31.9721 53.7526 32.144 54.0545 32.4836C54.1481 32.6249 54.2409 32.7792 54.3286 32.937C54.7924 33.7899 54.909 34.3882 55.0037 34.8256C55.049 35.0475 55.0799 35.225 55.1187 35.3578C55.1851 35.5857 55.2442 35.8594 55.2963 36.1263C55.3784 36.5427 55.4442 36.9469 55.5285 37.1723C55.5585 37.2543 55.5955 37.3362 55.6344 37.4285C55.7422 37.6797 55.8695 37.984 55.9288 38.3922C55.9805 38.7504 55.9375 38.9853 55.8408 39.2044C55.8217 39.25 55.8005 39.2946 55.7775 39.3394C55.7199 39.4517 55.5179 39.5381 55.3087 39.6252C55.0118 39.749 54.7018 39.8706 54.7684 40.0852C54.784 40.1351 54.8244 40.1921 54.8667 40.2514C54.9443 40.3609 55.0276 40.4808 54.9713 40.5872C54.9517 40.624 54.8949 40.6517 54.8391 40.6783C54.7778 40.7075 54.7178 40.736 54.7092 40.7763C54.677 40.9266 54.668 41.0767 54.6589 41.2107C54.6472 41.3835 54.6348 41.5295 54.5735 41.6104C54.4644 41.7543 54.5043 41.9402 54.5419 42.1319C54.5706 42.2782 54.5981 42.4277 54.5577 42.558C54.5326 42.6386 54.5133 42.7282 54.4992 42.8244C54.4529 43.1515 54.4762 43.5678 54.5314 44.0329C54.5576 44.2588 54.3889 44.3976 54.1677 44.5752C54.0297 44.686 53.8714 44.8111 53.719 44.9928C53.6324 45.0961 53.6932 45.2381 53.7448 45.3775C53.7848 45.4854 53.8192 45.5915 53.7772 45.6706C53.7674 45.69 53.755 45.7081 53.7394 45.7247C53.6518 45.8189 53.4593 45.8024 53.2772 45.7853C53.0748 45.7653 52.8879 45.7382 52.8767 45.8381C52.8713 45.8901 52.9232 45.9871 52.9864 46.0976C53.0111 46.1417 53.0369 46.189 53.0612 46.2378C53.0297 46.2189 53.001 46.2029 52.9792 46.191C52.824 46.1085 52.7018 46.14 52.5818 46.1684C52.5345 46.1787 52.4877 46.1888 52.4393 46.1912C52.261 46.201 52.1537 46.3348 52.0928 46.4469C52.0677 46.4934 51.9947 46.5077 51.9122 46.5195C51.8389 46.5302 51.7547 46.5441 51.6874 46.5803C51.6486 46.6016 51.5896 46.599 51.5404 46.5966C51.5048 46.595 51.475 46.5925 51.4616 46.6003C51.4502 46.6069 51.4871 46.6426 51.5285 46.6828C51.5583 46.7117 51.5906 46.7432 51.6089 46.7679C51.6528 46.8267 51.6516 46.8661 51.621 46.8722C51.6067 46.8751 51.5859 46.871 51.5652 46.8669C51.5411 46.8621 51.5169 46.8571 51.503 46.8634C51.4395 46.8924 51.4551 46.9719 51.4711 47.0544C51.4881 47.1458 51.5061 47.2399 51.4211 47.273C51.3944 47.2834 51.3497 47.2833 51.3069 47.2823C51.262 47.2815 51.2185 47.2808 51.1987 47.2922C51.1177 47.3397 51.1757 47.4747 51.2265 47.6022C51.2606 47.6863 51.2929 47.7651 51.2813 47.8093C51.2596 47.8907 51.3576 48.012 51.429 48.103C51.4661 48.15 51.4965 48.1886 51.4999 48.2082C51.4891 48.2159 51.4775 48.2232 51.4656 48.2301C51.4498 48.2328 51.4336 48.2356 51.4301 48.2465C51.4298 48.2473 51.4298 48.2483 51.4296 48.2492C51.3594 48.2825 51.2765 48.3071 51.1952 48.3293C51.0122 48.3798 50.8316 48.4275 50.7894 48.5887C50.7802 48.6235 50.8087 48.6885 50.8374 48.7548C50.8729 48.8356 50.9092 48.9181 50.8775 48.9496C50.8012 49.0253 50.6563 49.0435 50.5123 49.0623C50.2968 49.0894 50.0872 49.1133 50.1274 49.3232C50.1408 49.3923 50.1825 49.4833 50.2243 49.5752C50.2476 49.6265 50.271 49.6782 50.2896 49.7256C50.2291 49.6694 50.1708 49.6183 50.1165 49.5706C50.0046 49.4724 49.9086 49.3886 49.84 49.3014C49.6779 49.0954 49.4442 48.8245 49.2402 48.6685C49.1848 48.6261 49.1255 48.5761 49.0658 48.5256C48.9161 48.399 48.7631 48.2698 48.6606 48.2525C48.5913 48.241 48.4273 48.2207 48.5081 48.3587C48.5256 48.3888 48.571 48.4356 48.6215 48.4876C48.712 48.5811 48.8192 48.6919 48.8124 48.7563C48.8113 48.7671 48.8093 48.778 48.8068 48.789C48.7968 48.8328 48.7852 48.8818 48.8544 48.9611C48.9343 49.0525 49.0426 49.1367 49.169 49.2347C49.3336 49.3624 49.5293 49.5138 49.7315 49.7371C49.7715 49.7813 49.7766 49.8068 49.7804 49.8261C49.7832 49.8397 49.7855 49.8504 49.7988 49.8622C49.814 49.8758 49.8484 49.9007 49.8919 49.9322C50.0457 50.043 50.3138 50.2377 50.2667 50.3163C50.2539 50.3376 50.2238 50.3492 50.1967 50.3595C50.1567 50.3748 50.1235 50.3876 50.1623 50.4255C50.1771 50.4398 50.1934 50.4549 50.2105 50.4704C50.2028 50.4764 50.195 50.4824 50.1873 50.4885C50.1711 50.5009 50.155 50.5133 50.1389 50.5257C50.0656 50.5127 50.0356 50.5571 49.998 50.6129C49.9888 50.6265 49.9789 50.6407 49.9681 50.655C49.9196 50.6917 49.8707 50.729 49.8206 50.7667C49.7687 50.7855 49.7008 50.7965 49.611 50.7925C49.4311 50.7844 49.1896 50.7059 48.9542 50.6274C48.8551 50.5942 48.7565 50.5613 48.6642 50.5338C48.6668 50.5148 48.667 50.4956 48.6613 50.4757C48.6224 50.3398 48.4652 50.1628 48.3206 50C48.2242 49.8919 48.1331 49.7902 48.0851 49.7122C47.997 49.5693 47.8518 49.4507 47.7451 49.3623C47.6896 49.3165 47.6443 49.2789 47.6221 49.2512C47.6043 49.2289 47.6021 49.2113 47.5998 49.1931C47.5979 49.1773 47.5957 49.1608 47.5832 49.1406C47.4311 48.8971 47.2931 48.8132 47.0942 48.689C46.9845 48.6204 46.8557 48.5401 46.6951 48.4146C46.5265 48.2802 46.4809 48.2366 46.4436 48.1486C46.3415 48.1039 46.2402 48.0583 46.1388 48.0127C46.1357 48.0267 46.1795 48.0777 46.2538 48.1606C46.3866 48.3087 46.388 48.4164 46.3885 48.5004C46.3888 48.5393 46.3888 48.5735 46.4018 48.6043C46.4705 48.7684 46.6506 48.9034 46.8107 49.0205C46.8987 49.0851 46.9803 49.1447 47.0322 49.2025C47.0544 49.2272 47.0821 49.2455 47.1102 49.2643C47.132 49.2787 47.1542 49.2934 47.1744 49.3114C47.3212 49.4419 47.3968 49.5759 47.4657 49.7012C47.5051 49.7731 47.5426 49.8422 47.5906 49.9057C47.6053 49.9251 47.6209 49.9441 47.636 49.9626C47.6582 49.9895 47.6793 50.0151 47.695 50.0397C47.7309 50.0955 47.7393 50.1503 47.7477 50.2104C47.7519 50.2412 47.7563 50.2735 47.7645 50.3081C47.7752 50.353 47.8252 50.4131 47.8773 50.4761C47.9142 50.5206 47.952 50.5666 47.9779 50.61C48.0248 50.6884 48.0131 50.7465 48.0017 50.8006C47.9968 50.8241 47.9921 50.8472 47.9922 50.8706C47.9922 50.8802 47.9994 50.8919 48.012 50.9052C48.0017 51.0036 47.9933 51.101 47.984 51.1966C47.9411 51.6519 47.8685 52.0685 47.442 52.2387C47.4244 52.2444 47.4061 52.2496 47.3869 52.2541C47.3078 52.2729 47.2535 52.3282 47.2115 52.4018C46.9684 52.5054 46.7211 52.6082 46.4692 52.7099C46.3175 52.6056 46.1742 52.5309 46.0431 52.4874C45.7966 52.406 45.6557 52.4601 45.4874 52.5239C45.3632 52.5708 45.2231 52.6237 45.0158 52.6286C44.6665 52.6374 44.3317 52.6714 44.0024 52.7911C43.6751 52.9105 43.3014 53.0702 43.016 53.1958C42.861 53.2648 42.6213 53.2057 42.403 53.1358C42.2608 53.0901 42.1246 53.0413 42.0169 53.0282C41.92 53.0051 41.8568 53.0384 41.8452 53.1923C41.8382 53.2842 41.8504 53.4365 41.8621 53.5844C41.8704 53.6898 41.8786 53.7926 41.8793 53.8708C41.8172 53.8647 41.7562 53.8584 41.696 53.8512C41.5469 53.7074 41.3475 53.564 41.2537 53.7976C41.1912 53.7892 41.127 53.7813 41.0659 53.7719C40.9327 53.7539 40.8013 53.7339 40.6694 53.7127C40.6254 53.7058 40.5843 53.6981 40.539 53.6912C40.5385 53.6911 40.5381 53.691 40.5377 53.6909C40.4496 53.6762 40.3612 53.6609 40.2735 53.6448C40.2353 53.638 40.2001 53.6305 40.1612 53.6238C40.0668 53.6056 39.9696 53.5874 39.8758 53.5671C39.8245 53.5566 39.7758 53.5455 39.7239 53.5345C39.6418 53.5162 39.5587 53.4972 39.4751 53.477C39.3404 53.444 39.2088 53.4089 39.0577 53.3667C39.0333 53.3595 39.0047 53.3318 38.9798 53.2877C38.9563 53.2435 38.9387 53.1865 38.9398 53.1279C38.9398 53.0693 38.9523 53.0123 38.9641 52.9664C38.9774 52.9207 38.9928 52.8902 39.0101 52.8791C39.1196 52.8116 39.2241 52.7375 39.3262 52.6631C39.3901 52.6169 39.4534 52.5695 39.5155 52.5224C39.5551 52.4931 39.5916 52.4646 39.6303 52.4352C39.7008 52.3804 39.7742 52.3242 39.8447 52.2687C39.8741 52.2464 39.8999 52.2248 39.9284 52.2025C39.9939 52.1506 40.0599 52.0985 40.1254 52.0462C40.1258 52.0459 40.1262 52.0456 40.1266 52.0453C40.1602 52.0192 40.1899 51.994 40.2223 51.9681C40.3199 51.8897 40.4166 51.8112 40.5149 51.7321C40.5654 51.6901 40.6185 51.6479 40.6707 51.6054C40.7003 51.5816 40.7294 51.5578 40.7573 51.5345C40.7728 51.5218 40.7887 51.5092 40.8048 51.4964C41.0064 51.3318 41.2061 51.1674 41.405 51.0037C41.455 50.9052 41.532 50.7863 41.6143 50.6552C41.8009 50.3609 42.0172 50.0118 42.2343 49.6524C42.4532 49.2914 42.6794 48.9155 42.9119 48.536C43.1057 48.2193 43.3033 47.8984 43.5063 47.5755C43.842 46.9463 43.9884 46.4036 44.3532 45.6097C44.6637 44.9024 44.9636 44.2089 45.2211 43.5579C45.3483 43.2343 45.4652 42.9201 45.5484 42.6458C45.6251 42.3893 45.6965 42.0873 45.5815 42.1688C45.5813 42.1681 45.5811 42.1673 45.5809 42.1665C45.5576 42.0499 45.597 41.7523 45.6221 41.4675C45.6458 41.2265 45.6702 40.9733 45.6949 40.7142C45.6988 40.6635 45.7026 40.6124 45.7063 40.5613C45.7123 40.4752 45.7185 40.387 45.7247 40.2961Z" fill="black"/>
</svg>
