<svg width="51" height="70" viewBox="0 0 51 70" fill="none" xmlns="http://www.w3.org/2000/svg">
<path d="M18.872 9.8285C18.4133 8.65485 18.6628 7.40846 18.821 6.26032C18.8244 6.23485 18.8279 6.20935 18.8314 6.18382C19.0134 4.77918 19.3778 3.18576 20.4625 2.09794C21.538 1.01392 22.9551 0.301213 24.4191 0.0799856C25.333 -0.0609506 26.2614 -0.0128436 27.1254 0.202691C27.6459 0.33188 28.1482 0.521348 28.6162 0.764572C29.8624 1.40901 30.8464 2.43747 31.4263 3.6031C31.8228 4.39449 32.0391 5.24955 32.0729 6.08581C32.0881 6.45289 32.0688 6.81581 32.0174 7.16933C31.979 7.43253 31.9228 7.6921 31.8505 7.94223C31.8404 7.97713 31.8124 8.00821 31.7718 8.02793C31.7311 8.04767 31.6814 8.05454 31.6322 8.04732C31.5829 8.04009 31.5372 8.01938 31.5034 7.99043C31.4697 7.96147 31.4508 7.92661 31.4493 7.89279C31.4388 7.64826 31.4119 7.40558 31.3689 7.1702C31.3212 6.90809 31.2538 6.65331 31.1689 6.4083C31.3637 6.33553 31.5069 6.25054 31.5516 6.1268C31.5744 6.06385 31.57 5.97742 31.5185 5.92654C31.4722 5.88079 31.403 5.85618 31.337 5.83397C31.268 5.81077 31.2026 5.79036 31.1696 5.7502C31.1134 5.68195 31.0073 5.63485 30.8958 5.59104C30.8552 5.57505 30.8138 5.55941 30.7738 5.54302C30.6537 5.33494 30.5201 5.13828 30.375 4.95415C30.352 4.86534 30.3258 4.78462 30.2825 4.72896C30.2436 4.67899 30.1763 4.65307 30.1008 4.63549C30.0763 4.60941 30.0516 4.58368 30.0267 4.55825C29.8657 4.39408 29.6951 4.24327 29.517 4.10695C29.4407 3.94359 29.3473 3.77443 29.1785 3.60037C29.1056 3.52556 29.0435 3.43881 28.98 3.35643C28.8868 3.23511 28.7901 3.12327 28.6697 3.0834C28.5895 3.05685 28.5305 2.98892 28.4678 2.92174C28.3848 2.83213 28.294 2.74368 28.1652 2.7709C28.0844 2.78806 28.0053 2.81919 27.9336 2.84969C27.8196 2.89831 27.7241 2.94498 27.6601 2.92758C27.54 2.89503 27.417 2.92466 27.3135 2.95475C27.1876 2.99063 27.0885 3.02635 27.0226 2.94889C27.0126 2.93715 27.0014 2.92204 26.9886 2.90494C26.9415 2.84183 26.8716 2.75232 26.7591 2.71865C26.7116 2.70442 26.6572 2.70044 26.5965 2.71346C26.5241 2.72906 26.4526 2.784 26.3863 2.83946C26.2893 2.92024 26.2024 3.00157 26.1114 2.96358C26.0977 2.9579 26.0834 2.93436 26.0702 2.91292C26.0533 2.88565 26.0379 2.86196 26.0295 2.88286C26.0047 2.94415 25.9661 3.01235 25.927 3.08728C25.8982 3.14232 25.8694 3.20098 25.844 3.26262C25.6253 3.31032 25.4134 3.37484 25.2104 3.4542C25.1175 3.49053 25.0259 3.53012 24.9367 3.57256C24.8611 3.50039 24.7838 3.43927 24.7084 3.40017C24.6096 3.34927 24.5066 3.3619 24.3747 3.38553C24.2775 3.40308 24.1645 3.42651 24.0203 3.44036C23.7512 3.46604 23.5433 3.63777 23.4497 3.78215C23.4296 3.81272 23.4102 3.84418 23.3902 3.87815C23.3158 4.00764 23.2229 4.16744 23.0606 4.4488C22.909 4.71535 22.7818 4.92721 22.6935 5.09185C22.6484 5.17594 22.6142 5.24666 22.5944 5.30456C22.5608 5.40328 22.5187 5.5227 22.4835 5.64359C22.4274 5.83278 22.3898 6.02655 22.3922 6.14121C22.3929 6.1819 22.3965 6.22516 22.401 6.27163C22.413 6.39097 22.4318 6.52988 22.4376 6.7088C22.438 6.72271 22.4384 6.73684 22.4388 6.75118C22.4446 6.95923 22.4178 7.0809 22.3674 7.21361C22.3473 7.26703 22.27 7.3157 22.1912 7.3696C22.0795 7.44512 21.9647 7.53451 22.0104 7.6392C22.021 7.66343 22.0423 7.68806 22.0648 7.71352C22.1062 7.76034 22.1518 7.80836 22.1436 7.86569C22.1408 7.88578 22.1227 7.90617 22.1052 7.92641C22.0859 7.94866 22.0672 7.97084 22.0698 7.99171C22.0795 8.06949 22.101 8.14327 22.1216 8.20783C22.1481 8.29104 22.173 8.35993 22.1683 8.40871C22.1598 8.4959 22.2163 8.57297 22.2752 8.64603C22.3204 8.70234 22.3672 8.75685 22.3891 8.81926C22.4512 8.9983 22.6214 9.21073 22.8426 9.37571C22.926 9.438 22.9329 9.53182 22.9495 9.65609C22.9599 9.73312 22.9741 9.82178 23.0139 9.91721C23.0366 9.97138 23.1007 9.97796 23.159 9.98218C23.2128 9.98622 23.262 9.98852 23.2743 10.0284C23.2852 10.0636 23.2489 10.1295 23.2154 10.193C23.178 10.2636 23.1442 10.3311 23.1808 10.3464C23.2003 10.3544 23.2425 10.3443 23.2921 10.3312C23.3117 10.3261 23.3325 10.3206 23.3536 10.3155C23.3433 10.326 23.3344 10.3357 23.3277 10.3431C23.2807 10.3953 23.2839 10.4479 23.2885 10.4998C23.2903 10.5205 23.2924 10.5411 23.2912 10.5615C23.2869 10.6368 23.3487 10.7001 23.4033 10.7385C23.4263 10.7548 23.4334 10.7876 23.4424 10.826C23.4503 10.86 23.4598 10.8986 23.483 10.9332C23.4962 10.953 23.4986 10.9795 23.5006 11.0016C23.5021 11.0176 23.5035 11.0313 23.5087 11.0382C23.5132 11.0441 23.5293 11.0307 23.5473 11.0155C23.5603 11.0046 23.5743 10.9927 23.5858 10.9865C23.6132 10.9717 23.6331 10.975 23.6391 10.9895C23.6418 10.9962 23.6415 11.0054 23.6412 11.0145C23.6408 11.0251 23.6404 11.0358 23.645 11.0426C23.6663 11.0738 23.7075 11.0727 23.7498 11.0706C23.7964 11.0685 23.8438 11.0651 23.8719 11.1048C23.8807 11.1173 23.8863 11.1374 23.8919 11.157C23.8978 11.1774 23.9038 11.1972 23.9129 11.2067C23.9505 11.2452 24.0168 11.2233 24.0764 11.2019C24.1161 11.1877 24.1531 11.1738 24.1784 11.1788C24.2251 11.188 24.2726 11.1435 24.3072 11.1105C24.3252 11.0934 24.3398 11.0792 24.3492 11.0772C24.3549 11.0816 24.3606 11.0864 24.3661 11.0913C24.3702 11.098 24.3744 11.1049 24.3807 11.1061C24.3812 11.1062 24.3818 11.1061 24.3822 11.1062C24.4123 11.1355 24.4403 11.17 24.4683 11.2039C24.5311 11.28 24.5993 11.3548 24.6956 11.3601C24.7163 11.3613 24.7436 11.3441 24.7709 11.3263C24.8044 11.3046 24.8381 11.2819 24.8622 11.2916C24.9191 11.3146 24.9678 11.3709 25.0186 11.4258C25.094 11.5081 25.1755 11.587 25.2726 11.5391C25.3044 11.5232 25.3378 11.4928 25.3707 11.4618C25.389 11.4445 25.4073 11.427 25.4251 11.4119C25.4167 11.4439 25.41 11.4742 25.4037 11.5024C25.3908 11.5607 25.3797 11.6105 25.3574 11.6506C25.3049 11.7456 25.237 11.8762 25.2229 11.9781C25.2191 12.0057 25.2124 12.0361 25.2056 12.0666C25.1884 12.1431 25.1703 12.2213 25.2017 12.2638C25.2225 12.2924 25.2803 12.3589 25.3318 12.306C25.343 12.2945 25.3524 12.2697 25.3627 12.2421C25.3677 12.2289 25.3729 12.2151 25.3786 12.2017C25.3943 12.1648 25.4139 12.1316 25.4435 12.125C25.4503 12.1235 25.4577 12.1223 25.4652 12.1213C25.4953 12.1171 25.5288 12.1122 25.5456 12.0722C25.5649 12.0263 25.5679 11.9714 25.5719 11.9075C25.5768 11.8242 25.584 11.7255 25.6241 11.61C25.632 11.5871 25.6429 11.5802 25.6512 11.5749C25.657 11.5712 25.6614 11.5681 25.6626 11.5611C25.6639 11.5531 25.6639 11.536 25.6639 11.5145C25.664 11.4383 25.6658 11.3058 25.7184 11.3053C25.7327 11.3052 25.7485 11.3129 25.7626 11.3198C25.7835 11.33 25.801 11.3382 25.805 11.3168C25.8065 11.3087 25.8078 11.2999 25.809 11.2907C25.8258 11.2946 25.8427 11.2983 25.8595 11.3019C25.8798 11.329 25.9106 11.3285 25.9494 11.3272C25.9588 11.3268 25.9686 11.3265 25.9789 11.3265C26.0126 11.3329 26.0463 11.3388 26.0801 11.3445C26.1069 11.3556 26.1352 11.3734 26.1664 11.4012C26.2285 11.457 26.2861 11.5484 26.3459 11.6367C26.3711 11.6739 26.3969 11.7105 26.4232 11.7437C26.4142 11.7486 26.4062 11.7542 26.4001 11.7616C26.3587 11.8121 26.3455 11.9067 26.3324 11.9939C26.3237 12.0518 26.3151 12.1065 26.298 12.1422C26.2666 12.2075 26.272 12.2823 26.2765 12.3376C26.2788 12.3663 26.2807 12.3898 26.2764 12.4039C26.2729 12.4152 26.2642 12.4208 26.2552 12.4265C26.2474 12.4315 26.2393 12.4367 26.2342 12.4458C26.1721 12.5569 26.1912 12.6202 26.223 12.7123C26.2403 12.7631 26.2612 12.8225 26.2727 12.9036C26.283 12.9895 26.2814 13.0149 26.2446 13.0501C26.2749 13.092 26.3059 13.1336 26.3374 13.175C26.349 13.1718 26.3568 13.1448 26.3672 13.1001C26.3858 13.0203 26.4545 12.9879 26.5079 12.9614C26.5326 12.9492 26.5539 12.9384 26.5653 12.9253C26.6258 12.8557 26.5978 12.7679 26.5751 12.6907C26.5625 12.6482 26.5511 12.6088 26.5548 12.5775C26.5564 12.5641 26.5515 12.5513 26.5465 12.5383C26.5427 12.5283 26.5389 12.518 26.5379 12.5073C26.5307 12.429 26.5614 12.368 26.5884 12.311C26.6038 12.2783 26.6182 12.247 26.6244 12.2148C26.6263 12.205 26.6276 12.195 26.6288 12.1854C26.6304 12.1713 26.6321 12.1579 26.6356 12.1462C26.6437 12.1195 26.6641 12.0998 26.686 12.0781C26.6972 12.067 26.7088 12.0554 26.7195 12.0421C26.7332 12.0247 26.7347 11.9932 26.7363 11.9602C26.7374 11.9369 26.7385 11.9129 26.7438 11.8925C26.7532 11.8557 26.7798 11.8391 26.8043 11.8234C26.815 11.8166 26.8252 11.8098 26.8335 11.8018C26.8369 11.7986 26.8378 11.793 26.837 11.7857C26.8761 11.7545 26.9122 11.7225 26.9465 11.691C27.1198 11.5313 27.2457 11.3911 27.5046 11.3861C27.5539 11.3849 27.6007 11.365 27.6444 11.3359C27.8081 11.307 27.9722 11.2691 28.1358 11.2219C28.1975 11.2698 28.2619 11.3032 28.3279 11.3203C28.4523 11.352 28.5477 11.3183 28.6578 11.2746C28.7395 11.2421 28.8293 11.2041 28.9503 11.1774C29.1534 11.1323 29.3559 11.0591 29.549 10.9287C29.7418 10.7996 29.9413 10.6214 30.0672 10.4812C30.1359 10.4055 30.2517 10.3587 30.3597 10.3097C30.5114 10.2415 30.6478 10.1676 30.5988 10.0424C30.5831 10.0025 30.5449 9.95025 30.5072 9.90029C30.4804 9.8647 30.454 9.83014 30.4361 9.80134C30.4653 9.77015 30.4943 9.73836 30.523 9.70617C30.622 9.67635 30.747 9.60523 30.7245 9.4668C30.7525 9.43147 30.7799 9.39573 30.8066 9.36084C30.8639 9.28424 30.9188 9.20771 30.9722 9.12847C30.9898 9.10261 31.0072 9.07622 31.0245 9.04952C31.0247 9.04927 31.0249 9.04902 31.0251 9.04878C31.0599 8.99514 31.094 8.9406 31.127 8.8858C31.1411 8.86234 31.1551 8.8387 31.1689 8.81488C31.204 8.75457 31.238 8.69314 31.2709 8.63148C31.2884 8.59896 31.3057 8.56533 31.3226 8.53221C31.3501 8.47819 31.3769 8.4229 31.403 8.36706C31.4453 8.27622 31.485 8.18625 31.523 8.09265C31.5293 8.07739 31.5434 8.06392 31.563 8.05529C31.5826 8.04667 31.6061 8.04351 31.6293 8.0469C31.6525 8.0503 31.6741 8.06011 31.6903 8.07436C31.7064 8.08859 31.7155 8.10613 31.7166 8.1231C31.7229 8.22722 31.7266 8.32993 31.7267 8.43583C31.7269 8.50092 31.726 8.56634 31.7239 8.63125C31.7226 8.67109 31.7206 8.71169 31.7184 8.75152C31.7142 8.82696 31.7083 8.90343 31.7006 8.97969C31.6976 9.0098 31.6943 9.03991 31.6909 9.06999C31.6827 9.14049 31.6729 9.21164 31.6617 9.28275C31.6616 9.28318 31.6615 9.28361 31.6615 9.28404C31.6559 9.31909 31.6501 9.35405 31.644 9.38861C31.625 9.49508 31.6032 9.60062 31.5771 9.70818C31.564 9.76393 31.549 9.8213 31.5331 9.87874C31.5243 9.91069 31.5153 9.94254 31.5062 9.97378C31.5012 9.99082 31.4959 10.008 31.4905 10.0253C31.3693 10.4235 31.2029 10.8122 30.9898 11.1861C30.7777 11.5587 30.5206 11.9137 30.2249 12.24C29.9285 12.567 29.593 12.8656 29.2242 13.1278C28.0766 13.9508 26.5826 14.4035 25.0696 14.3241C23.5093 14.2552 21.9158 13.6081 20.7056 12.4939C20.3646 12.1827 20.0453 11.8271 19.769 11.451C19.4899 11.0709 19.2509 10.6703 19.0485 10.2384C18.9871 10.1074 18.928 9.97056 18.872 9.8285Z" fill="black"/>
<path d="M6.20333 39.9776C6.75917 38.8193 8.17479 38.2129 8.81905 37.1006C9.61903 35.7195 9.66612 33.8745 10.6082 32.5712C11.5457 31.2759 12.549 30.0098 13.5974 28.7755C14.6467 27.5397 15.7422 26.3334 16.8716 25.1429C17.9993 23.9554 19.1609 22.7835 20.3393 21.6238C21.1397 20.8361 21.9491 20.0522 22.7612 19.2714C23.1175 18.9285 23.4736 18.5871 23.8308 18.245C24.0974 17.9899 24.3641 17.7348 24.6307 17.4797C24.668 17.4443 24.7428 17.433 24.8414 17.4498C24.9402 17.4667 25.0543 17.5099 25.162 17.5721C25.2697 17.6344 25.3643 17.7118 25.428 17.7889C25.4914 17.8658 25.5183 17.9359 25.5058 17.9855C25.4139 18.345 25.3219 18.7044 25.23 19.0639C25.1278 19.4631 25.0261 19.8617 24.9233 20.2604C24.45 20.0593 24.0718 19.9399 23.8434 19.9935C23.7269 20.0209 23.6357 20.1063 23.6739 20.23C23.7082 20.341 23.81 20.4686 23.9071 20.59C24.0088 20.7169 24.1052 20.8374 24.1131 20.9254C24.1265 21.0746 24.2559 21.2839 24.392 21.5037C24.4415 21.5837 24.4919 21.6652 24.5379 21.7457C24.4385 22.1255 24.3383 22.505 24.2374 22.8839C24.1172 22.9834 24.0119 23.0779 23.973 23.1872C23.9381 23.2852 23.9846 23.4203 24.0541 23.5681C24.0384 23.6267 24.0226 23.6853 24.0068 23.7439C23.9047 24.1217 23.8011 24.4989 23.6967 24.8757C23.4311 25.0633 23.1618 25.2652 22.9102 25.5847C22.8018 25.7224 22.6525 25.8338 22.509 25.9409C22.2971 26.0991 22.0979 26.248 22.0612 26.4583C22.0367 26.5988 21.9038 26.6847 21.7712 26.7705C21.5934 26.8855 21.4159 27.0003 21.5007 27.2462C21.5541 27.4009 21.6349 27.5613 21.71 27.71C21.8294 27.9465 21.9339 28.1533 21.888 28.2594C21.8019 28.4588 21.8483 28.7013 21.8893 28.9151C21.9387 29.1723 21.9801 29.3881 21.7731 29.437C21.7417 29.4444 21.702 29.4507 21.657 29.4576C21.42 29.4942 21.0409 29.5526 21.0109 29.9334C21.0003 30.069 21.0744 30.2449 21.1473 30.4173C21.2533 30.6684 21.3563 30.9121 21.1895 31.0132C21.1645 31.0283 21.1002 31.022 21.0415 31.0161C20.9668 31.0086 20.9016 31.0022 20.9386 31.042C21.0471 31.1587 21.1557 31.3073 21.274 31.4688C21.3609 31.5875 21.453 31.7133 21.5537 31.8385C21.4056 32.2644 21.2543 32.6885 21.0992 33.1107C21.0282 33.3041 20.9564 33.4971 20.8838 33.6897C20.6332 33.665 20.4012 33.6538 20.2097 33.6728C19.9595 33.6977 19.8102 33.8311 19.6175 34.0028C19.4757 34.1292 19.3102 34.2763 19.0641 34.4167C18.6086 34.6765 18.4274 35.109 18.4012 35.438C18.3957 35.5076 18.3918 35.5785 18.388 35.6546C18.3739 35.9433 18.3569 36.3039 18.2103 36.9228C18.0716 37.5082 17.8653 37.9551 17.7103 38.2908C17.6312 38.4621 17.565 38.6043 17.5285 38.7214C17.4659 38.9218 17.3757 39.1601 17.2849 39.3992C17.1428 39.7734 16.9996 40.1498 16.9612 40.3875C16.9476 40.4722 16.9382 40.5638 16.9276 40.6626C16.8985 40.9363 16.8632 41.2669 16.7211 41.6686C16.572 42.0903 16.3875 42.2984 16.1411 42.4831C16.0409 42.5582 15.8217 42.5488 15.5953 42.5389C15.2741 42.5248 14.9389 42.5101 14.911 42.7359C14.9046 42.7886 14.9186 42.8569 14.9335 42.9285C14.9608 43.06 14.9905 43.2024 14.8982 43.2773C14.866 43.3034 14.8032 43.3065 14.7416 43.3096C14.6739 43.3129 14.6077 43.3163 14.5845 43.3501C14.4982 43.4765 14.4354 43.6116 14.3797 43.7318C14.3078 43.8867 14.2474 44.0166 14.1632 44.0702C14.0129 44.1657 13.9905 44.352 13.9682 44.5408C13.9511 44.685 13.9342 44.831 13.8595 44.9386C13.6462 45.2461 13.5114 45.7606 13.4499 46.3354C13.4265 46.5528 13.2371 46.6391 12.9941 46.7495C12.8429 46.8181 12.6707 46.8959 12.5054 47.0208C12.4117 47.0916 12.4592 47.2248 12.5029 47.348C12.5432 47.4615 12.5804 47.5666 12.5018 47.607C12.4324 47.6427 12.2548 47.588 12.0861 47.5362C11.8984 47.4784 11.7219 47.4241 11.7178 47.5015C11.7157 47.5426 11.7718 47.6266 11.8384 47.7264C11.8648 47.7658 11.8926 47.8078 11.9194 47.8506C11.8881 47.8312 11.8599 47.8145 11.8383 47.8021C11.6862 47.7142 11.5709 47.7289 11.4578 47.7434C11.4127 47.7492 11.368 47.7551 11.3214 47.7543C11.1499 47.7511 11.0501 47.8751 10.9961 47.9827C10.9732 48.0282 10.903 48.0408 10.821 48.0556C10.7483 48.0687 10.6662 48.0834 10.5998 48.1243C10.562 48.1477 10.5028 48.1482 10.4536 48.1485C10.418 48.1487 10.3875 48.1488 10.3744 48.1576C10.3632 48.1653 10.4018 48.1991 10.4453 48.2371C10.4767 48.2645 10.5106 48.2942 10.5303 48.3179C10.5772 48.3746 10.5788 48.4135 10.548 48.4224C10.5338 48.4265 10.5126 48.424 10.4916 48.4215C10.467 48.4186 10.4423 48.4155 10.4287 48.4231C10.3663 48.4579 10.3862 48.5382 10.4069 48.6217C10.4297 48.7135 10.4531 48.8091 10.3696 48.8521C10.3433 48.8657 10.2982 48.8703 10.2545 48.8747C10.2088 48.8793 10.1646 48.8839 10.1452 48.8983C10.0665 48.9569 10.1329 49.0931 10.194 49.2183C10.2347 49.3016 10.2728 49.3801 10.2645 49.4277C10.2491 49.5149 10.3574 49.629 10.4374 49.7132C10.4788 49.7568 10.5129 49.7926 10.518 49.8124C10.5077 49.8219 10.4965 49.8311 10.4852 49.8399C10.4695 49.8449 10.4533 49.8501 10.4505 49.8622C10.4503 49.8631 10.4504 49.8642 10.4502 49.8651C10.3814 49.9113 10.2999 49.9486 10.2188 49.9857C10.0367 50.0688 9.85655 50.1509 9.82751 50.3308C9.82126 50.3696 9.85649 50.4331 9.89226 50.4977C9.93609 50.5768 9.98091 50.6578 9.95169 50.697C9.88203 50.7904 9.73465 50.8403 9.58946 50.8893C9.37109 50.9632 9.15777 51.0353 9.22131 51.2516C9.24229 51.323 9.29492 51.4112 9.34811 51.4999C9.37775 51.5493 9.40769 51.5991 9.43196 51.6459C9.36354 51.5994 9.29808 51.558 9.23704 51.5193C9.11122 51.4395 9.00355 51.3712 8.92346 51.2935C8.73419 51.1099 8.4658 50.8706 8.2394 50.7492C8.17795 50.7163 8.11163 50.676 8.04493 50.6352C7.87759 50.533 7.70669 50.4286 7.59836 50.4351C7.52536 50.4395 7.35224 50.4592 7.44914 50.5912C7.47026 50.6199 7.52197 50.6599 7.57942 50.7043C7.68265 50.7841 7.80485 50.8786 7.80449 50.9505C7.80443 50.9626 7.8034 50.9752 7.80186 50.988C7.79572 51.0388 7.78856 51.0956 7.8687 51.1647C7.96103 51.2442 8.08221 51.3086 8.2235 51.3836C8.40751 51.4813 8.62609 51.5974 8.85978 51.7888C8.90597 51.8267 8.91421 51.8528 8.92049 51.8726C8.92492 51.8865 8.92864 51.8973 8.94362 51.9068C8.96084 51.9178 8.99911 51.9362 9.04754 51.9596C9.21843 52.0419 9.51693 52.186 9.4779 52.2816C9.46732 52.3075 9.43786 52.327 9.41135 52.3445C9.37228 52.3702 9.33993 52.3917 9.38444 52.4228C9.40134 52.4345 9.41997 52.4467 9.43942 52.4591C9.41713 52.4847 9.39485 52.5103 9.37256 52.536C9.29536 52.5407 9.27016 52.5954 9.23893 52.6638C9.23135 52.6804 9.22316 52.6978 9.21401 52.7155C9.16959 52.7658 9.12522 52.8161 9.08058 52.8662C9.03084 52.8977 8.96454 52.9234 8.87404 52.9388C8.69271 52.9696 8.43933 52.9411 8.19161 52.9133C8.08723 52.9015 7.98365 52.8898 7.88701 52.8828C7.88594 52.8632 7.8824 52.844 7.87302 52.8254C7.80877 52.698 7.62113 52.5534 7.44838 52.4203C7.33348 52.3318 7.22515 52.2483 7.16441 52.1786C7.05311 52.0509 6.88807 51.962 6.76605 51.8962C6.70276 51.8621 6.65097 51.834 6.62435 51.8102C6.60303 51.7911 6.59844 51.7727 6.59364 51.7537C6.58947 51.7371 6.58502 51.72 6.56951 51.7017C6.38106 51.4794 6.22839 51.4254 6.00621 51.3467C5.88367 51.3033 5.73993 51.2523 5.55733 51.1616C5.36527 51.0633 5.31251 51.0286 5.26393 50.9411C5.15171 50.9226 5.03949 50.9041 4.92727 50.8857C4.92539 50.9028 4.97704 50.9463 5.06439 51.0161C5.22039 51.1408 5.23411 51.2613 5.24483 51.3555C5.24979 51.3991 5.25421 51.4372 5.27175 51.4673C5.36506 51.6277 5.57263 51.7165 5.75528 51.7947C5.85582 51.8378 5.94884 51.8776 6.01109 51.9244C6.03773 51.9443 6.06898 51.9558 6.10082 51.9676C6.12543 51.9767 6.15047 51.9859 6.17399 51.9992C6.34472 52.0964 6.44373 52.2166 6.53568 52.3281C6.58834 52.392 6.63894 52.4531 6.69918 52.5055C6.71753 52.5215 6.73678 52.5369 6.75552 52.5517C6.7829 52.5734 6.80893 52.5941 6.82949 52.6149C6.87632 52.6623 6.89569 52.7153 6.91669 52.7734C6.92746 52.8031 6.93869 52.8342 6.95438 52.8665C6.97472 52.9084 7.03731 52.9553 7.10264 53.0045C7.14881 53.0393 7.1963 53.0752 7.23171 53.1112C7.29571 53.1764 7.29855 53.235 7.30118 53.2894C7.30233 53.3131 7.30373 53.3362 7.30984 53.3585C7.31233 53.3676 7.32231 53.377 7.33783 53.3868C7.35349 53.4826 7.37199 53.5762 7.39033 53.6675C7.48227 54.1251 7.56223 54.5214 7.16794 54.8167C7.09339 54.8725 7.05375 54.9558 7.03271 55.0509C6.81737 55.2698 6.59978 55.4875 6.38056 55.704C6.19786 55.6665 6.03314 55.6544 5.88954 55.6699C5.61989 55.6989 5.49709 55.8179 5.35217 55.9584C5.24502 56.0623 5.12564 56.1778 4.92595 56.2775C4.59043 56.4449 4.27832 56.6355 4.0184 56.9038C3.75961 57.171 3.4953 57.4953 3.32868 57.7366C3.23784 57.8681 3.01705 57.9338 2.81145 57.9951C2.52225 58.0815 2.26293 58.159 2.43617 58.3978C2.49154 58.4741 2.60244 58.5809 2.71015 58.6848C2.78686 58.7588 2.86165 58.8313 2.91438 58.8904C2.86108 58.936 2.80796 58.9818 2.75443 59.0273C2.54014 59.0394 2.28206 59.1014 2.36712 59.3545C2.31155 59.4013 2.25607 59.4481 2.20147 59.4928C2.08427 59.5913 1.96804 59.6868 1.85085 59.7832C1.8124 59.8146 1.77369 59.8463 1.73485 59.8781C1.73445 59.8784 1.73405 59.8787 1.73366 59.879C1.65547 59.943 1.57671 60.0075 1.49855 60.0705C1.46512 60.0976 1.4317 60.1246 1.39827 60.1516C1.31337 60.2203 1.22799 60.2896 1.14313 60.3571C1.09813 60.3928 1.05302 60.4291 1.00758 60.4652C0.933858 60.5238 0.859643 60.5829 0.785458 60.6415C0.665501 60.7363 0.545319 60.8302 0.424618 60.9241C0.404787 60.9394 0.367782 60.9438 0.320378 60.9353C0.272909 60.9268 0.219047 60.9063 0.168302 60.877C0.11754 60.8477 0.0728208 60.8111 0.0418801 60.7743C0.0110777 60.7376 -0.00305475 60.7037 0.00049286 60.679C0.0228708 60.5283 0.0456894 60.3779 0.0692117 60.2274C0.0837383 60.1343 0.0982095 60.0407 0.112988 59.948C0.122101 59.8909 0.131435 59.8341 0.140378 59.7775C0.157431 59.6708 0.175475 59.5625 0.193528 59.4552C0.200572 59.4129 0.207615 59.3707 0.214659 59.3284C0.231123 59.2295 0.248692 59.1293 0.266002 59.0299C0.266112 59.0293 0.266222 59.0287 0.266333 59.0281C0.274848 58.9792 0.283301 58.9303 0.291629 58.8819C0.317941 58.733 0.344037 58.5853 0.372191 58.4353C0.385728 58.3572 0.40136 58.2767 0.416456 58.1966C0.42486 58.152 0.433157 58.1074 0.441211 58.0635C0.4458 58.0397 0.450609 58.0156 0.455442 57.9914C0.561663 57.4327 0.672147 56.8809 0.791467 56.3285C0.909781 55.7778 1.03474 55.2299 1.16462 54.6867C1.29513 54.1423 1.43112 53.6022 1.57269 53.0648C2.47063 49.6538 3.52004 46.3146 4.81672 43.1165C5.00128 42.6601 5.19805 42.1961 5.39446 41.7454C5.59352 41.2901 5.7929 40.8467 6.00416 40.3969C6.068 40.2601 6.13444 40.1205 6.20333 39.9776Z" fill="black"/>
<path d="M40.5014 33.0955C41.2266 34.156 41.0439 35.6851 41.6851 36.7992C42.4811 38.1826 44.0555 39.1459 44.7131 40.6134C45.3661 42.0729 45.9609 43.5749 46.5056 45.0999C47.0512 46.6265 47.5481 48.1785 48.0144 49.7518C48.479 51.3222 48.9132 52.9141 49.3283 54.5145C49.6102 55.6015 49.8844 56.6944 50.1546 57.7881C50.2734 58.2681 50.3909 58.7472 50.5087 59.2276C50.5963 59.586 50.6839 59.9445 50.7715 60.303C50.7835 60.3529 50.7559 60.4234 50.692 60.5004C50.628 60.5775 50.5335 60.6547 50.4258 60.7169C50.318 60.779 50.2036 60.8222 50.1051 60.8388C50.0067 60.8553 49.9326 60.8435 49.8958 60.8079C49.6305 60.5486 49.3652 60.2892 49.0998 60.0299C48.8053 59.7418 48.5108 59.4544 48.2169 59.166C48.6278 58.8567 48.9203 58.5889 48.988 58.3643C49.0226 58.2497 48.9942 58.128 48.8681 58.0992C48.7547 58.0734 48.5934 58.0978 48.4397 58.1212C48.2789 58.1458 48.1263 58.1691 48.0462 58.1319C47.9102 58.0689 47.6643 58.0763 47.4059 58.0842C47.3119 58.0871 47.2161 58.09 47.1234 58.0896C46.8442 57.8136 46.5656 57.5371 46.2879 57.2603C46.2619 57.1064 46.2327 56.968 46.1575 56.8796C46.0901 56.8004 45.9498 56.7732 45.787 56.7594C45.7442 56.7165 45.7013 56.6736 45.6584 56.6306C45.3823 56.3532 45.1074 56.0749 44.8333 55.7961C44.8036 55.4723 44.7634 55.1381 44.6125 54.7605C44.5475 54.5978 44.5257 54.4128 44.5047 54.235C44.4736 53.9723 44.4443 53.7253 44.2805 53.5884C44.1711 53.497 44.1631 53.3389 44.1552 53.1812C44.1445 52.9697 44.1338 52.7586 43.8784 52.7091C43.7178 52.678 43.5384 52.6678 43.3721 52.6584C43.1076 52.6436 42.8763 52.6307 42.8073 52.5379C42.6777 52.3636 42.4444 52.2825 42.2387 52.2112C41.9913 52.1253 41.7838 52.0533 41.845 51.8496C41.8542 51.8187 41.8686 51.7812 41.8851 51.7388C41.972 51.5152 42.1109 51.1577 41.7961 50.9413C41.6841 50.8643 41.4946 50.8405 41.3088 50.8174C41.0384 50.7838 40.7758 50.751 40.7717 50.556C40.7711 50.5269 40.8087 50.4743 40.8432 50.4264C40.887 50.3655 40.9252 50.3123 40.8722 50.3244C40.7169 50.36 40.5339 50.3798 40.3349 50.4014C40.1887 50.4173 40.0336 50.4342 39.8749 50.4589C39.5801 50.1176 39.2884 49.7745 39.0004 49.4291C38.8684 49.2709 38.7371 49.1122 38.6066 48.953C38.7533 48.7484 38.879 48.5531 38.9583 48.3778C39.0619 48.1486 39.021 47.9526 38.9686 47.6999C38.9301 47.5139 38.8854 47.2969 38.8869 47.0136C38.8896 46.4892 38.6057 46.1161 38.3338 45.9289C38.2763 45.8893 38.2169 45.8505 38.1528 45.8092C37.9099 45.6527 37.6062 45.4576 37.1435 45.0212C36.7058 44.6084 36.422 44.2062 36.2087 43.9042C36.0999 43.75 36.0098 43.6216 35.9267 43.5314C35.7844 43.3771 35.6232 43.1797 35.4615 42.9816C35.2085 42.6714 34.9541 42.3592 34.7674 42.2071C34.701 42.1529 34.6263 42.099 34.546 42.0405C34.3235 41.8784 34.0549 41.6825 33.7781 41.3586C33.4874 41.0186 33.3994 40.7548 33.3626 40.449C33.3477 40.3248 33.4654 40.1396 33.5872 39.9485C33.76 39.6773 33.9404 39.3944 33.7588 39.2574C33.7164 39.2255 33.6501 39.2034 33.5807 39.1805C33.4532 39.1384 33.3151 39.093 33.2964 38.9756C33.2898 38.9346 33.3185 38.8787 33.3467 38.8239C33.3776 38.7635 33.4078 38.7045 33.3901 38.6675C33.3238 38.5296 33.2382 38.4076 33.162 38.2993C33.0637 38.1596 32.9814 38.0423 32.9772 37.9426C32.9696 37.7647 32.8195 37.6522 32.6671 37.5384C32.5507 37.4515 32.4328 37.3639 32.377 37.2454C32.2173 36.9069 31.8392 36.5329 31.3721 36.1922C31.1955 36.0633 31.2155 35.8561 31.2414 35.5905C31.2575 35.4253 31.2762 35.2372 31.2508 35.0316C31.2363 34.915 31.0972 34.8896 30.9687 34.8659C30.8502 34.844 30.7406 34.8237 30.7449 34.7354C30.7487 34.6574 30.8848 34.5309 31.0141 34.4108C31.1579 34.2772 31.2932 34.1514 31.2283 34.1092C31.1937 34.0868 31.093 34.0934 30.9732 34.1012C30.9258 34.1043 30.8756 34.1074 30.8251 34.1092C30.8576 34.0918 30.8862 34.0757 30.9077 34.0633C31.0599 33.9755 31.1048 33.8683 31.1488 33.7631C31.1663 33.7211 31.1835 33.6794 31.2076 33.6395C31.296 33.4925 31.2385 33.3441 31.1724 33.2435C31.1445 33.201 31.1686 33.1338 31.1968 33.0555C31.2218 32.9859 31.2501 32.9075 31.2479 32.8295C31.2466 32.7851 31.2756 32.7336 31.3 32.6908C31.3177 32.6599 31.3328 32.6335 31.3317 32.6177C31.3307 32.6041 31.2821 32.6207 31.2274 32.6394C31.188 32.6528 31.1454 32.6674 31.115 32.6726C31.0425 32.6849 31.008 32.6668 31.0156 32.6357C31.0192 32.6213 31.0319 32.6042 31.0446 32.5872C31.0594 32.5674 31.0744 32.5476 31.0747 32.532C31.0758 32.4606 30.9962 32.4376 30.9136 32.4138C30.8227 32.3876 30.7282 32.3602 30.7327 32.2663C30.7341 32.2367 30.7527 32.1954 30.7707 32.1554C30.7895 32.1135 30.8076 32.0729 30.8049 32.0489C30.7935 31.9514 30.6424 31.9408 30.5033 31.9311C30.4109 31.9247 30.3238 31.9185 30.2868 31.8875C30.2189 31.8306 30.066 31.8673 29.9531 31.8944C29.8946 31.9085 29.8466 31.9201 29.8269 31.9147C29.8238 31.901 29.8214 31.8867 29.8194 31.8725C29.8229 31.8564 29.8265 31.8398 29.8175 31.8313C29.8168 31.8307 29.8158 31.8303 29.8151 31.8296C29.8095 31.7469 29.8179 31.6577 29.8264 31.569C29.8454 31.3696 29.8645 31.1726 29.7231 31.0575C29.6927 31.0327 29.6201 31.0314 29.5462 31.0301C29.4558 31.0285 29.3633 31.0269 29.344 30.9819C29.2979 30.8749 29.3284 30.7223 29.3585 30.5721C29.4037 30.346 29.4479 30.1252 29.2288 30.0721C29.1565 30.0546 29.0538 30.056 28.9504 30.0578C28.8927 30.0587 28.8347 30.0597 28.782 30.0574C28.8565 30.0214 28.9251 29.9854 28.9892 29.9519C29.1211 29.8828 29.2341 29.8237 29.3415 29.7932C29.5951 29.7211 29.9365 29.6083 30.1548 29.4729C30.2141 29.4362 30.2822 29.3989 30.3508 29.3615C30.523 29.2677 30.6989 29.1719 30.7474 29.0748C30.7801 29.0094 30.8496 28.8497 30.6868 28.8676C30.6514 28.8715 30.5909 28.8963 30.5238 28.9238C30.403 28.9734 30.2601 29.0319 30.198 28.9956C30.1875 28.9895 30.1771 28.9823 30.1668 28.9746C30.1259 28.9439 30.0803 28.9093 29.9804 28.9442C29.8654 28.9844 29.749 29.0571 29.6134 29.142C29.4368 29.2525 29.2269 29.3837 28.9443 29.4904C28.8884 29.5115 28.8617 29.5055 28.8415 29.5011C28.8272 29.498 28.8159 29.4958 28.8002 29.504C28.7822 29.5135 28.747 29.5374 28.7026 29.5676C28.5458 29.6744 28.2718 29.8609 28.2085 29.7793C28.1914 29.7572 28.1892 29.7219 28.1873 29.6902C28.1846 29.6435 28.1822 29.6048 28.133 29.6278C28.1144 29.6365 28.0945 29.6466 28.074 29.6572C28.063 29.6251 28.0519 29.593 28.0409 29.5609C28.0754 29.4917 28.0406 29.4425 27.997 29.3812C27.9864 29.3664 27.9754 29.3506 27.9647 29.3338C27.9434 29.2702 27.922 29.2066 27.9009 29.1429C27.8985 29.0841 27.9093 29.0138 27.9413 28.9278C28.0053 28.7553 28.1566 28.5501 28.3046 28.3495C28.367 28.265 28.4289 28.1812 28.4833 28.101C28.5009 28.1099 28.5192 28.1164 28.5401 28.1176C28.6825 28.1256 28.9016 28.0354 29.1032 27.9524C29.2373 27.8971 29.3637 27.845 29.4545 27.8273C29.6207 27.7947 29.7802 27.6963 29.8982 27.6235C29.9594 27.5857 30.0096 27.5549 30.0436 27.5438C30.0708 27.5349 30.089 27.5401 30.1078 27.5454C30.1242 27.5501 30.1414 27.5548 30.1649 27.5505C30.4516 27.4985 30.5748 27.3933 30.754 27.2402C30.8528 27.1558 30.9689 27.0568 31.1388 26.944C31.3199 26.8268 31.3764 26.7985 31.4764 26.8002C31.5485 26.7122 31.6207 26.6243 31.6928 26.5363C31.6789 26.5261 31.6153 26.5491 31.5112 26.5898C31.3252 26.6626 31.214 26.6142 31.127 26.5764C31.0868 26.5589 31.0517 26.5437 31.0168 26.5438C30.8313 26.5445 30.6505 26.6798 30.4915 26.7989C30.4039 26.8644 30.3229 26.925 30.2513 26.9556C30.2207 26.9687 30.1951 26.99 30.169 27.0117C30.1488 27.0285 30.1283 27.0455 30.105 27.0592C29.9355 27.1585 29.7819 27.1842 29.6394 27.208C29.5577 27.2217 29.4795 27.235 29.404 27.2609C29.3809 27.2688 29.358 27.2778 29.3358 27.2866C29.3033 27.2995 29.2724 27.3117 29.2441 27.3191C29.1796 27.3359 29.124 27.3262 29.0632 27.3153C29.0321 27.3098 28.9996 27.304 28.9637 27.3014C28.9173 27.2981 28.8453 27.3288 28.7701 27.3608C28.7169 27.3834 28.6621 27.4066 28.6132 27.4193C28.5247 27.4421 28.4725 27.4152 28.4241 27.3903C28.403 27.3795 28.3823 27.3691 28.3599 27.3633C28.3508 27.3609 28.3377 27.3648 28.3215 27.3734C28.2306 27.339 28.1403 27.3082 28.0521 27.2785C27.6098 27.1293 27.2266 27.0004 27.168 26.5113C27.157 26.4188 27.1047 26.3428 27.0328 26.2771C26.9509 25.9811 26.8712 25.6838 26.7933 25.3857C26.9172 25.2463 27.0099 25.1097 27.0684 24.9776C27.1781 24.7296 27.1364 24.5637 27.0872 24.3679C27.0508 24.2232 27.0104 24.062 27.0239 23.8393C27.0467 23.465 27.0377 23.0994 26.9353 22.7401C26.8333 22.3824 26.6846 21.9914 26.559 21.7265C26.4905 21.582 26.544 21.358 26.5937 21.1492C26.6635 20.8556 26.726 20.5923 26.4326 20.6229C26.3389 20.6327 26.1909 20.6753 26.047 20.7167C25.9446 20.7461 25.8445 20.7746 25.7669 20.7907C25.7541 20.7218 25.741 20.6529 25.7283 20.5838C25.825 20.3921 25.9003 20.1376 25.6386 20.0847C25.6259 20.0132 25.613 19.9418 25.6017 19.8722C25.5749 19.7214 25.5503 19.573 25.5254 19.4233C25.5175 19.3743 25.5094 19.3249 25.5012 19.2754C25.5012 19.2749 25.5011 19.2744 25.5011 19.2739C25.4848 19.1742 25.4683 19.0737 25.4528 18.9745C25.4461 18.9321 25.4394 18.8896 25.4327 18.8471C25.4156 18.7393 25.3983 18.6307 25.3823 18.5234C25.3739 18.4666 25.3651 18.4094 25.3565 18.352C25.3426 18.2588 25.3285 18.165 25.3148 18.0715C25.2927 17.9202 25.2715 17.7692 25.2505 17.6177C25.2472 17.5928 25.2619 17.5586 25.2929 17.5218C25.3241 17.485 25.3687 17.4485 25.4195 17.4193C25.4703 17.39 25.5243 17.3695 25.5716 17.3611C25.6188 17.3528 25.6552 17.3575 25.6748 17.3729C25.7942 17.4677 25.913 17.5626 26.0316 17.6583C26.105 17.7174 26.1788 17.7767 26.2516 17.8358C26.2966 17.8723 26.3411 17.9088 26.3856 17.9448C26.4695 18.0129 26.5543 18.0827 26.6382 18.152C26.6713 18.1793 26.7044 18.2065 26.7374 18.2337C26.8149 18.2974 26.8928 18.3627 26.9703 18.4274C26.9707 18.4278 26.9712 18.4282 26.9717 18.4286C27.0098 18.4605 27.0479 18.4922 27.0856 18.5236C27.2015 18.6209 27.3163 18.7173 27.4321 18.8167C27.493 18.8674 27.5549 18.9212 27.6167 18.9744C27.6512 19.004 27.6856 19.0335 27.7196 19.0623C27.7379 19.0782 27.7564 19.0945 27.7749 19.1108C28.2056 19.4821 28.6283 19.8536 29.047 20.2332C29.4647 20.611 29.8768 20.9932 30.2823 21.3773C30.6885 21.7625 31.0883 22.1503 31.4829 22.5416C33.9879 25.0247 36.355 27.6031 38.4763 30.3252C38.7793 30.7132 39.0828 31.1156 39.3749 31.5111C39.6697 31.9111 39.954 32.3055 40.2378 32.7133C40.3244 32.837 40.4121 32.9643 40.5014 33.0955Z" fill="black"/>
<circle cx="26.1088" cy="63.5715" r="3.3234" transform="rotate(8.2828 26.1088 63.5715)" fill="black"/>
<path d="M20.1589 65.7017C19.7522 64.7288 20.2123 63.6833 20.3381 62.793C20.3408 62.7729 20.3435 62.7528 20.3461 62.7326C20.475 61.6407 20.5588 60.2321 21.4907 59.3565C22.4046 58.4985 23.5916 57.9831 24.774 57.8876C25.5121 57.8253 26.2447 57.9244 26.8975 58.1536C27.2909 58.2911 27.6633 58.4757 28.0002 58.699C28.8989 59.2917 29.5237 60.1557 29.8076 61.044C30.0033 61.6478 30.0485 62.2644 29.9653 62.8249C29.9291 63.071 29.8689 63.3061 29.7884 63.5265C29.7282 63.6907 29.6569 63.8476 29.5765 63.9938C29.5652 64.0142 29.5273 64.0302 29.4694 64.0372C29.4115 64.0442 29.3389 64.0418 29.265 64.031C29.1911 64.0202 29.1207 64.002 29.0668 63.9812C29.0131 63.9604 28.9807 63.9388 28.9745 63.92C28.9306 63.7841 28.8772 63.6545 28.8156 63.5341C28.7473 63.4 28.6689 63.2764 28.5834 63.1643C28.8824 63.0954 29.1061 63.0233 29.194 62.9403C29.2389 62.8983 29.2493 62.845 29.1857 62.8245C29.1285 62.806 29.0344 62.8065 28.9451 62.809C28.8516 62.8115 28.7634 62.8162 28.7272 62.8012C28.6656 62.7754 28.5296 62.7774 28.3885 62.7872C28.3371 62.7907 28.2849 62.7951 28.2352 62.7991C28.1398 62.7194 28.0407 62.6505 27.9399 62.5922C27.9507 62.5431 27.9552 62.4982 27.9287 62.4785C27.9048 62.4607 27.8365 62.4737 27.7565 62.4983C27.7407 62.4913 27.7249 62.4845 27.709 62.4779C27.607 62.4356 27.5052 62.4034 27.405 62.3811C27.421 62.2779 27.4239 62.1678 27.3708 62.0769C27.3481 62.0379 27.3424 61.977 27.3335 61.9176C27.3209 61.8301 27.3001 61.7453 27.2309 61.7543C27.1851 61.7606 27.1758 61.705 27.1624 61.6484C27.1456 61.5731 27.1198 61.4956 27.0275 61.5829C26.9697 61.6379 26.9102 61.7103 26.8576 61.779C26.7739 61.8882 26.7082 61.9878 26.6828 61.9872C26.6347 61.9858 26.5677 62.0666 26.5155 62.1407C26.4514 62.2296 26.4078 62.308 26.4024 62.2118C26.4015 62.1972 26.4009 62.1779 26.4 62.156C26.397 62.075 26.3873 61.9591 26.3481 61.9275C26.3318 61.9142 26.3108 61.9162 26.2863 61.9431C26.257 61.9752 26.2253 62.0641 26.1993 62.1522C26.1605 62.2804 26.1349 62.4062 26.1097 62.3498C26.1059 62.3413 26.1018 62.306 26.0977 62.2737C26.0925 62.2327 26.0872 62.197 26.085 62.2282C26.0784 62.3196 26.0692 62.4209 26.0632 62.5312C26.0587 62.6122 26.056 62.6981 26.0561 62.7881C26.0165 62.8415 25.9861 62.8957 25.963 62.9485C25.9525 62.9726 25.9434 62.9966 25.9358 63.02C25.887 62.8912 25.8369 62.7772 25.7925 62.6936C25.7343 62.5843 25.6957 62.5588 25.644 62.5287C25.6055 62.5068 25.5599 62.4822 25.4835 62.4262C25.3397 62.3234 25.2786 62.4082 25.2921 62.5058C25.2945 62.5266 25.298 62.5482 25.3025 62.5715C25.3203 62.6592 25.3457 62.7674 25.3736 62.8984C25.4014 63.0212 25.3963 63.0766 25.3921 63.1206C25.3903 63.1428 25.3895 63.1608 25.3979 63.1791C25.4121 63.2103 25.4234 63.2426 25.4368 63.2732C25.4576 63.3212 25.4837 63.3652 25.5282 63.396C25.544 63.407 25.5642 63.419 25.586 63.4312C25.642 63.4626 25.711 63.4939 25.7554 63.5201C25.7588 63.5221 25.7621 63.5241 25.7652 63.5261C25.8111 63.5538 25.7777 63.5577 25.7048 63.5719C25.6752 63.5772 25.5585 63.5836 25.4382 63.5961C25.2675 63.6128 25.0903 63.6456 25.1458 63.6666C25.1587 63.6712 25.1871 63.6744 25.2167 63.6771C25.2713 63.6821 25.3303 63.684 25.3067 63.6986C25.2986 63.7038 25.2678 63.7123 25.2378 63.7211C25.2048 63.7308 25.1727 63.7409 25.1717 63.746C25.1682 63.7649 25.1797 63.7806 25.1902 63.7938C25.2038 63.8109 25.2155 63.8243 25.1919 63.8422C25.1499 63.8745 25.1992 63.8826 25.2483 63.8854C25.2859 63.888 25.3235 63.888 25.323 63.9033C25.3212 63.9476 25.4258 63.9657 25.5676 63.9249C25.6209 63.9093 25.5674 63.9595 25.5065 64.0332C25.4684 64.0788 25.4272 64.1334 25.4055 64.1823C25.3933 64.2101 25.4492 64.1756 25.4989 64.1414C25.545 64.1101 25.586 64.0794 25.5705 64.1046C25.5567 64.1268 25.483 64.2068 25.4144 64.284C25.3379 64.3698 25.2678 64.4523 25.29 64.4443C25.3017 64.44 25.3438 64.4048 25.3925 64.3619C25.4118 64.345 25.4321 64.3269 25.4522 64.3089C25.4373 64.3252 25.4241 64.3399 25.4142 64.351C25.3437 64.4293 25.3143 64.4776 25.2871 64.5259C25.2761 64.5452 25.2656 64.5644 25.2526 64.5855C25.2049 64.6631 25.2182 64.693 25.2378 64.7028C25.246 64.707 25.2327 64.7379 25.2181 64.7745C25.205 64.807 25.1909 64.8441 25.1892 64.8701C25.1882 64.885 25.1757 64.9135 25.1654 64.9374C25.1579 64.9547 25.1517 64.9695 25.1518 64.9747C25.152 64.9791 25.1708 64.9553 25.1918 64.9284C25.2069 64.9091 25.2232 64.8881 25.2346 64.8749C25.2619 64.8433 25.2738 64.8363 25.2702 64.8498C25.2685 64.8561 25.2634 64.8668 25.2584 64.8775C25.2525 64.89 25.2467 64.9025 25.2463 64.908C25.2446 64.9331 25.2734 64.9106 25.3023 64.8863C25.3342 64.8597 25.3658 64.831 25.3632 64.8647C25.3624 64.8753 25.3557 64.8969 25.3496 64.918C25.3431 64.94 25.3371 64.9614 25.3382 64.9685C25.3428 64.9978 25.3936 64.9394 25.4377 64.884C25.4672 64.8473 25.494 64.8122 25.5053 64.8066C25.5262 64.7966 25.5714 64.7178 25.6038 64.6592C25.6206 64.6288 25.6342 64.6038 25.6397 64.5968C25.6403 64.5999 25.6408 64.6034 25.6412 64.6071C25.64 64.6139 25.6388 64.6209 25.6413 64.6196C25.6415 64.6195 25.6417 64.6192 25.6419 64.6191C25.6426 64.6434 25.6403 64.6762 25.6387 64.7091C25.6348 64.7829 25.6379 64.8578 25.6775 64.8302C25.6859 64.8242 25.7036 64.7907 25.7209 64.7564C25.7422 64.7144 25.7629 64.671 25.7686 64.6763C25.7821 64.6889 25.7816 64.7528 25.7848 64.8164C25.7886 64.9117 25.8028 65.0062 25.8487 64.9153C25.8636 64.8852 25.8816 64.8338 25.8986 64.7817C25.9081 64.7527 25.9174 64.7233 25.9258 64.6977C25.917 64.7464 25.9091 64.7922 25.9016 64.8348C25.8862 64.9228 25.873 64.9981 25.857 65.0613C25.8198 65.2106 25.7646 65.4153 25.7383 65.5671C25.7313 65.6083 25.7224 65.654 25.7134 65.7C25.6908 65.8154 25.6668 65.9332 25.6755 65.99C25.6809 66.0282 25.7008 66.1168 25.7353 66.031C25.7428 66.0123 25.7512 65.9742 25.7604 65.932C25.7649 65.9117 25.7695 65.8905 25.7742 65.8698C25.7873 65.8131 25.8015 65.761 25.8162 65.7471C25.8196 65.7439 25.8232 65.7411 25.8268 65.7386C25.8414 65.7283 25.8575 65.7168 25.8698 65.6555C25.884 65.5848 25.8918 65.5029 25.9014 65.4074C25.9136 65.283 25.9299 65.1356 25.9584 64.9588C25.964 64.9238 25.9685 64.9121 25.9718 64.9032C25.9741 64.897 25.9759 64.8919 25.9771 64.8814C25.9785 64.8692 25.9806 64.8439 25.9833 64.8118C25.9924 64.6986 26.011 64.5012 26.0237 64.494C26.0272 64.4921 26.0301 64.5018 26.0329 64.5106C26.0369 64.5236 26.0405 64.5342 26.0434 64.5019C26.0445 64.4896 26.0456 64.4764 26.0468 64.4626C26.0503 64.4667 26.0539 64.4709 26.0575 64.475C26.0601 64.5139 26.0676 64.511 26.0766 64.5071C26.0788 64.5061 26.0811 64.5052 26.0835 64.5048C26.091 64.513 26.0987 64.5211 26.1065 64.5293C26.1127 64.5458 26.1194 64.5725 26.1276 64.6148C26.144 64.6996 26.1638 64.8392 26.1887 64.9751C26.1992 65.0324 26.2106 65.0891 26.2226 65.1407C26.2198 65.1474 26.2174 65.1552 26.2158 65.1657C26.2048 65.2382 26.2052 65.3792 26.2044 65.5091C26.2039 65.5955 26.2027 65.6769 26.1967 65.7297C26.1854 65.8263 26.1899 65.9386 26.1941 66.0217C26.1962 66.0648 26.1979 66.1 26.1962 66.1211C26.1949 66.138 26.1907 66.146 26.1864 66.1543C26.1827 66.1616 26.1787 66.1691 26.1764 66.1827C26.1476 66.348 26.1568 66.4433 26.1764 66.582C26.1869 66.6585 26.2002 66.7482 26.2091 66.8701C26.2174 66.9992 26.2174 67.0371 26.1959 67.0891C26.2151 67.1525 26.2354 67.2158 26.2565 67.2789C26.2637 67.2744 26.2677 67.2343 26.2723 67.1677C26.2807 67.0488 26.3204 67.0034 26.3506 66.9673C26.3646 66.9507 26.3765 66.936 26.3824 66.9173C26.4131 66.8178 26.3886 66.6848 26.3699 66.5676C26.3594 66.5031 26.3502 66.4434 26.3496 66.3969C26.3493 66.377 26.3457 66.3576 26.342 66.3378C26.3392 66.3224 26.3364 66.3068 26.335 66.2907C26.3251 66.1732 26.3356 66.0846 26.3432 66.0022C26.3476 65.9551 26.3512 65.9098 26.3507 65.8626C26.3505 65.8482 26.35 65.8336 26.3495 65.8194C26.3487 65.7986 26.348 65.7788 26.3483 65.7618C26.349 65.7229 26.3559 65.696 26.3629 65.6666C26.3665 65.6516 26.3702 65.6358 26.3731 65.6175C26.3768 65.5937 26.373 65.5472 26.3689 65.4986C26.3661 65.4642 26.363 65.4289 26.3621 65.3995C26.3605 65.3464 26.3686 65.326 26.3758 65.307C26.3789 65.2988 26.3819 65.2905 26.3838 65.2802C26.3846 65.2761 26.384 65.268 26.3824 65.2572C26.3923 65.2182 26.4003 65.1785 26.407 65.1396C26.4426 64.9439 26.4381 64.7798 26.5462 64.8664C26.5672 64.8825 26.5811 64.8729 26.5897 64.8508C26.6537 64.876 26.7222 64.8981 26.7949 64.9159C26.8533 65.0053 26.9083 65.0772 26.9586 65.1294C27.0535 65.2273 27.1038 65.2306 27.1619 65.233C27.2053 65.2345 27.2532 65.2355 27.3362 65.2666C27.4756 65.3188 27.6159 65.3412 27.7326 65.3069C27.8488 65.2734 27.9658 65.2053 28.0343 65.1432C28.0716 65.11 28.1786 65.1268 28.2812 65.1358C28.4248 65.1495 28.5597 65.1465 28.4446 65.0254C28.4078 64.9868 28.3379 64.9292 28.2692 64.8744C28.2202 64.8354 28.1721 64.7978 28.137 64.7685C28.159 64.7589 28.1808 64.7487 28.2029 64.7382C28.3137 64.7608 28.4455 64.7589 28.3617 64.6557C28.3844 64.6428 28.4068 64.6295 28.4291 64.6165C28.4766 64.5874 28.5235 64.5574 28.5702 64.5251C28.5856 64.5146 28.6011 64.5037 28.6165 64.4925C28.6166 64.4924 28.6168 64.4923 28.617 64.4922C28.648 64.4698 28.6789 64.4464 28.7095 64.4225C28.7226 64.4122 28.7356 64.4018 28.7486 64.3912C28.7815 64.3643 28.8141 64.3363 28.8464 64.3076C28.8636 64.2925 28.8806 64.2766 28.8977 64.2609C28.9253 64.2352 28.9528 64.2084 28.98 64.1809C29.0241 64.1362 29.0673 64.0908 29.1099 64.0423C29.1169 64.0344 29.1359 64.0287 29.1637 64.0263C29.1916 64.024 29.2259 64.0253 29.2607 64.0304C29.2955 64.0354 29.3288 64.0441 29.3546 64.0548C29.3804 64.0655 29.3963 64.0774 29.4002 64.0879C29.4242 64.1521 29.4462 64.2165 29.4657 64.2837C29.4778 64.3251 29.4893 64.3671 29.4997 64.4091C29.5061 64.4349 29.5119 64.4613 29.5177 64.4873C29.5285 64.5367 29.538 64.5871 29.5462 64.6379C29.5495 64.658 29.5525 64.6781 29.5554 64.6983C29.5622 64.7456 29.5678 64.7937 29.5722 64.8422C29.5722 64.8425 29.5723 64.8428 29.5723 64.8431C29.5744 64.867 29.5764 64.8909 29.5781 64.9147C29.5831 64.9879 29.5858 65.0613 29.5852 65.1368C29.5855 65.1761 29.5843 65.2166 29.5825 65.2574C29.5815 65.2801 29.5804 65.3028 29.5791 65.3252C29.5783 65.3374 29.5773 65.3497 29.5763 65.3621C29.5552 65.6478 29.4969 65.938 29.398 66.2255C29.2998 66.5121 29.1622 66.7944 28.9884 67.0614C28.8141 67.329 28.6033 67.5815 28.3591 67.8105C27.6023 68.5291 26.4946 69.0112 25.3108 69.0534C24.0921 69.1097 22.7652 68.6805 21.7386 67.8245C21.449 67.5859 21.1762 67.3076 20.9383 67.0092C20.698 66.7075 20.4903 66.3858 20.3135 66.0352C20.2597 65.929 20.208 65.8176 20.1589 65.7017Z" fill="black"/>
</svg>
