<svg width="51" height="68" viewBox="0 0 51 68" fill="none" xmlns="http://www.w3.org/2000/svg">
<path d="M18.4984 9.8285C18.0397 8.65485 18.2891 7.40846 18.4473 6.26032C18.4508 6.23485 18.4542 6.20935 18.4578 6.18382C18.6397 4.77918 19.0041 3.18576 20.0888 2.09794C21.1644 1.01392 22.5815 0.301213 24.0455 0.0799856C24.9593 -0.0609506 25.8878 -0.0128436 26.7517 0.202691C27.2722 0.33188 27.7745 0.521348 28.2425 0.764572C29.4888 1.40901 30.4728 2.43747 31.0526 3.6031C31.4492 4.39449 31.6655 5.24955 31.6993 6.08581C31.7145 6.45289 31.6951 6.81581 31.6438 7.16933C31.6054 7.43253 31.5492 7.6921 31.4769 7.94223C31.4668 7.97713 31.4388 8.00821 31.3981 8.02793C31.3574 8.04767 31.3077 8.05454 31.2585 8.04732C31.2092 8.04009 31.1635 8.01938 31.1297 7.99043C31.096 7.96147 31.0771 7.92661 31.0756 7.89279C31.0652 7.64826 31.0382 7.40558 30.9952 7.1702C30.9476 6.90809 30.8802 6.65331 30.7952 6.4083C30.9901 6.33553 31.1332 6.25054 31.1779 6.1268C31.2007 6.06385 31.1964 5.97742 31.1448 5.92654C31.0986 5.88079 31.0293 5.85618 30.9634 5.83397C30.8943 5.81077 30.8289 5.79036 30.7959 5.7502C30.7398 5.68195 30.6336 5.63485 30.5222 5.59104C30.4816 5.57505 30.4402 5.55941 30.4001 5.54302C30.28 5.33494 30.1464 5.13828 30.0013 4.95415C29.9784 4.86534 29.9521 4.78462 29.9088 4.72896C29.87 4.67899 29.8027 4.65307 29.7272 4.63549C29.7027 4.60941 29.678 4.58368 29.653 4.55825C29.492 4.39408 29.3215 4.24327 29.1434 4.10695C29.0671 3.94359 28.9736 3.77443 28.8048 3.60037C28.732 3.52556 28.6699 3.43881 28.6063 3.35643C28.5131 3.23511 28.4164 3.12327 28.2961 3.0834C28.2159 3.05685 28.1569 2.98892 28.0942 2.92174C28.0112 2.83213 27.9204 2.74368 27.7916 2.7709C27.7108 2.78806 27.6316 2.81919 27.5599 2.84969C27.4459 2.89831 27.3505 2.94498 27.2864 2.92758C27.1663 2.89503 27.0433 2.92466 26.9399 2.95475C26.814 2.99063 26.7148 3.02635 26.649 2.94889C26.6389 2.93715 26.6277 2.92204 26.6149 2.90494C26.5678 2.84183 26.4979 2.75232 26.3854 2.71865C26.3379 2.70442 26.2835 2.70044 26.2228 2.71346C26.1505 2.72906 26.079 2.784 26.0126 2.83946C25.9157 2.92024 25.8287 3.00157 25.7377 2.96358C25.7241 2.9579 25.7098 2.93436 25.6965 2.91292C25.6796 2.88565 25.6643 2.86196 25.6558 2.88286C25.631 2.94415 25.5924 3.01235 25.5534 3.08728C25.5246 3.14232 25.4957 3.20098 25.4703 3.26262C25.2517 3.31032 25.0398 3.37484 24.8367 3.4542C24.7438 3.49053 24.6523 3.53012 24.5631 3.57256C24.4874 3.50039 24.4102 3.43927 24.3348 3.40017C24.2359 3.34927 24.133 3.3619 24.001 3.38553C23.9038 3.40308 23.7909 3.42651 23.6466 3.44036C23.3776 3.46604 23.1697 3.63777 23.0761 3.78215C23.0559 3.81272 23.0365 3.84418 23.0166 3.87815C22.9421 4.00764 22.8493 4.16744 22.6869 4.4488C22.5354 4.71535 22.4081 4.92721 22.3198 5.09185C22.2748 5.17594 22.2405 5.24666 22.2208 5.30456C22.1871 5.40328 22.1451 5.5227 22.1098 5.64359C22.0537 5.83278 22.0162 6.02655 22.0185 6.14121C22.0193 6.1819 22.0228 6.22516 22.0274 6.27163C22.0394 6.39097 22.0581 6.52988 22.0639 6.7088C22.0644 6.72271 22.0648 6.73684 22.0651 6.75118C22.071 6.95923 22.0442 7.0809 21.9938 7.21361C21.9736 7.26703 21.8964 7.3157 21.8176 7.3696C21.7058 7.44512 21.5911 7.53451 21.6367 7.6392C21.6474 7.66343 21.6686 7.68806 21.6911 7.71352C21.7326 7.76034 21.7781 7.80836 21.7699 7.86569C21.7671 7.88578 21.7491 7.90617 21.7315 7.92641C21.7122 7.94866 21.6935 7.97084 21.6961 7.99171C21.7058 8.06949 21.7273 8.14327 21.7479 8.20783C21.7744 8.29104 21.7994 8.35993 21.7946 8.40871C21.7862 8.4959 21.8426 8.57297 21.9016 8.64603C21.9468 8.70234 21.9936 8.75685 22.0155 8.81926C22.0776 8.9983 22.2478 9.21073 22.469 9.37571C22.5524 9.438 22.5592 9.53182 22.5759 9.65609C22.5863 9.73312 22.6005 9.82178 22.6403 9.91721C22.663 9.97138 22.7271 9.97796 22.7853 9.98218C22.8392 9.98622 22.8883 9.98852 22.9007 10.0284C22.9116 10.0636 22.8753 10.1295 22.8417 10.193C22.8044 10.2636 22.7705 10.3311 22.8071 10.3464C22.8266 10.3544 22.8689 10.3443 22.9185 10.3312C22.9381 10.3261 22.9588 10.3206 22.9799 10.3155C22.9696 10.326 22.9607 10.3357 22.9541 10.3431C22.9071 10.3953 22.9103 10.4479 22.9149 10.4998C22.9167 10.5205 22.9187 10.5411 22.9176 10.5615C22.9133 10.6368 22.9751 10.7001 23.0296 10.7385C23.0526 10.7548 23.0597 10.7876 23.0687 10.826C23.0767 10.86 23.0861 10.8986 23.1093 10.9332C23.1226 10.953 23.1249 10.9795 23.127 11.0016C23.1285 11.0176 23.1298 11.0313 23.135 11.0382C23.1395 11.0441 23.1556 11.0307 23.1736 11.0155C23.1866 11.0046 23.2006 10.9927 23.2121 10.9865C23.2395 10.9717 23.2594 10.975 23.2654 10.9895C23.2681 10.9962 23.2678 11.0054 23.2675 11.0145C23.2672 11.0251 23.2668 11.0358 23.2714 11.0426C23.2927 11.0738 23.3339 11.0727 23.3761 11.0706C23.4227 11.0685 23.4702 11.0651 23.4982 11.1048C23.5071 11.1173 23.5127 11.1374 23.5183 11.157C23.5241 11.1774 23.5301 11.1972 23.5393 11.2067C23.5769 11.2452 23.6431 11.2233 23.7028 11.2019C23.7425 11.1877 23.7794 11.1738 23.8048 11.1788C23.8514 11.188 23.899 11.1435 23.9336 11.1105C23.9515 11.0934 23.9661 11.0792 23.9755 11.0772C23.9812 11.0816 23.987 11.0864 23.9925 11.0913C23.9965 11.098 24.0008 11.1049 24.0071 11.1061C24.0076 11.1062 24.0081 11.1061 24.0086 11.1062C24.0386 11.1355 24.0666 11.17 24.0946 11.2039C24.1574 11.28 24.2256 11.3548 24.3219 11.3601C24.3427 11.3613 24.3699 11.3441 24.3973 11.3263C24.4308 11.3046 24.4645 11.2819 24.4885 11.2916C24.5455 11.3146 24.5941 11.3709 24.6449 11.4258C24.7203 11.5081 24.8019 11.587 24.8989 11.5391C24.9307 11.5232 24.9641 11.4928 24.997 11.4618C25.0154 11.4445 25.0336 11.427 25.0515 11.4119C25.043 11.4439 25.0363 11.4742 25.0301 11.5024C25.0171 11.5607 25.0061 11.6105 24.9837 11.6506C24.9312 11.7456 24.8633 11.8762 24.8492 11.9781C24.8455 12.0057 24.8388 12.0361 24.8319 12.0666C24.8148 12.1431 24.7967 12.2213 24.8281 12.2638C24.8489 12.2924 24.9066 12.3589 24.9582 12.306C24.9693 12.2945 24.9787 12.2697 24.9891 12.2421C24.994 12.2289 24.9992 12.2151 25.0049 12.2017C25.0206 12.1648 25.0402 12.1316 25.0699 12.125C25.0767 12.1235 25.084 12.1223 25.0916 12.1213C25.1216 12.1171 25.1552 12.1122 25.1719 12.0722C25.1912 12.0263 25.1943 11.9714 25.1982 11.9075C25.2032 11.8242 25.2103 11.7255 25.2504 11.61C25.2583 11.5871 25.2693 11.5802 25.2775 11.5749C25.2833 11.5712 25.2878 11.5681 25.2889 11.5611C25.2902 11.5531 25.2902 11.536 25.2903 11.5145C25.2903 11.4383 25.2921 11.3058 25.3447 11.3053C25.359 11.3052 25.3748 11.3129 25.389 11.3198C25.4099 11.33 25.4274 11.3382 25.4313 11.3168C25.4328 11.3087 25.4341 11.2999 25.4353 11.2907C25.4522 11.2946 25.469 11.2983 25.4858 11.3019C25.5062 11.329 25.537 11.3285 25.5757 11.3272C25.5851 11.3268 25.595 11.3265 25.6052 11.3265C25.6389 11.3329 25.6727 11.3388 25.7064 11.3445C25.7332 11.3556 25.7616 11.3734 25.7928 11.4012C25.8549 11.457 25.9124 11.5484 25.9723 11.6367C25.9974 11.6739 26.0233 11.7105 26.0496 11.7437C26.0406 11.7486 26.0325 11.7542 26.0265 11.7616C25.985 11.8121 25.9718 11.9067 25.9587 11.9939C25.95 12.0518 25.9414 12.1065 25.9243 12.1422C25.893 12.2075 25.8984 12.2823 25.9029 12.3376C25.9052 12.3663 25.907 12.3898 25.9027 12.4039C25.8993 12.4152 25.8906 12.4208 25.8816 12.4265C25.8737 12.4315 25.8656 12.4367 25.8605 12.4458C25.7985 12.5569 25.8175 12.6202 25.8493 12.7123C25.8667 12.7631 25.8876 12.8225 25.899 12.9036C25.9093 12.9895 25.9077 13.0149 25.8709 13.0501C25.9013 13.092 25.9322 13.1336 25.9637 13.175C25.9753 13.1718 25.9832 13.1448 25.9936 13.1001C26.0122 13.0203 26.0809 12.9879 26.1343 12.9614C26.1589 12.9492 26.1802 12.9384 26.1917 12.9253C26.2521 12.8557 26.2242 12.7679 26.2015 12.6907C26.1888 12.6482 26.1775 12.6088 26.1812 12.5775C26.1827 12.5641 26.1778 12.5513 26.1729 12.5383C26.1691 12.5283 26.1652 12.518 26.1642 12.5073C26.1571 12.429 26.1878 12.368 26.2147 12.311C26.2302 12.2783 26.2445 12.247 26.2508 12.2148C26.2527 12.205 26.2539 12.195 26.2551 12.1854C26.2568 12.1713 26.2584 12.1579 26.262 12.1462C26.2701 12.1195 26.2904 12.0998 26.3123 12.0781C26.3235 12.067 26.3352 12.0554 26.3458 12.0421C26.3596 12.0247 26.3611 11.9932 26.3626 11.9602C26.3637 11.9369 26.3649 11.9129 26.3701 11.8925C26.3796 11.8557 26.4062 11.8391 26.4306 11.8234C26.4413 11.8166 26.4515 11.8098 26.4598 11.8018C26.4632 11.7986 26.4642 11.793 26.4634 11.7857C26.5024 11.7545 26.5385 11.7225 26.5729 11.691C26.7462 11.5313 26.872 11.3911 27.131 11.3861C27.1802 11.3849 27.2271 11.365 27.2707 11.3359C27.4344 11.307 27.5985 11.2691 27.7621 11.2219C27.8238 11.2698 27.8882 11.3032 27.9543 11.3203C28.0786 11.352 28.174 11.3183 28.2842 11.2746C28.3658 11.2421 28.4557 11.2041 28.5766 11.1774C28.7797 11.1323 28.9822 11.0591 29.1754 10.9287C29.3681 10.7996 29.5676 10.6214 29.6935 10.4812C29.7622 10.4055 29.8781 10.3587 29.9861 10.3097C30.1378 10.2415 30.2742 10.1676 30.2251 10.0424C30.2094 10.0025 30.1713 9.95025 30.1336 9.90029C30.1068 9.8647 30.0803 9.83014 30.0624 9.80134C30.0917 9.77015 30.1206 9.73836 30.1493 9.70617C30.2484 9.67635 30.3733 9.60523 30.3508 9.4668C30.3788 9.43147 30.4063 9.39573 30.4329 9.36084C30.4902 9.28424 30.5451 9.20771 30.5986 9.12847C30.6161 9.10261 30.6336 9.07622 30.6509 9.04952C30.6511 9.04927 30.6512 9.04902 30.6514 9.04878C30.6862 8.99514 30.7203 8.9406 30.7534 8.8858C30.7675 8.86234 30.7815 8.8387 30.7953 8.81488C30.8303 8.75457 30.8644 8.69314 30.8973 8.63148C30.9147 8.59896 30.932 8.56533 30.9489 8.53221C30.9764 8.47819 31.0033 8.4229 31.0294 8.36706C31.0716 8.27622 31.1114 8.18625 31.1494 8.09265C31.1556 8.07739 31.1697 8.06392 31.1893 8.05529C31.209 8.04667 31.2324 8.04351 31.2556 8.0469C31.2788 8.0503 31.3004 8.06011 31.3166 8.07436C31.3327 8.08859 31.3418 8.10613 31.3429 8.1231C31.3493 8.22722 31.353 8.32993 31.3531 8.43583C31.3532 8.50092 31.3523 8.56634 31.3502 8.63125C31.3489 8.67109 31.3469 8.71169 31.3447 8.75152C31.3406 8.82696 31.3346 8.90343 31.3269 8.97969C31.3239 9.0098 31.3207 9.03991 31.3172 9.06999C31.3091 9.14049 31.2992 9.21164 31.288 9.28275C31.2879 9.28318 31.2879 9.28361 31.2878 9.28404C31.2823 9.31909 31.2764 9.35405 31.2703 9.38861C31.2514 9.49508 31.2296 9.60062 31.2034 9.70818C31.1903 9.76393 31.1753 9.8213 31.1595 9.87874C31.1507 9.91069 31.1416 9.94254 31.1326 9.97378C31.1275 9.99082 31.1223 10.008 31.1169 10.0253C30.9956 10.4235 30.8293 10.8122 30.6161 11.1861C30.404 11.5587 30.1469 11.9137 29.8513 12.24C29.5548 12.567 29.2194 12.8656 28.8506 13.1278C27.7029 13.9508 26.209 14.4035 24.696 14.3241C23.1357 14.2552 21.5422 13.6081 20.332 12.4939C19.9909 12.1827 19.6717 11.8271 19.3954 11.451C19.1162 11.0709 18.8773 10.6703 18.6749 10.2384C18.6134 10.1074 18.5543 9.97056 18.4984 9.8285Z" fill="black"/>
<path d="M6.20333 43.9776C6.75917 42.8193 8.17479 42.2129 8.81905 41.1006C9.61903 39.7195 9.66612 37.8745 10.6082 36.5712C11.5457 35.2759 12.549 34.0098 13.5974 32.7755C14.6467 31.5397 15.7422 30.3334 16.8716 29.1429C17.9993 27.9554 19.1609 26.7835 20.3393 25.6238C21.1397 24.8361 21.9491 24.0522 22.7612 23.2714C23.1175 22.9285 23.4736 22.5871 23.8308 22.245C24.0974 21.9899 24.3641 21.7348 24.6307 21.4797C24.668 21.4443 24.7428 21.433 24.8414 21.4498C24.9402 21.4667 25.0543 21.5099 25.162 21.5721C25.2697 21.6344 25.3643 21.7118 25.428 21.7889C25.4914 21.8658 25.5183 21.9359 25.5058 21.9855C25.4139 22.345 25.3219 22.7044 25.23 23.0639C25.1278 23.4631 25.0261 23.8617 24.9233 24.2604C24.45 24.0593 24.0718 23.9399 23.8434 23.9935C23.7269 24.0209 23.6357 24.1063 23.6739 24.23C23.7082 24.341 23.81 24.4686 23.9071 24.59C24.0088 24.7169 24.1052 24.8374 24.1131 24.9254C24.1265 25.0746 24.2559 25.2839 24.392 25.5037C24.4415 25.5837 24.4919 25.6652 24.5379 25.7457C24.4385 26.1255 24.3383 26.505 24.2374 26.8839C24.1172 26.9834 24.0119 27.0779 23.973 27.1872C23.9381 27.2852 23.9846 27.4203 24.0541 27.5681C24.0384 27.6267 24.0226 27.6853 24.0068 27.7439C23.9047 28.1217 23.8011 28.4989 23.6967 28.8757C23.4311 29.0633 23.1618 29.2652 22.9102 29.5847C22.8018 29.7224 22.6525 29.8338 22.509 29.9409C22.2971 30.0991 22.0979 30.248 22.0612 30.4583C22.0367 30.5988 21.9038 30.6847 21.7712 30.7705C21.5934 30.8855 21.4159 31.0003 21.5007 31.2462C21.5541 31.4009 21.6349 31.5613 21.71 31.71C21.8294 31.9465 21.9339 32.1533 21.888 32.2594C21.8019 32.4588 21.8483 32.7013 21.8893 32.9151C21.9387 33.1723 21.9801 33.3881 21.7731 33.437C21.7417 33.4444 21.702 33.4507 21.657 33.4576C21.42 33.4942 21.0409 33.5526 21.0109 33.9334C21.0003 34.069 21.0744 34.2449 21.1473 34.4173C21.2533 34.6684 21.3563 34.9121 21.1895 35.0132C21.1645 35.0283 21.1002 35.022 21.0415 35.0161C20.9668 35.0086 20.9016 35.0022 20.9386 35.042C21.0471 35.1587 21.1557 35.3073 21.274 35.4688C21.3609 35.5875 21.453 35.7133 21.5537 35.8385C21.4056 36.2644 21.2543 36.6885 21.0992 37.1107C21.0282 37.3041 20.9564 37.4971 20.8838 37.6897C20.6332 37.665 20.4012 37.6538 20.2097 37.6728C19.9595 37.6977 19.8102 37.8311 19.6175 38.0028C19.4757 38.1292 19.3102 38.2763 19.0641 38.4167C18.6086 38.6765 18.4274 39.109 18.4012 39.438C18.3957 39.5076 18.3918 39.5785 18.388 39.6546C18.3739 39.9433 18.3569 40.3039 18.2103 40.9228C18.0716 41.5082 17.8653 41.9551 17.7103 42.2908C17.6312 42.4621 17.565 42.6043 17.5285 42.7214C17.4659 42.9218 17.3757 43.1601 17.2849 43.3992C17.1428 43.7734 16.9996 44.1498 16.9612 44.3875C16.9476 44.4722 16.9382 44.5638 16.9276 44.6626C16.8985 44.9363 16.8632 45.2669 16.7211 45.6686C16.572 46.0903 16.3875 46.2984 16.1411 46.4831C16.0409 46.5582 15.8217 46.5488 15.5953 46.5389C15.2741 46.5248 14.9389 46.5101 14.911 46.7359C14.9046 46.7886 14.9186 46.8569 14.9335 46.9285C14.9608 47.06 14.9905 47.2024 14.8982 47.2773C14.866 47.3034 14.8032 47.3065 14.7416 47.3096C14.6739 47.3129 14.6077 47.3163 14.5845 47.3501C14.4982 47.4765 14.4354 47.6116 14.3797 47.7318C14.3078 47.8867 14.2474 48.0166 14.1632 48.0702C14.0129 48.1657 13.9905 48.352 13.9682 48.5408C13.9511 48.685 13.9342 48.831 13.8595 48.9386C13.6462 49.2461 13.5114 49.7606 13.4499 50.3354C13.4265 50.5528 13.2371 50.6391 12.9941 50.7495C12.8429 50.8181 12.6707 50.8959 12.5054 51.0208C12.4117 51.0916 12.4592 51.2248 12.5029 51.348C12.5432 51.4615 12.5804 51.5666 12.5018 51.607C12.4324 51.6427 12.2548 51.588 12.0861 51.5362C11.8984 51.4784 11.7219 51.4241 11.7178 51.5015C11.7157 51.5426 11.7718 51.6266 11.8384 51.7264C11.8648 51.7658 11.8926 51.8078 11.9194 51.8506C11.8881 51.8312 11.8599 51.8145 11.8383 51.8021C11.6862 51.7142 11.5709 51.7289 11.4578 51.7434C11.4127 51.7492 11.368 51.7551 11.3214 51.7543C11.1499 51.7511 11.0501 51.8751 10.9961 51.9827C10.9732 52.0282 10.903 52.0408 10.821 52.0556C10.7483 52.0687 10.6662 52.0834 10.5998 52.1243C10.562 52.1477 10.5028 52.1482 10.4536 52.1485C10.418 52.1487 10.3875 52.1488 10.3744 52.1576C10.3632 52.1653 10.4018 52.1991 10.4453 52.2371C10.4767 52.2645 10.5106 52.2942 10.5303 52.3179C10.5772 52.3746 10.5788 52.4135 10.548 52.4224C10.5338 52.4265 10.5126 52.424 10.4916 52.4215C10.467 52.4186 10.4423 52.4155 10.4287 52.4231C10.3663 52.4579 10.3862 52.5382 10.4069 52.6217C10.4297 52.7135 10.4531 52.8091 10.3696 52.8521C10.3433 52.8657 10.2982 52.8703 10.2545 52.8747C10.2088 52.8793 10.1646 52.8839 10.1452 52.8983C10.0665 52.9569 10.1329 53.0931 10.194 53.2183C10.2347 53.3016 10.2728 53.3801 10.2645 53.4277C10.2491 53.5149 10.3574 53.629 10.4374 53.7132C10.4788 53.7568 10.5129 53.7926 10.518 53.8124C10.5077 53.8219 10.4965 53.8311 10.4852 53.8399C10.4695 53.8449 10.4533 53.8501 10.4505 53.8622C10.4503 53.8631 10.4504 53.8642 10.4502 53.8651C10.3814 53.9113 10.2999 53.9486 10.2188 53.9857C10.0367 54.0688 9.85655 54.1509 9.82751 54.3308C9.82126 54.3696 9.85649 54.4331 9.89226 54.4977C9.93609 54.5768 9.98091 54.6578 9.95169 54.697C9.88203 54.7904 9.73465 54.8403 9.58946 54.8893C9.37109 54.9632 9.15777 55.0353 9.22131 55.2516C9.24229 55.323 9.29492 55.4112 9.34811 55.4999C9.37775 55.5493 9.40769 55.5991 9.43196 55.6459C9.36354 55.5994 9.29808 55.558 9.23704 55.5193C9.11122 55.4395 9.00355 55.3712 8.92346 55.2935C8.73419 55.1099 8.4658 54.8706 8.2394 54.7492C8.17795 54.7163 8.11163 54.676 8.04493 54.6352C7.87759 54.533 7.70669 54.4286 7.59836 54.4351C7.52536 54.4395 7.35224 54.4592 7.44914 54.5912C7.47026 54.6199 7.52197 54.6599 7.57942 54.7043C7.68265 54.7841 7.80485 54.8786 7.80449 54.9505C7.80443 54.9626 7.8034 54.9752 7.80186 54.988C7.79572 55.0388 7.78856 55.0956 7.8687 55.1647C7.96103 55.2442 8.08221 55.3086 8.2235 55.3836C8.40751 55.4813 8.62609 55.5974 8.85978 55.7888C8.90597 55.8267 8.91421 55.8528 8.92049 55.8726C8.92492 55.8865 8.92864 55.8973 8.94362 55.9068C8.96084 55.9178 8.99911 55.9362 9.04754 55.9596C9.21843 56.0419 9.51693 56.186 9.4779 56.2816C9.46732 56.3075 9.43786 56.327 9.41135 56.3445C9.37228 56.3702 9.33993 56.3917 9.38444 56.4228C9.40134 56.4345 9.41997 56.4467 9.43942 56.4591C9.41713 56.4847 9.39485 56.5103 9.37256 56.536C9.29536 56.5407 9.27016 56.5954 9.23893 56.6638C9.23135 56.6804 9.22316 56.6978 9.21401 56.7155C9.16959 56.7658 9.12522 56.8161 9.08058 56.8662C9.03084 56.8977 8.96454 56.9234 8.87404 56.9388C8.69271 56.9696 8.43933 56.9411 8.19161 56.9133C8.08723 56.9015 7.98365 56.8898 7.88701 56.8828C7.88594 56.8632 7.8824 56.844 7.87302 56.8254C7.80877 56.698 7.62113 56.5534 7.44838 56.4203C7.33348 56.3318 7.22515 56.2483 7.16441 56.1786C7.05311 56.0509 6.88807 55.962 6.76605 55.8962C6.70276 55.8621 6.65097 55.834 6.62435 55.8102C6.60303 55.7911 6.59844 55.7727 6.59364 55.7537C6.58947 55.7371 6.58502 55.72 6.56951 55.7017C6.38106 55.4794 6.22839 55.4254 6.00621 55.3467C5.88367 55.3033 5.73993 55.2523 5.55733 55.1616C5.36527 55.0633 5.31251 55.0286 5.26393 54.9411C5.15171 54.9226 5.03949 54.9041 4.92727 54.8857C4.92539 54.9028 4.97704 54.9463 5.06439 55.0161C5.22039 55.1408 5.23411 55.2613 5.24483 55.3555C5.24979 55.3991 5.25421 55.4372 5.27175 55.4673C5.36506 55.6277 5.57263 55.7165 5.75528 55.7947C5.85582 55.8378 5.94884 55.8776 6.01109 55.9244C6.03773 55.9443 6.06898 55.9558 6.10082 55.9676C6.12543 55.9767 6.15047 55.9859 6.17399 55.9992C6.34472 56.0964 6.44373 56.2166 6.53568 56.3281C6.58834 56.392 6.63894 56.4531 6.69918 56.5055C6.71753 56.5215 6.73678 56.5369 6.75552 56.5517C6.7829 56.5734 6.80893 56.5941 6.82949 56.6149C6.87632 56.6623 6.89569 56.7153 6.91669 56.7734C6.92746 56.8031 6.93869 56.8342 6.95438 56.8665C6.97472 56.9084 7.03731 56.9553 7.10264 57.0045C7.14881 57.0393 7.1963 57.0752 7.23171 57.1112C7.29571 57.1764 7.29855 57.235 7.30118 57.2894C7.30233 57.3131 7.30373 57.3362 7.30984 57.3585C7.31233 57.3676 7.32231 57.377 7.33783 57.3868C7.35349 57.4826 7.37199 57.5762 7.39033 57.6675C7.48227 58.1251 7.56223 58.5214 7.16794 58.8167C7.09339 58.8725 7.05375 58.9558 7.03271 59.0509C6.81737 59.2698 6.59978 59.4875 6.38056 59.704C6.19786 59.6665 6.03314 59.6544 5.88954 59.6699C5.61989 59.6989 5.49709 59.8179 5.35217 59.9584C5.24502 60.0623 5.12564 60.1778 4.92595 60.2775C4.59043 60.4449 4.27832 60.6355 4.0184 60.9038C3.75961 61.171 3.4953 61.4953 3.32868 61.7366C3.23784 61.8681 3.01705 61.9338 2.81145 61.9951C2.52225 62.0815 2.26293 62.159 2.43617 62.3978C2.49154 62.4741 2.60244 62.5809 2.71015 62.6848C2.78686 62.7588 2.86165 62.8313 2.91438 62.8904C2.86108 62.936 2.80796 62.9818 2.75443 63.0273C2.54014 63.0394 2.28206 63.1014 2.36712 63.3545C2.31155 63.4013 2.25607 63.4481 2.20147 63.4928C2.08427 63.5913 1.96804 63.6868 1.85085 63.7832C1.8124 63.8146 1.77369 63.8463 1.73485 63.8781C1.73445 63.8784 1.73405 63.8787 1.73366 63.879C1.65547 63.943 1.57671 64.0075 1.49855 64.0705C1.46512 64.0976 1.4317 64.1246 1.39827 64.1516C1.31337 64.2203 1.22799 64.2896 1.14313 64.3571C1.09813 64.3928 1.05302 64.4291 1.00758 64.4652C0.933858 64.5238 0.859643 64.5829 0.785458 64.6415C0.665501 64.7363 0.545319 64.8302 0.424618 64.9241C0.404787 64.9394 0.367782 64.9438 0.320378 64.9353C0.272909 64.9268 0.219047 64.9063 0.168302 64.877C0.11754 64.8477 0.0728208 64.8111 0.0418801 64.7743C0.0110777 64.7376 -0.00305475 64.7037 0.00049286 64.679C0.0228708 64.5283 0.0456894 64.3779 0.0692117 64.2274C0.0837383 64.1343 0.0982095 64.0407 0.112988 63.948C0.122101 63.8909 0.131435 63.8341 0.140378 63.7775C0.157431 63.6708 0.175475 63.5625 0.193528 63.4552C0.200572 63.4129 0.207615 63.3707 0.214659 63.3284C0.231123 63.2295 0.248692 63.1293 0.266002 63.0299C0.266112 63.0293 0.266222 63.0287 0.266333 63.0281C0.274848 62.9792 0.283301 62.9303 0.291629 62.8819C0.317941 62.733 0.344037 62.5853 0.372191 62.4353C0.385728 62.3572 0.40136 62.2767 0.416456 62.1966C0.42486 62.152 0.433157 62.1074 0.441211 62.0635C0.4458 62.0397 0.450609 62.0156 0.455442 61.9914C0.561663 61.4327 0.672147 60.8809 0.791467 60.3285C0.909781 59.7778 1.03474 59.2299 1.16462 58.6867C1.29513 58.1423 1.43112 57.6022 1.57269 57.0648C2.47063 53.6538 3.52004 50.3146 4.81672 47.1165C5.00128 46.6601 5.19805 46.1961 5.39446 45.7454C5.59352 45.2901 5.7929 44.8467 6.00416 44.3969C6.068 44.2601 6.13444 44.1205 6.20333 43.9776Z" fill="black"/>
<path d="M40.5014 37.0955C41.2266 38.156 41.0439 39.6851 41.6851 40.7992C42.4811 42.1826 44.0555 43.1459 44.7131 44.6134C45.3661 46.0729 45.9609 47.5749 46.5056 49.0999C47.0512 50.6265 47.5481 52.1785 48.0144 53.7518C48.479 55.3222 48.9132 56.9141 49.3283 58.5145C49.6102 59.6015 49.8844 60.6944 50.1546 61.7881C50.2734 62.2681 50.3909 62.7472 50.5087 63.2276C50.5963 63.586 50.6839 63.9445 50.7715 64.303C50.7835 64.3529 50.7559 64.4234 50.692 64.5004C50.628 64.5775 50.5335 64.6547 50.4258 64.7169C50.318 64.779 50.2036 64.8222 50.1051 64.8388C50.0067 64.8553 49.9326 64.8435 49.8958 64.8079C49.6305 64.5486 49.3652 64.2892 49.0998 64.0299C48.8053 63.7418 48.5108 63.4544 48.2169 63.166C48.6278 62.8567 48.9203 62.5889 48.988 62.3643C49.0226 62.2497 48.9942 62.128 48.8681 62.0992C48.7547 62.0734 48.5934 62.0978 48.4397 62.1212C48.2789 62.1458 48.1263 62.1691 48.0462 62.1319C47.9102 62.0689 47.6643 62.0763 47.4059 62.0842C47.3119 62.0871 47.2161 62.09 47.1234 62.0896C46.8442 61.8136 46.5656 61.5371 46.2879 61.2603C46.2619 61.1064 46.2327 60.968 46.1575 60.8796C46.0901 60.8004 45.9498 60.7732 45.787 60.7594C45.7442 60.7165 45.7013 60.6736 45.6584 60.6306C45.3823 60.3532 45.1074 60.0749 44.8333 59.7961C44.8036 59.4723 44.7634 59.1381 44.6125 58.7605C44.5475 58.5978 44.5257 58.4128 44.5047 58.235C44.4736 57.9723 44.4443 57.7253 44.2805 57.5884C44.1711 57.497 44.1631 57.3389 44.1552 57.1812C44.1445 56.9697 44.1338 56.7586 43.8784 56.7091C43.7178 56.678 43.5384 56.6678 43.3721 56.6584C43.1076 56.6436 42.8763 56.6307 42.8073 56.5379C42.6777 56.3636 42.4444 56.2825 42.2387 56.2112C41.9913 56.1253 41.7838 56.0533 41.845 55.8496C41.8542 55.8187 41.8686 55.7812 41.8851 55.7388C41.972 55.5152 42.1109 55.1577 41.7961 54.9413C41.6841 54.8643 41.4946 54.8405 41.3088 54.8174C41.0384 54.7838 40.7758 54.751 40.7717 54.556C40.7711 54.5269 40.8087 54.4743 40.8432 54.4264C40.887 54.3655 40.9252 54.3123 40.8722 54.3244C40.7169 54.36 40.5339 54.3798 40.3349 54.4014C40.1887 54.4173 40.0336 54.4342 39.8749 54.4589C39.5801 54.1176 39.2884 53.7745 39.0004 53.4291C38.8684 53.2709 38.7371 53.1122 38.6066 52.953C38.7533 52.7484 38.879 52.5531 38.9583 52.3778C39.0619 52.1486 39.021 51.9526 38.9686 51.6999C38.9301 51.5139 38.8854 51.2969 38.8869 51.0136C38.8896 50.4892 38.6057 50.1161 38.3338 49.9289C38.2763 49.8893 38.2169 49.8505 38.1528 49.8092C37.9099 49.6527 37.6062 49.4576 37.1435 49.0212C36.7058 48.6084 36.422 48.2062 36.2087 47.9042C36.0999 47.75 36.0098 47.6216 35.9267 47.5314C35.7844 47.3771 35.6232 47.1797 35.4615 46.9816C35.2085 46.6714 34.9541 46.3592 34.7674 46.2071C34.701 46.1529 34.6263 46.099 34.546 46.0405C34.3235 45.8784 34.0549 45.6825 33.7781 45.3586C33.4874 45.0186 33.3994 44.7548 33.3626 44.449C33.3477 44.3248 33.4654 44.1396 33.5872 43.9485C33.76 43.6773 33.9404 43.3944 33.7588 43.2574C33.7164 43.2255 33.6501 43.2034 33.5807 43.1805C33.4532 43.1384 33.3151 43.093 33.2964 42.9756C33.2898 42.9346 33.3185 42.8787 33.3467 42.8239C33.3776 42.7635 33.4078 42.7045 33.3901 42.6675C33.3238 42.5296 33.2382 42.4076 33.162 42.2993C33.0637 42.1596 32.9814 42.0423 32.9772 41.9426C32.9696 41.7647 32.8195 41.6522 32.6671 41.5384C32.5507 41.4515 32.4328 41.3639 32.377 41.2454C32.2173 40.9069 31.8392 40.5329 31.3721 40.1922C31.1955 40.0633 31.2155 39.8561 31.2414 39.5905C31.2575 39.4253 31.2762 39.2372 31.2508 39.0316C31.2363 38.915 31.0972 38.8896 30.9687 38.8659C30.8502 38.844 30.7406 38.8237 30.7449 38.7354C30.7487 38.6574 30.8848 38.5309 31.0141 38.4108C31.1579 38.2772 31.2932 38.1514 31.2283 38.1092C31.1937 38.0868 31.093 38.0934 30.9732 38.1012C30.9258 38.1043 30.8756 38.1074 30.8251 38.1092C30.8576 38.0918 30.8862 38.0757 30.9077 38.0633C31.0599 37.9755 31.1048 37.8683 31.1488 37.7631C31.1663 37.7211 31.1835 37.6794 31.2076 37.6395C31.296 37.4925 31.2385 37.3441 31.1724 37.2435C31.1445 37.201 31.1686 37.1338 31.1968 37.0555C31.2218 36.9859 31.2501 36.9075 31.2479 36.8295C31.2466 36.7851 31.2756 36.7336 31.3 36.6908C31.3177 36.6599 31.3328 36.6335 31.3317 36.6177C31.3307 36.6041 31.2821 36.6207 31.2274 36.6394C31.188 36.6528 31.1454 36.6674 31.115 36.6726C31.0425 36.6849 31.008 36.6668 31.0156 36.6357C31.0192 36.6213 31.0319 36.6042 31.0446 36.5872C31.0594 36.5674 31.0744 36.5476 31.0747 36.532C31.0758 36.4606 30.9962 36.4376 30.9136 36.4138C30.8227 36.3876 30.7282 36.3602 30.7327 36.2663C30.7341 36.2367 30.7527 36.1954 30.7707 36.1554C30.7895 36.1135 30.8076 36.0729 30.8049 36.0489C30.7935 35.9514 30.6424 35.9408 30.5033 35.9311C30.4109 35.9247 30.3238 35.9185 30.2868 35.8875C30.2189 35.8306 30.066 35.8673 29.9531 35.8944C29.8946 35.9085 29.8466 35.9201 29.8269 35.9147C29.8238 35.901 29.8214 35.8867 29.8194 35.8725C29.8229 35.8564 29.8265 35.8398 29.8175 35.8313C29.8168 35.8307 29.8158 35.8303 29.8151 35.8296C29.8095 35.7469 29.8179 35.6577 29.8264 35.569C29.8454 35.3696 29.8645 35.1726 29.7231 35.0575C29.6927 35.0327 29.6201 35.0314 29.5462 35.0301C29.4558 35.0285 29.3633 35.0269 29.344 34.9819C29.2979 34.8749 29.3284 34.7223 29.3585 34.5721C29.4037 34.346 29.4479 34.1252 29.2288 34.0721C29.1565 34.0546 29.0538 34.056 28.9504 34.0578C28.8927 34.0587 28.8347 34.0597 28.782 34.0574C28.8565 34.0214 28.9251 33.9854 28.9892 33.9519C29.1211 33.8828 29.2341 33.8237 29.3415 33.7932C29.5951 33.7211 29.9365 33.6083 30.1548 33.4729C30.2141 33.4362 30.2822 33.3989 30.3508 33.3615C30.523 33.2677 30.6989 33.1719 30.7474 33.0748C30.7801 33.0094 30.8496 32.8497 30.6868 32.8676C30.6514 32.8715 30.5909 32.8963 30.5238 32.9238C30.403 32.9734 30.2601 33.0319 30.198 32.9956C30.1875 32.9895 30.1771 32.9823 30.1668 32.9746C30.1259 32.9439 30.0803 32.9093 29.9804 32.9442C29.8654 32.9844 29.749 33.0571 29.6134 33.142C29.4368 33.2525 29.2269 33.3837 28.9443 33.4904C28.8884 33.5115 28.8617 33.5055 28.8415 33.5011C28.8272 33.498 28.8159 33.4958 28.8002 33.504C28.7822 33.5135 28.747 33.5374 28.7026 33.5676C28.5458 33.6744 28.2718 33.8609 28.2085 33.7793C28.1914 33.7572 28.1892 33.7219 28.1873 33.6902C28.1846 33.6435 28.1822 33.6048 28.133 33.6278C28.1144 33.6365 28.0945 33.6466 28.074 33.6572C28.063 33.6251 28.0519 33.593 28.0409 33.5609C28.0754 33.4917 28.0406 33.4425 27.997 33.3812C27.9864 33.3664 27.9754 33.3506 27.9647 33.3338C27.9434 33.2702 27.922 33.2066 27.9009 33.1429C27.8985 33.0841 27.9093 33.0138 27.9413 32.9278C28.0053 32.7553 28.1566 32.5501 28.3046 32.3495C28.367 32.265 28.4289 32.1812 28.4833 32.101C28.5009 32.1099 28.5192 32.1164 28.5401 32.1176C28.6825 32.1256 28.9016 32.0354 29.1032 31.9524C29.2373 31.8971 29.3637 31.845 29.4545 31.8273C29.6207 31.7947 29.7802 31.6963 29.8982 31.6235C29.9594 31.5857 30.0096 31.5549 30.0436 31.5438C30.0708 31.5349 30.089 31.5401 30.1078 31.5454C30.1242 31.5501 30.1414 31.5548 30.1649 31.5505C30.4516 31.4985 30.5748 31.3933 30.754 31.2402C30.8528 31.1558 30.9689 31.0568 31.1388 30.944C31.3199 30.8268 31.3764 30.7985 31.4764 30.8002C31.5485 30.7122 31.6207 30.6243 31.6928 30.5363C31.6789 30.5261 31.6153 30.5491 31.5112 30.5898C31.3252 30.6626 31.214 30.6142 31.127 30.5764C31.0868 30.5589 31.0517 30.5437 31.0168 30.5438C30.8313 30.5445 30.6505 30.6798 30.4915 30.7989C30.4039 30.8644 30.3229 30.925 30.2513 30.9556C30.2207 30.9687 30.1951 30.99 30.169 31.0117C30.1488 31.0285 30.1283 31.0455 30.105 31.0592C29.9355 31.1585 29.7819 31.1842 29.6394 31.208C29.5577 31.2217 29.4795 31.235 29.404 31.2609C29.3809 31.2688 29.358 31.2778 29.3358 31.2866C29.3033 31.2995 29.2724 31.3117 29.2441 31.3191C29.1796 31.3359 29.124 31.3262 29.0632 31.3153C29.0321 31.3098 28.9996 31.304 28.9637 31.3014C28.9173 31.2981 28.8453 31.3288 28.7701 31.3608C28.7169 31.3834 28.6621 31.4066 28.6132 31.4193C28.5247 31.4421 28.4725 31.4152 28.4241 31.3903C28.403 31.3795 28.3823 31.3691 28.3599 31.3633C28.3508 31.3609 28.3377 31.3648 28.3215 31.3734C28.2306 31.339 28.1403 31.3082 28.0521 31.2785C27.6098 31.1293 27.2266 31.0004 27.168 30.5113C27.157 30.4188 27.1047 30.3428 27.0328 30.2771C26.9509 29.9811 26.8712 29.6838 26.7933 29.3857C26.9172 29.2463 27.0099 29.1097 27.0684 28.9776C27.1781 28.7296 27.1364 28.5637 27.0872 28.3679C27.0508 28.2232 27.0104 28.062 27.0239 27.8393C27.0467 27.465 27.0377 27.0994 26.9353 26.7401C26.8333 26.3824 26.6846 25.9914 26.559 25.7265C26.4905 25.582 26.544 25.358 26.5937 25.1492C26.6635 24.8556 26.726 24.5923 26.4326 24.6229C26.3389 24.6327 26.1909 24.6753 26.047 24.7167C25.9446 24.7461 25.8445 24.7746 25.7669 24.7907C25.7541 24.7218 25.741 24.6529 25.7283 24.5838C25.825 24.3921 25.9003 24.1376 25.6386 24.0847C25.6259 24.0132 25.613 23.9418 25.6017 23.8722C25.5749 23.7214 25.5503 23.573 25.5254 23.4233C25.5175 23.3743 25.5094 23.3249 25.5012 23.2754C25.5012 23.2749 25.5011 23.2744 25.5011 23.2739C25.4848 23.1742 25.4683 23.0737 25.4528 22.9745C25.4461 22.9321 25.4394 22.8896 25.4327 22.8471C25.4156 22.7393 25.3983 22.6307 25.3823 22.5234C25.3739 22.4666 25.3651 22.4094 25.3565 22.352C25.3426 22.2588 25.3285 22.165 25.3148 22.0715C25.2927 21.9202 25.2715 21.7692 25.2505 21.6177C25.2472 21.5928 25.2619 21.5586 25.2929 21.5218C25.3241 21.485 25.3687 21.4485 25.4195 21.4193C25.4703 21.39 25.5243 21.3695 25.5716 21.3611C25.6188 21.3528 25.6552 21.3575 25.6748 21.3729C25.7942 21.4677 25.913 21.5626 26.0316 21.6583C26.105 21.7174 26.1788 21.7767 26.2516 21.8358C26.2966 21.8723 26.3411 21.9088 26.3856 21.9448C26.4695 22.0129 26.5543 22.0827 26.6382 22.152C26.6713 22.1793 26.7044 22.2065 26.7374 22.2337C26.8149 22.2974 26.8928 22.3627 26.9703 22.4274C26.9707 22.4278 26.9712 22.4282 26.9717 22.4286C27.0098 22.4605 27.0479 22.4922 27.0856 22.5236C27.2015 22.6209 27.3163 22.7173 27.4321 22.8167C27.493 22.8674 27.5549 22.9212 27.6167 22.9744C27.6512 23.004 27.6856 23.0335 27.7196 23.0623C27.7379 23.0782 27.7564 23.0945 27.7749 23.1108C28.2056 23.4821 28.6283 23.8536 29.047 24.2332C29.4647 24.611 29.8768 24.9932 30.2823 25.3773C30.6885 25.7625 31.0883 26.1503 31.4829 26.5416C33.9879 29.0247 36.355 31.6031 38.4763 34.3252C38.7793 34.7132 39.0828 35.1156 39.3749 35.5111C39.6697 35.9111 39.954 36.3055 40.2378 36.7133C40.3244 36.837 40.4121 36.9643 40.5014 37.0955Z" fill="black"/>
</svg>
