<svg width="51" height="60" viewBox="0 0 51 60" fill="none" xmlns="http://www.w3.org/2000/svg">
<path d="M18.872 55.4714C18.4133 54.2978 18.6628 53.0514 18.821 51.9033C18.8244 51.8778 18.8279 51.8523 18.8314 51.8268C19.0134 50.4221 19.3778 48.8287 20.4625 47.7409C21.538 46.6569 22.9551 45.9442 24.4191 45.7229C25.333 45.582 26.2614 45.6301 27.1254 45.8456C27.6459 45.9748 28.1482 46.1643 28.6162 46.4075C29.8624 47.052 30.8464 48.0804 31.4263 49.246C31.8228 50.0374 32.0391 50.8925 32.0729 51.7287C32.0881 52.0958 32.0688 52.4588 32.0174 52.8123C31.979 53.0755 31.9228 53.335 31.8505 53.5852C31.8404 53.6201 31.8124 53.6512 31.7718 53.6709C31.7311 53.6906 31.6814 53.6975 31.6322 53.6903C31.5829 53.683 31.5372 53.6623 31.5034 53.6334C31.4697 53.6044 31.4508 53.5696 31.4493 53.5357C31.4388 53.2912 31.4119 53.0485 31.3689 52.8131C31.3212 52.551 31.2538 52.2963 31.1689 52.0512C31.3637 51.9785 31.5069 51.8935 31.5516 51.7697C31.5744 51.7068 31.57 51.6204 31.5185 51.5695C31.4722 51.5237 31.403 51.4991 31.337 51.4769C31.268 51.4537 31.2026 51.4333 31.1696 51.3931C31.1134 51.3249 31.0073 51.2778 30.8958 51.234C30.8552 51.218 30.8138 51.2024 30.7738 51.186C30.6537 50.9779 30.5201 50.7812 30.375 50.5971C30.352 50.5083 30.3258 50.4276 30.2825 50.3719C30.2436 50.3219 30.1763 50.296 30.1008 50.2784C30.0763 50.2524 30.0516 50.2266 30.0267 50.2012C29.8657 50.037 29.6951 49.8862 29.517 49.7499C29.4407 49.5865 29.3473 49.4174 29.1785 49.2433C29.1056 49.1685 29.0435 49.0818 28.98 48.9994C28.8868 48.8781 28.7901 48.7662 28.6697 48.7263C28.5895 48.6998 28.5305 48.6319 28.4678 48.5647C28.3848 48.4751 28.294 48.3866 28.1652 48.4138C28.0844 48.431 28.0053 48.4621 27.9336 48.4926C27.8196 48.5413 27.7241 48.5879 27.6601 48.5705C27.54 48.538 27.417 48.5676 27.3135 48.5977C27.1876 48.6336 27.0885 48.6693 27.0226 48.5918C27.0126 48.5801 27.0014 48.565 26.9886 48.5479C26.9415 48.4848 26.8716 48.3953 26.7591 48.3616C26.7116 48.3474 26.6572 48.3434 26.5965 48.3564C26.5241 48.372 26.4526 48.4269 26.3863 48.4824C26.2893 48.5632 26.2024 48.6445 26.1114 48.6065C26.0977 48.6008 26.0834 48.5773 26.0702 48.5559C26.0533 48.5286 26.0379 48.5049 26.0295 48.5258C26.0047 48.5871 25.9661 48.6553 25.927 48.7302C25.8982 48.7853 25.8694 48.8439 25.844 48.9056C25.6253 48.9533 25.4134 49.0178 25.2104 49.0971C25.1175 49.1335 25.0259 49.1731 24.9367 49.2155C24.8611 49.1433 24.7838 49.0822 24.7084 49.0431C24.6096 48.9922 24.5066 49.0048 24.3747 49.0285C24.2775 49.046 24.1645 49.0695 24.0203 49.0833C23.7512 49.109 23.5433 49.2807 23.4497 49.4251C23.4296 49.4557 23.4102 49.4871 23.3902 49.5211C23.3158 49.6506 23.2229 49.8104 23.0606 50.0917C22.909 50.3583 22.7818 50.5702 22.6935 50.7348C22.6484 50.8189 22.6142 50.8896 22.5944 50.9475C22.5608 51.0462 22.5187 51.1656 22.4835 51.2865C22.4274 51.4757 22.3898 51.6695 22.3922 51.7842C22.3929 51.8248 22.3965 51.8681 22.401 51.9146C22.413 52.0339 22.4318 52.1728 22.4376 52.3517C22.438 52.3657 22.4384 52.3798 22.4388 52.3941C22.4446 52.6022 22.4178 52.7238 22.3674 52.8566C22.3473 52.91 22.27 52.9586 22.1912 53.0125C22.0795 53.0881 21.9647 53.1775 22.0104 53.2821C22.021 53.3064 22.0423 53.331 22.0648 53.3565C22.1062 53.4033 22.1518 53.4513 22.1436 53.5086C22.1408 53.5287 22.1227 53.5491 22.1052 53.5694C22.0859 53.5916 22.0672 53.6138 22.0698 53.6347C22.0795 53.7124 22.101 53.7862 22.1216 53.8508C22.1481 53.934 22.173 54.0029 22.1683 54.0517C22.1598 54.1388 22.2163 54.2159 22.2752 54.289C22.3204 54.3453 22.3672 54.3998 22.3891 54.4622C22.4512 54.6412 22.6214 54.8537 22.8426 55.0187C22.926 55.0809 22.9329 55.1748 22.9495 55.299C22.9599 55.3761 22.9741 55.4647 23.0139 55.5602C23.0366 55.6143 23.1007 55.6209 23.159 55.6251C23.2128 55.6292 23.262 55.6315 23.2743 55.6713C23.2852 55.7065 23.2489 55.7725 23.2154 55.836C23.178 55.9065 23.1442 55.974 23.1808 55.9893C23.2003 55.9974 23.2425 55.9872 23.2921 55.9742C23.3117 55.969 23.3325 55.9635 23.3536 55.9584C23.3433 55.9689 23.3344 55.9786 23.3277 55.986C23.2807 56.0382 23.2839 56.0909 23.2885 56.1427C23.2903 56.1635 23.2924 56.184 23.2912 56.2045C23.2869 56.2797 23.3487 56.343 23.4033 56.3814C23.4263 56.3978 23.4334 56.4305 23.4424 56.4689C23.4503 56.503 23.4598 56.5415 23.483 56.5762C23.4962 56.5959 23.4986 56.6224 23.5006 56.6445C23.5021 56.6605 23.5035 56.6742 23.5087 56.6811C23.5132 56.6871 23.5293 56.6737 23.5473 56.6585C23.5603 56.6475 23.5743 56.6357 23.5858 56.6295C23.6132 56.6147 23.6331 56.6179 23.6391 56.6324C23.6418 56.6392 23.6415 56.6483 23.6412 56.6574C23.6408 56.668 23.6404 56.6787 23.645 56.6855C23.6663 56.7168 23.7075 56.7156 23.7498 56.7136C23.7964 56.7114 23.8438 56.7081 23.8719 56.7478C23.8807 56.7603 23.8863 56.7804 23.8919 56.7999C23.8978 56.8203 23.9038 56.8401 23.9129 56.8496C23.9505 56.8881 24.0168 56.8663 24.0764 56.8448C24.1161 56.8306 24.1531 56.8167 24.1784 56.8217C24.2251 56.8309 24.2726 56.7864 24.3072 56.7534C24.3252 56.7363 24.3398 56.7221 24.3492 56.7201C24.3549 56.7246 24.3606 56.7294 24.3661 56.7342C24.3702 56.7409 24.3744 56.7478 24.3807 56.749C24.3812 56.7491 24.3818 56.7491 24.3822 56.7492C24.4123 56.7785 24.4403 56.813 24.4683 56.8469C24.5311 56.9229 24.5993 56.9977 24.6956 57.0031C24.7163 57.0042 24.7436 56.987 24.7709 56.9692C24.8044 56.9475 24.8381 56.9248 24.8622 56.9345C24.9191 56.9575 24.9678 57.0139 25.0186 57.0687C25.094 57.151 25.1755 57.2299 25.2726 57.182C25.3044 57.1662 25.3378 57.1358 25.3707 57.1048C25.389 57.0875 25.4073 57.0699 25.4251 57.0548C25.4167 57.0869 25.41 57.1171 25.4037 57.1454C25.3908 57.2036 25.3797 57.2534 25.3574 57.2936C25.3049 57.3885 25.237 57.5192 25.2229 57.621C25.2191 57.6487 25.2124 57.679 25.2056 57.7095C25.1884 57.7861 25.1703 57.8643 25.2017 57.9067C25.2225 57.9353 25.2803 58.0019 25.3318 57.9489C25.343 57.9374 25.3524 57.9126 25.3627 57.8851C25.3677 57.8719 25.3729 57.858 25.3786 57.8446C25.3943 57.8078 25.4139 57.7745 25.4435 57.768C25.4503 57.7665 25.4577 57.7653 25.4652 57.7642C25.4953 57.7601 25.5288 57.7551 25.5456 57.7152C25.5649 57.6692 25.5679 57.6143 25.5719 57.5504C25.5768 57.4671 25.584 57.3684 25.6241 57.2529C25.632 57.2301 25.6429 57.2231 25.6512 57.2178C25.657 57.2141 25.6614 57.2111 25.6626 57.2041C25.6639 57.196 25.6639 57.179 25.6639 57.1574C25.664 57.0813 25.6658 56.9488 25.7184 56.9483C25.7327 56.9481 25.7485 56.9559 25.7626 56.9628C25.7835 56.9729 25.801 56.9812 25.805 56.9598C25.8065 56.9516 25.8078 56.9428 25.809 56.9337C25.8258 56.9375 25.8427 56.9412 25.8595 56.9449C25.8798 56.972 25.9106 56.9715 25.9494 56.9701C25.9588 56.9698 25.9686 56.9695 25.9789 56.9694C26.0126 56.9758 26.0463 56.9818 26.0801 56.9874C26.1069 56.9986 26.1352 57.0163 26.1664 57.0442C26.2285 57.0999 26.2861 57.1913 26.3459 57.2796C26.3711 57.3168 26.3969 57.3535 26.4232 57.3866C26.4142 57.3915 26.4062 57.3972 26.4001 57.4045C26.3587 57.455 26.3455 57.5496 26.3324 57.6368C26.3237 57.6948 26.3151 57.7495 26.298 57.7851C26.2666 57.8505 26.272 57.9252 26.2765 57.9805C26.2788 58.0092 26.2807 58.0327 26.2764 58.0468C26.2729 58.0582 26.2642 58.0637 26.2552 58.0694C26.2474 58.0744 26.2393 58.0796 26.2342 58.0888C26.1721 58.1998 26.1912 58.2631 26.223 58.3552C26.2403 58.406 26.2612 58.4655 26.2727 58.5466C26.283 58.6325 26.2814 58.6578 26.2446 58.6931C26.2749 58.7349 26.3059 58.7766 26.3374 58.8179C26.349 58.8147 26.3568 58.7878 26.3672 58.743C26.3858 58.6632 26.4545 58.6309 26.5079 58.6044C26.5326 58.5922 26.5539 58.5814 26.5653 58.5683C26.6258 58.4986 26.5978 58.4109 26.5751 58.3337C26.5625 58.2912 26.5511 58.2518 26.5548 58.2204C26.5564 58.207 26.5515 58.1943 26.5465 58.1813C26.5427 58.1712 26.5389 58.161 26.5379 58.1502C26.5307 58.0719 26.5614 58.0109 26.5884 57.9539C26.6038 57.9213 26.6182 57.8899 26.6244 57.8577C26.6263 57.8479 26.6276 57.838 26.6288 57.8284C26.6304 57.8143 26.6321 57.8009 26.6356 57.7891C26.6437 57.7624 26.6641 57.7427 26.686 57.7211C26.6972 57.71 26.7088 57.6983 26.7195 57.685C26.7332 57.6677 26.7347 57.6361 26.7363 57.6031C26.7374 57.5799 26.7385 57.5559 26.7438 57.5355C26.7532 57.4987 26.7798 57.482 26.8043 57.4663C26.815 57.4595 26.8252 57.4527 26.8335 57.4447C26.8369 57.4415 26.8378 57.4359 26.837 57.4286C26.8761 57.3974 26.9122 57.3655 26.9465 57.3339C27.1198 57.1742 27.2457 57.034 27.5046 57.0291C27.5539 57.0278 27.6007 57.008 27.6444 56.9789C27.8081 56.9499 27.9722 56.912 28.1358 56.8648C28.1975 56.9128 28.2619 56.9462 28.3279 56.9632C28.4523 56.995 28.5477 56.9612 28.6578 56.9175C28.7395 56.885 28.8293 56.8471 28.9503 56.8203C29.1534 56.7752 29.3559 56.7021 29.549 56.5717C29.7418 56.4425 29.9413 56.2644 30.0672 56.1241C30.1359 56.0484 30.2517 56.0016 30.3597 55.9527C30.5114 55.8844 30.6478 55.8105 30.5988 55.6853C30.5831 55.6454 30.5449 55.5932 30.5072 55.5432C30.4804 55.5076 30.454 55.4731 30.4361 55.4443C30.4653 55.4131 30.4943 55.3813 30.523 55.3491C30.622 55.3193 30.747 55.2482 30.7245 55.1097C30.7525 55.0744 30.7799 55.0387 30.8066 55.0038C30.8639 54.9272 30.9188 54.8507 30.9722 54.7714C30.9898 54.7456 31.0072 54.7192 31.0245 54.6925C31.0247 54.6922 31.0249 54.692 31.0251 54.6917C31.0599 54.6381 31.094 54.5835 31.127 54.5287C31.1411 54.5053 31.1551 54.4816 31.1689 54.4578C31.204 54.3975 31.238 54.3361 31.2709 54.2744C31.2884 54.2419 31.3057 54.2083 31.3226 54.1752C31.3501 54.1211 31.3769 54.0658 31.403 54.01C31.4453 53.9192 31.485 53.8292 31.523 53.7356C31.5293 53.7203 31.5434 53.7069 31.563 53.6982C31.5826 53.6896 31.6061 53.6865 31.6293 53.6898C31.6525 53.6932 31.6741 53.7031 31.6903 53.7173C31.7064 53.7315 31.7155 53.7491 31.7166 53.766C31.7229 53.8702 31.7266 53.9729 31.7267 54.0788C31.7269 54.1439 31.726 54.2093 31.7239 54.2742C31.7226 54.314 31.7206 54.3546 31.7184 54.3945C31.7142 54.4699 31.7083 54.5464 31.7006 54.6226C31.6976 54.6527 31.6943 54.6829 31.6909 54.7129C31.6827 54.7834 31.6729 54.8546 31.6617 54.9257C31.6616 54.9261 31.6615 54.9266 31.6615 54.927C31.6559 54.962 31.6501 54.997 31.644 55.0316C31.625 55.138 31.6032 55.2436 31.5771 55.3511C31.564 55.4069 31.549 55.4642 31.5331 55.5217C31.5243 55.5536 31.5153 55.5855 31.5062 55.6167C31.5012 55.6338 31.4959 55.651 31.4905 55.6683C31.3693 56.0664 31.2029 56.4552 30.9898 56.829C30.7777 57.2016 30.5206 57.5566 30.2249 57.8829C29.9285 58.21 29.593 58.5085 29.2242 58.7708C28.0766 59.5938 26.5826 60.0465 25.0696 59.967C23.5093 59.8981 21.9158 59.251 20.7056 58.1368C20.3646 57.8257 20.0453 57.47 19.769 57.094C19.4899 56.7138 19.2509 56.3133 19.0485 55.8813C18.9871 55.7503 18.928 55.6135 18.872 55.4714Z" fill="black"/>
<path d="M6.20333 22.6205C6.75917 21.4622 8.17479 20.8559 8.81905 19.7435C9.61903 18.3625 9.66612 16.5174 10.6082 15.2141C11.5457 13.9188 12.549 12.6527 13.5974 11.4185C14.6467 10.1827 15.7422 8.97636 16.8716 7.78589C17.9993 6.59836 19.1609 5.42641 20.3393 4.26673C21.1397 3.47904 21.9491 2.69515 22.7612 1.91431C23.1175 1.57142 23.4736 1.23006 23.8308 0.88794C24.0974 0.632828 24.3641 0.377723 24.6307 0.122611C24.668 0.087247 24.7428 0.0759441 24.8414 0.0927401C24.9402 0.109622 25.0543 0.152806 25.162 0.215039C25.2697 0.27733 25.3643 0.354755 25.428 0.431821C25.4914 0.508742 25.5183 0.578836 25.5058 0.628491C25.4139 0.98793 25.3219 1.34738 25.23 1.70682C25.1278 2.106 25.0261 2.50466 24.9233 2.90339C24.45 2.70224 24.0718 2.58289 23.8434 2.63649C23.7269 2.66388 23.6357 2.74926 23.6739 2.87291C23.7082 2.98398 23.81 3.11152 23.9071 3.2329C24.0088 3.35984 24.1052 3.48035 24.1131 3.5683C24.1265 3.71759 24.2559 3.92685 24.392 4.14665C24.4415 4.22665 24.4919 4.30814 24.5379 4.3886C24.4385 4.76844 24.3383 5.14791 24.2374 5.52687C24.1172 5.62635 24.0119 5.72083 23.973 5.8301C23.9381 5.92812 23.9846 6.0632 24.0541 6.21106C24.0384 6.26965 24.0226 6.32823 24.0068 6.38682C23.9047 6.76469 23.8011 7.14188 23.6967 7.51863C23.4311 7.70629 23.1618 7.90819 22.9102 8.22767C22.8018 8.36536 22.6525 8.47673 22.509 8.58385C22.2971 8.74208 22.0979 8.89096 22.0612 9.1012C22.0367 9.24173 21.9038 9.32769 21.7712 9.41344C21.5934 9.52845 21.4159 9.64322 21.5007 9.88917C21.5541 10.0438 21.6349 10.2042 21.71 10.3529C21.8294 10.5894 21.9339 10.7962 21.888 10.9023C21.8019 11.1017 21.8483 11.3443 21.8893 11.5581C21.9387 11.8153 21.9801 12.031 21.7731 12.0799C21.7417 12.0873 21.702 12.0936 21.657 12.1006C21.42 12.1371 21.0409 12.1955 21.0109 12.5763C21.0003 12.7119 21.0744 12.8878 21.1473 13.0603C21.2533 13.3113 21.3563 13.5551 21.1895 13.6562C21.1645 13.6713 21.1002 13.6649 21.0415 13.659C20.9668 13.6516 20.9016 13.6451 20.9386 13.6849C21.0471 13.8016 21.1557 13.9502 21.274 14.1118C21.3609 14.2304 21.453 14.3563 21.5537 14.4814C21.4056 14.9073 21.2543 15.3315 21.0992 15.7536C21.0282 15.947 20.9564 16.1401 20.8838 16.3327C20.6332 16.308 20.4012 16.2967 20.2097 16.3157C19.9595 16.3406 19.8102 16.474 19.6175 16.6458C19.4757 16.7721 19.3102 16.9193 19.0641 17.0596C18.6086 17.3195 18.4274 17.7519 18.4012 18.081C18.3957 18.1506 18.3918 18.2215 18.388 18.2976C18.3739 18.5863 18.3569 18.9468 18.2103 19.5657C18.0716 20.1512 17.8653 20.598 17.7103 20.9337C17.6312 21.1051 17.565 21.2473 17.5285 21.3644C17.4659 21.5647 17.3757 21.803 17.2849 22.0422C17.1428 22.4164 16.9996 22.7928 16.9612 23.0305C16.9476 23.1151 16.9382 23.2068 16.9276 23.3056C16.8985 23.5793 16.8632 23.9098 16.7211 24.3115C16.572 24.7332 16.3875 24.9414 16.1411 25.1261C16.0409 25.2011 15.8217 25.1918 15.5953 25.1819C15.2741 25.1678 14.9389 25.153 14.911 25.3788C14.9046 25.4315 14.9186 25.4999 14.9335 25.5715C14.9608 25.703 14.9905 25.8453 14.8982 25.9202C14.866 25.9463 14.8032 25.9495 14.7416 25.9525C14.6739 25.9559 14.6077 25.9593 14.5845 25.9931C14.4982 26.1194 14.4354 26.2546 14.3797 26.3747C14.3078 26.5297 14.2474 26.6596 14.1632 26.7131C14.0129 26.8086 13.9905 26.9949 13.9682 27.1837C13.9511 27.328 13.9342 27.4739 13.8595 27.5815C13.6462 27.889 13.5114 28.4035 13.4499 28.9783C13.4265 29.1958 13.2371 29.282 12.9941 29.3924C12.8429 29.4611 12.6707 29.5389 12.5054 29.6637C12.4117 29.7345 12.4592 29.8677 12.5029 29.9909C12.5432 30.1044 12.5804 30.2095 12.5018 30.2499C12.4324 30.2856 12.2548 30.231 12.0861 30.1791C11.8984 30.1214 11.7219 30.0671 11.7178 30.1444C11.7157 30.1856 11.7718 30.2695 11.8384 30.3693C11.8648 30.4088 11.8926 30.4507 11.9194 30.4936C11.8881 30.4741 11.8599 30.4575 11.8383 30.445C11.6862 30.3571 11.5709 30.3718 11.4578 30.3863C11.4127 30.3921 11.368 30.3981 11.3214 30.3972C11.1499 30.3941 11.0501 30.5181 10.9961 30.6256C10.9732 30.6711 10.903 30.6838 10.821 30.6985C10.7483 30.7117 10.6662 30.7264 10.5998 30.7673C10.562 30.7906 10.5028 30.7912 10.4536 30.7915C10.418 30.7916 10.3875 30.7918 10.3744 30.8006C10.3632 30.8083 10.4018 30.842 10.4453 30.8801C10.4767 30.9074 10.5106 30.9371 10.5303 30.9608C10.5772 31.0175 10.5788 31.0564 10.548 31.0653C10.5338 31.0694 10.5126 31.067 10.4916 31.0644C10.467 31.0615 10.4423 31.0585 10.4287 31.066C10.3663 31.1008 10.3862 31.1812 10.4069 31.2647C10.4297 31.3564 10.4531 31.452 10.3696 31.4951C10.3433 31.5086 10.2982 31.5132 10.2545 31.5176C10.2088 31.5222 10.1646 31.5269 10.1452 31.5413C10.0665 31.5999 10.1329 31.736 10.194 31.8613C10.2347 31.9446 10.2728 32.0231 10.2645 32.0707C10.2491 32.1579 10.3574 32.2719 10.4374 32.3561C10.4788 32.3998 10.5129 32.4355 10.518 32.4553C10.5077 32.4648 10.4965 32.4741 10.4852 32.4829C10.4695 32.4879 10.4533 32.4931 10.4505 32.5051C10.4503 32.5061 10.4504 32.5071 10.4502 32.5081C10.3814 32.5542 10.2999 32.5916 10.2188 32.6286C10.0367 32.7118 9.85655 32.7938 9.82751 32.9738C9.82126 33.0125 9.85649 33.0761 9.89226 33.1406C9.93609 33.2198 9.98091 33.3007 9.95169 33.3399C9.88203 33.4334 9.73465 33.4832 9.58946 33.5323C9.37109 33.6061 9.15777 33.6783 9.22131 33.8946C9.24229 33.9659 9.29492 34.0542 9.34811 34.1429C9.37775 34.1923 9.40769 34.2421 9.43196 34.2888C9.36354 34.2424 9.29808 34.2009 9.23704 34.1622C9.11122 34.0825 9.00355 34.0142 8.92346 33.9365C8.73419 33.7528 8.4658 33.5136 8.2394 33.3922C8.17795 33.3593 8.11163 33.3189 8.04493 33.2781C7.87759 33.1759 7.70669 33.0715 7.59836 33.078C7.52536 33.0824 7.35224 33.1021 7.44914 33.2341C7.47026 33.2629 7.52197 33.3028 7.57942 33.3472C7.68265 33.427 7.80485 33.5216 7.80449 33.5935C7.80443 33.6056 7.8034 33.6182 7.80186 33.6309C7.79572 33.6818 7.78856 33.7386 7.8687 33.8076C7.96103 33.8871 8.08221 33.9515 8.2235 34.0265C8.40751 34.1243 8.62609 34.2404 8.85978 34.4318C8.90597 34.4697 8.91421 34.4958 8.92049 34.5155C8.92492 34.5294 8.92864 34.5403 8.94362 34.5498C8.96084 34.5607 8.99911 34.5792 9.04754 34.6025C9.21843 34.6849 9.51693 34.8289 9.4779 34.9245C9.46732 34.9504 9.43786 34.97 9.41135 34.9874C9.37228 35.0132 9.33993 35.0346 9.38444 35.0657C9.40134 35.0775 9.41997 35.0897 9.43942 35.1021C9.41713 35.1277 9.39485 35.1533 9.37256 35.1789C9.29536 35.1837 9.27016 35.2384 9.23893 35.3068C9.23135 35.3234 9.22316 35.3408 9.21401 35.3585C9.16959 35.4087 9.12522 35.459 9.08058 35.5092C9.03084 35.5406 8.96454 35.5664 8.87404 35.5818C8.69271 35.6125 8.43933 35.5841 8.19161 35.5562C8.08723 35.5445 7.98365 35.5327 7.88701 35.5257C7.88594 35.5061 7.8824 35.4869 7.87302 35.4683C7.80877 35.3409 7.62113 35.1963 7.44838 35.0632C7.33348 34.9747 7.22515 34.8913 7.16441 34.8215C7.05311 34.6938 6.88807 34.6049 6.76605 34.5391C6.70276 34.505 6.65097 34.4769 6.62435 34.4531C6.60303 34.434 6.59844 34.4156 6.59364 34.3966C6.58947 34.3801 6.58502 34.3629 6.56951 34.3446C6.38106 34.1224 6.22839 34.0683 6.00621 33.9897C5.88367 33.9463 5.73993 33.8952 5.55733 33.8045C5.36527 33.7062 5.31251 33.6715 5.26393 33.584C5.15171 33.5655 5.03949 33.5471 4.92727 33.5286C4.92539 33.5457 4.97704 33.5893 5.06439 33.6591C5.22039 33.7837 5.23411 33.9043 5.24483 33.9985C5.24979 34.0421 5.25421 34.0801 5.27175 34.1103C5.36506 34.2706 5.57263 34.3595 5.75528 34.4377C5.85582 34.4807 5.94884 34.5206 6.01109 34.5673C6.03773 34.5873 6.06898 34.5988 6.10082 34.6105C6.12543 34.6196 6.15047 34.6288 6.17399 34.6422C6.34472 34.7394 6.44373 34.8595 6.53568 34.971C6.58834 35.0349 6.63894 35.0961 6.69918 35.1485C6.71753 35.1644 6.73678 35.1798 6.75552 35.1947C6.7829 35.2163 6.80893 35.237 6.82949 35.2578C6.87632 35.3052 6.89569 35.3583 6.91669 35.4163C6.92746 35.4461 6.93869 35.4771 6.95438 35.5094C6.97472 35.5513 7.03731 35.5983 7.10264 35.6475C7.14881 35.6822 7.1963 35.7181 7.23171 35.7541C7.29571 35.8193 7.29855 35.8779 7.30118 35.9323C7.30233 35.956 7.30373 35.9791 7.30984 36.0014C7.31233 36.0105 7.32231 36.0199 7.33783 36.0297C7.35349 36.1256 7.37199 36.2191 7.39033 36.3104C7.48227 36.768 7.56223 37.1644 7.16794 37.4596C7.09339 37.5155 7.05375 37.5987 7.03271 37.6939C6.81737 37.9127 6.59978 38.1305 6.38056 38.347C6.19786 38.3094 6.03314 38.2974 5.88954 38.3128C5.61989 38.3418 5.49709 38.4609 5.35217 38.6014C5.24502 38.7053 5.12564 38.8208 4.92595 38.9204C4.59043 39.0879 4.27832 39.2785 4.0184 39.5468C3.75961 39.8139 3.4953 40.1383 3.32868 40.3795C3.23784 40.511 3.01705 40.5767 2.81145 40.6381C2.52225 40.7244 2.26293 40.802 2.43617 41.0407C2.49154 41.117 2.60244 41.2239 2.71015 41.3278C2.78686 41.4017 2.86165 41.4742 2.91438 41.5333C2.86108 41.5789 2.80796 41.6247 2.75443 41.6702C2.54014 41.6823 2.28206 41.7444 2.36712 41.9975C2.31155 42.0442 2.25607 42.0911 2.20147 42.1357C2.08427 42.2343 1.96804 42.3298 1.85085 42.4262C1.8124 42.4575 1.77369 42.4893 1.73485 42.5211C1.73445 42.5214 1.73405 42.5217 1.73366 42.5219C1.65547 42.5859 1.57671 42.6505 1.49855 42.7135C1.46512 42.7405 1.4317 42.7675 1.39827 42.7946C1.31337 42.8633 1.22799 42.9325 1.14313 43.0001C1.09813 43.0358 1.05302 43.072 1.00758 43.1081C0.933858 43.1668 0.859643 43.2259 0.785458 43.2845C0.665501 43.3793 0.545319 43.4732 0.424618 43.5671C0.404787 43.5824 0.367782 43.5867 0.320378 43.5783C0.272909 43.5697 0.219047 43.5493 0.168302 43.52C0.11754 43.4906 0.0728208 43.4541 0.0418801 43.4172C0.0110777 43.3805 -0.00305475 43.3467 0.00049286 43.322C0.0228708 43.1712 0.0456894 43.0209 0.0692117 42.8703C0.0837383 42.7772 0.0982095 42.6837 0.112988 42.591C0.122101 42.5338 0.131435 42.477 0.140378 42.4205C0.157431 42.3138 0.175475 42.2054 0.193528 42.0981C0.200572 42.0559 0.207615 42.0136 0.214659 41.9713C0.231123 41.8724 0.248692 41.7723 0.266002 41.6728C0.266112 41.6722 0.266222 41.6716 0.266333 41.671C0.274848 41.6221 0.283301 41.5732 0.291629 41.5249C0.317941 41.3759 0.344037 41.2283 0.372191 41.0783C0.385728 41.0002 0.40136 40.9197 0.416456 40.8395C0.42486 40.7949 0.433157 40.7503 0.441211 40.7065C0.4458 40.6826 0.450609 40.6585 0.455442 40.6343C0.561663 40.0757 0.672147 39.5239 0.791467 38.9715C0.909781 38.4208 1.03474 37.8729 1.16462 37.3296C1.29513 36.7852 1.43112 36.2451 1.57269 35.7077C2.47063 32.2968 3.52004 28.9576 4.81672 25.7594C5.00128 25.303 5.19805 24.839 5.39446 24.3883C5.59352 23.933 5.7929 23.4896 6.00416 23.0399C6.068 22.9031 6.13444 22.7634 6.20333 22.6205Z" fill="black"/>
<path d="M40.5014 15.7384C41.2266 16.7989 41.0439 18.3281 41.6851 19.4422C42.4811 20.8255 44.0555 21.7888 44.7131 23.2563C45.3661 24.7158 45.9609 26.2178 46.5056 27.7429C47.0512 29.2695 47.5481 30.8214 48.0144 32.3948C48.479 33.9651 48.9132 35.557 49.3283 37.1574C49.6102 38.2445 49.8844 39.3374 50.1546 40.4311C50.2734 40.9111 50.3909 41.3902 50.5087 41.8705C50.5963 42.229 50.6839 42.5875 50.7715 42.9459C50.7835 42.9959 50.7559 43.0663 50.692 43.1434C50.628 43.2205 50.5335 43.2977 50.4258 43.3598C50.318 43.422 50.2036 43.4652 50.1051 43.4818C50.0067 43.4983 49.9326 43.4865 49.8958 43.4508C49.6305 43.1915 49.3652 42.9322 49.0998 42.6729C48.8053 42.3847 48.5108 42.0973 48.2169 41.809C48.6278 41.4996 48.9203 41.2318 48.988 41.0072C49.0226 40.8926 48.9942 40.771 48.8681 40.7422C48.7547 40.7163 48.5934 40.7407 48.4397 40.7642C48.2789 40.7887 48.1263 40.812 48.0462 40.7748C47.9102 40.7118 47.6643 40.7193 47.4059 40.7272C47.3119 40.73 47.2161 40.733 47.1234 40.7326C46.8442 40.4565 46.5656 40.1801 46.2879 39.9032C46.2619 39.7493 46.2327 39.6109 46.1575 39.5226C46.0901 39.4434 45.9498 39.4161 45.787 39.4024C45.7442 39.3594 45.7013 39.3165 45.6584 39.2735C45.3823 38.9961 45.1074 38.7178 44.8333 38.4391C44.8036 38.1152 44.7634 37.781 44.6125 37.4035C44.5475 37.2407 44.5257 37.0557 44.5047 36.8779C44.4736 36.6153 44.4443 36.3683 44.2805 36.2314C44.1711 36.1399 44.1631 35.9818 44.1552 35.8241C44.1445 35.6126 44.1338 35.4015 43.8784 35.352C43.7178 35.3209 43.5384 35.3107 43.3721 35.3014C43.1076 35.2865 42.8763 35.2736 42.8073 35.1809C42.6777 35.0065 42.4444 34.9255 42.2387 34.8541C41.9913 34.7683 41.7838 34.6963 41.845 34.4925C41.8542 34.4616 41.8686 34.4241 41.8851 34.3817C41.972 34.1581 42.1109 33.8006 41.7961 33.5843C41.6841 33.5072 41.4946 33.4835 41.3088 33.4604C41.0384 33.4267 40.7758 33.394 40.7717 33.199C40.7711 33.1698 40.8087 33.1173 40.8432 33.0694C40.887 33.0084 40.9252 32.9552 40.8722 32.9674C40.7169 33.0029 40.5339 33.0227 40.3349 33.0444C40.1887 33.0603 40.0336 33.0771 39.8749 33.1018C39.5801 32.7605 39.2884 32.4175 39.0004 32.0721C38.8684 31.9139 38.7371 31.7552 38.6066 31.596C38.7533 31.3913 38.879 31.196 38.9583 31.0207C39.0619 30.7915 39.021 30.5956 38.9686 30.3428C38.9301 30.1568 38.8854 29.9399 38.8869 29.6566C38.8896 29.1322 38.6057 28.7591 38.3338 28.5719C38.2763 28.5323 38.2169 28.4934 38.1528 28.4522C37.9099 28.2956 37.6062 28.1005 37.1435 27.6641C36.7058 27.2513 36.422 26.8492 36.2087 26.5471C36.0999 26.393 36.0098 26.2646 35.9267 26.1744C35.7844 26.02 35.6232 25.8227 35.4615 25.6245C35.2085 25.3144 34.9541 25.0022 34.7674 24.85C34.701 24.7959 34.6263 24.7419 34.546 24.6834C34.3235 24.5213 34.0549 24.3255 33.7781 24.0016C33.4874 23.6616 33.3994 23.3977 33.3626 23.092C33.3477 22.9677 33.4654 22.7825 33.5872 22.5914C33.76 22.3203 33.9404 22.0373 33.7588 21.9004C33.7164 21.8684 33.6501 21.8464 33.5807 21.8235C33.4532 21.7813 33.3151 21.7359 33.2964 21.6185C33.2898 21.5776 33.3185 21.5216 33.3467 21.4668C33.3776 21.4065 33.4078 21.3474 33.3901 21.3105C33.3238 21.1726 33.2382 21.0506 33.162 20.9422C33.0637 20.8025 32.9814 20.6853 32.9772 20.5855C32.9696 20.4077 32.8195 20.2951 32.6671 20.1813C32.5507 20.0944 32.4328 20.0068 32.377 19.8883C32.2173 19.5498 31.8392 19.1758 31.3721 18.8352C31.1955 18.7063 31.2155 18.4991 31.2414 18.2334C31.2575 18.0682 31.2762 17.8801 31.2508 17.6745C31.2363 17.558 31.0972 17.5325 30.9687 17.5088C30.8502 17.487 30.7406 17.4666 30.7449 17.3783C30.7487 17.3004 30.8848 17.1739 31.0141 17.0538C31.1579 16.9201 31.2932 16.7944 31.2283 16.7522C31.1937 16.7297 31.093 16.7363 30.9732 16.7442C30.9258 16.7472 30.8756 16.7503 30.8251 16.7521C30.8576 16.7348 30.8862 16.7186 30.9077 16.7062C31.0599 16.6184 31.1048 16.5112 31.1488 16.406C31.1663 16.3641 31.1835 16.3224 31.2076 16.2825C31.296 16.1355 31.2385 15.9871 31.1724 15.8865C31.1445 15.8439 31.1686 15.7768 31.1968 15.6984C31.2218 15.6289 31.2501 15.5504 31.2479 15.4725C31.2466 15.428 31.2756 15.3766 31.3 15.3338C31.3177 15.3028 31.3328 15.2764 31.3317 15.2607C31.3307 15.247 31.2821 15.2636 31.2274 15.2823C31.188 15.2958 31.1454 15.3103 31.115 15.3155C31.0425 15.3278 31.008 15.3097 31.0156 15.2786C31.0192 15.2643 31.0319 15.2472 31.0446 15.2302C31.0594 15.2104 31.0744 15.1905 31.0747 15.1749C31.0758 15.1035 30.9962 15.0806 30.9136 15.0567C30.8227 15.0306 30.7282 15.0031 30.7327 14.9092C30.7341 14.8797 30.7527 14.8383 30.7707 14.7983C30.7895 14.7564 30.8076 14.7158 30.8049 14.6918C30.7935 14.5943 30.6424 14.5838 30.5033 14.5741C30.4109 14.5676 30.3238 14.5614 30.2868 14.5304C30.2189 14.4735 30.066 14.5102 29.9531 14.5374C29.8946 14.5514 29.8466 14.5631 29.8269 14.5576C29.8238 14.5439 29.8214 14.5297 29.8194 14.5154C29.8229 14.4993 29.8265 14.4827 29.8175 14.4743C29.8168 14.4736 29.8158 14.4732 29.8151 14.4726C29.8095 14.3899 29.8179 14.3006 29.8264 14.2119C29.8454 14.0126 29.8645 13.8155 29.7231 13.7004C29.6927 13.6756 29.6201 13.6744 29.5462 13.6731C29.4558 13.6714 29.3633 13.6698 29.344 13.6249C29.2979 13.5178 29.3284 13.3653 29.3585 13.215C29.4037 12.989 29.4479 12.7681 29.2288 12.715C29.1565 12.6975 29.0538 12.699 28.9504 12.7007C28.8927 12.7017 28.8347 12.7027 28.782 12.7003C28.8565 12.6643 28.9251 12.6284 28.9892 12.5948C29.1211 12.5257 29.2341 12.4666 29.3415 12.4361C29.5951 12.3641 29.9365 12.2513 30.1548 12.1159C30.2141 12.0791 30.2822 12.0419 30.3508 12.0045C30.523 11.9107 30.6989 11.8149 30.7474 11.7178C30.7801 11.6524 30.8496 11.4926 30.6868 11.5105C30.6514 11.5144 30.5909 11.5392 30.5238 11.5668C30.403 11.6163 30.2601 11.6748 30.198 11.6386C30.1875 11.6325 30.1771 11.6253 30.1668 11.6176C30.1259 11.5868 30.0803 11.5522 29.9804 11.5871C29.8654 11.6273 29.749 11.7001 29.6134 11.7849C29.4368 11.8954 29.2269 12.0267 28.9443 12.1333C28.8884 12.1544 28.8617 12.1485 28.8415 12.144C28.8272 12.1409 28.8159 12.1387 28.8002 12.1469C28.7822 12.1564 28.747 12.1803 28.7026 12.2106C28.5458 12.3174 28.2718 12.5039 28.2085 12.4223C28.1914 12.4002 28.1892 12.3649 28.1873 12.3332C28.1846 12.2865 28.1822 12.2477 28.133 12.2707C28.1144 12.2795 28.0945 12.2895 28.074 12.3002C28.063 12.2681 28.0519 12.236 28.0409 12.2039C28.0754 12.1346 28.0406 12.0854 27.997 12.0242C27.9864 12.0093 27.9754 11.9935 27.9647 11.9768C27.9434 11.9132 27.922 11.8496 27.9009 11.7859C27.8985 11.7271 27.9093 11.6567 27.9413 11.5707C28.0053 11.3983 28.1566 11.1931 28.3046 10.9925C28.367 10.9079 28.4289 10.8241 28.4833 10.7439C28.5009 10.7528 28.5192 10.7593 28.5401 10.7605C28.6825 10.7686 28.9016 10.6784 29.1032 10.5953C29.2373 10.54 29.3637 10.488 29.4545 10.4702C29.6207 10.4377 29.7802 10.3392 29.8982 10.2664C29.9594 10.2287 30.0096 10.1979 30.0436 10.1867C30.0708 10.1778 30.089 10.183 30.1078 10.1884C30.1242 10.193 30.1414 10.1978 30.1649 10.1935C30.4516 10.1414 30.5748 10.0362 30.754 9.88313C30.8528 9.7987 30.9689 9.69973 31.1388 9.58697C31.3199 9.46978 31.3764 9.44144 31.4764 9.44312C31.5485 9.35517 31.6207 9.26722 31.6928 9.17926C31.6789 9.16909 31.6153 9.19203 31.5112 9.23278C31.3252 9.30555 31.214 9.25715 31.127 9.21934C31.0868 9.20183 31.0517 9.18665 31.0168 9.18676C30.8313 9.1874 30.6505 9.32272 30.4915 9.44181C30.4039 9.50736 30.3229 9.56799 30.2513 9.59854C30.2207 9.61162 30.1951 9.63294 30.169 9.65463C30.1488 9.6714 30.1283 9.68848 30.105 9.70216C29.9355 9.80143 29.7819 9.82711 29.6394 9.85097C29.5577 9.86464 29.4795 9.8779 29.404 9.90385C29.3809 9.91176 29.358 9.92074 29.3358 9.92955C29.3033 9.94243 29.2724 9.95461 29.2441 9.96202C29.1796 9.97888 29.124 9.96912 29.0632 9.95829C29.0321 9.95274 28.9996 9.94694 28.9637 9.94438C28.9173 9.94106 28.8453 9.97177 28.7701 10.0038C28.7169 10.0264 28.6621 10.0496 28.6132 10.0622C28.5247 10.085 28.4725 10.0582 28.4241 10.0333C28.403 10.0224 28.3823 10.0121 28.3599 10.0062C28.3508 10.0038 28.3377 10.0078 28.3215 10.0163C28.2306 9.98196 28.1403 9.95119 28.0521 9.92143C27.6098 9.77225 27.2266 9.64333 27.168 9.15422C27.157 9.06175 27.1047 8.98578 27.0328 8.92C26.9509 8.62408 26.8712 8.32676 26.7933 8.02867C26.9172 7.88923 27.0099 7.7526 27.0684 7.62052C27.1781 7.37249 27.1364 7.20661 27.0872 7.01085C27.0508 6.86612 27.0104 6.70497 27.0239 6.4822C27.0467 6.10792 27.0377 5.74234 26.9353 5.38307C26.8333 5.02537 26.6846 4.6343 26.559 4.3694C26.4905 4.22498 26.544 4.00091 26.5937 3.79217C26.6635 3.49856 26.726 3.2352 26.4326 3.26584C26.3389 3.27566 26.1909 3.31827 26.047 3.35961C25.9446 3.38905 25.8445 3.41759 25.7669 3.43369C25.7541 3.36473 25.741 3.29583 25.7283 3.22671C25.825 3.03509 25.9003 2.78057 25.6386 2.72768C25.6259 2.65618 25.613 2.58471 25.6017 2.5151C25.5749 2.36433 25.5503 2.21592 25.5254 2.06622C25.5175 2.01724 25.5094 1.96785 25.5012 1.91831C25.5012 1.91782 25.5011 1.91733 25.5011 1.91685C25.4848 1.81713 25.4683 1.71667 25.4528 1.61747C25.4461 1.57501 25.4394 1.53255 25.4327 1.49009C25.4156 1.38221 25.3983 1.27363 25.3823 1.16637C25.3739 1.10955 25.3651 1.05237 25.3565 0.994946C25.3426 0.901787 25.3285 0.807959 25.3148 0.714409C25.2927 0.563128 25.2715 0.412101 25.2505 0.26062C25.2472 0.235793 25.2619 0.201573 25.2929 0.164757C25.3241 0.127907 25.3687 0.0914834 25.4195 0.0622001C25.4703 0.032911 25.5243 0.0124642 25.5716 0.00407661C25.6188 -0.00423745 25.6552 0.000444885 25.6748 0.0158607C25.7942 0.110634 25.913 0.205552 26.0316 0.301214C26.105 0.36033 26.1788 0.419646 26.2516 0.478785C26.2966 0.515249 26.3411 0.551744 26.3856 0.58776C26.4695 0.655877 26.5543 0.72568 26.6382 0.794969C26.6713 0.822198 26.7044 0.849427 26.7374 0.876655C26.8149 0.940383 26.8928 1.00566 26.9703 1.07038C26.9707 1.07077 26.9712 1.07117 26.9717 1.07156C27.0098 1.1034 27.0479 1.13515 27.0856 1.16655C27.2015 1.26382 27.3163 1.36024 27.4321 1.45962C27.493 1.51039 27.5549 1.56418 27.6167 1.61733C27.6512 1.64692 27.6856 1.6764 27.7196 1.70529C27.7379 1.72119 27.7564 1.7374 27.7749 1.7537C28.2056 2.125 28.6283 2.49659 29.047 2.87613C29.4647 3.25393 29.8768 3.63611 30.2823 4.02021C30.6885 4.40543 31.0883 4.79326 31.4829 5.18457C33.9879 7.66767 36.355 10.2461 38.4763 12.9681C38.7793 13.3561 39.0828 13.7586 39.3749 14.154C39.6697 14.5541 39.954 14.9484 40.2378 15.3562C40.3244 15.4799 40.4121 15.6073 40.5014 15.7384Z" fill="black"/>
<circle cx="26.1088" cy="36.2145" r="3.3234" transform="rotate(8.2828 26.1088 36.2145)" fill="black"/>
<path d="M20.1589 38.3446C19.7522 37.3718 20.2123 36.3262 20.3381 35.436C20.3408 35.4159 20.3435 35.3957 20.3461 35.3755C20.475 34.2837 20.5588 32.875 21.4907 31.9994C22.4046 31.1414 23.5916 30.6261 24.774 30.5306C25.5121 30.4682 26.2447 30.5673 26.8975 30.7965C27.2909 30.934 27.6633 31.1186 28.0002 31.3419C28.8989 31.9346 29.5237 32.7986 29.8076 33.6869C30.0033 34.2907 30.0485 34.9074 29.9653 35.4679C29.9291 35.714 29.8689 35.9491 29.7884 36.1695C29.7282 36.3336 29.6569 36.4905 29.5765 36.6368C29.5652 36.6572 29.5273 36.6732 29.4694 36.6802C29.4115 36.6872 29.3389 36.6847 29.265 36.6739C29.1911 36.6631 29.1207 36.6449 29.0668 36.6242C29.0131 36.6034 28.9807 36.5818 28.9745 36.563C28.9306 36.4271 28.8772 36.2974 28.8156 36.177C28.7473 36.043 28.6689 35.9194 28.5834 35.8072C28.8824 35.7384 29.1061 35.6663 29.194 35.5832C29.2389 35.5412 29.2493 35.488 29.1857 35.4674C29.1285 35.4489 29.0344 35.4495 28.9451 35.4519C28.8516 35.4544 28.7634 35.4591 28.7272 35.4441C28.6656 35.4184 28.5296 35.4203 28.3885 35.4301C28.3371 35.4336 28.2849 35.438 28.2352 35.4421C28.1398 35.3623 28.0407 35.2934 27.9399 35.2351C27.9507 35.1861 27.9552 35.1411 27.9287 35.1214C27.9048 35.1037 27.8365 35.1166 27.7565 35.1413C27.7407 35.1342 27.7249 35.1274 27.709 35.1209C27.607 35.0785 27.5052 35.0463 27.405 35.0241C27.421 34.9208 27.4239 34.8107 27.3708 34.7198C27.3481 34.6808 27.3424 34.62 27.3335 34.5605C27.3209 34.4731 27.3001 34.3882 27.2309 34.3973C27.1851 34.4036 27.1758 34.3479 27.1624 34.2914C27.1456 34.2161 27.1198 34.1385 27.0275 34.2258C26.9697 34.2808 26.9102 34.3533 26.8576 34.4219C26.7739 34.5312 26.7082 34.6307 26.6828 34.6301C26.6347 34.6288 26.5677 34.7095 26.5155 34.7837C26.4514 34.8725 26.4078 34.9509 26.4024 34.8547C26.4015 34.8401 26.4009 34.8209 26.4 34.7989C26.397 34.718 26.3873 34.6021 26.3481 34.5705C26.3318 34.5571 26.3108 34.5591 26.2863 34.586C26.257 34.6181 26.2253 34.7071 26.1993 34.7951C26.1605 34.9233 26.1349 35.0492 26.1097 34.9927C26.1059 34.9843 26.1018 34.9489 26.0977 34.9167C26.0925 34.8757 26.0872 34.8399 26.085 34.8711C26.0784 34.9626 26.0692 35.0638 26.0632 35.1741C26.0587 35.2551 26.056 35.341 26.0561 35.4311C26.0165 35.4845 25.9861 35.5387 25.963 35.5914C25.9525 35.6156 25.9434 35.6395 25.9358 35.663C25.887 35.5341 25.8369 35.4201 25.7925 35.3365C25.7343 35.2273 25.6957 35.2018 25.644 35.1717C25.6055 35.1498 25.5599 35.1251 25.4835 35.0692C25.3397 34.9664 25.2786 35.0511 25.2921 35.1487C25.2945 35.1695 25.298 35.1912 25.3025 35.2144C25.3203 35.3022 25.3457 35.4104 25.3736 35.5413C25.4014 35.6642 25.3963 35.7196 25.3921 35.7636C25.3903 35.7857 25.3895 35.8037 25.3979 35.822C25.4121 35.8532 25.4234 35.8855 25.4368 35.9161C25.4576 35.9641 25.4837 36.0081 25.5282 36.0389C25.544 36.0499 25.5642 36.062 25.586 36.0741C25.642 36.1056 25.711 36.1369 25.7554 36.163C25.7588 36.1651 25.7621 36.1671 25.7652 36.169C25.8111 36.1968 25.7777 36.2006 25.7048 36.2148C25.6752 36.2201 25.5585 36.2265 25.4382 36.2391C25.2675 36.2557 25.0903 36.2885 25.1458 36.3095C25.1587 36.3142 25.1871 36.3174 25.2167 36.32C25.2713 36.3251 25.3303 36.327 25.3067 36.3416C25.2986 36.3467 25.2678 36.3552 25.2378 36.3641C25.2048 36.3738 25.1727 36.3838 25.1717 36.3889C25.1682 36.4078 25.1797 36.4235 25.1902 36.4367C25.2038 36.4539 25.2155 36.4672 25.1919 36.4852C25.1499 36.5175 25.1992 36.5256 25.2483 36.5284C25.2859 36.5309 25.3235 36.5309 25.323 36.5462C25.3212 36.5905 25.4258 36.6087 25.5676 36.5678C25.6209 36.5522 25.5674 36.6024 25.5065 36.6761C25.4684 36.7217 25.4272 36.7763 25.4055 36.8252C25.3933 36.8531 25.4492 36.8186 25.4989 36.7844C25.545 36.7531 25.586 36.7224 25.5705 36.7475C25.5567 36.7698 25.483 36.8497 25.4144 36.927C25.3379 37.0128 25.2678 37.0953 25.29 37.0872C25.3017 37.0829 25.3438 37.0478 25.3925 37.0049C25.4118 36.9879 25.4321 36.9698 25.4522 36.9518C25.4373 36.9682 25.4241 36.9828 25.4142 36.9939C25.3437 37.0723 25.3143 37.1205 25.2871 37.1688C25.2761 37.1881 25.2656 37.2073 25.2526 37.2284C25.2049 37.3061 25.2182 37.336 25.2378 37.3457C25.246 37.3499 25.2327 37.3808 25.2181 37.4175C25.205 37.45 25.1909 37.487 25.1892 37.5131C25.1882 37.5279 25.1757 37.5564 25.1654 37.5803C25.1579 37.5976 25.1517 37.6125 25.1518 37.6176C25.152 37.622 25.1708 37.5983 25.1918 37.5714C25.2069 37.552 25.2232 37.531 25.2346 37.5178C25.2619 37.4863 25.2738 37.4792 25.2702 37.4928C25.2685 37.499 25.2634 37.5098 25.2584 37.5204C25.2525 37.5329 25.2467 37.5455 25.2463 37.5509C25.2446 37.5761 25.2734 37.5535 25.3023 37.5292C25.3342 37.5027 25.3658 37.4739 25.3632 37.5076C25.3624 37.5183 25.3557 37.5398 25.3496 37.5609C25.3431 37.5829 25.3371 37.6043 25.3382 37.6115C25.3428 37.6407 25.3936 37.5823 25.4377 37.527C25.4672 37.4902 25.494 37.4551 25.5053 37.4496C25.5262 37.4396 25.5714 37.3607 25.6038 37.3021C25.6206 37.2718 25.6342 37.2467 25.6397 37.2397C25.6403 37.2428 25.6408 37.2463 25.6412 37.2501C25.64 37.2568 25.6388 37.2638 25.6413 37.2625C25.6415 37.2624 25.6417 37.2621 25.6419 37.262C25.6426 37.2863 25.6403 37.3192 25.6387 37.3521C25.6348 37.4258 25.6379 37.5007 25.6775 37.4731C25.6859 37.4671 25.7036 37.4336 25.7209 37.3993C25.7422 37.3573 25.7629 37.314 25.7686 37.3193C25.7821 37.3319 25.7816 37.3958 25.7848 37.4593C25.7886 37.5546 25.8028 37.6492 25.8487 37.5582C25.8636 37.5282 25.8816 37.4768 25.8986 37.4246C25.9081 37.3956 25.9174 37.3662 25.9258 37.3406C25.917 37.3893 25.9091 37.4351 25.9016 37.4778C25.8862 37.5658 25.873 37.6411 25.857 37.7042C25.8198 37.8536 25.7646 38.0582 25.7383 38.21C25.7313 38.2512 25.7224 38.2969 25.7134 38.3429C25.6908 38.4584 25.6668 38.5762 25.6755 38.6329C25.6809 38.6711 25.7008 38.7597 25.7353 38.6739C25.7428 38.6552 25.7512 38.6172 25.7604 38.5749C25.7649 38.5547 25.7695 38.5334 25.7742 38.5128C25.7873 38.456 25.8015 38.4039 25.8162 38.3901C25.8196 38.3869 25.8232 38.3841 25.8268 38.3815C25.8414 38.3713 25.8575 38.3598 25.8698 38.2984C25.884 38.2277 25.8918 38.1458 25.9014 38.0504C25.9136 37.926 25.9299 37.7785 25.9584 37.6017C25.964 37.5668 25.9685 37.5551 25.9718 37.5462C25.9741 37.5399 25.9759 37.5349 25.9771 37.5243C25.9785 37.5122 25.9806 37.4868 25.9833 37.4547C25.9924 37.3416 26.011 37.1442 26.0237 37.137C26.0272 37.135 26.0301 37.1448 26.0329 37.1536C26.0369 37.1665 26.0405 37.1772 26.0434 37.1449C26.0445 37.1326 26.0456 37.1193 26.0468 37.1055C26.0503 37.1097 26.0539 37.1138 26.0575 37.118C26.0601 37.1569 26.0676 37.154 26.0766 37.15C26.0788 37.1491 26.0811 37.1482 26.0835 37.1477C26.091 37.156 26.0987 37.1641 26.1065 37.1723C26.1127 37.1887 26.1194 37.2154 26.1276 37.2577C26.144 37.3425 26.1638 37.4821 26.1887 37.618C26.1992 37.6753 26.2106 37.7321 26.2226 37.7837C26.2198 37.7903 26.2174 37.7981 26.2158 37.8087C26.2048 37.8811 26.2052 38.0221 26.2044 38.152C26.2039 38.2384 26.2027 38.3199 26.1967 38.3726C26.1854 38.4693 26.1899 38.5816 26.1941 38.6646C26.1962 38.7077 26.1979 38.743 26.1962 38.764C26.1949 38.7809 26.1907 38.7889 26.1864 38.7973C26.1827 38.8045 26.1787 38.8121 26.1764 38.8257C26.1476 38.9909 26.1568 39.0863 26.1764 39.225C26.1869 39.3015 26.2002 39.3911 26.2091 39.513C26.2174 39.6421 26.2174 39.68 26.1959 39.7321C26.2151 39.7955 26.2354 39.8587 26.2565 39.9218C26.2637 39.9174 26.2677 39.8772 26.2723 39.8107C26.2807 39.6918 26.3204 39.6464 26.3506 39.6103C26.3646 39.5936 26.3765 39.5789 26.3824 39.5602C26.4131 39.4607 26.3886 39.3277 26.3699 39.2106C26.3594 39.1461 26.3502 39.0863 26.3496 39.0399C26.3493 39.02 26.3457 39.0005 26.342 38.9807C26.3392 38.9654 26.3364 38.9498 26.335 38.9336C26.3251 38.8162 26.3356 38.7275 26.3432 38.6452C26.3476 38.598 26.3512 38.5528 26.3507 38.5056C26.3505 38.4912 26.35 38.4765 26.3495 38.4623C26.3487 38.4415 26.348 38.4218 26.3483 38.4047C26.349 38.3659 26.3559 38.339 26.3629 38.3096C26.3665 38.2945 26.3702 38.2788 26.3731 38.2604C26.3768 38.2366 26.373 38.1901 26.3689 38.1415C26.3661 38.1072 26.363 38.0718 26.3621 38.0425C26.3605 37.9894 26.3686 37.969 26.3758 37.95C26.3789 37.9417 26.3819 37.9335 26.3838 37.9232C26.3846 37.919 26.384 37.911 26.3824 37.9001C26.3923 37.8611 26.4003 37.8214 26.407 37.7826C26.4426 37.5868 26.4381 37.4228 26.5462 37.5094C26.5672 37.5255 26.5811 37.5159 26.5897 37.4938C26.6537 37.519 26.7222 37.541 26.7949 37.5588C26.8533 37.6482 26.9083 37.7201 26.9586 37.7724C27.0535 37.8702 27.1038 37.8736 27.1619 37.876C27.2053 37.8774 27.2532 37.8784 27.3362 37.9096C27.4756 37.9618 27.6159 37.9841 27.7326 37.9499C27.8488 37.9163 27.9658 37.8483 28.0343 37.7862C28.0716 37.753 28.1786 37.7697 28.2812 37.7787C28.4248 37.7925 28.5597 37.7895 28.4446 37.6684C28.4078 37.6298 28.3379 37.5722 28.2692 37.5174C28.2202 37.4784 28.1721 37.4407 28.137 37.4115C28.159 37.4018 28.1808 37.3916 28.2029 37.3811C28.3137 37.4037 28.4455 37.4019 28.3617 37.2986C28.3844 37.2858 28.4068 37.2725 28.4291 37.2594C28.4766 37.2304 28.5235 37.2004 28.5702 37.168C28.5856 37.1575 28.6011 37.1466 28.6165 37.1354C28.6166 37.1353 28.6168 37.1352 28.617 37.1351C28.648 37.1127 28.6789 37.0894 28.7095 37.0654C28.7226 37.0552 28.7356 37.0447 28.7486 37.0341C28.7815 37.0072 28.8141 36.9792 28.8464 36.9506C28.8636 36.9355 28.8806 36.9196 28.8977 36.9038C28.9253 36.8782 28.9528 36.8514 28.98 36.8239C29.0241 36.7791 29.0673 36.7338 29.1099 36.6853C29.1169 36.6774 29.1359 36.6716 29.1637 36.6693C29.1916 36.667 29.2259 36.6682 29.2607 36.6733C29.2955 36.6784 29.3288 36.687 29.3546 36.6978C29.3804 36.7085 29.3963 36.7204 29.4002 36.7308C29.4242 36.795 29.4462 36.8594 29.4657 36.9267C29.4778 36.968 29.4893 37.01 29.4997 37.052C29.5061 37.0778 29.5119 37.1042 29.5177 37.1303C29.5285 37.1796 29.538 37.2301 29.5462 37.2809C29.5495 37.3009 29.5525 37.321 29.5554 37.3412C29.5622 37.3886 29.5678 37.4367 29.5722 37.4852C29.5722 37.4855 29.5723 37.4858 29.5723 37.486C29.5744 37.5099 29.5764 37.5339 29.5781 37.5577C29.5831 37.6308 29.5858 37.7043 29.5852 37.7798C29.5855 37.8191 29.5843 37.8595 29.5825 37.9003C29.5815 37.923 29.5804 37.9458 29.5791 37.9681C29.5783 37.9803 29.5773 37.9926 29.5763 38.005C29.5552 38.2907 29.4969 38.5809 29.398 38.8684C29.2998 39.1551 29.1622 39.4373 28.9884 39.7044C28.8141 39.9719 28.6033 40.2244 28.3591 40.4534C27.6023 41.1721 26.4946 41.6542 25.3108 41.6964C24.0921 41.7526 22.7652 41.3234 21.7386 40.4674C21.449 40.2288 21.1762 39.9505 20.9383 39.6522C20.698 39.3505 20.4903 39.0288 20.3135 38.6782C20.2597 38.5719 20.208 38.4606 20.1589 38.3446Z" fill="black"/>
</svg>
