<svg width="51" height="60" viewBox="0 0 51 60" fill="none" xmlns="http://www.w3.org/2000/svg">
<path d="M18.4984 55.4714C18.0397 54.2978 18.2891 53.0514 18.4473 51.9033C18.4508 51.8778 18.4542 51.8523 18.4578 51.8268C18.6397 50.4221 19.0041 48.8287 20.0888 47.7409C21.1644 46.6569 22.5815 45.9442 24.0455 45.7229C24.9593 45.582 25.8878 45.6301 26.7517 45.8456C27.2722 45.9748 27.7745 46.1643 28.2425 46.4075C29.4888 47.052 30.4728 48.0804 31.0526 49.246C31.4492 50.0374 31.6655 50.8925 31.6993 51.7287C31.7145 52.0958 31.6951 52.4588 31.6438 52.8123C31.6054 53.0755 31.5492 53.335 31.4769 53.5852C31.4668 53.6201 31.4388 53.6512 31.3981 53.6709C31.3574 53.6906 31.3077 53.6975 31.2585 53.6903C31.2092 53.683 31.1635 53.6623 31.1297 53.6334C31.096 53.6044 31.0771 53.5696 31.0756 53.5357C31.0652 53.2912 31.0382 53.0485 30.9952 52.8131C30.9476 52.551 30.8802 52.2963 30.7952 52.0512C30.9901 51.9785 31.1332 51.8935 31.1779 51.7697C31.2007 51.7068 31.1964 51.6204 31.1448 51.5695C31.0986 51.5237 31.0293 51.4991 30.9634 51.4769C30.8943 51.4537 30.8289 51.4333 30.7959 51.3931C30.7398 51.3249 30.6336 51.2778 30.5222 51.234C30.4816 51.218 30.4402 51.2024 30.4001 51.186C30.28 50.9779 30.1464 50.7812 30.0013 50.5971C29.9784 50.5083 29.9521 50.4276 29.9088 50.3719C29.87 50.3219 29.8027 50.296 29.7272 50.2784C29.7027 50.2524 29.678 50.2266 29.653 50.2012C29.492 50.037 29.3215 49.8862 29.1434 49.7499C29.0671 49.5865 28.9736 49.4174 28.8048 49.2433C28.732 49.1685 28.6699 49.0818 28.6063 48.9994C28.5131 48.8781 28.4164 48.7662 28.2961 48.7263C28.2159 48.6998 28.1569 48.6319 28.0942 48.5647C28.0112 48.4751 27.9204 48.3866 27.7916 48.4138C27.7108 48.431 27.6316 48.4621 27.5599 48.4926C27.4459 48.5413 27.3505 48.5879 27.2864 48.5705C27.1663 48.538 27.0433 48.5676 26.9399 48.5977C26.814 48.6336 26.7148 48.6693 26.649 48.5918C26.6389 48.5801 26.6277 48.565 26.6149 48.5479C26.5678 48.4848 26.4979 48.3953 26.3854 48.3616C26.3379 48.3474 26.2835 48.3434 26.2228 48.3564C26.1505 48.372 26.079 48.4269 26.0126 48.4824C25.9157 48.5632 25.8287 48.6445 25.7377 48.6065C25.7241 48.6008 25.7098 48.5773 25.6965 48.5559C25.6796 48.5286 25.6643 48.5049 25.6558 48.5258C25.631 48.5871 25.5924 48.6553 25.5534 48.7302C25.5246 48.7853 25.4957 48.8439 25.4703 48.9056C25.2517 48.9533 25.0398 49.0178 24.8367 49.0971C24.7438 49.1335 24.6523 49.1731 24.5631 49.2155C24.4874 49.1433 24.4102 49.0822 24.3348 49.0431C24.2359 48.9922 24.133 49.0048 24.001 49.0285C23.9038 49.046 23.7909 49.0695 23.6466 49.0833C23.3776 49.109 23.1697 49.2807 23.0761 49.4251C23.0559 49.4557 23.0365 49.4871 23.0166 49.5211C22.9421 49.6506 22.8493 49.8104 22.6869 50.0917C22.5354 50.3583 22.4081 50.5702 22.3198 50.7348C22.2748 50.8189 22.2405 50.8896 22.2208 50.9475C22.1871 51.0462 22.1451 51.1656 22.1098 51.2865C22.0537 51.4757 22.0162 51.6695 22.0185 51.7842C22.0193 51.8248 22.0228 51.8681 22.0274 51.9146C22.0394 52.0339 22.0581 52.1728 22.0639 52.3517C22.0644 52.3657 22.0648 52.3798 22.0651 52.3941C22.071 52.6022 22.0442 52.7238 21.9938 52.8566C21.9736 52.91 21.8964 52.9586 21.8176 53.0125C21.7058 53.0881 21.5911 53.1775 21.6367 53.2821C21.6474 53.3064 21.6686 53.331 21.6911 53.3565C21.7326 53.4033 21.7781 53.4513 21.7699 53.5086C21.7671 53.5287 21.7491 53.5491 21.7315 53.5694C21.7122 53.5916 21.6935 53.6138 21.6961 53.6347C21.7058 53.7124 21.7273 53.7862 21.7479 53.8508C21.7744 53.934 21.7994 54.0029 21.7946 54.0517C21.7862 54.1388 21.8426 54.2159 21.9016 54.289C21.9468 54.3453 21.9936 54.3998 22.0155 54.4622C22.0776 54.6412 22.2478 54.8537 22.469 55.0187C22.5524 55.0809 22.5592 55.1748 22.5759 55.299C22.5863 55.3761 22.6005 55.4647 22.6403 55.5602C22.663 55.6143 22.7271 55.6209 22.7853 55.6251C22.8392 55.6292 22.8883 55.6315 22.9007 55.6713C22.9116 55.7065 22.8753 55.7725 22.8417 55.836C22.8044 55.9065 22.7705 55.974 22.8071 55.9893C22.8266 55.9974 22.8689 55.9872 22.9185 55.9742C22.9381 55.969 22.9588 55.9635 22.9799 55.9584C22.9696 55.9689 22.9607 55.9786 22.9541 55.986C22.9071 56.0382 22.9103 56.0909 22.9149 56.1427C22.9167 56.1635 22.9187 56.184 22.9176 56.2045C22.9133 56.2797 22.9751 56.343 23.0296 56.3814C23.0526 56.3978 23.0597 56.4305 23.0687 56.4689C23.0767 56.503 23.0861 56.5415 23.1093 56.5762C23.1226 56.5959 23.1249 56.6224 23.127 56.6445C23.1285 56.6605 23.1298 56.6742 23.135 56.6811C23.1395 56.6871 23.1556 56.6737 23.1736 56.6585C23.1866 56.6475 23.2006 56.6357 23.2121 56.6295C23.2395 56.6147 23.2594 56.6179 23.2654 56.6324C23.2681 56.6392 23.2678 56.6483 23.2675 56.6574C23.2672 56.668 23.2668 56.6787 23.2714 56.6855C23.2927 56.7168 23.3339 56.7156 23.3761 56.7136C23.4227 56.7114 23.4702 56.7081 23.4982 56.7478C23.5071 56.7603 23.5127 56.7804 23.5183 56.7999C23.5241 56.8203 23.5301 56.8401 23.5393 56.8496C23.5769 56.8881 23.6431 56.8663 23.7028 56.8448C23.7425 56.8306 23.7794 56.8167 23.8048 56.8217C23.8514 56.8309 23.899 56.7864 23.9336 56.7534C23.9515 56.7363 23.9661 56.7221 23.9755 56.7201C23.9812 56.7246 23.987 56.7294 23.9925 56.7342C23.9965 56.7409 24.0008 56.7478 24.0071 56.749C24.0076 56.7491 24.0081 56.7491 24.0086 56.7492C24.0386 56.7785 24.0666 56.813 24.0946 56.8469C24.1574 56.9229 24.2256 56.9977 24.3219 57.0031C24.3427 57.0042 24.3699 56.987 24.3973 56.9692C24.4308 56.9475 24.4645 56.9248 24.4885 56.9345C24.5455 56.9575 24.5941 57.0139 24.6449 57.0687C24.7203 57.151 24.8019 57.2299 24.8989 57.182C24.9307 57.1662 24.9641 57.1358 24.997 57.1048C25.0154 57.0875 25.0336 57.0699 25.0515 57.0548C25.043 57.0869 25.0363 57.1171 25.0301 57.1454C25.0171 57.2036 25.0061 57.2534 24.9837 57.2936C24.9312 57.3885 24.8633 57.5192 24.8492 57.621C24.8455 57.6487 24.8388 57.679 24.8319 57.7095C24.8148 57.7861 24.7967 57.8643 24.8281 57.9067C24.8489 57.9353 24.9066 58.0019 24.9582 57.9489C24.9693 57.9374 24.9787 57.9126 24.9891 57.8851C24.994 57.8719 24.9992 57.858 25.0049 57.8446C25.0206 57.8078 25.0402 57.7745 25.0699 57.768C25.0767 57.7665 25.084 57.7653 25.0916 57.7642C25.1216 57.7601 25.1552 57.7551 25.1719 57.7152C25.1912 57.6692 25.1943 57.6143 25.1982 57.5504C25.2032 57.4671 25.2103 57.3684 25.2504 57.2529C25.2583 57.2301 25.2693 57.2231 25.2775 57.2178C25.2833 57.2141 25.2878 57.2111 25.2889 57.2041C25.2902 57.196 25.2902 57.179 25.2903 57.1574C25.2903 57.0813 25.2921 56.9488 25.3447 56.9483C25.359 56.9481 25.3748 56.9559 25.389 56.9628C25.4099 56.9729 25.4274 56.9812 25.4313 56.9598C25.4328 56.9516 25.4341 56.9428 25.4353 56.9337C25.4522 56.9375 25.469 56.9412 25.4858 56.9449C25.5062 56.972 25.537 56.9715 25.5757 56.9701C25.5851 56.9698 25.595 56.9695 25.6052 56.9694C25.6389 56.9758 25.6727 56.9818 25.7064 56.9874C25.7332 56.9986 25.7616 57.0163 25.7928 57.0442C25.8549 57.0999 25.9124 57.1913 25.9723 57.2796C25.9974 57.3168 26.0233 57.3535 26.0496 57.3866C26.0406 57.3915 26.0325 57.3972 26.0265 57.4045C25.985 57.455 25.9718 57.5496 25.9587 57.6368C25.95 57.6948 25.9414 57.7495 25.9243 57.7851C25.893 57.8505 25.8984 57.9252 25.9029 57.9805C25.9052 58.0092 25.907 58.0327 25.9027 58.0468C25.8993 58.0582 25.8906 58.0637 25.8816 58.0694C25.8737 58.0744 25.8656 58.0796 25.8605 58.0888C25.7985 58.1998 25.8175 58.2631 25.8493 58.3552C25.8667 58.406 25.8876 58.4655 25.899 58.5466C25.9093 58.6325 25.9077 58.6578 25.8709 58.6931C25.9013 58.7349 25.9322 58.7766 25.9637 58.8179C25.9753 58.8147 25.9832 58.7878 25.9936 58.743C26.0122 58.6632 26.0809 58.6309 26.1343 58.6044C26.1589 58.5922 26.1802 58.5814 26.1917 58.5683C26.2521 58.4986 26.2242 58.4109 26.2015 58.3337C26.1888 58.2912 26.1775 58.2518 26.1812 58.2204C26.1827 58.207 26.1778 58.1943 26.1729 58.1813C26.1691 58.1712 26.1652 58.161 26.1642 58.1502C26.1571 58.0719 26.1878 58.0109 26.2147 57.9539C26.2302 57.9213 26.2445 57.8899 26.2508 57.8577C26.2527 57.8479 26.2539 57.838 26.2551 57.8284C26.2568 57.8143 26.2584 57.8009 26.262 57.7891C26.2701 57.7624 26.2904 57.7427 26.3123 57.7211C26.3235 57.71 26.3352 57.6983 26.3458 57.685C26.3596 57.6677 26.3611 57.6361 26.3626 57.6031C26.3637 57.5799 26.3649 57.5559 26.3701 57.5355C26.3796 57.4987 26.4062 57.482 26.4306 57.4663C26.4413 57.4595 26.4515 57.4527 26.4598 57.4447C26.4632 57.4415 26.4642 57.4359 26.4634 57.4286C26.5024 57.3974 26.5385 57.3655 26.5729 57.3339C26.7462 57.1742 26.872 57.034 27.131 57.0291C27.1802 57.0278 27.2271 57.008 27.2707 56.9789C27.4344 56.9499 27.5985 56.912 27.7621 56.8648C27.8238 56.9128 27.8882 56.9462 27.9543 56.9632C28.0786 56.995 28.174 56.9612 28.2842 56.9175C28.3658 56.885 28.4557 56.8471 28.5766 56.8203C28.7797 56.7752 28.9822 56.7021 29.1754 56.5717C29.3681 56.4425 29.5676 56.2644 29.6935 56.1241C29.7622 56.0484 29.8781 56.0016 29.9861 55.9527C30.1378 55.8844 30.2742 55.8105 30.2251 55.6853C30.2094 55.6454 30.1713 55.5932 30.1336 55.5432C30.1068 55.5076 30.0803 55.4731 30.0624 55.4443C30.0917 55.4131 30.1206 55.3813 30.1493 55.3491C30.2484 55.3193 30.3733 55.2482 30.3508 55.1097C30.3788 55.0744 30.4063 55.0387 30.4329 55.0038C30.4902 54.9272 30.5451 54.8507 30.5986 54.7714C30.6161 54.7456 30.6336 54.7192 30.6509 54.6925C30.6511 54.6922 30.6512 54.692 30.6514 54.6917C30.6862 54.6381 30.7203 54.5835 30.7534 54.5287C30.7675 54.5053 30.7815 54.4816 30.7953 54.4578C30.8303 54.3975 30.8644 54.3361 30.8973 54.2744C30.9147 54.2419 30.932 54.2083 30.9489 54.1752C30.9764 54.1211 31.0033 54.0658 31.0294 54.01C31.0716 53.9192 31.1114 53.8292 31.1494 53.7356C31.1556 53.7203 31.1697 53.7069 31.1893 53.6982C31.209 53.6896 31.2324 53.6865 31.2556 53.6898C31.2788 53.6932 31.3004 53.7031 31.3166 53.7173C31.3327 53.7315 31.3418 53.7491 31.3429 53.766C31.3493 53.8702 31.353 53.9729 31.3531 54.0788C31.3532 54.1439 31.3523 54.2093 31.3502 54.2742C31.3489 54.314 31.3469 54.3546 31.3447 54.3945C31.3406 54.4699 31.3346 54.5464 31.3269 54.6226C31.3239 54.6527 31.3207 54.6829 31.3172 54.7129C31.3091 54.7834 31.2992 54.8546 31.288 54.9257C31.2879 54.9261 31.2879 54.9266 31.2878 54.927C31.2823 54.962 31.2764 54.997 31.2703 55.0316C31.2514 55.138 31.2296 55.2436 31.2034 55.3511C31.1903 55.4069 31.1753 55.4642 31.1595 55.5217C31.1507 55.5536 31.1416 55.5855 31.1326 55.6167C31.1275 55.6338 31.1223 55.651 31.1169 55.6683C30.9956 56.0664 30.8293 56.4552 30.6161 56.829C30.404 57.2016 30.1469 57.5566 29.8513 57.8829C29.5548 58.21 29.2194 58.5085 28.8506 58.7708C27.7029 59.5938 26.209 60.0465 24.696 59.967C23.1357 59.8981 21.5422 59.251 20.332 58.1368C19.9909 57.8257 19.6717 57.47 19.3954 57.094C19.1162 56.7138 18.8773 56.3133 18.6749 55.8813C18.6134 55.7503 18.5543 55.6135 18.4984 55.4714Z" fill="black"/>
<path d="M6.20333 22.6205C6.75917 21.4622 8.17479 20.8559 8.81905 19.7435C9.61903 18.3625 9.66612 16.5174 10.6082 15.2141C11.5457 13.9188 12.549 12.6527 13.5974 11.4185C14.6467 10.1827 15.7422 8.97636 16.8716 7.78589C17.9993 6.59836 19.1609 5.42641 20.3393 4.26673C21.1397 3.47904 21.9491 2.69515 22.7612 1.91431C23.1175 1.57142 23.4736 1.23006 23.8308 0.88794C24.0974 0.632828 24.3641 0.377723 24.6307 0.122611C24.668 0.087247 24.7428 0.0759441 24.8414 0.0927401C24.9402 0.109622 25.0543 0.152806 25.162 0.215039C25.2697 0.27733 25.3643 0.354755 25.428 0.431821C25.4914 0.508742 25.5183 0.578836 25.5058 0.628491C25.4139 0.98793 25.3219 1.34738 25.23 1.70682C25.1278 2.106 25.0261 2.50466 24.9233 2.90339C24.45 2.70224 24.0718 2.58289 23.8434 2.63649C23.7269 2.66388 23.6357 2.74926 23.6739 2.87291C23.7082 2.98398 23.81 3.11152 23.9071 3.2329C24.0088 3.35984 24.1052 3.48035 24.1131 3.5683C24.1265 3.71759 24.2559 3.92685 24.392 4.14665C24.4415 4.22665 24.4919 4.30814 24.5379 4.3886C24.4385 4.76844 24.3383 5.14791 24.2374 5.52687C24.1172 5.62635 24.0119 5.72083 23.973 5.8301C23.9381 5.92812 23.9846 6.0632 24.0541 6.21106C24.0384 6.26965 24.0226 6.32823 24.0068 6.38682C23.9047 6.76469 23.8011 7.14188 23.6967 7.51863C23.4311 7.70629 23.1618 7.90819 22.9102 8.22767C22.8018 8.36536 22.6525 8.47673 22.509 8.58385C22.2971 8.74208 22.0979 8.89096 22.0612 9.1012C22.0367 9.24173 21.9038 9.32769 21.7712 9.41344C21.5934 9.52845 21.4159 9.64322 21.5007 9.88917C21.5541 10.0438 21.6349 10.2042 21.71 10.3529C21.8294 10.5894 21.9339 10.7962 21.888 10.9023C21.8019 11.1017 21.8483 11.3443 21.8893 11.5581C21.9387 11.8153 21.9801 12.031 21.7731 12.0799C21.7417 12.0873 21.702 12.0936 21.657 12.1006C21.42 12.1371 21.0409 12.1955 21.0109 12.5763C21.0003 12.7119 21.0744 12.8878 21.1473 13.0603C21.2533 13.3113 21.3563 13.5551 21.1895 13.6562C21.1645 13.6713 21.1002 13.6649 21.0415 13.659C20.9668 13.6516 20.9016 13.6451 20.9386 13.6849C21.0471 13.8016 21.1557 13.9502 21.274 14.1118C21.3609 14.2304 21.453 14.3563 21.5537 14.4814C21.4056 14.9073 21.2543 15.3315 21.0992 15.7536C21.0282 15.947 20.9564 16.1401 20.8838 16.3327C20.6332 16.308 20.4012 16.2967 20.2097 16.3157C19.9595 16.3406 19.8102 16.474 19.6175 16.6458C19.4757 16.7721 19.3102 16.9193 19.0641 17.0596C18.6086 17.3195 18.4274 17.7519 18.4012 18.081C18.3957 18.1506 18.3918 18.2215 18.388 18.2976C18.3739 18.5863 18.3569 18.9468 18.2103 19.5657C18.0716 20.1512 17.8653 20.598 17.7103 20.9337C17.6312 21.1051 17.565 21.2473 17.5285 21.3644C17.4659 21.5647 17.3757 21.803 17.2849 22.0422C17.1428 22.4164 16.9996 22.7928 16.9612 23.0305C16.9476 23.1151 16.9382 23.2068 16.9276 23.3056C16.8985 23.5793 16.8632 23.9098 16.7211 24.3115C16.572 24.7332 16.3875 24.9414 16.1411 25.1261C16.0409 25.2011 15.8217 25.1918 15.5953 25.1819C15.2741 25.1678 14.9389 25.153 14.911 25.3788C14.9046 25.4315 14.9186 25.4999 14.9335 25.5715C14.9608 25.703 14.9905 25.8453 14.8982 25.9202C14.866 25.9463 14.8032 25.9495 14.7416 25.9525C14.6739 25.9559 14.6077 25.9593 14.5845 25.9931C14.4982 26.1194 14.4354 26.2546 14.3797 26.3747C14.3078 26.5297 14.2474 26.6596 14.1632 26.7131C14.0129 26.8086 13.9905 26.9949 13.9682 27.1837C13.9511 27.328 13.9342 27.4739 13.8595 27.5815C13.6462 27.889 13.5114 28.4035 13.4499 28.9783C13.4265 29.1958 13.2371 29.282 12.9941 29.3924C12.8429 29.4611 12.6707 29.5389 12.5054 29.6637C12.4117 29.7345 12.4592 29.8677 12.5029 29.9909C12.5432 30.1044 12.5804 30.2095 12.5018 30.2499C12.4324 30.2856 12.2548 30.231 12.0861 30.1791C11.8984 30.1214 11.7219 30.0671 11.7178 30.1444C11.7157 30.1856 11.7718 30.2695 11.8384 30.3693C11.8648 30.4088 11.8926 30.4507 11.9194 30.4936C11.8881 30.4741 11.8599 30.4575 11.8383 30.445C11.6862 30.3571 11.5709 30.3718 11.4578 30.3863C11.4127 30.3921 11.368 30.3981 11.3214 30.3972C11.1499 30.3941 11.0501 30.5181 10.9961 30.6256C10.9732 30.6711 10.903 30.6838 10.821 30.6985C10.7483 30.7117 10.6662 30.7264 10.5998 30.7673C10.562 30.7906 10.5028 30.7912 10.4536 30.7915C10.418 30.7916 10.3875 30.7918 10.3744 30.8006C10.3632 30.8083 10.4018 30.842 10.4453 30.8801C10.4767 30.9074 10.5106 30.9371 10.5303 30.9608C10.5772 31.0175 10.5788 31.0564 10.548 31.0653C10.5338 31.0694 10.5126 31.067 10.4916 31.0644C10.467 31.0615 10.4423 31.0585 10.4287 31.066C10.3663 31.1008 10.3862 31.1812 10.4069 31.2647C10.4297 31.3564 10.4531 31.452 10.3696 31.4951C10.3433 31.5086 10.2982 31.5132 10.2545 31.5176C10.2088 31.5222 10.1646 31.5269 10.1452 31.5413C10.0665 31.5999 10.1329 31.736 10.194 31.8613C10.2347 31.9446 10.2728 32.0231 10.2645 32.0707C10.2491 32.1579 10.3574 32.2719 10.4374 32.3561C10.4788 32.3998 10.5129 32.4355 10.518 32.4553C10.5077 32.4648 10.4965 32.4741 10.4852 32.4829C10.4695 32.4879 10.4533 32.4931 10.4505 32.5051C10.4503 32.5061 10.4504 32.5071 10.4502 32.5081C10.3814 32.5542 10.2999 32.5916 10.2188 32.6286C10.0367 32.7118 9.85655 32.7938 9.82751 32.9738C9.82126 33.0125 9.85649 33.0761 9.89226 33.1406C9.93609 33.2198 9.98091 33.3007 9.95169 33.3399C9.88203 33.4334 9.73465 33.4832 9.58946 33.5323C9.37109 33.6061 9.15777 33.6783 9.22131 33.8946C9.24229 33.9659 9.29492 34.0542 9.34811 34.1429C9.37775 34.1923 9.40769 34.2421 9.43196 34.2888C9.36354 34.2424 9.29808 34.2009 9.23704 34.1622C9.11122 34.0825 9.00355 34.0142 8.92346 33.9365C8.73419 33.7528 8.4658 33.5136 8.2394 33.3922C8.17795 33.3593 8.11163 33.3189 8.04493 33.2781C7.87759 33.1759 7.70669 33.0715 7.59836 33.078C7.52536 33.0824 7.35224 33.1021 7.44914 33.2341C7.47026 33.2629 7.52197 33.3028 7.57942 33.3472C7.68265 33.427 7.80485 33.5216 7.80449 33.5935C7.80443 33.6056 7.8034 33.6182 7.80186 33.6309C7.79572 33.6818 7.78856 33.7386 7.8687 33.8076C7.96103 33.8871 8.08221 33.9515 8.2235 34.0265C8.40751 34.1243 8.62609 34.2404 8.85978 34.4318C8.90597 34.4697 8.91421 34.4958 8.92049 34.5155C8.92492 34.5294 8.92864 34.5403 8.94362 34.5498C8.96084 34.5607 8.99911 34.5792 9.04754 34.6025C9.21843 34.6849 9.51693 34.8289 9.4779 34.9245C9.46732 34.9504 9.43786 34.97 9.41135 34.9874C9.37228 35.0132 9.33993 35.0346 9.38444 35.0657C9.40134 35.0775 9.41997 35.0897 9.43942 35.1021C9.41713 35.1277 9.39485 35.1533 9.37256 35.1789C9.29536 35.1837 9.27016 35.2384 9.23893 35.3068C9.23135 35.3234 9.22316 35.3408 9.21401 35.3585C9.16959 35.4087 9.12522 35.459 9.08058 35.5092C9.03084 35.5406 8.96454 35.5664 8.87404 35.5818C8.69271 35.6125 8.43933 35.5841 8.19161 35.5562C8.08723 35.5445 7.98365 35.5327 7.88701 35.5257C7.88594 35.5061 7.8824 35.4869 7.87302 35.4683C7.80877 35.3409 7.62113 35.1963 7.44838 35.0632C7.33348 34.9747 7.22515 34.8913 7.16441 34.8215C7.05311 34.6938 6.88807 34.6049 6.76605 34.5391C6.70276 34.505 6.65097 34.4769 6.62435 34.4531C6.60303 34.434 6.59844 34.4156 6.59364 34.3966C6.58947 34.3801 6.58502 34.3629 6.56951 34.3446C6.38106 34.1224 6.22839 34.0683 6.00621 33.9897C5.88367 33.9463 5.73993 33.8952 5.55733 33.8045C5.36527 33.7062 5.31251 33.6715 5.26393 33.584C5.15171 33.5655 5.03949 33.5471 4.92727 33.5286C4.92539 33.5457 4.97704 33.5893 5.06439 33.6591C5.22039 33.7837 5.23411 33.9043 5.24483 33.9985C5.24979 34.0421 5.25421 34.0801 5.27175 34.1103C5.36506 34.2706 5.57263 34.3595 5.75528 34.4377C5.85582 34.4807 5.94884 34.5206 6.01109 34.5673C6.03773 34.5873 6.06898 34.5988 6.10082 34.6105C6.12543 34.6196 6.15047 34.6288 6.17399 34.6422C6.34472 34.7394 6.44373 34.8595 6.53568 34.971C6.58834 35.0349 6.63894 35.0961 6.69918 35.1485C6.71753 35.1644 6.73678 35.1798 6.75552 35.1947C6.7829 35.2163 6.80893 35.237 6.82949 35.2578C6.87632 35.3052 6.89569 35.3583 6.91669 35.4163C6.92746 35.4461 6.93869 35.4771 6.95438 35.5094C6.97472 35.5513 7.03731 35.5983 7.10264 35.6475C7.14881 35.6822 7.1963 35.7181 7.23171 35.7541C7.29571 35.8193 7.29855 35.8779 7.30118 35.9323C7.30233 35.956 7.30373 35.9791 7.30984 36.0014C7.31233 36.0105 7.32231 36.0199 7.33783 36.0297C7.35349 36.1256 7.37199 36.2191 7.39033 36.3104C7.48227 36.768 7.56223 37.1644 7.16794 37.4596C7.09339 37.5155 7.05375 37.5987 7.03271 37.6939C6.81737 37.9127 6.59978 38.1305 6.38056 38.347C6.19786 38.3094 6.03314 38.2974 5.88954 38.3128C5.61989 38.3418 5.49709 38.4609 5.35217 38.6014C5.24502 38.7053 5.12564 38.8208 4.92595 38.9204C4.59043 39.0879 4.27832 39.2785 4.0184 39.5468C3.75961 39.8139 3.4953 40.1383 3.32868 40.3795C3.23784 40.511 3.01705 40.5767 2.81145 40.6381C2.52225 40.7244 2.26293 40.802 2.43617 41.0407C2.49154 41.117 2.60244 41.2239 2.71015 41.3278C2.78686 41.4017 2.86165 41.4742 2.91438 41.5333C2.86108 41.5789 2.80796 41.6247 2.75443 41.6702C2.54014 41.6823 2.28206 41.7444 2.36712 41.9975C2.31155 42.0442 2.25607 42.0911 2.20147 42.1357C2.08427 42.2343 1.96804 42.3298 1.85085 42.4262C1.8124 42.4575 1.77369 42.4893 1.73485 42.5211C1.73445 42.5214 1.73405 42.5217 1.73366 42.5219C1.65547 42.5859 1.57671 42.6505 1.49855 42.7135C1.46512 42.7405 1.4317 42.7675 1.39827 42.7946C1.31337 42.8633 1.22799 42.9325 1.14313 43.0001C1.09813 43.0358 1.05302 43.072 1.00758 43.1081C0.933858 43.1668 0.859643 43.2259 0.785458 43.2845C0.665501 43.3793 0.545319 43.4732 0.424618 43.5671C0.404787 43.5824 0.367782 43.5867 0.320378 43.5783C0.272909 43.5697 0.219047 43.5493 0.168302 43.52C0.11754 43.4906 0.0728208 43.4541 0.0418801 43.4172C0.0110777 43.3805 -0.00305475 43.3467 0.00049286 43.322C0.0228708 43.1712 0.0456894 43.0209 0.0692117 42.8703C0.0837383 42.7772 0.0982095 42.6837 0.112988 42.591C0.122101 42.5338 0.131435 42.477 0.140378 42.4205C0.157431 42.3138 0.175475 42.2054 0.193528 42.0981C0.200572 42.0559 0.207615 42.0136 0.214659 41.9713C0.231123 41.8724 0.248692 41.7723 0.266002 41.6728C0.266112 41.6722 0.266222 41.6716 0.266333 41.671C0.274848 41.6221 0.283301 41.5732 0.291629 41.5249C0.317941 41.3759 0.344037 41.2283 0.372191 41.0783C0.385728 41.0002 0.40136 40.9197 0.416456 40.8395C0.42486 40.7949 0.433157 40.7503 0.441211 40.7065C0.4458 40.6826 0.450609 40.6585 0.455442 40.6343C0.561663 40.0757 0.672147 39.5239 0.791467 38.9715C0.909781 38.4208 1.03474 37.8729 1.16462 37.3296C1.29513 36.7852 1.43112 36.2451 1.57269 35.7077C2.47063 32.2968 3.52004 28.9576 4.81672 25.7594C5.00128 25.303 5.19805 24.839 5.39446 24.3883C5.59352 23.933 5.7929 23.4896 6.00416 23.0399C6.068 22.9031 6.13444 22.7634 6.20333 22.6205Z" fill="black"/>
<path d="M40.5014 15.7384C41.2266 16.7989 41.0439 18.3281 41.6851 19.4422C42.4811 20.8255 44.0555 21.7888 44.7131 23.2563C45.3661 24.7158 45.9609 26.2178 46.5056 27.7429C47.0512 29.2695 47.5481 30.8214 48.0144 32.3948C48.479 33.9651 48.9132 35.557 49.3283 37.1574C49.6102 38.2445 49.8844 39.3374 50.1546 40.4311C50.2734 40.9111 50.3909 41.3902 50.5087 41.8705C50.5963 42.229 50.6839 42.5875 50.7715 42.9459C50.7835 42.9959 50.7559 43.0663 50.692 43.1434C50.628 43.2205 50.5335 43.2977 50.4258 43.3598C50.318 43.422 50.2036 43.4652 50.1051 43.4818C50.0067 43.4983 49.9326 43.4865 49.8958 43.4508C49.6305 43.1915 49.3652 42.9322 49.0998 42.6729C48.8053 42.3847 48.5108 42.0973 48.2169 41.809C48.6278 41.4996 48.9203 41.2318 48.988 41.0072C49.0226 40.8926 48.9942 40.771 48.8681 40.7422C48.7547 40.7163 48.5934 40.7407 48.4397 40.7642C48.2789 40.7887 48.1263 40.812 48.0462 40.7748C47.9102 40.7118 47.6643 40.7193 47.4059 40.7272C47.3119 40.73 47.2161 40.733 47.1234 40.7326C46.8442 40.4565 46.5656 40.1801 46.2879 39.9032C46.2619 39.7493 46.2327 39.6109 46.1575 39.5226C46.0901 39.4434 45.9498 39.4161 45.787 39.4024C45.7442 39.3594 45.7013 39.3165 45.6584 39.2735C45.3823 38.9961 45.1074 38.7178 44.8333 38.4391C44.8036 38.1152 44.7634 37.781 44.6125 37.4035C44.5475 37.2407 44.5257 37.0557 44.5047 36.8779C44.4736 36.6153 44.4443 36.3683 44.2805 36.2314C44.1711 36.1399 44.1631 35.9818 44.1552 35.8241C44.1445 35.6126 44.1338 35.4015 43.8784 35.352C43.7178 35.3209 43.5384 35.3107 43.3721 35.3014C43.1076 35.2865 42.8763 35.2736 42.8073 35.1809C42.6777 35.0065 42.4444 34.9255 42.2387 34.8541C41.9913 34.7683 41.7838 34.6963 41.845 34.4925C41.8542 34.4616 41.8686 34.4241 41.8851 34.3817C41.972 34.1581 42.1109 33.8006 41.7961 33.5843C41.6841 33.5072 41.4946 33.4835 41.3088 33.4604C41.0384 33.4267 40.7758 33.394 40.7717 33.199C40.7711 33.1698 40.8087 33.1173 40.8432 33.0694C40.887 33.0084 40.9252 32.9552 40.8722 32.9674C40.7169 33.0029 40.5339 33.0227 40.3349 33.0444C40.1887 33.0603 40.0336 33.0771 39.8749 33.1018C39.5801 32.7605 39.2884 32.4175 39.0004 32.0721C38.8684 31.9139 38.7371 31.7552 38.6066 31.596C38.7533 31.3913 38.879 31.196 38.9583 31.0207C39.0619 30.7915 39.021 30.5956 38.9686 30.3428C38.9301 30.1568 38.8854 29.9399 38.8869 29.6566C38.8896 29.1322 38.6057 28.7591 38.3338 28.5719C38.2763 28.5323 38.2169 28.4934 38.1528 28.4522C37.9099 28.2956 37.6062 28.1005 37.1435 27.6641C36.7058 27.2513 36.422 26.8492 36.2087 26.5471C36.0999 26.393 36.0098 26.2646 35.9267 26.1744C35.7844 26.02 35.6232 25.8227 35.4615 25.6245C35.2085 25.3144 34.9541 25.0022 34.7674 24.85C34.701 24.7959 34.6263 24.7419 34.546 24.6834C34.3235 24.5213 34.0549 24.3255 33.7781 24.0016C33.4874 23.6616 33.3994 23.3977 33.3626 23.092C33.3477 22.9677 33.4654 22.7825 33.5872 22.5914C33.76 22.3203 33.9404 22.0373 33.7588 21.9004C33.7164 21.8684 33.6501 21.8464 33.5807 21.8235C33.4532 21.7813 33.3151 21.7359 33.2964 21.6185C33.2898 21.5776 33.3185 21.5216 33.3467 21.4668C33.3776 21.4065 33.4078 21.3474 33.3901 21.3105C33.3238 21.1726 33.2382 21.0506 33.162 20.9422C33.0637 20.8025 32.9814 20.6853 32.9772 20.5855C32.9696 20.4077 32.8195 20.2951 32.6671 20.1813C32.5507 20.0944 32.4328 20.0068 32.377 19.8883C32.2173 19.5498 31.8392 19.1758 31.3721 18.8352C31.1955 18.7063 31.2155 18.4991 31.2414 18.2334C31.2575 18.0682 31.2762 17.8801 31.2508 17.6745C31.2363 17.558 31.0972 17.5325 30.9687 17.5088C30.8502 17.487 30.7406 17.4666 30.7449 17.3783C30.7487 17.3004 30.8848 17.1739 31.0141 17.0538C31.1579 16.9201 31.2932 16.7944 31.2283 16.7522C31.1937 16.7297 31.093 16.7363 30.9732 16.7442C30.9258 16.7472 30.8756 16.7503 30.8251 16.7521C30.8576 16.7348 30.8862 16.7186 30.9077 16.7062C31.0599 16.6184 31.1048 16.5112 31.1488 16.406C31.1663 16.3641 31.1835 16.3224 31.2076 16.2825C31.296 16.1355 31.2385 15.9871 31.1724 15.8865C31.1445 15.8439 31.1686 15.7768 31.1968 15.6984C31.2218 15.6289 31.2501 15.5504 31.2479 15.4725C31.2466 15.428 31.2756 15.3766 31.3 15.3338C31.3177 15.3028 31.3328 15.2764 31.3317 15.2607C31.3307 15.247 31.2821 15.2636 31.2274 15.2823C31.188 15.2958 31.1454 15.3103 31.115 15.3155C31.0425 15.3278 31.008 15.3097 31.0156 15.2786C31.0192 15.2643 31.0319 15.2472 31.0446 15.2302C31.0594 15.2104 31.0744 15.1905 31.0747 15.1749C31.0758 15.1035 30.9962 15.0806 30.9136 15.0567C30.8227 15.0306 30.7282 15.0031 30.7327 14.9092C30.7341 14.8797 30.7527 14.8383 30.7707 14.7983C30.7895 14.7564 30.8076 14.7158 30.8049 14.6918C30.7935 14.5943 30.6424 14.5838 30.5033 14.5741C30.4109 14.5676 30.3238 14.5614 30.2868 14.5304C30.2189 14.4735 30.066 14.5102 29.9531 14.5374C29.8946 14.5514 29.8466 14.5631 29.8269 14.5576C29.8238 14.5439 29.8214 14.5297 29.8194 14.5154C29.8229 14.4993 29.8265 14.4827 29.8175 14.4743C29.8168 14.4736 29.8158 14.4732 29.8151 14.4726C29.8095 14.3899 29.8179 14.3006 29.8264 14.2119C29.8454 14.0126 29.8645 13.8155 29.7231 13.7004C29.6927 13.6756 29.6201 13.6744 29.5462 13.6731C29.4558 13.6714 29.3633 13.6698 29.344 13.6249C29.2979 13.5178 29.3284 13.3653 29.3585 13.215C29.4037 12.989 29.4479 12.7681 29.2288 12.715C29.1565 12.6975 29.0538 12.699 28.9504 12.7007C28.8927 12.7017 28.8347 12.7027 28.782 12.7003C28.8565 12.6643 28.9251 12.6284 28.9892 12.5948C29.1211 12.5257 29.2341 12.4666 29.3415 12.4361C29.5951 12.3641 29.9365 12.2513 30.1548 12.1159C30.2141 12.0791 30.2822 12.0419 30.3508 12.0045C30.523 11.9107 30.6989 11.8149 30.7474 11.7178C30.7801 11.6524 30.8496 11.4926 30.6868 11.5105C30.6514 11.5144 30.5909 11.5392 30.5238 11.5668C30.403 11.6163 30.2601 11.6748 30.198 11.6386C30.1875 11.6325 30.1771 11.6253 30.1668 11.6176C30.1259 11.5868 30.0803 11.5522 29.9804 11.5871C29.8654 11.6273 29.749 11.7001 29.6134 11.7849C29.4368 11.8954 29.2269 12.0267 28.9443 12.1333C28.8884 12.1544 28.8617 12.1485 28.8415 12.144C28.8272 12.1409 28.8159 12.1387 28.8002 12.1469C28.7822 12.1564 28.747 12.1803 28.7026 12.2106C28.5458 12.3174 28.2718 12.5039 28.2085 12.4223C28.1914 12.4002 28.1892 12.3649 28.1873 12.3332C28.1846 12.2865 28.1822 12.2477 28.133 12.2707C28.1144 12.2795 28.0945 12.2895 28.074 12.3002C28.063 12.2681 28.0519 12.236 28.0409 12.2039C28.0754 12.1346 28.0406 12.0854 27.997 12.0242C27.9864 12.0093 27.9754 11.9935 27.9647 11.9768C27.9434 11.9132 27.922 11.8496 27.9009 11.7859C27.8985 11.7271 27.9093 11.6567 27.9413 11.5707C28.0053 11.3983 28.1566 11.1931 28.3046 10.9925C28.367 10.9079 28.4289 10.8241 28.4833 10.7439C28.5009 10.7528 28.5192 10.7593 28.5401 10.7605C28.6825 10.7686 28.9016 10.6784 29.1032 10.5953C29.2373 10.54 29.3637 10.488 29.4545 10.4702C29.6207 10.4377 29.7802 10.3392 29.8982 10.2664C29.9594 10.2287 30.0096 10.1979 30.0436 10.1867C30.0708 10.1778 30.089 10.183 30.1078 10.1884C30.1242 10.193 30.1414 10.1978 30.1649 10.1935C30.4516 10.1414 30.5748 10.0362 30.754 9.88313C30.8528 9.7987 30.9689 9.69973 31.1388 9.58697C31.3199 9.46978 31.3764 9.44144 31.4764 9.44312C31.5485 9.35517 31.6207 9.26722 31.6928 9.17926C31.6789 9.16909 31.6153 9.19203 31.5112 9.23278C31.3252 9.30555 31.214 9.25715 31.127 9.21934C31.0868 9.20183 31.0517 9.18665 31.0168 9.18676C30.8313 9.1874 30.6505 9.32272 30.4915 9.44181C30.4039 9.50736 30.3229 9.56799 30.2513 9.59854C30.2207 9.61162 30.1951 9.63294 30.169 9.65463C30.1488 9.6714 30.1283 9.68848 30.105 9.70216C29.9355 9.80143 29.7819 9.82711 29.6394 9.85097C29.5577 9.86464 29.4795 9.8779 29.404 9.90385C29.3809 9.91176 29.358 9.92074 29.3358 9.92955C29.3033 9.94243 29.2724 9.95461 29.2441 9.96202C29.1796 9.97888 29.124 9.96912 29.0632 9.95829C29.0321 9.95274 28.9996 9.94694 28.9637 9.94438C28.9173 9.94106 28.8453 9.97177 28.7701 10.0038C28.7169 10.0264 28.6621 10.0496 28.6132 10.0622C28.5247 10.085 28.4725 10.0582 28.4241 10.0333C28.403 10.0224 28.3823 10.0121 28.3599 10.0062C28.3508 10.0038 28.3377 10.0078 28.3215 10.0163C28.2306 9.98196 28.1403 9.95119 28.0521 9.92143C27.6098 9.77225 27.2266 9.64333 27.168 9.15422C27.157 9.06175 27.1047 8.98578 27.0328 8.92C26.9509 8.62408 26.8712 8.32676 26.7933 8.02867C26.9172 7.88923 27.0099 7.7526 27.0684 7.62052C27.1781 7.37249 27.1364 7.20661 27.0872 7.01085C27.0508 6.86612 27.0104 6.70497 27.0239 6.4822C27.0467 6.10792 27.0377 5.74234 26.9353 5.38307C26.8333 5.02537 26.6846 4.6343 26.559 4.3694C26.4905 4.22498 26.544 4.00091 26.5937 3.79217C26.6635 3.49856 26.726 3.2352 26.4326 3.26584C26.3389 3.27566 26.1909 3.31827 26.047 3.35961C25.9446 3.38905 25.8445 3.41759 25.7669 3.43369C25.7541 3.36473 25.741 3.29583 25.7283 3.22671C25.825 3.03509 25.9003 2.78057 25.6386 2.72768C25.6259 2.65618 25.613 2.58471 25.6017 2.5151C25.5749 2.36433 25.5503 2.21592 25.5254 2.06622C25.5175 2.01724 25.5094 1.96785 25.5012 1.91831C25.5012 1.91782 25.5011 1.91733 25.5011 1.91685C25.4848 1.81713 25.4683 1.71667 25.4528 1.61747C25.4461 1.57501 25.4394 1.53255 25.4327 1.49009C25.4156 1.38221 25.3983 1.27363 25.3823 1.16637C25.3739 1.10955 25.3651 1.05237 25.3565 0.994946C25.3426 0.901787 25.3285 0.807959 25.3148 0.714409C25.2927 0.563128 25.2715 0.412101 25.2505 0.26062C25.2472 0.235793 25.2619 0.201573 25.2929 0.164757C25.3241 0.127907 25.3687 0.0914834 25.4195 0.0622001C25.4703 0.032911 25.5243 0.0124642 25.5716 0.00407661C25.6188 -0.00423745 25.6552 0.000444885 25.6748 0.0158607C25.7942 0.110634 25.913 0.205552 26.0316 0.301214C26.105 0.36033 26.1788 0.419646 26.2516 0.478785C26.2966 0.515249 26.3411 0.551744 26.3856 0.58776C26.4695 0.655877 26.5543 0.72568 26.6382 0.794969C26.6713 0.822198 26.7044 0.849427 26.7374 0.876655C26.8149 0.940383 26.8928 1.00566 26.9703 1.07038C26.9707 1.07077 26.9712 1.07117 26.9717 1.07156C27.0098 1.1034 27.0479 1.13515 27.0856 1.16655C27.2015 1.26382 27.3163 1.36024 27.4321 1.45962C27.493 1.51039 27.5549 1.56418 27.6167 1.61733C27.6512 1.64692 27.6856 1.6764 27.7196 1.70529C27.7379 1.72119 27.7564 1.7374 27.7749 1.7537C28.2056 2.125 28.6283 2.49659 29.047 2.87613C29.4647 3.25393 29.8768 3.63611 30.2823 4.02021C30.6885 4.40543 31.0883 4.79326 31.4829 5.18457C33.9879 7.66767 36.355 10.2461 38.4763 12.9681C38.7793 13.3561 39.0828 13.7586 39.3749 14.154C39.6697 14.5541 39.954 14.9484 40.2378 15.3562C40.3244 15.4799 40.4121 15.6073 40.5014 15.7384Z" fill="black"/>
</svg>
