<svg width="65" height="66" viewBox="0 0 65 66" fill="none" xmlns="http://www.w3.org/2000/svg">
<path d="M27.452 12.9419C29.1174 12.8441 30.7202 13.7669 32.3913 13.7687C34.4661 13.771 36.5739 12.8892 38.6536 13.0534C40.7212 13.2177 42.7988 13.4535 44.8698 13.7443C46.9431 14.0351 49.0134 14.3808 51.0878 14.7636C53.1577 15.1465 55.2322 15.5664 57.3037 16.0071C58.7108 16.3065 60.1195 16.6155 61.5264 16.9283C62.144 17.0655 62.7598 17.2032 63.3771 17.3414C63.8377 17.4448 64.2982 17.5482 64.7587 17.6515C64.8228 17.6661 64.8841 17.7252 64.9293 17.8191C64.9745 17.9131 65.0001 18.0334 65 18.1578C64.9999 18.2823 64.9742 18.4029 64.9288 18.4966C64.8835 18.59 64.822 18.6483 64.758 18.6623C64.2936 18.7624 63.8292 18.8625 63.3647 18.9627C62.8489 19.0737 62.334 19.185 61.8182 19.2953C61.7371 18.7849 61.6256 18.3977 61.4168 18.2267C61.3102 18.1395 61.1548 18.1032 61.0404 18.198C60.9377 18.2833 60.8603 18.4352 60.7868 18.58C60.7099 18.7315 60.6369 18.8753 60.543 18.9261C60.3837 19.0124 60.2322 19.2291 60.0731 19.4568C60.0153 19.5397 59.9563 19.6241 59.8956 19.7041C59.4034 19.8079 58.911 19.9109 58.4188 20.013C58.2286 19.9587 58.0538 19.9147 57.9055 19.9357C57.7725 19.9545 57.6507 20.0623 57.5294 20.1964C57.4532 20.2121 57.377 20.2277 57.3008 20.2433C56.809 20.3438 56.317 20.4427 55.8249 20.5407C55.441 20.4045 55.0387 20.2722 54.5155 20.2141C54.29 20.1891 54.0676 20.1154 53.8537 20.0447C53.5378 19.9403 53.2407 19.8422 52.9802 19.9156C52.806 19.9646 52.6228 19.8925 52.4401 19.8205C52.1951 19.724 51.9505 19.6277 51.7287 19.8242C51.5893 19.9477 51.4613 20.0979 51.3427 20.2372C51.154 20.4589 50.9891 20.6528 50.8398 20.6662C50.5594 20.6912 50.3165 20.8527 50.1024 20.9952C49.8449 21.1665 49.629 21.3103 49.4394 21.1554C49.4106 21.1319 49.3777 21.1007 49.3407 21.0652C49.1455 20.8782 48.8333 20.5791 48.3851 20.7435C48.2255 20.8021 48.0756 20.9543 47.9288 21.1036C47.7152 21.321 47.5076 21.532 47.2854 21.4381C47.2522 21.4241 47.2175 21.3652 47.186 21.3114C47.1458 21.243 47.1108 21.1833 47.09 21.2352C47.0291 21.3875 46.9324 21.5559 46.8274 21.7391C46.7503 21.8737 46.6685 22.0164 46.5931 22.1662C46.0173 22.2508 45.4414 22.3319 44.8654 22.4087C44.6015 22.4439 44.3375 22.4782 44.0734 22.5116C43.9383 22.2823 43.8002 22.0757 43.6544 21.9194C43.4637 21.7152 43.2165 21.6526 42.8978 21.5715C42.6634 21.5119 42.3901 21.4421 42.0722 21.2992C41.4835 21.0346 40.8789 21.094 40.4914 21.2358C40.4095 21.2658 40.3271 21.2979 40.239 21.3327C39.9048 21.4648 39.4879 21.6303 38.6958 21.8128C37.9465 21.9854 37.3093 22.0302 36.8306 22.0638C36.5863 22.081 36.3832 22.0948 36.2276 22.1217C35.9614 22.1677 35.6344 22.2087 35.3062 22.2496C34.7926 22.3137 34.2757 22.3779 33.9831 22.4635C33.879 22.494 33.7697 22.5317 33.6516 22.5719C33.3245 22.6836 32.9294 22.8183 32.3848 22.8961C31.8132 22.9778 31.4588 22.9221 31.0908 22.801C30.9411 22.7518 30.8092 22.5573 30.6732 22.3563C30.4803 22.071 30.279 21.7733 30.0067 21.8622C29.9431 21.8829 29.8753 21.9293 29.8044 21.9779C29.6741 22.0673 29.5331 22.1642 29.3888 22.1217C29.3385 22.1069 29.2941 22.0541 29.2507 22.0023C29.2029 21.9453 29.156 21.8896 29.1029 21.8865C28.9046 21.875 28.7116 21.8881 28.54 21.8999C28.3189 21.9152 28.1334 21.9278 28.0183 21.8817C27.8132 21.7993 27.5889 21.873 27.3618 21.9481C27.1883 22.0054 27.013 22.0637 26.8433 22.0529C26.3584 22.0218 25.6916 22.1624 25.0045 22.3965C24.7445 22.485 24.5242 22.3641 24.242 22.2088C24.0665 22.1123 23.8669 22.002 23.6189 21.9213C23.4783 21.8755 23.3592 21.9832 23.2489 22.0827C23.1474 22.1744 23.0532 22.2591 22.9566 22.2113C22.8713 22.1689 22.8174 21.9879 22.7662 21.8159C22.7092 21.6244 22.6556 21.4444 22.5658 21.4795C22.5181 21.4982 22.4601 21.5888 22.391 21.6964C22.3637 21.739 22.3346 21.784 22.3037 21.8286C22.3053 21.7919 22.3057 21.7591 22.3057 21.7342C22.3058 21.5585 22.2143 21.466 22.1245 21.3754C22.0886 21.3392 22.0529 21.3034 22.0236 21.2626C21.9156 21.1125 21.7111 21.0881 21.5549 21.0951C21.4888 21.098 21.4289 21.0435 21.359 20.9799C21.297 20.9235 21.227 20.8598 21.1379 20.8228C21.087 20.8016 21.0479 20.7507 21.0156 20.7082C20.9922 20.6774 20.9723 20.6511 20.9539 20.6442C20.9379 20.6383 20.925 20.6887 20.9105 20.7454C20.9 20.7862 20.8887 20.8304 20.8748 20.8593C20.8415 20.9283 20.7987 20.9491 20.7687 20.9269C20.7548 20.9167 20.7438 20.8971 20.733 20.8776C20.7203 20.8549 20.7077 20.832 20.6903 20.824C20.6106 20.7873 20.5331 20.8447 20.4525 20.9044C20.364 20.97 20.2716 21.0381 20.1689 20.9873C20.1365 20.9712 20.102 20.9345 20.0687 20.8989C20.0338 20.8616 19.9998 20.8256 19.971 20.816C19.8539 20.7771 19.7437 20.9028 19.6425 21.0183C19.5751 21.0952 19.5115 21.1675 19.4525 21.184C19.3444 21.2143 19.2863 21.3651 19.2435 21.4765C19.2213 21.5342 19.2032 21.5816 19.1842 21.5959C19.1668 21.5917 19.1492 21.5867 19.1319 21.5813C19.1161 21.5702 19.0997 21.5587 19.0843 21.5624C19.0831 21.5627 19.082 21.5633 19.0808 21.5636C18.9841 21.5271 18.8891 21.4752 18.7947 21.4235C18.5826 21.3073 18.3732 21.1923 18.1517 21.2572C18.104 21.2711 18.0554 21.3334 18.006 21.3967C17.9454 21.4742 17.8834 21.5535 17.8202 21.5478C17.6697 21.5342 17.5178 21.4315 17.3682 21.3303C17.1432 21.1781 16.9232 21.0294 16.7211 21.1926C16.6543 21.2464 16.5892 21.3361 16.5239 21.4265C16.4875 21.4769 16.451 21.5277 16.4141 21.5721C16.4219 21.4897 16.4261 21.4122 16.43 21.34C16.438 21.1912 16.4449 21.0638 16.4803 20.9556C16.564 20.6998 16.6589 20.3478 16.6484 20.091C16.6455 20.0213 16.6479 19.9437 16.6504 19.8656C16.6567 19.6696 16.6632 19.4693 16.5854 19.3788C16.533 19.3178 16.3983 19.1777 16.3127 19.3276C16.294 19.3603 16.2827 19.425 16.27 19.497C16.2473 19.6263 16.2203 19.7794 16.1391 19.815C16.1254 19.821 16.1106 19.8264 16.0952 19.8315C16.034 19.8516 15.9654 19.8738 15.9397 19.9777C15.9102 20.0974 15.9165 20.2346 15.9239 20.3944C15.9334 20.6027 15.9448 20.85 15.8812 21.1481C15.8686 21.207 15.8446 21.2272 15.8264 21.2425C15.8136 21.2533 15.8039 21.262 15.8029 21.2797C15.8018 21.3001 15.8059 21.3424 15.8111 21.3961C15.8294 21.5852 15.8613 21.9158 15.7282 21.9298C15.6923 21.9335 15.6511 21.9178 15.6142 21.9036C15.5598 21.8826 15.5146 21.8653 15.5086 21.9194C15.5063 21.9399 15.5047 21.9622 15.5033 21.9852C15.46 21.9787 15.4167 21.9722 15.3734 21.9657C15.3179 21.9013 15.2399 21.9068 15.1426 21.9139C15.119 21.9157 15.0941 21.9173 15.0682 21.9182C14.9827 21.9049 14.8972 21.8916 14.8118 21.878C14.7441 21.8507 14.6719 21.8061 14.5958 21.7354C14.4433 21.5938 14.3106 21.3601 14.181 21.1316C14.1264 21.0354 14.0722 20.9398 14.0174 20.8526C14.0387 20.8419 14.058 20.8292 14.0729 20.8118C14.1746 20.6924 14.2154 20.4576 14.2529 20.2415C14.2779 20.0978 14.3014 19.9622 14.3404 19.8747C14.4119 19.7145 14.4047 19.5271 14.3995 19.3885C14.3967 19.3167 14.3947 19.2578 14.4042 19.2228C14.4118 19.1948 14.4295 19.1816 14.4478 19.168C14.4637 19.1561 14.4802 19.1437 14.4907 19.1211C14.6184 18.8467 14.58 18.6875 14.5242 18.4558C14.4934 18.3279 14.4574 18.178 14.4409 17.9744C14.4267 17.759 14.4315 17.6959 14.4984 17.6101C14.4462 17.5037 14.3941 17.3973 14.3419 17.2908C14.3215 17.2978 14.306 17.3643 14.2842 17.4748C14.2452 17.6723 14.1184 17.7444 14.0193 17.8008C13.9735 17.8269 13.9335 17.8497 13.911 17.88C13.7911 18.041 13.826 18.2652 13.8567 18.4625C13.8736 18.571 13.8892 18.6715 13.877 18.7488C13.8719 18.7819 13.8792 18.8147 13.8867 18.8481C13.8924 18.874 13.8983 18.9003 13.8986 18.9273C13.9002 19.1238 13.8292 19.2696 13.7635 19.405C13.7258 19.4825 13.6898 19.5569 13.67 19.6353C13.6639 19.6592 13.6591 19.6835 13.6546 19.7072C13.648 19.7417 13.6416 19.7746 13.6315 19.8028C13.6086 19.8671 13.5615 19.9104 13.5098 19.9576C13.4833 19.9818 13.4556 20.0071 13.4295 20.0368C13.3956 20.0753 13.3833 20.153 13.3704 20.2342C13.3613 20.2916 13.3518 20.3506 13.3342 20.3993C13.3025 20.4873 13.2383 20.5191 13.1788 20.5486C13.1528 20.5614 13.1278 20.5742 13.1066 20.5906C13.098 20.5973 13.0939 20.6107 13.093 20.629C12.9952 20.6905 12.9019 20.7533 12.8111 20.8148C12.3556 21.1233 11.9614 21.3907 11.3727 21.1968C11.2614 21.1602 11.1418 21.1675 11.0211 21.1968C10.6347 21.1198 10.2481 21.0402 9.86189 20.9586C9.78544 20.7816 9.69192 20.6329 9.58121 20.5163C9.37328 20.2973 9.1594 20.2505 8.90702 20.1952C8.72042 20.1544 8.51276 20.1087 8.27077 19.9856C7.86419 19.7788 7.44674 19.6038 6.9757 19.5128C6.50671 19.4223 5.96976 19.3556 5.58988 19.3319C5.3828 19.319 5.16528 19.1606 4.96256 19.0132C4.6774 18.8059 4.42153 18.6201 4.26531 18.8896C4.21542 18.9757 4.16719 19.1251 4.12026 19.2703C4.08683 19.3738 4.05386 19.4748 4.02157 19.55C3.93559 19.5266 3.84951 19.5035 3.76345 19.4799C3.61056 19.3004 3.37298 19.1079 3.14332 19.3081C3.05455 19.2834 2.96574 19.2588 2.87999 19.2338C2.69288 19.1816 2.5098 19.1287 2.32507 19.0754C2.26477 19.0578 2.20387 19.0401 2.14282 19.0224C2.14224 19.0222 2.14166 19.022 2.14109 19.0218C2.0182 18.9861 1.89439 18.9501 1.77263 18.9139C1.72047 18.8985 1.66832 18.8831 1.61617 18.8676C1.48363 18.8285 1.35014 18.7891 1.21894 18.7494C1.14951 18.7283 1.0794 18.7073 1.00917 18.6861C0.895246 18.6515 0.780456 18.6168 0.666253 18.5819C0.481563 18.5254 0.297739 18.4683 0.113563 18.4107C0.0834428 18.4012 0.054498 18.3713 0.0332259 18.326C0.0119615 18.2806 -3.25076e-05 18.2238 6.61706e-08 18.1651C4.1714e-05 18.1065 0.0121371 18.0495 0.0334739 18.0043C0.0547965 17.9593 0.0837118 17.9301 0.113811 17.9208C0.298118 17.8648 0.482177 17.8094 0.666997 17.7545C0.781221 17.7205 0.895969 17.6863 1.00992 17.6528C1.08018 17.6321 1.15022 17.6117 1.21969 17.5912C1.3509 17.5526 1.48461 17.5141 1.61716 17.4761C1.66931 17.461 1.72146 17.446 1.77362 17.431C1.89571 17.3958 2.01986 17.3609 2.14307 17.3262C2.14381 17.326 2.14456 17.3258 2.1453 17.3256C2.20592 17.3085 2.26643 17.2914 2.32631 17.2744C2.51112 17.2227 2.69429 17.1715 2.88148 17.1209C2.97819 17.0935 3.07898 17.0668 3.17902 17.0398C3.23472 17.0248 3.29032 17.0097 3.3449 16.9947C3.37475 16.9868 3.405 16.9789 3.43541 16.971C4.13337 16.7837 4.82643 16.6034 5.52591 16.4306C6.22278 16.2577 6.92088 16.0919 7.61691 15.9328C8.31462 15.7736 9.0111 15.6214 9.70816 15.4752C14.132 14.5474 18.5735 13.7866 23.0169 13.3105C23.6506 13.2422 24.301 13.1805 24.936 13.1253C25.578 13.07 26.2068 13.021 26.8505 12.9791C27.046 12.966 27.2464 12.9537 27.452 12.9419Z" fill="black"/>
<path d="M15.0073 44.8177C14.9095 43.5366 15.8323 42.3037 15.834 41.0183C15.8363 39.4223 14.9545 37.8009 15.1188 36.2011C15.283 34.6107 15.5189 33.0125 15.8097 31.4194C16.1005 29.8246 16.4461 28.2321 16.829 26.6364C17.2118 25.0441 17.6318 23.4484 18.0725 21.8549C18.3718 20.7725 18.6808 19.6889 18.9937 18.6067C19.1308 18.1316 19.2685 17.6579 19.4068 17.183C19.5101 16.8288 19.6135 16.4745 19.7169 16.1202C19.7314 16.071 19.7906 16.0238 19.8844 15.989C19.9784 15.9542 20.0988 15.9346 20.2232 15.9347C20.3476 15.9347 20.4682 15.9545 20.5619 15.9894C20.6553 16.0243 20.7136 16.0716 20.7276 16.1208C20.8278 16.4781 20.9279 16.8353 21.028 17.1926C21.1391 17.5894 21.2503 17.9855 21.3607 18.3822C20.8502 18.4446 20.463 18.5303 20.292 18.691C20.2048 18.7729 20.1685 18.8925 20.2634 18.9805C20.3486 19.0595 20.5006 19.1191 20.6454 19.1756C20.7969 19.2347 20.9407 19.2909 20.9915 19.3631C21.0777 19.4857 21.2944 19.6022 21.5221 19.7245C21.605 19.7691 21.6894 19.8144 21.7695 19.8611C21.8733 20.2398 21.9763 20.6185 22.0784 20.9971C22.024 21.1434 21.9801 21.2779 22.001 21.3919C22.0198 21.4943 22.1276 21.588 22.2618 21.6813C22.2774 21.7399 22.293 21.7985 22.3087 21.8571C22.4092 22.2355 22.508 22.6139 22.606 22.9924C22.4698 23.2877 22.3375 23.5972 22.2794 23.9997C22.2544 24.1731 22.1807 24.3442 22.1101 24.5087C22.0057 24.7517 21.9075 24.9803 21.9809 25.1807C22.0299 25.3146 21.9578 25.4556 21.8858 25.5961C21.7894 25.7846 21.693 25.9728 21.8895 26.1433C22.0131 26.2506 22.1633 26.3491 22.3026 26.4403C22.5243 26.5854 22.7181 26.7123 22.7315 26.8271C22.7566 27.0428 22.9181 27.2297 23.0605 27.3944C23.2318 27.5924 23.3756 27.7585 23.2207 27.9044C23.1973 27.9265 23.1661 27.9518 23.1306 27.9803C22.9436 28.1305 22.6445 28.3706 22.8089 28.7154C22.8674 28.8381 23.0196 28.9534 23.169 29.0663C23.3863 29.2307 23.5974 29.3903 23.5034 29.5613C23.4894 29.5868 23.4305 29.6135 23.3767 29.6378C23.3083 29.6686 23.2486 29.6956 23.3006 29.7116C23.4529 29.7584 23.6212 29.8328 23.8044 29.9136C23.939 29.9729 24.0817 30.0358 24.2315 30.0938C24.3162 30.5367 24.3972 30.9797 24.474 31.4228C24.5092 31.6258 24.5435 31.8289 24.577 32.0321C24.3477 32.1359 24.1411 32.2422 23.9848 32.3544C23.7805 32.5011 23.7179 32.6912 23.6369 32.9363C23.5772 33.1167 23.5075 33.3269 23.3645 33.5715C23.1 34.0242 23.1593 34.4893 23.3012 34.7874C23.3312 34.8504 23.3632 34.9138 23.398 34.9816C23.5302 35.2386 23.6956 35.5594 23.8781 36.1687C24.0508 36.745 24.0955 37.2352 24.1292 37.6034C24.1463 37.7913 24.1601 37.9476 24.187 38.0673C24.2331 38.2721 24.274 38.5236 24.315 38.776C24.3791 39.1711 24.4433 39.5687 24.5288 39.7938C24.5593 39.8739 24.597 39.958 24.6373 40.0488C24.7489 40.3004 24.8836 40.6043 24.9614 41.0233C25.0431 41.463 24.9874 41.7356 24.8664 42.0187C24.8172 42.1338 24.6226 42.2353 24.4216 42.3399C24.1364 42.4883 23.8387 42.6431 23.9275 42.8526C23.9482 42.9015 23.9946 42.9537 24.0433 43.0082C24.1326 43.1085 24.2295 43.2169 24.187 43.3279C24.1722 43.3666 24.1194 43.4007 24.0676 43.4341C24.0107 43.4709 23.955 43.507 23.9519 43.5478C23.9403 43.7004 23.9535 43.8489 23.9653 43.9808C23.9805 44.1509 23.9932 44.2936 23.947 44.3821C23.8646 44.5399 23.9383 44.7124 24.0134 44.8871C24.0707 45.0206 24.129 45.1554 24.1182 45.286C24.0872 45.659 24.2277 46.1719 24.4618 46.7005C24.5503 46.9004 24.4294 47.0699 24.2742 47.287C24.1776 47.422 24.0673 47.5755 23.9866 47.7663C23.9408 47.8744 24.0485 47.966 24.148 48.0509C24.2397 48.129 24.3245 48.2014 24.2766 48.2757C24.2343 48.3413 24.0532 48.3828 23.8812 48.4222C23.6898 48.4661 23.5098 48.5073 23.5449 48.5763C23.5636 48.613 23.6542 48.6577 23.7618 48.7108C23.8043 48.7318 23.8494 48.7542 23.894 48.7779C23.8573 48.7767 23.8244 48.7764 23.7995 48.7764C23.6239 48.7763 23.5313 48.8467 23.4407 48.9158C23.4045 48.9434 23.3688 48.9709 23.328 48.9935C23.1779 49.0765 23.1535 49.2338 23.1604 49.354C23.1633 49.4048 23.1089 49.4509 23.0453 49.5046C22.9888 49.5524 22.9251 49.6062 22.8881 49.6748C22.867 49.7139 22.8161 49.744 22.7735 49.7688C22.7428 49.7868 22.7165 49.8021 22.7096 49.8163C22.7036 49.8286 22.754 49.8385 22.8107 49.8497C22.8515 49.8577 22.8958 49.8664 22.9246 49.8771C22.9936 49.9028 23.0144 49.9357 22.9923 49.9588C22.982 49.9694 22.9624 49.9779 22.9429 49.9862C22.9202 49.996 22.8973 50.0057 22.8893 50.019C22.8526 50.0804 22.9101 50.14 22.9697 50.202C23.0353 50.2701 23.1034 50.3411 23.0526 50.4202C23.0366 50.445 22.9999 50.4715 22.9642 50.4972C22.927 50.5241 22.891 50.5502 22.8814 50.5724C22.8425 50.6625 22.9681 50.7472 23.0837 50.8251C23.1605 50.8769 23.2328 50.9258 23.2494 50.9712C23.2797 51.0544 23.4305 51.099 23.5418 51.132C23.5995 51.149 23.6469 51.163 23.6612 51.1776C23.657 51.1909 23.6521 51.2045 23.6466 51.2178C23.6355 51.23 23.6241 51.2426 23.6277 51.2544C23.628 51.2553 23.6287 51.2562 23.629 51.2571C23.5924 51.3315 23.5405 51.4046 23.4888 51.4772C23.3727 51.6403 23.2577 51.8014 23.3225 51.9718C23.3365 52.0085 23.3987 52.0459 23.462 52.0839C23.5395 52.1305 23.6188 52.1782 23.6131 52.2268C23.5995 52.3425 23.4968 52.4594 23.3956 52.5745C23.2434 52.7476 23.0948 52.9168 23.2579 53.0723C23.3118 53.1236 23.4015 53.1737 23.4919 53.2239C23.5423 53.2519 23.5931 53.2801 23.6375 53.3084C23.555 53.3024 23.4776 53.2992 23.4054 53.2962C23.2565 53.2901 23.1291 53.2848 23.0209 53.2575C22.7652 53.1931 22.4131 53.1201 22.1564 53.1282C22.0867 53.1304 22.0091 53.1286 21.9309 53.1267C21.7349 53.1218 21.5347 53.1168 21.4441 53.1766C21.3831 53.217 21.243 53.3206 21.393 53.3865C21.4256 53.4008 21.4904 53.4095 21.5623 53.4193C21.6916 53.4367 21.8447 53.4575 21.8804 53.52C21.8864 53.5305 21.8918 53.5419 21.8968 53.5537C21.9169 53.6008 21.9391 53.6536 22.043 53.6733C22.1628 53.696 22.2999 53.6912 22.4598 53.6855C22.668 53.6782 22.9153 53.6694 23.2134 53.7183C23.2724 53.728 23.2926 53.7465 23.3079 53.7605C23.3187 53.7703 23.3273 53.7778 23.345 53.7786C23.3654 53.7794 23.4078 53.7763 23.4614 53.7723C23.6506 53.7582 23.9811 53.7337 23.9951 53.836C23.9989 53.8637 23.9831 53.8954 23.9689 53.9238C23.948 53.9656 23.9307 54.0003 23.9848 54.005C24.0053 54.0067 24.0275 54.008 24.0506 54.009C24.0441 54.0423 24.0376 54.0756 24.0311 54.109C23.9666 54.1517 23.9721 54.2117 23.9793 54.2865C23.981 54.3047 23.9826 54.3238 23.9835 54.3437C23.9702 54.4095 23.9569 54.4752 23.9433 54.541C23.916 54.5931 23.8715 54.6485 23.8008 54.7071C23.6591 54.8244 23.4255 54.9265 23.197 55.0262C23.1007 55.0682 23.0052 55.1099 22.9179 55.1521C22.9072 55.1356 22.8946 55.1208 22.8771 55.1094C22.7578 55.0311 22.523 54.9997 22.3069 54.9709C22.1631 54.9517 22.0275 54.9336 21.9401 54.9036C21.7798 54.8486 21.5924 54.8541 21.4539 54.8582C21.382 54.8603 21.3231 54.8618 21.2882 54.8545C21.2601 54.8486 21.247 54.835 21.2333 54.821C21.2214 54.8087 21.209 54.7961 21.1864 54.788C20.9121 54.6897 20.7529 54.7193 20.5211 54.7622C20.3933 54.7859 20.2433 54.8136 20.0398 54.8263C19.8243 54.8372 19.7613 54.8335 19.6754 54.7821C19.569 54.8222 19.4626 54.8623 19.3562 54.9024C19.3631 54.9181 19.4296 54.9301 19.5402 54.9468C19.7376 54.9768 19.8098 55.0743 19.8661 55.1506C19.8922 55.1858 19.9151 55.2166 19.9453 55.2339C20.1063 55.3261 20.3305 55.2993 20.5278 55.2757C20.6364 55.2627 20.7369 55.2507 20.8142 55.26C20.8472 55.264 20.88 55.2583 20.9135 55.2526C20.9393 55.2482 20.9656 55.2436 20.9927 55.2434C21.1891 55.2422 21.3349 55.2968 21.4703 55.3474C21.5479 55.3764 21.6223 55.404 21.7006 55.4193C21.7245 55.424 21.7489 55.4277 21.7725 55.4311C21.8071 55.4362 21.84 55.4411 21.8682 55.4489C21.9324 55.4665 21.9757 55.5028 22.0229 55.5425C22.0471 55.5629 22.0724 55.5842 22.1021 55.6043C22.1407 55.6304 22.2184 55.6398 22.2995 55.6497C22.3569 55.6567 22.416 55.6641 22.4647 55.6776C22.5527 55.702 22.5844 55.7513 22.6139 55.7971C22.6268 55.8171 22.6395 55.8364 22.656 55.8526C22.6627 55.8593 22.676 55.8624 22.6943 55.8631C22.7558 55.9383 22.8186 56.0101 22.8802 56.08C23.1886 56.4303 23.456 56.7336 23.2622 57.1865C23.2255 57.2721 23.2328 57.364 23.2622 57.4569C23.1851 57.7541 23.1056 58.0515 23.024 58.3486C22.8469 58.4074 22.6983 58.4793 22.5816 58.5645C22.3626 58.7244 22.3158 58.889 22.2605 59.0831C22.2197 59.2266 22.1741 59.3864 22.051 59.5725C21.8441 59.8853 21.6691 60.2064 21.5782 60.5687C21.4876 60.9295 21.4209 61.3425 21.3972 61.6348C21.3843 61.794 21.2259 61.9614 21.0786 62.1173C20.8713 62.3367 20.6855 62.5335 20.9549 62.6537C21.041 62.692 21.1905 62.7291 21.3357 62.7652C21.4391 62.7909 21.5401 62.8163 21.6153 62.8411C21.592 62.9073 21.5689 62.9735 21.5453 63.0397C21.3657 63.1573 21.1732 63.3401 21.3735 63.5167C21.3487 63.585 21.3241 63.6533 21.2991 63.7193C21.2469 63.8632 21.194 64.004 21.1407 64.1461C21.1231 64.1925 21.1055 64.2394 21.0877 64.2863C21.0875 64.2868 21.0873 64.2872 21.0871 64.2877C21.0514 64.3822 21.0154 64.4774 20.9793 64.5711C20.9638 64.6112 20.9484 64.6513 20.933 64.6915C20.8938 64.7934 20.8545 64.8961 20.8148 64.997C20.7936 65.0504 20.7727 65.1044 20.7514 65.1584C20.7169 65.246 20.6822 65.3343 20.6472 65.4222C20.5907 65.5642 20.5336 65.7056 20.476 65.8473C20.4665 65.8705 20.4366 65.8927 20.3913 65.9091C20.346 65.9255 20.2891 65.9347 20.2305 65.9347C20.1718 65.9346 20.1148 65.9253 20.0696 65.9089C20.0246 65.8925 19.9954 65.8703 19.9862 65.8471C19.9302 65.7053 19.8748 65.5638 19.8198 65.4216C19.7859 65.3337 19.7516 65.2455 19.7181 65.1578C19.6974 65.1038 19.6771 65.0499 19.6566 64.9964C19.618 64.8955 19.5794 64.7927 19.5414 64.6907C19.5264 64.6506 19.5113 64.6105 19.4963 64.5703C19.4611 64.4764 19.4263 64.3809 19.3915 64.2861C19.3913 64.2856 19.3911 64.285 19.3909 64.2844C19.3738 64.2378 19.3567 64.1913 19.3397 64.1452C19.288 64.003 19.2368 63.8621 19.1862 63.7181C19.1589 63.6437 19.1322 63.5662 19.1052 63.4893C19.0901 63.4464 19.075 63.4036 19.0601 63.3617C19.0521 63.3387 19.0442 63.3154 19.0363 63.292C18.849 62.7551 18.6688 62.222 18.4959 61.684C18.323 61.1479 18.1573 60.6109 17.9981 60.0755C17.839 59.5388 17.6867 59.003 17.5406 58.4668C16.6127 55.0639 15.852 51.6474 15.3759 48.2294C15.3075 47.7419 15.2459 47.2416 15.1906 46.7531C15.1354 46.2593 15.0863 45.7756 15.0444 45.2804C15.0313 45.1301 15.019 44.9759 15.0073 44.8177Z" fill="black"/>
<path d="M41.0073 44.8177C40.9095 43.5366 41.8323 42.3037 41.834 41.0183C41.8363 39.4223 40.9545 37.8009 41.1188 36.2011C41.283 34.6107 41.5189 33.0125 41.8097 31.4194C42.1005 29.8246 42.4461 28.2321 42.829 26.6364C43.2118 25.0441 43.6318 23.4484 44.0725 21.8549C44.3718 20.7725 44.6808 19.6889 44.9937 18.6067C45.1308 18.1316 45.2685 17.6579 45.4068 17.183C45.5101 16.8288 45.6135 16.4745 45.7169 16.1202C45.7314 16.071 45.7906 16.0238 45.8844 15.989C45.9784 15.9542 46.0988 15.9346 46.2232 15.9347C46.3476 15.9347 46.4682 15.9545 46.5619 15.9894C46.6553 16.0243 46.7136 16.0716 46.7276 16.1208C46.8278 16.4781 46.9279 16.8353 47.028 17.1926C47.1391 17.5894 47.2503 17.9855 47.3607 18.3822C46.8502 18.4446 46.463 18.5303 46.292 18.691C46.2048 18.7729 46.1685 18.8925 46.2634 18.9805C46.3486 19.0595 46.5006 19.1191 46.6454 19.1756C46.7969 19.2347 46.9407 19.2909 46.9915 19.3631C47.0777 19.4857 47.2944 19.6022 47.5221 19.7245C47.605 19.7691 47.6894 19.8144 47.7695 19.8611C47.8733 20.2398 47.9763 20.6185 48.0784 20.9971C48.024 21.1434 47.9801 21.2779 48.001 21.3919C48.0198 21.4943 48.1276 21.588 48.2618 21.6813C48.2774 21.7399 48.293 21.7985 48.3087 21.8571C48.4092 22.2355 48.508 22.6139 48.606 22.9924C48.4698 23.2877 48.3375 23.5972 48.2794 23.9997C48.2544 24.1731 48.1807 24.3442 48.1101 24.5087C48.0057 24.7517 47.9075 24.9803 47.9809 25.1807C48.0299 25.3146 47.9578 25.4556 47.8858 25.5961C47.7894 25.7846 47.693 25.9728 47.8895 26.1433C48.0131 26.2506 48.1633 26.3491 48.3026 26.4403C48.5243 26.5854 48.7181 26.7123 48.7315 26.8271C48.7566 27.0428 48.9181 27.2297 49.0605 27.3944C49.2318 27.5924 49.3756 27.7585 49.2207 27.9044C49.1973 27.9265 49.1661 27.9518 49.1306 27.9803C48.9436 28.1305 48.6445 28.3706 48.8089 28.7154C48.8674 28.8381 49.0196 28.9534 49.169 29.0663C49.3863 29.2307 49.5974 29.3903 49.5034 29.5613C49.4894 29.5868 49.4305 29.6135 49.3767 29.6378C49.3083 29.6686 49.2486 29.6956 49.3006 29.7116C49.4529 29.7584 49.6212 29.8328 49.8044 29.9136C49.939 29.9729 50.0817 30.0358 50.2315 30.0938C50.3162 30.5367 50.3972 30.9797 50.474 31.4228C50.5092 31.6258 50.5435 31.8289 50.577 32.0321C50.3477 32.1359 50.1411 32.2422 49.9848 32.3544C49.7805 32.5011 49.7179 32.6912 49.6369 32.9363C49.5772 33.1167 49.5075 33.3269 49.3645 33.5715C49.1 34.0242 49.1593 34.4893 49.3012 34.7874C49.3312 34.8504 49.3632 34.9138 49.398 34.9816C49.5302 35.2386 49.6956 35.5594 49.8781 36.1687C50.0508 36.745 50.0955 37.2352 50.1292 37.6034C50.1463 37.7913 50.1601 37.9476 50.187 38.0673C50.2331 38.2721 50.274 38.5236 50.315 38.776C50.3791 39.1711 50.4433 39.5687 50.5288 39.7938C50.5593 39.8739 50.597 39.958 50.6373 40.0488C50.7489 40.3004 50.8836 40.6043 50.9614 41.0233C51.0431 41.463 50.9874 41.7356 50.8664 42.0187C50.8172 42.1338 50.6226 42.2353 50.4216 42.3399C50.1364 42.4883 49.8387 42.6431 49.9275 42.8526C49.9482 42.9015 49.9946 42.9537 50.0433 43.0082C50.1326 43.1085 50.2295 43.2169 50.187 43.3279C50.1722 43.3666 50.1194 43.4007 50.0676 43.4341C50.0107 43.4709 49.955 43.507 49.9519 43.5478C49.9403 43.7004 49.9535 43.8489 49.9653 43.9808C49.9805 44.1509 49.9932 44.2936 49.947 44.3821C49.8646 44.5399 49.9383 44.7124 50.0134 44.8871C50.0707 45.0206 50.129 45.1554 50.1182 45.286C50.0872 45.659 50.2277 46.1719 50.4618 46.7005C50.5503 46.9004 50.4294 47.0699 50.2742 47.287C50.1776 47.422 50.0673 47.5755 49.9866 47.7663C49.9408 47.8744 50.0485 47.966 50.148 48.0509C50.2397 48.129 50.3245 48.2014 50.2766 48.2757C50.2343 48.3413 50.0532 48.3828 49.8812 48.4222C49.6898 48.4661 49.5098 48.5073 49.5449 48.5763C49.5636 48.613 49.6542 48.6577 49.7618 48.7108C49.8043 48.7318 49.8494 48.7542 49.894 48.7779C49.8573 48.7767 49.8244 48.7764 49.7995 48.7764C49.6239 48.7763 49.5313 48.8467 49.4407 48.9158C49.4045 48.9434 49.3688 48.9709 49.328 48.9935C49.1779 49.0765 49.1535 49.2338 49.1604 49.354C49.1633 49.4048 49.1089 49.4509 49.0453 49.5046C48.9888 49.5524 48.9251 49.6062 48.8881 49.6748C48.867 49.7139 48.8161 49.744 48.7735 49.7688C48.7428 49.7868 48.7165 49.8021 48.7096 49.8163C48.7036 49.8286 48.754 49.8385 48.8107 49.8497C48.8515 49.8577 48.8958 49.8664 48.9246 49.8771C48.9936 49.9028 49.0144 49.9357 48.9923 49.9588C48.982 49.9694 48.9624 49.9779 48.9429 49.9862C48.9202 49.996 48.8973 50.0057 48.8893 50.019C48.8526 50.0804 48.9101 50.14 48.9697 50.202C49.0353 50.2701 49.1034 50.3411 49.0526 50.4202C49.0366 50.445 48.9999 50.4715 48.9642 50.4972C48.927 50.5241 48.891 50.5502 48.8814 50.5724C48.8425 50.6625 48.9681 50.7472 49.0837 50.8251C49.1605 50.8769 49.2328 50.9258 49.2494 50.9712C49.2797 51.0544 49.4305 51.099 49.5418 51.132C49.5995 51.149 49.6469 51.163 49.6612 51.1776C49.657 51.1909 49.6521 51.2045 49.6466 51.2178C49.6355 51.23 49.6241 51.2426 49.6277 51.2544C49.628 51.2553 49.6287 51.2562 49.629 51.2571C49.5924 51.3315 49.5405 51.4046 49.4888 51.4772C49.3727 51.6403 49.2577 51.8014 49.3225 51.9718C49.3365 52.0085 49.3987 52.0459 49.462 52.0839C49.5395 52.1305 49.6188 52.1782 49.6131 52.2268C49.5995 52.3425 49.4968 52.4594 49.3956 52.5745C49.2434 52.7476 49.0948 52.9168 49.2579 53.0723C49.3118 53.1236 49.4015 53.1737 49.4919 53.2239C49.5423 53.2519 49.5931 53.2801 49.6375 53.3084C49.555 53.3024 49.4776 53.2992 49.4054 53.2962C49.2565 53.2901 49.1291 53.2848 49.0209 53.2575C48.7652 53.1931 48.4131 53.1201 48.1564 53.1282C48.0867 53.1304 48.0091 53.1286 47.9309 53.1267C47.7349 53.1218 47.5347 53.1168 47.4441 53.1766C47.3831 53.217 47.243 53.3206 47.393 53.3865C47.4256 53.4008 47.4904 53.4095 47.5623 53.4193C47.6916 53.4367 47.8447 53.4575 47.8804 53.52C47.8864 53.5305 47.8918 53.5419 47.8968 53.5537C47.9169 53.6008 47.9391 53.6536 48.043 53.6733C48.1628 53.696 48.2999 53.6912 48.4598 53.6855C48.668 53.6782 48.9153 53.6694 49.2134 53.7183C49.2724 53.728 49.2926 53.7465 49.3079 53.7605C49.3187 53.7703 49.3273 53.7778 49.345 53.7786C49.3654 53.7794 49.4078 53.7763 49.4614 53.7723C49.6506 53.7582 49.9811 53.7337 49.9951 53.836C49.9989 53.8637 49.9831 53.8954 49.9689 53.9238C49.948 53.9656 49.9307 54.0003 49.9848 54.005C50.0053 54.0067 50.0275 54.008 50.0506 54.009C50.0441 54.0423 50.0376 54.0756 50.0311 54.109C49.9666 54.1517 49.9721 54.2117 49.9793 54.2865C49.981 54.3047 49.9826 54.3238 49.9835 54.3437C49.9702 54.4095 49.9569 54.4752 49.9433 54.541C49.916 54.5931 49.8715 54.6485 49.8008 54.7071C49.6591 54.8244 49.4255 54.9265 49.197 55.0262C49.1007 55.0682 49.0052 55.1099 48.9179 55.1521C48.9072 55.1356 48.8946 55.1208 48.8771 55.1094C48.7578 55.0311 48.523 54.9997 48.3069 54.9709C48.1631 54.9517 48.0275 54.9336 47.9401 54.9036C47.7798 54.8486 47.5924 54.8541 47.4539 54.8582C47.382 54.8603 47.3231 54.8618 47.2882 54.8545C47.2601 54.8486 47.247 54.835 47.2333 54.821C47.2214 54.8087 47.209 54.7961 47.1864 54.788C46.9121 54.6897 46.7529 54.7193 46.5211 54.7622C46.3933 54.7859 46.2433 54.8136 46.0398 54.8263C45.8243 54.8372 45.7613 54.8335 45.6754 54.7821C45.569 54.8222 45.4626 54.8623 45.3562 54.9024C45.3631 54.9181 45.4296 54.9301 45.5402 54.9468C45.7376 54.9768 45.8098 55.0743 45.8661 55.1506C45.8922 55.1858 45.9151 55.2166 45.9453 55.2339C46.1063 55.3261 46.3305 55.2993 46.5278 55.2757C46.6364 55.2627 46.7369 55.2507 46.8142 55.26C46.8472 55.264 46.88 55.2583 46.9135 55.2526C46.9393 55.2482 46.9656 55.2436 46.9927 55.2434C47.1891 55.2422 47.3349 55.2968 47.4703 55.3474C47.5479 55.3764 47.6223 55.404 47.7006 55.4193C47.7245 55.424 47.7489 55.4277 47.7725 55.4311C47.8071 55.4362 47.84 55.4411 47.8682 55.4489C47.9324 55.4665 47.9757 55.5028 48.0229 55.5425C48.0471 55.5629 48.0724 55.5842 48.1021 55.6043C48.1407 55.6304 48.2184 55.6398 48.2995 55.6497C48.3569 55.6567 48.416 55.6641 48.4647 55.6776C48.5527 55.702 48.5844 55.7513 48.6139 55.7971C48.6268 55.8171 48.6395 55.8364 48.656 55.8526C48.6627 55.8593 48.676 55.8624 48.6943 55.8631C48.7558 55.9383 48.8186 56.0101 48.8802 56.08C49.1886 56.4303 49.456 56.7336 49.2622 57.1865C49.2255 57.2721 49.2328 57.364 49.2622 57.4569C49.1851 57.7541 49.1056 58.0515 49.024 58.3486C48.8469 58.4074 48.6983 58.4793 48.5816 58.5645C48.3626 58.7244 48.3158 58.889 48.2605 59.0831C48.2197 59.2266 48.1741 59.3864 48.051 59.5725C47.8441 59.8853 47.6691 60.2064 47.5782 60.5687C47.4876 60.9295 47.4209 61.3425 47.3972 61.6348C47.3843 61.794 47.2259 61.9614 47.0786 62.1173C46.8713 62.3367 46.6855 62.5335 46.9549 62.6537C47.041 62.692 47.1905 62.7291 47.3357 62.7652C47.4391 62.7909 47.5401 62.8163 47.6153 62.8411C47.592 62.9073 47.5689 62.9735 47.5453 63.0397C47.3657 63.1573 47.1732 63.3401 47.3735 63.5167C47.3487 63.585 47.3241 63.6533 47.2991 63.7193C47.2469 63.8632 47.194 64.004 47.1407 64.1461C47.1231 64.1925 47.1055 64.2394 47.0877 64.2863C47.0875 64.2868 47.0873 64.2872 47.0871 64.2877C47.0514 64.3822 47.0154 64.4774 46.9793 64.5711C46.9638 64.6112 46.9484 64.6513 46.933 64.6915C46.8938 64.7934 46.8545 64.8961 46.8148 64.997C46.7936 65.0504 46.7727 65.1044 46.7514 65.1584C46.7169 65.246 46.6822 65.3343 46.6472 65.4222C46.5907 65.5642 46.5336 65.7056 46.476 65.8473C46.4665 65.8705 46.4366 65.8927 46.3913 65.9091C46.346 65.9255 46.2891 65.9347 46.2305 65.9347C46.1718 65.9346 46.1148 65.9253 46.0696 65.9089C46.0246 65.8925 45.9954 65.8703 45.9862 65.8471C45.9302 65.7053 45.8748 65.5638 45.8198 65.4216C45.7859 65.3337 45.7516 65.2455 45.7181 65.1578C45.6974 65.1038 45.6771 65.0499 45.6566 64.9964C45.618 64.8955 45.5794 64.7927 45.5414 64.6907C45.5264 64.6506 45.5113 64.6105 45.4963 64.5703C45.4611 64.4764 45.4263 64.3809 45.3915 64.2861C45.3913 64.2856 45.3911 64.285 45.3909 64.2844C45.3738 64.2378 45.3567 64.1913 45.3397 64.1452C45.288 64.003 45.2368 63.8621 45.1862 63.7181C45.1589 63.6437 45.1322 63.5662 45.1052 63.4893C45.0901 63.4464 45.075 63.4036 45.0601 63.3617C45.0521 63.3387 45.0442 63.3154 45.0363 63.292C44.849 62.7551 44.6688 62.222 44.4959 61.684C44.323 61.1479 44.1573 60.6109 43.9981 60.0755C43.839 59.5388 43.6867 59.003 43.5406 58.4668C42.6127 55.0639 41.852 51.6474 41.3759 48.2294C41.3075 47.7419 41.2459 47.2416 41.1906 46.7531C41.1354 46.2593 41.0863 45.7756 41.0444 45.2804C41.0313 45.1301 41.019 44.9759 41.0073 44.8177Z" fill="black"/>
<circle cx="32.81" cy="5.70216" r="3.3234" transform="rotate(8.2828 32.81 5.70216)" fill="black"/>
<path d="M26.8601 7.83233C26.4534 6.85949 26.9135 5.81395 27.0393 4.92367C27.042 4.90356 27.0447 4.88342 27.0473 4.86325C27.1761 3.77136 27.26 2.36275 28.1919 1.4871C29.1058 0.629111 30.2927 0.113764 31.4752 0.0182857C32.2133 -0.0440488 32.9459 0.055005 33.5987 0.284242C33.9921 0.4217 34.3645 0.606345 34.7014 0.829623C35.6001 1.4223 36.2249 2.28631 36.5088 3.17462C36.7044 3.77844 36.7497 4.39506 36.6665 4.95555C36.6303 5.20166 36.57 5.4368 36.4895 5.6572C36.4293 5.82131 36.358 5.97821 36.2776 6.12447C36.2663 6.14489 36.2284 6.16089 36.1706 6.16787C36.1127 6.17489 36.04 6.17243 35.9662 6.16164C35.8923 6.15084 35.8218 6.13263 35.768 6.11187C35.7143 6.09109 35.6819 6.06948 35.6757 6.0507C35.6318 5.91478 35.5784 5.78515 35.5168 5.66475C35.4485 5.53065 35.3701 5.4071 35.2846 5.29494C35.5836 5.22606 35.8073 5.15398 35.8952 5.07095C35.94 5.0289 35.9505 4.97569 35.8868 4.95511C35.8297 4.9366 35.7356 4.93716 35.6463 4.93961C35.5528 4.94213 35.4645 4.94684 35.4283 4.9318C35.3668 4.90607 35.2308 4.90803 35.0896 4.91781C35.0382 4.92131 34.986 4.92573 34.9364 4.92975C34.841 4.85003 34.7419 4.78113 34.6411 4.72282C34.6518 4.67377 34.6564 4.62881 34.6298 4.6091C34.606 4.59138 34.5377 4.60431 34.4577 4.62897C34.4419 4.62191 34.426 4.61512 34.4102 4.60858C34.3082 4.56622 34.2063 4.53403 34.1062 4.51175C34.1222 4.4085 34.1251 4.29841 34.072 4.20751C34.0492 4.16855 34.0436 4.10767 34.0346 4.0482C34.0221 3.96077 34.0012 3.87595 33.9321 3.88499C33.8863 3.89126 33.8769 3.83564 33.8636 3.77907C33.8468 3.70377 33.8209 3.62624 33.7286 3.71353C33.6709 3.76854 33.6113 3.84097 33.5588 3.90963C33.475 4.01886 33.4094 4.11842 33.384 4.1178C33.3359 4.11646 33.2688 4.19724 33.2166 4.27136C33.1526 4.36021 33.109 4.43864 33.1035 4.34241C33.1026 4.32782 33.102 4.30856 33.1011 4.28664C33.0982 4.20568 33.0885 4.08976 33.0493 4.05818C33.0329 4.04483 33.012 4.04683 32.9875 4.0737C32.9581 4.10581 32.9265 4.19478 32.9004 4.28285C32.8617 4.41105 32.8361 4.53689 32.8109 4.48041C32.8071 4.47196 32.803 4.43663 32.7988 4.40438C32.7936 4.36337 32.7884 4.32762 32.7861 4.35881C32.7795 4.4503 32.7703 4.55155 32.7644 4.66181C32.7599 4.74282 32.7572 4.82871 32.7572 4.91876C32.7177 4.97216 32.6873 5.02636 32.6642 5.0791C32.6537 5.10328 32.6446 5.1272 32.6369 5.15069C32.5882 5.02181 32.5381 4.90785 32.4937 4.8242C32.4355 4.71498 32.3969 4.68947 32.3451 4.65937C32.3067 4.63746 32.261 4.61283 32.1847 4.55688C32.0409 4.45409 31.9798 4.53881 31.9933 4.63641C31.9957 4.65723 31.9992 4.6789 32.0037 4.7021C32.0214 4.78987 32.0469 4.89808 32.0748 5.02901C32.1026 5.15188 32.0975 5.20729 32.0933 5.25127C32.0915 5.27341 32.0907 5.29141 32.099 5.3097C32.1133 5.34092 32.1246 5.3732 32.138 5.40382C32.1587 5.4518 32.1849 5.49581 32.2294 5.52664C32.2452 5.53762 32.2653 5.54965 32.2871 5.56181C32.3432 5.59328 32.4122 5.62457 32.4566 5.65072C32.46 5.65277 32.4633 5.65478 32.4664 5.65675C32.5123 5.68446 32.4789 5.68833 32.406 5.7025C32.3764 5.70781 32.2597 5.7142 32.1394 5.72679C31.9687 5.74341 31.7914 5.77621 31.847 5.79725C31.8599 5.80187 31.8882 5.80507 31.9179 5.80771C31.9725 5.81279 32.0314 5.81468 32.0079 5.82927C31.9997 5.83443 31.969 5.84295 31.939 5.85178C31.906 5.86146 31.8738 5.87154 31.8729 5.87662C31.8693 5.89552 31.8808 5.91124 31.8914 5.92445C31.9049 5.94159 31.9167 5.95494 31.8931 5.97286C31.8511 6.00516 31.9004 6.01328 31.9494 6.01607C31.987 6.01864 32.0247 6.01862 32.0242 6.03391C32.0224 6.07823 32.127 6.09637 32.2688 6.05554C32.3221 6.03993 32.2686 6.09011 32.2076 6.16383C32.1696 6.20944 32.1284 6.264 32.1066 6.31291C32.0945 6.34079 32.1504 6.30629 32.2001 6.27207C32.2461 6.24079 32.2872 6.21008 32.2716 6.23525C32.2579 6.25748 32.1842 6.33744 32.1156 6.41467C32.039 6.50048 31.9689 6.58298 31.9911 6.57494C32.0029 6.5706 32.0449 6.53549 32.0937 6.49257C32.113 6.4756 32.1333 6.45751 32.1533 6.43954C32.1385 6.45586 32.1253 6.4705 32.1154 6.48161C32.0449 6.55998 32.0155 6.6082 31.9882 6.65654C31.9773 6.67582 31.9668 6.69502 31.9538 6.71611C31.9061 6.79377 31.9194 6.82368 31.939 6.83344C31.9472 6.83761 31.9339 6.86854 31.9192 6.90518C31.9062 6.93768 31.8921 6.97474 31.8904 7.00079C31.8894 7.01561 31.8768 7.04412 31.8666 7.06804C31.8591 7.08534 31.8529 7.10019 31.853 7.10532C31.8532 7.10974 31.872 7.08597 31.8929 7.05909C31.9081 7.03973 31.9244 7.01873 31.9358 7.00552C31.963 6.97399 31.975 6.96695 31.9714 6.98048C31.9697 6.98674 31.9646 6.99746 31.9596 7.00815C31.9537 7.0206 31.9478 7.03315 31.9474 7.03863C31.9458 7.06377 31.9746 7.0412 32.0035 7.01692C32.0354 6.99035 32.067 6.96163 32.0643 6.99534C32.0635 7.00596 32.0569 7.02755 32.0507 7.0486C32.0442 7.07062 32.0383 7.092 32.0393 7.09918C32.044 7.12842 32.0948 7.07 32.1389 7.01467C32.1684 6.97794 32.1952 6.94283 32.2065 6.93728C32.2274 6.92726 32.2725 6.84842 32.305 6.78982C32.3218 6.75947 32.3354 6.73443 32.3408 6.72745C32.3415 6.73052 32.342 6.73403 32.3423 6.73777C32.3412 6.74454 32.34 6.75154 32.3424 6.75022C32.3426 6.75012 32.3429 6.74981 32.3431 6.74971C32.3438 6.77403 32.3415 6.80686 32.3399 6.83976C32.336 6.91352 32.3391 6.98844 32.3786 6.9608C32.3871 6.95483 32.4048 6.92133 32.4221 6.88703C32.4434 6.84504 32.4641 6.80167 32.4698 6.80698C32.4832 6.81959 32.4828 6.88349 32.486 6.94701C32.4897 7.04233 32.504 7.13686 32.5498 7.04593C32.5647 7.01589 32.5828 6.96446 32.5998 6.91235C32.6093 6.88331 32.6186 6.85395 32.627 6.82831C32.6182 6.87702 32.6102 6.9228 32.6028 6.96548C32.5873 7.05345 32.5742 7.12875 32.5582 7.19192C32.521 7.34128 32.4658 7.5459 32.4395 7.6977C32.4325 7.73891 32.4236 7.78462 32.4145 7.83063C32.392 7.94607 32.368 8.06385 32.3767 8.12062C32.3821 8.15882 32.402 8.24741 32.4365 8.1616C32.4439 8.14291 32.4524 8.10488 32.4616 8.0626C32.466 8.04236 32.4706 8.02112 32.4754 8.00049C32.4885 7.94371 32.5026 7.8916 32.5174 7.87776C32.5208 7.87459 32.5244 7.87179 32.528 7.86922C32.5426 7.85896 32.5587 7.84747 32.571 7.78611C32.5852 7.71544 32.5929 7.63351 32.6025 7.53805C32.6147 7.41369 32.6311 7.26621 32.6596 7.08942C32.6652 7.05446 32.6696 7.04276 32.673 7.03387C32.6753 7.0276 32.6771 7.02257 32.6783 7.012C32.6797 6.99986 32.6818 6.97451 32.6844 6.94244C32.6936 6.82927 32.7122 6.63187 32.7249 6.62465C32.7284 6.62273 32.7313 6.63247 32.734 6.64126C32.7381 6.65421 32.7416 6.66488 32.7446 6.63256C32.7457 6.62029 32.7468 6.607 32.7479 6.59322C32.7515 6.59739 32.755 6.60154 32.7586 6.60566C32.7612 6.64458 32.7688 6.64168 32.7778 6.63773C32.78 6.63677 32.7823 6.63589 32.7847 6.63541C32.7922 6.64365 32.7999 6.65177 32.8077 6.65998C32.8139 6.67642 32.8205 6.70313 32.8288 6.74544C32.8452 6.83021 32.865 6.96982 32.8899 7.10575C32.9004 7.16303 32.9118 7.21977 32.9237 7.27138C32.921 7.27803 32.9185 7.2858 32.9169 7.29639C32.906 7.36884 32.9064 7.50985 32.9056 7.63972C32.905 7.7261 32.9039 7.80757 32.8978 7.86033C32.8866 7.95696 32.8911 8.06927 32.8953 8.15232C32.8973 8.1954 32.899 8.2307 32.8974 8.25174C32.8961 8.2686 32.8919 8.27664 32.8876 8.28496C32.8838 8.2922 32.8799 8.29977 32.8776 8.31338C32.8487 8.47863 32.858 8.57396 32.8775 8.71267C32.8881 8.78916 32.9014 8.87883 32.9102 9.00073C32.9185 9.12981 32.9186 9.16771 32.897 9.21976C32.9163 9.28317 32.9365 9.34643 32.9577 9.4095C32.9648 9.40507 32.9688 9.36495 32.9735 9.29835C32.9819 9.17945 33.0215 9.13409 33.0518 9.09799C33.0658 9.0813 33.0777 9.06662 33.0835 9.04793C33.1143 8.94843 33.0898 8.81544 33.0711 8.69828C33.0606 8.63379 33.0513 8.57405 33.0508 8.52757C33.0505 8.50769 33.0469 8.48825 33.0432 8.46841C33.0404 8.45308 33.0375 8.43748 33.0361 8.42131C33.0263 8.30386 33.0368 8.21521 33.0443 8.13287C33.0488 8.08571 33.0524 8.04048 33.0518 7.99325C33.0517 7.97886 33.0512 7.96422 33.0507 7.95C33.0499 7.92924 33.0492 7.90946 33.0495 7.89241C33.0502 7.85357 33.057 7.82666 33.0641 7.79728C33.0677 7.78222 33.0714 7.76649 33.0743 7.74813C33.078 7.72433 33.0742 7.6778 33.0701 7.62922C33.0672 7.59488 33.0642 7.55952 33.0633 7.53017C33.0617 7.47709 33.0697 7.45669 33.077 7.43768C33.0801 7.4294 33.083 7.42119 33.085 7.41089C33.0857 7.4067 33.0851 7.39868 33.0835 7.3878C33.0935 7.34881 33.1015 7.30911 33.1082 7.27026C33.1438 7.07451 33.1393 6.91047 33.2474 6.99709C33.2683 7.01319 33.2822 7.00356 33.2909 6.98146C33.3549 7.00669 33.4234 7.02874 33.4961 7.0465C33.5545 7.13591 33.6095 7.20781 33.6598 7.26005C33.7547 7.35792 33.805 7.36127 33.8631 7.36366C33.9064 7.36513 33.9544 7.36614 34.0373 7.39729C34.1768 7.44949 34.3171 7.47183 34.4338 7.43755C34.55 7.40403 34.667 7.33596 34.7355 7.27389C34.7727 7.24067 34.8798 7.2574 34.9823 7.2664C35.126 7.28015 35.2608 7.27719 35.1457 7.15607C35.1089 7.11746 35.039 7.05987 34.9703 7.00509C34.9214 6.96606 34.8733 6.92841 34.8382 6.89915C34.8602 6.8895 34.882 6.87932 34.904 6.86883C35.0149 6.8914 35.1467 6.88955 35.0629 6.78632C35.0855 6.77348 35.108 6.76019 35.1303 6.74714C35.1777 6.71807 35.2246 6.68809 35.2714 6.65574C35.2868 6.64521 35.3022 6.63431 35.3176 6.62314C35.3178 6.62304 35.318 6.62294 35.3181 6.62285C35.3492 6.60041 35.3801 6.57707 35.4107 6.55313C35.4237 6.54288 35.4368 6.53244 35.4498 6.52182C35.4826 6.49495 35.5153 6.46693 35.5476 6.43826C35.5648 6.42315 35.5818 6.40728 35.5988 6.39154C35.6265 6.36587 35.654 6.33909 35.6812 6.3116C35.7253 6.26683 35.7685 6.22147 35.8111 6.17297C35.8181 6.16508 35.8371 6.15932 35.8649 6.15699C35.8928 6.15468 35.9271 6.15594 35.9619 6.16101C35.9967 6.16608 36.03 6.17475 36.0558 6.18548C36.0815 6.19618 36.0974 6.20806 36.1014 6.21853C36.1254 6.28273 36.1474 6.34711 36.1669 6.41438C36.179 6.45574 36.1904 6.49773 36.2008 6.53974C36.2073 6.56553 36.2131 6.5919 36.2189 6.61796C36.2297 6.6673 36.2392 6.71777 36.2474 6.76856C36.2506 6.78862 36.2537 6.80875 36.2566 6.82895C36.2634 6.87627 36.2689 6.92438 36.2734 6.97287C36.2734 6.97316 36.2734 6.97346 36.2734 6.97375C36.2756 6.99764 36.2776 7.02159 36.2793 7.04537C36.2843 7.11854 36.287 7.19197 36.2864 7.26747C36.2867 7.30676 36.2855 7.34724 36.2837 7.38804C36.2827 7.41074 36.2816 7.43347 36.2803 7.45585C36.2795 7.46803 36.2785 7.48033 36.2775 7.49271C36.2564 7.77844 36.1981 8.06863 36.0992 8.35611C36.0009 8.64278 35.8634 8.92501 35.6896 9.19206C35.5153 9.45961 35.3044 9.71211 35.0603 9.94115C34.3035 10.6598 33.1957 11.1419 32.0119 11.1841C30.7933 11.2403 29.4664 10.8111 28.4398 9.95511C28.1502 9.71653 27.8774 9.43821 27.6394 9.13987C27.3991 8.83815 27.1915 8.51647 27.0147 8.16587C26.9609 8.05961 26.9092 7.94826 26.8601 7.83233Z" fill="black"/>
</svg>
