<svg width="45" height="70" viewBox="0 0 45 70" fill="none" xmlns="http://www.w3.org/2000/svg">
<circle cx="40.9182" cy="32.2588" r="3.3234" transform="rotate(8.2828 40.9182 32.2588)" fill="black"/>
<path d="M34.9683 34.3889C34.5616 33.4161 35.0217 32.3706 35.1474 31.4803C35.1502 31.4602 35.1529 31.44 35.1555 31.4199C35.2843 30.328 35.3682 28.9194 36.3001 28.0437C37.214 27.1857 38.4009 26.6704 39.5834 26.5749C40.3215 26.5126 41.0541 26.6116 41.7069 26.8409C42.1003 26.9783 42.4727 27.163 42.8095 27.3862C43.7083 27.9789 44.3331 28.8429 44.617 29.7312C44.8126 30.335 44.8579 30.9517 44.7747 31.5122C44.7385 31.7583 44.6782 31.9934 44.5977 32.2138C44.5375 32.3779 44.4662 32.5348 44.3858 32.6811C44.3745 32.7015 44.3366 32.7175 44.2788 32.7245C44.2209 32.7315 44.1482 32.729 44.0744 32.7183C44.0005 32.7074 43.93 32.6892 43.8762 32.6685C43.8225 32.6477 43.7901 32.6261 43.7839 32.6073C43.74 32.4714 43.6866 32.3418 43.625 32.2214C43.5567 32.0873 43.4783 31.9637 43.3928 31.8515C43.6918 31.7827 43.9155 31.7106 44.0033 31.6276C44.0482 31.5855 44.0587 31.5323 43.995 31.5117C43.9379 31.4932 43.8438 31.4938 43.7545 31.4962C43.661 31.4987 43.5727 31.5034 43.5365 31.4884C43.475 31.4627 43.339 31.4646 43.1978 31.4744C43.1464 31.4779 43.0942 31.4823 43.0446 31.4864C42.9492 31.4066 42.8501 31.3377 42.7493 31.2794C42.76 31.2304 42.7646 31.1854 42.738 31.1657C42.7142 31.148 42.6459 31.1609 42.5659 31.1856C42.55 31.1785 42.5342 31.1717 42.5184 31.1652C42.4164 31.1228 42.3145 31.0906 42.2144 31.0684C42.2304 30.9651 42.2333 30.855 42.1802 30.7641C42.1574 30.7252 42.1518 30.6643 42.1428 30.6048C42.1303 30.5174 42.1094 30.4326 42.0403 30.4416C41.9945 30.4479 41.9851 30.3922 41.9717 30.3357C41.955 30.2604 41.9291 30.1828 41.8368 30.2701C41.7791 30.3252 41.7195 30.3976 41.667 30.4662C41.5832 30.5755 41.5175 30.675 41.4922 30.6744C41.4441 30.6731 41.377 30.7539 41.3248 30.828C41.2608 30.9168 41.2172 30.9952 41.2117 30.899C41.2108 30.8844 41.2102 30.8652 41.2093 30.8433C41.2064 30.7623 41.1966 30.6464 41.1575 30.6148C41.1411 30.6014 41.1202 30.6034 41.0957 30.6303C41.0663 30.6624 41.0347 30.7514 41.0086 30.8395C40.9699 30.9677 40.9443 31.0935 40.9191 31.037C40.9153 31.0286 40.9111 30.9932 40.907 30.961C40.9018 30.92 40.8966 30.8842 40.8943 30.9154C40.8877 31.0069 40.8785 31.1082 40.8725 31.2184C40.8681 31.2994 40.8654 31.3853 40.8654 31.4754C40.8259 31.5288 40.7955 31.583 40.7724 31.6357C40.7619 31.6599 40.7528 31.6838 40.7451 31.7073C40.6964 31.5784 40.6462 31.4645 40.6019 31.3808C40.5437 31.2716 40.5051 31.2461 40.4533 31.216C40.4148 31.1941 40.3692 31.1694 40.2928 31.1135C40.1491 31.0107 40.088 31.0954 40.1014 31.193C40.1039 31.2138 40.1074 31.2355 40.1119 31.2587C40.1296 31.3465 40.1551 31.4547 40.1829 31.5856C40.2108 31.7085 40.2056 31.7639 40.2015 31.8079C40.1997 31.83 40.1989 31.848 40.2072 31.8663C40.2215 31.8975 40.2328 31.9298 40.2462 31.9604C40.2669 32.0084 40.2931 32.0524 40.3376 32.0832C40.3534 32.0942 40.3735 32.1063 40.3953 32.1184C40.4514 32.1499 40.5204 32.1812 40.5647 32.2073C40.5682 32.2094 40.5715 32.2114 40.5746 32.2134C40.6205 32.2411 40.5871 32.2449 40.5142 32.2591C40.4846 32.2644 40.3679 32.2708 40.2476 32.2834C40.0769 32.3 39.8996 32.3328 39.9552 32.3539C39.9681 32.3585 39.9964 32.3617 40.0261 32.3643C40.0807 32.3694 40.1396 32.3713 40.1161 32.3859C40.1079 32.391 40.0772 32.3996 40.0472 32.4084C40.0142 32.4181 39.982 32.4282 39.9811 32.4332C39.9775 32.4521 39.989 32.4678 39.9995 32.4811C40.0131 32.4982 40.0248 32.5116 40.0013 32.5295C39.9593 32.5618 40.0086 32.5699 40.0576 32.5727C40.0952 32.5753 40.1329 32.5752 40.1323 32.5905C40.1306 32.6348 40.2352 32.653 40.377 32.6122C40.4303 32.5965 40.3768 32.6467 40.3158 32.7204C40.2778 32.766 40.2366 32.8206 40.2148 32.8695C40.2026 32.8974 40.2586 32.8629 40.3083 32.8287C40.3543 32.7974 40.3953 32.7667 40.3798 32.7919C40.3661 32.8141 40.2924 32.894 40.2238 32.9713C40.1472 33.0571 40.0771 33.1396 40.0993 33.1316C40.1111 33.1272 40.1531 33.0921 40.2019 33.0492C40.2212 33.0322 40.2415 33.0141 40.2615 32.9962C40.2467 33.0125 40.2335 33.0271 40.2235 33.0382C40.153 33.1166 40.1236 33.1648 40.0964 33.2132C40.0855 33.2324 40.075 33.2516 40.062 33.2727C40.0142 33.3504 40.0276 33.3803 40.0472 33.39C40.0554 33.3942 40.0421 33.4251 40.0274 33.4618C40.0144 33.4943 40.0003 33.5314 39.9986 33.5574C39.9976 33.5722 39.985 33.6007 39.9747 33.6246C39.9673 33.642 39.961 33.6568 39.9612 33.6619C39.9614 33.6664 39.9801 33.6426 40.0011 33.6157C40.0162 33.5963 40.0325 33.5753 40.044 33.5621C40.0712 33.5306 40.0832 33.5236 40.0796 33.5371C40.0779 33.5433 40.0728 33.5541 40.0678 33.5648C40.0619 33.5772 40.056 33.5898 40.0556 33.5952C40.054 33.6204 40.0828 33.5978 40.1116 33.5735C40.1436 33.547 40.1752 33.5182 40.1725 33.5519C40.1717 33.5626 40.1651 33.5842 40.1589 33.6052C40.1524 33.6272 40.1464 33.6486 40.1475 33.6558C40.1522 33.685 40.203 33.6266 40.2471 33.5713C40.2766 33.5346 40.3034 33.4994 40.3147 33.4939C40.3356 33.4839 40.3807 33.405 40.4132 33.3464C40.43 33.3161 40.4436 33.291 40.449 33.2841C40.4497 33.2871 40.4502 33.2906 40.4505 33.2944C40.4494 33.3011 40.4482 33.3082 40.4506 33.3068C40.4508 33.3067 40.4511 33.3064 40.4513 33.3063C40.452 33.3306 40.4497 33.3635 40.4481 33.3964C40.4441 33.4701 40.4472 33.5451 40.4868 33.5174C40.4953 33.5114 40.513 33.4779 40.5303 33.4436C40.5516 33.4016 40.5723 33.3583 40.578 33.3636C40.5914 33.3762 40.5909 33.4401 40.5941 33.5036C40.5979 33.5989 40.6122 33.6935 40.658 33.6025C40.6729 33.5725 40.6909 33.5211 40.708 33.469C40.7175 33.4399 40.7267 33.4106 40.7352 33.3849C40.7264 33.4336 40.7184 33.4794 40.7109 33.5221C40.6955 33.6101 40.6823 33.6854 40.6664 33.7485C40.6292 33.8979 40.574 34.1025 40.5477 34.2543C40.5407 34.2955 40.5318 34.3412 40.5227 34.3872C40.5002 34.5027 40.4762 34.6205 40.4849 34.6772C40.4903 34.7154 40.5102 34.804 40.5447 34.7182C40.5521 34.6995 40.5606 34.6615 40.5698 34.6192C40.5742 34.599 40.5788 34.5777 40.5836 34.5571C40.5967 34.5003 40.6108 34.4482 40.6256 34.4344C40.629 34.4312 40.6326 34.4284 40.6362 34.4258C40.6507 34.4156 40.6668 34.4041 40.6792 34.3427C40.6934 34.272 40.7011 34.1901 40.7107 34.0947C40.7229 33.9703 40.7393 33.8228 40.7678 33.646C40.7734 33.6111 40.7778 33.5994 40.7811 33.5905C40.7835 33.5842 40.7853 33.5792 40.7865 33.5686C40.7879 33.5565 40.7899 33.5311 40.7926 33.4991C40.8018 33.3859 40.8204 33.1885 40.8331 33.1813C40.8366 33.1793 40.8395 33.1891 40.8422 33.1979C40.8462 33.2108 40.8498 33.2215 40.8528 33.1892C40.8539 33.1769 40.855 33.1636 40.8561 33.1498C40.8597 33.154 40.8632 33.1581 40.8668 33.1623C40.8694 33.2012 40.877 33.1983 40.886 33.1943C40.8882 33.1934 40.8905 33.1925 40.8929 33.192C40.9004 33.2003 40.9081 33.2084 40.9159 33.2166C40.922 33.233 40.9287 33.2597 40.937 33.302C40.9534 33.3868 40.9731 33.5264 40.9981 33.6624C41.0086 33.7196 41.02 33.7764 41.0319 33.828C41.0291 33.8346 41.0267 33.8424 41.0251 33.853C41.0142 33.9255 41.0146 34.0665 41.0138 34.1963C41.0132 34.2827 41.0121 34.3642 41.006 34.4169C40.9948 34.5136 40.9993 34.6259 41.0034 34.7089C41.0055 34.752 41.0072 34.7873 41.0056 34.8083C41.0043 34.8252 41.0001 34.8332 40.9958 34.8416C40.992 34.8488 40.9881 34.8564 40.9858 34.87C40.9569 35.0352 40.9662 35.1306 40.9857 35.2693C40.9963 35.3458 41.0095 35.4354 41.0184 35.5573C41.0267 35.6864 41.0268 35.7243 41.0052 35.7764C41.0245 35.8398 41.0447 35.903 41.0659 35.9661C41.073 35.9617 41.077 35.9216 41.0816 35.855C41.0901 35.7361 41.1297 35.6907 41.16 35.6546C41.1739 35.6379 41.1859 35.6232 41.1917 35.6045C41.2225 35.505 41.198 35.372 41.1793 35.2549C41.1688 35.1904 41.1595 35.1307 41.159 35.0842C41.1587 35.0643 41.155 35.0449 41.1514 35.025C41.1486 35.0097 41.1457 34.9941 41.1443 34.9779C41.1344 34.8605 41.145 34.7718 41.1525 34.6895C41.1569 34.6423 41.1605 34.5971 41.16 34.5499C41.1599 34.5355 41.1594 34.5208 41.1588 34.5066C41.1581 34.4859 41.1573 34.4661 41.1577 34.449C41.1584 34.4102 41.1652 34.3833 41.1723 34.3539C41.1759 34.3388 41.1796 34.3231 41.1824 34.3047C41.1862 34.2809 41.1824 34.2344 41.1783 34.1858C41.1754 34.1515 41.1724 34.1161 41.1715 34.0868C41.1699 34.0337 41.1779 34.0133 41.1851 33.9943C41.1883 33.986 41.1912 33.9778 41.1931 33.9675C41.1939 33.9633 41.1933 33.9553 41.1917 33.9444C41.2017 33.9054 41.2097 33.8657 41.2164 33.8269C41.252 33.6311 41.2475 33.4671 41.3556 33.5537C41.3765 33.5698 41.3904 33.5602 41.3991 33.5381C41.463 33.5633 41.5316 33.5854 41.6043 33.6031C41.6627 33.6925 41.7177 33.7644 41.768 33.8167C41.8629 33.9145 41.9132 33.9179 41.9713 33.9203C42.0146 33.9217 42.0626 33.9228 42.1455 33.9539C42.285 34.0061 42.4252 34.0284 42.542 33.9942C42.6582 33.9606 42.7751 33.8926 42.8437 33.8305C42.8809 33.7973 42.988 33.814 43.0905 33.823C43.2342 33.8368 43.369 33.8338 43.2539 33.7127C43.2171 33.6741 43.1472 33.6165 43.0785 33.5617C43.0296 33.5227 42.9815 33.485 42.9464 33.4558C42.9683 33.4461 42.9902 33.4359 43.0122 33.4254C43.1231 33.448 43.2548 33.4462 43.1711 33.3429C43.1937 33.3301 43.2162 33.3168 43.2385 33.3038C43.2859 33.2747 43.3328 33.2447 43.3796 33.2124C43.395 33.2018 43.4104 33.1909 43.4258 33.1798C43.426 33.1797 43.4262 33.1796 43.4263 33.1795C43.4573 33.157 43.4882 33.1337 43.5189 33.1097C43.5319 33.0995 43.545 33.0891 43.5579 33.0784C43.5908 33.0516 43.6235 33.0235 43.6558 32.9949C43.6729 32.9798 43.69 32.9639 43.707 32.9482C43.7347 32.9225 43.7621 32.8957 43.7894 32.8682C43.8335 32.8234 43.8767 32.7781 43.9192 32.7296C43.9263 32.7217 43.9453 32.7159 43.9731 32.7136C44.001 32.7113 44.0352 32.7125 44.07 32.7176C44.1049 32.7227 44.1382 32.7314 44.164 32.7421C44.1897 32.7528 44.2056 32.7647 44.2096 32.7751C44.2336 32.8393 44.2556 32.9037 44.2751 32.971C44.2871 33.0124 44.2986 33.0543 44.309 33.0963C44.3155 33.1221 44.3213 33.1485 44.3271 33.1746C44.3378 33.2239 44.3474 33.2744 44.3556 33.3252C44.3588 33.3452 44.3619 33.3654 44.3648 33.3856C44.3716 33.4329 44.3771 33.481 44.3816 33.5295C44.3816 33.5298 44.3816 33.5301 44.3816 33.5304C44.3838 33.5543 44.3858 33.5782 44.3875 33.602C44.3925 33.6752 44.3952 33.7486 44.3945 33.8241C44.3948 33.8634 44.3936 33.9038 44.3919 33.9447C44.3909 33.9674 44.3897 33.9901 44.3885 34.0125C44.3877 34.0246 44.3867 34.0369 44.3857 34.0493C44.3646 34.335 44.3063 34.6252 44.2074 34.9127C44.1091 35.1994 43.9716 35.4816 43.7978 35.7487C43.6235 36.0162 43.4126 36.2687 43.1685 36.4978C42.4117 37.2164 41.3039 37.6985 40.1201 37.7407C38.9015 37.7969 37.5745 37.3678 36.5479 36.5117C36.2584 36.2731 35.9856 35.9948 35.7476 35.6965C35.5073 35.3948 35.2997 35.0731 35.1229 34.7225C35.0691 34.6162 35.0173 34.5049 34.9683 34.3889Z" fill="black"/>
<path d="M30.3368 48.4463C29.5579 47.529 28.0892 47.3654 27.237 46.5157C26.1788 45.4608 25.729 43.7639 24.5539 42.821C23.3849 41.8843 22.1601 40.9931 20.8999 40.1442C19.6385 39.294 18.3399 38.4842 17.0128 37.6986C15.6881 36.9153 14.3348 36.1559 12.9683 35.4126C12.0401 34.9078 11.1043 34.409 10.1666 33.9138C9.75515 33.6962 9.34418 33.48 8.9321 33.2634C8.62449 33.102 8.31689 32.9406 8.00927 32.7792C7.96637 32.7569 7.89333 32.7674 7.80393 32.8108C7.71443 32.8542 7.61634 32.9263 7.52841 33.0143C7.44045 33.1024 7.36824 33.2007 7.32512 33.2901C7.28216 33.3792 7.27223 33.4518 7.29493 33.4943C7.46063 33.8016 7.62631 34.1088 7.79201 34.4161C7.97616 34.7573 8.1597 35.0982 8.34429 35.4389C8.74659 35.1192 9.07712 34.9022 9.30436 34.8876C9.4203 34.8802 9.52508 34.9337 9.51628 35.059C9.50833 35.1716 9.4403 35.3185 9.37532 35.4583C9.30736 35.6046 9.24283 35.7434 9.25473 35.8272C9.2749 35.9693 9.19877 36.1997 9.11877 36.4417C9.08964 36.5297 9.05995 36.6195 9.03426 36.707C9.21153 37.0311 9.3894 37.3546 9.56786 37.6774C9.70313 37.7358 9.82321 37.7937 9.88394 37.8841C9.93839 37.9651 9.92418 38.1034 9.89109 38.26C9.91884 38.3099 9.94658 38.3597 9.97433 38.4096C10.1537 38.7311 10.3344 39.0515 10.5156 39.3713C10.8074 39.4705 11.1059 39.5819 11.4133 39.8072C11.5458 39.9043 11.7112 39.9655 11.8701 40.0245C12.1048 40.1115 12.3255 40.1934 12.4062 40.3779C12.4602 40.5013 12.6045 40.5436 12.7484 40.5857C12.9415 40.6423 13.1341 40.6987 13.1081 40.9506C13.0917 41.1089 13.0507 41.2803 13.0126 41.4393C12.952 41.6921 12.8988 41.9131 12.9654 41.9986C13.0905 42.1591 13.1 42.397 13.1082 42.6068C13.1182 42.859 13.1265 43.0706 13.3326 43.0577C13.3638 43.0557 13.4026 43.0504 13.4466 43.0442C13.6782 43.0114 14.0487 42.9588 14.1607 43.3033C14.2005 43.426 14.1692 43.6099 14.1384 43.7903C14.0935 44.0528 14.0499 44.3077 14.2295 44.3544C14.2564 44.3614 14.3156 44.3374 14.3698 44.3155C14.4386 44.2875 14.4986 44.2632 14.4725 44.3105C14.3958 44.4492 14.326 44.6174 14.2499 44.8005C14.194 44.9349 14.1348 45.0775 14.0672 45.2218C14.3006 45.5748 14.5365 45.9254 14.7756 46.2731C14.885 46.4323 14.9952 46.591 15.106 46.7491C15.337 46.6558 15.5534 46.58 15.7382 46.5438C15.9797 46.4964 16.1498 46.5781 16.3694 46.683C16.5309 46.7602 16.7194 46.85 16.9824 46.9109C17.4692 47.0236 17.7352 47.3734 17.8322 47.671C17.8527 47.734 17.872 47.7986 17.8922 47.868C17.9689 48.1317 18.0643 48.461 18.3386 48.9934C18.598 49.497 18.8909 49.8531 19.1108 50.1206C19.2231 50.2572 19.3167 50.3704 19.377 50.4686C19.48 50.6367 19.6175 50.8322 19.7557 51.0283C19.9719 51.3352 20.1897 51.6437 20.2782 51.8533C20.3097 51.9278 20.3387 52.0102 20.3703 52.0988C20.458 52.3442 20.5639 52.6407 20.7862 52.973C21.0196 53.3219 21.2394 53.4629 21.5124 53.5648C21.6234 53.6062 21.8282 53.5358 22.0395 53.4629C22.3395 53.3595 22.6525 53.2515 22.7283 53.4529C22.746 53.5 22.7478 53.5673 22.7495 53.6378C22.7526 53.7674 22.7559 53.9076 22.8594 53.9511C22.8955 53.9662 22.9555 53.9515 23.0142 53.937C23.0788 53.9211 23.1421 53.9055 23.1713 53.9304C23.2805 54.0232 23.3695 54.1308 23.4484 54.2265C23.5503 54.3499 23.6358 54.4533 23.727 54.4792C23.8897 54.5254 23.9518 54.6918 24.0144 54.8605C24.0622 54.9894 24.1103 55.1199 24.2043 55.1986C24.4732 55.4236 24.7134 55.8625 24.8977 56.378C24.9675 56.573 25.1652 56.5996 25.4187 56.6335C25.5763 56.6547 25.7559 56.6783 25.9393 56.7475C26.0433 56.7867 26.0277 56.9235 26.0135 57.05C26.0004 57.1666 25.9885 57.2745 26.0715 57.2898C26.1448 57.3033 26.3004 57.2027 26.4481 57.1072C26.6124 57.0009 26.767 56.9009 26.7879 56.9714C26.799 57.0089 26.7645 57.1025 26.7235 57.2138C26.7073 57.2578 26.6903 57.3045 26.6745 57.3517C26.6997 57.3249 26.7227 57.3015 26.7403 57.2839C26.8644 57.1596 26.9765 57.1408 27.0863 57.1225C27.1302 57.1151 27.1736 57.1081 27.2174 57.0942C27.3785 57.043 27.4999 57.1298 27.5745 57.2143C27.6061 57.25 27.6751 57.242 27.7557 57.2327C27.8272 57.2243 27.9079 57.2149 27.9795 57.2341C28.0203 57.2451 28.0762 57.229 28.1227 57.2154C28.1564 57.2055 28.1851 57.1971 28.1994 57.2016C28.2117 57.2055 28.1827 57.2477 28.15 57.2952C28.1264 57.3294 28.1009 57.3664 28.0876 57.3939C28.0557 57.4597 28.0628 57.4962 28.0938 57.4958C28.1081 57.4956 28.1275 57.4873 28.1469 57.4791C28.1694 57.4695 28.192 57.4597 28.2065 57.4629C28.273 57.4775 28.2719 57.5576 28.2707 57.6408C28.2694 57.7323 28.2683 57.8275 28.3566 57.8439C28.3844 57.849 28.4279 57.8406 28.4701 57.8324C28.5142 57.8238 28.5569 57.8157 28.5784 57.8236C28.6655 57.8557 28.6328 58.0006 28.6027 58.1339C28.5826 58.2226 28.5639 58.306 28.5822 58.3478C28.6158 58.4243 28.5388 58.5605 28.4818 58.661C28.4523 58.7131 28.4281 58.7559 28.4276 58.7757C28.4394 58.7816 28.4519 58.787 28.4646 58.792C28.4805 58.7922 28.4969 58.7924 28.5022 58.8028C28.5026 58.8036 28.5027 58.8047 28.5031 58.8055C28.5782 58.8289 28.6632 58.8406 28.7479 58.8521C28.938 58.8779 29.1259 58.9033 29.1929 59.0619C29.2073 59.0961 29.188 59.1649 29.1685 59.2348C29.1445 59.3205 29.12 59.4081 29.1562 59.4362C29.2424 59.5032 29.3924 59.5079 29.5402 59.5126C29.7624 59.5195 29.9795 59.5264 29.9671 59.7448C29.963 59.8168 29.9327 59.9134 29.902 60.0106C29.8849 60.0647 29.8676 60.1193 29.855 60.1695C29.9093 60.1072 29.962 60.0503 30.0111 59.9972C30.1122 59.8879 30.1988 59.7943 30.2573 59.6998C30.3955 59.4763 30.5961 59.179 30.783 59.0028C30.8337 58.955 30.8874 58.899 30.9414 58.8424C31.0768 58.7006 31.2151 58.5557 31.3187 58.5313C31.3885 58.5148 31.5561 58.4843 31.4938 58.634C31.4802 58.6666 31.4401 58.7182 31.3957 58.7755C31.3158 58.8785 31.2214 59.0005 31.2375 59.067C31.2402 59.0782 31.2439 59.0896 31.2482 59.101C31.2652 59.1464 31.2844 59.197 31.224 59.2836C31.1544 59.3833 31.0542 59.477 30.9374 59.5863C30.7853 59.7287 30.6046 59.8978 30.4262 60.141C30.3909 60.1891 30.3889 60.2156 30.3873 60.2356C30.3862 60.2498 30.3851 60.2609 30.373 60.2739C30.3592 60.2889 30.3271 60.3168 30.2866 60.352C30.1435 60.4765 29.8935 60.694 29.9513 60.7716C29.967 60.7926 29.9991 60.8024 30.028 60.8112C30.0705 60.824 30.1057 60.8348 30.0705 60.8761C30.0572 60.8918 30.0423 60.9084 30.0267 60.9253C30.0533 60.9428 30.08 60.9602 30.1066 60.9777C30.1805 60.9604 30.2163 61.004 30.2608 61.0586C30.2716 61.0719 30.2831 61.0857 30.2956 61.0995C30.3486 61.1336 30.4015 61.1678 30.4546 61.2016C30.5085 61.2168 30.5767 61.222 30.6654 61.2108C30.8432 61.1883 31.076 61.0907 31.3036 60.9951C31.3995 60.9549 31.4946 60.9149 31.5842 60.8811C31.5809 60.8627 31.5801 60.8439 31.5848 60.824C31.6174 60.6878 31.7627 60.501 31.8964 60.3291C31.9853 60.2147 32.0692 60.1069 32.1112 60.0252C32.1881 59.8755 32.3243 59.7466 32.4249 59.6513C32.4771 59.6019 32.5198 59.5613 32.5397 59.5317C32.5556 59.508 32.5559 59.4897 32.5563 59.4707C32.5566 59.4542 32.557 59.437 32.5676 59.4157C32.6965 59.1567 32.8287 59.0637 33.021 58.9282C33.127 58.8535 33.2514 58.7658 33.4038 58.6303C33.5633 58.4852 33.6055 58.4382 33.6321 58.3434C33.7339 58.2947 33.8357 58.246 33.9375 58.1973C33.943 58.2126 33.9039 58.2676 33.8368 58.3568C33.7171 58.5163 33.7306 58.6319 33.7412 58.7222C33.7461 58.764 33.7503 58.8005 33.7404 58.8334C33.6876 59.0082 33.5113 59.149 33.3561 59.2729C33.2708 59.341 33.1918 59.4042 33.1433 59.465C33.1226 59.491 33.0956 59.5104 33.0682 59.5303C33.0469 59.5456 33.0253 59.5612 33.0061 59.5802C32.8664 59.7183 32.7994 59.8576 32.7372 59.9868C32.7015 60.0608 32.6672 60.1317 32.6219 60.1973C32.6081 60.2172 32.5933 60.2369 32.5789 60.2559C32.5578 60.2837 32.5378 60.3102 32.523 60.3353C32.4892 60.3924 32.4826 60.447 32.4756 60.5067C32.472 60.5373 32.4682 60.5693 32.4605 60.6036C32.4505 60.6482 32.4018 60.7093 32.3509 60.7733C32.315 60.8185 32.2781 60.8651 32.2526 60.9085C32.2066 60.9869 32.2168 61.042 32.2262 61.0932C32.2304 61.1155 32.2341 61.1373 32.2333 61.1596C32.2329 61.1688 32.2256 61.1803 32.2131 61.1937C32.2194 61.287 32.2225 61.3789 32.2252 61.4687C32.239 61.9187 32.2507 62.3085 32.6876 62.4713C32.7701 62.502 32.8258 62.5681 32.8666 62.6503C33.1178 62.7926 33.3709 62.9332 33.6253 63.0721C33.7894 62.9859 33.9422 62.9284 34.081 62.9023C34.3418 62.8533 34.4838 62.9291 34.6514 63.0186C34.7753 63.0847 34.9133 63.1582 35.1236 63.1944C35.4769 63.2551 35.8132 63.344 36.1173 63.5195C36.4202 63.6943 36.7408 63.9205 36.951 64.0972C37.0656 64.1936 37.2883 64.1924 37.4957 64.1914C37.7875 64.19 38.0492 64.1889 37.9383 64.459C37.9028 64.5453 37.8216 64.6755 37.7429 64.8021C37.6867 64.8922 37.6321 64.9805 37.5954 65.0501C37.6557 65.0774 37.7158 65.1049 37.7764 65.132C37.9812 65.0829 38.2382 65.0678 38.2136 65.3263C38.2763 65.354 38.339 65.3818 38.4003 65.4078C38.5325 65.4662 38.6631 65.522 38.7949 65.5784C38.838 65.5966 38.8815 65.6152 38.9251 65.6337C38.9256 65.6339 38.926 65.634 38.9265 65.6342C39.0143 65.6715 39.1028 65.7091 39.1903 65.7455C39.2278 65.7612 39.2653 65.7768 39.3028 65.7925C39.3979 65.8322 39.4937 65.8724 39.5886 65.9112C39.6389 65.9316 39.6894 65.9525 39.7402 65.9732C39.8227 66.0068 39.9057 66.0407 39.9885 66.0741C40.1225 66.1282 40.2565 66.1814 40.391 66.2345C40.4131 66.2431 40.449 66.2367 40.4918 66.2155C40.5347 66.1943 40.581 66.1602 40.6225 66.1187C40.6639 66.0772 40.6981 66.0308 40.7192 65.9879C40.7401 65.9452 40.746 65.9099 40.7373 65.888C40.683 65.7545 40.6285 65.6216 40.5732 65.4887C40.539 65.4065 40.5048 65.3239 40.4705 65.2421C40.4494 65.1917 40.4281 65.1417 40.4072 65.0918C40.3677 64.9977 40.3268 64.9024 40.2862 64.808C40.2703 64.7708 40.2544 64.7336 40.2384 64.6964C40.2012 64.6094 40.1626 64.5215 40.1244 64.4342C40.1242 64.4337 40.1239 64.4331 40.1237 64.4326C40.1049 64.3897 40.0862 64.3468 40.0677 64.3043C40.0102 64.1736 39.9531 64.0441 39.8936 63.913C39.8637 63.8444 39.8312 63.7742 39.7994 63.7042C39.7816 63.6652 39.764 63.6262 39.7468 63.5878C39.7372 63.567 39.7274 63.546 39.7175 63.5249C39.4945 63.0371 39.2691 62.5567 39.0351 62.0783C38.8025 61.6012 38.5642 61.1285 38.3223 60.6615C38.0796 60.1937 37.8326 59.7314 37.5809 59.2731C35.9843 56.3643 34.2606 53.5647 32.3346 50.9654C32.0602 50.5943 31.7726 50.2196 31.4883 49.8571C31.2004 49.4911 30.9149 49.1362 30.6168 48.7788C30.5265 48.67 30.4331 48.5593 30.3368 48.4463Z" fill="black"/>
<path d="M23.2048 10.4044C22.2876 11.1833 22.124 12.652 21.2743 13.5042C20.2194 14.5623 18.5225 15.0122 17.5796 16.1873C16.6429 17.3563 15.7517 18.581 14.9028 19.8413C14.0526 21.1027 13.2428 22.4013 12.4572 23.7283C11.6739 25.0531 10.9145 26.4064 10.1712 27.7729C9.66637 28.7011 9.16757 29.6369 8.67235 30.5745C8.45479 30.986 8.23861 31.397 8.02201 31.8091C7.8606 32.1167 7.69918 32.4243 7.53776 32.7319C7.51547 32.7748 7.52604 32.8478 7.56937 32.9372C7.61281 33.0267 7.68493 33.1248 7.77292 33.2127C7.86096 33.3007 7.95934 33.3729 8.04869 33.416C8.13783 33.459 8.21035 33.4689 8.25286 33.4462C8.56015 33.2805 8.86743 33.1148 9.17472 32.9491C9.51593 32.765 9.85683 32.5815 10.1975 32.3969C9.87784 31.9946 9.66081 31.664 9.64622 31.4368C9.63882 31.3209 9.69229 31.2161 9.81764 31.2249C9.93023 31.2328 10.0771 31.3009 10.2169 31.3658C10.3632 31.4338 10.502 31.4983 10.5858 31.4864C10.7279 31.4663 10.9583 31.5424 11.2003 31.6224C11.2883 31.6515 11.3781 31.6812 11.4656 31.7069C11.7896 31.5296 12.1132 31.3518 12.436 31.1733C12.4944 31.038 12.5523 30.9179 12.6427 30.8572C12.7237 30.8028 12.862 30.817 13.0186 30.8501C13.0685 30.8223 13.1183 30.7946 13.1682 30.7668C13.4897 30.5874 13.8101 30.4068 14.1299 30.2256C14.2291 29.9338 14.3405 29.6353 14.5658 29.3278C14.6629 29.1953 14.7241 29.03 14.783 28.8711C14.8701 28.6364 14.952 28.4157 15.1365 28.3349C15.2599 28.2809 15.3022 28.1366 15.3443 27.9927C15.4009 27.7997 15.4573 27.607 15.7092 27.633C15.8675 27.6494 16.0389 27.6904 16.1979 27.7286C16.4507 27.7892 16.6717 27.8424 16.7572 27.7758C16.9177 27.6507 17.1556 27.6412 17.3654 27.6329C17.6176 27.623 17.8292 27.6147 17.8163 27.4086C17.8143 27.3774 17.809 27.3385 17.8028 27.2946C17.7699 27.0629 17.7174 26.6925 18.0619 26.5805C18.1846 26.5406 18.3685 26.5719 18.5489 26.6028C18.8114 26.6477 19.0663 26.6912 19.113 26.5116C19.12 26.4848 19.096 26.4255 19.074 26.3714C19.0461 26.3026 19.0218 26.2425 19.0691 26.2687C19.2078 26.3454 19.376 26.4152 19.5591 26.4913C19.6935 26.5472 19.8361 26.6064 19.9804 26.6739C20.3334 26.4406 20.684 26.2047 21.0316 25.9656C21.1909 25.8561 21.3496 25.746 21.5077 25.6351C21.4144 25.4042 21.3386 25.1878 21.3024 25.003C21.255 24.7615 21.3367 24.5913 21.4416 24.3718C21.5188 24.2102 21.6086 24.0217 21.6695 23.7587C21.7821 23.2719 22.132 23.006 22.4296 22.909C22.4925 22.8885 22.5571 22.8692 22.6266 22.849C22.8902 22.7722 23.2196 22.6769 23.752 22.4026C24.2556 22.1431 24.6117 21.8503 24.8792 21.6303C25.0158 21.5181 25.129 21.4244 25.2272 21.3642C25.3953 21.2612 25.5908 21.1237 25.7869 20.9855C26.0937 20.7692 26.4023 20.5514 26.6118 20.463C26.6864 20.4315 26.7688 20.4024 26.8573 20.3708C27.1028 20.2832 27.3993 20.1772 27.7316 19.9549C28.0805 19.7216 28.2215 19.5018 28.3234 19.2288C28.3648 19.1178 28.2944 18.913 28.2215 18.7016C28.1181 18.4017 28.01 18.0887 28.2115 18.0129C28.2585 17.9952 28.3259 17.9934 28.3964 17.9917C28.5259 17.9885 28.6662 17.9853 28.7097 17.8817C28.7248 17.8456 28.7101 17.7857 28.6956 17.727C28.6796 17.6623 28.6641 17.5991 28.689 17.5699C28.7818 17.4607 28.8894 17.3717 28.9851 17.2927C29.1085 17.1909 29.2119 17.1054 29.2378 17.0141C29.284 16.8514 29.4504 16.7894 29.6191 16.7268C29.748 16.6789 29.8785 16.6309 29.9572 16.5368C30.1822 16.268 30.6211 16.0278 31.1366 15.8435C31.3315 15.7737 31.3582 15.576 31.3921 15.3225C31.4132 15.1648 31.4369 14.9853 31.5061 14.8019C31.5453 14.6979 31.6821 14.7134 31.8086 14.7276C31.9252 14.7407 32.0331 14.7527 32.0484 14.6697C32.0619 14.5963 31.9613 14.4408 31.8658 14.2931C31.7594 14.1287 31.6595 13.9741 31.73 13.9533C31.7675 13.9422 31.8611 13.9767 31.9724 14.0176C32.0164 14.0338 32.0631 14.0508 32.1103 14.0667C32.0835 14.0415 32.0601 14.0185 32.0425 14.0009C31.9182 13.8767 31.8994 13.7647 31.8811 13.6549C31.8737 13.611 31.8667 13.5675 31.8527 13.5238C31.8016 13.3627 31.8884 13.2413 31.9729 13.1667C32.0086 13.1351 32.0006 13.066 31.9912 12.9855C31.9829 12.914 31.9735 12.8333 31.9927 12.7617C32.0037 12.7209 31.9876 12.665 31.974 12.6185C31.9641 12.5848 31.9557 12.5561 31.9602 12.5418C31.9641 12.5295 32.0063 12.5585 32.0538 12.5912C32.088 12.6148 32.125 12.6403 32.1525 12.6536C32.2183 12.6854 32.2548 12.6783 32.2544 12.6474C32.2542 12.6331 32.2459 12.6136 32.2377 12.5943C32.2281 12.5718 32.2183 12.5492 32.2215 12.5347C32.2361 12.4681 32.3162 12.4693 32.3994 12.4705C32.4909 12.4717 32.5861 12.4729 32.6025 12.3846C32.6076 12.3568 32.5992 12.3133 32.591 12.2711C32.5824 12.227 32.5743 12.1843 32.5822 12.1628C32.6143 12.0756 32.7592 12.1084 32.8925 12.1385C32.9811 12.1586 33.0646 12.1773 33.1064 12.159C33.1829 12.1253 33.3191 12.2024 33.4196 12.2593C33.4717 12.2888 33.5144 12.3131 33.5342 12.3136C33.5401 12.3018 33.5456 12.2893 33.5505 12.2766C33.5508 12.2607 33.551 12.2443 33.5614 12.239C33.5622 12.2386 33.5633 12.2385 33.5641 12.2381C33.5875 12.163 33.5992 12.078 33.6107 11.9933C33.6365 11.8032 33.6619 11.6152 33.8205 11.5483C33.8546 11.5339 33.9234 11.5532 33.9934 11.5727C34.079 11.5967 34.1667 11.6212 34.1948 11.585C34.2618 11.4987 34.2665 11.3488 34.2712 11.201C34.2781 10.9788 34.285 10.7617 34.5033 10.7741C34.5754 10.7782 34.672 10.8085 34.7691 10.8392C34.8233 10.8563 34.8779 10.8736 34.928 10.8862C34.8657 10.8318 34.8089 10.7792 34.7558 10.7301C34.6465 10.629 34.5529 10.5424 34.4584 10.4839C34.2349 10.3457 33.9376 10.1451 33.7614 9.95819C33.7136 9.90746 33.6575 9.85377 33.601 9.7998C33.4592 9.6644 33.3143 9.52612 33.2899 9.4225C33.2734 9.35266 33.2429 9.18503 33.3926 9.24742C33.4252 9.26102 33.4767 9.30103 33.5341 9.34547C33.637 9.42533 33.7591 9.51982 33.8256 9.50369C33.8368 9.50097 33.8482 9.49723 33.8596 9.49297C33.905 9.476 33.9556 9.45677 34.0421 9.5172C34.1418 9.58682 34.2356 9.687 34.3449 9.8038C34.4873 9.95591 34.6564 10.1366 34.8995 10.315C34.9476 10.3502 34.9741 10.3523 34.9942 10.3539C35.0084 10.355 35.0195 10.3561 35.0325 10.3682C35.0475 10.382 35.0753 10.414 35.1106 10.4546C35.235 10.5977 35.4525 10.8477 35.5302 10.7898C35.5512 10.7742 35.561 10.7421 35.5697 10.7132C35.5826 10.6707 35.5934 10.6355 35.6347 10.6706C35.6504 10.684 35.6669 10.6989 35.6839 10.7145C35.7014 10.6879 35.7188 10.6612 35.7363 10.6346C35.719 10.5607 35.7626 10.5249 35.8172 10.4804C35.8305 10.4696 35.8443 10.458 35.8581 10.4455C35.8922 10.3926 35.9263 10.3397 35.9602 10.2865C35.9754 10.2327 35.9806 10.1645 35.9694 10.0758C35.9469 9.89793 35.8492 9.66515 35.7537 9.43758C35.7134 9.34169 35.6734 9.24656 35.6397 9.15693C35.6212 9.16024 35.6025 9.16112 35.5826 9.15635C35.4464 9.12374 35.2596 8.9785 35.0877 8.84478C34.9733 8.75583 34.8654 8.67198 34.7837 8.63C34.6341 8.55306 34.5052 8.41691 34.4099 8.31626C34.3605 8.26405 34.3199 8.22136 34.2903 8.20147C34.2666 8.18557 34.2483 8.18527 34.2293 8.18492C34.2128 8.18462 34.1956 8.1842 34.1743 8.17359C33.9153 8.04465 33.8222 7.9125 33.6868 7.72019C33.6121 7.61413 33.5244 7.48973 33.3889 7.33742C33.2437 7.17784 33.1967 7.13569 33.102 7.10909C33.0533 7.00728 33.0046 6.90548 32.9559 6.80367C32.9712 6.79814 33.0261 6.83729 33.1154 6.90435C33.2748 7.02413 33.3904 7.01058 33.4808 6.99999C33.5226 6.99509 33.559 6.9909 33.5919 7.00082C33.7668 7.05362 33.9076 7.2299 34.0314 7.38503C34.0996 7.47041 34.1628 7.54941 34.2236 7.59786C34.2496 7.61861 34.269 7.64556 34.2889 7.67301C34.3042 7.69423 34.3198 7.71583 34.3388 7.73508C34.4769 7.87479 34.6161 7.94179 34.7454 8.00402C34.8194 8.03966 34.8903 8.07397 34.9558 8.11927C34.9758 8.13308 34.9955 8.14785 35.0145 8.16228C35.0423 8.18334 35.0688 8.20335 35.0939 8.21817C35.151 8.25193 35.2056 8.25855 35.2653 8.26561C35.2959 8.26922 35.3279 8.273 35.3622 8.2807C35.4067 8.29069 35.4679 8.33941 35.5319 8.39024C35.5771 8.42616 35.6237 8.46307 35.667 8.48855C35.7455 8.53461 35.8006 8.5244 35.8518 8.51494C35.874 8.51081 35.8958 8.50706 35.9182 8.50792C35.9273 8.50827 35.9389 8.51562 35.9523 8.52812C36.0456 8.52182 36.1375 8.51871 36.2273 8.51595C36.6773 8.50213 37.0671 8.49047 37.2298 8.05362C37.2606 7.97103 37.3266 7.91534 37.4089 7.87458C37.5511 7.62335 37.6917 7.37023 37.8307 7.11585C37.7445 6.95176 37.687 6.79902 37.6609 6.66015C37.6119 6.3994 37.6877 6.25739 37.7771 6.0898C37.8433 5.9659 37.9168 5.82789 37.9529 5.61761C38.0137 5.2643 38.1025 4.92799 38.2781 4.62383C38.4529 4.32099 38.6791 4.00038 38.8558 3.79019C38.9521 3.6756 38.9509 3.45287 38.95 3.24543C38.9486 2.95365 38.9475 2.69197 39.2176 2.80293C39.3038 2.8384 39.4341 2.91954 39.5607 2.99832C39.6508 3.05443 39.739 3.10906 39.8087 3.14581C39.8359 3.08551 39.8634 3.02533 39.8906 2.96483C39.8415 2.76003 39.8263 2.50293 40.0849 2.52756C40.1126 2.46486 40.1404 2.40223 40.1664 2.34091C40.2247 2.20869 40.2806 2.07806 40.337 1.94632C40.3552 1.90315 40.3737 1.85966 40.3923 1.81603C40.3924 1.81559 40.3926 1.81516 40.3927 1.81472C40.4301 1.72689 40.4677 1.63842 40.5041 1.55084C40.5197 1.51337 40.5354 1.47589 40.551 1.43842C40.5908 1.34324 40.631 1.24746 40.6697 1.15257C40.6902 1.10228 40.711 1.05176 40.7317 1.00095C40.7653 0.918521 40.7993 0.83552 40.8327 0.752658C40.8868 0.618665 40.94 0.484658 40.9931 0.350158C41.0017 0.328088 40.9953 0.292223 40.9741 0.249366C40.9529 0.206458 40.9187 0.160139 40.8773 0.118712C40.8358 0.0772724 40.7893 0.0431204 40.7465 0.022022C40.7038 0.00103368 40.6685 -0.0048617 40.6466 0.00390973C40.5131 0.0581545 40.3802 0.112711 40.2473 0.16799C40.1651 0.202145 40.0824 0.236358 40.0007 0.270665C39.9503 0.291819 39.9003 0.31311 39.8504 0.333972C39.7563 0.373505 39.6609 0.414337 39.5665 0.454947C39.5294 0.470878 39.4922 0.486808 39.455 0.502739C39.3679 0.540011 39.2801 0.578588 39.1928 0.616771C39.1922 0.617006 39.1917 0.617241 39.1912 0.617476C39.1482 0.63626 39.1053 0.654974 39.0628 0.67346C38.9322 0.731015 38.8027 0.788074 38.6716 0.847597C38.603 0.877527 38.5328 0.909962 38.4628 0.941814C38.4238 0.959548 38.3848 0.977174 38.3464 0.994404C38.3256 1.00398 38.3046 1.01381 38.2835 1.02369C37.7956 1.24665 37.3153 1.47213 36.8369 1.70608C36.3598 1.9387 35.8871 2.17698 35.4201 2.41888C34.9523 2.66162 34.4899 2.9086 34.0317 3.16024C31.1229 4.75685 28.3233 6.48059 25.7239 8.40659C25.3529 8.68099 24.9781 8.96858 24.6157 9.2529C24.2497 9.54074 23.8948 9.82626 23.5374 10.1244C23.4286 10.2147 23.3179 10.308 23.2048 10.4044Z" fill="black"/>
<path d="M0.229847 58.5172C-0.192082 57.4465 0.0686096 56.3078 0.212215 55.2684C0.215351 55.2453 0.218503 55.2222 0.221677 55.199C0.384773 53.9271 0.688716 52.462 1.68251 51.473C2.66665 50.4894 3.96105 49.849 5.29257 49.6587C6.12369 49.5372 6.96586 49.5889 7.74573 49.7921C8.21559 49.9139 8.6681 50.0904 9.08838 50.3151C10.2077 50.9107 11.0805 51.8504 11.5837 52.9036C11.9281 53.6187 12.1079 54.3867 12.1242 55.1323C12.1317 55.4596 12.1083 55.7821 12.0564 56.0951C12.0177 56.3281 11.9632 56.5573 11.8946 56.7775C11.885 56.8082 11.8575 56.8353 11.8173 56.8521C11.777 56.8689 11.7275 56.8741 11.6783 56.8668C11.629 56.8596 11.5831 56.8406 11.5489 56.8146C11.5148 56.7886 11.4953 56.7578 11.4933 56.7281C11.4792 56.5138 11.4505 56.3017 11.4079 56.0968C11.3607 55.8685 11.2962 55.6475 11.2168 55.4359C11.4125 55.3684 11.5568 55.2907 11.6042 55.1803C11.6285 55.1242 11.6263 55.0478 11.5765 55.0042C11.5319 54.965 11.4639 54.9453 11.3992 54.9278C11.3315 54.9094 11.2674 54.8936 11.2361 54.8594C11.1829 54.8012 11.0798 54.7635 10.9718 54.7296C10.9324 54.7172 10.8923 54.7052 10.8536 54.6926C10.7446 54.5149 10.6242 54.3478 10.4944 54.1921C10.4774 54.1143 10.4569 54.0435 10.4186 53.9962C10.3842 53.9537 10.3212 53.9346 10.25 53.9237C10.2283 53.9018 10.2064 53.8802 10.1842 53.8589C10.0415 53.7214 9.89104 53.5959 9.73478 53.4834C9.67553 53.3386 9.60077 53.1882 9.45812 53.0364C9.39661 52.9712 9.34592 52.8935 9.29369 52.8195C9.21713 52.7105 9.13662 52.6095 9.03085 52.5787C8.96038 52.5581 8.91173 52.4963 8.85958 52.4349C8.79067 52.353 8.71429 52.2717 8.59869 52.305C8.52617 52.326 8.45476 52.3605 8.39023 52.394C8.28765 52.4474 8.20233 52.4979 8.14752 52.4838C8.0447 52.4575 7.93706 52.4919 7.84705 52.5257C7.73748 52.5662 7.65208 52.6052 7.59841 52.5303C7.59023 52.519 7.58113 52.5043 7.57071 52.4877C7.53248 52.4264 7.47499 52.3393 7.37947 52.3081C7.33912 52.2949 7.29266 52.292 7.24065 52.3059C7.17865 52.3227 7.11704 52.3785 7.06029 52.4346C6.97728 52.5163 6.90403 52.5981 6.8276 52.5602C6.81612 52.5545 6.80408 52.531 6.79286 52.5095C6.77863 52.4822 6.7656 52.4585 6.75852 52.4794C6.73769 52.5406 6.70548 52.6087 6.6733 52.6833C6.64957 52.7382 6.62601 52.7965 6.60562 52.8579C6.42466 52.9032 6.25032 52.9622 6.08406 53.0328C6.00801 53.0652 5.93324 53.1002 5.86051 53.1374C5.79332 53.0625 5.72468 52.9985 5.65826 52.9561C5.57118 52.9009 5.48337 52.9077 5.37054 52.9228C5.28736 52.934 5.1906 52.9496 5.06465 52.9535C4.82956 52.9607 4.65443 53.1098 4.58095 53.2386C4.56506 53.2659 4.54996 53.294 4.53448 53.3244C4.47696 53.44 4.40565 53.5826 4.27877 53.8259C4.16058 54.0562 4.0576 54.2338 3.98605 54.3719C3.94963 54.4424 3.92199 54.5016 3.90721 54.5505C3.88199 54.634 3.84968 54.7342 3.82307 54.8354C3.78069 54.9937 3.75394 55.1553 3.76166 55.2515C3.7643 55.2856 3.76979 55.322 3.7763 55.3609C3.79326 55.461 3.81737 55.5767 3.82784 55.724C3.82866 55.7355 3.82941 55.7471 3.83008 55.7589C3.84079 55.9297 3.81488 56.0281 3.76483 56.1366C3.74475 56.1802 3.66739 56.2202 3.58832 56.2652C3.47618 56.3281 3.36076 56.4042 3.4047 56.4911C3.41497 56.5112 3.43574 56.5314 3.45774 56.5522C3.49817 56.5905 3.54251 56.6294 3.53286 56.6774C3.5295 56.6942 3.51098 56.7117 3.49294 56.7291C3.4731 56.7483 3.45388 56.7674 3.45585 56.7849C3.46321 56.8499 3.48199 56.9113 3.49992 56.9649C3.52299 57.034 3.5446 57.0911 3.5377 57.1327C3.52541 57.207 3.57722 57.27 3.63103 57.3291C3.67227 57.3747 3.71481 57.4186 3.73237 57.4707C3.78205 57.6204 3.93256 57.7936 4.1289 57.9209C4.20293 57.9689 4.20143 58.0509 4.20687 58.1604C4.21026 58.2283 4.21628 58.3067 4.24544 58.3899C4.2621 58.4371 4.32093 58.4378 4.37426 58.4367C4.42357 58.4359 4.46844 58.4337 4.47633 58.4691C4.48329 58.5003 4.44448 58.5637 4.40856 58.6249C4.36851 58.6928 4.33213 58.7579 4.36449 58.7691C4.38167 58.775 4.42113 58.7623 4.46739 58.7462C4.48568 58.7398 4.50501 58.733 4.52456 58.7266C4.51437 58.7372 4.5055 58.7469 4.49886 58.7543C4.45183 58.8065 4.45056 58.8551 4.4507 58.9031C4.45073 58.9223 4.45101 58.9414 4.44839 58.9605C4.43869 59.0312 4.49009 59.086 4.53649 59.1181C4.55607 59.1318 4.56007 59.1622 4.56538 59.1979C4.57007 59.2295 4.57583 59.2653 4.59426 59.2966C4.60475 59.3144 4.60502 59.3394 4.60533 59.3603C4.60554 59.3754 4.60579 59.3884 4.61 59.3946C4.61366 59.4 4.62906 59.3861 4.64628 59.3704C4.65869 59.359 4.6721 59.3468 4.6828 59.34C4.70841 59.324 4.72596 59.3257 4.7303 59.3391C4.73229 59.3454 4.73136 59.3541 4.73046 59.3629C4.7294 59.373 4.72832 59.3832 4.73199 59.3894C4.74888 59.4178 4.78576 59.4139 4.82349 59.4091C4.86516 59.4039 4.90742 59.3975 4.92963 59.4338C4.93663 59.4453 4.94028 59.4642 4.94397 59.4827C4.94783 59.502 4.95183 59.5207 4.95937 59.5292C4.9902 59.564 5.0501 59.5389 5.1038 59.5144C5.13959 59.4982 5.17279 59.4824 5.19463 59.4857C5.23487 59.4918 5.279 59.4457 5.31108 59.4115C5.32771 59.3938 5.34121 59.3791 5.34947 59.3766C5.35416 59.3805 5.35882 59.3848 5.3633 59.3892C5.36641 59.3955 5.36966 59.402 5.37506 59.4028C5.37547 59.4028 5.37594 59.4028 5.37635 59.4028C5.4006 59.4296 5.42277 59.4616 5.44509 59.4931C5.49507 59.5639 5.55032 59.6339 5.63289 59.6345C5.6507 59.6347 5.67491 59.6165 5.69914 59.5977C5.72886 59.5747 5.75866 59.5509 5.77872 59.5593C5.82628 59.5795 5.86533 59.6331 5.90661 59.6855C5.96769 59.7641 6.03512 59.8399 6.11914 59.7895C6.14664 59.7729 6.17586 59.7417 6.20454 59.71C6.22052 59.6923 6.23642 59.6743 6.25185 59.6588C6.24392 59.6909 6.2375 59.7213 6.23149 59.7496C6.21908 59.8079 6.20845 59.8578 6.18841 59.8983C6.14132 59.9942 6.07951 60.1259 6.06474 60.2276C6.06081 60.2553 6.05428 60.2856 6.04758 60.3162C6.03086 60.3928 6.01316 60.4711 6.03953 60.5126C6.05698 60.5406 6.10602 60.6057 6.15194 60.5519C6.16187 60.5402 6.17054 60.5153 6.18008 60.4876C6.18464 60.4744 6.18941 60.4604 6.19462 60.447C6.20897 60.4099 6.22655 60.3764 6.25232 60.3693C6.25824 60.3677 6.26461 60.3664 6.27115 60.3652C6.29723 60.3605 6.32629 60.355 6.34137 60.3149C6.35872 60.2687 6.36221 60.2139 6.36664 60.15C6.37221 60.0668 6.38008 59.9682 6.41606 59.8522C6.42316 59.8293 6.43254 59.8222 6.4396 59.8167C6.44458 59.8129 6.44839 59.8098 6.44945 59.8028C6.45067 59.7947 6.45096 59.7777 6.45135 59.7562C6.45256 59.6802 6.45648 59.5479 6.5004 59.5465C6.51236 59.5462 6.52544 59.5537 6.53719 59.5604C6.5545 59.5702 6.56903 59.5782 6.57261 59.5568C6.57396 59.5487 6.57514 59.5399 6.57626 59.5307C6.59024 59.5343 6.60425 59.5379 6.61827 59.5413C6.63495 59.5682 6.6607 59.5674 6.69301 59.5658C6.70085 59.5654 6.70911 59.5651 6.71766 59.565C6.74572 59.5712 6.77384 59.577 6.80202 59.5827C6.82434 59.5937 6.84803 59.6115 6.87417 59.6394C6.92626 59.6953 6.97509 59.7871 7.02647 59.8758C7.04806 59.9132 7.07033 59.9501 7.09304 59.9835C7.08544 59.9883 7.07863 59.9938 7.07356 60.0012C7.03883 60.0512 7.02828 60.1457 7.01764 60.2328C7.01057 60.2907 7.0035 60.3453 6.98898 60.3808C6.96229 60.446 6.96721 60.5207 6.97139 60.5761C6.9735 60.6048 6.97521 60.6283 6.97155 60.6424C6.9686 60.6537 6.96107 60.6592 6.95327 60.6649C6.94647 60.6699 6.93942 60.675 6.93503 60.6842C6.88138 60.7951 6.89789 60.8584 6.92599 60.9506C6.94134 61.0014 6.95986 61.0609 6.97023 61.142C6.97959 61.228 6.97834 61.2533 6.94594 61.2885C6.97284 61.3304 7.00035 61.3721 7.02847 61.4136C7.03874 61.4105 7.04556 61.3836 7.0545 61.3389C7.07057 61.2592 7.131 61.2272 7.17787 61.2012C7.19953 61.1893 7.21821 61.1786 7.22815 61.1657C7.2808 61.0967 7.25512 61.0087 7.23442 60.9314C7.22288 60.8888 7.21255 60.8493 7.21543 60.818C7.21664 60.8046 7.21222 60.7919 7.20779 60.7788C7.20436 60.7687 7.20087 60.7584 7.19988 60.7477C7.19287 60.6694 7.21893 60.6087 7.24156 60.5521C7.25458 60.5198 7.26658 60.4886 7.27153 60.4566C7.27304 60.4468 7.274 60.4369 7.27485 60.4273C7.27611 60.4133 7.27731 60.3999 7.28022 60.3883C7.28683 60.3617 7.30407 60.3424 7.3226 60.3211C7.3321 60.3102 7.34194 60.2988 7.35086 60.2857C7.3624 60.2686 7.36313 60.2372 7.36385 60.2043C7.36436 60.1811 7.36489 60.1572 7.36896 60.137C7.37635 60.1004 7.39881 60.0844 7.41942 60.0693C7.4284 60.0627 7.43699 60.0562 7.44392 60.0484C7.44673 60.0453 7.44743 60.0398 7.4466 60.0325C7.47926 60.0023 7.50935 59.9714 7.53786 59.9409C7.68183 59.787 7.7824 59.6528 8.00469 59.6602C8.04705 59.6613 8.0865 59.6441 8.12276 59.6178C8.2627 59.5978 8.40358 59.5702 8.54459 59.5346C8.60184 59.5848 8.66079 59.6211 8.7205 59.6416C8.83285 59.6799 8.91612 59.6532 9.01226 59.6184C9.08356 59.5925 9.16205 59.5621 9.27013 59.5447C9.45167 59.5152 9.63277 59.4594 9.80331 59.35C9.97345 59.2418 10.1492 59.0897 10.2593 58.9689C10.3194 58.9037 10.4265 58.8682 10.5267 58.8301C10.6675 58.777 10.7948 58.7172 10.7403 58.6007C10.7229 58.5636 10.6831 58.5141 10.6438 58.4667C10.6158 58.433 10.5883 58.4003 10.5693 58.3733C10.5957 58.347 10.6218 58.3201 10.6478 58.2929C10.7419 58.2718 10.8596 58.2144 10.8305 58.0897C10.856 58.0596 10.881 58.0291 10.9053 57.9993C10.9576 57.934 11.0079 57.8685 11.0569 57.8006C11.0731 57.7784 11.0891 57.7558 11.105 57.7329C11.1052 57.7326 11.1054 57.7324 11.1055 57.7322C11.1376 57.6862 11.169 57.6393 11.1996 57.5921C11.2127 57.5719 11.2256 57.5515 11.2384 57.531C11.2709 57.479 11.3025 57.4259 11.3332 57.3726C11.3495 57.3445 11.3656 57.3154 11.3814 57.2867C11.4071 57.2399 11.4323 57.192 11.4568 57.1435C11.4966 57.0646 11.5342 56.9864 11.5703 56.9048C11.5762 56.8915 11.5901 56.8799 11.6095 56.8726C11.6289 56.8654 11.6522 56.863 11.6754 56.8664C11.6986 56.8698 11.7204 56.8788 11.7367 56.8917C11.753 56.9045 11.7625 56.9202 11.7639 56.9352C11.7721 57.0273 11.7779 57.1183 11.7806 57.2122C11.7823 57.2699 11.7831 57.328 11.7827 57.3857C11.7825 57.4211 11.7816 57.4572 11.7807 57.4926C11.7787 57.5597 11.7752 57.6278 11.7701 57.6957C11.7681 57.7226 11.7659 57.7494 11.7635 57.7762C11.7578 57.8391 11.7506 57.9026 11.7422 57.9661C11.7421 57.9665 11.7421 57.9668 11.742 57.9672C11.7378 57.9985 11.7334 58.0298 11.7288 58.0607C11.7142 58.1558 11.697 58.2503 11.6759 58.3466C11.6654 58.3966 11.6532 58.448 11.6402 58.4995C11.633 58.5281 11.6256 58.5567 11.6181 58.5847C11.6139 58.6 11.6096 58.6155 11.6051 58.631C11.5049 58.9884 11.3635 59.3389 11.1793 59.677C10.9959 60.014 10.7712 60.3363 10.5108 60.6336C10.2497 60.9314 9.95251 61.2045 9.62409 61.4452C8.60257 62.2008 7.25673 62.6277 5.88565 62.5694C4.47202 62.5213 3.0175 61.945 1.91041 60.9374C1.59837 60.6561 1.30605 60.3338 1.05283 59.9925C0.796993 59.6474 0.577752 59.2834 0.391963 58.8903C0.335523 58.7711 0.281232 58.6465 0.229847 58.5172Z" fill="black"/>
</svg>
