<svg width="86" height="74" viewBox="0 0 86 74" fill="none" xmlns="http://www.w3.org/2000/svg">
<path d="M58.9782 21.045C59.7571 21.9622 61.2258 22.1259 62.078 22.9756C63.1362 24.0305 63.586 25.7273 64.7611 26.6702C65.9301 27.607 67.1549 28.4981 68.4151 29.3471C69.6765 30.1973 70.9751 31.0071 72.3022 31.7927C73.6269 32.576 74.9802 33.3354 76.3467 34.0787C77.2749 34.5835 78.2107 35.0823 79.1484 35.5775C79.5599 35.7951 79.9708 36.0112 80.3829 36.2279C80.6905 36.3893 80.9981 36.5507 81.3057 36.7121C81.3486 36.7344 81.4217 36.7238 81.5111 36.6805C81.6006 36.6371 81.6987 36.5649 81.7866 36.477C81.8745 36.3889 81.9468 36.2905 81.9899 36.2012C82.0328 36.112 82.0428 36.0395 82.0201 35.997C81.8544 35.6897 81.6887 35.3824 81.523 35.0751C81.3388 34.7339 81.1553 34.393 80.9707 34.0524C80.5684 34.372 80.2379 34.5891 80.0106 34.6036C79.8947 34.611 79.7899 34.5576 79.7987 34.4322C79.8067 34.3196 79.8747 34.1728 79.9397 34.0329C80.0076 33.8867 80.0722 33.7478 80.0603 33.6641C80.0401 33.522 80.1162 33.2916 80.1962 33.0496C80.2254 32.9615 80.2551 32.8718 80.2807 32.7843C80.1035 32.4602 79.9256 32.1367 79.7471 31.8138C79.6119 31.7555 79.4918 31.6975 79.4311 31.6072C79.3766 31.5262 79.3908 31.3879 79.4239 31.2313C79.3962 31.1814 79.3684 31.1315 79.3407 31.0817C79.1613 30.7602 78.9807 30.4398 78.7994 30.1199C78.5076 30.0207 78.2092 29.9094 77.9017 29.684C77.7692 29.5869 77.6038 29.5257 77.4449 29.4668C77.2103 29.3798 76.9895 29.2979 76.9088 29.1133C76.8548 28.99 76.7105 28.9477 76.5666 28.9055C76.3735 28.849 76.1809 28.7925 76.2069 28.5407C76.2233 28.3823 76.2643 28.2109 76.3024 28.052C76.363 27.7992 76.4162 27.5781 76.3496 27.4927C76.2245 27.3321 76.215 27.0943 76.2068 26.8845C76.1968 26.6323 76.1885 26.4206 75.9824 26.4336C75.9512 26.4356 75.9124 26.4409 75.8684 26.4471C75.6368 26.4799 75.2663 26.5324 75.1543 26.1879C75.1145 26.0653 75.1458 25.8813 75.1766 25.701C75.2215 25.4385 75.2651 25.1836 75.0855 25.1368C75.0586 25.1299 74.9994 25.1539 74.9452 25.1758C74.8764 25.2037 74.8164 25.2281 74.8425 25.1808C74.9192 25.0421 74.989 24.8738 75.0651 24.6908C75.121 24.5563 75.1803 24.4138 75.2478 24.2695C75.0144 23.9164 74.7785 23.5658 74.5394 23.2182C74.43 23.0589 74.3198 22.9002 74.209 22.7421C73.978 22.8355 73.7616 22.9113 73.5768 22.9475C73.3353 22.9948 73.1652 22.9132 72.9456 22.8083C72.7841 22.7311 72.5956 22.6412 72.3326 22.5804C71.8458 22.4677 71.5798 22.1179 71.4828 21.8203C71.4623 21.7573 71.443 21.6927 71.4228 21.6232C71.3461 21.3596 71.2507 21.0303 70.9764 20.4979C70.717 19.9943 70.4241 19.6382 70.2042 19.3706C70.0919 19.2341 69.9983 19.1209 69.938 19.0226C69.835 18.8545 69.6975 18.659 69.5593 18.463C69.3431 18.1561 69.1253 17.8475 69.0368 17.638C69.0053 17.5634 68.9763 17.4811 68.9447 17.3925C68.857 17.147 68.7511 16.8506 68.5288 16.5182C68.2954 16.1694 68.0756 16.0283 67.8026 15.9265C67.6916 15.8851 67.4868 15.9555 67.2755 16.0284C66.9755 16.1318 66.6625 16.2398 66.5867 16.0383C66.569 15.9913 66.5672 15.924 66.5655 15.8535C66.5624 15.7239 66.5591 15.5836 66.4556 15.5402C66.4195 15.525 66.3595 15.5398 66.3008 15.5543C66.2362 15.5702 66.1729 15.5857 66.1437 15.5609C66.0345 15.4681 65.9455 15.3605 65.8666 15.2648C65.7647 15.1414 65.6792 15.038 65.588 15.0121C65.4253 14.9658 65.3632 14.7995 65.3006 14.6308C65.2528 14.5019 65.2047 14.3714 65.1107 14.2926C64.8418 14.0677 64.6016 13.6287 64.4173 13.1133C64.3475 12.9183 64.1498 12.8917 63.8963 12.8577C63.7387 12.8366 63.5591 12.813 63.3757 12.7438C63.2717 12.7045 63.2873 12.5677 63.3015 12.4412C63.3146 12.3247 63.3265 12.2168 63.2435 12.2015C63.1702 12.188 63.0146 12.2885 62.8669 12.3841C62.7026 12.4904 62.548 12.5904 62.5271 12.5199C62.516 12.4823 62.5505 12.3887 62.5915 12.2775C62.6077 12.2335 62.6247 12.1868 62.6405 12.1396C62.6153 12.1663 62.5923 12.1898 62.5747 12.2073C62.4506 12.3316 62.3385 12.3504 62.2287 12.3688C62.1848 12.3761 62.1414 12.3832 62.0976 12.3971C61.9365 12.4483 61.8151 12.3614 61.7405 12.2769C61.7089 12.2412 61.6399 12.2493 61.5593 12.2586C61.4878 12.2669 61.4071 12.2764 61.3355 12.2571C61.2947 12.2462 61.2388 12.2623 61.1923 12.2759C61.1586 12.2857 61.1299 12.2942 61.1156 12.2897C61.1033 12.2857 61.1323 12.2436 61.165 12.1961C61.1886 12.1619 61.2141 12.1248 61.2274 12.0973C61.2593 12.0316 61.2522 11.9951 61.2212 11.9955C61.2069 11.9957 61.1875 12.0039 61.1681 12.0122C61.1456 12.0218 61.123 12.0316 61.1085 12.0284C61.042 12.0137 61.0431 11.9336 61.0443 11.8504C61.0456 11.759 61.0467 11.6638 60.9584 11.6474C60.9306 11.6422 60.8871 11.6506 60.845 11.6588C60.8008 11.6674 60.7581 11.6756 60.7366 11.6677C60.6495 11.6355 60.6822 11.4907 60.7123 11.3574C60.7324 11.2687 60.7511 11.1852 60.7328 11.1435C60.6992 11.067 60.7762 10.9308 60.8332 10.8302C60.8627 10.7781 60.887 10.7354 60.8874 10.7156C60.8756 10.7097 60.8631 10.7043 60.8504 10.6993C60.8345 10.6991 60.8181 10.6988 60.8128 10.6884C60.8124 10.6876 60.8123 10.6866 60.8119 10.6858C60.7368 10.6624 60.6518 10.6507 60.5671 10.6392C60.377 10.6133 60.1891 10.588 60.1221 10.4294C60.1077 10.3952 60.127 10.3264 60.1465 10.2565C60.1705 10.1708 60.195 10.0832 60.1588 10.0551C60.0726 9.98806 59.9226 9.98333 59.7748 9.9787C59.5526 9.97173 59.3355 9.96484 59.3479 9.74652C59.352 9.67446 59.3823 9.57788 59.413 9.4807C59.4301 9.42655 59.4474 9.37199 59.46 9.3218C59.4057 9.3841 59.353 9.44098 59.304 9.49403C59.2028 9.60335 59.1162 9.69694 59.0577 9.7915C58.9195 10.015 58.7189 10.3122 58.532 10.4884C58.4813 10.5362 58.4276 10.5923 58.3736 10.6488C58.2382 10.7907 58.0999 10.9356 57.9963 10.96C57.9265 10.9764 57.7589 11.0069 57.8212 10.8573C57.8348 10.8247 57.8749 10.7731 57.9193 10.7158C57.9992 10.6128 58.0936 10.4908 58.0775 10.4242C58.0748 10.4131 58.0711 10.4017 58.0668 10.3903C58.0498 10.3449 58.0306 10.2943 58.091 10.2077C58.1607 10.108 58.2608 10.0143 58.3776 9.90495C58.5297 9.76258 58.7104 9.59349 58.8888 9.35031C58.9241 9.30222 58.9261 9.27571 58.9277 9.25563C58.9288 9.24149 58.9299 9.2304 58.942 9.21736C58.9558 9.2024 58.9879 9.1745 59.0284 9.13924C59.1715 9.01482 59.4215 8.79732 59.3637 8.71967C59.348 8.69869 59.3159 8.68886 59.287 8.68012C59.2445 8.66723 59.2093 8.65645 59.2445 8.61513C59.2578 8.59947 59.2727 8.58292 59.2883 8.56595C59.2617 8.54849 59.235 8.53103 59.2084 8.51357C59.1345 8.53087 59.0987 8.48727 59.0542 8.43264C59.0434 8.41938 59.0319 8.40557 59.0194 8.39175C58.9664 8.35767 58.9135 8.32352 58.8604 8.28962C58.8065 8.27446 58.7383 8.26923 58.6496 8.28046C58.4718 8.30298 58.239 8.40062 58.0114 8.49616C57.9155 8.53641 57.8204 8.57642 57.7308 8.61014C57.7341 8.62861 57.7349 8.64739 57.7302 8.66729C57.6976 8.80345 57.5523 8.99026 57.4186 9.1622C57.3297 9.27656 57.2458 9.38441 57.2038 9.46612C57.1269 9.61579 56.9907 9.74465 56.8901 9.83996C56.8379 9.88939 56.7952 9.92998 56.7753 9.95954C56.7594 9.98325 56.7591 10.0016 56.7587 10.0205C56.7584 10.0371 56.758 10.0542 56.7474 10.0755C56.6185 10.3346 56.4863 10.4276 56.294 10.563C56.188 10.6377 56.0636 10.7255 55.9112 10.861C55.7517 11.0061 55.7095 11.0531 55.6829 11.1479C55.5811 11.1966 55.4793 11.2453 55.3775 11.294C55.372 11.2787 55.4111 11.2237 55.4782 11.1344C55.598 10.975 55.5844 10.8594 55.5738 10.7691C55.5689 10.7273 55.5647 10.6908 55.5746 10.6579C55.6274 10.483 55.8037 10.3423 55.9589 10.2184C56.0442 10.1502 56.1232 10.0871 56.1717 10.0263C56.1924 10.0003 56.2194 9.98084 56.2468 9.96098C56.2681 9.94562 56.2897 9.93004 56.3089 9.91103C56.4486 9.77292 56.5156 9.6337 56.5779 9.50446C56.6135 9.43045 56.6478 9.35954 56.6931 9.29401C56.7069 9.27404 56.7217 9.25437 56.7361 9.23535C56.7572 9.20757 56.7772 9.18103 56.792 9.15597C56.8258 9.09888 56.8324 9.04424 56.8394 8.98455C56.8431 8.95394 56.8468 8.92198 56.8545 8.88763C56.8645 8.84311 56.9132 8.78195 56.9641 8.718C57 8.67279 57.0369 8.62616 57.0624 8.58281C57.1084 8.5044 57.0982 8.44926 57.0888 8.39809C57.0846 8.37581 57.0809 8.35402 57.0817 8.33162C57.0821 8.32251 57.0894 8.31096 57.1019 8.29754C57.0956 8.20428 57.0925 8.11234 57.0898 8.02258C57.076 7.57257 57.0643 7.18273 56.6274 7.02001C56.5449 6.98925 56.4892 6.9232 56.4484 6.84096C56.1972 6.69871 55.9441 6.55811 55.6897 6.41913C55.5256 6.50537 55.3728 6.56287 55.234 6.58898C54.9732 6.63797 54.8312 6.56215 54.6636 6.47271C54.5397 6.40658 54.4017 6.33309 54.1914 6.29692C53.8381 6.23616 53.5018 6.14732 53.1977 5.97176C52.8948 5.79695 52.5742 5.57072 52.364 5.39402C52.2494 5.29771 52.0267 5.29892 51.8193 5.29989C51.5275 5.30127 51.2658 5.30235 51.3767 5.0323C51.4122 4.94601 51.4934 4.81576 51.5721 4.68918C51.6283 4.59902 51.6829 4.51082 51.7196 4.44118C51.6593 4.41391 51.5992 4.38642 51.5387 4.35928C51.3338 4.40838 51.0768 4.42351 51.1014 4.16499C51.0387 4.13728 50.976 4.10947 50.9147 4.08346C50.7825 4.02511 50.6519 3.96929 50.5201 3.91289C50.477 3.89464 50.4335 3.87611 50.3899 3.85757C50.3894 3.85742 50.389 3.85727 50.3885 3.85712C50.3007 3.81979 50.2122 3.78217 50.1247 3.74574C50.0872 3.7301 50.0497 3.71446 50.0122 3.69881C49.9171 3.65902 49.8213 3.61884 49.7264 3.58012C49.6761 3.55969 49.6256 3.53882 49.5748 3.5181C49.4923 3.4845 49.4093 3.4506 49.3265 3.41715C49.1925 3.36305 49.0585 3.30984 48.924 3.25677C48.9019 3.24817 48.866 3.25455 48.8232 3.27574C48.7803 3.297 48.734 3.3311 48.6925 3.37256C48.6511 3.41404 48.6169 3.46051 48.5958 3.50334C48.5749 3.54605 48.569 3.58139 48.5777 3.60327C48.632 3.73673 48.6865 3.86963 48.7418 4.00258C48.776 4.08475 48.8102 4.1674 48.8445 4.24915C48.8656 4.29955 48.8869 4.34958 48.9078 4.39948C48.9473 4.49357 48.9882 4.58892 49.0288 4.6833C49.0447 4.72048 49.0606 4.75767 49.0766 4.79485C49.1138 4.88192 49.1524 4.96979 49.1906 5.05708C49.1908 5.05761 49.1911 5.05813 49.1913 5.05865C49.2101 5.1016 49.2288 5.14452 49.2473 5.18701C49.3048 5.31767 49.3619 5.44716 49.4214 5.57828C49.4513 5.64685 49.4838 5.71706 49.5156 5.78709C49.5334 5.82609 49.551 5.86508 49.5682 5.90344C49.5778 5.92427 49.5876 5.94524 49.5975 5.96633C49.8205 6.45421 50.046 6.93456 50.2799 7.41299C50.5125 7.89009 50.7508 8.36277 50.9927 8.82974C51.2354 9.29757 51.4824 9.75991 51.7341 10.2182C53.3307 13.1269 55.0544 15.9266 56.9804 18.5259C57.2548 18.897 57.5424 19.2717 57.8267 19.6342C58.1146 20.0002 58.4001 20.355 58.6982 20.7124C58.7885 20.8212 58.8819 20.932 58.9782 21.045Z" fill="black"/>
<path d="M65.6254 59.9381C66.5426 59.1592 66.7062 57.6906 67.5559 56.8384C68.6108 55.7802 70.3077 55.3304 71.2506 54.1553C72.1873 52.9863 73.0785 51.7615 73.9274 50.5013C74.7776 49.2399 75.5874 47.9413 76.373 46.6142C77.1563 45.2895 77.9157 43.9362 78.659 42.5697C79.1638 41.6415 79.6626 40.7057 80.1579 39.768C80.3754 39.3566 80.5916 38.9456 80.8082 38.5335C80.9696 38.2259 81.131 37.9183 81.2924 37.6107C81.3147 37.5678 81.3042 37.4947 81.2608 37.4053C81.2174 37.3158 81.1453 37.2177 81.0573 37.1298C80.9692 37.0419 80.8709 36.9696 80.7815 36.9265C80.6924 36.8836 80.6198 36.8736 80.5773 36.8963C80.27 37.062 79.9628 37.2277 79.6555 37.3934C79.3143 37.5776 78.9734 37.7611 78.6327 37.9457C78.9524 38.348 79.1694 38.6785 79.184 38.9058C79.1914 39.0217 79.1379 39.1265 79.0126 39.1177C78.9 39.1097 78.7531 39.0417 78.6133 38.9767C78.467 38.9088 78.3282 38.8442 78.2445 38.8561C78.1023 38.8763 77.8719 38.8002 77.6299 38.7202C77.5419 38.691 77.4521 38.6613 77.3646 38.6357C77.0406 38.8129 76.717 38.9908 76.3942 39.1693C76.3358 39.3045 76.2779 39.4246 76.1875 39.4853C76.1065 39.5398 75.9682 39.5256 75.8116 39.4925C75.7617 39.5202 75.7119 39.548 75.662 39.5757C75.3405 39.7551 75.0201 39.9357 74.7003 40.117C74.6011 40.4088 74.4897 40.7072 74.2644 41.0147C74.1673 41.1472 74.1061 41.3126 74.0472 41.4715C73.9601 41.7062 73.8782 41.9269 73.6937 42.0076C73.5703 42.0616 73.528 42.2059 73.4859 42.3498C73.4293 42.5429 73.3729 42.7355 73.121 42.7095C72.9627 42.6931 72.7913 42.6521 72.6323 42.614C72.3795 42.5534 72.1585 42.5002 72.073 42.5668C71.9125 42.6919 71.6746 42.7014 71.4649 42.7096C71.2126 42.7196 71.001 42.7279 71.0139 42.934C71.0159 42.9652 71.0212 43.004 71.0274 43.048C71.0603 43.2796 71.1128 43.6501 70.7683 43.7621C70.6456 43.8019 70.4617 43.7706 70.2813 43.7398C70.0188 43.6949 69.7639 43.6513 69.7172 43.8309C69.7102 43.8578 69.7342 43.917 69.7562 43.9712C69.7841 44.0399 69.8084 44.1 69.7611 44.0739C69.6224 43.9972 69.4542 43.9274 69.2711 43.8513C69.1367 43.7954 68.9941 43.7361 68.8498 43.6686C68.4968 43.902 68.1462 44.1379 67.7986 44.377C67.6393 44.4864 67.4806 44.5966 67.3225 44.7074C67.4158 44.9384 67.4916 45.1548 67.5278 45.3396C67.5752 45.5811 67.4935 45.7512 67.3886 45.9708C67.3114 46.1323 67.2216 46.3208 67.1607 46.5838C67.0481 47.0706 66.6982 47.3366 66.4006 47.4335C66.3377 47.4541 66.2731 47.4734 66.2036 47.4936C65.94 47.5703 65.6106 47.6657 65.0782 47.94C64.5746 48.1994 64.2185 48.4923 63.951 48.7122C63.8144 48.8245 63.7012 48.9181 63.603 48.9784C63.4349 49.0814 63.2394 49.2189 63.0433 49.3571C62.7365 49.5733 62.4279 49.7911 62.2184 49.8796C62.1438 49.9111 62.0614 49.9401 61.9729 49.9717C61.7274 50.0594 61.4309 50.1653 61.0986 50.3876C60.7497 50.621 60.6087 50.8408 60.5068 51.1138C60.4654 51.2248 60.5358 51.4295 60.6087 51.6409C60.7121 51.9409 60.8202 52.2539 60.6187 52.3297C60.5717 52.3474 60.5043 52.3492 60.4338 52.3509C60.3043 52.354 60.164 52.3573 60.1205 52.4608C60.1054 52.4969 60.1201 52.5568 60.1346 52.6156C60.1506 52.6802 60.1661 52.7435 60.1412 52.7727C60.0484 52.8819 59.9408 52.9709 59.8451 53.0498C59.7217 53.1517 59.6183 53.2372 59.5924 53.3284C59.5462 53.4911 59.3798 53.5532 59.2111 53.6158C59.0822 53.6636 58.9517 53.7116 58.873 53.8057C58.648 54.0746 58.2091 54.3148 57.6936 54.4991C57.4987 54.5689 57.472 54.7666 57.4381 55.0201C57.417 55.1777 57.3933 55.3573 57.3241 55.5407C57.2849 55.6446 57.1481 55.6291 57.0216 55.6149C56.905 55.6018 56.7972 55.5898 56.7818 55.6729C56.7683 55.7462 56.8689 55.9017 56.9644 56.0494C57.0708 56.2138 57.1707 56.3684 57.1002 56.3893C57.0627 56.4004 56.9691 56.3659 56.8578 56.3249C56.8138 56.3087 56.7671 56.2917 56.7199 56.2759C56.7467 56.3011 56.7701 56.3241 56.7877 56.3416C56.912 56.4658 56.9308 56.5779 56.9491 56.6877C56.9565 56.7315 56.9635 56.775 56.9775 56.8188C57.0286 56.9799 56.9418 57.1013 56.8573 57.1759C56.8216 57.2075 56.8296 57.2765 56.839 57.3571C56.8473 57.4286 56.8567 57.5092 56.8375 57.5808C56.8265 57.6217 56.8426 57.6776 56.8562 57.7241C56.8661 57.7577 56.8745 57.7865 56.87 57.8008C56.8661 57.8131 56.8239 57.7841 56.7764 57.7513C56.7422 57.7278 56.7052 57.7023 56.6777 57.689C56.6119 57.6571 56.5754 57.6642 56.5758 57.6952C56.576 57.7095 56.5843 57.7289 56.5925 57.7483C56.6021 57.7708 56.6119 57.7934 56.6087 57.8079C56.5941 57.8744 56.514 57.8733 56.4308 57.8721C56.3393 57.8708 56.2441 57.8697 56.2277 57.958C56.2226 57.9858 56.231 58.0293 56.2392 58.0714C56.2478 58.1156 56.2559 58.1583 56.248 58.1798C56.2159 58.2669 56.071 58.2342 55.9377 58.204C55.8491 58.184 55.7656 58.1653 55.7238 58.1836C55.6473 58.2172 55.5111 58.1402 55.4106 58.0832C55.3585 58.0537 55.3158 58.0294 55.296 58.029C55.2901 58.0408 55.2846 58.0533 55.2797 58.0659C55.2794 58.0819 55.2792 58.0983 55.2688 58.1035C55.268 58.1039 55.2669 58.1041 55.2661 58.1045C55.2427 58.1795 55.231 58.2646 55.2195 58.3492C55.1937 58.5394 55.1683 58.7273 55.0097 58.7943C54.9756 58.8087 54.9068 58.7894 54.8368 58.7698C54.7512 58.7459 54.6635 58.7214 54.6354 58.7576C54.5684 58.8438 54.5637 58.9938 54.559 59.1416C54.5521 59.3638 54.5452 59.5809 54.3269 59.5685C54.2548 59.5644 54.1582 59.5341 54.0611 59.5034C54.0069 59.4863 53.9523 59.469 53.9022 59.4564C53.9645 59.5107 54.0213 59.5634 54.0744 59.6124C54.1837 59.7136 54.2773 59.8002 54.3718 59.8586C54.5953 59.9968 54.8926 60.1975 55.0688 60.3844C55.1166 60.4351 55.1727 60.4888 55.2292 60.5428C55.3711 60.6782 55.5159 60.8164 55.5403 60.9201C55.5568 60.9899 55.5873 61.1575 55.4376 61.0951C55.405 61.0815 55.3535 61.0415 55.2961 60.9971C55.1932 60.9172 55.0711 60.8227 55.0046 60.8389C54.9934 60.8416 54.982 60.8453 54.9706 60.8496C54.9252 60.8666 54.8746 60.8858 54.7881 60.8254C54.6884 60.7557 54.5946 60.6556 54.4853 60.5388C54.3429 60.3867 54.1738 60.206 53.9307 60.0276C53.8826 59.9923 53.8561 59.9903 53.836 59.9887C53.8218 59.9876 53.8107 59.9864 53.7977 59.9744C53.7827 59.9606 53.7549 59.9285 53.7196 59.888C53.5952 59.7448 53.3777 59.4949 53.3 59.5527C53.279 59.5684 53.2692 59.6005 53.2605 59.6293C53.2476 59.6719 53.2368 59.7071 53.1955 59.6719C53.1798 59.6586 53.1633 59.6437 53.1463 59.628C53.1288 59.6547 53.1114 59.6813 53.0939 59.708C53.1112 59.7819 53.0676 59.8177 53.013 59.8622C52.9997 59.873 52.9859 59.8845 52.9721 59.897C52.938 59.95 52.9039 60.0029 52.87 60.056C52.8548 60.1099 52.8496 60.1781 52.8608 60.2668C52.8833 60.4446 52.981 60.6774 53.0765 60.905C53.1168 61.0009 53.1568 61.096 53.1905 61.1856C53.209 61.1823 53.2277 61.1814 53.2476 61.1862C53.3838 61.2188 53.5706 61.3641 53.7425 61.4978C53.8569 61.5867 53.9648 61.6706 54.0465 61.7126C54.1961 61.7895 54.325 61.9257 54.4203 62.0263C54.4697 62.0785 54.5103 62.1212 54.5399 62.1411C54.5636 62.157 54.5819 62.1573 54.6009 62.1576C54.6174 62.1579 54.6346 62.1584 54.6559 62.169C54.9149 62.2979 55.008 62.4301 55.1434 62.6224C55.2181 62.7284 55.3058 62.8528 55.4413 63.0051C55.5865 63.1647 55.6335 63.2069 55.7282 63.2335C55.7769 63.3353 55.8256 63.4371 55.8743 63.5389C55.859 63.5444 55.8041 63.5053 55.7148 63.4382C55.5554 63.3184 55.4398 63.332 55.3494 63.3426C55.3076 63.3475 55.2712 63.3517 55.2383 63.3417C55.0634 63.2889 54.9226 63.1127 54.7988 62.9575C54.7306 62.8721 54.6674 62.7932 54.6066 62.7447C54.5806 62.724 54.5612 62.697 54.5413 62.6695C54.526 62.6483 54.5104 62.6267 54.4914 62.6075C54.3533 62.4678 54.2141 62.4008 54.0848 62.3385C54.0108 62.3029 53.9399 62.2686 53.8744 62.2233C53.8544 62.2095 53.8347 62.1947 53.8157 62.1803C53.7879 62.1592 53.7614 62.1392 53.7363 62.1244C53.6792 62.0906 53.6246 62.084 53.5649 62.077C53.5343 62.0733 53.5023 62.0696 53.468 62.0619C53.4235 62.0519 53.3623 62.0031 53.2983 61.9523C53.2531 61.9164 53.2065 61.8795 53.1632 61.854C53.0847 61.8079 53.0296 61.8182 52.9784 61.8276C52.9562 61.8317 52.9344 61.8355 52.912 61.8346C52.9029 61.8343 52.8913 61.8269 52.8779 61.8144C52.7846 61.8207 52.6927 61.8238 52.6029 61.8266C52.1529 61.8404 51.7631 61.8521 51.6004 62.2889C51.5696 62.3715 51.5036 62.4272 51.4213 62.468C51.2791 62.7192 51.1385 62.9723 50.9995 63.2267C51.0857 63.3908 51.1432 63.5435 51.1693 63.6824C51.2183 63.9432 51.1425 64.0852 51.0531 64.2528C50.9869 64.3767 50.9134 64.5147 50.8773 64.7249C50.8165 65.0783 50.7277 65.4146 50.5521 65.7187C50.3773 66.0216 50.1511 66.3422 49.9744 66.5524C49.8781 66.667 49.8793 66.8897 49.8802 67.0971C49.8816 67.3889 49.8827 67.6506 49.6126 67.5396C49.5264 67.5042 49.3961 67.423 49.2695 67.3442C49.1794 67.2881 49.0912 67.2335 49.0215 67.1967C48.9943 67.2571 48.9668 67.3172 48.9396 67.3777C48.9887 67.5825 49.0039 67.8396 48.7453 67.815C48.7176 67.8777 48.6898 67.9403 48.6638 68.0017C48.6055 68.1339 48.5496 68.2645 48.4932 68.3962C48.475 68.4394 48.4565 68.4829 48.4379 68.5265C48.4378 68.527 48.4376 68.5274 48.4375 68.5278C48.4001 68.6157 48.3625 68.7041 48.3261 68.7917C48.3105 68.8292 48.2948 68.8667 48.2792 68.9041C48.2394 68.9993 48.1992 69.0951 48.1605 69.19C48.14 69.2403 48.1192 69.2908 48.0985 69.3416C48.0649 69.424 48.0309 69.507 47.9975 69.5899C47.9434 69.7239 47.8902 69.8579 47.8371 69.9924C47.8285 70.0145 47.8349 70.0503 47.8561 70.0932C47.8773 70.1361 47.9115 70.1824 47.9529 70.2238C47.9944 70.2653 48.0409 70.2994 48.0837 70.3205C48.1264 70.3415 48.1617 70.3474 48.1836 70.3387C48.3171 70.2844 48.45 70.2298 48.5829 70.1746C48.6651 70.1404 48.7478 70.1062 48.8295 70.0719C48.8799 70.0507 48.9299 70.0294 48.9798 70.0086C49.0739 69.9691 49.1693 69.9282 49.2637 69.8876C49.3008 69.8717 49.338 69.8558 49.3752 69.8398C49.4623 69.8025 49.5501 69.764 49.6374 69.7258C49.638 69.7256 49.6385 69.7253 49.639 69.7251C49.682 69.7063 49.7249 69.6876 49.7674 69.6691C49.898 69.6115 50.0275 69.5545 50.1586 69.495C50.2272 69.465 50.2974 69.4326 50.3674 69.4007C50.4064 69.383 50.4454 69.3654 50.4838 69.3482C50.5046 69.3386 50.5256 69.3288 50.5467 69.3189C51.0346 69.0959 51.5149 68.8704 51.9933 68.6365C52.4704 68.4039 52.9431 68.1656 53.4101 67.9237C53.8779 67.6809 54.3403 67.434 54.7985 67.1823C57.7073 65.5857 60.5069 63.862 63.1063 61.936C63.4773 61.6616 63.8521 61.374 64.2145 61.0897C64.5805 60.8018 64.9354 60.5163 65.2928 60.2182C65.4016 60.1279 65.5123 60.0345 65.6254 59.9381Z" fill="black"/>
<path d="M26.1861 52.955C25.4072 52.0378 23.9385 51.8741 23.0863 51.0244C22.0281 49.9695 21.5783 48.2727 20.4032 47.3298C19.2342 46.393 18.0094 45.5019 16.7492 44.6529C15.4878 43.8027 14.1892 42.9929 12.8622 42.2073C11.5374 41.424 10.1841 40.6646 8.81757 39.9213C7.88939 39.4165 6.95357 38.9177 6.01592 38.4225C5.60446 38.2049 5.1935 37.9888 4.7814 37.7721C4.4738 37.6107 4.16619 37.4493 3.85858 37.2879C3.81568 37.2656 3.74263 37.2762 3.65324 37.3195C3.56374 37.3629 3.46564 37.4351 3.37772 37.523C3.28976 37.6111 3.21755 37.7095 3.17442 37.7988C3.13147 37.888 3.12154 37.9605 3.14424 38.003C3.30993 38.3103 3.47562 38.6176 3.64132 38.9249C3.82547 39.2661 4.00901 39.607 4.1936 39.9476C4.5959 39.628 4.92642 39.4109 5.15366 39.3964C5.26961 39.389 5.37438 39.4424 5.36558 39.5678C5.35764 39.6804 5.2896 39.8272 5.22463 39.9671C5.15666 40.1133 5.09213 40.2522 5.10404 40.3359C5.12421 40.478 5.04808 40.7084 4.96807 40.9504C4.93894 41.0385 4.90925 41.1282 4.88356 41.2157C5.06084 41.5398 5.2387 41.8633 5.41716 42.1862C5.55243 42.2445 5.67252 42.3025 5.73324 42.3928C5.7877 42.4738 5.77348 42.6121 5.74039 42.7687C5.76814 42.8186 5.79589 42.8685 5.82363 42.9183C6.00303 43.2398 6.18365 43.5602 6.36491 43.8801C6.6567 43.9793 6.95515 44.0906 7.26263 44.316C7.39515 44.4131 7.5605 44.4743 7.71939 44.5332C7.95406 44.6202 8.17477 44.7021 8.25554 44.8867C8.30954 45.01 8.45383 45.0523 8.59775 45.0945C8.79077 45.151 8.98344 45.2075 8.95742 45.4593C8.94105 45.6177 8.90003 45.7891 8.86192 45.948C8.80126 46.2008 8.74811 46.4219 8.81468 46.5073C8.93978 46.6679 8.94928 46.9057 8.95755 47.1155C8.9675 47.3677 8.9758 47.5794 9.18187 47.5664C9.2131 47.5644 9.25194 47.5591 9.29589 47.5529C9.52753 47.5201 9.89801 47.4676 10.01 47.8121C10.0498 47.9347 10.0185 48.1187 9.98769 48.299C9.94279 48.5615 9.89925 48.8164 10.0788 48.8632C10.1057 48.8701 10.165 48.8461 10.2191 48.8242C10.2879 48.7963 10.3479 48.7719 10.3218 48.8192C10.2451 48.9579 10.1753 49.1262 10.0992 49.3092C10.0433 49.4437 9.98405 49.5862 9.91652 49.7305C10.1499 50.0836 10.3858 50.4342 10.6249 50.7818C10.7344 50.9411 10.8445 51.0998 10.9553 51.2579C11.1863 51.1645 11.4027 51.0887 11.5875 51.0525C11.829 51.0052 11.9991 51.0868 12.2187 51.1917C12.3803 51.2689 12.5687 51.3588 12.8317 51.4196C13.3185 51.5323 13.5845 51.8821 13.6815 52.1797C13.702 52.2427 13.7213 52.3073 13.7415 52.3768C13.8182 52.6404 13.9136 52.9697 14.1879 53.5021C14.4473 54.0057 14.7402 54.3618 14.9601 54.6294C15.0724 54.7659 15.166 54.8791 15.2263 54.9774C15.3293 55.1455 15.4668 55.341 15.605 55.537C15.8212 55.8439 16.039 56.1525 16.1275 56.362C16.159 56.4366 16.188 56.5189 16.2196 56.6075C16.3073 56.853 16.4132 57.1494 16.6355 57.4818C16.8689 57.8306 17.0887 57.9717 17.3617 58.0735C17.4727 58.1149 17.6775 58.0445 17.8888 57.9716C18.1888 57.8682 18.5018 57.7602 18.5776 57.9617C18.5953 58.0087 18.5971 58.076 18.5988 58.1465C18.6019 58.2761 18.6052 58.4164 18.7087 58.4598C18.7448 58.475 18.8048 58.4602 18.8635 58.4457C18.9281 58.4298 18.9914 58.4143 19.0206 58.4391C19.1298 58.5319 19.2188 58.6395 19.2977 58.7352C19.3996 58.8586 19.4851 58.962 19.5763 58.9879C19.739 59.0342 19.8011 59.2005 19.8637 59.3692C19.9115 59.4981 19.9596 59.6286 20.0536 59.7074C20.3225 59.9323 20.5627 60.3713 20.747 60.8867C20.8168 61.0817 21.0145 61.1083 21.268 61.1423C21.4256 61.1634 21.6052 61.187 21.7886 61.2562C21.8926 61.2955 21.877 61.4323 21.8628 61.5588C21.8497 61.6753 21.8378 61.7832 21.9208 61.7985C21.9941 61.812 22.1497 61.7115 22.2974 61.6159C22.4617 61.5096 22.6163 61.4096 22.6372 61.4801C22.6483 61.5177 22.6138 61.6113 22.5728 61.7225C22.5566 61.7665 22.5396 61.8132 22.5238 61.8604C22.549 61.8337 22.572 61.8102 22.5896 61.7927C22.7137 61.6684 22.8258 61.6496 22.9356 61.6312C22.9795 61.6239 23.0229 61.6168 23.0667 61.6029C23.2278 61.5517 23.3492 61.6386 23.4238 61.7231C23.4554 61.7588 23.5244 61.7507 23.605 61.7414C23.6765 61.7331 23.7572 61.7236 23.8288 61.7429C23.8696 61.7538 23.9255 61.7377 23.972 61.7241C24.0057 61.7143 24.0344 61.7058 24.0487 61.7103C24.061 61.7143 24.032 61.7564 23.9993 61.8039C23.9757 61.8381 23.9502 61.8752 23.9369 61.9027C23.9051 61.9684 23.9121 62.0049 23.9431 62.0045C23.9574 62.0043 23.9768 61.9961 23.9962 61.9878C24.0187 61.9782 24.0413 61.9684 24.0558 61.9716C24.1223 61.9863 24.1212 62.0664 24.12 62.1496C24.1187 62.241 24.1176 62.3362 24.2059 62.3526C24.2337 62.3578 24.2772 62.3494 24.3194 62.3412C24.3635 62.3326 24.4062 62.3244 24.4277 62.3323C24.5148 62.3645 24.4821 62.5093 24.452 62.6426C24.4319 62.7313 24.4132 62.8148 24.4315 62.8565C24.4652 62.933 24.3881 63.0692 24.3311 63.1698C24.3016 63.2219 24.2774 63.2646 24.2769 63.2844C24.2887 63.2903 24.3012 63.2957 24.3139 63.3007C24.3298 63.3009 24.3462 63.3012 24.3515 63.3116C24.3519 63.3124 24.352 63.3134 24.3524 63.3142C24.4275 63.3376 24.5125 63.3493 24.5972 63.3608C24.7873 63.3867 24.9752 63.412 25.0422 63.5706C25.0566 63.6048 25.0373 63.6736 25.0178 63.7435C24.9938 63.8292 24.9693 63.9168 25.0055 63.9449C25.0917 64.0119 25.2417 64.0167 25.3895 64.0213C25.6117 64.0283 25.8288 64.0352 25.8164 64.2535C25.8123 64.3255 25.782 64.4221 25.7513 64.5193C25.7342 64.5735 25.7169 64.628 25.7043 64.6782C25.7586 64.6159 25.8113 64.559 25.8604 64.506C25.9615 64.3966 26.0481 64.3031 26.1066 64.2085C26.2448 63.985 26.4454 63.6878 26.6323 63.5116C26.683 63.4638 26.7367 63.4077 26.7907 63.3512C26.9261 63.2093 27.0644 63.0644 27.168 63.04C27.2378 63.0236 27.4055 62.9931 27.3431 63.1427C27.3295 63.1753 27.2894 63.2269 27.245 63.2842C27.1652 63.3872 27.0707 63.5092 27.0868 63.5758C27.0895 63.5869 27.0933 63.5983 27.0975 63.6097C27.1145 63.6551 27.1337 63.7057 27.0733 63.7923C27.0037 63.892 26.9035 63.9857 26.7867 64.0951C26.6346 64.2374 26.4539 64.4065 26.2755 64.6497C26.2402 64.6978 26.2382 64.7243 26.2366 64.7444C26.2355 64.7585 26.2344 64.7696 26.2223 64.7826C26.2085 64.7976 26.1764 64.8255 26.1359 64.8608C25.9928 64.9852 25.7428 65.2027 25.8007 65.2803C25.8163 65.3013 25.8484 65.3111 25.8773 65.3199C25.9198 65.3328 25.955 65.3435 25.9198 65.3849C25.9065 65.4005 25.8916 65.4171 25.876 65.4341C25.9026 65.4515 25.9293 65.469 25.9559 65.4864C26.0298 65.4691 26.0656 65.5127 26.1101 65.5674C26.1209 65.5806 26.1324 65.5944 26.1449 65.6083C26.1979 65.6423 26.2508 65.6765 26.3039 65.7104C26.3578 65.7255 26.426 65.7308 26.5147 65.7195C26.6925 65.697 26.9253 65.5994 27.1529 65.5038C27.2488 65.4636 27.3439 65.4236 27.4335 65.3899C27.4302 65.3714 27.4294 65.3526 27.4341 65.3327C27.4667 65.1966 27.612 65.0097 27.7457 64.8378C27.8346 64.7234 27.9185 64.6156 27.9605 64.5339C28.0374 64.3842 28.1736 64.2554 28.2742 64.16C28.3264 64.1106 28.3691 64.07 28.389 64.0405C28.4049 64.0167 28.4052 63.9984 28.4056 63.9795C28.4059 63.9629 28.4063 63.9458 28.4169 63.9245C28.5458 63.6654 28.678 63.5724 28.8703 63.437C28.9764 63.3623 29.1007 63.2745 29.2531 63.139C29.4126 62.9939 29.4548 62.9469 29.4814 62.8521C29.5832 62.8034 29.685 62.7547 29.7868 62.706C29.7923 62.7213 29.7532 62.7763 29.6861 62.8656C29.5664 63.025 29.5799 63.1406 29.5905 63.2309C29.5954 63.2727 29.5996 63.3092 29.5897 63.3421C29.5369 63.517 29.3606 63.6577 29.2055 63.7816C29.1201 63.8498 29.0411 63.9129 28.9926 63.9737C28.9719 63.9997 28.9449 64.0192 28.9175 64.039C28.8963 64.0544 28.8746 64.07 28.8554 64.089C28.7157 64.2271 28.6487 64.3663 28.5865 64.4955C28.5508 64.5696 28.5165 64.6405 28.4712 64.706C28.4574 64.726 28.4426 64.7456 28.4282 64.7647C28.4071 64.7924 28.3871 64.819 28.3723 64.844C28.3385 64.9011 28.3319 64.9558 28.3249 65.0155C28.3213 65.0461 28.3175 65.078 28.3098 65.1124C28.2998 65.1569 28.2511 65.218 28.2002 65.282C28.1643 65.3272 28.1274 65.3738 28.1019 65.4172C28.0559 65.4956 28.0661 65.5507 28.0755 65.6019C28.0797 65.6242 28.0834 65.646 28.0826 65.6684C28.0822 65.6775 28.0749 65.689 28.0624 65.7025C28.0687 65.7957 28.0718 65.8877 28.0745 65.9774C28.0883 66.4274 28.1 66.8173 28.5369 66.98C28.6194 67.0108 28.6751 67.0768 28.7159 67.159C28.9671 67.3013 29.2203 67.4419 29.4746 67.5809C29.6387 67.4946 29.7915 67.4371 29.9303 67.411C30.1911 67.362 30.3331 67.4379 30.5007 67.5273C30.6246 67.5934 30.7626 67.6669 30.9729 67.7031C31.3262 67.7638 31.6625 67.8527 31.9667 68.0282C32.2695 68.203 32.5901 68.4293 32.8003 68.606C32.9149 68.7023 33.1376 68.7011 33.3451 68.7001C33.6368 68.6987 33.8985 68.6977 33.7876 68.9677C33.7521 69.054 33.6709 69.1842 33.5922 69.3108C33.5361 69.401 33.4814 69.4892 33.4447 69.5588C33.505 69.5861 33.5652 69.6136 33.6257 69.6407C33.8305 69.5916 34.0876 69.5765 34.0629 69.835C34.1256 69.8627 34.1883 69.8905 34.2496 69.9165C34.3818 69.9749 34.5124 70.0307 34.6442 70.0871C34.6873 70.1054 34.7308 70.1239 34.7745 70.1424C34.7749 70.1426 34.7753 70.1427 34.7758 70.1429C34.8636 70.1802 34.9521 70.2178 35.0396 70.2543C35.0771 70.2699 35.1146 70.2855 35.1521 70.3012C35.2472 70.341 35.343 70.3812 35.4379 70.4199C35.4882 70.4403 35.5387 70.4612 35.5895 70.4819C35.672 70.5155 35.755 70.5494 35.8378 70.5828C35.9718 70.637 36.1058 70.6902 36.2403 70.7432C36.2624 70.7518 36.2983 70.7454 36.3411 70.7243C36.384 70.703 36.4303 70.6689 36.4718 70.6274C36.5132 70.586 36.5474 70.5395 36.5685 70.4967C36.5895 70.454 36.5953 70.4186 36.5866 70.3967C36.5323 70.2633 36.4778 70.1304 36.4225 69.9974C36.3883 69.9152 36.3541 69.8326 36.3198 69.7509C36.2987 69.7005 36.2774 69.6504 36.2565 69.6005C36.217 69.5064 36.1761 69.4111 36.1355 69.3167C36.1196 69.2795 36.1037 69.2423 36.0877 69.2051C36.0505 69.1181 36.0119 69.0302 35.9737 68.9429C35.9735 68.9424 35.9732 68.9419 35.973 68.9413C35.9542 68.8984 35.9355 68.8555 35.917 68.813C35.8595 68.6823 35.8024 68.5528 35.7429 68.4217C35.713 68.3532 35.6805 68.2829 35.6487 68.2129C35.6309 68.1739 35.6133 68.1349 35.5961 68.0966C35.5865 68.0757 35.5767 68.0548 35.5668 68.0337C35.3438 67.5458 35.1184 67.0654 34.8844 66.587C34.6518 66.1099 34.4135 65.6372 34.1716 65.1703C33.9289 64.7024 33.6819 64.2401 33.4302 63.7818C31.8336 60.8731 30.1099 58.0734 28.1839 55.4741C27.9095 55.103 27.6219 54.7283 27.3376 54.3658C27.0497 53.9998 26.7642 53.645 26.4661 53.2876C26.3758 53.1788 26.2824 53.068 26.1861 52.955Z" fill="black"/>
<path d="M19.8558 14.7147C18.9386 15.4936 18.7749 16.9623 17.9252 17.8145C16.8703 18.8726 15.1735 19.3225 14.2306 20.4976C13.2938 21.6666 12.4027 22.8913 11.5537 24.1516C10.7036 25.413 9.89374 26.7116 9.10815 28.0386C8.3248 29.3634 7.56543 30.7167 6.82216 32.0832C6.31731 33.0114 5.81851 33.9472 5.32329 34.8848C5.10573 35.2963 4.88955 35.7073 4.67295 36.1194C4.51154 36.427 4.35012 36.7346 4.1887 37.0422C4.16641 37.0851 4.17698 37.1581 4.22031 37.2475C4.26375 37.337 4.33587 37.4351 4.42386 37.523C4.5119 37.611 4.61028 37.6832 4.69963 37.7263C4.78877 37.7693 4.86129 37.7792 4.9038 37.7565C5.21109 37.5908 5.51837 37.4251 5.82566 37.2595C6.16687 37.0753 6.50777 36.8918 6.84839 36.7072C6.52878 36.3049 6.31175 35.9743 6.29716 35.7471C6.28976 35.6312 6.34323 35.5264 6.46858 35.5352C6.58117 35.5431 6.72804 35.6112 6.86787 35.6761C7.01412 35.7441 7.15296 35.8086 7.23669 35.7967C7.37882 35.7766 7.6092 35.8527 7.8512 35.9327C7.93928 35.9618 8.029 35.9915 8.11651 36.0172C8.44059 35.8399 8.7641 35.6621 9.08696 35.4836C9.14534 35.3483 9.20328 35.2282 9.29361 35.1675C9.37463 35.1131 9.51293 35.1273 9.66954 35.1604C9.7194 35.1326 9.76926 35.1049 9.81912 35.0771C10.1406 34.8977 10.4611 34.7171 10.7809 34.5359C10.8801 34.2441 10.9914 33.9456 11.2168 33.6381C11.3139 33.5056 11.3751 33.3403 11.434 33.1814C11.521 32.9467 11.6029 32.726 11.7875 32.6452C11.9108 32.5912 11.9531 32.4469 11.9953 32.303C12.0518 32.11 12.1083 31.9173 12.3601 31.9434C12.5185 31.9597 12.6899 32.0007 12.8488 32.0389C13.1016 32.0995 13.3227 32.1527 13.4081 32.0861C13.5687 31.961 13.8066 31.9515 14.0163 31.9432C14.2685 31.9333 14.4802 31.925 14.4672 31.7189C14.4653 31.6877 14.4599 31.6488 14.4537 31.6049C14.4209 31.3732 14.3684 31.0028 14.7129 30.8908C14.8355 30.8509 15.0195 30.8822 15.1998 30.9131C15.4623 30.958 15.7172 31.0015 15.764 30.8219C15.7709 30.7951 15.7469 30.7358 15.725 30.6817C15.6971 30.6129 15.6727 30.5529 15.72 30.579C15.8587 30.6557 16.027 30.7255 16.21 30.8016C16.3444 30.8575 16.487 30.9167 16.6313 30.9842C16.9844 30.7509 17.335 30.515 17.6826 30.2759C17.8419 30.1664 18.0006 30.0563 18.1587 29.9454C18.0653 29.7145 17.9895 29.4981 17.9533 29.3133C17.906 29.0718 17.9876 28.9016 18.0925 28.6821C18.1697 28.5205 18.2596 28.332 18.3204 28.069C18.4331 27.5822 18.7829 27.3163 19.0805 27.2193C19.1435 27.1988 19.2081 27.1795 19.2776 27.1593C19.5412 27.0825 19.8705 26.9872 20.4029 26.7129C20.9065 26.4534 21.2626 26.1606 21.5302 25.9406C21.6667 25.8284 21.7799 25.7347 21.8782 25.6745C22.0463 25.5715 22.2417 25.434 22.4378 25.2958C22.7447 25.0795 23.0533 24.8617 23.2628 24.7733C23.3374 24.7418 23.4197 24.7127 23.5083 24.6811C23.7538 24.5935 24.0502 24.4875 24.3826 24.2652C24.7314 24.0319 24.8725 23.8121 24.9743 23.5391C25.0157 23.4281 24.9453 23.2233 24.8724 23.0119C24.769 22.712 24.661 22.399 24.8624 22.3232C24.9095 22.3055 24.9768 22.3037 25.0473 22.302C25.1769 22.2988 25.3172 22.2956 25.3606 22.192C25.3758 22.1559 25.361 22.096 25.3465 22.0373C25.3306 21.9727 25.3151 21.9094 25.3399 21.8802C25.4327 21.771 25.5403 21.682 25.636 21.603C25.7594 21.5012 25.8628 21.4157 25.8887 21.3244C25.9349 21.1617 26.1013 21.0997 26.27 21.0371C26.3989 20.9892 26.5294 20.9412 26.6082 20.8471C26.8331 20.5783 27.2721 20.3381 27.7875 20.1538C27.9825 20.084 28.0091 19.8863 28.0431 19.6328C28.0642 19.4751 28.0878 19.2956 28.157 19.1122C28.1963 19.0082 28.3331 19.0237 28.4596 19.0379C28.5761 19.051 28.684 19.063 28.6993 18.98C28.7128 18.9066 28.6123 18.7511 28.5167 18.6034C28.4104 18.439 28.3104 18.2844 28.3809 18.2636C28.4185 18.2525 28.5121 18.287 28.6233 18.3279C28.6673 18.3441 28.714 18.3611 28.7612 18.377C28.7345 18.3518 28.711 18.3288 28.6935 18.3112C28.5692 18.187 28.5504 18.075 28.532 17.9652C28.5247 17.9213 28.5176 17.8779 28.5037 17.8341C28.4525 17.673 28.5394 17.5516 28.6239 17.477C28.6596 17.4454 28.6515 17.3763 28.6422 17.2958C28.6339 17.2243 28.6244 17.1436 28.6437 17.072C28.6546 17.0312 28.6385 16.9753 28.6249 16.9288C28.6151 16.8951 28.6066 16.8664 28.6111 16.8521C28.615 16.8398 28.6572 16.8688 28.7047 16.9015C28.7389 16.9251 28.776 16.9506 28.8035 16.9639C28.8692 16.9957 28.9057 16.9886 28.9053 16.9577C28.9051 16.9434 28.8969 16.9239 28.8886 16.9046C28.879 16.8821 28.8692 16.8595 28.8724 16.845C28.8871 16.7784 28.9672 16.7796 29.0504 16.7808C29.1418 16.782 29.237 16.7832 29.2534 16.6949C29.2586 16.6671 29.2501 16.6236 29.2419 16.5814C29.2334 16.5373 29.2252 16.4946 29.2331 16.4731C29.2652 16.3859 29.4101 16.4187 29.5434 16.4488C29.6321 16.4689 29.7156 16.4876 29.7573 16.4693C29.8338 16.4356 29.97 16.5127 30.0706 16.5696C30.1227 16.5991 30.1654 16.6234 30.1852 16.6239C30.1911 16.6121 30.1965 16.5996 30.2015 16.5869C30.2017 16.571 30.202 16.5546 30.2124 16.5493C30.2132 16.5489 30.2142 16.5488 30.215 16.5484C30.2384 16.4733 30.2501 16.3883 30.2616 16.3036C30.2875 16.1135 30.3128 15.9255 30.4714 15.8586C30.5056 15.8442 30.5744 15.8635 30.6443 15.883C30.73 15.907 30.8176 15.9315 30.8457 15.8953C30.9127 15.809 30.9175 15.6591 30.9221 15.5113C30.9291 15.2891 30.936 15.072 31.1543 15.0844C31.2263 15.0885 31.3229 15.1188 31.4201 15.1495C31.4742 15.1666 31.5288 15.1839 31.579 15.1965C31.5167 15.1421 31.4598 15.0895 31.4068 15.0404C31.2974 14.9393 31.2039 14.8527 31.1093 14.7942C30.8858 14.656 30.5886 14.4554 30.4124 14.2685C30.3645 14.2178 30.3085 14.1641 30.2519 14.1101C30.1101 13.9747 29.9652 13.8364 29.9408 13.7328C29.9244 13.663 29.8939 13.4953 30.0435 13.5577C30.0761 13.5713 30.1277 13.6113 30.185 13.6558C30.288 13.7356 30.41 13.8301 30.4765 13.814C30.4877 13.8113 30.4991 13.8075 30.5105 13.8033C30.5559 13.7863 30.6065 13.7671 30.6931 13.8275C30.7928 13.8971 30.8865 13.9973 30.9958 14.1141C31.1382 14.2662 31.3073 14.4469 31.5505 14.6253C31.5986 14.6605 31.6251 14.6626 31.6452 14.6642C31.6593 14.6653 31.6704 14.6664 31.6834 14.6785C31.6984 14.6923 31.7263 14.7243 31.7616 14.7649C31.886 14.908 32.1035 15.158 32.1811 15.1001C32.2021 15.0845 32.2119 15.0524 32.2207 15.0235C32.2336 14.981 32.2443 14.9458 32.2857 14.9809C32.3013 14.9943 32.3179 15.0092 32.3348 15.0248C32.3523 14.9982 32.3698 14.9715 32.3872 14.9449C32.3699 14.871 32.4135 14.8352 32.4682 14.7907C32.4814 14.7799 32.4952 14.7684 32.509 14.7558C32.5431 14.7029 32.5773 14.65 32.6112 14.5968C32.6263 14.543 32.6316 14.4748 32.6203 14.3861C32.5978 14.2082 32.5002 13.9754 32.4046 13.7479C32.3644 13.652 32.3244 13.5569 32.2907 13.4672C32.2722 13.4705 32.2534 13.4714 32.2335 13.4667C32.0973 13.434 31.9105 13.2888 31.7386 13.1551C31.6242 13.0661 31.5164 12.9823 31.4347 12.9403C31.285 12.8634 31.1561 12.7272 31.0608 12.6266C31.0114 12.5744 30.9708 12.5317 30.9413 12.5118C30.9175 12.4959 30.8992 12.4956 30.8803 12.4952C30.8637 12.4949 30.8466 12.4945 30.8252 12.4839C30.5662 12.355 30.4732 12.2228 30.3377 12.0305C30.2631 11.9244 30.1753 11.8 30.0398 11.6477C29.8947 11.4881 29.8477 11.446 29.7529 11.4194C29.7042 11.3176 29.6555 11.2158 29.6068 11.114C29.6221 11.1084 29.6771 11.1476 29.7664 11.2147C29.9258 11.3344 30.0414 11.3209 30.1317 11.3103C30.1735 11.3054 30.21 11.3012 30.2429 11.3111C30.4177 11.3639 30.5585 11.5402 30.6824 11.6953C30.7506 11.7807 30.8137 11.8597 30.8745 11.9082C30.9005 11.9289 30.92 11.9559 30.9398 11.9833C30.9552 12.0045 30.9708 12.0261 30.9898 12.0454C31.1279 12.1851 31.2671 12.2521 31.3963 12.3143C31.4703 12.35 31.5413 12.3843 31.6068 12.4296C31.6267 12.4434 31.6464 12.4582 31.6654 12.4726C31.6932 12.4936 31.7198 12.5137 31.7448 12.5285C31.8019 12.5622 31.8565 12.5688 31.9162 12.5759C31.9469 12.5795 31.9788 12.5833 32.0132 12.591C32.0577 12.601 32.1188 12.6497 32.1828 12.7005C32.228 12.7365 32.2746 12.7734 32.318 12.7989C32.3964 12.8449 32.4515 12.8347 32.5027 12.8252C32.525 12.8211 32.5468 12.8174 32.5692 12.8182C32.5783 12.8186 32.5898 12.8259 32.6033 12.8384C32.6965 12.8321 32.7885 12.829 32.8782 12.8263C33.3282 12.8124 33.7181 12.8008 33.8808 12.3639C33.9115 12.2813 33.9776 12.2256 34.0598 12.1849C34.2021 11.9336 34.3427 11.6805 34.4817 11.4262C34.3954 11.2621 34.3379 11.1093 34.3118 10.9705C34.2628 10.7097 34.3386 10.5677 34.4281 10.4001C34.4942 10.2762 34.5677 10.1382 34.6039 9.92792C34.6646 9.57461 34.7535 9.2383 34.929 8.93413C35.1038 8.63129 35.3301 8.31068 35.5068 8.1005C35.6031 7.98591 35.6019 7.76317 35.6009 7.55574C35.5995 7.26395 35.5984 7.00227 35.8685 7.11323C35.9548 7.1487 36.085 7.22984 36.2116 7.30862C36.3018 7.36473 36.39 7.41936 36.4596 7.45612C36.4869 7.39581 36.5144 7.33563 36.5415 7.27513C36.4924 7.07033 36.4773 6.81324 36.7358 6.83786C36.7635 6.77517 36.7913 6.71253 36.8173 6.65121C36.8757 6.51899 36.9315 6.38836 36.9879 6.25662C37.0061 6.21345 37.0247 6.16997 37.0432 6.12634C37.0434 6.1259 37.0435 6.12546 37.0437 6.12502C37.081 6.0372 37.1186 5.94872 37.155 5.86114C37.1707 5.82367 37.1863 5.7862 37.202 5.74873C37.2418 5.65354 37.2819 5.55777 37.3207 5.46287C37.3411 5.41258 37.362 5.36206 37.3827 5.31125C37.4163 5.22882 37.4502 5.14582 37.4836 5.06296C37.5377 4.92897 37.5909 4.79496 37.644 4.66046C37.6526 4.63839 37.6462 4.60253 37.625 4.55967C37.6038 4.51676 37.5697 4.47044 37.5282 4.42901C37.4867 4.38758 37.4403 4.35342 37.3974 4.33233C37.3547 4.31134 37.3194 4.30544 37.2975 4.31421C37.1641 4.36846 37.0312 4.42301 36.8982 4.47829C36.816 4.51245 36.7334 4.54666 36.6516 4.58097C36.6012 4.60212 36.5512 4.62341 36.5013 4.64427C36.4072 4.68381 36.3119 4.72464 36.2175 4.76525C36.1803 4.78118 36.1431 4.79711 36.1059 4.81304C36.0189 4.85031 35.931 4.88889 35.8437 4.92707C35.8432 4.92731 35.8427 4.92754 35.8421 4.92778C35.7992 4.94656 35.7563 4.96528 35.7138 4.98376C35.5831 5.04132 35.4536 5.09838 35.3225 5.1579C35.2539 5.18783 35.1837 5.22026 35.1137 5.25212C35.0747 5.26985 35.0357 5.28748 34.9973 5.30471C34.9765 5.31428 34.9555 5.32411 34.9345 5.33399C34.4466 5.55695 33.9662 5.78243 33.4878 6.01638C33.0107 6.249 32.538 6.48729 32.0711 6.72918C31.6032 6.97193 31.1409 7.2189 30.6826 7.47054C27.7738 9.06715 24.9742 10.7909 22.3749 12.7169C22.0038 12.9913 21.6291 13.2789 21.2666 13.5632C20.9006 13.851 20.5458 14.1366 20.1884 14.4347C20.0796 14.525 19.9688 14.6183 19.8558 14.7147Z" fill="black"/>
<circle cx="42.7675" cy="37.7675" r="3.3234" transform="rotate(8.2828 42.7675 37.7675)" fill="black"/>
<path d="M36.8176 39.8977C36.4109 38.9248 36.871 37.8793 36.9967 36.989C36.9995 36.9689 37.0022 36.9488 37.0048 36.9286C37.1336 35.8367 37.2175 34.4281 38.1494 33.5524C39.0633 32.6944 40.2502 32.1791 41.4327 32.0836C42.1708 32.0213 42.9034 32.1203 43.5562 32.3496C43.9496 32.487 44.322 32.6717 44.6588 32.895C45.5576 33.4876 46.1824 34.3516 46.4663 35.24C46.6619 35.8438 46.7072 36.4604 46.624 37.0209C46.5878 37.267 46.5275 37.5021 46.447 37.7225C46.3868 37.8866 46.3155 38.0435 46.2351 38.1898C46.2238 38.2102 46.1859 38.2262 46.1281 38.2332C46.0702 38.2402 45.9975 38.2378 45.9237 38.227C45.8498 38.2162 45.7793 38.198 45.7255 38.1772C45.6718 38.1564 45.6394 38.1348 45.6332 38.116C45.5893 37.9801 45.5359 37.8505 45.4743 37.7301C45.406 37.596 45.3276 37.4724 45.2421 37.3603C45.5411 37.2914 45.7648 37.2193 45.8526 37.1363C45.8975 37.0942 45.908 37.041 45.8443 37.0204C45.7872 37.0019 45.6931 37.0025 45.6038 37.0049C45.5103 37.0075 45.422 37.0122 45.3858 36.9971C45.3243 36.9714 45.1883 36.9734 45.0471 36.9831C44.9957 36.9866 44.9435 36.9911 44.8939 36.9951C44.7985 36.9154 44.6994 36.8465 44.5986 36.7882C44.6093 36.7391 44.6139 36.6941 44.5873 36.6744C44.5635 36.6567 44.4952 36.6697 44.4152 36.6943C44.3994 36.6872 44.3835 36.6805 44.3677 36.6739C44.2657 36.6316 44.1638 36.5994 44.0637 36.5771C44.0797 36.4738 44.0826 36.3638 44.0295 36.2728C44.0067 36.2339 44.0011 36.173 43.9921 36.1135C43.9796 36.0261 43.9587 35.9413 43.8896 35.9503C43.8438 35.9566 43.8344 35.901 43.8211 35.8444C43.8043 35.7691 43.7784 35.6916 43.6861 35.7789C43.6284 35.8339 43.5688 35.9063 43.5163 35.975C43.4325 36.0842 43.3669 36.1838 43.3415 36.1831C43.2934 36.1818 43.2263 36.2626 43.1741 36.3367C43.1101 36.4255 43.0665 36.504 43.061 36.4078C43.0601 36.3932 43.0595 36.3739 43.0586 36.352C43.0557 36.271 43.046 36.1551 43.0068 36.1235C42.9904 36.1102 42.9695 36.1122 42.945 36.139C42.9156 36.1712 42.884 36.2601 42.8579 36.3482C42.8192 36.4764 42.7936 36.6022 42.7684 36.5457C42.7646 36.5373 42.7604 36.502 42.7563 36.4697C42.7511 36.4287 42.7459 36.393 42.7436 36.4241C42.737 36.5156 42.7278 36.6169 42.7218 36.7272C42.7174 36.8082 42.7147 36.894 42.7147 36.9841C42.6752 37.0375 42.6448 37.0917 42.6217 37.1444C42.6112 37.1686 42.6021 37.1925 42.5944 37.216C42.5457 37.0872 42.4956 36.9732 42.4512 36.8895C42.393 36.7803 42.3544 36.7548 42.3026 36.7247C42.2642 36.7028 42.2185 36.6782 42.1421 36.6222C41.9984 36.5194 41.9373 36.6041 41.9507 36.7017C41.9532 36.7226 41.9567 36.7442 41.9612 36.7674C41.9789 36.8552 42.0044 36.9634 42.0322 37.0943C42.0601 37.2172 42.055 37.2726 42.0508 37.3166C42.049 37.3387 42.0482 37.3568 42.0565 37.375C42.0708 37.4063 42.0821 37.4385 42.0955 37.4692C42.1162 37.5171 42.1424 37.5611 42.1869 37.592C42.2027 37.603 42.2228 37.615 42.2446 37.6271C42.3007 37.6586 42.3697 37.6899 42.414 37.7161C42.4175 37.7181 42.4208 37.7201 42.4239 37.7221C42.4698 37.7498 42.4364 37.7537 42.3635 37.7678C42.3339 37.7731 42.2172 37.7795 42.0969 37.7921C41.9262 37.8087 41.7489 37.8415 41.8045 37.8626C41.8174 37.8672 41.8457 37.8704 41.8754 37.873C41.93 37.8781 41.9889 37.88 41.9654 37.8946C41.9572 37.8998 41.9265 37.9083 41.8965 37.9171C41.8635 37.9268 41.8313 37.9369 41.8304 37.942C41.8268 37.9609 41.8383 37.9766 41.8488 37.9898C41.8624 38.0069 41.8742 38.0203 41.8506 38.0382C41.8086 38.0705 41.8579 38.0786 41.9069 38.0814C41.9445 38.084 41.9822 38.084 41.9816 38.0992C41.9799 38.1436 42.0845 38.1617 42.2263 38.1209C42.2796 38.1053 42.2261 38.1554 42.1651 38.2292C42.1271 38.2748 42.0859 38.3293 42.0641 38.3783C42.0519 38.4061 42.1079 38.3716 42.1576 38.3374C42.2036 38.3061 42.2446 38.2754 42.2291 38.3006C42.2154 38.3228 42.1417 38.4028 42.0731 38.48C41.9965 38.5658 41.9264 38.6483 41.9486 38.6403C41.9604 38.6359 42.0024 38.6008 42.0512 38.5579C42.0705 38.5409 42.0908 38.5228 42.1108 38.5049C42.096 38.5212 42.0828 38.5358 42.0729 38.5469C42.0024 38.6253 41.973 38.6735 41.9457 38.7219C41.9348 38.7412 41.9243 38.7604 41.9113 38.7815C41.8635 38.8591 41.8769 38.889 41.8965 38.8988C41.9047 38.9029 41.8914 38.9339 41.8767 38.9705C41.8637 39.003 41.8496 39.0401 41.8479 39.0661C41.8469 39.081 41.8343 39.1095 41.824 39.1334C41.8166 39.1507 41.8104 39.1655 41.8105 39.1707C41.8107 39.1751 41.8294 39.1513 41.8504 39.1244C41.8655 39.1051 41.8818 39.0841 41.8933 39.0709C41.9205 39.0393 41.9325 39.0323 41.9289 39.0458C41.9272 39.0521 41.9221 39.0628 41.9171 39.0735C41.9112 39.0859 41.9053 39.0985 41.9049 39.104C41.9033 39.1291 41.9321 39.1065 41.9609 39.0823C41.9929 39.0557 42.0245 39.027 42.0218 39.0607C42.021 39.0713 42.0144 39.0929 42.0082 39.1139C42.0017 39.136 41.9957 39.1573 41.9968 39.1645C42.0015 39.1938 42.0523 39.1353 42.0964 39.08C42.1259 39.0433 42.1527 39.0082 42.164 39.0026C42.1849 38.9926 42.23 38.9138 42.2625 38.8552C42.2793 38.8248 42.2929 38.7998 42.2983 38.7928C42.299 38.7959 42.2995 38.7994 42.2998 38.8031C42.2987 38.8099 42.2975 38.8169 42.2999 38.8156C42.3001 38.8155 42.3004 38.8152 42.3006 38.815C42.3013 38.8394 42.299 38.8722 42.2974 38.9051C42.2934 38.9789 42.2965 39.0538 42.3361 39.0261C42.3446 39.0202 42.3623 38.9867 42.3796 38.9524C42.4009 38.9104 42.4216 38.867 42.4273 38.8723C42.4407 38.8849 42.4402 38.9488 42.4435 39.0123C42.4472 39.1077 42.4615 39.2022 42.5073 39.1113C42.5222 39.0812 42.5402 39.0298 42.5573 38.9777C42.5668 38.9487 42.5761 38.9193 42.5845 38.8937C42.5757 38.9424 42.5677 38.9881 42.5603 39.0308C42.5448 39.1188 42.5316 39.1941 42.5157 39.2573C42.4785 39.4066 42.4233 39.6112 42.397 39.763C42.39 39.8043 42.3811 39.85 42.372 39.896C42.3495 40.0114 42.3255 40.1292 42.3342 40.186C42.3396 40.2242 42.3595 40.3128 42.394 40.2269C42.4014 40.2082 42.4099 40.1702 42.4191 40.1279C42.4235 40.1077 42.4281 40.0865 42.4329 40.0658C42.446 40.009 42.4601 39.9569 42.4749 39.9431C42.4783 39.9399 42.4819 39.9371 42.4855 39.9346C42.5 39.9243 42.5161 39.9128 42.5285 39.8515C42.5427 39.7808 42.5504 39.6988 42.56 39.6034C42.5722 39.479 42.5886 39.3315 42.6171 39.1548C42.6227 39.1198 42.6271 39.1081 42.6305 39.0992C42.6328 39.0929 42.6346 39.0879 42.6358 39.0773C42.6372 39.0652 42.6392 39.0398 42.6419 39.0078C42.6511 38.8946 42.6697 38.6972 42.6824 38.69C42.6859 38.6881 42.6888 38.6978 42.6915 38.7066C42.6955 38.7196 42.6991 38.7302 42.7021 38.6979C42.7032 38.6856 42.7043 38.6723 42.7054 38.6586C42.709 38.6627 42.7125 38.6669 42.7161 38.671C42.7187 38.7099 42.7263 38.707 42.7353 38.7031C42.7375 38.7021 42.7398 38.7012 42.7422 38.7007C42.7497 38.709 42.7574 38.7171 42.7652 38.7253C42.7713 38.7418 42.778 38.7685 42.7863 38.8108C42.8027 38.8955 42.8224 39.0352 42.8474 39.1711C42.8579 39.2284 42.8693 39.2851 42.8812 39.3367C42.8784 39.3434 42.876 39.3511 42.8744 39.3617C42.8635 39.4342 42.8639 39.5752 42.8631 39.7051C42.8625 39.7914 42.8614 39.8729 42.8553 39.9257C42.8441 40.0223 42.8486 40.1346 42.8527 40.2177C42.8548 40.2607 42.8565 40.296 42.8549 40.3171C42.8536 40.3339 42.8494 40.342 42.8451 40.3503C42.8413 40.3575 42.8374 40.3651 42.8351 40.3787C42.8062 40.544 42.8155 40.6393 42.835 40.778C42.8456 40.8545 42.8588 40.9442 42.8677 41.0661C42.876 41.1951 42.8761 41.233 42.8545 41.2851C42.8738 41.3485 42.894 41.4118 42.9152 41.4748C42.9223 41.4704 42.9263 41.4303 42.9309 41.3637C42.9394 41.2448 42.979 41.1994 43.0093 41.1633C43.0232 41.1466 43.0352 41.132 43.041 41.1133C43.0718 41.0138 43.0473 40.8808 43.0286 40.7636C43.0181 40.6991 43.0088 40.6394 43.0083 40.5929C43.008 40.573 43.0043 40.5536 43.0007 40.5338C42.9979 40.5184 42.995 40.5028 42.9936 40.4867C42.9837 40.3692 42.9943 40.2805 43.0018 40.1982C43.0062 40.1511 43.0098 40.1058 43.0093 40.0586C43.0092 40.0442 43.0087 40.0296 43.0082 40.0153C43.0074 39.9946 43.0067 39.9748 43.007 39.9577C43.0077 39.9189 43.0145 39.892 43.0216 39.8626C43.0252 39.8476 43.0289 39.8318 43.0317 39.8135C43.0355 39.7897 43.0317 39.7431 43.0276 39.6946C43.0247 39.6602 43.0217 39.6249 43.0208 39.5955C43.0192 39.5424 43.0272 39.522 43.0344 39.503C43.0376 39.4947 43.0405 39.4865 43.0425 39.4762C43.0432 39.472 43.0426 39.464 43.041 39.4531C43.051 39.4142 43.059 39.3745 43.0657 39.3356C43.1013 39.1398 43.0968 38.9758 43.2049 39.0624C43.2258 39.0785 43.2397 39.0689 43.2484 39.0468C43.3124 39.072 43.3809 39.0941 43.4536 39.1118C43.512 39.2012 43.567 39.2732 43.6173 39.3254C43.7122 39.4233 43.7625 39.4266 43.8206 39.429C43.8639 39.4305 43.9119 39.4315 43.9948 39.4626C44.1343 39.5148 44.2746 39.5372 44.3913 39.5029C44.5075 39.4694 44.6244 39.4013 44.693 39.3392C44.7302 39.306 44.8373 39.3227 44.9398 39.3317C45.0835 39.3455 45.2183 39.3425 45.1032 39.2214C45.0664 39.1828 44.9965 39.1252 44.9278 39.0704C44.8789 39.0314 44.8308 38.9937 44.7957 38.9645C44.8176 38.9548 44.8395 38.9447 44.8615 38.9342C44.9724 38.9567 45.1042 38.9549 45.0204 38.8517C45.043 38.8388 45.0655 38.8255 45.0878 38.8125C45.1352 38.7834 45.1821 38.7534 45.2289 38.7211C45.2443 38.7106 45.2597 38.6996 45.2751 38.6885C45.2753 38.6884 45.2755 38.6883 45.2756 38.6882C45.3066 38.6658 45.3375 38.6424 45.3682 38.6185C45.3812 38.6082 45.3943 38.5978 45.4072 38.5872C45.4401 38.5603 45.4728 38.5323 45.5051 38.5036C45.5222 38.4885 45.5393 38.4726 45.5563 38.4569C45.584 38.4312 45.6115 38.4044 45.6387 38.3769C45.6828 38.3322 45.726 38.2868 45.7686 38.2383C45.7756 38.2304 45.7946 38.2247 45.8224 38.2223C45.8503 38.22 45.8845 38.2213 45.9193 38.2263C45.9542 38.2314 45.9875 38.2401 46.0133 38.2508C46.039 38.2615 46.0549 38.2734 46.0589 38.2839C46.0829 38.3481 46.1049 38.4124 46.1244 38.4797C46.1364 38.5211 46.1479 38.5631 46.1583 38.6051C46.1648 38.6309 46.1706 38.6572 46.1764 38.6833C46.1872 38.7326 46.1967 38.7831 46.2049 38.8339C46.2081 38.854 46.2112 38.8741 46.2141 38.8943C46.2209 38.9416 46.2264 38.9897 46.2309 39.0382C46.2309 39.0385 46.2309 39.0388 46.2309 39.0391C46.2331 39.063 46.2351 39.0869 46.2368 39.1107C46.2418 39.1839 46.2445 39.2573 46.2438 39.3328C46.2441 39.3721 46.243 39.4126 46.2412 39.4534C46.2402 39.4761 46.239 39.4988 46.2378 39.5212C46.237 39.5334 46.236 39.5457 46.235 39.558C46.2139 39.8438 46.1556 40.134 46.0567 40.4214C45.9584 40.7081 45.8209 40.9903 45.6471 41.2574C45.4728 41.5249 45.2619 41.7775 45.0178 42.0065C44.261 42.7251 43.1532 43.2072 41.9694 43.2494C40.7508 43.3056 39.4239 42.8765 38.3973 42.0204C38.1077 41.7819 37.8349 41.5035 37.5969 41.2052C37.3566 40.9035 37.149 40.5818 36.9722 40.2312C36.9184 40.1249 36.8667 40.0136 36.8176 39.8977Z" fill="black"/>
</svg>
