<svg width="64" height="71" viewBox="0 0 64 71" fill="none" xmlns="http://www.w3.org/2000/svg">
<path d="M40.7605 48.8795C38.9902 50.7328 36.8552 52.0848 35.0365 53.902C34.9971 53.9414 34.9577 53.9809 34.9185 54.0205C33.9802 55.0786 32.4411 54.9589 31.383 54.0205C29.1524 51.8133 26.54 49.9208 24.3856 47.6295C22.206 45.3105 20.046 42.9504 17.9164 40.574C16.5857 39.0893 15.2653 37.5969 13.9517 36.0965C13.041 35.289 13.1441 33.9643 13.9517 33.0537C14.8552 32.2625 15.7616 31.4738 16.6709 30.6866C19.0851 28.5972 21.52 26.5187 23.9606 24.4521C25.6183 23.0484 27.2818 21.6471 28.945 20.2493C29.6751 19.6355 30.4034 19.0241 31.1336 18.4112C31.6785 17.9541 32.2233 17.4969 32.7682 17.0398C32.844 16.9763 32.9358 16.9347 33.0248 16.9253C33.1139 16.916 33.1927 16.9393 33.2454 16.9921C33.2981 17.045 33.3214 17.1242 33.3117 17.2133C33.302 17.3022 33.2599 17.3938 33.1962 17.4694C32.7335 18.0171 32.2707 18.5648 31.808 19.1125C31.2939 19.7208 30.781 20.3282 30.2667 20.936C29.9619 20.8078 29.6763 20.7647 29.3767 20.9193C29.2237 20.9983 29.0393 21.1519 28.955 21.3166C28.8794 21.4646 28.8597 21.6133 28.8412 21.7547C28.8218 21.9026 28.8034 22.0429 28.7228 22.1666C28.5861 22.3766 28.5133 22.6333 28.4368 22.9029C28.409 23.0011 28.3807 23.101 28.3486 23.201C27.8572 23.7806 27.3653 24.3598 26.8731 24.9386C26.6432 25.1224 26.4344 25.2939 26.2819 25.4642C26.1452 25.6169 26.0584 25.7951 25.9834 25.984C25.9071 26.0735 25.8309 26.1631 25.7546 26.2526C25.2622 26.8302 24.7689 27.4074 24.2752 27.9842C23.7998 28.3441 23.306 28.7257 22.7122 29.2702C22.4563 29.5048 22.183 29.7156 21.9204 29.9182C21.5325 30.2176 21.1676 30.4992 20.9153 30.8137C20.7467 31.024 20.5168 31.1926 20.2875 31.3609C19.98 31.5865 19.673 31.8118 19.5152 32.1363C19.4159 32.3404 19.3404 32.5434 19.2704 32.7316C19.1592 33.0309 19.0621 33.2925 18.9054 33.4606C18.6109 33.7763 18.4152 34.109 18.2428 34.4024C18.0354 34.7551 17.8615 35.051 17.5895 35.1916C17.5482 35.2129 17.4992 35.2355 17.4439 35.2607C17.2391 35.3541 16.9481 35.4868 16.6484 35.7504L16.6484 33.3998C16.7602 33.5271 16.8957 33.6559 17.0618 33.7804C17.2602 33.9291 17.4878 34.0276 17.7109 34.1239C18.0356 34.2642 18.3508 34.4004 18.5528 34.682C18.5829 34.7241 18.5956 34.7868 18.6072 34.8439C18.6218 34.9166 18.6346 34.9801 18.6792 34.9806C18.8101 34.9823 18.9867 35.016 19.1787 35.0525C19.3197 35.0793 19.4692 35.1078 19.6148 35.1262C20.277 35.7167 20.9379 36.3088 21.5972 36.9029C21.8992 37.175 22.201 37.4477 22.5024 37.7207C22.552 37.965 22.6147 38.2029 22.707 38.4279C22.8278 38.722 23.0702 39.0174 23.3824 39.3984C23.6121 39.6788 23.8798 40.0057 24.1651 40.4122C24.6932 41.1648 25.3761 41.7973 25.8578 42.1587C25.9596 42.2351 26.0629 42.3111 26.1735 42.3922C26.5931 42.6996 27.1169 43.0831 28.056 43.8673C28.9443 44.6092 29.6565 45.2834 30.1915 45.7898C30.4646 46.0483 30.6914 46.2634 30.872 46.4213C31.1812 46.6914 31.5543 47.0297 31.9287 47.3693C32.5146 47.9009 33.1041 48.4359 33.4587 48.7179C33.585 48.8183 33.7199 48.9212 33.8654 49.0325C34.2396 49.3188 34.686 49.6604 35.2482 50.1553L31.0533 50.1553C31.0916 50.1118 31.1309 50.0675 31.1711 50.0225C31.7583 49.366 32.1674 49.0042 32.6192 48.6551C32.8028 48.5132 33.0289 48.4522 33.2621 48.3896C33.593 48.3007 33.9383 48.208 34.1968 47.8741C34.2572 47.7962 34.3113 47.7027 34.3678 47.6049C34.4717 47.4252 34.5839 47.2308 34.7589 47.0918C34.8199 47.0434 34.8906 47.0176 34.9598 46.9922C35.036 46.9644 35.1106 46.937 35.1697 46.8806C35.3903 46.6697 35.5947 46.4542 35.7763 46.2626C36.0104 46.0155 36.2068 45.8084 36.3516 45.7028C36.6097 45.5146 36.8224 45.2393 37.0377 44.9604C37.2021 44.7473 37.368 44.5319 37.5572 44.3519C38.0979 43.8376 38.7637 43.0525 39.4118 42.2057C39.6571 41.8854 39.948 41.697 40.3209 41.4559C40.5528 41.3059 40.8167 41.1356 41.1208 40.9C41.2931 40.7665 41.377 40.5912 41.4547 40.4291C41.5263 40.2797 41.5928 40.1413 41.7182 40.0565C41.8289 39.9817 41.9644 39.9999 42.0931 40.0171C42.2363 40.0363 42.371 40.0544 42.4537 39.9419C42.4977 39.882 42.5224 39.7804 42.5519 39.6597C42.5635 39.6119 42.5761 39.5611 42.5907 39.5086C42.6046 39.5259 42.6181 39.5403 42.6286 39.5509C42.7031 39.6255 42.8419 39.5652 42.9781 39.5059C43.0324 39.4823 43.0865 39.4586 43.1357 39.444C43.3168 39.3902 43.5496 39.1782 43.7166 39.0053C43.7872 38.9321 43.8755 38.8901 43.9785 38.841C44.07 38.7975 44.1731 38.7484 44.2858 38.6671C44.3501 38.6207 44.4142 38.5998 44.4674 38.5827C44.5059 38.5703 44.5387 38.5598 44.5617 38.5427C44.5816 38.5278 44.5743 38.4924 44.566 38.4526C44.56 38.4239 44.5536 38.3928 44.5565 38.3654C44.5635 38.2999 44.6012 38.2445 44.6433 38.2213C44.6627 38.2105 44.6829 38.2069 44.703 38.2033C44.7265 38.1992 44.7499 38.1952 44.7722 38.1797C44.8745 38.1085 44.9344 37.9998 44.9967 37.8869C45.0652 37.7628 45.1368 37.6334 45.2702 37.5432C45.3122 37.5148 45.3652 37.4929 45.4166 37.4717C45.4704 37.4495 45.5226 37.4279 45.5581 37.4005C45.702 37.2896 45.7685 37.1165 45.8296 36.9573C45.8703 36.8514 45.9088 36.7516 45.9659 36.6804C46.0708 36.5499 46.0699 36.4227 46.0693 36.3289C46.0689 36.2803 46.0685 36.2405 46.0831 36.2138C46.1038 36.1967 46.1251 36.1796 46.1462 36.1631C46.1681 36.1505 46.1908 36.1376 46.206 36.1193C46.2071 36.1179 46.2081 36.1164 46.2092 36.115C46.33 36.0253 46.4553 35.944 46.58 35.8632C46.8599 35.6818 47.1366 35.5027 47.35 35.2343C47.396 35.1765 47.4224 35.0972 47.4494 35.0165C47.4824 34.9177 47.5162 34.8167 47.5873 34.7504C47.7568 34.5925 47.9656 34.4708 48.1713 34.3509C48.4807 34.1707 48.783 33.9945 48.9338 33.7053C48.9835 33.6099 49.0163 33.501 49.049 33.3916C49.0672 33.3307 49.0854 33.2693 49.1067 33.2104C49.1332 33.2539 49.1615 33.2912 49.1879 33.3261C49.2423 33.398 49.2889 33.4595 49.2962 33.544C49.3136 33.7436 49.3598 33.9962 49.4802 34.0937C49.5128 34.1201 49.5432 34.1555 49.5736 34.1914C49.6499 34.2815 49.7278 34.3735 49.8508 34.3273C49.9338 34.2962 50.1397 34.2091 50.1693 34.0523C50.1757 34.0182 50.1606 33.9783 50.1438 33.9341C50.1358 33.9129 50.1274 33.8906 50.1207 33.8674L50.1207 35.2828C50.0569 35.3011 49.9859 35.3059 49.91 35.2522C49.8926 35.2399 49.8741 35.226 49.8553 35.2115C49.7801 35.1534 49.6961 35.0882 49.6241 35.1044C49.5412 35.1231 49.4899 35.1881 49.4301 35.2639C49.3521 35.3627 49.2596 35.48 49.0639 35.5373C49.0252 35.5486 48.9905 35.531 48.9642 35.5177C48.9457 35.5084 48.9314 35.5014 48.9228 35.5079C48.913 35.5153 48.8995 35.5378 48.8824 35.5662C48.8221 35.6664 48.7165 35.8413 48.5658 35.7025C48.5251 35.665 48.487 35.6135 48.4529 35.5673C48.4026 35.4992 48.3608 35.4428 48.3312 35.4591C48.3201 35.4654 48.3089 35.473 48.2977 35.4814C48.2533 35.4315 48.209 35.3816 48.1646 35.3318C48.1315 35.244 48.0444 35.1615 47.9354 35.0587C47.909 35.0337 47.8812 35.0073 47.8527 34.9795C47.7654 34.8809 47.678 34.7823 47.5909 34.6836C47.5288 34.5983 47.4692 34.5009 47.4164 34.3881C47.3106 34.1622 47.2654 33.9187 47.2213 33.6807C47.2027 33.5804 47.1844 33.481 47.1617 33.3843C47.1895 33.403 47.2158 33.4186 47.2394 33.4274C47.4006 33.4874 47.5446 33.4322 47.6772 33.3813C47.7653 33.3474 47.8485 33.3156 47.928 33.3209C48.0737 33.3306 48.1454 33.2433 48.1985 33.1788C48.226 33.1454 48.2487 33.1181 48.2739 33.1136C48.2941 33.1101 48.319 33.1238 48.3446 33.1378C48.367 33.1501 48.3902 33.1627 48.4112 33.1646C48.6665 33.1872 48.6923 33.0778 48.7299 32.9187C48.7506 32.831 48.7751 32.7282 48.8435 32.6239C48.9195 32.5171 48.9514 32.4955 49.0606 32.5319C49.049 32.43 49.0375 32.3281 49.0259 32.2263C49.0007 32.2069 48.9556 32.2183 48.885 32.2415C48.7588 32.2829 48.5903 32.1755 48.4586 32.0917C48.3976 32.0529 48.3445 32.0191 48.3071 32.0074C48.1084 31.9453 48.0512 32.0784 48.0009 32.1955C47.9732 32.2599 47.9475 32.3195 47.9015 32.3391C47.8819 32.3475 47.876 32.3694 47.8699 32.3917C47.8652 32.409 47.8605 32.4265 47.8493 32.4383C47.7676 32.5233 47.6286 32.508 47.4996 32.4939C47.4257 32.4858 47.3551 32.4783 47.3002 32.4899C47.2835 32.4935 47.2679 32.4986 47.253 32.5037C47.2312 32.5112 47.2102 32.5182 47.1873 32.5192C47.1352 32.5216 47.0655 32.4886 46.9892 32.4524C46.9501 32.4339 46.9093 32.4145 46.8682 32.3986C46.815 32.3781 46.7687 32.3978 46.7203 32.4182C46.686 32.4326 46.6506 32.4473 46.6108 32.4489C46.5389 32.4516 46.4557 32.3953 46.3784 32.3431C46.3447 32.3203 46.312 32.2984 46.2821 32.2824C46.2698 32.2759 46.2597 32.2771 46.2509 32.2838C46.1185 32.2036 45.9903 32.1287 45.8654 32.056C45.2391 31.6914 44.6968 31.376 44.1386 30.6533C44.033 30.5167 43.8999 30.3898 43.7561 30.2708C43.3685 29.8178 42.9817 29.3635 42.5961 28.9087C42.5881 28.7505 42.5494 28.5856 42.4784 28.4157C42.3452 28.0966 42.1324 27.8441 41.8812 27.5461C41.6956 27.3258 41.489 27.0805 41.278 26.765C40.9235 26.2349 40.5436 25.7066 40.0698 25.1556C39.598 24.607 39.0422 23.9945 38.639 23.5712C38.4192 23.3405 38.2497 23.0367 38.0917 22.7536C37.8694 22.3554 37.6699 21.9983 37.3857 21.9426C37.2949 21.9249 37.179 21.9358 37.0663 21.9464C36.9861 21.9539 36.9074 21.9609 36.8403 21.9577C36.7567 21.8542 36.6729 21.7508 36.5892 21.6471C36.4991 21.4047 36.3223 21.0645 35.9875 20.8996C35.9015 20.7926 35.8153 20.6855 35.7326 20.5816C35.5512 20.3559 35.3745 20.1343 35.1961 19.9108C35.138 19.8377 35.0792 19.7639 35.0204 19.69C35.0198 19.6893 35.0193 19.6886 35.0187 19.6879C34.9002 19.539 34.7808 19.3891 34.6637 19.2413C34.6135 19.178 34.5633 19.1147 34.5131 19.0514C34.3855 18.8906 34.257 18.7287 34.1311 18.5692C34.0645 18.4847 33.9972 18.3995 33.9298 18.3141C33.8205 18.1755 33.7104 18.0359 33.601 17.8968C33.424 17.6719 33.2483 17.4477 33.0723 17.2229C33.0436 17.1861 33.0248 17.142 33.0209 17.0996C33.017 17.0572 33.0281 17.0201 33.053 16.9952C33.0779 16.9704 33.1152 16.9594 33.1576 16.9634C33.1999 16.9675 33.2438 16.9866 33.2804 17.0154C33.5047 17.1921 33.7284 17.3688 33.9528 17.5466C34.0915 17.6565 34.2308 17.7668 34.369 17.8765C34.4542 17.9441 34.539 18.0117 34.6233 18.0786C34.7824 18.2049 34.9442 18.3341 35.1046 18.4621C35.1677 18.5125 35.2308 18.5628 35.2939 18.6132C35.4416 18.7311 35.5915 18.8513 35.7403 18.9706C35.7412 18.9714 35.7421 18.9721 35.743 18.9728C35.8161 19.0315 35.8892 19.0901 35.9616 19.148C36.1846 19.3271 36.4055 19.5047 36.6307 19.6868C36.7475 19.7804 36.8684 19.8787 36.9887 19.9761C37.0557 20.0303 37.1226 20.0844 37.1883 20.1374C37.2241 20.1665 37.2604 20.1961 37.2968 20.2258C38.1356 20.9056 38.966 21.5831 39.8003 22.2707C40.6317 22.9555 41.4615 23.6446 42.2862 24.3342C43.1127 25.0257 43.935 25.7188 44.7553 26.4151C47.3172 28.5896 49.8666 30.7859 52.3956 33.008C53.3336 33.8398 53.2274 35.2042 52.3956 36.1423C50.1022 38.7524 47.7814 41.3407 45.4289 43.8983C44.7684 44.6168 44.0871 45.3504 43.4197 46.0647C42.7448 46.7866 42.0815 47.4914 41.3991 48.2094C41.192 48.4276 40.9792 48.6508 40.7605 48.8795Z" fill="black"/>
<path d="M28.4911 60.9047C30.0284 60.8069 31.5079 61.7297 33.0504 61.7315C34.9656 61.7338 36.9113 60.852 38.831 61.0162C40.7396 61.1804 42.6573 61.4163 44.5691 61.7071C46.4829 61.9979 48.3939 62.3436 50.3087 62.7264C52.2194 63.1092 54.1343 63.5292 56.0465 63.9699C57.3454 64.2693 58.6457 64.5783 59.9444 64.8911C60.5145 65.0282 61.0829 65.166 61.6527 65.3042C62.0778 65.4076 62.503 65.5109 62.9281 65.6143C62.9872 65.6289 63.0438 65.688 63.0855 65.7819C63.1273 65.8759 63.1508 65.9962 63.1508 66.1206C63.1507 66.2451 63.127 66.3657 63.0851 66.4594C63.0432 66.5528 62.9865 66.6111 62.9274 66.6251C62.4987 66.7252 62.07 66.8253 61.6413 66.9255C61.1651 67.0365 60.6898 67.1478 60.2138 67.2581C60.1388 66.7476 60.0359 66.3605 59.8432 66.1895C59.7448 66.1022 59.6014 66.066 59.4958 66.1608C59.4009 66.2461 59.3295 66.398 59.2616 66.5428C59.1907 66.6943 59.1233 66.8381 59.0366 66.8889C58.8895 66.9751 58.7497 67.1919 58.6029 67.4196C58.5495 67.5024 58.495 67.5869 58.439 67.6669C57.9846 67.7707 57.5302 67.8737 57.0758 67.9758C56.9003 67.9215 56.7389 67.8775 56.602 67.8984C56.4792 67.9172 56.3668 68.0251 56.2548 68.1592C56.1845 68.1748 56.1141 68.1905 56.0438 68.2061C55.5898 68.3066 55.1356 68.4055 54.6815 68.5034C54.3271 68.3673 53.9557 68.235 53.4728 68.1769C53.2646 68.1518 53.0593 68.0782 52.8619 68.0075C52.5703 67.9031 52.296 67.805 52.0555 67.8783C51.8948 67.9274 51.7257 67.8552 51.557 67.7833C51.3308 67.6868 51.105 67.5905 50.9004 67.787C50.7717 67.9105 50.6535 68.0607 50.544 68.2C50.3698 68.4217 50.2176 68.6156 50.0798 68.629C49.8209 68.654 49.5967 68.8155 49.3991 68.958C49.1615 69.1293 48.9622 69.2731 48.7871 69.1182C48.7606 69.0947 48.7302 69.0635 48.696 69.028C48.5158 68.841 48.2276 68.5419 47.8139 68.7063C47.6666 68.7649 47.5282 68.9171 47.3928 69.0664C47.1955 69.2838 47.004 69.4948 46.7988 69.4009C46.7682 69.3868 46.7362 69.328 46.707 69.2742C46.67 69.2058 46.6376 69.1461 46.6185 69.198C46.5622 69.3503 46.473 69.5187 46.3761 69.7019C46.3049 69.8365 46.2294 69.9792 46.1598 70.129C45.6283 70.2136 45.0967 70.2947 44.5649 70.3714C44.3213 70.4067 44.0776 70.441 43.8339 70.4744C43.7092 70.2451 43.5817 70.0385 43.4471 69.8822C43.2711 69.6779 43.0429 69.6154 42.7488 69.5343C42.5324 69.4747 42.2801 69.4049 41.9866 69.262C41.4433 68.9974 40.8851 69.0567 40.5275 69.1986C40.4518 69.2286 40.3758 69.2607 40.2945 69.2955C39.986 69.4276 39.6011 69.5931 38.8699 69.7756C38.1783 69.9482 37.5901 69.993 37.1483 70.0266C36.9227 70.0438 36.7353 70.0576 36.5916 70.0845C36.3459 70.1305 36.0441 70.1715 35.7411 70.2124C35.267 70.2765 34.7899 70.3407 34.5198 70.4263C34.4237 70.4568 34.3228 70.4945 34.2138 70.5347C33.9119 70.6464 33.5471 70.781 33.0444 70.8589C32.5168 70.9405 32.1897 70.8848 31.8499 70.7638C31.7118 70.7146 31.59 70.5201 31.4645 70.3191C31.2864 70.0338 31.1006 69.7361 30.8492 69.8249C30.7906 69.8457 30.728 69.892 30.6625 69.9407C30.5422 70.0301 30.4121 70.127 30.2789 70.0845C30.2324 70.0697 30.1915 70.0168 30.1514 69.9651C30.1073 69.9081 30.064 69.8524 30.015 69.8493C29.8319 69.8377 29.6537 69.8509 29.4954 69.8627C29.2913 69.8779 29.1201 69.8906 29.0138 69.8444C28.8245 69.7621 28.6174 69.8358 28.4078 69.9108C28.2476 69.9682 28.0858 70.0265 27.9292 70.0156C27.4816 69.9846 26.866 70.1251 26.2318 70.3593C25.9918 70.4478 25.7885 70.3269 25.528 70.1716C25.366 70.075 25.1818 69.9648 24.9528 69.884C24.823 69.8383 24.7131 69.946 24.6113 70.0455C24.5176 70.1372 24.4306 70.2219 24.3415 70.174C24.2627 70.1317 24.213 69.9506 24.1657 69.7786C24.1131 69.5872 24.0636 69.4072 23.9808 69.4423C23.9367 69.461 23.8831 69.5516 23.8194 69.6592C23.7942 69.7018 23.7673 69.7468 23.7388 69.7914C23.7403 69.7547 23.7406 69.7219 23.7407 69.697C23.7407 69.5213 23.6563 69.4288 23.5733 69.3381C23.5402 69.3019 23.5073 69.2662 23.4802 69.2254C23.3805 69.0753 23.1918 69.0509 23.0476 69.0579C22.9866 69.0608 22.9313 69.0063 22.8668 68.9427C22.8095 68.8863 22.745 68.8226 22.6626 68.7855C22.6157 68.7644 22.5796 68.7135 22.5498 68.671C22.5282 68.6402 22.5098 68.6139 22.4928 68.607C22.478 68.6011 22.4661 68.6514 22.4527 68.7082C22.4431 68.749 22.4326 68.7932 22.4198 68.8221C22.3891 68.8911 22.3495 68.9119 22.3218 68.8897C22.309 68.8795 22.2989 68.8599 22.2889 68.8404C22.2772 68.8176 22.2655 68.7948 22.2495 68.7868C22.1759 68.7501 22.1044 68.8075 22.03 68.8672C21.9483 68.9328 21.863 69.0009 21.7682 68.95C21.7383 68.934 21.7065 68.8973 21.6757 68.8617C21.6435 68.8244 21.6121 68.7884 21.5855 68.7788C21.4774 68.7399 21.3757 68.8656 21.2822 68.9811C21.2201 69.058 21.1614 69.1302 21.1069 69.1468C21.0071 69.1771 20.9535 69.3279 20.914 69.4393C20.8935 69.497 20.8768 69.5444 20.8593 69.5587C20.8432 69.5545 20.8269 69.5495 20.811 69.5441C20.7964 69.533 20.7812 69.5215 20.767 69.5252C20.766 69.5255 20.7649 69.5261 20.7638 69.5264C20.6746 69.4898 20.5868 69.438 20.4997 69.3863C20.304 69.2701 20.1106 69.1551 19.9062 69.2199C19.8622 69.2339 19.8173 69.2962 19.7716 69.3595C19.7157 69.437 19.6585 69.5163 19.6002 69.5106C19.4613 69.497 19.3211 69.3943 19.183 69.2931C18.9752 69.1408 18.7722 68.9922 18.5856 69.1554C18.524 69.2092 18.4639 69.2989 18.4036 69.3893C18.37 69.4397 18.3363 69.4905 18.3022 69.5349C18.3094 69.4524 18.3133 69.375 18.3169 69.3028C18.3243 69.154 18.3306 69.0266 18.3633 68.9184C18.4406 68.6626 18.5282 68.3106 18.5185 68.0538C18.5159 67.9841 18.518 67.9065 18.5203 67.8284C18.5262 67.6323 18.5322 67.4321 18.4604 67.3416C18.412 67.2806 18.2877 67.1405 18.2086 67.2904C18.1914 67.3231 18.1809 67.3878 18.1692 67.4598C18.1483 67.5891 18.1233 67.7422 18.0484 67.7778C18.0358 67.7838 18.0221 67.7892 18.0079 67.7943C17.9513 67.8144 17.888 67.8366 17.8644 67.9405C17.8371 68.0602 17.8429 68.1973 17.8497 68.3572C17.8586 68.5655 17.8691 68.8128 17.8104 69.1109C17.7987 69.1698 17.7765 69.19 17.7598 69.2053C17.748 69.2161 17.7389 69.2248 17.738 69.2425C17.737 69.2629 17.7408 69.3052 17.7456 69.3589C17.7625 69.548 17.7919 69.8786 17.6691 69.8926C17.6359 69.8963 17.5979 69.8806 17.5638 69.8664C17.5136 69.8454 17.4719 69.8281 17.4663 69.8822C17.4643 69.9027 17.4628 69.925 17.4615 69.948C17.4216 69.9415 17.3816 69.935 17.3416 69.9285C17.2903 69.864 17.2184 69.8696 17.1285 69.8767C17.1067 69.8785 17.0837 69.8801 17.0599 69.881C16.981 69.8676 16.9021 69.8544 16.8232 69.8408C16.7607 69.8134 16.6941 69.7689 16.6238 69.6982C16.4831 69.5565 16.3606 69.3229 16.2409 69.0944C16.1905 68.9982 16.1405 68.9026 16.0899 68.8154C16.1096 68.8047 16.1274 68.792 16.1411 68.7746C16.235 68.6552 16.2727 68.4204 16.3073 68.2043C16.3303 68.0605 16.3521 67.925 16.3881 67.8375C16.454 67.6773 16.4474 67.4899 16.4426 67.3513C16.44 67.2795 16.4381 67.2206 16.4469 67.1856C16.454 67.1576 16.4703 67.1444 16.4872 67.1308C16.5019 67.1189 16.5171 67.1064 16.5268 67.0839C16.6447 66.8095 16.6092 66.6503 16.5577 66.4185C16.5293 66.2907 16.496 66.1407 16.4808 65.9372C16.4677 65.7217 16.4721 65.6587 16.5339 65.5729C16.4857 65.4665 16.4376 65.36 16.3895 65.2536C16.3706 65.2605 16.3563 65.3271 16.3361 65.4376C16.3002 65.6351 16.1831 65.7072 16.0917 65.7636C16.0493 65.7897 16.0125 65.8125 15.9917 65.8428C15.881 66.0038 15.9132 66.228 15.9415 66.4252C15.9571 66.5338 15.9715 66.6343 15.9603 66.7116C15.9555 66.7447 15.9624 66.7775 15.9692 66.8109C15.9746 66.8368 15.98 66.8631 15.9802 66.8901C15.9817 67.0866 15.9162 67.2324 15.8555 67.3678C15.8207 67.4453 15.7875 67.5197 15.7692 67.5981C15.7636 67.622 15.7592 67.6463 15.755 67.67C15.7489 67.7045 15.743 67.7374 15.7337 67.7656C15.7126 67.8299 15.669 67.8732 15.6213 67.9204C15.5969 67.9446 15.5713 67.9698 15.5472 67.9996C15.5159 68.0381 15.5046 68.1158 15.4927 68.197C15.4843 68.2543 15.4755 68.3134 15.4593 68.3621C15.43 68.4501 15.3707 68.4819 15.3158 68.5114C15.2918 68.5242 15.2687 68.537 15.2492 68.5534C15.2412 68.5601 15.2374 68.5735 15.2366 68.5918C15.1464 68.6533 15.0602 68.7161 14.9763 68.7776C14.5559 69.086 14.192 69.3535 13.6486 69.1596C13.5459 69.123 13.4355 69.1303 13.3241 69.1596C12.9674 69.0826 12.6106 69.003 12.254 68.9214C12.1835 68.7444 12.0971 68.5957 11.9949 68.4791C11.803 68.2601 11.6056 68.2133 11.3726 68.158C11.2004 68.1171 11.0087 68.0715 10.7853 67.9484C10.41 67.7415 10.0247 67.5666 9.58986 67.4756C9.15695 67.3851 8.66131 67.3183 8.31065 67.2947C8.11949 67.2817 7.91871 67.1234 7.73158 66.976C7.46836 66.7687 7.23217 66.5829 7.08797 66.8523C7.04191 66.9384 6.9974 67.0879 6.95407 67.2331C6.92322 67.3366 6.89278 67.4376 6.86298 67.5128C6.78361 67.4894 6.70415 67.4663 6.62471 67.4427C6.48359 67.2632 6.26428 67.0707 6.05228 67.2709C5.97035 67.2462 5.88836 67.2215 5.80921 67.1966C5.63649 67.1443 5.4675 67.0914 5.29697 67.0382C5.24131 67.0205 5.1851 67.0029 5.12875 66.9852C5.12821 66.985 5.12768 66.9848 5.12714 66.9846C5.01371 66.9488 4.89942 66.9129 4.78703 66.8767C4.73889 66.8613 4.69074 66.8458 4.6426 66.8304C4.52026 66.7912 4.39704 66.7519 4.27594 66.7122C4.21184 66.6911 4.14713 66.6701 4.0823 66.6488C3.97714 66.6143 3.87118 66.5796 3.76576 66.5447C3.59528 66.4882 3.42559 66.431 3.25558 66.3735C3.22778 66.3639 3.20106 66.3341 3.18143 66.2888C3.1618 66.2434 3.15073 66.1865 3.15076 66.1279C3.1508 66.0693 3.16196 66.0123 3.18166 65.9671C3.20134 65.922 3.22803 65.8929 3.25581 65.8836C3.42594 65.8276 3.59584 65.7722 3.76645 65.7173C3.87188 65.6833 3.97781 65.6491 4.08299 65.6155C4.14784 65.5949 4.21249 65.5745 4.27662 65.554C4.39774 65.5154 4.52117 65.4769 4.64352 65.4388C4.69166 65.4238 4.7398 65.4088 4.78794 65.3938C4.90064 65.3586 5.01524 65.3237 5.12897 65.289C5.12966 65.2888 5.13035 65.2886 5.13103 65.2884C5.18699 65.2713 5.24285 65.2542 5.29812 65.2372C5.46871 65.1855 5.63779 65.1343 5.81058 65.0836C5.89986 65.0563 5.99289 65.0296 6.08524 65.0026C6.13666 64.9876 6.18797 64.9725 6.23836 64.9575C6.26591 64.9496 6.29383 64.9417 6.3219 64.9338C6.96618 64.7464 7.60592 64.5662 8.2516 64.3934C8.89486 64.2205 9.53926 64.0547 10.1818 63.8956C10.8258 63.7364 11.4687 63.5841 12.1121 63.438C16.1956 62.5102 20.2955 61.7494 24.3971 61.2733C24.9821 61.2049 25.5824 61.1433 26.1686 61.0881C26.7612 61.0328 27.3417 60.9838 27.9358 60.9419C28.1163 60.9288 28.3013 60.9165 28.4911 60.9047Z" fill="black"/>
<path d="M25.7894 8.92334C25.3674 7.85265 25.6281 6.71398 25.7717 5.67459C25.7749 5.65148 25.778 5.62835 25.7812 5.60519C25.9443 4.33325 26.2482 2.86813 27.242 1.87915C28.2262 0.895525 29.5206 0.255203 30.8521 0.0648728C31.6832 -0.0565768 32.5254 -0.00495415 33.3052 0.198284C33.7751 0.32011 34.2276 0.496564 34.6479 0.721283C35.7673 1.31684 36.64 2.25657 37.1432 3.30977C37.4876 4.02491 37.6674 4.79292 37.6837 5.53846C37.6912 5.86574 37.6678 6.18824 37.6159 6.50125C37.5772 6.73429 37.5227 6.96348 37.4541 7.18368C37.4445 7.2144 37.417 7.24148 37.3768 7.25825C37.3365 7.27504 37.287 7.28023 37.2378 7.27302C37.1886 7.2658 37.1426 7.24677 37.1084 7.22078C37.0743 7.19478 37.0548 7.16393 37.0528 7.13429C37.0387 6.91994 37.01 6.7079 36.9674 6.50293C36.9202 6.27469 36.8558 6.05372 36.7763 5.84209C36.972 5.77458 37.1163 5.69683 37.1637 5.58651C37.188 5.5304 37.1858 5.45397 37.136 5.41037C37.0914 5.37117 37.0234 5.35146 36.9587 5.33393C36.891 5.3156 36.8269 5.29981 36.7956 5.26556C36.7424 5.20733 36.6393 5.16972 36.5313 5.13578C36.4919 5.12339 36.4518 5.11139 36.4131 5.09874C36.3041 4.92104 36.1838 4.75393 36.0539 4.59829C36.0369 4.52048 36.0164 4.44971 35.9781 4.40239C35.9437 4.3599 35.8807 4.34074 35.8095 4.32984C35.7878 4.30795 35.7659 4.28638 35.7437 4.26508C35.601 4.12756 35.4505 4.00211 35.2943 3.88961C35.235 3.74479 35.1603 3.5944 35.0176 3.4426C34.9561 3.37736 34.9054 3.29966 34.8532 3.22566C34.7766 3.1167 34.6961 3.0157 34.5904 2.98484C34.5199 2.96431 34.4712 2.90243 34.4191 2.84102C34.3502 2.75914 34.2738 2.6779 34.1582 2.7112C34.0857 2.73218 34.0143 2.76667 33.9497 2.80017C33.8472 2.85354 33.7618 2.90407 33.707 2.89C33.6042 2.86365 33.4966 2.89804 33.4066 2.93191C33.297 2.97237 33.2116 3.01134 33.1579 2.93649C33.1497 2.92514 33.1406 2.91048 33.1302 2.89387C33.092 2.83255 33.0345 2.74544 32.939 2.71424C32.8986 2.70105 32.8522 2.69812 32.8002 2.7121C32.7382 2.72883 32.6765 2.78463 32.6198 2.84074C32.5368 2.92243 32.4635 3.00427 32.3871 2.96634C32.3756 2.96067 32.3636 2.93713 32.3524 2.91567C32.3381 2.88839 32.3251 2.86468 32.318 2.88556C32.2972 2.94678 32.265 3.01485 32.2328 3.0895C32.2091 3.14433 32.1855 3.20272 32.1651 3.26405C31.9842 3.30938 31.8098 3.36833 31.6436 3.43902C31.5675 3.47139 31.4927 3.50634 31.42 3.54353C31.3528 3.46866 31.2842 3.40463 31.2178 3.36227C31.1307 3.30706 31.0429 3.31389 30.93 3.32895C30.8469 3.34019 30.7501 3.35581 30.6242 3.35963C30.3891 3.36684 30.2139 3.51596 30.1405 3.6448C30.1246 3.67209 30.1095 3.70022 30.094 3.73056C30.0365 3.84613 29.9652 3.98874 29.8383 4.23205C29.7201 4.46239 29.6171 4.63996 29.5456 4.77807C29.5091 4.84855 29.4815 4.90776 29.4667 4.95671C29.4415 5.04015 29.4092 5.14037 29.3826 5.24155C29.3402 5.39992 29.3135 5.56145 29.3212 5.65766C29.3238 5.6918 29.3293 5.72816 29.3358 5.7671C29.3528 5.86715 29.3769 5.98292 29.3873 6.13017C29.3882 6.14162 29.3889 6.15324 29.3896 6.16503C29.4003 6.33591 29.3744 6.43423 29.3243 6.54277C29.3043 6.58641 29.2269 6.62637 29.1478 6.67135C29.0357 6.73423 28.9203 6.81038 28.9642 6.89729C28.9745 6.91738 28.9952 6.9376 29.0172 6.9584C29.0577 6.99671 29.102 7.03556 29.0924 7.08356C29.089 7.10038 29.0705 7.11788 29.0525 7.13531C29.0326 7.15446 29.0134 7.17362 29.0154 7.19106C29.0227 7.25606 29.0415 7.31743 29.0594 7.37105C29.0825 7.44019 29.1041 7.49731 29.0972 7.53887C29.0849 7.61319 29.1367 7.67621 29.1905 7.7353C29.2318 7.78091 29.2743 7.82473 29.2919 7.8769C29.3416 8.02662 29.4921 8.19978 29.6884 8.32707C29.7624 8.3751 29.7609 8.45709 29.7664 8.56662C29.7698 8.63451 29.7758 8.71292 29.8049 8.79603C29.8216 8.84323 29.8804 8.84401 29.9338 8.84292C29.9831 8.84208 30.028 8.83992 30.0358 8.87525C30.0428 8.90644 30.004 8.96992 29.9681 9.03107C29.928 9.09899 29.8916 9.16406 29.924 9.17528C29.9412 9.1812 29.9806 9.16846 30.0269 9.15237C30.0452 9.146 30.0645 9.1392 30.0841 9.13276C30.0739 9.14335 30.065 9.15305 30.0584 9.16045C30.0113 9.21268 30.0101 9.26127 30.0102 9.30931C30.0102 9.32848 30.0105 9.34753 30.0079 9.3667C29.9982 9.43739 30.0496 9.49216 30.096 9.52432C30.1156 9.53798 30.1196 9.56838 30.1249 9.60402C30.1296 9.63564 30.1353 9.67147 30.1538 9.70275C30.1643 9.72056 30.1645 9.74559 30.1648 9.76649C30.1651 9.78161 30.1653 9.79455 30.1695 9.80078C30.1732 9.80616 30.1886 9.79227 30.2058 9.77654C30.2182 9.76522 30.2316 9.75293 30.2423 9.74621C30.2679 9.73018 30.2855 9.73187 30.2898 9.74532C30.2918 9.75154 30.2909 9.76031 30.29 9.76903C30.2889 9.7792 30.2878 9.78942 30.2915 9.79561C30.3084 9.82402 30.3453 9.82012 30.383 9.8153C30.4247 9.81012 30.4669 9.80367 30.4891 9.83999C30.4961 9.85142 30.4998 9.87042 30.5035 9.88887C30.5073 9.90817 30.5113 9.92688 30.5189 9.93542C30.5497 9.97022 30.6096 9.94502 30.6633 9.92055C30.6991 9.90432 30.7323 9.88855 30.7541 9.89182C30.7944 9.89794 30.8385 9.85187 30.8706 9.81766C30.8872 9.79993 30.9007 9.78527 30.909 9.78273C30.9137 9.78672 30.9183 9.79102 30.9228 9.79542C30.9259 9.80168 30.9292 9.80815 30.9346 9.80895C30.935 9.80901 30.9354 9.80893 30.9359 9.80899C30.9601 9.83575 30.9823 9.86777 31.0046 9.89931C31.0546 9.97008 31.1098 10.04 31.1924 10.0407C31.2102 10.0408 31.2344 10.0226 31.2586 10.0039C31.2884 9.98091 31.3182 9.95702 31.3382 9.96551C31.3858 9.98565 31.4248 10.0393 31.4661 10.0917C31.5272 10.1703 31.5946 10.2461 31.6787 10.1957C31.7061 10.179 31.7354 10.1479 31.764 10.1161C31.78 10.0984 31.7959 10.0805 31.8114 10.065C31.8034 10.0971 31.797 10.1275 31.791 10.1557C31.7786 10.214 31.768 10.2639 31.7479 10.3045C31.7008 10.4003 31.639 10.5321 31.6242 10.6338C31.6203 10.6614 31.6138 10.6918 31.6071 10.7223C31.5904 10.799 31.5727 10.8772 31.599 10.9188C31.6165 10.9468 31.6655 11.0119 31.7114 10.9581C31.7214 10.9464 31.7301 10.9215 31.7396 10.8938C31.7442 10.8805 31.7489 10.8666 31.7541 10.8532C31.7685 10.8161 31.7861 10.7826 31.8118 10.7755C31.8177 10.7739 31.8241 10.7725 31.8307 10.7714C31.8567 10.7667 31.8858 10.7612 31.9009 10.7211C31.9182 10.6749 31.9217 10.6201 31.9261 10.5562C31.9317 10.473 31.9396 10.3743 31.9756 10.2584C31.9827 10.2354 31.992 10.2283 31.9991 10.2229C32.0041 10.2191 32.0079 10.216 32.009 10.209C32.0102 10.2009 32.0105 10.1839 32.0109 10.1624C32.0121 10.0864 32.016 9.95405 32.0599 9.95272C32.0719 9.95235 32.085 9.95985 32.0967 9.96654C32.114 9.97641 32.1285 9.98441 32.1321 9.96299C32.1335 9.95486 32.1347 9.94603 32.1358 9.93686C32.1498 9.9405 32.1638 9.94405 32.1778 9.9475C32.1945 9.97436 32.2202 9.97358 32.2525 9.97197C32.2604 9.97158 32.2686 9.97123 32.2772 9.97113C32.3052 9.97735 32.3334 9.9832 32.3615 9.98883C32.3839 9.99992 32.4075 10.0177 32.4337 10.0456C32.4858 10.1015 32.5346 10.1932 32.586 10.282C32.6076 10.3194 32.6298 10.3563 32.6526 10.3896C32.645 10.3945 32.6381 10.4 32.6331 10.4073C32.5983 10.4574 32.5878 10.5519 32.5771 10.6389C32.5701 10.6968 32.563 10.7514 32.5485 10.787C32.5218 10.8522 32.5267 10.9269 32.5309 10.9823C32.533 11.011 32.5347 11.0345 32.5311 11.0486C32.5281 11.0599 32.5206 11.0654 32.5128 11.0711C32.506 11.076 32.4989 11.0812 32.4945 11.0903C32.4409 11.2012 32.4574 11.2645 32.4855 11.3567C32.5008 11.4076 32.5194 11.4671 32.5297 11.5482C32.5391 11.6341 32.5378 11.6595 32.5055 11.6946C32.5324 11.7366 32.5599 11.7783 32.588 11.8198C32.5983 11.8167 32.6051 11.7897 32.614 11.7451C32.6301 11.6654 32.6905 11.6334 32.7374 11.6074C32.759 11.5954 32.7777 11.5848 32.7877 11.5718C32.8403 11.5028 32.8146 11.4149 32.7939 11.3375C32.7824 11.2949 32.7721 11.2554 32.7749 11.2242C32.7762 11.2108 32.7717 11.198 32.7673 11.185C32.7639 11.1749 32.7604 11.1646 32.7594 11.1538C32.7524 11.0756 32.7784 11.0149 32.8011 10.9583C32.8141 10.9259 32.8261 10.8948 32.831 10.8627C32.8325 10.853 32.8335 10.8431 32.8344 10.8335C32.8356 10.8195 32.8368 10.8061 32.8397 10.7944C32.8463 10.7679 32.8636 10.7485 32.8821 10.7273C32.8916 10.7164 32.9015 10.705 32.9104 10.6918C32.9219 10.6748 32.9226 10.6433 32.9234 10.6105C32.9239 10.5873 32.9244 10.5634 32.9285 10.5432C32.9359 10.5066 32.9583 10.4906 32.9789 10.4755C32.9879 10.4689 32.9965 10.4624 33.0034 10.4546C33.0062 10.4515 33.0069 10.4459 33.0061 10.4386C33.0388 10.4084 33.0689 10.3776 33.0974 10.3471C33.2413 10.1932 33.3419 10.059 33.5642 10.0664C33.6066 10.0675 33.646 10.0502 33.6823 10.024C33.8222 10.004 33.9631 9.9764 34.1041 9.94078C34.1613 9.99099 34.2203 10.0273 34.28 10.0478C34.3924 10.0861 34.4756 10.0594 34.5718 10.0246C34.6431 9.99866 34.7216 9.9683 34.8296 9.95087C35.0112 9.92141 35.1923 9.86555 35.3628 9.75621C35.533 9.64801 35.7087 9.4959 35.8188 9.37505C35.8789 9.30985 35.9861 9.27441 36.0863 9.23623C36.227 9.18315 36.3543 9.12337 36.2998 9.00688C36.2824 8.96974 36.2426 8.92024 36.2033 8.87291C36.1753 8.8392 36.1478 8.8065 36.1288 8.77952C36.1552 8.75318 36.1813 8.72629 36.2073 8.69905C36.3014 8.67802 36.4191 8.6206 36.39 8.49583C36.4155 8.46574 36.4405 8.43528 36.4648 8.40552C36.5171 8.34014 36.5674 8.2747 36.6164 8.20676C36.6326 8.1846 36.6486 8.16196 36.6646 8.13904C36.6647 8.13882 36.6649 8.13861 36.6651 8.1384C36.6971 8.09235 36.7285 8.04545 36.7591 7.99827C36.7722 7.97807 36.7851 7.9577 36.7979 7.93716C36.8304 7.88516 36.862 7.83212 36.8927 7.7788C36.909 7.75068 36.9251 7.72157 36.9409 7.69288C36.9666 7.6461 36.9918 7.59815 37.0163 7.54967C37.0561 7.47079 37.0937 7.39253 37.1298 7.31094C37.1357 7.29764 37.1496 7.28606 37.169 7.27882C37.1884 7.27159 37.2117 7.26921 37.2349 7.2726C37.2581 7.276 37.2799 7.28501 37.2962 7.29788C37.3125 7.31071 37.322 7.32637 37.3234 7.34138C37.3316 7.43347 37.3375 7.52446 37.3401 7.61839C37.3418 7.67612 37.3426 7.7342 37.3422 7.79187C37.342 7.82728 37.3412 7.86336 37.3402 7.89879C37.3382 7.96589 37.3347 8.03396 37.3296 8.10191C37.3276 8.12874 37.3254 8.15557 37.323 8.1824C37.3173 8.24525 37.3101 8.30874 37.3017 8.37225C37.3016 8.37264 37.3016 8.37302 37.3015 8.3734C37.2974 8.4047 37.2929 8.43593 37.2883 8.46683C37.2737 8.56199 37.2565 8.65643 37.2354 8.75277C37.2249 8.80273 37.2127 8.85414 37.1997 8.90565C37.1925 8.9343 37.1851 8.96288 37.1776 8.99092C37.1735 9.00621 37.1691 9.02166 37.1647 9.03718C37.0644 9.39459 36.923 9.74507 36.7388 10.0832C36.5554 10.4202 36.3308 10.7425 36.0703 11.0397C35.8093 11.3376 35.512 11.6106 35.1836 11.8514C34.1621 12.607 32.8162 13.0339 31.4452 12.9755C30.0315 12.9275 28.577 12.3512 27.4699 11.3436C27.1579 11.0623 26.8656 10.7399 26.6123 10.3987C26.3565 10.0536 26.1373 9.68954 25.9515 9.29643C25.895 9.17723 25.8407 9.0527 25.7894 8.92334Z" fill="black"/>
<path d="M0.229909 20.9233C-0.192021 19.8527 0.0686706 18.714 0.212276 17.6746C0.215412 17.6515 0.218564 17.6284 0.221738 17.6052C0.384834 16.3332 0.688777 14.8681 1.68257 13.8791C2.66671 12.8955 3.96111 12.2552 5.29263 12.0649C6.12375 11.9434 6.96592 11.995 7.7458 12.1983C8.21565 12.3201 8.66816 12.4966 9.08844 12.7213C10.2078 13.3168 11.0805 14.2566 11.5838 15.3098C11.9281 16.0249 12.1079 16.7929 12.1242 17.5385C12.1317 17.8657 12.1083 18.1882 12.0565 18.5012C12.0178 18.7343 11.9632 18.9635 11.8946 19.1837C11.885 19.2144 11.8576 19.2415 11.8173 19.2582C11.777 19.275 11.7276 19.2802 11.6784 19.273C11.6291 19.2658 11.5831 19.2468 11.5489 19.2208C11.5148 19.1948 11.4954 19.1639 11.4934 19.1343C11.4792 18.9199 11.4506 18.7079 11.408 18.5029C11.3607 18.2747 11.2963 18.0537 11.2168 17.8421C11.4125 17.7746 11.5569 17.6968 11.6043 17.5865C11.6285 17.5304 11.6263 17.454 11.5766 17.4104C11.532 17.3712 11.464 17.3515 11.3993 17.3339C11.3316 17.3156 11.2674 17.2998 11.2362 17.2656C11.183 17.2073 11.0799 17.1697 10.9718 17.1358C10.9325 17.1234 10.8924 17.1114 10.8537 17.0987C10.7447 16.921 10.6243 16.7539 10.4945 16.5983C10.4774 16.5205 10.4569 16.4497 10.4186 16.4024C10.3843 16.3599 10.3213 16.3407 10.2501 16.3298C10.2283 16.308 10.2064 16.2864 10.1843 16.2651C10.0415 16.1276 9.8911 16.0021 9.73484 15.8896C9.67559 15.7448 9.60083 15.5944 9.45818 15.4426C9.39667 15.3774 9.34598 15.2997 9.29375 15.2257C9.21719 15.1167 9.13669 15.0157 9.03091 14.9848C8.96044 14.9643 8.91179 14.9024 8.85964 14.841C8.79073 14.7591 8.71435 14.6779 8.59875 14.7112C8.52623 14.7322 8.45483 14.7667 8.39029 14.8002C8.28771 14.8535 8.20239 14.9041 8.14758 14.89C8.04476 14.8637 7.93713 14.898 7.84711 14.9319C7.73754 14.9724 7.65214 15.0113 7.59847 14.9365C7.59029 14.9251 7.58119 14.9105 7.57077 14.8939C7.53254 14.8326 7.47505 14.7454 7.37953 14.7142C7.33918 14.7011 7.29273 14.6981 7.24071 14.7121C7.17872 14.7288 7.1171 14.7846 7.06035 14.8407C6.97735 14.9224 6.9041 15.0043 6.82766 14.9663C6.81618 14.9607 6.80414 14.9371 6.79293 14.9157C6.77869 14.8884 6.76566 14.8647 6.75858 14.8856C6.73775 14.9468 6.70554 15.0148 6.67336 15.0895C6.64963 15.1443 6.62607 15.2027 6.60569 15.264C6.42472 15.3094 6.25038 15.3683 6.08412 15.439C6.00807 15.4714 5.9333 15.5063 5.86057 15.5435C5.79338 15.4687 5.72474 15.4046 5.65832 15.3623C5.57124 15.3071 5.48344 15.3139 5.3706 15.3289C5.28742 15.3402 5.19066 15.3558 5.06471 15.3596C4.82962 15.3668 4.6545 15.516 4.58101 15.6448C4.56512 15.6721 4.55002 15.7002 4.53454 15.7306C4.47702 15.8461 4.40571 15.9887 4.27883 16.2321C4.16064 16.4624 4.05767 16.64 3.98611 16.7781C3.94969 16.8486 3.92205 16.9078 3.90727 16.9567C3.88206 17.0401 3.84974 17.1404 3.82313 17.2416C3.78075 17.3999 3.75401 17.5614 3.76172 17.6577C3.76436 17.6918 3.76986 17.7282 3.77636 17.7671C3.79333 17.8672 3.81743 17.9829 3.8279 18.1302C3.82872 18.1416 3.82947 18.1532 3.83014 18.165C3.84085 18.3359 3.81494 18.4342 3.76489 18.5428C3.74481 18.5864 3.66746 18.6264 3.58839 18.6713C3.47624 18.7342 3.36082 18.8104 3.40477 18.8973C3.41503 18.9174 3.4358 18.9376 3.4578 18.9584C3.49823 18.9967 3.54257 19.0356 3.53292 19.0836C3.52956 19.1004 3.51104 19.1179 3.493 19.1353C3.47316 19.1545 3.45394 19.1736 3.45592 19.1911C3.46327 19.2561 3.48206 19.3174 3.49998 19.3711C3.52305 19.4402 3.54466 19.4973 3.53776 19.5389C3.52547 19.6132 3.57729 19.6762 3.63109 19.7353C3.67233 19.7809 3.71488 19.8247 3.73243 19.8769C3.78212 20.0266 3.93262 20.1998 4.12897 20.3271C4.203 20.3751 4.20149 20.4571 4.20693 20.5666C4.21033 20.6345 4.21634 20.7129 4.2455 20.796C4.26216 20.8432 4.32099 20.844 4.37433 20.8429C4.42363 20.8421 4.4685 20.8399 4.47639 20.8752C4.48335 20.9064 4.44454 20.9699 4.40863 21.0311C4.36858 21.099 4.33219 21.1641 4.36455 21.1753C4.38173 21.1812 4.42119 21.1685 4.46745 21.1524C4.48574 21.146 4.50507 21.1392 4.52462 21.1328C4.51443 21.1434 4.50556 21.153 4.49892 21.1604C4.45189 21.2127 4.45062 21.2613 4.45076 21.3093C4.45079 21.3285 4.45107 21.3475 4.44845 21.3667C4.43875 21.4374 4.49015 21.4922 4.53656 21.5243C4.55613 21.538 4.56013 21.5684 4.56544 21.604C4.57013 21.6356 4.57589 21.6715 4.59432 21.7027C4.60481 21.7206 4.60508 21.7456 4.60539 21.7665C4.6056 21.7816 4.60586 21.7945 4.61006 21.8008C4.61372 21.8062 4.62912 21.7923 4.64635 21.7765C4.65875 21.7652 4.67216 21.7529 4.68286 21.7462C4.70847 21.7302 4.72603 21.7319 4.73036 21.7453C4.73235 21.7515 4.73142 21.7603 4.73052 21.769C4.72946 21.7792 4.72838 21.7894 4.73205 21.7956C4.74895 21.824 4.78582 21.8201 4.82355 21.8153C4.86522 21.8101 4.90748 21.8037 4.92969 21.84C4.93669 21.8514 4.94034 21.8704 4.94403 21.8889C4.94789 21.9082 4.95189 21.9269 4.95943 21.9354C4.99026 21.9702 5.05016 21.945 5.10386 21.9206C5.13965 21.9043 5.17285 21.8885 5.19469 21.8918C5.23493 21.8979 5.27907 21.8519 5.31114 21.8177C5.32778 21.7999 5.34128 21.7853 5.34953 21.7827C5.35422 21.7867 5.35888 21.791 5.36336 21.7954C5.36647 21.8017 5.36973 21.8082 5.37512 21.809C5.37554 21.809 5.376 21.8089 5.37641 21.809C5.40066 21.8358 5.42283 21.8678 5.44515 21.8993C5.49513 21.9701 5.55038 22.04 5.63295 22.0407C5.65076 22.0408 5.67497 22.0226 5.6992 22.0039C5.72892 21.9809 5.75872 21.957 5.77879 21.9655C5.82634 21.9857 5.86539 22.0393 5.90667 22.0917C5.96775 22.1703 6.03518 22.2461 6.1192 22.1957C6.1467 22.179 6.17593 22.1479 6.2046 22.1161C6.22059 22.0984 6.23648 22.0805 6.25191 22.065C6.24398 22.0971 6.23756 22.1275 6.23155 22.1557C6.21914 22.214 6.20851 22.2639 6.18847 22.3045C6.14138 22.4003 6.07957 22.5321 6.0648 22.6338C6.06087 22.6614 6.05434 22.6918 6.04764 22.7223C6.03092 22.799 6.01323 22.8772 6.03959 22.9188C6.05704 22.9468 6.10608 23.0119 6.152 22.9581C6.16193 22.9464 6.1706 22.9215 6.18014 22.8938C6.1847 22.8805 6.18948 22.8666 6.19468 22.8532C6.20903 22.8161 6.22662 22.7826 6.25238 22.7755C6.2583 22.7739 6.26467 22.7725 6.27121 22.7714C6.29729 22.7667 6.32635 22.7612 6.34143 22.7211C6.35878 22.6749 6.36227 22.6201 6.3667 22.5562C6.37228 22.473 6.38014 22.3743 6.41613 22.2584C6.42322 22.2354 6.4326 22.2283 6.43966 22.2229C6.44464 22.2191 6.44845 22.216 6.44952 22.209C6.45073 22.2009 6.45102 22.1839 6.45141 22.1624C6.45262 22.0864 6.45654 21.9541 6.50046 21.9527C6.51242 21.9524 6.5255 21.9598 6.53725 21.9665C6.55456 21.9764 6.56909 21.9844 6.57267 21.963C6.57402 21.9549 6.57521 21.946 6.57632 21.9369C6.59031 21.9405 6.60431 21.944 6.61833 21.9475C6.63501 21.9744 6.66076 21.9736 6.69307 21.972C6.70091 21.9716 6.70917 21.9712 6.71772 21.9711C6.74578 21.9774 6.77391 21.9832 6.80208 21.9888C6.8244 21.9999 6.84809 22.0177 6.87423 22.0456C6.92632 22.1015 6.97516 22.1932 7.02653 22.282C7.04812 22.3194 7.07039 22.3563 7.0931 22.3896C7.0855 22.3945 7.0787 22.4 7.07363 22.4073C7.03889 22.4574 7.02835 22.5519 7.0177 22.6389C7.01063 22.6968 7.00356 22.7514 6.98904 22.787C6.96235 22.8522 6.96727 22.9269 6.97145 22.9823C6.97356 23.011 6.97527 23.0345 6.97161 23.0486C6.96866 23.0599 6.96113 23.0654 6.95333 23.0711C6.94653 23.076 6.93948 23.0812 6.93509 23.0903C6.88144 23.2012 6.89795 23.2645 6.92605 23.3567C6.9414 23.4076 6.95993 23.4671 6.97029 23.5482C6.97965 23.6341 6.9784 23.6595 6.946 23.6946C6.9729 23.7366 7.00041 23.7783 7.02853 23.8198C7.0388 23.8167 7.04563 23.7897 7.05456 23.7451C7.07063 23.6654 7.13106 23.6334 7.17793 23.6074C7.19959 23.5954 7.21828 23.5848 7.22822 23.5718C7.28086 23.5028 7.25518 23.4149 7.23448 23.3375C7.22294 23.2949 7.21261 23.2554 7.21549 23.2242C7.2167 23.2108 7.21228 23.198 7.20785 23.185C7.20442 23.1749 7.20093 23.1646 7.19994 23.1538C7.19293 23.0756 7.21899 23.0149 7.24162 22.9583C7.25464 22.9259 7.26664 22.8948 7.27159 22.8627C7.2731 22.853 7.27406 22.8431 7.27491 22.8335C7.27617 22.8195 7.27737 22.8061 7.28028 22.7944C7.28689 22.7679 7.30413 22.7485 7.32266 22.7273C7.33217 22.7164 7.342 22.705 7.35092 22.6918C7.36246 22.6748 7.36319 22.6433 7.36391 22.6105C7.36442 22.5873 7.36495 22.5634 7.36902 22.5432C7.37641 22.5066 7.39887 22.4906 7.41948 22.4755C7.42847 22.4689 7.43705 22.4624 7.44398 22.4546C7.44679 22.4515 7.44749 22.4459 7.44666 22.4386C7.47932 22.4084 7.50941 22.3776 7.53792 22.3471C7.68189 22.1932 7.78246 22.059 8.00475 22.0664C8.04711 22.0675 8.08656 22.0502 8.12282 22.024C8.26276 22.004 8.40364 21.9764 8.54465 21.9408C8.6019 21.991 8.66085 22.0273 8.72056 22.0478C8.83291 22.0861 8.91618 22.0594 9.01232 22.0246C9.08362 21.9987 9.16212 21.9683 9.27019 21.9509C9.45173 21.9214 9.63283 21.8655 9.80337 21.7562C9.97351 21.648 10.1492 21.4959 10.2594 21.375C10.3195 21.3098 10.4266 21.2744 10.5268 21.2362C10.6676 21.1831 10.7948 21.1234 10.7403 21.0069C10.7229 20.9697 10.6831 20.9202 10.6438 20.8729C10.6159 20.8392 10.5884 20.8065 10.5693 20.7795C10.5958 20.7532 10.6219 20.7263 10.6478 20.699C10.742 20.678 10.8596 20.6206 10.8306 20.4958C10.856 20.4657 10.8811 20.4353 10.9054 20.4055C10.9577 20.3401 11.0079 20.2747 11.057 20.2068C11.0731 20.1846 11.0892 20.162 11.1051 20.139C11.1053 20.1388 11.1054 20.1386 11.1056 20.1384C11.1377 20.0923 11.1691 20.0455 11.1996 19.9983C11.2127 19.9781 11.2257 19.9577 11.2385 19.9372C11.2709 19.8852 11.3026 19.8321 11.3333 19.7788C11.3495 19.7507 11.3656 19.7216 11.3815 19.6929C11.4072 19.6461 11.4324 19.5982 11.4569 19.5497C11.4966 19.4708 11.5342 19.3925 11.5704 19.3109C11.5763 19.2976 11.5901 19.2861 11.6095 19.2788C11.6289 19.2716 11.6523 19.2692 11.6755 19.2726C11.6987 19.276 11.7204 19.285 11.7368 19.2979C11.7531 19.3107 11.7625 19.3264 11.7639 19.3414C11.7722 19.4335 11.778 19.5245 11.7806 19.6184C11.7823 19.6761 11.7831 19.7342 11.7828 19.7919C11.7826 19.8273 11.7817 19.8634 11.7807 19.8988C11.7788 19.9659 11.7752 20.034 11.7701 20.1019C11.7681 20.1287 11.7659 20.1556 11.7635 20.1824C11.7579 20.2453 11.7507 20.3087 11.7422 20.3723C11.7422 20.3726 11.7421 20.373 11.7421 20.3734C11.7379 20.4047 11.7335 20.4359 11.7288 20.4668C11.7142 20.562 11.697 20.6564 11.6759 20.7528C11.6654 20.8027 11.6532 20.8541 11.6403 20.9057C11.633 20.9343 11.6256 20.9629 11.6182 20.9909C11.614 21.0062 11.6097 21.0217 11.6052 21.0372C11.505 21.3946 11.3636 21.7451 11.1793 22.0832C10.996 22.4202 10.7713 22.7425 10.5109 23.0397C10.2498 23.3376 9.95258 23.6106 9.62415 23.8514C8.60263 24.607 7.25679 25.0339 5.88571 24.9755C4.47208 24.9275 3.01756 24.3512 1.91047 23.3436C1.59843 23.0623 1.30611 22.7399 1.05289 22.3987C0.797054 22.0536 0.577813 21.6895 0.392024 21.2964C0.335584 21.1772 0.281293 21.0527 0.229909 20.9233Z" fill="black"/>
<path d="M51.2299 20.9233C50.808 19.8527 51.0687 18.714 51.2123 17.6746C51.2154 17.6515 51.2186 17.6284 51.2217 17.6052C51.3848 16.3332 51.6888 14.8681 52.6826 13.8791C53.6667 12.8955 54.9611 12.2552 56.2926 12.0649C57.1237 11.9434 57.9659 11.995 58.7458 12.1983C59.2156 12.3201 59.6682 12.4966 60.0884 12.7213C61.2078 13.3168 62.0805 14.2566 62.5838 15.3098C62.9281 16.0249 63.1079 16.7929 63.1242 17.5385C63.1317 17.8657 63.1083 18.1882 63.0565 18.5012C63.0178 18.7343 62.9632 18.9635 62.8946 19.1837C62.885 19.2144 62.8576 19.2415 62.8173 19.2582C62.777 19.275 62.7276 19.2802 62.6784 19.273C62.6291 19.2658 62.5831 19.2468 62.5489 19.2208C62.5148 19.1948 62.4954 19.1639 62.4934 19.1343C62.4792 18.9199 62.4506 18.7079 62.408 18.5029C62.3607 18.2747 62.2963 18.0537 62.2168 17.8421C62.4125 17.7746 62.5569 17.6968 62.6043 17.5865C62.6285 17.5304 62.6263 17.454 62.5766 17.4104C62.532 17.3712 62.464 17.3515 62.3993 17.3339C62.3316 17.3156 62.2674 17.2998 62.2362 17.2656C62.183 17.2073 62.0799 17.1697 61.9718 17.1358C61.9325 17.1234 61.8924 17.1114 61.8537 17.0987C61.7447 16.921 61.6243 16.7539 61.4945 16.5983C61.4774 16.5205 61.4569 16.4497 61.4186 16.4024C61.3843 16.3599 61.3213 16.3407 61.2501 16.3298C61.2283 16.308 61.2064 16.2864 61.1843 16.2651C61.0415 16.1276 60.8911 16.0021 60.7348 15.8896C60.6756 15.7448 60.6008 15.5944 60.4582 15.4426C60.3967 15.3774 60.346 15.2997 60.2938 15.2257C60.2172 15.1167 60.1367 15.0157 60.0309 14.9848C59.9604 14.9643 59.9118 14.9024 59.8596 14.841C59.7907 14.7591 59.7143 14.6779 59.5988 14.7112C59.5262 14.7322 59.4548 14.7667 59.3903 14.8002C59.2877 14.8535 59.2024 14.9041 59.1476 14.89C59.0448 14.8637 58.9371 14.898 58.8471 14.9319C58.7375 14.9724 58.6521 15.0113 58.5985 14.9365C58.5903 14.9251 58.5812 14.9105 58.5708 14.8939C58.5325 14.8326 58.4751 14.7454 58.3795 14.7142C58.3392 14.7011 58.2927 14.6981 58.2407 14.7121C58.1787 14.7288 58.1171 14.7846 58.0603 14.8407C57.9773 14.9224 57.9041 15.0043 57.8277 14.9663C57.8162 14.9607 57.8041 14.9371 57.7929 14.9157C57.7787 14.8884 57.7657 14.8647 57.7586 14.8856C57.7377 14.9468 57.7055 15.0148 57.6734 15.0895C57.6496 15.1443 57.6261 15.2027 57.6057 15.264C57.4247 15.3094 57.2504 15.3683 57.0841 15.439C57.0081 15.4714 56.9333 15.5063 56.8606 15.5435C56.7934 15.4687 56.7247 15.4046 56.6583 15.3623C56.5712 15.3071 56.4834 15.3139 56.3706 15.3289C56.2874 15.3402 56.1907 15.3558 56.0647 15.3596C55.8296 15.3668 55.6545 15.516 55.581 15.6448C55.5651 15.6721 55.55 15.7002 55.5345 15.7306C55.477 15.8461 55.4057 15.9887 55.2788 16.2321C55.1606 16.4624 55.0577 16.64 54.9861 16.7781C54.9497 16.8486 54.9221 16.9078 54.9073 16.9567C54.8821 17.0401 54.8497 17.1404 54.8231 17.2416C54.7807 17.3999 54.754 17.5614 54.7617 17.6577C54.7644 17.6918 54.7699 17.7282 54.7764 17.7671C54.7933 17.8672 54.8174 17.9829 54.8279 18.1302C54.8287 18.1416 54.8295 18.1532 54.8301 18.165C54.8409 18.3359 54.8149 18.4342 54.7649 18.5428C54.7448 18.5864 54.6675 18.6264 54.5884 18.6713C54.4762 18.7342 54.3608 18.8104 54.4048 18.8973C54.415 18.9174 54.4358 18.9376 54.4578 18.9584C54.4982 18.9967 54.5426 19.0356 54.5329 19.0836C54.5296 19.1004 54.511 19.1179 54.493 19.1353C54.4732 19.1545 54.4539 19.1736 54.4559 19.1911C54.4633 19.2561 54.4821 19.3174 54.5 19.3711C54.5231 19.4402 54.5447 19.4973 54.5378 19.5389C54.5255 19.6132 54.5773 19.6762 54.6311 19.7353C54.6723 19.7809 54.7149 19.8247 54.7324 19.8769C54.7821 20.0266 54.9326 20.1998 55.129 20.3271C55.203 20.3751 55.2015 20.4571 55.2069 20.5666C55.2103 20.6345 55.2163 20.7129 55.2455 20.796C55.2622 20.8432 55.321 20.844 55.3743 20.8429C55.4236 20.8421 55.4685 20.8399 55.4764 20.8752C55.4834 20.9064 55.4445 20.9699 55.4086 21.0311C55.3686 21.099 55.3322 21.1641 55.3645 21.1753C55.3817 21.1812 55.4212 21.1685 55.4674 21.1524C55.4857 21.146 55.5051 21.1392 55.5246 21.1328C55.5144 21.1434 55.5056 21.153 55.4989 21.1604C55.4519 21.2127 55.4506 21.2613 55.4508 21.3093C55.4508 21.3285 55.4511 21.3475 55.4485 21.3667C55.4388 21.4374 55.4902 21.4922 55.5366 21.5243C55.5561 21.538 55.5601 21.5684 55.5654 21.604C55.5701 21.6356 55.5759 21.6715 55.5943 21.7027C55.6048 21.7206 55.6051 21.7456 55.6054 21.7665C55.6056 21.7816 55.6059 21.7945 55.6101 21.8008C55.6137 21.8062 55.6291 21.7923 55.6463 21.7765C55.6587 21.7652 55.6722 21.7529 55.6829 21.7462C55.7085 21.7302 55.726 21.7319 55.7304 21.7453C55.7324 21.7515 55.7314 21.7603 55.7305 21.769C55.7295 21.7792 55.7284 21.7894 55.7321 21.7956C55.7489 21.824 55.7858 21.8201 55.8236 21.8153C55.8652 21.8101 55.9075 21.8037 55.9297 21.84C55.9367 21.8514 55.9403 21.8704 55.944 21.8889C55.9479 21.9082 55.9519 21.9269 55.9594 21.9354C55.9903 21.9702 56.0502 21.945 56.1039 21.9206C56.1397 21.9043 56.1729 21.8885 56.1947 21.8918C56.2349 21.8979 56.2791 21.8519 56.3111 21.8177C56.3278 21.7999 56.3413 21.7853 56.3495 21.7827C56.3542 21.7867 56.3589 21.791 56.3634 21.7954C56.3665 21.8017 56.3697 21.8082 56.3751 21.809C56.3755 21.809 56.376 21.8089 56.3764 21.809C56.4007 21.8358 56.4228 21.8678 56.4451 21.8993C56.4951 21.9701 56.5504 22.04 56.633 22.0407C56.6508 22.0408 56.675 22.0226 56.6992 22.0039C56.7289 21.9809 56.7587 21.957 56.7788 21.9655C56.8263 21.9857 56.8654 22.0393 56.9067 22.0917C56.9678 22.1703 57.0352 22.2461 57.1192 22.1957C57.1467 22.179 57.1759 22.1479 57.2046 22.1161C57.2206 22.0984 57.2365 22.0805 57.2519 22.065C57.244 22.0971 57.2376 22.1275 57.2315 22.1557C57.2191 22.214 57.2085 22.2639 57.1885 22.3045C57.1414 22.4003 57.0796 22.5321 57.0648 22.6338C57.0609 22.6614 57.0543 22.6918 57.0476 22.7223C57.0309 22.799 57.0132 22.8772 57.0396 22.9188C57.057 22.9468 57.1061 23.0119 57.152 22.9581C57.1619 22.9464 57.1706 22.9215 57.1801 22.8938C57.1847 22.8805 57.1895 22.8666 57.1947 22.8532C57.209 22.8161 57.2266 22.7826 57.2524 22.7755C57.2583 22.7739 57.2647 22.7725 57.2712 22.7714C57.2973 22.7667 57.3264 22.7612 57.3414 22.7211C57.3588 22.6749 57.3623 22.6201 57.3667 22.5562C57.3723 22.473 57.3801 22.3743 57.4161 22.2584C57.4232 22.2354 57.4326 22.2283 57.4397 22.2229C57.4446 22.2191 57.4484 22.216 57.4495 22.209C57.4507 22.2009 57.451 22.1839 57.4514 22.1624C57.4526 22.0864 57.4565 21.9541 57.5005 21.9527C57.5124 21.9524 57.5255 21.9598 57.5372 21.9665C57.5546 21.9764 57.5691 21.9844 57.5727 21.963C57.574 21.9549 57.5752 21.946 57.5763 21.9369C57.5903 21.9405 57.6043 21.944 57.6183 21.9475C57.635 21.9744 57.6608 21.9736 57.6931 21.972C57.7009 21.9716 57.7092 21.9712 57.7177 21.9711C57.7458 21.9774 57.7739 21.9832 57.8021 21.9888C57.8244 21.9999 57.8481 22.0177 57.8742 22.0456C57.9263 22.1015 57.9752 22.1932 58.0265 22.282C58.0481 22.3194 58.0704 22.3563 58.0931 22.3896C58.0855 22.3945 58.0787 22.4 58.0736 22.4073C58.0389 22.4574 58.0283 22.5519 58.0177 22.6389C58.0106 22.6968 58.0036 22.7514 57.989 22.787C57.9624 22.8522 57.9673 22.9269 57.9714 22.9823C57.9736 23.011 57.9753 23.0345 57.9716 23.0486C57.9687 23.0599 57.9611 23.0654 57.9533 23.0711C57.9465 23.076 57.9395 23.0812 57.9351 23.0903C57.8814 23.2012 57.898 23.2645 57.9261 23.3567C57.9414 23.4076 57.9599 23.4671 57.9703 23.5482C57.9797 23.6341 57.9784 23.6595 57.946 23.6946C57.9729 23.7366 58.0004 23.7783 58.0285 23.8198C58.0388 23.8167 58.0456 23.7897 58.0546 23.7451C58.0706 23.6654 58.1311 23.6334 58.1779 23.6074C58.1996 23.5954 58.2183 23.5848 58.2282 23.5718C58.2809 23.5028 58.2552 23.4149 58.2345 23.3375C58.2229 23.2949 58.2126 23.2554 58.2155 23.2242C58.2167 23.2108 58.2123 23.198 58.2078 23.185C58.2044 23.1749 58.2009 23.1646 58.1999 23.1538C58.1929 23.0756 58.219 23.0149 58.2416 22.9583C58.2546 22.9259 58.2666 22.8948 58.2716 22.8627C58.2731 22.853 58.2741 22.8431 58.2749 22.8335C58.2762 22.8195 58.2774 22.8061 58.2803 22.7944C58.2869 22.7679 58.3041 22.7485 58.3227 22.7273C58.3322 22.7164 58.342 22.705 58.3509 22.6918C58.3625 22.6748 58.3632 22.6433 58.3639 22.6105C58.3644 22.5873 58.365 22.5634 58.369 22.5432C58.3764 22.5066 58.3989 22.4906 58.4195 22.4755C58.4285 22.4689 58.437 22.4624 58.444 22.4546C58.4468 22.4515 58.4475 22.4459 58.4467 22.4386C58.4793 22.4084 58.5094 22.3776 58.5379 22.3471C58.6819 22.1932 58.7825 22.059 59.0048 22.0664C59.0471 22.0675 59.0866 22.0502 59.1228 22.024C59.2628 22.004 59.4036 21.9764 59.5447 21.9408C59.6019 21.991 59.6609 22.0273 59.7206 22.0478C59.8329 22.0861 59.9162 22.0594 60.0123 22.0246C60.0836 21.9987 60.1621 21.9683 60.2702 21.9509C60.4517 21.9214 60.6328 21.8655 60.8034 21.7562C60.9735 21.648 61.1492 21.4959 61.2594 21.375C61.3195 21.3098 61.4266 21.2744 61.5268 21.2362C61.6676 21.1831 61.7948 21.1234 61.7403 21.0069C61.7229 20.9697 61.6831 20.9202 61.6438 20.8729C61.6159 20.8392 61.5884 20.8065 61.5693 20.7795C61.5958 20.7532 61.6219 20.7263 61.6478 20.699C61.742 20.678 61.8596 20.6206 61.8306 20.4958C61.856 20.4657 61.8811 20.4353 61.9054 20.4055C61.9577 20.3401 62.0079 20.2747 62.057 20.2068C62.0731 20.1846 62.0892 20.162 62.1051 20.139C62.1053 20.1388 62.1054 20.1386 62.1056 20.1384C62.1377 20.0923 62.1691 20.0455 62.1996 19.9983C62.2127 19.9781 62.2257 19.9577 62.2385 19.9372C62.2709 19.8852 62.3026 19.8321 62.3333 19.7788C62.3495 19.7507 62.3656 19.7216 62.3815 19.6929C62.4072 19.6461 62.4324 19.5982 62.4569 19.5497C62.4966 19.4708 62.5342 19.3925 62.5704 19.3109C62.5763 19.2976 62.5901 19.2861 62.6095 19.2788C62.6289 19.2716 62.6523 19.2692 62.6755 19.2726C62.6987 19.276 62.7204 19.285 62.7368 19.2979C62.7531 19.3107 62.7625 19.3264 62.7639 19.3414C62.7722 19.4335 62.778 19.5245 62.7806 19.6184C62.7823 19.6761 62.7831 19.7342 62.7828 19.7919C62.7826 19.8273 62.7817 19.8634 62.7807 19.8988C62.7788 19.9659 62.7752 20.034 62.7701 20.1019C62.7681 20.1287 62.7659 20.1556 62.7635 20.1824C62.7579 20.2453 62.7507 20.3087 62.7422 20.3723C62.7422 20.3726 62.7421 20.373 62.7421 20.3734C62.7379 20.4047 62.7335 20.4359 62.7288 20.4668C62.7142 20.562 62.697 20.6564 62.6759 20.7528C62.6654 20.8027 62.6532 20.8541 62.6403 20.9057C62.633 20.9343 62.6256 20.9629 62.6182 20.9909C62.614 21.0062 62.6097 21.0217 62.6052 21.0372C62.505 21.3946 62.3636 21.7451 62.1793 22.0832C61.996 22.4202 61.7713 22.7425 61.5109 23.0397C61.2498 23.3376 60.9526 23.6106 60.6242 23.8514C59.6026 24.607 58.2568 25.0339 56.8857 24.9755C55.4721 24.9275 54.0176 24.3512 52.9105 23.3436C52.5984 23.0623 52.3061 22.7399 52.0529 22.3987C51.7971 22.0536 51.5778 21.6895 51.392 21.2964C51.3356 21.1772 51.2813 21.0527 51.2299 20.9233Z" fill="black"/>
</svg>
