<svg width="60" height="57" viewBox="0 0 60 57" fill="none" xmlns="http://www.w3.org/2000/svg">
<path d="M10.9045 25.2296C11.4603 24.0712 12.876 23.4649 13.5202 22.3525C14.3202 20.9715 14.3673 19.1264 15.3094 17.8231C16.2468 16.5279 17.2502 15.2617 18.2986 14.0275C19.3478 12.7917 20.4434 11.5854 21.5728 10.3949C22.7005 9.20737 23.8621 8.03542 25.0405 6.87574C25.8409 6.08805 26.6503 5.30416 27.4624 4.52331C27.8187 4.18043 28.1748 3.83906 28.5319 3.49695C28.7986 3.24184 29.0652 2.98673 29.3319 2.73162C29.3691 2.69626 29.4439 2.68495 29.5426 2.70175C29.6414 2.71863 29.7554 2.76181 29.8631 2.82405C29.9709 2.88634 30.0655 2.96376 30.1291 3.04083C30.1926 3.11775 30.2194 3.18785 30.2069 3.2375C30.115 3.59694 30.0231 3.95639 29.9312 4.31583C29.829 4.71501 29.7273 5.11367 29.6245 5.51239C29.1512 5.31125 28.773 5.19189 28.5446 5.2455C28.4281 5.27289 28.3369 5.35826 28.375 5.48192C28.4093 5.59299 28.5112 5.72053 28.6083 5.84191C28.7099 5.96885 28.8064 6.08936 28.8143 6.17731C28.8277 6.32659 28.9571 6.53586 29.0931 6.75566C29.1426 6.83566 29.1931 6.91715 29.2391 6.99761C29.1396 7.37745 29.0395 7.75692 28.9386 8.13588C28.8184 8.23536 28.7131 8.32984 28.6741 8.43911C28.6393 8.53713 28.6858 8.67221 28.7553 8.82007C28.7395 8.87865 28.7238 8.93724 28.708 8.99583C28.6059 9.3737 28.5022 9.75089 28.3979 10.1276C28.1323 10.3153 27.8629 10.5172 27.6114 10.8367C27.503 10.9744 27.3537 11.0857 27.2102 11.1929C26.9983 11.3511 26.799 11.5 26.7624 11.7102C26.7379 11.8507 26.6049 11.9367 26.4723 12.0224C26.2945 12.1375 26.117 12.2522 26.2019 12.4982C26.2553 12.6528 26.3361 12.8132 26.4112 12.9619C26.5305 13.1984 26.6351 13.4052 26.5892 13.5114C26.503 13.7107 26.5495 13.9533 26.5905 14.1671C26.6399 14.4243 26.6813 14.64 26.4743 14.6889C26.4429 14.6963 26.4032 14.7026 26.3582 14.7096C26.1212 14.7461 25.7421 14.8045 25.7121 15.1853C25.7014 15.3209 25.7756 15.4968 25.8484 15.6693C25.9545 15.9203 26.0574 16.1641 25.8906 16.2652C25.8657 16.2803 25.8014 16.2739 25.7426 16.2681C25.668 16.2606 25.6028 16.2541 25.6398 16.2939C25.7483 16.4106 25.8569 16.5592 25.9751 16.7208C26.062 16.8394 26.1542 16.9653 26.2549 17.0904C26.1067 17.5163 25.9555 17.9405 25.8004 18.3626C25.7294 18.556 25.6576 18.7491 25.585 18.9417C25.3344 18.917 25.1024 18.9057 24.9109 18.9248C24.6607 18.9496 24.5114 19.083 24.3187 19.2548C24.1768 19.3811 24.0113 19.5283 23.7652 19.6686C23.3097 19.9285 23.1286 20.3609 23.1024 20.69C23.0969 20.7596 23.0929 20.8305 23.0892 20.9066C23.0751 21.1953 23.058 21.5558 22.9114 22.1747C22.7728 22.7602 22.5664 23.207 22.4115 23.5427C22.3324 23.7141 22.2662 23.8563 22.2297 23.9734C22.1671 24.1737 22.0769 24.4121 21.9861 24.6512C21.844 25.0254 21.7008 25.4018 21.6624 25.6395C21.6487 25.7241 21.6393 25.8158 21.6288 25.9146C21.5997 26.1883 21.5643 26.5188 21.4223 26.9205C21.2732 27.3422 21.0886 27.5504 20.8423 27.7351C20.7421 27.8102 20.5229 27.8008 20.2965 27.7909C19.9752 27.7768 19.64 27.762 19.6122 27.9878C19.6057 28.0405 19.6198 28.1089 19.6347 28.1805C19.6619 28.312 19.6916 28.4543 19.5993 28.5292C19.5671 28.5553 19.5044 28.5585 19.4428 28.5615C19.3751 28.5649 19.3088 28.5683 19.2857 28.6021C19.1994 28.7284 19.1366 28.8636 19.0808 28.9837C19.009 29.1387 18.9486 29.2686 18.8644 29.3222C18.7141 29.4176 18.6917 29.6039 18.6693 29.7928C18.6522 29.937 18.6353 30.0829 18.5607 30.1905C18.3473 30.4981 18.2125 31.0125 18.151 31.5873C18.1277 31.8048 17.9383 31.8911 17.6953 32.0014C17.5441 32.0701 17.3719 32.1479 17.2066 32.2728C17.1129 32.3435 17.1603 32.4767 17.2041 32.5999C17.2444 32.7134 17.2816 32.8185 17.203 32.859C17.1335 32.8946 16.956 32.84 16.7873 32.7881C16.5996 32.7304 16.4231 32.6761 16.419 32.7534C16.4168 32.7946 16.4729 32.8785 16.5396 32.9783C16.566 33.0178 16.5938 33.0597 16.6205 33.1026C16.5893 33.0832 16.561 33.0665 16.5395 33.054C16.3874 32.9661 16.2721 32.9808 16.159 32.9953C16.1139 33.0011 16.0692 33.0071 16.0226 33.0062C15.8511 33.0031 15.7513 33.1271 15.6972 33.2346C15.6743 33.2801 15.6041 33.2928 15.5222 33.3076C15.4494 33.3207 15.3674 33.3354 15.301 33.3763C15.2631 33.3996 15.204 33.4002 15.1548 33.4005C15.1191 33.4007 15.0887 33.4008 15.0756 33.4096C15.0643 33.4173 15.103 33.4511 15.1465 33.4891C15.1779 33.5164 15.2118 33.5461 15.2315 33.5698C15.2784 33.6265 15.2799 33.6654 15.2492 33.6743C15.235 33.6785 15.2138 33.676 15.1927 33.6735C15.1682 33.6705 15.1435 33.6675 15.1299 33.6751C15.0675 33.7098 15.0874 33.7902 15.1081 33.8737C15.1308 33.9654 15.1543 34.061 15.0707 34.1041C15.0444 34.1176 14.9994 34.1222 14.9557 34.1266C14.91 34.1313 14.8658 34.1359 14.8464 34.1503C14.7676 34.2089 14.8341 34.345 14.8952 34.4703C14.9358 34.5536 14.974 34.6321 14.9657 34.6797C14.9503 34.7669 15.0586 34.881 15.1385 34.9651C15.18 35.0088 15.214 35.0445 15.2192 35.0643C15.2088 35.0738 15.1977 35.0831 15.1864 35.0919C15.1707 35.0969 15.1544 35.1021 15.1517 35.1141C15.1515 35.1151 15.1516 35.1162 15.1514 35.1171C15.0826 35.1632 15.0011 35.2006 14.92 35.2376C14.7379 35.3208 14.5577 35.4028 14.5287 35.5828C14.5224 35.6215 14.5577 35.6851 14.5934 35.7497C14.6373 35.8288 14.6821 35.9097 14.6529 35.9489C14.5832 36.0424 14.4358 36.0922 14.2906 36.1413C14.0723 36.2151 13.8589 36.2873 13.9225 36.5036C13.9435 36.5749 13.9961 36.6632 14.0493 36.7519C14.0789 36.8013 14.1089 36.8511 14.1331 36.8979C14.0647 36.8514 13.9993 36.8099 13.9382 36.7712C13.8124 36.6915 13.7047 36.6232 13.6246 36.5455C13.4354 36.3618 13.167 36.1226 12.9406 36.0012C12.8791 35.9683 12.8128 35.9279 12.7461 35.8872C12.5788 35.7849 12.4079 35.6805 12.2995 35.687C12.2265 35.6914 12.0534 35.7111 12.1503 35.8431C12.1714 35.8719 12.2231 35.9118 12.2806 35.9562C12.3838 36.036 12.506 36.1306 12.5057 36.2025C12.5056 36.2146 12.5046 36.2272 12.503 36.2399C12.4969 36.2908 12.4897 36.3476 12.5699 36.4166C12.6622 36.4961 12.7834 36.5605 12.9247 36.6356C13.1087 36.7333 13.3273 36.8494 13.561 37.0408C13.6071 37.0787 13.6154 37.1048 13.6217 37.1245C13.6261 37.1384 13.6298 37.1493 13.6448 37.1588C13.662 37.1697 13.7003 37.1882 13.7487 37.2115C13.9196 37.2939 14.2181 37.4379 14.1791 37.5336C14.1685 37.5594 14.139 37.579 14.1125 37.5964C14.0735 37.6222 14.0411 37.6437 14.0856 37.6747C14.1025 37.6865 14.1211 37.6987 14.1406 37.7111C14.1183 37.7367 14.096 37.7623 14.0737 37.7879C13.9965 37.7927 13.9713 37.8474 13.9401 37.9158C13.9325 37.9324 13.9243 37.9498 13.9152 37.9675C13.8708 38.0177 13.8264 38.068 13.7817 38.1182C13.732 38.1496 13.6657 38.1754 13.5752 38.1908C13.3939 38.2215 13.1405 38.1931 12.8928 38.1652C12.7884 38.1535 12.6848 38.1418 12.5882 38.1347C12.5871 38.1151 12.5836 38.0959 12.5742 38.0773C12.5099 37.9499 12.3223 37.8053 12.1496 37.6722C12.0347 37.5837 11.9263 37.5003 11.8656 37.4305C11.7543 37.3029 11.5892 37.2139 11.4672 37.1481C11.4039 37.114 11.3521 37.086 11.3255 37.0621C11.3042 37.043 11.2996 37.0247 11.2948 37.0057C11.2906 36.9891 11.2862 36.9719 11.2707 36.9536C11.0822 36.7314 10.9296 36.6773 10.7074 36.5987C10.5848 36.5553 10.4411 36.5043 10.2585 36.4135C10.0664 36.3152 10.0137 36.2805 9.9651 36.193C9.85288 36.1745 9.74066 36.1561 9.62844 36.1376C9.62656 36.1547 9.67822 36.1983 9.76557 36.2681C9.92156 36.3927 9.93528 36.5133 9.946 36.6075C9.95096 36.6511 9.95538 36.6891 9.97292 36.7193C10.0662 36.8796 10.2738 36.9685 10.4565 37.0467C10.557 37.0897 10.65 37.1296 10.7123 37.1763C10.7389 37.1963 10.7702 37.2078 10.802 37.2195C10.8266 37.2286 10.8516 37.2378 10.8752 37.2512C11.0459 37.3484 11.1449 37.4685 11.2369 37.5801C11.2895 37.6439 11.3401 37.7051 11.4003 37.7575C11.4187 37.7735 11.4379 37.7888 11.4567 37.8037C11.4841 37.8253 11.5101 37.8461 11.5307 37.8669C11.5775 37.9142 11.5969 37.9673 11.6179 38.0253C11.6286 38.0551 11.6399 38.0862 11.6556 38.1185C11.6759 38.1603 11.7385 38.2073 11.8038 38.2565C11.85 38.2912 11.8975 38.3271 11.9329 38.3631C11.9969 38.4283 11.9997 38.4869 12.0024 38.5413C12.0035 38.565 12.0049 38.5881 12.011 38.6104C12.0135 38.6195 12.0235 38.6289 12.039 38.6387C12.0547 38.7346 12.0732 38.8282 12.0915 38.9194C12.1834 39.377 12.2634 39.7734 11.8691 40.0686C11.7946 40.1245 11.7549 40.2078 11.7339 40.3029C11.5185 40.5217 11.3009 40.7395 11.0817 40.956C10.899 40.9184 10.7343 40.9064 10.5907 40.9218C10.3211 40.9508 10.1983 41.0699 10.0533 41.2104C9.94619 41.3143 9.82681 41.4298 9.62712 41.5294C9.2916 41.6969 8.97949 41.8875 8.71957 42.1558C8.46078 42.423 8.19647 42.7473 8.02986 42.9885C7.93901 43.12 7.71822 43.1857 7.51262 43.2471C7.22342 43.3334 6.96411 43.411 7.13734 43.6497C7.19271 43.726 7.30361 43.8329 7.41132 43.9368C7.48803 44.0107 7.56282 44.0832 7.61555 44.1423C7.56225 44.1879 7.50913 44.2337 7.4556 44.2793C7.24131 44.2913 6.98323 44.3534 7.06829 44.6065C7.01273 44.6532 6.95724 44.7001 6.90264 44.7447C6.78544 44.8433 6.66922 44.9388 6.55202 45.0352C6.51357 45.0666 6.47487 45.0983 6.43602 45.1301C6.43562 45.1304 6.43523 45.1307 6.43483 45.131C6.35664 45.195 6.27788 45.2595 6.19972 45.3225C6.16629 45.3495 6.13287 45.3765 6.09944 45.4036C6.01455 45.4723 5.92916 45.5415 5.8443 45.6091C5.7993 45.6448 5.75419 45.681 5.70875 45.7171C5.63503 45.7758 5.56082 45.8349 5.48663 45.8935C5.36667 45.9883 5.24649 46.0822 5.12579 46.1761C5.10596 46.1914 5.06895 46.1957 5.02155 46.1873C4.97408 46.1787 4.92022 46.1583 4.86947 46.129C4.81871 46.0996 4.77399 46.0631 4.74305 46.0263C4.71225 45.9895 4.69812 45.9557 4.70166 45.931C4.72404 45.7802 4.74686 45.6299 4.77038 45.4793C4.78491 45.3862 4.79938 45.2927 4.81416 45.2C4.82327 45.1429 4.83261 45.086 4.84155 45.0295C4.8586 44.9228 4.87665 44.8144 4.8947 44.7071C4.90174 44.6649 4.90879 44.6226 4.91583 44.5804C4.93229 44.4814 4.94986 44.3813 4.96717 44.2818C4.96728 44.2812 4.96739 44.2806 4.9675 44.28C4.97602 44.2311 4.98447 44.1823 4.9928 44.1339C5.01911 43.9849 5.04521 43.8373 5.07336 43.6873C5.0869 43.6092 5.10253 43.5287 5.11763 43.4485C5.12603 43.4039 5.13433 43.3593 5.14238 43.3155C5.14697 43.2916 5.15178 43.2675 5.15661 43.2433C5.26283 42.6847 5.37332 42.1329 5.49264 41.5805C5.61095 41.0298 5.73591 40.4819 5.86579 39.9386C5.9963 39.3942 6.13229 38.8541 6.27386 38.3167C7.1718 34.9058 8.22122 31.5666 9.51789 28.3684C9.70245 27.9121 9.89922 27.448 10.0956 26.9973C10.2947 26.542 10.4941 26.0986 10.7053 25.6489C10.7692 25.5121 10.8356 25.3724 10.9045 25.2296Z" fill="black"/>
<path d="M45.2025 18.3474C45.9278 19.4079 45.7451 20.9371 46.3863 22.0512C47.1823 23.4345 48.7566 24.3978 49.4143 25.8654C50.0673 27.3248 50.6621 28.8268 51.2068 30.3519C51.7524 31.8785 52.2493 33.4304 52.7156 35.0038C53.1802 36.5741 53.6143 38.166 54.0294 39.7664C54.3114 40.8535 54.5855 41.9464 54.8557 43.0401C54.9746 43.5201 55.0921 43.9992 55.2098 44.4795C55.2974 44.838 55.385 45.1965 55.4726 45.555C55.4846 45.6049 55.457 45.6753 55.3932 45.7524C55.3291 45.8295 55.2347 45.9067 55.127 45.9688C55.0192 46.031 54.9048 46.0742 54.8062 46.0908C54.7079 46.1073 54.6338 46.0955 54.597 46.0598C54.3317 45.8005 54.0663 45.5412 53.801 45.2819C53.5064 44.9938 53.212 44.7064 52.9181 44.418C53.329 44.1086 53.6214 43.8408 53.6892 43.6162C53.7237 43.5016 53.6954 43.38 53.5692 43.3512C53.4559 43.3253 53.2945 43.3497 53.1408 43.3732C52.9801 43.3977 52.8275 43.421 52.7474 43.3838C52.6114 43.3208 52.3655 43.3283 52.1071 43.3362C52.0131 43.339 51.9173 43.342 51.8246 43.3416C51.5454 43.0655 51.2668 42.7891 50.9891 42.5122C50.963 42.3584 50.9339 42.2199 50.8587 42.1316C50.7912 42.0524 50.651 42.0251 50.4882 42.0114C50.4453 41.9685 50.4025 41.9255 50.3596 41.8826C50.0835 41.6052 49.8086 41.3268 49.5345 41.0481C49.5048 40.7242 49.4646 40.39 49.3137 40.0125C49.2486 39.8497 49.2269 39.6647 49.2058 39.4869C49.1748 39.2243 49.1455 38.9773 48.9817 38.8404C48.8723 38.7489 48.8643 38.5908 48.8563 38.4331C48.8456 38.2216 48.835 38.0105 48.5795 37.961C48.4189 37.9299 48.2396 37.9197 48.0733 37.9104C47.8088 37.8955 47.5775 37.8826 47.5085 37.7899C47.3789 37.6156 47.1456 37.5345 46.9399 37.4631C46.6925 37.3773 46.485 37.3053 46.5461 37.1015C46.5554 37.0707 46.5698 37.0331 46.5863 36.9907C46.6731 36.7672 46.8121 36.4096 46.4973 36.1933C46.3852 36.1162 46.1958 36.0925 46.01 36.0694C45.7396 36.0357 45.477 36.003 45.4729 35.808C45.4723 35.7788 45.5099 35.7263 45.5444 35.6784C45.5882 35.6174 45.6264 35.5642 45.5734 35.5764C45.4181 35.6119 45.2351 35.6317 45.0361 35.6534C44.8898 35.6693 44.7348 35.6862 44.5761 35.7108C44.2813 35.3696 43.9896 35.0265 43.7015 34.6811C43.5696 34.5229 43.4383 34.3642 43.3078 34.205C43.4544 34.0004 43.5802 33.805 43.6595 33.6297C43.763 33.4006 43.7221 33.2046 43.6698 32.9518C43.6313 32.7658 43.5866 32.5489 43.5881 32.2656C43.5908 31.7412 43.3069 31.3681 43.035 31.1809C42.9775 31.1413 42.918 31.1024 42.854 31.0612C42.611 30.9046 42.3073 30.7095 41.8447 30.2731C41.407 29.8603 41.1231 29.4582 40.9099 29.1561C40.8011 29.002 40.711 28.8736 40.6279 28.7834C40.4856 28.629 40.3244 28.4317 40.1627 28.2335C39.9096 27.9234 39.6552 27.6112 39.4686 27.4591C39.4021 27.4049 39.3275 27.3509 39.2472 27.2924C39.0247 27.1303 38.7561 26.9345 38.4792 26.6106C38.1886 26.2706 38.1006 26.0067 38.0638 25.701C38.0489 25.5767 38.1666 25.3915 38.2884 25.2004C38.4612 24.9293 38.6416 24.6464 38.46 24.5094C38.4176 24.4774 38.3513 24.4554 38.2819 24.4325C38.1544 24.3904 38.0163 24.3449 37.9975 24.2275C37.991 24.1866 38.0197 24.1306 38.0478 24.0758C38.0788 24.0155 38.109 23.9564 38.0912 23.9195C38.025 23.7816 37.9394 23.6596 37.8632 23.5512C37.7649 23.4115 37.6826 23.2943 37.6783 23.1945C37.6708 23.0167 37.5206 22.9041 37.3683 22.7903C37.2519 22.7034 37.134 22.6158 37.0781 22.4974C36.9185 22.1588 36.5403 21.7849 36.0733 21.4442C35.8966 21.3153 35.9166 21.1081 35.9426 20.8424C35.9587 20.6772 35.9774 20.4891 35.9519 20.2835C35.9375 20.167 35.7984 20.1415 35.6698 20.1178C35.5514 20.096 35.4418 20.0756 35.4461 19.9874C35.4499 19.9094 35.586 19.7829 35.7153 19.6628C35.8591 19.5291 35.9944 19.4034 35.9295 19.3612C35.8949 19.3387 35.7941 19.3453 35.6744 19.3532C35.627 19.3563 35.5768 19.3594 35.5263 19.3611C35.5587 19.3438 35.5873 19.3276 35.6089 19.3152C35.7611 19.2274 35.806 19.1202 35.8499 19.0151C35.8675 18.9731 35.8847 18.9314 35.9087 18.8915C35.9972 18.7445 35.9397 18.5961 35.8736 18.4955C35.8456 18.4529 35.8698 18.3858 35.898 18.3074C35.923 18.2379 35.9513 18.1594 35.949 18.0815C35.9477 18.0371 35.9768 17.9856 36.0012 17.9428C36.0189 17.9118 36.034 17.8854 36.0329 17.8697C36.0319 17.8561 35.9833 17.8726 35.9286 17.8913C35.8892 17.9048 35.8465 17.9194 35.8162 17.9245C35.7436 17.9368 35.7092 17.9187 35.7168 17.8876C35.7203 17.8733 35.7331 17.8562 35.7458 17.8392C35.7606 17.8194 35.7756 17.7995 35.7758 17.784C35.7769 17.7125 35.6974 17.6896 35.6147 17.6658C35.5239 17.6396 35.4294 17.6121 35.4339 17.5182C35.4353 17.4887 35.4538 17.4474 35.4718 17.4073C35.4907 17.3654 35.5088 17.3248 35.506 17.3008C35.4947 17.2033 35.3435 17.1928 35.2045 17.1831C35.112 17.1766 35.025 17.1704 34.9879 17.1394C34.9201 17.0825 34.7672 17.1192 34.6543 17.1464C34.5958 17.1605 34.5478 17.1721 34.5281 17.1666C34.525 17.1529 34.5225 17.1387 34.5206 17.1245C34.5241 17.1083 34.5277 17.0917 34.5186 17.0833C34.518 17.0827 34.5169 17.0822 34.5163 17.0816C34.5107 16.9989 34.5191 16.9097 34.5276 16.8209C34.5466 16.6216 34.5656 16.4245 34.4243 16.3094C34.3939 16.2846 34.3212 16.2834 34.2474 16.2821C34.157 16.2805 34.0645 16.2788 34.0451 16.2339C33.999 16.1268 34.0295 15.9743 34.0596 15.824C34.1049 15.598 34.149 15.3772 33.93 15.324C33.8577 15.3065 33.755 15.308 33.6515 15.3097C33.5939 15.3107 33.5358 15.3117 33.4832 15.3093C33.5576 15.2733 33.6263 15.2374 33.6903 15.2038C33.8223 15.1348 33.9353 15.0757 34.0426 15.0452C34.2963 14.9731 34.6377 14.8603 34.856 14.7249C34.9152 14.6881 34.9833 14.6509 35.052 14.6135C35.2242 14.5197 35.4001 14.4239 35.4486 14.3268C35.4813 14.2614 35.5508 14.1016 35.388 14.1195C35.3526 14.1234 35.2921 14.1482 35.2249 14.1758C35.1042 14.2253 34.9612 14.2838 34.8991 14.2476C34.8887 14.2415 34.8783 14.2343 34.868 14.2266C34.827 14.1958 34.7815 14.1612 34.6816 14.1961C34.5665 14.2363 34.4502 14.3091 34.3146 14.3939C34.1379 14.5044 33.9281 14.6357 33.6455 14.7423C33.5896 14.7634 33.5629 14.7575 33.5426 14.7531C33.5284 14.7499 33.5171 14.7477 33.5014 14.7559C33.4833 14.7654 33.4482 14.7893 33.4037 14.8196C33.247 14.9264 32.973 15.1129 32.9097 15.0313C32.8926 15.0092 32.8904 14.9739 32.8885 14.9422C32.8857 14.8955 32.8833 14.8567 32.8342 14.8797C32.8155 14.8885 32.7956 14.8985 32.7752 14.9092C32.7641 14.8771 32.7531 14.845 32.7421 14.8129C32.7766 14.7436 32.7418 14.6944 32.6981 14.6332C32.6876 14.6183 32.6766 14.6025 32.6658 14.5858C32.6445 14.5222 32.6231 14.4586 32.6021 14.3949C32.5997 14.3361 32.6105 14.2658 32.6425 14.1797C32.7065 14.0073 32.8578 13.8021 33.0058 13.6015C33.0682 13.5169 33.1301 13.4331 33.1845 13.3529C33.202 13.3618 33.2204 13.3683 33.2412 13.3695C33.3837 13.3776 33.6027 13.2874 33.8043 13.2043C33.9384 13.1491 34.0649 13.097 34.1556 13.0792C34.3219 13.0467 34.4814 12.9482 34.5994 12.8754C34.6606 12.8377 34.7108 12.8069 34.7447 12.7957C34.7719 12.7868 34.7901 12.792 34.809 12.7974C34.8254 12.802 34.8425 12.8068 34.8661 12.8025C35.1528 12.7504 35.2759 12.6452 35.4552 12.4921C35.554 12.4077 35.6701 12.3087 35.84 12.196C36.0211 12.0788 36.0775 12.0505 36.1776 12.0521C36.2497 11.9642 36.3218 11.8762 36.3939 11.7883C36.3801 11.7781 36.3165 11.801 36.2124 11.8418C36.0264 11.9146 35.9152 11.8662 35.8282 11.8284C35.788 11.8108 35.7528 11.7957 35.718 11.7958C35.5324 11.7964 35.3517 11.9317 35.1926 12.0508C35.1051 12.1164 35.0241 12.177 34.9525 12.2075C34.9219 12.2206 34.8963 12.242 34.8702 12.2636C34.85 12.2804 34.8295 12.2975 34.8062 12.3112C34.6366 12.4104 34.4831 12.4361 34.3405 12.46C34.2589 12.4736 34.1806 12.4869 34.1051 12.5129C34.0821 12.5208 34.0592 12.5297 34.037 12.5386C34.0045 12.5514 33.9735 12.5636 33.9452 12.571C33.8808 12.5879 33.8252 12.5781 33.7644 12.5673C33.7333 12.5618 33.7007 12.5559 33.6649 12.5534C33.6185 12.5501 33.5465 12.5808 33.4713 12.6128C33.4181 12.6354 33.3632 12.6586 33.3143 12.6712C33.2259 12.6941 33.1737 12.6672 33.1253 12.6423C33.1042 12.6314 33.0835 12.6211 33.0611 12.6152C33.052 12.6128 33.0389 12.6168 33.0226 12.6253C32.9318 12.591 32.8415 12.5602 32.7533 12.5304C32.311 12.3813 31.9278 12.2523 31.8692 11.7632C31.8582 11.6708 31.8058 11.5948 31.734 11.529C31.6521 11.2331 31.5723 10.9358 31.4945 10.6377C31.6183 10.4982 31.7111 10.3616 31.7696 10.2295C31.8793 9.9815 31.8375 9.81562 31.7883 9.61986C31.7519 9.47513 31.7116 9.31398 31.7251 9.09121C31.7479 8.71693 31.7389 8.35134 31.6365 7.99208C31.5345 7.63438 31.3858 7.24331 31.2602 6.97841C31.1917 6.83399 31.2452 6.60992 31.2948 6.40118C31.3647 6.10757 31.4272 5.84421 31.1338 5.87485C31.04 5.88467 30.892 5.92728 30.7482 5.96862C30.6458 5.99806 30.5456 6.0266 30.4681 6.0427C30.4552 5.97374 30.4421 5.90484 30.4295 5.83572C30.5262 5.6441 30.6015 5.38958 30.3398 5.33669C30.327 5.26519 30.3142 5.19371 30.3028 5.12411C30.2761 4.97334 30.2515 4.82493 30.2266 4.67523C30.2187 4.62625 30.2105 4.57686 30.2024 4.52732C30.2024 4.52683 30.2023 4.52634 30.2023 4.52586C30.1859 4.42614 30.1695 4.32568 30.1539 4.22648C30.1473 4.18402 30.1406 4.14156 30.1339 4.0991C30.1168 3.99122 30.0995 3.88264 30.0835 3.77538C30.075 3.71856 30.0662 3.66138 30.0577 3.60395C30.0437 3.5108 30.0296 3.41697 30.016 3.32342C29.9939 3.17214 29.9727 3.02111 29.9517 2.86963C29.9483 2.8448 29.9631 2.81058 29.9941 2.77377C30.0252 2.73692 30.0699 2.70049 30.1206 2.67121C30.1714 2.64192 30.2255 2.62147 30.2728 2.61309C30.32 2.60477 30.3564 2.60945 30.376 2.62487C30.4954 2.71964 30.6142 2.81456 30.7328 2.91022C30.8061 2.96934 30.8799 3.02865 30.9528 3.08779C30.9977 3.12426 31.0423 3.16075 31.0868 3.19677C31.1707 3.26489 31.2555 3.33469 31.3394 3.40398C31.3725 3.43121 31.4055 3.45844 31.4386 3.48566C31.5161 3.54939 31.594 3.61467 31.6715 3.67939C31.6719 3.67978 31.6724 3.68017 31.6728 3.68057C31.711 3.71241 31.749 3.74416 31.7868 3.77556C31.9026 3.87283 32.0174 3.96925 32.1333 4.06863C32.1941 4.1194 32.256 4.17319 32.3179 4.22633C32.3523 4.25592 32.3868 4.2854 32.4207 4.3143C32.4391 4.3302 32.4576 4.34641 32.4761 4.36271C32.9068 4.73401 33.3294 5.1056 33.7482 5.48514C34.1659 5.86294 34.578 6.24512 34.9835 6.62922C35.3897 7.01444 35.7894 7.40227 36.1841 7.79357C38.6891 10.2767 41.0562 12.8551 43.1775 15.5771C43.4805 15.9652 43.784 16.3676 44.076 16.763C44.3708 17.1631 44.6551 17.5574 44.939 17.9653C45.0255 18.0889 45.1133 18.2163 45.2025 18.3474Z" fill="black"/>
<circle cx="14.8341" cy="4.89004" r="2.5" transform="rotate(8.2828 14.8341 4.89004)" fill="black"/>
<path d="M9.65971 6.74292C9.29761 5.89492 9.77135 4.97998 9.87942 4.22155C9.88177 4.20431 9.88406 4.18704 9.88628 4.16975C9.99227 3.23874 10.0028 1.98568 10.8245 1.22986C11.6275 0.4936 12.6657 0.0660104 13.6876 0.00799421C14.3253 -0.0307142 14.9534 0.0726021 15.5042 0.286931C15.8362 0.415462 16.1482 0.584328 16.4272 0.785171C17.1721 1.31858 17.6621 2.07502 17.8531 2.82701C17.9854 3.33839 17.9864 3.84946 17.882 4.29998C17.8365 4.49783 17.7713 4.68394 17.6902 4.85523C17.6296 4.98279 17.5604 5.10284 17.4844 5.21282C17.4737 5.22818 17.4365 5.23932 17.3791 5.24272C17.3217 5.24616 17.2494 5.24168 17.1755 5.2309C17.1016 5.2201 17.0309 5.20393 16.9765 5.18677C16.9223 5.16958 16.8892 5.15283 16.8825 5.13911C16.8341 5.03978 16.7786 4.9473 16.7175 4.86378C16.6497 4.77074 16.5749 4.68817 16.496 4.61648C16.7961 4.55399 17.0213 4.49069 17.1124 4.42392C17.159 4.39017 17.1721 4.34907 17.1106 4.33732C17.0554 4.32676 16.9628 4.33326 16.8751 4.34137C16.7832 4.34981 16.6965 4.36012 16.6624 4.35225C16.6044 4.33866 16.4721 4.35213 16.3351 4.37388C16.2852 4.38173 16.2346 4.39057 16.1866 4.39913C16.1046 4.35624 16.0216 4.32317 15.9393 4.29939C15.9572 4.26368 15.9687 4.23079 15.9482 4.22118C15.9299 4.21253 15.8667 4.23368 15.792 4.26642C15.7795 4.26445 15.767 4.2627 15.7546 4.26116C15.6747 4.25112 15.5973 4.24968 15.5236 4.25628C15.5603 4.1755 15.5858 4.08818 15.5644 4.02425C15.5554 3.9969 15.5636 3.947 15.5683 3.89768C15.576 3.82524 15.5748 3.75356 15.5233 3.77352C15.4893 3.7871 15.4925 3.7388 15.4919 3.68924C15.4922 3.62331 15.4839 3.55452 15.4075 3.64918C15.3599 3.70882 15.3097 3.78533 15.2659 3.85763C15.1959 3.97261 15.1425 4.07685 15.1284 4.08027C15.1012 4.08645 15.0528 4.17299 15.0169 4.25171C14.9726 4.34611 14.9457 4.42847 14.955 4.33541C14.9564 4.3213 14.9583 4.30257 14.9603 4.28125C14.9681 4.20246 14.9735 4.08944 14.9548 4.06087C14.9472 4.04878 14.9359 4.05205 14.9219 4.08008C14.9051 4.11358 14.8854 4.20358 14.871 4.29242C14.8491 4.42174 14.8402 4.54819 14.8326 4.49178C14.8314 4.48335 14.8301 4.44802 14.8284 4.41575C14.8264 4.37473 14.824 4.33894 14.8234 4.37011C14.8217 4.46152 14.8202 4.56261 14.8225 4.67254C14.8242 4.75329 14.828 4.83885 14.834 4.92852C14.8402 4.97904 14.8553 5.0265 14.8769 5.06872C14.8868 5.0881 14.898 5.1064 14.9104 5.12352C14.8719 4.99138 14.8322 4.87388 14.7987 4.78627C14.7547 4.67185 14.7345 4.63929 14.7059 4.5988C14.6845 4.56925 14.6585 4.53515 14.6043 4.46703C14.5017 4.34185 14.4803 4.39917 14.5182 4.47791C14.5258 4.49476 14.5345 4.51238 14.5444 4.53119C14.5827 4.60209 14.6342 4.68945 14.7051 4.77425C14.7734 4.85322 14.7977 4.86705 14.8138 4.87886C14.8224 4.88451 14.8297 4.88856 14.844 4.89599C14.8686 4.90868 14.8916 4.91769 14.9155 4.92442C14.9529 4.93503 14.9921 4.93995 15.0431 4.9484C15.0613 4.95145 15.0838 4.95511 15.1079 4.95814C15.17 4.96623 15.2455 4.96945 15.2955 4.95721C15.2994 4.95628 15.3031 4.95525 15.3066 4.95412C15.3584 4.93677 15.3261 4.91233 15.2536 4.89719C15.2241 4.89064 15.1073 4.88647 14.9867 4.88824C14.8154 4.88954 14.6374 4.90629 14.6909 4.90577C14.7033 4.90537 14.7311 4.90323 14.7601 4.90023C14.8135 4.89499 14.8709 4.88575 14.8457 4.88902C14.8368 4.89023 14.8055 4.89525 14.775 4.90067C14.7413 4.90659 14.7085 4.913 14.7068 4.91393C14.7003 4.91733 14.7086 4.918 14.7159 4.91795C14.7253 4.91803 14.7329 4.91713 14.7068 4.92628C14.6601 4.94297 14.7038 4.93406 14.7466 4.91992C14.7794 4.90951 14.8119 4.89654 14.8061 4.89941C14.7893 4.90818 14.87 4.8787 14.9817 4.79218C15.0236 4.75929 14.96 4.79511 14.8854 4.85098C14.8389 4.8855 14.7878 4.92763 14.7531 4.96161C14.7336 4.98102 14.7832 4.93949 14.8269 4.89885C14.8674 4.86165 14.9033 4.82553 14.8823 4.84521C14.8638 4.8626 14.7871 4.93954 14.7156 5.01393C14.6358 5.09656 14.5626 5.17609 14.5796 5.16315C14.5886 5.15619 14.6273 5.11793 14.672 5.07131C14.6897 5.05287 14.7082 5.03323 14.7265 5.01363C14.7117 5.03002 14.6986 5.04469 14.6886 5.0558C14.6181 5.13417 14.5833 5.17753 14.5507 5.2212C14.5376 5.23861 14.5249 5.25595 14.5101 5.27554C14.4558 5.3476 14.4566 5.36722 14.4663 5.36938C14.4704 5.37034 14.4533 5.39838 14.4342 5.4317C14.4171 5.46125 14.3986 5.49503 14.3911 5.51696C14.3868 5.52944 14.3717 5.55617 14.3593 5.57862C14.3503 5.59486 14.3427 5.60881 14.3417 5.61311C14.3408 5.61681 14.3587 5.59247 14.3788 5.56493C14.3932 5.54511 14.4087 5.5236 14.4192 5.50978C14.4443 5.47676 14.4534 5.46784 14.4478 5.48006C14.4452 5.48571 14.4394 5.49595 14.4336 5.50617C14.4269 5.51807 14.4202 5.53008 14.4187 5.53481C14.4117 5.5565 14.4353 5.53063 14.4587 5.50299C14.4845 5.47272 14.5099 5.44024 14.5002 5.46985C14.4971 5.47919 14.4881 5.49942 14.4796 5.51916C14.4707 5.53981 14.4623 5.55988 14.4614 5.56595C14.4579 5.59067 14.501 5.52818 14.5379 5.46917C14.5626 5.43001 14.5849 5.39263 14.5919 5.38502C14.6051 5.37121 14.6461 5.29046 14.6754 5.23042C14.6907 5.19933 14.703 5.17369 14.707 5.16608C14.7064 5.16858 14.7056 5.17151 14.7047 5.17468C14.7024 5.18093 14.7 5.18741 14.7014 5.18559C14.7015 5.18545 14.7016 5.18511 14.7017 5.18496C14.6954 5.20616 14.6861 5.236 14.6776 5.26606C14.6581 5.33344 14.6455 5.40244 14.6684 5.36916C14.6733 5.36196 14.6873 5.32724 14.7009 5.29173C14.7176 5.24825 14.7336 5.2034 14.7344 5.20724C14.7365 5.21638 14.7244 5.27702 14.716 5.33757C14.7024 5.42843 14.6996 5.51919 14.7296 5.42523C14.7393 5.39419 14.7522 5.34184 14.7641 5.28884C14.7708 5.25931 14.7772 5.22947 14.7827 5.20337C14.7745 5.25218 14.7669 5.29801 14.7597 5.34074C14.7449 5.42881 14.7323 5.5042 14.7191 5.56783C14.6885 5.71829 14.6407 5.92429 14.6136 6.07593C14.6063 6.1171 14.5976 6.16285 14.5888 6.20889C14.5667 6.32442 14.5433 6.44229 14.5459 6.49796C14.5472 6.53541 14.5565 6.62222 14.5842 6.5354C14.5902 6.51648 14.5977 6.47832 14.606 6.4359C14.6099 6.41558 14.614 6.39427 14.6181 6.37355C14.6296 6.31653 14.6413 6.26407 14.6514 6.2496C14.6537 6.24628 14.6561 6.24332 14.6585 6.24059C14.6682 6.22969 14.6789 6.21756 14.6892 6.15597C14.7011 6.08503 14.7093 6.00316 14.7195 5.90777C14.7325 5.78349 14.7497 5.63611 14.7732 5.45876C14.7778 5.42369 14.7803 5.41178 14.7822 5.40274C14.7836 5.39637 14.7846 5.39126 14.7857 5.38068C14.787 5.36853 14.7894 5.34321 14.7925 5.31119C14.8031 5.19817 14.8242 5.00099 14.8264 4.99275C14.8271 4.99055 14.8267 5 14.8265 5.00854C14.8262 5.02113 14.8262 5.03153 14.8286 4.99918C14.8296 4.9869 14.8306 4.9736 14.8316 4.95981C14.8317 4.96373 14.8318 4.96764 14.832 4.97156C14.8301 5.0102 14.8315 5.00697 14.8328 5.00271C14.8331 5.00168 14.8334 5.00073 14.8337 5.00018C14.8344 5.00822 14.8353 5.0162 14.8364 5.02436C14.8371 5.04077 14.8381 5.0675 14.8403 5.10988C14.8445 5.19483 14.8537 5.33484 14.8684 5.47133C14.8745 5.52884 14.8816 5.58585 14.8892 5.63778C14.8881 5.6443 14.8872 5.65197 14.8868 5.66249C14.884 5.73442 14.8876 5.87528 14.8898 6.00501C14.8912 6.09129 14.892 6.17268 14.889 6.22531C14.8834 6.32173 14.8874 6.43408 14.8911 6.51714C14.8929 6.56023 14.8945 6.59553 14.8936 6.61655C14.8929 6.63339 14.8901 6.64138 14.8873 6.64966C14.8848 6.65687 14.8822 6.6644 14.8807 6.67799C14.862 6.84302 14.8682 6.93843 14.8833 7.07722C14.8914 7.15376 14.9018 7.24351 14.9094 7.36545C14.9165 7.49456 14.917 7.53244 14.9008 7.58435C14.9159 7.64786 14.9319 7.71125 14.9489 7.77449C14.9545 7.77012 14.9572 7.73005 14.9601 7.66353C14.9655 7.54475 14.9951 7.4999 15.0174 7.46437C15.0277 7.44794 15.0365 7.43351 15.0406 7.41496C15.0618 7.31626 15.0401 7.18305 15.0238 7.06567C15.0146 7.00107 15.0066 6.94122 15.0051 6.89483C15.0044 6.87498 15.0013 6.85549 14.9983 6.8356C14.9959 6.82023 14.9935 6.8046 14.9922 6.78842C14.9824 6.67096 14.9873 6.58277 14.9897 6.50093C14.9911 6.45406 14.9919 6.40911 14.9898 6.36205C14.9891 6.34771 14.9883 6.33311 14.9874 6.31893C14.9861 6.29823 14.9849 6.2785 14.9844 6.26153C14.9833 6.22289 14.9864 6.19639 14.9893 6.16751C14.9909 6.1527 14.9923 6.13724 14.9932 6.11915C14.9942 6.09569 14.9895 6.04929 14.9844 6.00084C14.9808 5.9666 14.977 5.93134 14.9747 5.90218C14.9706 5.84945 14.9736 5.82976 14.9761 5.81147C14.9772 5.80351 14.9782 5.79561 14.9785 5.78557C14.9786 5.78149 14.9776 5.77352 14.9759 5.76265C14.9782 5.72491 14.9789 5.68651 14.9785 5.649C14.9785 5.46019 14.9434 5.30349 15.007 5.405C15.0196 5.42396 15.0246 5.41752 15.0242 5.39883C15.0594 5.43495 15.0998 5.4695 15.1451 5.50129C15.1981 5.59348 15.2465 5.66884 15.2891 5.72531C15.3695 5.83113 15.4051 5.84304 15.4462 5.85619C15.477 5.86563 15.5112 5.87582 15.5786 5.91826C15.6918 5.98946 15.8062 6.03272 15.8955 6.02402C15.9843 6.01589 16.0723 5.97938 16.1218 5.94081C16.1486 5.92033 16.2451 5.95083 16.3382 5.9729C16.4686 6.00506 16.5924 6.01919 16.4707 5.90864C16.4318 5.8734 16.3599 5.8191 16.2893 5.76751C16.239 5.73075 16.1895 5.69536 16.1531 5.66831C16.1716 5.66454 16.19 5.6603 16.2087 5.6558C16.3136 5.68904 16.4365 5.70381 16.3448 5.61712C16.3644 5.61065 16.3839 5.60375 16.4034 5.59693C16.4447 5.58145 16.4861 5.56492 16.5275 5.54628C16.5412 5.54024 16.5549 5.53388 16.5686 5.52729C16.5688 5.52723 16.5689 5.52717 16.5691 5.52712C16.5967 5.51388 16.6244 5.49981 16.652 5.4851C16.6638 5.4788 16.6756 5.47233 16.6874 5.46569C16.7171 5.44889 16.7468 5.43104 16.7765 5.41248C16.7922 5.40271 16.8078 5.39232 16.8235 5.38197C16.849 5.36506 16.8745 5.34718 16.8998 5.32861C16.9409 5.29835 16.9815 5.26718 17.0217 5.23325C17.0284 5.22774 17.0471 5.22426 17.0746 5.22362C17.1022 5.22299 17.1364 5.2252 17.1712 5.23027C17.206 5.23534 17.2394 5.24304 17.2655 5.25208C17.2915 5.2611 17.3077 5.27069 17.3121 5.27879C17.3383 5.32841 17.363 5.37857 17.3855 5.43133C17.3995 5.46378 17.413 5.49686 17.4256 5.5301C17.4333 5.55051 17.4406 5.5714 17.4478 5.59213C17.4612 5.63135 17.4737 5.67164 17.485 5.71235C17.4895 5.72843 17.4938 5.7446 17.498 5.76084C17.5078 5.79891 17.5166 5.83773 17.5244 5.877C17.5244 5.87723 17.5245 5.87747 17.5245 5.87771C17.5283 5.89706 17.532 5.91649 17.5355 5.93581C17.5457 5.99528 17.554 6.05526 17.5595 6.11715C17.563 6.14941 17.5652 6.18266 17.5669 6.21628C17.5678 6.23498 17.5686 6.25374 17.5693 6.27224C17.5696 6.28229 17.5697 6.29245 17.5698 6.30268C17.5742 6.53905 17.5462 6.78281 17.4823 7.02698C17.4189 7.2705 17.3207 7.51306 17.1896 7.74486C17.0582 7.97708 16.8937 8.19861 16.6985 8.40161C16.0946 9.03847 15.1664 9.48936 14.1547 9.55712C13.1139 9.63867 11.9554 9.29531 11.0538 8.5685C10.7995 8.36606 10.5593 8.12819 10.3493 7.87196C10.1373 7.61281 9.95354 7.33536 9.79686 7.0319C9.74916 6.93993 9.70327 6.84346 9.65971 6.74292Z" fill="black"/>
<path d="M25.3403 46.0632C26.8776 45.9654 28.3571 46.8882 29.8996 46.89C31.8149 46.8923 33.7606 46.0105 35.6802 46.1747C37.5888 46.339 39.5066 46.5748 41.4183 46.8656C43.3321 47.1564 45.2431 47.5021 47.1579 47.8849C49.0687 48.2678 50.9835 48.6877 52.8958 49.1284C54.1946 49.4278 55.4949 49.7368 56.7936 50.0496C57.3637 50.1868 57.9322 50.3245 58.502 50.4627C58.9271 50.5661 59.3522 50.6695 59.7773 50.7728C59.8364 50.7874 59.893 50.8465 59.9348 50.9404C59.9765 51.0344 60.0001 51.1548 60 51.2791C59.9999 51.4036 59.9762 51.5242 59.9343 51.6179C59.8924 51.7113 59.8357 51.7696 59.7766 51.7836C59.3479 51.8837 58.9192 51.9839 58.4905 52.084C58.0144 52.195 57.539 52.3063 57.063 52.4166C56.988 51.9062 56.8852 51.519 56.6924 51.348C56.5941 51.2608 56.4506 51.2245 56.345 51.3193C56.2501 51.4046 56.1787 51.5565 56.1109 51.7014C56.0399 51.8528 55.9725 51.9966 55.8859 52.0474C55.7388 52.1337 55.599 52.3504 55.4521 52.5781C55.3987 52.661 55.3443 52.7454 55.2883 52.8255C54.8338 52.9293 54.3794 53.0322 53.925 53.1343C53.7495 53.08 53.5882 53.036 53.4513 53.057C53.3285 53.0758 53.216 53.1836 53.104 53.3177C53.0337 53.3334 52.9634 53.349 52.893 53.3646C52.439 53.4651 51.9849 53.564 51.5307 53.662C51.1763 53.5258 50.8049 53.3935 50.322 53.3354C50.1139 53.3104 49.9085 53.2367 49.7111 53.166C49.4195 53.0616 49.1452 52.9635 48.9048 53.0369C48.744 53.0859 48.5749 53.0138 48.4063 52.9418C48.1801 52.8453 47.9543 52.749 47.7496 52.9455C47.6209 53.069 47.5027 53.2192 47.3932 53.3586C47.2191 53.5802 47.0669 53.7741 46.9291 53.7875C46.6702 53.8125 46.446 53.974 46.2484 54.1165C46.0107 54.2878 45.8114 54.4316 45.6363 54.2767C45.6098 54.2532 45.5794 54.222 45.5452 54.1865C45.365 53.9995 45.0769 53.7004 44.6631 53.8649C44.5159 53.9234 44.3775 54.0756 44.242 54.2249C44.0448 54.4423 43.8532 54.6533 43.6481 54.5594C43.6174 54.5454 43.5854 54.4865 43.5563 54.4327C43.5192 54.3643 43.4869 54.3046 43.4677 54.3565C43.4115 54.5088 43.3222 54.6772 43.2253 54.8604C43.1541 54.995 43.0786 55.1377 43.009 55.2875C42.4775 55.3721 41.9459 55.4532 41.4142 55.53C41.1706 55.5652 40.9269 55.5995 40.6831 55.6329C40.5585 55.4036 40.431 55.197 40.2963 55.0407C40.1203 54.8365 39.8921 54.7739 39.598 54.6928C39.3816 54.6332 39.1293 54.5634 38.8358 54.4205C38.2925 54.1559 37.7344 54.2153 37.3767 54.3571C37.3011 54.3871 37.225 54.4192 37.1437 54.454C36.8352 54.5861 36.4503 54.7516 35.7192 54.9341C35.0275 55.1067 34.4394 55.1515 33.9975 55.1851C33.772 55.2023 33.5845 55.2161 33.4409 55.243C33.1951 55.289 32.8933 55.33 32.5904 55.371C32.1162 55.435 31.6391 55.4992 31.369 55.5848C31.2729 55.6153 31.172 55.653 31.063 55.6933C30.7611 55.8049 30.3964 55.9396 29.8937 56.0174C29.366 56.0991 29.0389 56.0434 28.6992 55.9223C28.5611 55.8731 28.4392 55.6786 28.3137 55.4776C28.1356 55.1923 27.9498 54.8946 27.6985 54.9835C27.6398 55.0042 27.5772 55.0506 27.5117 55.0992C27.3914 55.1886 27.2613 55.2855 27.1281 55.243C27.0817 55.2282 27.0407 55.1754 27.0006 55.1236C26.9565 55.0666 26.9132 55.0109 26.8642 55.0078C26.6811 54.9963 26.503 55.0094 26.3447 55.0212C26.1405 55.0365 25.9693 55.0491 25.8631 55.003C25.6737 54.9206 25.4667 54.9943 25.257 55.0694C25.0969 55.1267 24.9351 55.185 24.7784 55.1742C24.3308 55.1432 23.7153 55.2837 23.081 55.5178C22.8411 55.6063 22.6378 55.4854 22.3772 55.3301C22.2152 55.2336 22.031 55.1233 21.8021 55.0426C21.6723 54.9968 21.5623 55.1045 21.4606 55.204C21.3668 55.2957 21.2799 55.3804 21.1907 55.3326C21.112 55.2903 21.0622 55.1092 21.0149 54.9372C20.9623 54.7458 20.9128 54.5657 20.83 54.6008C20.7859 54.6195 20.7324 54.7101 20.6686 54.8177C20.6434 54.8603 20.6165 54.9054 20.5881 54.95C20.5895 54.9132 20.5899 54.8804 20.5899 54.8555C20.59 54.6798 20.5055 54.5873 20.4226 54.4967C20.3895 54.4605 20.3565 54.4247 20.3294 54.3839C20.2298 54.2338 20.0411 54.2094 19.8968 54.2164C19.8358 54.2193 19.7805 54.1648 19.716 54.1012C19.6588 54.0448 19.5942 53.9811 19.5119 53.9441C19.4649 53.923 19.4289 53.872 19.399 53.8295C19.3774 53.7987 19.3591 53.7725 19.342 53.7655C19.3273 53.7596 19.3154 53.81 19.302 53.8667C19.2924 53.9075 19.2819 53.9517 19.269 53.9806C19.2383 54.0496 19.1988 54.0704 19.1711 54.0482C19.1583 54.038 19.1482 54.0184 19.1381 53.9989C19.1264 53.9762 19.1148 53.9533 19.0987 53.9453C19.0252 53.9086 18.9536 53.966 18.8792 54.0257C18.7975 54.0913 18.7123 54.1594 18.6174 54.1086C18.5875 54.0925 18.5557 54.0558 18.5249 54.0202C18.4927 53.9829 18.4614 53.947 18.4348 53.9374C18.3266 53.8985 18.225 54.0241 18.1315 54.1396C18.0693 54.2165 18.0106 54.2888 17.9562 54.3054C17.8563 54.3356 17.8027 54.4865 17.7632 54.5978C17.7427 54.6555 17.726 54.7029 17.7085 54.7172C17.6925 54.713 17.6762 54.708 17.6602 54.7026C17.6456 54.6915 17.6305 54.6801 17.6163 54.6837C17.6152 54.684 17.6141 54.6846 17.6131 54.6849C17.5238 54.6484 17.4361 54.5965 17.3489 54.5448C17.1532 54.4286 16.9599 54.3136 16.7555 54.3785C16.7114 54.3924 16.6665 54.4547 16.6209 54.518C16.5649 54.5955 16.5077 54.6748 16.4494 54.6691C16.3105 54.6555 16.1703 54.5528 16.0322 54.4516C15.8245 54.2994 15.6215 54.1507 15.4348 54.3139C15.3732 54.3677 15.3131 54.4574 15.2529 54.5478C15.2193 54.5982 15.1855 54.649 15.1515 54.6935C15.1587 54.611 15.1625 54.5335 15.1661 54.4613C15.1735 54.3125 15.1799 54.1851 15.2126 54.0769C15.2899 53.8211 15.3775 53.4691 15.3678 53.2123C15.3651 53.1427 15.3672 53.065 15.3696 52.9869C15.3754 52.7909 15.3814 52.5906 15.3096 52.5001C15.2612 52.4391 15.1369 52.299 15.0578 52.4489C15.0406 52.4816 15.0302 52.5463 15.0185 52.6183C14.9975 52.7476 14.9726 52.9007 14.8976 52.9363C14.885 52.9423 14.8713 52.9477 14.8571 52.9528C14.8006 52.9729 14.7373 52.9951 14.7136 53.099C14.6864 53.2187 14.6922 53.3559 14.699 53.5157C14.7078 53.724 14.7183 53.9713 14.6596 54.2694C14.648 54.3283 14.6258 54.3485 14.609 54.3638C14.5972 54.3746 14.5882 54.3833 14.5873 54.401C14.5863 54.4214 14.59 54.4638 14.5948 54.5174C14.6118 54.7065 14.6412 55.0371 14.5184 55.0511C14.4852 55.0548 14.4472 55.0391 14.4131 55.0249C14.3629 55.0039 14.3212 54.9867 14.3156 55.0407C14.3135 55.0613 14.312 55.0835 14.3108 55.1065C14.2708 55.1 14.2308 55.0935 14.1908 55.087C14.1396 55.0226 14.0676 55.0281 13.9778 55.0353C13.956 55.037 13.933 55.0386 13.9091 55.0395C13.8302 55.0262 13.7513 55.0129 13.6724 54.9993C13.6099 54.972 13.5433 54.9274 13.4731 54.8567C13.3323 54.7151 13.2098 54.4814 13.0902 54.253C13.0397 54.1567 12.9898 54.0611 12.9391 53.9739C12.9588 53.9632 12.9766 53.9505 12.9904 53.9331C13.0842 53.8138 13.1219 53.579 13.1565 53.3628C13.1796 53.2191 13.2013 53.0835 13.2373 52.996C13.3033 52.8358 13.2966 52.6484 13.2918 52.5099C13.2893 52.438 13.2874 52.3791 13.2962 52.3441C13.3032 52.3161 13.3196 52.3029 13.3364 52.2893C13.3511 52.2774 13.3663 52.265 13.376 52.2424C13.4939 51.9681 13.4585 51.8088 13.4069 51.5771C13.3785 51.4493 13.3453 51.2993 13.33 51.0957C13.3169 50.8803 13.3213 50.8172 13.3831 50.7314C13.335 50.625 13.2868 50.5186 13.2387 50.4122C13.2198 50.4191 13.2055 50.4856 13.1854 50.5962C13.1494 50.7936 13.0324 50.8657 12.9409 50.9221C12.8986 50.9482 12.8617 50.971 12.8409 51.0013C12.7303 51.1623 12.7624 51.3865 12.7908 51.5838C12.8064 51.6924 12.8208 51.7929 12.8096 51.8701C12.8048 51.9032 12.8116 51.936 12.8185 51.9694C12.8238 51.9953 12.8292 52.0216 12.8295 52.0486C12.8309 52.2451 12.7655 52.3909 12.7047 52.5263C12.6699 52.6038 12.6368 52.6782 12.6184 52.7566C12.6128 52.7805 12.6084 52.8048 12.6042 52.8285C12.5982 52.863 12.5922 52.8959 12.583 52.9242C12.5618 52.9884 12.5183 53.0317 12.4706 53.0789C12.4461 53.1031 12.4206 53.1284 12.3964 53.1581C12.3651 53.1966 12.3539 53.2743 12.3419 53.3555C12.3335 53.4129 12.3247 53.4719 12.3085 53.5206C12.2792 53.6086 12.22 53.6404 12.165 53.6699C12.1411 53.6827 12.1179 53.6955 12.0984 53.7119C12.0905 53.7186 12.0867 53.732 12.0858 53.7503C11.9956 53.8118 11.9094 53.8746 11.8256 53.9361C11.4052 54.2446 11.0413 54.512 10.4979 54.3181C10.3951 54.2815 10.2848 54.2888 10.1733 54.3181C9.81665 54.2411 9.4598 54.1615 9.10328 54.0799C9.03271 53.9029 8.94638 53.7543 8.84419 53.6376C8.65226 53.4186 8.45483 53.3718 8.22186 53.3165C8.04962 53.2757 7.85793 53.23 7.63455 53.1069C7.25925 52.9001 6.87392 52.7251 6.43911 52.6341C6.00619 52.5436 5.51055 52.4769 5.15989 52.4532C4.96874 52.4403 4.76795 52.2819 4.58082 52.1345C4.3176 51.9272 4.08141 51.7415 3.93721 52.0109C3.89116 52.097 3.84664 52.2464 3.80331 52.3917C3.77246 52.4951 3.74203 52.5961 3.71222 52.6713C3.63285 52.6479 3.55339 52.6248 3.47395 52.6012C3.33283 52.4217 3.11352 52.2292 2.90152 52.4294C2.81959 52.4047 2.7376 52.3801 2.65845 52.3551C2.48573 52.3029 2.31674 52.25 2.14622 52.1967C2.09056 52.1791 2.03434 52.1614 1.97799 52.1437C1.97746 52.1435 1.97692 52.1433 1.97639 52.1431C1.86296 52.1074 1.74867 52.0714 1.63627 52.0352C1.58813 52.0198 1.53999 52.0044 1.49185 51.9889C1.36951 51.9498 1.24628 51.9105 1.12518 51.8707C1.06108 51.8496 0.996369 51.8287 0.931546 51.8074C0.826381 51.7728 0.720421 51.7381 0.615003 51.7032C0.44452 51.6467 0.274836 51.5896 0.104828 51.532C0.0770242 51.5225 0.0503059 51.4926 0.0306701 51.4473C0.0110414 51.4019 -3.0007e-05 51.3451 6.10806e-08 51.2864C3.85052e-05 51.2278 0.0112035 51.1708 0.030899 51.1256C0.0505814 51.0806 0.0772724 51.0514 0.105056 51.0421C0.275186 50.9861 0.445087 50.9307 0.61569 50.8758C0.721127 50.8419 0.827049 50.8076 0.932232 50.7741C0.997086 50.7534 1.06174 50.733 1.12587 50.7125C1.24698 50.6739 1.37041 50.6354 1.49276 50.5974C1.5409 50.5823 1.58904 50.5673 1.63719 50.5523C1.74988 50.5171 1.86449 50.4822 1.97822 50.4475C1.9789 50.4473 1.97959 50.4471 1.98028 50.4469C2.03623 50.4298 2.09209 50.4127 2.14736 50.3957C2.31795 50.344 2.48704 50.2928 2.65983 50.2422C2.7491 50.2148 2.84213 50.1881 2.93448 50.1611C2.9859 50.1461 3.03722 50.131 3.0876 50.1161C3.11515 50.1081 3.14307 50.1002 3.17115 50.0923C3.81542 49.905 4.45516 49.7247 5.10084 49.5519C5.7441 49.379 6.38851 49.2133 7.03099 49.0541C7.67503 48.8949 8.31794 48.7427 8.96138 48.5965C13.0449 47.6687 17.1447 46.9079 21.2463 46.4318C21.8314 46.3635 22.4317 46.3019 23.0179 46.2466C23.6105 46.1913 24.1909 46.1423 24.7851 46.1004C24.9655 46.0873 25.1505 46.075 25.3403 46.0632Z" fill="black"/>
</svg>
