<svg width="41" height="56" viewBox="0 0 41 56" fill="none" xmlns="http://www.w3.org/2000/svg">
<path d="M20.6082 10.2321C21.2497 10.3192 21.8561 9.38623 22.4987 9.37378C23.2966 9.35824 24.1167 10.2265 24.9147 10.049C25.708 9.87156 26.5044 9.62244 27.2978 9.31843C28.0919 9.01439 28.8844 8.65554 29.678 8.25946C30.4699 7.86341 31.2631 7.43023 32.055 6.97631C32.5929 6.66799 33.1313 6.34999 33.669 6.02818C33.905 5.88713 34.1403 5.74547 34.3762 5.6033C34.5522 5.49699 34.7282 5.39068 34.9042 5.28438C34.9287 5.2694 34.9516 5.20988 34.968 5.11575C34.9844 5.02146 34.9929 4.90094 34.9915 4.77657C34.9902 4.65212 34.979 4.53166 34.9605 4.43829C34.9421 4.34517 34.9178 4.28727 34.8931 4.27367C34.7134 4.17652 34.5337 4.07937 34.354 3.98222C34.1545 3.87447 33.9552 3.7665 33.7557 3.65946C33.73 4.17042 33.6913 4.5583 33.6128 4.73062C33.5728 4.81851 33.5134 4.85577 33.4684 4.76165C33.428 4.67708 33.3966 4.52563 33.3667 4.38129C33.3356 4.23032 33.306 4.08698 33.2693 4.0368C33.2071 3.95158 33.1465 3.73583 33.0829 3.50917C33.0597 3.42667 33.0362 3.3426 33.0119 3.26295C32.8215 3.1623 32.6311 3.06246 32.4407 2.96351C32.3682 3.01908 32.3014 3.06415 32.2441 3.04416C32.1928 3.02623 32.1448 2.91917 32.0967 2.78581C32.0672 2.77066 32.0377 2.75551 32.0083 2.74036C31.818 2.64304 31.6278 2.54733 31.4375 2.45249C31.2913 2.59113 31.138 2.72598 30.9375 2.7874C30.851 2.81387 30.7663 2.88895 30.6848 2.961C30.5644 3.06741 30.4512 3.16743 30.3502 3.09573C30.2828 3.0478 30.2131 3.12111 30.1436 3.19422C30.0504 3.29228 29.9574 3.39016 29.87 3.19511C29.815 3.07246 29.7642 2.92307 29.7171 2.78452C29.6421 2.56408 29.5766 2.37125 29.5191 2.35884C29.4109 2.33557 29.3158 2.17565 29.232 2.03457C29.1311 1.86489 29.0465 1.72251 28.9752 1.87857C28.9644 1.90223 28.9521 1.93366 28.9383 1.96937C28.8652 2.15762 28.7484 2.4587 28.5742 2.29715C28.5122 2.23961 28.453 2.08839 28.3949 1.94001C28.3104 1.724 28.2283 1.51433 28.1439 1.60965C28.1312 1.62392 28.1186 1.68302 28.107 1.73701C28.0923 1.80565 28.0795 1.86557 28.0709 1.81377C28.0459 1.66186 28.0069 1.49415 27.9645 1.31162C27.9334 1.17752 27.9004 1.03536 27.8698 0.886048C27.6475 0.805084 27.4251 0.727683 27.2028 0.654613C27.1009 0.621096 26.999 0.588459 26.8971 0.556713C26.8476 0.78688 26.7967 0.994341 26.7423 1.15156C26.6712 1.35703 26.5768 1.42117 26.4551 1.50426C26.3656 1.5654 26.2613 1.6369 26.1405 1.78186C25.917 2.05017 25.6839 1.99471 25.5333 1.85532C25.5015 1.82584 25.4695 1.79434 25.4352 1.76007C25.3053 1.63007 25.1432 1.46728 24.8366 1.28986C24.5466 1.12203 24.3011 1.08134 24.1166 1.05077C24.0225 1.03516 23.9442 1.02264 23.8841 0.996744C23.7812 0.95243 23.655 0.913536 23.5284 0.874693C23.3302 0.813903 23.1307 0.753016 23.0173 0.669307C22.9769 0.639507 22.9345 0.602508 22.8886 0.562982C22.7616 0.453455 22.6082 0.321304 22.398 0.246966C22.1773 0.168934 22.0416 0.226895 21.9013 0.350273C21.8443 0.400425 21.7957 0.595813 21.7456 0.797677C21.6744 1.08413 21.6002 1.3831 21.4946 1.29602C21.4699 1.27568 21.4433 1.22976 21.4155 1.18156C21.3644 1.09303 21.3092 0.997032 21.2541 1.04044C21.235 1.05558 21.2185 1.10868 21.2023 1.16073C21.1845 1.21799 21.1671 1.27397 21.1467 1.27743C21.0706 1.29026 20.9962 1.27834 20.9301 1.26762C20.8449 1.2538 20.7735 1.24232 20.7297 1.28923C20.6517 1.37291 20.5647 1.30061 20.4765 1.22702C20.4092 1.1708 20.3411 1.11363 20.276 1.12554C20.0899 1.15964 19.8319 1.02341 19.5651 0.793685C19.4642 0.706832 19.3808 0.829147 19.2739 0.986198C19.2075 1.08388 19.1319 1.19542 19.0374 1.27774C18.9838 1.32438 18.9369 1.21744 18.8934 1.11865C18.8534 1.02764 18.8162 0.943495 18.7796 0.991974C18.7473 1.03483 18.7285 1.21626 18.7106 1.38858C18.6908 1.58034 18.6721 1.7607 18.6372 1.72615C18.6186 1.70776 18.5954 1.61756 18.5676 1.51039C18.5567 1.468 18.545 1.42314 18.5327 1.37874C18.5337 1.41546 18.5342 1.4483 18.5344 1.47316C18.5364 1.64884 18.5022 1.74194 18.4686 1.83315C18.4552 1.86957 18.4418 1.90554 18.431 1.9465C18.3911 2.09729 18.3127 2.12301 18.2526 2.11704C18.2271 2.11456 18.2047 2.16941 18.1785 2.23343C18.1552 2.29027 18.129 2.35443 18.0951 2.39203C18.0758 2.41346 18.0613 2.46463 18.0494 2.50734C18.0407 2.53826 18.0333 2.56468 18.0263 2.57171C18.0202 2.57775 18.0147 2.52747 18.0085 2.47085C18.0041 2.43009 17.9992 2.38594 17.9936 2.35715C17.98 2.28838 17.9633 2.26785 17.952 2.29021C17.9468 2.30054 17.9428 2.32021 17.9388 2.33978C17.9342 2.36258 17.9296 2.38555 17.923 2.39367C17.8927 2.43086 17.8623 2.37391 17.8307 2.31477C17.7959 2.24976 17.7597 2.18223 17.7207 2.23372C17.7085 2.24994 17.6956 2.28687 17.6831 2.3227C17.6701 2.36021 17.6575 2.3964 17.6465 2.40618C17.6018 2.44583 17.5581 2.32092 17.5179 2.20602C17.4912 2.1296 17.466 2.05772 17.4431 2.04152C17.4012 2.01193 17.3773 1.86149 17.3596 1.75043C17.3504 1.69288 17.343 1.64561 17.3355 1.6314C17.3289 1.63571 17.3221 1.64081 17.3156 1.64635C17.3096 1.65754 17.3034 1.66909 17.2974 1.66554C17.297 1.66527 17.2966 1.66463 17.2961 1.66435C17.2593 1.70152 17.2233 1.75398 17.1876 1.8063C17.1073 1.92381 17.028 2.04012 16.9421 1.97672C16.9236 1.96306 16.9042 1.90109 16.8845 1.83814C16.8604 1.76102 16.8357 1.68213 16.8115 1.68824C16.7538 1.7028 16.6965 1.80647 16.64 1.90862C16.5551 2.06226 16.4721 2.2123 16.3926 2.05044C16.3664 1.99702 16.3404 1.90775 16.3143 1.81776C16.2998 1.76761 16.2851 1.71703 16.2705 1.67285C16.2744 1.75528 16.2768 1.83268 16.2791 1.90487C16.2838 2.05365 16.2878 2.18099 16.3026 2.28897C16.3375 2.54416 16.3778 2.89558 16.3765 3.15239C16.3762 3.22209 16.3779 3.29967 16.3797 3.37779C16.3843 3.57379 16.3889 3.77394 16.36 3.86498C16.3405 3.92633 16.2902 4.06728 16.2556 3.9179C16.2481 3.88536 16.2431 3.82067 16.2374 3.74881C16.2273 3.61967 16.2152 3.46674 16.1836 3.43163C16.1783 3.42572 16.1726 3.4204 16.1666 3.41546C16.1428 3.39575 16.1162 3.374 16.1052 3.27024C16.0926 3.1507 16.0935 3.01355 16.0946 2.85362C16.0961 2.64535 16.0978 2.39795 16.0701 2.10028C16.0646 2.04143 16.0552 2.0214 16.048 2.0062C16.043 1.99549 16.0392 1.98691 16.0386 1.96919C16.0379 1.94883 16.0391 1.90642 16.0405 1.85277C16.0455 1.66349 16.0542 1.33278 16.0029 1.31962C15.989 1.31609 15.9733 1.33209 15.9593 1.34654C15.9386 1.36784 15.9214 1.38542 15.9185 1.33138C15.9174 1.31087 15.9166 1.28865 15.9158 1.26561C15.8992 1.27239 15.8826 1.27917 15.866 1.28594C15.8454 1.35076 15.8153 1.34574 15.7778 1.3392C15.7687 1.33761 15.7591 1.33617 15.7492 1.33541C15.7165 1.3493 15.6837 1.36311 15.651 1.37726C15.6253 1.40503 15.598 1.45003 15.5695 1.5212C15.5124 1.66383 15.4639 1.89831 15.4165 2.12759C15.3965 2.2242 15.3767 2.3201 15.3565 2.40766C15.3649 2.41825 15.3724 2.43078 15.3783 2.44813C15.4187 2.56681 15.4369 2.80134 15.4537 3.01722C15.4648 3.16081 15.4754 3.2962 15.4913 3.38341C15.5205 3.54318 15.5198 3.73061 15.5192 3.8692C15.519 3.94109 15.5188 3.99998 15.5228 4.03488C15.5261 4.06284 15.533 4.0759 15.5402 4.08943C15.5465 4.10122 15.5529 4.11356 15.5572 4.13607C15.6093 4.40957 15.5962 4.56903 15.5772 4.80113C15.5668 4.92914 15.5545 5.07935 15.5504 5.28296C15.5472 5.49851 15.5498 5.56151 15.5764 5.64691C15.5575 5.75365 15.5386 5.8604 15.5197 5.96714C15.5118 5.96036 15.5051 5.89393 15.4955 5.78352C15.4784 5.58636 15.4289 5.51503 15.3902 5.45928C15.3722 5.43347 15.3566 5.41089 15.3476 5.38077C15.2998 5.22056 15.3108 4.99616 15.3205 4.7987C15.3258 4.69001 15.3307 4.58942 15.3252 4.51223C15.3229 4.47921 15.3254 4.44636 15.3279 4.41286C15.3298 4.38697 15.3318 4.36063 15.3316 4.33359C15.3301 4.13714 15.3012 3.99178 15.2745 3.85681C15.2592 3.77952 15.2445 3.70536 15.236 3.62712C15.2335 3.60328 15.2314 3.57895 15.2294 3.55533C15.2265 3.52084 15.2236 3.48797 15.2195 3.45983C15.21 3.39575 15.1914 3.35274 15.171 3.30586C15.1605 3.28183 15.1496 3.25674 15.1392 3.22718C15.1258 3.18886 15.1202 3.11124 15.1144 3.03017C15.1103 2.97287 15.106 2.91385 15.0987 2.8653C15.0856 2.77749 15.0605 2.74613 15.0373 2.71703C15.0272 2.70435 15.0174 2.69176 15.0091 2.67545C15.0057 2.66881 15.004 2.65548 15.0035 2.63716C14.9652 2.57629 14.9286 2.51408 14.893 2.45314C14.7146 2.14764 14.5601 1.88276 14.3358 2.08035C14.2934 2.11771 14.2473 2.11115 14.2006 2.08259C14.0528 2.16212 13.905 2.24415 13.7574 2.32821C13.7299 2.5057 13.6955 2.65495 13.6542 2.7723C13.5766 2.99264 13.4948 3.04081 13.3984 3.09767C13.3271 3.13972 13.2477 3.18666 13.1559 3.31131C13.0018 3.52076 12.8432 3.69841 12.663 3.79235C12.4836 3.88587 12.2778 3.95604 12.132 3.98214C12.0525 3.99639 11.9706 4.15612 11.8942 4.30478C11.7868 4.51388 11.6904 4.7013 11.6274 4.4329C11.6073 4.34713 11.5871 4.19797 11.5675 4.05306C11.5535 3.94986 11.5398 3.84908 11.5266 3.77406C11.4937 3.79797 11.4609 3.82163 11.428 3.84577C11.3712 4.02627 11.2819 4.22027 11.1914 4.02153C11.1575 4.04684 11.1237 4.07202 11.091 4.09754C11.0196 4.15096 10.9497 4.20503 10.8793 4.25948C10.8563 4.27749 10.833 4.29552 10.8097 4.31365C10.8095 4.31386 10.8093 4.31407 10.8091 4.31427C10.7622 4.35077 10.715 4.38751 10.6685 4.42446C10.6487 4.44023 10.6288 4.45599 10.6089 4.47176C10.5583 4.51178 10.5074 4.55194 10.4574 4.59249C10.4309 4.61405 10.4042 4.63546 10.3774 4.65719C10.334 4.69244 10.2902 4.72789 10.2466 4.76356C10.1762 4.82122 10.1062 4.87953 10.0359 4.93828C10.0245 4.948 10.0137 4.97806 10.006 5.02348C9.99828 5.06898 9.99428 5.12592 9.99492 5.18453C9.99557 5.24316 10.0008 5.30009 10.0095 5.34515C10.0182 5.39005 10.0296 5.41902 10.0413 5.4281C10.1128 5.48293 10.1842 5.53715 10.2558 5.59089C10.3001 5.62411 10.3446 5.65763 10.3888 5.69044C10.4161 5.71067 10.4432 5.73055 10.4701 5.75063C10.521 5.78837 10.5729 5.82606 10.6242 5.86323C10.6445 5.87793 10.6647 5.89262 10.6849 5.90732C10.7322 5.94175 10.7803 5.9758 10.8281 6.00974C10.8284 6.00994 10.8287 6.01014 10.829 6.01034C10.8525 6.02704 10.8759 6.04377 10.8991 6.06036C10.9707 6.11087 11.0417 6.16091 11.1143 6.21034C11.1518 6.23704 11.1908 6.2631 11.2296 6.28946C11.2511 6.30414 11.2727 6.31889 11.2938 6.33349C11.3054 6.34125 11.3171 6.34894 11.3289 6.35667C11.5993 6.53952 11.8678 6.7153 12.1387 6.8837C12.4085 7.05211 12.6787 7.21339 12.9481 7.36808C13.2182 7.52277 13.4876 7.6706 13.7573 7.81225C15.4685 8.71176 17.1847 9.44412 18.8986 9.89181C19.1431 9.95612 19.3938 10.0136 19.6386 10.0648C19.8861 10.1159 20.1285 10.1609 20.3764 10.1987C20.4518 10.2106 20.529 10.2216 20.6082 10.2321Z" fill="black"/>
<path d="M40.2401 33.1764C40.3241 31.8938 39.3881 30.6763 39.3725 29.391C39.353 27.7951 40.2172 26.1591 40.0358 24.5622C39.8545 22.9745 39.6014 21.3804 39.2935 19.7922C38.9856 18.2023 38.6229 16.6156 38.2229 15.0264C37.823 13.4406 37.3859 11.8519 36.9281 10.2658C36.6171 9.18847 36.2965 8.11009 35.972 7.03309C35.8298 6.5603 35.687 6.08893 35.5437 5.6164C35.4365 5.26388 35.3293 4.91136 35.2222 4.55884C35.2071 4.50984 35.1474 4.46364 35.0532 4.43041C34.9589 4.39719 34.8383 4.37956 34.7139 4.38168C34.5895 4.38382 34.4691 4.40558 34.3758 4.44204C34.2828 4.47848 34.225 4.52673 34.2115 4.5762C34.1153 4.93509 34.019 5.29398 33.9227 5.65287C33.816 6.05149 33.709 6.44943 33.6029 6.84793C34.114 6.9019 34.5021 6.9812 34.6748 7.13896C34.7629 7.21949 34.8004 7.33841 34.7065 7.428C34.6221 7.50846 34.4709 7.57052 34.3267 7.62946C34.1758 7.6911 34.0327 7.74961 33.9827 7.82269C33.8977 7.9467 33.6823 8.0668 33.456 8.19292C33.3736 8.23882 33.2896 8.28557 33.2101 8.33359C33.1104 8.71396 33.0115 9.09436 32.9135 9.47467C32.9694 9.62002 33.0148 9.75375 32.9951 9.86818C32.9774 9.97082 32.8706 10.0663 32.7375 10.1618C32.7225 10.2207 32.7075 10.2796 32.6925 10.3385C32.5961 10.7184 32.5013 11.0985 32.4074 11.4786C32.5468 11.7716 32.6824 12.0789 32.7448 12.4804C32.7717 12.6534 32.8472 12.8233 32.9196 12.9866C33.0266 13.2278 33.1272 13.4548 33.056 13.6564C33.0084 13.7911 33.082 13.9308 33.1555 14.0702C33.254 14.2571 33.3523 14.4436 33.1577 14.6174C33.0353 14.7267 32.8862 14.8277 32.7479 14.9212C32.5278 15.0701 32.3353 15.2001 32.3232 15.3152C32.3005 15.5313 32.141 15.7208 32.0004 15.8878C31.8312 16.0887 31.6892 16.2572 31.8456 16.4005C31.8693 16.4222 31.9008 16.447 31.9366 16.4749C32.1252 16.6219 32.4269 16.8571 32.2662 17.2046C32.2089 17.3283 32.058 17.4461 31.9099 17.5615C31.6943 17.7295 31.4851 17.8926 31.5808 18.062C31.5951 18.0873 31.6543 18.113 31.7083 18.1364C31.7771 18.1661 31.837 18.1921 31.7853 18.2089C31.6335 18.2583 31.466 18.3355 31.2837 18.4193C31.1497 18.4808 31.0077 18.5461 30.8586 18.6066C30.7787 19.0509 30.7024 19.4952 30.6304 19.9396C30.5974 20.1431 30.5653 20.3468 30.534 20.5505C30.7644 20.6505 30.9721 20.7533 31.1296 20.8629C31.3354 21.0062 31.4 21.1953 31.4837 21.4391C31.5453 21.6184 31.6173 21.8274 31.7629 22.0696C32.0323 22.518 31.978 22.9841 31.8393 23.2844C31.81 23.348 31.7786 23.4119 31.7445 23.4802C31.6152 23.7395 31.4532 24.063 31.2773 24.6752C31.1109 25.2544 31.0714 25.7453 31.0418 26.114C31.0266 26.3023 31.0145 26.4587 30.9889 26.5788C30.9451 26.7844 30.9068 27.0366 30.8686 27.2897C30.8088 27.6858 30.7489 28.0845 30.6657 28.3109C30.6361 28.3916 30.5993 28.4763 30.56 28.5677C30.4511 28.8212 30.3197 29.1273 30.2464 29.5475C30.1695 29.9886 30.2281 30.2602 30.3522 30.5413C30.4026 30.6556 30.5982 30.7539 30.8003 30.8551C31.0871 30.9988 31.3865 31.1487 31.2999 31.3596C31.2797 31.4088 31.2339 31.4618 31.1858 31.5171C31.0976 31.6188 31.0018 31.7289 31.0455 31.8392C31.0607 31.8776 31.1139 31.9109 31.1661 31.9434C31.2234 31.9792 31.2795 32.0144 31.283 32.0552C31.2962 32.2075 31.2847 32.3562 31.2743 32.4883C31.2609 32.6587 31.2498 32.8016 31.2969 32.8893C31.3809 33.0457 31.3091 33.2195 31.2359 33.3954C31.18 33.5299 31.1232 33.6656 31.1354 33.796C31.1704 34.1684 31.0355 34.6837 30.8071 35.2161C30.7207 35.4175 30.8434 35.585 31.001 35.7995C31.099 35.9329 31.2109 36.0845 31.2937 36.274C31.3406 36.3814 31.2339 36.4748 31.1353 36.5612C31.0445 36.6409 30.9606 36.7147 31.0092 36.7882C31.0523 36.8531 31.2338 36.8916 31.4062 36.9281C31.598 36.9688 31.7785 37.007 31.7441 37.0766C31.7258 37.1137 31.6357 37.1598 31.5287 37.2147C31.4863 37.2364 31.4415 37.2596 31.3972 37.284C31.4339 37.2822 31.4668 37.2814 31.4916 37.2809C31.6673 37.2779 31.7605 37.3468 31.8519 37.4144C31.8884 37.4414 31.9244 37.4683 31.9655 37.4901C32.1164 37.5707 32.1425 37.7275 32.1369 37.8478C32.1345 37.8987 32.1895 37.9439 32.2536 37.9966C32.3106 38.0434 32.3749 38.0961 32.4126 38.1641C32.4341 38.2029 32.4854 38.2321 32.5282 38.2562C32.5591 38.2737 32.5856 38.2886 32.5926 38.3026C32.5987 38.3148 32.5485 38.3256 32.4919 38.3377C32.4511 38.3464 32.407 38.3559 32.3782 38.3671C32.3095 38.3938 32.2891 38.4271 32.3115 38.4498C32.3219 38.4603 32.3415 38.4684 32.3611 38.4765C32.384 38.4858 32.407 38.4951 32.4151 38.5084C32.4524 38.5691 32.3956 38.6297 32.3367 38.6926C32.2718 38.7618 32.2045 38.834 32.2562 38.9122C32.2724 38.9368 32.3094 38.9627 32.3453 38.9878C32.3829 39.014 32.4191 39.0395 32.429 39.0615C32.4688 39.151 32.3442 39.2378 32.2295 39.3176C32.1532 39.3707 32.0814 39.4208 32.0653 39.4664C32.0359 39.5501 31.8856 39.5973 31.7747 39.6321C31.7172 39.6501 31.6699 39.6648 31.6557 39.6796C31.6601 39.693 31.6652 39.7065 31.6708 39.7196C31.682 39.7317 31.6936 39.7441 31.6901 39.756C31.6898 39.7569 31.6892 39.7577 31.6889 39.7586C31.7262 39.8324 31.7789 39.9047 31.8314 39.9764C31.9493 40.1376 32.066 40.2968 32.003 40.4682C31.9894 40.5051 31.9276 40.5436 31.8647 40.5827C31.7877 40.6305 31.7089 40.6795 31.7152 40.728C31.73 40.8435 31.834 40.9587 31.9364 41.0721C32.0904 41.2427 32.2409 41.4094 32.0794 41.5676C32.0261 41.6198 31.937 41.6714 31.8471 41.7231C31.797 41.7519 31.7465 41.7809 31.7024 41.81C31.7848 41.8026 31.8622 41.7981 31.9344 41.7939C32.0832 41.7853 32.2105 41.7779 32.3184 41.7488C32.5734 41.6802 32.9246 41.6013 33.1814 41.6052C33.2511 41.6062 33.3287 41.6031 33.4068 41.5999C33.6028 41.5918 33.8029 41.5835 33.8941 41.6418C33.9555 41.6811 34.0967 41.7823 33.9475 41.8507C33.915 41.8656 33.8503 41.8754 33.7785 41.8864C33.6494 41.906 33.4966 41.9293 33.4616 41.9923C33.4557 42.0029 33.4504 42.0145 33.4455 42.0264C33.4259 42.0738 33.4043 42.1269 33.3006 42.1484C33.1811 42.1731 33.044 42.1705 32.884 42.1675C32.6758 42.1636 32.4284 42.159 32.1308 42.2128C32.072 42.2235 32.052 42.2423 32.0369 42.2565C32.0262 42.2666 32.0176 42.2742 31.9999 42.2753C31.9796 42.2765 31.9371 42.274 31.8835 42.2709C31.6942 42.26 31.3634 42.2409 31.3505 42.3435C31.3471 42.3712 31.3631 42.4026 31.3777 42.4308C31.3991 42.4723 31.4167 42.5067 31.3627 42.5123C31.3422 42.5144 31.32 42.516 31.297 42.5174C31.3038 42.5506 31.3107 42.5838 31.3175 42.617C31.3825 42.6587 31.3776 42.7187 31.3712 42.7937C31.3697 42.8119 31.3683 42.8311 31.3676 42.851C31.3816 42.9165 31.3956 42.982 31.4099 43.0475C31.4378 43.0992 31.4829 43.1539 31.5542 43.2113C31.6971 43.3262 31.9319 43.4244 32.1614 43.5203C32.2581 43.5608 32.3541 43.6008 32.4417 43.6416C32.4523 43.625 32.4648 43.6099 32.4821 43.5982C32.6006 43.518 32.835 43.4827 33.0508 43.4502C33.1943 43.4287 33.3297 43.4083 33.4168 43.3768C33.5764 43.3192 33.7638 43.3216 33.9024 43.3234C33.9743 43.3243 34.0332 43.3249 34.0681 43.317C34.096 43.3106 34.1091 43.2968 34.1225 43.2825C34.1343 43.2701 34.1466 43.2572 34.1691 43.2487C34.4423 43.1459 34.6019 43.1728 34.834 43.2119C34.9621 43.2335 35.1124 43.2587 35.316 43.268C35.5316 43.2754 35.5945 43.2706 35.6798 43.2177C35.7866 43.2561 35.8935 43.2944 36.0003 43.3328C35.9936 43.3486 35.9272 43.3617 35.8168 43.3803C35.6197 43.4135 35.5487 43.5122 35.4931 43.5894C35.4674 43.6251 35.4449 43.6562 35.4148 43.674C35.2548 43.7689 35.0304 43.7458 34.8329 43.7255C34.7242 43.7143 34.6236 43.704 34.5464 43.7146C34.5134 43.7191 34.4805 43.714 34.447 43.7088C34.4211 43.7048 34.3948 43.7007 34.3677 43.701C34.1713 43.703 34.0261 43.76 33.8912 43.8128C33.814 43.8431 33.7399 43.872 33.6617 43.8886C33.6379 43.8936 33.6136 43.8977 33.59 43.9016C33.5555 43.9072 33.5227 43.9127 33.4945 43.9209C33.4305 43.9396 33.3876 43.9766 33.3408 44.0171C33.3168 44.0379 33.2918 44.0596 33.2623 44.0802C33.224 44.107 33.1465 44.1176 33.0654 44.1289C33.0081 44.1369 32.9491 44.1452 32.9006 44.1595C32.8129 44.1854 32.7816 44.2353 32.7527 44.2816C32.74 44.3017 32.7275 44.3212 32.7112 44.3378C32.7046 44.3445 32.6913 44.3479 32.673 44.3489C32.6123 44.4251 32.5503 44.4979 32.4895 44.5688C32.1849 44.9243 31.9208 45.2319 32.1194 45.6816C32.157 45.7666 32.1507 45.8586 32.1224 45.952C32.2026 46.2479 32.2854 46.5439 32.3701 46.8397C32.5478 46.8955 32.6972 46.965 32.8147 47.0482C33.0354 47.2045 33.084 47.3683 33.1414 47.5615C33.1838 47.7043 33.2311 47.8633 33.3562 48.0474C33.5664 48.3567 33.7448 48.6749 33.8396 49.0357C33.934 49.3949 34.0052 49.8068 34.032 50.0986C34.0467 50.2577 34.2068 50.4224 34.3558 50.5759C34.5655 50.7918 34.7533 50.9855 34.4853 51.1101C34.3996 51.1499 34.2505 51.1895 34.1057 51.228C34.0026 51.2554 33.9019 51.2825 33.8269 51.3086C33.851 51.3743 33.8748 51.4401 33.8991 51.5059C34.0799 51.6206 34.2743 51.8001 34.0761 51.9801C34.1015 52.048 34.1269 52.1159 34.1526 52.1814C34.2063 52.3245 34.2607 52.4644 34.3155 52.6056C34.3337 52.6517 34.3518 52.6983 34.37 52.7449C34.3703 52.7454 34.3705 52.7458 34.3707 52.7462C34.4074 52.8402 34.4444 52.9348 34.4815 53.0279C34.4974 53.0677 34.5133 53.1076 34.5291 53.1474C34.5694 53.2487 34.6098 53.3508 34.6506 53.451C34.6723 53.5041 34.6938 53.5577 34.7157 53.6113C34.7512 53.6984 34.7868 53.7861 34.8227 53.8734C34.8807 54.0145 34.9394 54.1549 34.9985 54.2956C35.0082 54.3186 35.0383 54.3404 35.0838 54.356C35.1293 54.3716 35.1863 54.3799 35.2449 54.3789C35.3035 54.3779 35.3604 54.3676 35.4055 54.3505C35.4503 54.3333 35.4792 54.3106 35.4882 54.2873C35.5427 54.1446 35.5966 54.0021 35.65 53.859C35.683 53.7706 35.7163 53.6818 35.7489 53.5936C35.769 53.5392 35.7887 53.485 35.8087 53.4312C35.8461 53.3296 35.8836 53.2261 35.9205 53.1236C35.9351 53.0832 35.9497 53.0428 35.9643 53.0025C35.9985 52.908 36.0323 52.8119 36.066 52.7165C36.0662 52.716 36.0664 52.7154 36.0666 52.7148C36.0832 52.6679 36.0998 52.6211 36.1163 52.5747C36.1664 52.4317 36.2161 52.29 36.2652 52.1452C36.2917 52.0703 36.3176 51.9924 36.3437 51.915C36.3583 51.8719 36.373 51.8288 36.3874 51.7866C36.3951 51.7635 36.4028 51.7401 36.4104 51.7166C36.592 51.1766 36.7664 50.6405 36.9335 50.0996C37.1006 49.5607 37.2605 49.021 37.4139 48.483C37.5672 47.9437 37.7137 47.4054 37.854 46.8668C38.7451 43.4487 39.469 40.0197 39.9082 36.594C39.9713 36.1054 40.0276 35.6041 40.0775 35.1147C40.1275 34.62 40.1713 34.1355 40.2079 33.6397C40.2194 33.4891 40.23 33.3348 40.2401 33.1764Z" fill="black"/>
<path d="M8.99882 12.1725C7.93358 12.608 6.79169 12.3617 5.75055 12.2314C5.72741 12.2285 5.70424 12.2257 5.68105 12.2228C4.40713 12.0759 2.93827 11.7905 1.93674 10.8094C0.940695 9.83783 0.283979 8.55167 0.0767483 7.22268C-0.0552504 6.39317 -0.0143313 5.55042 0.178982 4.76802C0.29483 4.29666 0.46552 3.84194 0.684882 3.41884C1.26617 2.292 2.19474 1.40742 3.24146 0.890806C3.95217 0.537389 4.71783 0.347845 5.46311 0.322084C5.79026 0.310427 6.11303 0.329746 6.42667 0.377599C6.66019 0.413364 6.89005 0.464962 7.1111 0.530761C7.14195 0.539991 7.16938 0.567107 7.18665 0.607121C7.20395 0.647202 7.20977 0.696574 7.20319 0.745884C7.19659 0.795233 7.17815 0.841428 7.1526 0.875974C7.12703 0.910414 7.09643 0.93023 7.06682 0.932636C6.85267 0.949493 6.64101 0.980843 6.4366 1.02605C6.20897 1.07618 5.98883 1.14341 5.77823 1.22557C5.70824 1.03072 5.62867 0.887377 5.51775 0.841389C5.46134 0.817872 5.38494 0.821009 5.34198 0.871315C5.30335 0.916446 5.28451 0.984672 5.26779 1.04959C5.25033 1.11752 5.23536 1.18186 5.2015 1.21356C5.14396 1.26746 5.10766 1.37105 5.07509 1.47953C5.0632 1.51904 5.05171 1.55928 5.03956 1.59813C4.86326 1.70939 4.69769 1.83187 4.54371 1.96368C4.46612 1.98171 4.39562 2.00311 4.34879 2.04198C4.30674 2.07687 4.28839 2.14014 4.27839 2.21144C4.25678 2.23346 4.23548 2.25566 4.21447 2.27808C4.07878 2.42257 3.95525 2.57456 3.84474 2.73224C3.70068 2.79333 3.55126 2.86999 3.40128 3.01455C3.33682 3.07689 3.25978 3.12856 3.18645 3.18173C3.07847 3.25967 2.9785 3.34145 2.94898 3.4476C2.92935 3.51833 2.8681 3.56776 2.80736 3.62069C2.72636 3.69064 2.64609 3.76804 2.68086 3.88321C2.70276 3.95545 2.73816 4.02642 2.77247 4.09052C2.82714 4.19241 2.87875 4.27708 2.86537 4.33207C2.84034 4.43522 2.87609 4.54241 2.9111 4.63198C2.95295 4.74103 2.993 4.82593 2.91884 4.88055C2.9076 4.88887 2.89305 4.89815 2.87658 4.90878C2.81575 4.94779 2.72937 5.00638 2.69939 5.10229C2.68672 5.1428 2.68438 5.18929 2.69902 5.24113C2.71653 5.3029 2.77311 5.36381 2.82993 5.41984C2.91267 5.5018 2.99543 5.574 2.95848 5.65091C2.95296 5.66247 2.92957 5.6748 2.90826 5.68629C2.88116 5.70087 2.85761 5.7142 2.87858 5.72101C2.94006 5.74107 3.00853 5.7724 3.08359 5.80364C3.13872 5.82667 3.1974 5.84949 3.25898 5.86909C3.30661 6.04946 3.36777 6.22304 3.44057 6.38839C3.4739 6.46402 3.5098 6.53834 3.54791 6.61059C3.4739 6.67872 3.41075 6.74818 3.36923 6.81513C3.31514 6.90291 3.32307 6.99061 3.33957 7.10325C3.35187 7.18628 3.36871 7.28283 3.37414 7.40872C3.38433 7.6437 3.53567 7.81692 3.66543 7.88876C3.69292 7.9043 3.72123 7.91905 3.75177 7.93414C3.86806 7.99019 4.01157 8.05968 4.25647 8.18346C4.4883 8.29871 4.66716 8.39942 4.80616 8.46922C4.87711 8.50474 4.93666 8.53162 4.98579 8.54578C5.06954 8.56993 5.17016 8.60097 5.27168 8.62629C5.43057 8.66666 5.59243 8.69135 5.68853 8.68241C5.72264 8.67934 5.75892 8.67338 5.79778 8.66638C5.89761 8.64815 6.01306 8.62258 6.16016 8.61024C6.17161 8.60928 6.18321 8.60838 6.19499 8.60755C6.36572 8.59467 6.46436 8.61933 6.57353 8.668C6.61742 8.68752 6.65836 8.76436 6.70434 8.84286C6.76865 8.9542 6.84626 9.06863 6.9326 9.02359C6.95255 9.01307 6.97251 8.99205 6.99303 8.96978C7.03082 8.92887 7.06911 8.88404 7.11722 8.89309C7.13409 8.89623 7.15182 8.91453 7.16948 8.93234C7.18888 8.95193 7.20828 8.97091 7.22569 8.96871C7.29059 8.96054 7.35172 8.94097 7.40511 8.92236C7.47395 8.89842 7.5308 8.87609 7.57244 8.88245C7.6469 8.8938 7.70926 8.84119 7.76767 8.78663C7.81275 8.74482 7.85602 8.70172 7.90797 8.68351C8.05705 8.63192 8.22827 8.47923 8.35306 8.28129C8.40015 8.20665 8.48215 8.20711 8.5916 8.20028C8.65945 8.19603 8.73777 8.18902 8.82051 8.1588C8.86749 8.14154 8.86752 8.0827 8.86576 8.02939C8.86429 7.9801 8.86156 7.93526 8.89678 7.92693C8.92788 7.91957 8.99185 7.95757 9.05345 7.9927C9.12188 8.03189 9.1874 8.06745 9.19821 8.03495C9.20391 8.01769 9.19067 7.97839 9.174 7.93235C9.1674 7.91414 9.16035 7.89489 9.15366 7.87542C9.16438 7.88549 9.17419 7.89423 9.18167 7.90078C9.2345 7.94713 9.2831 7.94779 9.33113 7.94704C9.3503 7.94676 9.36935 7.94625 9.38855 7.94862C9.45935 7.95742 9.51347 7.90532 9.54504 7.85852C9.55845 7.83877 9.58879 7.83438 9.62437 7.82862C9.65592 7.82353 9.69168 7.81731 9.72272 7.79849C9.7404 7.78777 9.76542 7.78719 9.78631 7.78661C9.80143 7.78621 9.81436 7.78579 9.82054 7.7815C9.82587 7.77778 9.81179 7.76256 9.79584 7.74553C9.78436 7.73328 9.7719 7.72002 9.76505 7.7094C9.7487 7.684 9.75016 7.66643 9.76356 7.66192C9.76975 7.65985 9.77853 7.66067 9.78726 7.66146C9.79744 7.66239 9.80767 7.66334 9.81382 7.65959C9.84201 7.64234 9.83764 7.60552 9.83235 7.56785C9.82664 7.52625 9.81965 7.48407 9.85568 7.4614C9.86703 7.45426 9.88598 7.45037 9.90438 7.44644C9.92363 7.44234 9.94228 7.4381 9.95073 7.43045C9.98513 7.39918 9.95918 7.33961 9.93403 7.28622C9.91735 7.25064 9.90115 7.21765 9.90415 7.19577C9.90975 7.15546 9.86313 7.11191 9.82852 7.08027C9.81058 7.06386 9.79574 7.05055 9.7931 7.04233C9.79703 7.03758 9.80127 7.03288 9.80561 7.02834C9.81183 7.02515 9.81826 7.02181 9.81899 7.0164C9.81905 7.01599 9.81896 7.01553 9.81901 7.01512C9.84547 6.99053 9.8772 6.96795 9.90845 6.94523C9.97858 6.89436 10.0478 6.83823 10.0474 6.75565C10.0474 6.73784 10.0288 6.71386 10.0098 6.68988C9.98644 6.66045 9.96218 6.63096 9.97041 6.61078C9.98995 6.56297 10.0431 6.52325 10.095 6.4813C10.1728 6.41923 10.2477 6.35084 10.1963 6.26747C10.1793 6.24019 10.1477 6.21136 10.1156 6.18309C10.0977 6.16733 10.0796 6.15166 10.0639 6.13643C10.0961 6.14395 10.1265 6.14999 10.1549 6.15564C10.2133 6.16731 10.2634 6.1773 10.3041 6.19683C10.4006 6.24269 10.5331 6.30283 10.635 6.3163C10.6627 6.31988 10.6931 6.32603 10.7238 6.33233C10.8006 6.34808 10.8791 6.36478 10.9203 6.33789C10.9481 6.32009 11.0125 6.27022 10.9582 6.22499C10.9463 6.2152 10.9213 6.20685 10.8935 6.19767C10.8802 6.19327 10.8662 6.18868 10.8527 6.18364C10.8155 6.16976 10.7817 6.15261 10.7743 6.12693C10.7726 6.12104 10.7712 6.11468 10.7699 6.10816C10.7649 6.08214 10.7591 6.05315 10.7188 6.03859C10.6723 6.02182 10.6175 6.01903 10.5536 6.01541C10.4703 6.01089 10.3716 6.00428 10.2552 5.96977C10.2321 5.96297 10.2249 5.95368 10.2194 5.94669C10.2155 5.94176 10.2124 5.93799 10.2053 5.93701C10.1973 5.9359 10.1803 5.93583 10.1587 5.93571C10.0827 5.93547 9.95034 5.93323 9.94845 5.88933C9.94793 5.87737 9.95526 5.8642 9.96181 5.85237C9.97146 5.83493 9.97927 5.82031 9.9578 5.817C9.94966 5.81575 9.94081 5.81468 9.93163 5.81368C9.93509 5.79965 9.93846 5.7856 9.94174 5.77154C9.96838 5.75452 9.96728 5.72878 9.96525 5.69649C9.96476 5.68865 9.96431 5.6804 9.9641 5.67185C9.96997 5.64372 9.97546 5.61552 9.98073 5.58728C9.99153 5.56481 10.009 5.5409 10.0366 5.51441C10.0918 5.46161 10.1829 5.41162 10.271 5.35912C10.3081 5.33706 10.3447 5.31432 10.3778 5.29118C10.3827 5.29872 10.3884 5.30546 10.3957 5.31043C10.4462 5.34453 10.5408 5.35387 10.628 5.36341C10.686 5.36975 10.7407 5.37612 10.7765 5.39019C10.842 5.41605 10.9166 5.41018 10.9719 5.4053C11.0006 5.40282 11.0241 5.40082 11.0382 5.40429C11.0496 5.4071 11.0552 5.41456 11.061 5.42229C11.066 5.42902 11.0713 5.43601 11.0805 5.44028C11.192 5.49251 11.2551 5.4752 11.3469 5.44593C11.3976 5.42994 11.4569 5.41066 11.5378 5.39926C11.6237 5.38882 11.649 5.38975 11.6846 5.42169C11.7262 5.39426 11.7675 5.36622 11.8087 5.33758C11.8054 5.32735 11.7784 5.32087 11.7336 5.3125C11.6537 5.29745 11.621 5.23743 11.5944 5.19089C11.5821 5.16938 11.5713 5.15084 11.5582 5.14106C11.4885 5.0893 11.4009 5.1161 11.3238 5.13778C11.2814 5.14985 11.242 5.16068 11.2107 5.1582C11.1973 5.15716 11.1846 5.16175 11.1716 5.16635C11.1616 5.1699 11.1513 5.17352 11.1406 5.17464C11.0624 5.18265 11.0014 5.15736 10.9446 5.13545C10.912 5.12285 10.8807 5.11125 10.8486 5.1067C10.8388 5.10532 10.8289 5.10448 10.8193 5.10375C10.8053 5.10267 10.7919 5.10164 10.7802 5.09888C10.7535 5.0926 10.734 5.07562 10.7125 5.05735C10.7015 5.04799 10.69 5.0383 10.6767 5.02955C10.6595 5.01822 10.6281 5.01789 10.5952 5.01759C10.572 5.01738 10.5481 5.01715 10.5278 5.01334C10.4912 5.00641 10.4749 4.98416 10.4595 4.96374C10.4528 4.95484 10.4462 4.94634 10.4383 4.93951C10.4351 4.93674 10.4296 4.93611 10.4223 4.93704C10.3917 4.90476 10.3605 4.87506 10.3296 4.84695C10.1739 4.70494 10.0384 4.60608 10.043 4.38371C10.0435 4.34134 10.0258 4.30211 9.99909 4.2662C9.97731 4.12652 9.94795 3.98601 9.91054 3.84545C9.96003 3.78757 9.99555 3.72816 10.0153 3.6682C10.0522 3.55537 10.0244 3.47244 9.98843 3.37675C9.96157 3.30579 9.93022 3.22769 9.91142 3.11984C9.87966 2.93869 9.82149 2.75832 9.71 2.58918C9.59964 2.42043 9.44531 2.24667 9.32307 2.13807C9.25711 2.07881 9.22032 1.97212 9.18087 1.87241C9.126 1.73234 9.06461 1.60583 8.94882 1.6618C8.9119 1.6797 8.86292 1.72012 8.81609 1.75999C8.78274 1.78839 8.75039 1.81633 8.72365 1.83568C8.69698 1.8096 8.66977 1.78385 8.64219 1.7582C8.61997 1.66437 8.56106 1.54742 8.43667 1.57805C8.40626 1.55299 8.37548 1.52836 8.34541 1.50441C8.27938 1.45296 8.2133 1.40356 8.14475 1.35534C8.12238 1.33951 8.09954 1.32374 8.07641 1.30809C8.0762 1.30793 8.07599 1.30777 8.07577 1.30761C8.02932 1.27615 7.98203 1.24533 7.93446 1.21535C7.91409 1.20254 7.89356 1.18986 7.87286 1.17732C7.82046 1.14552 7.76701 1.11456 7.71331 1.08454C7.68498 1.06864 7.65568 1.05288 7.62679 1.03744C7.57969 1.01231 7.53142 0.987721 7.48263 0.963819C7.40325 0.925092 7.32452 0.888473 7.24248 0.853407C7.2291 0.847637 7.21735 0.833944 7.20986 0.814645C7.20238 0.795317 7.19971 0.772023 7.2028 0.748783C7.2059 0.725537 7.21464 0.703685 7.2273 0.687156C7.23993 0.67069 7.25546 0.661066 7.27045 0.659475C7.36243 0.650068 7.45334 0.643058 7.54723 0.639233C7.60493 0.63681 7.663 0.635286 7.72067 0.634916C7.75608 0.634648 7.79216 0.635052 7.82761 0.635578C7.89472 0.63669 7.96283 0.639365 8.03084 0.643581C8.0577 0.645239 8.08455 0.647106 8.11141 0.64918C8.17433 0.65404 8.23791 0.66041 8.30152 0.668048C8.3019 0.668097 8.30229 0.668146 8.30267 0.668194C8.33402 0.671975 8.36531 0.676015 8.39625 0.680276C8.4916 0.693666 8.58625 0.709638 8.68285 0.729526C8.73294 0.739373 8.7845 0.750917 8.83617 0.763246C8.86491 0.770095 8.89358 0.77714 8.92171 0.784253C8.93705 0.788217 8.95256 0.792372 8.96814 0.796622C9.32679 0.892314 9.67903 1.02922 10.0195 1.20918C10.3588 1.38826 10.6839 1.60879 10.9844 1.86541C11.2856 2.12269 11.5624 2.41643 11.8073 2.74176C12.5758 3.75361 13.0198 5.09391 12.9788 6.46562C12.9488 7.87975 12.391 9.34148 11.3975 10.4613C11.1202 10.7769 10.8016 11.0733 10.4636 11.3308C10.1218 11.591 9.76053 11.8148 9.36982 12.0056C9.25135 12.0636 9.12751 12.1194 8.99882 12.1725Z" fill="black"/>
<circle cx="21.7111" cy="49.7675" r="3.3234" transform="rotate(8.2828 21.7111 49.7675)" fill="black"/>
<path d="M15.7612 51.8977C15.3545 50.9248 15.8146 49.8793 15.9404 48.989C15.9431 48.9689 15.9458 48.9488 15.9484 48.9286C16.0773 47.8367 16.1611 46.4281 17.093 45.5524C18.0069 44.6944 19.1938 44.1791 20.3763 44.0836C21.1144 44.0213 21.847 44.1203 22.4998 44.3496C22.8932 44.487 23.2656 44.6717 23.6025 44.895C24.5012 45.4876 25.126 46.3516 25.4099 47.24C25.6055 47.8438 25.6508 48.4604 25.5676 49.0209C25.5314 49.267 25.4711 49.5021 25.3906 49.7225C25.3305 49.8866 25.2591 50.0435 25.1788 50.1898C25.1675 50.2102 25.1295 50.2262 25.0717 50.2332C25.0138 50.2402 24.9412 50.2378 24.8673 50.227C24.7934 50.2162 24.7229 50.198 24.6691 50.1772C24.6154 50.1564 24.583 50.1348 24.5768 50.116C24.5329 49.9801 24.4795 49.8505 24.4179 49.7301C24.3496 49.596 24.2712 49.4724 24.1857 49.3603C24.4847 49.2914 24.7084 49.2193 24.7963 49.1363C24.8411 49.0942 24.8516 49.041 24.7879 49.0204C24.7308 49.0019 24.6367 49.0025 24.5474 49.0049C24.4539 49.0075 24.3656 49.0122 24.3294 48.9971C24.2679 48.9714 24.1319 48.9734 23.9907 48.9831C23.9393 48.9866 23.8871 48.9911 23.8375 48.9951C23.7421 48.9154 23.643 48.8465 23.5422 48.7882C23.5529 48.7391 23.5575 48.6941 23.5309 48.6744C23.5071 48.6567 23.4388 48.6697 23.3588 48.6943C23.343 48.6872 23.3271 48.6805 23.3113 48.6739C23.2093 48.6316 23.1075 48.5994 23.0073 48.5771C23.0233 48.4738 23.0262 48.3638 22.9731 48.2728C22.9503 48.2339 22.9447 48.173 22.9357 48.1135C22.9232 48.0261 22.9023 47.9413 22.8332 47.9503C22.7874 47.9566 22.778 47.901 22.7647 47.8444C22.7479 47.7691 22.7221 47.6916 22.6297 47.7789C22.572 47.8339 22.5124 47.9063 22.4599 47.975C22.3761 48.0842 22.3105 48.1838 22.2851 48.1831C22.237 48.1818 22.1699 48.2626 22.1177 48.3367C22.0537 48.4255 22.0101 48.504 22.0046 48.4078C22.0038 48.3932 22.0031 48.3739 22.0022 48.352C21.9993 48.271 21.9896 48.1551 21.9504 48.1235C21.9341 48.1102 21.9131 48.1122 21.8886 48.139C21.8592 48.1712 21.8276 48.2601 21.8015 48.3482C21.7628 48.4764 21.7372 48.6022 21.712 48.5457C21.7082 48.5373 21.7041 48.502 21.6999 48.4697C21.6947 48.4287 21.6895 48.393 21.6872 48.4241C21.6806 48.5156 21.6714 48.6169 21.6655 48.7272C21.661 48.8082 21.6583 48.894 21.6583 48.9841C21.6188 49.0375 21.5884 49.0917 21.5653 49.1444C21.5548 49.1686 21.5457 49.1925 21.5381 49.216C21.4893 49.0872 21.4392 48.9732 21.3948 48.8895C21.3366 48.7803 21.298 48.7548 21.2462 48.7247C21.2078 48.7028 21.1621 48.6782 21.0858 48.6222C20.942 48.5194 20.8809 48.6041 20.8944 48.7017C20.8968 48.7226 20.9003 48.7442 20.9048 48.7674C20.9226 48.8552 20.948 48.9634 20.9759 49.0943C21.0037 49.2172 20.9986 49.2726 20.9944 49.3166C20.9926 49.3387 20.9918 49.3568 21.0001 49.375C21.0144 49.4063 21.0257 49.4385 21.0391 49.4692C21.0598 49.5171 21.086 49.5611 21.1305 49.592C21.1463 49.603 21.1664 49.615 21.1883 49.6271C21.2443 49.6586 21.3133 49.6899 21.3577 49.7161C21.3611 49.7181 21.3644 49.7201 21.3675 49.7221C21.4134 49.7498 21.38 49.7537 21.3071 49.7678C21.2775 49.7731 21.1608 49.7795 21.0405 49.7921C20.8698 49.8087 20.6925 49.8415 20.7481 49.8626C20.761 49.8672 20.7893 49.8704 20.819 49.873C20.8736 49.8781 20.9325 49.88 20.909 49.8946C20.9008 49.8998 20.8701 49.9083 20.8401 49.9171C20.8071 49.9268 20.7749 49.9369 20.774 49.942C20.7704 49.9609 20.782 49.9766 20.7925 49.9898C20.806 50.0069 20.8178 50.0203 20.7942 50.0382C20.7522 50.0705 20.8015 50.0786 20.8505 50.0814C20.8882 50.084 20.9258 50.084 20.9253 50.0992C20.9235 50.1436 21.0281 50.1617 21.1699 50.1209C21.2232 50.1053 21.1697 50.1554 21.1088 50.2292C21.0707 50.2748 21.0295 50.3293 21.0077 50.3783C20.9956 50.4061 21.0515 50.3716 21.1012 50.3374C21.1473 50.3061 21.1883 50.2754 21.1727 50.3006C21.159 50.3228 21.0853 50.4028 21.0167 50.48C20.9402 50.5658 20.87 50.6483 20.8922 50.6403C20.904 50.6359 20.946 50.6008 20.9948 50.5579C21.0141 50.5409 21.0344 50.5228 21.0544 50.5049C21.0396 50.5212 21.0264 50.5358 21.0165 50.5469C20.946 50.6253 20.9166 50.6735 20.8893 50.7219C20.8784 50.7412 20.8679 50.7604 20.8549 50.7815C20.8072 50.8591 20.8205 50.889 20.8401 50.8988C20.8483 50.9029 20.835 50.9339 20.8203 50.9705C20.8073 51.003 20.7932 51.0401 20.7915 51.0661C20.7905 51.081 20.7779 51.1095 20.7677 51.1334C20.7602 51.1507 20.754 51.1655 20.7541 51.1707C20.7543 51.1751 20.7731 51.1513 20.7941 51.1244C20.8092 51.1051 20.8255 51.0841 20.8369 51.0709C20.8642 51.0393 20.8761 51.0323 20.8725 51.0458C20.8708 51.0521 20.8657 51.0628 20.8607 51.0735C20.8548 51.0859 20.8489 51.0985 20.8486 51.104C20.8469 51.1291 20.8757 51.1065 20.9046 51.0823C20.9365 51.0557 20.9681 51.027 20.9654 51.0607C20.9646 51.0713 20.958 51.0929 20.9518 51.1139C20.9453 51.136 20.9394 51.1573 20.9405 51.1645C20.9451 51.1938 20.9959 51.1353 21.04 51.08C21.0695 51.0433 21.0963 51.0082 21.1076 51.0026C21.1285 50.9926 21.1737 50.9138 21.2061 50.8552C21.2229 50.8248 21.2365 50.7998 21.2419 50.7928C21.2426 50.7959 21.2431 50.7994 21.2435 50.8031C21.2423 50.8099 21.2411 50.8169 21.2436 50.8156C21.2437 50.8155 21.244 50.8152 21.2442 50.815C21.2449 50.8394 21.2426 50.8722 21.241 50.9051C21.2371 50.9789 21.2402 51.0538 21.2797 51.0261C21.2882 51.0202 21.3059 50.9867 21.3232 50.9524C21.3445 50.9104 21.3652 50.867 21.3709 50.8723C21.3843 50.8849 21.3839 50.9488 21.3871 51.0123C21.3908 51.1077 21.4051 51.2022 21.4509 51.1113C21.4658 51.0812 21.4839 51.0298 21.5009 50.9777C21.5104 50.9487 21.5197 50.9193 21.5281 50.8937C21.5193 50.9424 21.5113 50.9881 21.5039 51.0308C21.4885 51.1188 21.4753 51.1941 21.4593 51.2573C21.4221 51.4066 21.3669 51.6112 21.3406 51.763C21.3336 51.8043 21.3247 51.85 21.3157 51.896C21.2931 52.0114 21.2691 52.1292 21.2778 52.186C21.2832 52.2242 21.3031 52.3128 21.3376 52.2269C21.345 52.2082 21.3535 52.1702 21.3627 52.1279C21.3671 52.1077 21.3717 52.0865 21.3765 52.0658C21.3896 52.009 21.4038 51.9569 21.4185 51.9431C21.4219 51.9399 21.4255 51.9371 21.4291 51.9346C21.4437 51.9243 21.4598 51.9128 21.4721 51.8515C21.4863 51.7808 21.4941 51.6988 21.5037 51.6034C21.5158 51.479 21.5322 51.3315 21.5607 51.1548C21.5663 51.1198 21.5707 51.1081 21.5741 51.0992C21.5764 51.0929 21.5782 51.0879 21.5794 51.0773C21.5808 51.0652 21.5829 51.0398 21.5855 51.0078C21.5947 50.8946 21.6133 50.6972 21.626 50.69C21.6295 50.6881 21.6324 50.6978 21.6351 50.7066C21.6392 50.7196 21.6427 50.7302 21.6457 50.6979C21.6468 50.6856 21.6479 50.6723 21.649 50.6586C21.6526 50.6627 21.6561 50.6669 21.6597 50.671C21.6623 50.7099 21.6699 50.707 21.6789 50.7031C21.6811 50.7021 21.6834 50.7012 21.6858 50.7007C21.6933 50.709 21.701 50.7171 21.7088 50.7253C21.715 50.7418 21.7216 50.7685 21.7299 50.8108C21.7463 50.8955 21.7661 51.0352 21.791 51.1711C21.8015 51.2284 21.8129 51.2851 21.8248 51.3367C21.8221 51.3434 21.8196 51.3511 21.818 51.3617C21.8071 51.4342 21.8075 51.5752 21.8067 51.7051C21.8061 51.7914 21.805 51.8729 21.799 51.9257C21.7877 52.0223 21.7922 52.1346 21.7964 52.2177C21.7984 52.2607 21.8002 52.296 21.7985 52.3171C21.7972 52.3339 21.793 52.342 21.7887 52.3503C21.7849 52.3575 21.781 52.3651 21.7787 52.3787C21.7499 52.544 21.7591 52.6393 21.7787 52.778C21.7892 52.8545 21.8025 52.9442 21.8113 53.0661C21.8197 53.1951 21.8197 53.233 21.7981 53.2851C21.8174 53.3485 21.8376 53.4118 21.8588 53.4748C21.866 53.4704 21.8699 53.4303 21.8746 53.3637C21.883 53.2448 21.9226 53.1994 21.9529 53.1633C21.9669 53.1466 21.9788 53.132 21.9846 53.1133C22.0154 53.0138 21.9909 52.8808 21.9722 52.7636C21.9617 52.6991 21.9525 52.6394 21.9519 52.5929C21.9516 52.573 21.948 52.5536 21.9443 52.5338C21.9415 52.5184 21.9386 52.5028 21.9372 52.4867C21.9274 52.3692 21.9379 52.2805 21.9455 52.1982C21.9499 52.1511 21.9535 52.1058 21.9529 52.0586C21.9528 52.0442 21.9523 52.0296 21.9518 52.0153C21.951 51.9946 21.9503 51.9748 21.9506 51.9577C21.9513 51.9189 21.9582 51.892 21.9652 51.8626C21.9688 51.8476 21.9725 51.8318 21.9754 51.8135C21.9791 51.7897 21.9753 51.7431 21.9712 51.6946C21.9683 51.6602 21.9653 51.6249 21.9644 51.5955C21.9628 51.5424 21.9709 51.522 21.9781 51.503C21.9812 51.4947 21.9841 51.4865 21.9861 51.4762C21.9868 51.472 21.9862 51.464 21.9846 51.4531C21.9946 51.4142 22.0026 51.3745 22.0093 51.3356C22.0449 51.1398 22.0404 50.9758 22.1485 51.0624C22.1694 51.0785 22.1833 51.0689 22.192 51.0468C22.256 51.072 22.3245 51.0941 22.3972 51.1118C22.4556 51.2012 22.5106 51.2732 22.5609 51.3254C22.6558 51.4233 22.7061 51.4266 22.7642 51.429C22.8075 51.4305 22.8555 51.4315 22.9385 51.4626C23.0779 51.5148 23.2182 51.5372 23.3349 51.5029C23.4511 51.4694 23.5681 51.4013 23.6366 51.3392C23.6739 51.306 23.7809 51.3227 23.8834 51.3317C24.0271 51.3455 24.1619 51.3425 24.0469 51.2214C24.01 51.1828 23.9401 51.1252 23.8714 51.0704C23.8225 51.0314 23.7744 50.9937 23.7393 50.9645C23.7613 50.9548 23.7831 50.9447 23.8052 50.9342C23.916 50.9567 24.0478 50.9549 23.964 50.8517C23.9866 50.8388 24.0091 50.8255 24.0314 50.8125C24.0788 50.7834 24.1258 50.7534 24.1725 50.7211C24.1879 50.7106 24.2033 50.6996 24.2188 50.6885C24.2189 50.6884 24.2191 50.6883 24.2192 50.6882C24.2503 50.6658 24.2812 50.6424 24.3118 50.6185C24.3249 50.6082 24.3379 50.5978 24.3509 50.5872C24.3838 50.5603 24.4164 50.5323 24.4487 50.5036C24.4659 50.4885 24.4829 50.4726 24.4999 50.4569C24.5276 50.4312 24.5551 50.4044 24.5823 50.3769C24.6264 50.3322 24.6696 50.2868 24.7122 50.2383C24.7192 50.2304 24.7382 50.2247 24.766 50.2223C24.7939 50.22 24.8282 50.2213 24.863 50.2263C24.8978 50.2314 24.9311 50.2401 24.9569 50.2508C24.9826 50.2615 24.9985 50.2734 25.0025 50.2839C25.0265 50.3481 25.0485 50.4124 25.068 50.4797C25.0801 50.5211 25.0916 50.5631 25.102 50.6051C25.1084 50.6309 25.1142 50.6572 25.12 50.6833C25.1308 50.7326 25.1403 50.7831 25.1485 50.8339C25.1517 50.854 25.1548 50.8741 25.1577 50.8943C25.1645 50.9416 25.17 50.9897 25.1745 51.0382C25.1745 51.0385 25.1745 51.0388 25.1746 51.0391C25.1767 51.063 25.1787 51.0869 25.1804 51.1107C25.1854 51.1839 25.1881 51.2573 25.1875 51.3328C25.1878 51.3721 25.1866 51.4126 25.1848 51.4534C25.1838 51.4761 25.1827 51.4988 25.1814 51.5212C25.1806 51.5334 25.1796 51.5457 25.1786 51.558C25.1575 51.8438 25.0992 52.134 25.0003 52.4214C24.902 52.7081 24.7645 52.9903 24.5907 53.2574C24.4164 53.5249 24.2055 53.7775 23.9614 54.0065C23.2046 54.7251 22.0969 55.2072 20.913 55.2494C19.6944 55.3056 18.3675 54.8765 17.3409 54.0204C17.0513 53.7819 16.7785 53.5035 16.5405 53.2052C16.3002 52.9035 16.0926 52.5818 15.9158 52.2312C15.862 52.1249 15.8103 52.0136 15.7612 51.8977Z" fill="black"/>
</svg>
