<svg width="32" height="60" viewBox="0 0 32 60" fill="none" xmlns="http://www.w3.org/2000/svg">
<path d="M10.6646 10.2321C11.3061 10.3192 11.9125 9.38623 12.5551 9.37378C13.353 9.35824 14.1731 10.2265 14.9711 10.049C15.7644 9.87156 16.5609 9.62244 17.3542 9.31843C18.1484 9.01439 18.9408 8.65554 19.7344 8.25946C20.5263 7.86341 21.3195 7.43023 22.1114 6.97631C22.6493 6.66799 23.1877 6.34999 23.7254 6.02818C23.9614 5.88713 24.1968 5.74547 24.4327 5.6033C24.6087 5.49699 24.7847 5.39068 24.9606 5.28438C24.9851 5.2694 25.0081 5.20988 25.0244 5.11575C25.0408 5.02146 25.0493 4.90094 25.048 4.77657C25.0466 4.65212 25.0354 4.53166 25.017 4.43829C24.9985 4.34517 24.9743 4.28727 24.9495 4.27367C24.7698 4.17652 24.5901 4.07937 24.4105 3.98222C24.2109 3.87447 24.0117 3.7665 23.8121 3.65946C23.7864 4.17042 23.7477 4.5583 23.6693 4.73062C23.6292 4.81851 23.5699 4.85577 23.5248 4.76165C23.4844 4.67709 23.453 4.52563 23.4232 4.38129C23.392 4.23032 23.3624 4.08698 23.3257 4.0368C23.2635 3.95158 23.2029 3.73583 23.1393 3.50917C23.1162 3.42667 23.0926 3.3426 23.0684 3.26295C22.878 3.1623 22.6875 3.06246 22.4971 2.96351C22.4246 3.01908 22.3578 3.06415 22.3006 3.04416C22.2492 3.02623 22.2012 2.91917 22.1531 2.78581C22.1236 2.77066 22.0942 2.75551 22.0647 2.74036C21.8745 2.64304 21.6842 2.54733 21.4939 2.45249C21.3478 2.59113 21.1945 2.72598 20.9939 2.7874C20.9075 2.81387 20.8227 2.88895 20.7412 2.961C20.6209 3.06741 20.5077 3.16743 20.4067 3.09573C20.3392 3.0478 20.2695 3.12111 20.2 3.19422C20.1068 3.29228 20.0138 3.39016 19.9264 3.19511C19.8715 3.07246 19.8206 2.92307 19.7735 2.78452C19.6985 2.56408 19.6331 2.37125 19.5755 2.35884C19.4674 2.33557 19.3722 2.17565 19.2884 2.03457C19.1875 1.86489 19.1029 1.72251 19.0317 1.87857C19.0209 1.90223 19.0086 1.93365 18.9947 1.96937C18.9216 2.15762 18.8048 2.4587 18.6307 2.29715C18.5687 2.23961 18.5094 2.08839 18.4513 1.94001C18.3668 1.724 18.2847 1.51433 18.2003 1.60965C18.1877 1.62392 18.175 1.68302 18.1634 1.73701C18.1487 1.80565 18.1359 1.86557 18.1273 1.81377C18.1023 1.66186 18.0633 1.49415 18.0209 1.31162C17.9898 1.17752 17.9568 1.03536 17.9262 0.886048C17.7039 0.805084 17.4816 0.727684 17.2592 0.654613C17.1573 0.621096 17.0554 0.588459 16.9535 0.556713C16.9041 0.78688 16.8532 0.994341 16.7987 1.15156C16.7276 1.35703 16.6332 1.42117 16.5116 1.50426C16.4221 1.5654 16.3177 1.6369 16.197 1.78186C15.9735 2.05017 15.7403 1.99471 15.5898 1.85532C15.5579 1.82584 15.5259 1.79434 15.4917 1.76007C15.3617 1.63008 15.1996 1.46728 14.893 1.28986C14.603 1.12203 14.3575 1.08134 14.1731 1.05077C14.0789 1.03516 14.0007 1.02264 13.9405 0.996744C13.8376 0.95243 13.7115 0.913536 13.5848 0.874693C13.3866 0.813903 13.1872 0.753016 13.0737 0.669307C13.0333 0.639506 12.9909 0.602507 12.9451 0.562982C12.8181 0.453455 12.6647 0.321304 12.4544 0.246965C12.2337 0.168934 12.098 0.226895 11.9578 0.350273C11.9008 0.400425 11.8521 0.595812 11.802 0.797677C11.7309 1.08413 11.6567 1.3831 11.551 1.29602C11.5263 1.27568 11.4997 1.22976 11.4719 1.18156C11.4209 1.09303 11.3656 0.997033 11.3106 1.04044C11.2914 1.05558 11.2749 1.10868 11.2587 1.16073C11.241 1.21799 11.2236 1.27397 11.2032 1.27743C11.127 1.29026 11.0526 1.27834 10.9866 1.26762C10.9013 1.2538 10.8299 1.24232 10.7861 1.28923C10.7081 1.37291 10.6211 1.30061 10.5329 1.22702C10.4656 1.1708 10.3976 1.11363 10.3324 1.12554C10.1463 1.15964 9.88832 1.02341 9.62157 0.793685C9.52064 0.706832 9.43724 0.829147 9.33037 0.986198C9.26391 1.08388 9.18836 1.19542 9.09385 1.27774C9.04027 1.32438 8.99331 1.21744 8.94984 1.11865C8.90979 1.02764 8.87267 0.943495 8.83603 0.991974C8.80369 1.03484 8.7849 1.21626 8.76706 1.38858C8.74721 1.58034 8.72851 1.7607 8.69363 1.72615C8.67508 1.70776 8.65178 1.61756 8.62407 1.51039C8.61312 1.468 8.60142 1.42314 8.58909 1.37874C8.59009 1.41546 8.59059 1.4483 8.59087 1.47316C8.5928 1.64884 8.55859 1.74194 8.52503 1.83315C8.51162 1.86957 8.49827 1.90554 8.48743 1.9465C8.44753 2.09729 8.36917 2.12301 8.30901 2.11704C8.28356 2.11456 8.26112 2.16941 8.23492 2.23343C8.21167 2.29027 8.18546 2.35443 8.15156 2.39203C8.13222 2.41346 8.11775 2.46463 8.10579 2.50734C8.09712 2.53826 8.08975 2.56468 8.08273 2.57171C8.07665 2.57775 8.07114 2.52747 8.06495 2.47085C8.0605 2.43009 8.05566 2.38594 8.05 2.35715C8.03645 2.28838 8.01977 2.26785 8.00846 2.29021C8.00324 2.30054 7.99923 2.32021 7.99526 2.33978C7.99063 2.36258 7.98603 2.38555 7.97943 2.39367C7.94917 2.43086 7.91874 2.37391 7.88712 2.31477C7.85237 2.24976 7.81613 2.18223 7.77715 2.23372C7.76488 2.24994 7.75202 2.28687 7.73957 2.3227C7.72655 2.36021 7.71389 2.3964 7.7029 2.40618C7.65827 2.44583 7.61457 2.32092 7.57438 2.20602C7.54764 2.1296 7.52242 2.05772 7.49955 2.04152C7.45763 2.01193 7.43368 1.86149 7.41602 1.75043C7.40687 1.69288 7.3994 1.64561 7.39194 1.6314C7.3853 1.63571 7.37857 1.64081 7.37198 1.64635C7.366 1.65754 7.35983 1.66909 7.35388 1.66554C7.35343 1.66527 7.35298 1.66463 7.35253 1.66435C7.31573 1.70152 7.27975 1.75398 7.244 1.8063C7.16371 1.92381 7.0844 2.04012 6.99854 1.97672C6.98003 1.96306 6.96067 1.90109 6.94097 1.83814C6.91683 1.76102 6.89214 1.68213 6.86792 1.68824C6.8102 1.7028 6.75288 1.80647 6.69643 1.90862C6.61153 2.06226 6.52855 2.2123 6.44904 2.05044C6.4228 1.99702 6.3968 1.90775 6.37072 1.81776C6.35618 1.76761 6.34157 1.71703 6.32691 1.67285C6.3308 1.75528 6.33324 1.83268 6.33551 1.90487C6.34019 2.05365 6.34421 2.18099 6.359 2.28897C6.39396 2.54416 6.43425 2.89558 6.43296 3.15239C6.43261 3.22209 6.43434 3.29967 6.43615 3.37779C6.4407 3.57379 6.44534 3.77394 6.41641 3.86498C6.39691 3.92633 6.34663 4.06728 6.31207 3.9179C6.30455 3.88536 6.29948 3.82067 6.29385 3.74881C6.28372 3.61967 6.27167 3.46674 6.24008 3.43163C6.23476 3.42572 6.22898 3.4204 6.22302 3.41546C6.19925 3.39575 6.17264 3.374 6.16166 3.27024C6.14902 3.1507 6.14997 3.01355 6.15107 2.85362C6.15251 2.64535 6.15422 2.39795 6.12656 2.10028C6.12107 2.04143 6.11161 2.0214 6.10447 2.0062C6.09943 1.99549 6.09558 1.98691 6.09501 1.96919C6.09437 1.94883 6.09548 1.90642 6.0969 1.85277C6.10192 1.66349 6.11061 1.33278 6.05931 1.31962C6.04543 1.31609 6.02977 1.33209 6.01573 1.34654C5.99503 1.36784 5.97785 1.38542 5.97494 1.33138C5.97385 1.31087 5.97298 1.28865 5.97222 1.26561C5.95564 1.27239 5.93905 1.27917 5.92247 1.28594C5.9018 1.35076 5.87176 1.34574 5.83425 1.3392C5.82515 1.33761 5.81556 1.33617 5.8056 1.33541C5.77288 1.3493 5.74015 1.36311 5.70744 1.37726C5.68168 1.40503 5.65443 1.45003 5.62592 1.5212C5.5688 1.66383 5.52029 1.89831 5.47289 2.12759C5.45292 2.2242 5.43313 2.3201 5.41296 2.40766C5.4213 2.41825 5.42886 2.43078 5.43476 2.44813C5.47514 2.56681 5.49337 2.80134 5.51013 3.01722C5.52127 3.16081 5.53179 3.2962 5.54774 3.38341C5.57693 3.54318 5.57619 3.73061 5.57566 3.8692C5.57539 3.94109 5.57523 3.99998 5.57926 4.03488C5.58251 4.06284 5.58946 4.0759 5.59663 4.08943C5.60288 4.10122 5.60935 4.11356 5.61363 4.13607C5.6657 4.40957 5.65265 4.56903 5.63367 4.80113C5.6232 4.92914 5.61097 5.07935 5.60681 5.28296C5.60368 5.49851 5.60619 5.56151 5.63286 5.64691C5.61395 5.75365 5.59504 5.8604 5.57612 5.96714C5.56818 5.96036 5.5615 5.89393 5.55193 5.78352C5.53483 5.58636 5.48529 5.51503 5.44658 5.45928C5.42866 5.43347 5.41306 5.41089 5.40406 5.38077C5.35623 5.22056 5.36722 4.99616 5.3769 4.7987C5.38223 4.69001 5.38714 4.58942 5.38164 4.51223C5.3793 4.47921 5.38179 4.44636 5.38429 4.41286C5.38623 4.38697 5.38821 4.36063 5.38801 4.33359C5.3865 4.13714 5.35766 3.99178 5.3309 3.85681C5.31558 3.77952 5.30096 3.70536 5.29248 3.62712C5.28989 3.60328 5.28778 3.57895 5.28579 3.55533C5.28289 3.52084 5.28006 3.48797 5.27589 3.45983C5.26639 3.39575 5.24779 3.35274 5.22741 3.30586C5.21696 3.28184 5.20604 3.25674 5.19566 3.22718C5.18221 3.18886 5.17667 3.11124 5.17084 3.03017C5.16672 2.97287 5.16241 2.91385 5.15514 2.8653C5.14198 2.77749 5.11696 2.74613 5.09375 2.71703C5.08364 2.70435 5.07386 2.69176 5.06555 2.67545C5.06217 2.66881 5.06044 2.65548 5.05989 2.63716C5.02164 2.57629 4.98507 2.51408 4.94947 2.45314C4.77101 2.14764 4.61652 1.88276 4.39221 2.08035C4.34981 2.11771 4.30376 2.11115 4.257 2.08259C4.10925 2.16212 3.96144 2.24415 3.81378 2.32821C3.78629 2.5057 3.75193 2.65495 3.71061 2.7723C3.633 2.99264 3.55126 3.04081 3.4548 3.09767C3.38348 3.13972 3.30411 3.18666 3.21237 3.31131C3.05825 3.52076 2.8996 3.69841 2.71943 3.79235C2.54005 3.88587 2.33428 3.95604 2.18844 3.98214C2.10895 3.99639 2.027 4.15612 1.95063 4.30478C1.8432 4.51388 1.7468 4.7013 1.68383 4.4329C1.66371 4.34713 1.64356 4.19797 1.62394 4.05306C1.60998 3.94986 1.59621 3.84907 1.58298 3.77406C1.55017 3.79797 1.51731 3.82163 1.48447 3.84577C1.42761 4.02627 1.33832 4.22027 1.24784 4.02153C1.21398 4.04684 1.18008 4.07202 1.14738 4.09754C1.07598 4.15096 1.00615 4.20503 0.935681 4.25948C0.912682 4.27749 0.889453 4.29552 0.866167 4.31365C0.865947 4.31386 0.865726 4.31407 0.865506 4.31427C0.818634 4.35077 0.771407 4.38751 0.724971 4.42446C0.705081 4.44023 0.685191 4.45599 0.665301 4.47176C0.614755 4.51178 0.563842 4.55194 0.513817 4.59249C0.487341 4.61405 0.460606 4.63546 0.433829 4.65719C0.390389 4.69244 0.346618 4.72789 0.303077 4.76356C0.23266 4.82122 0.162583 4.87953 0.0923759 4.93828C0.0808953 4.948 0.0700858 4.97806 0.062393 5.02348C0.0547039 5.06898 0.0507037 5.12592 0.0513472 5.18453C0.0519944 5.24316 0.0572596 5.30009 0.0659516 5.34515C0.0746363 5.39005 0.08607 5.41902 0.0977448 5.4281C0.169225 5.48293 0.240604 5.53715 0.31227 5.59089C0.356562 5.62411 0.401058 5.65763 0.44524 5.69044C0.472481 5.71067 0.499635 5.73055 0.526572 5.75063C0.577445 5.78837 0.629281 5.82606 0.680664 5.86323C0.700882 5.87793 0.721099 5.89262 0.741317 5.90732C0.788648 5.94175 0.836767 5.9758 0.884523 6.00974C0.884811 6.00994 0.885099 6.01014 0.885388 6.01034C0.908882 6.02704 0.932339 6.04377 0.955547 6.06036C1.02717 6.11087 1.09817 6.16091 1.1707 6.21034C1.20818 6.23704 1.24723 6.2631 1.28599 6.28946C1.30758 6.30414 1.32912 6.31889 1.35027 6.33349C1.36183 6.34125 1.37355 6.34894 1.38533 6.35667C1.65576 6.53952 1.92422 6.7153 2.19508 6.8837C2.46493 7.05211 2.73518 7.21339 3.00456 7.36808C3.27458 7.52277 3.54406 7.6706 3.8137 7.81225C5.52492 8.71176 7.24114 9.44412 8.95503 9.89181C9.19949 9.95612 9.45025 10.0136 9.69506 10.0648C9.94255 10.1159 10.1849 10.1609 10.4329 10.1987C10.5082 10.2106 10.5854 10.2216 10.6646 10.2321Z" fill="black"/>
<path d="M31.2965 34.1764C31.3805 32.8938 30.4445 31.6763 30.4289 30.391C30.4095 28.7951 31.2737 27.1591 31.0923 25.5622C30.9109 23.9745 30.6579 22.3804 30.35 20.7922C30.042 19.2023 29.6793 17.6156 29.2793 16.0264C28.8794 14.4406 28.4423 12.8519 27.9845 11.2658C27.6735 10.1885 27.3529 9.11009 27.0285 8.03309C26.8862 7.5603 26.7434 7.08893 26.6001 6.6164C26.4929 6.26388 26.3858 5.91136 26.2786 5.55884C26.2635 5.50984 26.2039 5.46364 26.1096 5.43041C26.0153 5.39719 25.8947 5.37956 25.7704 5.38168C25.6459 5.38382 25.5255 5.40558 25.4322 5.44204C25.3392 5.47849 25.2814 5.52672 25.268 5.5762C25.1717 5.93509 25.0754 6.29398 24.9792 6.65287C24.8724 7.0515 24.7654 7.44942 24.6594 7.84793C25.1704 7.9019 25.5585 7.9812 25.7312 8.13896C25.8193 8.21948 25.8568 8.3384 25.7629 8.428C25.6786 8.50846 25.5273 8.57052 25.3831 8.62946C25.2323 8.6911 25.0891 8.74961 25.0391 8.82269C24.9542 8.9467 24.7387 9.0668 24.5124 9.19292C24.43 9.23882 24.3461 9.28557 24.2665 9.33359C24.1668 9.71396 24.0679 10.0944 23.9699 10.4747C24.0258 10.62 24.0712 10.7538 24.0515 10.8682C24.0338 10.9708 23.927 11.0663 23.7939 11.1618C23.7789 11.2207 23.7639 11.2796 23.7489 11.3385C23.6525 11.7184 23.5577 12.0985 23.4638 12.4786C23.6032 12.7716 23.7388 13.0789 23.8012 13.4804C23.8281 13.6534 23.9036 13.8233 23.976 13.9866C24.083 14.2278 24.1836 14.4548 24.1124 14.6564C24.0648 14.7911 24.1385 14.9308 24.2119 15.0702C24.3104 15.2571 24.4088 15.4436 24.2142 15.6174C24.0918 15.7267 23.9426 15.8277 23.8043 15.9212C23.5843 16.0701 23.3918 16.2001 23.3796 16.3152C23.3569 16.5313 23.1974 16.7208 23.0568 16.8878C22.8876 17.0887 22.7456 17.2572 22.9021 17.4005C22.9258 17.4222 22.9572 17.447 22.993 17.4749C23.1816 17.6219 23.4833 17.8571 23.3226 18.2046C23.2654 18.3283 23.1144 18.4461 22.9663 18.5615C22.7508 18.7295 22.5415 18.8926 22.6372 19.062C22.6516 19.0873 22.7107 19.113 22.7648 19.1364C22.8335 19.1661 22.8935 19.1921 22.8417 19.2089C22.6899 19.2583 22.5224 19.3355 22.3401 19.4193C22.2062 19.4808 22.0641 19.5461 21.915 19.6066C21.8351 20.0509 21.7588 20.4952 21.6869 20.9396C21.6538 21.1432 21.6217 21.3468 21.5905 21.5505C21.8209 21.6505 22.0286 21.7533 22.1861 21.8629C22.3919 22.0062 22.4565 22.1953 22.5402 22.4391C22.6017 22.6184 22.6737 22.8274 22.8193 23.0696C23.0887 23.518 23.0344 23.9841 22.8957 24.2844C22.8664 24.348 22.8351 24.4119 22.801 24.4802C22.6716 24.7395 22.5096 25.063 22.3337 25.6752C22.1673 26.2544 22.1279 26.7453 22.0982 27.114C22.083 27.3023 22.0709 27.4587 22.0453 27.5788C22.0015 27.7844 21.9632 28.0366 21.925 28.2897C21.8652 28.6858 21.8053 29.0845 21.7221 29.3109C21.6925 29.3916 21.6558 29.4763 21.6165 29.5677C21.5076 29.8212 21.3762 30.1273 21.3029 30.5475C21.2259 30.9886 21.2845 31.2602 21.4086 31.5413C21.459 31.6556 21.6547 31.7539 21.8568 31.8551C22.1436 31.9988 22.4429 32.1487 22.3563 32.3596C22.3361 32.4088 22.2903 32.4618 22.2423 32.5171C22.154 32.6188 22.0583 32.7289 22.1019 32.8392C22.1172 32.8776 22.1704 32.9109 22.2225 32.9434C22.2798 32.9793 22.3359 33.0144 22.3395 33.0552C22.3527 33.2075 22.3411 33.3562 22.3307 33.4883C22.3173 33.6587 22.3062 33.8016 22.3533 33.8893C22.4374 34.0457 22.3655 34.2195 22.2923 34.3954C22.2365 34.5299 22.1796 34.6656 22.1919 34.796C22.2269 35.1684 22.0919 35.6837 21.8635 36.2161C21.7772 36.4175 21.8999 36.585 22.0575 36.7995C22.1555 36.9329 22.2674 37.0845 22.3501 37.274C22.3971 37.3814 22.2903 37.4748 22.1918 37.5612C22.101 37.6409 22.017 37.7147 22.0657 37.7882C22.1087 37.8531 22.2902 37.8916 22.4626 37.9281C22.6544 37.9688 22.8349 38.007 22.8005 38.0766C22.7822 38.1137 22.6921 38.1598 22.5851 38.2147C22.5428 38.2364 22.498 38.2596 22.4536 38.284C22.4903 38.2822 22.5232 38.2814 22.548 38.2809C22.7237 38.2779 22.817 38.3468 22.9083 38.4144C22.9448 38.4414 22.9809 38.4683 23.0219 38.4901C23.1729 38.5707 23.199 38.7275 23.1933 38.8478C23.1909 38.8987 23.2459 38.9439 23.31 38.9966C23.367 39.0434 23.4313 39.0961 23.469 39.1641C23.4906 39.2029 23.5418 39.2321 23.5846 39.2562C23.6155 39.2737 23.642 39.2886 23.6491 39.3026C23.6551 39.3148 23.6049 39.3256 23.5483 39.3377C23.5076 39.3464 23.4634 39.3559 23.4347 39.3671C23.366 39.3938 23.3455 39.4271 23.3679 39.4498C23.3783 39.4603 23.398 39.4684 23.4176 39.4765C23.4404 39.4858 23.4634 39.4951 23.4715 39.5084C23.5089 39.5691 23.4521 39.6297 23.3931 39.6926C23.3283 39.7618 23.2609 39.834 23.3126 39.9122C23.3289 39.9368 23.3659 39.9627 23.4017 39.9878C23.4393 40.014 23.4756 40.0395 23.4854 40.0615C23.5253 40.151 23.4006 40.2378 23.2859 40.3176C23.2096 40.3707 23.1378 40.4208 23.1218 40.4664C23.0924 40.5501 22.9421 40.5973 22.8311 40.6321C22.7736 40.6501 22.7263 40.6648 22.7122 40.6796C22.7165 40.693 22.7216 40.7065 22.7272 40.7196C22.7384 40.7317 22.75 40.7441 22.7465 40.756C22.7462 40.7569 22.7456 40.7577 22.7453 40.7586C22.7827 40.8324 22.8353 40.9047 22.8878 40.9764C23.0057 41.1376 23.1224 41.2968 23.0594 41.4682C23.0458 41.5051 22.984 41.5436 22.9211 41.5827C22.8441 41.6305 22.7654 41.6795 22.7716 41.728C22.7864 41.8435 22.8904 41.9587 22.9928 42.0721C23.1469 42.2427 23.2973 42.4094 23.1358 42.5676C23.0826 42.6198 22.9934 42.6714 22.9036 42.7231C22.8535 42.7519 22.803 42.7809 22.7589 42.81C22.8413 42.8026 22.9187 42.7981 22.9908 42.7939C23.1396 42.7853 23.2669 42.7779 23.3748 42.7488C23.6298 42.6802 23.981 42.6013 24.2378 42.6052C24.3075 42.6062 24.3851 42.6031 24.4632 42.5999C24.6592 42.5918 24.8593 42.5835 24.9505 42.6418C25.0119 42.6811 25.1531 42.7823 25.0039 42.8507C24.9714 42.8656 24.9068 42.8754 24.8349 42.8864C24.7058 42.906 24.553 42.9293 24.518 42.9923C24.5121 43.0029 24.5068 43.0145 24.5019 43.0264C24.4823 43.0738 24.4607 43.1269 24.357 43.1484C24.2376 43.1731 24.1004 43.1705 23.9405 43.1675C23.7322 43.1636 23.4848 43.159 23.1873 43.2128C23.1285 43.2235 23.1085 43.2423 23.0933 43.2565C23.0826 43.2666 23.0741 43.2742 23.0563 43.2753C23.036 43.2765 22.9936 43.274 22.9399 43.2709C22.7506 43.26 22.4199 43.2409 22.407 43.3435C22.4035 43.3712 22.4196 43.4026 22.4341 43.4308C22.4555 43.4723 22.4732 43.5067 22.4191 43.5123C22.3986 43.5144 22.3764 43.516 22.3534 43.5174C22.3602 43.5506 22.3671 43.5838 22.374 43.617C22.4389 43.6587 22.434 43.7187 22.4276 43.7937C22.4261 43.8119 22.4247 43.8311 22.424 43.851C22.438 43.9165 22.452 43.982 22.4663 44.0475C22.4942 44.0992 22.5394 44.1539 22.6107 44.2113C22.7536 44.3262 22.9883 44.4244 23.2178 44.5203C23.3145 44.5608 23.4105 44.6008 23.4982 44.6416C23.5087 44.625 23.5212 44.6099 23.5385 44.5982C23.657 44.518 23.8914 44.4827 24.1072 44.4502C24.2507 44.4287 24.3861 44.4083 24.4732 44.3768C24.6328 44.3192 24.8203 44.3216 24.9589 44.3234C25.0307 44.3243 25.0896 44.3249 25.1245 44.317C25.1525 44.3106 25.1655 44.2968 25.179 44.2825C25.1907 44.2701 25.203 44.2572 25.2255 44.2487C25.4988 44.1459 25.6583 44.1728 25.8905 44.2119C26.0185 44.2335 26.1688 44.2587 26.3724 44.268C26.588 44.2754 26.651 44.2706 26.7362 44.2177C26.8431 44.2561 26.9499 44.2944 27.0567 44.3328C27.05 44.3486 26.9836 44.3617 26.8732 44.3803C26.6762 44.4135 26.6051 44.5122 26.5495 44.5894C26.5238 44.6251 26.5013 44.6562 26.4712 44.674C26.3113 44.7689 26.0868 44.7458 25.8893 44.7255C25.7806 44.7143 25.68 44.704 25.6028 44.7146C25.5698 44.7191 25.537 44.714 25.5034 44.7088C25.4775 44.7048 25.4512 44.7007 25.4242 44.701C25.2277 44.703 25.0825 44.76 24.9477 44.8128C24.8705 44.8431 24.7964 44.872 24.7182 44.8886C24.6943 44.8936 24.67 44.8977 24.6464 44.9016C24.6119 44.9072 24.5791 44.9127 24.551 44.9209C24.4869 44.9396 24.444 44.9766 24.3972 45.0171C24.3733 45.0379 24.3482 45.0596 24.3187 45.0802C24.2805 45.107 24.2029 45.1176 24.1218 45.1289C24.0646 45.1369 24.0056 45.1452 23.957 45.1595C23.8693 45.1854 23.8381 45.2353 23.8091 45.2816C23.7965 45.3017 23.7839 45.3212 23.7676 45.3378C23.761 45.3445 23.7477 45.3479 23.7294 45.3489C23.6687 45.4251 23.6067 45.4979 23.5459 45.5688C23.2413 45.9243 22.9772 46.2319 23.1759 46.6816C23.2134 46.7666 23.2071 46.8586 23.1788 46.952C23.259 47.2479 23.3418 47.5439 23.4266 47.8397C23.6042 47.8955 23.7536 47.965 23.8712 48.0482C24.0919 48.2045 24.1404 48.3683 24.1978 48.5615C24.2402 48.7043 24.2875 48.8633 24.4126 49.0474C24.6228 49.3567 24.8012 49.6749 24.8961 50.0357C24.9905 50.3949 25.0616 50.8068 25.0885 51.0986C25.1031 51.2577 25.2632 51.4224 25.4123 51.5759C25.6219 51.7918 25.8098 51.9855 25.5417 52.1101C25.456 52.1499 25.307 52.1895 25.1622 52.228C25.059 52.2554 24.9583 52.2825 24.8834 52.3086C24.9074 52.3743 24.9313 52.4401 24.9556 52.5059C25.1363 52.6206 25.3308 52.8001 25.1325 52.9801C25.158 53.048 25.1833 53.1159 25.209 53.1814C25.2628 53.3245 25.3172 53.4644 25.372 53.6056C25.3901 53.6517 25.4082 53.6983 25.4265 53.7449C25.4267 53.7454 25.4269 53.7458 25.4271 53.7462C25.4638 53.8402 25.5008 53.9348 25.538 54.0279C25.5538 54.0677 25.5697 54.1076 25.5856 54.1474C25.6258 54.2487 25.6662 54.3508 25.707 54.451C25.7287 54.5041 25.7503 54.5577 25.7721 54.6113C25.8076 54.6984 25.8433 54.7861 25.8791 54.8734C25.9371 55.0145 25.9958 55.1549 26.0549 55.2956C26.0647 55.3186 26.0948 55.3404 26.1402 55.356C26.1858 55.3716 26.2427 55.3799 26.3013 55.3789C26.36 55.3779 26.4169 55.3676 26.4619 55.3505C26.5067 55.3333 26.5357 55.3106 26.5447 55.2873C26.5992 55.1446 26.653 55.0021 26.7064 54.859C26.7394 54.7706 26.7727 54.6818 26.8053 54.5936C26.8254 54.5392 26.8451 54.485 26.8651 54.4312C26.9026 54.3296 26.94 54.2261 26.9769 54.1236C26.9915 54.0832 27.0061 54.0428 27.0207 54.0025C27.0549 53.908 27.0887 53.8119 27.1224 53.7165C27.1226 53.716 27.1228 53.7154 27.123 53.7148C27.1396 53.6679 27.1562 53.6211 27.1727 53.5747C27.2228 53.4317 27.2725 53.29 27.3216 53.1452C27.3481 53.0703 27.374 52.9924 27.4002 52.915C27.4147 52.8719 27.4294 52.8288 27.4439 52.7866C27.4516 52.7635 27.4592 52.7401 27.4669 52.7166C27.6484 52.1766 27.8229 51.6405 27.9899 51.0996C28.157 50.5607 28.3169 50.021 28.4703 49.483C28.6236 48.9437 28.7702 48.4054 28.9105 47.8668C29.8015 44.4487 30.5254 41.0197 30.9647 37.594C31.0278 37.1054 31.084 36.6041 31.134 36.1147C31.1839 35.62 31.2277 35.1355 31.2643 34.6397C31.2758 34.4891 31.2864 34.3348 31.2965 34.1764Z" fill="black"/>
<path d="M23.0552 59.1725C21.99 59.608 20.8481 59.3617 19.807 59.2314C19.7838 59.2285 19.7607 59.2257 19.7375 59.2228C18.4636 59.0759 16.9947 58.7905 15.9932 57.8094C14.9971 56.8378 14.3404 55.5517 14.1332 54.2227C14.0012 53.3932 14.0421 52.5504 14.2354 51.768C14.3513 51.2967 14.5219 50.8419 14.7413 50.4188C15.3226 49.292 16.2512 48.4074 17.2979 47.8908C18.0086 47.5374 18.7743 47.3478 19.5195 47.3221C19.8467 47.3104 20.1695 47.3297 20.4831 47.3776C20.7166 47.4134 20.9465 47.465 21.1675 47.5308C21.1984 47.54 21.2258 47.5671 21.2431 47.6071C21.2604 47.6472 21.2662 47.6966 21.2596 47.7459C21.253 47.7952 21.2346 47.8414 21.209 47.876C21.1835 47.9104 21.1529 47.9302 21.1232 47.9326C20.9091 47.9495 20.6974 47.9808 20.493 48.0261C20.2654 48.0762 20.0453 48.1434 19.8347 48.2256C19.7647 48.0307 19.6851 47.8874 19.5742 47.8414C19.5178 47.8179 19.4414 47.821 19.3984 47.8713C19.3598 47.9164 19.3409 47.9847 19.3242 48.0496C19.3068 48.1175 19.2918 48.1819 19.2579 48.2136C19.2004 48.2675 19.1641 48.371 19.1315 48.4795C19.1196 48.519 19.1081 48.5593 19.096 48.5981C18.9197 48.7094 18.7541 48.8319 18.6001 48.9637C18.5225 48.9817 18.452 49.0031 18.4052 49.042C18.3632 49.0769 18.3448 49.1401 18.3348 49.2114C18.3132 49.2335 18.2919 49.2557 18.2709 49.2781C18.1352 49.4226 18.0117 49.5746 17.9012 49.7322C17.7571 49.7933 17.6077 49.87 17.4577 50.0146C17.3933 50.0769 17.3162 50.1286 17.2429 50.1817C17.1349 50.2597 17.0349 50.3414 17.0054 50.4476C16.9858 50.5183 16.9245 50.5678 16.8638 50.6207C16.7828 50.6906 16.7025 50.768 16.7373 50.8832C16.7592 50.9555 16.7946 51.0264 16.8289 51.0905C16.8836 51.1924 16.9352 51.2771 16.9218 51.3321C16.8968 51.4352 16.9325 51.5424 16.9675 51.632C17.0094 51.741 17.0494 51.8259 16.9753 51.8805C16.964 51.8889 16.9495 51.8982 16.933 51.9088C16.8722 51.9478 16.7858 52.0064 16.7558 52.1023C16.7431 52.1428 16.7408 52.1893 16.7554 52.2411C16.773 52.3029 16.8295 52.3638 16.8864 52.4198C16.9691 52.5018 17.0519 52.574 17.0149 52.6509C17.0094 52.6625 16.986 52.6748 16.9647 52.6863C16.9376 52.7009 16.914 52.7142 16.935 52.721C16.9965 52.7411 17.065 52.7724 17.14 52.8036C17.1951 52.8267 17.2538 52.8495 17.3154 52.8691C17.363 53.0495 17.4242 53.223 17.497 53.3884C17.5303 53.464 17.5662 53.5383 17.6043 53.6106C17.5303 53.6787 17.4672 53.7482 17.4257 53.8151C17.3716 53.9029 17.3795 53.9906 17.396 54.1033C17.4083 54.1863 17.4251 54.2828 17.4306 54.4087C17.4408 54.6437 17.5921 54.8169 17.7219 54.8888C17.7493 54.9043 17.7777 54.9191 17.8082 54.9341C17.9245 54.9902 18.068 55.0597 18.3129 55.1835C18.5447 55.2987 18.7236 55.3994 18.8626 55.4692C18.9335 55.5047 18.9931 55.5316 19.0422 55.5458C19.126 55.5699 19.2266 55.601 19.3281 55.6263C19.487 55.6667 19.6489 55.6914 19.745 55.6824C19.7791 55.6793 19.8153 55.6734 19.8542 55.6664C19.954 55.6482 20.0695 55.6226 20.2166 55.6102C20.228 55.6093 20.2396 55.6084 20.2514 55.6076C20.4222 55.5947 20.5208 55.6193 20.63 55.668C20.6738 55.6875 20.7148 55.7644 20.7608 55.8429C20.8251 55.9542 20.9027 56.0686 20.989 56.0236C21.009 56.0131 21.0289 55.9921 21.0495 55.9698C21.0873 55.9289 21.1255 55.884 21.1736 55.8931C21.1905 55.8962 21.2083 55.9145 21.2259 55.9323C21.2453 55.9519 21.2647 55.9709 21.2821 55.9687C21.347 55.9605 21.4081 55.941 21.4615 55.9224C21.5304 55.8984 21.5872 55.8761 21.6289 55.8825C21.7033 55.8938 21.7657 55.8412 21.8241 55.7866C21.8692 55.7448 21.9124 55.7017 21.9644 55.6835C22.1135 55.6319 22.2847 55.4792 22.4095 55.2813C22.4566 55.2067 22.5386 55.2071 22.648 55.2003C22.7159 55.196 22.7942 55.189 22.8769 55.1588C22.9239 55.1415 22.9239 55.0827 22.9222 55.0294C22.9207 54.9801 22.918 54.9353 22.9532 54.9269C22.9843 54.9196 23.0483 54.9576 23.1099 54.9927C23.1783 55.0319 23.2438 55.0674 23.2546 55.0349C23.2603 55.0177 23.2471 54.9784 23.2304 54.9323C23.2238 54.9141 23.2168 54.8949 23.2101 54.8754C23.2208 54.8855 23.2306 54.8942 23.2381 54.9008C23.2909 54.9471 23.3395 54.9478 23.3876 54.947C23.4067 54.9468 23.4258 54.9462 23.445 54.9486C23.5158 54.9574 23.5699 54.9053 23.6015 54.8585C23.6149 54.8388 23.6452 54.8344 23.6808 54.8286C23.7123 54.8235 23.7481 54.8173 23.7791 54.7985C23.7968 54.7878 23.8218 54.7872 23.8427 54.7866C23.8579 54.7862 23.8708 54.7858 23.877 54.7815C23.8823 54.7778 23.8682 54.7626 23.8523 54.7455C23.8408 54.7333 23.8283 54.72 23.8215 54.7094C23.8051 54.684 23.8066 54.6664 23.82 54.6619C23.8262 54.6598 23.835 54.6607 23.8437 54.6615C23.8539 54.6624 23.8641 54.6633 23.8702 54.6596C23.8984 54.6423 23.8941 54.6055 23.8888 54.5678C23.8831 54.5263 23.8761 54.4841 23.9121 54.4614C23.9235 54.4543 23.9424 54.4504 23.9608 54.4464C23.9801 54.4423 23.9987 54.4381 24.0072 54.4305C24.0416 54.3992 24.0156 54.3396 23.9905 54.2862C23.9738 54.2506 23.9576 54.2176 23.9606 54.1958C23.9662 54.1555 23.9196 54.1119 23.8849 54.0803C23.867 54.0639 23.8522 54.0505 23.8495 54.0423C23.8535 54.0376 23.8577 54.0329 23.862 54.0283C23.8683 54.0251 23.8747 54.0218 23.8754 54.0164C23.8755 54.016 23.8754 54.0155 23.8754 54.0151C23.9019 53.9905 23.9336 53.9679 23.9649 53.9452C24.035 53.8944 24.1043 53.8382 24.1039 53.7557C24.1038 53.7378 24.0853 53.7139 24.0662 53.6899C24.0429 53.6604 24.0186 53.631 24.0268 53.6108C24.0464 53.563 24.0995 53.5233 24.1514 53.4813C24.2292 53.4192 24.3041 53.3508 24.2527 53.2675C24.2357 53.2402 24.2042 53.2114 24.172 53.1831C24.1541 53.1673 24.136 53.1517 24.1203 53.1364C24.1525 53.144 24.1829 53.15 24.2113 53.1556C24.2697 53.1673 24.3198 53.1773 24.3606 53.1968C24.457 53.2427 24.5896 53.3028 24.6915 53.3163C24.7191 53.3199 24.7496 53.326 24.7802 53.3323C24.857 53.3481 24.9355 53.3648 24.9767 53.3379C25.0045 53.3201 25.069 53.2702 25.0146 53.225C25.0027 53.2152 24.9777 53.2069 24.9499 53.1977C24.9366 53.1933 24.9226 53.1887 24.9091 53.1836C24.8719 53.1698 24.8381 53.1526 24.8308 53.1269C24.8291 53.121 24.8276 53.1147 24.8264 53.1082C24.8214 53.0821 24.8155 53.0532 24.7752 53.0386C24.7288 53.0218 24.6739 53.019 24.61 53.0154C24.5267 53.0109 24.428 53.0043 24.3116 52.9698C24.2886 52.963 24.2813 52.9537 24.2758 52.9467C24.2719 52.9418 24.2688 52.938 24.2618 52.937C24.2537 52.9359 24.2367 52.9358 24.2152 52.9357C24.1392 52.9355 24.0068 52.9332 24.0049 52.8893C24.0044 52.8774 24.0117 52.8642 24.0182 52.8524C24.0279 52.8349 24.0357 52.8203 24.0142 52.817C24.0061 52.8157 23.9972 52.8147 23.9881 52.8137C23.9915 52.7996 23.9949 52.7856 23.9982 52.7715C24.0248 52.7545 24.0237 52.7288 24.0217 52.6965C24.0212 52.6887 24.0207 52.6804 24.0205 52.6719C24.0264 52.6437 24.0319 52.6155 24.0372 52.5873C24.048 52.5648 24.0654 52.5409 24.093 52.5144C24.1482 52.4616 24.2393 52.4116 24.3274 52.3591C24.3645 52.3371 24.4012 52.3143 24.4342 52.2912C24.4392 52.2987 24.4448 52.3055 24.4522 52.3104C24.5027 52.3445 24.5973 52.3539 24.6845 52.3634C24.7425 52.3697 24.7971 52.3761 24.8329 52.3902C24.8984 52.416 24.9731 52.4102 25.0284 52.4053C25.057 52.4028 25.0805 52.4008 25.0947 52.4043C25.106 52.4071 25.1116 52.4146 25.1174 52.4223C25.1224 52.429 25.1277 52.436 25.1369 52.4403C25.2485 52.4925 25.3115 52.4752 25.4034 52.4459C25.454 52.4299 25.5133 52.4107 25.5943 52.3993C25.6801 52.3888 25.7054 52.3897 25.741 52.4217C25.7826 52.3943 25.824 52.3662 25.8651 52.3376C25.8618 52.3274 25.8348 52.3209 25.79 52.3125C25.7102 52.2975 25.6774 52.2374 25.6508 52.1909C25.6386 52.1694 25.6277 52.1508 25.6146 52.1411C25.5449 52.0893 25.4574 52.1161 25.3803 52.1378C25.3378 52.1499 25.2985 52.1607 25.2672 52.1582C25.2538 52.1572 25.241 52.1617 25.228 52.1663C25.218 52.1699 25.2078 52.1735 25.197 52.1746C25.1188 52.1826 25.0579 52.1574 25.001 52.1355C24.9684 52.1228 24.9371 52.1112 24.905 52.1067C24.8953 52.1053 24.8853 52.1045 24.8757 52.1037C24.8617 52.1027 24.8483 52.1016 24.8366 52.0989C24.81 52.0926 24.7904 52.0756 24.7689 52.0574C24.7579 52.048 24.7464 52.0383 24.7331 52.0296C24.716 52.0182 24.6845 52.0179 24.6516 52.0176C24.6284 52.0174 24.6045 52.0171 24.5842 52.0133C24.5476 52.0064 24.5313 51.9842 24.5159 51.9637C24.5092 51.9548 24.5026 51.9463 24.4948 51.9395C24.4916 51.9367 24.486 51.9361 24.4787 51.937C24.4481 51.9048 24.4169 51.8751 24.3861 51.8469C24.2303 51.7049 24.0949 51.6061 24.0994 51.3837C24.1 51.3413 24.0822 51.3021 24.0555 51.2662C24.0337 51.1265 24.0044 50.986 23.967 50.8455C24.0165 50.7876 24.052 50.7282 24.0717 50.6682C24.1086 50.5554 24.0809 50.4724 24.0449 50.3768C24.018 50.3058 23.9866 50.2277 23.9678 50.1198C23.9361 49.9387 23.8779 49.7583 23.7664 49.5892C23.6561 49.4204 23.5017 49.2467 23.3795 49.1381C23.3135 49.0788 23.2767 48.9721 23.2373 48.8724C23.1824 48.7323 23.121 48.6058 23.0052 48.6618C22.9683 48.6797 22.9193 48.7201 22.8725 48.76C22.8392 48.7884 22.8068 48.8163 22.7801 48.8357C22.7534 48.8096 22.7262 48.7838 22.6986 48.7582C22.6764 48.6644 22.6175 48.5474 22.4931 48.578C22.4627 48.553 22.4319 48.5284 22.4018 48.5044C22.3358 48.453 22.2697 48.4036 22.2012 48.3553C22.1788 48.3395 22.156 48.3237 22.1328 48.3081C22.1326 48.3079 22.1324 48.3078 22.1322 48.3076C22.0857 48.2761 22.0385 48.2453 21.9909 48.2154C21.9705 48.2025 21.95 48.1899 21.9293 48.1773C21.8769 48.1455 21.8234 48.1146 21.7697 48.0845C21.7414 48.0686 21.7121 48.0529 21.6832 48.0374C21.6361 48.0123 21.5878 47.9877 21.5391 47.9638C21.4597 47.9251 21.3809 47.8885 21.2989 47.8534C21.2855 47.8476 21.2738 47.8339 21.2663 47.8146C21.2588 47.7953 21.2561 47.772 21.2592 47.7488C21.2623 47.7255 21.2711 47.7037 21.2837 47.6872C21.2964 47.6707 21.3119 47.6611 21.3269 47.6595C21.4189 47.6501 21.5098 47.6431 21.6037 47.6392C21.6614 47.6368 21.7194 47.6353 21.7771 47.6349C21.8125 47.6346 21.8486 47.6351 21.884 47.6356C21.9512 47.6367 22.0193 47.6394 22.0873 47.6436C22.1141 47.6452 22.141 47.6471 22.1678 47.6492C22.2308 47.654 22.2943 47.6604 22.3579 47.668C22.3583 47.6681 22.3587 47.6681 22.3591 47.6682C22.3904 47.672 22.4217 47.676 22.4527 47.6803C22.548 47.6937 22.6427 47.7096 22.7393 47.7295C22.7894 47.7394 22.8409 47.7509 22.8926 47.7632C22.9213 47.7701 22.95 47.7771 22.9781 47.7843C22.9935 47.7882 23.009 47.7924 23.0246 47.7966C23.3832 47.8923 23.7355 48.0292 24.0759 48.2092C24.4152 48.3883 24.7403 48.6088 25.0409 48.8654C25.342 49.1227 25.6188 49.4164 25.8637 49.7418C26.6322 50.7536 27.0762 52.0939 27.0353 53.4656C27.0052 54.8797 26.4474 56.3415 25.4539 57.4613C25.1766 57.7769 24.858 58.0733 24.52 58.3308C24.1782 58.591 23.817 58.8148 23.4262 59.0056C23.3078 59.0636 23.1839 59.1194 23.0552 59.1725Z" fill="black"/>
</svg>
