<svg width="65" height="65" viewBox="0 0 65 65" fill="none" xmlns="http://www.w3.org/2000/svg">
<path d="M11.9925 19.1243C12.6548 19.925 14.0114 19.9765 14.7467 20.7093C15.6596 21.6191 15.962 23.1684 16.9916 23.9658C18.016 24.7579 19.0953 25.5037 20.2107 26.2078C21.327 26.9129 22.4808 27.5778 23.6627 28.2183C24.8426 28.8568 26.0508 29.471 27.2724 30.0694C28.1021 30.4758 28.9394 30.876 29.7786 31.2728C30.1468 31.4472 30.5147 31.6202 30.8836 31.7937C31.159 31.9228 31.4344 32.052 31.7098 32.1812C31.7482 32.1991 31.8169 32.1842 31.9032 32.1377C31.9895 32.0911 32.0858 32.0172 32.1737 31.9292C32.2617 31.8412 32.3357 31.7446 32.382 31.6584C32.4281 31.5724 32.4424 31.5042 32.4242 31.4662C32.291 31.1914 32.1577 30.9166 32.0246 30.6418C31.8765 30.3367 31.729 30.0318 31.5805 29.7273C31.1839 30.0526 30.8611 30.2774 30.6485 30.3066C30.54 30.3215 30.4461 30.2788 30.4629 30.1615C30.478 30.0561 30.5515 29.9147 30.6216 29.78C30.695 29.6391 30.7646 29.5054 30.7593 29.4282C30.7502 29.2972 30.837 29.0774 30.9281 28.8466C30.9613 28.7625 30.9951 28.6769 31.025 28.5937C30.8822 28.304 30.7388 28.015 30.5948 27.7266C30.4728 27.6815 30.3649 27.6358 30.3146 27.5558C30.2694 27.4841 30.2922 27.3543 30.3338 27.2062C30.3113 27.1617 30.2889 27.1171 30.2665 27.0726C30.1215 26.7855 29.9753 26.4995 29.8285 26.2141C29.5635 26.1418 29.2933 26.0586 29.0224 25.8699C28.9057 25.7885 28.7558 25.7429 28.6119 25.6989C28.3994 25.634 28.1994 25.5729 28.1369 25.4066C28.0951 25.2954 27.9636 25.2659 27.8325 25.2365C27.6566 25.1971 27.481 25.1578 27.5226 24.9215C27.5487 24.7729 27.5987 24.6104 27.6451 24.4598C27.7189 24.2202 27.7836 24.0107 27.7275 23.9356C27.622 23.7947 27.6295 23.5738 27.6362 23.3791C27.6443 23.1448 27.6511 22.9483 27.4583 22.9745C27.4291 22.9785 27.3925 22.9861 27.3512 22.995C27.1332 23.0414 26.7846 23.1158 26.704 22.8027C26.6753 22.6912 26.717 22.5177 26.7582 22.3476C26.818 22.1001 26.8761 21.8597 26.712 21.8285C26.6875 21.8239 26.6307 21.8503 26.5788 21.8744C26.5128 21.9052 26.4552 21.932 26.4828 21.8861C26.5637 21.7517 26.6403 21.5902 26.7237 21.4145C26.785 21.2854 26.85 21.1486 26.9228 21.0096C26.7297 20.6968 26.5341 20.3865 26.3353 20.0792C26.2443 19.9384 26.1526 19.7982 26.0603 19.6585C25.8388 19.7614 25.632 19.8468 25.4574 19.8932C25.2292 19.9539 25.0764 19.8895 24.8791 19.8069C24.734 19.7461 24.5646 19.6754 24.3239 19.6368C23.8783 19.5653 23.6546 19.2578 23.5848 18.9873C23.57 18.9301 23.5564 18.8712 23.5424 18.8079C23.489 18.5677 23.4229 18.2675 23.204 17.7905C22.9969 17.3393 22.7487 17.0278 22.5622 16.7938C22.467 16.6743 22.3876 16.5753 22.3383 16.488C22.2539 16.3385 22.1392 16.1659 22.024 15.9928C21.8437 15.7218 21.6621 15.4494 21.594 15.2604C21.5698 15.1931 21.5485 15.1184 21.5251 15.0381C21.4604 14.8155 21.382 14.5467 21.1979 14.2524C21.0045 13.9436 20.8095 13.8273 20.5622 13.7512C20.4617 13.7203 20.2662 13.7999 20.0643 13.8823C19.7779 13.9992 19.479 14.1213 19.4222 13.9389C19.4089 13.8963 19.4119 13.8338 19.4151 13.7682C19.4211 13.6478 19.4277 13.5173 19.3343 13.484C19.3017 13.4724 19.2449 13.4902 19.1892 13.5078C19.1279 13.527 19.0679 13.5458 19.0424 13.5247C18.9471 13.4458 18.8716 13.3517 18.8046 13.268C18.7183 13.1601 18.6458 13.0696 18.5626 13.0517C18.4142 13.0199 18.3678 12.8692 18.3211 12.7164C18.2854 12.5996 18.2497 12.4814 18.1675 12.4145C17.9326 12.2235 17.739 11.8312 17.6027 11.3638C17.5511 11.1871 17.3689 11.1758 17.1351 11.1616C16.9897 11.1528 16.8241 11.1431 16.6581 11.0913C16.564 11.0619 16.5878 10.9334 16.6098 10.8146C16.63 10.7052 16.6485 10.6039 16.5722 10.5953C16.5049 10.5878 16.3531 10.6921 16.209 10.7912C16.0486 10.9016 15.8978 11.0053 15.8832 10.941C15.8754 10.9069 15.914 10.8173 15.9598 10.7109C15.9779 10.6688 15.9969 10.6241 16.0149 10.5791C15.9896 10.6057 15.9666 10.6291 15.949 10.6467C15.8248 10.771 15.7192 10.7962 15.6157 10.8208C15.5743 10.8307 15.5333 10.8403 15.4916 10.8562C15.3381 10.9149 15.231 10.8424 15.1673 10.7688C15.1403 10.7378 15.0755 10.75 14.9998 10.7642C14.9327 10.7769 14.8569 10.7912 14.7915 10.7782C14.7543 10.7708 14.7011 10.7897 14.6568 10.8055C14.6248 10.817 14.5975 10.8269 14.5845 10.8236C14.5733 10.8208 14.6032 10.7795 14.6369 10.7331C14.6612 10.6996 14.6875 10.6634 14.7018 10.6368C14.736 10.5734 14.7319 10.5399 14.703 10.5424C14.6897 10.5435 14.671 10.5526 14.6524 10.5616C14.6308 10.5721 14.6091 10.5827 14.5958 10.5808C14.5348 10.5717 14.5414 10.497 14.5482 10.4195C14.5557 10.3342 14.5633 10.2455 14.4822 10.2363C14.4567 10.2334 14.4156 10.2442 14.3757 10.2547C14.334 10.2658 14.2937 10.2763 14.2742 10.2704C14.1953 10.2465 14.2357 10.1093 14.273 9.98307C14.2977 9.89914 14.3209 9.8201 14.3067 9.78246C14.2806 9.71354 14.3618 9.58139 14.4217 9.48385C14.4527 9.43332 14.4783 9.39185 14.4801 9.37338C14.4695 9.36871 14.4582 9.36449 14.4468 9.36074C14.432 9.36162 14.4167 9.36252 14.4125 9.35318C14.4122 9.35247 14.4122 9.35151 14.4118 9.3508C14.3435 9.33416 14.2651 9.3291 14.1871 9.3242C14.0118 9.3132 13.8385 9.3025 13.787 9.15939C13.776 9.12855 13.7986 9.06315 13.8217 8.9967C13.8499 8.91527 13.8787 8.83197 13.8469 8.80828C13.7712 8.75179 13.6319 8.75769 13.4946 8.76353C13.2881 8.77231 13.0864 8.7808 13.1129 8.57662C13.1217 8.50923 13.1565 8.41721 13.1918 8.3246C13.2114 8.27299 13.2313 8.22099 13.2465 8.17339C13.1916 8.23514 13.1387 8.29173 13.0893 8.3445C12.9876 8.45326 12.9006 8.54637 12.8396 8.63845C12.6955 8.85607 12.4883 9.14669 12.3021 9.32362C12.2516 9.37164 12.1977 9.42753 12.1436 9.4839C12.0077 9.62531 11.869 9.76971 11.7708 9.79958C11.7047 9.8197 11.5464 9.85961 11.6148 9.71596C11.6297 9.68468 11.6705 9.6339 11.7159 9.57746C11.7973 9.47606 11.8937 9.35593 11.8832 9.29507C11.8815 9.28483 11.8788 9.27447 11.8756 9.26416C11.8629 9.22304 11.8485 9.17723 11.9107 9.09248C11.9824 8.99485 12.0821 8.90066 12.1984 8.79083C12.3499 8.64779 12.5297 8.4779 12.7126 8.23918C12.7487 8.19197 12.7524 8.16714 12.7553 8.14833C12.7573 8.13508 12.7591 8.12467 12.7712 8.1117C12.7852 8.09682 12.8169 8.06864 12.8571 8.03301C12.9989 7.90731 13.2466 7.68758 13.1981 7.61924C13.185 7.60078 13.1558 7.59382 13.1295 7.58767C13.0908 7.57859 13.0587 7.57097 13.0943 7.53007C13.1078 7.51456 13.1228 7.49813 13.1385 7.48125C13.1149 7.46682 13.0913 7.45239 13.0677 7.43797C12.9977 7.45915 12.9674 7.421 12.9297 7.37319C12.9205 7.36158 12.9107 7.34951 12.9 7.3375C12.853 7.3094 12.8061 7.28123 12.759 7.25331C12.7099 7.24289 12.6467 7.24271 12.5633 7.25926C12.3961 7.29244 12.1726 7.39937 11.9541 7.50398C11.8621 7.54806 11.7707 7.59185 11.6849 7.62941C11.6867 7.64639 11.6863 7.66381 11.6805 7.68267C11.6407 7.81172 11.4926 7.99567 11.3563 8.16499C11.2656 8.2776 11.1801 8.3838 11.1354 8.46278C11.0535 8.60746 10.9178 8.73682 10.8175 8.8325C10.7655 8.88212 10.723 8.92285 10.7024 8.95175C10.686 8.97492 10.6844 8.99201 10.6828 9.00969C10.6814 9.02509 10.6798 9.04112 10.6685 9.0617C10.5306 9.31179 10.4011 9.40751 10.2127 9.54686C10.1088 9.62371 9.98695 9.71396 9.83579 9.85061C9.6772 9.99674 9.63472 10.0434 9.60343 10.1335C9.50528 10.1858 9.40712 10.2382 9.30896 10.2905C9.30487 10.2766 9.3451 10.2228 9.41369 10.135C9.53619 9.97834 9.53151 9.87162 9.52786 9.78823C9.52617 9.74963 9.52477 9.71594 9.53627 9.68463C9.59745 9.51815 9.77129 9.37493 9.92427 9.24892C10.0085 9.17956 10.0864 9.11534 10.1357 9.05537C10.1568 9.02973 10.1832 9.00978 10.2102 8.98939C10.231 8.97364 10.2522 8.95764 10.2714 8.93861C10.411 8.8004 10.483 8.66614 10.5498 8.5415C10.5881 8.47012 10.6249 8.40173 10.6716 8.33759C10.6858 8.31804 10.7009 8.29871 10.7157 8.28C10.7372 8.25269 10.7576 8.22659 10.7732 8.20223C10.8085 8.14675 10.8184 8.09541 10.8291 8.03933C10.8346 8.01058 10.8403 7.98055 10.8498 7.94803C10.8622 7.90589 10.9118 7.84559 10.9635 7.78253C11.0001 7.73796 11.0376 7.692 11.0643 7.64988C11.1126 7.57369 11.1069 7.52304 11.1016 7.47604C11.0993 7.45557 11.0973 7.43553 11.0996 7.41462C11.1006 7.4061 11.1082 7.39484 11.1208 7.38148C11.1213 7.29507 11.1248 7.20965 11.1284 7.12625C11.1464 6.7081 11.1623 6.34585 10.7667 6.22431C10.6919 6.20134 10.6445 6.14366 10.6122 6.06987C10.388 5.95464 10.1619 5.8411 9.93459 5.72914C9.77585 5.82073 9.62965 5.88477 9.49853 5.91862C9.25233 5.98216 9.12528 5.92131 8.97535 5.84952C8.8645 5.79645 8.74103 5.73749 8.54768 5.71825C8.22281 5.68593 7.91571 5.6263 7.6445 5.4837C7.37448 5.34171 7.09143 5.15305 6.90783 5.00293C6.80772 4.9211 6.60021 4.93753 6.40696 4.95269C6.13512 4.97401 5.89135 4.99299 6.01323 4.73387C6.0522 4.65108 6.13671 4.5242 6.21878 4.4009C6.27722 4.31309 6.33416 4.22719 6.37317 4.15981C6.31888 4.13856 6.26473 4.11709 6.21025 4.09597C6.01614 4.15577 5.77567 4.18752 5.81636 3.94507C5.75988 3.92357 5.70346 3.90197 5.64813 3.88196C5.52901 3.8367 5.41119 3.79369 5.29237 3.75022C5.25343 3.73619 5.2142 3.72192 5.17484 3.70765C5.17444 3.70754 5.17404 3.70742 5.17364 3.70731C5.09442 3.67859 5.01461 3.64963 4.93554 3.62172C4.90172 3.60973 4.8679 3.59773 4.83408 3.58574C4.74816 3.55522 4.66173 3.52438 4.57602 3.49483C4.53058 3.47927 4.48497 3.4633 4.43907 3.4475C4.36461 3.42187 4.28964 3.39599 4.21477 3.37054C4.0937 3.32936 3.97255 3.28901 3.85094 3.24883C3.83098 3.24233 3.79714 3.25074 3.75577 3.27342C3.71435 3.29616 3.66887 3.3311 3.62744 3.37256C3.586 3.41404 3.551 3.45966 3.52841 3.501C3.50593 3.54221 3.49801 3.57553 3.50468 3.59531C3.54602 3.71587 3.5877 3.83589 3.63005 3.95591C3.65622 4.03009 3.6824 4.10472 3.70873 4.17849C3.72497 4.22397 3.74136 4.26911 3.75736 4.31414C3.78772 4.39905 3.81919 4.48505 3.85053 4.57015C3.86281 4.60369 3.87509 4.63723 3.88738 4.67076C3.91611 4.74929 3.946 4.82847 3.97556 4.90714C3.97574 4.90761 3.97593 4.90808 3.97611 4.90855C3.99065 4.94726 4.00513 4.98595 4.01943 5.02425C4.06405 5.14198 4.1083 5.25866 4.15472 5.37668C4.17789 5.43848 4.20327 5.50164 4.22812 5.56467C4.24196 5.59977 4.25569 5.63487 4.26911 5.66942C4.27659 5.68815 4.2843 5.70701 4.29206 5.72597C4.46618 6.16501 4.64317 6.59688 4.82819 7.02637C5.01205 7.45471 5.20149 7.87855 5.39469 8.29682C5.58862 8.71583 5.78687 9.12945 5.98973 9.53895C7.27683 12.1382 8.68983 14.6271 10.3049 16.9155C10.535 17.2423 10.7771 17.5715 11.017 17.8895C11.2599 18.2106 11.5014 18.5215 11.7545 18.8338C11.8311 18.929 11.9105 19.0257 11.9925 19.1243Z" fill="black"/>
<path d="M19.1243 52.7123C19.925 52.0499 19.9765 50.6934 20.7093 49.9581C21.619 49.0451 23.1684 48.7428 23.9658 47.7131C24.7579 46.6888 25.5037 45.6094 26.2078 44.4941C26.9128 43.3778 27.5778 42.224 28.2183 41.0421C28.8568 39.8622 29.471 38.654 30.0694 37.4324C30.4758 36.6027 30.876 35.7654 31.2728 34.9262C31.4471 34.558 31.6202 34.1901 31.7936 33.8212C31.9228 33.5458 32.052 33.2704 32.1812 32.995C32.199 32.9566 32.1842 32.8878 32.1377 32.8016C32.0911 32.7153 32.0172 32.619 31.9292 32.531C31.8411 32.4431 31.7446 32.3691 31.6584 32.3228C31.5724 32.2766 31.5042 32.2624 31.4662 32.2806C31.1914 32.4138 30.9166 32.547 30.6418 32.6802C30.3367 32.8283 30.0318 32.9758 29.7273 33.1243C30.0526 33.5209 30.2774 33.8437 30.3066 34.0563C30.3214 34.1648 30.2788 34.2587 30.1615 34.2419C30.0561 34.2267 29.9146 34.1533 29.7799 34.0832C29.6391 34.0098 29.5053 33.9402 29.4282 33.9455C29.2972 33.9545 29.0774 33.8678 28.8466 33.7767C28.7625 33.7435 28.6769 33.7097 28.5937 33.6798C28.304 33.8226 28.015 33.966 27.7265 34.11C27.6815 34.232 27.6357 34.3399 27.5558 34.3902C27.4841 34.4353 27.3543 34.4126 27.2062 34.371C27.1617 34.3934 27.1171 34.4159 27.0726 34.4383C26.7855 34.5833 26.4995 34.7295 26.2141 34.8763C26.1418 35.1412 26.0586 35.4115 25.8698 35.6824C25.7885 35.7991 25.7429 35.9489 25.6989 36.0929C25.634 36.3054 25.5728 36.5053 25.4065 36.5679C25.2954 36.6097 25.2659 36.7412 25.2365 36.8723C25.1971 37.0482 25.1578 37.2237 24.9215 37.1822C24.7729 37.1561 24.6104 37.1061 24.4598 37.0597C24.2202 36.9858 24.0107 36.9212 23.9356 36.9773C23.7947 37.0828 23.5738 37.0753 23.3791 37.0686C23.1448 37.0605 22.9483 37.0537 22.9745 37.2465C22.9785 37.2757 22.9861 37.3122 22.9949 37.3536C23.0414 37.5716 23.1158 37.9202 22.8026 38.0008C22.6911 38.0295 22.5177 37.9877 22.3476 37.9466C22.1001 37.8868 21.8597 37.8287 21.8285 37.9927C21.8238 38.0173 21.8502 38.0741 21.8744 38.126C21.9051 38.192 21.932 38.2496 21.8861 38.222C21.7517 38.1411 21.5902 38.0645 21.4145 37.9811C21.2854 37.9198 21.1486 37.8548 21.0096 37.782C20.6968 37.9751 20.3865 38.1707 20.0792 38.3695C19.9384 38.4605 19.7981 38.5522 19.6585 38.6445C19.7613 38.866 19.8467 39.0728 19.8932 39.2473C19.9539 39.4755 19.8895 39.6284 19.8069 39.8256C19.7461 39.9708 19.6754 40.1402 19.6368 40.3809C19.5653 40.8265 19.2578 41.0501 18.9872 41.12C18.93 41.1348 18.8712 41.1483 18.8079 41.1624C18.5677 41.2158 18.2675 41.2819 17.7905 41.5008C17.3393 41.7079 17.0278 41.9561 16.7938 42.1426C16.6743 42.2378 16.5753 42.3172 16.4879 42.3665C16.3385 42.4509 16.1659 42.5656 15.9927 42.6808C15.7218 42.8611 15.4494 43.0427 15.2604 43.1107C15.1931 43.1349 15.1184 43.1563 15.0381 43.1797C14.8155 43.2444 14.5467 43.3227 14.2524 43.5069C13.9436 43.7003 13.8273 43.8953 13.7512 44.1426C13.7203 44.2431 13.7999 44.4386 13.8823 44.6405C13.9992 44.9269 14.1213 45.2258 13.9389 45.2826C13.8963 45.2959 13.8337 45.2929 13.7682 45.2896C13.6477 45.2837 13.5173 45.2771 13.484 45.3705C13.4723 45.4031 13.4902 45.4599 13.5077 45.5156C13.527 45.5769 13.5458 45.6368 13.5247 45.6624C13.4457 45.7577 13.3517 45.8332 13.268 45.9001C13.16 45.9865 13.0696 46.059 13.0517 46.1422C13.0199 46.2906 12.8692 46.337 12.7164 46.3837C12.5996 46.4193 12.4814 46.4551 12.4145 46.5373C12.2235 46.7722 11.8312 46.9658 11.3638 47.102C11.1871 47.1536 11.1758 47.3359 11.1616 47.5696C11.1528 47.715 11.1431 47.8806 11.0913 48.0467C11.0618 48.1408 10.9334 48.1169 10.8146 48.095C10.7052 48.0748 10.6039 48.0563 10.5953 48.1325C10.5877 48.1999 10.6921 48.3517 10.7912 48.4958C10.9015 48.6562 11.0053 48.807 10.941 48.8216C10.9068 48.8293 10.8173 48.7908 10.7109 48.745C10.6688 48.7269 10.6241 48.7079 10.5791 48.6899C10.6057 48.7151 10.6291 48.7382 10.6467 48.7558C10.771 48.8799 10.7962 48.9856 10.8208 49.0891C10.8307 49.1305 10.8403 49.1714 10.8562 49.2132C10.9149 49.3667 10.8424 49.4738 10.7688 49.5375C10.7378 49.5645 10.75 49.6293 10.7642 49.7049C10.7769 49.7721 10.7912 49.8479 10.7782 49.9132C10.7708 49.9505 10.7896 50.0037 10.8055 50.0479C10.817 50.08 10.8269 50.1073 10.8236 50.1203C10.8208 50.1315 10.7795 50.1016 10.7331 50.0678C10.6996 50.0436 10.6633 50.0173 10.6368 50.003C10.5734 49.9688 10.5399 49.9729 10.5424 50.0017C10.5435 50.0151 10.5526 50.0338 10.5616 50.0523C10.5721 50.074 10.5827 50.0957 10.5808 50.109C10.5717 50.1699 10.497 50.1634 10.4194 50.1566C10.3342 50.1491 10.2455 50.1415 10.2363 50.2226C10.2334 50.2481 10.2442 50.2892 10.2547 50.329C10.2658 50.3707 10.2763 50.4111 10.2704 50.4305C10.2465 50.5095 10.1093 50.469 9.98306 50.4318C9.89913 50.4071 9.82009 50.3839 9.78245 50.3981C9.71353 50.4242 9.58138 50.343 9.48385 50.2831C9.43331 50.252 9.39184 50.2265 9.37338 50.2247C9.3687 50.2353 9.36448 50.2466 9.36073 50.258C9.36162 50.2728 9.36251 50.2881 9.35318 50.2923C9.35247 50.2926 9.3515 50.2926 9.35079 50.2929C9.33416 50.3613 9.32909 50.4397 9.32419 50.5177C9.31319 50.693 9.30249 50.8663 9.15939 50.9177C9.12855 50.9288 9.06315 50.9061 8.99669 50.8831C8.91526 50.8549 8.83197 50.8261 8.80827 50.8579C8.75178 50.9336 8.75768 51.0729 8.76352 51.2102C8.7723 51.4167 8.7808 51.6184 8.57662 51.5918C8.50923 51.5831 8.4172 51.5482 8.32459 51.513C8.27299 51.4933 8.22099 51.4735 8.17338 51.4583C8.23513 51.5132 8.29172 51.5661 8.34449 51.6154C8.45326 51.7172 8.54637 51.8042 8.63845 51.8652C8.85606 52.0092 9.14669 52.2165 9.32362 52.4027C9.37163 52.4532 9.42752 52.5071 9.48389 52.5612C9.6253 52.697 9.76971 52.8358 9.79958 52.934C9.8197 53.0001 9.85961 53.1583 9.71596 53.0899C9.68467 53.075 9.63389 53.0342 9.57746 52.9889C9.47605 52.9075 9.35592 52.8111 9.29506 52.8215C9.28483 52.8233 9.27446 52.826 9.26416 52.8292C9.22304 52.8419 9.17722 52.8563 9.09247 52.7941C8.99484 52.7224 8.90065 52.6227 8.79082 52.5064C8.64779 52.3549 8.4779 52.175 8.23917 51.9922C8.19196 51.9561 8.16713 51.9523 8.14832 51.9495C8.13508 51.9475 8.12467 51.9456 8.1117 51.9335C8.09682 51.9196 8.06864 51.8879 8.03301 51.8477C7.9073 51.7058 7.68758 51.4581 7.61924 51.5066C7.60077 51.5198 7.59382 51.549 7.58766 51.5753C7.57858 51.614 7.57096 51.646 7.53006 51.6105C7.51456 51.597 7.49812 51.5819 7.48125 51.5662C7.46682 51.5898 7.45239 51.6135 7.43796 51.6371C7.45915 51.7071 7.421 51.7374 7.37318 51.7751C7.36158 51.7843 7.34951 51.7941 7.33749 51.8048C7.30939 51.8517 7.28122 51.8987 7.25331 51.9458C7.24288 51.9949 7.2427 52.0581 7.25925 52.1415C7.29244 52.3086 7.39937 52.5321 7.50397 52.7506C7.54805 52.8427 7.59184 52.9341 7.6294 53.0198C7.64638 53.018 7.6638 53.0185 7.68267 53.0243C7.81171 53.064 7.99567 53.2121 8.16498 53.3485C8.2776 53.4392 8.3838 53.5247 8.46278 53.5694C8.60745 53.6513 8.73681 53.787 8.83249 53.8873C8.88212 53.9393 8.92285 53.9818 8.95174 54.0024C8.97492 54.0188 8.992 54.0203 9.00968 54.022C9.02509 54.0234 9.04111 54.025 9.0617 54.0363C9.31178 54.1742 9.40751 54.3036 9.54685 54.492C9.6237 54.596 9.71395 54.7178 9.8506 54.869C9.99673 55.0276 10.0434 55.0701 10.1335 55.1013C10.1858 55.1995 10.2382 55.2977 10.2905 55.3958C10.2766 55.3999 10.2228 55.3597 10.135 55.2911C9.97833 55.1686 9.87162 55.1733 9.78823 55.1769C9.74962 55.1786 9.71593 55.18 9.68462 55.1685C9.51814 55.1073 9.37492 54.9335 9.24891 54.7805C9.17956 54.6963 9.11533 54.6184 9.05536 54.5691C9.02972 54.548 9.00977 54.5215 8.98939 54.4946C8.97363 54.4738 8.95763 54.4526 8.93861 54.4334C8.80039 54.2938 8.66613 54.2218 8.54149 54.155C8.47011 54.1167 8.40172 54.0799 8.33758 54.0332C8.31804 54.019 8.2987 54.0039 8.27999 53.9891C8.25268 53.9676 8.22659 53.9471 8.20223 53.9316C8.14675 53.8962 8.09541 53.8863 8.03932 53.8757C8.01057 53.8702 7.98055 53.8645 7.94803 53.8549C7.90588 53.8426 7.84558 53.793 7.78252 53.7413C7.73796 53.7047 7.69199 53.6671 7.64987 53.6404C7.57368 53.5921 7.52303 53.5979 7.47603 53.6032C7.45556 53.6055 7.43552 53.6075 7.41461 53.6051C7.4061 53.6042 7.39484 53.5965 7.38148 53.584C7.29506 53.5834 7.20965 53.58 7.12624 53.5764C6.7081 53.5584 6.34584 53.5425 6.22431 53.9381C6.20134 54.0129 6.14365 54.0602 6.06987 54.0926C5.95464 54.3168 5.8411 54.5428 5.72914 54.7702C5.82073 54.9289 5.88477 55.0751 5.91862 55.2062C5.98216 55.4524 5.92131 55.5795 5.84952 55.7294C5.79645 55.8403 5.73749 55.9637 5.71825 56.1571C5.68593 56.482 5.6263 56.7891 5.4837 57.0603C5.34171 57.3303 5.15305 57.6133 5.00292 57.7969C4.9211 57.8971 4.93752 58.1046 4.95269 58.2978C4.97401 58.5697 4.99299 58.8134 4.73387 58.6915C4.65108 58.6526 4.5242 58.5681 4.4009 58.486C4.31308 58.4276 4.22718 58.3706 4.15981 58.3316C4.13856 58.3859 4.11709 58.44 4.09597 58.4945C4.15576 58.6886 4.18752 58.9291 3.94506 58.8884C3.92357 58.9449 3.90197 59.0013 3.88196 59.0566C3.8367 59.1758 3.79369 59.2936 3.75022 59.4124C3.73619 59.4513 3.72192 59.4906 3.70764 59.5299C3.70753 59.5303 3.70742 59.5307 3.70731 59.5311C3.67859 59.6104 3.64962 59.6902 3.62172 59.7692C3.60973 59.8031 3.59773 59.8369 3.58574 59.8707C3.55522 59.9566 3.52438 60.043 3.49483 60.1288C3.47927 60.1742 3.46329 60.2198 3.4475 60.2657C3.42187 60.3402 3.39599 60.4151 3.37054 60.49C3.32936 60.6111 3.28901 60.7322 3.24882 60.8538C3.24233 60.8738 3.25074 60.9076 3.27342 60.949C3.29616 60.9904 3.3311 61.0359 3.37256 61.0773C3.41404 61.1188 3.45966 61.1538 3.501 61.1764C3.54221 61.1988 3.57553 61.2068 3.59531 61.2001C3.71587 61.1587 3.83589 61.1171 3.95591 61.0747C4.03009 61.0486 4.10472 61.0224 4.17849 60.996C4.22397 60.9798 4.26911 60.9634 4.31414 60.9474C4.39905 60.9171 4.48505 60.8856 4.57015 60.8542C4.60369 60.842 4.63722 60.8297 4.67076 60.8174C4.74929 60.7887 4.82846 60.7588 4.90714 60.7292C4.90761 60.729 4.90808 60.7288 4.90855 60.7287C4.94726 60.7141 4.98595 60.6996 5.02425 60.6853C5.14198 60.6407 5.25866 60.5965 5.37667 60.5501C5.43848 60.5269 5.50163 60.5015 5.56467 60.4767C5.59977 60.4628 5.63487 60.4491 5.66941 60.4357C5.68815 60.4282 5.70701 60.4205 5.72597 60.4127C6.16501 60.2386 6.59687 60.0616 7.02636 59.8766C7.4547 59.6927 7.87855 59.5033 8.29682 59.3101C8.71583 59.1162 9.12945 58.9179 9.53895 58.715C12.1382 57.4279 14.6271 56.015 16.9155 54.3998C17.2423 54.1698 17.5715 53.9277 17.8895 53.6878C18.2106 53.4449 18.5214 53.2034 18.8338 52.9503C18.929 52.8737 19.0257 52.7943 19.1243 52.7123Z" fill="black"/>
<path d="M53.559 45.4272C52.8966 44.6265 51.5401 44.575 50.8048 43.8422C49.8918 42.9324 49.5895 41.383 48.5598 40.5857C47.5355 39.7936 46.4561 39.0478 45.3408 38.3437C44.2245 37.6386 43.0707 36.9737 41.8888 36.3332C40.7089 35.6947 39.5007 35.0804 38.2791 34.4821C37.4494 34.0757 36.6121 33.6755 35.7729 33.2787C35.4047 33.1043 35.0368 32.9312 34.6679 32.7578C34.3925 32.6286 34.1171 32.4994 33.8417 32.3702C33.8033 32.3524 33.7345 32.3673 33.6483 32.4138C33.562 32.4604 33.4657 32.5343 33.3777 32.6223C33.2898 32.7103 33.2158 32.8069 33.1695 32.8931C33.1233 32.979 33.1091 33.0473 33.1273 33.0853C33.2605 33.3601 33.3937 33.6349 33.5269 33.9097C33.675 34.2148 33.8225 34.5197 33.971 34.8242C34.3676 34.4989 34.6904 34.2741 34.903 34.2449C35.0115 34.23 35.1054 34.2726 35.0886 34.39C35.0734 34.4954 35 34.6368 34.9299 34.7715C34.8565 34.9124 34.7869 35.0461 34.7922 35.1233C34.8012 35.2543 34.7145 35.474 34.6234 35.7049C34.5902 35.7889 34.5564 35.8745 34.5265 35.9578C34.6693 36.2474 34.8127 36.5365 34.9567 36.8249C35.0787 36.87 35.1866 36.9157 35.2369 36.9957C35.282 37.0674 35.2593 37.1972 35.2177 37.3453C35.2401 37.3898 35.2626 37.4343 35.285 37.4789C35.43 37.7659 35.5762 38.052 35.723 38.3374C35.9879 38.4097 36.2582 38.4929 36.5291 38.6816C36.6458 38.763 36.7956 38.8086 36.9396 38.8526C37.1521 38.9175 37.352 38.9786 37.4146 39.1449C37.4564 39.2561 37.5879 39.2856 37.719 39.3149C37.8949 39.3544 38.0704 39.3937 38.0289 39.63C38.0028 39.7786 37.9528 39.9411 37.9064 40.0917C37.8325 40.3313 37.7679 40.5408 37.824 40.6158C37.9295 40.7568 37.922 40.9776 37.9153 41.1724C37.9072 41.4066 37.9004 41.6031 38.0932 41.5769C38.1224 41.573 38.1589 41.5654 38.2003 41.5565C38.4183 41.51 38.7669 41.4357 38.8475 41.7488C38.8762 41.8603 38.8344 42.0338 38.7933 42.2038C38.7335 42.4514 38.6754 42.6918 38.8394 42.723C38.864 42.7276 38.9208 42.7012 38.9727 42.677C39.0387 42.6463 39.0963 42.6195 39.0687 42.6653C38.9878 42.7998 38.9112 42.9613 38.8278 43.137C38.7665 43.266 38.7015 43.4029 38.6287 43.5419C38.8218 43.8547 39.0174 44.165 39.2162 44.4723C39.3072 44.6131 39.3989 44.7533 39.4912 44.893C39.7127 44.7901 39.9195 44.7047 40.094 44.6583C40.3222 44.5976 40.4751 44.6619 40.6723 44.7446C40.8175 44.8054 40.9869 44.8761 41.2276 44.9147C41.6732 44.9862 41.8969 45.2937 41.9667 45.5642C41.9815 45.6214 41.995 45.6803 42.0091 45.7436C42.0625 45.9838 42.1286 46.284 42.3475 46.761C42.5546 47.2121 42.8028 47.5237 42.9893 47.7577C43.0845 47.8772 43.1639 47.9762 43.2132 48.0635C43.2976 48.213 43.4123 48.3856 43.5275 48.5587C43.7078 48.8296 43.8894 49.1021 43.9574 49.2911C43.9816 49.3584 44.003 49.4331 44.0264 49.5134C44.0911 49.736 44.1694 50.0048 44.3536 50.2991C44.547 50.6079 44.742 50.7242 44.9893 50.8003C45.0898 50.8312 45.2853 50.7516 45.4872 50.6692C45.7736 50.5522 46.0725 50.4302 46.1293 50.6126C46.1426 50.6551 46.1396 50.7177 46.1363 50.7833C46.1304 50.9037 46.1238 51.0341 46.2172 51.0675C46.2498 51.0791 46.3066 51.0613 46.3623 51.0437C46.4236 51.0245 46.4836 51.0057 46.5091 51.0268C46.6044 51.1057 46.6799 51.1998 46.7468 51.2835C46.8332 51.3914 46.9057 51.4818 46.9889 51.4997C47.1373 51.5316 47.1837 51.6823 47.2304 51.8351C47.266 51.9518 47.3018 52.0701 47.384 52.1369C47.6189 52.328 47.8125 52.7203 47.9487 53.1876C48.0003 53.3644 48.1826 53.3757 48.4163 53.3899C48.5617 53.3987 48.7274 53.4084 48.8934 53.4602C48.9875 53.4896 48.9637 53.6181 48.9417 53.7369C48.9215 53.8463 48.903 53.9476 48.9792 53.9562C49.0466 53.9637 49.1984 53.8594 49.3425 53.7602C49.5029 53.6499 49.6537 53.5462 49.6683 53.6104C49.676 53.6446 49.6375 53.7342 49.5917 53.8406C49.5736 53.8827 49.5546 53.9273 49.5366 53.9724C49.5618 53.9457 49.5849 53.9224 49.6025 53.9048C49.7267 53.7805 49.8323 53.7553 49.9358 53.7306C49.9772 53.7208 50.0181 53.7112 50.0599 53.6953C50.2134 53.6365 50.3205 53.7091 50.3842 53.7826C50.4112 53.8137 50.476 53.8015 50.5516 53.7873C50.6188 53.7746 50.6946 53.7603 50.76 53.7733C50.7972 53.7807 50.8504 53.7618 50.8946 53.746C50.9267 53.7345 50.954 53.7246 50.967 53.7278C50.9782 53.7307 50.9483 53.7719 50.9145 53.8184C50.8903 53.8519 50.864 53.8881 50.8497 53.9147C50.8155 53.9781 50.8196 54.0116 50.8485 54.0091C50.8618 54.0079 50.8805 53.9989 50.899 53.9899C50.9207 53.9794 50.9424 53.9687 50.9557 53.9707C51.0166 53.9798 51.0101 54.0545 51.0033 54.132C50.9958 54.2173 50.9882 54.306 51.0693 54.3152C51.0948 54.3181 51.1359 54.3073 51.1757 54.2967C51.2174 54.2857 51.2578 54.2752 51.2772 54.2811C51.3562 54.305 51.3157 54.4422 51.2785 54.5684C51.2538 54.6523 51.2306 54.7314 51.2448 54.769C51.2709 54.8379 51.1897 54.9701 51.1298 55.0676C51.0987 55.1182 51.0732 55.1596 51.0714 55.1781C51.082 55.1828 51.0933 55.187 51.1047 55.1907C51.1195 55.1899 51.1348 55.189 51.139 55.1983C51.1393 55.199 51.1393 55.2 51.1396 55.2007C51.208 55.2173 51.2864 55.2224 51.3644 55.2273C51.5397 55.2383 51.713 55.249 51.7644 55.3921C51.7755 55.4229 51.7528 55.4883 51.7298 55.5548C51.7016 55.6362 51.6728 55.7195 51.7046 55.7432C51.7803 55.7997 51.9196 55.7938 52.0569 55.788C52.2634 55.7792 52.4651 55.7707 52.4385 55.9749C52.4298 56.0423 52.395 56.1343 52.3597 56.2269C52.3401 56.2785 52.3202 56.3305 52.305 56.3781C52.3599 56.3163 52.4128 56.2598 52.4622 56.207C52.5639 56.0982 52.6509 56.0051 52.7119 55.913C52.8559 55.6954 53.0632 55.4048 53.2494 55.2279C53.2999 55.1798 53.3538 55.124 53.4079 55.0676C53.5437 54.9262 53.6825 54.7818 53.7807 54.7519C53.8468 54.7318 54.005 54.6919 53.9367 54.8355C53.9217 54.8668 53.8809 54.9176 53.8356 54.974C53.7542 55.0754 53.6578 55.1956 53.6682 55.2564C53.67 55.2666 53.6727 55.277 53.6759 55.2873C53.6886 55.3284 53.703 55.3743 53.6408 55.459C53.5691 55.5566 53.4694 55.6508 53.3531 55.7607C53.2016 55.9037 53.0217 56.0736 52.8389 56.3123C52.8028 56.3595 52.799 56.3843 52.7962 56.4032C52.7942 56.4164 52.7924 56.4268 52.7803 56.4398C52.7663 56.4547 52.7346 56.4828 52.6944 56.5185C52.5525 56.6442 52.3048 56.8639 52.3534 56.9322C52.3665 56.9507 52.3957 56.9577 52.422 56.9638C52.4607 56.9729 52.4928 56.9805 52.4572 57.0214C52.4437 57.0369 52.4286 57.0534 52.4129 57.0702C52.4366 57.0847 52.4602 57.0991 52.4838 57.1135C52.5538 57.0923 52.5841 57.1305 52.6218 57.1783C52.631 57.1899 52.6408 57.202 52.6515 57.214C52.6984 57.2421 52.7454 57.2703 52.7925 57.2982C52.8416 57.3086 52.9048 57.3088 52.9882 57.2922C53.1554 57.259 53.3789 57.1521 53.5974 57.0475C53.6894 57.0034 53.7808 56.9596 53.8665 56.9221C53.8647 56.9051 53.8652 56.8877 53.871 56.8688C53.9107 56.7398 54.0588 56.5558 54.1952 56.3865C54.2859 56.2739 54.3714 56.1677 54.4161 56.0887C54.498 55.944 54.6337 55.8147 54.734 55.719C54.786 55.6694 54.8285 55.6286 54.8491 55.5997C54.8655 55.5766 54.867 55.5595 54.8687 55.5418C54.8701 55.5264 54.8717 55.5104 54.883 55.4898C55.0209 55.2397 55.1503 55.144 55.3388 55.0046C55.4427 54.9278 55.5645 54.8375 55.7157 54.7009C55.8743 54.5547 55.9168 54.5081 55.948 54.418C56.0462 54.3656 56.1444 54.3133 56.2425 54.261C56.2466 54.2748 56.2064 54.3287 56.1378 54.4164C56.0153 54.5731 56.02 54.6799 56.0236 54.7633C56.0253 54.8019 56.0267 54.8355 56.0152 54.8669C55.954 55.0333 55.7802 55.1766 55.6272 55.3026C55.543 55.3719 55.4651 55.4361 55.4158 55.4961C55.3947 55.5218 55.3683 55.5417 55.3413 55.5621C55.3205 55.5778 55.2993 55.5938 55.2801 55.6129C55.1405 55.7511 55.0685 55.8853 55.0017 56.01C54.9634 56.0814 54.9266 56.1498 54.8799 56.2139C54.8657 56.2334 54.8506 56.2528 54.8358 56.2715C54.8143 56.2988 54.7938 56.3249 54.7783 56.3493C54.743 56.4047 54.733 56.4561 54.7224 56.5122C54.7169 56.5409 54.7112 56.5709 54.7016 56.6034C54.6893 56.6456 54.6397 56.7059 54.588 56.769C54.5514 56.8135 54.5138 56.8595 54.4871 56.9016C54.4389 56.9778 54.4446 57.0284 54.4499 57.0754C54.4522 57.0959 54.4542 57.116 54.4518 57.1369C54.4509 57.1454 54.4433 57.1566 54.4307 57.17C54.4301 57.2564 54.4267 57.3418 54.4231 57.4252C54.4051 57.8434 54.3892 58.2056 54.7848 58.3272C54.8596 58.3501 54.907 58.4078 54.9393 58.4816C55.1635 58.5968 55.3895 58.7104 55.6169 58.8223C55.7756 58.7308 55.9218 58.6667 56.053 58.6329C56.2992 58.5693 56.4262 58.6302 56.5761 58.702C56.687 58.755 56.8105 58.814 57.0038 58.8332C57.3287 58.8655 57.6358 58.9252 57.907 59.0678C58.177 59.2098 58.4601 59.3984 58.6437 59.5486C58.7438 59.6304 58.9513 59.614 59.1445 59.5988C59.4164 59.5775 59.6601 59.5585 59.5383 59.8176C59.4993 59.9004 59.4148 60.0273 59.3327 60.1506C59.2743 60.2384 59.2173 60.3243 59.1783 60.3917C59.2326 60.4129 59.2868 60.4344 59.3412 60.4555C59.5353 60.3957 59.7758 60.364 59.7351 60.6064C59.7916 60.6279 59.848 60.6495 59.9033 60.6695C60.0225 60.7148 60.1403 60.7578 60.2591 60.8013C60.2981 60.8153 60.3373 60.8296 60.3766 60.8438C60.377 60.8439 60.3774 60.8441 60.3778 60.8442C60.4571 60.8729 60.5369 60.9019 60.6159 60.9298C60.6498 60.9418 60.6836 60.9538 60.7174 60.9657C60.8033 60.9963 60.8898 61.0271 60.9755 61.0566C61.0209 61.0722 61.0665 61.0882 61.1124 61.104C61.1869 61.1296 61.2618 61.1555 61.3367 61.1809C61.4578 61.2221 61.5789 61.2625 61.7005 61.3027C61.7205 61.3092 61.7543 61.3007 61.7957 61.2781C61.8371 61.2553 61.8826 61.2204 61.924 61.1789C61.9655 61.1374 62.0005 61.0918 62.0231 61.0505C62.0456 61.0093 62.0535 60.976 62.0468 60.9562C62.0055 60.8356 61.9638 60.7156 61.9214 60.5956C61.8953 60.5214 61.8691 60.4468 61.8427 60.373C61.8265 60.3275 61.8101 60.2824 61.7941 60.2373C61.7638 60.1524 61.7323 60.0664 61.701 59.9813C61.6887 59.9478 61.6764 59.9143 61.6641 59.8807C61.6354 59.8022 61.6055 59.723 61.5759 59.6443C61.5757 59.6439 61.5756 59.6434 61.5754 59.6429C61.5608 59.6042 61.5464 59.5655 61.5321 59.5272C61.4874 59.4095 61.4432 59.2928 61.3968 59.1748C61.3736 59.113 61.3482 59.0498 61.3234 58.9868C61.3095 58.9517 61.2958 58.9166 61.2824 58.8821C61.2749 58.8633 61.2672 58.8445 61.2594 58.8255C61.0853 58.3865 60.9083 57.9546 60.7233 57.5251C60.5394 57.0968 60.35 56.6729 60.1568 56.2547C59.9629 55.8357 59.7646 55.422 59.5617 55.0125C58.2747 52.4133 56.8617 49.9244 55.2465 47.636C55.0165 47.3092 54.7744 46.98 54.5345 46.662C54.2916 46.3409 54.0501 46.03 53.797 45.7177C53.7204 45.6225 53.641 45.5258 53.559 45.4272Z" fill="black"/>
<path d="M45.8757 11.8554C45.075 12.5178 45.0235 13.8743 44.2907 14.6096C43.381 15.5226 41.8316 15.825 41.0342 16.8546C40.2421 17.8789 39.4963 18.9583 38.7922 20.0736C38.0872 21.19 37.4222 22.3438 36.7817 23.5256C36.1432 24.7056 35.529 25.9137 34.9306 27.1353C34.5242 27.9651 34.124 28.8023 33.7272 29.6415C33.5529 30.0098 33.3798 30.3777 33.2064 30.7466C33.0772 31.0219 32.948 31.2973 32.8188 31.5727C32.801 31.6112 32.8158 31.6799 32.8623 31.7661C32.9089 31.8525 32.9828 31.9488 33.0708 32.0367C33.1589 32.1247 33.2554 32.1987 33.3416 32.245C33.4276 32.2911 33.4958 32.3053 33.5338 32.2871C33.8086 32.1539 34.0834 32.0207 34.3582 31.8875C34.6633 31.7395 34.9682 31.5919 35.2727 31.4434C34.9474 31.0468 34.7226 30.7241 34.6934 30.5115C34.6786 30.403 34.7212 30.3091 34.8385 30.3259C34.9439 30.341 35.0854 30.4145 35.2201 30.4846C35.3609 30.5579 35.4947 30.6276 35.5718 30.6222C35.7028 30.6132 35.9226 30.6999 36.1534 30.7911C36.2375 30.8242 36.3231 30.8581 36.4063 30.888C36.696 30.7452 36.985 30.6017 37.2735 30.4577C37.3185 30.3358 37.3643 30.2279 37.4442 30.1776C37.5159 30.1324 37.6457 30.1551 37.7938 30.1967C37.8383 30.1743 37.8829 30.1519 37.9274 30.1295C38.2145 29.9845 38.5005 29.8383 38.7859 29.6914C38.8582 29.4265 38.9414 29.1562 39.1302 28.8854C39.2115 28.7686 39.2571 28.6188 39.3011 28.4749C39.366 28.2623 39.4272 28.0624 39.5935 27.9999C39.7046 27.9581 39.7341 27.8266 39.7635 27.6954C39.8029 27.5196 39.8422 27.344 40.0785 27.3855C40.2271 27.4117 40.3896 27.4616 40.5402 27.5081C40.7798 27.5819 40.9893 27.6466 41.0644 27.5905C41.2053 27.485 41.4262 27.4925 41.6209 27.4992C41.8552 27.5073 42.0517 27.5141 42.0255 27.3213C42.0215 27.292 42.0139 27.2555 42.0051 27.2142C41.9586 26.9962 41.8842 26.6475 42.1974 26.5669C42.3089 26.5382 42.4823 26.58 42.6524 26.6211C42.8999 26.681 43.1403 26.739 43.1715 26.575C43.1762 26.5505 43.1498 26.4936 43.1256 26.4417C43.0949 26.3757 43.068 26.3181 43.1139 26.3457C43.2483 26.4267 43.4098 26.5032 43.5855 26.5867C43.7146 26.648 43.8514 26.7129 43.9904 26.7857C44.3032 26.5927 44.6135 26.3971 44.9208 26.1983C45.0616 26.1073 45.2019 26.0156 45.3415 25.9232C45.2387 25.7018 45.1533 25.495 45.1068 25.3204C45.0461 25.0922 45.1105 24.9394 45.1931 24.7421C45.2539 24.597 45.3246 24.4276 45.3632 24.1869C45.4347 23.7412 45.7422 23.5176 46.0128 23.4477C46.07 23.4329 46.1288 23.4194 46.1921 23.4053C46.4323 23.352 46.7325 23.2858 47.2095 23.0669C47.6607 22.8599 47.9722 22.6116 48.2062 22.4252C48.3257 22.33 48.4247 22.2506 48.5121 22.2012C48.6615 22.1168 48.8341 22.0022 49.0073 21.887C49.2782 21.7067 49.5506 21.525 49.7396 21.457C49.8069 21.4328 49.8816 21.4115 49.9619 21.3881C50.1845 21.3233 50.4533 21.245 50.7476 21.0608C51.0564 20.8675 51.1727 20.6725 51.2488 20.4252C51.2797 20.3247 51.2001 20.1291 51.1177 19.9273C51.0008 19.6408 50.8787 19.3419 51.0611 19.2851C51.1037 19.2719 51.1663 19.2749 51.2318 19.2781C51.3523 19.2841 51.4827 19.2907 51.516 19.1972C51.5277 19.1647 51.5098 19.1078 51.4923 19.0521C51.473 18.9909 51.4542 18.9309 51.4753 18.9054C51.5543 18.8101 51.6483 18.7346 51.732 18.6676C51.84 18.5812 51.9304 18.5087 51.9483 18.4255C51.9801 18.2772 52.1308 18.2308 52.2836 18.1841C52.4004 18.1484 52.5186 18.1126 52.5855 18.0304C52.7765 17.7955 53.1688 17.602 53.6362 17.4657C53.8129 17.4141 53.8242 17.2319 53.8384 16.9981C53.8472 16.8527 53.8569 16.6871 53.9087 16.5211C53.9382 16.427 54.0666 16.4508 54.1854 16.4727C54.2948 16.4929 54.3961 16.5115 54.4047 16.4352C54.4123 16.3678 54.3079 16.2161 54.2088 16.072C54.0985 15.9116 53.9947 15.7607 54.059 15.7462C54.0932 15.7384 54.1827 15.777 54.2891 15.8227C54.3312 15.8409 54.3759 15.8599 54.4209 15.8779C54.3943 15.8526 54.3709 15.8296 54.3533 15.812C54.229 15.6878 54.2038 15.5822 54.1792 15.4786C54.1693 15.4373 54.1597 15.3963 54.1438 15.3546C54.0851 15.201 54.1576 15.094 54.2312 15.0303C54.2622 15.0033 54.25 14.9385 54.2358 14.8628C54.2231 14.7956 54.2088 14.7199 54.2218 14.6545C54.2292 14.6172 54.2104 14.5641 54.1945 14.5198C54.183 14.4878 54.1731 14.4604 54.1764 14.4475C54.1792 14.4362 54.2205 14.4662 54.2669 14.4999C54.3004 14.5242 54.3367 14.5505 54.3632 14.5648C54.4266 14.599 54.4601 14.5949 54.4576 14.566C54.4565 14.5527 54.4474 14.534 54.4384 14.5154C54.4279 14.4938 54.4173 14.4721 54.4192 14.4588C54.4283 14.3978 54.503 14.4044 54.5806 14.4112C54.6658 14.4187 54.7545 14.4263 54.7637 14.3452C54.7666 14.3197 54.7558 14.2786 54.7453 14.2387C54.7342 14.197 54.7237 14.1567 54.7296 14.1372C54.7535 14.0583 54.8907 14.0987 55.0169 14.1359C55.1009 14.1607 55.1799 14.1839 55.2175 14.1697C55.2865 14.1436 55.4186 14.2247 55.5162 14.2847C55.5667 14.3157 55.6082 14.3413 55.6266 14.3431C55.6313 14.3325 55.6355 14.3212 55.6393 14.3097C55.6384 14.2949 55.6375 14.2796 55.6468 14.2755C55.6475 14.2752 55.6485 14.2751 55.6492 14.2748C55.6658 14.2065 55.6709 14.1281 55.6758 14.05C55.6868 13.8748 55.6975 13.7015 55.8406 13.65C55.8715 13.6389 55.9369 13.6616 56.0033 13.6846C56.0847 13.7128 56.168 13.7417 56.1917 13.7099C56.2482 13.6342 56.2423 13.4948 56.2365 13.3575C56.2277 13.1511 56.2192 12.9493 56.4234 12.9759C56.4908 12.9847 56.5828 13.0195 56.6754 13.0548C56.727 13.0744 56.779 13.0943 56.8266 13.1095C56.7649 13.0546 56.7083 13.0017 56.6555 12.9523C56.5467 12.8506 56.4536 12.7635 56.3616 12.7026C56.1439 12.5585 55.8533 12.3513 55.6764 12.1651C55.6284 12.1146 55.5725 12.0607 55.5161 12.0066C55.3747 11.8707 55.2303 11.732 55.2004 11.6338C55.1803 11.5676 55.1404 11.4094 55.284 11.4778C55.3153 11.4927 55.3661 11.5335 55.4225 11.5788C55.5239 11.6603 55.6441 11.7567 55.7049 11.7462C55.7152 11.7445 55.7255 11.7417 55.7358 11.7386C55.777 11.7259 55.8228 11.7114 55.9075 11.7737C56.0052 11.8454 56.0993 11.9451 56.2092 12.0614C56.3522 12.2128 56.5221 12.3927 56.7608 12.5756C56.808 12.6117 56.8329 12.6154 56.8517 12.6183C56.8649 12.6203 56.8753 12.6221 56.8883 12.6342C56.9032 12.6481 56.9314 12.6799 56.967 12.7201C57.0927 12.8619 57.3124 13.1096 57.3808 13.0611C57.3992 13.048 57.4062 13.0187 57.4123 12.9925C57.4214 12.9538 57.429 12.9217 57.4699 12.9573C57.4854 12.9708 57.5019 12.9858 57.5188 13.0015C57.5332 12.9779 57.5476 12.9543 57.562 12.9307C57.5409 12.8607 57.579 12.8303 57.6268 12.7926C57.6384 12.7835 57.6505 12.7737 57.6625 12.763C57.6906 12.716 57.7188 12.6691 57.7467 12.6219C57.7571 12.5728 57.7573 12.5097 57.7407 12.4263C57.7076 12.2591 57.6006 12.0356 57.496 11.8171C57.4519 11.725 57.4082 11.6337 57.3706 11.5479C57.3536 11.5497 57.3362 11.5492 57.3173 11.5434C57.1883 11.5037 57.0043 11.3556 56.835 11.2193C56.7224 11.1286 56.6162 11.0431 56.5372 10.9984C56.3925 10.9164 56.2632 10.7808 56.1675 10.6805C56.1179 10.6285 56.0772 10.5859 56.0483 10.5654C56.0251 10.5489 56.008 10.5474 55.9903 10.5458C55.9749 10.5444 55.9589 10.5428 55.9383 10.5315C55.6882 10.3936 55.5925 10.2641 55.4531 10.0757C55.3763 9.9718 55.2861 9.84992 55.1494 9.69877C55.0033 9.54017 54.9566 9.49769 54.8665 9.46641C54.8142 9.36825 54.7618 9.27009 54.7095 9.17193C54.7234 9.16784 54.7772 9.20807 54.865 9.27666C55.0217 9.39916 55.1284 9.39448 55.2118 9.39083C55.2504 9.38914 55.2841 9.38774 55.3154 9.39924C55.4819 9.46042 55.6251 9.63426 55.7511 9.78725C55.8204 9.87145 55.8847 9.94935 55.9446 9.99866C55.9703 10.0198 55.9902 10.0462 56.0106 10.0731C56.0264 10.0939 56.0424 10.1151 56.0614 10.1344C56.1996 10.274 56.3339 10.3459 56.4585 10.4128C56.5299 10.451 56.5983 10.4879 56.6624 10.5346C56.682 10.5488 56.7013 10.5639 56.72 10.5786C56.7473 10.6002 56.7734 10.6206 56.7978 10.6361C56.8533 10.6715 56.9046 10.6814 56.9607 10.6921C56.9894 10.6976 57.0195 10.7033 57.052 10.7128C57.0941 10.7252 57.1544 10.7747 57.2175 10.8265C57.262 10.863 57.308 10.9006 57.3501 10.9273C57.4263 10.9756 57.477 10.9699 57.524 10.9646C57.5444 10.9623 57.5645 10.9603 57.5854 10.9626C57.5939 10.9636 57.6052 10.9712 57.6185 10.9838C57.7049 10.9843 57.7904 10.9877 57.8738 10.9913C58.2919 11.0094 58.6542 11.0253 58.7757 10.6296C58.7987 10.5548 58.8563 10.5075 58.9301 10.4752C59.0454 10.251 59.1589 10.0249 59.2709 9.79757C59.1793 9.63882 59.1152 9.49262 59.0814 9.36151C59.0178 9.1153 59.0787 8.98826 59.1505 8.83833C59.2036 8.72748 59.2625 8.604 59.2818 8.41065C59.3141 8.08579 59.3737 7.77869 59.5163 7.50748C59.6583 7.23745 59.847 6.9544 59.9971 6.7708C60.0789 6.6707 60.0625 6.46318 60.0473 6.26993C60.026 5.99809 60.007 5.75432 60.2661 5.87621C60.3489 5.91517 60.4758 5.99968 60.5991 6.08175C60.6869 6.1402 60.7728 6.19713 60.8402 6.23615C60.8614 6.18186 60.8829 6.1277 60.904 6.07322C60.8442 5.87912 60.8125 5.63864 61.0549 5.67934C61.0764 5.62285 61.098 5.56643 61.118 5.51111C61.1633 5.39199 61.2063 5.27417 61.2498 5.15535C61.2638 5.1164 61.2781 5.07717 61.2924 5.03781C61.2925 5.03742 61.2926 5.03702 61.2927 5.03662C61.3214 4.95739 61.3504 4.87758 61.3783 4.79852C61.3903 4.7647 61.4023 4.73087 61.4143 4.69705C61.4448 4.61114 61.4756 4.5247 61.5052 4.43899C61.5207 4.39356 61.5367 4.34794 61.5525 4.30205C61.5781 4.22759 61.604 4.15262 61.6295 4.07775C61.6706 3.95668 61.711 3.83553 61.7512 3.71392C61.7577 3.69395 61.7493 3.66011 61.7266 3.61875C61.7038 3.57732 61.6689 3.53184 61.6274 3.49042C61.586 3.44897 61.5403 3.41397 61.499 3.39138C61.4578 3.3689 61.4245 3.36099 61.4047 3.36765C61.2841 3.409 61.1641 3.45068 61.0441 3.49303C60.9699 3.51919 60.8953 3.54537 60.8215 3.57171C60.776 3.58795 60.7309 3.60434 60.6859 3.62034C60.6009 3.65069 60.515 3.68217 60.4298 3.71351C60.3963 3.72579 60.3628 3.73807 60.3292 3.75035C60.2507 3.77908 60.1715 3.80897 60.0929 3.83853C60.0924 3.83872 60.0919 3.8389 60.0914 3.83908C60.0527 3.85363 60.0141 3.86811 59.9758 3.8824C59.858 3.92703 59.7413 3.97127 59.6233 4.0177C59.5615 4.04086 59.4984 4.06624 59.4353 4.0911C59.4002 4.10493 59.3651 4.11867 59.3306 4.13208C59.3119 4.13956 59.293 4.14728 59.274 4.15503C58.835 4.32916 58.4031 4.50615 57.9736 4.69116C57.5453 4.87502 57.1215 5.06447 56.7032 5.25766C56.2842 5.45159 55.8706 5.64984 55.4611 5.85271C52.8618 7.1398 50.3729 8.5528 48.0845 10.1679C47.7577 10.398 47.4285 10.6401 47.1105 10.8799C46.7894 11.1229 46.4786 11.3644 46.1662 11.6175C46.071 11.6941 45.9743 11.7734 45.8757 11.8554Z" fill="black"/>
<path d="M26.6386 11.0259C26.2167 9.9552 26.4774 8.81654 26.621 7.77714C26.6241 7.75404 26.6273 7.73091 26.6304 7.70775C26.7935 6.4358 27.0975 4.97068 28.0913 3.9817C29.0754 2.99808 30.3698 2.35776 31.7013 2.16743C32.5324 2.04598 33.3746 2.0976 34.1545 2.30084C34.6243 2.42266 35.0768 2.59912 35.4971 2.82384C36.6165 3.41939 37.4892 4.35913 37.9925 5.41232C38.3368 6.12746 38.5166 6.89547 38.5329 7.64102C38.5404 7.96829 38.517 8.29079 38.4652 8.6038C38.4265 8.83685 38.3719 9.06603 38.3033 9.28623C38.2937 9.31696 38.2663 9.34404 38.226 9.3608C38.1857 9.37759 38.1363 9.38279 38.0871 9.37558C38.0378 9.36835 37.9918 9.34932 37.9576 9.32334C37.9235 9.29734 37.9041 9.26649 37.9021 9.23685C37.8879 9.0225 37.8593 8.81046 37.8167 8.60549C37.7694 8.37724 37.705 8.15627 37.6255 7.94464C37.8212 7.87713 37.9656 7.79939 38.013 7.68906C38.0372 7.63296 38.035 7.55652 37.9853 7.51292C37.9406 7.47373 37.8727 7.45401 37.808 7.43648C37.7403 7.41816 37.6761 7.40237 37.6448 7.36811C37.5917 7.30989 37.4886 7.27227 37.3805 7.23833C37.3412 7.22594 37.3011 7.21394 37.2624 7.20129C37.1534 7.02359 37.033 6.85648 36.9032 6.70084C36.8861 6.62303 36.8656 6.55226 36.8273 6.50494C36.793 6.46245 36.7299 6.4433 36.6588 6.43239C36.637 6.41051 36.6151 6.38893 36.593 6.36763C36.4502 6.23012 36.2998 6.10467 36.1435 5.99216C36.0843 5.84734 36.0095 5.69696 35.8669 5.54515C35.8054 5.47991 35.7547 5.40222 35.7024 5.32821C35.6259 5.21925 35.5454 5.11825 35.4396 5.08739C35.3691 5.06686 35.3205 5.00498 35.2683 4.94358C35.1994 4.8617 35.123 4.78045 35.0074 4.81375C34.9349 4.83473 34.8635 4.86923 34.799 4.90272C34.6964 4.95609 34.6111 5.00663 34.5563 4.99255C34.4534 4.96621 34.3458 5.00059 34.2558 5.03447C34.1462 5.07493 34.0608 5.1139 34.0072 5.03905C33.999 5.0277 33.9899 5.01303 33.9795 4.99643C33.9412 4.93511 33.8837 4.84799 33.7882 4.81679C33.7479 4.80361 33.7014 4.80068 33.6494 4.81466C33.5874 4.83139 33.5258 4.88719 33.469 4.94329C33.386 5.02498 33.3128 5.10682 33.2364 5.0689C33.2249 5.06323 33.2128 5.03968 33.2016 5.01823C33.1874 4.99095 33.1744 4.96723 33.1673 4.98811C33.1464 5.04934 33.1142 5.1174 33.082 5.19205C33.0583 5.24689 33.0348 5.30527 33.0144 5.3666C32.8334 5.41193 32.6591 5.47088 32.4928 5.54158C32.4168 5.57395 32.342 5.6089 32.2693 5.64609C32.2021 5.57122 32.1334 5.50719 32.067 5.46482C31.9799 5.40962 31.8921 5.41644 31.7793 5.4315C31.6961 5.44275 31.5994 5.45836 31.4734 5.46219C31.2383 5.46939 31.0632 5.61852 30.9897 5.74735C30.9738 5.77464 30.9587 5.80277 30.9432 5.83312C30.8857 5.94868 30.8144 6.0913 30.6875 6.33461C30.5693 6.56495 30.4664 6.74251 30.3948 6.88062C30.3584 6.95111 30.3307 7.01032 30.316 7.05926C30.2907 7.1427 30.2584 7.24292 30.2318 7.34411C30.1894 7.50247 30.1627 7.664 30.1704 7.76022C30.1731 7.79436 30.1785 7.83071 30.1851 7.86965C30.202 7.96971 30.2261 8.08547 30.2366 8.23272C30.2374 8.24418 30.2382 8.2558 30.2388 8.26759C30.2495 8.43846 30.2236 8.53678 30.1736 8.64532C30.1535 8.68896 30.0761 8.72892 29.9971 8.7739C29.8849 8.83679 29.7695 8.91294 29.8135 8.99985C29.8237 9.01993 29.8445 9.04015 29.8665 9.06096C29.9069 9.09926 29.9513 9.13812 29.9416 9.18611C29.9383 9.20294 29.9197 9.22044 29.9017 9.23787C29.8819 9.25702 29.8626 9.27617 29.8646 9.29361C29.872 9.35861 29.8907 9.41998 29.9087 9.47361C29.9317 9.54274 29.9534 9.59987 29.9465 9.64142C29.9342 9.71574 29.986 9.77876 30.0398 9.83786C30.081 9.88346 30.1236 9.92728 30.1411 9.97945C30.1908 10.1292 30.3413 10.3023 30.5377 10.4296C30.6117 10.4777 30.6102 10.5596 30.6156 10.6692C30.619 10.7371 30.625 10.8155 30.6542 10.8986C30.6709 10.9458 30.7297 10.9466 30.783 10.9455C30.8323 10.9446 30.8772 10.9425 30.8851 10.9778C30.892 11.009 30.8532 11.0725 30.8173 11.1336C30.7773 11.2015 30.7409 11.2666 30.7732 11.2778C30.7904 11.2838 30.8299 11.271 30.8761 11.2549C30.8944 11.2486 30.9138 11.2418 30.9333 11.2353C30.9231 11.2459 30.9143 11.2556 30.9076 11.263C30.8606 11.3152 30.8593 11.3638 30.8595 11.4119C30.8595 11.431 30.8598 11.4501 30.8571 11.4693C30.8474 11.5399 30.8988 11.5947 30.9452 11.6269C30.9648 11.6405 30.9688 11.6709 30.9741 11.7066C30.9788 11.7382 30.9846 11.774 31.003 11.8053C31.0135 11.8231 31.0138 11.8481 31.0141 11.869C31.0143 11.8842 31.0145 11.8971 31.0188 11.9033C31.0224 11.9087 31.0378 11.8948 31.055 11.8791C31.0674 11.8678 31.0808 11.8555 31.0916 11.8488C31.1172 11.8327 31.1347 11.8344 31.139 11.8479C31.141 11.8541 31.1401 11.8629 31.1392 11.8716C31.1382 11.8817 31.1371 11.892 31.1407 11.8982C31.1576 11.9266 31.1945 11.9227 31.2322 11.9179C31.2739 11.9127 31.3162 11.9062 31.3384 11.9425C31.3454 11.954 31.349 11.973 31.3527 11.9914C31.3566 12.0107 31.3606 12.0294 31.3681 12.038C31.399 12.0728 31.4589 12.0476 31.5126 12.0231C31.5483 12.0069 31.5815 11.9911 31.6034 11.9944C31.6436 12.0005 31.6878 11.9544 31.7198 11.9202C31.7365 11.9025 31.75 11.8878 31.7582 11.8853C31.7629 11.8893 31.7676 11.8936 31.7721 11.898C31.7752 11.9042 31.7784 11.9107 31.7838 11.9115C31.7842 11.9116 31.7847 11.9115 31.7851 11.9115C31.8094 11.9383 31.8315 11.9703 31.8538 12.0019C31.9038 12.0726 31.9591 12.1426 32.0416 12.1433C32.0595 12.1434 32.0837 12.1252 32.1079 12.1064C32.1376 12.0835 32.1674 12.0596 32.1875 12.0681C32.235 12.0882 32.2741 12.1418 32.3154 12.1942C32.3764 12.2728 32.4439 12.3486 32.5279 12.2983C32.5554 12.2816 32.5846 12.2504 32.6133 12.2187C32.6293 12.201 32.6452 12.183 32.6606 12.1675C32.6527 12.1997 32.6462 12.23 32.6402 12.2583C32.6278 12.3166 32.6172 12.3665 32.5972 12.407C32.5501 12.5029 32.4883 12.6347 32.4735 12.7364C32.4696 12.764 32.463 12.7944 32.4563 12.8249C32.4396 12.9015 32.4219 12.9798 32.4483 13.0213C32.4657 13.0493 32.5148 13.1144 32.5607 13.0606C32.5706 13.0489 32.5793 13.024 32.5888 12.9963C32.5934 12.9831 32.5982 12.9692 32.6034 12.9557C32.6177 12.9187 32.6353 12.8851 32.6611 12.8781C32.667 12.8764 32.6734 12.8751 32.6799 12.8739C32.706 12.8692 32.735 12.8638 32.7501 12.8236C32.7675 12.7774 32.771 12.7226 32.7754 12.6587C32.781 12.5755 32.7888 12.4769 32.8248 12.3609C32.8319 12.338 32.8413 12.3309 32.8484 12.3255C32.8533 12.3216 32.8571 12.3186 32.8582 12.3115C32.8594 12.3035 32.8597 12.2865 32.8601 12.2649C32.8613 12.189 32.8652 12.0566 32.9091 12.0553C32.9211 12.0549 32.9342 12.0624 32.9459 12.0691C32.9633 12.079 32.9778 12.087 32.9814 12.0655C32.9827 12.0574 32.9839 12.0486 32.985 12.0394C32.999 12.0431 33.013 12.0466 33.027 12.0501C33.0437 12.0769 33.0694 12.0761 33.1018 12.0745C33.1096 12.0741 33.1179 12.0738 33.1264 12.0737C33.1545 12.0799 33.1826 12.0858 33.2108 12.0914C33.2331 12.1025 33.2568 12.1202 33.2829 12.1481C33.335 12.2041 33.3838 12.2958 33.4352 12.3845C33.4568 12.4219 33.4791 12.4588 33.5018 12.4922C33.4942 12.497 33.4874 12.5026 33.4823 12.5099C33.4476 12.5599 33.437 12.6544 33.4264 12.7415C33.4193 12.7994 33.4123 12.854 33.3977 12.8896C33.371 12.9547 33.376 13.0295 33.3801 13.0848C33.3823 13.1135 33.384 13.137 33.3803 13.1511C33.3774 13.1624 33.3698 13.168 33.362 13.1736C33.3552 13.1786 33.3482 13.1837 33.3438 13.1929C33.2901 13.3038 33.3066 13.3671 33.3347 13.4593C33.3501 13.5101 33.3686 13.5696 33.379 13.6508C33.3883 13.7367 33.3871 13.762 33.3547 13.7972C33.3816 13.8391 33.4091 13.8809 33.4372 13.9224C33.4475 13.9192 33.4543 13.8923 33.4633 13.8476C33.4793 13.7679 33.5397 13.736 33.5866 13.71C33.6083 13.698 33.627 13.6873 33.6369 13.6744C33.6896 13.6054 33.6639 13.5175 33.6432 13.4401C33.6316 13.3975 33.6213 13.358 33.6242 13.3267C33.6254 13.3134 33.621 13.3006 33.6165 13.2875C33.6131 13.2774 33.6096 13.2672 33.6086 13.2564C33.6016 13.1781 33.6277 13.1175 33.6503 13.0609C33.6633 13.0285 33.6753 12.9973 33.6803 12.9653C33.6818 12.9555 33.6827 12.9456 33.6836 12.936C33.6849 12.922 33.6861 12.9086 33.689 12.897C33.6956 12.8704 33.7128 12.8511 33.7314 12.8298C33.7409 12.8189 33.7507 12.8075 33.7596 12.7944C33.7712 12.7774 33.7719 12.7459 33.7726 12.7131C33.7731 12.6898 33.7736 12.6659 33.7777 12.6457C33.7851 12.6092 33.8076 12.5931 33.8282 12.578C33.8372 12.5715 33.8457 12.5649 33.8527 12.5572C33.8555 12.554 33.8562 12.5485 33.8553 12.5412C33.888 12.511 33.9181 12.4801 33.9466 12.4497C34.0906 12.2957 34.1911 12.1616 34.4134 12.1689C34.4558 12.17 34.4953 12.1528 34.5315 12.1265C34.6715 12.1065 34.8123 12.079 34.9533 12.0433C35.0106 12.0935 35.0695 12.1298 35.1292 12.1503C35.2416 12.1887 35.3249 12.162 35.421 12.1272C35.4923 12.1012 35.5708 12.0709 35.6789 12.0534C35.8604 12.024 36.0415 11.9681 36.2121 11.8588C36.3822 11.7506 36.5579 11.5985 36.6681 11.4776C36.7281 11.4124 36.8353 11.377 36.9355 11.3388C37.0763 11.2857 37.2035 11.2259 37.149 11.1094C37.1316 11.0723 37.0918 11.0228 37.0525 10.9755C37.0246 10.9418 36.997 10.9091 36.978 10.8821C37.0044 10.8557 37.0305 10.8288 37.0565 10.8016C37.1506 10.7806 37.2683 10.7232 37.2393 10.5984C37.2647 10.5683 37.2898 10.5378 37.3141 10.5081C37.3664 10.4427 37.4166 10.3773 37.4657 10.3093C37.4818 10.2872 37.4979 10.2645 37.5138 10.2416C37.514 10.2414 37.5141 10.2412 37.5143 10.241C37.5463 10.1949 37.5778 10.148 37.6083 10.1008C37.6214 10.0806 37.6343 10.0603 37.6472 10.0397C37.6796 9.98772 37.7113 9.93467 37.7419 9.88135C37.7582 9.85323 37.7743 9.82413 37.7901 9.79544C37.8159 9.74866 37.8411 9.70071 37.8656 9.65222C37.9053 9.57334 37.9429 9.49509 37.979 9.41349C37.985 9.4002 37.9988 9.38862 38.0182 9.38137C38.0376 9.37414 38.061 9.37177 38.0842 9.37516C38.1074 9.37855 38.1291 9.38757 38.1455 9.40043C38.1618 9.41327 38.1712 9.42892 38.1726 9.44393C38.1808 9.53603 38.1867 9.62702 38.1893 9.72094C38.191 9.77868 38.1918 9.83676 38.1914 9.89443C38.1913 9.92983 38.1904 9.96591 38.1894 10.0013C38.1875 10.0684 38.1839 10.1365 38.1788 10.2045C38.1768 10.2313 38.1746 10.2581 38.1722 10.285C38.1666 10.3478 38.1594 10.4113 38.1509 10.4748C38.1509 10.4752 38.1508 10.4756 38.1508 10.476C38.1466 10.5073 38.1422 10.5385 38.1375 10.5694C38.1229 10.6645 38.1057 10.759 38.0846 10.8553C38.0741 10.9053 38.0619 10.9567 38.049 11.0082C38.0417 11.0369 38.0343 11.0654 38.0269 11.0935C38.0227 11.1088 38.0183 11.1242 38.0139 11.1397C37.9137 11.4971 37.7723 11.8476 37.588 12.1857C37.4046 12.5228 37.18 12.8451 36.9196 13.1423C36.6585 13.4402 36.3613 13.7132 36.0328 13.954C35.0113 14.7095 33.6655 15.1365 32.2944 15.0781C30.8808 15.0301 29.4262 14.4538 28.3192 13.4461C28.0071 13.1648 27.7148 12.8425 27.4616 12.5012C27.2057 12.1561 26.9865 11.7921 26.8007 11.399C26.7443 11.2798 26.69 11.1553 26.6386 11.0259Z" fill="black"/>
<path d="M26.6386 58.0259C26.2167 56.9552 26.4774 55.8165 26.621 54.7771C26.6241 54.754 26.6273 54.7309 26.6304 54.7077C26.7935 53.4358 27.0975 51.9707 28.0913 50.9817C29.0754 49.9981 30.3698 49.3578 31.7013 49.1674C32.5324 49.046 33.3746 49.0976 34.1545 49.3008C34.6243 49.4227 35.0768 49.5991 35.4971 49.8238C36.6165 50.4194 37.4892 51.3591 37.9925 52.4123C38.3368 53.1275 38.5166 53.8955 38.5329 54.641C38.5404 54.9683 38.517 55.2908 38.4652 55.6038C38.4265 55.8368 38.3719 56.066 38.3033 56.2862C38.2937 56.317 38.2663 56.344 38.226 56.3608C38.1857 56.3776 38.1363 56.3828 38.0871 56.3756C38.0378 56.3684 37.9918 56.3493 37.9576 56.3233C37.9235 56.2973 37.9041 56.2665 37.9021 56.2368C37.8879 56.0225 37.8593 55.8105 37.8167 55.6055C37.7694 55.3772 37.705 55.1563 37.6255 54.9446C37.8212 54.8771 37.9656 54.7994 38.013 54.6891C38.0372 54.633 38.035 54.5565 37.9853 54.5129C37.9406 54.4737 37.8727 54.454 37.808 54.4365C37.7403 54.4182 37.6761 54.4024 37.6448 54.3681C37.5917 54.3099 37.4886 54.2723 37.3805 54.2383C37.3412 54.2259 37.3011 54.2139 37.2624 54.2013C37.1534 54.0236 37.033 53.8565 36.9032 53.7008C36.8861 53.623 36.8656 53.5523 36.8273 53.5049C36.793 53.4625 36.7299 53.4433 36.6588 53.4324C36.637 53.4105 36.6151 53.3889 36.593 53.3676C36.4502 53.2301 36.2998 53.1047 36.1435 52.9922C36.0843 52.8473 36.0095 52.697 35.8669 52.5452C35.8054 52.4799 35.7547 52.4022 35.7024 52.3282C35.6259 52.2193 35.5454 52.1183 35.4396 52.0874C35.3691 52.0669 35.3205 52.005 35.2683 51.9436C35.1994 51.8617 35.123 51.7805 35.0074 51.8138C34.9349 51.8347 34.8635 51.8692 34.799 51.9027C34.6964 51.9561 34.6111 52.0066 34.5563 51.9926C34.4534 51.9662 34.3458 52.0006 34.2558 52.0345C34.1462 52.0749 34.0608 52.1139 34.0072 52.039C33.999 52.0277 33.9899 52.013 33.9795 51.9964C33.9412 51.9351 33.8837 51.848 33.7882 51.8168C33.7479 51.8036 33.7014 51.8007 33.6494 51.8147C33.5874 51.8314 33.5258 51.8872 33.469 51.9433C33.386 52.025 33.3128 52.1068 33.2364 52.0689C33.2249 52.0632 33.2128 52.0397 33.2016 52.0182C33.1874 51.9909 33.1744 51.9672 33.1673 51.9881C33.1464 52.0493 33.1142 52.1174 33.082 52.1921C33.0583 52.2469 33.0348 52.3053 33.0144 52.3666C32.8334 52.4119 32.6591 52.4709 32.4928 52.5416C32.4168 52.5739 32.342 52.6089 32.2693 52.6461C32.2021 52.5712 32.1334 52.5072 32.067 52.4648C31.9799 52.4096 31.8921 52.4164 31.7793 52.4315C31.6961 52.4427 31.5994 52.4584 31.4734 52.4622C31.2383 52.4694 31.0632 52.6185 30.9897 52.7474C30.9738 52.7746 30.9587 52.8028 30.9432 52.8331C30.8857 52.9487 30.8144 53.0913 30.6875 53.3346C30.5693 53.5649 30.4664 53.7425 30.3948 53.8806C30.3584 53.9511 30.3307 54.0103 30.316 54.0593C30.2907 54.1427 30.2584 54.2429 30.2318 54.3441C30.1894 54.5025 30.1627 54.664 30.1704 54.7602C30.1731 54.7944 30.1785 54.8307 30.1851 54.8697C30.202 54.9697 30.2261 55.0855 30.2366 55.2327C30.2374 55.2442 30.2382 55.2558 30.2388 55.2676C30.2495 55.4385 30.2236 55.5368 30.1736 55.6453C30.1535 55.689 30.0761 55.7289 29.9971 55.7739C29.8849 55.8368 29.7695 55.9129 29.8135 55.9998C29.8237 56.0199 29.8445 56.0402 29.8665 56.061C29.9069 56.0993 29.9513 56.1381 29.9416 56.1861C29.9383 56.2029 29.9197 56.2204 29.9017 56.2379C29.8819 56.257 29.8626 56.2762 29.8646 56.2936C29.872 56.3586 29.8907 56.42 29.9087 56.4736C29.9317 56.5427 29.9534 56.5999 29.9465 56.6414C29.9342 56.7157 29.986 56.7788 30.0398 56.8379C30.081 56.8835 30.1236 56.9273 30.1411 56.9795C30.1908 57.1292 30.3413 57.3023 30.5377 57.4296C30.6117 57.4777 30.6102 57.5596 30.6156 57.6692C30.619 57.7371 30.625 57.8155 30.6542 57.8986C30.6709 57.9458 30.7297 57.9466 30.783 57.9455C30.8323 57.9446 30.8772 57.9425 30.8851 57.9778C30.892 58.009 30.8532 58.0725 30.8173 58.1336C30.7773 58.2015 30.7409 58.2666 30.7732 58.2778C30.7904 58.2838 30.8299 58.271 30.8761 58.2549C30.8944 58.2486 30.9138 58.2418 30.9333 58.2353C30.9231 58.2459 30.9143 58.2556 30.9076 58.263C30.8606 58.3152 30.8593 58.3638 30.8595 58.4119C30.8595 58.431 30.8598 58.4501 30.8571 58.4693C30.8474 58.5399 30.8988 58.5947 30.9452 58.6269C30.9648 58.6405 30.9688 58.6709 30.9741 58.7066C30.9788 58.7382 30.9846 58.774 31.003 58.8053C31.0135 58.8231 31.0138 58.8481 31.0141 58.869C31.0143 58.8842 31.0145 58.8971 31.0188 58.9033C31.0224 58.9087 31.0378 58.8948 31.055 58.8791C31.0674 58.8678 31.0808 58.8555 31.0916 58.8488C31.1172 58.8327 31.1347 58.8344 31.139 58.8479C31.141 58.8541 31.1401 58.8629 31.1392 58.8716C31.1382 58.8817 31.1371 58.892 31.1407 58.8982C31.1576 58.9266 31.1945 58.9227 31.2322 58.9179C31.2739 58.9127 31.3162 58.9062 31.3384 58.9425C31.3454 58.954 31.349 58.973 31.3527 58.9914C31.3566 59.0107 31.3606 59.0294 31.3681 59.038C31.399 59.0728 31.4589 59.0476 31.5126 59.0231C31.5483 59.0069 31.5815 58.9911 31.6034 58.9944C31.6436 59.0005 31.6878 58.9544 31.7198 58.9202C31.7365 58.9025 31.75 58.8878 31.7582 58.8853C31.7629 58.8893 31.7676 58.8936 31.7721 58.898C31.7752 58.9042 31.7784 58.9107 31.7838 58.9115C31.7842 58.9116 31.7847 58.9115 31.7851 58.9115C31.8094 58.9383 31.8315 58.9703 31.8538 59.0019C31.9038 59.0726 31.9591 59.1426 32.0416 59.1433C32.0595 59.1434 32.0837 59.1252 32.1079 59.1064C32.1376 59.0835 32.1674 59.0596 32.1875 59.0681C32.235 59.0882 32.2741 59.1418 32.3154 59.1942C32.3764 59.2728 32.4439 59.3486 32.5279 59.2983C32.5554 59.2816 32.5846 59.2504 32.6133 59.2187C32.6293 59.201 32.6452 59.183 32.6606 59.1675C32.6527 59.1997 32.6462 59.23 32.6402 59.2583C32.6278 59.3166 32.6172 59.3665 32.5972 59.407C32.5501 59.5029 32.4883 59.6347 32.4735 59.7364C32.4696 59.764 32.463 59.7944 32.4563 59.8249C32.4396 59.9015 32.4219 59.9798 32.4483 60.0213C32.4657 60.0493 32.5148 60.1144 32.5607 60.0606C32.5706 60.0489 32.5793 60.024 32.5888 59.9963C32.5934 59.9831 32.5982 59.9692 32.6034 59.9557C32.6177 59.9187 32.6353 59.8851 32.6611 59.8781C32.667 59.8764 32.6734 59.8751 32.6799 59.8739C32.706 59.8692 32.735 59.8638 32.7501 59.8236C32.7675 59.7774 32.771 59.7226 32.7754 59.6587C32.781 59.5755 32.7888 59.4769 32.8248 59.3609C32.8319 59.338 32.8413 59.3309 32.8484 59.3255C32.8533 59.3216 32.8571 59.3186 32.8582 59.3115C32.8594 59.3035 32.8597 59.2865 32.8601 59.2649C32.8613 59.189 32.8652 59.0566 32.9091 59.0553C32.9211 59.0549 32.9342 59.0624 32.9459 59.0691C32.9633 59.079 32.9778 59.087 32.9814 59.0655C32.9827 59.0574 32.9839 59.0486 32.985 59.0394C32.999 59.0431 33.013 59.0466 33.027 59.0501C33.0437 59.0769 33.0694 59.0761 33.1018 59.0745C33.1096 59.0741 33.1179 59.0738 33.1264 59.0737C33.1545 59.0799 33.1826 59.0858 33.2108 59.0914C33.2331 59.1025 33.2568 59.1202 33.2829 59.1481C33.335 59.2041 33.3838 59.2958 33.4352 59.3845C33.4568 59.4219 33.4791 59.4588 33.5018 59.4922C33.4942 59.497 33.4874 59.5026 33.4823 59.5099C33.4476 59.5599 33.437 59.6544 33.4264 59.7415C33.4193 59.7994 33.4123 59.854 33.3977 59.8896C33.371 59.9547 33.376 60.0295 33.3801 60.0848C33.3823 60.1135 33.384 60.137 33.3803 60.1511C33.3774 60.1624 33.3698 60.168 33.362 60.1736C33.3552 60.1786 33.3482 60.1837 33.3438 60.1929C33.2901 60.3038 33.3066 60.3671 33.3347 60.4593C33.3501 60.5101 33.3686 60.5696 33.379 60.6508C33.3883 60.7367 33.3871 60.762 33.3547 60.7972C33.3816 60.8391 33.4091 60.8809 33.4372 60.9224C33.4475 60.9192 33.4543 60.8923 33.4633 60.8476C33.4793 60.7679 33.5397 60.736 33.5866 60.71C33.6083 60.698 33.627 60.6873 33.6369 60.6744C33.6896 60.6054 33.6639 60.5175 33.6432 60.4401C33.6316 60.3975 33.6213 60.358 33.6242 60.3267C33.6254 60.3134 33.621 60.3006 33.6165 60.2875C33.6131 60.2774 33.6096 60.2672 33.6086 60.2564C33.6016 60.1781 33.6277 60.1175 33.6503 60.0609C33.6633 60.0285 33.6753 59.9973 33.6803 59.9653C33.6818 59.9555 33.6827 59.9456 33.6836 59.936C33.6849 59.922 33.6861 59.9086 33.689 59.897C33.6956 59.8704 33.7128 59.8511 33.7314 59.8298C33.7409 59.8189 33.7507 59.8075 33.7596 59.7944C33.7712 59.7774 33.7719 59.7459 33.7726 59.7131C33.7731 59.6898 33.7736 59.6659 33.7777 59.6457C33.7851 59.6092 33.8076 59.5931 33.8282 59.578C33.8372 59.5715 33.8457 59.5649 33.8527 59.5572C33.8555 59.554 33.8562 59.5485 33.8553 59.5412C33.888 59.511 33.9181 59.4801 33.9466 59.4497C34.0906 59.2957 34.1911 59.1616 34.4134 59.1689C34.4558 59.17 34.4953 59.1528 34.5315 59.1265C34.6715 59.1065 34.8123 59.079 34.9533 59.0433C35.0106 59.0935 35.0695 59.1298 35.1292 59.1503C35.2416 59.1887 35.3249 59.162 35.421 59.1272C35.4923 59.1012 35.5708 59.0709 35.6789 59.0534C35.8604 59.024 36.0415 58.9681 36.2121 58.8588C36.3822 58.7506 36.5579 58.5985 36.6681 58.4776C36.7281 58.4124 36.8353 58.377 36.9355 58.3388C37.0763 58.2857 37.2035 58.2259 37.149 58.1094C37.1316 58.0723 37.0918 58.0228 37.0525 57.9755C37.0246 57.9418 36.997 57.9091 36.978 57.8821C37.0044 57.8557 37.0305 57.8288 37.0565 57.8016C37.1506 57.7806 37.2683 57.7232 37.2393 57.5984C37.2647 57.5683 37.2898 57.5378 37.3141 57.5081C37.3664 57.4427 37.4166 57.3773 37.4657 57.3093C37.4818 57.2872 37.4979 57.2645 37.5138 57.2416C37.514 57.2414 37.5141 57.2412 37.5143 57.241C37.5463 57.1949 37.5778 57.148 37.6083 57.1008C37.6214 57.0806 37.6343 57.0603 37.6472 57.0397C37.6796 56.9877 37.7113 56.9347 37.7419 56.8813C37.7582 56.8532 37.7743 56.8241 37.7901 56.7954C37.8159 56.7487 37.8411 56.7007 37.8656 56.6522C37.9053 56.5733 37.9429 56.4951 37.979 56.4135C37.985 56.4002 37.9988 56.3886 38.0182 56.3814C38.0376 56.3741 38.061 56.3718 38.0842 56.3752C38.1074 56.3786 38.1291 56.3876 38.1455 56.4004C38.1618 56.4133 38.1712 56.4289 38.1726 56.4439C38.1808 56.536 38.1867 56.627 38.1893 56.7209C38.191 56.7787 38.1918 56.8368 38.1914 56.8944C38.1913 56.9298 38.1904 56.9659 38.1894 57.0013C38.1875 57.0684 38.1839 57.1365 38.1788 57.2045C38.1768 57.2313 38.1746 57.2581 38.1722 57.285C38.1666 57.3478 38.1594 57.4113 38.1509 57.4748C38.1509 57.4752 38.1508 57.4756 38.1508 57.476C38.1466 57.5073 38.1422 57.5385 38.1375 57.5694C38.1229 57.6645 38.1057 57.759 38.0846 57.8553C38.0741 57.9053 38.0619 57.9567 38.049 58.0082C38.0417 58.0369 38.0343 58.0654 38.0269 58.0935C38.0227 58.1088 38.0183 58.1242 38.0139 58.1397C37.9137 58.4971 37.7723 58.8476 37.588 59.1857C37.4046 59.5228 37.18 59.8451 36.9196 60.1423C36.6585 60.4402 36.3613 60.7132 36.0328 60.954C35.0113 61.7095 33.6655 62.1365 32.2944 62.0781C30.8808 62.0301 29.4262 61.4538 28.3192 60.4461C28.0071 60.1648 27.7148 59.8425 27.4616 59.5012C27.2057 59.1561 26.9865 58.7921 26.8007 58.399C26.7443 58.2798 26.69 58.1553 26.6386 58.0259Z" fill="black"/>
</svg>
