<svg width="75" height="73" viewBox="0 0 75 73" fill="none" xmlns="http://www.w3.org/2000/svg">
<path d="M14.2972 20.9795C15.0721 21.8927 16.537 22.0525 17.3852 22.8982C18.4384 23.9482 18.8832 25.64 20.0534 26.5779C21.2174 27.5097 22.4372 28.3959 23.6925 29.24C24.9489 30.0852 26.2426 30.89 27.5647 31.6707C28.8845 32.4491 30.2329 33.2035 31.5944 33.9418C32.5193 34.4433 33.4517 34.9387 34.386 35.4306C34.796 35.6467 35.2055 35.8614 35.6161 36.0765C35.9226 36.2368 36.2291 36.3972 36.5356 36.5575C36.5784 36.5796 36.6513 36.5689 36.7406 36.5255C36.83 36.4819 36.928 36.4097 37.0159 36.3217C37.1039 36.2337 37.1761 36.1354 37.2194 36.0461C37.2624 35.9571 37.2725 35.8847 37.25 35.8424C37.0854 35.5362 36.9208 35.23 36.7562 34.9238C36.5733 34.5839 36.391 34.2442 36.2076 33.9048C35.8055 34.2246 35.4753 34.4419 35.2485 34.457C35.1328 34.4647 35.0284 34.4115 35.0375 34.2865C35.0457 34.1741 35.1139 34.0274 35.1791 33.8878C35.2472 33.7417 35.3119 33.6031 35.3002 33.5195C35.2804 33.3778 35.3569 33.1478 35.4373 32.9062C35.4666 32.8182 35.4964 32.7286 35.5223 32.6413C35.3462 32.3184 35.1695 31.996 34.9922 31.6744C34.8574 31.6164 34.7377 31.5589 34.6773 31.4689C34.6232 31.3882 34.6377 31.2502 34.6711 31.0939C34.6435 31.0442 34.6159 30.9945 34.5884 30.9449C34.4102 30.6245 34.2307 30.3053 34.0506 29.9866C33.7597 29.8884 33.4623 29.778 33.156 29.5539C33.0241 29.4573 32.8592 29.3966 32.7009 29.3382C32.4669 29.252 32.2469 29.1707 32.1668 28.9868C32.1132 28.8639 31.9694 28.822 31.8259 28.7803C31.6334 28.7243 31.4414 28.6685 31.4679 28.4172C31.4846 28.2592 31.5259 28.088 31.5643 27.9294C31.6254 27.677 31.679 27.4564 31.6128 27.3713C31.4883 27.2114 31.4794 26.9741 31.4717 26.7649C31.4623 26.5132 31.4545 26.3021 31.2489 26.3155C31.2177 26.3176 31.179 26.323 31.1351 26.3293C30.904 26.3626 30.5342 26.4158 30.4233 26.0724C30.3839 25.9501 30.4155 25.7666 30.4467 25.5866C30.4921 25.3245 30.5361 25.0702 30.3571 25.0239C30.3303 25.017 30.2711 25.0411 30.2171 25.0631C30.1484 25.0912 30.0884 25.1156 30.1146 25.0684C30.1914 24.9298 30.2615 24.7618 30.3378 24.579C30.3939 24.4447 30.4533 24.3024 30.5211 24.1582C30.2891 23.8065 30.0545 23.4573 29.8168 23.1111C29.708 22.9524 29.5985 22.7944 29.4883 22.6369C29.2577 22.7306 29.0416 22.8067 28.8571 22.8433C28.616 22.891 28.4465 22.81 28.2277 22.7058C28.0667 22.6292 27.8789 22.54 27.6166 22.4799C27.1312 22.3687 26.8668 22.0203 26.7707 21.7236C26.7504 21.6608 26.7313 21.5964 26.7113 21.5271C26.6353 21.2643 26.541 20.936 26.2686 20.4055C26.0109 19.9037 25.7196 19.5491 25.5008 19.2827C25.3891 19.1467 25.2959 19.034 25.2361 18.9361C25.1337 18.7687 24.9969 18.574 24.8595 18.3787C24.6445 18.073 24.428 17.7657 24.3402 17.5569C24.3089 17.4825 24.2802 17.4005 24.2488 17.3122C24.162 17.0675 24.057 16.772 23.836 16.4409C23.604 16.0934 23.385 15.9532 23.1129 15.8522C23.0023 15.8112 22.7978 15.8819 22.5868 15.9551C22.2873 16.059 21.9748 16.1675 21.8996 15.9667C21.882 15.9198 21.8804 15.8527 21.8789 15.7823C21.876 15.6531 21.8731 15.5131 21.7699 15.47C21.7339 15.455 21.6741 15.4699 21.6155 15.4844C21.551 15.5005 21.4879 15.5161 21.4587 15.4914C21.35 15.3991 21.2615 15.2919 21.1829 15.1966C21.0816 15.0738 20.9966 14.9708 20.9056 14.9452C20.7434 14.8994 20.6818 14.7336 20.6198 14.5654C20.5724 14.4369 20.5248 14.3069 20.4311 14.2285C20.1634 14.0047 19.9248 13.5674 19.7421 13.0536C19.6729 12.8592 19.4758 12.8331 19.223 12.7998C19.0657 12.7792 18.8866 12.756 18.7038 12.6874C18.6002 12.6485 18.616 12.5119 18.6305 12.3857C18.6438 12.2694 18.656 12.1618 18.5732 12.1466C18.5001 12.1333 18.3447 12.2341 18.1971 12.3297C18.0329 12.4362 17.8784 12.5363 17.8578 12.466C17.8468 12.4286 17.8814 12.3351 17.9225 12.224C17.9388 12.1801 17.9559 12.1335 17.9718 12.0863C17.9466 12.1131 17.9236 12.1365 17.906 12.1541C17.7818 12.2784 17.67 12.2974 17.5604 12.316C17.5166 12.3234 17.4733 12.3305 17.4296 12.3445C17.2687 12.3959 17.1478 12.3096 17.0736 12.2255C17.0421 12.1899 16.9732 12.1981 16.8929 12.2076C16.8215 12.2161 16.741 12.2257 16.6696 12.2067C16.6289 12.1958 16.5731 12.212 16.5267 12.2257C16.493 12.2356 16.4644 12.2441 16.4501 12.2396C16.4378 12.2358 16.4669 12.1936 16.4997 12.1461C16.5232 12.112 16.5488 12.075 16.5621 12.0475C16.594 11.9818 16.587 11.9454 16.5562 11.9459C16.5419 11.9461 16.5225 11.9544 16.5032 11.9627C16.4807 11.9723 16.4581 11.9821 16.4436 11.979C16.3773 11.9645 16.3786 11.8846 16.38 11.8016C16.3815 11.7103 16.3829 11.6154 16.2948 11.5992C16.2671 11.5942 16.2237 11.6026 16.1816 11.6109C16.1375 11.6196 16.0949 11.6278 16.0735 11.62C15.9866 11.5881 16.0196 11.4435 16.05 11.3105C16.0702 11.222 16.0891 11.1386 16.0709 11.097C16.0375 11.0208 16.1147 10.8847 16.1717 10.7843C16.2013 10.7322 16.2256 10.6896 16.2261 10.6698C16.2144 10.664 16.2019 10.6585 16.1893 10.6536C16.1734 10.6534 16.157 10.6532 16.1518 10.6429C16.1514 10.6421 16.1513 10.641 16.1509 10.6402C16.076 10.6171 15.9912 10.6056 15.9068 10.5943C15.7172 10.569 15.5297 10.5441 15.4633 10.386C15.449 10.352 15.4684 10.2833 15.4881 10.2135C15.5122 10.128 15.5368 10.0405 15.5008 10.0125C15.4149 9.94587 15.2653 9.9415 15.1179 9.93723C14.8962 9.9308 14.6796 9.92443 14.6925 9.70659C14.6968 9.63469 14.7272 9.53827 14.7581 9.44125C14.7752 9.38718 14.7926 9.33271 14.8054 9.28261C14.751 9.34489 14.6983 9.40176 14.6493 9.45479C14.5481 9.5641 14.4615 9.65767 14.4029 9.75215C14.2645 9.97542 14.0637 10.2725 13.8768 10.4487C13.8261 10.4965 13.7724 10.5525 13.7184 10.6091C13.583 10.7509 13.4447 10.8958 13.3413 10.9204C13.2715 10.937 13.1042 10.9678 13.1668 10.8183C13.1805 10.7858 13.2205 10.7342 13.265 10.677C13.3449 10.574 13.4395 10.4521 13.4235 10.3857C13.4208 10.3745 13.4171 10.3632 13.4129 10.3518C13.3961 10.3066 13.377 10.2561 13.4375 10.1696C13.5072 10.07 13.6074 9.97626 13.7241 9.86692C13.8762 9.72453 14.0569 9.55541 14.2354 9.31239C14.2707 9.26433 14.2728 9.23787 14.2744 9.21784C14.2756 9.20373 14.2767 9.19266 14.2888 9.17962C14.3026 9.16467 14.3347 9.13676 14.3752 9.10148C14.5183 8.97702 14.7681 8.75945 14.7106 8.68212C14.6951 8.66122 14.6631 8.65149 14.6343 8.64283C14.5919 8.63008 14.5568 8.61941 14.592 8.5781C14.6053 8.56244 14.6202 8.5459 14.6359 8.52893C14.6093 8.51157 14.5828 8.49422 14.5562 8.47686C14.4825 8.4943 14.4469 8.45088 14.4026 8.39648C14.3919 8.38328 14.3804 8.36953 14.3679 8.35577C14.3152 8.32189 14.2625 8.28795 14.2095 8.25426C14.1559 8.23926 14.0878 8.2342 13.9993 8.24561C13.8218 8.26849 13.5893 8.36645 13.3621 8.4623C13.2663 8.50268 13.1713 8.54281 13.0818 8.57667C13.0851 8.59509 13.0859 8.61382 13.0811 8.63368C13.0483 8.7696 12.9029 8.95632 12.7691 9.12816C12.6801 9.24246 12.5962 9.35026 12.5541 9.43187C12.477 9.58138 12.3409 9.71025 12.2402 9.80557C12.188 9.85502 12.1454 9.89561 12.1254 9.92514C12.1095 9.94884 12.1092 9.96712 12.1088 9.98603C12.1084 10.0025 12.108 10.0197 12.0974 10.0409C11.9681 10.2997 11.8361 10.3928 11.6439 10.5284C11.5379 10.6031 11.4136 10.691 11.2613 10.8265C11.1017 10.9717 11.0596 11.0186 11.0328 11.1133C10.9311 11.1621 10.8295 11.2109 10.7278 11.2597C10.7223 11.2445 10.7615 11.1895 10.8286 11.1003C10.9485 10.941 10.9352 10.8257 10.9249 10.7356C10.9201 10.6939 10.916 10.6575 10.926 10.6247C10.979 10.4501 11.1552 10.3093 11.3103 10.1853C11.3956 10.1171 11.4746 10.0539 11.5231 9.99314C11.5438 9.96715 11.5708 9.9477 11.5982 9.92782C11.6194 9.91245 11.641 9.89685 11.6603 9.87784C11.8 9.73973 11.8671 9.60068 11.9295 9.4716C11.9653 9.39767 11.9996 9.32685 12.045 9.26137C12.0588 9.24142 12.0736 9.22175 12.088 9.20274C12.1091 9.17498 12.1291 9.14846 12.144 9.12342C12.1778 9.06639 12.1845 9.01186 12.1917 8.95229C12.1954 8.92174 12.1992 8.88985 12.207 8.85556C12.2171 8.81113 12.2658 8.75 12.3167 8.68607C12.3526 8.64089 12.3895 8.59428 12.4151 8.55097C12.4612 8.47264 12.4512 8.41765 12.4418 8.36662C12.4378 8.3444 12.4341 8.32267 12.435 8.30033C12.4354 8.29123 12.4427 8.27969 12.4552 8.26627C12.4492 8.17325 12.4463 8.08153 12.4437 7.99199C12.431 7.54306 12.4203 7.15416 11.9848 6.99285C11.9025 6.96236 11.8471 6.89659 11.8066 6.81465C11.5563 6.67331 11.3041 6.53364 11.0507 6.39559C10.8868 6.48201 10.7342 6.53973 10.5956 6.5661C10.3354 6.61559 10.1939 6.54028 10.0269 6.45144C9.90344 6.38575 9.76593 6.31276 9.55622 6.27717C9.20389 6.21738 8.86857 6.12954 8.56553 5.9551C8.26382 5.78142 7.94448 5.55647 7.73521 5.38068C7.62111 5.28486 7.3989 5.28658 7.19194 5.28804C6.90084 5.2901 6.63977 5.29179 6.7511 5.02211C6.78669 4.93595 6.86795 4.80581 6.94684 4.67934C7.00303 4.58926 7.05774 4.50114 7.09457 4.43158C7.03447 4.40452 6.9745 4.37723 6.9142 4.3503C6.70976 4.39976 6.45324 4.41545 6.47841 4.15748C6.41593 4.12999 6.3535 4.10238 6.29239 4.07658C6.16062 4.01868 6.03043 3.9633 5.89912 3.90734C5.8561 3.88924 5.81276 3.87085 5.76928 3.85245C5.76884 3.8523 5.7684 3.85215 5.76796 3.852C5.68043 3.81497 5.59226 3.77764 5.50496 3.74151C5.46762 3.72599 5.43027 3.71047 5.39292 3.69495C5.29805 3.65548 5.2026 3.61562 5.10802 3.57721C5.05789 3.55695 5.00754 3.53624 4.9569 3.51569C4.87474 3.48237 4.79202 3.44873 4.70943 3.41556C4.57587 3.3619 4.44231 3.30913 4.30825 3.2565C4.28625 3.24797 4.25045 3.25442 4.20765 3.27567C4.16479 3.29697 4.1185 3.3311 4.07707 3.37256C4.03563 3.41404 4.00145 3.46048 3.9803 3.50326C3.95926 3.54591 3.9533 3.58119 3.962 3.603C4.0158 3.73602 4.06992 3.86848 4.12476 4.00098C4.15864 4.08289 4.19258 4.16526 4.22661 4.24673C4.2476 4.29697 4.26872 4.34684 4.28942 4.39656C4.32864 4.49034 4.36915 4.58537 4.40945 4.67944C4.42525 4.7165 4.44106 4.75356 4.45686 4.79062C4.49384 4.87739 4.53212 4.96496 4.57001 5.05197C4.57025 5.05249 4.57048 5.05301 4.57071 5.05353C4.58935 5.09633 4.60792 5.13911 4.62626 5.18146C4.68338 5.31168 4.74 5.44073 4.79908 5.5714C4.82877 5.63974 4.86097 5.70971 4.89258 5.7795C4.91018 5.81836 4.92768 5.85722 4.94478 5.89546C4.95428 5.91621 4.96404 5.93711 4.97384 5.95813C5.19514 6.44434 5.41896 6.92303 5.65124 7.39979C5.8822 7.87523 6.11882 8.34625 6.35905 8.81155C6.60013 9.27771 6.84544 9.7384 7.09542 10.195C8.68146 13.0932 10.3946 15.8822 12.31 18.471C12.5829 18.8405 12.8689 19.2137 13.1517 19.5746C13.438 19.9391 13.722 20.2924 14.0186 20.6483C14.1085 20.7567 14.2013 20.8669 14.2972 20.9795Z" fill="black"/>
<path d="M20.9795 58.581C21.8927 57.8061 22.0525 56.3412 22.8982 55.493C23.9482 54.4398 25.64 53.995 26.5779 52.8249C27.5097 51.6608 28.3959 50.441 29.24 49.1857C30.0851 47.9293 30.89 46.6356 31.6706 45.3135C32.4491 43.9937 33.2035 42.6454 33.9418 41.2838C34.4433 40.359 34.9387 39.4265 35.4306 38.4922C35.6467 38.0823 35.8614 37.6728 36.0765 37.2621C36.2368 36.9556 36.3971 36.6491 36.5574 36.3426C36.5796 36.2999 36.5689 36.227 36.5254 36.1377C36.4819 36.0483 36.4097 35.9503 36.3217 35.8623C36.2337 35.7744 36.1353 35.7021 36.0461 35.6589C35.9571 35.6158 35.8847 35.6057 35.8423 35.6283C35.5362 35.7928 35.23 35.9574 34.9238 36.122C34.5838 36.3049 34.2442 36.4872 33.9048 36.6706C34.2246 37.0727 34.4419 37.403 34.457 37.6297C34.4646 37.7454 34.4115 37.8498 34.2864 37.8407C34.1741 37.8325 34.0274 37.7643 33.8878 37.6992C33.7417 37.631 33.603 37.5663 33.5195 37.578C33.3778 37.5978 33.1478 37.5213 32.9061 37.4409C32.8182 37.4117 32.7286 37.3818 32.6412 37.356C32.3184 37.5321 31.996 37.7088 31.6743 37.8861C31.6164 38.0209 31.5589 38.1405 31.4689 38.2009C31.3882 38.255 31.2502 38.2405 31.0939 38.2072C31.0442 38.2347 30.9945 38.2623 30.9448 38.2899C30.6245 38.4681 30.3053 38.6475 29.9866 38.8276C29.8883 39.1185 29.7779 39.416 29.5538 39.7222C29.4573 39.8542 29.3966 40.019 29.3382 40.1774C29.2519 40.4113 29.1707 40.6313 28.9868 40.7114C28.8639 40.765 28.822 40.9089 28.7803 41.0524C28.7243 41.2448 28.6685 41.4369 28.4172 41.4103C28.2591 41.3936 28.088 41.3523 27.9294 41.3139C27.677 41.2528 27.4564 41.1993 27.3712 41.2655C27.2114 41.3899 26.9741 41.3988 26.7649 41.4066C26.5132 41.4159 26.3021 41.4237 26.3155 41.6293C26.3175 41.6605 26.3229 41.6992 26.3293 41.7431C26.3625 41.9743 26.4158 42.344 26.0724 42.4549C25.9501 42.4944 25.7665 42.4627 25.5865 42.4315C25.3245 42.3861 25.0701 42.3421 25.0239 42.5211C25.017 42.5479 25.0411 42.6071 25.0631 42.6611C25.0911 42.7298 25.1156 42.7898 25.0683 42.7636C24.9298 42.6868 24.7617 42.6167 24.579 42.5404C24.4447 42.4843 24.3023 42.4249 24.1582 42.3572C23.8065 42.5892 23.4573 42.8237 23.1111 43.0614C22.9524 43.1702 22.7943 43.2798 22.6369 43.39C22.7306 43.6206 22.8066 43.8367 22.8432 44.0211C22.891 44.2622 22.81 44.4317 22.7058 44.6505C22.6292 44.8115 22.54 44.9994 22.4799 45.2616C22.3686 45.747 22.0203 46.0115 21.7236 46.1075C21.6608 46.1279 21.5964 46.147 21.5271 46.167C21.2643 46.2429 20.936 46.3373 20.4055 46.6097C19.9037 46.8673 19.5491 47.1586 19.2827 47.3775C19.1467 47.4892 19.034 47.5823 18.9361 47.6422C18.7686 47.7446 18.5739 47.8813 18.3787 48.0187C18.073 48.2337 17.7657 48.4503 17.5569 48.5381C17.4825 48.5693 17.4005 48.5981 17.3121 48.6294C17.0674 48.7162 16.7719 48.8213 16.4409 49.0423C16.0934 49.2742 15.9532 49.4932 15.8522 49.7653C15.8112 49.8759 15.8819 50.0804 15.9551 50.2915C16.059 50.5909 16.1675 50.9035 15.9667 50.9787C15.9198 50.9962 15.8526 50.9978 15.7823 50.9993C15.653 51.0022 15.5131 51.0051 15.47 51.1083C15.455 51.1443 15.4698 51.2041 15.4844 51.2627C15.5005 51.3272 15.5161 51.3904 15.4914 51.4195C15.399 51.5282 15.2919 51.6167 15.1966 51.6953C15.0738 51.7966 14.9708 51.8816 14.9451 51.9726C14.8994 52.1348 14.7336 52.1964 14.5654 52.2584C14.4369 52.3058 14.3069 52.3535 14.2285 52.4471C14.0047 52.7148 13.5674 52.9534 13.0536 53.1361C12.8592 53.2053 12.8331 53.4024 12.7998 53.6552C12.7791 53.8125 12.756 53.9916 12.6874 54.1744C12.6484 54.278 12.5119 54.2622 12.3857 54.2477C12.2694 54.2344 12.1617 54.2222 12.1466 54.305C12.1333 54.3781 12.234 54.5335 12.3297 54.6811C12.4362 54.8453 12.5363 54.9998 12.466 55.0205C12.4286 55.0314 12.3351 54.9968 12.224 54.9557C12.1801 54.9394 12.1335 54.9224 12.0863 54.9064C12.1131 54.9316 12.1365 54.9546 12.1541 54.9722C12.2784 55.0964 12.2974 55.2082 12.316 55.3178C12.3234 55.3616 12.3305 55.405 12.3445 55.4487C12.3959 55.6095 12.3096 55.7304 12.2255 55.8047C12.1899 55.8361 12.1981 55.905 12.2076 55.9854C12.2161 56.0567 12.2257 56.1372 12.2067 56.2086C12.1958 56.2493 12.212 56.3051 12.2257 56.3516C12.2356 56.3852 12.2441 56.4139 12.2396 56.4281C12.2357 56.4404 12.1936 56.4113 12.1461 56.3786C12.112 56.355 12.075 56.3295 12.0475 56.3161C11.9818 56.2842 11.9454 56.2912 11.9459 56.3221C11.9461 56.3363 11.9544 56.3558 11.9627 56.3751C11.9723 56.3976 11.9821 56.4201 11.979 56.4346C11.9645 56.5009 11.8846 56.4996 11.8016 56.4982C11.7103 56.4967 11.6154 56.4954 11.5992 56.5834C11.5941 56.6111 11.6026 56.6546 11.6109 56.6967C11.6196 56.7407 11.6278 56.7834 11.62 56.8048C11.5881 56.8916 11.4435 56.8586 11.3104 56.8282C11.222 56.8081 11.1386 56.7892 11.097 56.8073C11.0208 56.8407 10.8847 56.7635 10.7843 56.7065C10.7322 56.6769 10.6895 56.6526 10.6698 56.6521C10.6639 56.6639 10.6585 56.6763 10.6536 56.6889C10.6534 56.7048 10.6532 56.7212 10.6428 56.7264C10.6421 56.7268 10.641 56.7269 10.6402 56.7273C10.6171 56.8022 10.6056 56.887 10.5943 56.9714C10.569 57.161 10.5441 57.3485 10.386 57.4149C10.352 57.4292 10.2833 57.4098 10.2135 57.3901C10.128 57.366 10.0405 57.3414 10.0125 57.3774C9.94586 57.4633 9.94149 57.6129 9.93722 57.7603C9.93079 57.982 9.92442 58.1986 9.70658 58.1857C9.63468 58.1814 9.53826 58.151 9.44124 58.1202C9.38717 58.103 9.3327 58.0856 9.2826 58.0729C9.34488 58.1272 9.40175 58.1799 9.45479 58.229C9.56409 58.3302 9.65767 58.4167 9.75214 58.4753C9.97541 58.6137 10.2725 58.8145 10.4487 59.0014C10.4965 59.0521 10.5525 59.1058 10.6091 59.1598C10.7509 59.2952 10.8958 59.4335 10.9204 59.537C10.937 59.6067 10.9678 59.774 10.8183 59.7114C10.7858 59.6978 10.7342 59.6577 10.6769 59.6132C10.574 59.5333 10.452 59.4388 10.3857 59.4547C10.3745 59.4574 10.3632 59.4611 10.3518 59.4653C10.3066 59.4821 10.2561 59.5012 10.1696 59.4407C10.07 59.371 9.97625 59.2709 9.86692 59.1541C9.72453 59.002 9.55541 58.8213 9.31238 58.6428C9.26432 58.6075 9.23787 58.6054 9.21783 58.6038C9.20373 58.6026 9.19265 58.6015 9.17962 58.5894C9.16466 58.5756 9.13676 58.5436 9.10148 58.503C8.97701 58.3599 8.75944 58.1101 8.68211 58.1676C8.66122 58.1832 8.65148 58.2152 8.64283 58.2439C8.63007 58.2863 8.6194 58.3214 8.57809 58.2863C8.56243 58.2729 8.54589 58.258 8.52892 58.2424C8.51157 58.2689 8.49421 58.2955 8.47686 58.322C8.49429 58.3957 8.45087 58.4314 8.39648 58.4756C8.38327 58.4864 8.36952 58.4979 8.35576 58.5103C8.32189 58.5631 8.28794 58.6158 8.25425 58.6687C8.23925 58.7224 8.23419 58.7904 8.2456 58.879C8.26848 59.0564 8.36644 59.2889 8.46229 59.5161C8.50268 59.6119 8.54281 59.7069 8.57666 59.7964C8.59509 59.7931 8.61381 59.7923 8.63368 59.7971C8.76959 59.83 8.95631 59.9753 9.12816 60.1091C9.24246 60.1981 9.35025 60.282 9.43187 60.3241C9.58137 60.4012 9.71025 60.5373 9.80557 60.638C9.85501 60.6902 9.8956 60.7329 9.92514 60.7528C9.94883 60.7687 9.96712 60.769 9.98603 60.7694C10.0025 60.7698 10.0196 60.7702 10.0409 60.7809C10.2997 60.9101 10.3928 61.0422 10.5284 61.2344C10.6031 61.3403 10.6909 61.4646 10.8265 61.6169C10.9717 61.7765 11.0186 61.8186 11.1133 61.8454C11.1621 61.9471 11.2109 62.0488 11.2597 62.1504C11.2444 62.1559 11.1895 62.1167 11.1003 62.0496C10.941 61.9298 10.8257 61.943 10.7356 61.9533C10.6939 61.9581 10.6575 61.9622 10.6247 61.9523C10.4501 61.8992 10.3092 61.723 10.1853 61.5679C10.1171 61.4826 10.0539 61.4036 9.99313 61.3551C9.96714 61.3344 9.94769 61.3074 9.92781 61.28C9.91244 61.2588 9.89685 61.2372 9.87784 61.218C9.73973 61.0783 9.60067 61.0111 9.47159 60.9487C9.39766 60.913 9.32685 60.8786 9.26136 60.8332C9.24141 60.8194 9.22175 60.8046 9.20274 60.7902C9.17498 60.7691 9.14845 60.7491 9.12341 60.7342C9.06638 60.7004 9.01186 60.6937 8.95228 60.6865C8.92174 60.6828 8.88984 60.679 8.85556 60.6712C8.81112 60.6612 8.74999 60.6124 8.68606 60.5616C8.64088 60.5256 8.59427 60.4887 8.55096 60.4631C8.47263 60.417 8.41764 60.4271 8.36662 60.4364C8.3444 60.4405 8.32267 60.4441 8.30032 60.4432C8.29123 60.4429 8.27969 60.4355 8.26627 60.423C8.17325 60.4291 8.08152 60.432 7.99198 60.4345C7.54306 60.4472 7.15416 60.458 6.99285 60.8934C6.96235 60.9757 6.89659 61.0311 6.81464 61.0716C6.67331 61.3219 6.53364 61.5741 6.39558 61.8276C6.482 61.9915 6.53972 62.144 6.56609 62.2826C6.61558 62.5428 6.54027 62.6843 6.45143 62.8513C6.38575 62.9748 6.31276 63.1123 6.27716 63.322C6.21737 63.6743 6.12953 64.0096 5.9551 64.3127C5.78141 64.6144 5.55647 64.9337 5.38067 65.143C5.28486 65.2571 5.28658 65.4793 5.28804 65.6863C5.2901 65.9774 5.29179 66.2384 5.02211 66.1271C4.93595 66.0915 4.80581 66.0103 4.67933 65.9314C4.58926 65.8752 4.50113 65.8205 4.43157 65.7837C4.40451 65.8438 4.37723 65.9037 4.35029 65.964C4.39976 66.1685 4.41545 66.425 4.15748 66.3998C4.12999 66.4623 4.10238 66.5247 4.07658 66.5858C4.01867 66.7176 3.96329 66.8478 3.90734 66.9791C3.88924 67.0221 3.87085 67.0655 3.85245 67.1089C3.8523 67.1094 3.85215 67.1098 3.852 67.1103C3.81497 67.1978 3.77764 67.286 3.74151 67.3733C3.72599 67.4106 3.71047 67.448 3.69495 67.4853C3.65548 67.5802 3.61562 67.6756 3.57721 67.7702C3.55695 67.8203 3.53624 67.8707 3.51569 67.9213C3.48237 68.0035 3.44873 68.0862 3.41556 68.1688C3.3619 68.3023 3.30913 68.4359 3.2565 68.57C3.24797 68.592 3.25442 68.6278 3.27566 68.6706C3.29697 68.7134 3.3311 68.7597 3.37256 68.8011C3.41404 68.8426 3.46048 68.8768 3.50326 68.8979C3.54591 68.919 3.58119 68.9249 3.603 68.9162C3.73602 68.8624 3.86848 68.8083 4.00098 68.7535C4.08289 68.7196 4.16526 68.6856 4.24673 68.6516C4.29696 68.6306 4.34684 68.6095 4.39656 68.5888C4.49034 68.5496 4.58537 68.5091 4.67944 68.4688C4.7165 68.453 4.75356 68.4372 4.79062 68.4214C4.87739 68.3844 4.96496 68.3461 5.05196 68.3082C5.05249 68.308 5.05301 68.3077 5.05353 68.3075C5.09633 68.2889 5.13911 68.2703 5.18146 68.252C5.31168 68.1948 5.44073 68.1382 5.5714 68.0791C5.63974 68.0494 5.7097 68.0173 5.7795 67.9856C5.81836 67.968 5.85722 67.9505 5.89546 67.9334C5.91621 67.9239 5.93711 67.9142 5.95813 67.9044C6.44434 67.6831 6.92303 67.4593 7.39979 67.227C7.87522 66.996 8.34624 66.7594 8.81155 66.5192C9.27771 66.2781 9.73839 66.0328 10.195 65.7828C13.0932 64.1968 15.8822 62.4836 18.4709 60.5682C18.8405 60.2953 19.2137 60.0093 19.5746 59.7265C19.9391 59.4402 20.2924 59.1562 20.6483 58.8596C20.7567 58.7698 20.8669 58.6769 20.9795 58.581Z" fill="black"/>
<path d="M61.3874 52.008C60.6125 51.0948 59.1476 50.935 58.2994 50.0893C57.2462 49.0393 56.8014 47.3475 55.6313 46.4095C54.4672 45.4778 53.2474 44.5916 51.9922 43.7475C50.7357 42.9023 49.442 42.0975 48.12 41.3168C46.8001 40.5384 45.4518 39.784 44.0902 39.0457C43.1654 38.5442 42.2329 38.0487 41.2986 37.5569C40.8887 37.3408 40.4792 37.1261 40.0685 36.911C39.762 36.7507 39.4555 36.5903 39.149 36.43C39.1063 36.4079 39.0334 36.4186 38.9441 36.462C38.8547 36.5056 38.7567 36.5778 38.6687 36.6657C38.5808 36.7538 38.5085 36.8521 38.4653 36.9413C38.4222 37.0304 38.4121 37.1028 38.4347 37.1451C38.5993 37.4513 38.7639 37.7575 38.9284 38.0637C39.1113 38.4036 39.2937 38.7433 39.477 39.0827C39.8791 38.7629 40.2094 38.5456 40.4361 38.5305C40.5518 38.5228 40.6562 38.5759 40.6471 38.701C40.639 38.8134 40.5707 38.96 40.5056 39.0997C40.4374 39.2458 40.3727 39.3844 40.3844 39.4679C40.4042 39.6097 40.3277 39.8397 40.2473 40.0813C40.2181 40.1693 40.1882 40.2589 40.1624 40.3462C40.3385 40.6691 40.5152 40.9915 40.6925 41.3131C40.8273 41.3711 40.947 41.4286 41.0073 41.5186C41.0615 41.5993 41.0469 41.7373 41.0136 41.8936C41.0411 41.9433 41.0687 41.993 41.0963 42.0426C41.2745 42.3629 41.4539 42.6822 41.634 43.0009C41.9249 43.0991 42.2224 43.2095 42.5286 43.4336C42.6606 43.5302 42.8254 43.5909 42.9838 43.6493C43.2177 43.7355 43.4377 43.8168 43.5179 44.0007C43.5714 44.1236 43.7153 44.1654 43.8588 44.2072C44.0512 44.2631 44.2433 44.319 44.2167 44.5703C44.2 44.7283 44.1587 44.8994 44.1203 45.0581C44.0592 45.3105 44.0057 45.5311 44.0719 45.6162C44.1963 45.7761 44.2052 46.0134 44.213 46.2226C44.2223 46.4742 44.2301 46.6854 44.4357 46.672C44.4669 46.6699 44.5057 46.6645 44.5495 46.6582C44.7807 46.6249 45.1504 46.5717 45.2613 46.9151C45.3008 47.0374 45.2691 47.2209 45.2379 47.4009C45.1925 47.6629 45.1485 47.9173 45.3275 47.9636C45.3543 47.9704 45.4135 47.9464 45.4675 47.9243C45.5362 47.8963 45.5962 47.8719 45.57 47.9191C45.4932 48.0577 45.4232 48.2257 45.3468 48.4085C45.2908 48.5428 45.2313 48.6851 45.1636 48.8293C45.3956 49.1809 45.6301 49.5302 45.8678 49.8764C45.9767 50.035 46.0862 50.1931 46.1964 50.3506C46.427 50.2569 46.6431 50.1808 46.8275 50.1442C47.0686 50.0964 47.2381 50.1775 47.4569 50.2817C47.6179 50.3583 47.8058 50.4475 48.068 50.5076C48.5534 50.6188 48.8179 50.9672 48.914 51.2639C48.9343 51.3267 48.9534 51.3911 48.9734 51.4603C49.0493 51.7232 49.1437 52.0515 49.4161 52.582C49.6738 53.0838 49.9651 53.4384 50.1839 53.7048C50.2956 53.8408 50.3887 53.9535 50.4486 54.0514C50.551 54.2188 50.6877 54.4135 50.8251 54.6088C51.0401 54.9145 51.2567 55.2218 51.3445 55.4306C51.3757 55.505 51.4045 55.587 51.4358 55.6753C51.5227 55.92 51.6277 56.2155 51.8487 56.5466C52.0806 56.8941 52.2996 57.0343 52.5718 57.1352C52.6824 57.1763 52.8868 57.1056 53.0979 57.0324C53.3974 56.9285 53.7099 56.82 53.7851 57.0208C53.8026 57.0677 53.8042 57.1348 53.8058 57.2052C53.8086 57.3344 53.8115 57.4744 53.9147 57.5175C53.9507 57.5325 54.0105 57.5176 54.0692 57.503C54.1337 57.487 54.1968 57.4714 54.2259 57.4961C54.3346 57.5884 54.4231 57.6956 54.5017 57.7908C54.603 57.9137 54.6881 58.0167 54.779 58.0423C54.9413 58.0881 55.0028 58.2539 55.0649 58.4221C55.1123 58.5505 55.1599 58.6806 55.2535 58.7589C55.5212 58.9828 55.7598 59.4201 55.9425 59.9339C56.0117 60.1283 56.2088 60.1544 56.4617 60.1876C56.6189 60.2083 56.798 60.2315 56.9808 60.3001C57.0844 60.339 57.0686 60.4755 57.0542 60.6018C57.0408 60.7181 57.0286 60.8257 57.1114 60.8408C57.1846 60.8542 57.34 60.7534 57.4875 60.6578C57.6518 60.5513 57.8062 60.4512 57.8269 60.5215C57.8379 60.5589 57.8032 60.6524 57.7621 60.7635C57.7459 60.8074 57.7288 60.854 57.7129 60.9012C57.738 60.8744 57.7611 60.851 57.7786 60.8334C57.9028 60.7091 58.0146 60.6901 58.1242 60.6715C58.168 60.6641 58.2114 60.6569 58.2551 60.643C58.416 60.5916 58.5368 60.6779 58.6111 60.762C58.6425 60.7976 58.7114 60.7894 58.7918 60.7799C58.8632 60.7714 58.9437 60.7618 59.015 60.7808C59.0557 60.7917 59.1116 60.7755 59.158 60.7618C59.1916 60.7519 59.2203 60.7434 59.2345 60.7478C59.2468 60.7517 59.2178 60.7939 59.185 60.8413C59.1614 60.8755 59.1359 60.9125 59.1225 60.94C59.0906 61.0057 59.0976 61.0421 59.1285 61.0416C59.1428 61.0414 59.1622 61.0331 59.1815 61.0248C59.204 61.0152 59.2265 61.0054 59.241 61.0085C59.3074 61.023 59.306 61.1029 59.3047 61.1859C59.3032 61.2771 59.3018 61.3721 59.3898 61.3883C59.4176 61.3933 59.461 61.3848 59.5031 61.3766C59.5471 61.3679 59.5898 61.3597 59.6112 61.3675C59.6981 61.3993 59.665 61.544 59.6347 61.677C59.6145 61.7655 59.5956 61.8489 59.6138 61.8905C59.6472 61.9667 59.5699 62.1028 59.5129 62.2032C59.4833 62.2552 59.459 62.2979 59.4585 62.3177C59.4703 62.3235 59.4828 62.3289 59.4954 62.3339C59.5112 62.3341 59.5276 62.3343 59.5328 62.3446C59.5332 62.3454 59.5334 62.3465 59.5337 62.3473C59.6086 62.3704 59.6934 62.3819 59.7778 62.3932C59.9675 62.4185 60.1549 62.4434 60.2213 62.6014C60.2356 62.6355 60.2162 62.7042 60.1966 62.774C60.1725 62.8595 60.1478 62.947 60.1838 62.975C60.2697 63.0416 60.4194 63.046 60.5667 63.0503C60.7884 63.0567 61.005 63.0631 60.9921 63.2809C60.9879 63.3528 60.9574 63.4492 60.9266 63.5462C60.9094 63.6003 60.892 63.6548 60.8793 63.7049C60.9337 63.6426 60.9863 63.5857 61.0354 63.5327C61.1366 63.4234 61.2232 63.3298 61.2817 63.2353C61.4201 63.0121 61.621 62.715 61.8078 62.5388C61.8586 62.491 61.9123 62.4349 61.9662 62.3784C62.1017 62.2366 62.24 62.0917 62.3434 62.0671C62.4131 62.0505 62.5804 62.0197 62.5178 62.1692C62.5042 62.2017 62.4641 62.2533 62.4197 62.3105C62.3398 62.4135 62.2452 62.5354 62.2611 62.6018C62.2638 62.6129 62.2675 62.6243 62.2717 62.6357C62.2886 62.6809 62.3076 62.7314 62.2471 62.8178C62.1774 62.9175 62.0773 63.0112 61.9605 63.1206C61.8084 63.263 61.6278 63.4321 61.4492 63.6751C61.4139 63.7232 61.4118 63.7496 61.4102 63.7696C61.4091 63.7838 61.4079 63.7948 61.3959 63.8079C61.382 63.8228 61.35 63.8507 61.3094 63.886C61.1664 64.0105 60.9165 64.228 60.974 64.3054C60.9896 64.3263 61.0216 64.336 61.0503 64.3447C61.0927 64.3574 61.1279 64.3681 61.0927 64.4094C61.0793 64.425 61.0644 64.4416 61.0488 64.4586C61.0753 64.4759 61.1019 64.4933 61.1284 64.5106C61.2022 64.4932 61.2378 64.5366 61.282 64.591C61.2928 64.6042 61.3043 64.618 61.3167 64.6317C61.3695 64.6656 61.4222 64.6995 61.4751 64.7332C61.5288 64.7482 61.5968 64.7533 61.6854 64.7419C61.8628 64.719 62.0953 64.621 62.3226 64.5252C62.4183 64.4848 62.5133 64.4447 62.6028 64.4108C62.5996 64.3924 62.5987 64.3737 62.6035 64.3538C62.6364 64.2179 62.7817 64.0312 62.9155 63.8593C63.0045 63.745 63.0885 63.6372 63.1305 63.5556C63.2076 63.4061 63.3438 63.2772 63.4444 63.1819C63.4966 63.1325 63.5393 63.0919 63.5592 63.0623C63.5751 63.0387 63.5755 63.0204 63.5759 63.0015C63.5762 62.985 63.5767 62.9678 63.5873 62.9465C63.7165 62.6878 63.8486 62.5947 64.0408 62.4591C64.1468 62.3844 64.2711 62.2965 64.4233 62.161C64.5829 62.0158 64.6251 61.9688 64.6518 61.8742C64.7535 61.8254 64.8552 61.7766 64.9569 61.7278C64.9623 61.743 64.9232 61.7979 64.856 61.8872C64.7362 62.0465 64.7494 62.1618 64.7598 62.2519C64.7646 62.2936 64.7687 62.33 64.7587 62.3628C64.7056 62.5374 64.5294 62.6782 64.3743 62.8022C64.289 62.8704 64.21 62.9336 64.1616 62.9943C64.1408 63.0203 64.1139 63.0398 64.0864 63.0597C64.0652 63.075 64.0436 63.0906 64.0244 63.1096C63.8847 63.2478 63.8175 63.3868 63.7551 63.5159C63.7194 63.5898 63.685 63.6606 63.6397 63.7261C63.6258 63.7461 63.611 63.7657 63.5966 63.7847C63.5755 63.8125 63.5555 63.839 63.5407 63.8641C63.5068 63.9211 63.5001 63.9756 63.4929 64.0352C63.4893 64.0657 63.4854 64.0976 63.4776 64.1319C63.4676 64.1764 63.4188 64.2375 63.368 64.3014C63.332 64.3466 63.2951 64.3932 63.2696 64.4365C63.2234 64.5149 63.2335 64.5698 63.2428 64.6209C63.2469 64.6431 63.2506 64.6648 63.2497 64.6872C63.2493 64.6963 63.2419 64.7078 63.2294 64.7212C63.2355 64.8142 63.2384 64.906 63.2409 64.9955C63.2537 65.4444 63.2644 65.8333 63.6998 65.9946C63.7821 66.0251 63.8376 66.0909 63.878 66.1728C64.1283 66.3142 64.3805 66.4538 64.634 66.5919C64.7979 66.5055 64.9504 66.4478 65.089 66.4214C65.3493 66.3719 65.4908 66.4472 65.6577 66.536C65.7812 66.6017 65.9187 66.6747 66.1284 66.7103C66.4808 66.7701 66.8161 66.858 67.1191 67.0324C67.4208 67.2061 67.7402 67.431 67.9494 67.6068C68.0635 67.7026 68.2857 67.7009 68.4927 67.6994C68.7838 67.6974 69.0449 67.6957 68.9335 67.9654C68.898 68.0515 68.8167 68.1817 68.7378 68.3082C68.6816 68.3982 68.6269 68.4864 68.5901 68.5559C68.6502 68.583 68.7101 68.6103 68.7704 68.6372C68.9749 68.5877 69.2314 68.572 69.2062 68.83C69.2687 68.8575 69.3311 68.8851 69.3923 68.9109C69.524 68.9688 69.6542 69.0242 69.7855 69.0801C69.8285 69.0983 69.8719 69.1166 69.9154 69.135C69.9158 69.1352 69.9162 69.1353 69.9167 69.1355C70.0042 69.1725 70.0924 69.2098 70.1797 69.246C70.217 69.2615 70.2544 69.277 70.2917 69.2925C70.3866 69.332 70.482 69.3719 70.5766 69.4103C70.6268 69.4305 70.6771 69.4512 70.7277 69.4718C70.8099 69.5051 70.8926 69.5388 70.9752 69.5719C71.1088 69.6256 71.2423 69.6784 71.3764 69.731C71.3984 69.7395 71.4342 69.7331 71.477 69.7118C71.5199 69.6905 71.5661 69.6564 71.6076 69.6149C71.649 69.5734 71.6832 69.527 71.7043 69.4842C71.7254 69.4416 71.7313 69.4063 71.7226 69.3845C71.6688 69.2515 71.6147 69.119 71.5599 68.9865C71.526 68.9046 71.4921 68.8222 71.458 68.7408C71.437 68.6905 71.4159 68.6406 71.3952 68.5909C71.356 68.4971 71.3155 68.4021 71.2752 68.308C71.2594 68.271 71.2436 68.2339 71.2278 68.1969C71.1908 68.1101 71.1525 68.0225 71.1146 67.9355C71.1144 67.935 71.1142 67.9345 71.1139 67.934C71.0953 67.8912 71.0767 67.8484 71.0584 67.806C71.0013 67.6758 70.9446 67.5468 70.8856 67.4161C70.8559 67.3478 70.8237 67.2778 70.7921 67.208C70.7745 67.1691 70.757 67.1303 70.7399 67.092C70.7304 67.0713 70.7206 67.0504 70.7108 67.0294C70.4895 66.5432 70.2657 66.0645 70.0334 65.5877C69.8024 65.1123 69.5658 64.6412 69.3256 64.1759C69.0845 63.7098 68.8392 63.2491 68.5892 62.7925C67.0032 59.8943 65.29 57.1052 63.3747 54.5165C63.1018 54.147 62.8157 53.7738 62.5329 53.4129C62.2466 53.0484 61.9626 52.695 61.666 52.3392C61.5762 52.2308 61.4833 52.1206 61.3874 52.008Z" fill="black"/>
<path d="M54.0205 13.6126C53.1073 14.3875 52.9475 15.8523 52.1018 16.7006C51.0518 17.7537 49.36 18.1986 48.4221 19.3687C47.4903 20.5328 46.6041 21.7525 45.76 23.0078C44.9149 24.2643 44.11 25.558 43.3294 26.88C42.5509 28.1999 41.7965 29.5482 41.0582 30.9098C40.5567 31.8346 40.0613 32.7671 39.5694 33.7013C39.3533 34.1113 39.1386 34.5208 38.9235 34.9314C38.7632 35.2379 38.6029 35.5445 38.4426 35.851C38.4204 35.8937 38.4311 35.9666 38.4746 36.0559C38.5181 36.1453 38.5903 36.2433 38.6783 36.3312C38.7663 36.4192 38.8647 36.4915 38.9539 36.5347C39.0429 36.5778 39.1153 36.5879 39.1577 36.5653C39.4638 36.4007 39.77 36.2361 40.0762 36.0716C40.4162 35.8886 40.7558 35.7063 41.0952 35.523C40.7754 35.1209 40.5581 34.7906 40.543 34.5639C40.5354 34.4482 40.5885 34.3438 40.7136 34.3528C40.8259 34.361 40.9726 34.4292 41.1122 34.4944C41.2583 34.5625 41.397 34.6273 41.4805 34.6156C41.6222 34.5958 41.8522 34.6723 42.0939 34.7527C42.1818 34.7819 42.2714 34.8118 42.3588 34.8376C42.6816 34.6615 43.004 34.4848 43.3257 34.3075C43.3836 34.1727 43.4411 34.053 43.5311 33.9927C43.6118 33.9385 43.7498 33.953 43.9061 33.9864C43.9558 33.9588 44.0055 33.9313 44.0552 33.9037C44.3755 33.7255 44.6947 33.546 45.0134 33.366C45.1117 33.0751 45.2221 32.7776 45.4462 32.4714C45.5427 32.3394 45.6034 32.1746 45.6618 32.0162C45.7481 31.7823 45.8293 31.5623 46.0132 31.4821C46.1361 31.4285 46.178 31.2847 46.2197 31.1412C46.2757 30.9488 46.3315 30.7567 46.5828 30.7832C46.7409 30.7999 46.912 30.8413 47.0706 30.8797C47.323 30.9408 47.5436 30.9943 47.6288 30.9281C47.7886 30.8037 48.0259 30.7948 48.2351 30.787C48.4868 30.7777 48.6979 30.7699 48.6845 30.5643C48.6825 30.5331 48.6771 30.4943 48.6707 30.4505C48.6375 30.2193 48.5842 29.8496 48.9276 29.7387C49.0499 29.6992 49.2335 29.7309 49.4135 29.762C49.6755 29.8075 49.9299 29.8515 49.9761 29.6724C49.983 29.6457 49.9589 29.5865 49.9369 29.5324C49.9089 29.4637 49.8844 29.4038 49.9317 29.43C50.0702 29.5068 50.2383 29.5768 50.421 29.6532C50.5553 29.7092 50.6977 29.7687 50.8418 29.8364C51.1935 29.6044 51.5427 29.3699 51.8889 29.1322C52.0476 29.0233 52.2057 28.9138 52.3631 28.8036C52.2694 28.573 52.1934 28.3569 52.1568 28.1725C52.109 27.9314 52.19 27.7619 52.2942 27.5431C52.3708 27.3821 52.46 27.1942 52.5201 26.932C52.6314 26.4466 52.9797 26.1821 53.2764 26.086C53.3392 26.0657 53.4036 26.0466 53.4729 26.0266C53.7357 25.9507 54.064 25.8563 54.5945 25.5839C55.0963 25.3262 55.4509 25.0349 55.7173 24.8161C55.8533 24.7044 55.966 24.6113 56.0639 24.5514C56.2314 24.449 56.4261 24.3123 56.6213 24.1749C56.927 23.9599 57.2343 23.7433 57.4431 23.6555C57.5175 23.6243 57.5995 23.5955 57.6879 23.5642C57.9326 23.4773 58.2281 23.3723 58.5591 23.1513C58.9066 22.9194 59.0468 22.7004 59.1478 22.4282C59.1888 22.3176 59.1181 22.1132 59.0449 21.9021C58.941 21.6026 58.8325 21.2901 59.0333 21.2149C59.0802 21.1974 59.1474 21.1958 59.2177 21.1942C59.347 21.1914 59.4869 21.1885 59.53 21.0853C59.545 21.0493 59.5302 20.9895 59.5156 20.9308C59.4995 20.8663 59.4839 20.8032 59.5086 20.7741C59.601 20.6654 59.7081 20.5769 59.8034 20.4983C59.9262 20.397 60.0292 20.3119 60.0549 20.221C60.1006 20.0587 60.2664 19.9972 60.4346 19.9351C60.5631 19.8877 60.6931 19.8401 60.7715 19.7465C60.9953 19.4788 61.4326 19.2402 61.9464 19.0575C62.1408 18.9883 62.1669 18.7912 62.2002 18.5383C62.2209 18.3811 62.244 18.202 62.3126 18.0192C62.3516 17.9156 62.4881 17.9314 62.6143 17.9458C62.7306 17.9592 62.8383 17.9714 62.8534 17.8886C62.8667 17.8154 62.766 17.66 62.6703 17.5125C62.5638 17.3482 62.4637 17.1937 62.534 17.1731C62.5714 17.1621 62.6649 17.1968 62.776 17.2379C62.8199 17.2541 62.8665 17.2712 62.9137 17.2871C62.8869 17.262 62.8635 17.2389 62.8459 17.2214C62.7216 17.0972 62.7026 16.9854 62.684 16.8757C62.6766 16.832 62.6695 16.7886 62.6555 16.7449C62.6041 16.584 62.6904 16.4632 62.7745 16.3889C62.8101 16.3575 62.8019 16.2886 62.7924 16.2082C62.7839 16.1368 62.7743 16.0563 62.7933 15.985C62.8042 15.9442 62.788 15.8884 62.7743 15.842C62.7644 15.8084 62.7559 15.7797 62.7604 15.7655C62.7643 15.7532 62.8064 15.7822 62.8539 15.815C62.888 15.8386 62.925 15.8641 62.9525 15.8775C63.0182 15.9094 63.0546 15.9024 63.0541 15.8715C63.0539 15.8572 63.0456 15.8378 63.0373 15.8185C63.0277 15.796 63.0179 15.7734 63.021 15.759C63.0355 15.6926 63.1154 15.694 63.1984 15.6953C63.2897 15.6968 63.3846 15.6982 63.4008 15.6102C63.4059 15.5824 63.3974 15.539 63.3891 15.4969C63.3804 15.4529 63.3722 15.4102 63.38 15.3888C63.4119 15.3019 63.5565 15.335 63.6896 15.3653C63.778 15.3855 63.8614 15.4044 63.903 15.3862C63.9792 15.3528 64.1153 15.4301 64.2157 15.4871C64.2678 15.5166 64.3105 15.541 64.3302 15.5415C64.3361 15.5297 64.3415 15.5172 64.3464 15.5046C64.3466 15.4888 64.3468 15.4724 64.3572 15.4672C64.3579 15.4668 64.359 15.4666 64.3598 15.4663C64.3829 15.3914 64.3944 15.3066 64.4057 15.2221C64.431 15.0325 64.4559 14.8451 64.614 14.7787C64.648 14.7644 64.7167 14.7838 64.7865 14.8034C64.872 14.8275 64.9595 14.8522 64.9875 14.8161C65.0541 14.7303 65.0585 14.5806 65.0628 14.4332C65.0692 14.2116 65.0756 13.995 65.2934 14.0079C65.3653 14.0121 65.4617 14.0426 65.5588 14.0734C65.6128 14.0906 65.6673 14.108 65.7174 14.1207C65.6551 14.0663 65.5982 14.0137 65.5452 13.9646C65.4359 13.8634 65.3423 13.7768 65.2479 13.7183C65.0246 13.5799 64.7275 13.379 64.5513 13.1921C64.5035 13.1414 64.4475 13.0877 64.3909 13.0338C64.2491 12.8983 64.1042 12.76 64.0796 12.6566C64.063 12.5869 64.0322 12.4196 64.1817 12.4822C64.2142 12.4958 64.2658 12.5359 64.3231 12.5803C64.426 12.6602 64.548 12.7548 64.6143 12.7389C64.6255 12.7362 64.6368 12.7325 64.6482 12.7283C64.6934 12.7114 64.7439 12.6924 64.8304 12.7529C64.93 12.8225 65.0238 12.9227 65.1331 13.0395C65.2755 13.1916 65.4446 13.3722 65.6876 13.5508C65.7357 13.5861 65.7621 13.5882 65.7822 13.5898C65.7963 13.5909 65.8073 13.5921 65.8204 13.6041C65.8353 13.618 65.8632 13.65 65.8985 13.6906C66.023 13.8336 66.2406 14.0835 66.3179 14.026C66.3388 14.0104 66.3485 13.9784 66.3572 13.9496C66.3699 13.9073 66.3806 13.8721 66.4219 13.9073C66.4376 13.9207 66.4541 13.9356 66.4711 13.9512C66.4884 13.9247 66.5058 13.8981 66.5231 13.8716C66.5057 13.7978 66.5491 13.7622 66.6035 13.7179C66.6167 13.7072 66.6305 13.6957 66.6442 13.6833C66.6781 13.6305 66.7121 13.5778 66.7458 13.5249C66.7608 13.4712 66.7658 13.4032 66.7544 13.3146C66.7315 13.1372 66.6336 12.9047 66.5377 12.6774C66.4973 12.5817 66.4572 12.4867 66.4233 12.3972C66.4049 12.4004 66.3862 12.4013 66.3663 12.3965C66.2304 12.3636 66.0437 12.2183 65.8718 12.0845C65.7575 11.9955 65.6497 11.9115 65.5681 11.8695C65.4186 11.7924 65.2898 11.6562 65.1944 11.5556C65.145 11.5034 65.1044 11.4607 65.0749 11.4408C65.0512 11.4249 65.0329 11.4245 65.014 11.4241C64.9975 11.4238 64.9804 11.4233 64.9591 11.4127C64.7003 11.2835 64.6072 11.1514 64.4716 10.9592C64.3969 10.8532 64.3091 10.7289 64.1735 10.5767C64.0283 10.4171 63.9814 10.3749 63.8867 10.3482C63.8379 10.2465 63.7891 10.1448 63.7403 10.0431C63.7556 10.0377 63.8105 10.0768 63.8997 10.144C64.059 10.2638 64.1743 10.2506 64.2644 10.2402C64.3061 10.2354 64.3425 10.2313 64.3753 10.2413C64.5499 10.2944 64.6908 10.4706 64.8147 10.6257C64.8829 10.711 64.9461 10.79 65.0069 10.8384C65.0329 10.8592 65.0523 10.8861 65.0722 10.9136C65.0876 10.9348 65.1032 10.9564 65.1222 10.9756C65.2603 11.1153 65.3993 11.1825 65.5284 11.2449C65.6023 11.2806 65.6732 11.315 65.7386 11.3603C65.7586 11.3742 65.7783 11.3889 65.7973 11.4034C65.825 11.4245 65.8516 11.4445 65.8766 11.4593C65.9336 11.4932 65.9881 11.4999 66.0477 11.5071C66.0783 11.5107 66.1102 11.5146 66.1444 11.5223C66.1889 11.5324 66.25 11.5812 66.3139 11.632C66.3591 11.668 66.4057 11.7049 66.449 11.7304C66.5274 11.7766 66.5824 11.7665 66.6334 11.7572C66.6556 11.7531 66.6773 11.7494 66.6997 11.7503C66.7088 11.7507 66.7203 11.7581 66.7337 11.7706C66.8267 11.7645 66.9185 11.7616 67.008 11.7591C67.4569 11.7463 67.8458 11.7356 68.0072 11.3002C68.0376 11.2179 68.1034 11.1624 68.1854 11.122C68.3267 10.8717 68.4664 10.6195 68.6044 10.366C68.518 10.2021 68.4603 10.0496 68.4339 9.91099C68.3844 9.65073 68.4597 9.50923 68.5486 9.34225C68.6142 9.21879 68.6872 9.08128 68.7228 8.87158C68.7826 8.51924 68.8705 8.18393 69.0449 7.88088C69.2186 7.57917 69.4435 7.25983 69.6193 7.05056C69.7151 6.93646 69.7134 6.71425 69.712 6.50729C69.7099 6.21619 69.7082 5.95512 69.9779 6.06645C70.0641 6.10205 70.1942 6.1833 70.3207 6.26219C70.4107 6.31838 70.4989 6.37309 70.5684 6.40992C70.5955 6.34982 70.6228 6.28985 70.6497 6.22955C70.6002 6.02512 70.5845 5.76859 70.8425 5.79376C70.87 5.73128 70.8976 5.66886 70.9234 5.60774C70.9813 5.47597 71.0367 5.34578 71.0927 5.21448C71.1108 5.17146 71.1292 5.12811 71.1475 5.08463C71.1477 5.08419 71.1478 5.08375 71.148 5.08332C71.185 4.99579 71.2224 4.90761 71.2585 4.82032C71.274 4.78297 71.2895 4.74562 71.305 4.70828C71.3445 4.61341 71.3844 4.51795 71.4228 4.42337C71.4431 4.37324 71.4638 4.32289 71.4843 4.27225C71.5176 4.19009 71.5513 4.10737 71.5844 4.02478C71.6381 3.89123 71.6909 3.75766 71.7435 3.6236C71.752 3.6016 71.7456 3.5658 71.7243 3.523C71.703 3.48014 71.6689 3.43385 71.6274 3.39242C71.586 3.35098 71.5395 3.3168 71.4967 3.29565C71.4541 3.27461 71.4188 3.26865 71.397 3.27735C71.264 3.33115 71.1315 3.38527 70.999 3.44011C70.9171 3.47399 70.8347 3.50793 70.7533 3.54197C70.703 3.56295 70.6532 3.58408 70.6034 3.60477C70.5097 3.64399 70.4146 3.6845 70.3206 3.7248C70.2835 3.7406 70.2464 3.75641 70.2094 3.77222C70.1226 3.8092 70.035 3.84748 69.948 3.88536C69.9475 3.8856 69.947 3.88583 69.9465 3.88607C69.9037 3.9047 69.8609 3.92327 69.8185 3.94162C69.6883 3.99873 69.5593 4.05535 69.4286 4.11443C69.3603 4.14413 69.2903 4.17632 69.2205 4.20793C69.1816 4.22554 69.1428 4.24303 69.1045 4.26013C69.0838 4.26963 69.0629 4.27939 69.0419 4.2892C68.5557 4.51049 68.077 4.73431 67.6002 4.96659C67.1248 5.19755 66.6538 5.43417 66.1885 5.6744C65.7223 5.91548 65.2616 6.16079 64.805 6.41077C61.9068 7.99681 59.1178 9.70995 56.5291 11.6253C56.1595 11.8982 55.7863 12.1843 55.4254 12.4671C55.0609 12.7534 54.7076 13.0374 54.3517 13.334C54.2433 13.4238 54.1331 13.5167 54.0205 13.6126Z" fill="black"/>
<circle cx="37.7675" cy="11.7675" r="3.3234" transform="rotate(8.2828 37.7675 11.7675)" fill="black"/>
<path d="M31.8176 13.8977C31.4109 12.9248 31.871 11.8793 31.9968 10.989C31.9995 10.9689 32.0022 10.9488 32.0049 10.9286C32.1337 9.8367 32.2175 8.42809 33.1494 7.55244C34.0633 6.69445 35.2503 6.1791 36.4328 6.08362C37.1708 6.02129 37.9034 6.12034 38.5562 6.34958C38.9496 6.48704 39.322 6.67168 39.6589 6.89496C40.5576 7.48764 41.1825 8.35164 41.4663 9.23996C41.662 9.84378 41.7072 10.4604 41.624 11.0209C41.5879 11.267 41.5276 11.5021 41.4471 11.7225C41.3869 11.8866 41.3156 12.0435 41.2352 12.1898C41.2239 12.2102 41.186 12.2262 41.1281 12.2332C41.0702 12.2402 40.9976 12.2378 40.9237 12.227C40.8498 12.2162 40.7794 12.198 40.7255 12.1772C40.6718 12.1564 40.6394 12.1348 40.6332 12.116C40.5893 11.9801 40.5359 11.8505 40.4743 11.7301C40.406 11.596 40.3276 11.4724 40.2421 11.3603C40.5411 11.2914 40.7649 11.2193 40.8527 11.1363C40.8976 11.0942 40.908 11.041 40.8444 11.0204C40.7872 11.0019 40.6931 11.0025 40.6038 11.0049C40.5103 11.0075 40.4221 11.0122 40.3859 10.9971C40.3243 10.9714 40.1883 10.9734 40.0472 10.9831C39.9958 10.9866 39.9436 10.9911 39.8939 10.9951C39.7986 10.9154 39.6995 10.8465 39.5987 10.7882C39.6094 10.7391 39.6139 10.6941 39.5874 10.6744C39.5635 10.6567 39.4952 10.6697 39.4152 10.6943C39.3994 10.6872 39.3836 10.6805 39.3677 10.6739C39.2657 10.6316 39.1639 10.5994 39.0637 10.5771C39.0798 10.4738 39.0826 10.3638 39.0295 10.2728C39.0068 10.2339 39.0011 10.173 38.9922 10.1135C38.9796 10.0261 38.9588 9.94129 38.8896 9.95033C38.8438 9.9566 38.8345 9.90097 38.8211 9.84441C38.8043 9.76911 38.7785 9.69158 38.6862 9.77887C38.6284 9.83388 38.5689 9.9063 38.5163 9.97497C38.4326 10.0842 38.3669 10.1838 38.3415 10.1831C38.2934 10.1818 38.2264 10.2626 38.1742 10.3367C38.1101 10.4255 38.0666 10.504 38.0611 10.4078C38.0602 10.3932 38.0596 10.3739 38.0587 10.352C38.0557 10.271 38.046 10.1551 38.0068 10.1235C37.9905 10.1102 37.9696 10.1122 37.945 10.139C37.9157 10.1712 37.884 10.2601 37.858 10.3482C37.8192 10.4764 37.7936 10.6022 37.7684 10.5457C37.7646 10.5373 37.7605 10.502 37.7564 10.4697C37.7512 10.4287 37.7459 10.393 37.7437 10.4241C37.7371 10.5156 37.7279 10.6169 37.7219 10.7272C37.7174 10.8082 37.7147 10.894 37.7148 10.9841C37.6752 11.0375 37.6448 11.0917 37.6217 11.1444C37.6112 11.1686 37.6021 11.1925 37.5945 11.216C37.5457 11.0872 37.4956 10.9732 37.4512 10.8895C37.393 10.7803 37.3544 10.7548 37.3027 10.7247C37.2642 10.7028 37.2186 10.6782 37.1422 10.6222C36.9985 10.5194 36.9373 10.6041 36.9508 10.7017C36.9532 10.7226 36.9567 10.7442 36.9612 10.7674C36.979 10.8552 37.0044 10.9634 37.0323 11.0943C37.0601 11.2172 37.055 11.2726 37.0508 11.3166C37.049 11.3387 37.0482 11.3568 37.0566 11.375C37.0708 11.4063 37.0821 11.4385 37.0955 11.4692C37.1163 11.5171 37.1424 11.5611 37.1869 11.592C37.2027 11.603 37.2229 11.615 37.2447 11.6271C37.3007 11.6586 37.3698 11.6899 37.4141 11.7161C37.4175 11.7181 37.4208 11.7201 37.4239 11.7221C37.4698 11.7498 37.4364 11.7537 37.3635 11.7678C37.3339 11.7731 37.2172 11.7795 37.0969 11.7921C36.9262 11.8087 36.749 11.8415 36.8045 11.8626C36.8175 11.8672 36.8458 11.8704 36.8755 11.873C36.93 11.8781 36.989 11.88 36.9654 11.8946C36.9573 11.8998 36.9265 11.9083 36.8965 11.9171C36.8635 11.9268 36.8314 11.9369 36.8304 11.942C36.8269 11.9609 36.8384 11.9766 36.8489 11.9898C36.8625 12.0069 36.8742 12.0203 36.8506 12.0382C36.8086 12.0705 36.8579 12.0786 36.907 12.0814C36.9446 12.084 36.9822 12.084 36.9817 12.0992C36.98 12.1436 37.0846 12.1617 37.2263 12.1209C37.2797 12.1053 37.2261 12.1554 37.1652 12.2292C37.1271 12.2748 37.0859 12.3293 37.0642 12.3783C37.052 12.4061 37.1079 12.3716 37.1577 12.3374C37.2037 12.3061 37.2447 12.2754 37.2292 12.3006C37.2154 12.3228 37.1417 12.4028 37.0731 12.48C36.9966 12.5658 36.9265 12.6483 36.9487 12.6403C36.9604 12.6359 37.0025 12.6008 37.0512 12.5579C37.0705 12.5409 37.0908 12.5228 37.1109 12.5049C37.096 12.5212 37.0829 12.5358 37.0729 12.5469C37.0024 12.6253 36.973 12.6735 36.9458 12.7219C36.9349 12.7412 36.9243 12.7604 36.9113 12.7815C36.8636 12.8591 36.8769 12.889 36.8965 12.8988C36.9047 12.9029 36.8914 12.9339 36.8768 12.9705C36.8637 13.003 36.8496 13.0401 36.8479 13.0661C36.8469 13.081 36.8344 13.1095 36.8241 13.1334C36.8167 13.1507 36.8104 13.1655 36.8106 13.1707C36.8107 13.1751 36.8295 13.1513 36.8505 13.1244C36.8656 13.1051 36.8819 13.0841 36.8933 13.0709C36.9206 13.0393 36.9325 13.0323 36.9289 13.0458C36.9272 13.0521 36.9221 13.0628 36.9171 13.0735C36.9112 13.0859 36.9054 13.0985 36.905 13.104C36.9033 13.1291 36.9321 13.1065 36.961 13.0823C36.9929 13.0557 37.0245 13.027 37.0219 13.0607C37.0211 13.0713 37.0145 13.0929 37.0083 13.1139C37.0018 13.136 36.9958 13.1573 36.9969 13.1645C37.0016 13.1938 37.0523 13.1353 37.0964 13.08C37.1259 13.0433 37.1527 13.0082 37.164 13.0026C37.185 12.9926 37.2301 12.9138 37.2625 12.8552C37.2793 12.8248 37.293 12.7998 37.2984 12.7928C37.299 12.7959 37.2995 12.7994 37.2999 12.8031C37.2987 12.8099 37.2976 12.8169 37.3 12.8156C37.3002 12.8155 37.3004 12.8152 37.3006 12.815C37.3013 12.8394 37.299 12.8722 37.2974 12.9051C37.2935 12.9789 37.2966 13.0538 37.3362 13.0261C37.3447 13.0202 37.3623 12.9867 37.3797 12.9524C37.4009 12.9104 37.4216 12.867 37.4273 12.8723C37.4408 12.8849 37.4403 12.9488 37.4435 13.0123C37.4473 13.1077 37.4616 13.2022 37.5074 13.1113C37.5223 13.0812 37.5403 13.0298 37.5573 12.9777C37.5668 12.9487 37.5761 12.9193 37.5845 12.8937C37.5757 12.9424 37.5678 12.9881 37.5603 13.0308C37.5449 13.1188 37.5317 13.1941 37.5158 13.2573C37.4785 13.4066 37.4234 13.6112 37.397 13.763C37.39 13.8043 37.3811 13.85 37.3721 13.896C37.3495 14.0114 37.3255 14.1292 37.3343 14.186C37.3396 14.2242 37.3596 14.3128 37.3941 14.2269C37.4015 14.2082 37.4099 14.1702 37.4191 14.1279C37.4236 14.1077 37.4282 14.0865 37.4329 14.0658C37.446 14.009 37.4602 13.9569 37.4749 13.9431C37.4783 13.9399 37.4819 13.9371 37.4856 13.9346C37.5001 13.9243 37.5162 13.9128 37.5285 13.8515C37.5427 13.7808 37.5505 13.6988 37.5601 13.6034C37.5723 13.479 37.5886 13.3315 37.6171 13.1548C37.6227 13.1198 37.6272 13.1081 37.6305 13.0992C37.6328 13.0929 37.6346 13.0879 37.6358 13.0773C37.6372 13.0652 37.6393 13.0398 37.642 13.0078C37.6511 12.8946 37.6697 12.6972 37.6824 12.69C37.6859 12.6881 37.6888 12.6978 37.6916 12.7066C37.6956 12.7196 37.6992 12.7302 37.7021 12.6979C37.7032 12.6856 37.7043 12.6723 37.7055 12.6586C37.709 12.6627 37.7126 12.6669 37.7162 12.671C37.7188 12.7099 37.7263 12.707 37.7353 12.7031C37.7375 12.7021 37.7398 12.7012 37.7422 12.7007C37.7497 12.709 37.7574 12.7171 37.7652 12.7253C37.7714 12.7418 37.7781 12.7685 37.7863 12.8108C37.8027 12.8955 37.8225 13.0352 37.8475 13.1711C37.8579 13.2284 37.8693 13.2851 37.8813 13.3367C37.8785 13.3434 37.8761 13.3511 37.8745 13.3617C37.8635 13.4342 37.864 13.5752 37.8631 13.7051C37.8626 13.7914 37.8614 13.8729 37.8554 13.9257C37.8441 14.0223 37.8486 14.1346 37.8528 14.2177C37.8549 14.2607 37.8566 14.296 37.8549 14.3171C37.8536 14.3339 37.8495 14.342 37.8451 14.3503C37.8414 14.3575 37.8374 14.3651 37.8351 14.3787C37.8063 14.544 37.8155 14.6393 37.8351 14.778C37.8456 14.8545 37.8589 14.9442 37.8678 15.0661C37.8761 15.1951 37.8761 15.233 37.8546 15.2851C37.8738 15.3485 37.8941 15.4118 37.9152 15.4748C37.9224 15.4704 37.9264 15.4303 37.931 15.3637C37.9394 15.2448 37.9791 15.1994 38.0093 15.1633C38.0233 15.1466 38.0352 15.132 38.0411 15.1133C38.0718 15.0138 38.0473 14.8808 38.0286 14.7636C38.0181 14.6991 38.0089 14.6394 38.0083 14.5929C38.0081 14.573 38.0044 14.5536 38.0007 14.5338C37.9979 14.5184 37.9951 14.5028 37.9937 14.4867C37.9838 14.3692 37.9943 14.2805 38.0019 14.1982C38.0063 14.1511 38.0099 14.1058 38.0094 14.0586C38.0092 14.0442 38.0087 14.0296 38.0082 14.0153C38.0074 13.9946 38.0067 13.9748 38.007 13.9577C38.0077 13.9189 38.0146 13.892 38.0216 13.8626C38.0252 13.8476 38.0289 13.8318 38.0318 13.8135C38.0355 13.7897 38.0317 13.7431 38.0277 13.6946C38.0248 13.6602 38.0217 13.6249 38.0208 13.5955C38.0192 13.5424 38.0273 13.522 38.0345 13.503C38.0376 13.4947 38.0406 13.4865 38.0425 13.4762C38.0433 13.472 38.0427 13.464 38.0411 13.4531C38.051 13.4142 38.059 13.3745 38.0657 13.3356C38.1013 13.1398 38.0968 12.9758 38.2049 13.0624C38.2259 13.0785 38.2398 13.0689 38.2484 13.0468C38.3124 13.072 38.3809 13.0941 38.4536 13.1118C38.512 13.2012 38.567 13.2732 38.6174 13.3254C38.7122 13.4233 38.7625 13.4266 38.8206 13.429C38.864 13.4305 38.9119 13.4315 38.9949 13.4626C39.1343 13.5148 39.2746 13.5372 39.3913 13.5029C39.5075 13.4694 39.6245 13.4013 39.6931 13.3392C39.7303 13.306 39.8373 13.3227 39.9399 13.3317C40.0835 13.3455 40.2184 13.3425 40.1033 13.2214C40.0665 13.1828 39.9966 13.1252 39.9279 13.0704C39.8789 13.0314 39.8308 12.9937 39.7957 12.9645C39.8177 12.9548 39.8395 12.9447 39.8616 12.9342C39.9725 12.9567 40.1042 12.9549 40.0204 12.8517C40.0431 12.8388 40.0655 12.8255 40.0878 12.8125C40.1353 12.7834 40.1822 12.7534 40.2289 12.7211C40.2443 12.7106 40.2598 12.6996 40.2752 12.6885C40.2753 12.6884 40.2755 12.6883 40.2757 12.6882C40.3067 12.6658 40.3376 12.6424 40.3682 12.6185C40.3813 12.6082 40.3943 12.5978 40.4073 12.5872C40.4402 12.5603 40.4728 12.5323 40.5051 12.5036C40.5223 12.4885 40.5393 12.4726 40.5564 12.4569C40.584 12.4312 40.6115 12.4044 40.6387 12.3769C40.6828 12.3322 40.726 12.2868 40.7686 12.2383C40.7756 12.2304 40.7946 12.2247 40.8224 12.2223C40.8503 12.22 40.8846 12.2213 40.9194 12.2263C40.9542 12.2314 40.9875 12.2401 41.0133 12.2508C41.0391 12.2615 41.055 12.2734 41.059 12.2839C41.0829 12.3481 41.1049 12.4124 41.1244 12.4797C41.1365 12.5211 41.148 12.5631 41.1584 12.6051C41.1648 12.6309 41.1706 12.6572 41.1764 12.6833C41.1872 12.7326 41.1967 12.7831 41.2049 12.8339C41.2082 12.854 41.2112 12.8741 41.2141 12.8943C41.221 12.9416 41.2265 12.9897 41.2309 13.0382C41.2309 13.0385 41.231 13.0388 41.231 13.0391C41.2332 13.063 41.2351 13.0869 41.2369 13.1107C41.2418 13.1839 41.2445 13.2573 41.2439 13.3328C41.2442 13.3721 41.243 13.4126 41.2412 13.4534C41.2402 13.4761 41.2391 13.4988 41.2378 13.5212C41.237 13.5334 41.236 13.5457 41.235 13.558C41.214 13.8438 41.1556 14.134 41.0567 14.4214C40.9585 14.7081 40.8209 14.9903 40.6471 15.2574C40.4728 15.5249 40.262 15.7775 40.0179 16.0065C39.261 16.7251 38.1533 17.2072 36.9695 17.2494C35.7509 17.3056 34.4239 16.8765 33.3973 16.0204C33.1078 15.7819 32.8349 15.5035 32.597 15.2052C32.3567 14.9035 32.149 14.5818 31.9722 14.2312C31.9184 14.1249 31.8667 14.0136 31.8176 13.8977Z" fill="black"/>
<circle cx="38.7675" cy="60.7675" r="3.3234" transform="rotate(8.2828 38.7675 60.7675)" fill="black"/>
<path d="M32.8176 62.8977C32.4109 61.9248 32.871 60.8793 32.9968 59.989C32.9995 59.9689 33.0022 59.9488 33.0048 59.9286C33.1337 58.8367 33.2175 57.4281 34.1494 56.5524C35.0633 55.6944 36.2502 55.1791 37.4327 55.0836C38.1708 55.0213 38.9034 55.1203 39.5562 55.3496C39.9496 55.487 40.322 55.6717 40.6589 55.895C41.5576 56.4876 42.1824 57.3516 42.4663 58.24C42.662 58.8438 42.7072 59.4604 42.624 60.0209C42.5878 60.267 42.5276 60.5021 42.447 60.7225C42.3869 60.8866 42.3155 61.0435 42.2352 61.1898C42.2239 61.2102 42.1859 61.2262 42.1281 61.2332C42.0702 61.2402 41.9976 61.2378 41.9237 61.227C41.8498 61.2162 41.7794 61.198 41.7255 61.1772C41.6718 61.1564 41.6394 61.1348 41.6332 61.116C41.5893 60.9801 41.5359 60.8505 41.4743 60.7301C41.406 60.596 41.3276 60.4724 41.2421 60.3603C41.5411 60.2914 41.7648 60.2193 41.8527 60.1363C41.8976 60.0942 41.908 60.041 41.8444 60.0204C41.7872 60.0019 41.6931 60.0025 41.6038 60.0049C41.5103 60.0075 41.422 60.0122 41.3859 59.9971C41.3243 59.9714 41.1883 59.9734 41.0472 59.9831C40.9958 59.9866 40.9436 59.9911 40.8939 59.9951C40.7985 59.9154 40.6994 59.8465 40.5986 59.7882C40.6094 59.7391 40.6139 59.6941 40.5874 59.6744C40.5635 59.6567 40.4952 59.6697 40.4152 59.6943C40.3994 59.6872 40.3836 59.6805 40.3677 59.6739C40.2657 59.6316 40.1639 59.5994 40.0637 59.5771C40.0797 59.4738 40.0826 59.3638 40.0295 59.2728C40.0067 59.2339 40.0011 59.173 39.9922 59.1135C39.9796 59.0261 39.9587 58.9413 39.8896 58.9503C39.8438 58.9566 39.8344 58.901 39.8211 58.8444C39.8043 58.7691 39.7785 58.6916 39.6862 58.7789C39.6284 58.8339 39.5689 58.9063 39.5163 58.975C39.4326 59.0842 39.3669 59.1838 39.3415 59.1831C39.2934 59.1818 39.2264 59.2626 39.1741 59.3367C39.1101 59.4255 39.0665 59.504 39.0611 59.4078C39.0602 59.3932 39.0596 59.3739 39.0586 59.352C39.0557 59.271 39.046 59.1551 39.0068 59.1235C38.9905 59.1102 38.9695 59.1122 38.945 59.139C38.9157 59.1712 38.884 59.2601 38.858 59.3482C38.8192 59.4764 38.7936 59.6022 38.7684 59.5457C38.7646 59.5373 38.7605 59.502 38.7563 59.4697C38.7512 59.4287 38.7459 59.393 38.7437 59.4241C38.7371 59.5156 38.7279 59.6169 38.7219 59.7272C38.7174 59.8082 38.7147 59.894 38.7147 59.9841C38.6752 60.0375 38.6448 60.0917 38.6217 60.1444C38.6112 60.1686 38.6021 60.1925 38.5945 60.216C38.5457 60.0872 38.4956 59.9732 38.4512 59.8895C38.393 59.7803 38.3544 59.7548 38.3027 59.7247C38.2642 59.7028 38.2186 59.6782 38.1422 59.6222C37.9984 59.5194 37.9373 59.6041 37.9508 59.7017C37.9532 59.7226 37.9567 59.7442 37.9612 59.7674C37.979 59.8552 38.0044 59.9634 38.0323 60.0943C38.0601 60.2172 38.055 60.2726 38.0508 60.3166C38.049 60.3387 38.0482 60.3568 38.0565 60.375C38.0708 60.4063 38.0821 60.4385 38.0955 60.4692C38.1162 60.5171 38.1424 60.5611 38.1869 60.592C38.2027 60.603 38.2229 60.615 38.2447 60.6271C38.3007 60.6586 38.3697 60.6899 38.4141 60.7161C38.4175 60.7181 38.4208 60.7201 38.4239 60.7221C38.4698 60.7498 38.4364 60.7537 38.3635 60.7678C38.3339 60.7731 38.2172 60.7795 38.0969 60.7921C37.9262 60.8087 37.7489 60.8415 37.8045 60.8626C37.8174 60.8672 37.8457 60.8704 37.8754 60.873C37.93 60.8781 37.9889 60.88 37.9654 60.8946C37.9572 60.8998 37.9265 60.9083 37.8965 60.9171C37.8635 60.9268 37.8314 60.9369 37.8304 60.942C37.8268 60.9609 37.8384 60.9766 37.8489 60.9898C37.8625 61.0069 37.8742 61.0203 37.8506 61.0382C37.8086 61.0705 37.8579 61.0786 37.907 61.0814C37.9446 61.084 37.9822 61.084 37.9817 61.0992C37.9799 61.1436 38.0845 61.1617 38.2263 61.1209C38.2796 61.1053 38.2261 61.1554 38.1652 61.2292C38.1271 61.2748 38.0859 61.3293 38.0642 61.3783C38.052 61.4061 38.1079 61.3716 38.1576 61.3374C38.2037 61.3061 38.2447 61.2754 38.2291 61.3006C38.2154 61.3228 38.1417 61.4028 38.0731 61.48C37.9966 61.5658 37.9265 61.6483 37.9487 61.6403C37.9604 61.6359 38.0024 61.6008 38.0512 61.5579C38.0705 61.5409 38.0908 61.5228 38.1108 61.5049C38.096 61.5212 38.0828 61.5358 38.0729 61.5469C38.0024 61.6253 37.973 61.6735 37.9457 61.7219C37.9348 61.7412 37.9243 61.7604 37.9113 61.7815C37.8636 61.8591 37.8769 61.889 37.8965 61.8988C37.9047 61.9029 37.8914 61.9339 37.8768 61.9705C37.8637 62.003 37.8496 62.0401 37.8479 62.0661C37.8469 62.081 37.8343 62.1095 37.8241 62.1334C37.8166 62.1507 37.8104 62.1655 37.8105 62.1707C37.8107 62.1751 37.8295 62.1513 37.8505 62.1244C37.8656 62.1051 37.8819 62.0841 37.8933 62.0709C37.9206 62.0393 37.9325 62.0323 37.9289 62.0458C37.9272 62.0521 37.9221 62.0628 37.9171 62.0735C37.9112 62.0859 37.9053 62.0985 37.905 62.104C37.9033 62.1291 37.9321 62.1065 37.961 62.0823C37.9929 62.0557 38.0245 62.027 38.0219 62.0607C38.0211 62.0713 38.0144 62.0929 38.0082 62.1139C38.0017 62.136 37.9958 62.1573 37.9969 62.1645C38.0015 62.1938 38.0523 62.1353 38.0964 62.08C38.1259 62.0433 38.1527 62.0082 38.164 62.0026C38.1849 61.9926 38.2301 61.9138 38.2625 61.8552C38.2793 61.8248 38.2929 61.7998 38.2984 61.7928C38.299 61.7959 38.2995 61.7994 38.2999 61.8031C38.2987 61.8099 38.2975 61.8169 38.3 61.8156C38.3001 61.8155 38.3004 61.8152 38.3006 61.815C38.3013 61.8394 38.299 61.8722 38.2974 61.9051C38.2935 61.9789 38.2966 62.0538 38.3362 62.0261C38.3446 62.0202 38.3623 61.9867 38.3796 61.9524C38.4009 61.9104 38.4216 61.867 38.4273 61.8723C38.4408 61.8849 38.4403 61.9488 38.4435 62.0123C38.4473 62.1077 38.4615 62.2022 38.5074 62.1113C38.5222 62.0812 38.5403 62.0298 38.5573 61.9777C38.5668 61.9487 38.5761 61.9193 38.5845 61.8937C38.5757 61.9424 38.5677 61.9881 38.5603 62.0308C38.5449 62.1188 38.5317 62.1941 38.5157 62.2573C38.4785 62.4066 38.4233 62.6112 38.397 62.763C38.39 62.8043 38.3811 62.85 38.3721 62.896C38.3495 63.0114 38.3255 63.1292 38.3342 63.186C38.3396 63.2242 38.3595 63.3128 38.394 63.2269C38.4015 63.2082 38.4099 63.1702 38.4191 63.1279C38.4235 63.1077 38.4281 63.0865 38.4329 63.0658C38.446 63.009 38.4602 62.9569 38.4749 62.9431C38.4783 62.9399 38.4819 62.9371 38.4855 62.9346C38.5001 62.9243 38.5162 62.9128 38.5285 62.8515C38.5427 62.7808 38.5505 62.6988 38.5601 62.6034C38.5723 62.479 38.5886 62.3315 38.6171 62.1548C38.6227 62.1198 38.6272 62.1081 38.6305 62.0992C38.6328 62.0929 38.6346 62.0879 38.6358 62.0773C38.6372 62.0652 38.6393 62.0398 38.6419 62.0078C38.6511 61.8946 38.6697 61.6972 38.6824 61.69C38.6859 61.6881 38.6888 61.6978 38.6916 61.7066C38.6956 61.7196 38.6992 61.7302 38.7021 61.6979C38.7032 61.6856 38.7043 61.6723 38.7055 61.6586C38.709 61.6627 38.7126 61.6669 38.7162 61.671C38.7188 61.7099 38.7263 61.707 38.7353 61.7031C38.7375 61.7021 38.7398 61.7012 38.7422 61.7007C38.7497 61.709 38.7574 61.7171 38.7652 61.7253C38.7714 61.7418 38.778 61.7685 38.7863 61.8108C38.8027 61.8955 38.8225 62.0352 38.8474 62.1711C38.8579 62.2284 38.8693 62.2851 38.8813 62.3367C38.8785 62.3434 38.8761 62.3511 38.8745 62.3617C38.8635 62.4342 38.8639 62.5752 38.8631 62.7051C38.8625 62.7914 38.8614 62.8729 38.8554 62.9257C38.8441 63.0223 38.8486 63.1346 38.8528 63.2177C38.8548 63.2607 38.8566 63.296 38.8549 63.3171C38.8536 63.3339 38.8494 63.342 38.8451 63.3503C38.8413 63.3575 38.8374 63.3651 38.8351 63.3787C38.8063 63.544 38.8155 63.6393 38.8351 63.778C38.8456 63.8545 38.8589 63.9442 38.8678 64.0661C38.8761 64.1951 38.8761 64.233 38.8546 64.2851C38.8738 64.3485 38.894 64.4118 38.9152 64.4748C38.9224 64.4704 38.9263 64.4303 38.931 64.3637C38.9394 64.2448 38.979 64.1994 39.0093 64.1633C39.0233 64.1466 39.0352 64.132 39.0411 64.1133C39.0718 64.0138 39.0473 63.8808 39.0286 63.7636C39.0181 63.6991 39.0089 63.6394 39.0083 63.5929C39.008 63.573 39.0044 63.5536 39.0007 63.5338C38.9979 63.5184 38.995 63.5028 38.9937 63.4867C38.9838 63.3692 38.9943 63.2805 39.0019 63.1982C39.0063 63.1511 39.0099 63.1058 39.0093 63.0586C39.0092 63.0442 39.0087 63.0296 39.0082 63.0153C39.0074 62.9946 39.0067 62.9748 39.007 62.9577C39.0077 62.9189 39.0146 62.892 39.0216 62.8626C39.0252 62.8476 39.0289 62.8318 39.0318 62.8135C39.0355 62.7897 39.0317 62.7431 39.0276 62.6946C39.0247 62.6602 39.0217 62.6249 39.0208 62.5955C39.0192 62.5424 39.0273 62.522 39.0345 62.503C39.0376 62.4947 39.0406 62.4865 39.0425 62.4762C39.0433 62.472 39.0427 62.464 39.041 62.4531C39.051 62.4142 39.059 62.3745 39.0657 62.3356C39.1013 62.1398 39.0968 61.9758 39.2049 62.0624C39.2258 62.0785 39.2398 62.0689 39.2484 62.0468C39.3124 62.072 39.3809 62.0941 39.4536 62.1118C39.512 62.2012 39.567 62.2732 39.6173 62.3254C39.7122 62.4233 39.7625 62.4266 39.8206 62.429C39.864 62.4305 39.9119 62.4315 39.9949 62.4626C40.1343 62.5148 40.2746 62.5372 40.3913 62.5029C40.5075 62.4694 40.6245 62.4013 40.693 62.3392C40.7303 62.306 40.8373 62.3227 40.9399 62.3317C41.0835 62.3455 41.2183 62.3425 41.1033 62.2214C41.0665 62.1828 40.9966 62.1252 40.9279 62.0704C40.8789 62.0314 40.8308 61.9937 40.7957 61.9645C40.8177 61.9548 40.8395 61.9447 40.8616 61.9342C40.9724 61.9567 41.1042 61.9549 41.0204 61.8517C41.0431 61.8388 41.0655 61.8255 41.0878 61.8125C41.1352 61.7834 41.1822 61.7534 41.2289 61.7211C41.2443 61.7106 41.2597 61.6996 41.2752 61.6885C41.2753 61.6884 41.2755 61.6883 41.2757 61.6882C41.3067 61.6658 41.3376 61.6424 41.3682 61.6185C41.3813 61.6082 41.3943 61.5978 41.4073 61.5872C41.4402 61.5603 41.4728 61.5323 41.5051 61.5036C41.5223 61.4885 41.5393 61.4726 41.5563 61.4569C41.584 61.4312 41.6115 61.4044 41.6387 61.3769C41.6828 61.3322 41.726 61.2868 41.7686 61.2383C41.7756 61.2304 41.7946 61.2247 41.8224 61.2223C41.8503 61.22 41.8846 61.2213 41.9194 61.2263C41.9542 61.2314 41.9875 61.2401 42.0133 61.2508C42.0391 61.2615 42.0549 61.2734 42.0589 61.2839C42.0829 61.3481 42.1049 61.4124 42.1244 61.4797C42.1365 61.5211 42.148 61.5631 42.1584 61.6051C42.1648 61.6309 42.1706 61.6572 42.1764 61.6833C42.1872 61.7326 42.1967 61.7831 42.2049 61.8339C42.2082 61.854 42.2112 61.8741 42.2141 61.8943C42.2209 61.9416 42.2265 61.9897 42.2309 62.0382C42.2309 62.0385 42.2309 62.0388 42.231 62.0391C42.2331 62.063 42.2351 62.0869 42.2368 62.1107C42.2418 62.1839 42.2445 62.2573 42.2439 62.3328C42.2442 62.3721 42.243 62.4126 42.2412 62.4534C42.2402 62.4761 42.2391 62.4988 42.2378 62.5212C42.237 62.5334 42.236 62.5457 42.235 62.558C42.2139 62.8438 42.1556 63.134 42.0567 63.4214C41.9585 63.7081 41.8209 63.9903 41.6471 64.2574C41.4728 64.5249 41.262 64.7775 41.0178 65.0065C40.261 65.7251 39.1533 66.2072 37.9694 66.2494C36.7508 66.3056 35.4239 65.8765 34.3973 65.0204C34.1077 64.7819 33.8349 64.5035 33.597 64.2052C33.3567 63.9035 33.149 63.5818 32.9722 63.2312C32.9184 63.1249 32.8667 63.0136 32.8176 62.8977Z" fill="black"/>
</svg>
