<svg width="65" height="54" viewBox="0 0 65 54" fill="none" xmlns="http://www.w3.org/2000/svg">
<path d="M10.9045 22.6205C11.4603 21.4622 12.876 20.8559 13.5202 19.7435C14.3202 18.3625 14.3673 16.5174 15.3094 15.2141C16.2468 13.9188 17.2502 12.6527 18.2986 11.4185C19.3478 10.1827 20.4434 8.97635 21.5728 7.78588C22.7005 6.59835 23.8621 5.42641 25.0405 4.26672C25.8409 3.47903 26.6503 2.69514 27.4624 1.9143C27.8187 1.57141 28.1748 1.23005 28.5319 0.887932C28.7986 0.63282 29.0652 0.377715 29.3319 0.122603C29.3691 0.0872394 29.4439 0.0759365 29.5426 0.0927325C29.6414 0.109614 29.7554 0.152798 29.8631 0.215031C29.9709 0.277323 30.0655 0.354747 30.1291 0.431814C30.1926 0.508734 30.2194 0.578829 30.2069 0.628483C30.115 0.987922 30.0231 1.34737 29.9312 1.70682C29.829 2.10599 29.7273 2.50466 29.6245 2.90338C29.1512 2.70223 28.773 2.58288 28.5446 2.63648C28.4281 2.66387 28.3369 2.74925 28.375 2.87291C28.4093 2.98397 28.5112 3.11151 28.6083 3.23289C28.7099 3.35984 28.8064 3.48034 28.8143 3.5683C28.8277 3.71758 28.9571 3.92684 29.0931 4.14664C29.1426 4.22664 29.1931 4.30814 29.2391 4.3886C29.1396 4.76843 29.0395 5.1479 28.9386 5.52686C28.8184 5.62635 28.7131 5.72082 28.6741 5.8301C28.6393 5.92811 28.6858 6.06319 28.7553 6.21106C28.7395 6.26964 28.7238 6.32822 28.708 6.38681C28.6059 6.76468 28.5022 7.14187 28.3979 7.51863C28.1323 7.70628 27.8629 7.90818 27.6114 8.22766C27.503 8.36535 27.3537 8.47672 27.2102 8.58384C26.9983 8.74207 26.799 8.89095 26.7624 9.10119C26.7379 9.24172 26.6049 9.32768 26.4723 9.41343C26.2945 9.52844 26.117 9.64321 26.2019 9.88916C26.2553 10.0438 26.3361 10.2042 26.4112 10.3529C26.5305 10.5894 26.6351 10.7962 26.5892 10.9023C26.503 11.1017 26.5495 11.3442 26.5905 11.5581C26.6399 11.8153 26.6813 12.031 26.4743 12.0799C26.4429 12.0873 26.4032 12.0936 26.3582 12.1006C26.1212 12.1371 25.7421 12.1955 25.7121 12.5763C25.7014 12.7119 25.7756 12.8878 25.8484 13.0603C25.9545 13.3113 26.0574 13.5551 25.8906 13.6562C25.8657 13.6712 25.8014 13.6649 25.7426 13.659C25.668 13.6516 25.6028 13.6451 25.6398 13.6849C25.7483 13.8016 25.8569 13.9502 25.9751 14.1117C26.062 14.2304 26.1542 14.3563 26.2549 14.4814C26.1067 14.9073 25.9555 15.3315 25.8004 15.7536C25.7294 15.947 25.6576 16.14 25.585 16.3327C25.3344 16.308 25.1024 16.2967 24.9109 16.3157C24.6607 16.3406 24.5114 16.474 24.3187 16.6458C24.1768 16.7721 24.0113 16.9193 23.7652 17.0596C23.3097 17.3195 23.1286 17.7519 23.1024 18.081C23.0969 18.1506 23.0929 18.2215 23.0892 18.2976C23.0751 18.5863 23.058 18.9468 22.9114 19.5657C22.7728 20.1511 22.5664 20.598 22.4115 20.9337C22.3324 21.1051 22.2662 21.2472 22.2297 21.3644C22.1671 21.5647 22.0769 21.803 21.9861 22.0421C21.844 22.4164 21.7008 22.7928 21.6624 23.0305C21.6487 23.1151 21.6393 23.2068 21.6288 23.3055C21.5997 23.5792 21.5643 23.9098 21.4223 24.3115C21.2732 24.7332 21.0886 24.9414 20.8423 25.1261C20.7421 25.2011 20.5229 25.1918 20.2965 25.1819C19.9752 25.1678 19.64 25.153 19.6122 25.3788C19.6057 25.4315 19.6198 25.4999 19.6347 25.5715C19.6619 25.703 19.6916 25.8453 19.5993 25.9202C19.5671 25.9463 19.5044 25.9494 19.4428 25.9525C19.3751 25.9559 19.3088 25.9592 19.2857 25.9931C19.1994 26.1194 19.1366 26.2546 19.0808 26.3747C19.009 26.5297 18.9486 26.6596 18.8644 26.7131C18.7141 26.8086 18.6917 26.9949 18.6693 27.1837C18.6522 27.328 18.6353 27.4739 18.5607 27.5815C18.3473 27.889 18.2125 28.4035 18.151 28.9783C18.1277 29.1958 17.9383 29.282 17.6953 29.3924C17.5441 29.4611 17.3719 29.5389 17.2066 29.6637C17.1129 29.7345 17.1603 29.8677 17.2041 29.9909C17.2444 30.1044 17.2816 30.2095 17.203 30.2499C17.1335 30.2856 16.956 30.231 16.7873 30.1791C16.5996 30.1214 16.4231 30.0671 16.419 30.1444C16.4168 30.1855 16.4729 30.2695 16.5396 30.3693C16.566 30.4088 16.5938 30.4507 16.6205 30.4935C16.5893 30.4741 16.561 30.4575 16.5395 30.445C16.3874 30.3571 16.2721 30.3718 16.159 30.3863C16.1139 30.3921 16.0692 30.3981 16.0226 30.3972C15.8511 30.3941 15.7513 30.5181 15.6972 30.6256C15.6743 30.6711 15.6041 30.6838 15.5222 30.6985C15.4494 30.7117 15.3674 30.7264 15.301 30.7673C15.2631 30.7906 15.204 30.7912 15.1548 30.7914C15.1191 30.7916 15.0887 30.7917 15.0756 30.8006C15.0643 30.8083 15.103 30.842 15.1465 30.8801C15.1779 30.9074 15.2118 30.9371 15.2315 30.9608C15.2784 31.0175 15.2799 31.0564 15.2492 31.0653C15.235 31.0694 15.2138 31.0669 15.1927 31.0644C15.1682 31.0615 15.1435 31.0585 15.1299 31.066C15.0675 31.1008 15.0874 31.1812 15.1081 31.2647C15.1308 31.3564 15.1543 31.452 15.0707 31.4951C15.0444 31.5086 14.9994 31.5132 14.9557 31.5176C14.91 31.5222 14.8658 31.5269 14.8464 31.5413C14.7676 31.5999 14.8341 31.736 14.8952 31.8613C14.9358 31.9446 14.974 32.0231 14.9657 32.0707C14.9503 32.1579 15.0586 32.2719 15.1385 32.3561C15.18 32.3998 15.214 32.4355 15.2192 32.4553C15.2088 32.4648 15.1977 32.4741 15.1864 32.4829C15.1707 32.4879 15.1544 32.4931 15.1517 32.5051C15.1515 32.506 15.1516 32.5071 15.1514 32.5081C15.0826 32.5542 15.0011 32.5916 14.92 32.6286C14.7379 32.7118 14.5577 32.7938 14.5287 32.9738C14.5224 33.0125 14.5577 33.0761 14.5934 33.1406C14.6373 33.2198 14.6821 33.3007 14.6529 33.3399C14.5832 33.4334 14.4358 33.4832 14.2906 33.5323C14.0723 33.6061 13.8589 33.6783 13.9225 33.8946C13.9435 33.9659 13.9961 34.0542 14.0493 34.1429C14.0789 34.1923 14.1089 34.2421 14.1331 34.2888C14.0647 34.2424 13.9993 34.2009 13.9382 34.1622C13.8124 34.0824 13.7047 34.0142 13.6246 33.9364C13.4354 33.7528 13.167 33.5135 12.9406 33.3922C12.8791 33.3592 12.8128 33.3189 12.7461 33.2781C12.5788 33.1759 12.4079 33.0715 12.2995 33.078C12.2265 33.0824 12.0534 33.1021 12.1503 33.2341C12.1714 33.2629 12.2231 33.3028 12.2806 33.3472C12.3838 33.427 12.506 33.5216 12.5057 33.5935C12.5056 33.6056 12.5046 33.6182 12.503 33.6309C12.4969 33.6818 12.4897 33.7386 12.5699 33.8076C12.6622 33.8871 12.7834 33.9515 12.9247 34.0265C13.1087 34.1243 13.3273 34.2404 13.561 34.4318C13.6071 34.4696 13.6154 34.4958 13.6217 34.5155C13.6261 34.5294 13.6298 34.5403 13.6448 34.5498C13.662 34.5607 13.7003 34.5792 13.7487 34.6025C13.9196 34.6849 14.2181 34.8289 14.1791 34.9245C14.1685 34.9504 14.139 34.9699 14.1125 34.9874C14.0735 35.0132 14.0411 35.0346 14.0856 35.0657C14.1025 35.0775 14.1211 35.0897 14.1406 35.1021C14.1183 35.1277 14.096 35.1533 14.0737 35.1789C13.9965 35.1837 13.9713 35.2384 13.9401 35.3068C13.9325 35.3234 13.9243 35.3408 13.9152 35.3585C13.8708 35.4087 13.8264 35.459 13.7817 35.5092C13.732 35.5406 13.6657 35.5664 13.5752 35.5817C13.3939 35.6125 13.1405 35.5841 12.8928 35.5562C12.7884 35.5445 12.6848 35.5327 12.5882 35.5257C12.5871 35.5061 12.5836 35.4869 12.5742 35.4683C12.5099 35.3409 12.3223 35.1963 12.1496 35.0632C12.0347 34.9747 11.9263 34.8912 11.8656 34.8215C11.7543 34.6938 11.5892 34.6049 11.4672 34.5391C11.4039 34.505 11.3521 34.4769 11.3255 34.4531C11.3042 34.434 11.2996 34.4156 11.2948 34.3966C11.2906 34.3801 11.2862 34.3629 11.2707 34.3446C11.0822 34.1224 10.9296 34.0683 10.7074 33.9896C10.5848 33.9463 10.4411 33.8952 10.2585 33.8045C10.0664 33.7062 10.0137 33.6715 9.9651 33.584C9.85288 33.5655 9.74066 33.5471 9.62844 33.5286C9.62656 33.5457 9.67822 33.5893 9.76557 33.6591C9.92156 33.7837 9.93528 33.9043 9.946 33.9985C9.95096 34.0421 9.95538 34.0801 9.97292 34.1103C10.0662 34.2706 10.2738 34.3595 10.4565 34.4377C10.557 34.4807 10.65 34.5206 10.7123 34.5673C10.7389 34.5873 10.7702 34.5987 10.802 34.6105C10.8266 34.6196 10.8516 34.6288 10.8752 34.6422C11.0459 34.7394 11.1449 34.8595 11.2369 34.971C11.2895 35.0349 11.3401 35.096 11.4003 35.1485C11.4187 35.1644 11.4379 35.1798 11.4567 35.1946C11.4841 35.2163 11.5101 35.237 11.5307 35.2578C11.5775 35.3052 11.5969 35.3583 11.6179 35.4163C11.6286 35.4461 11.6399 35.4771 11.6556 35.5094C11.6759 35.5513 11.7385 35.5983 11.8038 35.6475C11.85 35.6822 11.8975 35.7181 11.9329 35.7541C11.9969 35.8193 11.9997 35.8779 12.0024 35.9323C12.0035 35.956 12.0049 35.9791 12.011 36.0014C12.0135 36.0105 12.0235 36.0199 12.039 36.0297C12.0547 36.1256 12.0732 36.2191 12.0915 36.3104C12.1834 36.768 12.2634 37.1644 11.8691 37.4596C11.7946 37.5154 11.7549 37.5987 11.7339 37.6939C11.5185 37.9127 11.3009 38.1305 11.0817 38.347C10.899 38.3094 10.7343 38.2974 10.5907 38.3128C10.3211 38.3418 10.1983 38.4609 10.0533 38.6014C9.94619 38.7052 9.82681 38.8208 9.62712 38.9204C9.2916 39.0878 8.97949 39.2784 8.71957 39.5468C8.46078 39.8139 8.19647 40.1383 8.02986 40.3795C7.93901 40.511 7.71822 40.5767 7.51262 40.6381C7.22342 40.7244 6.96411 40.802 7.13734 41.0407C7.19271 41.117 7.30361 41.2239 7.41132 41.3278C7.48803 41.4017 7.56282 41.4742 7.61555 41.5333C7.56225 41.5789 7.50913 41.6247 7.4556 41.6702C7.24131 41.6823 6.98323 41.7443 7.06829 41.9975C7.01273 42.0442 6.95724 42.0911 6.90264 42.1357C6.78544 42.2342 6.66922 42.3298 6.55202 42.4262C6.51357 42.4575 6.47487 42.4893 6.43602 42.5211C6.43562 42.5214 6.43523 42.5217 6.43483 42.5219C6.35664 42.5859 6.27788 42.6504 6.19972 42.7135C6.16629 42.7405 6.13287 42.7675 6.09944 42.7945C6.01455 42.8633 5.92916 42.9325 5.8443 43.0001C5.7993 43.0358 5.75419 43.072 5.70875 43.1081C5.63503 43.1668 5.56082 43.2259 5.48663 43.2845C5.36667 43.3793 5.24649 43.4732 5.12579 43.5671C5.10596 43.5824 5.06895 43.5867 5.02155 43.5782C4.97408 43.5697 4.92022 43.5493 4.86947 43.52C4.81871 43.4906 4.77399 43.454 4.74305 43.4172C4.71225 43.3805 4.69812 43.3467 4.70166 43.322C4.72404 43.1712 4.74686 43.0209 4.77038 42.8703C4.78491 42.7772 4.79938 42.6837 4.81416 42.591C4.82327 42.5338 4.83261 42.477 4.84155 42.4205C4.8586 42.3138 4.87665 42.2054 4.8947 42.0981C4.90174 42.0559 4.90879 42.0136 4.91583 41.9713C4.93229 41.8724 4.94986 41.7723 4.96717 41.6728C4.96728 41.6722 4.96739 41.6716 4.9675 41.671C4.97602 41.6221 4.98447 41.5732 4.9928 41.5249C5.01911 41.3759 5.04521 41.2283 5.07336 41.0783C5.0869 41.0002 5.10253 40.9197 5.11763 40.8395C5.12603 40.7949 5.13433 40.7503 5.14238 40.7065C5.14697 40.6826 5.15178 40.6585 5.15661 40.6343C5.26283 40.0757 5.37332 39.5239 5.49264 38.9715C5.61095 38.4208 5.73591 37.8729 5.86579 37.3296C5.9963 36.7852 6.13229 36.2451 6.27386 35.7077C7.1718 32.2968 8.22122 28.9576 9.51789 25.7594C9.70245 25.303 9.89922 24.839 10.0956 24.3883C10.2947 23.933 10.4941 23.4896 10.7053 23.0399C10.7692 22.9031 10.8356 22.7634 10.9045 22.6205Z" fill="black"/>
<path d="M45.2025 15.7384C45.9278 16.7989 45.7451 18.3281 46.3863 19.4422C47.1823 20.8255 48.7566 21.7888 49.4143 23.2563C50.0673 24.7158 50.6621 26.2178 51.2068 27.7429C51.7524 29.2695 52.2493 30.8214 52.7156 32.3947C53.1802 33.9651 53.6143 35.557 54.0294 37.1574C54.3114 38.2444 54.5855 39.3374 54.8557 40.431C54.9746 40.911 55.0921 41.3901 55.2098 41.8705C55.2974 42.229 55.385 42.5875 55.4726 42.9459C55.4846 42.9959 55.457 43.0663 55.3932 43.1434C55.3291 43.2205 55.2347 43.2977 55.127 43.3598C55.0192 43.422 54.9048 43.4652 54.8062 43.4818C54.7079 43.4983 54.6338 43.4865 54.597 43.4508C54.3317 43.1915 54.0663 42.9322 53.801 42.6729C53.5064 42.3847 53.212 42.0973 52.9181 41.809C53.329 41.4996 53.6214 41.2318 53.6892 41.0072C53.7237 40.8926 53.6954 40.7709 53.5692 40.7421C53.4559 40.7163 53.2945 40.7407 53.1408 40.7642C52.9801 40.7887 52.8275 40.812 52.7474 40.7748C52.6114 40.7118 52.3655 40.7193 52.1071 40.7271C52.0131 40.73 51.9173 40.733 51.8246 40.7326C51.5454 40.4565 51.2668 40.18 50.9891 39.9032C50.963 39.7493 50.9339 39.6109 50.8587 39.5226C50.7912 39.4433 50.651 39.4161 50.4882 39.4024C50.4453 39.3594 50.4025 39.3165 50.3596 39.2735C50.0835 38.9961 49.8086 38.7178 49.5345 38.439C49.5048 38.1152 49.4646 37.781 49.3137 37.4034C49.2486 37.2407 49.2269 37.0557 49.2058 36.8779C49.1748 36.6153 49.1455 36.3682 48.9817 36.2314C48.8723 36.1399 48.8643 35.9818 48.8563 35.8241C48.8456 35.6126 48.835 35.4015 48.5795 35.352C48.4189 35.3209 48.2396 35.3107 48.0733 35.3014C47.8088 35.2865 47.5775 35.2736 47.5085 35.1808C47.3789 35.0065 47.1456 34.9255 46.9399 34.8541C46.6925 34.7683 46.485 34.6963 46.5461 34.4925C46.5554 34.4616 46.5698 34.4241 46.5863 34.3817C46.6731 34.1581 46.8121 33.8006 46.4973 33.5842C46.3852 33.5072 46.1958 33.4835 46.01 33.4603C45.7396 33.4267 45.477 33.3939 45.4729 33.1989C45.4723 33.1698 45.5099 33.1173 45.5444 33.0693C45.5882 33.0084 45.6264 32.9552 45.5734 32.9673C45.4181 33.0029 45.2351 33.0227 45.0361 33.0443C44.8898 33.0603 44.7348 33.0771 44.5761 33.1018C44.2813 32.7605 43.9896 32.4174 43.7015 32.0721C43.5696 31.9139 43.4383 31.7552 43.3078 31.596C43.4544 31.3913 43.5802 31.196 43.6595 31.0207C43.763 30.7915 43.7221 30.5956 43.6698 30.3428C43.6313 30.1568 43.5866 29.9399 43.5881 29.6566C43.5908 29.1322 43.3069 28.7591 43.035 28.5719C42.9775 28.5323 42.918 28.4934 42.854 28.4521C42.611 28.2956 42.3073 28.1005 41.8447 27.6641C41.407 27.2513 41.1231 26.8492 40.9099 26.5471C40.8011 26.3929 40.711 26.2646 40.6279 26.1743C40.4856 26.02 40.3244 25.8227 40.1627 25.6245C39.9096 25.3144 39.6552 25.0022 39.4686 24.85C39.4021 24.7959 39.3275 24.7419 39.2472 24.6834C39.0247 24.5213 38.7561 24.3255 38.4792 24.0016C38.1886 23.6616 38.1006 23.3977 38.0638 23.092C38.0489 22.9677 38.1666 22.7825 38.2884 22.5914C38.4612 22.3203 38.6416 22.0373 38.46 21.9004C38.4176 21.8684 38.3513 21.8464 38.2819 21.8235C38.1544 21.7813 38.0163 21.7359 37.9975 21.6185C37.991 21.5776 38.0197 21.5216 38.0478 21.4668C38.0788 21.4065 38.109 21.3474 38.0912 21.3105C38.025 21.1726 37.9394 21.0506 37.8632 20.9422C37.7649 20.8025 37.6826 20.6853 37.6783 20.5855C37.6708 20.4077 37.5206 20.2951 37.3683 20.1813C37.2519 20.0944 37.134 20.0068 37.0781 19.8883C36.9185 19.5498 36.5403 19.1758 36.0733 18.8352C35.8966 18.7062 35.9166 18.4991 35.9426 18.2334C35.9587 18.0682 35.9774 17.8801 35.9519 17.6745C35.9375 17.558 35.7984 17.5325 35.6698 17.5088C35.5514 17.487 35.4418 17.4666 35.4461 17.3783C35.4499 17.3004 35.586 17.1739 35.7153 17.0538C35.8591 16.9201 35.9944 16.7944 35.9295 16.7521C35.8949 16.7297 35.7941 16.7363 35.6744 16.7441C35.627 16.7472 35.5768 16.7503 35.5263 16.7521C35.5587 16.7348 35.5873 16.7186 35.6089 16.7062C35.7611 16.6184 35.806 16.5112 35.8499 16.406C35.8675 16.3641 35.8847 16.3224 35.9087 16.2824C35.9972 16.1355 35.9397 15.9871 35.8736 15.8865C35.8456 15.8439 35.8698 15.7768 35.898 15.6984C35.923 15.6289 35.9513 15.5504 35.949 15.4725C35.9477 15.428 35.9768 15.3765 36.0012 15.3338C36.0189 15.3028 36.034 15.2764 36.0329 15.2607C36.0319 15.247 35.9833 15.2636 35.9286 15.2823C35.8892 15.2958 35.8465 15.3103 35.8162 15.3155C35.7436 15.3278 35.7092 15.3097 35.7168 15.2786C35.7203 15.2643 35.7331 15.2472 35.7458 15.2302C35.7606 15.2104 35.7756 15.1905 35.7758 15.1749C35.7769 15.1035 35.6974 15.0806 35.6147 15.0567C35.5239 15.0305 35.4294 15.0031 35.4339 14.9092C35.4353 14.8796 35.4538 14.8383 35.4718 14.7983C35.4907 14.7564 35.5088 14.7158 35.506 14.6918C35.4947 14.5943 35.3435 14.5838 35.2045 14.5741C35.112 14.5676 35.025 14.5614 34.9879 14.5304C34.9201 14.4735 34.7672 14.5102 34.6543 14.5374C34.5958 14.5514 34.5478 14.5631 34.5281 14.5576C34.525 14.5439 34.5225 14.5297 34.5206 14.5154C34.5241 14.4993 34.5277 14.4827 34.5186 14.4743C34.518 14.4736 34.5169 14.4732 34.5163 14.4726C34.5107 14.3899 34.5191 14.3006 34.5276 14.2119C34.5466 14.0125 34.5656 13.8155 34.4243 13.7004C34.3939 13.6756 34.3212 13.6744 34.2474 13.673C34.157 13.6714 34.0645 13.6698 34.0451 13.6249C33.999 13.5178 34.0295 13.3653 34.0596 13.215C34.1049 12.989 34.149 12.7681 33.93 12.715C33.8577 12.6975 33.755 12.699 33.6515 12.7007C33.5939 12.7016 33.5358 12.7027 33.4832 12.7003C33.5576 12.6643 33.6263 12.6283 33.6903 12.5948C33.8223 12.5257 33.9353 12.4666 34.0426 12.4361C34.2963 12.3641 34.6377 12.2512 34.856 12.1159C34.9152 12.0791 34.9833 12.0418 35.052 12.0045C35.2242 11.9107 35.4001 11.8149 35.4486 11.7178C35.4813 11.6524 35.5508 11.4926 35.388 11.5105C35.3526 11.5144 35.2921 11.5392 35.2249 11.5668C35.1042 11.6163 34.9612 11.6748 34.8991 11.6386C34.8887 11.6325 34.8783 11.6253 34.868 11.6176C34.827 11.5868 34.7815 11.5522 34.6816 11.5871C34.5665 11.6273 34.4502 11.7001 34.3146 11.7849C34.1379 11.8954 33.9281 12.0266 33.6455 12.1333C33.5896 12.1544 33.5629 12.1485 33.5426 12.144C33.5284 12.1409 33.5171 12.1387 33.5014 12.1469C33.4833 12.1564 33.4482 12.1803 33.4037 12.2106C33.247 12.3174 32.973 12.5039 32.9097 12.4223C32.8926 12.4002 32.8904 12.3649 32.8885 12.3332C32.8857 12.2865 32.8833 12.2477 32.8342 12.2707C32.8155 12.2795 32.7956 12.2895 32.7752 12.3002C32.7641 12.2681 32.7531 12.236 32.7421 12.2039C32.7766 12.1346 32.7418 12.0854 32.6981 12.0242C32.6876 12.0093 32.6766 11.9935 32.6658 11.9768C32.6445 11.9132 32.6231 11.8496 32.6021 11.7858C32.5997 11.727 32.6105 11.6567 32.6425 11.5707C32.7065 11.3983 32.8578 11.1931 33.0058 10.9925C33.0682 10.9079 33.1301 10.8241 33.1845 10.7439C33.202 10.7528 33.2204 10.7593 33.2412 10.7605C33.3837 10.7686 33.6027 10.6784 33.8043 10.5953C33.9384 10.54 34.0649 10.488 34.1556 10.4702C34.3219 10.4377 34.4814 10.3392 34.5994 10.2664C34.6606 10.2287 34.7108 10.1979 34.7447 10.1867C34.7719 10.1778 34.7901 10.183 34.809 10.1884C34.8254 10.193 34.8425 10.1978 34.8661 10.1935C35.1528 10.1414 35.2759 10.0362 35.4552 9.88312C35.554 9.7987 35.6701 9.69972 35.84 9.58696C36.0211 9.46977 36.0775 9.44144 36.1776 9.44311C36.2497 9.35516 36.3218 9.26721 36.3939 9.17926C36.3801 9.16908 36.3165 9.19202 36.2124 9.23277C36.0264 9.30554 35.9152 9.25714 35.8282 9.21933C35.788 9.20183 35.7528 9.18664 35.718 9.18675C35.5324 9.18739 35.3517 9.32271 35.1926 9.44181C35.1051 9.50735 35.0241 9.56798 34.9525 9.59853C34.9219 9.61161 34.8963 9.63294 34.8702 9.65462C34.85 9.67139 34.8295 9.68847 34.8062 9.70216C34.6366 9.80142 34.4831 9.8271 34.3405 9.85096C34.2589 9.86463 34.1806 9.87789 34.1051 9.90384C34.0821 9.91175 34.0592 9.92073 34.037 9.92955C34.0045 9.94243 33.9735 9.9546 33.9452 9.96201C33.8808 9.97888 33.8252 9.96912 33.7644 9.95828C33.7333 9.95273 33.7007 9.94693 33.6649 9.94437C33.6185 9.94105 33.5465 9.97176 33.4713 10.0038C33.4181 10.0264 33.3632 10.0495 33.3143 10.0622C33.2259 10.085 33.1737 10.0582 33.1253 10.0333C33.1042 10.0224 33.0835 10.0121 33.0611 10.0062C33.052 10.0038 33.0389 10.0078 33.0226 10.0163C32.9318 9.98195 32.8415 9.95118 32.7533 9.92142C32.311 9.77224 31.9278 9.64332 31.8692 9.15422C31.8582 9.06175 31.8058 8.98578 31.734 8.91999C31.6521 8.62407 31.5723 8.32676 31.4945 8.02866C31.6183 7.88922 31.7111 7.75259 31.7696 7.62051C31.8793 7.37249 31.8375 7.2066 31.7883 7.01084C31.7519 6.86611 31.7116 6.70496 31.7251 6.4822C31.7479 6.10792 31.7389 5.74233 31.6365 5.38306C31.5345 5.02537 31.3858 4.6343 31.2602 4.36939C31.1917 4.22498 31.2452 4.0009 31.2948 3.79217C31.3647 3.49855 31.4272 3.2352 31.1338 3.26584C31.04 3.27565 30.892 3.31826 30.7482 3.3596C30.6458 3.38904 30.5456 3.41758 30.4681 3.43369C30.4552 3.36472 30.4421 3.29582 30.4295 3.2267C30.5262 3.03508 30.6015 2.78057 30.3398 2.72768C30.327 2.65618 30.3142 2.5847 30.3028 2.51509C30.2761 2.36432 30.2515 2.21592 30.2266 2.06621C30.2187 2.01723 30.2105 1.96784 30.2024 1.9183C30.2024 1.91781 30.2023 1.91733 30.2023 1.91684C30.1859 1.81712 30.1695 1.71667 30.1539 1.61746C30.1473 1.575 30.1406 1.53254 30.1339 1.49008C30.1168 1.3822 30.0995 1.27362 30.0835 1.16636C30.075 1.10954 30.0662 1.05236 30.0577 0.994938C30.0437 0.901779 30.0296 0.807951 30.016 0.714401C29.9939 0.56312 29.9727 0.412094 29.9517 0.260612C29.9483 0.235786 29.9631 0.201565 29.9941 0.16475C30.0252 0.1279 30.0699 0.0914758 30.1206 0.0621925C30.1714 0.0329033 30.2255 0.0124566 30.2728 0.00406898C30.32 -0.00424508 30.3564 0.000437256 30.376 0.015853C30.4954 0.110626 30.6142 0.205545 30.7328 0.301207C30.8061 0.360322 30.8799 0.419638 30.9528 0.478778C30.9977 0.515241 31.0423 0.551736 31.0868 0.587753C31.1707 0.65587 31.2555 0.725673 31.3394 0.794962C31.3725 0.822191 31.4055 0.849419 31.4386 0.876648C31.5161 0.940376 31.594 1.00566 31.6715 1.07037C31.6719 1.07076 31.6724 1.07116 31.6728 1.07155C31.711 1.10339 31.749 1.13515 31.7868 1.16655C31.9026 1.26381 32.0174 1.36023 32.1333 1.45962C32.1941 1.51039 32.256 1.56417 32.3179 1.61732C32.3523 1.64691 32.3868 1.67639 32.4207 1.70528C32.4391 1.72118 32.4576 1.73739 32.4761 1.75369C32.9068 2.125 33.3294 2.49658 33.7482 2.87612C34.1659 3.25392 34.578 3.6361 34.9835 4.0202C35.3897 4.40542 35.7894 4.79325 36.1841 5.18456C38.6891 7.66766 41.0562 10.2461 43.1775 12.9681C43.4805 13.3561 43.784 13.7586 44.076 14.154C44.3708 14.554 44.6551 14.9484 44.939 15.3562C45.0255 15.4799 45.1133 15.6073 45.2025 15.7384Z" fill="black"/>
<circle cx="61.8341" cy="32.281" r="2.5" transform="rotate(8.2828 61.8341 32.281)" fill="black"/>
<path d="M56.6597 34.1339C56.2976 33.2859 56.7713 32.371 56.8794 31.6125C56.8818 31.5953 56.8841 31.578 56.8863 31.5607C56.9923 30.6297 57.0028 29.3767 57.8245 28.6208C58.6275 27.8846 59.6657 27.457 60.6876 27.399C61.3253 27.3603 61.9534 27.4636 62.5042 27.6779C62.8362 27.8064 63.1482 27.9753 63.4272 28.1762C64.1721 28.7096 64.6621 29.466 64.8531 30.218C64.9854 30.7294 64.9864 31.2404 64.882 31.691C64.8365 31.8888 64.7713 32.0749 64.6902 32.2462C64.6296 32.3738 64.5604 32.4938 64.4844 32.6038C64.4737 32.6192 64.4365 32.6303 64.3791 32.6337C64.3217 32.6371 64.2494 32.6327 64.1755 32.6219C64.1016 32.6111 64.0309 32.5949 63.9765 32.5777C63.9223 32.5606 63.8892 32.5438 63.8825 32.5301C63.8341 32.4308 63.7786 32.3383 63.7175 32.2548C63.6497 32.1617 63.5749 32.0792 63.496 32.0075C63.7961 31.945 64.0213 31.8817 64.1124 31.8149C64.159 31.7812 64.1721 31.7401 64.1106 31.7283C64.0554 31.7177 63.9628 31.7242 63.8751 31.7324C63.7832 31.7408 63.6965 31.7511 63.6624 31.7432C63.6044 31.7296 63.4721 31.7431 63.3351 31.7649C63.2852 31.7727 63.2346 31.7816 63.1866 31.7901C63.1046 31.7472 63.0216 31.7141 62.9393 31.6904C62.9572 31.6547 62.9687 31.6218 62.9482 31.6122C62.9299 31.6035 62.8667 31.6247 62.792 31.6574C62.7795 31.6554 62.767 31.6537 62.7546 31.6521C62.6747 31.6421 62.5973 31.6407 62.5236 31.6473C62.5603 31.5665 62.5858 31.4792 62.5644 31.4152C62.5554 31.3879 62.5636 31.338 62.5683 31.2887C62.576 31.2162 62.5748 31.1445 62.5233 31.1645C62.4893 31.1781 62.4925 31.1298 62.4919 31.0802C62.4922 31.0143 62.4839 30.9455 62.4075 31.0402C62.3599 31.0998 62.3097 31.1763 62.2659 31.2486C62.1959 31.3636 62.1425 31.4678 62.1284 31.4712C62.1012 31.4774 62.0528 31.564 62.0169 31.6427C61.9726 31.7371 61.9457 31.8195 61.955 31.7264C61.9564 31.7123 61.9583 31.6936 61.9603 31.6722C61.9681 31.5934 61.9735 31.4804 61.9548 31.4518C61.9472 31.4398 61.9359 31.443 61.9219 31.4711C61.9051 31.5046 61.8854 31.5946 61.871 31.6834C61.8491 31.8127 61.8402 31.9392 61.8326 31.8828C61.8314 31.8743 61.8301 31.839 61.8284 31.8067C61.8264 31.7657 61.824 31.7299 61.8234 31.7611C61.8217 31.8525 61.8202 31.9536 61.8225 32.0635C61.8242 32.1443 61.828 32.2298 61.834 32.3195C61.8402 32.37 61.8553 32.4175 61.8769 32.4597C61.8868 32.4791 61.898 32.4974 61.9104 32.5145C61.8719 32.3824 61.8322 32.2649 61.7987 32.1773C61.7547 32.0628 61.7345 32.0303 61.7059 31.9898C61.6845 31.9602 61.6585 31.9261 61.6043 31.858C61.5017 31.7328 61.4803 31.7902 61.5182 31.8689C61.5258 31.8857 61.5345 31.9034 61.5444 31.9222C61.5827 31.9931 61.6342 32.0804 61.7051 32.1652C61.7734 32.2442 61.7977 32.258 61.8138 32.2698C61.8224 32.2755 61.8297 32.2795 61.844 32.287C61.8686 32.2997 61.8916 32.3087 61.9155 32.3154C61.9529 32.326 61.9921 32.3309 62.0431 32.3394C62.0613 32.3424 62.0838 32.3461 62.1079 32.3491C62.17 32.3572 62.2455 32.3604 62.2955 32.3482C62.2994 32.3473 62.3031 32.3462 62.3066 32.3451C62.3584 32.3278 62.3261 32.3033 62.2536 32.2882C62.2241 32.2816 62.1073 32.2775 61.9867 32.2792C61.8154 32.2805 61.6374 32.2973 61.6909 32.2968C61.7033 32.2964 61.7311 32.2942 61.7601 32.2912C61.8135 32.286 61.8709 32.2767 61.8457 32.28C61.8368 32.2812 61.8055 32.2862 61.775 32.2917C61.7413 32.2976 61.7085 32.304 61.7068 32.3049C61.7003 32.3083 61.7086 32.309 61.7159 32.3089C61.7253 32.309 61.7329 32.3081 61.7068 32.3173C61.6601 32.334 61.7038 32.325 61.7466 32.3109C61.7794 32.3005 61.8119 32.2875 61.8061 32.2904C61.7893 32.2992 61.87 32.2697 61.9817 32.1832C62.0236 32.1503 61.96 32.1861 61.8854 32.242C61.8389 32.2765 61.7878 32.3186 61.7531 32.3526C61.7336 32.372 61.7832 32.3305 61.8269 32.2898C61.8674 32.2526 61.9033 32.2165 61.8823 32.2362C61.8638 32.2536 61.7871 32.3305 61.7156 32.4049C61.6358 32.4875 61.5626 32.5671 61.5796 32.5541C61.5886 32.5472 61.6273 32.5089 61.672 32.4623C61.6897 32.4439 61.7082 32.4242 61.7265 32.4046C61.7117 32.421 61.6986 32.4357 61.6886 32.4468C61.6181 32.5252 61.5833 32.5685 61.5507 32.6122C61.5376 32.6296 61.5249 32.6469 61.5101 32.6665C61.4558 32.7386 61.4566 32.7582 61.4663 32.7604C61.4704 32.7613 61.4533 32.7894 61.4342 32.8227C61.4171 32.8522 61.3986 32.886 61.3911 32.9079C61.3868 32.9204 61.3717 32.9472 61.3593 32.9696C61.3503 32.9858 61.3427 32.9998 61.3417 33.0041C61.3408 33.0078 61.3587 32.9835 61.3788 32.9559C61.3932 32.9361 61.4087 32.9146 61.4192 32.9008C61.4443 32.8677 61.4534 32.8588 61.4478 32.871C61.4452 32.8767 61.4394 32.8869 61.4336 32.8972C61.4269 32.9091 61.4202 32.9211 61.4187 32.9258C61.4117 32.9475 61.4353 32.9216 61.4587 32.894C61.4845 32.8637 61.5099 32.8312 61.5002 32.8608C61.4971 32.8702 61.4881 32.8904 61.4796 32.9101C61.4707 32.9308 61.4623 32.9509 61.4614 32.9569C61.4579 32.9816 61.501 32.9192 61.5379 32.8602C61.5626 32.821 61.5849 32.7836 61.5919 32.776C61.6051 32.7622 61.6461 32.6814 61.6754 32.6214C61.6907 32.5903 61.703 32.5647 61.707 32.5571C61.7064 32.5596 61.7056 32.5625 61.7047 32.5657C61.7024 32.5719 61.7 32.5784 61.7014 32.5766C61.7015 32.5764 61.7016 32.5761 61.7017 32.5759C61.6954 32.5971 61.6861 32.627 61.6776 32.657C61.6581 32.7244 61.6455 32.7934 61.6684 32.7601C61.6733 32.7529 61.6873 32.7182 61.7009 32.6827C61.7176 32.6392 61.7336 32.5944 61.7344 32.5982C61.7365 32.6074 61.7244 32.668 61.716 32.7285C61.7024 32.8194 61.6996 32.9102 61.7296 32.8162C61.7393 32.7852 61.7522 32.7328 61.7641 32.6798C61.7708 32.6503 61.7772 32.6205 61.7827 32.5943C61.7745 32.6432 61.7669 32.689 61.7597 32.7317C61.7449 32.8198 61.7323 32.8952 61.7191 32.9588C61.6885 33.1093 61.6407 33.3153 61.6136 33.4669C61.6063 33.5081 61.5976 33.5538 61.5888 33.5999C61.5667 33.7154 61.5433 33.8333 61.5459 33.8889C61.5472 33.9264 61.5565 34.0132 61.5842 33.9264C61.5902 33.9075 61.5977 33.8693 61.606 33.8269C61.6099 33.8066 61.614 33.7852 61.6181 33.7645C61.6296 33.7075 61.6413 33.6551 61.6514 33.6406C61.6537 33.6373 61.6561 33.6343 61.6585 33.6316C61.6682 33.6207 61.6789 33.6085 61.6892 33.547C61.7011 33.476 61.7093 33.3941 61.7195 33.2987C61.7325 33.1745 61.7497 33.0271 61.7732 32.8497C61.7778 32.8147 61.7803 32.8028 61.7822 32.7937C61.7836 32.7874 61.7846 32.7822 61.7857 32.7717C61.787 32.7595 61.7894 32.7342 61.7925 32.7022C61.8031 32.5892 61.8242 32.392 61.8264 32.3837C61.8271 32.3815 61.8267 32.391 61.8265 32.3995C61.8262 32.4121 61.8262 32.4225 61.8286 32.3902C61.8296 32.3779 61.8306 32.3646 61.8316 32.3508C61.8317 32.3547 61.8318 32.3586 61.832 32.3625C61.8301 32.4012 61.8315 32.3979 61.8328 32.3937C61.8331 32.3927 61.8334 32.3917 61.8337 32.3912C61.8344 32.3992 61.8353 32.4072 61.8364 32.4153C61.8371 32.4318 61.8381 32.4585 61.8403 32.5009C61.8445 32.5858 61.8537 32.7258 61.8684 32.8623C61.8745 32.9198 61.8816 32.9768 61.8892 33.0288C61.8881 33.0353 61.8872 33.043 61.8868 33.0535C61.884 33.1254 61.8876 33.2663 61.8898 33.396C61.8912 33.4823 61.892 33.5637 61.889 33.6163C61.8834 33.7127 61.8874 33.8251 61.8911 33.9081C61.8929 33.9512 61.8945 33.9865 61.8936 34.0075C61.8929 34.0244 61.8901 34.0324 61.8873 34.0406C61.8848 34.0479 61.8822 34.0554 61.8807 34.069C61.862 34.234 61.8682 34.3294 61.8833 34.4682C61.8914 34.5447 61.9018 34.6345 61.9094 34.7564C61.9165 34.8855 61.917 34.9234 61.9008 34.9753C61.9159 35.0388 61.9319 35.1022 61.9489 35.1655C61.9545 35.1611 61.9572 35.121 61.9601 35.0545C61.9655 34.9357 61.9951 34.8909 62.0174 34.8554C62.0277 34.8389 62.0365 34.8245 62.0406 34.8059C62.0618 34.7072 62.0401 34.574 62.0238 34.4567C62.0146 34.3921 62.0066 34.3322 62.0051 34.2858C62.0044 34.266 62.0013 34.2465 61.9983 34.2266C61.9959 34.2112 61.9935 34.1956 61.9922 34.1794C61.9824 34.0619 61.9873 33.9738 61.9897 33.8919C61.9911 33.845 61.9919 33.8001 61.9898 33.753C61.9891 33.7387 61.9883 33.7241 61.9874 33.7099C61.9861 33.6892 61.9849 33.6695 61.9844 33.6525C61.9833 33.6139 61.9864 33.5874 61.9893 33.5585C61.9909 33.5437 61.9923 33.5282 61.9932 33.5101C61.9942 33.4867 61.9895 33.4403 61.9844 33.3918C61.9808 33.3576 61.977 33.3223 61.9747 33.2932C61.9706 33.2404 61.9736 33.2207 61.9761 33.2025C61.9772 33.1945 61.9782 33.1866 61.9785 33.1766C61.9786 33.1725 61.9776 33.1645 61.9759 33.1536C61.9782 33.1159 61.9789 33.0775 61.9785 33.04C61.9785 32.8512 61.9434 32.6945 62.007 32.796C62.0196 32.8149 62.0246 32.8085 62.0242 32.7898C62.0594 32.8259 62.0998 32.8605 62.1451 32.8923C62.1981 32.9845 62.2465 33.0598 62.2891 33.1163C62.3695 33.2221 62.4051 33.234 62.4462 33.2472C62.477 33.2566 62.5112 33.2668 62.5786 33.3092C62.6918 33.3804 62.8062 33.4237 62.8955 33.415C62.9843 33.4069 63.0723 33.3704 63.1218 33.3318C63.1486 33.3113 63.2451 33.3418 63.3382 33.3639C63.4686 33.396 63.5924 33.4102 63.4707 33.2996C63.4318 33.2644 63.3599 33.2101 63.2893 33.1585C63.239 33.1217 63.1895 33.0863 63.1531 33.0593C63.1716 33.0555 63.19 33.0513 63.2087 33.0468C63.3136 33.08 63.4365 33.0948 63.3448 33.0081C63.3644 33.0016 63.3839 32.9947 63.4034 32.9879C63.4447 32.9724 63.4861 32.9559 63.5275 32.9373C63.5412 32.9312 63.5549 32.9249 63.5686 32.9183C63.5688 32.9182 63.5689 32.9182 63.5691 32.9181C63.5967 32.9049 63.6244 32.8908 63.652 32.8761C63.6638 32.8698 63.6756 32.8633 63.6874 32.8567C63.7171 32.8399 63.7468 32.822 63.7765 32.8035C63.7922 32.7937 63.8078 32.7833 63.8235 32.7729C63.849 32.756 63.8745 32.7382 63.8998 32.7196C63.9409 32.6893 63.9815 32.6582 64.0217 32.6242C64.0284 32.6187 64.0471 32.6152 64.0746 32.6146C64.1022 32.614 64.1364 32.6162 64.1712 32.6212C64.206 32.6263 64.2394 32.634 64.2655 32.6431C64.2915 32.6521 64.3077 32.6617 64.3121 32.6698C64.3383 32.7194 64.363 32.7696 64.3855 32.8223C64.3995 32.8548 64.413 32.8878 64.4256 32.9211C64.4333 32.9415 64.4406 32.9624 64.4478 32.9831C64.4612 33.0223 64.4737 33.0626 64.485 33.1033C64.4895 33.1194 64.4938 33.1356 64.498 33.1518C64.5078 33.1899 64.5166 33.2287 64.5244 33.268C64.5244 33.2682 64.5245 33.2685 64.5245 33.2687C64.5283 33.288 64.532 33.3075 64.5355 33.3268C64.5457 33.3863 64.554 33.4462 64.5595 33.5081C64.563 33.5404 64.5652 33.5736 64.5669 33.6073C64.5678 33.626 64.5686 33.6447 64.5693 33.6632C64.5696 33.6733 64.5697 33.6834 64.5698 33.6937C64.5742 33.93 64.5462 34.1738 64.4823 34.418C64.4189 34.6615 64.3207 34.904 64.1896 35.1358C64.0582 35.3681 63.8937 35.5896 63.6985 35.7926C63.0946 36.4295 62.1664 36.8803 61.1547 36.9481C60.1139 37.0297 58.9554 36.6863 58.0538 35.9595C57.7995 35.757 57.5593 35.5192 57.3493 35.2629C57.1373 35.0038 56.9535 34.7263 56.7969 34.4229C56.7492 34.3309 56.7033 34.2344 56.6597 34.1339Z" fill="black"/>
<path d="M25.3403 43.4542C26.8776 43.3564 28.3571 44.2792 29.8996 44.281C31.8149 44.2833 33.7606 43.4015 35.6802 43.5657C37.5888 43.73 39.5066 43.9658 41.4183 44.2566C43.3321 44.5474 45.2431 44.8931 47.1579 45.2759C49.0687 45.6588 50.9835 46.0787 52.8958 46.5194C54.1946 46.8188 55.4949 47.1278 56.7936 47.4406C57.3637 47.5777 57.9322 47.7155 58.502 47.8537C58.9271 47.9571 59.3522 48.0605 59.7773 48.1638C59.8364 48.1784 59.893 48.2375 59.9348 48.3314C59.9765 48.4254 60.0001 48.5457 60 48.6701C59.9999 48.7946 59.9762 48.9152 59.9343 49.0089C59.8924 49.1023 59.8357 49.1606 59.7766 49.1746C59.3479 49.2747 58.9192 49.3748 58.4905 49.475C58.0144 49.586 57.539 49.6973 57.063 49.8076C56.988 49.2971 56.8852 48.91 56.6924 48.739C56.5941 48.6517 56.4506 48.6155 56.345 48.7103C56.2501 48.7956 56.1787 48.9475 56.1109 49.0923C56.0399 49.2438 55.9725 49.3876 55.8859 49.4384C55.7388 49.5247 55.599 49.7414 55.4521 49.9691C55.3987 50.0519 55.3443 50.1364 55.2883 50.2164C54.8338 50.3202 54.3794 50.4232 53.925 50.5253C53.7495 50.471 53.5882 50.427 53.4513 50.448C53.3285 50.4667 53.216 50.5746 53.104 50.7087C53.0337 50.7244 52.9634 50.74 52.893 50.7556C52.439 50.8561 51.9849 50.955 51.5307 51.053C51.1763 50.9168 50.8049 50.7845 50.322 50.7264C50.1139 50.7014 49.9085 50.6277 49.7111 50.557C49.4195 50.4526 49.1452 50.3545 48.9048 50.4278C48.744 50.4769 48.5749 50.4048 48.4063 50.3328C48.1801 50.2363 47.9543 50.14 47.7496 50.3365C47.6209 50.46 47.5027 50.6102 47.3932 50.7495C47.2191 50.9712 47.0669 51.1651 46.9291 51.1785C46.6702 51.2035 46.446 51.365 46.2484 51.5075C46.0107 51.6788 45.8114 51.8226 45.6363 51.6677C45.6098 51.6442 45.5794 51.613 45.5452 51.5775C45.365 51.3905 45.0769 51.0914 44.6631 51.2558C44.5159 51.3144 44.3775 51.4666 44.242 51.6159C44.0448 51.8333 43.8532 52.0443 43.6481 51.9504C43.6174 51.9363 43.5854 51.8775 43.5563 51.8237C43.5192 51.7553 43.4869 51.6956 43.4677 51.7475C43.4115 51.8998 43.3222 52.0682 43.2253 52.2514C43.1541 52.386 43.0786 52.5287 43.009 52.6785C42.4775 52.7631 41.9459 52.8442 41.4142 52.921C41.1706 52.9562 40.9269 52.9905 40.6831 53.0239C40.5585 52.7946 40.431 52.588 40.2963 52.4317C40.1203 52.2275 39.8921 52.1649 39.598 52.0838C39.3816 52.0242 39.1293 51.9544 38.8358 51.8115C38.2925 51.5469 37.7344 51.6063 37.3767 51.7481C37.3011 51.7781 37.225 51.8102 37.1437 51.845C36.8352 51.9771 36.4503 52.1426 35.7192 52.3251C35.0275 52.4977 34.4394 52.5425 33.9975 52.5761C33.772 52.5933 33.5845 52.6071 33.4409 52.634C33.1951 52.68 32.8933 52.721 32.5904 52.7619C32.1162 52.826 31.6391 52.8902 31.369 52.9758C31.2729 53.0063 31.172 53.044 31.063 53.0842C30.7611 53.1959 30.3964 53.3305 29.8937 53.4084C29.366 53.4901 29.0389 53.4344 28.6992 53.3133C28.5611 53.2641 28.4392 53.0696 28.3137 52.8686C28.1356 52.5833 27.9498 52.2856 27.6985 52.3744C27.6398 52.3952 27.5772 52.4416 27.5117 52.4902C27.3914 52.5796 27.2613 52.6765 27.1281 52.634C27.0817 52.6192 27.0407 52.5664 27.0006 52.5146C26.9565 52.4576 26.9132 52.4019 26.8642 52.3988C26.6811 52.3872 26.503 52.4004 26.3447 52.4122C26.1405 52.4275 25.9693 52.4401 25.8631 52.3939C25.6737 52.3116 25.4667 52.3853 25.257 52.4604C25.0969 52.5177 24.9351 52.576 24.7784 52.5651C24.3308 52.5341 23.7153 52.6746 23.081 52.9088C22.8411 52.9973 22.6378 52.8764 22.3772 52.7211C22.2152 52.6246 22.031 52.5143 21.8021 52.4335C21.6723 52.3878 21.5623 52.4955 21.4606 52.595C21.3668 52.6867 21.2799 52.7714 21.1907 52.7236C21.112 52.6812 21.0622 52.5001 21.0149 52.3281C20.9623 52.1367 20.9128 51.9567 20.83 51.9918C20.7859 52.0105 20.7324 52.1011 20.6686 52.2087C20.6434 52.2513 20.6165 52.2963 20.5881 52.3409C20.5895 52.3042 20.5899 52.2714 20.5899 52.2465C20.59 52.0708 20.5055 51.9783 20.4226 51.8876C20.3895 51.8515 20.3565 51.8157 20.3294 51.7749C20.2298 51.6248 20.0411 51.6004 19.8968 51.6074C19.8358 51.6103 19.7805 51.5558 19.716 51.4922C19.6588 51.4358 19.5942 51.3721 19.5119 51.335C19.4649 51.3139 19.4289 51.263 19.399 51.2205C19.3774 51.1897 19.3591 51.1634 19.342 51.1565C19.3273 51.1506 19.3154 51.2009 19.302 51.2577C19.2924 51.2985 19.2819 51.3427 19.269 51.3716C19.2383 51.4406 19.1988 51.4614 19.1711 51.4392C19.1583 51.429 19.1482 51.4094 19.1381 51.3899C19.1264 51.3672 19.1148 51.3443 19.0987 51.3363C19.0252 51.2996 18.9536 51.357 18.8792 51.4167C18.7975 51.4823 18.7123 51.5504 18.6174 51.4995C18.5875 51.4835 18.5557 51.4468 18.5249 51.4112C18.4927 51.3739 18.4614 51.3379 18.4348 51.3283C18.3266 51.2894 18.225 51.4151 18.1315 51.5306C18.0693 51.6075 18.0106 51.6798 17.9562 51.6963C17.8563 51.7266 17.8027 51.8774 17.7632 51.9888C17.7427 52.0465 17.726 52.0939 17.7085 52.1082C17.6925 52.104 17.6762 52.099 17.6602 52.0936C17.6456 52.0825 17.6305 52.071 17.6163 52.0747C17.6152 52.075 17.6141 52.0756 17.6131 52.0759C17.5238 52.0393 17.4361 51.9875 17.3489 51.9358C17.1532 51.8196 16.9599 51.7046 16.7555 51.7694C16.7114 51.7834 16.6665 51.8457 16.6209 51.909C16.5649 51.9865 16.5077 52.0658 16.4494 52.0601C16.3105 52.0465 16.1703 51.9438 16.0322 51.8426C15.8245 51.6903 15.6215 51.5417 15.4348 51.7049C15.3732 51.7587 15.3131 51.8484 15.2529 51.9388C15.2193 51.9892 15.1855 52.04 15.1515 52.0844C15.1587 52.002 15.1625 51.9245 15.1661 51.8523C15.1735 51.7035 15.1799 51.5761 15.2126 51.4679C15.2899 51.2121 15.3775 50.8601 15.3678 50.6033C15.3651 50.5336 15.3672 50.456 15.3696 50.3779C15.3754 50.1818 15.3814 49.9816 15.3096 49.8911C15.2612 49.8301 15.1369 49.69 15.0578 49.8399C15.0406 49.8726 15.0302 49.9373 15.0185 50.0093C14.9975 50.1386 14.9726 50.2917 14.8976 50.3273C14.885 50.3333 14.8713 50.3387 14.8571 50.3438C14.8006 50.3639 14.7373 50.3861 14.7136 50.49C14.6864 50.6097 14.6922 50.7468 14.699 50.9067C14.7078 51.115 14.7183 51.3623 14.6596 51.6604C14.648 51.7193 14.6258 51.7395 14.609 51.7548C14.5972 51.7656 14.5882 51.7743 14.5873 51.792C14.5863 51.8124 14.59 51.8547 14.5948 51.9084C14.6118 52.0975 14.6412 52.4281 14.5184 52.4421C14.4852 52.4458 14.4472 52.4301 14.4131 52.4159C14.3629 52.3949 14.3212 52.3776 14.3156 52.4317C14.3135 52.4522 14.312 52.4745 14.3108 52.4975C14.2708 52.491 14.2308 52.4845 14.1908 52.478C14.1396 52.4135 14.0676 52.4191 13.9778 52.4262C13.956 52.428 13.933 52.4296 13.9091 52.4305C13.8302 52.4172 13.7513 52.4039 13.6724 52.3903C13.6099 52.3629 13.5433 52.3184 13.4731 52.2477C13.3323 52.1061 13.2098 51.8724 13.0902 51.6439C13.0397 51.5477 12.9898 51.4521 12.9391 51.3649C12.9588 51.3542 12.9766 51.3415 12.9904 51.3241C13.0842 51.2047 13.1219 50.9699 13.1565 50.7538C13.1796 50.61 13.2013 50.4745 13.2373 50.387C13.3033 50.2268 13.2966 50.0394 13.2918 49.9008C13.2893 49.829 13.2874 49.7701 13.2962 49.7351C13.3032 49.7071 13.3196 49.6939 13.3364 49.6803C13.3511 49.6684 13.3663 49.6559 13.376 49.6334C13.4939 49.359 13.4585 49.1998 13.4069 48.9681C13.3785 48.8402 13.3453 48.6902 13.33 48.4867C13.3169 48.2713 13.3213 48.2082 13.3831 48.1224C13.335 48.016 13.2868 47.9096 13.2387 47.8031C13.2198 47.8101 13.2055 47.8766 13.1854 47.9871C13.1494 48.1846 13.0324 48.2567 12.9409 48.3131C12.8986 48.3392 12.8617 48.362 12.8409 48.3923C12.7303 48.5533 12.7624 48.7775 12.7908 48.9748C12.8064 49.0833 12.8208 49.1838 12.8096 49.2611C12.8048 49.2942 12.8116 49.327 12.8185 49.3604C12.8238 49.3863 12.8292 49.4126 12.8295 49.4396C12.8309 49.6361 12.7655 49.7819 12.7047 49.9173C12.6699 49.9948 12.6368 50.0692 12.6184 50.1476C12.6128 50.1715 12.6084 50.1958 12.6042 50.2195C12.5982 50.254 12.5922 50.2869 12.583 50.3151C12.5618 50.3794 12.5183 50.4227 12.4706 50.4699C12.4461 50.4941 12.4206 50.5194 12.3964 50.5491C12.3651 50.5876 12.3539 50.6653 12.3419 50.7465C12.3335 50.8039 12.3247 50.8629 12.3085 50.9116C12.2792 50.9996 12.22 51.0314 12.165 51.0609C12.1411 51.0737 12.1179 51.0865 12.0984 51.1029C12.0905 51.1096 12.0867 51.123 12.0858 51.1413C11.9956 51.2028 11.9094 51.2656 11.8256 51.3271C11.4052 51.6356 11.0413 51.903 10.4979 51.7091C10.3951 51.6725 10.2848 51.6798 10.1733 51.7091C9.81665 51.6321 9.4598 51.5525 9.10328 51.4709C9.03271 51.2939 8.94638 51.1452 8.84419 51.0286C8.65226 50.8096 8.45483 50.7628 8.22186 50.7075C8.04962 50.6666 7.85793 50.621 7.63455 50.4979C7.25925 50.291 6.87392 50.1161 6.43911 50.0251C6.00619 49.9346 5.51055 49.8678 5.15989 49.8442C4.96874 49.8312 4.76795 49.6729 4.58082 49.5255C4.3176 49.3182 4.08141 49.1324 3.93721 49.4018C3.89116 49.4879 3.84664 49.6374 3.80331 49.7826C3.77246 49.8861 3.74203 49.9871 3.71222 50.0623C3.63285 50.0389 3.55339 50.0158 3.47395 49.9922C3.33283 49.8127 3.11352 49.6202 2.90152 49.8204C2.81959 49.7957 2.7376 49.7711 2.65845 49.7461C2.48573 49.6939 2.31674 49.641 2.14622 49.5877C2.09056 49.5701 2.03434 49.5524 1.97799 49.5347C1.97746 49.5345 1.97692 49.5343 1.97639 49.5341C1.86296 49.4983 1.74867 49.4624 1.63627 49.4262C1.58813 49.4108 1.53999 49.3953 1.49185 49.3799C1.36951 49.3407 1.24628 49.3014 1.12518 49.2617C1.06108 49.2406 0.996369 49.2196 0.931546 49.1984C0.826381 49.1638 0.720421 49.1291 0.615003 49.0942C0.44452 49.0377 0.274836 48.9805 0.104828 48.923C0.0770242 48.9134 0.0503059 48.8836 0.0306701 48.8383C0.0110414 48.7929 -3.0007e-05 48.736 6.10806e-08 48.6774C3.85052e-05 48.6188 0.0112035 48.5618 0.030899 48.5166C0.0505814 48.4715 0.0772724 48.4424 0.105056 48.4331C0.275186 48.3771 0.445087 48.3217 0.61569 48.2668C0.721127 48.2328 0.827049 48.1986 0.932232 48.165C0.997086 48.1444 1.06174 48.124 1.12587 48.1035C1.24698 48.0649 1.37041 48.0264 1.49276 47.9884C1.5409 47.9733 1.58904 47.9583 1.63719 47.9433C1.74988 47.9081 1.86449 47.8732 1.97822 47.8385C1.9789 47.8383 1.97959 47.8381 1.98028 47.8379C2.03623 47.8208 2.09209 47.8037 2.14736 47.7867C2.31795 47.735 2.48704 47.6838 2.65983 47.6332C2.7491 47.6058 2.84213 47.5791 2.93448 47.5521C2.9859 47.5371 3.03722 47.522 3.0876 47.507C3.11515 47.4991 3.14307 47.4912 3.17115 47.4833C3.81542 47.296 4.45516 47.1157 5.10084 46.9429C5.7441 46.77 6.38851 46.6042 7.03099 46.4451C7.67503 46.2859 8.31794 46.1336 8.96138 45.9875C13.0449 45.0597 17.1447 44.2989 21.2463 43.8228C21.8314 43.7545 22.4317 43.6928 23.0179 43.6376C23.6105 43.5823 24.1909 43.5333 24.7851 43.4914C24.9655 43.4783 25.1505 43.466 25.3403 43.4542Z" fill="black"/>
</svg>
