<svg width="85" height="49" viewBox="0 0 85 49" fill="none" xmlns="http://www.w3.org/2000/svg">
<path d="M0.229909 8.92336C-0.192021 7.85267 0.0686706 6.714 0.212276 5.6746C0.215412 5.6515 0.218564 5.62837 0.221738 5.60521C0.384834 4.33326 0.688777 2.86815 1.68257 1.87916C2.66671 0.895541 3.96111 0.255218 5.29263 0.064888C6.12375 -0.0565615 6.96592 -0.00493889 7.7458 0.198299C8.21565 0.320126 8.66816 0.496579 9.08844 0.721298C10.2078 1.31685 11.0805 2.25659 11.5838 3.30979C11.9281 4.02493 12.1079 4.79293 12.1242 5.53848C12.1317 5.86575 12.1083 6.18826 12.0565 6.50126C12.0178 6.73431 11.9632 6.96349 11.8946 7.18369C11.885 7.21442 11.8576 7.2415 11.8173 7.25826C11.777 7.27505 11.7276 7.28025 11.6784 7.27304C11.6291 7.26581 11.5831 7.24679 11.5489 7.2208C11.5148 7.1948 11.4954 7.16395 11.4934 7.13431C11.4792 6.91996 11.4506 6.70792 11.408 6.50295C11.3607 6.2747 11.2963 6.05373 11.2168 5.8421C11.4125 5.7746 11.5569 5.69685 11.6043 5.58652C11.6285 5.53042 11.6263 5.45398 11.5766 5.41038C11.532 5.37119 11.464 5.35148 11.3993 5.33394C11.3316 5.31562 11.2674 5.29983 11.2362 5.26557C11.183 5.20735 11.0799 5.16973 10.9718 5.13579C10.9325 5.1234 10.8924 5.1114 10.8537 5.09875C10.7447 4.92105 10.6243 4.75395 10.4945 4.5983C10.4774 4.52049 10.4569 4.44972 10.4186 4.4024C10.3843 4.35991 10.3213 4.34076 10.2501 4.32985C10.2283 4.30797 10.2064 4.28639 10.1843 4.26509C10.0415 4.12758 9.8911 4.00213 9.73484 3.88962C9.67559 3.7448 9.60083 3.59442 9.45818 3.44261C9.39667 3.37737 9.34598 3.29968 9.29375 3.22568C9.21719 3.11672 9.13669 3.01572 9.03091 2.98485C8.96044 2.96432 8.91179 2.90245 8.85964 2.84104C8.79073 2.75916 8.71435 2.67791 8.59875 2.71121C8.52623 2.7322 8.45483 2.76669 8.39029 2.80018C8.28771 2.85355 8.20239 2.90409 8.14758 2.89001C8.04476 2.86367 7.93713 2.89805 7.84711 2.93193C7.73754 2.97239 7.65214 3.01136 7.59847 2.93651C7.59029 2.92516 7.58119 2.91049 7.57077 2.89389C7.53254 2.83257 7.47505 2.74545 7.37953 2.71426C7.33918 2.70107 7.29273 2.69814 7.24071 2.71212C7.17872 2.72885 7.1171 2.78465 7.06035 2.84075C6.97735 2.92245 6.9041 3.00428 6.82766 2.96636C6.81618 2.96069 6.80414 2.93714 6.79293 2.91569C6.77869 2.88841 6.76566 2.86469 6.75858 2.88557C6.73775 2.9468 6.70554 3.01486 6.67336 3.08952C6.64963 3.14435 6.62607 3.20274 6.60569 3.26406C6.42472 3.30939 6.25038 3.36834 6.08412 3.43904C6.00807 3.47141 5.9333 3.50636 5.86057 3.54355C5.79338 3.46868 5.72474 3.40465 5.65832 3.36228C5.57124 3.30708 5.48344 3.3139 5.3706 3.32896C5.28742 3.34021 5.19066 3.35582 5.06471 3.35965C4.82962 3.36685 4.6545 3.51598 4.58101 3.64481C4.56512 3.67211 4.55002 3.70023 4.53454 3.73058C4.47702 3.84615 4.40571 3.98876 4.27883 4.23207C4.16064 4.46241 4.05767 4.63997 3.98611 4.77808C3.94969 4.84857 3.92205 4.90778 3.90727 4.95672C3.88206 5.04016 3.84974 5.14038 3.82313 5.24157C3.78075 5.39993 3.75401 5.56146 3.76172 5.65768C3.76436 5.69182 3.76986 5.72817 3.77636 5.76711C3.79333 5.86717 3.81743 5.98293 3.8279 6.13018C3.82872 6.14164 3.82947 6.15326 3.83014 6.16505C3.84085 6.33593 3.81494 6.43424 3.76489 6.54278C3.74481 6.58642 3.66746 6.62638 3.58839 6.67136C3.47624 6.73425 3.36082 6.8104 3.40477 6.89731C3.41503 6.91739 3.4358 6.93761 3.4578 6.95842C3.49823 6.99673 3.54257 7.03558 3.53292 7.08357C3.52956 7.1004 3.51104 7.1179 3.493 7.13533C3.47316 7.15448 3.45394 7.17363 3.45592 7.19107C3.46327 7.25607 3.48206 7.31744 3.49998 7.37107C3.52305 7.4402 3.54466 7.49733 3.53776 7.53888C3.52547 7.6132 3.57729 7.67622 3.63109 7.73532C3.67233 7.78093 3.71488 7.82474 3.73243 7.87691C3.78212 8.02664 3.93262 8.19979 4.12897 8.32708C4.203 8.37512 4.20149 8.4571 4.20693 8.56664C4.21033 8.63453 4.21634 8.71294 4.2455 8.79605C4.26216 8.84324 4.32099 8.84402 4.37433 8.84294C4.42363 8.8421 4.4685 8.83994 4.47639 8.87526C4.48335 8.90646 4.44454 8.96994 4.40863 9.03108C4.36858 9.09901 4.33219 9.16407 4.36455 9.1753C4.38173 9.18122 4.42119 9.16847 4.46745 9.15239C4.48574 9.14602 4.50507 9.13922 4.52462 9.13278C4.51443 9.14337 4.50556 9.15306 4.49892 9.16046C4.45189 9.21269 4.45062 9.26129 4.45076 9.30932C4.45079 9.32849 4.45107 9.34754 4.44845 9.36672C4.43875 9.4374 4.49015 9.49218 4.53656 9.52434C4.55613 9.538 4.56013 9.5684 4.56544 9.60404C4.57013 9.63565 4.57589 9.67149 4.59432 9.70276C4.60481 9.72058 4.60508 9.7456 4.60539 9.7665C4.6056 9.78163 4.60586 9.79456 4.61006 9.80079C4.61372 9.80617 4.62912 9.79229 4.64635 9.77655C4.65875 9.76523 4.67216 9.75294 4.68286 9.74623C4.70847 9.7302 4.72603 9.73188 4.73036 9.74534C4.73235 9.75156 4.73142 9.76032 4.73052 9.76905C4.72946 9.77921 4.72838 9.78943 4.73205 9.79562C4.74895 9.82403 4.78582 9.82013 4.82355 9.81532C4.86522 9.81014 4.90748 9.80368 4.92969 9.84C4.93669 9.85144 4.94034 9.87043 4.94403 9.88888C4.94789 9.90818 4.95189 9.92689 4.95943 9.93544C4.99026 9.97023 5.05016 9.94504 5.10386 9.92057C5.13965 9.90434 5.17285 9.88856 5.19469 9.89184C5.23493 9.89795 5.27907 9.85188 5.31114 9.81768C5.32778 9.79995 5.34128 9.78529 5.34953 9.78275C5.35422 9.78674 5.35888 9.79103 5.36336 9.79543C5.36647 9.8017 5.36973 9.80817 5.37512 9.80897C5.37554 9.80903 5.376 9.80895 5.37641 9.809C5.40066 9.83577 5.42283 9.86779 5.44515 9.89932C5.49513 9.97009 5.55038 10.0401 5.63295 10.0407C5.65076 10.0409 5.67497 10.0226 5.6992 10.0039C5.72892 9.98092 5.75872 9.95704 5.77879 9.96552C5.82634 9.98567 5.86539 10.0393 5.90667 10.0917C5.96775 10.1703 6.03518 10.2461 6.1192 10.1957C6.1467 10.1791 6.17593 10.1479 6.2046 10.1161C6.22059 10.0984 6.23648 10.0805 6.25191 10.065C6.24398 10.0971 6.23756 10.1275 6.23155 10.1558C6.21914 10.214 6.20851 10.264 6.18847 10.3045C6.14138 10.4004 6.07957 10.5321 6.0648 10.6338C6.06087 10.6615 6.05434 10.6918 6.04764 10.7224C6.03092 10.799 6.01323 10.8773 6.03959 10.9188C6.05704 10.9468 6.10608 11.0119 6.152 10.9581C6.16193 10.9464 6.1706 10.9215 6.18014 10.8938C6.1847 10.8805 6.18948 10.8666 6.19468 10.8532C6.20903 10.8161 6.22662 10.7826 6.25238 10.7755C6.2583 10.7739 6.26467 10.7726 6.27121 10.7714C6.29729 10.7667 6.32635 10.7612 6.34143 10.7211C6.35878 10.6749 6.36227 10.6201 6.3667 10.5562C6.37228 10.473 6.38014 10.3744 6.41613 10.2584C6.42322 10.2355 6.4326 10.2283 6.43966 10.2229C6.44464 10.2191 6.44845 10.216 6.44952 10.209C6.45073 10.2009 6.45102 10.1839 6.45141 10.1624C6.45262 10.0864 6.45654 9.95407 6.50046 9.95274C6.51242 9.95237 6.5255 9.95986 6.53725 9.96656C6.55456 9.97643 6.56909 9.98443 6.57267 9.963C6.57402 9.95487 6.57521 9.94604 6.57632 9.93688C6.59031 9.94051 6.60431 9.94406 6.61833 9.94752C6.63501 9.97437 6.66076 9.9736 6.69307 9.97198C6.70091 9.97159 6.70917 9.97124 6.71772 9.97114C6.74578 9.97737 6.77391 9.98321 6.80208 9.98884C6.8244 9.99993 6.84809 10.0177 6.87423 10.0456C6.92632 10.1015 6.97516 10.1932 7.02653 10.282C7.04812 10.3194 7.07039 10.3563 7.0931 10.3897C7.0855 10.3945 7.0787 10.4 7.07363 10.4073C7.03889 10.4574 7.02835 10.5519 7.0177 10.6389C7.01063 10.6969 7.00356 10.7515 6.98904 10.787C6.96235 10.8522 6.96727 10.9269 6.97145 10.9823C6.97356 11.011 6.97527 11.0345 6.97161 11.0486C6.96866 11.0599 6.96113 11.0654 6.95333 11.0711C6.94653 11.076 6.93948 11.0812 6.93509 11.0903C6.88144 11.2013 6.89795 11.2646 6.92605 11.3568C6.9414 11.4076 6.95993 11.4671 6.97029 11.5482C6.97965 11.6342 6.9784 11.6595 6.946 11.6947C6.9729 11.7366 7.00041 11.7783 7.02853 11.8198C7.0388 11.8167 7.04563 11.7897 7.05456 11.7451C7.07063 11.6654 7.13106 11.6334 7.17793 11.6074C7.19959 11.5954 7.21828 11.5848 7.22822 11.5719C7.28086 11.5028 7.25518 11.4149 7.23448 11.3375C7.22294 11.2949 7.21261 11.2555 7.21549 11.2242C7.2167 11.2108 7.21228 11.198 7.20785 11.185C7.20442 11.1749 7.20093 11.1646 7.19994 11.1538C7.19293 11.0756 7.21899 11.0149 7.24162 10.9583C7.25464 10.9259 7.26664 10.8948 7.27159 10.8628C7.2731 10.853 7.27406 10.8431 7.27491 10.8335C7.27617 10.8195 7.27737 10.8061 7.28028 10.7944C7.28689 10.7679 7.30413 10.7485 7.32266 10.7273C7.33217 10.7164 7.342 10.705 7.35092 10.6919C7.36246 10.6748 7.36319 10.6434 7.36391 10.6105C7.36442 10.5873 7.36495 10.5634 7.36902 10.5432C7.37641 10.5066 7.39887 10.4906 7.41948 10.4755C7.42847 10.4689 7.43705 10.4624 7.44398 10.4546C7.44679 10.4515 7.44749 10.4459 7.44666 10.4387C7.47932 10.4085 7.50941 10.3776 7.53792 10.3471C7.68189 10.1932 7.78246 10.059 8.00475 10.0664C8.04711 10.0675 8.08656 10.0503 8.12282 10.024C8.26276 10.004 8.40364 9.97642 8.54465 9.9408C8.6019 9.99101 8.66085 10.0273 8.72056 10.0478C8.83291 10.0861 8.91618 10.0594 9.01232 10.0246C9.08362 9.99867 9.16212 9.96832 9.27019 9.95089C9.45173 9.92143 9.63283 9.86556 9.80337 9.75623C9.97351 9.64802 10.1492 9.49592 10.2594 9.37506C10.3195 9.30986 10.4266 9.27442 10.5268 9.23624C10.6676 9.18316 10.7948 9.12338 10.7403 9.00689C10.7229 8.96975 10.6831 8.92025 10.6438 8.87293C10.6159 8.83922 10.5884 8.80651 10.5693 8.77953C10.5958 8.7532 10.6219 8.72631 10.6478 8.69906C10.742 8.67803 10.8596 8.62062 10.8306 8.49584C10.856 8.46576 10.8811 8.43529 10.9054 8.40553C10.9577 8.34016 11.0079 8.27471 11.057 8.20678C11.0731 8.18461 11.0892 8.16198 11.1051 8.13905C11.1053 8.13884 11.1054 8.13863 11.1056 8.13841C11.1377 8.09236 11.1691 8.04547 11.1996 7.99828C11.2127 7.97808 11.2257 7.95771 11.2385 7.93717C11.2709 7.88518 11.3026 7.83213 11.3333 7.77881C11.3495 7.75069 11.3656 7.72159 11.3815 7.6929C11.4072 7.64612 11.4324 7.59817 11.4569 7.54968C11.4966 7.4708 11.5342 7.39255 11.5704 7.31096C11.5763 7.29766 11.5901 7.28608 11.6095 7.27883C11.6289 7.2716 11.6523 7.26923 11.6755 7.27262C11.6987 7.27601 11.7204 7.28503 11.7368 7.29789C11.7531 7.31073 11.7625 7.32638 11.7639 7.34139C11.7722 7.43349 11.778 7.52448 11.7806 7.6184C11.7823 7.67614 11.7831 7.73422 11.7828 7.79189C11.7826 7.82729 11.7817 7.86337 11.7807 7.89881C11.7788 7.9659 11.7752 8.03397 11.7701 8.10192C11.7681 8.12875 11.7659 8.15558 11.7635 8.18241C11.7579 8.24527 11.7507 8.30876 11.7422 8.37227C11.7422 8.37265 11.7421 8.37303 11.7421 8.37342C11.7379 8.40471 11.7335 8.43595 11.7288 8.46684C11.7142 8.56201 11.697 8.65645 11.6759 8.75279C11.6654 8.80275 11.6532 8.85416 11.6403 8.90567C11.633 8.93432 11.6256 8.96289 11.6182 8.99093C11.614 9.00622 11.6097 9.02168 11.6052 9.0372C11.505 9.3946 11.3636 9.74508 11.1793 10.0832C10.996 10.4202 10.7713 10.7425 10.5109 11.0397C10.2498 11.3376 9.95258 11.6107 9.62415 11.8514C8.60263 12.607 7.25679 13.0339 5.88571 12.9756C4.47208 12.9275 3.01756 12.3512 1.91047 11.3436C1.59843 11.0623 1.30611 10.74 1.05289 10.3987C0.797054 10.0536 0.577813 9.68955 0.392024 9.29644C0.335584 9.17725 0.281293 9.05271 0.229909 8.92336Z" fill="black"/>
<path d="M38.4911 38.9047C40.0284 38.8069 41.5079 39.7297 43.0504 39.7315C44.9656 39.7338 46.9113 38.852 48.831 39.0162C50.7396 39.1805 52.6573 39.4163 54.5691 39.7071C56.4829 39.9979 58.3939 40.3436 60.3087 40.7264C62.2194 41.1093 64.1343 41.5292 66.0465 41.9699C67.3454 42.2693 68.6456 42.5783 69.9444 42.8911C70.5145 43.0283 71.0829 43.166 71.6527 43.3042C72.0778 43.4076 72.5029 43.511 72.9281 43.6143C72.9871 43.6289 73.0438 43.688 73.0855 43.7819C73.1273 43.8759 73.1508 43.9962 73.1508 44.1206C73.1507 44.2451 73.1269 44.3657 73.0851 44.4594C73.0432 44.5528 72.9865 44.6111 72.9274 44.6251C72.4987 44.7252 72.07 44.8253 71.6413 44.9255C71.1651 45.0365 70.6898 45.1478 70.2138 45.2581C70.1388 44.7477 70.0359 44.3605 69.8432 44.1895C69.7448 44.1023 69.6014 44.066 69.4958 44.1608C69.4009 44.2461 69.3295 44.398 69.2616 44.5428C69.1907 44.6943 69.1233 44.8381 69.0366 44.8889C68.8895 44.9752 68.7497 45.1919 68.6029 45.4196C68.5495 45.5025 68.495 45.5869 68.439 45.6669C67.9846 45.7707 67.5302 45.8737 67.0758 45.9758C66.9003 45.9215 66.7389 45.8775 66.602 45.8985C66.4792 45.9172 66.3667 46.0251 66.2548 46.1592C66.1845 46.1749 66.1141 46.1905 66.0438 46.2061C65.5898 46.3066 65.1356 46.4055 64.6815 46.5035C64.3271 46.3673 63.9557 46.235 63.4728 46.1769C63.2646 46.1519 63.0593 46.0782 62.8619 46.0075C62.5703 45.9031 62.296 45.805 62.0555 45.8784C61.8948 45.9274 61.7257 45.8553 61.557 45.7833C61.3308 45.6868 61.105 45.5905 60.9004 45.787C60.7717 45.9105 60.6535 46.0607 60.544 46.2C60.3698 46.4217 60.2176 46.6156 60.0798 46.629C59.8209 46.654 59.5967 46.8155 59.3991 46.958C59.1615 47.1293 58.9622 47.2731 58.7871 47.1182C58.7606 47.0947 58.7302 47.0635 58.696 47.028C58.5158 46.841 58.2276 46.5419 57.8139 46.7063C57.6666 46.7649 57.5282 46.9171 57.3928 47.0664C57.1955 47.2838 57.004 47.4948 56.7988 47.4009C56.7682 47.3869 56.7362 47.328 56.707 47.2742C56.67 47.2058 56.6376 47.1461 56.6185 47.198C56.5622 47.3503 56.473 47.5187 56.3761 47.7019C56.3049 47.8365 56.2294 47.9792 56.1598 48.129C55.6283 48.2136 55.0967 48.2947 54.5649 48.3715C54.3213 48.4067 54.0776 48.441 53.8339 48.4744C53.7092 48.2451 53.5817 48.0385 53.4471 47.8822C53.2711 47.678 53.0429 47.6154 52.7488 47.5343C52.5324 47.4747 52.2801 47.4049 51.9866 47.262C51.4433 46.9974 50.8851 47.0568 50.5275 47.1986C50.4518 47.2286 50.3758 47.2607 50.2945 47.2955C49.986 47.4276 49.6011 47.5931 48.8699 47.7756C48.1783 47.9482 47.5901 47.993 47.1483 48.0266C46.9227 48.0438 46.7353 48.0576 46.5916 48.0845C46.3459 48.1305 46.0441 48.1715 45.7411 48.2124C45.267 48.2765 44.7899 48.3407 44.5198 48.4263C44.4237 48.4568 44.3228 48.4945 44.2138 48.5347C43.9119 48.6464 43.5471 48.7811 43.0444 48.8589C42.5168 48.9406 42.1897 48.8849 41.8499 48.7638C41.7118 48.7146 41.59 48.5201 41.4645 48.3191C41.2864 48.0338 41.1006 47.7361 40.8492 47.825C40.7906 47.8457 40.728 47.8921 40.6625 47.9407C40.5422 48.0301 40.4121 48.127 40.2789 48.0845C40.2324 48.0697 40.1915 48.0169 40.1514 47.9651C40.1073 47.9081 40.064 47.8524 40.015 47.8493C39.8319 47.8378 39.6537 47.8509 39.4954 47.8627C39.2913 47.878 39.1201 47.8906 39.0138 47.8445C38.8245 47.7621 38.6174 47.8358 38.4078 47.9109C38.2476 47.9682 38.0858 48.0265 37.9292 48.0157C37.4816 47.9846 36.866 48.1252 36.2318 48.3593C35.9918 48.4478 35.7885 48.3269 35.528 48.1716C35.366 48.0751 35.1818 47.9648 34.9528 47.8841C34.823 47.8383 34.7131 47.946 34.6113 48.0455C34.5176 48.1372 34.4306 48.2219 34.3415 48.1741C34.2627 48.1317 34.213 47.9507 34.1657 47.7787C34.1131 47.5872 34.0636 47.4072 33.9808 47.4423C33.9367 47.461 33.8831 47.5516 33.8194 47.6592C33.7942 47.7018 33.7673 47.7468 33.7388 47.7914C33.7403 47.7547 33.7406 47.7219 33.7407 47.697C33.7407 47.5213 33.6563 47.4288 33.5733 47.3382C33.5402 47.302 33.5073 47.2662 33.4802 47.2254C33.3805 47.0753 33.1918 47.0509 33.0476 47.0579C32.9866 47.0608 32.9313 47.0063 32.8668 46.9427C32.8095 46.8863 32.745 46.8226 32.6626 46.7856C32.6157 46.7644 32.5796 46.7135 32.5498 46.671C32.5282 46.6402 32.5098 46.6139 32.4928 46.607C32.478 46.6011 32.4661 46.6515 32.4527 46.7082C32.4431 46.749 32.4326 46.7932 32.4198 46.8221C32.3891 46.8911 32.3495 46.9119 32.3218 46.8897C32.309 46.8795 32.2989 46.8599 32.2889 46.8404C32.2772 46.8177 32.2655 46.7948 32.2495 46.7868C32.1759 46.7501 32.1044 46.8075 32.03 46.8672C31.9483 46.9328 31.863 47.0009 31.7682 46.9501C31.7383 46.934 31.7065 46.8973 31.6757 46.8617C31.6435 46.8244 31.6121 46.7884 31.5855 46.7788C31.4774 46.7399 31.3757 46.8656 31.2822 46.9811C31.2201 47.058 31.1614 47.1303 31.1069 47.1468C31.0071 47.1771 30.9535 47.3279 30.914 47.4393C30.8935 47.497 30.8768 47.5444 30.8593 47.5587C30.8432 47.5545 30.8269 47.5495 30.811 47.5441C30.7964 47.533 30.7812 47.5215 30.767 47.5252C30.766 47.5255 30.7649 47.5261 30.7638 47.5264C30.6746 47.4899 30.5868 47.438 30.4997 47.3863C30.304 47.2701 30.1106 47.1551 29.9062 47.22C29.8622 47.2339 29.8173 47.2962 29.7716 47.3595C29.7157 47.437 29.6585 47.5163 29.6002 47.5106C29.4613 47.497 29.3211 47.3943 29.183 47.2931C28.9752 47.1409 28.7722 46.9922 28.5856 47.1554C28.524 47.2092 28.4639 47.2989 28.4036 47.3893C28.37 47.4397 28.3363 47.4905 28.3022 47.5349C28.3094 47.4525 28.3133 47.375 28.3169 47.3028C28.3243 47.154 28.3306 47.0266 28.3633 46.9184C28.4406 46.6626 28.5282 46.3106 28.5185 46.0538C28.5159 45.9841 28.518 45.9065 28.5203 45.8284C28.5262 45.6324 28.5322 45.4321 28.4604 45.3416C28.412 45.2806 28.2877 45.1405 28.2086 45.2904C28.1914 45.3231 28.1809 45.3878 28.1692 45.4598C28.1483 45.5891 28.1233 45.7422 28.0484 45.7778C28.0358 45.7838 28.0221 45.7892 28.0079 45.7943C27.9513 45.8144 27.888 45.8366 27.8644 45.9405C27.8371 46.0602 27.8429 46.1974 27.8497 46.3572C27.8586 46.5655 27.8691 46.8128 27.8104 47.1109C27.7987 47.1698 27.7765 47.19 27.7598 47.2053C27.748 47.2161 27.7389 47.2248 27.738 47.2425C27.737 47.2629 27.7408 47.3052 27.7456 47.3589C27.7625 47.548 27.7919 47.8786 27.6691 47.8926C27.6359 47.8963 27.5979 47.8806 27.5638 47.8664C27.5136 47.8454 27.4719 47.8281 27.4663 47.8822C27.4643 47.9027 27.4628 47.925 27.4615 47.948C27.4216 47.9415 27.3816 47.935 27.3416 47.9285C27.2903 47.8641 27.2184 47.8696 27.1285 47.8767C27.1067 47.8785 27.0837 47.8801 27.0599 47.881C26.981 47.8677 26.9021 47.8544 26.8232 47.8408C26.7607 47.8135 26.6941 47.7689 26.6238 47.6982C26.4831 47.5566 26.3606 47.3229 26.2409 47.0944C26.1905 46.9982 26.1405 46.9026 26.0899 46.8154C26.1096 46.8047 26.1274 46.792 26.1411 46.7746C26.235 46.6552 26.2727 46.4204 26.3073 46.2043C26.3303 46.0606 26.3521 45.925 26.3881 45.8375C26.454 45.6773 26.4474 45.4899 26.4426 45.3513C26.44 45.2795 26.4381 45.2206 26.4469 45.1856C26.454 45.1576 26.4703 45.1444 26.4872 45.1308C26.5019 45.1189 26.5171 45.1065 26.5268 45.0839C26.6447 44.8095 26.6092 44.6503 26.5577 44.4186C26.5293 44.2907 26.496 44.1408 26.4808 43.9372C26.4677 43.7218 26.4721 43.6587 26.5339 43.5729C26.4857 43.4665 26.4376 43.3601 26.3895 43.2536C26.3706 43.2606 26.3563 43.3271 26.3361 43.4376C26.3002 43.6351 26.1831 43.7072 26.0917 43.7636C26.0493 43.7897 26.0125 43.8125 25.9917 43.8428C25.881 44.0038 25.9132 44.228 25.9415 44.4253C25.9571 44.5338 25.9715 44.6343 25.9603 44.7116C25.9555 44.7447 25.9624 44.7775 25.9692 44.8109C25.9745 44.8368 25.98 44.8631 25.9802 44.8901C25.9817 45.0866 25.9162 45.2324 25.8555 45.3678C25.8207 45.4453 25.7875 45.5197 25.7692 45.5981C25.7636 45.622 25.7592 45.6463 25.755 45.67C25.7489 45.7045 25.743 45.7374 25.7337 45.7656C25.7126 45.8299 25.669 45.8732 25.6213 45.9204C25.5969 45.9446 25.5713 45.9699 25.5472 45.9996C25.5159 46.0381 25.5046 46.1158 25.4927 46.197C25.4843 46.2544 25.4755 46.3134 25.4593 46.3621C25.43 46.4501 25.3707 46.4819 25.3158 46.5114C25.2918 46.5242 25.2687 46.537 25.2492 46.5534C25.2412 46.5601 25.2374 46.5735 25.2366 46.5918C25.1464 46.6533 25.0602 46.7161 24.9763 46.7776C24.5559 47.0861 24.192 47.3535 23.6486 47.1596C23.5459 47.123 23.4355 47.1303 23.3241 47.1596C22.9674 47.0826 22.6106 47.003 22.254 46.9214C22.1835 46.7444 22.0971 46.5957 21.9949 46.4791C21.803 46.2601 21.6056 46.2133 21.3726 46.158C21.2004 46.1172 21.0087 46.0715 20.7853 45.9484C20.41 45.7416 20.0247 45.5666 19.5899 45.4756C19.1569 45.3851 18.6613 45.3184 18.3106 45.2947C18.1195 45.2818 17.9187 45.1234 17.7316 44.976C17.4684 44.7687 17.2322 44.5829 17.088 44.8524C17.0419 44.9385 16.9974 45.0879 16.9541 45.2331C16.9232 45.3366 16.8928 45.4376 16.863 45.5128C16.7836 45.4894 16.7041 45.4663 16.6247 45.4427C16.4836 45.2632 16.2643 45.0707 16.0523 45.2709C15.9703 45.2462 15.8884 45.2216 15.8092 45.1966C15.6365 45.1444 15.4675 45.0915 15.297 45.0382C15.2413 45.0206 15.1851 45.0029 15.1287 44.9852C15.1282 44.985 15.1277 44.9848 15.1271 44.9846C15.0137 44.9489 14.8994 44.9129 14.787 44.8767C14.7389 44.8613 14.6907 44.8459 14.6426 44.8304C14.5203 44.7913 14.397 44.7519 14.2759 44.7122C14.2118 44.6911 14.1471 44.6701 14.0823 44.6489C13.9771 44.6143 13.8712 44.5796 13.7658 44.5447C13.5953 44.4882 13.4256 44.4311 13.2556 44.3735C13.2278 44.364 13.2011 44.3341 13.1814 44.2888C13.1618 44.2434 13.1507 44.1866 13.1508 44.1279C13.1508 44.0693 13.162 44.0123 13.1817 43.9671C13.2013 43.9221 13.228 43.8929 13.2558 43.8836C13.4259 43.8276 13.5958 43.7722 13.7664 43.7173C13.8719 43.6833 13.9778 43.6491 14.083 43.6155C14.1478 43.5949 14.2125 43.5745 14.2766 43.554C14.3977 43.5154 14.5212 43.4769 14.6435 43.4389C14.6917 43.4238 14.7398 43.4088 14.7879 43.3938C14.9006 43.3586 15.0152 43.3237 15.129 43.289C15.1297 43.2888 15.1303 43.2886 15.131 43.2884C15.187 43.2713 15.2428 43.2542 15.2981 43.2372C15.4687 43.1855 15.6378 43.1343 15.8106 43.0837C15.8999 43.0563 15.9929 43.0296 16.0852 43.0026C16.1367 42.9876 16.188 42.9725 16.2384 42.9575C16.2659 42.9496 16.2938 42.9417 16.3219 42.9338C16.9662 42.7465 17.6059 42.5662 18.2516 42.3934C18.8949 42.2205 19.5393 42.0547 20.1818 41.8956C20.8258 41.7364 21.4687 41.5841 22.1121 41.438C26.1956 40.5102 30.2955 39.7494 34.3971 39.2733C34.9821 39.205 35.5824 39.1433 36.1686 39.0881C36.7612 39.0328 37.3417 38.9838 37.9358 38.9419C38.1163 38.9288 38.3013 38.9165 38.4911 38.9047Z" fill="black"/>
<path d="M38.4911 0.90472C40.0284 0.806922 41.5079 1.72972 43.0504 1.73149C44.9656 1.73378 46.9113 0.852011 48.831 1.01621C50.7396 1.18046 52.6573 1.41632 54.5691 1.70712C56.4829 1.99793 58.3939 2.34357 60.3087 2.72642C62.2194 3.10926 64.1343 3.52922 66.0465 3.96993C67.3454 4.26927 68.6456 4.5783 69.9444 4.89113C70.5145 5.02825 71.0829 5.16598 71.6527 5.30422C72.0778 5.40759 72.5029 5.51096 72.9281 5.61433C72.9871 5.6289 73.0438 5.68803 73.0855 5.78188C73.1273 5.87589 73.1508 5.99624 73.1508 6.12063C73.1507 6.24509 73.1269 6.36571 73.0851 6.45938C73.0432 6.55279 72.9865 6.61109 72.9274 6.6251C72.4987 6.72522 72.07 6.82534 71.6413 6.92547C71.1651 7.03652 70.6898 7.14779 70.2138 7.25813C70.1388 6.74766 70.0359 6.36047 69.8432 6.18948C69.7448 6.10226 69.6014 6.06599 69.4958 6.16084C69.4009 6.24607 69.3295 6.39803 69.2616 6.54285C69.1907 6.69432 69.1233 6.83813 69.0366 6.88891C68.8895 6.97516 68.7497 7.19189 68.6029 7.41958C68.5495 7.50245 68.495 7.5869 68.439 7.66694C67.9846 7.77075 67.5302 7.87374 67.0758 7.97584C66.9003 7.92148 66.7389 7.87752 66.602 7.89846C66.4792 7.91725 66.3667 8.02509 66.2548 8.15923C66.1845 8.17486 66.1141 8.1905 66.0438 8.20614C65.5898 8.30661 65.1356 8.40548 64.6815 8.50346C64.3271 8.36727 63.9557 8.23497 63.4728 8.1769C63.2646 8.15186 63.0593 8.07821 62.8619 8.00752C62.5703 7.90312 62.296 7.80499 62.0555 7.87836C61.8948 7.92741 61.7257 7.85526 61.557 7.78331C61.3308 7.68682 61.105 7.59049 60.9004 7.78697C60.7717 7.91052 60.6535 8.06073 60.544 8.20005C60.3698 8.42171 60.2176 8.6156 60.0798 8.62897C59.8209 8.65403 59.5967 8.81552 59.3991 8.95797C59.1615 9.12931 58.9622 9.27307 58.7871 9.11821C58.7606 9.09473 58.7302 9.06352 58.696 9.02804C58.5158 8.84103 58.2276 8.54192 57.8139 8.70635C57.6666 8.76491 57.5282 8.91709 57.3928 9.06642C57.1955 9.28381 57.004 9.49482 56.7988 9.40091C56.7682 9.38685 56.7362 9.32797 56.707 9.27418C56.67 9.20579 56.6376 9.1461 56.6185 9.19802C56.5622 9.35033 56.473 9.51867 56.3761 9.70188C56.3049 9.83648 56.2294 9.97918 56.1598 10.129C55.6283 10.2136 55.0967 10.2947 54.5649 10.3715C54.3213 10.4067 54.0776 10.441 53.8339 10.4744C53.7092 10.2451 53.5817 10.0385 53.4471 9.88223C53.2711 9.67796 53.0429 9.6154 52.7488 9.53434C52.5324 9.47469 52.2801 9.40493 51.9866 9.262C51.4433 8.99743 50.8851 9.05676 50.5275 9.19863C50.4518 9.22864 50.3758 9.26067 50.2945 9.2955C49.986 9.42764 49.6011 9.59311 48.8699 9.7756C48.1783 9.94823 47.5901 9.99299 47.1483 10.0266C46.9227 10.0438 46.7353 10.0576 46.5916 10.0845C46.3459 10.1305 46.0441 10.1715 45.7411 10.2124C45.267 10.2765 44.7899 10.3407 44.5198 10.4263C44.4237 10.4568 44.3228 10.4945 44.2138 10.5347C43.9119 10.6464 43.5471 10.7811 43.0444 10.8589C42.5168 10.9406 42.1897 10.8849 41.8499 10.7638C41.7118 10.7146 41.59 10.5201 41.4645 10.3191C41.2864 10.0338 41.1006 9.73613 40.8492 9.82496C40.7906 9.8457 40.728 9.89206 40.6625 9.94072C40.5422 10.0301 40.4121 10.127 40.2789 10.0845C40.2324 10.0697 40.1915 10.0169 40.1514 9.96509C40.1073 9.90812 40.064 9.85244 40.015 9.84933C39.8319 9.83776 39.6537 9.85091 39.4954 9.86273C39.2913 9.87797 39.1201 9.89063 39.0138 9.84445C38.8245 9.76208 38.6174 9.83581 38.4078 9.91086C38.2476 9.96819 38.0858 10.0265 37.9292 10.0157C37.4816 9.98465 36.866 10.1252 36.2318 10.3593C35.9918 10.4478 35.7885 10.3269 35.528 10.1716C35.366 10.0751 35.1818 9.96479 34.9528 9.88405C34.823 9.8383 34.7131 9.94601 34.6113 10.0455C34.5176 10.1372 34.4306 10.2219 34.3415 10.1741C34.2627 10.1317 34.213 9.95065 34.1657 9.77865C34.1131 9.58724 34.0636 9.40721 33.9808 9.44234C33.9367 9.46104 33.8831 9.55162 33.8194 9.65924C33.7942 9.7018 33.7673 9.74684 33.7388 9.79145C33.7403 9.75471 33.7406 9.72187 33.7407 9.69701C33.7407 9.52132 33.6563 9.42879 33.5733 9.33815C33.5402 9.30196 33.5073 9.26622 33.4802 9.22544C33.3805 9.07534 33.1918 9.05092 33.0476 9.05789C32.9866 9.06079 32.9313 9.00632 32.8668 8.94274C32.8095 8.88629 32.745 8.82258 32.6626 8.78555C32.6157 8.76444 32.5796 8.71352 32.5498 8.67101C32.5282 8.64024 32.5098 8.61394 32.4928 8.60704C32.478 8.60109 32.4661 8.65145 32.4527 8.70817C32.4431 8.749 32.4326 8.79323 32.4198 8.82211C32.3891 8.89109 32.3495 8.9119 32.3218 8.88973C32.309 8.87949 32.2989 8.85989 32.2889 8.84038C32.2772 8.81766 32.2655 8.79478 32.2495 8.78677C32.1759 8.75008 32.1044 8.80753 32.03 8.86719C31.9483 8.93277 31.863 9.00089 31.7682 8.95005C31.7383 8.93404 31.7065 8.89733 31.6757 8.86171C31.6435 8.82443 31.6121 8.78845 31.5855 8.77885C31.4774 8.73995 31.3757 8.86557 31.2822 8.98112C31.2201 9.05797 31.1614 9.13026 31.1069 9.14684C31.0071 9.17713 30.9535 9.32794 30.914 9.43929C30.8935 9.49698 30.8768 9.54437 30.8593 9.55871C30.8432 9.55451 30.8269 9.54952 30.811 9.54408C30.7964 9.53299 30.7812 9.52155 30.767 9.5252C30.766 9.52548 30.7649 9.52613 30.7638 9.52642C30.6746 9.48986 30.5868 9.43801 30.4997 9.38628C30.304 9.27012 30.1106 9.15514 29.9062 9.21996C29.8622 9.23393 29.8173 9.29621 29.7716 9.35948C29.7157 9.43699 29.6585 9.51628 29.6002 9.51057C29.4613 9.49698 29.3211 9.39427 29.183 9.29307C28.9752 9.14086 28.7722 8.99221 28.5856 9.15537C28.524 9.20923 28.4639 9.29892 28.4036 9.38933C28.37 9.43972 28.3363 9.49053 28.3022 9.53495C28.3094 9.45247 28.3133 9.37503 28.3169 9.30282C28.3243 9.15397 28.3306 9.02658 28.3633 8.91837C28.4406 8.66263 28.5282 8.31058 28.5185 8.05382C28.5159 7.98414 28.518 7.90654 28.5203 7.8284C28.5262 7.63235 28.5322 7.43214 28.4604 7.34159C28.412 7.28058 28.2877 7.14048 28.2086 7.29042C28.1914 7.32308 28.1809 7.38784 28.1692 7.45979C28.1483 7.58909 28.1233 7.74219 28.0484 7.77783C28.0358 7.78382 28.0221 7.78924 28.0079 7.79428C27.9513 7.81438 27.888 7.83657 27.8644 7.9405C27.8371 8.06023 27.8429 8.19735 27.8497 8.35724C27.8586 8.56547 27.8691 8.8128 27.8104 9.1109C27.7987 9.16983 27.7765 9.19002 27.7598 9.20533C27.748 9.21612 27.7389 9.22477 27.738 9.2425C27.737 9.26287 27.7408 9.30525 27.7456 9.35887C27.7625 9.54804 27.7919 9.87857 27.6691 9.89258C27.6359 9.89634 27.5979 9.8806 27.5638 9.86639C27.5136 9.84543 27.4719 9.82815 27.4663 9.88223C27.4643 9.90275 27.4628 9.92498 27.4615 9.94803C27.4216 9.94153 27.3816 9.93503 27.3416 9.92853C27.2903 9.86406 27.2184 9.86958 27.1285 9.87674C27.1067 9.87848 27.0837 9.88008 27.0599 9.88101C26.981 9.86766 26.9021 9.85439 26.8232 9.8408C26.7607 9.81345 26.6941 9.76892 26.6238 9.69823C26.4831 9.55656 26.3606 9.32292 26.2409 9.09445C26.1905 8.99818 26.1405 8.90262 26.0899 8.8154C26.1096 8.80468 26.1274 8.79203 26.1411 8.77458C26.235 8.65524 26.2727 8.42044 26.3073 8.20431C26.3303 8.06055 26.3521 7.925 26.3881 7.83754C26.454 7.6773 26.4474 7.48991 26.4426 7.35134C26.44 7.27947 26.4381 7.22059 26.4469 7.18562C26.454 7.15761 26.4703 7.14444 26.4872 7.13079C26.5019 7.1189 26.5171 7.10645 26.5268 7.08388C26.6447 6.80955 26.6092 6.65032 26.5577 6.41856C26.5293 6.29074 26.496 6.14075 26.4808 5.93724C26.4677 5.72177 26.4721 5.65873 26.5339 5.5729C26.4857 5.46648 26.4376 5.36006 26.3895 5.25365C26.3706 5.26056 26.3563 5.3271 26.3361 5.43764C26.3002 5.63507 26.1831 5.70722 26.0917 5.7636C26.0493 5.78971 26.0125 5.81254 25.9917 5.84281C25.881 6.00379 25.9132 6.22798 25.9415 6.42526C25.9571 6.53384 25.9715 6.63435 25.9603 6.71162C25.9555 6.74467 25.9624 6.77747 25.9692 6.81093C25.9745 6.83679 25.98 6.86308 25.9802 6.89013C25.9817 7.08658 25.9162 7.2324 25.8555 7.36779C25.8207 7.44533 25.7875 7.51973 25.7692 7.59809C25.7636 7.62198 25.7592 7.64634 25.755 7.66999C25.7489 7.70452 25.743 7.73744 25.7337 7.76564C25.7126 7.82988 25.669 7.87319 25.6213 7.9204C25.5969 7.9446 25.5713 7.96986 25.5472 7.9996C25.5159 8.03814 25.5046 8.11584 25.4927 8.197C25.4843 8.25436 25.4755 8.31344 25.4593 8.36211C25.43 8.45012 25.3707 8.4819 25.3158 8.51138C25.2918 8.52422 25.2687 8.53698 25.2492 8.55342C25.2412 8.56012 25.2374 8.57347 25.2366 8.5918C25.1464 8.6533 25.0602 8.71611 24.9763 8.77763C24.5559 9.08606 24.192 9.35348 23.6486 9.15964C23.5459 9.12299 23.4355 9.13031 23.3241 9.15964C22.9674 9.08258 22.6106 9.00301 22.254 8.92142C22.1835 8.7444 22.0971 8.59574 21.9949 8.47909C21.803 8.26007 21.6056 8.21327 21.3726 8.15801C21.2004 8.11715 21.0087 8.07153 20.7853 7.94842C20.41 7.74156 20.0247 7.56657 19.5899 7.47563C19.1569 7.3851 18.6613 7.31836 18.3106 7.29468C18.1195 7.28176 17.9187 7.12341 17.7316 6.97604C17.4684 6.76874 17.2322 6.58295 17.088 6.85236C17.0419 6.93845 16.9974 7.08793 16.9541 7.23315C16.9232 7.33657 16.8928 7.43757 16.863 7.5128C16.7836 7.48944 16.7041 7.46633 16.6247 7.44273C16.4836 7.2632 16.2643 7.07071 16.0523 7.27092C15.9703 7.24618 15.8884 7.22156 15.8092 7.19659C15.6365 7.14436 15.4675 7.09146 15.297 7.03818C15.2413 7.02056 15.1851 7.00291 15.1287 6.98518C15.1282 6.98497 15.1277 6.98477 15.1271 6.98457C15.0137 6.94886 14.8994 6.9129 14.787 6.87673C14.7389 6.86129 14.6907 6.84586 14.6426 6.83042C14.5203 6.79125 14.397 6.75194 14.2759 6.71222C14.2118 6.6911 14.1471 6.67014 14.0823 6.64886C13.9771 6.61434 13.8712 6.57962 13.7658 6.54468C13.5953 6.48819 13.4256 6.43105 13.2556 6.37347C13.2278 6.36395 13.2011 6.33408 13.1814 6.28879C13.1618 6.24342 13.1507 6.18655 13.1508 6.12794C13.1508 6.06931 13.162 6.0123 13.1817 5.96709C13.2013 5.92206 13.228 5.8929 13.2558 5.88363C13.4259 5.82761 13.5958 5.77222 13.7664 5.7173C13.8719 5.68334 13.9778 5.64909 14.083 5.61555C14.1478 5.59487 14.2125 5.57454 14.2766 5.55401C14.3977 5.51543 14.5212 5.47688 14.6435 5.43886C14.6917 5.42383 14.7398 5.40881 14.7879 5.39378C14.9006 5.35857 15.0152 5.32371 15.129 5.28898C15.1297 5.28878 15.1303 5.28858 15.131 5.28837C15.187 5.27129 15.2428 5.25417 15.2981 5.2372C15.4687 5.1855 15.6378 5.13429 15.8106 5.08366C15.8999 5.05634 15.9929 5.02963 16.0852 5.00263C16.1367 4.9876 16.188 4.97249 16.2384 4.95754C16.2659 4.94959 16.2938 4.94171 16.3219 4.93378C16.9662 4.74646 17.6059 4.56624 18.2516 4.39337C18.8949 4.22049 19.5393 4.05475 20.1818 3.8956C20.8258 3.73644 21.4687 3.58415 22.1121 3.43804C26.1956 2.51021 30.2955 1.74943 34.3971 1.27332C34.9821 1.20496 35.5824 1.14335 36.1686 1.08811C36.7612 1.03284 37.3417 0.983804 37.9358 0.941885C38.1163 0.928783 38.3013 0.916503 38.4911 0.90472Z" fill="black"/>
<path d="M38.4911 18.9047C40.0284 18.8069 41.5079 19.7297 43.0504 19.7315C44.9656 19.7338 46.9113 18.852 48.831 19.0162C50.7396 19.1805 52.6573 19.4163 54.5691 19.7071C56.4829 19.9979 58.3939 20.3436 60.3087 20.7264C62.2194 21.1093 64.1343 21.5292 66.0465 21.9699C67.3454 22.2693 68.6456 22.5783 69.9444 22.8911C70.5145 23.0283 71.0829 23.166 71.6527 23.3042C72.0778 23.4076 72.5029 23.511 72.9281 23.6143C72.9871 23.6289 73.0438 23.688 73.0855 23.7819C73.1273 23.8759 73.1508 23.9962 73.1508 24.1206C73.1507 24.2451 73.1269 24.3657 73.0851 24.4594C73.0432 24.5528 72.9865 24.6111 72.9274 24.6251C72.4987 24.7252 72.07 24.8253 71.6413 24.9255C71.1651 25.0365 70.6898 25.1478 70.2138 25.2581C70.1388 24.7477 70.0359 24.3605 69.8432 24.1895C69.7448 24.1023 69.6014 24.066 69.4958 24.1608C69.4009 24.2461 69.3295 24.398 69.2616 24.5428C69.1907 24.6943 69.1233 24.8381 69.0366 24.8889C68.8895 24.9752 68.7497 25.1919 68.6029 25.4196C68.5495 25.5025 68.495 25.5869 68.439 25.6669C67.9846 25.7707 67.5302 25.8737 67.0758 25.9758C66.9003 25.9215 66.7389 25.8775 66.602 25.8985C66.4792 25.9172 66.3667 26.0251 66.2548 26.1592C66.1845 26.1749 66.1141 26.1905 66.0438 26.2061C65.5898 26.3066 65.1356 26.4055 64.6815 26.5035C64.3271 26.3673 63.9557 26.235 63.4728 26.1769C63.2646 26.1519 63.0593 26.0782 62.8619 26.0075C62.5703 25.9031 62.296 25.805 62.0555 25.8784C61.8948 25.9274 61.7257 25.8553 61.557 25.7833C61.3308 25.6868 61.105 25.5905 60.9004 25.787C60.7717 25.9105 60.6535 26.0607 60.544 26.2C60.3698 26.4217 60.2176 26.6156 60.0798 26.629C59.8209 26.654 59.5967 26.8155 59.3991 26.958C59.1615 27.1293 58.9622 27.2731 58.7871 27.1182C58.7606 27.0947 58.7302 27.0635 58.696 27.028C58.5158 26.841 58.2276 26.5419 57.8139 26.7063C57.6666 26.7649 57.5282 26.9171 57.3928 27.0664C57.1955 27.2838 57.004 27.4948 56.7988 27.4009C56.7682 27.3869 56.7362 27.328 56.707 27.2742C56.67 27.2058 56.6376 27.1461 56.6185 27.198C56.5622 27.3503 56.473 27.5187 56.3761 27.7019C56.3049 27.8365 56.2294 27.9792 56.1598 28.129C55.6283 28.2136 55.0967 28.2947 54.5649 28.3715C54.3213 28.4067 54.0776 28.441 53.8339 28.4744C53.7092 28.2451 53.5817 28.0385 53.4471 27.8822C53.2711 27.678 53.0429 27.6154 52.7488 27.5343C52.5324 27.4747 52.2801 27.4049 51.9866 27.262C51.4433 26.9974 50.8851 27.0568 50.5275 27.1986C50.4518 27.2286 50.3758 27.2607 50.2945 27.2955C49.986 27.4276 49.6011 27.5931 48.8699 27.7756C48.1783 27.9482 47.5901 27.993 47.1483 28.0266C46.9227 28.0438 46.7353 28.0576 46.5916 28.0845C46.3459 28.1305 46.0441 28.1715 45.7411 28.2124C45.267 28.2765 44.7899 28.3407 44.5198 28.4263C44.4237 28.4568 44.3228 28.4945 44.2138 28.5347C43.9119 28.6464 43.5471 28.7811 43.0444 28.8589C42.5168 28.9406 42.1897 28.8849 41.8499 28.7638C41.7118 28.7146 41.59 28.5201 41.4645 28.3191C41.2864 28.0338 41.1006 27.7361 40.8492 27.825C40.7906 27.8457 40.728 27.8921 40.6625 27.9407C40.5422 28.0301 40.4121 28.127 40.2789 28.0845C40.2324 28.0697 40.1915 28.0169 40.1514 27.9651C40.1073 27.9081 40.064 27.8524 40.015 27.8493C39.8319 27.8378 39.6537 27.8509 39.4954 27.8627C39.2913 27.878 39.1201 27.8906 39.0138 27.8445C38.8245 27.7621 38.6174 27.8358 38.4078 27.9109C38.2476 27.9682 38.0858 28.0265 37.9292 28.0157C37.4816 27.9846 36.866 28.1252 36.2318 28.3593C35.9918 28.4478 35.7885 28.3269 35.528 28.1716C35.366 28.0751 35.1818 27.9648 34.9528 27.8841C34.823 27.8383 34.7131 27.946 34.6113 28.0455C34.5176 28.1372 34.4306 28.2219 34.3415 28.1741C34.2627 28.1317 34.213 27.9507 34.1657 27.7787C34.1131 27.5872 34.0636 27.4072 33.9808 27.4423C33.9367 27.461 33.8831 27.5516 33.8194 27.6592C33.7942 27.7018 33.7673 27.7468 33.7388 27.7914C33.7403 27.7547 33.7406 27.7219 33.7407 27.697C33.7407 27.5213 33.6563 27.4288 33.5733 27.3382C33.5402 27.302 33.5073 27.2662 33.4802 27.2254C33.3805 27.0753 33.1918 27.0509 33.0476 27.0579C32.9866 27.0608 32.9313 27.0063 32.8668 26.9427C32.8095 26.8863 32.745 26.8226 32.6626 26.7856C32.6157 26.7644 32.5796 26.7135 32.5498 26.671C32.5282 26.6402 32.5098 26.6139 32.4928 26.607C32.478 26.6011 32.4661 26.6515 32.4527 26.7082C32.4431 26.749 32.4326 26.7932 32.4198 26.8221C32.3891 26.8911 32.3495 26.9119 32.3218 26.8897C32.309 26.8795 32.2989 26.8599 32.2889 26.8404C32.2772 26.8177 32.2655 26.7948 32.2495 26.7868C32.1759 26.7501 32.1044 26.8075 32.03 26.8672C31.9483 26.9328 31.863 27.0009 31.7682 26.9501C31.7383 26.934 31.7065 26.8973 31.6757 26.8617C31.6435 26.8244 31.6121 26.7884 31.5855 26.7788C31.4774 26.7399 31.3757 26.8656 31.2822 26.9811C31.2201 27.058 31.1614 27.1303 31.1069 27.1468C31.0071 27.1771 30.9535 27.3279 30.914 27.4393C30.8935 27.497 30.8768 27.5444 30.8593 27.5587C30.8432 27.5545 30.8269 27.5495 30.811 27.5441C30.7964 27.533 30.7812 27.5215 30.767 27.5252C30.766 27.5255 30.7649 27.5261 30.7638 27.5264C30.6746 27.4899 30.5868 27.438 30.4997 27.3863C30.304 27.2701 30.1106 27.1551 29.9062 27.22C29.8622 27.2339 29.8173 27.2962 29.7716 27.3595C29.7157 27.437 29.6585 27.5163 29.6002 27.5106C29.4613 27.497 29.3211 27.3943 29.183 27.2931C28.9752 27.1409 28.7722 26.9922 28.5856 27.1554C28.524 27.2092 28.4639 27.2989 28.4036 27.3893C28.37 27.4397 28.3363 27.4905 28.3022 27.5349C28.3094 27.4525 28.3133 27.375 28.3169 27.3028C28.3243 27.154 28.3306 27.0266 28.3633 26.9184C28.4406 26.6626 28.5282 26.3106 28.5185 26.0538C28.5159 25.9841 28.518 25.9065 28.5203 25.8284C28.5262 25.6324 28.5322 25.4321 28.4604 25.3416C28.412 25.2806 28.2877 25.1405 28.2086 25.2904C28.1914 25.3231 28.1809 25.3878 28.1692 25.4598C28.1483 25.5891 28.1233 25.7422 28.0484 25.7778C28.0358 25.7838 28.0221 25.7892 28.0079 25.7943C27.9513 25.8144 27.888 25.8366 27.8644 25.9405C27.8371 26.0602 27.8429 26.1974 27.8497 26.3572C27.8586 26.5655 27.8691 26.8128 27.8104 27.1109C27.7987 27.1698 27.7765 27.19 27.7598 27.2053C27.748 27.2161 27.7389 27.2248 27.738 27.2425C27.737 27.2629 27.7408 27.3052 27.7456 27.3589C27.7625 27.548 27.7919 27.8786 27.6691 27.8926C27.6359 27.8963 27.5979 27.8806 27.5638 27.8664C27.5136 27.8454 27.4719 27.8281 27.4663 27.8822C27.4643 27.9027 27.4628 27.925 27.4615 27.948C27.4216 27.9415 27.3816 27.935 27.3416 27.9285C27.2903 27.8641 27.2184 27.8696 27.1285 27.8767C27.1067 27.8785 27.0837 27.8801 27.0599 27.881C26.981 27.8677 26.9021 27.8544 26.8232 27.8408C26.7607 27.8135 26.6941 27.7689 26.6238 27.6982C26.4831 27.5566 26.3606 27.3229 26.2409 27.0944C26.1905 26.9982 26.1405 26.9026 26.0899 26.8154C26.1096 26.8047 26.1274 26.792 26.1411 26.7746C26.235 26.6552 26.2727 26.4204 26.3073 26.2043C26.3303 26.0606 26.3521 25.925 26.3881 25.8375C26.454 25.6773 26.4474 25.4899 26.4426 25.3513C26.44 25.2795 26.4381 25.2206 26.4469 25.1856C26.454 25.1576 26.4703 25.1444 26.4872 25.1308C26.5019 25.1189 26.5171 25.1065 26.5268 25.0839C26.6447 24.8095 26.6092 24.6503 26.5577 24.4186C26.5293 24.2907 26.496 24.1408 26.4808 23.9372C26.4677 23.7218 26.4721 23.6587 26.5339 23.5729C26.4857 23.4665 26.4376 23.3601 26.3895 23.2536C26.3706 23.2606 26.3563 23.3271 26.3361 23.4376C26.3002 23.6351 26.1831 23.7072 26.0917 23.7636C26.0493 23.7897 26.0125 23.8125 25.9917 23.8428C25.881 24.0038 25.9132 24.228 25.9415 24.4253C25.9571 24.5338 25.9715 24.6343 25.9603 24.7116C25.9555 24.7447 25.9624 24.7775 25.9692 24.8109C25.9745 24.8368 25.98 24.8631 25.9802 24.8901C25.9817 25.0866 25.9162 25.2324 25.8555 25.3678C25.8207 25.4453 25.7875 25.5197 25.7692 25.5981C25.7636 25.622 25.7592 25.6463 25.755 25.67C25.7489 25.7045 25.743 25.7374 25.7337 25.7656C25.7126 25.8299 25.669 25.8732 25.6213 25.9204C25.5969 25.9446 25.5713 25.9699 25.5472 25.9996C25.5159 26.0381 25.5046 26.1158 25.4927 26.197C25.4843 26.2544 25.4755 26.3134 25.4593 26.3621C25.43 26.4501 25.3707 26.4819 25.3158 26.5114C25.2918 26.5242 25.2687 26.537 25.2492 26.5534C25.2412 26.5601 25.2374 26.5735 25.2366 26.5918C25.1464 26.6533 25.0602 26.7161 24.9763 26.7776C24.5559 27.0861 24.192 27.3535 23.6486 27.1596C23.5459 27.123 23.4355 27.1303 23.3241 27.1596C22.9674 27.0826 22.6106 27.003 22.254 26.9214C22.1835 26.7444 22.0971 26.5957 21.9949 26.4791C21.803 26.2601 21.6056 26.2133 21.3726 26.158C21.2004 26.1172 21.0087 26.0715 20.7853 25.9484C20.41 25.7416 20.0247 25.5666 19.5899 25.4756C19.1569 25.3851 18.6613 25.3184 18.3106 25.2947C18.1195 25.2818 17.9187 25.1234 17.7316 24.976C17.4684 24.7687 17.2322 24.5829 17.088 24.8524C17.0419 24.9385 16.9974 25.0879 16.9541 25.2331C16.9232 25.3366 16.8928 25.4376 16.863 25.5128C16.7836 25.4894 16.7041 25.4663 16.6247 25.4427C16.4836 25.2632 16.2643 25.0707 16.0523 25.2709C15.9703 25.2462 15.8884 25.2216 15.8092 25.1966C15.6365 25.1444 15.4675 25.0915 15.297 25.0382C15.2413 25.0206 15.1851 25.0029 15.1287 24.9852C15.1282 24.985 15.1277 24.9848 15.1271 24.9846C15.0137 24.9489 14.8994 24.9129 14.787 24.8767C14.7389 24.8613 14.6907 24.8459 14.6426 24.8304C14.5203 24.7913 14.397 24.7519 14.2759 24.7122C14.2118 24.6911 14.1471 24.6701 14.0823 24.6489C13.9771 24.6143 13.8712 24.5796 13.7658 24.5447C13.5953 24.4882 13.4256 24.4311 13.2556 24.3735C13.2278 24.364 13.2011 24.3341 13.1814 24.2888C13.1618 24.2434 13.1507 24.1866 13.1508 24.1279C13.1508 24.0693 13.162 24.0123 13.1817 23.9671C13.2013 23.9221 13.228 23.8929 13.2558 23.8836C13.4259 23.8276 13.5958 23.7722 13.7664 23.7173C13.8719 23.6833 13.9778 23.6491 14.083 23.6155C14.1478 23.5949 14.2125 23.5745 14.2766 23.554C14.3977 23.5154 14.5212 23.4769 14.6435 23.4389C14.6917 23.4238 14.7398 23.4088 14.7879 23.3938C14.9006 23.3586 15.0152 23.3237 15.129 23.289C15.1297 23.2888 15.1303 23.2886 15.131 23.2884C15.187 23.2713 15.2428 23.2542 15.2981 23.2372C15.4687 23.1855 15.6378 23.1343 15.8106 23.0837C15.8999 23.0563 15.9929 23.0296 16.0852 23.0026C16.1367 22.9876 16.188 22.9725 16.2384 22.9575C16.2659 22.9496 16.2938 22.9417 16.3219 22.9338C16.9662 22.7465 17.6059 22.5662 18.2516 22.3934C18.8949 22.2205 19.5393 22.0547 20.1818 21.8956C20.8258 21.7364 21.4687 21.5841 22.1121 21.438C26.1956 20.5102 30.2955 19.7494 34.3971 19.2733C34.9821 19.205 35.5824 19.1433 36.1686 19.0881C36.7612 19.0328 37.3417 18.9838 37.9358 18.9419C38.1163 18.9288 38.3013 18.9165 38.4911 18.9047Z" fill="black"/>
<circle cx="80.9182" cy="42.665" r="3.3234" transform="rotate(8.2828 80.9182 42.665)" fill="black"/>
<path d="M74.9684 44.7951C74.5617 43.8223 75.0218 42.7768 75.1475 41.8865C75.1503 41.8664 75.153 41.8462 75.1556 41.8261C75.2844 40.7342 75.3683 39.3255 76.3002 38.4499C77.2141 37.5919 78.401 37.0766 79.5835 36.9811C80.3216 36.9188 81.0542 37.0178 81.707 37.247C82.1004 37.3845 82.4728 37.5691 82.8096 37.7924C83.7084 38.3851 84.3332 39.2491 84.6171 40.1374C84.8127 40.7412 84.8579 41.3579 84.7747 41.9184C84.7386 42.1645 84.6783 42.3996 84.5978 42.62C84.5376 42.7841 84.4663 42.941 84.3859 43.0873C84.3746 43.1077 84.3367 43.1237 84.2789 43.1307C84.221 43.1377 84.1483 43.1352 84.0745 43.1244C84.0006 43.1136 83.9301 43.0954 83.8763 43.0747C83.8226 43.0539 83.7901 43.0323 83.784 43.0135C83.7401 42.8776 83.6867 42.7479 83.6251 42.6275C83.5568 42.4935 83.4784 42.3699 83.3929 42.2577C83.6919 42.1889 83.9156 42.1168 84.0034 42.0337C84.0483 41.9917 84.0588 41.9385 83.9951 41.9179C83.938 41.8994 83.8439 41.9 83.7545 41.9024C83.6611 41.9049 83.5728 41.9096 83.5366 41.8946C83.4751 41.8689 83.3391 41.8708 83.1979 41.8806C83.1465 41.8841 83.0943 41.8885 83.0447 41.8926C82.9493 41.8128 82.8502 41.7439 82.7494 41.6856C82.7601 41.6366 82.7647 41.5916 82.7381 41.5719C82.7143 41.5542 82.646 41.5671 82.5659 41.5918C82.5501 41.5847 82.5343 41.5779 82.5185 41.5714C82.4165 41.529 82.3146 41.4968 82.2145 41.4746C82.2305 41.3713 82.2334 41.2612 82.1803 41.1703C82.1575 41.1313 82.1519 41.0705 82.1429 41.011C82.1304 40.9236 82.1095 40.8387 82.0404 40.8478C81.9946 40.8541 81.9852 40.7984 81.9718 40.7419C81.9551 40.6666 81.9292 40.589 81.8369 40.6763C81.7792 40.7313 81.7196 40.8038 81.6671 40.8724C81.5833 40.9817 81.5176 41.0812 81.4923 41.0806C81.4442 41.0793 81.3771 41.16 81.3249 41.2342C81.2609 41.323 81.2173 41.4014 81.2118 41.3052C81.2109 41.2906 81.2103 41.2714 81.2094 41.2494C81.2064 41.1685 81.1967 41.0526 81.1576 41.021C81.1412 41.0076 81.1203 41.0096 81.0958 41.0365C81.0664 41.0686 81.0348 41.1576 81.0087 41.2456C80.9699 41.3738 80.9444 41.4997 80.9192 41.4432C80.9153 41.4348 80.9112 41.3994 80.9071 41.3672C80.9019 41.3262 80.8967 41.2904 80.8944 41.3216C80.8878 41.4131 80.8786 41.5143 80.8726 41.6246C80.8682 41.7056 80.8655 41.7915 80.8655 41.8816C80.8259 41.935 80.7955 41.9892 80.7725 42.0419C80.7619 42.0661 80.7529 42.09 80.7452 42.1135C80.6965 41.9846 80.6463 41.8706 80.602 41.787C80.5438 41.6778 80.5051 41.6523 80.4534 41.6222C80.4149 41.6003 80.3693 41.5756 80.2929 41.5197C80.1492 41.4169 80.088 41.5016 80.1015 41.5992C80.104 41.62 80.1075 41.6417 80.112 41.6649C80.1297 41.7527 80.1552 41.8609 80.183 41.9918C80.2109 42.1147 80.2057 42.1701 80.2015 42.2141C80.1997 42.2362 80.199 42.2542 80.2073 42.2725C80.2216 42.3037 80.2329 42.336 80.2462 42.3666C80.267 42.4146 80.2932 42.4586 80.3377 42.4894C80.3535 42.5004 80.3736 42.5125 80.3954 42.5246C80.4515 42.5561 80.5205 42.5874 80.5648 42.6135C80.5683 42.6156 80.5716 42.6176 80.5747 42.6195C80.6206 42.6473 80.5872 42.6511 80.5142 42.6653C80.4847 42.6706 80.368 42.677 80.2477 42.6896C80.077 42.7062 79.8997 42.739 79.9552 42.76C79.9682 42.7647 79.9965 42.7679 80.0262 42.7705C80.0808 42.7756 80.1397 42.7775 80.1162 42.7921C80.108 42.7972 80.0773 42.8057 80.0473 42.8146C80.0143 42.8243 79.9821 42.8343 79.9812 42.8394C79.9776 42.8583 79.9891 42.874 79.9996 42.8872C80.0132 42.9044 80.0249 42.9177 80.0014 42.9357C79.9594 42.968 80.0087 42.9761 80.0577 42.9789C80.0953 42.9814 80.133 42.9814 80.1324 42.9967C80.1307 43.041 80.2353 43.0592 80.3771 43.0183C80.4304 43.0027 80.3769 43.0529 80.3159 43.1266C80.2779 43.1722 80.2367 43.2268 80.2149 43.2757C80.2027 43.3036 80.2587 43.2691 80.3084 43.2349C80.3544 43.2036 80.3954 43.1729 80.3799 43.198C80.3662 43.2203 80.2925 43.3002 80.2238 43.3775C80.1473 43.4633 80.0772 43.5458 80.0994 43.5377C80.1112 43.5334 80.1532 43.4983 80.202 43.4554C80.2213 43.4384 80.2415 43.4203 80.2616 43.4023C80.2468 43.4187 80.2336 43.4333 80.2236 43.4444C80.1531 43.5228 80.1237 43.571 80.0965 43.6193C80.0856 43.6386 80.075 43.6578 80.0621 43.6789C80.0143 43.7566 80.0277 43.7865 80.0472 43.7962C80.0555 43.8004 80.0422 43.8313 80.0275 43.868C80.0145 43.9005 80.0004 43.9375 79.9986 43.9636C79.9976 43.9784 79.9851 44.0069 79.9748 44.0308C79.9674 44.0481 79.9611 44.063 79.9613 44.0681C79.9614 44.0725 79.9802 44.0488 80.0012 44.0219C80.0163 44.0025 80.0326 43.9815 80.044 43.9683C80.0713 43.9368 80.0833 43.9297 80.0797 43.9433C80.078 43.9495 80.0729 43.9603 80.0679 43.9709C80.062 43.9834 80.0561 43.996 80.0557 44.0014C80.0541 44.0266 80.0829 44.004 80.1117 43.9797C80.1437 43.9532 80.1753 43.9244 80.1726 43.9581C80.1718 43.9688 80.1652 43.9903 80.159 44.0114C80.1525 44.0334 80.1465 44.0548 80.1476 44.062C80.1523 44.0912 80.2031 44.0328 80.2472 43.9775C80.2766 43.9407 80.3034 43.9056 80.3148 43.9001C80.3357 43.8901 80.3808 43.8112 80.4132 43.7526C80.4301 43.7223 80.4437 43.6972 80.4491 43.6902C80.4498 43.6933 80.4503 43.6968 80.4506 43.7006C80.4495 43.7073 80.4483 43.7143 80.4507 43.713C80.4509 43.7129 80.4512 43.7126 80.4514 43.7125C80.4521 43.7368 80.4497 43.7697 80.4482 43.8026C80.4442 43.8763 80.4473 43.9512 80.4869 43.9236C80.4954 43.9176 80.5131 43.8841 80.5304 43.8498C80.5517 43.8078 80.5724 43.7645 80.5781 43.7698C80.5915 43.7824 80.591 43.8463 80.5942 43.9098C80.598 44.0051 80.6123 44.0997 80.6581 44.0087C80.673 43.9787 80.691 43.9273 80.7081 43.8752C80.7176 43.8461 80.7268 43.8167 80.7352 43.7911C80.7265 43.8398 80.7185 43.8856 80.711 43.9283C80.6956 44.0163 80.6824 44.0916 80.6665 44.1547C80.6293 44.3041 80.5741 44.5087 80.5478 44.6605C80.5407 44.7017 80.5319 44.7474 80.5228 44.7934C80.5002 44.9089 80.4763 45.0267 80.485 45.0834C80.4904 45.1216 80.5103 45.2102 80.5448 45.1244C80.5522 45.1057 80.5607 45.0677 80.5699 45.0254C80.5743 45.0052 80.5789 44.9839 80.5837 44.9633C80.5968 44.9065 80.6109 44.8544 80.6257 44.8406C80.6291 44.8374 80.6326 44.8346 80.6363 44.832C80.6508 44.8218 80.6669 44.8103 80.6793 44.7489C80.6935 44.6782 80.7012 44.5963 80.7108 44.5009C80.723 44.3765 80.7394 44.229 80.7679 44.0522C80.7735 44.0173 80.7779 44.0056 80.7812 43.9967C80.7836 43.9904 80.7854 43.9854 80.7866 43.9748C80.788 43.9627 80.79 43.9373 80.7927 43.9052C80.8019 43.7921 80.8205 43.5947 80.8332 43.5875C80.8367 43.5855 80.8396 43.5953 80.8423 43.6041C80.8463 43.617 80.8499 43.6277 80.8528 43.5954C80.854 43.5831 80.8551 43.5698 80.8562 43.556C80.8597 43.5602 80.8633 43.5643 80.8669 43.5685C80.8695 43.6074 80.8771 43.6045 80.8861 43.6005C80.8883 43.5996 80.8906 43.5987 80.893 43.5982C80.9005 43.6065 80.9081 43.6146 80.916 43.6228C80.9221 43.6392 80.9288 43.6659 80.9371 43.7082C80.9535 43.793 80.9732 43.9326 80.9982 44.0685C81.0087 44.1258 81.0201 44.1826 81.032 44.2342C81.0292 44.2408 81.0268 44.2486 81.0252 44.2592C81.0143 44.3316 81.0147 44.4726 81.0139 44.6025C81.0133 44.6889 81.0122 44.7704 81.0061 44.8231C80.9949 44.9198 80.9994 45.0321 81.0035 45.1151C81.0056 45.1582 81.0073 45.1935 81.0057 45.2145C81.0043 45.2314 81.0002 45.2394 80.9959 45.2478C80.9921 45.255 80.9882 45.2626 80.9858 45.2762C80.957 45.4414 80.9663 45.5368 80.9858 45.6755C80.9964 45.752 81.0096 45.8416 81.0185 45.9635C81.0268 46.0926 81.0269 46.1305 81.0053 46.1826C81.0246 46.246 81.0448 46.3092 81.066 46.3723C81.0731 46.3679 81.0771 46.3278 81.0817 46.2612C81.0902 46.1423 81.1298 46.0969 81.16 46.0608C81.174 46.0441 81.186 46.0294 81.1918 46.0107C81.2226 45.9112 81.1981 45.7782 81.1794 45.6611C81.1688 45.5966 81.1596 45.5368 81.1591 45.4904C81.1588 45.4705 81.1551 45.4511 81.1515 45.4312C81.1487 45.4159 81.1458 45.4003 81.1444 45.3841C81.1345 45.2667 81.1451 45.178 81.1526 45.0957C81.157 45.0485 81.1606 45.0033 81.1601 44.9561C81.1599 44.9417 81.1595 44.927 81.1589 44.9128C81.1582 44.892 81.1574 44.8723 81.1577 44.8552C81.1584 44.8164 81.1653 44.7895 81.1724 44.7601C81.176 44.745 81.1796 44.7293 81.1825 44.7109C81.1863 44.6871 81.1825 44.6406 81.1784 44.592C81.1755 44.5577 81.1725 44.5223 81.1716 44.493C81.17 44.4399 81.178 44.4195 81.1852 44.4005C81.1884 44.3922 81.1913 44.384 81.1932 44.3737C81.194 44.3695 81.1934 44.3615 81.1918 44.3506C81.2018 44.3116 81.2097 44.2719 81.2165 44.2331C81.2521 44.0373 81.2476 43.8733 81.3556 43.9599C81.3766 43.976 81.3905 43.9664 81.3992 43.9443C81.4631 43.9695 81.5317 43.9915 81.6044 44.0093C81.6628 44.0987 81.7178 44.1706 81.7681 44.2229C81.863 44.3207 81.9132 44.3241 81.9714 44.3265C82.0147 44.3279 82.0627 44.3289 82.1456 44.3601C82.2851 44.4123 82.4253 44.4346 82.5421 44.4004C82.6583 44.3668 82.7752 44.2988 82.8438 44.2367C82.881 44.2035 82.9881 44.2202 83.0906 44.2292C83.2343 44.243 83.3691 44.24 83.254 44.1189C83.2172 44.0803 83.1473 44.0227 83.0786 43.9679C83.0297 43.9289 82.9816 43.8912 82.9464 43.862C82.9684 43.8523 82.9903 43.8421 83.0123 43.8316C83.1232 43.8542 83.2549 43.8524 83.1712 43.7491C83.1938 43.7363 83.2163 43.723 83.2386 43.7099C83.286 43.6809 83.3329 43.6509 83.3797 43.6185C83.3951 43.608 83.4105 43.5971 83.4259 43.5859C83.4261 43.5858 83.4263 43.5857 83.4264 43.5856C83.4574 43.5632 83.4883 43.5399 83.5189 43.5159C83.532 43.5057 83.5451 43.4952 83.558 43.4846C83.5909 43.4577 83.6235 43.4297 83.6559 43.4011C83.673 43.386 83.6901 43.3701 83.7071 43.3543C83.7347 43.3287 83.7622 43.3019 83.7895 43.2744C83.8336 43.2296 83.8768 43.1843 83.9193 43.1358C83.9264 43.1279 83.9454 43.1221 83.9732 43.1198C84.001 43.1175 84.0353 43.1187 84.0701 43.1238C84.1049 43.1289 84.1383 43.1375 84.1641 43.1483C84.1898 43.159 84.2057 43.1709 84.2097 43.1813C84.2336 43.2455 84.2557 43.3099 84.2751 43.3772C84.2872 43.4185 84.2987 43.4605 84.3091 43.5025C84.3156 43.5283 84.3214 43.5547 84.3272 43.5808C84.3379 43.6301 84.3475 43.6806 84.3557 43.7314C84.3589 43.7514 84.362 43.7715 84.3649 43.7917C84.3717 43.8391 84.3772 43.8872 84.3817 43.9357C84.3817 43.936 84.3817 43.9363 84.3817 43.9365C84.3839 43.9604 84.3859 43.9844 84.3876 44.0082C84.3926 44.0813 84.3953 44.1548 84.3946 44.2303C84.3949 44.2696 84.3937 44.31 84.3919 44.3508C84.391 44.3735 84.3898 44.3963 84.3886 44.4186C84.3878 44.4308 84.3868 44.4431 84.3857 44.4555C84.3647 44.7412 84.3064 45.0314 84.2074 45.3189C84.1092 45.6056 83.9716 45.8878 83.7979 46.1549C83.6236 46.4224 83.4127 46.6749 83.1686 46.9039C82.4118 47.6226 81.304 48.1047 80.1202 48.1469C78.9016 48.2031 77.5746 47.7739 76.548 46.9179C76.2585 46.6793 75.9857 46.401 75.7477 46.1027C75.5074 45.801 75.2997 45.4793 75.123 45.1287C75.0692 45.0224 75.0174 44.9111 74.9684 44.7951Z" fill="black"/>
</svg>
