<svg width="73" height="48" viewBox="0 0 73 48" fill="none" xmlns="http://www.w3.org/2000/svg">
<path d="M0.229847 17.0259C-0.192082 15.9552 0.0686096 14.8165 0.212215 13.7771C0.215351 13.754 0.218503 13.7309 0.221677 13.7077C0.384773 12.4358 0.688716 10.9707 1.68251 9.9817C2.66665 8.99808 3.96105 8.35776 5.29257 8.16743C6.12369 8.04598 6.96586 8.0976 7.74573 8.30084C8.21559 8.42266 8.6681 8.59912 9.08838 8.82384C10.2077 9.41939 11.0805 10.3591 11.5837 11.4123C11.9281 12.1275 12.1079 12.8955 12.1242 13.641C12.1317 13.9683 12.1083 14.2908 12.0564 14.6038C12.0177 14.8368 11.9632 15.066 11.8946 15.2862C11.885 15.317 11.8575 15.344 11.8173 15.3608C11.777 15.3776 11.7275 15.3828 11.6783 15.3756C11.629 15.3684 11.5831 15.3493 11.5489 15.3233C11.5148 15.2973 11.4953 15.2665 11.4933 15.2368C11.4792 15.0225 11.4505 14.8105 11.4079 14.6055C11.3607 14.3772 11.2962 14.1563 11.2168 13.9446C11.4125 13.8771 11.5568 13.7994 11.6042 13.6891C11.6285 13.633 11.6263 13.5565 11.5765 13.5129C11.5319 13.4737 11.4639 13.454 11.3992 13.4365C11.3315 13.4182 11.2674 13.4024 11.2361 13.3681C11.1829 13.3099 11.0798 13.2723 10.9718 13.2383C10.9324 13.2259 10.8923 13.2139 10.8536 13.2013C10.7446 13.0236 10.6242 12.8565 10.4944 12.7008C10.4774 12.623 10.4569 12.5523 10.4186 12.5049C10.3842 12.4625 10.3212 12.4433 10.25 12.4324C10.2283 12.4105 10.2064 12.3889 10.1842 12.3676C10.0415 12.2301 9.89104 12.1047 9.73478 11.9922C9.67553 11.8473 9.60077 11.697 9.45812 11.5452C9.39661 11.4799 9.34592 11.4022 9.29369 11.3282C9.21713 11.2193 9.13662 11.1183 9.03085 11.0874C8.96038 11.0669 8.91173 11.005 8.85958 10.9436C8.79067 10.8617 8.71429 10.7805 8.59869 10.8138C8.52617 10.8347 8.45476 10.8692 8.39023 10.9027C8.28765 10.9561 8.20233 11.0066 8.14752 10.9926C8.0447 10.9662 7.93706 11.0006 7.84705 11.0345C7.73748 11.0749 7.65208 11.1139 7.59841 11.039C7.59023 11.0277 7.58113 11.013 7.57071 10.9964C7.53248 10.9351 7.47499 10.848 7.37947 10.8168C7.33912 10.8036 7.29266 10.8007 7.24065 10.8147C7.17865 10.8314 7.11704 10.8872 7.06029 10.9433C6.97728 11.025 6.90403 11.1068 6.8276 11.0689C6.81612 11.0632 6.80408 11.0397 6.79286 11.0182C6.77863 10.9909 6.7656 10.9672 6.75852 10.9881C6.73769 11.0493 6.70548 11.1174 6.6733 11.1921C6.64957 11.2469 6.62601 11.3053 6.60562 11.3666C6.42466 11.4119 6.25032 11.4709 6.08406 11.5416C6.00801 11.5739 5.93324 11.6089 5.86051 11.6461C5.79332 11.5712 5.72468 11.5072 5.65826 11.4648C5.57118 11.4096 5.48337 11.4164 5.37054 11.4315C5.28736 11.4427 5.1906 11.4584 5.06465 11.4622C4.82956 11.4694 4.65443 11.6185 4.58095 11.7474C4.56506 11.7746 4.54996 11.8028 4.53448 11.8331C4.47696 11.9487 4.40565 12.0913 4.27877 12.3346C4.16058 12.5649 4.0576 12.7425 3.98605 12.8806C3.94963 12.9511 3.92199 13.0103 3.90721 13.0593C3.88199 13.1427 3.84968 13.2429 3.82307 13.3441C3.78069 13.5025 3.75394 13.664 3.76166 13.7602C3.7643 13.7944 3.76979 13.8307 3.7763 13.8697C3.79326 13.9697 3.81737 14.0855 3.82784 14.2327C3.82866 14.2442 3.82941 14.2558 3.83008 14.2676C3.84079 14.4385 3.81488 14.5368 3.76483 14.6453C3.74475 14.689 3.66739 14.7289 3.58832 14.7739C3.47618 14.8368 3.36076 14.9129 3.4047 14.9998C3.41497 15.0199 3.43574 15.0402 3.45774 15.061C3.49817 15.0993 3.54251 15.1381 3.53286 15.1861C3.5295 15.2029 3.51098 15.2204 3.49294 15.2379C3.4731 15.257 3.45388 15.2762 3.45585 15.2936C3.46321 15.3586 3.48199 15.42 3.49992 15.4736C3.52299 15.5427 3.5446 15.5999 3.5377 15.6414C3.52541 15.7157 3.57722 15.7788 3.63103 15.8379C3.67227 15.8835 3.71481 15.9273 3.73237 15.9795C3.78205 16.1292 3.93256 16.3023 4.1289 16.4296C4.20293 16.4777 4.20143 16.5596 4.20687 16.6692C4.21026 16.7371 4.21628 16.8155 4.24544 16.8986C4.2621 16.9458 4.32093 16.9466 4.37426 16.9455C4.42357 16.9446 4.46844 16.9425 4.47633 16.9778C4.48329 17.009 4.44448 17.0725 4.40856 17.1336C4.36851 17.2015 4.33213 17.2666 4.36449 17.2778C4.38167 17.2838 4.42113 17.271 4.46739 17.2549C4.48568 17.2486 4.50501 17.2418 4.52456 17.2353C4.51437 17.2459 4.5055 17.2556 4.49886 17.263C4.45183 17.3152 4.45056 17.3638 4.4507 17.4119C4.45073 17.431 4.45101 17.4501 4.44839 17.4693C4.43869 17.5399 4.49009 17.5947 4.53649 17.6269C4.55607 17.6405 4.56007 17.6709 4.56538 17.7066C4.57007 17.7382 4.57583 17.774 4.59426 17.8053C4.60475 17.8231 4.60502 17.8481 4.60533 17.869C4.60554 17.8842 4.60579 17.8971 4.61 17.9033C4.61366 17.9087 4.62906 17.8948 4.64628 17.8791C4.65869 17.8678 4.6721 17.8555 4.6828 17.8488C4.70841 17.8327 4.72596 17.8344 4.7303 17.8479C4.73229 17.8541 4.73136 17.8629 4.73046 17.8716C4.7294 17.8817 4.72832 17.892 4.73199 17.8982C4.74888 17.9266 4.78576 17.9227 4.82349 17.9179C4.86516 17.9127 4.90742 17.9062 4.92963 17.9425C4.93663 17.954 4.94028 17.973 4.94397 17.9914C4.94783 18.0107 4.95183 18.0294 4.95937 18.038C4.9902 18.0728 5.0501 18.0476 5.1038 18.0231C5.13959 18.0069 5.17279 17.9911 5.19463 17.9944C5.23487 18.0005 5.279 17.9544 5.31108 17.9202C5.32771 17.9025 5.34121 17.8878 5.34947 17.8853C5.35416 17.8893 5.35882 17.8936 5.3633 17.898C5.36641 17.9042 5.36966 17.9107 5.37506 17.9115C5.37547 17.9116 5.37594 17.9115 5.37635 17.9115C5.4006 17.9383 5.42277 17.9703 5.44509 18.0019C5.49507 18.0726 5.55032 18.1426 5.63289 18.1433C5.6507 18.1434 5.67491 18.1252 5.69914 18.1064C5.72886 18.0835 5.75866 18.0596 5.77872 18.0681C5.82628 18.0882 5.86533 18.1418 5.90661 18.1942C5.96769 18.2728 6.03512 18.3486 6.11914 18.2983C6.14664 18.2816 6.17586 18.2504 6.20454 18.2187C6.22052 18.201 6.23642 18.183 6.25185 18.1675C6.24392 18.1997 6.2375 18.23 6.23149 18.2583C6.21908 18.3166 6.20845 18.3665 6.18841 18.407C6.14132 18.5029 6.07951 18.6347 6.06474 18.7364C6.06081 18.764 6.05428 18.7944 6.04758 18.8249C6.03086 18.9015 6.01316 18.9798 6.03953 19.0213C6.05698 19.0493 6.10602 19.1144 6.15194 19.0606C6.16187 19.0489 6.17054 19.024 6.18008 18.9963C6.18464 18.9831 6.18941 18.9692 6.19462 18.9557C6.20897 18.9187 6.22655 18.8851 6.25232 18.8781C6.25824 18.8764 6.26461 18.8751 6.27115 18.8739C6.29723 18.8692 6.32629 18.8638 6.34137 18.8236C6.35872 18.7774 6.36221 18.7226 6.36664 18.6587C6.37221 18.5755 6.38008 18.4769 6.41606 18.3609C6.42316 18.338 6.43254 18.3309 6.4396 18.3255C6.44458 18.3216 6.44839 18.3186 6.44945 18.3115C6.45067 18.3035 6.45096 18.2865 6.45135 18.2649C6.45256 18.189 6.45648 18.0566 6.5004 18.0553C6.51236 18.0549 6.52544 18.0624 6.53719 18.0691C6.5545 18.079 6.56903 18.087 6.57261 18.0655C6.57396 18.0574 6.57514 18.0486 6.57626 18.0394C6.59024 18.0431 6.60425 18.0466 6.61827 18.0501C6.63495 18.0769 6.6607 18.0761 6.69301 18.0745C6.70085 18.0741 6.70911 18.0738 6.71766 18.0737C6.74572 18.0799 6.77384 18.0858 6.80202 18.0914C6.82434 18.1025 6.84803 18.1202 6.87417 18.1481C6.92626 18.2041 6.97509 18.2958 7.02647 18.3845C7.04806 18.4219 7.07033 18.4588 7.09304 18.4922C7.08544 18.497 7.07863 18.5026 7.07356 18.5099C7.03883 18.5599 7.02828 18.6544 7.01764 18.7415C7.01057 18.7994 7.0035 18.854 6.98898 18.8896C6.96229 18.9547 6.96721 19.0295 6.97139 19.0848C6.9735 19.1135 6.97521 19.137 6.97155 19.1511C6.9686 19.1624 6.96107 19.168 6.95327 19.1736C6.94647 19.1786 6.93942 19.1837 6.93503 19.1929C6.88138 19.3038 6.89789 19.3671 6.92599 19.4593C6.94134 19.5101 6.95986 19.5696 6.97023 19.6508C6.97959 19.7367 6.97834 19.762 6.94594 19.7972C6.97284 19.8391 7.00035 19.8809 7.02847 19.9224C7.03874 19.9192 7.04556 19.8923 7.0545 19.8476C7.07057 19.7679 7.131 19.736 7.17787 19.71C7.19953 19.698 7.21821 19.6873 7.22815 19.6744C7.2808 19.6054 7.25512 19.5175 7.23442 19.4401C7.22288 19.3975 7.21255 19.358 7.21543 19.3267C7.21664 19.3134 7.21222 19.3006 7.20779 19.2875C7.20436 19.2774 7.20087 19.2672 7.19988 19.2564C7.19287 19.1781 7.21893 19.1175 7.24156 19.0609C7.25458 19.0285 7.26658 18.9973 7.27153 18.9653C7.27304 18.9555 7.274 18.9456 7.27485 18.936C7.27611 18.922 7.27731 18.9086 7.28022 18.897C7.28683 18.8704 7.30407 18.8511 7.3226 18.8298C7.3321 18.8189 7.34194 18.8075 7.35086 18.7944C7.3624 18.7774 7.36313 18.7459 7.36385 18.7131C7.36436 18.6898 7.36489 18.6659 7.36896 18.6457C7.37635 18.6092 7.39881 18.5931 7.41942 18.578C7.4284 18.5715 7.43699 18.5649 7.44392 18.5572C7.44673 18.554 7.44743 18.5485 7.4466 18.5412C7.47926 18.511 7.50935 18.4801 7.53786 18.4497C7.68183 18.2957 7.7824 18.1616 8.00469 18.1689C8.04705 18.17 8.0865 18.1528 8.12276 18.1265C8.2627 18.1065 8.40358 18.079 8.54459 18.0433C8.60184 18.0935 8.66079 18.1298 8.7205 18.1503C8.83285 18.1887 8.91612 18.162 9.01226 18.1272C9.08356 18.1012 9.16205 18.0709 9.27013 18.0534C9.45167 18.024 9.63277 17.9681 9.80331 17.8588C9.97345 17.7506 10.1492 17.5985 10.2593 17.4776C10.3194 17.4124 10.4265 17.377 10.5267 17.3388C10.6675 17.2857 10.7948 17.2259 10.7403 17.1094C10.7229 17.0723 10.6831 17.0228 10.6438 16.9755C10.6158 16.9418 10.5883 16.9091 10.5693 16.8821C10.5957 16.8557 10.6218 16.8288 10.6478 16.8016C10.7419 16.7806 10.8596 16.7232 10.8305 16.5984C10.856 16.5683 10.881 16.5378 10.9053 16.5081C10.9576 16.4427 11.0079 16.3773 11.0569 16.3093C11.0731 16.2872 11.0891 16.2645 11.105 16.2416C11.1052 16.2414 11.1054 16.2412 11.1055 16.241C11.1376 16.1949 11.169 16.148 11.1996 16.1008C11.2127 16.0806 11.2256 16.0603 11.2384 16.0397C11.2709 15.9877 11.3025 15.9347 11.3332 15.8813C11.3495 15.8532 11.3656 15.8241 11.3814 15.7954C11.4071 15.7487 11.4323 15.7007 11.4568 15.6522C11.4966 15.5733 11.5342 15.4951 11.5703 15.4135C11.5762 15.4002 11.5901 15.3886 11.6095 15.3814C11.6289 15.3741 11.6522 15.3718 11.6754 15.3752C11.6986 15.3786 11.7204 15.3876 11.7367 15.4004C11.753 15.4133 11.7625 15.4289 11.7639 15.4439C11.7721 15.536 11.7779 15.627 11.7806 15.7209C11.7823 15.7787 11.7831 15.8368 11.7827 15.8944C11.7825 15.9298 11.7816 15.9659 11.7807 16.0013C11.7787 16.0684 11.7752 16.1365 11.7701 16.2045C11.7681 16.2313 11.7659 16.2581 11.7635 16.285C11.7578 16.3478 11.7506 16.4113 11.7422 16.4748C11.7421 16.4752 11.7421 16.4756 11.742 16.476C11.7378 16.5073 11.7334 16.5385 11.7288 16.5694C11.7142 16.6645 11.697 16.759 11.6759 16.8553C11.6654 16.9053 11.6532 16.9567 11.6402 17.0082C11.633 17.0369 11.6256 17.0654 11.6181 17.0935C11.6139 17.1088 11.6096 17.1242 11.6051 17.1397C11.5049 17.4971 11.3635 17.8476 11.1793 18.1857C10.9959 18.5228 10.7712 18.8451 10.5108 19.1423C10.2497 19.4402 9.95251 19.7132 9.62409 19.954C8.60257 20.7095 7.25673 21.1365 5.88565 21.0781C4.47202 21.0301 3.0175 20.4538 1.91041 19.4461C1.59837 19.1648 1.30605 18.8425 1.05283 18.5012C0.796993 18.1561 0.577752 17.7921 0.391963 17.399C0.335523 17.2798 0.281232 17.1553 0.229847 17.0259Z" fill="black"/>
<path d="M37.491 38.0073C39.0283 37.9095 40.5077 38.8323 42.0503 38.834C43.9655 38.8363 45.9112 37.9546 47.8309 38.1188C49.7394 38.283 51.6572 38.5189 53.5689 38.8097C55.4828 39.1005 57.3938 39.4461 59.3086 39.829C61.2193 40.2118 63.1342 40.6318 65.0464 41.0725C66.3453 41.3718 67.6455 41.6808 68.9442 41.9937C69.5144 42.1308 70.0828 42.2685 70.6526 42.4068C71.0777 42.5101 71.5028 42.6135 71.9279 42.7169C71.987 42.7314 72.0437 42.7906 72.0854 42.8844C72.1271 42.9784 72.1507 43.0988 72.1506 43.2232C72.1506 43.3476 72.1268 43.4682 72.0849 43.5619C72.0431 43.6553 71.9863 43.7136 71.9272 43.7276C71.4986 43.8278 71.0699 43.9279 70.6412 44.028C70.165 44.1391 69.6897 44.2503 69.2136 44.3607C69.1387 43.8502 69.0358 43.463 68.8431 43.292C68.7447 43.2048 68.6013 43.1685 68.4956 43.2634C68.4008 43.3486 68.3293 43.5006 68.2615 43.6454C68.1905 43.7969 68.1232 43.9407 68.0365 43.9915C67.8894 44.0777 67.7496 44.2944 67.6028 44.5221C67.5493 44.605 67.4949 44.6894 67.4389 44.7695C66.9845 44.8733 66.53 44.9763 66.0757 45.0784C65.9002 45.024 65.7388 44.9801 65.6019 45.001C65.4791 45.0198 65.3666 45.1276 65.2547 45.2618C65.1843 45.2774 65.114 45.293 65.0436 45.3087C64.5897 45.4092 64.1355 45.508 63.6813 45.606C63.327 45.4698 62.9555 45.3375 62.4726 45.2794C62.2645 45.2544 62.0592 45.1807 61.8617 45.1101C61.5702 45.0057 61.2959 44.9075 61.0554 44.9809C60.8947 45.0299 60.7256 44.9578 60.5569 44.8859C60.3307 44.7894 60.1049 44.693 59.9002 44.8895C59.7716 45.0131 59.6533 45.1633 59.5439 45.3026C59.3697 45.5243 59.2175 45.7181 59.0797 45.7315C58.8208 45.7566 58.5966 45.9181 58.399 46.0605C58.1613 46.2318 57.962 46.3756 57.787 46.2207C57.7604 46.1973 57.7301 46.1661 57.6959 46.1306C57.5157 45.9436 57.2275 45.6445 56.8138 45.8089C56.6665 45.8674 56.5281 46.0196 56.3926 46.169C56.1954 46.3863 56.0038 46.5974 55.7987 46.5034C55.768 46.4894 55.736 46.4305 55.7069 46.3767C55.6699 46.3083 55.6375 46.2486 55.6183 46.3006C55.5621 46.4529 55.4729 46.6212 55.3759 46.8044C55.3047 46.939 55.2292 47.0817 55.1597 47.2315C54.6281 47.3162 54.0966 47.3972 53.5648 47.474C53.3212 47.5092 53.0775 47.5435 52.8338 47.577C52.7091 47.3477 52.5816 47.1411 52.447 46.9848C52.2709 46.7805 52.0428 46.7179 51.7486 46.6369C51.5322 46.5772 51.28 46.5075 50.9865 46.3645C50.4431 46.1 49.885 46.1593 49.5274 46.3012C49.4517 46.3312 49.3757 46.3632 49.2944 46.398C48.9859 46.5302 48.6009 46.6957 47.8698 46.8781C47.1782 47.0508 46.59 47.0955 46.1482 47.1292C45.9226 47.1463 45.7352 47.1601 45.5915 47.187C45.3458 47.2331 45.0439 47.274 44.741 47.315C44.2669 47.3791 43.7898 47.4433 43.5197 47.5288C43.4235 47.5593 43.3226 47.597 43.2137 47.6373C42.9117 47.7489 42.547 47.8836 42.0443 47.9614C41.5166 48.0431 41.1895 47.9874 40.8498 47.8664C40.7117 47.8172 40.5899 47.6226 40.4644 47.4216C40.2863 47.1364 40.1005 46.8387 39.8491 46.9275C39.7904 46.9482 39.7278 46.9946 39.6624 47.0433C39.5421 47.1326 39.412 47.2295 39.2787 47.187C39.2323 47.1722 39.1914 47.1194 39.1513 47.0676C39.1071 47.0107 39.0639 46.955 39.0148 46.9519C38.8318 46.9403 38.6536 46.9535 38.4953 46.9653C38.2911 46.9805 38.1199 46.9932 38.0137 46.947C37.8244 46.8646 37.6173 46.9383 37.4076 47.0134C37.2475 47.0707 37.0857 47.129 36.9291 47.1182C36.4815 47.0872 35.8659 47.2277 35.2317 47.4618C34.9917 47.5503 34.7884 47.4294 34.5279 47.2742C34.3658 47.1776 34.1816 47.0673 33.9527 46.9866C33.8229 46.9408 33.713 47.0485 33.6112 47.148C33.5174 47.2397 33.4305 47.3245 33.3413 47.2766C33.2626 47.2343 33.2128 47.0532 33.1656 46.8812C33.113 46.6898 33.0635 46.5098 32.9806 46.5449C32.9366 46.5636 32.883 46.6542 32.8193 46.7618C32.7941 46.8043 32.7672 46.8494 32.7387 46.894C32.7402 46.8573 32.7405 46.8244 32.7405 46.7995C32.7406 46.6239 32.6561 46.5313 32.5732 46.4407C32.5401 46.4045 32.5071 46.3688 32.4801 46.328C32.3804 46.1779 32.1917 46.1535 32.0475 46.1604C31.9865 46.1633 31.9312 46.1089 31.8667 46.0453C31.8094 45.9888 31.7448 45.9251 31.6625 45.8881C31.6155 45.867 31.5795 45.8161 31.5497 45.7735C31.5281 45.7428 31.5097 45.7165 31.4927 45.7096C31.4779 45.7036 31.466 45.754 31.4526 45.8107C31.443 45.8515 31.4325 45.8958 31.4197 45.9246C31.3889 45.9936 31.3494 46.0144 31.3217 45.9923C31.3089 45.982 31.2988 45.9624 31.2887 45.9429C31.277 45.9202 31.2654 45.8973 31.2494 45.8893C31.1758 45.8526 31.1042 45.9101 31.0299 45.9697C30.9482 46.0353 30.8629 46.1034 30.768 46.0526C30.7382 46.0366 30.7064 45.9999 30.6756 45.9642C30.6433 45.927 30.612 45.891 30.5854 45.8814C30.4773 45.8425 30.3756 45.9681 30.2821 46.0837C30.2199 46.1605 30.1613 46.2328 30.1068 46.2494C30.007 46.2797 29.9534 46.4305 29.9139 46.5418C29.8934 46.5995 29.8767 46.6469 29.8592 46.6612C29.8431 46.657 29.8268 46.6521 29.8109 46.6466C29.7962 46.6355 29.7811 46.6241 29.7669 46.6277C29.7658 46.628 29.7648 46.6287 29.7637 46.629C29.6744 46.5924 29.5867 46.5405 29.4996 46.4888C29.3038 46.3727 29.1105 46.2577 28.9061 46.3225C28.862 46.3365 28.8172 46.3987 28.7715 46.462C28.7156 46.5395 28.6584 46.6188 28.6001 46.6131C28.4612 46.5995 28.3209 46.4968 28.1828 46.3956C27.9751 46.2434 27.7721 46.0948 27.5855 46.2579C27.5239 46.3118 27.4638 46.4015 27.4035 46.4919C27.3699 46.5423 27.3361 46.5931 27.3021 46.6375C27.3093 46.555 27.3132 46.4776 27.3167 46.4054C27.3241 46.2565 27.3305 46.1291 27.3632 46.0209C27.4405 45.7652 27.5281 45.4131 27.5184 45.1564C27.5157 45.0867 27.5179 45.0091 27.5202 44.9309C27.5261 44.7349 27.532 44.5347 27.4603 44.4441C27.4119 44.3831 27.2876 44.243 27.2085 44.393C27.1913 44.4256 27.1808 44.4904 27.1691 44.5623C27.1481 44.6916 27.1232 44.8447 27.0483 44.8804C27.0357 44.8864 27.0219 44.8918 27.0078 44.8968C26.9512 44.9169 26.8879 44.9391 26.8642 45.043C26.837 45.1628 26.8428 45.2999 26.8496 45.4598C26.8584 45.668 26.8689 45.9153 26.8102 46.2134C26.7986 46.2724 26.7764 46.2926 26.7596 46.3079C26.7478 46.3187 26.7388 46.3273 26.7379 46.345C26.7369 46.3654 26.7407 46.4078 26.7455 46.4614C26.7624 46.6506 26.7918 46.9811 26.669 46.9951C26.6358 46.9989 26.5978 46.9831 26.5637 46.9689C26.5135 46.948 26.4718 46.9307 26.4662 46.9848C26.4641 47.0053 26.4626 47.0275 26.4614 47.0506C26.4214 47.0441 26.3815 47.0376 26.3415 47.0311C26.2902 46.9666 26.2182 46.9721 26.1284 46.9793C26.1066 46.981 26.0836 46.9826 26.0597 46.9835C25.9809 46.9702 25.9019 46.9569 25.8231 46.9433C25.7605 46.916 25.694 46.8715 25.6237 46.8008C25.4829 46.6591 25.3605 46.4255 25.2408 46.197C25.1904 46.1007 25.1404 46.0052 25.0897 45.9179C25.1095 45.9072 25.1273 45.8946 25.141 45.8771C25.2349 45.7578 25.2725 45.523 25.3072 45.3069C25.3302 45.1631 25.352 45.0275 25.388 44.9401C25.4539 44.7798 25.4473 44.5924 25.4424 44.4539C25.4399 44.382 25.438 44.3231 25.4468 44.2882C25.4539 44.2601 25.4702 44.247 25.4871 44.2333C25.5018 44.2214 25.517 44.209 25.5267 44.1864C25.6446 43.9121 25.6091 43.7529 25.5576 43.5211C25.5291 43.3933 25.4959 43.2433 25.4807 43.0398C25.4676 42.8243 25.472 42.7613 25.5338 42.6754C25.4856 42.569 25.4375 42.4626 25.3893 42.3562C25.3705 42.3631 25.3561 42.4296 25.336 42.5402C25.3001 42.7376 25.183 42.8098 25.0916 42.8661C25.0492 42.8922 25.0124 42.9151 24.9915 42.9453C24.8809 43.1063 24.9131 43.3305 24.9414 43.5278C24.957 43.6364 24.9714 43.7369 24.9602 43.8142C24.9554 43.8472 24.9622 43.88 24.9691 43.9135C24.9744 43.9393 24.9799 43.9656 24.9801 43.9927C24.9815 44.1891 24.9161 44.3349 24.8554 44.4703C24.8206 44.5479 24.7874 44.6223 24.7691 44.7006C24.7635 44.7245 24.759 44.7489 24.7549 44.7725C24.7488 44.8071 24.7429 44.84 24.7336 44.8682C24.7125 44.9324 24.6689 44.9757 24.6212 45.0229C24.5968 45.0471 24.5712 45.0724 24.5471 45.1021C24.5158 45.1407 24.5045 45.2184 24.4926 45.2995C24.4842 45.3569 24.4754 45.416 24.4592 45.4647C24.4298 45.5527 24.3706 45.5844 24.3157 45.6139C24.2917 45.6268 24.2686 45.6395 24.2491 45.656C24.2411 45.6627 24.2373 45.676 24.2365 45.6943C24.1462 45.7558 24.0601 45.8186 23.9762 45.8802C23.5558 46.1886 23.1919 46.456 22.6485 46.2622C22.5458 46.2255 22.4354 46.2328 22.3239 46.2622C21.9673 46.1851 21.6104 46.1056 21.2539 46.024C21.1833 45.8469 21.097 45.6983 20.9948 45.5816C20.8029 45.3626 20.6055 45.3158 20.3725 45.2605C20.2003 45.2197 20.0086 45.1741 19.7852 45.051C19.4099 44.8441 19.0246 44.6691 18.5897 44.5782C18.1568 44.4876 17.6612 44.4209 17.3105 44.3972C17.1194 44.3843 16.9186 44.2259 16.7315 44.0786C16.4682 43.8713 16.232 43.6855 16.0878 43.9549C16.0418 44.041 15.9973 44.1905 15.9539 44.3357C15.9231 44.4391 15.8927 44.5401 15.8629 44.6153C15.7835 44.592 15.704 44.5689 15.6246 44.5453C15.4835 44.3657 15.2642 44.1732 15.0522 44.3735C14.9702 44.3487 14.8882 44.3241 14.8091 44.2991C14.6364 44.2469 14.4674 44.194 14.2969 44.1407C14.2412 44.1231 14.185 44.1055 14.1286 44.0877C14.1281 44.0875 14.1276 44.0873 14.127 44.0871C14.0136 44.0514 13.8993 44.0154 13.7869 43.9793C13.7388 43.9638 13.6906 43.9484 13.6425 43.933C13.5201 43.8938 13.3969 43.8545 13.2758 43.8148C13.2117 43.7936 13.147 43.7727 13.0822 43.7514C12.977 43.7169 12.8711 43.6822 12.7656 43.6472C12.5952 43.5907 12.4255 43.5336 12.2555 43.476C12.2277 43.4665 12.2009 43.4366 12.1813 43.3913C12.1617 43.346 12.1506 43.2891 12.1506 43.2305C12.1507 43.1718 12.1618 43.1148 12.1815 43.0696C12.2012 43.0246 12.2279 42.9954 12.2557 42.9862C12.4258 42.9302 12.5957 42.8748 12.7663 42.8198C12.8718 42.7859 12.9777 42.7516 13.0829 42.7181C13.1477 42.6974 13.2124 42.6771 13.2765 42.6566C13.3976 42.618 13.521 42.5794 13.6434 42.5414C13.6915 42.5264 13.7397 42.5113 13.7878 42.4963C13.9005 42.4611 14.0151 42.4263 14.1289 42.3915C14.1295 42.3913 14.1302 42.3911 14.1309 42.3909C14.1869 42.3738 14.2427 42.3567 14.298 42.3397C14.4686 42.288 14.6377 42.2368 14.8105 42.1862C14.8997 42.1589 14.9928 42.1322 15.0851 42.1052C15.1365 42.0901 15.1879 42.075 15.2382 42.0601C15.2658 42.0521 15.2937 42.0442 15.3218 42.0363C15.9661 41.849 16.6058 41.6688 17.2515 41.4959C17.8947 41.323 18.5391 41.1573 19.1816 40.9981C19.8257 40.839 20.4686 40.6867 21.112 40.5406C25.1955 39.6127 29.2954 38.852 33.397 38.3759C33.982 38.3075 34.5823 38.2459 35.1685 38.1906C35.7611 38.1354 36.3416 38.0863 36.9357 38.0444C37.1162 38.0313 37.3011 38.019 37.491 38.0073Z" fill="black"/>
<path d="M37.491 0.00725901C39.0283 -0.0905393 40.5077 0.832262 42.0503 0.83403C43.9655 0.836315 45.9112 -0.0454496 47.8309 0.118754C49.7394 0.282999 51.6572 0.518862 53.5689 0.80966C55.4828 1.10047 57.3938 1.44611 59.3086 1.82896C61.2193 2.2118 63.1342 2.63176 65.0464 3.07247C66.3453 3.37181 67.6455 3.68084 68.9442 3.99367C69.5144 4.13079 70.0828 4.26852 70.6526 4.40675C71.0777 4.51013 71.5028 4.6135 71.9279 4.71687C71.987 4.73144 72.0437 4.79057 72.0854 4.88442C72.1271 4.97843 72.1507 5.09878 72.1506 5.22317C72.1506 5.34763 72.1268 5.46825 72.0849 5.56192C72.0431 5.65533 71.9863 5.71363 71.9272 5.72764C71.4986 5.82776 71.0699 5.92788 70.6412 6.02801C70.165 6.13906 69.6897 6.25033 69.2136 6.36066C69.1387 5.85019 69.0358 5.463 68.8431 5.29202C68.7447 5.2048 68.6013 5.16853 68.4956 5.26338C68.4008 5.34861 68.3293 5.50057 68.2615 5.64539C68.1905 5.79686 68.1232 5.94067 68.0365 5.99145C67.8894 6.0777 67.7496 6.29442 67.6028 6.52212C67.5493 6.60499 67.4949 6.68944 67.4389 6.76948C66.9845 6.87328 66.53 6.97627 66.0757 7.07838C65.9002 7.02402 65.7388 6.98006 65.6019 7.001C65.4791 7.01979 65.3666 7.12763 65.2547 7.26177C65.1843 7.2774 65.114 7.29304 65.0436 7.30868C64.5897 7.40915 64.1355 7.50802 63.6813 7.606C63.327 7.46981 62.9555 7.33751 62.4726 7.27943C62.2645 7.2544 62.0592 7.18074 61.8617 7.11006C61.5702 7.00566 61.2959 6.90753 61.0554 6.9809C60.8947 7.02994 60.7256 6.9578 60.5569 6.88585C60.3307 6.78936 60.1049 6.69303 59.9002 6.88951C59.7716 7.01306 59.6533 7.16327 59.5439 7.30259C59.3697 7.52425 59.2175 7.71814 59.0797 7.73151C58.8208 7.75657 58.5966 7.91805 58.399 8.06051C58.1613 8.23184 57.962 8.37561 57.787 8.22075C57.7604 8.19727 57.7301 8.16606 57.6959 8.13058C57.5157 7.94356 57.2275 7.64446 56.8138 7.80889C56.6665 7.86745 56.5281 8.01963 56.3926 8.16896C56.1954 8.38635 56.0038 8.59736 55.7987 8.50345C55.768 8.48939 55.736 8.43051 55.7069 8.37672C55.6699 8.30833 55.6375 8.24863 55.6183 8.30056C55.5621 8.45287 55.4729 8.62121 55.3759 8.80442C55.3047 8.93902 55.2292 9.08172 55.1597 9.23152C54.6281 9.31616 54.0966 9.39725 53.5648 9.474C53.3212 9.50921 53.0775 9.54354 52.8338 9.57697C52.7091 9.34765 52.5816 9.14106 52.447 8.98476C52.2709 8.7805 52.0428 8.71794 51.7486 8.63688C51.5322 8.57723 51.28 8.50747 50.9865 8.36453C50.4431 8.09997 49.885 8.1593 49.5274 8.30117C49.4517 8.33118 49.3757 8.36321 49.2944 8.39804C48.9859 8.53018 48.6009 8.69565 47.8698 8.87814C47.1782 9.05077 46.59 9.09552 46.1482 9.12916C45.9226 9.14633 45.7352 9.16015 45.5915 9.18704C45.3458 9.23306 45.0439 9.27404 44.741 9.31499C44.2669 9.37906 43.7898 9.44325 43.5197 9.52884C43.4235 9.55931 43.3226 9.597 43.2137 9.63729C42.9117 9.74891 42.547 9.88359 42.0443 9.96142C41.5166 10.0431 41.1895 9.9874 40.8498 9.86637C40.7117 9.81717 40.5899 9.62262 40.4644 9.42161C40.2863 9.13637 40.1005 8.83867 39.8491 8.92749C39.7904 8.94824 39.7278 8.9946 39.6624 9.04325C39.5421 9.13263 39.412 9.22952 39.2787 9.18704C39.2323 9.17222 39.1914 9.1194 39.1513 9.06762C39.1071 9.01066 39.0639 8.95498 39.0148 8.95186C38.8318 8.9403 38.6536 8.95345 38.4953 8.96527C38.2911 8.9805 38.1199 8.99317 38.0137 8.94699C37.8244 8.86462 37.6173 8.93835 37.4076 9.0134C37.2475 9.07073 37.0857 9.12902 36.9291 9.11819C36.4815 9.08719 35.8659 9.22769 35.2317 9.46182C34.9917 9.55034 34.7884 9.42942 34.5279 9.27417C34.3658 9.1776 34.1816 9.06733 33.9527 8.98659C33.8229 8.94084 33.713 9.04855 33.6112 9.14805C33.5174 9.23972 33.4305 9.32447 33.3413 9.2766C33.2626 9.23428 33.2128 9.05319 33.1656 8.88119C33.113 8.68978 33.0635 8.50975 32.9806 8.54488C32.9366 8.56357 32.883 8.65415 32.8193 8.76177C32.7941 8.80433 32.7672 8.84938 32.7387 8.89398C32.7402 8.85725 32.7405 8.82441 32.7405 8.79955C32.7406 8.62386 32.6561 8.53133 32.5732 8.44069C32.5401 8.4045 32.5071 8.36876 32.4801 8.32798C32.3804 8.17788 32.1917 8.15346 32.0475 8.16043C31.9865 8.16333 31.9312 8.10886 31.8667 8.04528C31.8094 7.98883 31.7448 7.92512 31.6625 7.88809C31.6155 7.86698 31.5795 7.81606 31.5497 7.77355C31.5281 7.74278 31.5097 7.71648 31.4927 7.70958C31.4779 7.70363 31.466 7.75399 31.4526 7.81071C31.443 7.85154 31.4325 7.89577 31.4197 7.92465C31.3889 7.99363 31.3494 8.01444 31.3217 7.99227C31.3089 7.98203 31.2988 7.96243 31.2887 7.94292C31.277 7.9202 31.2654 7.89732 31.2494 7.88931C31.1758 7.85262 31.1042 7.91007 31.0299 7.96973C30.9482 8.03531 30.8629 8.10343 30.768 8.05259C30.7382 8.03658 30.7064 7.99987 30.6756 7.96425C30.6433 7.92697 30.612 7.89099 30.5854 7.88139C30.4773 7.84249 30.3756 7.96811 30.2821 8.08366C30.2199 8.16051 30.1613 8.2328 30.1068 8.24938C30.007 8.27967 29.9534 8.43048 29.9139 8.54183C29.8934 8.59952 29.8767 8.64691 29.8592 8.66125C29.8431 8.65705 29.8268 8.65206 29.8109 8.64662C29.7962 8.63553 29.7811 8.62409 29.7669 8.62774C29.7658 8.62801 29.7648 8.62867 29.7637 8.62895C29.6744 8.5924 29.5867 8.54054 29.4996 8.48882C29.3038 8.37266 29.1105 8.25768 28.9061 8.32249C28.862 8.33647 28.8172 8.39875 28.7715 8.46202C28.7156 8.53953 28.6584 8.61882 28.6001 8.61311C28.4612 8.59951 28.3209 8.49681 28.1828 8.39561C27.9751 8.2434 27.7721 8.09475 27.5855 8.25791C27.5239 8.31177 27.4638 8.40146 27.4035 8.49187C27.3699 8.54226 27.3361 8.59307 27.3021 8.63748C27.3093 8.555 27.3132 8.47757 27.3167 8.40535C27.3241 8.25651 27.3305 8.12912 27.3632 8.02091C27.4405 7.76517 27.5281 7.41312 27.5184 7.15636C27.5157 7.08668 27.5179 7.00908 27.5202 6.93094C27.5261 6.73489 27.532 6.53468 27.4603 6.44413C27.4119 6.38312 27.2876 6.24302 27.2085 6.39296C27.1913 6.42562 27.1808 6.49038 27.1691 6.56233C27.1481 6.69163 27.1232 6.84473 27.0483 6.88037C27.0357 6.88636 27.0219 6.89178 27.0078 6.89682C26.9512 6.91692 26.8879 6.93911 26.8642 7.04304C26.837 7.16277 26.8428 7.29989 26.8496 7.45978C26.8584 7.668 26.8689 7.91534 26.8102 8.21344C26.7986 8.27237 26.7764 8.29255 26.7596 8.30787C26.7478 8.31866 26.7388 8.32731 26.7379 8.34504C26.7369 8.36541 26.7407 8.40779 26.7455 8.46141C26.7624 8.65058 26.7918 8.98111 26.669 8.99512C26.6358 8.99888 26.5978 8.98314 26.5637 8.96892C26.5135 8.94797 26.4718 8.93068 26.4662 8.98476C26.4641 9.00528 26.4626 9.02752 26.4614 9.05057C26.4214 9.04407 26.3815 9.03757 26.3415 9.03107C26.2902 8.9666 26.2182 8.97212 26.1284 8.97928C26.1066 8.98102 26.0836 8.98262 26.0597 8.98355C25.9809 8.9702 25.9019 8.95693 25.8231 8.94334C25.7605 8.91599 25.694 8.87146 25.6237 8.80077C25.4829 8.6591 25.3605 8.42546 25.2408 8.19699C25.1904 8.10072 25.1404 8.00516 25.0897 7.91794C25.1095 7.90722 25.1273 7.89456 25.141 7.87712C25.2349 7.75778 25.2725 7.52298 25.3072 7.30685C25.3302 7.16309 25.352 7.02754 25.388 6.94007C25.4539 6.77984 25.4473 6.59245 25.4424 6.45388C25.4399 6.38201 25.438 6.32313 25.4468 6.28816C25.4539 6.26015 25.4702 6.24698 25.4871 6.23333C25.5018 6.22144 25.517 6.20899 25.5267 6.18641C25.6446 5.91209 25.6091 5.75286 25.5576 5.5211C25.5291 5.39328 25.4959 5.24329 25.4807 5.03978C25.4676 4.8243 25.472 4.76127 25.5338 4.67544C25.4856 4.56902 25.4375 4.4626 25.3893 4.35619C25.3705 4.3631 25.3561 4.42964 25.336 4.54018C25.3001 4.73761 25.183 4.80976 25.0916 4.86614C25.0492 4.89224 25.0124 4.91508 24.9915 4.94534C24.8809 5.10633 24.9131 5.33052 24.9414 5.5278C24.957 5.63638 24.9714 5.73688 24.9602 5.81415C24.9554 5.84721 24.9622 5.88001 24.9691 5.91346C24.9744 5.93933 24.9799 5.96562 24.9801 5.99267C24.9815 6.18912 24.9161 6.33494 24.8554 6.47033C24.8206 6.54787 24.7874 6.62226 24.7691 6.70063C24.7635 6.72451 24.759 6.74887 24.7549 6.77253C24.7488 6.80706 24.7429 6.83998 24.7336 6.86818C24.7125 6.93242 24.6689 6.97573 24.6212 7.02293C24.5968 7.04714 24.5712 7.0724 24.5471 7.10214C24.5158 7.14068 24.5045 7.21837 24.4926 7.29954C24.4842 7.3569 24.4754 7.41598 24.4592 7.46465C24.4298 7.55266 24.3706 7.58444 24.3157 7.61392C24.2917 7.62676 24.2686 7.63952 24.2491 7.65596C24.2411 7.66266 24.2373 7.67601 24.2365 7.69434C24.1462 7.75583 24.0601 7.81865 23.9762 7.88017C23.5558 8.1886 23.1919 8.45601 22.6485 8.26218C22.5458 8.22553 22.4354 8.23285 22.3239 8.26218C21.9673 8.18512 21.6104 8.10555 21.2539 8.02396C21.1833 7.84694 21.097 7.69828 20.9948 7.58163C20.8029 7.36261 20.6055 7.31581 20.3725 7.26055C20.2003 7.21969 20.0086 7.17407 19.7852 7.05096C19.4099 6.8441 19.0246 6.66911 18.5897 6.57817C18.1568 6.48764 17.6612 6.4209 17.3105 6.39722C17.1194 6.38429 16.9186 6.22595 16.7315 6.07858C16.4682 5.87128 16.232 5.68548 16.0878 5.95489C16.0418 6.04099 15.9973 6.19047 15.9539 6.33568C15.9231 6.43911 15.8927 6.54011 15.8629 6.61534C15.7835 6.59197 15.704 6.56886 15.6246 6.54527C15.4835 6.36574 15.2642 6.17325 15.0522 6.37346C14.9702 6.34872 14.8882 6.3241 14.8091 6.29913C14.6364 6.2469 14.4674 6.194 14.2969 6.14072C14.2412 6.1231 14.185 6.10545 14.1286 6.08771C14.1281 6.08751 14.1276 6.08731 14.127 6.08711C14.0136 6.0514 13.8993 6.01544 13.7869 5.97927C13.7388 5.96383 13.6906 5.9484 13.6425 5.93296C13.5201 5.89379 13.3969 5.85448 13.2758 5.81476C13.2117 5.79364 13.147 5.77268 13.0822 5.7514C12.977 5.71687 12.8711 5.68216 12.7656 5.64722C12.5952 5.59073 12.4255 5.53359 12.2555 5.47601C12.2277 5.46649 12.2009 5.43662 12.1813 5.39133C12.1617 5.34596 12.1506 5.28909 12.1506 5.23048C12.1507 5.17185 12.1618 5.11484 12.1815 5.06963C12.2012 5.0246 12.2279 4.99544 12.2557 4.98616C12.4258 4.93015 12.5957 4.87476 12.7663 4.81984C12.8718 4.78588 12.9777 4.75163 13.0829 4.71809C13.1477 4.69741 13.2124 4.67708 13.2765 4.65655C13.3976 4.61797 13.521 4.57942 13.6434 4.5414C13.6915 4.52637 13.7397 4.51135 13.7878 4.49632C13.9005 4.46111 14.0151 4.42625 14.1289 4.39152C14.1295 4.39132 14.1302 4.39112 14.1309 4.39091C14.1869 4.37383 14.2427 4.35671 14.298 4.33974C14.4686 4.28804 14.6377 4.23682 14.8105 4.1862C14.8997 4.15888 14.9928 4.13217 15.0851 4.10517C15.1365 4.09014 15.1879 4.07503 15.2382 4.06008C15.2658 4.05213 15.2937 4.04425 15.3218 4.03632C15.9661 3.849 16.6058 3.66878 17.2515 3.4959C17.8947 3.32303 18.5391 3.15728 19.1816 2.99814C19.8257 2.83898 20.4686 2.68669 21.112 2.54058C25.1955 1.61275 29.2954 0.851973 33.397 0.375864C33.982 0.307502 34.5823 0.245887 35.1685 0.190648C35.7611 0.135378 36.3416 0.0863434 36.9357 0.0444237C37.1162 0.0313221 37.3011 0.0190417 37.491 0.00725901Z" fill="black"/>
<path d="M37.491 18.0073C39.0283 17.9095 40.5077 18.8323 42.0503 18.834C43.9655 18.8363 45.9112 17.9546 47.8309 18.1188C49.7394 18.283 51.6572 18.5189 53.5689 18.8097C55.4828 19.1005 57.3938 19.4461 59.3086 19.829C61.2193 20.2118 63.1342 20.6318 65.0464 21.0725C66.3453 21.3718 67.6455 21.6808 68.9442 21.9937C69.5144 22.1308 70.0828 22.2685 70.6526 22.4068C71.0777 22.5101 71.5028 22.6135 71.9279 22.7169C71.987 22.7314 72.0437 22.7906 72.0854 22.8844C72.1271 22.9784 72.1507 23.0988 72.1506 23.2232C72.1506 23.3476 72.1268 23.4682 72.0849 23.5619C72.0431 23.6553 71.9863 23.7136 71.9272 23.7276C71.4986 23.8278 71.0699 23.9279 70.6412 24.028C70.165 24.1391 69.6897 24.2503 69.2136 24.3607C69.1387 23.8502 69.0358 23.463 68.8431 23.292C68.7447 23.2048 68.6013 23.1685 68.4956 23.2634C68.4008 23.3486 68.3293 23.5006 68.2615 23.6454C68.1905 23.7969 68.1232 23.9407 68.0365 23.9915C67.8894 24.0777 67.7496 24.2944 67.6028 24.5221C67.5493 24.605 67.4949 24.6894 67.4389 24.7695C66.9845 24.8733 66.53 24.9763 66.0757 25.0784C65.9002 25.024 65.7388 24.9801 65.6019 25.001C65.4791 25.0198 65.3666 25.1276 65.2547 25.2618C65.1843 25.2774 65.114 25.293 65.0436 25.3087C64.5897 25.4092 64.1355 25.508 63.6813 25.606C63.327 25.4698 62.9555 25.3375 62.4726 25.2794C62.2645 25.2544 62.0592 25.1807 61.8617 25.1101C61.5702 25.0057 61.2959 24.9075 61.0554 24.9809C60.8947 25.0299 60.7256 24.9578 60.5569 24.8859C60.3307 24.7894 60.1049 24.693 59.9002 24.8895C59.7716 25.0131 59.6533 25.1633 59.5439 25.3026C59.3697 25.5243 59.2175 25.7181 59.0797 25.7315C58.8208 25.7566 58.5966 25.9181 58.399 26.0605C58.1613 26.2318 57.962 26.3756 57.787 26.2207C57.7604 26.1973 57.7301 26.1661 57.6959 26.1306C57.5157 25.9436 57.2275 25.6445 56.8138 25.8089C56.6665 25.8674 56.5281 26.0196 56.3926 26.169C56.1954 26.3863 56.0038 26.5974 55.7987 26.5034C55.768 26.4894 55.736 26.4305 55.7069 26.3767C55.6699 26.3083 55.6375 26.2486 55.6183 26.3006C55.5621 26.4529 55.4729 26.6212 55.3759 26.8044C55.3047 26.939 55.2292 27.0817 55.1597 27.2315C54.6281 27.3162 54.0966 27.3972 53.5648 27.474C53.3212 27.5092 53.0775 27.5435 52.8338 27.577C52.7091 27.3477 52.5816 27.1411 52.447 26.9848C52.2709 26.7805 52.0428 26.7179 51.7486 26.6369C51.5322 26.5772 51.28 26.5075 50.9865 26.3645C50.4431 26.1 49.885 26.1593 49.5274 26.3012C49.4517 26.3312 49.3757 26.3632 49.2944 26.398C48.9859 26.5302 48.6009 26.6957 47.8698 26.8781C47.1782 27.0508 46.59 27.0955 46.1482 27.1292C45.9226 27.1463 45.7352 27.1601 45.5915 27.187C45.3458 27.2331 45.0439 27.274 44.741 27.315C44.2669 27.3791 43.7898 27.4433 43.5197 27.5288C43.4235 27.5593 43.3226 27.597 43.2137 27.6373C42.9117 27.7489 42.547 27.8836 42.0443 27.9614C41.5166 28.0431 41.1895 27.9874 40.8498 27.8664C40.7117 27.8172 40.5899 27.6226 40.4644 27.4216C40.2863 27.1364 40.1005 26.8387 39.8491 26.9275C39.7904 26.9482 39.7278 26.9946 39.6624 27.0433C39.5421 27.1326 39.412 27.2295 39.2787 27.187C39.2323 27.1722 39.1914 27.1194 39.1513 27.0676C39.1071 27.0107 39.0639 26.955 39.0148 26.9519C38.8318 26.9403 38.6536 26.9535 38.4953 26.9653C38.2911 26.9805 38.1199 26.9932 38.0137 26.947C37.8244 26.8646 37.6173 26.9383 37.4076 27.0134C37.2475 27.0707 37.0857 27.129 36.9291 27.1182C36.4815 27.0872 35.8659 27.2277 35.2317 27.4618C34.9917 27.5503 34.7884 27.4294 34.5279 27.2742C34.3658 27.1776 34.1816 27.0673 33.9527 26.9866C33.8229 26.9408 33.713 27.0485 33.6112 27.148C33.5174 27.2397 33.4305 27.3245 33.3413 27.2766C33.2626 27.2343 33.2128 27.0532 33.1656 26.8812C33.113 26.6898 33.0635 26.5098 32.9806 26.5449C32.9366 26.5636 32.883 26.6542 32.8193 26.7618C32.7941 26.8043 32.7672 26.8494 32.7387 26.894C32.7402 26.8573 32.7405 26.8244 32.7405 26.7995C32.7406 26.6239 32.6561 26.5313 32.5732 26.4407C32.5401 26.4045 32.5071 26.3688 32.4801 26.328C32.3804 26.1779 32.1917 26.1535 32.0475 26.1604C31.9865 26.1633 31.9312 26.1089 31.8667 26.0453C31.8094 25.9888 31.7448 25.9251 31.6625 25.8881C31.6155 25.867 31.5795 25.8161 31.5497 25.7735C31.5281 25.7428 31.5097 25.7165 31.4927 25.7096C31.4779 25.7036 31.466 25.754 31.4526 25.8107C31.443 25.8515 31.4325 25.8958 31.4197 25.9246C31.3889 25.9936 31.3494 26.0144 31.3217 25.9923C31.3089 25.982 31.2988 25.9624 31.2887 25.9429C31.277 25.9202 31.2654 25.8973 31.2494 25.8893C31.1758 25.8526 31.1042 25.9101 31.0299 25.9697C30.9482 26.0353 30.8629 26.1034 30.768 26.0526C30.7382 26.0366 30.7064 25.9999 30.6756 25.9642C30.6433 25.927 30.612 25.891 30.5854 25.8814C30.4773 25.8425 30.3756 25.9681 30.2821 26.0837C30.2199 26.1605 30.1613 26.2328 30.1068 26.2494C30.007 26.2797 29.9534 26.4305 29.9139 26.5418C29.8934 26.5995 29.8767 26.6469 29.8592 26.6612C29.8431 26.657 29.8268 26.6521 29.8109 26.6466C29.7962 26.6355 29.7811 26.6241 29.7669 26.6277C29.7658 26.628 29.7648 26.6287 29.7637 26.629C29.6744 26.5924 29.5867 26.5405 29.4996 26.4888C29.3038 26.3727 29.1105 26.2577 28.9061 26.3225C28.862 26.3365 28.8172 26.3987 28.7715 26.462C28.7156 26.5395 28.6584 26.6188 28.6001 26.6131C28.4612 26.5995 28.3209 26.4968 28.1828 26.3956C27.9751 26.2434 27.7721 26.0948 27.5855 26.2579C27.5239 26.3118 27.4638 26.4015 27.4035 26.4919C27.3699 26.5423 27.3361 26.5931 27.3021 26.6375C27.3093 26.555 27.3132 26.4776 27.3167 26.4054C27.3241 26.2565 27.3305 26.1291 27.3632 26.0209C27.4405 25.7652 27.5281 25.4131 27.5184 25.1564C27.5157 25.0867 27.5179 25.0091 27.5202 24.9309C27.5261 24.7349 27.532 24.5347 27.4603 24.4441C27.4119 24.3831 27.2876 24.243 27.2085 24.393C27.1913 24.4256 27.1808 24.4904 27.1691 24.5623C27.1481 24.6916 27.1232 24.8447 27.0483 24.8804C27.0357 24.8864 27.0219 24.8918 27.0078 24.8968C26.9512 24.9169 26.8879 24.9391 26.8642 25.043C26.837 25.1628 26.8428 25.2999 26.8496 25.4598C26.8584 25.668 26.8689 25.9153 26.8102 26.2134C26.7986 26.2724 26.7764 26.2926 26.7596 26.3079C26.7478 26.3187 26.7388 26.3273 26.7379 26.345C26.7369 26.3654 26.7407 26.4078 26.7455 26.4614C26.7624 26.6506 26.7918 26.9811 26.669 26.9951C26.6358 26.9989 26.5978 26.9831 26.5637 26.9689C26.5135 26.948 26.4718 26.9307 26.4662 26.9848C26.4641 27.0053 26.4626 27.0275 26.4614 27.0506C26.4214 27.0441 26.3815 27.0376 26.3415 27.0311C26.2902 26.9666 26.2182 26.9721 26.1284 26.9793C26.1066 26.981 26.0836 26.9826 26.0597 26.9835C25.9809 26.9702 25.9019 26.9569 25.8231 26.9433C25.7605 26.916 25.694 26.8715 25.6237 26.8008C25.4829 26.6591 25.3605 26.4255 25.2408 26.197C25.1904 26.1007 25.1404 26.0052 25.0897 25.9179C25.1095 25.9072 25.1273 25.8946 25.141 25.8771C25.2349 25.7578 25.2725 25.523 25.3072 25.3069C25.3302 25.1631 25.352 25.0275 25.388 24.9401C25.4539 24.7798 25.4473 24.5924 25.4424 24.4539C25.4399 24.382 25.438 24.3231 25.4468 24.2882C25.4539 24.2601 25.4702 24.247 25.4871 24.2333C25.5018 24.2214 25.517 24.209 25.5267 24.1864C25.6446 23.9121 25.6091 23.7529 25.5576 23.5211C25.5291 23.3933 25.4959 23.2433 25.4807 23.0398C25.4676 22.8243 25.472 22.7613 25.5338 22.6754C25.4856 22.569 25.4375 22.4626 25.3893 22.3562C25.3705 22.3631 25.3561 22.4296 25.336 22.5402C25.3001 22.7376 25.183 22.8098 25.0916 22.8661C25.0492 22.8922 25.0124 22.9151 24.9915 22.9453C24.8809 23.1063 24.9131 23.3305 24.9414 23.5278C24.957 23.6364 24.9714 23.7369 24.9602 23.8142C24.9554 23.8472 24.9622 23.88 24.9691 23.9135C24.9744 23.9393 24.9799 23.9656 24.9801 23.9927C24.9815 24.1891 24.9161 24.3349 24.8554 24.4703C24.8206 24.5479 24.7874 24.6223 24.7691 24.7006C24.7635 24.7245 24.759 24.7489 24.7549 24.7725C24.7488 24.8071 24.7429 24.84 24.7336 24.8682C24.7125 24.9324 24.6689 24.9757 24.6212 25.0229C24.5968 25.0471 24.5712 25.0724 24.5471 25.1021C24.5158 25.1407 24.5045 25.2184 24.4926 25.2995C24.4842 25.3569 24.4754 25.416 24.4592 25.4647C24.4298 25.5527 24.3706 25.5844 24.3157 25.6139C24.2917 25.6268 24.2686 25.6395 24.2491 25.656C24.2411 25.6627 24.2373 25.676 24.2365 25.6943C24.1462 25.7558 24.0601 25.8186 23.9762 25.8802C23.5558 26.1886 23.1919 26.456 22.6485 26.2622C22.5458 26.2255 22.4354 26.2328 22.3239 26.2622C21.9673 26.1851 21.6104 26.1056 21.2539 26.024C21.1833 25.8469 21.097 25.6983 20.9948 25.5816C20.8029 25.3626 20.6055 25.3158 20.3725 25.2605C20.2003 25.2197 20.0086 25.1741 19.7852 25.051C19.4099 24.8441 19.0246 24.6691 18.5897 24.5782C18.1568 24.4876 17.6612 24.4209 17.3105 24.3972C17.1194 24.3843 16.9186 24.2259 16.7315 24.0786C16.4682 23.8713 16.232 23.6855 16.0878 23.9549C16.0418 24.041 15.9973 24.1905 15.9539 24.3357C15.9231 24.4391 15.8927 24.5401 15.8629 24.6153C15.7835 24.592 15.704 24.5689 15.6246 24.5453C15.4835 24.3657 15.2642 24.1732 15.0522 24.3735C14.9702 24.3487 14.8882 24.3241 14.8091 24.2991C14.6364 24.2469 14.4674 24.194 14.2969 24.1407C14.2412 24.1231 14.185 24.1055 14.1286 24.0877C14.1281 24.0875 14.1276 24.0873 14.127 24.0871C14.0136 24.0514 13.8993 24.0154 13.7869 23.9793C13.7388 23.9638 13.6906 23.9484 13.6425 23.933C13.5201 23.8938 13.3969 23.8545 13.2758 23.8148C13.2117 23.7936 13.147 23.7727 13.0822 23.7514C12.977 23.7169 12.8711 23.6822 12.7656 23.6472C12.5952 23.5907 12.4255 23.5336 12.2555 23.476C12.2277 23.4665 12.2009 23.4366 12.1813 23.3913C12.1617 23.346 12.1506 23.2891 12.1506 23.2305C12.1507 23.1718 12.1618 23.1148 12.1815 23.0696C12.2012 23.0246 12.2279 22.9954 12.2557 22.9862C12.4258 22.9302 12.5957 22.8748 12.7663 22.8198C12.8718 22.7859 12.9777 22.7516 13.0829 22.7181C13.1477 22.6974 13.2124 22.6771 13.2765 22.6566C13.3976 22.618 13.521 22.5794 13.6434 22.5414C13.6915 22.5264 13.7397 22.5113 13.7878 22.4963C13.9005 22.4611 14.0151 22.4263 14.1289 22.3915C14.1295 22.3913 14.1302 22.3911 14.1309 22.3909C14.1869 22.3738 14.2427 22.3567 14.298 22.3397C14.4686 22.288 14.6377 22.2368 14.8105 22.1862C14.8997 22.1589 14.9928 22.1322 15.0851 22.1052C15.1365 22.0901 15.1879 22.075 15.2382 22.0601C15.2658 22.0521 15.2937 22.0442 15.3218 22.0363C15.9661 21.849 16.6058 21.6688 17.2515 21.4959C17.8947 21.323 18.5391 21.1573 19.1816 20.9981C19.8257 20.839 20.4686 20.6867 21.112 20.5406C25.1955 19.6127 29.2954 18.852 33.397 18.3759C33.982 18.3075 34.5823 18.2459 35.1685 18.1906C35.7611 18.1354 36.3416 18.0863 36.9357 18.0444C37.1162 18.0313 37.3011 18.019 37.491 18.0073Z" fill="black"/>
</svg>
