<svg width="60" height="77" viewBox="0 0 60 77" fill="none" xmlns="http://www.w3.org/2000/svg">
<path d="M29.0073 49.6819C28.9095 48.5289 29.8323 47.4193 29.834 46.2624C29.8363 44.826 28.9545 43.3667 29.1188 41.9269C29.283 40.4955 29.5189 39.0572 29.8097 37.6234C30.1005 36.188 30.4461 34.7548 30.829 33.3186C31.2118 31.8856 31.6318 30.4495 32.0725 29.0153C32.3718 28.0411 32.6808 27.0659 32.9937 26.0919C33.1308 25.6643 33.2685 25.238 33.4068 24.8106C33.5101 24.4918 33.6135 24.173 33.7169 23.8541C33.7314 23.8098 33.7906 23.7673 33.8844 23.736C33.9784 23.7047 34.0988 23.6871 34.2232 23.6871C34.3476 23.6872 34.4682 23.705 34.5619 23.7364C34.6553 23.7678 34.7136 23.8103 34.7276 23.8546C34.8278 24.1762 34.9279 24.4977 35.028 24.8192C35.1391 25.1763 35.2503 25.5328 35.3607 25.8899C34.8502 25.9461 34.463 26.0232 34.292 26.1678C34.2048 26.2416 34.1685 26.3491 34.2634 26.4284C34.3486 26.4995 34.5006 26.5531 34.6454 26.604C34.7969 26.6572 34.9407 26.7077 34.9915 26.7727C35.0777 26.883 35.2944 26.9879 35.5221 27.098C35.605 27.1381 35.6894 27.1789 35.7695 27.2209C35.8733 27.5617 35.9763 27.9026 36.0784 28.2433C36.024 28.375 35.9801 28.496 36.001 28.5987C36.0198 28.6908 36.1276 28.7751 36.2618 28.8591C36.2774 28.9118 36.293 28.9646 36.3087 29.0173C36.4092 29.3578 36.508 29.6984 36.606 30.0391C36.4698 30.3048 36.3375 30.5834 36.2794 30.9456C36.2544 31.1017 36.1807 31.2557 36.1101 31.4038C36.0057 31.6225 35.9075 31.8282 35.9809 32.0085C36.0299 32.1291 35.9578 32.2559 35.8858 32.3824C35.7894 32.5521 35.693 32.7214 35.8895 32.8749C36.0131 32.9714 36.1633 33.0601 36.3026 33.1422C36.5243 33.2728 36.7181 33.3869 36.7315 33.4903C36.7566 33.6845 36.9181 33.8526 37.0605 34.0008C37.2318 34.1791 37.3756 34.3286 37.2207 34.4598C37.1973 34.4797 37.1661 34.5025 37.1306 34.5282C36.9436 34.6633 36.6445 34.8795 36.8089 35.1897C36.8674 35.3002 37.0196 35.404 37.169 35.5056C37.3863 35.6535 37.5974 35.7972 37.5034 35.9511C37.4894 35.974 37.4305 35.998 37.3767 36.0199C37.3083 36.0477 37.2486 36.0719 37.3006 36.0863C37.4529 36.1285 37.6212 36.1954 37.8044 36.2681C37.939 36.3215 38.0817 36.3781 38.2315 36.4303C38.3162 36.829 38.3972 37.2277 38.474 37.6265C38.5092 37.8092 38.5435 37.9919 38.577 38.1748C38.3477 38.2682 38.1411 38.3639 37.9848 38.4649C37.7805 38.5969 37.7179 38.768 37.6369 38.9886C37.5772 39.1509 37.5075 39.3401 37.3645 39.5602C37.1 39.9677 37.1593 40.3863 37.3012 40.6546C37.3312 40.7113 37.3632 40.7683 37.398 40.8293C37.5302 41.0607 37.6957 41.3494 37.8781 41.8977C38.0508 42.4164 38.0955 42.8576 38.1292 43.189C38.1463 43.3581 38.1601 43.4987 38.187 43.6064C38.2331 43.7908 38.274 44.0171 38.315 44.2443C38.3791 44.5999 38.4433 44.9578 38.5288 45.1603C38.5593 45.2324 38.597 45.3081 38.6373 45.3898C38.7489 45.6163 38.8836 45.8898 38.9614 46.2668C39.0431 46.6626 38.9874 46.9079 38.8664 47.1627C38.8172 47.2663 38.6226 47.3577 38.4216 47.4518C38.1364 47.5854 37.8387 47.7247 37.9275 47.9132C37.9482 47.9572 37.9946 48.0042 38.0433 48.0533C38.1326 48.1435 38.2295 48.2411 38.187 48.341C38.1722 48.3759 38.1194 48.4065 38.0676 48.4366C38.0107 48.4697 37.955 48.5022 37.9519 48.5389C37.9403 48.6763 37.9535 48.8099 37.9653 48.9286C37.9805 49.0817 37.9932 49.2101 37.947 49.2898C37.8646 49.4318 37.9383 49.5871 38.0134 49.7443C38.0707 49.8645 38.129 49.9858 38.1182 50.1033C38.0872 50.439 38.2277 50.9006 38.4618 51.3763C38.5503 51.5563 38.4294 51.7088 38.2742 51.9042C38.1776 52.0257 38.0673 52.1638 37.9866 52.3356C37.9408 52.4329 38.0485 52.5154 38.148 52.5917C38.2397 52.662 38.3245 52.7272 38.2766 52.7941C38.2343 52.8531 38.0532 52.8904 37.8812 52.9259C37.6898 52.9654 37.5098 53.0025 37.5449 53.0646C37.5636 53.0977 37.6542 53.1378 37.7618 53.1856C37.8043 53.2045 37.8494 53.2247 37.894 53.246C37.8573 53.245 37.8244 53.2447 37.7995 53.2447C37.6239 53.2446 37.5313 53.308 37.4407 53.3702C37.4045 53.395 37.3688 53.4197 37.328 53.44C37.1779 53.5148 37.1535 53.6563 37.1604 53.7645C37.1633 53.8102 37.1089 53.8517 37.0453 53.9001C36.9888 53.943 36.9251 53.9914 36.8881 54.0532C36.867 54.0884 36.8161 54.1155 36.7735 54.1378C36.7428 54.154 36.7165 54.1678 36.7096 54.1806C36.7036 54.1916 36.754 54.2006 36.8107 54.2106C36.8515 54.2178 36.8958 54.2257 36.9246 54.2353C36.9936 54.2584 37.0144 54.288 36.9923 54.3088C36.982 54.3184 36.9624 54.326 36.9429 54.3335C36.9202 54.3423 36.8973 54.351 36.8893 54.363C36.8526 54.4182 36.9101 54.4719 36.9697 54.5277C37.0353 54.589 37.1034 54.6529 37.0526 54.724C37.0366 54.7464 36.9999 54.7703 36.9642 54.7934C36.927 54.8176 36.891 54.8411 36.8814 54.861C36.8425 54.9421 36.9681 55.0184 37.0837 55.0885C37.1605 55.1351 37.2328 55.1791 37.2494 55.22C37.2797 55.2948 37.4305 55.335 37.5418 55.3647C37.5995 55.38 37.6469 55.3926 37.6612 55.4057C37.657 55.4178 37.6521 55.43 37.6466 55.4419C37.6355 55.4529 37.6241 55.4643 37.6277 55.4749C37.628 55.4757 37.6287 55.4765 37.629 55.4773C37.5924 55.5443 37.5405 55.61 37.4888 55.6754C37.3727 55.8222 37.2577 55.9672 37.3225 56.1205C37.3365 56.1535 37.3987 56.1872 37.462 56.2214C37.5395 56.2634 37.6188 56.3063 37.6131 56.35C37.5995 56.4542 37.4968 56.5594 37.3956 56.663C37.2434 56.8188 37.0948 56.971 37.2579 57.111C37.3118 57.1572 37.4015 57.2023 37.4919 57.2475C37.5423 57.2726 37.5931 57.298 37.6375 57.3235C37.555 57.3181 37.4776 57.3152 37.4054 57.3125C37.2565 57.307 37.1291 57.3022 37.0209 57.2777C36.7652 57.2197 36.4131 57.154 36.1564 57.1613C36.0867 57.1633 36.0091 57.1617 35.9309 57.1599C35.7349 57.1555 35.5347 57.1511 35.4441 57.2049C35.3831 57.2412 35.243 57.3344 35.393 57.3937C35.4256 57.4066 35.4904 57.4145 35.5623 57.4232C35.6916 57.439 35.8447 57.4577 35.8804 57.5139C35.8864 57.5233 35.8918 57.5336 35.8968 57.5443C35.9169 57.5867 35.9391 57.6341 36.043 57.6519C36.1628 57.6723 36.2999 57.668 36.4598 57.6629C36.668 57.6563 36.9153 57.6484 37.2134 57.6924C37.2724 57.7011 37.2926 57.7178 37.3079 57.7303C37.3187 57.7392 37.3273 57.746 37.345 57.7467C37.3654 57.7474 37.4078 57.7446 37.4614 57.741C37.6506 57.7283 37.9811 57.7062 37.9951 57.7983C37.9989 57.8232 37.9831 57.8517 37.9689 57.8773C37.948 57.9149 37.9307 57.9462 37.9848 57.9504C38.0053 57.952 38.0275 57.9531 38.0506 57.954C38.0441 57.984 38.0376 58.014 38.0311 58.044C37.9666 58.0824 37.9721 58.1364 37.9793 58.2038C37.981 58.2201 37.9826 58.2374 37.9835 58.2553C37.9702 58.3144 37.9569 58.3736 37.9433 58.4328C37.916 58.4797 37.8715 58.5296 37.8008 58.5823C37.6591 58.6879 37.4255 58.7797 37.197 58.8695C37.1007 58.9073 37.0052 58.9448 36.9179 58.9828C36.9072 58.968 36.8946 58.9546 36.8771 58.9443C36.7578 58.8739 36.523 58.8457 36.3069 58.8197C36.1631 58.8024 36.0275 58.7861 35.9401 58.7591C35.7798 58.7097 35.5924 58.7146 35.4539 58.7183C35.382 58.7201 35.3231 58.7216 35.2882 58.715C35.2601 58.7097 35.247 58.6974 35.2333 58.6848C35.2214 58.6738 35.209 58.6624 35.1864 58.6551C34.9121 58.5667 34.7529 58.5932 34.5211 58.6319C34.3933 58.6532 34.2433 58.6781 34.0398 58.6896C33.8243 58.6994 33.7613 58.6961 33.6754 58.6498C33.569 58.6859 33.4626 58.722 33.3562 58.7581C33.3631 58.7722 33.4296 58.783 33.5402 58.7981C33.7376 58.825 33.8098 58.9128 33.8661 58.9814C33.8922 59.0132 33.9151 59.0408 33.9453 59.0564C34.1063 59.1394 34.3305 59.1153 34.5278 59.094C34.6364 59.0823 34.7369 59.0715 34.8142 59.0799C34.8472 59.0835 34.88 59.0784 34.9135 59.0732C34.9393 59.0693 34.9656 59.0652 34.9927 59.065C35.1891 59.0639 35.3349 59.113 35.4703 59.1586C35.5479 59.1846 35.6223 59.2095 35.7006 59.2233C35.7245 59.2275 35.7489 59.2308 35.7725 59.2339C35.8071 59.2385 35.84 59.2429 35.8682 59.2499C35.9324 59.2657 35.9757 59.2984 36.0229 59.3342C36.0471 59.3525 36.0724 59.3717 36.1021 59.3898C36.1407 59.4133 36.2184 59.4217 36.2995 59.4306C36.3569 59.437 36.416 59.4436 36.4647 59.4557C36.5527 59.4777 36.5844 59.5221 36.6139 59.5633C36.6268 59.5813 36.6395 59.5987 36.656 59.6133C36.6627 59.6192 36.676 59.6221 36.6943 59.6227C36.7558 59.6904 36.8186 59.755 36.8802 59.8179C37.1886 60.1332 37.456 60.4061 37.2622 60.8137C37.2255 60.8908 37.2328 60.9735 37.2622 61.0571C37.1851 61.3246 37.1056 61.5922 37.024 61.8596C36.8469 61.9126 36.6983 61.9773 36.5816 62.054C36.3626 62.1979 36.3158 62.346 36.2605 62.5207C36.2197 62.6499 36.1741 62.7937 36.051 62.9612C35.8441 63.2427 35.6691 63.5317 35.5782 63.8578C35.4876 64.1825 35.4209 64.5542 35.3972 64.8172C35.3843 64.9606 35.2259 65.1111 35.0786 65.2515C34.8713 65.4489 34.6855 65.626 34.9549 65.7342C35.041 65.7687 35.1905 65.8021 35.3357 65.8346C35.4391 65.8578 35.5401 65.8806 35.6153 65.9029C35.592 65.9625 35.5689 66.0221 35.5453 66.0816C35.3657 66.1875 35.1732 66.352 35.3735 66.511C35.3487 66.5724 35.3241 66.6339 35.2991 66.6933C35.2469 66.8228 35.194 66.9495 35.1407 67.0774C35.1231 67.1192 35.1055 67.1613 35.0877 67.2036C35.0875 67.204 35.0873 67.2044 35.0871 67.2048C35.0514 67.2899 35.0154 67.3756 34.9793 67.4599C34.9638 67.496 34.9484 67.5321 34.933 67.5682C34.8938 67.66 34.8545 67.7524 34.8148 67.8432C34.7936 67.8913 34.7727 67.9398 34.7514 67.9884C34.7169 68.0673 34.6822 68.1468 34.6472 68.2259C34.5907 68.3537 34.5336 68.481 34.476 68.6085C34.4665 68.6293 34.4366 68.6494 34.3913 68.6641C34.346 68.6788 34.2891 68.6871 34.2305 68.6871C34.1718 68.6871 34.1148 68.6787 34.0696 68.6639C34.0246 68.6492 33.9954 68.6291 33.9862 68.6083C33.9302 68.4807 33.8748 68.3533 33.8198 68.2253C33.7859 68.1463 33.7516 68.0668 33.7181 67.9879C33.6974 67.9393 33.6771 67.8908 33.6566 67.8427C33.618 67.7519 33.5794 67.6593 33.5414 67.5675C33.5264 67.5314 33.5113 67.4953 33.4963 67.4592C33.4611 67.3747 33.4263 67.2887 33.3915 67.2034C33.3913 67.2029 33.3911 67.2024 33.3909 67.2019C33.3738 67.1599 33.3567 67.118 33.3397 67.0766C33.288 66.9486 33.2368 66.8218 33.1862 66.6922C33.1589 66.6253 33.1322 66.5555 33.1052 66.4862C33.0901 66.4477 33.075 66.4092 33.0601 66.3714C33.0521 66.3507 33.0442 66.3298 33.0363 66.3087C32.849 65.8255 32.6688 65.3457 32.4959 64.8615C32.323 64.379 32.1573 63.8957 31.9981 63.4139C31.839 62.9308 31.6867 62.4486 31.5406 61.9661C30.6127 58.9034 29.852 55.8286 29.3759 52.7524C29.3075 52.3136 29.2459 51.8633 29.1906 51.4237C29.1354 50.9792 29.0863 50.5439 29.0444 50.0983C29.0313 49.963 29.019 49.8242 29.0073 49.6819Z" fill="black"/>
<path d="M7.00726 54.9052C6.90946 54.0085 7.83226 53.1455 7.83403 52.2456C7.83631 51.1284 6.95455 49.9934 7.11875 48.8736C7.283 47.7603 7.51886 46.6416 7.80966 45.5264C8.10046 44.41 8.44611 43.2953 8.82896 42.1783C9.2118 41.0637 9.63176 39.9467 10.0725 38.8312C10.3718 38.0736 10.6808 37.3151 10.9937 36.5575C11.1308 36.2249 11.2685 35.8933 11.4068 35.561C11.5101 35.313 11.6135 35.065 11.7169 34.817C11.7314 34.7825 11.7906 34.7495 11.8844 34.7252C11.9784 34.7008 12.0988 34.6871 12.2232 34.6871C12.3476 34.6871 12.4682 34.701 12.5619 34.7254C12.6553 34.7498 12.7136 34.7829 12.7276 34.8174C12.8278 35.0675 12.9279 35.3176 13.028 35.5676C13.1391 35.8454 13.2503 36.1227 13.3607 36.4004C12.8502 36.4441 12.463 36.5041 12.292 36.6165C12.2048 36.6739 12.1685 36.7576 12.2634 36.8192C12.3486 36.8745 12.5006 36.9162 12.6454 36.9558C12.7969 36.9972 12.9407 37.0365 12.9915 37.087C13.0777 37.1728 13.2944 37.2544 13.5221 37.34C13.605 37.3712 13.6894 37.4029 13.7695 37.4356C13.8733 37.7007 13.9763 37.9658 14.0784 38.2308C14.024 38.3332 13.9801 38.4273 14.001 38.5072C14.0198 38.5788 14.1276 38.6444 14.2618 38.7097C14.2774 38.7508 14.293 38.7918 14.3087 38.8328C14.4092 39.0977 14.508 39.3626 14.606 39.6275C14.4698 39.8342 14.3375 40.0509 14.2794 40.3326C14.2544 40.454 14.1807 40.5738 14.1101 40.689C14.0057 40.859 13.9075 41.019 13.9809 41.1593C14.0299 41.2531 13.9578 41.3517 13.8858 41.4501C13.7894 41.5821 13.693 41.7138 13.8895 41.8332C14.0131 41.9082 14.1633 41.9772 14.3026 42.041C14.5243 42.1427 14.7181 42.2314 14.7315 42.3118C14.7566 42.4628 14.9181 42.5936 15.0605 42.7089C15.2318 42.8475 15.3756 42.9638 15.2207 43.0659C15.1973 43.0814 15.1661 43.0991 15.1306 43.119C14.9436 43.2242 14.6445 43.3923 14.8089 43.6336C14.8674 43.7195 15.0196 43.8002 15.169 43.8793C15.3863 43.9943 15.5974 44.1061 15.5034 44.2257C15.4894 44.2436 15.4305 44.2623 15.3767 44.2793C15.3083 44.3009 15.2486 44.3198 15.3006 44.3309C15.4529 44.3637 15.6212 44.4158 15.8044 44.4723C15.939 44.5139 16.0817 44.5579 16.2315 44.5985C16.3162 44.9086 16.3972 45.2186 16.474 45.5288C16.5092 45.6709 16.5435 45.8131 16.577 45.9553C16.3477 46.028 16.1411 46.1024 15.9848 46.1809C15.7805 46.2836 15.7179 46.4167 15.6369 46.5883C15.5772 46.7145 15.5075 46.8617 15.3645 47.0329C15.1 47.3498 15.1593 47.6754 15.3012 47.884C15.3312 47.9281 15.3632 47.9725 15.398 48.0199C15.5302 48.1999 15.6957 48.4244 15.8781 48.8509C16.0508 49.2544 16.0955 49.5975 16.1292 49.8552C16.1463 49.9868 16.1601 50.0961 16.187 50.1799C16.2331 50.3233 16.274 50.4993 16.315 50.6761C16.3791 50.9526 16.4433 51.2309 16.5288 51.3885C16.5593 51.4446 16.597 51.5034 16.6373 51.567C16.7489 51.7431 16.8836 51.9559 16.9614 52.2491C17.0431 52.5569 16.9874 52.7477 16.8664 52.9459C16.8172 53.0265 16.6226 53.0976 16.4216 53.1708C16.1364 53.2747 15.8387 53.383 15.9275 53.5297C15.9482 53.5639 15.9946 53.6004 16.0433 53.6386C16.1326 53.7088 16.2295 53.7847 16.187 53.8624C16.1722 53.8895 16.1194 53.9133 16.0676 53.9367C16.0107 53.9625 15.955 53.9877 15.9519 54.0163C15.9403 54.1231 15.9535 54.227 15.9653 54.3194C15.9805 54.4385 15.9932 54.5383 15.947 54.6003C15.8646 54.7108 15.9383 54.8315 16.0134 54.9538C16.0707 55.0473 16.129 55.1416 16.1182 55.233C16.0872 55.4941 16.2277 55.8532 16.4618 56.2232C16.5503 56.3631 16.4294 56.4817 16.2742 56.6337C16.1776 56.7282 16.0673 56.8357 15.9866 56.9692C15.9408 57.045 16.0485 57.1091 16.148 57.1684C16.2397 57.2231 16.3245 57.2738 16.2766 57.3259C16.2343 57.3718 16.0532 57.4008 15.8812 57.4284C15.6898 57.4591 15.5098 57.488 15.5449 57.5363C15.5636 57.562 15.6542 57.5932 15.7618 57.6304C15.8043 57.6451 15.8494 57.6608 15.894 57.6774C15.8573 57.6765 15.8244 57.6763 15.7995 57.6763C15.6239 57.6763 15.5313 57.7256 15.4407 57.7739C15.4045 57.7932 15.3688 57.8125 15.328 57.8283C15.1779 57.8864 15.1535 57.9965 15.1604 58.0806C15.1633 58.1162 15.1089 58.1484 15.0453 58.1861C14.9888 58.2195 14.9251 58.2572 14.8881 58.3052C14.867 58.3326 14.8161 58.3536 14.7735 58.371C14.7428 58.3836 14.7165 58.3943 14.7096 58.4042C14.7036 58.4129 14.754 58.4198 14.8107 58.4276C14.8515 58.4332 14.8958 58.4393 14.9246 58.4468C14.9936 58.4648 15.0144 58.4878 14.9923 58.504C14.982 58.5114 14.9624 58.5173 14.9429 58.5232C14.9202 58.53 14.8973 58.5368 14.8893 58.5462C14.8526 58.5891 14.9101 58.6308 14.9697 58.6742C15.0353 58.7219 15.1034 58.7716 15.0526 58.8269C15.0366 58.8444 14.9999 58.8629 14.9642 58.8809C14.927 58.8997 14.891 58.918 14.8814 58.9335C14.8425 58.9966 14.9681 59.0559 15.0837 59.1104C15.1605 59.1467 15.2328 59.1809 15.2494 59.2127C15.2797 59.2709 15.4305 59.3022 15.5418 59.3252C15.5995 59.3372 15.6469 59.3469 15.6612 59.3571C15.657 59.3665 15.6521 59.376 15.6466 59.3853C15.6355 59.3938 15.6241 59.4027 15.6277 59.4109C15.628 59.4116 15.6287 59.4122 15.629 59.4128C15.5924 59.4649 15.5405 59.5161 15.4888 59.5669C15.3727 59.6811 15.2577 59.7938 15.3225 59.9131C15.3365 59.9388 15.3987 59.965 15.462 59.9916C15.5395 60.0242 15.6188 60.0576 15.6131 60.0916C15.5995 60.1726 15.4968 60.2544 15.3956 60.335C15.2434 60.4562 15.0948 60.5746 15.2579 60.6835C15.3118 60.7194 15.4015 60.7544 15.4919 60.7896C15.5423 60.8092 15.5931 60.8289 15.6375 60.8488C15.555 60.8445 15.4776 60.8423 15.4054 60.8402C15.2565 60.8359 15.1291 60.8322 15.0209 60.8131C14.7652 60.768 14.4131 60.7169 14.1564 60.7226C14.0867 60.7241 14.0091 60.7229 13.9309 60.7215C13.7349 60.7181 13.5347 60.7146 13.4441 60.7565C13.3831 60.7847 13.243 60.8572 13.393 60.9034C13.4256 60.9134 13.4904 60.9195 13.5623 60.9263C13.6916 60.9386 13.8447 60.9531 13.8804 60.9968C13.8864 61.0042 13.8918 61.0122 13.8968 61.0204C13.9169 61.0534 13.9391 61.0904 14.043 61.1042C14.1628 61.1201 14.2999 61.1167 14.4598 61.1127C14.668 61.1076 14.9153 61.1014 15.2134 61.1357C15.2724 61.1425 15.2926 61.1554 15.3079 61.1652C15.3187 61.1721 15.3273 61.1773 15.345 61.1779C15.3654 61.1784 15.4078 61.1763 15.4614 61.1735C15.6506 61.1636 15.9811 61.1464 15.9951 61.2181C15.9989 61.2374 15.9831 61.2596 15.9689 61.2795C15.948 61.3088 15.9307 61.3331 15.9848 61.3363C16.0053 61.3376 16.0275 61.3384 16.0506 61.3391C16.0441 61.3625 16.0376 61.3858 16.0311 61.4091C15.9666 61.439 15.9721 61.481 15.9793 61.5334C15.981 61.5461 15.9826 61.5595 15.9835 61.5735C15.9702 61.6195 15.9569 61.6655 15.9433 61.7115C15.916 61.748 15.8715 61.7868 15.8008 61.8278C15.6591 61.9099 15.4255 61.9814 15.197 62.0512C15.1007 62.0806 15.0052 62.1097 14.9179 62.1393C14.9072 62.1278 14.8946 62.1174 14.8771 62.1094C14.7578 62.0546 14.523 62.0327 14.3069 62.0125C14.1631 61.999 14.0275 61.9863 13.9401 61.9653C13.7798 61.9269 13.5924 61.9307 13.4539 61.9336C13.382 61.935 13.3231 61.9361 13.2882 61.931C13.2601 61.9269 13.247 61.9174 13.2333 61.9075C13.2214 61.8989 13.209 61.8901 13.1864 61.8844C12.9121 61.8156 12.7529 61.8363 12.5211 61.8664C12.3933 61.883 12.2433 61.9024 12.0398 61.9113C11.8243 61.9189 11.7613 61.9163 11.6754 61.8803C11.569 61.9084 11.4626 61.9364 11.3562 61.9645C11.3631 61.9755 11.4296 61.9839 11.5402 61.9956C11.7376 62.0166 11.8098 62.0849 11.8661 62.1382C11.8922 62.1629 11.9151 62.1844 11.9453 62.1966C12.1063 62.2611 12.3305 62.2423 12.5278 62.2258C12.6364 62.2167 12.7369 62.2083 12.8142 62.2149C12.8472 62.2176 12.88 62.2137 12.9135 62.2097C12.9393 62.2066 12.9656 62.2034 12.9927 62.2032C13.1891 62.2024 13.3349 62.2406 13.4703 62.276C13.5479 62.2963 13.6223 62.3157 13.7006 62.3263C13.7245 62.3296 13.7489 62.3322 13.7725 62.3346C13.8071 62.3382 13.84 62.3416 13.8682 62.347C13.9324 62.3594 13.9757 62.3848 14.0229 62.4126C14.0471 62.4269 14.0724 62.4418 14.1021 62.4559C14.1407 62.4741 14.2184 62.4807 14.2995 62.4876C14.3569 62.4925 14.416 62.4977 14.4647 62.5071C14.5527 62.5242 14.5844 62.5588 14.6139 62.5908C14.6268 62.6048 14.6395 62.6183 14.656 62.6297C14.6627 62.6343 14.676 62.6365 14.6943 62.637C14.7558 62.6897 14.8186 62.7399 14.8802 62.7888C15.1886 63.0341 15.456 63.2464 15.2622 63.5634C15.2255 63.6233 15.2328 63.6877 15.2622 63.7527C15.1851 63.9607 15.1056 64.1689 15.024 64.3769C14.8469 64.418 14.6983 64.4684 14.5816 64.528C14.3626 64.64 14.3158 64.7551 14.2605 64.891C14.2197 64.9915 14.1741 65.1033 14.051 65.2336C13.8441 65.4525 13.6691 65.6773 13.5782 65.931C13.4876 66.1835 13.4209 66.4726 13.3972 66.6772C13.3843 66.7887 13.2259 66.9058 13.0786 67.015C12.8713 67.1685 12.6855 67.3063 12.9549 67.3904C13.041 67.4173 13.1905 67.4432 13.3357 67.4685C13.4391 67.4865 13.5401 67.5043 13.6153 67.5216C13.592 67.5679 13.5689 67.6143 13.5453 67.6606C13.3657 67.743 13.1732 67.8709 13.3735 67.9945C13.3487 68.0423 13.3241 68.0902 13.2991 68.1363C13.2469 68.2371 13.194 68.3357 13.1407 68.4351C13.1231 68.4676 13.1055 68.5004 13.0877 68.5333C13.0875 68.5336 13.0873 68.5339 13.0871 68.5342C13.0514 68.6004 13.0154 68.667 12.9793 68.7326C12.9638 68.7607 12.9484 68.7888 12.933 68.8169C12.8938 68.8882 12.8545 68.9601 12.8148 69.0307C12.7936 69.0681 12.7727 69.1059 12.7514 69.1437C12.7169 69.205 12.6822 69.2669 12.6472 69.3284C12.5907 69.4278 12.5336 69.5268 12.476 69.626C12.4665 69.6422 12.4366 69.6578 12.3913 69.6692C12.346 69.6807 12.2891 69.6871 12.2305 69.6871C12.1718 69.6871 12.1148 69.6806 12.0696 69.6691C12.0246 69.6576 11.9954 69.642 11.9862 69.6258C11.9302 69.5266 11.8748 69.4275 11.8198 69.328C11.7859 69.2664 11.7516 69.2047 11.7181 69.1433C11.6974 69.1055 11.6771 69.0678 11.6566 69.0303C11.618 68.9597 11.5794 68.8877 11.5414 68.8163C11.5264 68.7882 11.5113 68.7602 11.4963 68.7321C11.4611 68.6663 11.4263 68.5995 11.3915 68.5331C11.3913 68.5327 11.3911 68.5323 11.3909 68.5319C11.3738 68.4993 11.3567 68.4667 11.3397 68.4345C11.288 68.335 11.2368 68.2363 11.1862 68.1355C11.1589 68.0835 11.1322 68.0292 11.1052 67.9753C11.0901 67.9453 11.075 67.9154 11.0601 67.886C11.0521 67.8699 11.0442 67.8536 11.0363 67.8373C10.849 67.4614 10.6688 67.0883 10.4959 66.7116C10.323 66.3364 10.1573 65.9605 9.99814 65.5857C9.83898 65.21 9.68669 64.835 9.54058 64.4596C8.61275 62.0776 7.85197 59.686 7.37586 57.2934C7.3075 56.9521 7.24589 56.602 7.19065 56.26C7.13538 55.9143 7.08634 55.5757 7.04442 55.2292C7.03132 55.1239 7.01904 55.016 7.00726 54.9052Z" fill="black"/>
<path d="M4.87379 22.1896C3.55751 19.9061 3.85118 17.2271 3.83485 14.8463C3.83434 14.7933 3.83384 14.7402 3.83335 14.6871C3.77981 11.7777 3.91268 8.3433 5.84791 5.78365C7.76046 3.24434 10.4869 1.39131 13.4327 0.550591C15.2705 0.0197127 17.1851 -0.120744 19 0.101054C20.0932 0.233244 21.1632 0.494213 22.1737 0.873531C24.8645 1.87727 27.0906 3.7293 28.5118 5.93219C29.483 7.42733 30.0969 9.08391 30.3386 10.7298C30.4455 11.4522 30.4819 12.1714 30.4525 12.876C30.4303 13.4007 30.372 13.9204 30.2801 14.4233C30.2672 14.4935 30.2089 14.5614 30.1153 14.6108C30.0216 14.6603 29.9012 14.6872 29.7768 14.6871C29.6524 14.687 29.5318 14.6602 29.4378 14.6149C29.3441 14.5694 29.2851 14.509 29.2696 14.4457C29.159 13.9877 29.0177 13.5409 28.849 13.1156C28.6617 12.6418 28.4399 12.1913 28.1897 11.7676C28.6532 11.5413 28.9871 11.3124 29.0749 11.0508C29.1198 10.9178 29.095 10.7507 28.9624 10.6761C28.8434 10.609 28.6725 10.595 28.5104 10.5848C28.3407 10.5741 28.1806 10.5678 28.0966 10.5066C27.9538 10.4027 27.6948 10.3666 27.4258 10.342C27.3278 10.333 27.2283 10.3253 27.1322 10.3157C26.8324 9.97819 26.5128 9.66851 26.178 9.38761C26.1242 9.22342 26.0637 9.07566 25.9656 8.98899C25.8775 8.91117 25.7262 8.89994 25.5578 8.91178C25.5034 8.87376 25.4488 8.83649 25.3938 8.7999C25.0395 8.56356 24.6742 8.35642 24.3024 8.17948C24.1469 7.87762 23.9546 7.5676 23.6113 7.28371C23.4634 7.16181 23.3379 7.004 23.2093 6.85445C23.021 6.63419 22.8244 6.43184 22.5863 6.40862C22.4278 6.39328 22.3096 6.26765 22.1834 6.1438C22.0167 5.97846 21.8323 5.81614 21.589 5.94923C21.4365 6.03298 21.2903 6.14892 21.1594 6.25929C20.9513 6.435 20.7818 6.59596 20.6624 6.58522C20.4382 6.56516 20.2193 6.69448 20.0395 6.81471C19.8201 6.95908 19.6539 7.08897 19.5217 6.92495C19.5016 6.90009 19.4785 6.86739 19.4522 6.83036C19.3554 6.69353 19.2098 6.5 19 6.45725C18.9115 6.43916 18.8131 6.44839 18.7088 6.50104C18.5844 6.56396 18.474 6.72291 18.375 6.88048C18.2298 7.11006 18.1082 7.33563 17.9373 7.26485C17.9116 7.25428 17.8783 7.19965 17.8473 7.14993C17.808 7.0867 17.7723 7.03192 17.7653 7.08564C17.7445 7.24321 17.7032 7.42087 17.6654 7.61436C17.6375 7.7565 17.6117 7.90714 17.5942 8.06393C17.2445 8.22406 16.9148 8.40856 16.6066 8.61268C16.4656 8.70613 16.3284 8.80406 16.1963 8.90554C16.0207 8.73593 15.8457 8.59315 15.6847 8.50225C15.4738 8.38392 15.2902 8.41489 15.0555 8.46798C14.8825 8.50751 14.6816 8.55877 14.4082 8.58584C13.8976 8.63716 13.5825 9.00934 13.4861 9.31413C13.4649 9.37887 13.4459 9.44524 13.4272 9.51652C13.3591 9.78735 13.2756 10.1214 13.1148 10.6746C12.9668 11.1973 12.8181 11.5909 12.719 11.895C12.6688 12.0501 12.6325 12.1793 12.6216 12.2845C12.6029 12.4639 12.5742 12.6784 12.5575 12.8925C12.5298 13.2279 12.5351 13.5632 12.5947 13.7564C12.6156 13.825 12.6444 13.8972 12.6764 13.9742C12.7591 14.1718 12.8648 14.3973 12.9438 14.6871C12.9499 14.7097 12.9559 14.7325 12.9618 14.7558C13.0486 15.0919 13.0144 15.2931 12.9228 15.5267C12.8859 15.6205 12.7059 15.7282 12.5231 15.8486C12.2633 16.017 11.9996 16.2183 12.1302 16.3791C12.1607 16.4162 12.2169 16.4492 12.2762 16.4828C12.3851 16.5447 12.5032 16.6052 12.4904 16.7075C12.486 16.7433 12.4445 16.7872 12.4043 16.8308C12.3599 16.8787 12.3171 16.9265 12.3258 16.9617C12.3582 17.0927 12.4169 17.2115 12.4712 17.3146C12.5413 17.4477 12.6042 17.5566 12.5951 17.6468C12.579 17.8081 12.7153 17.9161 12.854 18.0141C12.9604 18.0899 13.0688 18.161 13.1182 18.2627C13.2586 18.5551 13.6377 18.8497 14.103 19.0194C14.2784 19.0834 14.2822 19.2636 14.3059 19.504C14.3205 19.653 14.3425 19.825 14.4174 19.9965C14.4602 20.094 14.5927 20.0637 14.7118 20.0318C14.822 20.0027 14.9214 19.9728 14.9425 20.0489C14.9611 20.1161 14.8817 20.2825 14.8088 20.4423C14.7275 20.6199 14.6547 20.7894 14.7281 20.7981C14.7671 20.8025 14.8532 20.752 14.9535 20.6899C14.9932 20.6654 15.0351 20.6392 15.0774 20.6138C15.0562 20.6438 15.0378 20.671 15.024 20.6917C14.9265 20.8379 14.9298 20.9512 14.9365 21.063C14.9391 21.1076 14.9422 21.1518 14.9391 21.198C14.9273 21.368 15.0488 21.4697 15.1554 21.5215C15.2004 21.5435 15.2136 21.613 15.2307 21.6945C15.2457 21.7668 15.264 21.8486 15.3093 21.9134C15.3351 21.9503 15.3397 22.0096 15.3438 22.0591C15.3467 22.095 15.3494 22.1256 15.3597 22.1383C15.3686 22.1493 15.4 22.1086 15.4351 22.0625C15.4603 22.0294 15.4876 21.9934 15.5098 21.9721C15.563 21.9211 15.6015 21.9163 15.6131 21.9462C15.6185 21.96 15.6179 21.9814 15.6173 22.0026C15.6167 22.0274 15.6161 22.0523 15.6251 22.0652C15.6666 22.1246 15.7462 22.0971 15.827 22.067C15.9164 22.0341 16.0063 21.9978 16.0605 22.0741C16.0776 22.0981 16.0888 22.142 16.1001 22.1845C16.1118 22.2291 16.1239 22.2721 16.1417 22.2891C16.2145 22.3581 16.3387 22.2689 16.4488 22.1842C16.5223 22.1281 16.5899 22.0742 16.637 22.0718C16.7237 22.0677 16.8083 21.9354 16.8694 21.8375C16.9011 21.7867 16.9267 21.7448 16.9436 21.7348C16.9542 21.7423 16.9648 21.7505 16.9751 21.7591C16.9828 21.7729 16.9909 21.7871 17.0024 21.7865C17.0033 21.7864 17.0042 21.786 17.0051 21.786C17.0613 21.8397 17.1142 21.9074 17.1676 21.974C17.287 22.1237 17.419 22.2703 17.592 22.2364C17.6294 22.2291 17.6758 22.1741 17.7218 22.1177C17.7785 22.0487 17.8346 21.9775 17.8783 21.9899C17.9817 22.0193 18.0758 22.1351 18.1751 22.2476C18.3222 22.4165 18.4844 22.5775 18.6448 22.4212C18.6972 22.3697 18.7489 22.2818 18.7989 22.1926C18.8268 22.1429 18.8544 22.0927 18.8816 22.0487C18.8747 22.1311 18.8703 22.2084 18.8662 22.2806C18.8577 22.4293 18.8504 22.5566 18.8205 22.6642C18.7507 22.9186 18.659 23.2674 18.6575 23.5243C18.6573 23.594 18.6524 23.6715 18.6472 23.7495C18.6344 23.9451 18.6197 24.1451 18.6887 24.238C18.7343 24.3007 18.8596 24.4436 18.9413 24.294C18.959 24.2614 18.9698 24.1967 18.9816 24.1248C18.9872 24.0903 18.9931 24.0542 19 24.019C19.0191 23.9222 19.0461 23.8329 19.0986 23.8062C19.1107 23.8001 19.1238 23.7945 19.1373 23.7893C19.1913 23.7684 19.2512 23.7446 19.2704 23.6401C19.2924 23.5196 19.2822 23.3827 19.2712 23.2231C19.2564 23.0152 19.242 22.7683 19.2801 22.4688C19.2875 22.4095 19.3047 22.3887 19.3176 22.3728C19.3267 22.3617 19.3336 22.3527 19.3336 22.335C19.3335 22.3146 19.3287 22.2724 19.3226 22.219C19.3009 22.0305 19.2675 21.7014 19.3565 21.6832C19.3808 21.6782 19.4098 21.6924 19.436 21.705C19.4744 21.7237 19.5067 21.7387 19.507 21.6845C19.5071 21.6639 19.5066 21.6416 19.5058 21.6186C19.5355 21.623 19.5652 21.6272 19.5948 21.6312C19.6377 21.6923 19.69 21.6821 19.7553 21.668C19.7711 21.6646 19.7878 21.6611 19.8052 21.6582C19.8645 21.6649 19.9239 21.6708 19.9834 21.6763C20.0329 21.697 20.0876 21.7339 20.1514 21.7953C20.2785 21.9184 20.4134 22.1312 20.5541 22.336C20.6133 22.4223 20.6739 22.5072 20.7343 22.5833C20.7203 22.5973 20.7082 22.6128 20.7004 22.6323C20.647 22.7656 20.6607 23.002 20.671 23.2202C20.6779 23.3653 20.6835 23.5023 20.6659 23.5945C20.6335 23.7634 20.6716 23.9468 20.7011 24.0823C20.7163 24.1526 20.7287 24.2102 20.7261 24.2462C20.7239 24.2751 20.7098 24.291 20.6952 24.3074C20.6824 24.3217 20.6692 24.3366 20.6631 24.3605C20.5887 24.6511 20.6468 24.8028 20.7415 25.022C20.7934 25.143 20.8555 25.2844 20.908 25.4818C20.9601 25.6914 20.9668 25.7544 20.9089 25.8514C20.9831 25.9468 21.0587 26.0414 21.1358 26.1354C21.1571 26.1244 21.1621 26.0557 21.165 25.9426C21.1705 25.7407 21.2905 25.6434 21.383 25.5653C21.4258 25.5293 21.4626 25.4975 21.4793 25.4626C21.5677 25.2769 21.4775 25.0675 21.4027 24.8825C21.3612 24.7807 21.3237 24.6862 21.3178 24.6083C21.3153 24.5749 21.3007 24.5446 21.2861 24.5137C21.2748 24.4897 21.2633 24.4654 21.257 24.4391C21.2117 24.2479 21.2443 24.0908 21.2707 23.9449C21.2859 23.8614 21.2994 23.7813 21.2973 23.701C21.2967 23.6765 21.2948 23.6518 21.2928 23.6279C21.2899 23.593 21.2872 23.5597 21.2888 23.5302C21.2924 23.4629 21.3214 23.4106 21.3524 23.3533C21.3682 23.324 21.3846 23.2933 21.3982 23.2586C21.4159 23.2136 21.4047 23.136 21.3929 23.055C21.3845 22.9977 21.3759 22.9388 21.3762 22.888C21.3769 22.7962 21.4178 22.7511 21.4551 22.7088C21.4714 22.6904 21.4868 22.6723 21.4982 22.6515C21.5028 22.643 21.502 22.6293 21.4972 22.6116C21.5536 22.5293 21.604 22.4465 21.6511 22.3651C21.8896 21.9542 22.0368 21.6073 22.5132 21.584C22.604 21.5788 22.6801 21.5301 22.745 21.4606C23.035 21.3879 23.3261 21.2989 23.6165 21.1924C23.7672 21.3025 23.9151 21.3789 24.0574 21.4178C24.325 21.4903 24.4972 21.4136 24.6947 21.3167C24.8412 21.2445 25.0021 21.1613 25.238 21.1037C25.6343 21.0066 26.021 20.8477 26.3608 20.5691C26.7 20.293 27.0361 19.9179 27.2369 19.6267C27.3466 19.4694 27.5834 19.3708 27.804 19.2662C28.114 19.1209 28.3919 18.9609 28.206 18.7131C28.1466 18.6341 28.0276 18.5325 27.9108 18.4358C27.8275 18.3669 27.7458 18.3003 27.6873 18.2448C27.7384 18.1816 27.7887 18.1173 27.8388 18.0522C28.0561 17.9871 28.315 17.8349 28.1882 17.5686C28.2365 17.4973 28.2837 17.4252 28.3298 17.3548C28.4282 17.2004 28.5223 17.0461 28.6133 16.8864C28.6433 16.8343 28.6729 16.7812 28.7023 16.7274C28.7026 16.7269 28.7029 16.7264 28.7032 16.7259C28.7623 16.6179 28.8198 16.5081 28.8755 16.3978C28.8992 16.3506 28.9227 16.303 28.9458 16.2551C29.0044 16.1338 29.061 16.0102 29.1155 15.8862C29.1444 15.8208 29.1727 15.7532 29.2005 15.6866C29.2457 15.578 29.2895 15.4668 29.3316 15.3546C29.3998 15.1721 29.4637 14.9913 29.5234 14.8033C29.5332 14.7726 29.5633 14.7432 29.6086 14.7214C29.6541 14.6996 29.7109 14.6871 29.7695 14.6871C29.8282 14.6871 29.8852 14.6999 29.9303 14.7227C29.9753 14.7455 30.0043 14.7766 30.0132 14.8088C30.067 15.0068 30.1152 15.2035 30.1573 15.4079C30.1833 15.5336 30.2075 15.6604 30.229 15.7868C30.2422 15.8644 30.2542 15.9438 30.2657 16.0218C30.2872 16.1695 30.3056 16.3201 30.3205 16.471C30.3264 16.5306 30.3318 16.5903 30.3368 16.6501C30.3484 16.7902 30.3569 16.9322 30.3625 17.0749C30.3626 17.0757 30.3626 17.0766 30.3626 17.0775C30.3653 17.1478 30.3675 17.2181 30.369 17.2877C30.3731 17.5023 30.3713 17.7164 30.3612 17.9362C30.3571 18.05 30.3496 18.1677 30.3404 18.286C30.3354 18.3517 30.3298 18.4174 30.324 18.482C30.3205 18.5172 30.3168 18.5528 30.3128 18.5887C30.2265 19.4133 30.0455 20.2396 29.7631 21.0552C29.4823 21.868 29.1031 22.6645 28.6337 23.4188C28.163 24.1748 27.6014 24.8893 26.9571 25.5434C24.9562 27.593 22.0961 29.0306 19 29.3809C15.8126 29.7701 12.333 28.9787 9.49052 27.0847C8.69018 26.5571 7.92041 25.9294 7.23252 25.2448C6.53748 24.5526 5.91866 23.8044 5.36604 22.9785C5.19821 22.7281 5.03351 22.4648 4.87379 22.1896Z" fill="black"/>
<circle cx="50.7675" cy="29.4546" r="3.3234" transform="rotate(8.2828 50.7675 29.4546)" fill="black"/>
<path d="M44.8176 31.5848C44.4109 30.6119 44.871 29.5664 44.9968 28.6761C44.9995 28.656 45.0022 28.6359 45.0048 28.6157C45.1337 27.5238 45.2175 26.1152 46.1494 25.2395C47.0633 24.3816 48.2502 23.8662 49.4327 23.7707C50.1708 23.7084 50.9034 23.8074 51.5562 24.0367C51.9496 24.1741 52.322 24.3588 52.6589 24.5821C53.5576 25.1747 54.1824 26.0387 54.4663 26.9271C54.662 27.5309 54.7072 28.1475 54.624 28.708C54.5878 28.9541 54.5276 29.1892 54.447 29.4096C54.3869 29.5738 54.3155 29.7307 54.2352 29.8769C54.2239 29.8973 54.1859 29.9133 54.1281 29.9203C54.0702 29.9273 53.9976 29.9249 53.9237 29.9141C53.8498 29.9033 53.7794 29.8851 53.7255 29.8643C53.6718 29.8435 53.6394 29.8219 53.6332 29.8031C53.5893 29.6672 53.5359 29.5376 53.4743 29.4172C53.406 29.2831 53.3276 29.1595 53.2421 29.0474C53.5411 28.9785 53.7648 28.9064 53.8527 28.8234C53.8976 28.7813 53.908 28.7281 53.8444 28.7075C53.7872 28.689 53.6931 28.6896 53.6038 28.692C53.5103 28.6946 53.422 28.6993 53.3859 28.6842C53.3243 28.6585 53.1883 28.6605 53.0472 28.6703C52.9958 28.6737 52.9436 28.6782 52.8939 28.6822C52.7985 28.6025 52.6994 28.5336 52.5986 28.4753C52.6094 28.4262 52.6139 28.3813 52.5874 28.3615C52.5635 28.3438 52.4952 28.3568 52.4152 28.3814C52.3994 28.3744 52.3836 28.3676 52.3677 28.361C52.2657 28.3187 52.1639 28.2865 52.0637 28.2642C52.0797 28.1609 52.0826 28.0509 52.0295 27.96C52.0067 27.921 52.0011 27.8601 51.9922 27.8006C51.9796 27.7132 51.9587 27.6284 51.8896 27.6374C51.8438 27.6437 51.8344 27.5881 51.8211 27.5315C51.8043 27.4562 51.7785 27.3787 51.6862 27.466C51.6284 27.521 51.5689 27.5934 51.5163 27.6621C51.4326 27.7713 51.3669 27.8709 51.3415 27.8702C51.2934 27.8689 51.2264 27.9497 51.1741 28.0238C51.1101 28.1126 51.0665 28.1911 51.0611 28.0949C51.0602 28.0803 51.0596 28.061 51.0586 28.0391C51.0557 27.9581 51.046 27.8422 51.0068 27.8106C50.9905 27.7973 50.9695 27.7993 50.945 27.8261C50.9157 27.8583 50.884 27.9472 50.858 28.0353C50.8192 28.1635 50.7936 28.2893 50.7684 28.2328C50.7646 28.2244 50.7605 28.1891 50.7563 28.1568C50.7512 28.1158 50.7459 28.0801 50.7437 28.1113C50.7371 28.2027 50.7279 28.304 50.7219 28.4143C50.7174 28.4953 50.7147 28.5811 50.7147 28.6712C50.6752 28.7246 50.6448 28.7788 50.6217 28.8315C50.6112 28.8557 50.6021 28.8796 50.5945 28.9031C50.5457 28.7743 50.4956 28.6603 50.4512 28.5766C50.393 28.4674 50.3544 28.4419 50.3027 28.4118C50.2642 28.3899 50.2186 28.3653 50.1422 28.3093C49.9984 28.2065 49.9373 28.2913 49.9508 28.3889C49.9532 28.4097 49.9567 28.4313 49.9612 28.4545C49.979 28.5423 50.0044 28.6505 50.0323 28.7814C50.0601 28.9043 50.055 28.9597 50.0508 29.0037C50.049 29.0258 50.0482 29.0439 50.0565 29.0621C50.0708 29.0934 50.0821 29.1256 50.0955 29.1563C50.1162 29.2042 50.1424 29.2483 50.1869 29.2791C50.2027 29.2901 50.2229 29.3021 50.2447 29.3143C50.3007 29.3457 50.3697 29.377 50.4141 29.4032C50.4175 29.4052 50.4208 29.4072 50.4239 29.4092C50.4698 29.4369 50.4364 29.4408 50.3635 29.4549C50.3339 29.4602 50.2172 29.4666 50.0969 29.4792C49.9262 29.4958 49.7489 29.5287 49.8045 29.5497C49.8174 29.5543 49.8457 29.5575 49.8754 29.5602C49.93 29.5652 49.9889 29.5671 49.9654 29.5817C49.9572 29.5869 49.9265 29.5954 49.8965 29.6042C49.8635 29.6139 49.8314 29.624 49.8304 29.6291C49.8268 29.648 49.8384 29.6637 49.8489 29.6769C49.8625 29.694 49.8742 29.7074 49.8506 29.7253C49.8086 29.7576 49.8579 29.7657 49.907 29.7685C49.9446 29.7711 49.9822 29.7711 49.9817 29.7864C49.9799 29.8307 50.0845 29.8488 50.2263 29.808C50.2796 29.7924 50.2261 29.8426 50.1652 29.9163C50.1271 29.9619 50.0859 30.0164 50.0642 30.0654C50.052 30.0932 50.1079 30.0587 50.1576 30.0245C50.2037 29.9932 50.2447 29.9625 50.2291 29.9877C50.2154 30.0099 50.1417 30.0899 50.0731 30.1671C49.9966 30.2529 49.9265 30.3354 49.9487 30.3274C49.9604 30.323 50.0024 30.2879 50.0512 30.245C50.0705 30.228 50.0908 30.2099 50.1108 30.192C50.096 30.2083 50.0828 30.2229 50.0729 30.234C50.0024 30.3124 49.973 30.3606 49.9457 30.409C49.9348 30.4283 49.9243 30.4475 49.9113 30.4686C49.8636 30.5462 49.8769 30.5761 49.8965 30.5859C49.9047 30.59 49.8914 30.621 49.8768 30.6576C49.8637 30.6901 49.8496 30.7272 49.8479 30.7532C49.8469 30.7681 49.8343 30.7966 49.8241 30.8205C49.8166 30.8378 49.8104 30.8526 49.8105 30.8578C49.8107 30.8622 49.8295 30.8384 49.8505 30.8115C49.8656 30.7922 49.8819 30.7712 49.8933 30.758C49.9206 30.7264 49.9325 30.7194 49.9289 30.7329C49.9272 30.7392 49.9221 30.7499 49.9171 30.7606C49.9112 30.773 49.9053 30.7856 49.905 30.7911C49.9033 30.8162 49.9321 30.7936 49.961 30.7694C49.9929 30.7428 50.0245 30.7141 50.0219 30.7478C50.0211 30.7584 50.0144 30.78 50.0082 30.801C50.0017 30.8231 49.9958 30.8444 49.9969 30.8516C50.0015 30.8809 50.0523 30.8224 50.0964 30.7671C50.1259 30.7304 50.1527 30.6953 50.164 30.6897C50.1849 30.6797 50.2301 30.6009 50.2625 30.5423C50.2793 30.5119 50.2929 30.4869 50.2984 30.4799C50.299 30.483 50.2995 30.4865 50.2999 30.4902C50.2987 30.497 50.2975 30.504 50.3 30.5027C50.3001 30.5026 50.3004 30.5023 50.3006 30.5021C50.3013 30.5265 50.299 30.5593 50.2974 30.5922C50.2935 30.666 50.2966 30.7409 50.3362 30.7132C50.3446 30.7073 50.3623 30.6738 50.3796 30.6395C50.4009 30.5975 50.4216 30.5541 50.4273 30.5594C50.4408 30.572 50.4403 30.6359 50.4435 30.6995C50.4473 30.7948 50.4615 30.8893 50.5074 30.7984C50.5222 30.7683 50.5403 30.7169 50.5573 30.6648C50.5668 30.6358 50.5761 30.6064 50.5845 30.5808C50.5757 30.6295 50.5677 30.6752 50.5603 30.7179C50.5449 30.8059 50.5317 30.8812 50.5157 30.9444C50.4785 31.0937 50.4233 31.2983 50.397 31.4501C50.39 31.4914 50.3811 31.5371 50.3721 31.5831C50.3495 31.6985 50.3255 31.8163 50.3342 31.8731C50.3396 31.9113 50.3595 31.9999 50.394 31.914C50.4015 31.8953 50.4099 31.8573 50.4191 31.815C50.4235 31.7948 50.4281 31.7736 50.4329 31.7529C50.446 31.6961 50.4602 31.644 50.4749 31.6302C50.4783 31.627 50.4819 31.6242 50.4855 31.6217C50.5001 31.6114 50.5162 31.5999 50.5285 31.5386C50.5427 31.4679 50.5505 31.386 50.5601 31.2905C50.5723 31.1661 50.5886 31.0187 50.6171 30.8419C50.6227 30.8069 50.6272 30.7952 50.6305 30.7863C50.6328 30.78 50.6346 30.775 50.6358 30.7644C50.6372 30.7523 50.6393 30.727 50.6419 30.6949C50.6511 30.5817 50.6697 30.3843 50.6824 30.3771C50.6859 30.3752 50.6888 30.3849 50.6916 30.3937C50.6956 30.4067 50.6992 30.4173 50.7021 30.385C50.7032 30.3727 50.7043 30.3594 50.7055 30.3457C50.709 30.3498 50.7126 30.354 50.7162 30.3581C50.7188 30.397 50.7263 30.3941 50.7353 30.3902C50.7375 30.3892 50.7398 30.3883 50.7422 30.3878C50.7497 30.3961 50.7574 30.4042 50.7652 30.4124C50.7714 30.4289 50.778 30.4556 50.7863 30.4979C50.8027 30.5826 50.8225 30.7223 50.8474 30.8582C50.8579 30.9155 50.8693 30.9722 50.8813 31.0238C50.8785 31.0305 50.8761 31.0382 50.8745 31.0488C50.8635 31.1213 50.8639 31.2623 50.8631 31.3922C50.8625 31.4785 50.8614 31.56 50.8554 31.6128C50.8441 31.7094 50.8486 31.8217 50.8528 31.9048C50.8548 31.9478 50.8566 31.9831 50.8549 32.0042C50.8536 32.021 50.8494 32.0291 50.8451 32.0374C50.8413 32.0446 50.8374 32.0522 50.8351 32.0658C50.8063 32.2311 50.8155 32.3264 50.8351 32.4651C50.8456 32.5416 50.8589 32.6313 50.8678 32.7532C50.8761 32.8823 50.8761 32.9202 50.8546 32.9722C50.8738 33.0356 50.894 33.0989 50.9152 33.1619C50.9224 33.1575 50.9263 33.1174 50.931 33.0508C50.9394 32.9319 50.979 32.8865 51.0093 32.8504C51.0233 32.8337 51.0352 32.8191 51.0411 32.8004C51.0718 32.7009 51.0473 32.5679 51.0286 32.4507C51.0181 32.3862 51.0089 32.3265 51.0083 32.28C51.008 32.2601 51.0044 32.2407 51.0007 32.2209C50.9979 32.2055 50.995 32.1899 50.9937 32.1738C50.9838 32.0563 50.9943 31.9676 51.0019 31.8853C51.0063 31.8382 51.0099 31.7929 51.0093 31.7457C51.0092 31.7313 51.0087 31.7167 51.0082 31.7024C51.0074 31.6817 51.0067 31.6619 51.007 31.6448C51.0077 31.606 51.0146 31.5791 51.0216 31.5497C51.0252 31.5347 51.0289 31.5189 51.0318 31.5006C51.0355 31.4768 51.0317 31.4302 51.0276 31.3817C51.0247 31.3473 51.0217 31.312 51.0208 31.2826C51.0192 31.2295 51.0273 31.2091 51.0345 31.1901C51.0376 31.1818 51.0406 31.1736 51.0425 31.1633C51.0433 31.1591 51.0427 31.1511 51.041 31.1402C51.051 31.1013 51.059 31.0616 51.0657 31.0227C51.1013 30.8269 51.0968 30.6629 51.2049 30.7495C51.2258 30.7656 51.2398 30.756 51.2484 30.7339C51.3124 30.7591 51.3809 30.7812 51.4536 30.7989C51.512 30.8883 51.567 30.9603 51.6173 31.0125C51.7122 31.1104 51.7625 31.1137 51.8206 31.1161C51.864 31.1176 51.9119 31.1186 51.9949 31.1497C52.1343 31.2019 52.2746 31.2243 52.3913 31.19C52.5075 31.1565 52.6245 31.0884 52.693 31.0263C52.7303 30.9931 52.8373 31.0098 52.9399 31.0188C53.0835 31.0326 53.2183 31.0296 53.1033 30.9085C53.0665 30.8699 52.9966 30.8123 52.9279 30.7575C52.8789 30.7185 52.8308 30.6809 52.7957 30.6516C52.8177 30.6419 52.8395 30.6318 52.8616 30.6213C52.9724 30.6438 53.1042 30.642 53.0204 30.5388C53.0431 30.5259 53.0655 30.5126 53.0878 30.4996C53.1352 30.4705 53.1822 30.4405 53.2289 30.4082C53.2443 30.3977 53.2597 30.3868 53.2752 30.3756C53.2753 30.3755 53.2755 30.3754 53.2757 30.3753C53.3067 30.3529 53.3376 30.3295 53.3682 30.3056C53.3813 30.2953 53.3943 30.2849 53.4073 30.2743C53.4402 30.2474 53.4728 30.2194 53.5051 30.1907C53.5223 30.1756 53.5393 30.1597 53.5563 30.144C53.584 30.1183 53.6115 30.0915 53.6387 30.064C53.6828 30.0193 53.726 29.9739 53.7686 29.9254C53.7756 29.9175 53.7946 29.9118 53.8224 29.9094C53.8503 29.9071 53.8846 29.9084 53.9194 29.9135C53.9542 29.9185 53.9875 29.9272 54.0133 29.9379C54.0391 29.9486 54.0549 29.9605 54.0589 29.971C54.0829 30.0352 54.1049 30.0995 54.1244 30.1668C54.1365 30.2082 54.148 30.2502 54.1584 30.2922C54.1648 30.318 54.1706 30.3443 54.1764 30.3704C54.1872 30.4197 54.1967 30.4702 54.2049 30.521C54.2082 30.5411 54.2112 30.5612 54.2141 30.5814C54.2209 30.6287 54.2265 30.6768 54.2309 30.7253C54.2309 30.7256 54.2309 30.7259 54.231 30.7262C54.2331 30.7501 54.2351 30.774 54.2368 30.7978C54.2418 30.871 54.2445 30.9444 54.2439 31.0199C54.2442 31.0592 54.243 31.0997 54.2412 31.1405C54.2402 31.1632 54.2391 31.1859 54.2378 31.2083C54.237 31.2205 54.236 31.2328 54.235 31.2451C54.2139 31.5309 54.1556 31.8211 54.0567 32.1086C53.9585 32.3952 53.8209 32.6774 53.6471 32.9445C53.4728 33.2121 53.262 33.4646 53.0178 33.6936C52.261 34.4122 51.1533 34.8943 49.9694 34.9365C48.7508 34.9928 47.4239 34.5636 46.3973 33.7075C46.1077 33.469 45.8349 33.1906 45.597 32.8923C45.3567 32.5906 45.149 32.2689 44.9722 31.9183C44.9184 31.812 44.8667 31.7007 44.8176 31.5848Z" fill="black"/>
<path d="M25.3403 66.6944C26.8776 66.5966 28.3571 67.5194 29.8996 67.5211C31.8149 67.5234 33.7606 66.6417 35.6803 66.8059C37.5888 66.9701 39.5066 67.206 41.4183 67.4968C43.3321 67.7876 45.2431 68.1332 47.1579 68.5161C49.0687 68.8989 50.9835 69.3189 52.8958 69.7596C54.1946 70.0589 55.4949 70.3679 56.7936 70.6808C57.3637 70.8179 57.9322 70.9556 58.502 71.0939C58.9271 71.1972 59.3522 71.3006 59.7773 71.404C59.8364 71.4185 59.893 71.4777 59.9348 71.5715C59.9765 71.6655 60.0001 71.7859 60 71.9103C59.9999 72.0347 59.9762 72.1554 59.9343 72.249C59.8924 72.3424 59.8357 72.4007 59.7766 72.4147C59.3479 72.5149 58.9192 72.615 58.4905 72.7151C58.0144 72.8262 57.539 72.9374 57.063 73.0478C56.9881 72.5373 56.8852 72.1501 56.6924 71.9791C56.5941 71.8919 56.4506 71.8556 56.345 71.9505C56.2502 72.0357 56.1787 72.1877 56.1109 72.3325C56.0399 72.484 55.9725 72.6278 55.8859 72.6786C55.7388 72.7648 55.599 72.9815 55.4521 73.2092C55.3987 73.2921 55.3443 73.3765 55.2883 73.4566C54.8339 73.5604 54.3794 73.6634 53.925 73.7655C53.7495 73.7111 53.5882 73.6672 53.4513 73.6881C53.3285 73.7069 53.216 73.8147 53.104 73.9489C53.0337 73.9645 52.9634 73.9801 52.893 73.9958C52.439 74.0963 51.9849 74.1951 51.5307 74.2931C51.1763 74.1569 50.8049 74.0246 50.322 73.9665C50.1139 73.9415 49.9085 73.8678 49.7111 73.7972C49.4195 73.6928 49.1453 73.5946 48.9048 73.668C48.744 73.717 48.5749 73.6449 48.4063 73.573C48.1801 73.4765 47.9543 73.3801 47.7496 73.5766C47.6209 73.7002 47.5027 73.8504 47.3932 73.9897C47.2191 74.2114 47.0669 74.4052 46.9291 74.4186C46.6702 74.4437 46.446 74.6052 46.2484 74.7476C46.0107 74.9189 45.8114 75.0627 45.6363 74.9079C45.6098 74.8844 45.5794 74.8532 45.5452 74.8177C45.3651 74.6307 45.0769 74.3316 44.6631 74.496C44.5158 74.5546 44.3775 74.7067 44.242 74.8561C44.0448 75.0735 43.8532 75.2845 43.6481 75.1905C43.6174 75.1765 43.5854 75.1176 43.5563 75.0638C43.5192 74.9954 43.4869 74.9357 43.4677 74.9877C43.4115 75.14 43.3222 75.3083 43.2253 75.4915C43.1541 75.6261 43.0786 75.7688 43.009 75.9186C42.4775 76.0033 41.9459 76.0844 41.4142 76.1611C41.1706 76.1963 40.9269 76.2306 40.6831 76.2641C40.5585 76.0348 40.431 75.8282 40.2963 75.6719C40.1203 75.4676 39.8921 75.405 39.598 75.324C39.3816 75.2643 39.1293 75.1946 38.8358 75.0516C38.2925 74.7871 37.7344 74.8464 37.3767 74.9883C37.3011 75.0183 37.225 75.0503 37.1437 75.0851C36.8352 75.2173 36.4503 75.3828 35.7192 75.5652C35.0275 75.7379 34.4394 75.7826 33.9975 75.8163C33.772 75.8334 33.5845 75.8473 33.4409 75.8741C33.1951 75.9202 32.8933 75.9611 32.5904 76.0021C32.1162 76.0662 31.6392 76.1304 31.369 76.2159C31.2729 76.2464 31.172 76.2841 31.063 76.3244C30.7611 76.436 30.3964 76.5707 29.8937 76.6485C29.366 76.7302 29.0389 76.6745 28.6992 76.5535C28.5611 76.5043 28.4392 76.3097 28.3137 76.1087C28.1356 75.8235 27.9498 75.5258 27.6985 75.6146C27.6398 75.6353 27.5772 75.6817 27.5117 75.7304C27.3914 75.8197 27.2613 75.9166 27.1281 75.8741C27.0817 75.8593 27.0407 75.8065 27.0006 75.7547C26.9565 75.6978 26.9132 75.6421 26.8642 75.639C26.6811 75.6274 26.503 75.6406 26.3447 75.6524C26.1405 75.6676 25.9693 75.6803 25.8631 75.6341C25.6737 75.5517 25.4667 75.6255 25.257 75.7005C25.0969 75.7578 24.9351 75.8161 24.7784 75.8053C24.3308 75.7743 23.7153 75.9148 23.081 76.1489C22.8411 76.2374 22.6378 76.1165 22.3772 75.9613C22.2152 75.8647 22.031 75.7544 21.8021 75.6737C21.6723 75.6279 21.5623 75.7357 21.4606 75.8352C21.3668 75.9268 21.2799 76.0116 21.1907 75.9637C21.112 75.9214 21.0622 75.7403 21.0149 75.5683C20.9623 75.3769 20.9128 75.1969 20.83 75.232C20.7859 75.2507 20.7324 75.3413 20.6686 75.4489C20.6434 75.4914 20.6165 75.5365 20.5881 75.5811C20.5895 75.5444 20.5899 75.5115 20.5899 75.4867C20.59 75.311 20.5055 75.2184 20.4226 75.1278C20.3895 75.0916 20.3565 75.0559 20.3294 75.0151C20.2298 74.865 20.0411 74.8406 19.8969 74.8475C19.8358 74.8504 19.7806 74.796 19.716 74.7324C19.6588 74.6759 19.5942 74.6122 19.5119 74.5752C19.4649 74.5541 19.4289 74.5032 19.399 74.4607C19.3775 74.4299 19.3591 74.4036 19.342 74.3967C19.3273 74.3907 19.3154 74.4411 19.302 74.4978C19.2924 74.5386 19.2819 74.5829 19.269 74.6117C19.2383 74.6807 19.1988 74.7015 19.1711 74.6794C19.1583 74.6691 19.1482 74.6495 19.1381 74.63C19.1264 74.6073 19.1148 74.5844 19.0987 74.5764C19.0252 74.5397 18.9536 74.5972 18.8792 74.6568C18.7975 74.7224 18.7123 74.7905 18.6174 74.7397C18.5875 74.7237 18.5557 74.687 18.5249 74.6514C18.4927 74.6141 18.4614 74.5781 18.4348 74.5685C18.3266 74.5296 18.225 74.6552 18.1315 74.7708C18.0693 74.8476 18.0106 74.9199 17.9562 74.9365C17.8563 74.9668 17.8027 75.1176 17.7632 75.2289C17.7428 75.2866 17.726 75.334 17.7085 75.3483C17.6925 75.3441 17.6762 75.3392 17.6602 75.3337C17.6456 75.3226 17.6305 75.3112 17.6163 75.3148C17.6152 75.3151 17.6141 75.3158 17.6131 75.3161C17.5238 75.2795 17.4361 75.2276 17.3489 75.1759C17.1532 75.0598 16.9599 74.9448 16.7555 75.0096C16.7114 75.0236 16.6665 75.0859 16.6209 75.1491C16.5649 75.2266 16.5077 75.3059 16.4494 75.3002C16.3105 75.2866 16.1703 75.1839 16.0322 75.0827C15.8245 74.9305 15.6214 74.7819 15.4348 74.945C15.3732 74.9989 15.3131 75.0886 15.2529 75.179C15.2193 75.2294 15.1855 75.2802 15.1515 75.3246C15.1587 75.2421 15.1625 75.1647 15.1661 75.0925C15.1735 74.9436 15.1799 74.8162 15.2126 74.708C15.2899 74.4523 15.3775 74.1002 15.3678 73.8435C15.3651 73.7738 15.3672 73.6962 15.3696 73.618C15.3754 73.422 15.3814 73.2218 15.3096 73.1312C15.2612 73.0702 15.1369 72.9301 15.0578 73.0801C15.0406 73.1127 15.0301 73.1775 15.0185 73.2494C14.9975 73.3787 14.9726 73.5318 14.8976 73.5675C14.885 73.5735 14.8713 73.5789 14.8571 73.5839C14.8006 73.604 14.7373 73.6262 14.7136 73.7301C14.6864 73.8499 14.6922 73.987 14.699 74.1469C14.7078 74.3551 14.7183 74.6024 14.6596 74.9005C14.648 74.9595 14.6258 74.9797 14.609 74.995C14.5972 75.0058 14.5882 75.0144 14.5873 75.0321C14.5863 75.0525 14.59 75.0949 14.5948 75.1485C14.6118 75.3377 14.6412 75.6682 14.5184 75.6822C14.4852 75.686 14.4472 75.6702 14.4131 75.656C14.3629 75.6351 14.3212 75.6178 14.3156 75.6719C14.3135 75.6924 14.312 75.7146 14.3108 75.7377C14.2708 75.7312 14.2308 75.7247 14.1908 75.7182C14.1396 75.6537 14.0676 75.6592 13.9778 75.6664C13.956 75.6681 13.933 75.6697 13.9091 75.6706C13.8302 75.6573 13.7513 75.644 13.6724 75.6304C13.6099 75.6031 13.5433 75.5586 13.4731 75.4879C13.3323 75.3462 13.2098 75.1126 13.0902 74.8841C13.0397 74.7878 12.9898 74.6923 12.9391 74.605C12.9588 74.5943 12.9766 74.5817 12.9904 74.5642C13.0842 74.4449 13.1219 74.2101 13.1565 73.994C13.1796 73.8502 13.2013 73.7146 13.2373 73.6272C13.3033 73.4669 13.2966 73.2795 13.2918 73.141C13.2893 73.0691 13.2874 73.0102 13.2962 72.9753C13.3032 72.9473 13.3196 72.9341 13.3364 72.9204C13.3511 72.9085 13.3663 72.8961 13.376 72.8735C13.4939 72.5992 13.4585 72.44 13.4069 72.2082C13.3785 72.0804 13.3453 71.9304 13.33 71.7269C13.3169 71.5114 13.3213 71.4484 13.3831 71.3625C13.335 71.2561 13.2868 71.1497 13.2387 71.0433C13.2198 71.0502 13.2055 71.1167 13.1854 71.2273C13.1494 71.4247 13.0324 71.4969 12.9409 71.5532C12.8986 71.5793 12.8617 71.6022 12.8409 71.6324C12.7303 71.7934 12.7624 72.0176 12.7908 72.2149C12.8064 72.3235 12.8208 72.424 12.8096 72.5013C12.8048 72.5343 12.8116 72.5671 12.8185 72.6006C12.8238 72.6264 12.8292 72.6527 12.8295 72.6798C12.8309 72.8762 12.7655 73.022 12.7047 73.1574C12.6699 73.235 12.6368 73.3094 12.6184 73.3877C12.6129 73.4116 12.6084 73.436 12.6042 73.4596C12.5982 73.4942 12.5922 73.5271 12.583 73.5553C12.5618 73.6195 12.5183 73.6628 12.4706 73.71C12.4461 73.7342 12.4206 73.7595 12.3964 73.7892C12.3651 73.8278 12.3539 73.9055 12.3419 73.9866C12.3335 74.044 12.3247 74.1031 12.3085 74.1518C12.2792 74.2398 12.22 74.2715 12.165 74.301C12.1411 74.3139 12.1179 74.3266 12.0984 74.3431C12.0905 74.3498 12.0867 74.3631 12.0858 74.3814C11.9956 74.4429 11.9094 74.5058 11.8256 74.5673C11.4052 74.8757 11.0413 75.1431 10.4979 74.9493C10.3951 74.9126 10.2848 74.92 10.1733 74.9493C9.81665 74.8722 9.4598 74.7927 9.10328 74.7111C9.03271 74.534 8.94639 74.3854 8.84419 74.2687C8.65226 74.0497 8.45483 74.0029 8.22186 73.9477C8.04962 73.9068 7.85793 73.8612 7.63455 73.7381C7.25926 73.5312 6.87392 73.3562 6.43911 73.2653C6.00619 73.1747 5.51055 73.108 5.15989 73.0843C4.96874 73.0714 4.76795 72.9131 4.58082 72.7657C4.3176 72.5584 4.08141 72.3726 3.93721 72.642C3.89116 72.7281 3.84664 72.8776 3.80331 73.0228C3.77246 73.1262 3.74203 73.2272 3.71222 73.3024C3.63285 73.2791 3.55339 73.256 3.47396 73.2324C3.33283 73.0528 3.11352 72.8603 2.90152 73.0606C2.81959 73.0358 2.73761 73.0112 2.65845 72.9862C2.48573 72.934 2.31674 72.8811 2.14622 72.8278C2.09056 72.8102 2.03434 72.7926 1.97799 72.7748C1.97746 72.7746 1.97692 72.7744 1.97639 72.7742C1.86296 72.7385 1.74867 72.7025 1.63627 72.6664C1.58813 72.6509 1.53999 72.6355 1.49185 72.6201C1.36951 72.5809 1.24628 72.5416 1.12518 72.5019C1.06108 72.4807 0.996369 72.4598 0.931546 72.4385C0.826381 72.404 0.720421 72.3693 0.615003 72.3343C0.44452 72.2778 0.274836 72.2207 0.104828 72.1631C0.0770242 72.1536 0.0503059 72.1237 0.0306701 72.0784C0.0110414 72.0331 -3.0007e-05 71.9762 6.10806e-08 71.9176C3.85052e-05 71.8589 0.0112035 71.8019 0.030899 71.7567C0.0505814 71.7117 0.0772725 71.6825 0.105056 71.6733C0.275186 71.6173 0.445087 71.5619 0.61569 71.5069C0.721127 71.473 0.827049 71.4387 0.932232 71.4052C0.997086 71.3845 1.06174 71.3642 1.12587 71.3437C1.24698 71.3051 1.37041 71.2665 1.49276 71.2285C1.5409 71.2135 1.58904 71.1984 1.63719 71.1834C1.74988 71.1482 1.86449 71.1134 1.97822 71.0786C1.9789 71.0784 1.97959 71.0782 1.98028 71.078C2.03623 71.0609 2.09209 71.0438 2.14736 71.0268C2.31795 70.9751 2.48704 70.9239 2.65983 70.8733C2.7491 70.846 2.84213 70.8193 2.93448 70.7923C2.9859 70.7772 3.03722 70.7621 3.0876 70.7472C3.11515 70.7392 3.14307 70.7314 3.17115 70.7234C3.81542 70.5361 4.45516 70.3559 5.10084 70.183C5.74411 70.0101 6.38851 69.8444 7.03099 69.6852C7.67503 69.5261 8.31794 69.3738 8.96138 69.2277C13.0449 68.2999 17.1447 67.5391 21.2463 67.063C21.8314 66.9946 22.4317 66.933 23.0179 66.8778C23.6105 66.8225 24.1909 66.7734 24.7851 66.7315C24.9655 66.7184 25.1505 66.7061 25.3403 66.6944Z" fill="black"/>
</svg>
