<svg width="60" height="68" viewBox="0 0 60 68" fill="none" xmlns="http://www.w3.org/2000/svg">
<circle cx="15.7675" cy="24.665" r="3.3234" transform="rotate(8.2828 15.7675 24.665)" fill="black"/>
<path d="M9.81761 26.7951C9.41091 25.8223 9.87103 24.7767 9.99678 23.8865C9.99952 23.8663 10.0022 23.8462 10.0048 23.826C10.1337 22.7342 10.2175 21.3255 11.1494 20.4499C12.0633 19.5919 13.2502 19.0766 14.4327 18.9811C15.1708 18.9187 15.9034 19.0178 16.5562 19.247C16.9496 19.3845 17.322 19.5691 17.6589 19.7924C18.5576 20.3851 19.1824 21.2491 19.4663 22.1374C19.662 22.7412 19.7072 23.3579 19.624 23.9183C19.5878 24.1645 19.5276 24.3996 19.447 24.62C19.3869 24.7841 19.3155 24.941 19.2352 25.0873C19.2239 25.1077 19.1859 25.1237 19.1281 25.1307C19.0702 25.1377 18.9976 25.1352 18.9237 25.1244C18.8498 25.1136 18.7794 25.0954 18.7255 25.0747C18.6718 25.0539 18.6394 25.0323 18.6332 25.0135C18.5893 24.8776 18.5359 24.7479 18.4743 24.6275C18.406 24.4934 18.3276 24.3699 18.2421 24.2577C18.5411 24.1889 18.7648 24.1168 18.8527 24.0337C18.8976 23.9917 18.908 23.9385 18.8444 23.9179C18.7872 23.8994 18.6931 23.8999 18.6038 23.9024C18.5103 23.9049 18.422 23.9096 18.3859 23.8946C18.3243 23.8689 18.1883 23.8708 18.0472 23.8806C17.9958 23.8841 17.9436 23.8885 17.8939 23.8925C17.7985 23.8128 17.6994 23.7439 17.5986 23.6856C17.6094 23.6366 17.6139 23.5916 17.5874 23.5719C17.5635 23.5542 17.4952 23.5671 17.4152 23.5918C17.3994 23.5847 17.3836 23.5779 17.3677 23.5714C17.2657 23.529 17.1639 23.4968 17.0637 23.4745C17.0797 23.3713 17.0826 23.2612 17.0295 23.1703C17.0067 23.1313 17.0011 23.0705 16.9922 23.011C16.9796 22.9236 16.9587 22.8387 16.8896 22.8478C16.8438 22.8541 16.8344 22.7984 16.8211 22.7419C16.8043 22.6666 16.7785 22.589 16.6862 22.6763C16.6284 22.7313 16.5689 22.8038 16.5163 22.8724C16.4326 22.9817 16.3669 23.0812 16.3415 23.0806C16.2934 23.0792 16.2264 23.16 16.1741 23.2342C16.1101 23.323 16.0665 23.4014 16.0611 23.3052C16.0602 23.2906 16.0596 23.2713 16.0586 23.2494C16.0557 23.1685 16.046 23.0525 16.0068 23.021C15.9905 23.0076 15.9695 23.0096 15.945 23.0365C15.9157 23.0686 15.884 23.1576 15.858 23.2456C15.8192 23.3738 15.7936 23.4997 15.7684 23.4432C15.7646 23.4347 15.7605 23.3994 15.7563 23.3672C15.7512 23.3262 15.7459 23.2904 15.7437 23.3216C15.7371 23.4131 15.7279 23.5143 15.7219 23.6246C15.7174 23.7056 15.7147 23.7915 15.7147 23.8816C15.6752 23.9349 15.6448 23.9892 15.6217 24.0419C15.6112 24.0661 15.6021 24.09 15.5945 24.1135C15.5457 23.9846 15.4956 23.8706 15.4512 23.787C15.393 23.6778 15.3544 23.6523 15.3027 23.6222C15.2642 23.6003 15.2186 23.5756 15.1422 23.5197C14.9984 23.4169 14.9373 23.5016 14.9508 23.5992C14.9532 23.62 14.9567 23.6417 14.9612 23.6649C14.979 23.7527 15.0044 23.8609 15.0323 23.9918C15.0601 24.1147 15.055 24.1701 15.0508 24.2141C15.049 24.2362 15.0482 24.2542 15.0565 24.2725C15.0708 24.3037 15.0821 24.336 15.0955 24.3666C15.1162 24.4146 15.1424 24.4586 15.1869 24.4894C15.2027 24.5004 15.2229 24.5124 15.2447 24.5246C15.3007 24.5561 15.3697 24.5874 15.4141 24.6135C15.4175 24.6156 15.4208 24.6176 15.4239 24.6195C15.4698 24.6473 15.4364 24.6511 15.3635 24.6653C15.3339 24.6706 15.2172 24.677 15.0969 24.6896C14.9262 24.7062 14.7489 24.739 14.8045 24.76C14.8174 24.7647 14.8457 24.7679 14.8754 24.7705C14.93 24.7756 14.9889 24.7775 14.9654 24.7921C14.9572 24.7972 14.9265 24.8057 14.8965 24.8146C14.8635 24.8242 14.8314 24.8343 14.8304 24.8394C14.8268 24.8583 14.8384 24.874 14.8489 24.8872C14.8625 24.9044 14.8742 24.9177 14.8506 24.9356C14.8086 24.9679 14.8579 24.9761 14.907 24.9789C14.9446 24.9814 14.9822 24.9814 14.9817 24.9967C14.9799 25.041 15.0845 25.0592 15.2263 25.0183C15.2796 25.0027 15.2261 25.0529 15.1652 25.1266C15.1271 25.1722 15.0859 25.2268 15.0642 25.2757C15.052 25.3036 15.1079 25.2691 15.1576 25.2349C15.2037 25.2036 15.2447 25.1729 15.2291 25.198C15.2154 25.2203 15.1417 25.3002 15.0731 25.3775C14.9966 25.4633 14.9265 25.5458 14.9487 25.5377C14.9604 25.5334 15.0024 25.4983 15.0512 25.4554C15.0705 25.4384 15.0908 25.4203 15.1108 25.4023C15.096 25.4186 15.0828 25.4333 15.0729 25.4444C15.0024 25.5228 14.973 25.571 14.9457 25.6193C14.9348 25.6386 14.9243 25.6578 14.9113 25.6789C14.8636 25.7566 14.8769 25.7865 14.8965 25.7962C14.9047 25.8004 14.8914 25.8313 14.8768 25.868C14.8637 25.9005 14.8496 25.9375 14.8479 25.9636C14.8469 25.9784 14.8343 26.0069 14.8241 26.0308C14.8166 26.0481 14.8104 26.063 14.8105 26.0681C14.8107 26.0725 14.8295 26.0488 14.8505 26.0219C14.8656 26.0025 14.8819 25.9815 14.8933 25.9683C14.9206 25.9368 14.9325 25.9297 14.9289 25.9433C14.9272 25.9495 14.9221 25.9602 14.9171 25.9709C14.9112 25.9834 14.9053 25.9959 14.905 26.0014C14.9033 26.0266 14.9321 26.004 14.961 25.9797C14.9929 25.9531 15.0245 25.9244 15.0219 25.9581C15.0211 25.9688 15.0144 25.9903 15.0082 26.0114C15.0017 26.0334 14.9958 26.0548 14.9969 26.062C15.0015 26.0912 15.0523 26.0328 15.0964 25.9775C15.1259 25.9407 15.1527 25.9056 15.164 25.9001C15.1849 25.89 15.2301 25.8112 15.2625 25.7526C15.2793 25.7223 15.2929 25.6972 15.2984 25.6902C15.299 25.6933 15.2995 25.6968 15.2999 25.7006C15.2987 25.7073 15.2975 25.7143 15.3 25.713C15.3001 25.7129 15.3004 25.7126 15.3006 25.7125C15.3013 25.7368 15.299 25.7697 15.2974 25.8026C15.2935 25.8763 15.2966 25.9512 15.3362 25.9236C15.3446 25.9176 15.3623 25.8841 15.3796 25.8498C15.4009 25.8078 15.4216 25.7645 15.4273 25.7698C15.4408 25.7824 15.4403 25.8463 15.4435 25.9098C15.4473 26.0051 15.4615 26.0997 15.5074 26.0087C15.5222 25.9787 15.5403 25.9273 15.5573 25.8751C15.5668 25.8461 15.5761 25.8167 15.5845 25.7911C15.5757 25.8398 15.5677 25.8856 15.5603 25.9283C15.5449 26.0162 15.5317 26.0915 15.5157 26.1547C15.4785 26.3041 15.4233 26.5087 15.397 26.6605C15.39 26.7017 15.3811 26.7474 15.3721 26.7934C15.3495 26.9089 15.3255 27.0266 15.3342 27.0834C15.3396 27.1216 15.3595 27.2102 15.394 27.1244C15.4015 27.1057 15.4099 27.0677 15.4191 27.0254C15.4235 27.0051 15.4281 26.9839 15.4329 26.9633C15.446 26.9065 15.4602 26.8544 15.4749 26.8406C15.4783 26.8374 15.4819 26.8346 15.4855 26.832C15.5001 26.8218 15.5162 26.8103 15.5285 26.7489C15.5427 26.6782 15.5505 26.5963 15.5601 26.5008C15.5723 26.3765 15.5886 26.229 15.6171 26.0522C15.6227 26.0173 15.6272 26.0056 15.6305 25.9967C15.6328 25.9904 15.6346 25.9854 15.6358 25.9748C15.6372 25.9627 15.6393 25.9373 15.6419 25.9052C15.6511 25.7921 15.6697 25.5947 15.6824 25.5874C15.6859 25.5855 15.6888 25.5953 15.6916 25.6041C15.6956 25.617 15.6992 25.6277 15.7021 25.5953C15.7032 25.5831 15.7043 25.5698 15.7055 25.556C15.709 25.5602 15.7126 25.5643 15.7162 25.5685C15.7188 25.6074 15.7263 25.6045 15.7353 25.6005C15.7375 25.5996 15.7398 25.5987 15.7422 25.5982C15.7497 25.6064 15.7574 25.6146 15.7652 25.6228C15.7714 25.6392 15.778 25.6659 15.7863 25.7082C15.8027 25.793 15.8225 25.9326 15.8474 26.0685C15.8579 26.1258 15.8693 26.1826 15.8813 26.2342C15.8785 26.2408 15.8761 26.2486 15.8745 26.2592C15.8635 26.3316 15.8639 26.4726 15.8631 26.6025C15.8625 26.6889 15.8614 26.7704 15.8554 26.8231C15.8441 26.9197 15.8486 27.0321 15.8528 27.1151C15.8548 27.1582 15.8566 27.1935 15.8549 27.2145C15.8536 27.2314 15.8494 27.2394 15.8451 27.2477C15.8413 27.255 15.8374 27.2626 15.8351 27.2762C15.8063 27.4414 15.8155 27.5368 15.8351 27.6755C15.8456 27.752 15.8589 27.8416 15.8678 27.9635C15.8761 28.0926 15.8761 28.1305 15.8546 28.1825C15.8738 28.246 15.894 28.3092 15.9152 28.3723C15.9224 28.3679 15.9263 28.3277 15.931 28.2611C15.9394 28.1422 15.979 28.0969 16.0093 28.0608C16.0233 28.0441 16.0352 28.0294 16.0411 28.0107C16.0718 27.9112 16.0473 27.7782 16.0286 27.6611C16.0181 27.5966 16.0089 27.5368 16.0083 27.4904C16.008 27.4705 16.0044 27.451 16.0007 27.4312C15.9979 27.4159 15.995 27.4003 15.9937 27.3841C15.9838 27.2667 15.9943 27.178 16.0019 27.0957C16.0063 27.0485 16.0099 27.0033 16.0093 26.956C16.0092 26.9417 16.0087 26.927 16.0082 26.9128C16.0074 26.892 16.0067 26.8723 16.007 26.8552C16.0077 26.8164 16.0146 26.7894 16.0216 26.7601C16.0252 26.745 16.0289 26.7293 16.0318 26.7109C16.0355 26.6871 16.0317 26.6406 16.0276 26.592C16.0247 26.5577 16.0217 26.5223 16.0208 26.493C16.0192 26.4399 16.0273 26.4195 16.0345 26.4005C16.0376 26.3922 16.0406 26.384 16.0425 26.3737C16.0433 26.3695 16.0427 26.3615 16.041 26.3506C16.051 26.3116 16.059 26.2719 16.0657 26.2331C16.1013 26.0373 16.0968 25.8733 16.2049 25.9599C16.2258 25.976 16.2397 25.9663 16.2484 25.9443C16.3124 25.9695 16.3809 25.9915 16.4536 26.0093C16.512 26.0987 16.567 26.1706 16.6173 26.2228C16.7122 26.3207 16.7625 26.3241 16.8206 26.3265C16.864 26.3279 16.9119 26.3289 16.9949 26.3601C17.1343 26.4123 17.2746 26.4346 17.3913 26.4003C17.5075 26.3668 17.6245 26.2987 17.693 26.2367C17.7303 26.2035 17.8373 26.2202 17.9399 26.2292C18.0835 26.2429 18.2183 26.24 18.1033 26.1189C18.0665 26.0803 17.9966 26.0227 17.9279 25.9679C17.8789 25.9288 17.8308 25.8912 17.7957 25.8619C17.8177 25.8523 17.8395 25.8421 17.8616 25.8316C17.9724 25.8542 18.1042 25.8523 18.0204 25.7491C18.0431 25.7363 18.0655 25.723 18.0878 25.7099C18.1352 25.6809 18.1822 25.6509 18.2289 25.6185C18.2443 25.608 18.2597 25.5971 18.2752 25.5859C18.2753 25.5858 18.2755 25.5857 18.2757 25.5856C18.3067 25.5632 18.3376 25.5399 18.3682 25.5159C18.3813 25.5057 18.3943 25.4952 18.4073 25.4846C18.4402 25.4577 18.4728 25.4297 18.5051 25.401C18.5223 25.3859 18.5393 25.3701 18.5563 25.3543C18.584 25.3287 18.6115 25.3019 18.6387 25.2744C18.6828 25.2296 18.726 25.1843 18.7686 25.1358C18.7756 25.1279 18.7946 25.1221 18.8224 25.1198C18.8503 25.1175 18.8846 25.1187 18.9194 25.1238C18.9542 25.1289 18.9875 25.1375 19.0133 25.1483C19.0391 25.159 19.0549 25.1709 19.0589 25.1813C19.0829 25.2455 19.1049 25.3099 19.1244 25.3772C19.1365 25.4185 19.148 25.4605 19.1584 25.5025C19.1648 25.5283 19.1706 25.5547 19.1764 25.5808C19.1872 25.6301 19.1967 25.6806 19.2049 25.7314C19.2082 25.7514 19.2112 25.7715 19.2141 25.7917C19.2209 25.8391 19.2265 25.8872 19.2309 25.9357C19.2309 25.936 19.2309 25.9362 19.231 25.9365C19.2331 25.9604 19.2351 25.9844 19.2368 26.0082C19.2418 26.0813 19.2445 26.1548 19.2439 26.2303C19.2442 26.2696 19.243 26.31 19.2412 26.3508C19.2402 26.3735 19.2391 26.3963 19.2378 26.4186C19.237 26.4308 19.236 26.4431 19.235 26.4555C19.2139 26.7412 19.1556 27.0314 19.0567 27.3189C18.9585 27.6056 18.8209 27.8878 18.6471 28.1548C18.4728 28.4224 18.262 28.6749 18.0178 28.9039C17.261 29.6226 16.1533 30.1047 14.9694 30.1469C13.7508 30.2031 12.4239 29.7739 11.3973 28.9179C11.1077 28.6793 10.8349 28.401 10.597 28.1027C10.3567 27.8009 10.149 27.4793 9.97221 27.1287C9.91843 27.0224 9.86668 26.9111 9.81761 26.7951Z" fill="black"/>
<path d="M28.0792 8.92335C27.6572 7.85266 27.9179 6.71399 28.0615 5.67459C28.0647 5.65149 28.0678 5.62836 28.071 5.6052C28.2341 4.33326 28.538 2.86814 29.5318 1.87915C30.516 0.895533 31.8104 0.25521 33.1419 0.0648804C33.973 -0.0565692 34.8152 -0.00494652 35.595 0.198291C36.0649 0.320118 36.5174 0.496572 36.9377 0.721291C38.057 1.31685 38.9298 2.25658 39.433 3.30978C39.7774 4.02492 39.9572 4.79293 39.9735 5.53847C39.981 5.86575 39.9576 6.18825 39.9057 6.50125C39.867 6.7343 39.8125 6.96348 39.7439 7.18368C39.7343 7.21441 39.7068 7.24149 39.6666 7.25826C39.6263 7.27505 39.5768 7.28024 39.5276 7.27303C39.4783 7.2658 39.4324 7.24678 39.3982 7.22079C39.3641 7.19479 39.3446 7.16394 39.3426 7.1343C39.3285 6.91995 39.2998 6.70791 39.2572 6.50294C39.21 6.27469 39.1455 6.05372 39.0661 5.8421C39.2618 5.77459 39.4061 5.69684 39.4535 5.58651C39.4778 5.53041 39.4756 5.45397 39.4258 5.41038C39.3812 5.37118 39.3132 5.35147 39.2485 5.33393C39.1808 5.31561 39.1167 5.29982 39.0854 5.26556C39.0322 5.20734 38.9291 5.16972 38.8211 5.13579C38.7817 5.12339 38.7416 5.1114 38.7029 5.09875C38.5939 4.92105 38.4735 4.75394 38.3437 4.59829C38.3267 4.52048 38.3062 4.44972 38.2679 4.40239C38.2335 4.35991 38.1705 4.34075 38.0993 4.32984C38.0776 4.30796 38.0557 4.28638 38.0335 4.26509C37.8908 4.12757 37.7403 4.00212 37.5841 3.88962C37.5248 3.7448 37.4501 3.59441 37.3074 3.4426C37.2459 3.37736 37.1952 3.29967 37.143 3.22567C37.0664 3.11671 36.9859 3.01571 36.8802 2.98484C36.8097 2.96431 36.761 2.90244 36.7089 2.84103C36.64 2.75915 36.5636 2.67791 36.448 2.71121C36.3755 2.73219 36.3041 2.76668 36.2395 2.80018C36.137 2.85355 36.0516 2.90408 35.9968 2.89C35.894 2.86366 35.7864 2.89804 35.6964 2.93192C35.5868 2.97238 35.5014 3.01135 35.4477 2.9365C35.4395 2.92515 35.4304 2.91049 35.42 2.89388C35.3818 2.83256 35.3243 2.74545 35.2288 2.71425C35.1884 2.70106 35.142 2.69813 35.0899 2.71211C35.028 2.72884 34.9663 2.78464 34.9096 2.84074C34.8266 2.92244 34.7533 3.00427 34.6769 2.96635C34.6654 2.96068 34.6534 2.93714 34.6422 2.91568C34.6279 2.8884 34.6149 2.86468 34.6078 2.88556C34.587 2.94679 34.5548 3.01485 34.5226 3.08951C34.4989 3.14434 34.4753 3.20273 34.4549 3.26406C34.274 3.30938 34.0996 3.36833 33.9334 3.43903C33.8573 3.4714 33.7825 3.50635 33.7098 3.54354C33.6426 3.46867 33.574 3.40464 33.5076 3.36227C33.4205 3.30707 33.3327 3.31389 33.2198 3.32895C33.1367 3.3402 33.0399 3.35581 32.914 3.35964C32.6789 3.36685 32.5037 3.51597 32.4303 3.64481C32.4144 3.6721 32.3993 3.70023 32.3838 3.73057C32.3263 3.84614 32.255 3.98875 32.1281 4.23206C32.0099 4.4624 31.9069 4.63997 31.8354 4.77807C31.7989 4.84856 31.7713 4.90777 31.7565 4.95671C31.7313 5.04016 31.699 5.14037 31.6724 5.24156C31.63 5.39993 31.6032 5.56145 31.611 5.65767C31.6136 5.69181 31.6191 5.72816 31.6256 5.76711C31.6426 5.86716 31.6667 5.98293 31.6771 6.13018C31.678 6.14163 31.6787 6.15325 31.6794 6.16504C31.6901 6.33592 31.6642 6.43423 31.6141 6.54277C31.5941 6.58641 31.5167 6.62637 31.4376 6.67136C31.3255 6.73424 31.2101 6.81039 31.254 6.8973C31.2643 6.91739 31.285 6.9376 31.307 6.95841C31.3475 6.99672 31.3918 7.03557 31.3822 7.08356C31.3788 7.10039 31.3603 7.11789 31.3422 7.13532C31.3224 7.15447 31.3032 7.17363 31.3052 7.19107C31.3125 7.25606 31.3313 7.31743 31.3492 7.37106C31.3723 7.44019 31.3939 7.49732 31.387 7.53888C31.3747 7.61319 31.4265 7.67622 31.4803 7.73531C31.5216 7.78092 31.5641 7.82473 31.5817 7.87691C31.6314 8.02663 31.7819 8.19978 31.9782 8.32708C32.0522 8.37511 32.0507 8.4571 32.0562 8.56663C32.0596 8.63452 32.0656 8.71293 32.0947 8.79604C32.1114 8.84323 32.1702 8.84402 32.2236 8.84293C32.2729 8.84209 32.3177 8.83993 32.3256 8.87525C32.3326 8.90645 32.2938 8.96993 32.2579 9.03108C32.2178 9.099 32.1814 9.16406 32.2138 9.17529C32.231 9.18121 32.2704 9.16846 32.3167 9.15238C32.335 9.14601 32.3543 9.13921 32.3739 9.13277C32.3637 9.14336 32.3548 9.15306 32.3482 9.16045C32.3011 9.21268 32.2999 9.26128 32.3 9.30932C32.3 9.32849 32.3003 9.34754 32.2977 9.36671C32.288 9.43739 32.3394 9.49217 32.3858 9.52433C32.4054 9.53799 32.4094 9.56839 32.4147 9.60403C32.4194 9.63565 32.4251 9.67148 32.4436 9.70276C32.4541 9.72057 32.4543 9.74559 32.4546 9.7665C32.4548 9.78162 32.4551 9.79456 32.4593 9.80078C32.463 9.80616 32.4784 9.79228 32.4956 9.77655C32.508 9.76522 32.5214 9.75294 32.5321 9.74622C32.5577 9.73019 32.5753 9.73187 32.5796 9.74533C32.5816 9.75155 32.5807 9.76031 32.5798 9.76904C32.5787 9.7792 32.5776 9.78942 32.5813 9.79562C32.5982 9.82403 32.6351 9.82012 32.6728 9.81531C32.7145 9.81013 32.7567 9.80368 32.7789 9.83999C32.7859 9.85143 32.7896 9.87042 32.7933 9.88887C32.7971 9.90818 32.8011 9.92688 32.8087 9.93543C32.8395 9.97022 32.8994 9.94503 32.9531 9.92056C32.9889 9.90433 33.0221 9.88856 33.0439 9.89183C33.0842 9.89795 33.1283 9.85188 33.1604 9.81767C33.177 9.79994 33.1905 9.78528 33.1988 9.78274C33.2035 9.78673 33.2081 9.79103 33.2126 9.79543C33.2157 9.80169 33.219 9.80816 33.2244 9.80896C33.2248 9.80902 33.2252 9.80894 33.2257 9.809C33.2499 9.83576 33.2721 9.86778 33.2944 9.89931C33.3444 9.97009 33.3996 10.04 33.4822 10.0407C33.5 10.0408 33.5242 10.0226 33.5484 10.0039C33.5782 9.98091 33.608 9.95703 33.628 9.96552C33.6756 9.98566 33.7146 10.0393 33.7559 10.0917C33.817 10.1703 33.8844 10.2461 33.9684 10.1957C33.9959 10.1791 34.0252 10.1479 34.0538 10.1161C34.0698 10.0984 34.0857 10.0805 34.1012 10.065C34.0932 10.0971 34.0868 10.1275 34.0808 10.1557C34.0684 10.214 34.0578 10.264 34.0377 10.3045C33.9906 10.4003 33.9288 10.5321 33.914 10.6338C33.9101 10.6614 33.9036 10.6918 33.8969 10.7224C33.8802 10.799 33.8625 10.8773 33.8888 10.9188C33.9063 10.9468 33.9553 11.0119 34.0012 10.9581C34.0112 10.9464 34.0198 10.9215 34.0294 10.8938C34.0339 10.8805 34.0387 10.8666 34.0439 10.8532C34.0583 10.8161 34.0759 10.7826 34.1016 10.7755C34.1075 10.7739 34.1139 10.7726 34.1205 10.7714C34.1465 10.7667 34.1756 10.7612 34.1907 10.7211C34.208 10.6749 34.2115 10.6201 34.2159 10.5562C34.2215 10.473 34.2294 10.3744 34.2654 10.2584C34.2725 10.2355 34.2818 10.2283 34.2889 10.2229C34.2939 10.2191 34.2977 10.216 34.2988 10.209C34.3 10.2009 34.3003 10.1839 34.3007 10.1624C34.3019 10.0864 34.3058 9.95406 34.3497 9.95273C34.3617 9.95236 34.3747 9.95986 34.3865 9.96655C34.4038 9.97642 34.4183 9.98442 34.4219 9.96299C34.4233 9.95486 34.4244 9.94603 34.4256 9.93687C34.4395 9.94051 34.4536 9.94405 34.4676 9.94751C34.4843 9.97436 34.51 9.97359 34.5423 9.97198C34.5502 9.97158 34.5584 9.97124 34.567 9.97114C34.595 9.97736 34.6231 9.98321 34.6513 9.98884C34.6736 9.99992 34.6973 10.0177 34.7235 10.0456C34.7756 10.1015 34.8244 10.1932 34.8758 10.282C34.8974 10.3194 34.9196 10.3563 34.9423 10.3897C34.9347 10.3945 34.9279 10.4 34.9229 10.4073C34.8881 10.4574 34.8776 10.5519 34.8669 10.6389C34.8599 10.6968 34.8528 10.7514 34.8383 10.787C34.8116 10.8522 34.8165 10.9269 34.8207 10.9823C34.8228 11.011 34.8245 11.0345 34.8209 11.0486C34.8179 11.0599 34.8104 11.0654 34.8026 11.0711C34.7958 11.076 34.7887 11.0812 34.7843 11.0903C34.7307 11.2012 34.7472 11.2645 34.7753 11.3567C34.7906 11.4076 34.8092 11.4671 34.8195 11.5482C34.8289 11.6341 34.8276 11.6595 34.7952 11.6946C34.8221 11.7366 34.8497 11.7783 34.8778 11.8198C34.888 11.8167 34.8949 11.7897 34.9038 11.7451C34.9199 11.6654 34.9803 11.6334 35.0272 11.6074C35.0488 11.5954 35.0675 11.5848 35.0775 11.5719C35.1301 11.5028 35.1044 11.4149 35.0837 11.3375C35.0722 11.2949 35.0619 11.2555 35.0647 11.2242C35.0659 11.2108 35.0615 11.198 35.0571 11.185C35.0537 11.1749 35.0502 11.1646 35.0492 11.1538C35.0422 11.0756 35.0682 11.0149 35.0909 10.9583C35.1039 10.9259 35.1159 10.8948 35.1208 10.8628C35.1223 10.853 35.1233 10.8431 35.1242 10.8335C35.1254 10.8195 35.1266 10.8061 35.1295 10.7944C35.1361 10.7679 35.1534 10.7485 35.1719 10.7273C35.1814 10.7164 35.1912 10.705 35.2002 10.6918C35.2117 10.6748 35.2124 10.6434 35.2132 10.6105C35.2137 10.5873 35.2142 10.5634 35.2183 10.5432C35.2257 10.5066 35.2481 10.4906 35.2687 10.4755C35.2777 10.4689 35.2863 10.4624 35.2932 10.4546C35.296 10.4515 35.2967 10.4459 35.2959 10.4386C35.3286 10.4084 35.3587 10.3776 35.3872 10.3471C35.5311 10.1932 35.6317 10.059 35.854 10.0664C35.8964 10.0675 35.9358 10.0503 35.9721 10.024C36.112 10.004 36.2529 9.97641 36.3939 9.94079C36.4511 9.991 36.5101 10.0273 36.5698 10.0478C36.6822 10.0861 36.7654 10.0594 36.8616 10.0246C36.9329 9.99866 37.0114 9.96831 37.1194 9.95088C37.301 9.92142 37.4821 9.86555 37.6526 9.75622C37.8228 9.64802 37.9985 9.49591 38.1086 9.37506C38.1687 9.30985 38.2758 9.27442 38.3761 9.23624C38.5168 9.18316 38.6441 9.12337 38.5896 9.00689C38.5722 8.96974 38.5324 8.92025 38.4931 8.87292C38.4651 8.83921 38.4376 8.8065 38.4186 8.77952C38.445 8.75319 38.4711 8.7263 38.4971 8.69905C38.5912 8.67803 38.7089 8.62061 38.6798 8.49584C38.7053 8.46575 38.7303 8.43528 38.7546 8.40552C38.8069 8.34015 38.8572 8.27471 38.9062 8.20677C38.9224 8.18461 38.9384 8.16197 38.9544 8.13904C38.9545 8.13883 38.9547 8.13862 38.9548 8.13841C38.9869 8.09235 39.0183 8.04546 39.0489 7.99827C39.062 7.97808 39.0749 7.95771 39.0877 7.93716C39.1202 7.88517 39.1518 7.83212 39.1825 7.7788C39.1988 7.75069 39.2149 7.72158 39.2307 7.69289C39.2564 7.64611 39.2816 7.59816 39.3061 7.54968C39.3459 7.47079 39.3835 7.39254 39.4196 7.31095C39.4255 7.29765 39.4394 7.28607 39.4588 7.27883C39.4782 7.2716 39.5015 7.26922 39.5247 7.27261C39.5479 7.276 39.5697 7.28502 39.586 7.29788C39.6023 7.31072 39.6118 7.32637 39.6132 7.34139C39.6214 7.43348 39.6273 7.52447 39.6299 7.61839C39.6316 7.67613 39.6324 7.73421 39.632 7.79188C39.6318 7.82729 39.631 7.86337 39.63 7.8988C39.628 7.9659 39.6245 8.03396 39.6194 8.10191C39.6174 8.12875 39.6152 8.15558 39.6128 8.1824C39.6071 8.24526 39.5999 8.30875 39.5915 8.37226C39.5914 8.37264 39.5914 8.37303 39.5913 8.37341C39.5871 8.40471 39.5827 8.43594 39.5781 8.46683C39.5635 8.562 39.5463 8.65644 39.5252 8.75278C39.5147 8.80274 39.5025 8.85415 39.4895 8.90566C39.4823 8.93431 39.4749 8.96289 39.4674 8.99093C39.4633 9.00622 39.4589 9.02167 39.4545 9.03719C39.3542 9.39459 39.2128 9.74508 39.0286 10.0832C38.8452 10.4202 38.6205 10.7425 38.3601 11.0397C38.099 11.3376 37.8018 11.6106 37.4734 11.8514C36.4519 12.607 35.106 13.0339 33.735 12.9755C32.3213 12.9275 30.8668 12.3512 29.7597 11.3436C29.4477 11.0623 29.1554 10.74 28.9021 10.3987C28.6463 10.0536 28.4271 9.68954 28.2413 9.29643C28.1848 9.17724 28.1305 9.05271 28.0792 8.92335Z" fill="black"/>
<path d="M18.629 34.4897C19.4144 33.9539 20.2844 33.6077 21.6004 33.1554C21.9259 33.1263 22.3733 32.9624 22.7609 32.6824C23.2783 32.3116 23.8083 31.7257 24.0987 31.2689C24.0398 31.2277 24.2832 30.7528 24.4684 30.3276C24.6712 29.8847 24.9069 29.4077 25.1956 28.9512C25.847 27.9186 26.5204 26.8331 27.2134 25.7518C27.2683 25.7069 27.2909 25.7348 27.3333 25.6957C27.374 25.6592 27.4222 25.5272 27.4532 25.304C27.5241 24.7943 27.5291 23.9742 27.5729 23.1864C27.6641 22.309 27.5773 21.1933 27.5364 19.9136C27.542 19.9182 27.5471 19.9186 27.5514 19.9155C27.6419 19.3515 26.9379 17.7294 26.3321 16.5929L26.4197 16.6971C26.1649 16.3119 25.9046 15.9294 25.6385 15.5499C24.8924 14.4862 24.0992 13.4439 23.2518 12.4369C22.8797 11.9949 22.4981 11.5608 22.1039 11.1337C22.0941 11.1231 22.0843 11.1124 22.0745 11.1018C21.7843 10.7958 21.4984 10.4906 21.2015 10.1903C21.1592 10.1471 21.1368 10.08 21.1406 10.0019C21.1447 9.92385 21.1739 9.84119 21.2246 9.77039C21.2754 9.69959 21.3445 9.64518 21.4174 9.61683C21.4905 9.5888 21.5618 9.5898 21.6168 9.61746C21.9994 9.81054 22.3804 10.0158 22.7508 10.2106C22.7743 10.225 22.7909 10.234 22.8074 10.2431C23.2459 10.4841 23.6796 10.7336 24.1097 10.993C23.9401 11.3171 23.8468 11.5924 23.9188 11.8112C23.9559 11.923 24.0499 12.0375 24.1749 12.0582C24.2871 12.0767 24.4124 12.045 24.5316 12.0149C24.6564 11.9835 24.7754 11.9543 24.866 11.9872C25.0199 12.0433 25.2289 12.0272 25.4495 12.0123C25.5297 12.0068 25.6117 12.0016 25.6928 11.9999C26.0928 12.2677 26.4887 12.5433 26.8802 12.8259C26.9856 12.9821 27.0842 13.123 27.1961 13.2141C27.2966 13.2959 27.4331 13.3263 27.5829 13.3444C27.6427 13.3895 27.7023 13.4346 27.762 13.4801C28.1464 13.7731 28.5263 14.0735 28.9018 14.3805C28.9062 14.3887 28.9106 14.3969 28.915 14.4051C28.9336 14.4306 29.0001 14.4985 29.0164 14.5255C29.1784 14.8889 29.3441 15.264 29.6024 15.7151C29.7164 15.9147 29.7972 16.1326 29.8715 16.3434C29.9812 16.6548 30.0762 16.9504 30.2524 17.1618C30.3707 17.304 30.4174 17.4992 30.4592 17.6964C30.516 17.9624 30.5616 18.226 30.783 18.4167C30.9224 18.5373 31.0738 18.6526 31.2137 18.7824C31.3706 18.9276 31.513 19.0899 31.5967 19.2871C31.6243 19.3236 31.6437 19.3602 31.6525 19.3974C31.7085 19.6369 31.8576 19.8344 31.9898 20.0114C32.149 20.2245 32.2841 20.4101 32.2087 20.6102C32.1973 20.6405 32.1812 20.6758 32.1628 20.7157C32.0657 20.9272 31.912 21.2604 32.0902 21.7026C32.1535 21.8608 32.2789 22.0043 32.4005 22.1509C32.5774 22.3636 32.7463 22.5862 32.6968 22.8474C32.6946 22.8589 32.6896 22.8708 32.6828 22.8827C32.6663 22.9051 32.6393 22.928 32.6141 22.9495C32.5685 22.9882 32.5287 23.0219 32.5661 23.0379C32.6759 23.0849 32.7991 23.1645 32.9334 23.2494C33.0322 23.3132 33.1368 23.3779 33.2463 23.44C33.3402 23.9605 33.4507 24.4955 33.5178 25.227C33.5465 25.5619 33.5631 25.9498 33.5336 26.3933C33.3471 26.5993 33.1658 26.8086 33.0026 27.0281C32.7901 27.3122 32.6245 27.7144 32.3537 28.1543C32.3126 28.2212 32.2702 28.2868 32.2241 28.3547C32.1037 28.5062 31.9653 28.6703 31.7848 28.8451C31.365 29.2504 31.1351 29.7789 31.0512 30.1506C31.0331 30.2299 31.0168 30.3089 30.9993 30.3941C30.9312 30.7195 30.8494 31.1248 30.592 31.8627C30.347 32.5622 30.0541 33.1368 29.8078 33.5847C29.6831 33.8122 29.568 34.0107 29.4854 34.1701C29.3408 34.4458 29.1489 34.784 28.8457 35.1942C28.7512 35.3212 28.6369 35.4643 28.5056 35.6107C28.1577 36.0128 27.8844 36.3017 27.7147 36.5135C27.6411 36.6056 27.5646 36.7055 27.4825 36.8109C27.2518 37.1046 26.971 37.4554 26.4909 37.8697C25.9835 38.3036 25.5881 38.5063 25.1348 38.67C24.949 38.7366 24.7288 38.7009 24.502 38.6586C24.4062 38.6405 24.3078 38.622 24.2106 38.609C24.0926 38.5254 23.9627 38.4908 23.866 38.5938C23.8336 38.6282 23.8069 38.6803 23.7774 38.7364C23.7241 38.8388 23.6644 38.9525 23.5484 38.9876C23.5081 38.9996 23.4571 38.9873 23.4076 38.975C23.3529 38.9616 23.2983 38.9493 23.2588 38.9711C23.11 39.0531 22.9697 39.1521 22.843 39.2419C22.6796 39.3577 22.5385 39.4581 22.4301 39.4888C22.2371 39.5433 22.0845 39.7016 21.9266 39.8635C21.806 39.9871 21.6822 40.113 21.5353 40.1954C21.3009 40.3267 21.0342 40.5202 20.7459 40.7524C20.4686 40.9643 20.2362 41.157 20.024 41.3562C19.8425 41.5264 19.6369 41.5428 19.3786 41.5648C19.2187 41.5782 19.0395 41.5928 18.8433 41.6459C18.7319 41.6763 18.6937 41.7892 18.6614 41.8925C18.6314 41.9878 18.6064 42.0751 18.5297 42.0859C18.4618 42.0956 18.359 42.0124 18.2597 41.9345C18.1493 41.8479 18.0442 41.7674 18.0042 41.826C17.9832 41.857 17.9856 41.9334 17.9904 42.0233C17.9924 42.0588 17.9946 42.0963 17.996 42.1342C17.9815 42.113 17.968 42.0944 17.9576 42.0804C17.8843 41.9817 17.7929 41.9689 17.7034 41.9579C17.6676 41.9536 17.632 41.9495 17.5979 41.9401C17.4719 41.9052 17.3465 41.9852 17.2678 42.0604C17.2344 42.0921 17.1781 42.091 17.1123 42.0906C17.0783 42.0904 17.0418 42.0904 17.0048 42.0952C16.9713 42.105 16.9371 42.1174 16.903 42.1343C16.8566 42.1572 16.8051 42.1563 16.7618 42.1558C16.7303 42.1557 16.7035 42.1553 16.687 42.164C16.6727 42.1715 16.6874 42.2059 16.704 42.2446C16.7159 42.2725 16.7288 42.3027 16.7326 42.3267C16.7418 42.3839 16.7211 42.4226 16.6888 42.4312C16.674 42.4351 16.6568 42.4322 16.6398 42.4293C16.62 42.4259 16.6002 42.4223 16.584 42.4295C16.5108 42.4617 16.4811 42.5433 16.4525 42.6257C16.4202 42.7171 16.387 42.8117 16.2896 42.8517C16.259 42.8643 16.2175 42.8672 16.1774 42.8698C16.1359 42.8721 16.0942 42.8759 16.0695 42.8891C15.9693 42.9428 15.9508 43.0778 15.9349 43.2011C15.9239 43.2835 15.9151 43.3596 15.882 43.4051C15.8229 43.4871 15.8545 43.601 15.8787 43.6844C15.8911 43.7276 15.9018 43.7628 15.896 43.7817C15.8824 43.79 15.8683 43.7981 15.8544 43.8056C15.8388 43.8094 15.8227 43.8132 15.8145 43.8242C15.8139 43.825 15.8135 43.8261 15.8128 43.8269C15.7329 43.8653 15.6482 43.894 15.5646 43.9223C15.3781 43.9848 15.1988 44.0445 15.1139 44.1941C15.0954 44.2264 15.1021 44.2819 15.1093 44.3381C15.1182 44.4067 15.1297 44.4751 15.0986 44.5026C15.0245 44.568 14.9106 44.5884 14.8009 44.6099C14.6369 44.6408 14.4786 44.6808 14.5162 44.8321C14.5288 44.8818 14.5646 44.9429 14.6024 45.0027C14.6219 45.0335 14.642 45.0641 14.6594 45.0928C14.6606 45.0953 14.6619 45.0979 14.6631 45.1004C14.6426 45.0864 14.6225 45.073 14.6028 45.0601C14.5765 45.0432 14.5511 45.0272 14.5267 45.0117C14.4386 44.956 14.3632 44.9082 14.3079 44.8529C14.1764 44.7233 13.9999 44.5415 13.845 44.4502C13.8028 44.4256 13.7578 44.3953 13.7126 44.3644C13.599 44.2874 13.4839 44.2067 13.3991 44.2229C13.3633 44.2298 13.2962 44.2468 13.2652 44.2872C13.2463 44.312 13.2401 44.345 13.2615 44.387C13.2741 44.4114 13.3092 44.4417 13.3485 44.4747C13.419 44.5343 13.5031 44.6035 13.4949 44.672C13.4936 44.6834 13.4915 44.6954 13.489 44.7078C13.4791 44.7569 13.4679 44.8134 13.5239 44.864C13.5883 44.9225 13.6765 44.9608 13.7791 45.0059C13.9128 45.0645 14.0706 45.1357 14.2371 45.2696C14.2701 45.296 14.275 45.3179 14.279 45.3341C14.2818 45.3456 14.2842 45.3546 14.295 45.3606C14.3075 45.3676 14.3355 45.3779 14.3708 45.3911C14.4956 45.4375 14.7125 45.5198 14.6822 45.6053C14.6739 45.6289 14.6519 45.6497 14.632 45.6689C14.6026 45.6972 14.5781 45.7219 14.6109 45.7413C14.6233 45.7487 14.637 45.7562 14.6513 45.7637C14.6345 45.7896 14.6177 45.816 14.6009 45.8429C14.5436 45.8609 14.524 45.9153 14.5008 45.9833C14.4952 45.9999 14.4891 46.0174 14.4822 46.0355C14.4493 46.0906 14.4163 46.1472 14.3837 46.2039C14.3469 46.2448 14.2979 46.285 14.2307 46.3226C14.096 46.3979 13.9065 46.4407 13.7208 46.4868C13.6425 46.5062 13.5648 46.5261 13.4924 46.5492C13.491 46.5301 13.4878 46.5122 13.4803 46.4966C13.4286 46.3902 13.2851 46.3035 13.1532 46.2228C13.0655 46.1691 12.983 46.1181 12.9368 46.0658C12.8523 45.9699 12.7273 45.9301 12.6346 45.9012C12.5865 45.8861 12.5471 45.8737 12.5271 45.8574C12.511 45.8443 12.5077 45.8263 12.5044 45.8078C12.5015 45.7917 12.4984 45.7749 12.4869 45.7607C12.3468 45.5871 12.2312 45.5782 12.0611 45.5695C11.9674 45.5645 11.8574 45.5592 11.7184 45.5245C11.5723 45.4848 11.5323 45.4655 11.4982 45.3848C11.411 45.4053 11.3238 45.4268 11.2366 45.4487C11.2345 45.4689 11.2732 45.4988 11.339 45.5446C11.4564 45.6265 11.4639 45.7564 11.4712 45.8577C11.4745 45.9046 11.4776 45.9454 11.491 45.9723C11.5623 46.1149 11.7221 46.1321 11.8619 46.1489C11.939 46.158 12.0102 46.1668 12.058 46.1943C12.0785 46.2061 12.1024 46.207 12.1268 46.208C12.1456 46.2088 12.1647 46.2095 12.1828 46.2153C12.3136 46.2576 12.3904 46.3499 12.4627 46.4343C12.504 46.4826 12.544 46.5285 12.591 46.5617C12.6053 46.5719 12.6203 46.581 12.6349 46.5898C12.6561 46.6026 12.6764 46.6149 12.6926 46.6291C12.7295 46.6617 12.7462 46.7093 12.7646 46.7617C12.774 46.7885 12.784 46.8164 12.7974 46.8438C12.8148 46.8794 12.8639 46.905 12.9151 46.9319C12.9513 46.9509 12.9886 46.9705 13.017 46.9944C13.0684 47.0378 13.0746 47.0951 13.0806 47.1486C13.0833 47.1719 13.0861 47.1944 13.0924 47.2144C13.095 47.2226 13.103 47.2284 13.1152 47.2326C13.1345 47.3223 13.1568 47.4075 13.1794 47.4903C13.2915 47.8894 13.4 48.2254 13.2355 48.5673C13.2314 48.5714 13.2269 48.5763 13.2221 48.582C13.1916 48.6181 13.1904 48.6853 13.2066 48.7604C13.1382 48.999 13.0841 49.3062 13.0417 49.6105C12.9209 49.6767 12.8211 49.7577 12.7457 49.8529C12.6043 50.0324 12.587 50.2131 12.5725 50.4231C12.5619 50.5787 12.5526 50.7504 12.5002 50.9568C12.4524 51.1451 12.417 51.336 12.4027 51.5237C12.4052 51.7399 12.4025 51.9153 12.4206 52.0896C12.4549 52.4661 12.5644 52.8454 12.695 53.1054C12.7635 53.2454 12.7599 53.445 12.7732 53.6397C12.7902 53.9122 12.8402 54.1707 13.0695 54.1431C13.1422 54.1338 13.2467 54.0928 13.3472 54.0514C13.4183 54.0214 13.4875 53.9915 13.5431 53.9734C13.5789 54.0339 13.6139 54.0917 13.6526 54.1522C13.6531 54.1529 13.6535 54.1535 13.6539 54.1542C13.6589 54.3347 13.721 54.578 13.9652 54.607C14.0119 54.6717 14.0593 54.7359 14.1053 54.7983C14.2067 54.9335 14.3085 55.0658 14.4139 55.1981C14.448 55.2413 14.4835 55.2851 14.5186 55.3285C14.5189 55.3289 14.5193 55.3294 14.5196 55.3298C14.5911 55.4177 14.6637 55.5052 14.7365 55.5916C14.7674 55.6284 14.7989 55.6653 14.8304 55.702C14.9107 55.7955 14.9917 55.8879 15.0735 55.9797C15.1167 56.0283 15.16 56.0764 15.2046 56.1252C15.2764 56.204 15.3484 56.2818 15.4223 56.3597C15.5409 56.4849 15.6613 56.6087 15.7813 56.7256C15.8011 56.7448 15.8114 56.7747 15.8129 56.8119C15.8138 56.8488 15.8028 56.8881 15.7832 56.9241C15.7635 56.9601 15.736 56.9906 15.7028 57.0083C15.6692 57.0257 15.6365 57.0305 15.6085 57.0217C15.4392 56.9681 15.2712 56.9073 15.1035 56.8432C14.9994 56.8031 14.8967 56.7628 14.7939 56.7206C14.7302 56.6943 14.6679 56.6682 14.6054 56.6417C14.4871 56.5912 14.3688 56.539 14.2507 56.4849C14.2044 56.4637 14.1579 56.4421 14.1118 56.4206C14.0032 56.3698 13.8941 56.3168 13.7855 56.2625C13.7849 56.2621 13.7842 56.2618 13.7836 56.2615C13.7305 56.235 13.6769 56.2078 13.6246 56.1811C13.4627 56.0977 13.3029 56.012 13.1412 55.92C13.0572 55.8732 12.9707 55.8224 12.8848 55.7711C12.8371 55.7426 12.7891 55.7136 12.7425 55.6852C12.717 55.6695 12.6913 55.6533 12.6655 55.637C12.5714 55.5782 12.4778 55.5179 12.3847 55.4559C11.8749 55.1117 11.3864 54.6942 10.962 54.1659C10.4619 53.5738 10.0945 52.7166 9.86029 52.1647C9.85647 52.1554 9.85267 52.146 9.84888 52.1367C9.55427 51.3954 9.365 50.6903 9.21658 49.9582C9.10264 49.3439 8.99391 48.7889 9.01494 47.9716C9.11588 46.0187 9.37256 44.4644 10.2048 42.5188C11.3602 40.3159 12.6006 39.4288 13.4898 38.3236C14.0204 37.7593 14.5781 37.2829 15.1294 36.8648C15.7177 36.4177 16.3255 36.0264 16.8471 35.6968C17.1065 35.5325 17.352 35.3783 17.508 35.2663C17.7298 35.1155 17.955 34.9596 18.1882 34.7972C18.3292 34.6988 18.4757 34.5965 18.629 34.4897Z" fill="black"/>
<path d="M25.3403 57.9047C26.8776 57.8069 28.3571 58.7297 29.8996 58.7315C31.8149 58.7338 33.7606 57.852 35.6802 58.0162C37.5888 58.1805 39.5066 58.4163 41.4183 58.7071C43.3321 58.9979 45.2431 59.3436 47.1579 59.7264C49.0687 60.1093 50.9835 60.5292 52.8958 60.9699C54.1946 61.2693 55.4949 61.5783 56.7936 61.8911C57.3637 62.0282 57.9322 62.166 58.502 62.3042C58.9271 62.4076 59.3522 62.511 59.7773 62.6143C59.8364 62.6289 59.893 62.688 59.9348 62.7819C59.9765 62.8759 60.0001 62.9962 60 63.1206C59.9999 63.2451 59.9762 63.3657 59.9343 63.4594C59.8924 63.5528 59.8357 63.6111 59.7766 63.6251C59.3479 63.7252 58.9192 63.8253 58.4905 63.9255C58.0144 64.0365 57.539 64.1478 57.063 64.2581C56.988 63.7476 56.8852 63.3605 56.6924 63.1895C56.5941 63.1022 56.4506 63.066 56.345 63.1608C56.2501 63.2461 56.1787 63.398 56.1109 63.5428C56.0399 63.6943 55.9725 63.8381 55.8859 63.8889C55.7388 63.9752 55.599 64.1919 55.4521 64.4196C55.3987 64.5024 55.3443 64.5869 55.2883 64.6669C54.8338 64.7707 54.3794 64.8737 53.925 64.9758C53.7495 64.9215 53.5882 64.8775 53.4513 64.8985C53.3285 64.9172 53.216 65.0251 53.104 65.1592C53.0337 65.1749 52.9634 65.1905 52.893 65.2061C52.439 65.3066 51.9849 65.4055 51.5307 65.5035C51.1763 65.3673 50.8049 65.235 50.322 65.1769C50.1139 65.1519 49.9085 65.0782 49.7111 65.0075C49.4195 64.9031 49.1452 64.805 48.9048 64.8783C48.744 64.9274 48.5749 64.8553 48.4063 64.7833C48.1801 64.6868 47.9543 64.5905 47.7496 64.787C47.6209 64.9105 47.5027 65.0607 47.3932 65.2C47.2191 65.4217 47.0669 65.6156 46.9291 65.629C46.6702 65.654 46.446 65.8155 46.2484 65.958C46.0107 66.1293 45.8114 66.2731 45.6363 66.1182C45.6098 66.0947 45.5794 66.0635 45.5452 66.028C45.365 65.841 45.0769 65.5419 44.6631 65.7063C44.5159 65.7649 44.3775 65.9171 44.242 66.0664C44.0448 66.2838 43.8532 66.4948 43.6481 66.4009C43.6174 66.3868 43.5854 66.328 43.5563 66.2742C43.5192 66.2058 43.4869 66.1461 43.4677 66.198C43.4115 66.3503 43.3222 66.5187 43.2253 66.7019C43.1541 66.8365 43.0786 66.9792 43.009 67.129C42.4775 67.2136 41.9459 67.2947 41.4142 67.3715C41.1706 67.4067 40.9269 67.441 40.6831 67.4744C40.5585 67.2451 40.431 67.0385 40.2963 66.8822C40.1203 66.678 39.8921 66.6154 39.598 66.5343C39.3816 66.4747 39.1293 66.4049 38.8358 66.262C38.2925 65.9974 37.7344 66.0568 37.3767 66.1986C37.3011 66.2286 37.225 66.2607 37.1437 66.2955C36.8352 66.4276 36.4503 66.5931 35.7192 66.7756C35.0275 66.9482 34.4394 66.993 33.9975 67.0266C33.772 67.0438 33.5845 67.0576 33.4409 67.0845C33.1951 67.1305 32.8933 67.1715 32.5904 67.2124C32.1162 67.2765 31.6391 67.3407 31.369 67.4263C31.2729 67.4568 31.172 67.4945 31.063 67.5347C30.7611 67.6464 30.3964 67.781 29.8937 67.8589C29.366 67.9406 29.0389 67.8849 28.6992 67.7638C28.5611 67.7146 28.4392 67.5201 28.3137 67.3191C28.1356 67.0338 27.9498 66.7361 27.6985 66.8249C27.6398 66.8457 27.5772 66.8921 27.5117 66.9407C27.3914 67.0301 27.2613 67.127 27.1281 67.0845C27.0817 67.0697 27.0407 67.0169 27.0006 66.9651C26.9565 66.9081 26.9132 66.8524 26.8642 66.8493C26.6811 66.8377 26.503 66.8509 26.3447 66.8627C26.1405 66.878 25.9693 66.8906 25.8631 66.8444C25.6737 66.7621 25.4667 66.8358 25.257 66.9109C25.0969 66.9682 24.9351 67.0265 24.7784 67.0156C24.3308 66.9846 23.7153 67.1251 23.081 67.3593C22.8411 67.4478 22.6378 67.3269 22.3772 67.1716C22.2152 67.0751 22.031 66.9648 21.8021 66.884C21.6723 66.8383 21.5623 66.946 21.4606 67.0455C21.3668 67.1372 21.2799 67.2219 21.1907 67.1741C21.112 67.1317 21.0622 66.9506 21.0149 66.7786C20.9623 66.5872 20.9128 66.4072 20.83 66.4423C20.7859 66.461 20.7324 66.5516 20.6686 66.6592C20.6434 66.7018 20.6165 66.7468 20.5881 66.7914C20.5895 66.7547 20.5899 66.7219 20.5899 66.697C20.59 66.5213 20.5055 66.4288 20.4226 66.3381C20.3895 66.302 20.3565 66.2662 20.3294 66.2254C20.2298 66.0753 20.0411 66.0509 19.8968 66.0579C19.8358 66.0608 19.7805 66.0063 19.716 65.9427C19.6588 65.8863 19.5942 65.8226 19.5119 65.7855C19.4649 65.7644 19.4289 65.7135 19.399 65.671C19.3774 65.6402 19.3591 65.6139 19.342 65.607C19.3273 65.6011 19.3154 65.6514 19.302 65.7082C19.2924 65.749 19.2819 65.7932 19.269 65.8221C19.2383 65.8911 19.1988 65.9119 19.1711 65.8897C19.1583 65.8795 19.1482 65.8599 19.1381 65.8404C19.1264 65.8177 19.1148 65.7948 19.0987 65.7868C19.0252 65.7501 18.9536 65.8075 18.8792 65.8672C18.7975 65.9328 18.7123 66.0009 18.6174 65.95C18.5875 65.934 18.5557 65.8973 18.5249 65.8617C18.4927 65.8244 18.4614 65.7884 18.4348 65.7788C18.3266 65.7399 18.225 65.8656 18.1315 65.9811C18.0693 66.058 18.0106 66.1303 17.9562 66.1468C17.8563 66.1771 17.8027 66.3279 17.7632 66.4393C17.7427 66.497 17.726 66.5444 17.7085 66.5587C17.6925 66.5545 17.6762 66.5495 17.6602 66.5441C17.6456 66.533 17.6305 66.5215 17.6163 66.5252C17.6152 66.5255 17.6141 66.5261 17.6131 66.5264C17.5238 66.4898 17.4361 66.438 17.3489 66.3863C17.1532 66.2701 16.9599 66.1551 16.7555 66.2199C16.7114 66.2339 16.6665 66.2962 16.6209 66.3595C16.5649 66.437 16.5077 66.5163 16.4494 66.5106C16.3105 66.497 16.1703 66.3943 16.0322 66.2931C15.8245 66.1408 15.6215 65.9922 15.4348 66.1554C15.3732 66.2092 15.3131 66.2989 15.2529 66.3893C15.2193 66.4397 15.1855 66.4905 15.1515 66.5349C15.1587 66.4525 15.1625 66.375 15.1661 66.3028C15.1735 66.154 15.1799 66.0266 15.2126 65.9184C15.2899 65.6626 15.3775 65.3106 15.3678 65.0538C15.3651 64.9841 15.3672 64.9065 15.3696 64.8284C15.3754 64.6323 15.3814 64.4321 15.3096 64.3416C15.2612 64.2806 15.1369 64.1405 15.0578 64.2904C15.0406 64.3231 15.0302 64.3878 15.0185 64.4598C14.9975 64.5891 14.9726 64.7422 14.8976 64.7778C14.885 64.7838 14.8713 64.7892 14.8571 64.7943C14.8006 64.8144 14.7373 64.8366 14.7136 64.9405C14.6864 65.0602 14.6922 65.1973 14.699 65.3572C14.7078 65.5655 14.7183 65.8128 14.6596 66.1109C14.648 66.1698 14.6258 66.19 14.609 66.2053C14.5972 66.2161 14.5882 66.2248 14.5873 66.2425C14.5863 66.2629 14.59 66.3052 14.5948 66.3589C14.6118 66.548 14.6412 66.8786 14.5184 66.8926C14.4852 66.8963 14.4472 66.8806 14.4131 66.8664C14.3629 66.8454 14.3212 66.8281 14.3156 66.8822C14.3135 66.9027 14.312 66.925 14.3108 66.948C14.2708 66.9415 14.2308 66.935 14.1908 66.9285C14.1396 66.864 14.0676 66.8696 13.9778 66.8767C13.956 66.8785 13.933 66.8801 13.9091 66.881C13.8302 66.8677 13.7513 66.8544 13.6724 66.8408C13.6099 66.8134 13.5433 66.7689 13.4731 66.6982C13.3323 66.5566 13.2098 66.3229 13.0902 66.0944C13.0397 65.9982 12.9898 65.9026 12.9391 65.8154C12.9588 65.8047 12.9766 65.792 12.9904 65.7746C13.0842 65.6552 13.1219 65.4204 13.1565 65.2043C13.1796 65.0605 13.2013 64.925 13.2373 64.8375C13.3033 64.6773 13.2966 64.4899 13.2918 64.3513C13.2893 64.2795 13.2874 64.2206 13.2962 64.1856C13.3032 64.1576 13.3196 64.1444 13.3364 64.1308C13.3511 64.1189 13.3663 64.1064 13.376 64.0839C13.4939 63.8095 13.4585 63.6503 13.4069 63.4186C13.3785 63.2907 13.3453 63.1407 13.33 62.9372C13.3169 62.7218 13.3213 62.6587 13.3831 62.5729C13.335 62.4665 13.2868 62.3601 13.2387 62.2536C13.2198 62.2606 13.2055 62.3271 13.1854 62.4376C13.1494 62.6351 13.0324 62.7072 12.9409 62.7636C12.8986 62.7897 12.8617 62.8125 12.8409 62.8428C12.7303 63.0038 12.7624 63.228 12.7908 63.4253C12.8064 63.5338 12.8208 63.6343 12.8096 63.7116C12.8048 63.7447 12.8116 63.7775 12.8185 63.8109C12.8238 63.8368 12.8292 63.8631 12.8295 63.8901C12.8309 64.0866 12.7655 64.2324 12.7047 64.3678C12.6699 64.4453 12.6368 64.5197 12.6184 64.5981C12.6128 64.622 12.6084 64.6463 12.6042 64.67C12.5982 64.7045 12.5922 64.7374 12.583 64.7656C12.5618 64.8299 12.5183 64.8732 12.4706 64.9204C12.4461 64.9446 12.4206 64.9699 12.3964 64.9996C12.3651 65.0381 12.3539 65.1158 12.3419 65.197C12.3335 65.2544 12.3247 65.3134 12.3085 65.3621C12.2792 65.4501 12.22 65.4819 12.165 65.5114C12.1411 65.5242 12.1179 65.537 12.0984 65.5534C12.0905 65.5601 12.0867 65.5735 12.0858 65.5918C11.9956 65.6533 11.9094 65.7161 11.8256 65.7776C11.4052 66.0861 11.0413 66.3535 10.4979 66.1596C10.3951 66.123 10.2848 66.1303 10.1733 66.1596C9.81665 66.0826 9.4598 66.003 9.10328 65.9214C9.03271 65.7444 8.94638 65.5957 8.84419 65.4791C8.65226 65.2601 8.45483 65.2133 8.22186 65.158C8.04962 65.1171 7.85793 65.0715 7.63455 64.9484C7.25925 64.7415 6.87392 64.5666 6.43911 64.4756C6.00619 64.3851 5.51055 64.3183 5.15989 64.2947C4.96874 64.2817 4.76795 64.1234 4.58082 63.976C4.3176 63.7687 4.08141 63.5829 3.93721 63.8523C3.89116 63.9384 3.84664 64.0879 3.80331 64.2331C3.77246 64.3366 3.74203 64.4376 3.71222 64.5128C3.63285 64.4894 3.55339 64.4663 3.47395 64.4427C3.33283 64.2632 3.11352 64.0707 2.90152 64.2709C2.81959 64.2462 2.7376 64.2216 2.65845 64.1966C2.48573 64.1444 2.31674 64.0915 2.14622 64.0382C2.09056 64.0206 2.03434 64.0029 1.97799 63.9852C1.97746 63.985 1.97692 63.9848 1.97639 63.9846C1.86296 63.9488 1.74867 63.9129 1.63627 63.8767C1.58813 63.8613 1.53999 63.8458 1.49185 63.8304C1.36951 63.7912 1.24628 63.7519 1.12518 63.7122C1.06108 63.6911 0.996369 63.6701 0.931546 63.6489C0.826381 63.6143 0.720421 63.5796 0.615003 63.5447C0.44452 63.4882 0.274836 63.431 0.104828 63.3735C0.0770242 63.3639 0.0503059 63.3341 0.0306701 63.2888C0.0110414 63.2434 -3.0007e-05 63.1865 6.10806e-08 63.1279C3.85052e-05 63.0693 0.0112035 63.0123 0.030899 62.9671C0.0505814 62.922 0.0772724 62.8929 0.105056 62.8836C0.275186 62.8276 0.445087 62.7722 0.61569 62.7173C0.721127 62.6833 0.827049 62.6491 0.932232 62.6155C0.997086 62.5949 1.06174 62.5745 1.12587 62.554C1.24698 62.5154 1.37041 62.4769 1.49276 62.4389C1.5409 62.4238 1.58904 62.4088 1.63719 62.3938C1.74988 62.3586 1.86449 62.3237 1.97822 62.289C1.9789 62.2888 1.97959 62.2886 1.98028 62.2884C2.03623 62.2713 2.09209 62.2542 2.14736 62.2372C2.31795 62.1855 2.48704 62.1343 2.65983 62.0837C2.7491 62.0563 2.84213 62.0296 2.93448 62.0026C2.9859 61.9876 3.03722 61.9725 3.0876 61.9575C3.11515 61.9496 3.14307 61.9417 3.17115 61.9338C3.81542 61.7465 4.45516 61.5662 5.10084 61.3934C5.7441 61.2205 6.38851 61.0547 7.03099 60.8956C7.67503 60.7364 8.31794 60.5841 8.96138 60.438C13.0449 59.5102 17.1447 58.7494 21.2463 58.2733C21.8314 58.205 22.4317 58.1433 23.0179 58.0881C23.6105 58.0328 24.1909 57.9838 24.7851 57.9419C24.9655 57.9288 25.1505 57.9165 25.3403 57.9047Z" fill="black"/>
<path d="M42.7247 44.2961C42.7596 43.7347 43.3651 43.228 43.6567 42.5806C43.7423 42.3777 43.8014 42.1735 43.8112 41.9688C43.89 40.8844 42.869 39.5925 43.0349 39.7549C43.053 39.7732 43.0761 39.8037 43.1083 39.8489C42.9224 38.9936 42.6477 38.026 42.3413 37.0918C42.2323 36.7544 42.1075 36.4084 42.0341 36.1479C41.762 35.488 41.4097 34.7744 41.0493 34.0921C40.9281 33.8571 40.7842 33.6086 40.7183 33.4378C40.9891 33.6178 40.9613 33.5565 40.9811 33.5506C40.9866 33.5315 40.9655 33.4982 40.9408 33.464C40.8873 33.3934 40.8104 33.313 40.7284 33.2312C40.5627 33.067 40.3754 32.8956 40.1861 32.7237C39.8051 32.3789 39.4094 32.0286 39.0131 31.6751C38.9227 31.5943 38.8321 31.5133 38.7405 31.4317L38.851 31.4747C38.3502 31.013 37.7666 30.6327 37.025 30.2454C36.9841 30.2237 36.9445 30.2022 36.9032 30.1805C36.5696 30.0039 36.2458 29.8265 35.9216 29.6489C35.6496 29.4996 35.3779 29.3503 35.1059 29.2014C35.0682 29.1806 35.0391 29.1159 35.0259 29.0187C35.0126 28.9213 35.0157 28.7999 35.0356 28.6771C35.0555 28.5543 35.091 28.4378 35.1345 28.35C35.1778 28.2624 35.2259 28.2111 35.2683 28.2038C35.5763 28.1523 35.8843 28.1014 36.1915 28.0503C36.5327 27.9936 36.873 27.9367 37.2094 27.8787C37.2001 28.0374 37.1945 28.1847 37.1941 28.318C37.1913 28.6144 37.2191 28.8423 37.2917 28.9729C37.3453 29.0695 37.4378 29.1206 37.5245 29.0384C37.6031 28.9646 37.6764 28.8226 37.7468 28.6873C37.821 28.546 37.8921 28.4121 37.9621 28.3725C38.0813 28.3055 38.22 28.11 38.3733 27.9074C38.4292 27.8337 38.4867 27.7589 38.546 27.6891C38.9186 27.6572 39.3232 27.6501 39.7225 27.6672C39.8491 27.7633 39.9621 27.8474 40.0754 27.8647C40.0896 27.8668 40.1044 27.8673 40.1195 27.8663C40.1417 27.8807 40.2213 27.8983 40.2424 27.9141C40.3231 27.9088 40.421 27.8463 40.5279 27.7666C40.5791 27.7715 40.6293 27.7759 40.6804 27.7808C41.009 27.812 41.3374 27.8452 41.6689 27.8818C41.8436 28.1059 42.0296 28.3307 42.3242 28.5254C42.4515 28.6096 42.5583 28.7386 42.6632 28.8648C42.8205 29.0527 42.9631 29.2283 43.1992 29.2689C43.2661 29.281 43.3287 29.3153 43.3992 29.3711C43.4736 29.4316 43.5349 29.4882 43.7188 29.6664C43.7313 29.6907 43.7434 29.7157 43.7557 29.7408C43.8493 29.9413 43.9154 30.1266 44.1657 30.0859C44.322 30.0595 44.4919 30.0107 44.6482 29.9649C44.8977 29.8929 45.1185 29.834 45.2053 29.8979C45.3692 30.0187 45.606 30.024 45.8161 30.0316C46.0687 30.0405 46.2824 30.0525 46.2676 30.2593C46.2653 30.2906 46.2595 30.3294 46.2527 30.3734C46.2171 30.6057 46.153 30.9702 46.4905 31.0949C46.6112 31.14 46.7965 31.1181 46.9796 31.0991C47.2459 31.0712 47.5084 31.0507 47.5461 31.2393C47.5517 31.2675 47.5238 31.3256 47.4981 31.3785C47.4655 31.4457 47.4368 31.5042 47.4865 31.4827C47.5537 31.4535 47.6273 31.4268 47.706 31.4011C47.8019 31.3754 47.9058 31.3528 48.0151 31.3303C48.1616 31.2968 48.3201 31.2662 48.4777 31.2238C48.858 31.5679 49.1911 31.8929 49.5121 32.2286C49.6585 32.3816 49.8014 32.5362 49.9415 32.6931C49.8056 32.9061 49.6874 33.106 49.6138 33.2836C49.5165 33.5142 49.561 33.7067 49.6123 33.9536C49.6498 34.1351 49.6923 34.3488 49.6815 34.6246C49.6617 35.1344 49.9143 35.5002 50.1691 35.7009C50.2229 35.7429 50.2788 35.7853 50.3388 35.8303C50.526 35.9721 50.7526 36.144 51.0545 36.4836C51.1481 36.6249 51.2409 36.7792 51.3286 36.937C51.7924 37.7899 51.909 38.3882 52.0037 38.8256C52.049 39.0475 52.0799 39.225 52.1187 39.3578C52.1851 39.5857 52.2442 39.8594 52.2963 40.1263C52.3784 40.5427 52.4442 40.9469 52.5285 41.1723C52.5585 41.2543 52.5955 41.3362 52.6344 41.4285C52.7422 41.6797 52.8695 41.984 52.9288 42.3922C52.9805 42.7504 52.9375 42.9853 52.8408 43.2044C52.8217 43.25 52.8005 43.2946 52.7775 43.3394C52.7199 43.4517 52.5179 43.5381 52.3087 43.6252C52.0118 43.749 51.7018 43.8706 51.7684 44.0852C51.784 44.1351 51.8244 44.1921 51.8667 44.2514C51.9443 44.3609 52.0276 44.4808 51.9713 44.5872C51.9517 44.624 51.8949 44.6517 51.8391 44.6783C51.7778 44.7075 51.7178 44.736 51.7092 44.7763C51.677 44.9266 51.668 45.0767 51.6589 45.2107C51.6472 45.3835 51.6348 45.5295 51.5735 45.6104C51.4644 45.7543 51.5043 45.9402 51.5419 46.1319C51.5706 46.2782 51.5981 46.4277 51.5577 46.558C51.5326 46.6386 51.5133 46.7282 51.4992 46.8244C51.4529 47.1515 51.4762 47.5678 51.5314 48.0329C51.5576 48.2588 51.3889 48.3976 51.1677 48.5752C51.0297 48.686 50.8714 48.8111 50.719 48.9928C50.6324 49.0961 50.6932 49.2381 50.7448 49.3775C50.7848 49.4854 50.8192 49.5915 50.7772 49.6706C50.7674 49.69 50.755 49.7081 50.7394 49.7247C50.6518 49.8189 50.4593 49.8024 50.2772 49.7853C50.0748 49.7653 49.8879 49.7382 49.8767 49.8381C49.8713 49.8901 49.9232 49.9871 49.9864 50.0976C50.0111 50.1417 50.0369 50.189 50.0612 50.2378C50.0297 50.2189 50.001 50.2029 49.9792 50.191C49.824 50.1085 49.7018 50.14 49.5818 50.1684C49.5345 50.1787 49.4877 50.1888 49.4393 50.1912C49.261 50.201 49.1537 50.3348 49.0928 50.4469C49.0677 50.4934 48.9947 50.5077 48.9122 50.5195C48.8389 50.5302 48.7547 50.5441 48.6874 50.5803C48.6486 50.6016 48.5896 50.599 48.5404 50.5966C48.5048 50.595 48.475 50.5925 48.4616 50.6003C48.4502 50.6069 48.4871 50.6426 48.5285 50.6828C48.5583 50.7117 48.5906 50.7432 48.6089 50.7679C48.6528 50.8267 48.6516 50.8661 48.621 50.8722C48.6067 50.8751 48.5859 50.871 48.5652 50.8669C48.5411 50.8621 48.5169 50.8571 48.503 50.8634C48.4395 50.8924 48.4551 50.9719 48.4711 51.0544C48.4881 51.1458 48.5061 51.2399 48.4211 51.273C48.3944 51.2834 48.3497 51.2833 48.3069 51.2823C48.262 51.2815 48.2185 51.2808 48.1987 51.2922C48.1177 51.3397 48.1757 51.4747 48.2265 51.6022C48.2606 51.6863 48.2929 51.7651 48.2813 51.8093C48.2596 51.8907 48.3576 52.012 48.429 52.103C48.4661 52.15 48.4965 52.1886 48.4999 52.2082C48.4891 52.2159 48.4775 52.2232 48.4656 52.2301C48.4498 52.2328 48.4336 52.2356 48.4301 52.2465C48.4298 52.2473 48.4298 52.2483 48.4296 52.2492C48.3594 52.2825 48.2765 52.3071 48.1952 52.3293C48.0122 52.3798 47.8316 52.4275 47.7894 52.5887C47.7802 52.6235 47.8087 52.6885 47.8374 52.7548C47.8729 52.8356 47.9092 52.9181 47.8775 52.9496C47.8012 53.0253 47.6563 53.0435 47.5123 53.0623C47.2968 53.0894 47.0872 53.1133 47.1274 53.3232C47.1408 53.3923 47.1825 53.4833 47.2243 53.5752C47.2476 53.6265 47.271 53.6782 47.2896 53.7256C47.2291 53.6694 47.1708 53.6183 47.1165 53.5706C47.0046 53.4724 46.9086 53.3886 46.84 53.3014C46.6779 53.0954 46.4442 52.8245 46.2402 52.6685C46.1848 52.6261 46.1255 52.5761 46.0658 52.5256C45.9161 52.399 45.7631 52.2698 45.6606 52.2525C45.5913 52.241 45.4273 52.2207 45.5081 52.3587C45.5256 52.3888 45.571 52.4356 45.6215 52.4876C45.712 52.5811 45.8192 52.6919 45.8124 52.7563C45.8113 52.7671 45.8093 52.778 45.8068 52.789C45.7968 52.8328 45.7852 52.8818 45.8544 52.9611C45.9343 53.0525 46.0426 53.1367 46.169 53.2347C46.3336 53.3624 46.5293 53.5138 46.7315 53.7371C46.7715 53.7813 46.7766 53.8068 46.7804 53.8261C46.7832 53.8397 46.7855 53.8504 46.7988 53.8622C46.814 53.8758 46.8484 53.9007 46.8919 53.9322C47.0457 54.043 47.3138 54.2377 47.2667 54.3163C47.2539 54.3376 47.2238 54.3492 47.1967 54.3595C47.1567 54.3748 47.1235 54.3876 47.1623 54.4255C47.1771 54.4398 47.1934 54.4549 47.2105 54.4704C47.2028 54.4764 47.195 54.4824 47.1873 54.4885C47.1711 54.5009 47.155 54.5133 47.1389 54.5257C47.0656 54.5127 47.0356 54.5571 46.998 54.6129C46.9888 54.6265 46.9789 54.6407 46.9681 54.655C46.9196 54.6917 46.8707 54.729 46.8206 54.7667C46.7687 54.7855 46.7008 54.7965 46.611 54.7925C46.4311 54.7844 46.1896 54.7059 45.9542 54.6274C45.8551 54.5942 45.7565 54.5613 45.6642 54.5338C45.6668 54.5148 45.667 54.4956 45.6613 54.4757C45.6224 54.3398 45.4652 54.1628 45.3206 54C45.2242 53.8919 45.1331 53.7902 45.0851 53.7122C44.997 53.5693 44.8518 53.4507 44.7451 53.3623C44.6896 53.3165 44.6443 53.2789 44.6221 53.2512C44.6043 53.2289 44.6021 53.2113 44.5998 53.1931C44.5979 53.1773 44.5957 53.1608 44.5832 53.1406C44.4311 52.8971 44.2931 52.8132 44.0942 52.689C43.9845 52.6204 43.8557 52.5401 43.6951 52.4146C43.5265 52.2802 43.4809 52.2366 43.4436 52.1486C43.3415 52.1039 43.2402 52.0583 43.1388 52.0127C43.1357 52.0267 43.1795 52.0777 43.2538 52.1606C43.3866 52.3087 43.388 52.4164 43.3885 52.5004C43.3888 52.5393 43.3888 52.5735 43.4018 52.6043C43.4705 52.7684 43.6506 52.9034 43.8107 53.0205C43.8987 53.0851 43.9803 53.1447 44.0322 53.2025C44.0544 53.2272 44.0821 53.2455 44.1102 53.2643C44.132 53.2787 44.1542 53.2934 44.1744 53.3114C44.3212 53.4419 44.3968 53.5759 44.4657 53.7012C44.5051 53.7731 44.5426 53.8422 44.5906 53.9057C44.6053 53.9251 44.6209 53.9441 44.636 53.9626C44.6582 53.9895 44.6793 54.0151 44.695 54.0397C44.7309 54.0955 44.7393 54.1503 44.7477 54.2104C44.7519 54.2412 44.7563 54.2735 44.7645 54.3081C44.7752 54.353 44.8252 54.4131 44.8773 54.4761C44.9142 54.5206 44.952 54.5666 44.9779 54.61C45.0248 54.6884 45.0131 54.7465 45.0017 54.8006C44.9968 54.8241 44.9921 54.8472 44.9922 54.8706C44.9922 54.8802 44.9994 54.8919 45.012 54.9052C45.0017 55.0036 44.9933 55.101 44.984 55.1966C44.9411 55.6519 44.8685 56.0685 44.442 56.2387C44.4244 56.2444 44.4061 56.2496 44.3869 56.2541C44.3078 56.2729 44.2535 56.3282 44.2115 56.4018C43.9684 56.5054 43.7211 56.6082 43.4692 56.7099C43.3175 56.6056 43.1742 56.5309 43.0431 56.4874C42.7966 56.406 42.6557 56.4601 42.4874 56.5239C42.3632 56.5708 42.2231 56.6237 42.0158 56.6286C41.6665 56.6374 41.3317 56.6714 41.0024 56.7911C40.6751 56.9105 40.3014 57.0702 40.016 57.1958C39.861 57.2648 39.6213 57.2057 39.403 57.1358C39.2608 57.0901 39.1246 57.0413 39.0169 57.0282C38.92 57.0051 38.8568 57.0384 38.8452 57.1923C38.8382 57.2842 38.8504 57.4365 38.8621 57.5844C38.8704 57.6898 38.8786 57.7926 38.8793 57.8708C38.8172 57.8647 38.7562 57.8584 38.696 57.8512C38.5469 57.7074 38.3475 57.564 38.2537 57.7976C38.1912 57.7892 38.127 57.7813 38.0659 57.7719C37.9327 57.7539 37.8013 57.7339 37.6694 57.7127C37.6254 57.7058 37.5843 57.6981 37.539 57.6912C37.5385 57.6911 37.5381 57.691 37.5377 57.6909C37.4496 57.6762 37.3612 57.6609 37.2735 57.6448C37.2353 57.638 37.2001 57.6305 37.1612 57.6238C37.0668 57.6056 36.9696 57.5874 36.8758 57.5671C36.8245 57.5566 36.7758 57.5455 36.7239 57.5345C36.6418 57.5162 36.5587 57.4972 36.4751 57.477C36.3404 57.444 36.2088 57.4089 36.0577 57.3667C36.0333 57.3595 36.0047 57.3318 35.9798 57.2877C35.9563 57.2435 35.9387 57.1865 35.9398 57.1279C35.9398 57.0693 35.9523 57.0123 35.9641 56.9664C35.9774 56.9207 35.9928 56.8902 36.0101 56.8791C36.1196 56.8116 36.2241 56.7375 36.3262 56.6631C36.3901 56.6169 36.4534 56.5695 36.5155 56.5224C36.5551 56.4931 36.5916 56.4646 36.6303 56.4352C36.7008 56.3804 36.7742 56.3242 36.8447 56.2687C36.8741 56.2464 36.8999 56.2248 36.9284 56.2025C36.9939 56.1506 37.0599 56.0985 37.1254 56.0462C37.1258 56.0459 37.1262 56.0456 37.1266 56.0453C37.1602 56.0192 37.1899 55.994 37.2223 55.9681C37.3199 55.8897 37.4166 55.8112 37.5149 55.7321C37.5654 55.6901 37.6185 55.6479 37.6707 55.6054C37.7003 55.5816 37.7294 55.5578 37.7573 55.5345C37.7728 55.5218 37.7887 55.5092 37.8048 55.4964C38.0064 55.3318 38.2061 55.1674 38.405 55.0037C38.455 54.9052 38.532 54.7863 38.6143 54.6552C38.8009 54.3609 39.0172 54.0118 39.2343 53.6524C39.4532 53.2914 39.6794 52.9155 39.9119 52.536C40.1057 52.2193 40.3033 51.8984 40.5063 51.5755C40.842 50.9463 40.9884 50.4036 41.3532 49.6097C41.6637 48.9024 41.9636 48.2089 42.2211 47.5579C42.3483 47.2343 42.4652 46.9201 42.5484 46.6458C42.6251 46.3893 42.6965 46.0873 42.5815 46.1688C42.5813 46.1681 42.5811 46.1673 42.5809 46.1665C42.5576 46.0499 42.597 45.7523 42.6221 45.4675C42.6458 45.2265 42.6702 44.9733 42.6949 44.7142C42.6988 44.6635 42.7026 44.6124 42.7063 44.5613C42.7123 44.4752 42.7185 44.387 42.7247 44.2961Z" fill="black"/>
</svg>
