<svg width="63" height="61" viewBox="0 0 63 61" fill="none" xmlns="http://www.w3.org/2000/svg">
<path d="M38.0104 30.5785C36.8934 32.1137 35.0281 32.9512 33.8297 34.4288C32.3416 36.2632 31.517 38.6832 29.8997 40.4201C28.2909 42.1462 26.6194 43.8362 24.9098 45.4858C23.1986 47.1374 21.447 48.7518 19.6634 50.3464C17.8831 51.9371 16.0707 53.5084 14.2442 55.0642C13.0036 56.1209 11.7544 57.1729 10.5034 58.221C9.95441 58.6812 9.40626 59.1394 8.85661 59.5987C8.44637 59.9411 8.03614 60.2836 7.6259 60.626C7.56871 60.6735 7.47881 60.6906 7.37347 60.6716C7.26801 60.6524 7.15619 60.5993 7.05956 60.521C6.96289 60.4426 6.88755 60.3439 6.84725 60.2448C6.80714 60.1459 6.80585 60.0549 6.84083 59.9894C7.09568 59.5155 7.35056 59.0415 7.6054 58.5676C7.88861 58.0412 8.17099 57.5156 8.45465 56.9899C8.90957 57.2392 9.29033 57.3842 9.57281 57.307C9.71694 57.2676 9.85644 57.153 9.86469 56.992C9.87205 56.8475 9.8094 56.6833 9.74948 56.5272C9.68681 56.3639 9.62731 56.2088 9.65511 56.0938C9.70224 55.8985 9.64228 55.6281 9.57924 55.3441C9.5563 55.2407 9.53288 55.1354 9.51416 55.0314C9.7861 54.5305 10.0587 54.03 10.332 53.5302C10.5104 53.3962 10.6698 53.2692 10.7598 53.1248C10.8405 52.9953 10.8439 52.8196 10.8265 52.6279C10.869 52.5506 10.9114 52.4733 10.9538 52.396C11.2281 51.8976 11.5037 51.4001 11.7799 50.9031C12.1608 50.6491 12.5519 50.3763 12.9718 49.9499C13.1527 49.7661 13.3693 49.6156 13.5775 49.4709C13.8849 49.2571 14.174 49.0559 14.3036 48.7792C14.3902 48.5943 14.5775 48.4776 14.7643 48.3611C15.0149 48.205 15.265 48.0492 15.2711 47.7294C15.2749 47.5283 15.2499 47.3205 15.2266 47.1279C15.1894 46.8214 15.1568 46.5535 15.2534 46.413C15.4348 46.1491 15.4833 45.8326 15.5259 45.5535C15.5772 45.2179 15.6201 44.9364 15.8763 44.866C15.9152 44.8553 15.963 44.8459 16.0171 44.8354C16.3023 44.7804 16.7584 44.6923 16.9517 44.1923C17.0205 44.0142 17.0096 43.7858 16.9986 43.562C16.9827 43.2361 16.9674 42.9197 17.1996 42.7822C17.2343 42.7616 17.3049 42.768 17.3693 42.7739C17.4512 42.7815 17.5227 42.788 17.4972 42.7369C17.4225 42.5872 17.3609 42.3957 17.2937 42.1876C17.2444 42.0346 17.192 41.8725 17.1296 41.7115C17.4763 41.1487 17.8258 40.5881 18.1788 40.0301C18.3405 39.7745 18.5029 39.5193 18.6661 39.2646C18.941 39.2894 19.2006 39.2971 19.4265 39.2664C19.7219 39.2262 19.9476 39.0468 20.2388 38.8159C20.4531 38.646 20.7031 38.4481 21.042 38.2566C21.6692 37.9023 22.0562 37.3299 22.2235 36.8978C22.2589 36.8064 22.293 36.7134 22.329 36.6135C22.4657 36.2347 22.6358 35.7616 23.0614 34.9459C23.4639 34.1743 23.8856 33.5823 24.2023 33.1376C24.364 32.9106 24.4987 32.7222 24.5893 32.5676C24.7443 32.303 24.9466 31.9879 25.1499 31.6718C25.468 31.177 25.7884 30.6792 25.9315 30.3665C25.9824 30.2551 26.0314 30.1347 26.0846 30.0049C26.2322 29.6452 26.4105 29.2109 26.7402 28.68C27.0862 28.1228 27.3833 27.8443 27.741 27.5948C27.8864 27.4933 28.1322 27.499 28.3858 27.5051C28.7457 27.5139 29.1213 27.5231 29.2473 27.2263C29.2767 27.157 29.2893 27.0678 29.3023 26.9744C29.3261 26.8029 29.3518 26.6172 29.4882 26.5162C29.5358 26.481 29.6086 26.475 29.6799 26.4692C29.7585 26.4627 29.8353 26.4563 29.8758 26.4112C30.0269 26.243 30.1549 26.0639 30.2686 25.9047C30.4151 25.6995 30.5381 25.5274 30.6565 25.4546C30.8674 25.3249 30.9708 25.0801 31.0752 24.8319C31.1549 24.6423 31.2352 24.4505 31.3651 24.3072C31.7366 23.8976 32.105 23.2192 32.4153 22.4639C32.5327 22.1781 32.7845 22.0593 33.1073 21.9073C33.3081 21.8127 33.5367 21.7055 33.7772 21.5368C33.9134 21.4412 33.915 21.2681 33.9167 21.1079C33.9182 20.9603 33.9198 20.8237 34.0262 20.7683C34.1202 20.7195 34.2995 20.7857 34.4699 20.8486C34.6595 20.9187 34.8379 20.9845 34.8748 20.883C34.8945 20.829 34.8657 20.7206 34.8315 20.5918C34.8179 20.5409 34.8038 20.4868 34.7912 20.4314C34.8186 20.4559 34.8439 20.4769 34.8632 20.4926C34.9997 20.6032 35.1372 20.5804 35.272 20.558C35.3258 20.549 35.3791 20.5399 35.4319 20.5396C35.6259 20.5385 35.7913 20.373 35.8978 20.2304C35.9429 20.1701 36.0281 20.1513 36.1276 20.1295C36.2159 20.1101 36.3155 20.0883 36.4082 20.0327C36.461 20.001 36.5286 19.9984 36.5848 19.9966C36.6255 19.9953 36.6601 19.9942 36.6787 19.9822C36.6948 19.9718 36.6649 19.9287 36.6312 19.8802C36.607 19.8453 36.5807 19.8074 36.5682 19.7769C36.5385 19.704 36.553 19.6531 36.5917 19.6405C36.6096 19.6346 36.6327 19.6373 36.6556 19.6399C36.6824 19.643 36.7092 19.6462 36.7279 19.6359C36.8135 19.5885 36.8244 19.4837 36.8357 19.3749C36.8481 19.2553 36.8613 19.1307 36.9745 19.0718C37.0101 19.0532 37.0633 19.0458 37.1149 19.0387C37.1689 19.0313 37.2212 19.0239 37.2493 19.0044C37.3634 18.9252 37.3447 18.7488 37.3274 18.5864C37.3159 18.4785 37.3053 18.3767 37.3347 18.3141C37.3886 18.1993 37.313 18.0531 37.2571 17.9451C37.2281 17.8892 37.2043 17.8434 37.2067 17.8175C37.2225 17.8048 37.239 17.7923 37.2556 17.7805C37.2756 17.7734 37.2962 17.7661 37.3044 17.7502C37.305 17.749 37.3053 17.7476 37.3059 17.7464C37.4036 17.6838 37.512 17.6323 37.6198 17.5814C37.862 17.4668 38.1014 17.3538 38.2096 17.1171C38.2329 17.0661 38.2194 16.9839 38.2056 16.9003C38.1888 16.7979 38.1716 16.6932 38.2212 16.6409C38.3396 16.5163 38.5282 16.4465 38.7141 16.3778C38.9936 16.2744 39.2667 16.1733 39.2847 15.8918C39.2906 15.7989 39.2675 15.6848 39.244 15.5701C39.2309 15.5062 39.2176 15.4419 39.2095 15.3813C39.2681 15.4401 39.3253 15.4926 39.3786 15.5414C39.4885 15.6422 39.5826 15.7284 39.6413 15.8279C39.7801 16.0629 39.9858 16.3684 40.1929 16.5206C40.2491 16.5619 40.3077 16.6128 40.3667 16.6642C40.5145 16.7932 40.6655 16.9249 40.7916 16.913C40.8765 16.905 41.0819 16.874 41.0267 16.7039C41.0147 16.6668 40.9725 16.616 40.9256 16.5596C40.8414 16.4581 40.7418 16.3379 40.7722 16.2436C40.7773 16.2278 40.7838 16.2112 40.7909 16.1944C40.8191 16.1276 40.851 16.0529 40.7886 15.9649C40.7167 15.8634 40.6056 15.7827 40.4761 15.6886C40.3074 15.566 40.107 15.4205 39.9208 15.1766C39.8841 15.1284 39.8856 15.0944 39.8867 15.0687C39.8875 15.0506 39.8877 15.0365 39.8747 15.0245C39.8596 15.0107 39.8238 14.9877 39.7784 14.9585C39.6182 14.8557 39.3385 14.676 39.4229 14.5494C39.4457 14.5152 39.4874 14.4887 39.5249 14.465C39.5802 14.43 39.626 14.4009 39.5883 14.3616C39.574 14.3466 39.5578 14.3312 39.5409 14.3155C39.577 14.2813 39.613 14.2471 39.6491 14.2128C39.739 14.2043 39.7906 14.1318 39.8547 14.0412C39.8703 14.0192 39.8869 13.9961 39.9047 13.9727C39.9763 13.9055 40.0478 13.8382 40.1196 13.7711C40.1894 13.7284 40.2756 13.6926 40.3851 13.6697C40.6045 13.6239 40.8811 13.6535 41.1515 13.6826C41.2655 13.6948 41.3785 13.707 41.4857 13.7133C41.4787 13.739 41.4747 13.764 41.4776 13.7882C41.4975 13.9532 41.6508 14.1371 41.7919 14.3063C41.8857 14.4188 41.9742 14.5249 42.0143 14.6145C42.0876 14.7785 42.2384 14.8901 42.3499 14.9726C42.4077 15.0154 42.4549 15.0507 42.4753 15.0811C42.4916 15.1055 42.4891 15.1294 42.4866 15.1542C42.4845 15.1758 42.4824 15.1982 42.4924 15.2217C42.6141 15.5073 42.7654 15.5735 42.9855 15.6699C43.1069 15.7231 43.2493 15.7856 43.4193 15.899C43.5969 16.0221 43.6425 16.066 43.6613 16.1792C43.7813 16.2 43.9014 16.2208 44.0215 16.2416C44.0308 16.2192 43.9901 16.1636 43.9198 16.0747C43.7943 15.9161 43.8291 15.7585 43.8562 15.6353C43.8688 15.5783 43.8796 15.5286 43.8723 15.4896C43.833 15.2822 43.6338 15.172 43.4585 15.0751C43.362 15.0217 43.2727 14.9722 43.2213 14.9129C43.1993 14.8875 43.1685 14.8734 43.1372 14.8589C43.113 14.8478 43.0883 14.8364 43.0671 14.8196C42.9133 14.6974 42.8508 14.5429 42.7927 14.3995C42.7594 14.3174 42.7273 14.2388 42.6806 14.1719C42.6664 14.1515 42.6509 14.1319 42.6358 14.113C42.6136 14.0855 42.5927 14.0591 42.5779 14.0325C42.5444 13.9718 42.5445 13.9028 42.5449 13.8274C42.545 13.7887 42.5452 13.7483 42.5409 13.7064C42.5352 13.6522 42.4836 13.5925 42.4297 13.53C42.3917 13.4859 42.3526 13.4402 42.3273 13.3941C42.2817 13.3106 42.3029 13.2338 42.3227 13.1626C42.3313 13.1316 42.3393 13.1014 42.3417 13.0723C42.3426 13.0605 42.3352 13.0484 42.3216 13.0361C42.3438 12.9109 42.3619 12.7888 42.3791 12.6697C42.4656 12.0726 42.5402 11.5555 43.1126 11.1566C43.2208 11.0812 43.3007 10.9708 43.3644 10.8455C43.7011 10.5521 44.0399 10.2601 44.38 9.96965C44.5723 10.0134 44.7548 10.0242 44.9248 9.99961C45.244 9.95343 45.4336 9.79363 45.6573 9.60508C45.8227 9.46568 46.0069 9.31063 46.276 9.17397C46.728 8.94437 47.163 8.68509 47.5711 8.32551C47.9775 7.96749 48.414 7.53436 48.7045 7.21312C48.8629 7.03802 49.1418 6.94518 49.4015 6.85853C49.7669 6.73665 50.0946 6.62713 49.9971 6.31939C49.9659 6.22107 49.8843 6.08435 49.8051 5.95144C49.7486 5.85679 49.6937 5.76407 49.6584 5.68816C49.7381 5.62678 49.8178 5.56515 49.8978 5.50385C50.1468 5.48153 50.4666 5.39242 50.4755 5.06323C50.5583 5.00025 50.6411 4.93716 50.7219 4.87699C50.8965 4.74429 51.0688 4.61558 51.2425 4.48564C51.2994 4.44337 51.3568 4.40059 51.4143 4.35773C51.4149 4.35735 51.4154 4.35697 51.416 4.35658C51.5318 4.27032 51.6484 4.18338 51.7638 4.0984C51.8131 4.06197 51.8625 4.02553 51.9118 3.9891C52.0372 3.89647 52.1634 3.80308 52.2882 3.71198C52.3544 3.66383 52.4209 3.61499 52.4878 3.56624C52.5962 3.48715 52.7054 3.40742 52.8144 3.32836C52.9906 3.20048 53.1667 3.07377 53.3434 2.94703C53.3723 2.92637 53.4163 2.91956 53.4667 2.92923C53.5172 2.93896 53.57 2.96413 53.6155 3.00104C53.6611 3.03797 53.6967 3.08454 53.7166 3.13186C53.7363 3.17907 53.7383 3.223 53.7239 3.25547C53.6354 3.4538 53.5466 3.65152 53.4569 3.84961C53.4015 3.97205 53.3459 4.09514 53.2904 4.21707C53.2561 4.29225 53.2217 4.36701 53.1879 4.4414C53.1239 4.58178 53.0581 4.72435 52.9927 4.86556C52.967 4.92116 52.9413 4.97677 52.9157 5.03237C52.8556 5.16256 52.7937 5.29434 52.7325 5.42522C52.7321 5.426 52.7317 5.42679 52.7313 5.42757C52.7012 5.49196 52.6711 5.55628 52.6414 5.61994C52.5492 5.816 52.4578 6.0103 52.3631 6.20779C52.315 6.31056 52.2636 6.41654 52.2129 6.52206C52.1847 6.5808 52.1566 6.6395 52.1291 6.69721C52.114 6.72862 52.0984 6.76034 52.0828 6.79224C51.7284 7.5277 51.372 8.25435 51.0053 8.98206C50.6405 9.70746 50.2692 10.4295 49.8943 11.1455C49.5183 11.863 49.1377 12.5751 48.7519 13.2838C46.3042 17.782 43.7139 22.1908 40.901 26.4221C40.5001 27.0259 40.0821 27.6401 39.6702 28.2368C39.2532 28.8397 38.8409 29.4269 38.4124 30.0228C38.2826 30.2041 38.1486 30.3891 38.0104 30.5785Z" fill="black"/>
<path d="M50.4704 10.6257C50.0485 9.55506 50.3092 8.41639 50.4528 7.377C50.456 7.35389 50.4591 7.33076 50.4623 7.3076C50.6254 6.03566 50.9293 4.57054 51.9231 3.58155C52.9073 2.59793 54.2017 1.95761 55.5332 1.76728C56.3643 1.64583 57.2065 1.69745 57.9863 1.90069C58.4562 2.02252 58.9087 2.19897 59.329 2.42369C60.4483 3.01925 61.3211 3.95898 61.8243 5.01218C62.1687 5.72732 62.3485 6.49533 62.3648 7.24087C62.3723 7.56815 62.3489 7.89065 62.297 8.20365C62.2583 8.4367 62.2038 8.66588 62.1352 8.88608C62.1256 8.91681 62.0981 8.94389 62.0579 8.96066C62.0176 8.97745 61.9681 8.98264 61.9189 8.97543C61.8696 8.9682 61.8237 8.94918 61.7895 8.92319C61.7554 8.89719 61.7359 8.86634 61.7339 8.8367C61.7198 8.62235 61.6911 8.41031 61.6485 8.20534C61.6013 7.97709 61.5368 7.75612 61.4574 7.5445C61.6531 7.47699 61.7974 7.39924 61.8448 7.28891C61.8691 7.23281 61.8669 7.15637 61.8171 7.11278C61.7725 7.07358 61.7045 7.05387 61.6398 7.03633C61.5721 7.01801 61.508 7.00222 61.4767 6.96796C61.4235 6.90974 61.3204 6.87212 61.2124 6.83819C61.173 6.82579 61.1329 6.8138 61.0942 6.80115C60.9852 6.62345 60.8648 6.45634 60.735 6.30069C60.718 6.22288 60.6975 6.15212 60.6592 6.10479C60.6248 6.06231 60.5618 6.04315 60.4906 6.03224C60.4689 6.01036 60.447 5.98878 60.4248 5.96749C60.2821 5.82997 60.1316 5.70452 59.9754 5.59202C59.9161 5.4472 59.8414 5.29681 59.6987 5.145C59.6372 5.07976 59.5865 5.00207 59.5343 4.92807C59.4577 4.81911 59.3772 4.71811 59.2715 4.68724C59.201 4.66671 59.1523 4.60484 59.1002 4.54343C59.0313 4.46155 58.9549 4.38031 58.8393 4.41361C58.7668 4.43459 58.6954 4.46908 58.6308 4.50258C58.5283 4.55595 58.4429 4.60648 58.3881 4.5924C58.2853 4.56606 58.1777 4.60044 58.0877 4.63432C57.9781 4.67478 57.8927 4.71375 57.839 4.6389C57.8308 4.62755 57.8217 4.61289 57.8113 4.59628C57.7731 4.53496 57.7156 4.44785 57.6201 4.41665C57.5797 4.40346 57.5333 4.40053 57.4812 4.41451C57.4193 4.43124 57.3576 4.48704 57.3009 4.54314C57.2179 4.62484 57.1446 4.70667 57.0682 4.66875C57.0567 4.66308 57.0447 4.63954 57.0335 4.61808C57.0192 4.5908 57.0062 4.56708 56.9991 4.58796C56.9783 4.64919 56.9461 4.71725 56.9139 4.79191C56.8902 4.84674 56.8666 4.90513 56.8462 4.96646C56.6653 5.01178 56.4909 5.07073 56.3247 5.14143C56.2486 5.1738 56.1738 5.20875 56.1011 5.24594C56.0339 5.17107 55.9653 5.10704 55.8989 5.06467C55.8118 5.00947 55.724 5.01629 55.6111 5.03135C55.528 5.0426 55.4312 5.05821 55.3053 5.06204C55.0702 5.06925 54.895 5.21837 54.8215 5.34721C54.8057 5.3745 54.7906 5.40263 54.7751 5.43297C54.7176 5.54854 54.6462 5.69115 54.5194 5.93446C54.4012 6.1648 54.2982 6.34237 54.2266 6.48047C54.1902 6.55096 54.1626 6.61017 54.1478 6.65911C54.1226 6.74256 54.0903 6.84277 54.0637 6.94396C54.0213 7.10233 53.9945 7.26385 54.0023 7.36007C54.0049 7.39421 54.0104 7.43056 54.0169 7.46951C54.0339 7.56956 54.058 7.68533 54.0684 7.83258C54.0693 7.84403 54.07 7.85565 54.0707 7.86744C54.0814 8.03832 54.0555 8.13664 54.0054 8.24517C53.9854 8.28881 53.908 8.32877 53.8289 8.37376C53.7168 8.43664 53.6014 8.51279 53.6453 8.5997C53.6556 8.61979 53.6763 8.64001 53.6983 8.66081C53.7388 8.69912 53.7831 8.73797 53.7735 8.78596C53.7701 8.80279 53.7516 8.82029 53.7335 8.83772C53.7137 8.85687 53.6945 8.87603 53.6965 8.89347C53.7038 8.95846 53.7226 9.01983 53.7405 9.07346C53.7636 9.14259 53.7852 9.19972 53.7783 9.24128C53.766 9.31559 53.8178 9.37862 53.8716 9.43771C53.9129 9.48332 53.9554 9.52713 53.973 9.57931C54.0227 9.72903 54.1732 9.90218 54.3695 10.0295C54.4435 10.0775 54.442 10.1595 54.4475 10.269C54.4509 10.3369 54.4569 10.4153 54.486 10.4984C54.5027 10.5456 54.5615 10.5464 54.6149 10.5453C54.6642 10.5445 54.709 10.5423 54.7169 10.5777C54.7239 10.6088 54.6851 10.6723 54.6492 10.7335C54.6091 10.8014 54.5727 10.8665 54.6051 10.8777C54.6223 10.8836 54.6617 10.8709 54.708 10.8548C54.7263 10.8484 54.7456 10.8416 54.7652 10.8352C54.755 10.8458 54.7461 10.8555 54.7395 10.8629C54.6924 10.9151 54.6912 10.9637 54.6913 11.0117C54.6913 11.0309 54.6916 11.0499 54.689 11.0691C54.6793 11.1398 54.7307 11.1946 54.7771 11.2267C54.7967 11.2404 54.8007 11.2708 54.806 11.3064C54.8107 11.338 54.8164 11.3739 54.8349 11.4052C54.8454 11.423 54.8456 11.448 54.8459 11.4689C54.8461 11.484 54.8464 11.497 54.8506 11.5032C54.8543 11.5086 54.8697 11.4947 54.8869 11.4789C54.8993 11.4676 54.9127 11.4553 54.9234 11.4486C54.949 11.4326 54.9666 11.4343 54.9709 11.4477C54.9729 11.454 54.972 11.4627 54.9711 11.4714C54.97 11.4816 54.9689 11.4918 54.9726 11.498C54.9895 11.5264 55.0264 11.5225 55.0641 11.5177C55.1058 11.5125 55.148 11.5061 55.1702 11.5424C55.1772 11.5538 55.1809 11.5728 55.1846 11.5913C55.1884 11.6106 55.1924 11.6293 55.2 11.6378C55.2308 11.6726 55.2907 11.6474 55.3444 11.623C55.3802 11.6067 55.4134 11.591 55.4352 11.5942C55.4755 11.6003 55.5196 11.5543 55.5517 11.5201C55.5683 11.5023 55.5818 11.4877 55.5901 11.4851C55.5948 11.4891 55.5994 11.4934 55.6039 11.4978C55.607 11.5041 55.6103 11.5106 55.6157 11.5114C55.6161 11.5114 55.6165 11.5113 55.6169 11.5114C55.6412 11.5382 55.6634 11.5702 55.6857 11.6017C55.7357 11.6725 55.7909 11.7424 55.8735 11.7431C55.8913 11.7433 55.9155 11.725 55.9397 11.7063C55.9695 11.6833 55.9993 11.6594 56.0193 11.6679C56.0669 11.6881 56.1059 11.7417 56.1472 11.7941C56.2083 11.8727 56.2757 11.9485 56.3597 11.8981C56.3872 11.8815 56.4165 11.8503 56.4451 11.8185C56.4611 11.8008 56.477 11.7829 56.4925 11.7674C56.4845 11.7995 56.4781 11.8299 56.4721 11.8581C56.4597 11.9164 56.449 11.9664 56.429 12.0069C56.3819 12.1027 56.3201 12.2345 56.3053 12.3362C56.3014 12.3638 56.2949 12.3942 56.2882 12.4248C56.2715 12.5014 56.2538 12.5797 56.2801 12.6212C56.2976 12.6492 56.3466 12.7143 56.3925 12.6605C56.4025 12.6488 56.4111 12.6239 56.4207 12.5962C56.4252 12.5829 56.43 12.569 56.4352 12.5556C56.4496 12.5185 56.4672 12.485 56.4929 12.4779C56.4988 12.4763 56.5052 12.475 56.5118 12.4738C56.5378 12.4691 56.5669 12.4636 56.582 12.4235C56.5993 12.3773 56.6028 12.3225 56.6072 12.2586C56.6128 12.1754 56.6207 12.0768 56.6567 11.9608C56.6638 11.9379 56.6731 11.9307 56.6802 11.9253C56.6852 11.9215 56.689 11.9184 56.6901 11.9114C56.6913 11.9033 56.6916 11.8863 56.6919 11.8648C56.6932 11.7888 56.6971 11.6565 56.741 11.6551C56.753 11.6548 56.766 11.6623 56.7778 11.6689C56.7951 11.6788 56.8096 11.6868 56.8132 11.6654C56.8146 11.6573 56.8157 11.6484 56.8169 11.6393C56.8308 11.6429 56.8448 11.6465 56.8589 11.6499C56.8755 11.6768 56.9013 11.676 56.9336 11.6744C56.9415 11.674 56.9497 11.6736 56.9583 11.6735C56.9863 11.6798 57.0144 11.6856 57.0426 11.6912C57.0649 11.7023 57.0886 11.7201 57.1148 11.748C57.1669 11.8039 57.2157 11.8956 57.2671 11.9844C57.2887 12.0218 57.3109 12.0587 57.3336 12.0921C57.326 12.0969 57.3192 12.1024 57.3142 12.1097C57.2794 12.1598 57.2689 12.2543 57.2582 12.3413C57.2512 12.3992 57.2441 12.4538 57.2296 12.4894C57.2029 12.5546 57.2078 12.6293 57.212 12.6847C57.2141 12.7134 57.2158 12.7369 57.2122 12.751C57.2092 12.7623 57.2017 12.7678 57.1939 12.7735C57.1871 12.7784 57.18 12.7836 57.1756 12.7927C57.122 12.9036 57.1385 12.9669 57.1666 13.0591C57.1819 13.11 57.2005 13.1695 57.2108 13.2506C57.2202 13.3365 57.2189 13.3619 57.1865 13.397C57.2134 13.439 57.241 13.4807 57.2691 13.5222C57.2793 13.5191 57.2862 13.4921 57.2951 13.4475C57.3112 13.3678 57.3716 13.3358 57.4185 13.3098C57.4401 13.2978 57.4588 13.2872 57.4688 13.2743C57.5214 13.2052 57.4957 13.1173 57.475 13.0399C57.4635 12.9973 57.4532 12.9579 57.456 12.9266C57.4572 12.9132 57.4528 12.9004 57.4484 12.8874C57.445 12.8773 57.4415 12.867 57.4405 12.8562C57.4335 12.778 57.4595 12.7173 57.4822 12.6607C57.4952 12.6283 57.5072 12.5972 57.5121 12.5652C57.5136 12.5554 57.5146 12.5455 57.5155 12.5359C57.5167 12.5219 57.5179 12.5085 57.5208 12.4968C57.5274 12.4703 57.5447 12.4509 57.5632 12.4297C57.5727 12.4188 57.5825 12.4074 57.5915 12.3942C57.603 12.3772 57.6037 12.3458 57.6045 12.3129C57.605 12.2897 57.6055 12.2658 57.6096 12.2456C57.617 12.209 57.6394 12.193 57.66 12.1779C57.669 12.1713 57.6776 12.1648 57.6845 12.157C57.6873 12.1539 57.688 12.1483 57.6872 12.141C57.7199 12.1108 57.75 12.08 57.7785 12.0495C57.9224 11.8956 58.023 11.7614 58.2453 11.7688C58.2877 11.7699 58.3271 11.7527 58.3634 11.7264C58.5033 11.7064 58.6442 11.6788 58.7852 11.6432C58.8424 11.6934 58.9014 11.7297 58.9611 11.7502C59.0734 11.7885 59.1567 11.7618 59.2529 11.727C59.3242 11.7011 59.4027 11.6707 59.5107 11.6533C59.6923 11.6238 59.8734 11.568 60.0439 11.4586C60.214 11.3504 60.3898 11.1983 60.4999 11.0775C60.56 11.0123 60.6671 10.9768 60.7673 10.9386C60.9081 10.8856 61.0354 10.8258 60.9809 10.7093C60.9635 10.6721 60.9237 10.6226 60.8844 10.5753C60.8564 10.5416 60.8289 10.5089 60.8099 10.4819C60.8363 10.4556 60.8624 10.4287 60.8884 10.4015C60.9825 10.3804 61.1002 10.323 61.0711 10.1982C61.0966 10.1682 61.1216 10.1377 61.1459 10.1079C61.1982 10.0425 61.2485 9.97711 61.2975 9.90917C61.3137 9.88701 61.3297 9.86437 61.3456 9.84144C61.3458 9.84123 61.346 9.84102 61.3461 9.84081C61.3782 9.79476 61.4096 9.74786 61.4402 9.70067C61.4533 9.68048 61.4662 9.66011 61.479 9.63956C61.5115 9.58757 61.5431 9.53452 61.5738 9.4812C61.5901 9.45309 61.6062 9.42398 61.622 9.39529C61.6477 9.34851 61.6729 9.30056 61.6974 9.25208C61.7372 9.17319 61.7748 9.09494 61.8109 9.01335C61.8168 9.00005 61.8307 8.98847 61.8501 8.98123C61.8695 8.974 61.8928 8.97162 61.916 8.97501C61.9392 8.9784 61.961 8.98742 61.9773 9.00028C61.9936 9.01312 62.0031 9.02877 62.0045 9.04379C62.0127 9.13588 62.0185 9.22687 62.0212 9.3208C62.0229 9.37853 62.0237 9.43661 62.0233 9.49428C62.0231 9.52969 62.0222 9.56577 62.0213 9.6012C62.0193 9.6683 62.0158 9.73636 62.0107 9.80431C62.0087 9.83115 62.0065 9.85798 62.0041 9.8848C61.9984 9.94766 61.9912 10.0112 61.9828 10.0747C61.9827 10.075 61.9827 10.0754 61.9826 10.0758C61.9784 10.1071 61.974 10.1383 61.9694 10.1692C61.9548 10.2644 61.9376 10.3588 61.9165 10.4552C61.906 10.5051 61.8938 10.5565 61.8808 10.6081C61.8736 10.6367 61.8662 10.6653 61.8587 10.6933C61.8545 10.7086 61.8502 10.7241 61.8458 10.7396C61.7455 11.097 61.6041 11.4475 61.4199 11.7856C61.2365 12.1226 61.0118 12.4449 60.7514 12.7421C60.4903 13.04 60.1931 13.313 59.8647 13.5538C58.8432 14.3094 57.4973 14.7363 56.1263 14.6779C54.7126 14.6299 53.2581 14.0536 52.151 13.046C51.839 12.7647 51.5467 12.4424 51.2934 12.1011C51.0376 11.756 50.8184 11.3919 50.6326 10.9988C50.5761 10.8796 50.5218 10.7551 50.4704 10.6257Z" fill="black"/>
<circle cx="6.11435" cy="54.7675" r="3.3234" transform="rotate(8.2828 6.11435 54.7675)" fill="black"/>
<path d="M0.164471 56.8977C-0.242229 55.9248 0.217889 54.8793 0.343638 53.989C0.346378 53.9689 0.349064 53.9488 0.351704 53.9286C0.480527 52.8367 0.564392 51.4281 1.49626 50.5524C2.41017 49.6944 3.59711 49.1791 4.7796 49.0836C5.51766 49.0213 6.2503 49.1203 6.90308 49.3496C7.29647 49.487 7.66886 49.6717 8.00574 49.895C8.90449 50.4876 9.5293 51.3516 9.81319 52.24C10.0088 52.8438 10.0541 53.4604 9.97085 54.0209C9.9347 54.267 9.87442 54.5021 9.79391 54.7225C9.73373 54.8866 9.66241 55.0435 9.58203 55.1898C9.57073 55.2102 9.53281 55.2262 9.47499 55.2332C9.41707 55.2402 9.34443 55.2378 9.27058 55.227C9.19669 55.2162 9.12622 55.198 9.07236 55.1772C9.01867 55.1564 8.98625 55.1348 8.98007 55.116C8.93617 54.9801 8.88276 54.8505 8.82118 54.7301C8.75289 54.596 8.67447 54.4724 8.58896 54.3603C8.88796 54.2914 9.1117 54.2193 9.19954 54.1363C9.24442 54.0942 9.25486 54.041 9.19121 54.0204C9.13407 54.0019 9.03997 54.0025 8.95065 54.0049C8.85719 54.0075 8.7689 54.0122 8.73271 53.9971C8.67116 53.9714 8.53517 53.9734 8.39401 53.9831C8.34262 53.9866 8.29042 53.9911 8.24077 53.9951C8.1454 53.9154 8.0463 53.8465 7.9455 53.7882C7.95622 53.7391 7.96076 53.6941 7.93422 53.6744C7.91039 53.6567 7.84206 53.6697 7.76205 53.6943C7.74625 53.6872 7.73042 53.6805 7.71458 53.6739C7.61257 53.6316 7.51072 53.5994 7.41057 53.5771C7.4266 53.4738 7.42947 53.3638 7.37637 53.2728C7.35361 53.2339 7.34797 53.173 7.33902 53.1135C7.32647 53.0261 7.30561 52.9413 7.23647 52.9503C7.19066 52.9566 7.18131 52.901 7.16795 52.8444C7.15118 52.7691 7.12533 52.6916 7.03301 52.7789C6.97527 52.8339 6.91571 52.9063 6.86317 52.975C6.77942 53.0842 6.71375 53.1838 6.6884 53.1831C6.64026 53.1818 6.57322 53.2626 6.52101 53.3367C6.45697 53.4255 6.4134 53.504 6.40792 53.4078C6.40703 53.3932 6.40642 53.3739 6.40551 53.352C6.40255 53.271 6.39285 53.1551 6.35368 53.1235C6.33733 53.1102 6.3164 53.1122 6.29186 53.139C6.26251 53.1712 6.23089 53.2601 6.20482 53.3482C6.16606 53.4764 6.14047 53.6022 6.1153 53.5457C6.11145 53.5373 6.10734 53.502 6.10321 53.4697C6.09801 53.4287 6.09276 53.393 6.09052 53.4241C6.08392 53.5156 6.07472 53.6169 6.06874 53.7272C6.06429 53.8082 6.06158 53.894 6.06161 53.9841C6.02206 54.0375 5.99165 54.0917 5.96859 54.1444C5.95806 54.1686 5.94898 54.1925 5.94133 54.216C5.89258 54.0872 5.84245 53.9732 5.79809 53.8895C5.73987 53.7803 5.70126 53.7548 5.64952 53.7247C5.61104 53.7028 5.56542 53.6782 5.48904 53.6222C5.3453 53.5194 5.28415 53.6041 5.29764 53.7017C5.30007 53.7226 5.30359 53.7442 5.30809 53.7674C5.32583 53.8552 5.35126 53.9634 5.37913 54.0943C5.40699 54.2172 5.40184 54.2726 5.39765 54.3166C5.39585 54.3387 5.39509 54.3568 5.4034 54.375C5.41767 54.4063 5.42897 54.4385 5.44235 54.4692C5.46311 54.5171 5.48926 54.5611 5.53377 54.592C5.54959 54.603 5.56972 54.615 5.59153 54.6271C5.64759 54.6586 5.7166 54.6899 5.76094 54.7161C5.76437 54.7181 5.76766 54.7201 5.77078 54.7221C5.81667 54.7498 5.78328 54.7537 5.71036 54.7678C5.68079 54.7731 5.56408 54.7795 5.4438 54.7921C5.27306 54.8087 5.09581 54.8415 5.15135 54.8626C5.1643 54.8672 5.19261 54.8704 5.2223 54.873C5.27688 54.8781 5.33581 54.88 5.3123 54.8946C5.30411 54.8998 5.27339 54.9083 5.24338 54.9171C5.21037 54.9268 5.17822 54.9369 5.17727 54.942C5.17371 54.9609 5.18522 54.9766 5.19574 54.9898C5.20932 55.0069 5.22104 55.0203 5.19747 55.0382C5.1555 55.0705 5.20477 55.0786 5.25382 55.0814C5.29143 55.084 5.32908 55.084 5.32854 55.0992C5.3268 55.1436 5.4314 55.1617 5.57316 55.1209C5.6265 55.1053 5.573 55.1554 5.51203 55.2292C5.47399 55.2748 5.43277 55.3293 5.41102 55.3783C5.39884 55.4061 5.45479 55.3716 5.5045 55.3374C5.55053 55.3061 5.59154 55.2754 5.57601 55.3006C5.56226 55.3228 5.48858 55.4028 5.41995 55.48C5.34343 55.5658 5.27332 55.6483 5.29551 55.6403C5.30726 55.6359 5.34931 55.6008 5.39807 55.5579C5.41736 55.5409 5.43765 55.5228 5.45771 55.5049C5.44289 55.5212 5.4297 55.5358 5.41975 55.5469C5.34925 55.6253 5.31984 55.6735 5.29261 55.7219C5.2817 55.7412 5.27115 55.7604 5.2582 55.7815C5.21043 55.8591 5.22379 55.889 5.24335 55.8988C5.2516 55.9029 5.23828 55.9339 5.22362 55.9705C5.21057 56.003 5.19647 56.0401 5.19476 56.0661C5.19376 56.081 5.18121 56.1095 5.17094 56.1334C5.1635 56.1507 5.15725 56.1655 5.1574 56.1707C5.15755 56.1751 5.17634 56.1513 5.19732 56.1244C5.21243 56.1051 5.22874 56.0841 5.24015 56.0709C5.26743 56.0393 5.27939 56.0323 5.27577 56.0458C5.27409 56.0521 5.26899 56.0628 5.26396 56.0735C5.25809 56.0859 5.25221 56.0985 5.25183 56.104C5.25016 56.1291 5.27898 56.1065 5.30784 56.0823C5.33977 56.0557 5.37137 56.027 5.36872 56.0607C5.36792 56.0713 5.3613 56.0929 5.35511 56.1139C5.34861 56.136 5.34263 56.1573 5.34372 56.1645C5.3484 56.1938 5.39919 56.1353 5.44328 56.08C5.47275 56.0433 5.49955 56.0082 5.51086 56.0026C5.5318 55.9926 5.57693 55.9138 5.60935 55.8552C5.62619 55.8248 5.6398 55.7998 5.64522 55.7928C5.64587 55.7959 5.64636 55.7994 5.64673 55.8031C5.64556 55.8099 5.6444 55.8169 5.64683 55.8156C5.64701 55.8155 5.64728 55.8152 5.64747 55.815C5.64819 55.8394 5.64585 55.8722 5.64427 55.9051C5.64034 55.9789 5.64343 56.0538 5.68301 56.0261C5.6915 56.0202 5.70918 55.9867 5.7265 55.9524C5.7478 55.9104 5.76849 55.867 5.77417 55.8723C5.78762 55.8849 5.78714 55.9488 5.79034 56.0123C5.79411 56.1077 5.8084 56.2022 5.85421 56.1113C5.86911 56.0812 5.88714 56.0298 5.90417 55.9777C5.91368 55.9487 5.92294 55.9193 5.93136 55.8937C5.92258 55.9424 5.91461 55.9881 5.90714 56.0308C5.89173 56.1188 5.87854 56.1941 5.8626 56.2573C5.82536 56.4066 5.7702 56.6112 5.74388 56.763C5.73685 56.8043 5.72797 56.85 5.71893 56.896C5.69635 57.0114 5.6724 57.1292 5.6811 57.186C5.68649 57.2242 5.7064 57.3128 5.7409 57.2269C5.74832 57.2082 5.75677 57.1702 5.76599 57.1279C5.77041 57.1077 5.77501 57.0865 5.77977 57.0658C5.79288 57.009 5.80703 56.9569 5.82177 56.9431C5.82516 56.9399 5.82875 56.9371 5.8324 56.9346C5.84693 56.9243 5.86304 56.9128 5.87538 56.8515C5.88958 56.7808 5.89733 56.6988 5.90693 56.6034C5.91912 56.479 5.93548 56.3315 5.96398 56.1548C5.96957 56.1198 5.97401 56.1081 5.97735 56.0992C5.97969 56.0929 5.98149 56.0879 5.9827 56.0773C5.98408 56.0652 5.98614 56.0398 5.98881 56.0078C5.99797 55.8946 6.01658 55.6972 6.02926 55.69C6.03276 55.6881 6.03569 55.6978 6.03842 55.7066C6.04243 55.7196 6.04602 55.7302 6.04895 55.6979C6.05007 55.6856 6.05119 55.6723 6.05232 55.6586C6.05585 55.6627 6.05941 55.6669 6.06301 55.671C6.06562 55.7099 6.07316 55.707 6.08219 55.7031C6.08439 55.7021 6.08669 55.7012 6.08906 55.7007C6.09658 55.709 6.10425 55.7171 6.11208 55.7253C6.11823 55.7418 6.12491 55.7685 6.13318 55.8108C6.14958 55.8955 6.16933 56.0352 6.1943 56.1711C6.20476 56.2284 6.21616 56.2851 6.22812 56.3367C6.22534 56.3434 6.22292 56.3511 6.22132 56.3617C6.21038 56.4342 6.2108 56.5752 6.20997 56.7051C6.2094 56.7914 6.20829 56.8729 6.20223 56.9257C6.19099 57.0223 6.19549 57.1346 6.19964 57.2177C6.20171 57.2607 6.20343 57.296 6.20178 57.3171C6.20045 57.3339 6.1963 57.342 6.19198 57.3503C6.18821 57.3575 6.18428 57.3651 6.18195 57.3787C6.15313 57.544 6.16237 57.6393 6.18193 57.778C6.19249 57.8545 6.20574 57.9442 6.21462 58.0661C6.22293 58.1951 6.22297 58.233 6.20142 58.2851C6.22069 58.3485 6.24091 58.4118 6.26206 58.4748C6.26923 58.4704 6.27321 58.4303 6.27784 58.3637C6.28626 58.2448 6.32591 58.1994 6.35615 58.1633C6.37014 58.1466 6.38208 58.132 6.38792 58.1133C6.41866 58.0138 6.39418 57.8808 6.37546 57.7636C6.36496 57.6991 6.35573 57.6394 6.35516 57.5929C6.3549 57.573 6.35123 57.5536 6.34758 57.5338C6.34476 57.5184 6.3419 57.5028 6.34052 57.4867C6.33063 57.3692 6.34118 57.2805 6.34873 57.1982C6.35314 57.1511 6.35674 57.1058 6.35621 57.0586C6.35605 57.0442 6.35557 57.0296 6.35505 57.0153C6.35429 56.9946 6.35354 56.9748 6.35385 56.9577C6.35456 56.9189 6.36142 56.892 6.36847 56.8626C6.37209 56.8476 6.37575 56.8318 6.37863 56.8135C6.38237 56.7897 6.37858 56.7431 6.3745 56.6946C6.37161 56.6602 6.36859 56.6249 6.36768 56.5955C6.36607 56.5424 6.37413 56.522 6.38134 56.503C6.38449 56.4947 6.38742 56.4865 6.38934 56.4762C6.39012 56.472 6.38952 56.464 6.38791 56.4531C6.39786 56.4142 6.40585 56.3745 6.41259 56.3356C6.44819 56.1398 6.44369 55.9758 6.55175 56.0624C6.57271 56.0785 6.58661 56.0689 6.59527 56.0468C6.65924 56.072 6.72777 56.0941 6.80046 56.1118C6.85886 56.2012 6.91386 56.2732 6.9642 56.3254C7.05907 56.4233 7.10935 56.4266 7.16746 56.429C7.21082 56.4305 7.25877 56.4315 7.34173 56.4626C7.48119 56.5148 7.62145 56.5372 7.73816 56.5029C7.85436 56.4694 7.97134 56.4013 8.0399 56.3392C8.07713 56.306 8.18418 56.3227 8.28672 56.3317C8.43036 56.3455 8.56521 56.3425 8.45013 56.2214C8.41332 56.1828 8.34342 56.1252 8.27471 56.0704C8.2258 56.0314 8.17769 55.9937 8.14255 55.9645C8.16453 55.9548 8.18638 55.9447 8.20843 55.9342C8.3193 55.9567 8.45105 55.9549 8.36728 55.8517C8.38992 55.8388 8.41239 55.8255 8.43468 55.8125C8.4821 55.7834 8.52903 55.7534 8.5758 55.7211C8.59119 55.7106 8.60661 55.6996 8.62203 55.6885C8.62219 55.6884 8.62236 55.6883 8.62252 55.6882C8.65354 55.6658 8.68443 55.6424 8.71505 55.6185C8.72813 55.6082 8.74116 55.5978 8.75413 55.5872C8.78703 55.5603 8.81965 55.5323 8.85198 55.5036C8.86914 55.4885 8.8862 55.4726 8.90321 55.4569C8.93085 55.4312 8.95835 55.4044 8.98558 55.3769C9.02966 55.3322 9.07287 55.2868 9.11544 55.2383C9.12246 55.2304 9.14147 55.2247 9.16929 55.2223C9.19715 55.22 9.23144 55.2213 9.26624 55.2263C9.30105 55.2314 9.33436 55.2401 9.36019 55.2508C9.38592 55.2615 9.40181 55.2734 9.4058 55.2839C9.42975 55.3481 9.45177 55.4124 9.47125 55.4797C9.48334 55.5211 9.49483 55.5631 9.50523 55.6051C9.51166 55.6309 9.51749 55.6572 9.52327 55.6833C9.53404 55.7326 9.5436 55.7831 9.55178 55.8339C9.55502 55.854 9.55809 55.8741 9.56099 55.8943C9.5678 55.9416 9.57331 55.9897 9.57776 56.0382C9.57778 56.0385 9.57781 56.0388 9.57783 56.0391C9.58 56.063 9.58196 56.0869 9.5837 56.1107C9.58868 56.1839 9.59138 56.2573 9.59074 56.3328C9.59104 56.3721 9.58985 56.4126 9.58806 56.4534C9.58707 56.4761 9.58593 56.4988 9.58467 56.5212C9.58387 56.5334 9.58289 56.5457 9.58185 56.558C9.5608 56.8438 9.50249 57.134 9.40355 57.4214C9.30532 57.7081 9.16775 57.9903 8.99396 58.2574C8.81967 58.5249 8.60882 58.7775 8.3647 59.0065C7.60788 59.7251 6.50013 60.2072 5.31631 60.2494C4.0977 60.3056 2.77075 59.8765 1.74415 59.0204C1.4546 58.7819 1.18177 58.5035 0.943816 58.2052C0.70352 57.9035 0.495851 57.5818 0.319074 57.2312C0.26529 57.1249 0.213545 57.0136 0.164471 56.8977Z" fill="black"/>
</svg>
