<svg width="60" height="61" viewBox="0 0 60 61" fill="none" xmlns="http://www.w3.org/2000/svg">
<path d="M34.6636 30.5785C33.5466 32.1137 31.6812 32.9512 30.4828 34.4288C28.9948 36.2632 28.1702 38.6832 26.5528 40.4201C24.9441 42.1462 23.2725 43.8362 21.563 45.4858C19.8517 47.1374 18.1001 48.7518 16.3166 50.3464C14.5363 51.9371 12.7239 53.5084 10.8974 55.0642C9.65679 56.1209 8.40754 57.1729 7.15657 58.221C6.60756 58.6812 6.05941 59.1394 5.50977 59.5987C5.09952 59.9411 4.68929 60.2836 4.27905 60.626C4.22186 60.6735 4.13197 60.6906 4.02662 60.6716C3.92116 60.6524 3.80935 60.5993 3.71271 60.521C3.61605 60.4426 3.5407 60.3439 3.5004 60.2448C3.46029 60.1459 3.45901 60.0549 3.49398 59.9894C3.74883 59.5155 4.00371 59.0415 4.25856 58.5676C4.54176 58.0412 4.82414 57.5156 5.10781 56.9899C5.56272 57.2392 5.94348 57.3842 6.22596 57.307C6.37009 57.2676 6.50959 57.153 6.51784 56.992C6.5252 56.8475 6.46253 56.6834 6.40264 56.5272C6.33996 56.3639 6.28046 56.2088 6.30826 56.0938C6.35539 55.8985 6.29543 55.6281 6.23239 55.3441C6.20945 55.2407 6.18604 55.1354 6.16731 55.0314C6.43926 54.5305 6.71188 54.03 6.98512 53.5302C7.16358 53.3962 7.32296 53.2692 7.41293 53.1248C7.49361 52.9953 7.49708 52.8196 7.4797 52.6279C7.52213 52.5506 7.56456 52.4733 7.607 52.396C7.88122 51.8976 8.1568 51.4001 8.43309 50.9031C8.81396 50.6491 9.20501 50.3763 9.62491 49.9499C9.80588 49.7661 10.0225 49.6156 10.2306 49.4709C10.538 49.2571 10.8272 49.0559 10.9568 48.7792C11.0434 48.5943 11.2307 48.4776 11.4175 48.3611C11.668 48.205 11.9181 48.0492 11.9242 47.7294C11.9281 47.5283 11.903 47.3205 11.8797 47.1279C11.8426 46.8214 11.81 46.5535 11.9066 46.413C12.088 46.1491 12.1365 45.8326 12.1791 45.5535C12.2303 45.2179 12.2733 44.9364 12.5295 44.866C12.5683 44.8553 12.6162 44.8459 12.6703 44.8354C12.9555 44.7804 13.4116 44.6923 13.6048 44.1923C13.6736 44.0142 13.6627 43.7858 13.6518 43.562C13.6359 43.2361 13.6205 42.9197 13.8527 42.7822C13.8874 42.7616 13.958 42.768 14.0225 42.7739C14.1044 42.7815 14.1759 42.788 14.1504 42.7369C14.0756 42.5872 14.014 42.3957 13.9469 42.1876C13.8975 42.0346 13.8452 41.8725 13.7828 41.7115C14.1294 41.1487 14.4789 40.5882 14.8319 40.0301C14.9936 39.7745 15.156 39.5193 15.3192 39.2646C15.5942 39.2893 15.8537 39.2971 16.0797 39.2664C16.375 39.2262 16.6007 39.0468 16.892 38.8159C17.1063 38.646 17.3562 38.4481 17.6951 38.2566C18.3224 37.9023 18.7094 37.3299 18.8767 36.8978C18.9121 36.8064 18.9462 36.7134 18.9822 36.6135C19.1189 36.2347 19.289 35.7616 19.7145 34.9459C20.1171 34.1743 20.5387 33.5823 20.8555 33.1376C21.0172 32.9106 21.1519 32.7222 21.2425 32.5676C21.3974 32.303 21.5998 31.9879 21.8031 31.6718C22.1212 31.177 22.4415 30.6792 22.5846 30.3665C22.6355 30.2551 22.6845 30.1347 22.7378 30.0049C22.8853 29.6452 23.0637 29.2109 23.3933 28.68C23.7393 28.1228 24.0364 27.8443 24.3942 27.5948C24.5396 27.4933 24.7853 27.499 25.039 27.5051C25.3989 27.5139 25.7744 27.5231 25.9005 27.2263C25.9299 27.157 25.9424 27.0678 25.9554 26.9744C25.9793 26.8029 26.0049 26.6172 26.1413 26.5162C26.1889 26.481 26.2617 26.475 26.3331 26.4692C26.4116 26.4627 26.4885 26.4563 26.5289 26.4112C26.68 26.243 26.808 26.0639 26.9217 25.9047C27.0683 25.6995 27.1913 25.5274 27.3096 25.4546C27.5206 25.3249 27.624 25.0801 27.7283 24.8319C27.8081 24.6423 27.8883 24.4505 28.0183 24.3072C28.3897 23.8976 28.7582 23.2192 29.0684 22.4639C29.1858 22.1781 29.4376 22.0593 29.7605 21.9073C29.9613 21.8127 30.1899 21.7055 30.4303 21.5368C30.5666 21.4412 30.5682 21.2681 30.5698 21.1079C30.5713 20.9603 30.5729 20.8237 30.6793 20.7683C30.7733 20.7195 30.9527 20.7857 31.1231 20.8486C31.3127 20.9187 31.491 20.9845 31.528 20.883C31.5476 20.829 31.5188 20.7206 31.4846 20.5918C31.4711 20.5409 31.457 20.4868 31.4444 20.4314C31.4718 20.4559 31.4971 20.4769 31.5164 20.4926C31.6528 20.6032 31.7903 20.5804 31.9251 20.558C31.9789 20.549 32.0323 20.5399 32.085 20.5396C32.279 20.5385 32.4444 20.373 32.5509 20.2304C32.596 20.1701 32.6813 20.1513 32.7807 20.1295C32.8691 20.1101 32.9687 20.0883 33.0614 20.0327C33.1142 20.001 33.1818 19.9984 33.2379 19.9966C33.2786 19.9953 33.3133 19.9942 33.3319 19.9822C33.348 19.9718 33.3181 19.9287 33.2844 19.8802C33.2601 19.8453 33.2339 19.8074 33.2214 19.7769C33.1916 19.704 33.2061 19.6531 33.2449 19.6405C33.2627 19.6346 33.2858 19.6373 33.3088 19.6399C33.3355 19.643 33.3623 19.6462 33.381 19.6359C33.4666 19.5885 33.4775 19.4837 33.4888 19.3749C33.5013 19.2553 33.5145 19.1307 33.6276 19.0718C33.6632 19.0532 33.7165 19.0458 33.7681 19.0387C33.822 19.0313 33.8743 19.0239 33.9024 19.0044C34.0166 18.9252 33.9978 18.7488 33.9806 18.5864C33.9691 18.4785 33.9584 18.3767 33.9878 18.3141C34.0417 18.1993 33.9661 18.0531 33.9102 17.9451C33.8813 17.8892 33.8574 17.8434 33.8599 17.8175C33.8756 17.8048 33.8921 17.7923 33.9087 17.7805C33.9287 17.7734 33.9493 17.7661 33.9575 17.7502C33.9581 17.749 33.9584 17.7476 33.959 17.7464C34.0567 17.6838 34.1651 17.6323 34.2729 17.5814C34.5151 17.4668 34.7545 17.3538 34.8628 17.1171C34.8861 17.0661 34.8725 16.9839 34.8588 16.9003C34.8419 16.7979 34.8247 16.6932 34.8744 16.6409C34.9927 16.5163 35.1814 16.4465 35.3672 16.3778C35.6467 16.2744 35.9198 16.1733 35.9378 15.8918C35.9438 15.7989 35.9207 15.6848 35.8972 15.5701C35.8841 15.5062 35.8708 15.4419 35.8627 15.3813C35.9212 15.4401 35.9784 15.4926 36.0318 15.5414C36.1417 15.6422 36.2358 15.7284 36.2945 15.8279C36.4333 16.0629 36.6389 16.3684 36.846 16.5206C36.9022 16.5619 36.9609 16.6128 37.0198 16.6642C37.1676 16.7932 37.3186 16.9249 37.4447 16.913C37.5297 16.905 37.735 16.874 37.6799 16.7039C37.6678 16.6668 37.6256 16.616 37.5788 16.5596C37.4946 16.4581 37.3949 16.3379 37.4254 16.2436C37.4305 16.2278 37.4369 16.2112 37.444 16.1944C37.4723 16.1276 37.5041 16.0529 37.4417 15.9649C37.3698 15.8634 37.2587 15.7827 37.1292 15.6886C36.9605 15.566 36.7601 15.4205 36.574 15.1766C36.5372 15.1284 36.5387 15.0944 36.5398 15.0687C36.5406 15.0506 36.5409 15.0365 36.5278 15.0245C36.5128 15.0107 36.4769 14.9877 36.4315 14.9585C36.2713 14.8557 35.9916 14.676 36.076 14.5494C36.0989 14.5152 36.1406 14.4887 36.1781 14.465C36.2333 14.43 36.2791 14.4009 36.2414 14.3616C36.2271 14.3466 36.211 14.3312 36.194 14.3155C36.2301 14.2813 36.2662 14.2471 36.3023 14.2128C36.3922 14.2043 36.4437 14.1318 36.5079 14.0412C36.5234 14.0192 36.54 13.9961 36.5578 13.9727C36.6294 13.9055 36.701 13.8382 36.7727 13.7711C36.8425 13.7284 36.9288 13.6926 37.0383 13.6697C37.2576 13.6239 37.5343 13.6535 37.8047 13.6826C37.9187 13.6948 38.0317 13.707 38.1388 13.7133C38.1318 13.739 38.1278 13.764 38.1307 13.7882C38.1507 13.9532 38.3039 14.1371 38.445 14.3063C38.5389 14.4188 38.6274 14.5249 38.6674 14.6145C38.7408 14.7785 38.8916 14.8901 39.003 14.9726C39.0608 15.0154 39.1081 15.0507 39.1284 15.0811C39.1447 15.1055 39.1423 15.1294 39.1398 15.1542C39.1376 15.1758 39.1355 15.1982 39.1455 15.2217C39.2673 15.5073 39.4185 15.5735 39.6387 15.6699C39.7601 15.7231 39.9024 15.7856 40.0724 15.899C40.2501 16.0221 40.2957 16.066 40.3144 16.1792C40.4345 16.2 40.5546 16.2208 40.6746 16.2416C40.6839 16.2192 40.6433 16.1636 40.573 16.0747C40.4474 15.9161 40.4822 15.7585 40.5094 15.6353C40.5219 15.5783 40.5328 15.5286 40.5254 15.4896C40.4862 15.2822 40.2869 15.172 40.1116 15.0751C40.0151 15.0217 39.9258 14.9722 39.8745 14.9129C39.8525 14.8875 39.8217 14.8734 39.7904 14.8589C39.7661 14.8478 39.7415 14.8364 39.7203 14.8196C39.5665 14.6974 39.5039 14.5429 39.4458 14.3995C39.4125 14.3174 39.3805 14.2388 39.3338 14.1719C39.3196 14.1515 39.3041 14.1319 39.2889 14.113C39.2668 14.0855 39.2458 14.0591 39.2311 14.0325C39.1976 13.9718 39.1977 13.9028 39.198 13.8274C39.1982 13.7887 39.1984 13.7483 39.194 13.7064C39.1883 13.6522 39.1367 13.5925 39.0829 13.53C39.0448 13.4859 39.0057 13.4402 38.9805 13.3941C38.9348 13.3106 38.9561 13.2338 38.9758 13.1626C38.9844 13.1316 38.9925 13.1014 38.9948 13.0723C38.9958 13.0605 38.9884 13.0484 38.9748 13.0361C38.997 12.9109 39.015 12.7888 39.0323 12.6697C39.1188 12.0726 39.1934 11.5555 39.7657 11.1566C39.8739 11.0812 39.9539 10.9708 40.0176 10.8455C40.3543 10.5521 40.693 10.2601 41.0331 9.96965C41.2255 10.0134 41.408 10.0242 41.578 9.99961C41.8971 9.95344 42.0867 9.79363 42.3105 9.60508C42.4759 9.46568 42.6601 9.31063 42.9291 9.17397C43.3812 8.94437 43.8162 8.68509 44.2243 8.32551C44.6306 7.96749 45.0671 7.53436 45.3576 7.21312C45.516 7.03802 45.7949 6.94518 46.0547 6.85853C46.4201 6.73665 46.7478 6.62713 46.6503 6.31939C46.6191 6.22107 46.5375 6.08435 46.4582 5.95144C46.4018 5.85679 46.3469 5.76407 46.3116 5.68816C46.3913 5.62678 46.4709 5.56515 46.5509 5.50385C46.8 5.48153 47.1198 5.39242 47.1287 5.06323C47.2115 5.00025 47.2942 4.93716 47.3751 4.87699C47.5497 4.74429 47.722 4.61558 47.8957 4.48564C47.9526 4.44337 48.0099 4.40059 48.0674 4.35773C48.068 4.35735 48.0686 4.35697 48.0692 4.35658C48.1849 4.27032 48.3016 4.18338 48.4169 4.0984C48.4663 4.06197 48.5156 4.02553 48.565 3.9891C48.6904 3.89647 48.8165 3.80308 48.9414 3.71198C49.0076 3.66383 49.0741 3.61499 49.1409 3.56624C49.2494 3.48715 49.3586 3.40742 49.4675 3.32836C49.6437 3.20048 49.8198 3.07377 49.9965 2.94703C50.0255 2.92637 50.0694 2.91956 50.1199 2.92923C50.1704 2.93896 50.2232 2.96413 50.2687 3.00104C50.3142 3.03797 50.3499 3.08454 50.3697 3.13186C50.3895 3.17907 50.3914 3.223 50.3771 3.25547C50.2886 3.4538 50.1998 3.65152 50.1101 3.84961C50.0546 3.97205 49.9991 4.09514 49.9435 4.21707C49.9092 4.29225 49.8749 4.36701 49.8411 4.4414C49.7771 4.58178 49.7112 4.72435 49.6458 4.86556C49.6202 4.92116 49.5945 4.97677 49.5688 5.03237C49.5087 5.16256 49.4469 5.29434 49.3856 5.42522C49.3852 5.426 49.3849 5.42679 49.3845 5.42757C49.3543 5.49196 49.3243 5.55628 49.2946 5.61994C49.2024 5.816 49.111 6.0103 49.0162 6.20779C48.9682 6.31056 48.9168 6.41654 48.8661 6.52206C48.8379 6.5808 48.8098 6.6395 48.7823 6.69721C48.7671 6.72862 48.7516 6.76034 48.7359 6.79224C48.3816 7.5277 48.0252 8.25435 47.6585 8.98206C47.2936 9.70746 46.9224 10.4295 46.5475 11.1455C46.1714 11.863 45.7909 12.5751 45.4051 13.2838C42.9573 17.782 40.367 22.1908 37.5541 26.4221C37.1533 27.0259 36.7353 27.6401 36.3233 28.2368C35.9064 28.8397 35.4941 29.4269 35.0656 30.0228C34.9357 30.2041 34.8017 30.3891 34.6636 30.5785Z" fill="black"/>
<path d="M47.1236 10.6257C46.7017 9.55506 46.9624 8.41639 47.106 7.377C47.1091 7.35389 47.1123 7.33076 47.1154 7.3076C47.2785 6.03566 47.5825 4.57054 48.5763 3.58155C49.5604 2.59793 50.8548 1.95761 52.1863 1.76728C53.0174 1.64583 53.8596 1.69745 54.6395 1.90069C55.1093 2.02252 55.5618 2.19897 55.9821 2.42369C57.1015 3.01925 57.9742 3.95898 58.4775 5.01218C58.8218 5.72732 59.0016 6.49533 59.0179 7.24087C59.0254 7.56815 59.002 7.89065 58.9502 8.20365C58.9115 8.4367 58.8569 8.66588 58.7883 8.88608C58.7787 8.91681 58.7513 8.94389 58.711 8.96066C58.6707 8.97745 58.6213 8.98264 58.5721 8.97543C58.5228 8.9682 58.4768 8.94918 58.4426 8.92319C58.4085 8.89719 58.3891 8.86634 58.3871 8.8367C58.3729 8.62235 58.3443 8.41031 58.3017 8.20534C58.2544 7.97709 58.19 7.75612 58.1105 7.5445C58.3062 7.47699 58.4506 7.39924 58.498 7.28891C58.5222 7.23281 58.52 7.15638 58.4703 7.11278C58.4256 7.07358 58.3577 7.05387 58.293 7.03633C58.2253 7.01801 58.1611 7.00222 58.1298 6.96796C58.0767 6.90974 57.9736 6.87212 57.8655 6.83819C57.8262 6.82579 57.7861 6.8138 57.7474 6.80115C57.6384 6.62345 57.518 6.45634 57.3882 6.30069C57.3711 6.22288 57.3506 6.15212 57.3123 6.10479C57.278 6.06231 57.215 6.04315 57.1438 6.03224C57.122 6.01036 57.1001 5.98878 57.078 5.96749C56.9352 5.82997 56.7848 5.70452 56.6285 5.59202C56.5693 5.4472 56.4945 5.29681 56.3519 5.145C56.2904 5.07976 56.2397 5.00207 56.1874 4.92807C56.1109 4.81911 56.0304 4.71811 55.9246 4.68724C55.8541 4.66671 55.8055 4.60484 55.7533 4.54343C55.6844 4.46155 55.608 4.38031 55.4924 4.41361C55.4199 4.43459 55.3485 4.46908 55.284 4.50258C55.1814 4.55595 55.0961 4.60648 55.0413 4.5924C54.9384 4.56606 54.8308 4.60044 54.7408 4.63432C54.6312 4.67478 54.5458 4.71375 54.4922 4.6389C54.484 4.62755 54.4749 4.61289 54.4645 4.59628C54.4262 4.53496 54.3687 4.44785 54.2732 4.41665C54.2329 4.40346 54.1864 4.40053 54.1344 4.41451C54.0724 4.43124 54.0108 4.48704 53.954 4.54314C53.871 4.62484 53.7978 4.70667 53.7214 4.66875C53.7099 4.66308 53.6978 4.63954 53.6866 4.61808C53.6724 4.5908 53.6594 4.56708 53.6523 4.58796C53.6314 4.64919 53.5992 4.71725 53.567 4.79191C53.5433 4.84674 53.5198 4.90513 53.4994 4.96646C53.3184 5.01178 53.1441 5.07073 52.9778 5.14143C52.9018 5.1738 52.827 5.20875 52.7543 5.24594C52.6871 5.17107 52.6184 5.10704 52.552 5.06467C52.4649 5.00947 52.3771 5.01629 52.2643 5.03135C52.1811 5.0426 52.0844 5.05822 51.9584 5.06204C51.7233 5.06925 51.5482 5.21837 51.4747 5.34721C51.4588 5.3745 51.4437 5.40263 51.4282 5.43297C51.3707 5.54854 51.2994 5.69115 51.1725 5.93446C51.0543 6.1648 50.9514 6.34237 50.8798 6.48047C50.8434 6.55096 50.8157 6.61017 50.801 6.65911C50.7757 6.74256 50.7434 6.84277 50.7168 6.94396C50.6744 7.10233 50.6477 7.26386 50.6554 7.36007C50.6581 7.39421 50.6635 7.43056 50.6701 7.46951C50.687 7.56956 50.7111 7.68533 50.7216 7.83258C50.7224 7.84403 50.7232 7.85565 50.7238 7.86744C50.7345 8.03832 50.7086 8.13664 50.6586 8.24517C50.6385 8.28881 50.5611 8.32877 50.4821 8.37376C50.3699 8.43664 50.2545 8.51279 50.2985 8.5997C50.3087 8.61979 50.3295 8.64001 50.3515 8.66081C50.3919 8.69912 50.4363 8.73797 50.4266 8.78596C50.4233 8.80279 50.4047 8.82029 50.3867 8.83772C50.3669 8.85687 50.3476 8.87603 50.3496 8.89347C50.357 8.95846 50.3757 9.01983 50.3937 9.07346C50.4167 9.14259 50.4384 9.19972 50.4315 9.24128C50.4192 9.31559 50.471 9.37862 50.5248 9.43771C50.566 9.48332 50.6086 9.52714 50.6261 9.57931C50.6758 9.72903 50.8263 9.90218 51.0227 10.0295C51.0967 10.0775 51.0952 10.1595 51.1006 10.269C51.104 10.3369 51.11 10.4153 51.1392 10.4984C51.1559 10.5456 51.2147 10.5464 51.268 10.5453C51.3173 10.5445 51.3622 10.5423 51.3701 10.5777C51.377 10.6088 51.3382 10.6723 51.3023 10.7335C51.2623 10.8014 51.2259 10.8665 51.2582 10.8777C51.2754 10.8836 51.3149 10.8709 51.3611 10.8548C51.3794 10.8484 51.3988 10.8416 51.4183 10.8352C51.4081 10.8458 51.3993 10.8555 51.3926 10.8629C51.3456 10.9151 51.3443 10.9637 51.3445 11.0117C51.3445 11.0309 51.3448 11.0499 51.3421 11.0691C51.3324 11.1398 51.3838 11.1946 51.4302 11.2267C51.4498 11.2404 51.4538 11.2708 51.4591 11.3064C51.4638 11.338 51.4696 11.3739 51.488 11.4052C51.4985 11.423 51.4988 11.448 51.4991 11.4689C51.4993 11.484 51.4995 11.497 51.5038 11.5032C51.5074 11.5086 51.5228 11.4947 51.54 11.4789C51.5524 11.4676 51.5659 11.4553 51.5766 11.4486C51.6022 11.4326 51.6197 11.4343 51.6241 11.4477C51.626 11.454 51.6251 11.4627 51.6242 11.4714C51.6232 11.4816 51.6221 11.4918 51.6257 11.498C51.6426 11.5264 51.6795 11.5225 51.7172 11.5177C51.7589 11.5125 51.8012 11.5061 51.8234 11.5424C51.8304 11.5538 51.834 11.5728 51.8377 11.5913C51.8416 11.6106 51.8456 11.6293 51.8531 11.6378C51.884 11.6726 51.9439 11.6474 51.9976 11.623C52.0333 11.6067 52.0665 11.591 52.0884 11.5942C52.1286 11.6003 52.1728 11.5543 52.2048 11.5201C52.2215 11.5023 52.235 11.4877 52.2432 11.4851C52.2479 11.4891 52.2526 11.4934 52.2571 11.4978C52.2602 11.5041 52.2634 11.5106 52.2688 11.5114C52.2692 11.5114 52.2697 11.5113 52.2701 11.5114C52.2944 11.5382 52.3165 11.5702 52.3388 11.6017C52.3888 11.6725 52.4441 11.7424 52.5266 11.7431C52.5445 11.7433 52.5687 11.725 52.5929 11.7063C52.6226 11.6833 52.6524 11.6594 52.6725 11.6679C52.72 11.6881 52.7591 11.7417 52.8004 11.7941C52.8614 11.8727 52.9289 11.9485 53.0129 11.8981C53.0404 11.8815 53.0696 11.8503 53.0983 11.8185C53.1143 11.8008 53.1302 11.7829 53.1456 11.7674C53.1377 11.7995 53.1312 11.8299 53.1252 11.8581C53.1128 11.9164 53.1022 11.9664 53.0822 12.0069C53.0351 12.1027 52.9733 12.2345 52.9585 12.3362C52.9546 12.3638 52.948 12.3942 52.9413 12.4248C52.9246 12.5014 52.9069 12.5797 52.9333 12.6212C52.9507 12.6492 52.9998 12.7143 53.0457 12.6605C53.0556 12.6488 53.0643 12.6239 53.0738 12.5962C53.0784 12.5829 53.0832 12.569 53.0884 12.5556C53.1027 12.5185 53.1203 12.485 53.1461 12.4779C53.152 12.4763 53.1584 12.475 53.1649 12.4738C53.191 12.4691 53.22 12.4636 53.2351 12.4235C53.2525 12.3773 53.256 12.3225 53.2604 12.2586C53.266 12.1754 53.2738 12.0768 53.3098 11.9608C53.3169 11.9379 53.3263 11.9307 53.3334 11.9253C53.3383 11.9215 53.3421 11.9184 53.3432 11.9114C53.3444 11.9033 53.3447 11.8863 53.3451 11.8648C53.3463 11.7888 53.3502 11.6565 53.3941 11.6551C53.4061 11.6548 53.4192 11.6623 53.4309 11.6689C53.4483 11.6788 53.4628 11.6868 53.4664 11.6654C53.4677 11.6573 53.4689 11.6484 53.47 11.6393C53.484 11.6429 53.498 11.6465 53.512 11.6499C53.5287 11.6768 53.5544 11.676 53.5868 11.6744C53.5946 11.674 53.6029 11.6736 53.6114 11.6735C53.6395 11.6798 53.6676 11.6856 53.6958 11.6912C53.7181 11.7023 53.7418 11.7201 53.7679 11.748C53.82 11.8039 53.8688 11.8956 53.9202 11.9844C53.9418 12.0218 53.9641 12.0587 53.9868 12.0921C53.9792 12.0969 53.9724 12.1024 53.9673 12.1097C53.9326 12.1598 53.922 12.2543 53.9114 12.3413C53.9043 12.3992 53.8973 12.4538 53.8827 12.4894C53.856 12.5546 53.861 12.6293 53.8651 12.6847C53.8673 12.7134 53.869 12.7369 53.8653 12.751C53.8624 12.7623 53.8548 12.7678 53.847 12.7735C53.8402 12.7784 53.8332 12.7836 53.8288 12.7927C53.7751 12.9036 53.7916 12.9669 53.8197 13.0591C53.8351 13.11 53.8536 13.1695 53.864 13.2506C53.8733 13.3365 53.8721 13.3619 53.8397 13.397C53.8666 13.439 53.8941 13.4807 53.9222 13.5222C53.9325 13.5191 53.9393 13.4921 53.9483 13.4475C53.9643 13.3678 54.0247 13.3358 54.0716 13.3098C54.0933 13.2978 54.112 13.2872 54.1219 13.2743C54.1746 13.2052 54.1489 13.1173 54.1282 13.0399C54.1166 12.9973 54.1063 12.9579 54.1092 12.9266C54.1104 12.9132 54.106 12.9004 54.1015 12.8874C54.0981 12.8773 54.0946 12.867 54.0936 12.8562C54.0866 12.778 54.1127 12.7173 54.1353 12.6607C54.1483 12.6283 54.1603 12.5972 54.1653 12.5652C54.1668 12.5554 54.1677 12.5455 54.1686 12.5359C54.1699 12.5219 54.1711 12.5085 54.174 12.4968C54.1806 12.4703 54.1978 12.4509 54.2164 12.4297C54.2259 12.4188 54.2357 12.4074 54.2446 12.3942C54.2562 12.3772 54.2569 12.3458 54.2576 12.3129C54.2581 12.2897 54.2586 12.2658 54.2627 12.2456C54.2701 12.209 54.2926 12.193 54.3132 12.1779C54.3222 12.1713 54.3307 12.1648 54.3377 12.157C54.3405 12.1539 54.3412 12.1483 54.3403 12.141C54.373 12.1108 54.4031 12.08 54.4316 12.0495C54.5756 11.8956 54.6762 11.7614 54.8984 11.7688C54.9408 11.7699 54.9803 11.7527 55.0165 11.7264C55.1565 11.7064 55.2973 11.6788 55.4383 11.6432C55.4956 11.6934 55.5545 11.7297 55.6143 11.7502C55.7266 11.7885 55.8099 11.7618 55.906 11.727C55.9773 11.7011 56.0558 11.6707 56.1639 11.6533C56.3454 11.6238 56.5265 11.568 56.6971 11.4586C56.8672 11.3504 57.0429 11.1983 57.1531 11.0775C57.2131 11.0123 57.3203 10.9768 57.4205 10.9386C57.5613 10.8856 57.6885 10.8258 57.634 10.7093C57.6166 10.6721 57.5768 10.6226 57.5375 10.5753C57.5096 10.5416 57.482 10.5089 57.463 10.4819C57.4894 10.4556 57.5155 10.4287 57.5415 10.4015C57.6356 10.3804 57.7533 10.323 57.7243 10.1982C57.7497 10.1682 57.7748 10.1377 57.7991 10.1079C57.8514 10.0425 57.9016 9.97711 57.9507 9.90917C57.9668 9.88701 57.9829 9.86437 57.9988 9.84144C57.999 9.84123 57.9991 9.84102 57.9993 9.84081C58.0313 9.79476 58.0628 9.74786 58.0933 9.70067C58.1064 9.68048 58.1193 9.66011 58.1322 9.63956C58.1646 9.58757 58.1963 9.53452 58.2269 9.4812C58.2432 9.45309 58.2593 9.42398 58.2751 9.39529C58.3009 9.34851 58.3261 9.30056 58.3506 9.25208C58.3903 9.17319 58.4279 9.09494 58.464 9.01335C58.47 9.00005 58.4838 8.98847 58.5032 8.98123C58.5226 8.974 58.546 8.97162 58.5692 8.97501C58.5924 8.9784 58.6141 8.98742 58.6305 9.00028C58.6468 9.01312 58.6562 9.02877 58.6576 9.04379C58.6658 9.13588 58.6717 9.22687 58.6743 9.3208C58.676 9.37853 58.6768 9.43661 58.6764 9.49428C58.6763 9.52969 58.6754 9.56577 58.6744 9.6012C58.6725 9.6683 58.6689 9.73636 58.6638 9.80431C58.6618 9.83115 58.6596 9.85798 58.6572 9.8848C58.6516 9.94766 58.6444 10.0112 58.6359 10.0747C58.6359 10.075 58.6358 10.0754 58.6358 10.0758C58.6316 10.1071 58.6272 10.1383 58.6225 10.1692C58.6079 10.2644 58.5907 10.3588 58.5696 10.4552C58.5591 10.5051 58.5469 10.5565 58.534 10.6081C58.5267 10.6367 58.5193 10.6653 58.5119 10.6933C58.5077 10.7086 58.5033 10.7241 58.4989 10.7396C58.3987 11.097 58.2573 11.4475 58.073 11.7856C57.8896 12.1226 57.665 12.4449 57.4046 12.7421C57.1435 13.04 56.8463 13.313 56.5178 13.5538C55.4963 14.3094 54.1505 14.7363 52.7794 14.6779C51.3658 14.6299 49.9112 14.0536 48.8042 13.046C48.4921 12.7647 48.1998 12.4424 47.9466 12.1011C47.6907 11.756 47.4715 11.3919 47.2857 10.9988C47.2293 10.8796 47.175 10.7551 47.1236 10.6257Z" fill="black"/>
</svg>
