<svg width="60" height="64" viewBox="0 0 60 64" fill="none" xmlns="http://www.w3.org/2000/svg">
<path d="M24.2216 43.5857C23.5298 42.7556 22.145 42.6758 21.3802 41.9136C20.4307 40.9672 20.0911 39.3806 19.0248 38.5465C17.9639 37.718 16.8479 36.9355 15.696 36.1949C14.5431 35.4532 13.3528 34.7517 12.1343 34.0747C10.9178 33.3996 9.67306 32.7488 8.41493 32.1139C7.56037 31.6827 6.69824 31.2576 5.83421 30.836C5.45506 30.6507 5.07631 30.4667 4.69652 30.2824C4.413 30.1451 4.12949 30.0078 3.84598 29.8705C3.80642 29.8515 3.73659 29.8653 3.64956 29.911C3.56243 29.9568 3.46567 30.0303 3.37774 30.1183C3.28978 30.2063 3.21622 30.3033 3.17072 30.3903C3.1254 30.4771 3.11224 30.5464 3.1316 30.5855C3.27299 30.8685 3.41439 31.1515 3.55578 31.4345C3.71294 31.7487 3.86954 32.0627 4.02715 32.3763C4.4252 32.0525 4.74991 31.8296 4.96622 31.8041C5.07658 31.7911 5.17322 31.8365 5.15844 31.9558C5.14511 32.063 5.07304 32.2059 5.00421 32.3418C4.93224 32.4841 4.86388 32.6191 4.87088 32.6979C4.8827 32.8317 4.79865 33.0541 4.71032 33.2878C4.67817 33.3729 4.64539 33.4595 4.61652 33.5439C4.76804 33.8422 4.92016 34.1399 5.07286 34.437C5.19818 34.4855 5.30912 34.5343 5.36208 34.6168C5.40957 34.6909 5.38899 34.8228 5.34956 34.9731C5.37332 35.019 5.39708 35.0648 5.42084 35.1107C5.5745 35.4065 5.72939 35.7012 5.8849 35.9952C6.15661 36.0743 6.43401 36.1647 6.71411 36.3626C6.83482 36.4479 6.98856 36.4975 7.13624 36.5452C7.35439 36.6157 7.55954 36.6821 7.6267 36.853C7.67158 36.9673 7.80629 36.9999 7.94065 37.0325C8.12085 37.0763 8.30072 37.1199 8.2631 37.3602C8.23943 37.5112 8.19172 37.676 8.1474 37.8287C8.07687 38.0716 8.01509 38.284 8.07386 38.3617C8.18428 38.5076 8.18106 38.7327 8.17814 38.9313C8.17463 39.17 8.17163 39.3704 8.36777 39.3475C8.39751 39.344 8.43461 39.337 8.47662 39.3288C8.69805 39.2858 9.0522 39.2169 9.14072 39.538C9.17222 39.6523 9.13309 39.8284 9.09456 40.001C9.03847 40.2524 8.98409 40.4964 9.15203 40.5316C9.17714 40.5368 9.23462 40.511 9.28707 40.4874C9.35376 40.4574 9.412 40.4312 9.38476 40.4774C9.30489 40.6129 9.23003 40.7761 9.14845 40.9536C9.08852 41.084 9.02499 41.2223 8.95351 41.3627C9.15674 41.6856 9.36252 42.0061 9.57145 42.3236C9.66714 42.469 9.76349 42.6139 9.8605 42.7582C10.0844 42.6578 10.2935 42.5748 10.4707 42.5309C10.7023 42.4736 10.8595 42.5423 11.0624 42.6306C11.2116 42.6955 11.3858 42.7711 11.6322 42.8153C12.0882 42.8971 12.3225 43.2153 12.3992 43.4927C12.4154 43.5513 12.4304 43.6116 12.446 43.6765C12.5053 43.9226 12.5788 44.2302 12.8117 44.7211C13.032 45.1855 13.2914 45.5083 13.4864 45.7508C13.5859 45.8746 13.6689 45.9771 13.7209 46.0672C13.8101 46.2214 13.9305 46.3998 14.0515 46.5787C14.2408 46.8587 14.4316 47.1402 14.5048 47.3344C14.5308 47.4035 14.5541 47.4802 14.5795 47.5626C14.6501 47.7909 14.7354 48.0667 14.9292 48.3706C15.1326 48.6895 15.3339 48.812 15.5876 48.8946C15.6908 48.9282 15.8886 48.8509 16.0929 48.7709C16.3827 48.6574 16.6852 48.5388 16.7468 48.726C16.7612 48.7697 16.7594 48.8335 16.7574 48.9003C16.7537 49.0231 16.7496 49.156 16.8456 49.1919C16.8791 49.2044 16.9367 49.1873 16.9931 49.1705C17.0553 49.1521 17.1161 49.1341 17.1425 49.1562C17.2413 49.2386 17.3202 49.3361 17.3902 49.4229C17.4805 49.5347 17.5563 49.6284 17.6415 49.6483C17.7935 49.6838 17.8438 49.8384 17.8945 49.9952C17.9333 50.1151 17.9721 50.2364 18.0573 50.3062C18.3008 50.5059 18.5061 50.9099 18.6545 51.3894C18.7107 51.5707 18.8968 51.5859 19.1356 51.6051C19.2841 51.617 19.4532 51.6302 19.6236 51.6864C19.7202 51.7183 19.6985 51.8489 19.6785 51.9696C19.6601 52.0808 19.6432 52.1838 19.7211 52.1941C19.79 52.2031 19.9427 52.0997 20.0877 52.0015C20.2491 51.8922 20.4009 51.7894 20.4171 51.8552C20.4257 51.8902 20.3882 51.9808 20.3436 52.0884C20.326 52.131 20.3074 52.1762 20.29 52.2218C20.3152 52.1951 20.3383 52.1717 20.3559 52.1541C20.48 52.0299 20.5873 52.0063 20.6924 51.9832C20.7344 51.974 20.776 51.965 20.8182 51.9496C20.9737 51.8928 21.0844 51.9689 21.1508 52.0453C21.179 52.0775 21.2449 52.0663 21.3217 52.0533C21.39 52.0418 21.467 52.0287 21.534 52.0432C21.5721 52.0515 21.626 52.0334 21.6708 52.0181C21.7032 52.007 21.7309 51.9975 21.7442 52.0011C21.7557 52.0042 21.726 52.0457 21.6926 52.0924C21.6685 52.126 21.6424 52.1625 21.6283 52.1893C21.5947 52.2533 21.5996 52.2875 21.629 52.2856C21.6426 52.2847 21.6614 52.2758 21.6802 52.267C21.702 52.2567 21.724 52.2463 21.7376 52.2486C21.7999 52.2591 21.7947 52.3351 21.7894 52.4141C21.7834 52.5009 21.7775 52.5913 21.8604 52.6023C21.8865 52.6057 21.9282 52.5955 21.9686 52.5856C22.0109 52.5752 22.0519 52.5652 22.0718 52.5716C22.1529 52.5976 22.1143 52.7368 22.0789 52.8648C22.0554 52.9499 22.0333 53.0301 22.0485 53.0687C22.0765 53.1396 21.9964 53.2727 21.9372 53.371C21.9066 53.422 21.8813 53.4637 21.8799 53.4825C21.8908 53.4875 21.9024 53.4921 21.9141 53.4961C21.9292 53.4955 21.9448 53.4949 21.9492 53.5045C21.9495 53.5052 21.9496 53.5062 21.9499 53.507C22.02 53.5253 22.1001 53.532 22.1798 53.5386C22.3588 53.5533 22.5358 53.5677 22.5911 53.7148C22.6031 53.7464 22.5812 53.8127 22.5591 53.88C22.532 53.9625 22.5042 54.0469 22.5371 54.0717C22.6155 54.1309 22.7575 54.1276 22.8974 54.1245C23.1079 54.1196 23.3135 54.115 23.2905 54.3228C23.2829 54.3913 23.2492 54.4845 23.2151 54.5783C23.1961 54.6305 23.1769 54.6832 23.1623 54.7314C23.2171 54.6695 23.2699 54.6129 23.3192 54.56C23.4208 54.4511 23.5077 54.3579 23.5681 54.2652C23.7106 54.0461 23.9162 53.7538 24.1026 53.5771C24.1532 53.5291 24.207 53.4732 24.2611 53.4167C24.3968 53.2752 24.5354 53.1307 24.635 53.1022C24.7021 53.083 24.8627 53.0455 24.7958 53.1906C24.7812 53.2223 24.7406 53.2732 24.6955 53.3299C24.6145 53.4317 24.5186 53.5523 24.5305 53.6146C24.5325 53.6251 24.5354 53.6357 24.5389 53.6463C24.5526 53.6885 24.5683 53.7355 24.5065 53.8207C24.4353 53.9189 24.3355 54.0129 24.2191 54.1226C24.0675 54.2655 23.8874 54.4352 23.7056 54.675C23.6697 54.7225 23.6664 54.7477 23.6639 54.7669C23.6621 54.7803 23.6605 54.7909 23.6484 54.8039C23.6345 54.8188 23.6027 54.8469 23.5624 54.8824C23.4202 55.0078 23.1719 55.227 23.2228 55.2977C23.2366 55.3168 23.2665 55.3245 23.2935 55.3313C23.3331 55.3413 23.366 55.3497 23.3305 55.3907C23.317 55.4063 23.3021 55.4227 23.2864 55.4396C23.3107 55.4548 23.3351 55.47 23.3595 55.4852C23.4305 55.465 23.4622 55.5045 23.5016 55.5541C23.5112 55.5661 23.5214 55.5786 23.5326 55.5911C23.5811 55.6207 23.6295 55.6504 23.6782 55.6798C23.7284 55.6914 23.7929 55.6928 23.8776 55.6776C24.0475 55.6471 24.2733 55.5426 24.4941 55.4402C24.5871 55.3971 24.6794 55.3543 24.7662 55.3177C24.764 55.3003 24.7641 55.2826 24.7697 55.2635C24.8076 55.1326 24.955 54.9479 25.0907 54.778C25.1809 54.6649 25.266 54.5583 25.31 54.4786C25.3907 54.3327 25.5265 54.2035 25.6269 54.1079C25.6789 54.0583 25.7215 54.0176 25.7419 53.9885C25.7582 53.9652 25.7594 53.9478 25.7607 53.9298C25.7619 53.9141 25.7631 53.8978 25.7743 53.877C25.9099 53.6247 26.0401 53.5297 26.2295 53.3913C26.3339 53.315 26.4564 53.2254 26.6079 53.089C26.7667 52.9431 26.8091 52.8964 26.8392 52.8051C26.9383 52.7537 27.0374 52.7023 27.1364 52.6509C27.1409 52.6651 27.1009 52.7192 27.0327 52.8074C26.9109 52.9647 26.9178 53.0737 26.9232 53.1588C26.9257 53.1983 26.9278 53.2326 26.9167 53.2644C26.8577 53.433 26.6832 53.5756 26.5297 53.701C26.4452 53.7701 26.367 53.834 26.3179 53.8942C26.2969 53.9199 26.2703 53.9398 26.2433 53.96C26.2224 53.9757 26.2011 53.9916 26.1818 54.0106C26.0422 54.1488 25.9715 54.2843 25.9058 54.4101C25.8682 54.4821 25.832 54.5512 25.7857 54.6156C25.7716 54.6353 25.7565 54.6547 25.7419 54.6735C25.7205 54.7009 25.7001 54.7271 25.6848 54.7517C25.6498 54.8076 25.6407 54.8597 25.631 54.9167C25.626 54.946 25.6207 54.9765 25.6117 55.0094C25.5999 55.0522 25.5506 55.1127 25.499 55.176C25.4627 55.2207 25.4252 55.2669 25.3988 55.3093C25.3511 55.386 25.358 55.4378 25.3643 55.4859C25.3671 55.5068 25.3695 55.5273 25.3676 55.5486C25.3668 55.5572 25.3592 55.5686 25.3467 55.5819C25.3478 55.6701 25.3461 55.7571 25.3441 55.8421C25.3341 56.2683 25.3251 56.6375 25.7311 56.7695C25.8079 56.7944 25.8573 56.8542 25.8918 56.9301C26.1228 57.0522 26.3557 57.1725 26.5899 57.2913C26.75 57.2011 26.8978 57.1387 27.0309 57.1068C27.2808 57.0469 27.4116 57.1115 27.566 57.1878C27.6801 57.2441 27.8072 57.3067 28.0049 57.3303C28.3369 57.3698 28.6514 57.4367 28.9309 57.5877C29.2092 57.7379 29.5017 57.9361 29.692 58.0929C29.7958 58.1784 30.0071 58.1658 30.204 58.1542C30.4808 58.1379 30.7291 58.1234 30.61 58.3853C30.5719 58.469 30.4882 58.5967 30.407 58.7209C30.3491 58.8093 30.2928 58.8957 30.2543 58.9637C30.3102 58.9865 30.3658 59.0094 30.4218 59.0321C30.6186 58.975 30.8633 58.9474 30.8267 59.1939C30.8847 59.217 30.9427 59.2402 30.9995 59.2617C31.122 59.3102 31.243 59.3565 31.3651 59.4032C31.4051 59.4183 31.4454 59.4337 31.4858 59.449C31.4862 59.4491 31.4867 59.4492 31.4871 59.4494C31.5685 59.4803 31.6504 59.5114 31.7317 59.5415C31.7664 59.5544 31.8011 59.5673 31.8359 59.5802C31.9241 59.6131 32.0129 59.6463 32.101 59.6781C32.1476 59.6949 32.1945 59.7121 32.2416 59.7292C32.3181 59.7568 32.3951 59.7847 32.472 59.8122C32.5963 59.8566 32.7207 59.9002 32.8455 59.9436C32.866 59.9507 32.9004 59.9428 32.9421 59.9205C32.9839 59.8981 33.0296 59.8634 33.071 59.8219C33.1125 59.7804 33.1473 59.7346 33.1695 59.6929C33.1916 59.6513 33.199 59.6174 33.1918 59.5971C33.1472 59.4733 33.1023 59.3501 33.0567 59.2268C33.0285 59.1506 33.0003 59.0739 32.9719 58.9982C32.9545 58.9514 32.9368 58.9051 32.9196 58.8588C32.8869 58.7716 32.8531 58.6832 32.8194 58.5958C32.8062 58.5613 32.793 58.5269 32.7798 58.4924C32.7489 58.4117 32.7168 58.3304 32.6851 58.2495C32.6849 58.249 32.6847 58.2485 32.6845 58.248C32.6689 58.2083 32.6534 58.1685 32.638 58.1292C32.5901 58.0082 32.5426 57.8883 32.4929 57.7669C32.468 57.7034 32.4409 57.6385 32.4143 57.5737C32.3994 57.5376 32.3847 57.5015 32.3704 57.466C32.3623 57.4468 32.3541 57.4274 32.3458 57.4079C32.1594 56.9565 31.9701 56.5124 31.7728 56.0706C31.5766 55.6299 31.3749 55.1938 31.1694 54.7632C30.9631 54.3319 30.7526 53.906 30.5374 53.4842C29.1723 50.8069 27.6809 48.2396 25.9874 45.8728C25.7461 45.5349 25.4926 45.1942 25.2415 44.8649C24.9872 44.5325 24.7346 44.2106 24.4702 43.8868C24.3901 43.7882 24.3072 43.688 24.2216 43.5857Z" fill="black"/>
<path d="M17.0897 8.97285C16.2596 9.66462 16.1799 11.0494 15.4176 11.8142C14.4712 12.7638 12.8846 13.1034 12.0506 14.1697C11.222 15.2305 10.4395 16.3465 9.69891 17.4984C8.95724 18.6513 8.25575 19.8416 7.57869 21.0601C6.90364 22.2766 6.25279 23.5214 5.61791 24.7795C5.18667 25.6341 4.76159 26.4962 4.33997 27.3602C4.15474 27.7394 3.97076 28.1181 3.78646 28.4979C3.64914 28.7814 3.51182 29.0649 3.37449 29.3485C3.35554 29.388 3.36933 29.4579 3.41502 29.5449C3.46084 29.632 3.53429 29.7288 3.62227 29.8167C3.71032 29.9047 3.80735 29.9782 3.89432 30.0237C3.9811 30.069 4.05039 30.0822 4.08955 30.0628C4.37254 29.9214 4.65553 29.7801 4.93852 29.6387C5.25274 29.4815 5.5667 29.3249 5.88034 29.1673C5.55647 28.7692 5.33362 28.4445 5.30811 28.2282C5.29512 28.1179 5.34048 28.0212 5.45983 28.036C5.56705 28.0493 5.70986 28.1214 5.84585 28.1902C5.98808 28.2622 6.1231 28.3306 6.20192 28.3236C6.33572 28.3117 6.55816 28.3958 6.79184 28.4841C6.87689 28.5163 6.96354 28.549 7.04787 28.5779C7.34618 28.4264 7.64395 28.2743 7.94105 28.1216C7.98948 27.9963 8.03828 27.8853 8.12084 27.8324C8.19491 27.7849 8.32683 27.8054 8.47709 27.8449C8.52297 27.8211 8.56885 27.7974 8.61472 27.7736C8.91048 27.6199 9.20518 27.4651 9.49926 27.3095C9.57836 27.0378 9.66867 26.7604 9.86663 26.4803C9.95195 26.3596 10.0015 26.2059 10.0492 26.0582C10.1197 25.8401 10.1861 25.6349 10.357 25.5677C10.4713 25.5229 10.504 25.3882 10.5366 25.2538C10.5803 25.0736 10.6239 24.8937 10.8642 24.9313C11.0152 24.955 11.18 25.0027 11.3327 25.047C11.5756 25.1176 11.788 25.1794 11.8657 25.1206C12.0116 25.0102 12.2367 25.0134 12.4353 25.0163C12.6741 25.0198 12.8744 25.0228 12.8515 24.8267C12.848 24.7969 12.841 24.7598 12.8328 24.7178C12.7898 24.4964 12.721 24.1422 13.042 24.0537C13.1563 24.0222 13.3324 24.0614 13.5051 24.0999C13.7564 24.156 14.0004 24.2104 14.0356 24.0424C14.0408 24.0173 14.015 23.9598 13.9914 23.9074C13.9614 23.8407 13.9352 23.7824 13.9814 23.8097C14.1169 23.8896 14.2801 23.9644 14.4576 24.046C14.5881 24.1059 14.7263 24.1695 14.8667 24.2409C15.1896 24.0377 15.5101 23.8319 15.8276 23.623C15.973 23.5273 16.1179 23.431 16.2622 23.3339C16.1618 23.1101 16.0788 22.9009 16.0349 22.7237C15.9776 22.4922 16.0463 22.335 16.1346 22.1321C16.1995 21.9828 16.2751 21.8086 16.3193 21.5623C16.4011 21.1062 16.7193 20.872 16.9967 20.7952C17.0553 20.779 17.1156 20.764 17.1805 20.7484C17.4266 20.6892 17.7342 20.6156 18.2251 20.3828C18.6895 20.1625 19.0123 19.903 19.2548 19.7081C19.3786 19.6086 19.4811 19.5256 19.5712 19.4735C19.7254 19.3844 19.9038 19.264 20.0827 19.143C20.3627 18.9536 20.6442 18.7629 20.8384 18.6897C20.9076 18.6636 20.9842 18.6403 21.0666 18.6149C21.2949 18.5444 21.5707 18.4591 21.8746 18.2653C22.1935 18.0619 22.316 17.8606 22.3986 17.6068C22.4322 17.5037 22.3549 17.3058 22.2749 17.1015C22.1614 16.8117 22.0428 16.5092 22.23 16.4476C22.2738 16.4333 22.3375 16.4351 22.4043 16.437C22.5271 16.4407 22.66 16.4448 22.6959 16.3488C22.7084 16.3154 22.6913 16.2578 22.6745 16.2013C22.6561 16.1392 22.6382 16.0784 22.6602 16.0519C22.7427 15.9531 22.8401 15.8742 22.9269 15.8042C23.0387 15.714 23.1324 15.6382 23.1523 15.5529C23.1878 15.401 23.3424 15.3506 23.4993 15.2999C23.6191 15.2612 23.7404 15.2223 23.8102 15.1371C24.0099 14.8937 24.4139 14.6883 24.8934 14.5399C25.0748 14.4838 25.0899 14.2976 25.1091 14.0589C25.121 13.9104 25.1342 13.7413 25.1904 13.5708C25.2223 13.4742 25.3529 13.496 25.4736 13.516C25.5848 13.5344 25.6878 13.5513 25.6981 13.4733C25.7071 13.4044 25.6037 13.2517 25.5055 13.1067C25.3962 12.9453 25.2934 12.7935 25.3592 12.7774C25.3942 12.7688 25.4848 12.8063 25.5925 12.8509C25.635 12.8685 25.6802 12.887 25.7258 12.9045C25.6991 12.8792 25.6757 12.8562 25.6581 12.8386C25.5339 12.7144 25.5103 12.6072 25.4872 12.502C25.478 12.4601 25.469 12.4185 25.4536 12.3762C25.3968 12.2208 25.4729 12.1101 25.5493 12.0436C25.5815 12.0155 25.5704 11.9496 25.5573 11.8727C25.5458 11.8044 25.5327 11.7274 25.5472 11.6605C25.5555 11.6223 25.5374 11.5685 25.5221 11.5237C25.511 11.4912 25.5015 11.4635 25.5051 11.4502C25.5082 11.4387 25.5497 11.4684 25.5964 11.5019C25.63 11.526 25.6665 11.5521 25.6933 11.5661C25.7573 11.5997 25.7915 11.5949 25.7896 11.5655C25.7887 11.5519 25.7798 11.533 25.771 11.5143C25.7607 11.4924 25.7503 11.4705 25.7526 11.4569C25.7631 11.3945 25.8391 11.3997 25.9181 11.4051C26.0049 11.411 26.0953 11.417 26.1063 11.3341C26.1098 11.308 26.0995 11.2663 26.0896 11.2258C26.0792 11.1835 26.0692 11.1426 26.0756 11.1226C26.1017 11.0416 26.2408 11.0801 26.3688 11.1155C26.4539 11.1391 26.5341 11.1612 26.5727 11.1459C26.6436 11.1179 26.7767 11.1981 26.875 11.2572C26.926 11.2879 26.9677 11.3131 26.9866 11.3146C26.9915 11.3037 26.9961 11.2921 27.0001 11.2803C26.9995 11.2653 26.9989 11.2497 27.0085 11.2452C27.0092 11.2449 27.0102 11.2448 27.011 11.2445C27.0293 11.1745 27.036 11.0944 27.0426 11.0147C27.0574 10.8357 27.0717 10.6587 27.2188 10.6033C27.2504 10.5914 27.3167 10.6132 27.384 10.6354C27.4665 10.6625 27.5509 10.6902 27.5757 10.6573C27.6349 10.579 27.6317 10.4369 27.6285 10.297C27.6236 10.0866 27.619 9.88097 27.8268 9.90397C27.8953 9.91156 27.9885 9.94524 28.0823 9.97933C28.1345 9.99834 28.1872 10.0176 28.2354 10.0321C28.1735 9.97736 28.1169 9.92451 28.064 9.87522C27.9551 9.77363 27.8619 9.68671 27.7692 9.62638C27.5501 9.48381 27.2578 9.27822 27.0811 9.09186C27.0331 9.04128 26.9772 8.98747 26.9208 8.93336C26.7792 8.79764 26.6347 8.65902 26.6062 8.55946C26.587 8.49237 26.5495 8.33178 26.6946 8.39865C26.7263 8.41323 26.7772 8.45384 26.8339 8.49894C26.9357 8.57998 27.0563 8.67589 27.1186 8.664C27.1291 8.662 27.1397 8.65903 27.1503 8.65558C27.1925 8.64182 27.2395 8.62617 27.3247 8.68795C27.4229 8.75912 27.5169 8.85896 27.6266 8.97537C27.7695 9.12698 27.9392 9.30708 28.179 9.4888C28.2265 9.52471 28.2517 9.52801 28.2709 9.53054C28.2843 9.53233 28.2949 9.53398 28.3079 9.54606C28.3228 9.55997 28.3509 9.59179 28.3864 9.63208C28.5118 9.77423 28.731 10.0225 28.8017 9.97164C28.8208 9.95786 28.8285 9.92792 28.8353 9.901C28.8453 9.86133 28.8537 9.82847 28.8947 9.86394C28.9103 9.87742 28.9267 9.8924 28.9436 9.90809C28.9588 9.8837 28.974 9.85932 28.9892 9.83494C28.969 9.76397 29.0085 9.73225 29.0581 9.69285C29.0701 9.68328 29.0826 9.67304 29.0951 9.66188C29.1247 9.6134 29.1544 9.56495 29.1838 9.5163C29.1954 9.46601 29.1968 9.40158 29.1816 9.31681C29.1511 9.14697 29.0466 8.92113 28.9442 8.70034C28.9011 8.60731 28.8583 8.51501 28.8217 8.42826C28.8043 8.43045 28.7866 8.43031 28.7675 8.42477C28.6366 8.38684 28.4519 8.23946 28.282 8.10377C28.1689 8.01352 28.0623 7.92844 27.9826 7.88442C27.8367 7.80375 27.7075 7.66796 27.6119 7.56759C27.5623 7.51552 27.5216 7.47294 27.4925 7.45256C27.4692 7.43625 27.4518 7.43503 27.4338 7.43373C27.4181 7.43259 27.4018 7.43131 27.3811 7.42015C27.1287 7.28453 27.0337 7.15439 26.8953 6.965C26.819 6.86054 26.7294 6.73804 26.593 6.58659C26.4471 6.42774 26.4004 6.38535 26.3091 6.35524C26.2577 6.25617 26.2063 6.15709 26.1549 6.05801C26.1691 6.05355 26.2232 6.09351 26.3114 6.16172C26.4687 6.28353 26.5777 6.27661 26.6628 6.27121C26.7023 6.26871 26.7366 6.26661 26.7684 6.27771C26.937 6.33678 27.0796 6.51123 27.205 6.66476C27.2741 6.74926 27.338 6.82744 27.3982 6.87653C27.4239 6.89754 27.4438 6.92411 27.464 6.95117C27.4797 6.97209 27.4956 6.99338 27.5146 7.01262C27.6528 7.15224 27.7883 7.22295 27.9141 7.28863C27.9861 7.32624 28.0552 7.36243 28.1197 7.40877C28.1393 7.42289 28.1587 7.43792 28.1775 7.45258C28.2049 7.47399 28.2311 7.49433 28.2557 7.50968C28.3116 7.54464 28.3637 7.55372 28.4207 7.56348C28.45 7.56849 28.4805 7.57371 28.5134 7.58278C28.5562 7.59455 28.6167 7.64391 28.68 7.69541C28.7247 7.7318 28.7709 7.76921 28.8133 7.79562C28.89 7.84334 28.9418 7.83649 28.9899 7.83013C29.0108 7.82736 29.0313 7.82493 29.0526 7.82689C29.0612 7.82769 29.0726 7.83526 29.0859 7.8478C29.1741 7.84662 29.2611 7.84839 29.3461 7.85039C29.7723 7.86039 30.1415 7.86936 30.2735 7.46331C30.2984 7.38655 30.3582 7.33711 30.4341 7.30267C30.5562 7.07165 30.6765 6.83876 30.7953 6.60459C30.7051 6.44449 30.6427 6.29664 30.6108 6.16357C30.5509 5.9137 30.6155 5.78288 30.6918 5.6285C30.7481 5.51435 30.8107 5.38721 30.8343 5.18959C30.8738 4.85756 30.9407 4.54309 31.0917 4.26357C31.2419 3.98527 31.4401 3.69274 31.5969 3.50244C31.6824 3.39868 31.6698 3.18733 31.6582 2.9905C31.6419 2.71363 31.6274 2.46534 31.8893 2.58447C31.973 2.62255 32.1007 2.70621 32.2249 2.78745C32.3133 2.84531 32.3997 2.90167 32.4677 2.94011C32.4905 2.8843 32.5134 2.82863 32.5361 2.77263C32.479 2.57582 32.4514 2.33116 32.6979 2.3678C32.721 2.30975 32.7442 2.25176 32.7657 2.19493C32.8142 2.0725 32.8605 1.95145 32.9072 1.82937C32.9223 1.78936 32.9376 1.74906 32.953 1.70862C32.9531 1.70821 32.9532 1.70781 32.9534 1.7074C32.9843 1.626 33.0154 1.54401 33.0455 1.46279C33.0584 1.42805 33.0713 1.39331 33.0842 1.35857C33.1171 1.27031 33.1503 1.18152 33.1821 1.0935C33.1989 1.04684 33.2161 0.999984 33.2332 0.952849C33.2608 0.876381 33.2887 0.799387 33.3162 0.7225C33.3606 0.59817 33.4042 0.47378 33.4476 0.348917C33.4547 0.328422 33.4468 0.294071 33.4244 0.252327C33.4021 0.210531 33.3674 0.16484 33.3259 0.123411C33.2844 0.0819703 33.2386 0.0471847 33.1969 0.0249707C33.1553 0.00286649 33.1214 -0.00454207 33.1011 0.00265494C32.9773 0.0472573 32.8541 0.0921834 32.7308 0.137793C32.6546 0.165972 32.5779 0.194181 32.5021 0.222527C32.4554 0.240005 32.409 0.257632 32.3628 0.274859C32.2756 0.307527 32.1872 0.341363 32.0998 0.375039C32.0653 0.388241 32.0309 0.401443 31.9964 0.414645C31.9157 0.445529 31.8343 0.477611 31.7535 0.509347C31.753 0.509543 31.7525 0.509739 31.752 0.509935C31.7123 0.525548 31.6725 0.541095 31.6332 0.556449C31.5122 0.604335 31.3923 0.651811 31.2709 0.70154C31.2074 0.72641 31.1425 0.753572 31.0777 0.78019C31.0416 0.79501 31.0055 0.809727 30.97 0.824101C30.9508 0.832111 30.9314 0.84036 30.9119 0.84865C30.4605 1.03509 30.0164 1.22431 29.5746 1.42167C29.1339 1.61783 28.6978 1.81959 28.2672 2.02507C27.8359 2.23131 27.41 2.44185 26.9882 2.65702C24.3109 4.02217 21.7436 5.51354 19.3768 7.20707C19.0389 7.44831 18.6982 7.70187 18.3689 7.95297C18.0365 8.20721 17.7146 8.45984 17.3908 8.72428C17.2922 8.80434 17.192 8.88722 17.0897 8.97285Z" fill="black"/>
<path d="M46.2216 43.5857C45.5298 42.7556 44.145 42.6758 43.3802 41.9136C42.4307 40.9672 42.0911 39.3806 41.0248 38.5465C39.9639 37.718 38.8479 36.9355 37.696 36.1949C36.5431 35.4532 35.3528 34.7517 34.1343 34.0747C32.9178 33.3996 31.6731 32.7488 30.4149 32.1139C29.5604 31.6827 28.6982 31.2576 27.8342 30.836C27.4551 30.6507 27.0763 30.4667 26.6965 30.2824C26.413 30.1451 26.1295 30.0078 25.846 29.8705C25.8064 29.8515 25.7366 29.8653 25.6496 29.911C25.5624 29.9568 25.4657 30.0303 25.3777 30.1183C25.2898 30.2063 25.2162 30.3033 25.1707 30.3903C25.1254 30.4771 25.1122 30.5464 25.1316 30.5855C25.273 30.8685 25.4144 31.1515 25.5558 31.4345C25.7129 31.7487 25.8695 32.0627 26.0272 32.3763C26.4252 32.0525 26.7499 31.8296 26.9662 31.8041C27.0766 31.7911 27.1732 31.8365 27.1584 31.9558C27.1451 32.063 27.073 32.2059 27.0042 32.3418C26.9322 32.4841 26.8639 32.6191 26.8709 32.6979C26.8827 32.8317 26.7987 33.0541 26.7103 33.2878C26.6782 33.3729 26.6454 33.4595 26.6165 33.5439C26.768 33.8422 26.9202 34.1399 27.0729 34.437C27.1982 34.4855 27.3091 34.5343 27.3621 34.6168C27.4096 34.6909 27.389 34.8228 27.3496 34.9731C27.3733 35.019 27.3971 35.0648 27.4208 35.1107C27.5745 35.4065 27.7294 35.7012 27.8849 35.9952C28.1566 36.0743 28.434 36.1647 28.7141 36.3626C28.8348 36.4479 28.9886 36.4975 29.1362 36.5452C29.3544 36.6157 29.5595 36.6821 29.6267 36.853C29.6716 36.9673 29.8063 36.9999 29.9407 37.0325C30.1209 37.0763 30.3007 37.1199 30.2631 37.3602C30.2394 37.5112 30.1917 37.676 30.1474 37.8287C30.0769 38.0716 30.0151 38.284 30.0739 38.3617C30.1843 38.5076 30.1811 38.7327 30.1781 38.9313C30.1746 39.17 30.1716 39.3704 30.3678 39.3475C30.3975 39.344 30.4346 39.337 30.4766 39.3288C30.6981 39.2858 31.0522 39.2169 31.1407 39.538C31.1722 39.6523 31.1331 39.8284 31.0946 40.001C31.0385 40.2524 30.9841 40.4964 31.152 40.5316C31.1771 40.5368 31.2346 40.511 31.2871 40.4874C31.3538 40.4574 31.412 40.4312 31.3848 40.4774C31.3049 40.6129 31.23 40.7761 31.1485 40.9536C31.0885 41.084 31.025 41.2223 30.9535 41.3627C31.1567 41.6856 31.3625 42.0061 31.5715 42.3236C31.6671 42.469 31.7635 42.6139 31.8605 42.7582C32.0844 42.6578 32.2935 42.5748 32.4707 42.5309C32.7023 42.4736 32.8595 42.5423 33.0624 42.6306C33.2116 42.6955 33.3858 42.7711 33.6322 42.8153C34.0882 42.8971 34.3225 43.2153 34.3992 43.4927C34.4154 43.5513 34.4304 43.6116 34.446 43.6765C34.5053 43.9226 34.5788 44.2302 34.8117 44.7211C35.032 45.1855 35.2914 45.5083 35.4864 45.7508C35.5859 45.8746 35.6689 45.9771 35.7209 46.0672C35.8101 46.2214 35.9305 46.3998 36.0515 46.5787C36.2408 46.8587 36.4316 47.1402 36.5048 47.3344C36.5308 47.4035 36.5541 47.4802 36.5795 47.5626C36.6501 47.7909 36.7354 48.0667 36.9292 48.3706C37.1326 48.6895 37.3339 48.812 37.5876 48.8946C37.6908 48.9282 37.8886 48.8509 38.0929 48.7709C38.3827 48.6574 38.6852 48.5388 38.7468 48.726C38.7612 48.7697 38.7594 48.8335 38.7574 48.9003C38.7537 49.0231 38.7496 49.156 38.8456 49.1919C38.8791 49.2044 38.9367 49.1873 38.9931 49.1705C39.0553 49.1521 39.1161 49.1341 39.1425 49.1562C39.2413 49.2386 39.3202 49.3361 39.3902 49.4229C39.4805 49.5347 39.5563 49.6284 39.6415 49.6483C39.7935 49.6838 39.8438 49.8384 39.8945 49.9952C39.9333 50.1151 39.9721 50.2364 40.0573 50.3062C40.3008 50.5059 40.5061 50.9099 40.6545 51.3894C40.7107 51.5707 40.8968 51.5859 41.1356 51.6051C41.2841 51.617 41.4532 51.6302 41.6236 51.6864C41.7202 51.7183 41.6985 51.8489 41.6785 51.9696C41.6601 52.0808 41.6432 52.1838 41.7211 52.1941C41.79 52.2031 41.9427 52.0997 42.0877 52.0015C42.2491 51.8922 42.4009 51.7894 42.4171 51.8552C42.4257 51.8902 42.3882 51.9808 42.3436 52.0884C42.326 52.131 42.3074 52.1762 42.29 52.2218C42.3152 52.1951 42.3383 52.1717 42.3559 52.1541C42.48 52.0299 42.5873 52.0063 42.6924 51.9832C42.7344 51.974 42.776 51.965 42.8182 51.9496C42.9737 51.8928 43.0844 51.9689 43.1508 52.0453C43.179 52.0775 43.2449 52.0663 43.3217 52.0533C43.39 52.0418 43.467 52.0287 43.534 52.0432C43.5721 52.0515 43.626 52.0334 43.6708 52.0181C43.7032 52.007 43.7309 51.9975 43.7442 52.0011C43.7557 52.0042 43.726 52.0457 43.6926 52.0924C43.6685 52.126 43.6424 52.1625 43.6283 52.1893C43.5947 52.2533 43.5996 52.2875 43.629 52.2856C43.6426 52.2847 43.6614 52.2758 43.6802 52.267C43.702 52.2567 43.724 52.2463 43.7376 52.2486C43.7999 52.2591 43.7947 52.3351 43.7894 52.4141C43.7834 52.5009 43.7775 52.5913 43.8604 52.6023C43.8865 52.6057 43.9282 52.5955 43.9686 52.5856C44.0109 52.5752 44.0519 52.5652 44.0718 52.5716C44.1529 52.5976 44.1143 52.7368 44.0789 52.8648C44.0554 52.9499 44.0333 53.0301 44.0485 53.0687C44.0765 53.1396 43.9964 53.2727 43.9372 53.371C43.9066 53.422 43.8813 53.4637 43.8799 53.4825C43.8908 53.4875 43.9024 53.4921 43.9141 53.4961C43.9292 53.4955 43.9448 53.4949 43.9492 53.5045C43.9495 53.5052 43.9496 53.5062 43.9499 53.507C44.02 53.5253 44.1001 53.532 44.1798 53.5386C44.3588 53.5533 44.5358 53.5677 44.5911 53.7148C44.6031 53.7464 44.5812 53.8127 44.5591 53.88C44.532 53.9625 44.5042 54.0469 44.5371 54.0717C44.6155 54.1309 44.7575 54.1276 44.8974 54.1245C45.1079 54.1196 45.3135 54.115 45.2905 54.3228C45.2829 54.3913 45.2492 54.4845 45.2151 54.5783C45.1961 54.6305 45.1769 54.6832 45.1623 54.7314C45.2171 54.6695 45.2699 54.6129 45.3192 54.56C45.4208 54.4511 45.5077 54.3579 45.5681 54.2652C45.7106 54.0461 45.9162 53.7538 46.1026 53.5771C46.1532 53.5291 46.207 53.4732 46.2611 53.4167C46.3968 53.2752 46.5354 53.1307 46.635 53.1022C46.7021 53.083 46.8627 53.0455 46.7958 53.1906C46.7812 53.2223 46.7406 53.2732 46.6955 53.3299C46.6145 53.4317 46.5186 53.5523 46.5305 53.6146C46.5325 53.6251 46.5354 53.6357 46.5389 53.6463C46.5526 53.6885 46.5683 53.7355 46.5065 53.8207C46.4353 53.9189 46.3355 54.0129 46.2191 54.1226C46.0675 54.2655 45.8874 54.4352 45.7056 54.675C45.6697 54.7225 45.6664 54.7477 45.6639 54.7669C45.6621 54.7803 45.6605 54.7909 45.6484 54.8039C45.6345 54.8188 45.6027 54.8469 45.5624 54.8824C45.4202 55.0078 45.1719 55.227 45.2228 55.2977C45.2366 55.3168 45.2665 55.3245 45.2935 55.3313C45.3331 55.3413 45.366 55.3497 45.3305 55.3907C45.317 55.4063 45.3021 55.4227 45.2864 55.4396C45.3107 55.4548 45.3351 55.47 45.3595 55.4852C45.4305 55.465 45.4622 55.5045 45.5016 55.5541C45.5112 55.5661 45.5214 55.5786 45.5326 55.5911C45.5811 55.6207 45.6295 55.6504 45.6782 55.6798C45.7284 55.6914 45.7929 55.6928 45.8776 55.6776C46.0475 55.6471 46.2733 55.5426 46.4941 55.4402C46.5871 55.3971 46.6794 55.3543 46.7662 55.3177C46.764 55.3003 46.7641 55.2826 46.7697 55.2635C46.8076 55.1326 46.955 54.9479 47.0907 54.778C47.1809 54.6649 47.266 54.5583 47.31 54.4786C47.3907 54.3327 47.5265 54.2035 47.6269 54.1079C47.6789 54.0583 47.7215 54.0176 47.7419 53.9885C47.7582 53.9652 47.7594 53.9478 47.7607 53.9298C47.7619 53.9141 47.7631 53.8978 47.7743 53.877C47.9099 53.6247 48.0401 53.5297 48.2295 53.3913C48.3339 53.315 48.4564 53.2254 48.6079 53.089C48.7667 52.9431 48.8091 52.8964 48.8392 52.8051C48.9383 52.7537 49.0374 52.7023 49.1364 52.6509C49.1409 52.6651 49.1009 52.7192 49.0327 52.8074C48.9109 52.9647 48.9178 53.0737 48.9232 53.1588C48.9257 53.1983 48.9278 53.2326 48.9167 53.2644C48.8577 53.433 48.6832 53.5756 48.5297 53.701C48.4452 53.7701 48.367 53.834 48.3179 53.8942C48.2969 53.9199 48.2703 53.9398 48.2433 53.96C48.2224 53.9757 48.2011 53.9916 48.1818 54.0106C48.0422 54.1488 47.9715 54.2843 47.9058 54.4101C47.8682 54.4821 47.832 54.5512 47.7857 54.6156C47.7716 54.6353 47.7565 54.6547 47.7419 54.6735C47.7205 54.7009 47.7001 54.7271 47.6848 54.7517C47.6498 54.8076 47.6407 54.8597 47.631 54.9167C47.626 54.946 47.6207 54.9765 47.6117 55.0094C47.5999 55.0522 47.5506 55.1127 47.499 55.176C47.4627 55.2207 47.4252 55.2669 47.3988 55.3093C47.3511 55.386 47.358 55.4378 47.3643 55.4859C47.3671 55.5068 47.3695 55.5273 47.3676 55.5486C47.3668 55.5572 47.3592 55.5686 47.3467 55.5819C47.3478 55.6701 47.3461 55.7571 47.3441 55.8421C47.3341 56.2683 47.3251 56.6375 47.7311 56.7695C47.8079 56.7944 47.8573 56.8542 47.8918 56.9301C48.1228 57.0522 48.3557 57.1725 48.5899 57.2913C48.75 57.2011 48.8978 57.1387 49.0309 57.1068C49.2808 57.0469 49.4116 57.1115 49.566 57.1878C49.6801 57.2441 49.8072 57.3067 50.0049 57.3303C50.3369 57.3698 50.6514 57.4367 50.9309 57.5877C51.2092 57.7379 51.5017 57.9361 51.692 58.0929C51.7958 58.1784 52.0071 58.1658 52.204 58.1542C52.4808 58.1379 52.7291 58.1234 52.61 58.3853C52.5719 58.469 52.4882 58.5967 52.407 58.7209C52.3491 58.8093 52.2928 58.8957 52.2543 58.9637C52.3102 58.9865 52.3658 59.0094 52.4218 59.0321C52.6186 58.975 52.8633 58.9474 52.8267 59.1939C52.8847 59.217 52.9427 59.2402 52.9995 59.2617C53.122 59.3102 53.243 59.3565 53.3651 59.4032C53.4051 59.4183 53.4454 59.4337 53.4858 59.449C53.4862 59.4491 53.4867 59.4492 53.4871 59.4494C53.5685 59.4803 53.6504 59.5114 53.7317 59.5415C53.7664 59.5544 53.8011 59.5673 53.8359 59.5802C53.9241 59.6131 54.0129 59.6463 54.101 59.6781C54.1476 59.6949 54.1945 59.7121 54.2416 59.7292C54.3181 59.7568 54.3951 59.7847 54.472 59.8122C54.5963 59.8566 54.7207 59.9002 54.8455 59.9436C54.866 59.9507 54.9004 59.9428 54.9421 59.9205C54.9839 59.8981 55.0296 59.8634 55.071 59.8219C55.1125 59.7804 55.1473 59.7346 55.1695 59.6929C55.1916 59.6513 55.199 59.6174 55.1918 59.5971C55.1472 59.4733 55.1023 59.3501 55.0567 59.2268C55.0285 59.1506 55.0003 59.0739 54.9719 58.9982C54.9545 58.9514 54.9368 58.9051 54.9196 58.8588C54.8869 58.7716 54.8531 58.6832 54.8194 58.5958C54.8062 58.5613 54.793 58.5269 54.7798 58.4924C54.7489 58.4117 54.7168 58.3304 54.6851 58.2495C54.6849 58.249 54.6847 58.2485 54.6845 58.248C54.6689 58.2083 54.6534 58.1685 54.638 58.1292C54.5901 58.0082 54.5426 57.8883 54.4929 57.7669C54.468 57.7034 54.4409 57.6385 54.4143 57.5737C54.3994 57.5376 54.3847 57.5015 54.3704 57.466C54.3623 57.4468 54.3541 57.4274 54.3458 57.4079C54.1594 56.9565 53.9701 56.5124 53.7728 56.0706C53.5766 55.6299 53.3749 55.1938 53.1694 54.7632C52.9631 54.3319 52.7526 53.906 52.5374 53.4842C51.1723 50.8069 49.6809 48.2396 47.9874 45.8728C47.7461 45.5349 47.4926 45.1942 47.2415 44.8649C46.9872 44.5325 46.7346 44.2106 46.4702 43.8868C46.3901 43.7882 46.3072 43.688 46.2216 43.5857Z" fill="black"/>
<path d="M40.0897 8.97285C39.2596 9.66462 39.1799 11.0494 38.4176 11.8142C37.4712 12.7638 35.8846 13.1034 35.0506 14.1697C34.222 15.2305 33.4395 16.3465 32.6989 17.4984C31.9572 18.6513 31.2558 19.8416 30.5787 21.0601C29.9036 22.2766 29.2528 23.5214 28.6179 24.7795C28.1867 25.6341 27.7616 26.4962 27.34 27.3602C27.1547 27.7394 26.9708 28.1181 26.7865 28.4979C26.6491 28.7814 26.5118 29.0649 26.3745 29.3485C26.3555 29.388 26.3693 29.4579 26.415 29.5449C26.4608 29.632 26.5343 29.7288 26.6223 29.8167C26.7103 29.9047 26.8073 29.9782 26.8943 30.0237C26.9811 30.069 27.0504 30.0822 27.0896 30.0628C27.3725 29.9214 27.6555 29.7801 27.9385 29.6387C28.2527 29.4815 28.5667 29.3249 28.8803 29.1673C28.5565 28.7692 28.3336 28.4445 28.3081 28.2282C28.2951 28.1179 28.3405 28.0212 28.4598 28.036C28.567 28.0493 28.7099 28.1214 28.8459 28.1902C28.9881 28.2622 29.1231 28.3306 29.2019 28.3236C29.3357 28.3117 29.5582 28.3958 29.7918 28.4841C29.8769 28.5163 29.9635 28.549 30.0479 28.5779C30.3462 28.4264 30.6439 28.2743 30.941 28.1216C30.9895 27.9963 31.0383 27.8853 31.1208 27.8324C31.1949 27.7849 31.3268 27.8054 31.4771 27.8449C31.523 27.8211 31.5688 27.7974 31.6147 27.7736C31.9105 27.6199 32.2052 27.4651 32.4993 27.3095C32.5784 27.0378 32.6687 26.7604 32.8666 26.4803C32.952 26.3596 33.0015 26.2059 33.0492 26.0582C33.1197 25.8401 33.1861 25.6349 33.357 25.5677C33.4713 25.5229 33.504 25.3882 33.5366 25.2538C33.5803 25.0736 33.6239 24.8937 33.8642 24.9313C34.0152 24.955 34.18 25.0027 34.3327 25.047C34.5756 25.1176 34.788 25.1794 34.8657 25.1206C35.0116 25.0102 35.2367 25.0134 35.4353 25.0163C35.6741 25.0198 35.8744 25.0228 35.8515 24.8267C35.848 24.7969 35.841 24.7598 35.8328 24.7178C35.7898 24.4964 35.721 24.1422 36.042 24.0537C36.1563 24.0222 36.3324 24.0614 36.5051 24.0999C36.7564 24.156 37.0004 24.2104 37.0356 24.0424C37.0408 24.0173 37.015 23.9598 36.9914 23.9074C36.9614 23.8407 36.9352 23.7824 36.9814 23.8097C37.1169 23.8896 37.2801 23.9644 37.4576 24.046C37.5881 24.1059 37.7263 24.1695 37.8667 24.2409C38.1896 24.0377 38.5101 23.8319 38.8276 23.623C38.973 23.5273 39.1179 23.431 39.2622 23.3339C39.1618 23.1101 39.0788 22.9009 39.0349 22.7237C38.9776 22.4922 39.0463 22.335 39.1346 22.1321C39.1995 21.9828 39.2751 21.8086 39.3193 21.5623C39.4011 21.1062 39.7193 20.872 39.9967 20.7952C40.0553 20.779 40.1156 20.764 40.1805 20.7484C40.4266 20.6892 40.7342 20.6156 41.2251 20.3828C41.6895 20.1625 42.0123 19.903 42.2548 19.7081C42.3786 19.6086 42.4811 19.5256 42.5712 19.4735C42.7254 19.3844 42.9038 19.264 43.0827 19.143C43.3627 18.9536 43.6442 18.7629 43.8384 18.6897C43.9076 18.6636 43.9842 18.6403 44.0666 18.6149C44.2949 18.5444 44.5707 18.4591 44.8746 18.2653C45.1935 18.0619 45.316 17.8606 45.3986 17.6068C45.4322 17.5037 45.3549 17.3058 45.2749 17.1015C45.1614 16.8117 45.0428 16.5092 45.23 16.4476C45.2738 16.4333 45.3375 16.4351 45.4043 16.437C45.5271 16.4407 45.66 16.4448 45.6959 16.3488C45.7084 16.3154 45.6913 16.2578 45.6745 16.2013C45.6561 16.1392 45.6382 16.0784 45.6602 16.0519C45.7427 15.9531 45.8401 15.8742 45.9269 15.8042C46.0387 15.714 46.1324 15.6382 46.1523 15.5529C46.1878 15.401 46.3424 15.3506 46.4993 15.2999C46.6191 15.2612 46.7404 15.2223 46.8102 15.1371C47.0099 14.8937 47.4139 14.6883 47.8934 14.5399C48.0748 14.4838 48.0899 14.2976 48.1091 14.0589C48.121 13.9104 48.1342 13.7413 48.1904 13.5708C48.2223 13.4742 48.3529 13.496 48.4736 13.516C48.5848 13.5344 48.6878 13.5513 48.6981 13.4733C48.7071 13.4044 48.6037 13.2517 48.5055 13.1067C48.3962 12.9453 48.2934 12.7935 48.3592 12.7774C48.3942 12.7688 48.4848 12.8063 48.5925 12.8509C48.635 12.8685 48.6802 12.887 48.7258 12.9045C48.6991 12.8792 48.6757 12.8562 48.6581 12.8386C48.5339 12.7144 48.5103 12.6072 48.4872 12.502C48.478 12.4601 48.469 12.4185 48.4536 12.3762C48.3968 12.2208 48.4729 12.1101 48.5493 12.0436C48.5815 12.0155 48.5704 11.9496 48.5573 11.8727C48.5458 11.8044 48.5327 11.7274 48.5472 11.6605C48.5555 11.6223 48.5374 11.5685 48.5221 11.5237C48.511 11.4912 48.5015 11.4635 48.5051 11.4502C48.5082 11.4387 48.5497 11.4684 48.5964 11.5019C48.63 11.526 48.6665 11.5521 48.6933 11.5661C48.7573 11.5997 48.7915 11.5949 48.7896 11.5655C48.7887 11.5519 48.7798 11.533 48.771 11.5143C48.7607 11.4924 48.7503 11.4705 48.7526 11.4569C48.7631 11.3945 48.8391 11.3997 48.9181 11.4051C49.0049 11.411 49.0953 11.417 49.1063 11.3341C49.1098 11.308 49.0995 11.2663 49.0896 11.2258C49.0792 11.1835 49.0692 11.1426 49.0756 11.1226C49.1017 11.0416 49.2408 11.0801 49.3688 11.1155C49.4539 11.1391 49.5341 11.1612 49.5727 11.1459C49.6436 11.1179 49.7767 11.1981 49.875 11.2572C49.926 11.2879 49.9677 11.3131 49.9866 11.3146C49.9915 11.3037 49.9961 11.2921 50.0001 11.2803C49.9995 11.2653 49.9989 11.2497 50.0085 11.2452C50.0092 11.2449 50.0102 11.2448 50.011 11.2445C50.0293 11.1745 50.036 11.0944 50.0426 11.0147C50.0574 10.8357 50.0717 10.6587 50.2188 10.6033C50.2504 10.5914 50.3167 10.6132 50.384 10.6354C50.4665 10.6625 50.5509 10.6902 50.5757 10.6573C50.6349 10.579 50.6317 10.4369 50.6285 10.297C50.6236 10.0866 50.619 9.88097 50.8268 9.90397C50.8953 9.91156 50.9885 9.94524 51.0823 9.97933C51.1345 9.99834 51.1872 10.0176 51.2354 10.0321C51.1735 9.97736 51.1169 9.92451 51.064 9.87522C50.9551 9.77363 50.8619 9.68671 50.7692 9.62638C50.5501 9.48381 50.2578 9.27822 50.0811 9.09186C50.0331 9.04128 49.9772 8.98747 49.9208 8.93336C49.7792 8.79764 49.6347 8.65902 49.6062 8.55946C49.587 8.49237 49.5495 8.33178 49.6946 8.39865C49.7263 8.41323 49.7772 8.45384 49.8339 8.49894C49.9357 8.57998 50.0563 8.67589 50.1186 8.664C50.1291 8.662 50.1397 8.65903 50.1503 8.65558C50.1925 8.64182 50.2395 8.62617 50.3247 8.68795C50.4229 8.75912 50.5169 8.85896 50.6266 8.97537C50.7695 9.12698 50.9392 9.30708 51.179 9.4888C51.2265 9.52471 51.2517 9.52801 51.2709 9.53054C51.2843 9.53233 51.2949 9.53398 51.3079 9.54606C51.3228 9.55997 51.3509 9.59179 51.3864 9.63208C51.5118 9.77423 51.731 10.0225 51.8017 9.97164C51.8208 9.95786 51.8285 9.92792 51.8353 9.901C51.8453 9.86133 51.8537 9.82847 51.8947 9.86394C51.9103 9.87742 51.9267 9.8924 51.9436 9.90809C51.9588 9.8837 51.974 9.85932 51.9892 9.83494C51.969 9.76397 52.0085 9.73225 52.0581 9.69285C52.0701 9.68328 52.0826 9.67304 52.0951 9.66188C52.1247 9.6134 52.1544 9.56495 52.1838 9.5163C52.1954 9.46601 52.1968 9.40158 52.1816 9.31681C52.1511 9.14697 52.0466 8.92113 51.9442 8.70034C51.9011 8.60731 51.8583 8.51501 51.8217 8.42826C51.8043 8.43045 51.7866 8.43031 51.7675 8.42477C51.6366 8.38684 51.4519 8.23946 51.282 8.10377C51.1689 8.01352 51.0623 7.92844 50.9826 7.88442C50.8367 7.80375 50.7075 7.66796 50.6119 7.56759C50.5623 7.51552 50.5216 7.47294 50.4925 7.45256C50.4692 7.43625 50.4518 7.43503 50.4338 7.43373C50.4181 7.43259 50.4018 7.43131 50.3811 7.42015C50.1287 7.28453 50.0337 7.15439 49.8953 6.965C49.819 6.86054 49.7294 6.73804 49.593 6.58659C49.4471 6.42774 49.4004 6.38535 49.3091 6.35524C49.2577 6.25617 49.2063 6.15709 49.1549 6.05801C49.1691 6.05355 49.2232 6.09351 49.3114 6.16172C49.4687 6.28353 49.5777 6.27661 49.6628 6.27121C49.7023 6.26871 49.7366 6.26661 49.7684 6.27771C49.937 6.33678 50.0796 6.51123 50.205 6.66476C50.2741 6.74926 50.338 6.82744 50.3982 6.87653C50.4239 6.89754 50.4438 6.92411 50.464 6.95117C50.4797 6.97209 50.4956 6.99338 50.5146 7.01262C50.6528 7.15224 50.7883 7.22295 50.9141 7.28863C50.9861 7.32624 51.0552 7.36243 51.1197 7.40877C51.1393 7.42289 51.1587 7.43792 51.1775 7.45258C51.2049 7.47399 51.2311 7.49433 51.2557 7.50968C51.3116 7.54464 51.3637 7.55372 51.4207 7.56348C51.45 7.56849 51.4805 7.57371 51.5134 7.58278C51.5562 7.59455 51.6167 7.64391 51.68 7.69541C51.7247 7.7318 51.7709 7.76921 51.8133 7.79562C51.89 7.84334 51.9418 7.83649 51.9899 7.83013C52.0108 7.82736 52.0313 7.82493 52.0526 7.82689C52.0612 7.82769 52.0726 7.83526 52.0859 7.8478C52.1741 7.84662 52.2611 7.84839 52.3461 7.85039C52.7723 7.86039 53.1415 7.86936 53.2735 7.46331C53.2984 7.38655 53.3582 7.33711 53.4341 7.30267C53.5562 7.07165 53.6765 6.83876 53.7953 6.60459C53.7051 6.44449 53.6427 6.29664 53.6108 6.16357C53.5509 5.9137 53.6155 5.78288 53.6918 5.6285C53.7481 5.51435 53.8107 5.38721 53.8343 5.18959C53.8738 4.85756 53.9407 4.54309 54.0917 4.26357C54.2419 3.98527 54.4401 3.69274 54.5969 3.50244C54.6824 3.39868 54.6698 3.18733 54.6582 2.9905C54.6419 2.71363 54.6274 2.46534 54.8893 2.58447C54.973 2.62255 55.1007 2.70621 55.2249 2.78745C55.3133 2.84531 55.3997 2.90167 55.4677 2.94011C55.4905 2.8843 55.5134 2.82863 55.5361 2.77263C55.479 2.57582 55.4514 2.33116 55.6979 2.3678C55.721 2.30975 55.7442 2.25176 55.7657 2.19493C55.8142 2.0725 55.8605 1.95145 55.9072 1.82937C55.9223 1.78936 55.9376 1.74906 55.953 1.70862C55.9531 1.70821 55.9532 1.70781 55.9534 1.7074C55.9843 1.626 56.0154 1.54401 56.0455 1.46279C56.0584 1.42805 56.0713 1.39331 56.0842 1.35857C56.1171 1.27031 56.1503 1.18152 56.1821 1.0935C56.1989 1.04684 56.2161 0.999984 56.2332 0.952849C56.2608 0.876381 56.2887 0.799387 56.3162 0.7225C56.3606 0.59817 56.4042 0.47378 56.4476 0.348917C56.4547 0.328422 56.4468 0.294071 56.4244 0.252327C56.4021 0.210531 56.3674 0.16484 56.3259 0.123411C56.2844 0.0819703 56.2386 0.0471847 56.1969 0.0249707C56.1553 0.00286649 56.1214 -0.00454207 56.1011 0.00265494C55.9773 0.0472573 55.8541 0.0921834 55.7308 0.137793C55.6546 0.165972 55.5779 0.194181 55.5021 0.222527C55.4554 0.240005 55.409 0.257632 55.3628 0.274859C55.2756 0.307527 55.1872 0.341363 55.0998 0.375039C55.0653 0.388241 55.0309 0.401443 54.9964 0.414645C54.9157 0.445529 54.8343 0.477611 54.7535 0.509347C54.753 0.509543 54.7525 0.509739 54.752 0.509935C54.7123 0.525548 54.6725 0.541095 54.6332 0.556449C54.5122 0.604335 54.3923 0.651811 54.2709 0.70154C54.2074 0.72641 54.1425 0.753572 54.0777 0.78019C54.0416 0.79501 54.0055 0.809727 53.97 0.824101C53.9508 0.832111 53.9314 0.84036 53.9119 0.84865C53.4605 1.03509 53.0164 1.22431 52.5746 1.42167C52.1339 1.61783 51.6978 1.81959 51.2672 2.02507C50.8359 2.23131 50.41 2.44185 49.9882 2.65702C47.3109 4.02217 44.7436 5.51354 42.3768 7.20707C42.0389 7.44831 41.6982 7.70187 41.3689 7.95297C41.0365 8.20721 40.7146 8.45984 40.3908 8.72428C40.2922 8.80434 40.192 8.88722 40.0897 8.97285Z" fill="black"/>
<path d="M45.0792 31.5219C44.6573 30.4512 44.9179 29.3125 45.0615 28.2731C45.0647 28.25 45.0678 28.2269 45.071 28.2037C45.2341 26.9318 45.5381 25.4667 46.5318 24.4777C47.516 23.4941 48.8104 22.8537 50.1419 22.6634C50.973 22.5419 51.8152 22.5936 52.5951 22.7968C53.0649 22.9186 53.5174 23.0951 53.9377 23.3198C55.0571 23.9154 55.9298 24.8551 56.4331 25.9083C56.7774 26.6234 56.9572 27.3914 56.9735 28.137C56.981 28.4643 56.9576 28.7868 56.9058 29.0998C56.867 29.3328 56.8125 29.562 56.7439 29.7822C56.7343 29.8129 56.7068 29.84 56.6666 29.8568C56.6263 29.8736 56.5769 29.8788 56.5276 29.8715C56.4784 29.8643 56.4324 29.8453 56.3982 29.8193C56.3641 29.7933 56.3447 29.7625 56.3426 29.7328C56.3285 29.5185 56.2998 29.3064 56.2572 29.1015C56.21 28.8732 56.1456 28.6522 56.0661 28.4406C56.2618 28.3731 56.4062 28.2954 56.4536 28.185C56.4778 28.1289 56.4756 28.0525 56.4259 28.0089C56.3812 27.9697 56.3132 27.95 56.2485 27.9325C56.1808 27.9141 56.1167 27.8983 56.0854 27.8641C56.0323 27.8059 55.9292 27.7682 55.8211 27.7343C55.7817 27.7219 55.7416 27.7099 55.7029 27.6973C55.5939 27.5196 55.4736 27.3525 55.3437 27.1968C55.3267 27.119 55.3062 27.0482 55.2679 27.0009C55.2336 26.9584 55.1705 26.9393 55.0994 26.9284C55.0776 26.9065 55.0557 26.8849 55.0335 26.8636C54.8908 26.7261 54.7404 26.6006 54.5841 26.4881C54.5249 26.3433 54.4501 26.1929 54.3075 26.0411C54.2459 25.9759 54.1953 25.8982 54.143 25.8242C54.0665 25.7152 53.986 25.6142 53.8802 25.5834C53.8097 25.5628 53.7611 25.501 53.7089 25.4396C53.64 25.3577 53.5636 25.2764 53.448 25.3097C53.3755 25.3307 53.3041 25.3652 53.2396 25.3987C53.137 25.4521 53.0517 25.5026 52.9969 25.4885C52.894 25.4622 52.7864 25.4966 52.6964 25.5304C52.5868 25.5709 52.5014 25.6099 52.4477 25.535C52.4396 25.5237 52.4305 25.509 52.42 25.4924C52.3818 25.4311 52.3243 25.344 52.2288 25.3128C52.1885 25.2996 52.142 25.2966 52.09 25.3106C52.028 25.3274 51.9664 25.3832 51.9096 25.4393C51.8266 25.521 51.7534 25.6028 51.6769 25.5649C51.6655 25.5592 51.6534 25.5357 51.6422 25.5142C51.628 25.4869 51.6149 25.4632 51.6079 25.4841C51.587 25.5453 51.5548 25.6134 51.5226 25.688C51.4989 25.7429 51.4753 25.8012 51.455 25.8626C51.274 25.9079 51.0997 25.9669 50.9334 26.0375C50.8573 26.0699 50.7826 26.1049 50.7098 26.1421C50.6427 26.0672 50.574 26.0032 50.5076 25.9608C50.4205 25.9056 50.3327 25.9124 50.2199 25.9275C50.1367 25.9387 50.0399 25.9543 49.914 25.9582C49.6789 25.9654 49.5038 26.1145 49.4303 26.2433C49.4144 26.2706 49.3993 26.2987 49.3838 26.3291C49.3263 26.4447 49.255 26.5873 49.1281 26.8306C49.0099 27.0609 48.9069 27.2385 48.8354 27.3766C48.799 27.4471 48.7713 27.5063 48.7565 27.5552C48.7313 27.6387 48.699 27.7389 48.6724 27.8401C48.63 27.9984 48.6033 28.16 48.611 28.2562C48.6136 28.2903 48.6191 28.3267 48.6256 28.3656C48.6426 28.4657 48.6667 28.5814 48.6772 28.7287C48.678 28.7401 48.6787 28.7518 48.6794 28.7636C48.6901 28.9344 48.6642 29.0328 48.6142 29.1413C48.5941 29.1849 48.5167 29.2249 48.4377 29.2699C48.3255 29.3328 48.2101 29.4089 48.254 29.4958C48.2643 29.5159 48.2851 29.5361 48.3071 29.5569C48.3475 29.5952 48.3918 29.6341 48.3822 29.6821C48.3788 29.6989 48.3603 29.7164 48.3423 29.7338C48.3224 29.753 48.3032 29.7721 48.3052 29.7896C48.3125 29.8546 48.3313 29.916 48.3493 29.9696C48.3723 30.0387 48.3939 30.0958 48.387 30.1374C48.3747 30.2117 48.4266 30.2747 48.4804 30.3338C48.5216 30.3794 48.5641 30.4233 48.5817 30.4754C48.6314 30.6251 48.7819 30.7983 48.9782 30.9256C49.0523 30.9736 49.0508 31.0556 49.0562 31.1651C49.0596 31.233 49.0656 31.3114 49.0948 31.3946C49.1114 31.4418 49.1703 31.4425 49.2236 31.4414C49.2729 31.4406 49.3178 31.4384 49.3257 31.4738C49.3326 31.505 49.2938 31.5684 49.2579 31.6296C49.2178 31.6975 49.1815 31.7626 49.2138 31.7738C49.231 31.7797 49.2705 31.767 49.3167 31.7509C49.335 31.7445 49.3543 31.7377 49.3739 31.7313C49.3637 31.7419 49.3548 31.7516 49.3482 31.759C49.3012 31.8112 49.2999 31.8598 49.3 31.9078C49.3001 31.927 49.3003 31.9461 49.2977 31.9652C49.288 32.0359 49.3394 32.0907 49.3858 32.1228C49.4054 32.1365 49.4094 32.1669 49.4147 32.2026C49.4194 32.2342 49.4252 32.27 49.4436 32.3013C49.4541 32.3191 49.4544 32.3441 49.4547 32.365C49.4549 32.3801 49.4551 32.3931 49.4593 32.3993C49.463 32.4047 49.4784 32.3908 49.4956 32.3751C49.508 32.3637 49.5214 32.3515 49.5321 32.3447C49.5577 32.3287 49.5753 32.3304 49.5796 32.3438C49.5816 32.3501 49.5807 32.3588 49.5798 32.3676C49.5787 32.3777 49.5777 32.3879 49.5813 32.3941C49.5982 32.4225 49.6351 32.4186 49.6728 32.4138C49.7145 32.4086 49.7568 32.4022 49.779 32.4385C49.786 32.45 49.7896 32.4689 49.7933 32.4874C49.7972 32.5067 49.8012 32.5254 49.8087 32.5339C49.8395 32.5687 49.8994 32.5436 49.9531 32.5191C49.9889 32.5028 50.0221 32.4871 50.044 32.4904C50.0842 32.4965 50.1283 32.4504 50.1604 32.4162C50.177 32.3985 50.1905 32.3838 50.1988 32.3813C50.2035 32.3852 50.2082 32.3895 50.2126 32.3939C50.2157 32.4002 50.219 32.4067 50.2244 32.4075C50.2248 32.4075 50.2253 32.4075 50.2257 32.4075C50.2499 32.4343 50.2721 32.4663 50.2944 32.4978C50.3444 32.5686 50.3997 32.6386 50.4822 32.6392C50.5 32.6394 50.5242 32.6212 50.5485 32.6024C50.5782 32.5794 50.608 32.5556 50.6281 32.564C50.6756 32.5842 50.7147 32.6378 50.7559 32.6902C50.817 32.7688 50.8845 32.8446 50.9685 32.7942C50.996 32.7776 51.0252 32.7464 51.0539 32.7147C51.0699 32.697 51.0858 32.679 51.1012 32.6635C51.0933 32.6956 51.0868 32.726 51.0808 32.7543C51.0684 32.8126 51.0578 32.8625 51.0377 32.903C50.9907 32.9989 50.9288 33.1306 50.9141 33.2323C50.9101 33.26 50.9036 33.2903 50.8969 33.3209C50.8802 33.3975 50.8625 33.4758 50.8889 33.5173C50.9063 33.5453 50.9554 33.6104 51.0013 33.5566C51.0112 33.5449 51.0199 33.52 51.0294 33.4923C51.034 33.479 51.0387 33.4651 51.044 33.4517C51.0583 33.4146 51.0759 33.3811 51.1017 33.374C51.1076 33.3724 51.1139 33.3711 51.1205 33.3699C51.1466 33.3652 51.1756 33.3597 51.1907 33.3196C51.2081 33.2734 51.2115 33.2186 51.216 33.1547C51.2215 33.0715 51.2294 32.9729 51.2654 32.8569C51.2725 32.834 51.2819 32.8269 51.2889 32.8214C51.2939 32.8176 51.2977 32.8145 51.2988 32.8075C51.3 32.7994 51.3003 32.7824 51.3007 32.7609C51.3019 32.6849 51.3058 32.5526 51.3497 32.5512C51.3617 32.5509 51.3748 32.5584 51.3865 32.5651C51.4038 32.5749 51.4184 32.5829 51.4219 32.5615C51.4233 32.5534 51.4245 32.5446 51.4256 32.5354C51.4396 32.539 51.4536 32.5426 51.4676 32.546C51.4843 32.5729 51.51 32.5721 51.5423 32.5705C51.5502 32.5701 51.5584 32.5698 51.567 32.5697C51.5951 32.5759 51.6232 32.5817 51.6514 32.5874C51.6737 32.5984 51.6974 32.6162 51.7235 32.6441C51.7756 32.7 51.8244 32.7918 51.8758 32.8805C51.8974 32.9179 51.9197 32.9548 51.9424 32.9882C51.9348 32.993 51.928 32.9985 51.9229 33.0059C51.8882 33.0559 51.8776 33.1504 51.867 33.2375C51.8599 33.2954 51.8528 33.35 51.8383 33.3855C51.8116 33.4507 51.8165 33.5254 51.8207 33.5808C51.8228 33.6095 51.8245 33.633 51.8209 33.6471C51.8179 33.6584 51.8104 33.6639 51.8026 33.6696C51.7958 33.6746 51.7888 33.6797 51.7844 33.6889C51.7307 33.7998 51.7472 33.8631 51.7753 33.9553C51.7907 34.0061 51.8092 34.0656 51.8196 34.1467C51.8289 34.2327 51.8277 34.258 51.7953 34.2932C51.8222 34.3351 51.8497 34.3768 51.8778 34.4183C51.8881 34.4152 51.8949 34.3883 51.9038 34.3436C51.9199 34.2639 51.9803 34.2319 52.0272 34.2059C52.0489 34.194 52.0675 34.1833 52.0775 34.1704C52.1301 34.1014 52.1045 34.0134 52.0838 33.9361C52.0722 33.8935 52.0619 33.854 52.0648 33.8227C52.066 33.8093 52.0616 33.7966 52.0571 33.7835C52.0537 33.7734 52.0502 33.7631 52.0492 33.7524C52.0422 33.6741 52.0683 33.6134 52.0909 33.5568C52.1039 33.5245 52.1159 33.4933 52.1209 33.4613C52.1224 33.4515 52.1233 33.4416 52.1242 33.432C52.1254 33.418 52.1266 33.4046 52.1296 33.393C52.1362 33.3664 52.1534 33.3471 52.1719 33.3258C52.1814 33.3149 52.1913 33.3035 52.2002 33.2904C52.2117 33.2733 52.2125 33.2419 52.2132 33.209C52.2137 33.1858 52.2142 33.1619 52.2183 33.1417C52.2257 33.1051 52.2481 33.0891 52.2688 33.074C52.2777 33.0674 52.2863 33.0609 52.2933 33.0531C52.2961 33.05 52.2968 33.0445 52.2959 33.0372C52.3286 33.007 52.3587 32.9761 52.3872 32.9456C52.5312 32.7917 52.6317 32.6575 52.854 32.6649C52.8964 32.666 52.9358 32.6488 52.9721 32.6225C53.112 32.6025 53.2529 32.5749 53.3939 32.5393C53.4512 32.5895 53.5101 32.6258 53.5698 32.6463C53.6822 32.6846 53.7655 32.6579 53.8616 32.6231C53.9329 32.5972 54.0114 32.5668 54.1195 32.5494C54.301 32.5199 54.4821 32.4641 54.6526 32.3547C54.8228 32.2465 54.9985 32.0944 55.1086 31.9736C55.1687 31.9084 55.2759 31.8729 55.3761 31.8348C55.5168 31.7817 55.6441 31.7219 55.5896 31.6054C55.5722 31.5683 55.5324 31.5188 55.4931 31.4714C55.4652 31.4377 55.4376 31.405 55.4186 31.378C55.445 31.3517 55.4711 31.3248 55.4971 31.2976C55.5912 31.2765 55.7089 31.2191 55.6799 31.0944C55.7053 31.0643 55.7303 31.0338 55.7547 31.004C55.8069 30.9387 55.8572 30.8732 55.9063 30.8053C55.9224 30.7831 55.9384 30.7605 55.9544 30.7376C55.9545 30.7373 55.9547 30.7371 55.9549 30.7369C55.9869 30.6909 56.0183 30.644 56.0489 30.5968C56.062 30.5766 56.0749 30.5562 56.0877 30.5357C56.1202 30.4837 56.1518 30.4306 56.1825 30.3773C56.1988 30.3492 56.2149 30.3201 56.2307 30.2914C56.2564 30.2446 56.2817 30.1967 56.3062 30.1482C56.3459 30.0693 56.3835 29.9911 56.4196 29.9095C56.4256 29.8962 56.4394 29.8846 56.4588 29.8773C56.4782 29.8701 56.5015 29.8677 56.5247 29.8711C56.548 29.8745 56.5697 29.8835 56.5861 29.8964C56.6024 29.9092 56.6118 29.9249 56.6132 29.9399C56.6214 30.032 56.6273 30.123 56.6299 30.2169C56.6316 30.2746 56.6324 30.3327 56.632 30.3904C56.6318 30.4258 56.631 30.4619 56.63 30.4973C56.628 30.5644 56.6245 30.6325 56.6194 30.7004C56.6174 30.7273 56.6152 30.7541 56.6128 30.7809C56.6071 30.8438 56.6 30.9073 56.5915 30.9708C56.5915 30.9712 56.5914 30.9715 56.5914 30.9719C56.5872 31.0032 56.5827 31.0345 56.5781 31.0654C56.5635 31.1605 56.5463 31.255 56.5252 31.3513C56.5147 31.4013 56.5025 31.4527 56.4895 31.5042C56.4823 31.5328 56.4749 31.5614 56.4674 31.5894C56.4633 31.6047 56.4589 31.6202 56.4545 31.6357C56.3542 31.9931 56.2129 32.3436 56.0286 32.6817C55.8452 33.0187 55.6206 33.341 55.3602 33.6383C55.0991 33.9361 54.8018 34.2092 54.4734 34.4499C53.4519 35.2055 52.1061 35.6324 50.735 35.5741C49.3214 35.526 47.8668 34.9497 46.7597 33.9421C46.4477 33.6608 46.1554 33.3385 45.9022 32.9972C45.6463 32.6521 45.4271 32.2881 45.2413 31.895C45.1849 31.7758 45.1306 31.6512 45.0792 31.5219Z" fill="black"/>
</svg>
