<svg width="62" height="66" viewBox="0 0 62 66" fill="none" xmlns="http://www.w3.org/2000/svg">
<path d="M24.5536 8.92336C24.1317 7.85267 24.3924 6.714 24.536 5.6746C24.5391 5.6515 24.5423 5.62837 24.5455 5.60521C24.7086 4.33326 25.0125 2.86815 26.0063 1.87916C26.9904 0.895541 28.2848 0.255218 29.6164 0.064888C30.4475 -0.0565615 31.2896 -0.00493889 32.0695 0.198299C32.5394 0.320126 32.9919 0.496579 33.4122 0.721298C34.5315 1.31685 35.4042 2.25659 35.9075 3.30979C36.2519 4.02493 36.4317 4.79293 36.448 5.53848C36.4555 5.86575 36.4321 6.18826 36.3802 6.50126C36.3415 6.73431 36.287 6.96349 36.2184 7.18369C36.2088 7.21442 36.1813 7.2415 36.1411 7.25826C36.1008 7.27505 36.0513 7.28025 36.0021 7.27304C35.9528 7.26581 35.9069 7.24679 35.8727 7.2208C35.8385 7.1948 35.8191 7.16395 35.8171 7.13431C35.803 6.91996 35.7743 6.70792 35.7317 6.50295C35.6845 6.2747 35.62 6.05373 35.5406 5.8421C35.7363 5.7746 35.8806 5.69685 35.928 5.58652C35.9522 5.53042 35.9501 5.45398 35.9003 5.41038C35.8557 5.37119 35.7877 5.35148 35.723 5.33394C35.6553 5.31562 35.5912 5.29983 35.5599 5.26557C35.5067 5.20735 35.4036 5.16973 35.2955 5.13579C35.2562 5.1234 35.2161 5.1114 35.1774 5.09875C35.0684 4.92105 34.948 4.75395 34.8182 4.5983C34.8011 4.52049 34.7806 4.44972 34.7424 4.4024C34.708 4.35991 34.645 4.34076 34.5738 4.32985C34.5521 4.30797 34.5301 4.28639 34.508 4.26509C34.3652 4.12758 34.2148 4.00213 34.0586 3.88962C33.9993 3.7448 33.9246 3.59442 33.7819 3.44261C33.7204 3.37737 33.6697 3.29968 33.6175 3.22568C33.5409 3.11672 33.4604 3.01572 33.3546 2.98485C33.2842 2.96432 33.2355 2.90245 33.1834 2.84104C33.1145 2.75916 33.0381 2.67791 32.9225 2.71121C32.85 2.7322 32.7786 2.76669 32.714 2.80018C32.6114 2.85355 32.5261 2.90409 32.4713 2.89001C32.3685 2.86367 32.2609 2.89805 32.1708 2.93193C32.0613 2.97239 31.9759 3.01136 31.9222 2.93651C31.914 2.92516 31.9049 2.91049 31.8945 2.89389C31.8563 2.83257 31.7988 2.74545 31.7033 2.71426C31.6629 2.70107 31.6165 2.69814 31.5644 2.71212C31.5024 2.72885 31.4408 2.78465 31.3841 2.84075C31.3011 2.92245 31.2278 3.00428 31.1514 2.96636C31.1399 2.96069 31.1279 2.93714 31.1167 2.91569C31.1024 2.88841 31.0894 2.86469 31.0823 2.88557C31.0615 2.9468 31.0293 3.01486 30.9971 3.08952C30.9734 3.14435 30.9498 3.20274 30.9294 3.26406C30.7484 3.30939 30.5741 3.36834 30.4079 3.43904C30.3318 3.47141 30.257 3.50636 30.1843 3.54355C30.1171 3.46868 30.0485 3.40465 29.982 3.36228C29.895 3.30708 29.8072 3.3139 29.6943 3.32896C29.6112 3.34021 29.5144 3.35582 29.3884 3.35965C29.1534 3.36685 28.9782 3.51598 28.9047 3.64481C28.8889 3.67211 28.8737 3.70023 28.8583 3.73058C28.8007 3.84615 28.7294 3.98876 28.6026 4.23207C28.4844 4.46241 28.3814 4.63997 28.3098 4.77808C28.2734 4.84857 28.2458 4.90778 28.231 4.95672C28.2058 5.04016 28.1735 5.14038 28.1469 5.24157C28.1045 5.39993 28.0777 5.56146 28.0855 5.65768C28.0881 5.69182 28.0936 5.72817 28.1001 5.76711C28.1171 5.86717 28.1412 5.98293 28.1516 6.13018C28.1524 6.14164 28.1532 6.15326 28.1539 6.16505C28.1646 6.33593 28.1387 6.43424 28.0886 6.54278C28.0685 6.58642 27.9912 6.62638 27.9121 6.67136C27.8 6.73425 27.6846 6.8104 27.7285 6.89731C27.7388 6.91739 27.7595 6.93761 27.7815 6.95842C27.822 6.99673 27.8663 7.03558 27.8566 7.08357C27.8533 7.1004 27.8348 7.1179 27.8167 7.13533C27.7969 7.15448 27.7777 7.17363 27.7796 7.19107C27.787 7.25607 27.8058 7.31744 27.8237 7.37107C27.8468 7.4402 27.8684 7.49733 27.8615 7.53888C27.8492 7.6132 27.901 7.67622 27.9548 7.73532C27.9961 7.78093 28.0386 7.82474 28.0562 7.87691C28.1058 8.02664 28.2563 8.19979 28.4527 8.32708C28.5267 8.37512 28.5252 8.4571 28.5307 8.56664C28.5341 8.63453 28.5401 8.71294 28.5692 8.79605C28.5859 8.84324 28.6447 8.84402 28.6981 8.84294C28.7474 8.8421 28.7922 8.83994 28.8001 8.87526C28.8071 8.90646 28.7683 8.96994 28.7324 9.03108C28.6923 9.09901 28.6559 9.16407 28.6883 9.1753C28.7055 9.18122 28.7449 9.16847 28.7912 9.15239C28.8095 9.14602 28.8288 9.13922 28.8484 9.13278C28.8382 9.14337 28.8293 9.15306 28.8226 9.16046C28.7756 9.21269 28.7743 9.26129 28.7745 9.30932C28.7745 9.32849 28.7748 9.34754 28.7722 9.36672C28.7625 9.4374 28.8139 9.49218 28.8603 9.52434C28.8799 9.538 28.8839 9.5684 28.8892 9.60404C28.8939 9.63565 28.8996 9.67149 28.918 9.70276C28.9285 9.72058 28.9288 9.7456 28.9291 9.7665C28.9293 9.78163 28.9296 9.79456 28.9338 9.80079C28.9375 9.80617 28.9528 9.79229 28.9701 9.77655C28.9825 9.76523 28.9959 9.75294 29.0066 9.74623C29.0322 9.7302 29.0498 9.73188 29.0541 9.74534C29.0561 9.75156 29.0552 9.76032 29.0542 9.76905C29.0532 9.77921 29.0521 9.78943 29.0558 9.79562C29.0727 9.82403 29.1095 9.82013 29.1473 9.81532C29.1889 9.81014 29.2312 9.80368 29.2534 9.84C29.2604 9.85144 29.2641 9.87043 29.2678 9.88888C29.2716 9.90818 29.2756 9.92689 29.2832 9.93544C29.314 9.97023 29.3739 9.94504 29.4276 9.92057C29.4634 9.90434 29.4966 9.88856 29.5184 9.89184C29.5587 9.89795 29.6028 9.85188 29.6349 9.81768C29.6515 9.79995 29.665 9.78529 29.6733 9.78275C29.678 9.78674 29.6826 9.79103 29.6871 9.79543C29.6902 9.8017 29.6935 9.80817 29.6989 9.80897C29.6993 9.80903 29.6997 9.80895 29.7001 9.809C29.7244 9.83577 29.7466 9.86779 29.7689 9.89932C29.8189 9.97009 29.8741 10.0401 29.9567 10.0407C29.9745 10.0409 29.9987 10.0226 30.0229 10.0039C30.0527 9.98092 30.0824 9.95704 30.1025 9.96552C30.1501 9.98567 30.1891 10.0393 30.2304 10.0917C30.2915 10.1703 30.3589 10.2461 30.4429 10.1957C30.4704 10.1791 30.4997 10.1479 30.5283 10.1161C30.5443 10.0984 30.5602 10.0805 30.5756 10.065C30.5677 10.0971 30.5613 10.1275 30.5553 10.1558C30.5429 10.214 30.5322 10.264 30.5122 10.3045C30.4651 10.4004 30.4033 10.5321 30.3885 10.6338C30.3846 10.6615 30.3781 10.6918 30.3714 10.7224C30.3547 10.799 30.337 10.8773 30.3633 10.9188C30.3808 10.9468 30.4298 11.0119 30.4757 10.9581C30.4857 10.9464 30.4943 10.9215 30.5039 10.8938C30.5084 10.8805 30.5132 10.8666 30.5184 10.8532C30.5328 10.8161 30.5503 10.7826 30.5761 10.7755C30.582 10.7739 30.5884 10.7726 30.5949 10.7714C30.621 10.7667 30.6501 10.7612 30.6652 10.7211C30.6825 10.6749 30.686 10.6201 30.6904 10.5562C30.696 10.473 30.7039 10.3744 30.7399 10.2584C30.7469 10.2355 30.7563 10.2283 30.7634 10.2229C30.7684 10.2191 30.7722 10.216 30.7732 10.209C30.7745 10.2009 30.7747 10.1839 30.7751 10.1624C30.7763 10.0864 30.7803 9.95407 30.8242 9.95274C30.8362 9.95237 30.8492 9.95986 30.861 9.96656C30.8783 9.97643 30.8928 9.98443 30.8964 9.963C30.8977 9.95487 30.8989 9.94604 30.9 9.93688C30.914 9.94051 30.928 9.94406 30.9421 9.94752C30.9587 9.97437 30.9845 9.9736 31.0168 9.97198C31.0246 9.97159 31.0329 9.97124 31.0415 9.97114C31.0695 9.97737 31.0976 9.98321 31.1258 9.98884C31.1481 9.99993 31.1718 10.0177 31.198 10.0456C31.2501 10.1015 31.2989 10.1932 31.3503 10.282C31.3718 10.3194 31.3941 10.3563 31.4168 10.3897C31.4092 10.3945 31.4024 10.4 31.3974 10.4073C31.3626 10.4574 31.3521 10.5519 31.3414 10.6389C31.3344 10.6969 31.3273 10.7515 31.3128 10.787C31.2861 10.8522 31.291 10.9269 31.2952 10.9823C31.2973 11.011 31.299 11.0345 31.2953 11.0486C31.2924 11.0599 31.2849 11.0654 31.2771 11.0711C31.2703 11.076 31.2632 11.0812 31.2588 11.0903C31.2052 11.2013 31.2217 11.2646 31.2498 11.3568C31.2651 11.4076 31.2837 11.4671 31.294 11.5482C31.3034 11.6342 31.3021 11.6595 31.2697 11.6947C31.2966 11.7366 31.3241 11.7783 31.3523 11.8198C31.3625 11.8167 31.3694 11.7897 31.3783 11.7451C31.3944 11.6654 31.4548 11.6334 31.5017 11.6074C31.5233 11.5954 31.542 11.5848 31.5519 11.5719C31.6046 11.5028 31.5789 11.4149 31.5582 11.3375C31.5467 11.2949 31.5363 11.2555 31.5392 11.2242C31.5404 11.2108 31.536 11.198 31.5316 11.185C31.5281 11.1749 31.5247 11.1646 31.5237 11.1538C31.5167 11.0756 31.5427 11.0149 31.5654 10.9583C31.5784 10.9259 31.5904 10.8948 31.5953 10.8628C31.5968 10.853 31.5978 10.8431 31.5986 10.8335C31.5999 10.8195 31.6011 10.8061 31.604 10.7944C31.6106 10.7679 31.6279 10.7485 31.6464 10.7273C31.6559 10.7164 31.6657 10.705 31.6746 10.6919C31.6862 10.6748 31.6869 10.6434 31.6876 10.6105C31.6881 10.5873 31.6887 10.5634 31.6928 10.5432C31.7001 10.5066 31.7226 10.4906 31.7432 10.4755C31.7522 10.4689 31.7608 10.4624 31.7677 10.4546C31.7705 10.4515 31.7712 10.4459 31.7704 10.4387C31.8031 10.4085 31.8331 10.3776 31.8616 10.3471C32.0056 10.1932 32.1062 10.059 32.3285 10.0664C32.3708 10.0675 32.4103 10.0503 32.4465 10.024C32.5865 10.004 32.7274 9.97642 32.8684 9.9408C32.9256 9.99101 32.9846 10.0273 33.0443 10.0478C33.1566 10.0861 33.2399 10.0594 33.3361 10.0246C33.4074 9.99867 33.4858 9.96832 33.5939 9.95089C33.7755 9.92143 33.9566 9.86556 34.1271 9.75623C34.2972 9.64802 34.4729 9.49592 34.5831 9.37506C34.6432 9.30986 34.7503 9.27442 34.8505 9.23624C34.9913 9.18316 35.1186 9.12338 35.0641 9.00689C35.0466 8.96975 35.0069 8.92025 34.9676 8.87293C34.9396 8.83922 34.9121 8.80651 34.8931 8.77953C34.9195 8.7532 34.9456 8.72631 34.9716 8.69906C35.0657 8.67803 35.1834 8.62062 35.1543 8.49584C35.1798 8.46576 35.2048 8.43529 35.2291 8.40553C35.2814 8.34016 35.3316 8.27471 35.3807 8.20678C35.3968 8.18461 35.4129 8.16198 35.4288 8.13905C35.429 8.13884 35.4292 8.13863 35.4293 8.13841C35.4614 8.09236 35.4928 8.04547 35.5234 7.99828C35.5364 7.97808 35.5494 7.95771 35.5622 7.93717C35.5947 7.88518 35.6263 7.83213 35.657 7.77881C35.6733 7.75069 35.6894 7.72159 35.7052 7.6929C35.7309 7.64612 35.7561 7.59817 35.7806 7.54968C35.8204 7.4708 35.858 7.39255 35.8941 7.31096C35.9 7.29766 35.9139 7.28608 35.9333 7.27883C35.9527 7.2716 35.976 7.26923 35.9992 7.27262C36.0224 7.27601 36.0441 7.28503 36.0605 7.29789C36.0768 7.31073 36.0862 7.32638 36.0876 7.34139C36.0959 7.43349 36.1017 7.52448 36.1044 7.6184C36.1061 7.67614 36.1068 7.73422 36.1065 7.79189C36.1063 7.82729 36.1054 7.86337 36.1045 7.89881C36.1025 7.9659 36.099 8.03397 36.0939 8.10192C36.0919 8.12875 36.0897 8.15558 36.0873 8.18241C36.0816 8.24527 36.0744 8.30876 36.066 8.37227C36.0659 8.37265 36.0659 8.37303 36.0658 8.37342C36.0616 8.40471 36.0572 8.43595 36.0525 8.46684C36.0379 8.56201 36.0208 8.65645 35.9997 8.75279C35.9892 8.80275 35.977 8.85416 35.964 8.90567C35.9568 8.93432 35.9494 8.96289 35.9419 8.99093C35.9377 9.00622 35.9334 9.02168 35.9289 9.0372C35.8287 9.3946 35.6873 9.74508 35.5031 10.0832C35.3197 10.4202 35.095 10.7425 34.8346 11.0397C34.5735 11.3376 34.2763 11.6107 33.9479 11.8514C32.9264 12.607 31.5805 13.0339 30.2094 12.9756C28.7958 12.9275 27.3413 12.3512 26.2342 11.3436C25.9222 11.0623 25.6298 10.74 25.3766 10.3987C25.1208 10.0536 24.9015 9.68955 24.7158 9.29644C24.6593 9.17725 24.605 9.05271 24.5536 8.92336Z" fill="black"/>
<path d="M39.0842 48.8796C37.314 50.7328 35.1789 52.0848 33.3602 53.902C33.3208 53.9414 33.2815 53.9809 33.2422 54.0206C32.3039 55.0787 30.7648 54.9589 29.7067 54.0206C27.4762 51.8133 24.8637 49.9208 22.7093 47.6295C20.5297 45.3106 18.3697 42.9504 16.2401 40.574C14.9094 39.0893 13.5891 37.5969 12.2754 36.0966C11.3647 35.289 11.4678 33.9643 12.2754 33.0537C13.1789 32.2625 14.0854 31.4738 14.9946 30.6866C17.4089 28.5972 19.8437 26.5187 22.2843 24.4521C23.942 23.0484 25.6055 21.6471 27.2688 20.2493C27.9988 19.6356 28.7272 19.0241 29.4574 18.4112C30.0022 17.9541 30.5471 17.4969 31.0919 17.0398C31.1677 16.9763 31.2596 16.9347 31.3486 16.9253C31.4377 16.916 31.5165 16.9393 31.5692 16.9921C31.6219 17.045 31.6451 17.1242 31.6355 17.2133C31.6258 17.3023 31.5836 17.3938 31.5199 17.4694C31.0572 18.0171 30.5944 18.5648 30.1317 19.1125C29.6177 19.7208 29.1047 20.3282 28.5905 20.936C28.2856 20.8078 28.0001 20.7647 27.7004 20.9193C27.5474 20.9983 27.363 21.1519 27.2788 21.3167C27.2032 21.4646 27.1834 21.6133 27.1649 21.7547C27.1455 21.9026 27.1272 22.043 27.0466 22.1667C26.9098 22.3766 26.837 22.6333 26.7606 22.903C26.7327 23.0011 26.7044 23.101 26.6724 23.201C26.1809 23.7806 25.689 24.3599 25.1969 24.9386C24.9669 25.1224 24.7581 25.294 24.6057 25.4642C24.4689 25.6169 24.3821 25.7952 24.3071 25.984C24.2308 26.0735 24.1546 26.1631 24.0783 26.2526C23.5859 26.8303 23.0926 27.4074 22.599 27.9842C22.1236 28.3441 21.6297 28.7257 21.0359 29.2702C20.78 29.5048 20.5068 29.7156 20.2441 29.9183C19.8562 30.2176 19.4913 30.4992 19.2391 30.8137C19.0704 31.024 18.8405 31.1927 18.6112 31.3609C18.3037 31.5866 17.9968 31.8118 17.8389 32.1363C17.7397 32.3404 17.6641 32.5435 17.5942 32.7316C17.483 33.0309 17.3859 33.2925 17.2291 33.4606C16.9347 33.7763 16.7389 34.1091 16.5665 34.4024C16.3591 34.7551 16.1852 35.051 15.9132 35.1916C15.872 35.2129 15.8229 35.2355 15.7676 35.2607C15.5628 35.3541 15.2719 35.4868 14.9721 35.7504L14.9721 33.3999C15.084 33.5271 15.2194 33.6559 15.3855 33.7804C15.5839 33.9291 15.8116 34.0276 16.0346 34.124C16.3593 34.2642 16.6746 34.4004 16.8765 34.682C16.9066 34.7241 16.9194 34.7868 16.9309 34.844C16.9455 34.9166 16.9583 34.9801 17.003 34.9807C17.1338 34.9823 17.3104 35.016 17.5024 35.0525C17.6434 35.0794 17.7929 35.1078 17.9385 35.1262C18.6008 35.7167 19.2617 36.3088 19.9209 36.9029C20.2229 37.175 20.5247 37.4477 20.8261 37.7208C20.8758 37.965 20.9384 38.2029 21.0307 38.4279C21.1515 38.722 21.3939 39.0174 21.7061 39.3984C21.9359 39.6788 22.2035 40.0057 22.4888 40.4122C23.0169 41.1648 23.6998 41.7974 24.1815 42.1587C24.2834 42.2351 24.3866 42.3111 24.4972 42.3922C24.9168 42.6997 25.4406 43.0831 26.3797 43.8673C27.2681 44.6092 27.9802 45.2834 28.5152 45.7898C28.7883 46.0483 29.0151 46.2634 29.1958 46.4213C29.5049 46.6914 29.878 47.0297 30.2524 47.3693C30.8384 47.9009 31.4278 48.4359 31.7825 48.7179C31.9087 48.8183 32.0436 48.9212 32.1891 49.0326C32.5633 49.3188 33.0097 49.6605 33.572 50.1553L29.377 50.1553C29.4154 50.1118 29.4546 50.0675 29.4948 50.0226C30.0821 49.366 30.4912 49.0042 30.9429 48.6551C31.1265 48.5132 31.3527 48.4522 31.5859 48.3896C31.9168 48.3007 32.262 48.208 32.5205 47.8741C32.5809 47.7962 32.635 47.7027 32.6915 47.6049C32.7954 47.4253 32.9076 47.2308 33.0826 47.0918C33.1437 47.0434 33.2143 47.0176 33.2835 46.9923C33.3597 46.9644 33.4343 46.9371 33.4934 46.8806C33.7141 46.6698 33.9185 46.4542 34.1 46.2626C34.3342 46.0156 34.5305 45.8084 34.6753 45.7028C34.9334 45.5146 35.1461 45.2393 35.3614 44.9604C35.5258 44.7473 35.6918 44.5319 35.881 44.3519C36.4216 43.8376 37.0874 43.0525 37.7356 42.2057C37.9808 41.8854 38.2717 41.6971 38.6446 41.4559C38.8766 41.3059 39.1404 41.1356 39.4445 40.9001C39.6169 40.7665 39.7007 40.5913 39.7784 40.4291C39.85 40.2797 39.9165 40.1413 40.0419 40.0565C40.1527 39.9817 40.2882 39.9999 40.4168 40.0171C40.56 40.0364 40.6948 40.0544 40.7775 39.9419C40.8215 39.882 40.8462 39.7805 40.8756 39.6597C40.8873 39.6119 40.8999 39.5611 40.9145 39.5087C40.9283 39.526 40.9419 39.5403 40.9524 39.5509C41.0268 39.6255 41.1656 39.5652 41.3018 39.506C41.3562 39.4823 41.4102 39.4586 41.4594 39.444C41.6406 39.3902 41.8733 39.1782 42.0403 39.0053C42.111 38.9321 42.1992 38.8901 42.3023 38.841C42.3937 38.7975 42.4968 38.7484 42.6095 38.6671C42.6738 38.6207 42.7379 38.5998 42.7911 38.5827C42.8296 38.5703 42.8624 38.5598 42.8854 38.5427C42.9053 38.5278 42.898 38.4924 42.8897 38.4526C42.8838 38.4239 42.8773 38.3928 42.8802 38.3654C42.8872 38.2999 42.9249 38.2445 42.967 38.2213C42.9864 38.2105 43.0067 38.2069 43.0268 38.2034C43.0502 38.1992 43.0736 38.1952 43.0959 38.1797C43.1982 38.1086 43.2582 37.9999 43.3205 37.8869C43.389 37.7628 43.4605 37.6334 43.5939 37.5432C43.6359 37.5148 43.6889 37.4929 43.7404 37.4717C43.7942 37.4495 43.8463 37.4279 43.8818 37.4006C44.0257 37.2896 44.0922 37.1166 44.1534 36.9573C44.194 36.8515 44.2325 36.7516 44.2897 36.6804C44.3945 36.5499 44.3937 36.4228 44.393 36.3289C44.3926 36.2803 44.3922 36.2405 44.4068 36.2138C44.4275 36.1967 44.4488 36.1796 44.4699 36.1631C44.4919 36.1506 44.5146 36.1376 44.5297 36.1193C44.5309 36.1179 44.5318 36.1164 44.533 36.115C44.6537 36.0253 44.7791 35.944 44.9037 35.8632C45.1837 35.6818 45.4603 35.5028 45.6737 35.2343C45.7197 35.1765 45.7462 35.0972 45.7731 35.0165C45.8061 34.9177 45.8399 34.8167 45.9111 34.7504C46.0805 34.5925 46.2894 34.4708 46.4951 34.351C46.8045 34.1707 47.1068 33.9945 47.2575 33.7054C47.3072 33.6099 47.34 33.501 47.3727 33.3916C47.3909 33.3307 47.4091 33.2693 47.4304 33.2104C47.4569 33.2539 47.4852 33.2913 47.5116 33.3261C47.5661 33.398 47.6126 33.4595 47.62 33.544C47.6374 33.7436 47.6835 33.9962 47.8039 34.0937C47.8366 34.1201 47.867 34.1556 47.8974 34.1915C47.9736 34.2815 48.0516 34.3735 48.1746 34.3273C48.2575 34.2962 48.4634 34.2091 48.493 34.0523C48.4994 34.0182 48.4843 33.9784 48.4675 33.9341C48.4595 33.9129 48.4511 33.8906 48.4444 33.8674L48.4444 35.2828C48.3806 35.3011 48.3096 35.3059 48.2337 35.2523C48.2163 35.2399 48.1979 35.2261 48.179 35.2115C48.1039 35.1534 48.0198 35.0882 47.9479 35.1044C47.8649 35.1231 47.8136 35.1881 47.7538 35.264C47.6759 35.3627 47.5833 35.48 47.3876 35.5373C47.3489 35.5486 47.3142 35.531 47.288 35.5178C47.2695 35.5084 47.2552 35.5015 47.2466 35.5079C47.2367 35.5154 47.2232 35.5378 47.2061 35.5662C47.1458 35.6664 47.0402 35.8413 46.8896 35.7025C46.8488 35.665 46.8107 35.6135 46.7766 35.5673C46.7263 35.4993 46.6845 35.4428 46.655 35.4591C46.6438 35.4654 46.6326 35.4731 46.6214 35.4814C46.577 35.4315 46.5327 35.3816 46.4883 35.3318C46.4552 35.244 46.3681 35.1615 46.2592 35.0587C46.2327 35.0337 46.205 35.0073 46.1764 34.9796C46.0891 34.8809 46.0018 34.7823 45.9146 34.6836C45.8525 34.5983 45.7929 34.501 45.7401 34.3882C45.6343 34.1622 45.5891 33.9187 45.545 33.6807C45.5264 33.5805 45.5081 33.481 45.4854 33.3843C45.5132 33.403 45.5396 33.4186 45.5631 33.4274C45.7244 33.4874 45.8684 33.4322 46.0009 33.3813C46.089 33.3475 46.1722 33.3156 46.2517 33.3209C46.3974 33.3306 46.4691 33.2433 46.5222 33.1788C46.5497 33.1454 46.5725 33.1181 46.5976 33.1136C46.6179 33.1101 46.6427 33.1238 46.6684 33.1379C46.6907 33.1501 46.7139 33.1628 46.7349 33.1646C46.9903 33.1872 47.016 33.0778 47.0536 32.9188C47.0743 32.831 47.0988 32.7282 47.1672 32.6239C47.2432 32.5171 47.2751 32.4955 47.3844 32.5319C47.3728 32.43 47.3612 32.3282 47.3496 32.2263C47.3244 32.207 47.2793 32.2183 47.2087 32.2415C47.0826 32.2829 46.914 32.1756 46.7823 32.0917C46.7213 32.0529 46.6682 32.0191 46.6308 32.0074C46.4321 31.9453 46.3749 32.0784 46.3246 32.1955C46.297 32.2599 46.2713 32.3195 46.2253 32.3391C46.2056 32.3475 46.1998 32.3694 46.1937 32.3917C46.1889 32.409 46.1842 32.4266 46.173 32.4383C46.0914 32.5233 45.9524 32.5081 45.8233 32.4939C45.7495 32.4858 45.6788 32.4783 45.6239 32.4899C45.6072 32.4935 45.5917 32.4986 45.5767 32.5037C45.5549 32.5112 45.5339 32.5182 45.511 32.5192C45.4589 32.5216 45.3892 32.4886 45.3129 32.4524C45.2739 32.4339 45.233 32.4145 45.1919 32.3986C45.1387 32.3781 45.0925 32.3978 45.044 32.4182C45.0098 32.4326 44.9743 32.4473 44.9346 32.4489C44.8627 32.4517 44.7794 32.3953 44.7021 32.3431C44.6685 32.3203 44.6358 32.2984 44.6058 32.2824C44.5936 32.2759 44.5834 32.2771 44.5747 32.2839C44.4422 32.2036 44.3141 32.1287 44.1891 32.056C43.5628 31.6914 43.0205 31.376 42.4623 30.6533C42.3568 30.5167 42.2236 30.3898 42.0798 30.2708C41.6922 29.8178 41.3054 29.3635 40.9199 28.9087C40.9118 28.7505 40.8731 28.5857 40.8022 28.4157C40.6689 28.0966 40.4561 27.8441 40.205 27.5461C40.0193 27.3258 39.8128 27.0805 39.6017 26.765C39.2472 26.235 38.8673 25.7066 38.3935 25.1556C37.9217 24.607 37.3659 23.9945 36.9627 23.5712C36.7429 23.3405 36.5734 23.0367 36.4154 22.7536C36.1932 22.3555 35.9936 21.9983 35.7094 21.9426C35.6186 21.9249 35.5027 21.9358 35.3901 21.9464C35.3098 21.9539 35.2311 21.9609 35.1641 21.9577C35.0804 21.8542 34.9966 21.7508 34.913 21.6472C34.8228 21.4047 34.646 21.0645 34.3113 20.8996C34.2252 20.7926 34.139 20.6855 34.0563 20.5817C33.8749 20.3559 33.6982 20.1343 33.5199 19.9108C33.4617 19.8377 33.403 19.764 33.3441 19.69C33.3435 19.6893 33.343 19.6886 33.3425 19.6879C33.2239 19.539 33.1045 19.3891 32.9874 19.2413C32.9372 19.178 32.887 19.1147 32.8368 19.0514C32.7093 18.8906 32.5807 18.7287 32.4548 18.5692C32.3883 18.4847 32.3209 18.3995 32.2535 18.3141C32.1442 18.1755 32.0341 18.0359 31.9247 17.8968C31.7477 17.672 31.572 17.4477 31.3961 17.223C31.3673 17.1862 31.3485 17.142 31.3446 17.0996C31.3407 17.0573 31.3518 17.0201 31.3767 16.9952C31.4016 16.9704 31.439 16.9594 31.4814 16.9634C31.5237 16.9675 31.5675 16.9866 31.6042 17.0154C31.8284 17.1921 32.0522 17.3689 32.2765 17.5466C32.4152 17.6565 32.5545 17.7668 32.6927 17.8765C32.7779 17.9442 32.8628 18.0117 32.947 18.0786C33.1061 18.205 33.268 18.3341 33.4283 18.4621C33.4914 18.5125 33.5545 18.5628 33.6176 18.6132C33.7654 18.7311 33.9152 18.8514 34.064 18.9707C34.0649 18.9714 34.0658 18.9721 34.0667 18.9728C34.1399 19.0315 34.213 19.0901 34.2853 19.148C34.5083 19.3271 34.7293 19.5047 34.9544 19.6868C35.0712 19.7805 35.1922 19.8788 35.3125 19.9761C35.3794 20.0304 35.4463 20.0844 35.512 20.1375C35.5479 20.1666 35.5841 20.1961 35.6206 20.2258C36.4593 20.9056 37.2897 21.5831 38.124 22.2707C38.9555 22.9555 39.7852 23.6446 40.6099 24.3342C41.4364 25.0257 42.2587 25.7188 43.079 26.4151C45.6409 28.5896 48.1904 30.7859 50.7193 33.008C51.6573 33.8398 51.5511 35.2043 50.7193 36.1423C48.4259 38.7524 46.1051 41.3407 43.7526 43.8984C43.0922 44.6168 42.4109 45.3504 41.7434 46.0647C41.0685 46.7866 40.4052 47.4914 39.7228 48.2094C39.5157 48.4276 39.3029 48.6509 39.0842 48.8796Z" fill="black"/>
<circle cx="5.3086" cy="35.7315" r="2.5" transform="rotate(8.2828 5.3086 35.7315)" fill="black"/>
<path d="M0.134202 37.5844C-0.227903 36.7364 0.245833 35.8215 0.353907 35.063C0.356259 35.0458 0.358543 35.0285 0.360764 35.0112C0.466754 34.0802 0.477271 32.8272 1.29897 32.0714C2.10202 31.3351 3.14019 30.9075 4.16205 30.8495C4.79983 30.8108 5.42786 30.9141 5.97871 31.1284C6.31071 31.257 6.6227 31.4258 6.90171 31.6267C7.64662 32.1601 8.13654 32.9165 8.32756 33.6685C8.45992 34.1799 8.46091 34.691 8.35648 35.1415C8.31099 35.3393 8.24575 35.5254 8.1647 35.6967C8.1041 35.8243 8.03485 35.9443 7.95891 36.0543C7.94823 36.0697 7.91095 36.0808 7.85363 36.0842C7.7962 36.0877 7.72386 36.0832 7.65002 36.0724C7.57613 36.0616 7.50536 36.0454 7.451 36.0283C7.3968 36.0111 7.36374 35.9943 7.35694 35.9806C7.30857 35.8813 7.2531 35.7888 7.19198 35.7053C7.1242 35.6122 7.04937 35.5297 6.97051 35.458C7.27057 35.3955 7.49574 35.3322 7.58688 35.2654C7.63344 35.2317 7.64658 35.1906 7.5851 35.1788C7.52989 35.1683 7.43734 35.1747 7.34954 35.1829C7.25768 35.1913 7.17096 35.2016 7.13688 35.1937C7.07891 35.1802 6.94661 35.1936 6.80958 35.2154C6.75969 35.2232 6.70906 35.2321 6.66106 35.2406C6.57912 35.1977 6.49608 35.1647 6.41381 35.1409C6.43167 35.1052 6.44317 35.0723 6.42272 35.0627C6.40436 35.054 6.34119 35.0752 6.26645 35.1079C6.25396 35.1059 6.24151 35.1042 6.22909 35.1027C6.14918 35.0926 6.07174 35.0912 5.99805 35.0978C6.03476 35.017 6.06031 34.9297 6.03892 34.8657C6.02987 34.8384 6.0381 34.7885 6.04283 34.7392C6.05045 34.6667 6.04928 34.5951 5.99779 34.615C5.96379 34.6286 5.96698 34.5803 5.96641 34.5307C5.96671 34.4648 5.95835 34.396 5.88202 34.4907C5.83434 34.5503 5.78416 34.6268 5.74034 34.6991C5.67041 34.8141 5.61702 34.9183 5.60289 34.9218C5.57567 34.9279 5.52724 35.0145 5.49136 35.0932C5.44709 35.1876 5.42019 35.27 5.4295 35.1769C5.43085 35.1628 5.43281 35.1441 5.4348 35.1227C5.44257 35.044 5.44795 34.9309 5.42931 34.9024C5.42167 34.8903 5.41035 34.8935 5.39635 34.9216C5.37955 34.9551 5.35991 35.0451 5.34549 35.1339C5.32363 35.2632 5.31466 35.3897 5.30713 35.3333C5.30591 35.3248 5.30455 35.2895 5.30293 35.2572C5.30092 35.2162 5.29848 35.1804 5.29789 35.2116C5.29616 35.303 5.29466 35.4041 5.29702 35.514C5.29871 35.5948 5.30244 35.6803 5.3085 35.77C5.31466 35.8205 5.32982 35.868 5.35138 35.9102C5.36126 35.9296 5.3725 35.9479 5.38485 35.965C5.34636 35.8329 5.30664 35.7154 5.27318 35.6278C5.22923 35.5133 5.20897 35.4808 5.18041 35.4403C5.15894 35.4107 5.13294 35.3766 5.07874 35.3085C4.97619 35.1833 4.95478 35.2407 4.99265 35.3194C5.00026 35.3363 5.00894 35.3539 5.01891 35.3727C5.05715 35.4436 5.10869 35.5309 5.17957 35.6157C5.24787 35.6947 5.27216 35.7085 5.2883 35.7204C5.29692 35.726 5.30418 35.7301 5.31851 35.7375C5.34304 35.7502 5.36613 35.7592 5.39001 35.7659C5.42739 35.7765 5.46661 35.7814 5.51761 35.7899C5.53577 35.7929 5.55824 35.7966 5.58243 35.7996C5.64453 35.8077 5.72001 35.8109 5.77 35.7987C5.77387 35.7978 5.77758 35.7967 5.78112 35.7956C5.83289 35.7783 5.80057 35.7538 5.72808 35.7387C5.69862 35.7321 5.58177 35.728 5.46116 35.7297C5.28993 35.731 5.11186 35.7478 5.16536 35.7473C5.17783 35.7469 5.20557 35.7447 5.23462 35.7417C5.288 35.7365 5.34543 35.7272 5.32014 35.7305C5.31133 35.7317 5.28004 35.7367 5.24945 35.7422C5.21578 35.7481 5.18299 35.7545 5.18126 35.7554C5.17483 35.7588 5.18306 35.7595 5.19034 35.7594C5.19978 35.7595 5.20742 35.7586 5.18124 35.7678C5.13463 35.7845 5.17829 35.7755 5.2211 35.7614C5.25393 35.751 5.28643 35.738 5.28058 35.7409C5.26381 35.7497 5.34453 35.7202 5.45616 35.6337C5.49814 35.6008 5.43453 35.6366 5.35993 35.6925C5.31338 35.727 5.26226 35.7691 5.2276 35.8031C5.20809 35.8225 5.25768 35.781 5.30142 35.7403C5.34194 35.7031 5.37776 35.667 5.35683 35.6867C5.33833 35.7041 5.26159 35.781 5.19005 35.8554C5.11029 35.9381 5.03712 36.0176 5.05412 36.0046C5.0631 35.9977 5.10177 35.9594 5.14647 35.9128C5.16415 35.8944 5.18272 35.8747 5.20095 35.8551C5.18622 35.8715 5.17306 35.8862 5.16311 35.8973C5.09261 35.9757 5.05779 36.019 5.02515 36.0627C5.01208 36.0801 4.99937 36.0974 4.98463 36.117C4.93032 36.1891 4.93111 36.2087 4.94081 36.2109C4.94489 36.2118 4.92777 36.2399 4.90865 36.2732C4.89164 36.3027 4.87305 36.3365 4.86555 36.3585C4.86125 36.3709 4.84615 36.3977 4.83377 36.4201C4.82479 36.4364 4.81723 36.4503 4.81617 36.4546C4.81527 36.4583 4.83321 36.434 4.85324 36.4064C4.86766 36.3866 4.88322 36.3651 4.89371 36.3513C4.91879 36.3183 4.92792 36.3093 4.9223 36.3216C4.9197 36.3272 4.91388 36.3374 4.90812 36.3477C4.9014 36.3596 4.89469 36.3716 4.89314 36.3763C4.88615 36.398 4.90975 36.3721 4.93314 36.3445C4.95904 36.3142 4.98437 36.2817 4.97464 36.3113C4.9716 36.3207 4.9626 36.3409 4.95409 36.3606C4.94517 36.3813 4.93684 36.4014 4.93592 36.4074C4.93239 36.4322 4.97549 36.3697 5.01239 36.3107C5.03709 36.2715 5.05935 36.2341 5.06643 36.2265C5.0796 36.2127 5.12057 36.132 5.1499 36.0719C5.16514 36.0408 5.17744 36.0152 5.18149 36.0076C5.18088 36.0101 5.18009 36.013 5.1792 36.0162C5.17688 36.0224 5.17454 36.0289 5.17584 36.0271C5.17594 36.0269 5.17613 36.0266 5.17623 36.0265C5.16993 36.0477 5.16057 36.0775 5.15207 36.1076C5.13259 36.1749 5.11996 36.2439 5.14292 36.2106C5.14781 36.2035 5.16182 36.1687 5.17539 36.1332C5.19209 36.0897 5.20806 36.0449 5.20893 36.0487C5.21096 36.0579 5.19884 36.1185 5.19047 36.1791C5.17692 36.2699 5.17408 36.3607 5.20408 36.2667C5.21378 36.2357 5.22672 36.1833 5.23863 36.1303C5.24528 36.1008 5.25168 36.071 5.25718 36.0449C5.24902 36.0937 5.24138 36.1395 5.23422 36.1822C5.21943 36.2703 5.20679 36.3457 5.19363 36.4093C5.16297 36.5598 5.11522 36.7658 5.08808 36.9174C5.08083 36.9586 5.07213 37.0043 5.06328 37.0504C5.0412 37.1659 5.01775 37.2838 5.02038 37.3394C5.02167 37.3769 5.03101 37.4637 5.05872 37.3769C5.06467 37.358 5.07222 37.3198 5.08044 37.2774C5.08438 37.2571 5.08848 37.2358 5.09263 37.215C5.10408 37.158 5.11582 37.1056 5.12586 37.0911C5.12817 37.0878 5.13058 37.0848 5.13301 37.0821C5.1427 37.0712 5.15338 37.059 5.1637 36.9975C5.17557 36.9265 5.18382 36.8447 5.19399 36.7493C5.20695 36.625 5.2242 36.4776 5.24768 36.3002C5.25227 36.2652 5.25482 36.2533 5.25672 36.2442C5.25806 36.2379 5.25908 36.2328 5.26021 36.2222C5.26151 36.21 5.26389 36.1847 5.26697 36.1527C5.27758 36.0397 5.2987 35.8425 5.30088 35.8342C5.30154 35.832 5.30118 35.8415 5.30098 35.85C5.30066 35.8626 5.30066 35.873 5.30311 35.8407C5.30404 35.8284 5.30504 35.8151 5.30607 35.8013C5.30615 35.8052 5.30628 35.8091 5.30644 35.8131C5.30463 35.8517 5.30604 35.8485 5.30729 35.8442C5.30761 35.8432 5.30792 35.8422 5.30823 35.8417C5.30893 35.8497 5.3098 35.8577 5.31084 35.8659C5.31161 35.8823 5.3126 35.909 5.31477 35.9514C5.319 36.0363 5.3282 36.1763 5.3429 36.3128C5.34904 36.3703 5.3561 36.4273 5.36369 36.4793C5.36262 36.4858 5.36174 36.4935 5.36132 36.504C5.35849 36.5759 5.36211 36.7168 5.36427 36.8465C5.36568 36.9328 5.36644 37.0142 5.36347 37.0668C5.35791 37.1632 5.36184 37.2756 5.36558 37.3586C5.36743 37.4017 5.36899 37.437 5.36809 37.458C5.36737 37.4749 5.36463 37.4829 5.36176 37.4911C5.35926 37.4984 5.35664 37.5059 5.35515 37.5195C5.33651 37.6845 5.34269 37.7799 5.3578 37.9187C5.3659 37.9953 5.37628 38.085 5.38385 38.2069C5.39103 38.3361 5.39145 38.3739 5.37524 38.4258C5.39035 38.4894 5.40641 38.5527 5.42343 38.616C5.42896 38.6116 5.43172 38.5715 5.43462 38.505C5.43995 38.3862 5.46954 38.3414 5.49189 38.3059C5.50222 38.2894 5.511 38.275 5.51504 38.2565C5.53628 38.1577 5.51456 38.0245 5.49828 37.9072C5.48911 37.8426 5.48112 37.7827 5.47959 37.7363C5.47892 37.7165 5.47584 37.697 5.47278 37.6771C5.47041 37.6617 5.46803 37.6461 5.46666 37.6299C5.4569 37.5125 5.46182 37.4243 5.46417 37.3424C5.46559 37.2956 5.46635 37.2506 5.46426 37.2035C5.46362 37.1892 5.46276 37.1746 5.46188 37.1604C5.4606 37.1397 5.45935 37.12 5.45886 37.103C5.45775 37.0644 5.46088 37.0379 5.46384 37.009C5.46535 36.9942 5.46683 36.9787 5.46764 36.9606C5.4687 36.9372 5.46395 36.8908 5.45885 36.8423C5.45524 36.8081 5.45147 36.7728 5.44918 36.7437C5.44506 36.6909 5.44807 36.6713 5.45061 36.653C5.45172 36.645 5.45269 36.6371 5.45294 36.6271C5.45304 36.623 5.45211 36.615 5.45043 36.6041C5.45268 36.5664 5.45335 36.528 5.453 36.4905C5.45303 36.3017 5.41791 36.145 5.48154 36.2465C5.4941 36.2655 5.49908 36.259 5.49873 36.2403C5.53392 36.2764 5.57431 36.311 5.61962 36.3428C5.6726 36.435 5.72102 36.5103 5.76363 36.5668C5.84397 36.6726 5.87954 36.6845 5.92067 36.6977C5.9515 36.7071 5.98569 36.7173 6.05304 36.7598C6.16632 36.831 6.28066 36.8742 6.36996 36.8655C6.45875 36.8574 6.54683 36.8209 6.59634 36.7823C6.62314 36.7618 6.7196 36.7923 6.81273 36.8144C6.94306 36.8465 7.06686 36.8607 6.9452 36.7501C6.90629 36.7149 6.83438 36.6606 6.76374 36.609C6.71345 36.5722 6.664 36.5368 6.62756 36.5098C6.64606 36.506 6.66449 36.5018 6.68321 36.4973C6.78811 36.5305 6.91103 36.5453 6.81933 36.4586C6.83892 36.4521 6.85841 36.4452 6.87791 36.4384C6.91922 36.4229 6.96054 36.4064 7.00201 36.3878C7.01567 36.3817 7.02938 36.3754 7.04312 36.3688C7.04327 36.3687 7.04342 36.3687 7.04357 36.3686C7.07123 36.3554 7.09892 36.3413 7.12653 36.3266C7.13833 36.3203 7.15009 36.3138 7.16184 36.3072C7.19163 36.2904 7.22132 36.2725 7.25095 36.254C7.26668 36.2442 7.28233 36.2338 7.29802 36.2235C7.32351 36.2066 7.34897 36.1887 7.37432 36.1701C7.41534 36.1398 7.45595 36.1087 7.49624 36.0747C7.50288 36.0692 7.52154 36.0658 7.54911 36.0651C7.57672 36.0645 7.61088 36.0667 7.64568 36.0718C7.68049 36.0768 7.71394 36.0845 7.74001 36.0936C7.76599 36.1026 7.78223 36.1122 7.78659 36.1203C7.81283 36.1699 7.83745 36.2201 7.86 36.2728C7.87397 36.3053 7.8875 36.3384 7.90005 36.3716C7.90781 36.392 7.91505 36.4129 7.92225 36.4336C7.93573 36.4728 7.94821 36.5131 7.95951 36.5538C7.96398 36.5699 7.96831 36.5861 7.9725 36.6023C7.98232 36.6404 7.99104 36.6792 7.99887 36.7185C7.99891 36.7187 7.99895 36.719 7.999 36.7192C8.00283 36.7385 8.00649 36.758 8.00994 36.7773C8.02022 36.8368 8.02853 36.8967 8.03401 36.9586C8.03748 36.9909 8.03965 37.0242 8.04135 37.0578C8.0423 37.0765 8.04313 37.0952 8.04383 37.1137C8.0441 37.1238 8.04422 37.1339 8.04429 37.1442C8.04873 37.3805 8.02073 37.6243 7.95678 37.8685C7.89341 38.112 7.79515 38.3546 7.66411 38.5864C7.53266 38.8186 7.36814 39.0401 7.17301 39.2431C6.56907 39.88 5.64092 40.3309 4.62918 40.3986C3.58836 40.4802 2.42993 40.1368 1.52833 39.41C1.27398 39.2076 1.0338 38.9697 0.823822 38.7134C0.611806 38.4543 0.42803 38.1768 0.271344 37.8734C0.223647 37.7814 0.177755 37.685 0.134202 37.5844Z" fill="black"/>
<circle cx="58.3086" cy="35.7315" r="2.5" transform="rotate(8.2828 58.3086 35.7315)" fill="black"/>
<path d="M53.1342 37.5844C52.7721 36.7364 53.2458 35.8215 53.3539 35.063C53.3563 35.0458 53.3585 35.0285 53.3608 35.0112C53.4668 34.0802 53.4773 32.8272 54.299 32.0714C55.102 31.3351 56.1402 30.9075 57.162 30.8495C57.7998 30.8108 58.4279 30.9141 58.9787 31.1284C59.3107 31.257 59.6227 31.4258 59.9017 31.6267C60.6466 32.1601 61.1365 32.9165 61.3276 33.6685C61.4599 34.1799 61.4609 34.691 61.3565 35.1415C61.311 35.3393 61.2457 35.5254 61.1647 35.6967C61.1041 35.8243 61.0349 35.9443 60.9589 36.0543C60.9482 36.0697 60.911 36.0808 60.8536 36.0842C60.7962 36.0877 60.7239 36.0832 60.65 36.0724C60.5761 36.0616 60.5054 36.0454 60.451 36.0283C60.3968 36.0111 60.3637 35.9943 60.3569 35.9806C60.3086 35.8813 60.2531 35.7888 60.192 35.7053C60.1242 35.6122 60.0494 35.5297 59.9705 35.458C60.2706 35.3955 60.4957 35.3322 60.5869 35.2654C60.6334 35.2317 60.6466 35.1906 60.5851 35.1788C60.5299 35.1683 60.4373 35.1747 60.3495 35.1829C60.2577 35.1913 60.171 35.2016 60.1369 35.1937C60.0789 35.1802 59.9466 35.1936 59.8096 35.2154C59.7597 35.2232 59.7091 35.2321 59.6611 35.2406C59.5791 35.1977 59.4961 35.1647 59.4138 35.1409C59.4317 35.1052 59.4432 35.0723 59.4227 35.0627C59.4044 35.054 59.3412 35.0752 59.2665 35.1079C59.254 35.1059 59.2415 35.1042 59.2291 35.1027C59.1492 35.0926 59.0717 35.0912 58.9981 35.0978C59.0348 35.017 59.0603 34.9297 59.0389 34.8657C59.0299 34.8384 59.0381 34.7885 59.0428 34.7392C59.0505 34.6667 59.0493 34.5951 58.9978 34.615C58.9638 34.6286 58.967 34.5803 58.9664 34.5307C58.9667 34.4648 58.9584 34.396 58.882 34.4907C58.8343 34.5503 58.7842 34.6268 58.7403 34.6991C58.6704 34.8141 58.617 34.9183 58.6029 34.9218C58.5757 34.9279 58.5272 35.0145 58.4914 35.0932C58.4471 35.1876 58.4202 35.27 58.4295 35.1769C58.4308 35.1628 58.4328 35.1441 58.4348 35.1227C58.4426 35.044 58.4479 34.9309 58.4293 34.9024C58.4217 34.8903 58.4103 34.8935 58.3964 34.9216C58.3796 34.9551 58.3599 35.0451 58.3455 35.1339C58.3236 35.2632 58.3147 35.3897 58.3071 35.3333C58.3059 35.3248 58.3046 35.2895 58.3029 35.2572C58.3009 35.2162 58.2985 35.1804 58.2979 35.2116C58.2962 35.303 58.2947 35.4041 58.297 35.514C58.2987 35.5948 58.3024 35.6803 58.3085 35.77C58.3147 35.8205 58.3298 35.868 58.3514 35.9102C58.3613 35.9296 58.3725 35.9479 58.3849 35.965C58.3464 35.8329 58.3066 35.7154 58.2732 35.6278C58.2292 35.5133 58.209 35.4808 58.1804 35.4403C58.1589 35.4107 58.1329 35.3766 58.0787 35.3085C57.9762 35.1833 57.9548 35.2407 57.9927 35.3194C58.0003 35.3363 58.0089 35.3539 58.0189 35.3727C58.0571 35.4436 58.1087 35.5309 58.1796 35.6157C58.2479 35.6947 58.2722 35.7085 58.2883 35.7204C58.2969 35.726 58.3042 35.7301 58.3185 35.7375C58.343 35.7502 58.3661 35.7592 58.39 35.7659C58.4274 35.7765 58.4666 35.7814 58.5176 35.7899C58.5358 35.7929 58.5582 35.7966 58.5824 35.7996C58.6445 35.8077 58.72 35.8109 58.77 35.7987C58.7739 35.7978 58.7776 35.7967 58.7811 35.7956C58.8329 35.7783 58.8006 35.7538 58.7281 35.7387C58.6986 35.7321 58.5818 35.728 58.4612 35.7297C58.2899 35.731 58.1119 35.7478 58.1654 35.7473C58.1778 35.7469 58.2056 35.7447 58.2346 35.7417C58.288 35.7365 58.3454 35.7272 58.3201 35.7305C58.3113 35.7317 58.28 35.7367 58.2494 35.7422C58.2158 35.7481 58.183 35.7545 58.1813 35.7554C58.1748 35.7588 58.1831 35.7595 58.1903 35.7594C58.1998 35.7595 58.2074 35.7586 58.1812 35.7678C58.1346 35.7845 58.1783 35.7755 58.2211 35.7614C58.2539 35.751 58.2864 35.738 58.2806 35.7409C58.2638 35.7497 58.3445 35.7202 58.4562 35.6337C58.4981 35.6008 58.4345 35.6366 58.3599 35.6925C58.3134 35.727 58.2623 35.7691 58.2276 35.8031C58.2081 35.8225 58.2577 35.781 58.3014 35.7403C58.3419 35.7031 58.3778 35.667 58.3568 35.6867C58.3383 35.7041 58.2616 35.781 58.1901 35.8554C58.1103 35.9381 58.0371 36.0176 58.0541 36.0046C58.0631 35.9977 58.1018 35.9594 58.1465 35.9128C58.1642 35.8944 58.1827 35.8747 58.201 35.8551C58.1862 35.8715 58.1731 35.8862 58.1631 35.8973C58.0926 35.9757 58.0578 36.019 58.0251 36.0627C58.0121 36.0801 57.9994 36.0974 57.9846 36.117C57.9303 36.1891 57.9311 36.2087 57.9408 36.2109C57.9449 36.2118 57.9278 36.2399 57.9086 36.2732C57.8916 36.3027 57.873 36.3365 57.8655 36.3585C57.8612 36.3709 57.8462 36.3977 57.8338 36.4201C57.8248 36.4364 57.8172 36.4503 57.8162 36.4546C57.8153 36.4583 57.8332 36.434 57.8532 36.4064C57.8677 36.3866 57.8832 36.3651 57.8937 36.3513C57.9188 36.3183 57.9279 36.3093 57.9223 36.3216C57.9197 36.3272 57.9139 36.3374 57.9081 36.3477C57.9014 36.3596 57.8947 36.3716 57.8931 36.3763C57.8861 36.398 57.9098 36.3721 57.9331 36.3445C57.959 36.3142 57.9844 36.2817 57.9746 36.3113C57.9716 36.3207 57.9626 36.3409 57.9541 36.3606C57.9452 36.3813 57.9368 36.4014 57.9359 36.4074C57.9324 36.4322 57.9755 36.3697 58.0124 36.3107C58.0371 36.2715 58.0594 36.2341 58.0664 36.2265C58.0796 36.2127 58.1206 36.132 58.1499 36.0719C58.1651 36.0408 58.1774 36.0152 58.1815 36.0076C58.1809 36.0101 58.1801 36.013 58.1792 36.0162C58.1769 36.0224 58.1745 36.0289 58.1758 36.0271C58.1759 36.0269 58.1761 36.0266 58.1762 36.0265C58.1699 36.0477 58.1606 36.0775 58.1521 36.1076C58.1326 36.1749 58.12 36.2439 58.1429 36.2106C58.1478 36.2035 58.1618 36.1687 58.1754 36.1332C58.1921 36.0897 58.2081 36.0449 58.2089 36.0487C58.211 36.0579 58.1988 36.1185 58.1905 36.1791C58.1769 36.2699 58.1741 36.3607 58.2041 36.2667C58.2138 36.2357 58.2267 36.1833 58.2386 36.1303C58.2453 36.1008 58.2517 36.071 58.2572 36.0449C58.249 36.0937 58.2414 36.1395 58.2342 36.1822C58.2194 36.2703 58.2068 36.3457 58.1936 36.4093C58.163 36.5598 58.1152 36.7658 58.0881 36.9174C58.0808 36.9586 58.0721 37.0043 58.0633 37.0504C58.0412 37.1659 58.0178 37.2838 58.0204 37.3394C58.0217 37.3769 58.031 37.4637 58.0587 37.3769C58.0647 37.358 58.0722 37.3198 58.0804 37.2774C58.0844 37.2571 58.0885 37.2358 58.0926 37.215C58.1041 37.158 58.1158 37.1056 58.1259 37.0911C58.1282 37.0878 58.1306 37.0848 58.133 37.0821C58.1427 37.0712 58.1534 37.059 58.1637 36.9975C58.1756 36.9265 58.1838 36.8447 58.194 36.7493C58.2069 36.625 58.2242 36.4776 58.2477 36.3002C58.2523 36.2652 58.2548 36.2533 58.2567 36.2442C58.2581 36.2379 58.2591 36.2328 58.2602 36.2222C58.2615 36.21 58.2639 36.1847 58.267 36.1527C58.2776 36.0397 58.2987 35.8425 58.3009 35.8342C58.3015 35.832 58.3012 35.8415 58.301 35.85C58.3007 35.8626 58.3007 35.873 58.3031 35.8407C58.304 35.8284 58.305 35.8151 58.3061 35.8013C58.3062 35.8052 58.3063 35.8091 58.3064 35.8131C58.3046 35.8517 58.306 35.8485 58.3073 35.8442C58.3076 35.8432 58.3079 35.8422 58.3082 35.8417C58.3089 35.8497 58.3098 35.8577 58.3108 35.8659C58.3116 35.8823 58.3126 35.909 58.3148 35.9514C58.319 36.0363 58.3282 36.1763 58.3429 36.3128C58.349 36.3703 58.3561 36.4273 58.3637 36.4793C58.3626 36.4858 58.3617 36.4935 58.3613 36.504C58.3585 36.5759 58.3621 36.7168 58.3643 36.8465C58.3657 36.9328 58.3664 37.0142 58.3635 37.0668C58.3579 37.1632 58.3618 37.2756 58.3656 37.3586C58.3674 37.4017 58.369 37.437 58.3681 37.458C58.3674 37.4749 58.3646 37.4829 58.3618 37.4911C58.3593 37.4984 58.3566 37.5059 58.3552 37.5195C58.3365 37.6845 58.3427 37.7799 58.3578 37.9187C58.3659 37.9953 58.3763 38.085 58.3839 38.2069C58.391 38.3361 58.3914 38.3739 58.3752 38.4258C58.3904 38.4894 58.4064 38.5527 58.4234 38.616C58.429 38.6116 58.4317 38.5715 58.4346 38.505C58.4399 38.3862 58.4695 38.3414 58.4919 38.3059C58.5022 38.2894 58.511 38.275 58.515 38.2565C58.5363 38.1577 58.5146 38.0245 58.4983 37.9072C58.4891 37.8426 58.4811 37.7827 58.4796 37.7363C58.4789 37.7165 58.4758 37.697 58.4728 37.6771C58.4704 37.6617 58.468 37.6461 58.4667 37.6299C58.4569 37.5125 58.4618 37.4243 58.4642 37.3424C58.4656 37.2956 58.4664 37.2506 58.4643 37.2035C58.4636 37.1892 58.4628 37.1746 58.4619 37.1604C58.4606 37.1397 58.4594 37.12 58.4589 37.103C58.4577 37.0644 58.4609 37.0379 58.4638 37.009C58.4654 36.9942 58.4668 36.9787 58.4676 36.9606C58.4687 36.9372 58.4639 36.8908 58.4588 36.8423C58.4552 36.8081 58.4515 36.7728 58.4492 36.7437C58.4451 36.6909 58.4481 36.6713 58.4506 36.653C58.4517 36.645 58.4527 36.6371 58.4529 36.6271C58.453 36.623 58.4521 36.615 58.4504 36.6041C58.4527 36.5664 58.4534 36.528 58.453 36.4905C58.453 36.3017 58.4179 36.145 58.4815 36.2465C58.4941 36.2655 58.4991 36.259 58.4987 36.2403C58.5339 36.2764 58.5743 36.311 58.6196 36.3428C58.6726 36.435 58.721 36.5103 58.7636 36.5668C58.844 36.6726 58.8795 36.6845 58.9207 36.6977C58.9515 36.7071 58.9857 36.7173 59.053 36.7598C59.1663 36.831 59.2807 36.8742 59.37 36.8655C59.4587 36.8574 59.5468 36.8209 59.5963 36.7823C59.6231 36.7618 59.7196 36.7923 59.8127 36.8144C59.9431 36.8465 60.0669 36.8607 59.9452 36.7501C59.9063 36.7149 59.8344 36.6606 59.7637 36.609C59.7135 36.5722 59.664 36.5368 59.6276 36.5098C59.6461 36.506 59.6645 36.5018 59.6832 36.4973C59.7881 36.5305 59.911 36.5453 59.8193 36.4586C59.8389 36.4521 59.8584 36.4452 59.8779 36.4384C59.9192 36.4229 59.9605 36.4064 60.002 36.3878C60.0157 36.3817 60.0294 36.3754 60.0431 36.3688C60.0433 36.3687 60.0434 36.3687 60.0436 36.3686C60.0712 36.3554 60.0989 36.3413 60.1265 36.3266C60.1383 36.3203 60.1501 36.3138 60.1618 36.3072C60.1916 36.2904 60.2213 36.2725 60.2509 36.254C60.2667 36.2442 60.2823 36.2338 60.298 36.2235C60.3235 36.2066 60.349 36.1887 60.3743 36.1701C60.4153 36.1398 60.4559 36.1087 60.4962 36.0747C60.5029 36.0692 60.5215 36.0658 60.5491 36.0651C60.5767 36.0645 60.6109 36.0667 60.6457 36.0718C60.6805 36.0768 60.7139 36.0845 60.74 36.0936C60.766 36.1026 60.7822 36.1122 60.7866 36.1203C60.8128 36.1699 60.8375 36.2201 60.86 36.2728C60.874 36.3053 60.8875 36.3384 60.9001 36.3716C60.9078 36.392 60.915 36.4129 60.9223 36.4336C60.9357 36.4728 60.9482 36.5131 60.9595 36.5538C60.964 36.5699 60.9683 36.5861 60.9725 36.6023C60.9823 36.6404 60.991 36.6792 60.9989 36.7185C60.9989 36.7187 60.999 36.719 60.999 36.7192C61.0028 36.7385 61.0065 36.758 61.0099 36.7773C61.0202 36.8368 61.0285 36.8967 61.034 36.9586C61.0375 36.9909 61.0397 37.0242 61.0413 37.0578C61.0423 37.0765 61.0431 37.0952 61.0438 37.1137C61.0441 37.1238 61.0442 37.1339 61.0443 37.1442C61.0487 37.3805 61.0207 37.6243 60.9568 37.8685C60.8934 38.112 60.7951 38.3546 60.6641 38.5864C60.5327 38.8186 60.3681 39.0401 60.173 39.2431C59.5691 39.88 58.6409 40.3309 57.6292 40.3986C56.5884 40.4802 55.4299 40.1368 54.5283 39.41C54.274 39.2076 54.0338 38.9697 53.8238 38.7134C53.6118 38.4543 53.428 38.1768 53.2713 37.8734C53.2236 37.7814 53.1778 37.685 53.1342 37.5844Z" fill="black"/>
<path d="M26.8148 55.9047C28.3521 55.8069 29.8316 56.7297 31.3741 56.7315C33.2893 56.7338 35.235 55.852 37.1547 56.0162C39.0633 56.1805 40.9811 56.4163 42.8928 56.7071C44.8066 56.9979 46.7176 57.3436 48.6324 57.7264C50.5432 58.1093 52.458 58.5292 54.3703 58.9699C55.6691 59.2693 56.9694 59.5783 58.2681 59.8911C58.8382 60.0282 59.4066 60.166 59.9765 60.3042C60.4016 60.4076 60.8267 60.511 61.2518 60.6143C61.3109 60.6289 61.3675 60.688 61.4093 60.7819C61.451 60.8759 61.4745 60.9962 61.4745 61.1206C61.4744 61.2451 61.4507 61.3657 61.4088 61.4594C61.3669 61.5528 61.3102 61.6111 61.2511 61.6251C60.8224 61.7252 60.3937 61.8253 59.965 61.9255C59.4888 62.0365 59.0135 62.1478 58.5375 62.2581C58.4625 61.7477 58.3597 61.3605 58.1669 61.1895C58.0686 61.1023 57.9251 61.066 57.8195 61.1608C57.7246 61.2461 57.6532 61.398 57.5853 61.5428C57.5144 61.6943 57.447 61.8381 57.3604 61.8889C57.2132 61.9752 57.0734 62.1919 56.9266 62.4196C56.8732 62.5025 56.8188 62.5869 56.7627 62.6669C56.3083 62.7707 55.8539 62.8737 55.3995 62.9758C55.224 62.9215 55.0626 62.8775 54.9257 62.8985C54.803 62.9172 54.6905 63.0251 54.5785 63.1592C54.5082 63.1749 54.4378 63.1905 54.3675 63.2061C53.9135 63.3066 53.4594 63.4055 53.0052 63.5035C52.6508 63.3673 52.2794 63.235 51.7965 63.1769C51.5884 63.1519 51.383 63.0782 51.1856 63.0075C50.894 62.9031 50.6197 62.805 50.3793 62.8784C50.2185 62.9274 50.0494 62.8553 49.8808 62.7833C49.6546 62.6868 49.4288 62.5905 49.2241 62.787C49.0954 62.9105 48.9772 63.0607 48.8677 63.2C48.6935 63.4217 48.5414 63.6156 48.4036 63.629C48.1447 63.654 47.9205 63.8155 47.7229 63.958C47.4852 64.1293 47.2859 64.2731 47.1108 64.1182C47.0843 64.0947 47.0539 64.0635 47.0197 64.028C46.8395 63.841 46.5513 63.5419 46.1376 63.7063C45.9903 63.7649 45.852 63.9171 45.7165 64.0664C45.5192 64.2838 45.3277 64.4948 45.1225 64.4009C45.0919 64.3869 45.0599 64.328 45.0308 64.2742C44.9937 64.2058 44.9613 64.1461 44.9422 64.198C44.886 64.3503 44.7967 64.5187 44.6998 64.7019C44.6286 64.8365 44.5531 64.9792 44.4835 65.129C43.952 65.2136 43.4204 65.2947 42.8887 65.3715C42.6451 65.4067 42.4014 65.441 42.1576 65.4744C42.033 65.2451 41.9055 65.0385 41.7708 64.8822C41.5948 64.678 41.3666 64.6154 41.0725 64.5343C40.8561 64.4747 40.6038 64.4049 40.3103 64.262C39.767 63.9974 39.2089 64.0568 38.8512 64.1986C38.7756 64.2286 38.6995 64.2607 38.6182 64.2955C38.3097 64.4276 37.9248 64.5931 37.1936 64.7756C36.502 64.9482 35.9138 64.993 35.472 65.0266C35.2465 65.0438 35.059 65.0576 34.9154 65.0845C34.6696 65.1305 34.3678 65.1715 34.0648 65.2124C33.5907 65.2765 33.1136 65.3407 32.8435 65.4263C32.7474 65.4568 32.6465 65.4945 32.5375 65.5347C32.2356 65.6464 31.8709 65.7811 31.3682 65.8589C30.8405 65.9406 30.5134 65.8849 30.1736 65.7638C30.0355 65.7146 29.9137 65.5201 29.7882 65.3191C29.6101 65.0338 29.4243 64.7361 29.173 64.825C29.1143 64.8457 29.0517 64.8921 28.9862 64.9407C28.8659 65.0301 28.7358 65.127 28.6026 65.0845C28.5561 65.0697 28.5152 65.0169 28.4751 64.9651C28.431 64.9081 28.3877 64.8524 28.3387 64.8493C28.1556 64.8378 27.9775 64.8509 27.8191 64.8627C27.615 64.878 27.4438 64.8906 27.3376 64.8445C27.1482 64.7621 26.9412 64.8358 26.7315 64.9109C26.5713 64.9682 26.4096 65.0265 26.2529 65.0157C25.8053 64.9846 25.1898 65.1252 24.5555 65.3593C24.3156 65.4478 24.1122 65.3269 23.8517 65.1716C23.6897 65.0751 23.5055 64.9648 23.2765 64.8841C23.1467 64.8383 23.0368 64.946 22.9351 65.0455C22.8413 65.1372 22.7544 65.2219 22.6652 65.1741C22.5865 65.1317 22.5367 64.9507 22.4894 64.7787C22.4368 64.5872 22.3873 64.4072 22.3045 64.4423C22.2604 64.461 22.2069 64.5516 22.1431 64.6592C22.1179 64.7018 22.091 64.7468 22.0626 64.7914C22.064 64.7547 22.0644 64.7219 22.0644 64.697C22.0645 64.5213 21.98 64.4288 21.8971 64.3382C21.864 64.302 21.831 64.2662 21.8039 64.2254C21.7043 64.0753 21.5155 64.0509 21.3713 64.0579C21.3103 64.0608 21.255 64.0063 21.1905 63.9427C21.1332 63.8863 21.0687 63.8226 20.9864 63.7856C20.9394 63.7644 20.9033 63.7135 20.8735 63.671C20.8519 63.6402 20.8336 63.6139 20.8165 63.607C20.8018 63.6011 20.7899 63.6515 20.7765 63.7082C20.7668 63.749 20.7564 63.7932 20.7435 63.8221C20.7128 63.8911 20.6733 63.9119 20.6456 63.8897C20.6328 63.8795 20.6226 63.8599 20.6126 63.8404C20.6009 63.8177 20.5893 63.7948 20.5732 63.7868C20.4996 63.7501 20.4281 63.8075 20.3537 63.8672C20.272 63.9328 20.1868 64.0009 20.0919 63.9501C20.062 63.934 20.0302 63.8973 19.9994 63.8617C19.9672 63.8244 19.9359 63.7884 19.9092 63.7788C19.8011 63.7399 19.6995 63.8656 19.606 63.9811C19.5438 64.058 19.4851 64.1303 19.4307 64.1468C19.3308 64.1771 19.2772 64.3279 19.2377 64.4393C19.2172 64.497 19.2005 64.5444 19.183 64.5587C19.1669 64.5545 19.1507 64.5495 19.1347 64.5441C19.1201 64.533 19.1049 64.5215 19.0908 64.5252C19.0897 64.5255 19.0886 64.5261 19.0876 64.5264C18.9983 64.4899 18.9106 64.438 18.8234 64.3863C18.6277 64.2701 18.4344 64.1551 18.2299 64.22C18.1859 64.2339 18.141 64.2962 18.0954 64.3595C18.0394 64.437 17.9822 64.5163 17.9239 64.5106C17.785 64.497 17.6448 64.3943 17.5067 64.2931C17.299 64.1409 17.0959 63.9922 16.9093 64.1554C16.8477 64.2092 16.7876 64.2989 16.7273 64.3893C16.6938 64.4397 16.66 64.4905 16.6259 64.5349C16.6332 64.4525 16.637 64.375 16.6406 64.3028C16.648 64.154 16.6544 64.0266 16.6871 63.9184C16.7644 63.6626 16.852 63.3106 16.8422 63.0538C16.8396 62.9841 16.8417 62.9065 16.8441 62.8284C16.8499 62.6324 16.8559 62.4321 16.7841 62.3416C16.7357 62.2806 16.6114 62.1405 16.5323 62.2904C16.5151 62.3231 16.5046 62.3878 16.493 62.4598C16.472 62.5891 16.447 62.7422 16.3721 62.7778C16.3595 62.7838 16.3458 62.7892 16.3316 62.7943C16.2751 62.8144 16.2118 62.8366 16.1881 62.9405C16.1609 63.0602 16.1667 63.1974 16.1735 63.3572C16.1823 63.5655 16.1928 63.8128 16.1341 64.1109C16.1224 64.1698 16.1003 64.19 16.0835 64.2053C16.0717 64.2161 16.0627 64.2248 16.0618 64.2425C16.0608 64.2629 16.0645 64.3052 16.0693 64.3589C16.0862 64.548 16.1157 64.8786 15.9929 64.8926C15.9597 64.8963 15.9217 64.8806 15.8876 64.8664C15.8374 64.8454 15.7957 64.8281 15.7901 64.8822C15.788 64.9027 15.7865 64.925 15.7853 64.948C15.7453 64.9415 15.7053 64.935 15.6653 64.9285C15.6141 64.8641 15.5421 64.8696 15.4522 64.8767C15.4304 64.8785 15.4075 64.8801 15.3836 64.881C15.3047 64.8677 15.2258 64.8544 15.1469 64.8408C15.0844 64.8135 15.0178 64.7689 14.9476 64.6982C14.8068 64.5566 14.6843 64.3229 14.5646 64.0944C14.5142 63.9982 14.4643 63.9026 14.4136 63.8154C14.4333 63.8047 14.4511 63.792 14.4649 63.7746C14.5587 63.6552 14.5964 63.4204 14.631 63.2043C14.6541 63.0606 14.6758 62.925 14.7118 62.8375C14.7777 62.6773 14.7711 62.4899 14.7663 62.3513C14.7638 62.2795 14.7619 62.2206 14.7706 62.1856C14.7777 62.1576 14.7941 62.1444 14.8109 62.1308C14.8256 62.1189 14.8408 62.1065 14.8505 62.0839C14.9684 61.8095 14.933 61.6503 14.8814 61.4186C14.853 61.2907 14.8198 61.1408 14.8045 60.9372C14.7914 60.7218 14.7958 60.6587 14.8576 60.5729C14.8095 60.4665 14.7613 60.3601 14.7132 60.2536C14.6943 60.2606 14.68 60.3271 14.6599 60.4376C14.6239 60.6351 14.5069 60.7072 14.4154 60.7636C14.3731 60.7897 14.3362 60.8125 14.3154 60.8428C14.2048 61.0038 14.2369 61.228 14.2653 61.4253C14.2809 61.5338 14.2952 61.6343 14.284 61.7116C14.2793 61.7447 14.2861 61.7775 14.293 61.8109C14.2983 61.8368 14.3037 61.8631 14.304 61.8901C14.3054 62.0866 14.2399 62.2324 14.1792 62.3678C14.1444 62.4453 14.1113 62.5197 14.0929 62.5981C14.0873 62.622 14.0829 62.6463 14.0787 62.67C14.0727 62.7045 14.0667 62.7374 14.0574 62.7656C14.0363 62.8299 13.9928 62.8732 13.9451 62.9204C13.9206 62.9446 13.8951 62.9699 13.8709 62.9996C13.8396 63.0381 13.8283 63.1158 13.8164 63.197C13.808 63.2544 13.7992 63.3134 13.783 63.3621C13.7537 63.4501 13.6945 63.4819 13.6395 63.5114C13.6156 63.5242 13.5924 63.537 13.5729 63.5534C13.565 63.5601 13.5612 63.5735 13.5603 63.5918C13.4701 63.6533 13.3839 63.7161 13.3001 63.7776C12.8797 64.0861 12.5158 64.3535 11.9723 64.1596C11.8696 64.123 11.7593 64.1303 11.6478 64.1596C11.2911 64.0826 10.9343 64.003 10.5778 63.9214C10.5072 63.7444 10.4209 63.5957 10.3187 63.4791C10.1267 63.2601 9.92931 63.2133 9.69635 63.158C9.52411 63.1172 9.33242 63.0715 9.10904 62.9484C8.73374 62.7416 8.3484 62.5666 7.9136 62.4756C7.48068 62.3851 6.98504 62.3184 6.63438 62.2947C6.44322 62.2818 6.24244 62.1234 6.05531 61.976C5.79209 61.7687 5.5559 61.5829 5.4117 61.8524C5.36565 61.9385 5.32113 62.0879 5.2778 62.2331C5.24695 62.3366 5.21651 62.4376 5.18671 62.5128C5.10734 62.4894 5.02788 62.4663 4.94844 62.4427C4.80732 62.2632 4.58801 62.0707 4.37601 62.2709C4.29408 62.2462 4.21209 62.2216 4.13294 62.1966C3.96022 62.1444 3.79123 62.0915 3.6207 62.0382C3.56504 62.0206 3.50883 62.0029 3.45248 61.9852C3.45194 61.985 3.45141 61.9848 3.45087 61.9846C3.33744 61.9489 3.22315 61.9129 3.11076 61.8767C3.06262 61.8613 3.01447 61.8459 2.96633 61.8304C2.84399 61.7913 2.72077 61.7519 2.59967 61.7122C2.53557 61.6911 2.47086 61.6701 2.40603 61.6489C2.30087 61.6143 2.19491 61.5796 2.08949 61.5447C1.91901 61.4882 1.74932 61.4311 1.57931 61.3735C1.55151 61.364 1.52479 61.3341 1.50516 61.2888C1.48553 61.2434 1.47446 61.1866 1.47449 61.1279C1.47453 61.0693 1.48569 61.0123 1.50539 60.9671C1.52507 60.9221 1.55176 60.8929 1.57954 60.8836C1.74967 60.8276 1.91957 60.7722 2.09018 60.7173C2.19561 60.6833 2.30154 60.6491 2.40672 60.6155C2.47157 60.5949 2.53622 60.5745 2.60035 60.554C2.72147 60.5154 2.8449 60.4769 2.96725 60.4389C3.01539 60.4238 3.06353 60.4088 3.11167 60.3938C3.22437 60.3586 3.33897 60.3237 3.45271 60.289C3.45339 60.2888 3.45408 60.2886 3.45477 60.2884C3.51072 60.2713 3.56658 60.2542 3.62185 60.2372C3.79244 60.1855 3.96152 60.1343 4.13431 60.0837C4.22359 60.0563 4.31662 60.0296 4.40897 60.0026C4.46039 59.9876 4.5117 59.9725 4.56209 59.9575C4.58964 59.9496 4.61756 59.9417 4.64563 59.9338C5.28991 59.7465 5.92965 59.5662 6.57533 59.3934C7.21859 59.2205 7.86299 59.0547 8.50548 58.8956C9.14952 58.7364 9.79243 58.5841 10.4359 58.438C14.5194 57.5102 18.6192 56.7494 22.7208 56.2733C23.3059 56.205 23.9062 56.1433 24.4924 56.0881C25.085 56.0328 25.6654 55.9838 26.2595 55.9419C26.44 55.9288 26.625 55.9165 26.8148 55.9047Z" fill="black"/>
</svg>
