<svg width="59" height="90" viewBox="0 0 59 90" fill="none" xmlns="http://www.w3.org/2000/svg">
<path d="M23.5517 64.3468C23.4539 62.8095 24.3767 61.33 24.3785 59.7875C24.3807 57.8723 23.499 55.9265 23.6632 54.0069C23.8274 52.0983 24.0633 50.1805 24.3541 48.2688C24.6449 46.355 24.9905 44.444 25.3734 42.5292C25.7562 40.6184 26.1762 38.7036 26.6169 36.7913C26.9162 35.4925 27.2253 34.1922 27.5381 32.8935C27.6752 32.3234 27.813 31.755 27.9512 31.1851C28.0546 30.76 28.1579 30.3349 28.2613 29.9098C28.2759 29.8507 28.335 29.7941 28.4289 29.7523C28.5229 29.7106 28.6432 29.687 28.7676 29.6871C28.8921 29.6872 29.0127 29.7109 29.1064 29.7528C29.1998 29.7947 29.2581 29.8514 29.2721 29.9105C29.3722 30.3392 29.4723 30.7679 29.5724 31.1966C29.6835 31.6727 29.7948 32.1481 29.9051 32.6241C29.3946 32.6991 29.0074 32.8019 28.8364 32.9947C28.7492 33.093 28.713 33.2365 28.8078 33.3421C28.893 33.437 29.045 33.5084 29.1898 33.5763C29.3413 33.6472 29.4851 33.7146 29.5359 33.8012C29.6221 33.9483 29.8389 34.0882 30.0666 34.235C30.1494 34.2884 30.2339 34.3428 30.3139 34.3988C30.4177 34.8533 30.5207 35.3077 30.6228 35.7621C30.5684 35.9376 30.5245 36.099 30.5454 36.2358C30.5642 36.3586 30.6721 36.4711 30.8062 36.5831C30.8218 36.6534 30.8375 36.7237 30.8531 36.7941C30.9536 37.2481 31.0524 37.7022 31.1504 38.1564C31.0142 38.5108 30.8819 38.8822 30.8239 39.3651C30.7988 39.5732 30.7252 39.7786 30.6545 39.976C30.5501 40.2676 30.452 40.5419 30.5253 40.7823C30.5744 40.9431 30.5022 41.1122 30.4303 41.2808C30.3338 41.507 30.2375 41.7328 30.4339 41.9375C30.5575 42.0662 30.7077 42.1844 30.847 42.2939C31.0687 42.468 31.2626 42.6202 31.2759 42.758C31.301 43.0169 31.4625 43.2411 31.6049 43.4387C31.7763 43.6764 31.92 43.8757 31.7652 44.0508C31.7417 44.0773 31.7105 44.1077 31.675 44.1419C31.488 44.3221 31.1889 44.6102 31.3533 45.024C31.4119 45.1713 31.5641 45.3096 31.7134 45.4451C31.9308 45.6424 32.1418 45.8339 32.0479 46.0391C32.0338 46.0697 31.9749 46.1017 31.9212 46.1308C31.8528 46.1679 31.7931 46.2003 31.845 46.2194C31.9973 46.2756 32.1656 46.3649 32.3489 46.4618C32.4835 46.533 32.6262 46.6085 32.776 46.6781C32.8606 47.2096 32.9417 47.7412 33.0184 48.2729C33.0536 48.5165 33.088 48.7602 33.1214 49.004C32.8921 49.1286 32.6855 49.2561 32.5292 49.3908C32.3249 49.5668 32.2624 49.795 32.1813 50.0891C32.1217 50.3055 32.0519 50.5578 31.909 50.8513C31.6444 51.3946 31.7037 51.9527 31.8456 52.3104C31.8756 52.386 31.9076 52.4621 31.9425 52.5434C32.0746 52.8519 32.2401 53.2368 32.4226 53.9679C32.5952 54.6596 32.64 55.2477 32.6736 55.6896C32.6908 55.9151 32.7046 56.1026 32.7315 56.2462C32.7775 56.492 32.8185 56.7938 32.8594 57.0967C32.9235 57.5709 32.9877 58.048 33.0733 58.3181C33.1037 58.4142 33.1414 58.5151 33.1817 58.6241C33.2933 58.926 33.428 59.2907 33.5058 59.7934C33.5875 60.3211 33.5318 60.6482 33.4108 60.988C33.3616 61.126 33.167 61.2479 32.966 61.3734C32.6808 61.5515 32.3831 61.7373 32.4719 61.9886C32.4927 62.0473 32.539 62.1099 32.5877 62.1754C32.6771 62.2957 32.774 62.4258 32.7315 62.559C32.7167 62.6054 32.6638 62.6464 32.6121 62.6865C32.5551 62.7306 32.4994 62.7739 32.4963 62.8229C32.4847 63.006 32.4979 63.1841 32.5097 63.3425C32.5249 63.5466 32.5376 63.7178 32.4914 63.824C32.4091 64.0134 32.4828 64.2204 32.5578 64.4301C32.6152 64.5903 32.6735 64.752 32.6626 64.9087C32.6316 65.3563 32.7721 65.9718 33.0063 66.6061C33.0948 66.846 32.9739 67.0494 32.8186 67.3099C32.722 67.4719 32.6118 67.6561 32.531 67.8851C32.4853 68.0148 32.593 68.1248 32.6925 68.2265C32.7842 68.3203 32.8689 68.4072 32.821 68.4964C32.7787 68.5751 32.5976 68.6249 32.4256 68.6722C32.2342 68.7248 32.0542 68.7743 32.0893 68.8571C32.108 68.9012 32.1986 68.9547 32.3062 69.0185C32.3488 69.0437 32.3938 69.0706 32.4384 69.099C32.4017 69.0976 32.3688 69.0972 32.344 69.0972C32.1683 69.0971 32.0758 69.1816 31.9851 69.2645C31.9489 69.2976 31.9132 69.3306 31.8724 69.3577C31.7223 69.4573 31.6979 69.6461 31.7049 69.7903C31.7078 69.8513 31.6533 69.9066 31.5897 69.9711C31.5333 70.0284 31.4696 70.0929 31.4325 70.1752C31.4114 70.2222 31.3605 70.2582 31.318 70.2881C31.2872 70.3097 31.2609 70.328 31.254 70.3451C31.2481 70.3598 31.2984 70.3717 31.3551 70.3851C31.396 70.3948 31.4402 70.4052 31.4691 70.4181C31.5381 70.4488 31.5589 70.4883 31.5367 70.516C31.5265 70.5288 31.5069 70.539 31.4874 70.549C31.4646 70.5607 31.4418 70.5723 31.4337 70.5884C31.3971 70.6619 31.4545 70.7335 31.5142 70.8079C31.5797 70.8896 31.6479 70.9748 31.597 71.0697C31.581 71.0996 31.5443 71.1314 31.5087 71.1622C31.4714 71.1944 31.4354 71.2257 31.4258 71.2523C31.3869 71.3605 31.5125 71.4621 31.6281 71.5556C31.7049 71.6178 31.7772 71.6765 31.7938 71.7309C31.8241 71.8308 31.9749 71.8844 32.0863 71.9239C32.144 71.9444 32.1913 71.9611 32.2057 71.9786C32.2015 71.9947 32.1965 72.0109 32.1911 72.0269C32.18 72.0415 32.1685 72.0566 32.1722 72.0708C32.1724 72.0719 32.1731 72.073 32.1734 72.074C32.1368 72.1633 32.085 72.251 32.0333 72.3382C31.9171 72.5339 31.8021 72.7272 31.8669 72.9316C31.8809 72.9757 31.9432 73.0206 32.0064 73.0662C32.084 73.1222 32.1633 73.1794 32.1575 73.2377C32.1439 73.3766 32.0412 73.5168 31.94 73.6549C31.7878 73.8626 31.6392 74.0657 31.8023 74.2523C31.8562 74.3139 31.9459 74.374 32.0363 74.4343C32.0867 74.4678 32.1375 74.5016 32.1819 74.5356C32.0994 74.5284 32.022 74.5246 31.9498 74.521C31.8009 74.5136 31.6736 74.5072 31.5653 74.4745C31.3096 74.3972 30.9576 74.3096 30.7008 74.3194C30.6311 74.322 30.5535 74.3199 30.4754 74.3175C30.2793 74.3117 30.0791 74.3057 29.9886 74.3775C29.9275 74.4259 29.7875 74.5502 29.9374 74.6293C29.9701 74.6465 30.0348 74.657 30.1068 74.6686C30.2361 74.6896 30.3892 74.7145 30.4248 74.7895C30.4308 74.8021 30.4362 74.8158 30.4413 74.83C30.4614 74.8865 30.4835 74.9498 30.5875 74.9735C30.7072 75.0007 30.8443 74.9949 31.0042 74.9881C31.2124 74.9793 31.4598 74.9688 31.7579 75.0275C31.8168 75.0392 31.837 75.0613 31.8523 75.0781C31.8631 75.0899 31.8717 75.0989 31.8895 75.0998C31.9098 75.1008 31.9522 75.0971 32.0058 75.0923C32.195 75.0753 32.5255 75.0459 32.5396 75.1687C32.5433 75.2019 32.5276 75.2399 32.5134 75.274C32.4924 75.3242 32.4751 75.3659 32.5292 75.3715C32.5497 75.3736 32.572 75.3751 32.595 75.3763C32.5885 75.4163 32.582 75.4563 32.5755 75.4963C32.511 75.5475 32.5165 75.6195 32.5237 75.7093C32.5255 75.7312 32.5271 75.7541 32.528 75.778C32.5146 75.8569 32.5014 75.9358 32.4878 76.0147C32.4604 76.0772 32.4159 76.1438 32.3452 76.214C32.2035 76.3548 31.9699 76.4773 31.7414 76.5969C31.6452 76.6474 31.5496 76.6973 31.4624 76.748C31.4517 76.7283 31.439 76.7105 31.4216 76.6967C31.3022 76.6029 31.0674 76.5652 30.8513 76.5306C30.7075 76.5075 30.572 76.4858 30.4845 76.4498C30.3243 76.3838 30.1369 76.3905 29.9983 76.3953C29.9264 76.3978 29.8676 76.3997 29.8326 76.391C29.8046 76.3839 29.7914 76.3675 29.7778 76.3507C29.7659 76.336 29.7534 76.3208 29.7308 76.3111C29.4565 76.1932 29.2973 76.2286 29.0655 76.2802C28.9377 76.3086 28.7877 76.3418 28.5842 76.3571C28.3687 76.3702 28.3057 76.3658 28.2199 76.304C28.1135 76.3521 28.007 76.4003 27.9006 76.4484C27.9075 76.4673 27.9741 76.4816 28.0846 76.5017C28.282 76.5377 28.3542 76.6547 28.4106 76.7462C28.4367 76.7885 28.4595 76.8254 28.4898 76.8462C28.6508 76.9568 28.875 76.9247 29.0722 76.8963C29.1808 76.8807 29.2813 76.8664 29.3586 76.8776C29.3916 76.8823 29.4244 76.8755 29.4579 76.8686C29.4838 76.8633 29.5101 76.8579 29.5371 76.8576C29.7335 76.8562 29.8794 76.9216 30.0148 76.9824C30.0923 77.0172 30.1667 77.0503 30.2451 77.0687C30.2689 77.0743 30.2933 77.0787 30.317 77.0829C30.3515 77.0889 30.3844 77.0949 30.4126 77.1041C30.4769 77.1253 30.5202 77.1688 30.5674 77.2165C30.5916 77.241 30.6168 77.2665 30.6466 77.2907C30.6851 77.322 30.7628 77.3333 30.844 77.3452C30.9013 77.3536 30.9604 77.3624 31.0091 77.3786C31.0971 77.4079 31.1289 77.4671 31.1584 77.5221C31.1712 77.546 31.184 77.5692 31.2004 77.5887C31.2071 77.5966 31.2204 77.6004 31.2388 77.6013C31.3003 77.6915 31.3631 77.7777 31.4246 77.8615C31.733 78.2819 32.0004 78.6458 31.8066 79.1893C31.77 79.292 31.7773 79.4023 31.8066 79.5138C31.7296 79.8705 31.65 80.2273 31.5684 80.5838C31.3914 80.6544 31.2427 80.7407 31.1261 80.8429C30.907 81.0348 30.8602 81.2323 30.805 81.4652C30.7641 81.6375 30.7185 81.8292 30.5954 82.0526C30.3885 82.4279 30.2135 82.8132 30.1226 83.248C30.0321 83.6809 29.9653 84.1766 29.9417 84.5272C29.9287 84.7184 29.7704 84.9192 29.623 85.1063C29.4157 85.3695 29.2299 85.6057 29.4993 85.7499C29.5854 85.7959 29.7349 85.8405 29.8801 85.8838C29.9835 85.9146 30.0845 85.9451 30.1598 85.9749C30.1364 86.0543 30.1133 86.1337 30.0897 86.2132C29.9102 86.3543 29.7177 86.5736 29.9179 86.7856C29.8932 86.8675 29.8685 86.9495 29.8436 87.0287C29.7913 87.2014 29.7384 87.3704 29.6852 87.5409C29.6675 87.5966 29.6499 87.6528 29.6321 87.7091C29.6319 87.7097 29.6317 87.7102 29.6315 87.7107C29.5958 87.8242 29.5599 87.9384 29.5237 88.0508C29.5083 88.099 29.4928 88.1471 29.4774 88.1953C29.4382 88.3176 29.3989 88.4408 29.3592 88.5619C29.3381 88.626 29.3171 88.6907 29.2958 88.7556C29.2613 88.8607 29.2266 88.9667 29.1916 89.0721C29.1352 89.2426 29.078 89.4123 29.0204 89.5823C29.0109 89.6101 28.981 89.6368 28.9358 89.6564C28.8904 89.6761 28.8335 89.6871 28.7749 89.6871C28.7163 89.6871 28.6593 89.6759 28.6141 89.6562C28.569 89.6365 28.5399 89.6098 28.5306 89.5821C28.4746 89.4119 28.4192 89.242 28.3643 89.0714C28.3303 88.966 28.2961 88.8601 28.2625 88.7549C28.2418 88.69 28.2215 88.6254 28.201 88.5612C28.1624 88.4401 28.1239 88.3167 28.0858 88.1943C28.0708 88.1462 28.0558 88.0981 28.0408 88.0499C28.0055 87.9372 27.9707 87.8226 27.936 87.7089C27.9358 87.7082 27.9356 87.7075 27.9353 87.7068C27.9183 87.6509 27.9011 87.595 27.8842 87.5397C27.8325 87.3692 27.7813 87.2001 27.7306 87.0273C27.7033 86.938 27.6766 86.845 27.6496 86.7526C27.6346 86.7012 27.6195 86.6499 27.6045 86.5995C27.5966 86.572 27.5887 86.544 27.5808 86.516C27.3934 85.8717 27.2132 85.2319 27.0403 84.5863C26.8675 83.943 26.7017 83.2986 26.5426 82.6561C26.3834 82.0121 26.2311 81.3692 26.085 80.7257C25.1572 76.6422 24.3964 72.5424 23.9203 68.4408C23.8519 67.8557 23.7903 67.2554 23.7351 66.6692C23.6798 66.0766 23.6308 65.4962 23.5889 64.902C23.5758 64.7216 23.5635 64.5366 23.5517 64.3468Z" fill="black"/>
<path d="M15.4182 22.1896C14.1019 19.9061 14.3956 17.2271 14.3793 14.8464C14.3788 14.7933 14.3783 14.7403 14.3778 14.6871C14.3242 11.7777 14.4571 8.34331 16.3923 5.78366C18.3049 3.24435 21.0314 1.39131 23.9771 0.550594C25.815 0.0197165 27.7295 -0.120741 29.5444 0.101058C30.6377 0.233248 31.7077 0.494217 32.7181 0.873535C35.409 1.87727 37.635 3.7293 39.0562 5.93219C40.0274 7.42733 40.6413 9.08391 40.883 10.7298C40.9899 11.4522 41.0263 12.1714 40.997 12.876C40.9747 13.4007 40.9165 13.9204 40.8245 14.4233C40.8116 14.4935 40.7533 14.5614 40.6598 14.6108C40.5661 14.6603 40.4456 14.6872 40.3213 14.6871C40.1968 14.687 40.0762 14.6602 39.9823 14.6149C39.8886 14.5694 39.8295 14.509 39.814 14.4457C39.7034 13.9877 39.5622 13.5409 39.3934 13.1156C39.2061 12.6418 38.9844 12.1913 38.7341 11.7676C39.1976 11.5413 39.5316 11.3124 39.6193 11.0509C39.6642 10.9178 39.6394 10.7507 39.5068 10.6761C39.3879 10.609 39.2169 10.595 39.0548 10.5848C38.8851 10.5741 38.725 10.5678 38.641 10.5067C38.4982 10.4027 38.2392 10.3666 37.9702 10.342C37.8723 10.333 37.7727 10.3253 37.6766 10.3157C37.3768 9.9782 37.0572 9.66851 36.7224 9.38762C36.6686 9.22343 36.6081 9.07566 36.51 8.98899C36.422 8.91118 36.2706 8.89994 36.1022 8.91178C36.0479 8.87376 35.9932 8.83649 35.9383 8.79991C35.5839 8.56357 35.2187 8.35642 34.8469 8.17948C34.6913 7.87763 34.499 7.5676 34.1557 7.28372C34.0078 7.16181 33.8823 7.004 33.7538 6.85445C33.5654 6.63419 33.3688 6.43185 33.1307 6.40862C32.9722 6.39329 32.8541 6.26766 32.7278 6.1438C32.5611 5.97846 32.3767 5.81614 32.1335 5.94923C31.981 6.03298 31.8347 6.14893 31.7038 6.25929C31.4957 6.43501 31.3262 6.59597 31.2068 6.58523C30.9826 6.56517 30.7638 6.69449 30.5839 6.81471C30.3645 6.95908 30.1984 7.08897 30.0661 6.92495C30.046 6.9001 30.023 6.86739 29.9966 6.83037C29.8998 6.69353 29.7542 6.50001 29.5444 6.45725C29.4559 6.43916 29.3576 6.44839 29.2532 6.50104C29.1289 6.56396 29.0184 6.72292 28.9194 6.88048C28.7743 7.11006 28.6526 7.33563 28.4817 7.26486C28.456 7.25429 28.4227 7.19966 28.3917 7.14994C28.3524 7.0867 28.3167 7.03192 28.3097 7.08564C28.289 7.24322 28.2477 7.42088 28.2099 7.61436C28.1819 7.7565 28.1562 7.90715 28.1386 8.06393C27.7889 8.22406 27.4592 8.40857 27.151 8.61269C27.0101 8.70614 26.8728 8.80407 26.7407 8.90554C26.5651 8.73593 26.3901 8.59315 26.2291 8.50226C26.0182 8.38392 25.8347 8.41489 25.6 8.46799C25.4269 8.50752 25.226 8.55877 24.9526 8.58585C24.442 8.63716 24.1269 9.00934 24.0305 9.31414C24.0093 9.37887 23.9903 9.44524 23.9717 9.51652C23.9035 9.78735 23.8201 10.1214 23.6592 10.6746C23.5112 11.1973 23.3625 11.5909 23.2635 11.895C23.2132 12.0501 23.177 12.1793 23.166 12.2845C23.1473 12.4639 23.1186 12.6784 23.1019 12.8925C23.0742 13.2279 23.0795 13.5632 23.1391 13.7564C23.1601 13.825 23.1888 13.8972 23.2208 13.9742C23.3035 14.1719 23.4092 14.3973 23.4882 14.6871C23.4944 14.7097 23.5004 14.7325 23.5062 14.7558C23.593 15.0919 23.5589 15.2931 23.4672 15.5267C23.4303 15.6205 23.2503 15.7282 23.0675 15.8486C22.8078 16.017 22.544 16.2183 22.6747 16.3791C22.7051 16.4162 22.7613 16.4492 22.8206 16.4828C22.9296 16.5447 23.0476 16.6052 23.0349 16.7075C23.0305 16.7433 22.989 16.7872 22.9487 16.8308C22.9044 16.8787 22.8616 16.9265 22.8703 16.9617C22.9026 17.0927 22.9613 17.2115 23.0157 17.3146C23.0857 17.4477 23.1486 17.5566 23.1395 17.6468C23.1234 17.8081 23.2597 17.9161 23.3984 18.0141C23.5049 18.0899 23.6132 18.161 23.6626 18.2627C23.803 18.5551 24.1821 18.8497 24.6475 19.0194C24.8229 19.0834 24.8267 19.2636 24.8503 19.504C24.8649 19.653 24.8869 19.825 24.9618 19.9965C25.0046 20.094 25.1371 20.0637 25.2562 20.0318C25.3664 20.0027 25.4659 19.9728 25.4869 20.0489C25.5055 20.1161 25.4261 20.2825 25.3533 20.4423C25.272 20.6199 25.1991 20.7894 25.2725 20.7981C25.3115 20.8025 25.3976 20.752 25.498 20.6899C25.5376 20.6654 25.5795 20.6392 25.6218 20.6138C25.6006 20.6438 25.5822 20.671 25.5684 20.6917C25.4709 20.8379 25.4742 20.9512 25.4809 21.063C25.4835 21.1076 25.4867 21.1519 25.4835 21.198C25.4717 21.368 25.5932 21.4697 25.6998 21.5215C25.7448 21.5435 25.758 21.613 25.7751 21.6945C25.7902 21.7668 25.8084 21.8486 25.8537 21.9134C25.8795 21.9503 25.8842 22.0096 25.8882 22.0591C25.8912 22.095 25.8939 22.1256 25.9041 22.1383C25.913 22.1493 25.9444 22.1086 25.9795 22.0625C26.0047 22.0294 26.032 21.9934 26.0542 21.9721C26.1075 21.9211 26.1459 21.9163 26.1575 21.9462C26.1629 21.96 26.1623 21.9814 26.1618 22.0026C26.1611 22.0274 26.1605 22.0523 26.1695 22.0652C26.211 22.1246 26.2906 22.0971 26.3715 22.067C26.4608 22.0341 26.5508 21.9978 26.605 22.0741C26.622 22.0981 26.6332 22.142 26.6445 22.1845C26.6563 22.2291 26.6683 22.2722 26.6861 22.2891C26.759 22.3581 26.8831 22.2689 26.9932 22.1843C27.0667 22.1281 27.1344 22.0742 27.1814 22.0718C27.2682 22.0677 27.3528 21.9354 27.4139 21.8375C27.4455 21.7867 27.4711 21.7449 27.488 21.7348C27.4986 21.7423 27.5092 21.7505 27.5195 21.7591C27.5273 21.7729 27.5353 21.7871 27.5468 21.7865C27.5477 21.7865 27.5487 21.786 27.5496 21.786C27.6057 21.8397 27.6586 21.9074 27.712 21.974C27.8314 22.1237 27.9634 22.2703 28.1365 22.2364C28.1738 22.2291 28.2202 22.1741 28.2663 22.1177C28.3229 22.0487 28.3791 21.9775 28.4227 21.9899C28.5261 22.0193 28.6202 22.1351 28.7196 22.2476C28.8666 22.4165 29.0288 22.5775 29.1893 22.4213C29.2416 22.3697 29.2933 22.2818 29.3433 22.1926C29.3713 22.1429 29.3988 22.0927 29.426 22.0487C29.4191 22.1311 29.4148 22.2085 29.4107 22.2806C29.4021 22.4293 29.3948 22.5566 29.3649 22.6642C29.2951 22.9186 29.2034 23.2674 29.202 23.5243C29.2018 23.594 29.1969 23.6715 29.1917 23.7495C29.1788 23.9451 29.1642 24.1451 29.2331 24.238C29.2788 24.3007 29.404 24.4436 29.4858 24.294C29.5034 24.2614 29.5142 24.1967 29.526 24.1248C29.5316 24.0903 29.5375 24.0542 29.5444 24.019C29.5635 23.9222 29.5905 23.8329 29.6431 23.8062C29.6551 23.8001 29.6682 23.7945 29.6818 23.7893C29.7357 23.7684 29.7957 23.7446 29.8148 23.6401C29.8368 23.5196 29.8266 23.3827 29.8156 23.2231C29.8009 23.0152 29.7864 22.7683 29.8245 22.4688C29.832 22.4095 29.8491 22.3887 29.862 22.3728C29.8711 22.3617 29.878 22.3527 29.878 22.335C29.8779 22.3146 29.8731 22.2724 29.8671 22.219C29.8454 22.0305 29.812 21.7014 29.901 21.6832C29.9252 21.6782 29.9543 21.6924 29.9804 21.705C30.0189 21.7237 30.0512 21.7387 30.0514 21.6845C30.0515 21.6639 30.051 21.6416 30.0503 21.6186C30.0799 21.623 30.1096 21.6272 30.1393 21.6312C30.1822 21.6923 30.2345 21.6821 30.2997 21.668C30.3156 21.6646 30.3323 21.6611 30.3496 21.6582C30.409 21.6649 30.4683 21.6708 30.5278 21.6763C30.5773 21.697 30.6321 21.7339 30.6958 21.7953C30.8229 21.9184 30.9579 22.1312 31.0986 22.336C31.1577 22.4223 31.2183 22.5072 31.2788 22.5833C31.2647 22.5973 31.2526 22.6128 31.2448 22.6323C31.1914 22.7656 31.2051 23.002 31.2155 23.2202C31.2224 23.3653 31.2279 23.5023 31.2103 23.5946C31.178 23.7634 31.216 23.9468 31.2456 24.0824C31.2607 24.1527 31.2731 24.2103 31.2705 24.2462C31.2684 24.2751 31.2543 24.291 31.2396 24.3074C31.2269 24.3217 31.2136 24.3366 31.2076 24.3605C31.1331 24.6512 31.1912 24.8028 31.286 25.022C31.3378 25.143 31.3999 25.2844 31.4524 25.4818C31.5045 25.6914 31.5112 25.7544 31.4533 25.8514C31.5275 25.9468 31.6031 26.0414 31.6802 26.1354C31.7016 26.1244 31.7065 26.0557 31.7095 25.9426C31.715 25.7407 31.835 25.6434 31.9275 25.5653C31.9702 25.5293 32.007 25.4975 32.0237 25.4626C32.1122 25.2769 32.0219 25.0675 31.9472 24.8825C31.9057 24.7807 31.8681 24.6862 31.8622 24.6083C31.8597 24.5749 31.8452 24.5446 31.8306 24.5137C31.8193 24.4897 31.8078 24.4654 31.8015 24.4391C31.7562 24.2479 31.7888 24.0908 31.8151 23.9449C31.8304 23.8614 31.8438 23.7813 31.8417 23.701C31.8411 23.6765 31.8392 23.6518 31.8373 23.6279C31.8344 23.593 31.8316 23.5597 31.8332 23.5302C31.8368 23.4629 31.8658 23.4106 31.8968 23.3533C31.9127 23.324 31.929 23.2933 31.9427 23.2586C31.9604 23.2136 31.9491 23.136 31.9373 23.055C31.9289 22.9977 31.9203 22.9388 31.9206 22.888C31.9213 22.7962 31.9622 22.7511 31.9995 22.7088C32.0158 22.6904 32.0312 22.6723 32.0426 22.6515C32.0473 22.643 32.0464 22.6293 32.0416 22.6116C32.098 22.5294 32.1485 22.4465 32.1956 22.3651C32.434 21.9542 32.5812 21.6073 33.0576 21.584C33.1484 21.5788 33.2246 21.5301 33.2894 21.4606C33.5794 21.3879 33.8706 21.2989 34.1609 21.1924C34.3116 21.3025 34.4595 21.3789 34.6018 21.4178C34.8695 21.4903 35.0416 21.4136 35.2391 21.3167C35.3856 21.2445 35.5465 21.1613 35.7824 21.1037C36.1787 21.0066 36.5654 20.8477 36.9052 20.5691C37.2444 20.2931 37.5805 19.9179 37.7813 19.6267C37.891 19.4694 38.1279 19.3708 38.3485 19.2662C38.6584 19.1209 38.9363 18.9609 38.7505 18.7131C38.6911 18.6341 38.572 18.5325 38.4552 18.4358C38.372 18.3669 38.2903 18.3003 38.2317 18.2448C38.2829 18.1816 38.3332 18.1173 38.3832 18.0522C38.6005 17.9871 38.8594 17.8349 38.7327 17.5686C38.7809 17.4973 38.8282 17.4252 38.8742 17.3548C38.9726 17.2004 39.0667 17.0461 39.1578 16.8864C39.1877 16.8343 39.2174 16.7812 39.2467 16.7274C39.247 16.7269 39.2474 16.7264 39.2477 16.7259C39.3067 16.6179 39.3642 16.5081 39.4199 16.3978C39.4437 16.3506 39.4671 16.303 39.4902 16.2551C39.5488 16.1338 39.6054 16.0102 39.6599 15.8862C39.6888 15.8208 39.7172 15.7532 39.745 15.6866C39.7902 15.578 39.8339 15.4668 39.8761 15.3546C39.9442 15.1721 40.0082 14.9913 40.0678 14.8033C40.0777 14.7726 40.1077 14.7432 40.1531 14.7214C40.1985 14.6996 40.2553 14.6871 40.314 14.6871C40.3726 14.6871 40.4296 14.6999 40.4747 14.7227C40.5197 14.7455 40.5487 14.7766 40.5576 14.8088C40.6115 15.0068 40.6597 15.2035 40.7017 15.4079C40.7278 15.5336 40.7519 15.6604 40.7734 15.7868C40.7867 15.8644 40.7986 15.9438 40.8102 16.0218C40.8317 16.1696 40.85 16.3201 40.8649 16.471C40.8708 16.5306 40.8762 16.5903 40.8812 16.6501C40.8929 16.7902 40.9013 16.9322 40.907 17.0749C40.907 17.0758 40.907 17.0766 40.907 17.0775C40.9098 17.1478 40.9119 17.2181 40.9135 17.2877C40.9176 17.5023 40.9157 17.7164 40.9056 17.9362C40.9015 18.05 40.894 18.1677 40.8849 18.286C40.8798 18.3517 40.8743 18.4174 40.8684 18.482C40.865 18.5172 40.8612 18.5528 40.8572 18.5887C40.771 19.4133 40.5899 20.2396 40.3075 21.0552C40.0267 21.868 39.6475 22.6645 39.1781 23.4188C38.7075 24.1748 38.1459 24.8893 37.5016 25.5434C35.5007 27.593 32.6405 29.0306 29.5444 29.3809C26.3571 29.7701 22.8775 28.9788 20.035 27.0847C19.2346 26.5571 18.4648 25.9294 17.7769 25.2448C17.0819 24.5526 16.4631 23.8044 15.9105 22.9785C15.7426 22.7281 15.5779 22.4648 15.4182 22.1896Z" fill="black"/>
<path d="M25.1805 48.0024C26.5763 48.2111 27.905 48.916 29.3947 49.2683C29.851 49.3733 30.3092 49.4488 30.7703 49.4705C33.2263 49.6032 35.9723 48.6004 37.0463 48.3597C37.0981 48.351 37.1413 48.3438 37.1727 48.3406C39.2318 47.6266 41.3588 46.6856 43.3731 45.6175C44.0545 45.2556 44.7356 44.868 45.3195 44.5077C46.7077 43.6095 48.1137 42.5766 49.4418 41.5027C49.8556 41.1684 50.2774 40.8113 50.6167 40.5162C50.4772 40.7403 50.5757 40.6465 50.6151 40.6061C50.6679 40.5505 50.7336 40.4657 50.7987 40.3788C50.9317 40.1992 51.0706 39.9962 51.2106 39.7867C51.4904 39.3671 51.7745 38.9209 52.0563 38.4768C52.6218 37.5827 53.1887 36.6708 53.7581 35.7603C53.8689 35.5832 53.9795 35.4066 54.0911 35.2277L54.0492 35.3378C54.7982 34.0325 55.3219 32.5996 55.8369 31.015C55.8607 30.9425 55.8843 30.8718 55.9082 30.7986C56.1451 30.0873 56.3845 29.3867 56.6242 28.6849C56.8216 28.1077 57.019 27.5308 57.2154 26.9537C57.2429 26.8736 57.3139 26.8036 57.4158 26.7602C57.5179 26.7167 57.642 26.7025 57.7648 26.722C57.8878 26.7416 58.0016 26.7938 58.0848 26.867C58.1678 26.94 58.2128 27.0288 58.2135 27.1134C58.217 27.7285 58.2196 28.3437 58.2223 28.958C58.2252 29.6403 58.2284 30.321 58.2338 30.9991C58.0206 31.0089 57.8265 31.0298 57.6576 31.066C57.4147 31.1176 57.2231 31.2066 57.0993 31.3501C56.9921 31.4759 56.9259 31.6692 56.9964 31.8327C57.06 31.9787 57.1942 32.1025 57.3219 32.2213C57.4554 32.3451 57.5819 32.4636 57.6114 32.596C57.6616 32.8198 57.8405 33.0569 58.0248 33.3131C58.092 33.4059 58.1598 33.5023 58.2224 33.6002C58.195 34.2938 58.1306 35.0161 58.0234 35.7309C57.8922 35.9807 57.7736 36.2053 57.7258 36.4133C57.712 36.4734 57.7073 36.5354 57.7095 36.5991C57.698 36.6229 57.6755 36.6993 57.6625 36.7224C57.6626 36.8447 57.6936 36.974 57.7361 37.1068C57.7119 37.205 57.6876 37.3036 57.6638 37.4009C57.5077 38.0333 57.349 38.6666 57.187 39.3004C56.8639 39.7138 56.5351 40.1497 56.2038 40.7658C56.0609 41.0313 55.8733 41.2746 55.69 41.5102C55.4178 41.8609 55.1612 42.1832 55.0531 42.5642C54.9669 42.8324 54.832 42.9905 54.4516 43.4117C54.4352 43.4294 54.4181 43.4476 54.4001 43.4665C54.1045 43.6926 53.8287 43.8864 53.7762 44.2405C53.7437 44.4674 53.738 44.7014 53.7327 44.9169C53.7237 45.2603 53.7117 45.5614 53.5799 45.724C53.334 46.0276 53.2198 46.3824 53.115 46.6964C52.9897 47.0732 52.8783 47.3906 52.582 47.4678C52.537 47.4795 52.4819 47.4904 52.4207 47.5012C52.0945 47.5614 51.5818 47.648 51.2426 48.1935C51.1217 48.3877 51.0725 48.641 51.0212 48.8905C50.9474 49.2528 50.8683 49.6076 50.5685 49.7461C50.5238 49.7667 50.4479 49.7549 50.3787 49.7438C50.2908 49.7298 50.2142 49.7173 50.2259 49.7758C50.2556 49.9232 50.264 50.1043 50.2678 50.3031C50.2672 50.3369 50.2663 50.3713 50.2653 50.4062C50.259 50.5881 50.2516 50.7799 50.2545 50.9713C49.6103 51.6084 48.9791 52.1762 48.3289 52.7246C48.0319 52.9749 47.73 53.2207 47.4279 53.4596C47.1379 53.376 46.8566 53.3122 46.5973 53.2923C46.2556 53.2681 45.9259 53.4018 45.4954 53.5674C45.1782 53.6894 44.8093 53.8267 44.347 53.9251C43.4924 54.1078 42.7714 54.5519 42.3399 54.9252C42.2494 55.004 42.1586 55.0847 42.0606 55.1713C41.7397 55.454 41.3487 55.7991 40.6068 56.2885C40.4347 56.3891 40.2507 56.4888 40.0554 56.5861C38.7085 57.2457 37.6725 57.432 36.9109 57.5759C36.5212 57.6452 36.2102 57.6908 35.9689 57.7405C35.5608 57.8251 35.0661 57.9009 34.5772 57.9639C33.8119 58.0636 33.0598 58.132 32.6365 58.2156C32.4833 58.2454 32.3286 58.2818 32.1566 58.3197C31.6847 58.4244 31.1139 58.5456 30.339 58.5877C29.6484 58.6247 29.1918 58.5652 28.7584 58.4506C28.6789 58.43 28.6005 58.4076 28.5222 58.3835C28.3091 58.3184 28.1346 58.109 27.9564 57.8918C27.7036 57.5835 27.4475 57.2607 27.0504 57.3072C26.9582 57.3181 26.8552 57.3533 26.7487 57.3901C26.5515 57.4574 26.3375 57.529 26.1344 57.4599C26.0642 57.4359 26.0069 57.375 25.9514 57.3153C25.8905 57.2496 25.8308 57.1853 25.7551 57.1716C25.4725 57.1204 25.1938 57.0915 24.9456 57.0635C24.6256 57.0275 24.3563 56.9927 24.1996 56.9173C23.9199 56.7829 23.5853 56.7932 23.2435 56.7986C22.9825 56.8027 22.7173 56.8041 22.4758 56.7372C22.3376 56.6989 22.1871 56.664 22.0274 56.632C21.4087 56.5093 20.6353 56.4383 19.8034 56.3847C19.4099 56.3591 19.1284 56.1443 18.7716 55.8609C18.5486 55.6839 18.2971 55.4803 17.9576 55.266C17.7653 55.1444 17.5464 55.1734 17.3355 55.1941C17.2093 55.2067 17.0851 55.2158 16.9757 55.1889C16.9077 55.1703 16.8445 55.1414 16.7881 55.0972C16.6483 54.9865 16.6323 54.7769 16.6255 54.5818C16.6177 54.3644 16.6132 54.1606 16.463 54.1215C16.3805 54.0993 16.2544 54.1346 16.1005 54.1729C16.0392 54.1878 15.9753 54.2039 15.9096 54.2183C15.9298 54.1875 15.9464 54.1591 15.9585 54.1374C16.0454 53.9848 15.9563 53.8289 15.8827 53.6813C15.8522 53.6218 15.8217 53.5625 15.8025 53.5038C15.7368 53.2913 15.483 53.1086 15.2865 52.9924C15.2013 52.9421 15.1569 52.8492 15.1059 52.7407C15.0597 52.6436 15.0106 52.5357 14.924 52.4343C14.8742 52.3761 14.8555 52.3025 14.8416 52.2421C14.8313 52.1982 14.8225 52.1607 14.8046 52.1403C14.7891 52.1228 14.7458 52.1543 14.6969 52.1898C14.6617 52.2153 14.6235 52.2429 14.5907 52.2556C14.5118 52.2855 14.4514 52.2696 14.4285 52.2272C14.4181 52.2077 14.4163 52.1827 14.4146 52.1579C14.4126 52.129 14.4107 52.1 14.3949 52.0794C14.3206 51.9839 14.2021 51.9717 14.0735 51.9546C13.9328 51.9363 13.7897 51.9188 13.7 51.7925C13.673 51.7535 13.6554 51.6958 13.6385 51.6398C13.6207 51.5812 13.6033 51.5243 13.5761 51.4929C13.4674 51.3665 13.2699 51.3778 13.0886 51.3879C12.9685 51.395 12.8543 51.4005 12.778 51.3644C12.6402 51.2998 12.4859 51.3725 12.3711 51.4255C12.3116 51.453 12.2628 51.4756 12.2329 51.471C12.2157 51.4528 12.1998 51.4345 12.184 51.4158C12.1732 51.3938 12.1621 51.371 12.143 51.3611C12.1415 51.3604 12.1398 51.3599 12.1384 51.3592C12.0538 51.2494 11.9792 51.1273 11.9085 51.0078C11.745 50.7361 11.5911 50.4708 11.3134 50.3347C11.2533 50.3052 11.1619 50.3124 11.0703 50.3206C10.9577 50.3303 10.8418 50.3395 10.7773 50.2808C10.6254 50.1424 10.5258 49.9306 10.4331 49.7253C10.2902 49.4138 10.1544 49.1105 9.84084 49.0631C9.73714 49.0473 9.6115 49.0597 9.48536 49.0725C9.4156 49.08 9.34521 49.0876 9.27846 49.0897C9.33938 49.0331 9.39327 48.9772 9.44351 48.9251C9.54706 48.8176 9.63576 48.7257 9.74144 48.6729C9.99077 48.5477 10.3151 48.3591 10.4675 48.1519C10.5089 48.0958 10.5608 48.038 10.6133 47.98C10.7448 47.8343 10.879 47.6856 10.857 47.5497C10.8409 47.4572 10.7961 47.2377 10.6122 47.2794C10.5723 47.2885 10.5191 47.3285 10.46 47.3729C10.3539 47.4527 10.2272 47.5463 10.1224 47.5049C10.1047 47.4978 10.0862 47.4893 10.0673 47.4801C9.99222 47.4432 9.90792 47.4011 9.8146 47.4583C9.70712 47.5243 9.62504 47.6344 9.52944 47.763C9.40486 47.9303 9.25731 48.1295 8.99889 48.3014C8.94772 48.3353 8.91035 48.3301 8.88185 48.326C8.86182 48.3232 8.84622 48.3213 8.83375 48.334C8.81947 48.3486 8.79623 48.3844 8.7669 48.4299C8.66331 48.59 8.48285 48.8704 8.33653 48.7647C8.29695 48.736 8.26454 48.6878 8.23548 48.6444C8.21108 48.6079 8.18896 48.5749 8.16678 48.5599C8.15019 48.5487 8.13355 48.5477 8.11577 48.5631C8.10013 48.5768 8.08403 48.5923 8.0677 48.6086C8.02735 48.5656 7.98796 48.5234 7.94758 48.4803C7.93205 48.3821 7.84892 48.3182 7.74349 48.2368C7.71815 48.2173 7.69121 48.1962 7.66362 48.1736C7.5838 48.0871 7.50313 47.9996 7.42263 47.9114C7.36941 47.8287 7.32281 47.7288 7.28941 47.6051C7.2219 47.3568 7.23639 47.0566 7.25302 46.7635C7.25964 46.6397 7.26738 46.5176 7.26835 46.4001C7.29808 46.4128 7.32695 46.4221 7.35437 46.4235C7.54106 46.4322 7.74117 46.2962 7.92422 46.1702C8.04601 46.0864 8.16108 46.0076 8.25901 45.9779C8.43843 45.9233 8.55568 45.7767 8.64259 45.6686C8.68766 45.6124 8.72476 45.5666 8.75758 45.5491C8.78394 45.535 8.81052 45.541 8.83805 45.5473C8.86183 45.5525 8.88652 45.5577 8.91202 45.5502C9.222 45.4581 9.28817 45.304 9.38635 45.0815C9.44047 44.9587 9.50495 44.8154 9.62396 44.6489C9.75314 44.4754 9.80009 44.4329 9.92158 44.4259C9.94197 44.3018 9.96179 44.177 9.98316 44.0533C9.95916 44.0411 9.89975 44.0773 9.80495 44.1407C9.63565 44.2541 9.46525 44.1976 9.33211 44.1519C9.27055 44.1309 9.21697 44.1126 9.17476 44.1148C8.9509 44.1267 8.83082 44.321 8.72642 44.4934C8.6689 44.5881 8.61591 44.6761 8.55144 44.7217C8.52389 44.7412 8.50883 44.772 8.49344 44.8033C8.48154 44.8275 8.46953 44.8522 8.45139 44.8723C8.31952 45.0179 8.14995 45.0597 7.99116 45.0964C7.90041 45.1176 7.81317 45.1376 7.73922 45.1755C7.7167 45.1871 7.69508 45.2001 7.67425 45.213C7.64383 45.2317 7.61468 45.2495 7.58507 45.2602C7.51769 45.2848 7.4397 45.2704 7.35441 45.2539C7.31071 45.2454 7.26493 45.2363 7.21755 45.2318C7.15616 45.2259 7.08948 45.2694 7.01957 45.3146C6.97017 45.3465 6.91904 45.3792 6.86688 45.3962C6.77249 45.4269 6.68381 45.3842 6.60154 45.3437C6.56571 45.3261 6.5308 45.3091 6.49736 45.2988C6.48375 45.2946 6.47001 45.2997 6.45606 45.3117C6.31153 45.2533 6.17042 45.1985 6.03295 45.144C5.40605 44.8949 4.8467 44.6416 4.4522 44.0011C4.41831 43.9441 4.386 43.8838 4.35537 43.8197C4.29053 43.6837 4.18359 43.5655 4.05958 43.461C3.79375 43.0167 3.52943 42.5676 3.26786 42.1129C3.34171 41.9224 3.37781 41.7301 3.37705 41.5424C3.37293 41.1864 3.23262 40.9344 3.06557 40.6309C2.94358 40.4084 2.80582 40.1559 2.70569 39.8199C2.5361 39.2528 2.33897 38.6908 2.0462 38.1004C1.75233 37.5111 1.40815 36.8278 1.16958 36.3122C1.03836 36.0322 1.03894 35.6604 1.06304 35.316C1.0767 35.1204 1.0964 34.9301 1.0983 34.7669C1.10906 34.5543 1.06481 34.3997 0.875426 34.3226C0.774238 34.2829 0.612991 34.2634 0.456427 34.2445C0.344982 34.2313 0.235895 34.2174 0.151486 34.1959C0.141846 34.0775 0.133691 33.9643 0.124981 33.8466C0.241692 33.5993 0.344201 33.2501 0.0704864 33.0044C0.0643316 32.8869 0.0562884 32.7615 0.0517654 32.6468C0.0381513 32.3911 0.0287814 32.1433 0.020208 31.8904C0.0176011 31.8076 0.0157536 31.727 0.0130244 31.6417C0.0130361 31.6409 0.0130475 31.64 0.0130592 31.6392C0.00885183 31.4726 0.00523943 31.3038 0.00293905 31.1355C0.00197423 31.0637 0.00180644 30.9946 0.000862956 30.9212C0.00034976 30.7435 -0.00127548 30.5543 0.0017767 30.3774C0.00243682 30.2788 0.00454336 30.1858 0.00640202 30.0874C0.0099318 29.9303 0.0150133 29.7731 0.021889 29.6136C0.0339152 29.3575 0.0493193 29.105 0.0796227 28.8312C0.0850461 28.788 0.111233 28.7394 0.154731 28.7004C0.198307 28.663 0.25536 28.6376 0.313954 28.6391C0.372591 28.6387 0.429501 28.6593 0.476065 28.6852C0.522481 28.7131 0.554491 28.7486 0.567286 28.7849C0.646967 29.018 0.740869 29.2443 0.836444 29.4685C0.896109 29.6087 0.95754 29.7465 1.0195 29.884C1.05803 29.9704 1.09559 30.0514 1.13492 30.1378C1.20708 30.2919 1.28327 30.4576 1.35766 30.6122C1.38774 30.6762 1.41701 30.7359 1.44708 30.7984C1.51763 30.9451 1.58883 31.092 1.66022 31.2369C1.66065 31.2378 1.66108 31.2387 1.66151 31.2396C1.69726 31.3134 1.73203 31.3823 1.7674 31.4535C1.87574 31.6727 1.98395 31.8868 2.09488 32.1081C2.15275 32.22 2.21289 32.3413 2.27219 32.4569C2.30534 32.5218 2.33966 32.5902 2.37205 32.6517C2.38977 32.6862 2.40765 32.7215 2.42575 32.7573C2.66697 33.2267 2.91056 33.6929 3.15543 34.1575C3.30597 34.3973 3.49779 34.6535 3.71171 34.9115C4.21528 35.5159 4.8233 36.1218 5.45335 36.7218C6.08503 37.3217 6.74578 37.9191 7.41462 38.5195C7.99636 39.0415 8.58497 39.5629 9.1784 40.0915C10.3695 41.1302 11.5757 41.8845 13.0494 42.837C15.6188 44.4721 18.7062 46.4392 20.5203 47.0165C20.5262 47.0176 20.5318 47.0185 20.5371 47.0192C21.023 47.1588 21.7147 47.3344 22.3877 47.4806C22.9726 47.609 23.569 47.7265 24.1778 47.8374C24.2928 47.858 24.4087 47.8782 24.5247 47.8978C24.7374 47.9333 24.9557 47.9684 25.1805 48.0024Z" fill="black"/>
</svg>
