<svg width="74" height="89" viewBox="0 0 74 89" fill="none" xmlns="http://www.w3.org/2000/svg">
<path d="M31.2531 38.6944C33.1491 38.5966 34.9738 39.5194 36.8762 39.5211C39.2383 39.5234 41.638 38.6417 44.0056 38.8059C46.3595 38.9701 48.7248 39.206 51.0826 39.4968C53.443 39.7876 55.7999 40.1332 58.1615 40.5161C60.518 40.8989 62.8797 41.3189 65.2381 41.7596C66.84 42.0589 68.4437 42.3679 70.0454 42.6808C70.7486 42.8179 71.4496 42.9556 72.1524 43.0939C72.6767 43.1972 73.201 43.3006 73.7253 43.404C73.7982 43.4185 73.8681 43.4777 73.9195 43.5715C73.971 43.6655 74.0001 43.7859 74 43.9103C73.9999 44.0347 73.9706 44.1554 73.919 44.249C73.8673 44.3424 73.7974 44.4007 73.7245 44.4147C73.1958 44.5149 72.667 44.615 72.1383 44.7151C71.551 44.8262 70.9648 44.9374 70.3777 45.0478C70.2853 44.5373 70.1584 44.1501 69.9207 43.9791C69.7994 43.8919 69.6225 43.8556 69.4922 43.9505C69.3752 44.0357 69.2871 44.1877 69.2034 44.3325C69.1159 44.484 69.0328 44.6278 68.9259 44.6786C68.7445 44.7648 68.572 44.9815 68.391 45.2092C68.3251 45.2921 68.258 45.3765 68.1889 45.4566C67.6284 45.5604 67.0679 45.6634 66.5076 45.7655C66.2911 45.7111 66.0921 45.6672 65.9232 45.6881C65.7718 45.7069 65.6331 45.8147 65.495 45.9489C65.4082 45.9645 65.3215 45.9801 65.2347 45.9958C64.6748 46.0963 64.1147 46.1951 63.5546 46.2931C63.1175 46.1569 62.6594 46.0246 62.0638 45.9665C61.8071 45.9415 61.5538 45.8679 61.3104 45.7972C60.9508 45.6928 60.6125 45.5946 60.3159 45.668C60.1176 45.7171 59.9091 45.6449 59.7011 45.573C59.4221 45.4765 59.1436 45.3801 58.8912 45.5766C58.7325 45.7002 58.5867 45.8504 58.4517 45.9897C58.2368 46.2114 58.0492 46.4053 57.8792 46.4186C57.5599 46.4437 57.2834 46.6052 57.0397 46.7476C56.7466 46.919 56.5007 47.0627 56.2848 46.9079C56.2521 46.8844 56.2146 46.8532 56.1725 46.8177C55.9502 46.6307 55.5948 46.3316 55.0845 46.496C54.9029 46.5546 54.7323 46.7067 54.5651 46.8561C54.3219 47.0735 54.0856 47.2845 53.8326 47.1906C53.7948 47.1765 53.7553 47.1176 53.7194 47.0638C53.6737 46.9954 53.6338 46.9357 53.6102 46.9877C53.5408 47.14 53.4308 47.3083 53.3112 47.4915C53.2234 47.6261 53.1303 47.7688 53.0445 47.9186C52.3889 48.0033 51.7333 48.0844 51.0775 48.1611C50.7771 48.1963 50.4765 48.2306 50.1759 48.2641C50.0221 48.0348 49.8649 47.8282 49.6988 47.6719C49.4817 47.4676 49.2003 47.405 48.8375 47.324C48.5706 47.2643 48.2595 47.1946 47.8975 47.0516C47.2274 46.7871 46.5391 46.8464 46.098 46.9883C46.0047 47.0183 45.9109 47.0503 45.8106 47.0852C45.4301 47.2173 44.9554 47.3828 44.0536 47.5653C43.2006 47.7379 42.4752 47.7826 41.9303 47.8163C41.6521 47.8334 41.4209 47.8473 41.2438 47.8741C40.9406 47.9202 40.5684 47.9612 40.1948 48.0021C39.61 48.0662 39.0216 48.1304 38.6885 48.2159C38.5699 48.2464 38.4455 48.2841 38.3111 48.3244C37.9387 48.436 37.4889 48.5707 36.8689 48.6485C36.2181 48.7302 35.8147 48.6745 35.3956 48.5535C35.2253 48.5043 35.0751 48.3097 34.9203 48.1087C34.7006 47.8235 34.4715 47.5258 34.1615 47.6146C34.0891 47.6353 34.0119 47.6817 33.9311 47.7304C33.7828 47.8197 33.6223 47.9166 33.458 47.8741C33.4007 47.8593 33.3503 47.8065 33.3008 47.7547C33.2463 47.6978 33.193 47.6421 33.1325 47.639C32.9067 47.6274 32.687 47.6406 32.4917 47.6524C32.24 47.6676 32.0288 47.6803 31.8978 47.6341C31.6643 47.5517 31.4089 47.6255 31.1503 47.7005C30.9528 47.7578 30.7533 47.8161 30.5601 47.8053C30.008 47.7743 29.2489 47.9148 28.4666 48.1489C28.1707 48.2374 27.9199 48.1165 27.5986 47.9613C27.3987 47.8647 27.1716 47.7544 26.8892 47.6737C26.7291 47.6279 26.5935 47.7357 26.468 47.8352C26.3524 47.9268 26.2452 48.0116 26.1352 47.9637C26.0381 47.9214 25.9767 47.7403 25.9184 47.5683C25.8535 47.3769 25.7925 47.1969 25.6903 47.232C25.636 47.2507 25.5699 47.3413 25.4913 47.4489C25.4602 47.4914 25.4271 47.5365 25.392 47.5811C25.3938 47.5444 25.3942 47.5115 25.3942 47.4867C25.3943 47.311 25.2901 47.2184 25.1879 47.1278C25.147 47.0916 25.1064 47.0559 25.073 47.0151C24.9501 46.865 24.7173 46.8406 24.5394 46.8475C24.4642 46.8504 24.396 46.796 24.3164 46.7324C24.2458 46.6759 24.1662 46.6122 24.0646 46.5752C24.0067 46.5541 23.9623 46.5032 23.9255 46.4607C23.8989 46.4299 23.8762 46.4036 23.8552 46.3967C23.837 46.3907 23.8223 46.4411 23.8058 46.4978C23.7939 46.5386 23.781 46.5829 23.7651 46.6118C23.7272 46.6807 23.6785 46.7015 23.6443 46.6794C23.6285 46.6691 23.6161 46.6495 23.6037 46.63C23.5892 46.6073 23.5749 46.5844 23.5551 46.5764C23.4644 46.5397 23.3761 46.5972 23.2844 46.6568C23.1836 46.7224 23.0785 46.7905 22.9615 46.7397C22.9246 46.7237 22.8854 46.687 22.8474 46.6514C22.8077 46.6141 22.769 46.5781 22.7362 46.5685C22.6028 46.5296 22.4775 46.6552 22.3622 46.7708C22.2855 46.8476 22.2131 46.9199 22.1459 46.9365C22.0228 46.9668 21.9567 47.1176 21.908 47.2289C21.8827 47.2866 21.8621 47.334 21.8405 47.3484C21.8207 47.3442 21.8006 47.3392 21.7809 47.3337C21.7629 47.3226 21.7442 47.3112 21.7267 47.3148C21.7254 47.3151 21.7241 47.3158 21.7228 47.3161C21.6127 47.2795 21.5045 47.2277 21.397 47.1759C21.1556 47.0598 20.9172 46.9448 20.6651 47.0096C20.6107 47.0236 20.5554 47.0859 20.4991 47.1491C20.4301 47.2266 20.3595 47.3059 20.2877 47.3002C20.1163 47.2866 19.9434 47.1839 19.773 47.0827C19.5168 46.9305 19.2665 46.7819 19.0363 46.945C18.9603 46.9989 18.8862 47.0886 18.8119 47.179C18.7704 47.2294 18.7288 47.2802 18.6868 47.3246C18.6957 47.2421 18.7004 47.1647 18.7049 47.0925C18.714 46.9436 18.7218 46.8162 18.7622 46.708C18.8575 46.4523 18.9656 46.1002 18.9536 45.8435C18.9503 45.7738 18.9529 45.6962 18.9558 45.618C18.963 45.422 18.9704 45.2218 18.8819 45.1312C18.8222 45.0702 18.6689 44.9301 18.5713 45.0801C18.5501 45.1127 18.5372 45.1775 18.5228 45.2494C18.4969 45.3787 18.4662 45.5318 18.3737 45.5675C18.3582 45.5735 18.3413 45.5789 18.3238 45.5839C18.2541 45.604 18.176 45.6262 18.1468 45.7301C18.1132 45.8499 18.1204 45.987 18.1287 46.1469C18.1396 46.3551 18.1526 46.6024 18.0802 46.9005C18.0658 46.9595 18.0385 46.9797 18.0178 46.995C18.0032 47.0058 17.9921 47.0144 17.991 47.0321C17.9897 47.0525 17.9944 47.0949 18.0003 47.1485C18.0212 47.3377 18.0574 47.6682 17.906 47.6822C17.865 47.686 17.8182 47.6703 17.7761 47.656C17.7142 47.6351 17.6628 47.6178 17.6559 47.6719C17.6533 47.6924 17.6515 47.7146 17.65 47.7377C17.6007 47.7312 17.5514 47.7247 17.502 47.7182C17.4388 47.6537 17.35 47.6592 17.2392 47.6664C17.2123 47.6681 17.184 47.6697 17.1546 47.6707C17.0573 47.6573 16.9599 47.644 16.8627 47.6304C16.7855 47.6031 16.7035 47.5586 16.6168 47.4879C16.4432 47.3462 16.2921 47.1126 16.1445 46.8841C16.0823 46.7878 16.0207 46.6923 15.9582 46.6051C15.9826 46.5943 16.0045 46.5817 16.0215 46.5642C16.1372 46.4449 16.1837 46.2101 16.2264 45.994C16.2548 45.8502 16.2816 45.7146 16.326 45.6272C16.4074 45.4669 16.3992 45.2796 16.3932 45.141C16.3901 45.0691 16.3878 45.0102 16.3986 44.9753C16.4073 44.9473 16.4275 44.9341 16.4483 44.9204C16.4664 44.9085 16.4851 44.8961 16.4971 44.8735C16.6425 44.5992 16.5988 44.44 16.5352 44.2082C16.5002 44.0804 16.4592 43.9304 16.4404 43.7269C16.4242 43.5114 16.4297 43.4484 16.5059 43.3625C16.4465 43.2561 16.3871 43.1497 16.3277 43.0433C16.3044 43.0502 16.2868 43.1167 16.262 43.2273C16.2176 43.4247 16.0733 43.4969 15.9605 43.5532C15.9083 43.5794 15.8628 43.6022 15.8371 43.6325C15.7007 43.7934 15.7403 44.0176 15.7753 44.2149C15.7945 44.3235 15.8123 44.424 15.7984 44.5013C15.7926 44.5343 15.801 44.5671 15.8095 44.6006C15.816 44.6264 15.8227 44.6527 15.823 44.6798C15.8248 44.8762 15.7441 45.022 15.6692 45.1574C15.6263 45.235 15.5853 45.3094 15.5627 45.3877C15.5558 45.4116 15.5504 45.436 15.5452 45.4596C15.5377 45.4942 15.5304 45.5271 15.519 45.5553C15.4929 45.6195 15.4392 45.6628 15.3804 45.71C15.3502 45.7342 15.3187 45.7595 15.2889 45.7892C15.2503 45.8278 15.2364 45.9055 15.2217 45.9866C15.2114 46.044 15.2005 46.1031 15.1805 46.1518C15.1444 46.2398 15.0713 46.2715 15.0035 46.301C14.974 46.3139 14.9455 46.3266 14.9214 46.3431C14.9116 46.3498 14.9069 46.3631 14.9059 46.3815C14.7946 46.4429 14.6883 46.5058 14.5849 46.5673C14.0664 46.8757 13.6176 47.1431 12.9474 46.9493C12.8206 46.9126 12.6846 46.92 12.5471 46.9493C12.1072 46.8722 11.6671 46.7927 11.2274 46.7111C11.1403 46.534 11.0339 46.3854 10.9078 46.2687C10.6711 46.0497 10.4276 46.0029 10.1403 45.9477C9.92787 45.9068 9.69145 45.8612 9.41595 45.7381C8.95308 45.5312 8.47783 45.3562 7.94157 45.2653C7.40764 45.1747 6.79634 45.108 6.36387 45.0843C6.12811 45.0714 5.88048 44.9131 5.64968 44.7657C5.32505 44.5584 5.03374 44.3726 4.85589 44.642C4.79909 44.7281 4.74419 44.8776 4.69075 45.0228C4.6527 45.1262 4.61517 45.2272 4.5784 45.3024C4.48052 45.2791 4.38251 45.256 4.28454 45.2324C4.11049 45.0528 3.84001 44.8604 3.57855 45.0606C3.47749 45.0358 3.37638 45.0112 3.27876 44.9862C3.06573 44.934 2.85731 44.8811 2.647 44.8278C2.57835 44.8102 2.50902 44.7926 2.43952 44.7748C2.43886 44.7746 2.4382 44.7744 2.43754 44.7742C2.29764 44.7385 2.15669 44.7025 2.01807 44.6664C1.95869 44.6509 1.89932 44.6355 1.83994 44.6201C1.68906 44.5809 1.53708 44.5416 1.38772 44.5019C1.30867 44.4807 1.22886 44.4598 1.14891 44.4385C1.0192 44.404 0.888519 44.3693 0.758504 44.3343C0.548241 44.2778 0.338964 44.2207 0.129287 44.1631C0.0949965 44.1536 0.0620439 44.1237 0.0378265 44.0784C0.0136178 44.0331 -3.70065e-05 43.9762 7.53327e-08 43.9176C4.74904e-05 43.859 0.0138176 43.8019 0.0381088 43.7567C0.0623837 43.7117 0.0953027 43.6825 0.12957 43.6733C0.339396 43.6173 0.54894 43.5619 0.759351 43.5069C0.88939 43.473 1.02003 43.4387 1.14975 43.4052C1.22974 43.3845 1.30948 43.3642 1.38857 43.3437C1.53794 43.3051 1.69017 43.2665 1.84107 43.2285C1.90045 43.2135 1.95982 43.1985 2.0192 43.1834C2.15819 43.1482 2.29953 43.1134 2.4398 43.0786C2.44065 43.0784 2.4415 43.0782 2.44234 43.078C2.51135 43.0609 2.58025 43.0438 2.64841 43.0268C2.85881 42.9751 3.06735 42.9239 3.28045 42.8733C3.39056 42.846 3.5053 42.8193 3.6192 42.7923C3.68261 42.7772 3.7459 42.7621 3.80805 42.7472C3.84202 42.7392 3.87646 42.7314 3.91108 42.7234C4.70569 42.5361 5.4947 42.3559 6.29104 42.183C7.0844 42.0101 7.87916 41.8444 8.67156 41.6852C9.46588 41.5261 10.2588 41.3738 11.0524 41.2277C16.0887 40.2999 21.1452 39.5391 26.2038 39.063C26.9254 38.9946 27.6657 38.933 28.3887 38.8778C29.1196 38.8225 29.8355 38.7734 30.5682 38.7315C30.7908 38.7184 31.019 38.7061 31.2531 38.6944Z" fill="black"/>
<path d="M32.6265 54.6944C33.5745 54.5966 34.4869 55.5194 35.4381 55.5211C36.6192 55.5234 37.819 54.6417 39.0028 54.8059C40.1798 54.9701 41.3624 55.206 42.5413 55.4968C43.7215 55.7876 44.8999 56.1332 46.0807 56.5161C47.259 56.8989 48.4398 57.3189 49.6191 57.7596C50.42 58.0589 51.2219 58.3679 52.0227 58.6808C52.3743 58.8179 52.7248 58.9556 53.0762 59.0939C53.3384 59.1972 53.6005 59.3006 53.8627 59.404C53.8991 59.4185 53.934 59.4777 53.9598 59.5715C53.9855 59.6655 54 59.7859 54 59.9103C53.9999 60.0347 53.9853 60.1554 53.9595 60.249C53.9337 60.3424 53.8987 60.4007 53.8622 60.4147C53.5979 60.5149 53.3335 60.615 53.0692 60.7151C52.7755 60.8262 52.4824 60.9374 52.1889 61.0478C52.1426 60.5373 52.0792 60.1501 51.9603 59.9791C51.8997 59.8919 51.8112 59.8556 51.7461 59.9505C51.6876 60.0357 51.6435 60.1877 51.6017 60.3325C51.5579 60.484 51.5164 60.6278 51.463 60.6786C51.3722 60.7648 51.286 60.9815 51.1955 61.2092C51.1625 61.2921 51.129 61.3765 51.0944 61.4566C50.8142 61.5604 50.534 61.6634 50.2538 61.7655C50.1455 61.7111 50.046 61.6672 49.9616 61.6881C49.8859 61.7069 49.8165 61.8147 49.7475 61.9489C49.7041 61.9645 49.6607 61.9801 49.6174 61.9958C49.3374 62.0963 49.0573 62.1951 48.7773 62.2931C48.5587 62.1569 48.3297 62.0246 48.0319 61.9665C47.9036 61.9415 47.7769 61.8679 47.6552 61.7972C47.4754 61.6928 47.3062 61.5946 47.1579 61.668C47.0588 61.7171 46.9545 61.6449 46.8505 61.573C46.711 61.4765 46.5718 61.3801 46.4456 61.5766C46.3662 61.7002 46.2933 61.8504 46.2258 61.9897C46.1184 62.2114 46.0246 62.4053 45.9396 62.4186C45.7799 62.4437 45.6417 62.6052 45.5198 62.7476C45.3733 62.919 45.2504 63.0627 45.1424 62.9079C45.1261 62.8844 45.1073 62.8532 45.0862 62.8177C44.9751 62.6307 44.7974 62.3316 44.5423 62.496C44.4514 62.5546 44.3661 62.7067 44.2826 62.8561C44.1609 63.0735 44.0428 63.2845 43.9163 63.1906C43.8974 63.1765 43.8777 63.1176 43.8597 63.0638C43.8369 62.9954 43.8169 62.9357 43.8051 62.9877C43.7704 63.14 43.7154 63.3083 43.6556 63.4915C43.6117 63.6261 43.5651 63.7688 43.5222 63.9186C43.1945 64.0033 42.8667 64.0844 42.5387 64.1611C42.3885 64.1963 42.2382 64.2306 42.0879 64.2641C42.0111 64.0348 41.9324 63.8282 41.8494 63.6719C41.7409 63.4676 41.6001 63.405 41.4188 63.324C41.2853 63.2643 41.1298 63.1946 40.9488 63.0516C40.6137 62.7871 40.2695 62.8464 40.049 62.9883C40.0023 63.0183 39.9554 63.0503 39.9053 63.0852C39.7151 63.2173 39.4777 63.3828 39.0268 63.5653C38.6003 63.7379 38.2376 63.7826 37.9651 63.8163C37.8261 63.8334 37.7105 63.8473 37.6219 63.8741C37.4703 63.9202 37.2842 63.9612 37.0974 64.0021C36.805 64.0662 36.5108 64.1304 36.3442 64.2159C36.285 64.2464 36.2227 64.2841 36.1555 64.3244C35.9694 64.436 35.7444 64.5707 35.4344 64.6485C35.109 64.7302 34.9073 64.6745 34.6978 64.5535C34.6127 64.5043 34.5375 64.3097 34.4601 64.1087C34.3503 63.8235 34.2357 63.5258 34.0807 63.6146C34.0446 63.6353 34.0059 63.6817 33.9656 63.7304C33.8914 63.8197 33.8112 63.9166 33.729 63.8741C33.7004 63.8593 33.6751 63.8065 33.6504 63.7547C33.6232 63.6978 33.5965 63.6421 33.5663 63.639C33.4534 63.6274 33.3435 63.6406 33.2459 63.6524C33.12 63.6676 33.0144 63.6803 32.9489 63.6341C32.8321 63.5517 32.7045 63.6255 32.5752 63.7005C32.4764 63.7578 32.3766 63.8161 32.28 63.8053C32.004 63.7743 31.6244 63.9148 31.2333 64.1489C31.0853 64.2374 30.9599 64.1165 30.7993 63.9613C30.6994 63.8647 30.5858 63.7544 30.4446 63.6737C30.3646 63.6279 30.2968 63.7357 30.234 63.8352C30.1762 63.9268 30.1226 64.0116 30.0676 63.9637C30.0191 63.9214 29.9884 63.7403 29.9592 63.5683C29.9268 63.3769 29.8962 63.1969 29.8452 63.232C29.818 63.2507 29.785 63.3413 29.7457 63.4489C29.7301 63.4914 29.7135 63.5365 29.696 63.5811C29.6969 63.5444 29.6971 63.5115 29.6971 63.4867C29.6972 63.311 29.6451 63.2184 29.5939 63.1278C29.5735 63.0916 29.5532 63.0559 29.5365 63.0151C29.475 62.865 29.3586 62.8406 29.2697 62.8475C29.2321 62.8504 29.198 62.796 29.1582 62.7324C29.1229 62.6759 29.0831 62.6122 29.0323 62.5752C29.0034 62.5541 28.9811 62.5032 28.9627 62.4607C28.9494 62.4299 28.9381 62.4036 28.9276 62.3967C28.9185 62.3907 28.9111 62.4411 28.9029 62.4978C28.897 62.5386 28.8905 62.5829 28.8826 62.6118C28.8636 62.6807 28.8393 62.7015 28.8222 62.6794C28.8143 62.6691 28.808 62.6495 28.8018 62.63C28.7946 62.6073 28.7874 62.5844 28.7776 62.5764C28.7322 62.5397 28.6881 62.5972 28.6422 62.6568C28.5918 62.7224 28.5392 62.7905 28.4807 62.7397C28.4623 62.7237 28.4427 62.687 28.4237 62.6514C28.4038 62.6141 28.3845 62.5781 28.3681 62.5685C28.3014 62.5296 28.2387 62.6552 28.1811 62.7708C28.1427 62.8476 28.1066 62.9199 28.073 62.9365C28.0114 62.9668 27.9784 63.1176 27.954 63.2289C27.9414 63.2866 27.9311 63.334 27.9203 63.3484C27.9103 63.3442 27.9003 63.3392 27.8905 63.3337C27.8814 63.3226 27.8721 63.3112 27.8634 63.3148C27.8627 63.3151 27.8621 63.3158 27.8614 63.3161C27.8063 63.2795 27.7523 63.2277 27.6985 63.1759C27.5778 63.0598 27.4586 62.9448 27.3325 63.0096C27.3054 63.0236 27.2777 63.0859 27.2495 63.1491C27.2151 63.2266 27.1798 63.3059 27.1438 63.3002C27.0582 63.2866 26.9717 63.1839 26.8865 63.0827C26.7584 62.9305 26.6332 62.7819 26.5181 62.945C26.4802 62.9989 26.4431 63.0886 26.4059 63.179C26.3852 63.2294 26.3644 63.2802 26.3434 63.3246C26.3478 63.2421 26.3502 63.1647 26.3524 63.0925C26.357 62.9436 26.3609 62.8162 26.3811 62.708C26.4288 62.4523 26.4828 62.1002 26.4768 61.8435C26.4752 61.7738 26.4765 61.6962 26.4779 61.618C26.4815 61.422 26.4852 61.2218 26.4409 61.1312C26.4111 61.0702 26.3344 60.9301 26.2857 61.0801C26.2751 61.1127 26.2686 61.1775 26.2614 61.2494C26.2485 61.3787 26.2331 61.5318 26.1869 61.5675C26.1791 61.5735 26.1706 61.5789 26.1619 61.5839C26.127 61.604 26.088 61.6262 26.0734 61.7301C26.0566 61.8499 26.0602 61.987 26.0644 62.1469C26.0698 62.3551 26.0763 62.6024 26.0401 62.9005C26.0329 62.9595 26.0192 62.9797 26.0089 62.995C26.0016 63.0058 25.996 63.0144 25.9955 63.0321C25.9949 63.0525 25.9972 63.0949 26.0001 63.1485C26.0106 63.3377 26.0287 63.6682 25.953 63.6822C25.9325 63.686 25.9091 63.6703 25.8881 63.656C25.8571 63.6351 25.8314 63.6178 25.8279 63.6719C25.8267 63.6924 25.8257 63.7146 25.825 63.7377C25.8003 63.7312 25.7757 63.7247 25.751 63.7182C25.7194 63.6537 25.675 63.6592 25.6196 63.6664C25.6062 63.6681 25.592 63.6697 25.5773 63.6707C25.5286 63.6573 25.48 63.644 25.4313 63.6304C25.3928 63.6031 25.3517 63.5586 25.3084 63.4879C25.2216 63.3462 25.1461 63.1126 25.0723 62.8841C25.0412 62.7878 25.0104 62.6923 24.9791 62.6051C24.9913 62.5943 25.0023 62.5817 25.0107 62.5642C25.0686 62.4449 25.0918 62.2101 25.1132 61.994C25.1274 61.8502 25.1408 61.7146 25.163 61.6272C25.2037 61.4669 25.1996 61.2796 25.1966 61.141C25.1951 61.0691 25.1939 61.0102 25.1993 60.9753C25.2037 60.9473 25.2137 60.9341 25.2241 60.9204C25.2332 60.9085 25.2426 60.8961 25.2486 60.8735C25.3213 60.5992 25.2994 60.44 25.2676 60.2082C25.2501 60.0804 25.2296 59.9304 25.2202 59.7269C25.2121 59.5114 25.2148 59.4484 25.2529 59.3625C25.2232 59.2561 25.1936 59.1497 25.1639 59.0433C25.1522 59.0502 25.1434 59.1167 25.131 59.2273C25.1088 59.4247 25.0366 59.4969 24.9802 59.5532C24.9541 59.5794 24.9314 59.6022 24.9186 59.6325C24.8503 59.7934 24.8702 60.0176 24.8877 60.2149C24.8973 60.3235 24.9061 60.424 24.8992 60.5013C24.8963 60.5343 24.9005 60.5671 24.9047 60.6006C24.908 60.6264 24.9114 60.6527 24.9115 60.6798C24.9124 60.8762 24.872 61.022 24.8346 61.1574C24.8131 61.235 24.7927 61.3094 24.7814 61.3877C24.7779 61.4116 24.7752 61.436 24.7726 61.4596C24.7689 61.4942 24.7652 61.5271 24.7595 61.5553C24.7465 61.6195 24.7196 61.6628 24.6902 61.71C24.6751 61.7342 24.6594 61.7595 24.6445 61.7892C24.6252 61.8278 24.6182 61.9055 24.6109 61.9866C24.6057 62.044 24.6002 62.1031 24.5903 62.1518C24.5722 62.2398 24.5357 62.2715 24.5018 62.301C24.487 62.3139 24.4727 62.3266 24.4607 62.3431C24.4558 62.3498 24.4534 62.3631 24.4529 62.3815C24.3973 62.4429 24.3442 62.5058 24.2924 62.5673C24.0332 62.8757 23.8088 63.1431 23.4737 62.9493C23.4103 62.9126 23.3423 62.92 23.2735 62.9493C23.0536 62.8722 22.8335 62.7927 22.6137 62.7111C22.5702 62.534 22.5169 62.3854 22.4539 62.2687C22.3356 62.0497 22.2138 62.0029 22.0701 61.9477C21.9639 61.9068 21.8457 61.8612 21.708 61.7381C21.4765 61.5312 21.2389 61.3562 20.9708 61.2653C20.7038 61.1747 20.3982 61.108 20.1819 61.0843C20.0641 61.0714 19.9402 60.9131 19.8248 60.7657C19.6625 60.5584 19.5169 60.3726 19.4279 60.642C19.3995 60.7281 19.3721 60.8776 19.3454 61.0228C19.3263 61.1262 19.3076 61.2272 19.2892 61.3024C19.2403 61.2791 19.1913 61.256 19.1423 61.2324C19.0552 61.0528 18.92 60.8604 18.7893 61.0606C18.7387 61.0358 18.6882 61.0112 18.6394 60.9862C18.5329 60.934 18.4287 60.8811 18.3235 60.8278C18.2892 60.8102 18.2545 60.7926 18.2198 60.7748C18.2194 60.7746 18.2191 60.7744 18.2188 60.7742C18.1488 60.7385 18.0783 60.7025 18.009 60.6664C17.9793 60.6509 17.9497 60.6355 17.92 60.6201C17.8445 60.5809 17.7685 60.5416 17.6939 60.5019C17.6543 60.4807 17.6144 60.4598 17.5745 60.4385C17.5096 60.404 17.4443 60.3693 17.3793 60.3343C17.2741 60.2778 17.1695 60.2207 17.0646 60.1631C17.0475 60.1536 17.031 60.1237 17.0189 60.0784C17.0068 60.0331 17 59.9762 17 59.9176C17 59.859 17.0069 59.8019 17.0191 59.7567C17.0312 59.7117 17.0477 59.6825 17.0648 59.6733C17.1697 59.6173 17.2745 59.5619 17.3797 59.5069C17.4447 59.473 17.51 59.4387 17.5749 59.4052C17.6149 59.3845 17.6547 59.3642 17.6943 59.3437C17.769 59.3051 17.8451 59.2665 17.9205 59.2285C17.9502 59.2135 17.9799 59.1985 18.0096 59.1834C18.0791 59.1482 18.1498 59.1134 18.2199 59.0786C18.2203 59.0784 18.2207 59.0782 18.2212 59.078C18.2557 59.0609 18.2901 59.0438 18.3242 59.0268C18.4294 58.9751 18.5337 58.9239 18.6402 58.8733C18.6953 58.846 18.7526 58.8193 18.8096 58.7923C18.8413 58.7772 18.873 58.7621 18.904 58.7472C18.921 58.7392 18.9382 58.7314 18.9555 58.7234C19.3528 58.5361 19.7474 58.3559 20.1455 58.183C20.5422 58.0101 20.9396 57.8444 21.3358 57.6852C21.7329 57.5261 22.1294 57.3738 22.5262 57.2277C25.0443 56.2999 27.5726 55.5391 30.1019 55.063C30.4627 54.9946 30.8329 54.933 31.1944 54.8778C31.5598 54.8225 31.9177 54.7734 32.2841 54.7315C32.3954 54.7184 32.5095 54.7061 32.6265 54.6944Z" fill="black"/>
<path d="M31.0073 63.3468C30.9095 61.8095 31.8323 60.33 31.834 58.7875C31.8363 56.8723 30.9545 54.9265 31.1188 53.0069C31.283 51.0983 31.5189 49.1805 31.8097 47.2688C32.1005 45.355 32.4461 43.444 32.829 41.5292C33.2118 39.6184 33.6318 37.7036 34.0725 35.7913C34.3718 34.4925 34.6808 33.1922 34.9937 31.8935C35.1308 31.3234 35.2685 30.755 35.4068 30.1851C35.5101 29.76 35.6135 29.3349 35.7169 28.9098C35.7314 28.8507 35.7906 28.7941 35.8844 28.7523C35.9784 28.7106 36.0988 28.687 36.2232 28.6871C36.3476 28.6872 36.4682 28.7109 36.5619 28.7528C36.6553 28.7947 36.7136 28.8514 36.7276 28.9105C36.8278 29.3392 36.9279 29.7679 37.028 30.1966C37.1391 30.6727 37.2503 31.1481 37.3607 31.6241C36.8502 31.6991 36.463 31.8019 36.292 31.9947C36.2048 32.093 36.1685 32.2365 36.2634 32.3421C36.3486 32.437 36.5006 32.5084 36.6454 32.5763C36.7969 32.6472 36.9407 32.7146 36.9915 32.8012C37.0777 32.9483 37.2944 33.0882 37.5221 33.235C37.605 33.2884 37.6894 33.3428 37.7695 33.3988C37.8733 33.8533 37.9763 34.3077 38.0784 34.7621C38.024 34.9376 37.9801 35.099 38.001 35.2358C38.0198 35.3586 38.1276 35.4711 38.2618 35.5831C38.2774 35.6534 38.293 35.7237 38.3087 35.7941C38.4092 36.2481 38.508 36.7022 38.606 37.1564C38.4698 37.5108 38.3375 37.8822 38.2794 38.3651C38.2544 38.5732 38.1807 38.7786 38.1101 38.976C38.0057 39.2676 37.9075 39.5419 37.9809 39.7823C38.0299 39.9431 37.9578 40.1122 37.8858 40.2808C37.7894 40.507 37.693 40.7328 37.8895 40.9375C38.0131 41.0662 38.1633 41.1844 38.3026 41.2939C38.5243 41.468 38.7181 41.6202 38.7315 41.758C38.7566 42.0169 38.9181 42.2411 39.0605 42.4387C39.2318 42.6764 39.3756 42.8757 39.2207 43.0508C39.1973 43.0773 39.1661 43.1077 39.1306 43.1419C38.9436 43.3221 38.6445 43.6102 38.8089 44.024C38.8674 44.1713 39.0196 44.3096 39.169 44.4451C39.3863 44.6424 39.5974 44.8339 39.5034 45.0391C39.4894 45.0697 39.4305 45.1017 39.3767 45.1308C39.3083 45.1679 39.2486 45.2003 39.3006 45.2194C39.4529 45.2756 39.6212 45.3649 39.8044 45.4618C39.939 45.533 40.0817 45.6085 40.2315 45.6781C40.3162 46.2096 40.3972 46.7412 40.474 47.2729C40.5092 47.5165 40.5435 47.7602 40.577 48.004C40.3477 48.1286 40.1411 48.2561 39.9848 48.3908C39.7805 48.5668 39.7179 48.795 39.6369 49.0891C39.5772 49.3055 39.5075 49.5578 39.3645 49.8513C39.1 50.3946 39.1593 50.9527 39.3012 51.3104C39.3312 51.386 39.3632 51.4621 39.398 51.5434C39.5302 51.8519 39.6957 52.2368 39.8781 52.9679C40.0508 53.6596 40.0955 54.2477 40.1292 54.6896C40.1463 54.9151 40.1601 55.1026 40.187 55.2462C40.2331 55.492 40.274 55.7938 40.315 56.0967C40.3791 56.5709 40.4433 57.048 40.5288 57.3181C40.5593 57.4142 40.597 57.5151 40.6373 57.6241C40.7489 57.926 40.8836 58.2907 40.9614 58.7934C41.0431 59.3211 40.9874 59.6482 40.8664 59.988C40.8172 60.126 40.6226 60.2479 40.4216 60.3734C40.1364 60.5515 39.8387 60.7373 39.9275 60.9886C39.9482 61.0473 39.9946 61.1099 40.0433 61.1754C40.1326 61.2957 40.2295 61.4258 40.187 61.559C40.1722 61.6054 40.1194 61.6464 40.0676 61.6865C40.0107 61.7306 39.955 61.7739 39.9519 61.8229C39.9403 62.006 39.9535 62.1841 39.9653 62.3425C39.9805 62.5466 39.9932 62.7178 39.947 62.824C39.8646 63.0134 39.9383 63.2204 40.0134 63.4301C40.0707 63.5903 40.129 63.752 40.1182 63.9087C40.0872 64.3563 40.2277 64.9718 40.4618 65.6061C40.5503 65.846 40.4294 66.0494 40.2742 66.3099C40.1776 66.4719 40.0673 66.6561 39.9866 66.8851C39.9408 67.0148 40.0485 67.1248 40.148 67.2265C40.2397 67.3203 40.3245 67.4072 40.2766 67.4964C40.2343 67.5751 40.0532 67.6249 39.8812 67.6722C39.6898 67.7248 39.5098 67.7743 39.5449 67.8571C39.5636 67.9012 39.6542 67.9547 39.7618 68.0185C39.8043 68.0437 39.8494 68.0706 39.894 68.099C39.8573 68.0976 39.8244 68.0972 39.7995 68.0972C39.6239 68.0971 39.5313 68.1816 39.4407 68.2645C39.4045 68.2976 39.3688 68.3306 39.328 68.3577C39.1779 68.4573 39.1535 68.6461 39.1604 68.7903C39.1633 68.8513 39.1089 68.9066 39.0453 68.9711C38.9888 69.0284 38.9251 69.0929 38.8881 69.1752C38.867 69.2222 38.8161 69.2582 38.7735 69.2881C38.7428 69.3097 38.7165 69.328 38.7096 69.3451C38.7036 69.3598 38.754 69.3717 38.8107 69.3851C38.8515 69.3948 38.8958 69.4052 38.9246 69.4181C38.9936 69.4488 39.0144 69.4883 38.9923 69.516C38.982 69.5288 38.9624 69.539 38.9429 69.549C38.9202 69.5607 38.8973 69.5723 38.8893 69.5884C38.8526 69.6619 38.9101 69.7335 38.9697 69.8079C39.0353 69.8896 39.1034 69.9748 39.0526 70.0697C39.0366 70.0996 38.9999 70.1314 38.9642 70.1622C38.927 70.1944 38.891 70.2257 38.8814 70.2523C38.8425 70.3605 38.9681 70.4621 39.0837 70.5556C39.1605 70.6178 39.2328 70.6765 39.2494 70.7309C39.2797 70.8308 39.4305 70.8844 39.5418 70.9239C39.5995 70.9444 39.6469 70.9611 39.6612 70.9786C39.657 70.9947 39.6521 71.0109 39.6466 71.0269C39.6355 71.0415 39.6241 71.0566 39.6277 71.0708C39.628 71.0719 39.6287 71.073 39.629 71.074C39.5924 71.1633 39.5405 71.251 39.4888 71.3382C39.3727 71.5339 39.2577 71.7272 39.3225 71.9316C39.3365 71.9757 39.3987 72.0206 39.462 72.0662C39.5395 72.1222 39.6188 72.1794 39.6131 72.2377C39.5995 72.3766 39.4968 72.5168 39.3956 72.6549C39.2434 72.8626 39.0948 73.0657 39.2579 73.2523C39.3118 73.3139 39.4015 73.374 39.4919 73.4343C39.5423 73.4678 39.5931 73.5016 39.6375 73.5356C39.555 73.5284 39.4776 73.5246 39.4054 73.521C39.2565 73.5136 39.1291 73.5072 39.0209 73.4745C38.7652 73.3972 38.4131 73.3096 38.1564 73.3194C38.0867 73.322 38.0091 73.3199 37.9309 73.3175C37.7349 73.3117 37.5347 73.3057 37.4441 73.3775C37.3831 73.4259 37.243 73.5502 37.393 73.6293C37.4256 73.6465 37.4904 73.657 37.5623 73.6686C37.6916 73.6896 37.8447 73.7145 37.8804 73.7895C37.8864 73.8021 37.8918 73.8158 37.8968 73.83C37.9169 73.8865 37.9391 73.9498 38.043 73.9735C38.1628 74.0007 38.2999 73.9949 38.4598 73.9881C38.668 73.9793 38.9153 73.9688 39.2134 74.0275C39.2724 74.0392 39.2926 74.0613 39.3079 74.0781C39.3187 74.0899 39.3273 74.0989 39.345 74.0998C39.3654 74.1008 39.4078 74.0971 39.4614 74.0923C39.6506 74.0753 39.9811 74.0459 39.9951 74.1687C39.9989 74.2019 39.9831 74.2399 39.9689 74.274C39.948 74.3242 39.9307 74.3659 39.9848 74.3715C40.0053 74.3736 40.0275 74.3751 40.0506 74.3763C40.0441 74.4163 40.0376 74.4563 40.0311 74.4963C39.9666 74.5475 39.9721 74.6195 39.9793 74.7093C39.981 74.7312 39.9826 74.7541 39.9835 74.778C39.9702 74.8569 39.9569 74.9358 39.9433 75.0147C39.916 75.0772 39.8715 75.1438 39.8008 75.214C39.6591 75.3548 39.4255 75.4773 39.197 75.5969C39.1007 75.6474 39.0052 75.6973 38.9179 75.748C38.9072 75.7283 38.8946 75.7105 38.8771 75.6967C38.7578 75.6029 38.523 75.5652 38.3069 75.5306C38.1631 75.5075 38.0275 75.4858 37.9401 75.4498C37.7798 75.3838 37.5924 75.3905 37.4539 75.3953C37.382 75.3978 37.3231 75.3997 37.2882 75.391C37.2601 75.3839 37.247 75.3675 37.2333 75.3507C37.2214 75.336 37.209 75.3208 37.1864 75.3111C36.9121 75.1932 36.7529 75.2286 36.5211 75.2802C36.3933 75.3086 36.2433 75.3418 36.0398 75.3571C35.8243 75.3702 35.7613 75.3658 35.6754 75.304C35.569 75.3521 35.4626 75.4003 35.3562 75.4484C35.3631 75.4673 35.4296 75.4816 35.5402 75.5017C35.7376 75.5377 35.8098 75.6547 35.8661 75.7462C35.8922 75.7885 35.9151 75.8254 35.9453 75.8462C36.1063 75.9568 36.3305 75.9247 36.5278 75.8963C36.6364 75.8807 36.7369 75.8664 36.8142 75.8776C36.8472 75.8823 36.88 75.8755 36.9135 75.8686C36.9393 75.8633 36.9656 75.8579 36.9927 75.8576C37.1891 75.8562 37.3349 75.9216 37.4703 75.9824C37.5479 76.0172 37.6223 76.0503 37.7006 76.0687C37.7245 76.0743 37.7489 76.0787 37.7725 76.0829C37.8071 76.0889 37.84 76.0949 37.8682 76.1041C37.9324 76.1253 37.9757 76.1688 38.0229 76.2165C38.0471 76.241 38.0724 76.2665 38.1021 76.2907C38.1407 76.322 38.2184 76.3333 38.2995 76.3452C38.3569 76.3536 38.416 76.3624 38.4647 76.3786C38.5527 76.4079 38.5844 76.4671 38.6139 76.5221C38.6268 76.546 38.6395 76.5692 38.656 76.5887C38.6627 76.5966 38.676 76.6004 38.6943 76.6013C38.7558 76.6915 38.8186 76.7777 38.8802 76.8615C39.1886 77.2819 39.456 77.6458 39.2622 78.1893C39.2255 78.292 39.2328 78.4023 39.2622 78.5138C39.1851 78.8705 39.1056 79.2273 39.024 79.5838C38.8469 79.6544 38.6983 79.7407 38.5816 79.8429C38.3626 80.0348 38.3158 80.2323 38.2605 80.4652C38.2197 80.6375 38.1741 80.8292 38.051 81.0526C37.8441 81.4279 37.6691 81.8132 37.5782 82.248C37.4876 82.6809 37.4209 83.1766 37.3972 83.5272C37.3843 83.7184 37.2259 83.9192 37.0786 84.1063C36.8713 84.3695 36.6855 84.6057 36.9549 84.7499C37.041 84.7959 37.1905 84.8405 37.3357 84.8838C37.4391 84.9146 37.5401 84.9451 37.6153 84.9749C37.592 85.0543 37.5689 85.1337 37.5453 85.2132C37.3657 85.3543 37.1732 85.5736 37.3735 85.7856C37.3487 85.8675 37.3241 85.9495 37.2991 86.0287C37.2469 86.2014 37.194 86.3704 37.1407 86.5409C37.1231 86.5966 37.1055 86.6528 37.0877 86.7091C37.0875 86.7097 37.0873 86.7102 37.0871 86.7107C37.0514 86.8242 37.0154 86.9384 36.9793 87.0508C36.9638 87.099 36.9484 87.1471 36.933 87.1953C36.8938 87.3176 36.8545 87.4408 36.8148 87.5619C36.7936 87.626 36.7727 87.6907 36.7514 87.7556C36.7169 87.8607 36.6822 87.9667 36.6472 88.0721C36.5907 88.2426 36.5336 88.4123 36.476 88.5823C36.4665 88.6101 36.4366 88.6368 36.3913 88.6564C36.346 88.6761 36.2891 88.6871 36.2305 88.6871C36.1718 88.6871 36.1148 88.6759 36.0696 88.6562C36.0246 88.6365 35.9954 88.6098 35.9862 88.5821C35.9302 88.4119 35.8748 88.242 35.8198 88.0714C35.7859 87.966 35.7516 87.8601 35.7181 87.7549C35.6974 87.69 35.6771 87.6254 35.6566 87.5612C35.618 87.4401 35.5794 87.3167 35.5414 87.1943C35.5264 87.1462 35.5113 87.0981 35.4963 87.0499C35.4611 86.9372 35.4263 86.8226 35.3915 86.7089C35.3913 86.7082 35.3911 86.7075 35.3909 86.7068C35.3738 86.6509 35.3567 86.595 35.3397 86.5397C35.288 86.3692 35.2368 86.2001 35.1862 86.0273C35.1589 85.938 35.1322 85.845 35.1052 85.7526C35.0901 85.7012 35.075 85.6499 35.0601 85.5995C35.0521 85.572 35.0442 85.544 35.0363 85.516C34.849 84.8717 34.6688 84.2319 34.4959 83.5863C34.323 82.943 34.1573 82.2986 33.9981 81.6561C33.839 81.0121 33.6867 80.3692 33.5406 79.7257C32.6127 75.6422 31.852 71.5424 31.3759 67.4408C31.3075 66.8557 31.2459 66.2554 31.1906 65.6692C31.1354 65.0766 31.0863 64.4962 31.0444 63.902C31.0313 63.7216 31.019 63.5366 31.0073 63.3468Z" fill="black"/>
<path d="M23.8738 22.1896C22.5575 19.9061 22.8512 17.2271 22.8349 14.8464C22.8343 14.7933 22.8338 14.7403 22.8334 14.6871C22.7798 11.7777 22.9127 8.34331 24.8479 5.78366C26.7605 3.24435 29.4869 1.39131 32.4327 0.550594C34.2705 0.0197165 36.1851 -0.120741 38 0.101058C39.0932 0.233248 40.1632 0.494217 41.1737 0.873535C43.8645 1.87727 46.0906 3.7293 47.5118 5.93219C48.483 7.42733 49.0969 9.08391 49.3386 10.7298C49.4455 11.4522 49.4819 12.1714 49.4525 12.876C49.4303 13.4007 49.372 13.9204 49.2801 14.4233C49.2672 14.4935 49.2089 14.5614 49.1153 14.6108C49.0216 14.6603 48.9012 14.6872 48.7768 14.6871C48.6524 14.687 48.5318 14.6602 48.4378 14.6149C48.3441 14.5694 48.2851 14.509 48.2696 14.4457C48.159 13.9877 48.0177 13.5409 47.849 13.1156C47.6617 12.6418 47.4399 12.1913 47.1897 11.7676C47.6532 11.5413 47.9871 11.3124 48.0749 11.0509C48.1198 10.9178 48.095 10.7507 47.9624 10.6761C47.8434 10.609 47.6725 10.595 47.5104 10.5848C47.3407 10.5741 47.1806 10.5678 47.0966 10.5067C46.9538 10.4027 46.6948 10.3666 46.4258 10.342C46.3278 10.333 46.2283 10.3253 46.1322 10.3157C45.8324 9.9782 45.5128 9.66851 45.178 9.38762C45.1242 9.22343 45.0637 9.07566 44.9656 8.98899C44.8775 8.91118 44.7262 8.89994 44.5578 8.91178C44.5034 8.87376 44.4488 8.83649 44.3938 8.79991C44.0395 8.56357 43.6742 8.35642 43.3024 8.17948C43.1469 7.87763 42.9546 7.5676 42.6113 7.28372C42.4634 7.16181 42.3379 7.004 42.2093 6.85445C42.021 6.63419 41.8244 6.43185 41.5863 6.40862C41.4278 6.39329 41.3096 6.26766 41.1834 6.1438C41.0167 5.97846 40.8323 5.81614 40.589 5.94923C40.4365 6.03298 40.2903 6.14893 40.1594 6.25929C39.9513 6.43501 39.7818 6.59597 39.6624 6.58523C39.4382 6.56517 39.2193 6.69449 39.0395 6.81471C38.8201 6.95908 38.6539 7.08897 38.5217 6.92495C38.5016 6.9001 38.4785 6.86739 38.4522 6.83037C38.3554 6.69353 38.2098 6.50001 38 6.45725C37.9115 6.43916 37.8131 6.44839 37.7088 6.50104C37.5844 6.56396 37.474 6.72292 37.375 6.88048C37.2298 7.11006 37.1082 7.33563 36.9373 7.26486C36.9116 7.25429 36.8783 7.19966 36.8473 7.14994C36.808 7.0867 36.7723 7.03192 36.7653 7.08564C36.7445 7.24322 36.7032 7.42088 36.6654 7.61436C36.6375 7.7565 36.6117 7.90715 36.5942 8.06393C36.2445 8.22406 35.9148 8.40857 35.6066 8.61269C35.4656 8.70614 35.3284 8.80407 35.1963 8.90554C35.0207 8.73593 34.8457 8.59315 34.6847 8.50226C34.4738 8.38392 34.2902 8.41489 34.0555 8.46799C33.8825 8.50752 33.6816 8.55877 33.4082 8.58585C32.8976 8.63716 32.5825 9.00934 32.4861 9.31414C32.4649 9.37887 32.4459 9.44524 32.4272 9.51652C32.3591 9.78735 32.2756 10.1214 32.1148 10.6746C31.9668 11.1973 31.8181 11.5909 31.719 11.895C31.6688 12.0501 31.6325 12.1793 31.6216 12.2845C31.6029 12.4639 31.5742 12.6784 31.5575 12.8925C31.5298 13.2279 31.5351 13.5632 31.5947 13.7564C31.6156 13.825 31.6444 13.8972 31.6764 13.9742C31.7591 14.1719 31.8648 14.3973 31.9438 14.6871C31.9499 14.7097 31.9559 14.7325 31.9618 14.7558C32.0486 15.0919 32.0144 15.2931 31.9228 15.5267C31.8859 15.6205 31.7059 15.7282 31.5231 15.8486C31.2633 16.017 30.9996 16.2183 31.1302 16.3791C31.1607 16.4162 31.2169 16.4492 31.2762 16.4828C31.3851 16.5447 31.5032 16.6052 31.4904 16.7075C31.486 16.7433 31.4445 16.7872 31.4043 16.8308C31.3599 16.8787 31.3171 16.9265 31.3258 16.9617C31.3582 17.0927 31.4169 17.2115 31.4712 17.3146C31.5413 17.4477 31.6042 17.5566 31.5951 17.6468C31.579 17.8081 31.7153 17.9161 31.854 18.0141C31.9604 18.0899 32.0688 18.161 32.1182 18.2627C32.2586 18.5551 32.6377 18.8497 33.103 19.0194C33.2784 19.0834 33.2822 19.2636 33.3059 19.504C33.3205 19.653 33.3425 19.825 33.4174 19.9965C33.4602 20.094 33.5927 20.0637 33.7118 20.0318C33.822 20.0027 33.9214 19.9728 33.9425 20.0489C33.9611 20.1161 33.8817 20.2825 33.8088 20.4423C33.7275 20.6199 33.6547 20.7894 33.7281 20.7981C33.7671 20.8025 33.8532 20.752 33.9535 20.6899C33.9932 20.6654 34.0351 20.6392 34.0774 20.6138C34.0562 20.6438 34.0378 20.671 34.024 20.6917C33.9265 20.8379 33.9298 20.9512 33.9365 21.063C33.9391 21.1076 33.9422 21.1519 33.9391 21.198C33.9273 21.368 34.0488 21.4697 34.1554 21.5215C34.2004 21.5435 34.2136 21.613 34.2307 21.6945C34.2457 21.7668 34.264 21.8486 34.3093 21.9134C34.3351 21.9503 34.3397 22.0096 34.3438 22.0591C34.3467 22.095 34.3494 22.1256 34.3597 22.1383C34.3686 22.1493 34.4 22.1086 34.4351 22.0625C34.4603 22.0294 34.4876 21.9934 34.5098 21.9721C34.563 21.9211 34.6015 21.9163 34.6131 21.9462C34.6185 21.96 34.6179 21.9814 34.6173 22.0026C34.6167 22.0274 34.6161 22.0523 34.6251 22.0652C34.6666 22.1246 34.7462 22.0971 34.827 22.067C34.9164 22.0341 35.0063 21.9978 35.0605 22.0741C35.0776 22.0981 35.0888 22.142 35.1001 22.1845C35.1118 22.2291 35.1239 22.2722 35.1417 22.2891C35.2145 22.3581 35.3387 22.2689 35.4488 22.1843C35.5223 22.1281 35.5899 22.0742 35.637 22.0718C35.7237 22.0677 35.8083 21.9354 35.8694 21.8375C35.9011 21.7867 35.9267 21.7449 35.9436 21.7348C35.9542 21.7423 35.9648 21.7505 35.9751 21.7591C35.9828 21.7729 35.9909 21.7871 36.0024 21.7865C36.0033 21.7865 36.0042 21.786 36.0051 21.786C36.0613 21.8397 36.1142 21.9074 36.1676 21.974C36.287 22.1237 36.419 22.2703 36.592 22.2364C36.6294 22.2291 36.6758 22.1741 36.7218 22.1177C36.7785 22.0487 36.8346 21.9775 36.8783 21.9899C36.9817 22.0193 37.0758 22.1351 37.1751 22.2476C37.3222 22.4165 37.4844 22.5775 37.6448 22.4213C37.6972 22.3697 37.7489 22.2818 37.7989 22.1926C37.8268 22.1429 37.8544 22.0927 37.8816 22.0487C37.8747 22.1311 37.8703 22.2085 37.8662 22.2806C37.8577 22.4293 37.8504 22.5566 37.8205 22.6642C37.7507 22.9186 37.659 23.2674 37.6575 23.5243C37.6573 23.594 37.6524 23.6715 37.6472 23.7495C37.6344 23.9451 37.6197 24.1451 37.6887 24.238C37.7343 24.3007 37.8596 24.4436 37.9413 24.294C37.959 24.2614 37.9698 24.1967 37.9816 24.1248C37.9872 24.0903 37.9931 24.0542 38 24.019C38.0191 23.9222 38.0461 23.8329 38.0986 23.8062C38.1107 23.8001 38.1238 23.7945 38.1373 23.7893C38.1913 23.7684 38.2512 23.7446 38.2704 23.6401C38.2924 23.5196 38.2822 23.3827 38.2712 23.2231C38.2564 23.0152 38.242 22.7683 38.2801 22.4688C38.2875 22.4095 38.3047 22.3887 38.3176 22.3728C38.3267 22.3617 38.3336 22.3527 38.3336 22.335C38.3335 22.3146 38.3287 22.2724 38.3226 22.219C38.3009 22.0305 38.2675 21.7014 38.3565 21.6832C38.3808 21.6782 38.4098 21.6924 38.436 21.705C38.4744 21.7237 38.5067 21.7387 38.507 21.6845C38.5071 21.6639 38.5066 21.6416 38.5058 21.6186C38.5355 21.623 38.5652 21.6272 38.5948 21.6312C38.6377 21.6923 38.69 21.6821 38.7553 21.668C38.7711 21.6646 38.7878 21.6611 38.8052 21.6582C38.8645 21.6649 38.9239 21.6708 38.9834 21.6763C39.0329 21.697 39.0876 21.7339 39.1514 21.7953C39.2785 21.9184 39.4134 22.1312 39.5541 22.336C39.6133 22.4223 39.6739 22.5072 39.7343 22.5833C39.7203 22.5973 39.7082 22.6128 39.7004 22.6323C39.647 22.7656 39.6607 23.002 39.671 23.2202C39.6779 23.3653 39.6835 23.5023 39.6659 23.5946C39.6335 23.7634 39.6716 23.9468 39.7011 24.0824C39.7163 24.1527 39.7287 24.2103 39.7261 24.2462C39.7239 24.2751 39.7098 24.291 39.6952 24.3074C39.6824 24.3217 39.6692 24.3366 39.6631 24.3605C39.5887 24.6512 39.6468 24.8028 39.7415 25.022C39.7934 25.143 39.8555 25.2844 39.908 25.4818C39.9601 25.6914 39.9668 25.7544 39.9089 25.8514C39.9831 25.9468 40.0587 26.0414 40.1358 26.1354C40.1571 26.1244 40.1621 26.0557 40.165 25.9426C40.1705 25.7407 40.2905 25.6434 40.383 25.5653C40.4258 25.5293 40.4626 25.4975 40.4793 25.4626C40.5677 25.2769 40.4775 25.0675 40.4027 24.8825C40.3612 24.7807 40.3237 24.6862 40.3178 24.6083C40.3153 24.5749 40.3007 24.5446 40.2861 24.5137C40.2748 24.4897 40.2633 24.4654 40.257 24.4391C40.2117 24.2479 40.2443 24.0908 40.2707 23.9449C40.2859 23.8614 40.2994 23.7813 40.2973 23.701C40.2967 23.6765 40.2948 23.6518 40.2928 23.6279C40.2899 23.593 40.2872 23.5597 40.2888 23.5302C40.2924 23.4629 40.3214 23.4106 40.3524 23.3533C40.3682 23.324 40.3846 23.2933 40.3982 23.2586C40.4159 23.2136 40.4047 23.136 40.3929 23.055C40.3845 22.9977 40.3759 22.9388 40.3762 22.888C40.3769 22.7962 40.4178 22.7511 40.4551 22.7088C40.4714 22.6904 40.4868 22.6723 40.4982 22.6515C40.5028 22.643 40.502 22.6293 40.4972 22.6116C40.5536 22.5294 40.604 22.4465 40.6511 22.3651C40.8896 21.9542 41.0368 21.6073 41.5132 21.584C41.604 21.5788 41.6801 21.5301 41.745 21.4606C42.035 21.3879 42.3261 21.2989 42.6165 21.1924C42.7672 21.3025 42.9151 21.3789 43.0574 21.4178C43.325 21.4903 43.4972 21.4136 43.6947 21.3167C43.8412 21.2445 44.0021 21.1613 44.238 21.1037C44.6343 21.0066 45.021 20.8477 45.3608 20.5691C45.7 20.2931 46.0361 19.9179 46.2369 19.6267C46.3466 19.4694 46.5834 19.3708 46.804 19.2662C47.114 19.1209 47.3919 18.9609 47.206 18.7131C47.1466 18.6341 47.0276 18.5325 46.9108 18.4358C46.8275 18.3669 46.7458 18.3003 46.6873 18.2448C46.7384 18.1816 46.7887 18.1173 46.8388 18.0522C47.0561 17.9871 47.315 17.8349 47.1882 17.5686C47.2365 17.4973 47.2837 17.4252 47.3298 17.3548C47.4282 17.2004 47.5223 17.0461 47.6133 16.8864C47.6433 16.8343 47.6729 16.7812 47.7023 16.7274C47.7026 16.7269 47.7029 16.7264 47.7032 16.7259C47.7623 16.6179 47.8198 16.5081 47.8755 16.3978C47.8992 16.3506 47.9227 16.303 47.9458 16.2551C48.0044 16.1338 48.061 16.0102 48.1155 15.8862C48.1444 15.8208 48.1727 15.7532 48.2005 15.6866C48.2457 15.578 48.2895 15.4668 48.3316 15.3546C48.3998 15.1721 48.4637 14.9913 48.5234 14.8033C48.5332 14.7726 48.5633 14.7432 48.6086 14.7214C48.6541 14.6996 48.7109 14.6871 48.7695 14.6871C48.8282 14.6871 48.8852 14.6999 48.9303 14.7227C48.9753 14.7455 49.0043 14.7766 49.0132 14.8088C49.067 15.0068 49.1152 15.2035 49.1573 15.4079C49.1833 15.5336 49.2075 15.6604 49.229 15.7868C49.2422 15.8644 49.2542 15.9438 49.2657 16.0218C49.2872 16.1696 49.3056 16.3201 49.3205 16.471C49.3264 16.5306 49.3318 16.5903 49.3368 16.6501C49.3484 16.7902 49.3569 16.9322 49.3625 17.0749C49.3626 17.0758 49.3626 17.0766 49.3626 17.0775C49.3653 17.1478 49.3675 17.2181 49.369 17.2877C49.3731 17.5023 49.3713 17.7164 49.3612 17.9362C49.3571 18.05 49.3496 18.1677 49.3404 18.286C49.3354 18.3517 49.3298 18.4174 49.324 18.482C49.3205 18.5172 49.3168 18.5528 49.3128 18.5887C49.2265 19.4133 49.0455 20.2396 48.7631 21.0552C48.4823 21.868 48.1031 22.6645 47.6337 23.4188C47.163 24.1748 46.6014 24.8893 45.9571 25.5434C43.9562 27.593 41.0961 29.0306 38 29.3809C34.8126 29.7701 31.333 28.9788 28.4905 27.0847C27.6902 26.5571 26.9204 25.9294 26.2325 25.2448C25.5375 24.5526 24.9187 23.8044 24.366 22.9785C24.1982 22.7281 24.0335 22.4648 23.8738 22.1896Z" fill="black"/>
</svg>
