<svg width="59" height="77" viewBox="0 0 59 77" fill="none" xmlns="http://www.w3.org/2000/svg">
<path d="M8.62368 72.713C8.20175 71.6423 8.46244 70.5036 8.60604 69.4642C8.60918 69.4411 8.61233 69.418 8.61551 69.3949C8.7786 68.1229 9.08254 66.6578 10.0763 65.6688C11.0605 64.6852 12.3549 64.0449 13.6864 63.8545C14.5175 63.7331 15.3597 63.7847 16.1396 63.9879C16.6094 64.1098 17.0619 64.2862 17.4822 64.5109C18.6016 65.1065 19.4743 66.0462 19.9776 67.0994C20.3219 67.8146 20.5017 68.5826 20.518 69.3281C20.5255 69.6554 20.5021 69.9779 20.4503 70.2909C20.4115 70.5239 20.357 70.7531 20.2884 70.9733C20.2788 71.0041 20.2513 71.0311 20.2111 71.0479C20.1708 71.0647 20.1214 71.0699 20.0721 71.0627C20.0229 71.0555 19.9769 71.0364 19.9427 71.0104C19.9086 70.9844 19.8892 70.9536 19.8871 70.924C19.873 70.7096 19.8443 70.4976 19.8017 70.2926C19.7545 70.0643 19.6901 69.8434 19.6106 69.6317C19.8063 69.5642 19.9507 69.4865 19.9981 69.3762C20.0223 69.3201 20.0201 69.2436 19.9704 69.2C19.9257 69.1608 19.8577 69.1411 19.793 69.1236C19.7253 69.1053 19.6612 69.0895 19.6299 69.0552C19.5768 68.997 19.4736 68.9594 19.3656 68.9254C19.3262 68.913 19.2861 68.901 19.2474 68.8884C19.1384 68.7107 19.0181 68.5436 18.8882 68.3879C18.8712 68.3101 18.8507 68.2394 18.8124 68.192C18.7781 68.1496 18.715 68.1304 18.6439 68.1195C18.6221 68.0976 18.6002 68.076 18.578 68.0547C18.4353 67.9172 18.2849 67.7918 18.1286 67.6793C18.0694 67.5344 17.9946 67.3841 17.852 67.2323C17.7904 67.167 17.7398 67.0893 17.6875 67.0153C17.611 66.9064 17.5305 66.8054 17.4247 66.7745C17.3542 66.754 17.3056 66.6921 17.2534 66.6307C17.1845 66.5488 17.1081 66.4676 16.9925 66.5009C16.92 66.5218 16.8486 66.5563 16.7841 66.5898C16.6815 66.6432 16.5962 66.6937 16.5413 66.6797C16.4385 66.6533 16.3309 66.6877 16.2409 66.7216C16.1313 66.762 16.0459 66.801 15.9922 66.7261C15.9841 66.7148 15.975 66.7001 15.9645 66.6835C15.9263 66.6222 15.8688 66.5351 15.7733 66.5039C15.733 66.4907 15.6865 66.4878 15.6345 66.5018C15.5725 66.5185 15.5109 66.5743 15.4541 66.6304C15.3711 66.7121 15.2979 66.7939 15.2214 66.756C15.2099 66.7503 15.1979 66.7268 15.1867 66.7053C15.1725 66.6781 15.1594 66.6543 15.1523 66.6752C15.1315 66.7364 15.0993 66.8045 15.0671 66.8792C15.0434 66.934 15.0198 66.9924 14.9995 67.0537C14.8185 67.099 14.6442 67.158 14.4779 67.2287C14.4018 67.261 14.3271 67.296 14.2543 67.3332C14.1872 67.2583 14.1185 67.1943 14.0521 67.1519C13.965 67.0967 13.8772 67.1035 13.7644 67.1186C13.6812 67.1298 13.5844 67.1455 13.4585 67.1493C13.2234 67.1565 13.0483 67.3056 12.9748 67.4345C12.9589 67.4617 12.9438 67.4899 12.9283 67.5202C12.8708 67.6358 12.7995 67.7784 12.6726 68.0217C12.5544 68.2521 12.4514 68.4296 12.3799 68.5677C12.3435 68.6382 12.3158 68.6974 12.301 68.7464C12.2758 68.8298 12.2435 68.93 12.2169 69.0312C12.1745 69.1896 12.1478 69.3511 12.1555 69.4473C12.1581 69.4815 12.1636 69.5178 12.1701 69.5568C12.1871 69.6568 12.2112 69.7726 12.2217 69.9198C12.2225 69.9313 12.2232 69.9429 12.2239 69.9547C12.2346 70.1256 12.2087 70.2239 12.1587 70.3324C12.1386 70.3761 12.0612 70.416 11.9822 70.461C11.87 70.5239 11.7546 70.6 11.7985 70.6869C11.8088 70.707 11.8296 70.7273 11.8516 70.7481C11.892 70.7864 11.9363 70.8252 11.9267 70.8732C11.9233 70.89 11.9048 70.9075 11.8868 70.925C11.8669 70.9441 11.8477 70.9633 11.8497 70.9807C11.857 71.0457 11.8758 71.1071 11.8937 71.1607C11.9168 71.2298 11.9384 71.287 11.9315 71.3285C11.9192 71.4028 11.9711 71.4659 12.0249 71.525C12.0661 71.5706 12.1086 71.6144 12.1262 71.6666C12.1759 71.8163 12.3264 71.9894 12.5227 72.1167C12.5968 72.1648 12.5953 72.2467 12.6007 72.3563C12.6041 72.4242 12.6101 72.5026 12.6393 72.5857C12.6559 72.6329 12.7148 72.6337 12.7681 72.6326C12.8174 72.6317 12.8623 72.6296 12.8702 72.6649C12.8771 72.6961 12.8383 72.7596 12.8024 72.8207C12.7623 72.8887 12.726 72.9537 12.7583 72.9649C12.7755 72.9709 12.815 72.9581 12.8612 72.942C12.8795 72.9357 12.8988 72.9289 12.9184 72.9224C12.9082 72.933 12.8993 72.9427 12.8927 72.9501C12.8457 73.0023 12.8444 73.0509 12.8445 73.099C12.8446 73.1181 12.8448 73.1372 12.8422 73.1564C12.8325 73.227 12.8839 73.2818 12.9303 73.314C12.9499 73.3276 12.9539 73.358 12.9592 73.3937C12.9639 73.4253 12.9697 73.4611 12.9881 73.4924C12.9986 73.5102 12.9988 73.5352 12.9992 73.5561C12.9994 73.5713 12.9996 73.5842 13.0038 73.5904C13.0075 73.5958 13.0229 73.5819 13.0401 73.5662C13.0525 73.5549 13.0659 73.5426 13.0766 73.5359C13.1022 73.5198 13.1198 73.5215 13.1241 73.535C13.1261 73.5412 13.1252 73.55 13.1243 73.5587C13.1232 73.5689 13.1221 73.5791 13.1258 73.5853C13.1427 73.6137 13.1796 73.6098 13.2173 73.605C13.259 73.5998 13.3013 73.5933 13.3235 73.6296C13.3305 73.6411 13.3341 73.6601 13.3378 73.6785C13.3417 73.6978 13.3457 73.7165 13.3532 73.7251C13.384 73.7599 13.4439 73.7347 13.4976 73.7102C13.5334 73.694 13.5666 73.6782 13.5885 73.6815C13.6287 73.6876 13.6728 73.6415 13.7049 73.6073C13.7215 73.5896 13.735 73.5749 13.7433 73.5724C13.748 73.5764 13.7526 73.5807 13.7571 73.5851C13.7602 73.5913 13.7635 73.5978 13.7689 73.5986C13.7693 73.5987 13.7698 73.5986 13.7702 73.5986C13.7944 73.6254 13.8166 73.6574 13.8389 73.689C13.8889 73.7597 13.9441 73.8297 14.0267 73.8304C14.0445 73.8305 14.0687 73.8123 14.093 73.7935C14.1227 73.7706 14.1525 73.7467 14.1726 73.7552C14.2201 73.7753 14.2592 73.8289 14.3004 73.8813C14.3615 73.9599 14.4289 74.0357 14.513 73.9854C14.5405 73.9687 14.5697 73.9375 14.5984 73.9058C14.6144 73.8881 14.6303 73.8701 14.6457 73.8546C14.6377 73.8868 14.6313 73.9171 14.6253 73.9454C14.6129 74.0037 14.6023 74.0536 14.5822 74.0941C14.5352 74.19 14.4733 74.3218 14.4586 74.4235C14.4546 74.4511 14.4481 74.4815 14.4414 74.512C14.4247 74.5886 14.407 74.6669 14.4334 74.7084C14.4508 74.7364 14.4998 74.8015 14.5458 74.7477C14.5557 74.736 14.5644 74.7111 14.5739 74.6834C14.5785 74.6702 14.5832 74.6563 14.5885 74.6428C14.6028 74.6058 14.6204 74.5722 14.6462 74.5652C14.6521 74.5635 14.6584 74.5622 14.665 74.561C14.6911 74.5563 14.7201 74.5509 14.7352 74.5107C14.7526 74.4645 14.756 74.4097 14.7605 74.3458C14.766 74.2626 14.7739 74.164 14.8099 74.048C14.817 74.0251 14.8264 74.018 14.8334 74.0126C14.8384 74.0088 14.8422 74.0057 14.8433 73.9986C14.8445 73.9906 14.8448 73.9736 14.8452 73.952C14.8464 73.8761 14.8503 73.7437 14.8942 73.7424C14.9062 73.742 14.9193 73.7495 14.931 73.7562C14.9483 73.7661 14.9629 73.7741 14.9664 73.7526C14.9678 73.7445 14.969 73.7357 14.9701 73.7265C14.9841 73.7302 14.9981 73.7337 15.0121 73.7372C15.0288 73.764 15.0545 73.7632 15.0868 73.7616C15.0947 73.7612 15.1029 73.7609 15.1115 73.7608C15.1395 73.767 15.1677 73.7729 15.1958 73.7785C15.2182 73.7896 15.2419 73.8073 15.268 73.8352C15.3201 73.8912 15.3689 73.9829 15.4203 74.0716C15.4419 74.109 15.4642 74.1459 15.4869 74.1793C15.4793 74.1841 15.4725 74.1897 15.4674 74.197C15.4327 74.247 15.4221 74.3415 15.4115 74.4286C15.4044 74.4865 15.3973 74.5411 15.3828 74.5767C15.3561 74.6418 15.361 74.7166 15.3652 74.7719C15.3673 74.8006 15.369 74.8241 15.3654 74.8382C15.3624 74.8495 15.3549 74.8551 15.3471 74.8607C15.3403 74.8657 15.3332 74.8709 15.3289 74.88C15.2752 74.9909 15.2917 75.0542 15.3198 75.1464C15.3352 75.1972 15.3537 75.2567 15.3641 75.3379C15.3734 75.4238 15.3722 75.4491 15.3398 75.4843C15.3667 75.5262 15.3942 75.568 15.4223 75.6095C15.4326 75.6063 15.4394 75.5794 15.4483 75.5347C15.4644 75.455 15.5248 75.4231 15.5717 75.3971C15.5934 75.3851 15.612 75.3745 15.622 75.3615C15.6746 75.2925 15.6489 75.2046 15.6282 75.1272C15.6167 75.0846 15.6064 75.0451 15.6093 75.0138C15.6105 75.0005 15.606 74.9877 15.6016 74.9746C15.5982 74.9645 15.5947 74.9543 15.5937 74.9435C15.5867 74.8652 15.6128 74.8046 15.6354 74.748C15.6484 74.7156 15.6604 74.6844 15.6654 74.6524C15.6669 74.6426 15.6678 74.6327 15.6687 74.6231C15.6699 74.6091 15.6711 74.5957 15.674 74.5841C15.6807 74.5575 15.6979 74.5382 15.7164 74.5169C15.7259 74.506 15.7358 74.4946 15.7447 74.4815C15.7562 74.4645 15.757 74.433 15.7577 74.4002C15.7582 74.3769 15.7587 74.353 15.7628 74.3328C15.7702 74.2963 15.7926 74.2802 15.8132 74.2651C15.8222 74.2586 15.8308 74.2521 15.8377 74.2443C15.8406 74.2411 15.8413 74.2356 15.8404 74.2283C15.8731 74.1981 15.9032 74.1672 15.9317 74.1368C16.0757 73.9828 16.1762 73.8487 16.3985 73.856C16.4409 73.8571 16.4803 73.8399 16.5166 73.8136C16.6565 73.7936 16.7974 73.7661 16.9384 73.7304C16.9957 73.7807 17.0546 73.8169 17.1143 73.8374C17.2267 73.8758 17.31 73.8491 17.4061 73.8143C17.4774 73.7883 17.5559 73.758 17.664 73.7405C17.8455 73.7111 18.0266 73.6552 18.1971 73.5459C18.3673 73.4377 18.543 73.2856 18.6531 73.1647C18.7132 73.0995 18.8204 73.0641 18.9206 73.0259C19.0613 72.9728 19.1886 72.913 19.1341 72.7965C19.1167 72.7594 19.0769 72.7099 19.0376 72.6626C19.0096 72.6289 18.9821 72.5962 18.9631 72.5692C18.9895 72.5428 19.0156 72.516 19.0416 72.4887C19.1357 72.4677 19.2534 72.4103 19.2244 72.2855C19.2498 72.2554 19.2748 72.2249 19.2992 72.1952C19.3514 72.1298 19.4017 72.0644 19.4508 71.9964C19.4669 71.9743 19.4829 71.9516 19.4989 71.9287C19.499 71.9285 19.4992 71.9283 19.4994 71.9281C19.5314 71.882 19.5628 71.8351 19.5934 71.7879C19.6065 71.7677 19.6194 71.7474 19.6322 71.7268C19.6647 71.6748 19.6963 71.6218 19.727 71.5685C19.7433 71.5403 19.7594 71.5112 19.7752 71.4825C19.8009 71.4358 19.8261 71.3878 19.8507 71.3393C19.8904 71.2604 19.928 71.1822 19.9641 71.1006C19.9701 71.0873 19.9839 71.0757 20.0033 71.0685C20.0227 71.0612 20.046 71.0589 20.0692 71.0623C20.0924 71.0657 20.1142 71.0747 20.1306 71.0875C20.1469 71.1004 20.1563 71.116 20.1577 71.131C20.1659 71.2231 20.1718 71.3141 20.1744 71.408C20.1761 71.4658 20.1769 71.5239 20.1765 71.5815C20.1763 71.6169 20.1755 71.653 20.1745 71.6885C20.1725 71.7555 20.169 71.8236 20.1639 71.8916C20.1619 71.9184 20.1597 71.9452 20.1573 71.9721C20.1516 72.0349 20.1445 72.0984 20.136 72.1619C20.136 72.1623 20.1359 72.1627 20.1359 72.1631C20.1317 72.1944 20.1272 72.2256 20.1226 72.2565C20.108 72.3516 20.0908 72.4461 20.0697 72.5424C20.0592 72.5924 20.047 72.6438 20.034 72.6953C20.0268 72.724 20.0194 72.7525 20.0119 72.7806C20.0078 72.7959 20.0034 72.8113 19.999 72.8268C19.8987 73.1842 19.7574 73.5347 19.5731 73.8728C19.3897 74.2099 19.1651 74.5322 18.9047 74.8294C18.6436 75.1273 18.3463 75.4003 18.0179 75.6411C16.9964 76.3966 15.6506 76.8236 14.2795 76.7652C12.8659 76.7172 11.4113 76.1409 10.3042 75.1332C9.9922 74.8519 9.69988 74.5296 9.44666 74.1883C9.19082 73.8432 8.97158 73.4792 8.78579 73.0861C8.72935 72.9669 8.67506 72.8424 8.62368 72.713Z" fill="black"/>
<path d="M39.6237 72.713C39.2017 71.6423 39.4624 70.5036 39.606 69.4642C39.6092 69.4411 39.6123 69.418 39.6155 69.3949C39.7786 68.1229 40.0825 66.6578 41.0763 65.6688C42.0605 64.6852 43.3549 64.0449 44.6864 63.8545C45.5175 63.7331 46.3597 63.7847 47.1396 63.9879C47.6094 64.1098 48.0619 64.2862 48.4822 64.5109C49.6016 65.1065 50.4743 66.0462 50.9776 67.0994C51.3219 67.8146 51.5017 68.5826 51.518 69.3281C51.5255 69.6554 51.5021 69.9779 51.4503 70.2909C51.4115 70.5239 51.357 70.7531 51.2884 70.9733C51.2788 71.0041 51.2513 71.0311 51.2111 71.0479C51.1708 71.0647 51.1214 71.0699 51.0721 71.0627C51.0229 71.0555 50.9769 71.0364 50.9427 71.0104C50.9086 70.9844 50.8892 70.9536 50.8871 70.924C50.873 70.7096 50.8443 70.4976 50.8017 70.2926C50.7545 70.0643 50.6901 69.8434 50.6106 69.6317C50.8063 69.5642 50.9507 69.4865 50.9981 69.3762C51.0223 69.3201 51.0201 69.2436 50.9704 69.2C50.9257 69.1608 50.8577 69.1411 50.793 69.1236C50.7253 69.1053 50.6612 69.0895 50.6299 69.0552C50.5768 68.997 50.4736 68.9594 50.3656 68.9254C50.3262 68.913 50.2861 68.901 50.2474 68.8884C50.1384 68.7107 50.0181 68.5436 49.8882 68.3879C49.8712 68.3101 49.8507 68.2394 49.8124 68.192C49.7781 68.1496 49.715 68.1304 49.6439 68.1195C49.6221 68.0976 49.6002 68.076 49.578 68.0547C49.4353 67.9172 49.2849 67.7918 49.1286 67.6793C49.0694 67.5344 48.9946 67.3841 48.852 67.2323C48.7904 67.167 48.7398 67.0893 48.6875 67.0153C48.611 66.9064 48.5305 66.8054 48.4247 66.7745C48.3542 66.754 48.3056 66.6921 48.2534 66.6307C48.1845 66.5488 48.1081 66.4676 47.9925 66.5009C47.92 66.5218 47.8486 66.5563 47.7841 66.5898C47.6815 66.6432 47.5962 66.6937 47.5413 66.6797C47.4385 66.6533 47.3309 66.6877 47.2409 66.7216C47.1313 66.762 47.0459 66.801 46.9922 66.7261C46.9841 66.7148 46.975 66.7001 46.9645 66.6835C46.9263 66.6222 46.8688 66.5351 46.7733 66.5039C46.733 66.4907 46.6865 66.4878 46.6345 66.5018C46.5725 66.5185 46.5109 66.5743 46.4541 66.6304C46.3711 66.7121 46.2979 66.7939 46.2214 66.756C46.2099 66.7503 46.1979 66.7268 46.1867 66.7053C46.1725 66.6781 46.1594 66.6543 46.1523 66.6752C46.1315 66.7364 46.0993 66.8045 46.0671 66.8792C46.0434 66.934 46.0198 66.9924 45.9995 67.0537C45.8185 67.099 45.6442 67.158 45.4779 67.2287C45.4018 67.261 45.3271 67.296 45.2543 67.3332C45.1872 67.2583 45.1185 67.1943 45.0521 67.1519C44.965 67.0967 44.8772 67.1035 44.7644 67.1186C44.6812 67.1298 44.5844 67.1455 44.4585 67.1493C44.2234 67.1565 44.0483 67.3056 43.9748 67.4345C43.9589 67.4617 43.9438 67.4899 43.9283 67.5202C43.8708 67.6358 43.7995 67.7784 43.6726 68.0217C43.5544 68.2521 43.4514 68.4296 43.3799 68.5677C43.3435 68.6382 43.3158 68.6974 43.301 68.7464C43.2758 68.8298 43.2435 68.93 43.2169 69.0312C43.1745 69.1896 43.1478 69.3511 43.1555 69.4473C43.1581 69.4815 43.1636 69.5178 43.1701 69.5568C43.1871 69.6568 43.2112 69.7726 43.2217 69.9198C43.2225 69.9313 43.2232 69.9429 43.2239 69.9547C43.2346 70.1256 43.2087 70.2239 43.1587 70.3324C43.1386 70.3761 43.0612 70.416 42.9822 70.461C42.87 70.5239 42.7546 70.6 42.7985 70.6869C42.8088 70.707 42.8296 70.7273 42.8516 70.7481C42.892 70.7864 42.9363 70.8252 42.9267 70.8732C42.9233 70.89 42.9048 70.9075 42.8868 70.925C42.8669 70.9441 42.8477 70.9633 42.8497 70.9807C42.857 71.0457 42.8758 71.1071 42.8937 71.1607C42.9168 71.2298 42.9384 71.287 42.9315 71.3285C42.9192 71.4028 42.9711 71.4659 43.0249 71.525C43.0661 71.5706 43.1086 71.6144 43.1262 71.6666C43.1759 71.8163 43.3264 71.9894 43.5227 72.1167C43.5968 72.1648 43.5953 72.2467 43.6007 72.3563C43.6041 72.4242 43.6101 72.5026 43.6393 72.5857C43.6559 72.6329 43.7148 72.6337 43.7681 72.6326C43.8174 72.6317 43.8623 72.6296 43.8702 72.6649C43.8771 72.6961 43.8383 72.7596 43.8024 72.8207C43.7623 72.8887 43.726 72.9537 43.7583 72.9649C43.7755 72.9709 43.815 72.9581 43.8612 72.942C43.8795 72.9357 43.8988 72.9289 43.9184 72.9224C43.9082 72.933 43.8993 72.9427 43.8927 72.9501C43.8457 73.0023 43.8444 73.0509 43.8445 73.099C43.8446 73.1181 43.8448 73.1372 43.8422 73.1564C43.8325 73.227 43.8839 73.2818 43.9303 73.314C43.9499 73.3276 43.9539 73.358 43.9592 73.3937C43.9639 73.4253 43.9697 73.4611 43.9881 73.4924C43.9986 73.5102 43.9988 73.5352 43.9992 73.5561C43.9994 73.5713 43.9996 73.5842 44.0038 73.5904C44.0075 73.5958 44.0229 73.5819 44.0401 73.5662C44.0525 73.5549 44.0659 73.5426 44.0766 73.5359C44.1022 73.5198 44.1198 73.5215 44.1241 73.535C44.1261 73.5412 44.1252 73.55 44.1243 73.5587C44.1232 73.5689 44.1221 73.5791 44.1258 73.5853C44.1427 73.6137 44.1796 73.6098 44.2173 73.605C44.259 73.5998 44.3013 73.5933 44.3235 73.6296C44.3305 73.6411 44.3341 73.6601 44.3378 73.6785C44.3417 73.6978 44.3457 73.7165 44.3532 73.7251C44.384 73.7599 44.4439 73.7347 44.4976 73.7102C44.5334 73.694 44.5666 73.6782 44.5885 73.6815C44.6287 73.6876 44.6728 73.6415 44.7049 73.6073C44.7215 73.5896 44.735 73.5749 44.7433 73.5724C44.748 73.5764 44.7526 73.5807 44.7571 73.5851C44.7602 73.5913 44.7635 73.5978 44.7689 73.5986C44.7693 73.5987 44.7698 73.5986 44.7702 73.5986C44.7944 73.6254 44.8166 73.6574 44.8389 73.689C44.8889 73.7597 44.9441 73.8297 45.0267 73.8304C45.0445 73.8305 45.0687 73.8123 45.093 73.7935C45.1227 73.7706 45.1525 73.7467 45.1726 73.7552C45.2201 73.7753 45.2592 73.8289 45.3004 73.8813C45.3615 73.9599 45.4289 74.0357 45.513 73.9854C45.5405 73.9687 45.5697 73.9375 45.5984 73.9058C45.6144 73.8881 45.6303 73.8701 45.6457 73.8546C45.6377 73.8868 45.6313 73.9171 45.6253 73.9454C45.6129 74.0037 45.6023 74.0536 45.5822 74.0941C45.5352 74.19 45.4733 74.3218 45.4586 74.4235C45.4546 74.4511 45.4481 74.4815 45.4414 74.512C45.4247 74.5886 45.407 74.6669 45.4334 74.7084C45.4508 74.7364 45.4998 74.8015 45.5458 74.7477C45.5557 74.736 45.5644 74.7111 45.5739 74.6834C45.5785 74.6702 45.5832 74.6563 45.5885 74.6428C45.6028 74.6058 45.6204 74.5722 45.6462 74.5652C45.6521 74.5635 45.6584 74.5622 45.665 74.561C45.6911 74.5563 45.7201 74.5509 45.7352 74.5107C45.7526 74.4645 45.756 74.4097 45.7605 74.3458C45.766 74.2626 45.7739 74.164 45.8099 74.048C45.817 74.0251 45.8264 74.018 45.8334 74.0126C45.8384 74.0088 45.8422 74.0057 45.8433 73.9986C45.8445 73.9906 45.8448 73.9736 45.8452 73.952C45.8464 73.8761 45.8503 73.7437 45.8942 73.7424C45.9062 73.742 45.9193 73.7495 45.931 73.7562C45.9483 73.7661 45.9629 73.7741 45.9664 73.7526C45.9678 73.7445 45.969 73.7357 45.9701 73.7265C45.9841 73.7302 45.9981 73.7337 46.0121 73.7372C46.0288 73.764 46.0545 73.7632 46.0868 73.7616C46.0947 73.7612 46.1029 73.7609 46.1115 73.7608C46.1395 73.767 46.1677 73.7729 46.1958 73.7785C46.2182 73.7896 46.2419 73.8073 46.268 73.8352C46.3201 73.8912 46.3689 73.9829 46.4203 74.0716C46.4419 74.109 46.4642 74.1459 46.4869 74.1793C46.4793 74.1841 46.4725 74.1897 46.4674 74.197C46.4327 74.247 46.4221 74.3415 46.4115 74.4286C46.4044 74.4865 46.3973 74.5411 46.3828 74.5767C46.3561 74.6418 46.361 74.7166 46.3652 74.7719C46.3673 74.8006 46.369 74.8241 46.3654 74.8382C46.3624 74.8495 46.3549 74.8551 46.3471 74.8607C46.3403 74.8657 46.3332 74.8709 46.3289 74.88C46.2752 74.9909 46.2917 75.0542 46.3198 75.1464C46.3352 75.1972 46.3537 75.2567 46.3641 75.3379C46.3734 75.4238 46.3722 75.4491 46.3398 75.4843C46.3667 75.5262 46.3942 75.568 46.4223 75.6095C46.4326 75.6063 46.4394 75.5794 46.4483 75.5347C46.4644 75.455 46.5248 75.4231 46.5717 75.3971C46.5934 75.3851 46.612 75.3745 46.622 75.3615C46.6746 75.2925 46.6489 75.2046 46.6282 75.1272C46.6167 75.0846 46.6064 75.0451 46.6093 75.0138C46.6105 75.0005 46.606 74.9877 46.6016 74.9746C46.5982 74.9645 46.5947 74.9543 46.5937 74.9435C46.5867 74.8652 46.6128 74.8046 46.6354 74.748C46.6484 74.7156 46.6604 74.6844 46.6654 74.6524C46.6669 74.6426 46.6678 74.6327 46.6687 74.6231C46.6699 74.6091 46.6711 74.5957 46.674 74.5841C46.6807 74.5575 46.6979 74.5382 46.7164 74.5169C46.7259 74.506 46.7358 74.4946 46.7447 74.4815C46.7562 74.4645 46.757 74.433 46.7577 74.4002C46.7582 74.3769 46.7587 74.353 46.7628 74.3328C46.7702 74.2963 46.7926 74.2802 46.8132 74.2651C46.8222 74.2586 46.8308 74.2521 46.8377 74.2443C46.8406 74.2411 46.8413 74.2356 46.8404 74.2283C46.8731 74.1981 46.9032 74.1672 46.9317 74.1368C47.0757 73.9828 47.1762 73.8487 47.3985 73.856C47.4409 73.8571 47.4803 73.8399 47.5166 73.8136C47.6565 73.7936 47.7974 73.7661 47.9384 73.7304C47.9957 73.7807 48.0546 73.8169 48.1143 73.8374C48.2267 73.8758 48.31 73.8491 48.4061 73.8143C48.4774 73.7883 48.5559 73.758 48.664 73.7405C48.8455 73.7111 49.0266 73.6552 49.1971 73.5459C49.3673 73.4377 49.543 73.2856 49.6531 73.1647C49.7132 73.0995 49.8204 73.0641 49.9206 73.0259C50.0613 72.9728 50.1886 72.913 50.1341 72.7965C50.1167 72.7594 50.0769 72.7099 50.0376 72.6626C50.0096 72.6289 49.9821 72.5962 49.9631 72.5692C49.9895 72.5428 50.0156 72.516 50.0416 72.4887C50.1357 72.4677 50.2534 72.4103 50.2244 72.2855C50.2498 72.2554 50.2748 72.2249 50.2992 72.1952C50.3514 72.1298 50.4017 72.0644 50.4508 71.9964C50.4669 71.9743 50.4829 71.9516 50.4989 71.9287C50.499 71.9285 50.4992 71.9283 50.4994 71.9281C50.5314 71.882 50.5628 71.8351 50.5934 71.7879C50.6065 71.7677 50.6194 71.7474 50.6322 71.7268C50.6647 71.6748 50.6963 71.6218 50.727 71.5685C50.7433 71.5403 50.7594 71.5112 50.7752 71.4825C50.8009 71.4358 50.8261 71.3878 50.8507 71.3393C50.8904 71.2604 50.928 71.1822 50.9641 71.1006C50.9701 71.0873 50.9839 71.0757 51.0033 71.0685C51.0227 71.0612 51.046 71.0589 51.0692 71.0623C51.0924 71.0657 51.1142 71.0747 51.1306 71.0875C51.1469 71.1004 51.1563 71.116 51.1577 71.131C51.1659 71.2231 51.1718 71.3141 51.1744 71.408C51.1761 71.4658 51.1769 71.5239 51.1765 71.5815C51.1763 71.6169 51.1755 71.653 51.1745 71.6885C51.1725 71.7555 51.169 71.8236 51.1639 71.8916C51.1619 71.9184 51.1597 71.9452 51.1573 71.9721C51.1516 72.0349 51.1445 72.0984 51.136 72.1619C51.136 72.1623 51.1359 72.1627 51.1359 72.1631C51.1317 72.1944 51.1272 72.2256 51.1226 72.2565C51.108 72.3516 51.0908 72.4461 51.0697 72.5424C51.0592 72.5924 51.047 72.6438 51.034 72.6953C51.0268 72.724 51.0194 72.7525 51.0119 72.7806C51.0078 72.7959 51.0034 72.8113 50.999 72.8268C50.8987 73.1842 50.7574 73.5347 50.5731 73.8728C50.3897 74.2099 50.1651 74.5322 49.9047 74.8294C49.6436 75.1273 49.3463 75.4003 49.0179 75.6411C47.9964 76.3966 46.6506 76.8236 45.2795 76.7652C43.8659 76.7172 42.4113 76.1409 41.3042 75.1332C40.9922 74.8519 40.6999 74.5296 40.4467 74.1883C40.1908 73.8432 39.9716 73.4792 39.7858 73.0861C39.7294 72.9669 39.6751 72.8424 39.6237 72.713Z" fill="black"/>
<path d="M15.4183 22.1896C14.102 19.9061 14.3956 17.2271 14.3793 14.8463C14.3788 14.7933 14.3783 14.7402 14.3778 14.6871C14.3243 11.7777 14.4571 8.34331 16.3924 5.78365C18.3049 3.24435 21.0314 1.39131 23.9772 0.550591C25.815 0.0197127 27.7296 -0.120744 29.5445 0.101053C30.6377 0.233244 31.7077 0.494213 32.7182 0.873531C35.409 1.87727 37.6351 3.7293 39.0563 5.93219C40.0274 7.42733 40.6414 9.08391 40.883 10.7298C40.99 11.4522 41.0264 12.1714 40.997 12.876C40.9748 13.4007 40.9165 13.9204 40.8246 14.4233C40.8116 14.4935 40.7533 14.5614 40.6598 14.6108C40.5661 14.6603 40.4457 14.6872 40.3213 14.6871C40.1968 14.687 40.0763 14.6602 39.9823 14.6149C39.8886 14.5694 39.8295 14.509 39.814 14.4457C39.7034 13.9877 39.5622 13.5409 39.3935 13.1156C39.2061 12.6418 38.9844 12.1913 38.7341 11.7676C39.1976 11.5413 39.5316 11.3124 39.6193 11.0508C39.6643 10.9178 39.6394 10.7507 39.5069 10.6761C39.3879 10.609 39.217 10.595 39.0548 10.5848C38.8852 10.5741 38.7251 10.5678 38.6411 10.5066C38.4982 10.4027 38.2392 10.3666 37.9703 10.342C37.8723 10.333 37.7728 10.3253 37.6767 10.3157C37.3769 9.97819 37.0573 9.66851 36.7224 9.38761C36.6686 9.22342 36.6082 9.07566 36.5101 8.98899C36.422 8.91117 36.2706 8.89994 36.1023 8.91178C36.0479 8.87376 35.9933 8.83649 35.9383 8.7999C35.5839 8.56356 35.2187 8.35642 34.8469 8.17948C34.6913 7.87762 34.4991 7.5676 34.1557 7.28371C34.0078 7.16181 33.8823 7.004 33.7538 6.85445C33.5654 6.63419 33.3689 6.43184 33.1307 6.40862C32.9722 6.39328 32.8541 6.26765 32.7279 6.1438C32.5611 5.97846 32.3767 5.81614 32.1335 5.94923C31.981 6.03298 31.8348 6.14892 31.7038 6.25929C31.4957 6.435 31.3262 6.59596 31.2068 6.58522C30.9826 6.56516 30.7638 6.69448 30.584 6.81471C30.3646 6.95908 30.1984 7.08897 30.0662 6.92495C30.046 6.90009 30.023 6.86739 29.9966 6.83036C29.8999 6.69353 29.7542 6.5 29.5445 6.45725C29.4559 6.43916 29.3576 6.44839 29.2533 6.50104C29.1289 6.56396 29.0184 6.72291 28.9195 6.88048C28.7743 7.11006 28.6527 7.33563 28.4817 7.26485C28.456 7.25428 28.4227 7.19965 28.3918 7.14993C28.3525 7.0867 28.3168 7.03192 28.3097 7.08564C28.289 7.24321 28.2477 7.42087 28.2099 7.61436C28.1819 7.7565 28.1562 7.90714 28.1386 8.06393C27.7889 8.22406 27.4592 8.40857 27.151 8.61268C27.0101 8.70613 26.8729 8.80406 26.7407 8.90554C26.5652 8.73593 26.3901 8.59315 26.2292 8.50225C26.0182 8.38392 25.8347 8.41489 25.6 8.46798C25.4269 8.50751 25.2261 8.55877 24.9527 8.58584C24.442 8.63716 24.1269 9.00934 24.0306 9.31413C24.0094 9.37886 23.9904 9.44524 23.9717 9.51652C23.9036 9.78735 23.8201 10.1214 23.6593 10.6746C23.5112 11.1973 23.3626 11.5909 23.2635 11.895C23.2132 12.0501 23.177 12.1793 23.166 12.2845C23.1474 12.4639 23.1186 12.6784 23.1019 12.8925C23.0743 13.2279 23.0796 13.5632 23.1391 13.7564C23.1601 13.825 23.1888 13.8972 23.2208 13.9742C23.3036 14.1719 23.4092 14.3973 23.4882 14.6871C23.4944 14.7097 23.5004 14.7325 23.5063 14.7558C23.5931 15.0919 23.5589 15.2931 23.4672 15.5267C23.4304 15.6205 23.2504 15.7282 23.0675 15.8486C22.8078 16.017 22.544 16.2183 22.6747 16.3791C22.7051 16.4162 22.7614 16.4492 22.8206 16.4828C22.9296 16.5447 23.0477 16.6052 23.0349 16.7075C23.0305 16.7433 22.989 16.7872 22.9487 16.8308C22.9044 16.8787 22.8616 16.9265 22.8703 16.9617C22.9026 17.0927 22.9613 17.2115 23.0157 17.3146C23.0857 17.4477 23.1487 17.5566 23.1396 17.6468C23.1235 17.8081 23.2598 17.9161 23.3985 18.0141C23.5049 18.0899 23.6132 18.161 23.6626 18.2627C23.803 18.5551 24.1822 18.8497 24.6475 19.0194C24.8229 19.0834 24.8267 19.2636 24.8504 19.504C24.865 19.653 24.887 19.825 24.9619 19.9965C25.0046 20.094 25.1371 20.0637 25.2562 20.0318C25.3664 20.0027 25.4659 19.9728 25.487 20.0489C25.5056 20.1161 25.4261 20.2825 25.3533 20.4423C25.272 20.6199 25.1991 20.7894 25.2726 20.7981C25.3115 20.8025 25.3976 20.752 25.498 20.6899C25.5377 20.6654 25.5795 20.6392 25.6219 20.6138C25.6006 20.6438 25.5822 20.671 25.5685 20.6917C25.471 20.8379 25.4743 20.9512 25.4809 21.063C25.4835 21.1076 25.4867 21.1518 25.4835 21.198C25.4717 21.368 25.5933 21.4697 25.6999 21.5215C25.7448 21.5435 25.7581 21.613 25.7751 21.6945C25.7902 21.7668 25.8084 21.8486 25.8538 21.9134C25.8796 21.9503 25.8842 22.0096 25.8883 22.0591C25.8912 22.095 25.8939 22.1256 25.9041 22.1383C25.913 22.1493 25.9445 22.1086 25.9795 22.0625C26.0048 22.0294 26.032 21.9934 26.0543 21.9721C26.1075 21.9211 26.1459 21.9163 26.1576 21.9462C26.1629 21.96 26.1623 21.9814 26.1618 22.0026C26.1612 22.0274 26.1605 22.0523 26.1696 22.0652C26.2111 22.1246 26.2906 22.0971 26.3715 22.067C26.4609 22.0341 26.5508 21.9978 26.605 22.0741C26.6221 22.0981 26.6333 22.142 26.6445 22.1845C26.6563 22.2291 26.6684 22.2721 26.6862 22.2891C26.759 22.3581 26.8832 22.2689 26.9933 22.1842C27.0667 22.1281 27.1344 22.0742 27.1815 22.0718C27.2682 22.0677 27.3528 21.9354 27.4139 21.8375C27.4456 21.7867 27.4712 21.7448 27.488 21.7348C27.4987 21.7423 27.5093 21.7505 27.5195 21.7591C27.5273 21.7729 27.5354 21.7871 27.5469 21.7865C27.5478 21.7864 27.5487 21.786 27.5496 21.786C27.6057 21.8397 27.6587 21.9074 27.712 21.974C27.8315 22.1237 27.9634 22.2703 28.1365 22.2364C28.1738 22.2291 28.2202 22.1741 28.2663 22.1177C28.3229 22.0487 28.3791 21.9775 28.4227 21.9899C28.5262 22.0193 28.6202 22.1351 28.7196 22.2476C28.8666 22.4165 29.0289 22.5775 29.1893 22.4212C29.2417 22.3697 29.2933 22.2818 29.3434 22.1926C29.3713 22.1429 29.3988 22.0927 29.4261 22.0487C29.4192 22.1311 29.4148 22.2085 29.4107 22.2806C29.4021 22.4293 29.3948 22.5566 29.365 22.6642C29.2952 22.9186 29.2034 23.2674 29.202 23.5243C29.2018 23.594 29.1969 23.6715 29.1917 23.7495C29.1789 23.9451 29.1642 24.1451 29.2332 24.238C29.2788 24.3007 29.404 24.4436 29.4858 24.294C29.5034 24.2614 29.5143 24.1967 29.526 24.1248C29.5317 24.0903 29.5375 24.0542 29.5445 24.019C29.5636 23.9222 29.5905 23.8329 29.6431 23.8062C29.6552 23.8001 29.6683 23.7945 29.6818 23.7893C29.7357 23.7684 29.7957 23.7446 29.8148 23.6401C29.8369 23.5196 29.8266 23.3827 29.8157 23.2231C29.8009 23.0152 29.7865 22.7683 29.8245 22.4688C29.832 22.4095 29.8492 22.3887 29.8621 22.3728C29.8712 22.3617 29.878 22.3527 29.878 22.335C29.878 22.3146 29.8731 22.2724 29.8671 22.219C29.8454 22.0305 29.812 21.7014 29.901 21.6832C29.9253 21.6782 29.9543 21.6924 29.9804 21.705C30.0189 21.7237 30.0512 21.7387 30.0515 21.6845C30.0515 21.6639 30.0511 21.6416 30.0503 21.6186C30.08 21.623 30.1096 21.6272 30.1393 21.6312C30.1822 21.6923 30.2345 21.6821 30.2997 21.668C30.3156 21.6646 30.3323 21.6611 30.3497 21.6582C30.409 21.6649 30.4684 21.6708 30.5278 21.6763C30.5773 21.697 30.6321 21.7339 30.6958 21.7953C30.823 21.9184 30.9579 22.1312 31.0986 22.336C31.1577 22.4223 31.2184 22.5072 31.2788 22.5833C31.2648 22.5973 31.2527 22.6128 31.2449 22.6323C31.1915 22.7656 31.2051 23.002 31.2155 23.2202C31.2224 23.3653 31.2279 23.5023 31.2104 23.5945C31.178 23.7634 31.2161 23.9468 31.2456 24.0823C31.2608 24.1526 31.2731 24.2102 31.2705 24.2462C31.2684 24.2751 31.2543 24.291 31.2396 24.3074C31.2269 24.3217 31.2137 24.3366 31.2076 24.3605C31.1331 24.6511 31.1913 24.8028 31.286 25.022C31.3378 25.143 31.4 25.2844 31.4525 25.4818C31.5045 25.6914 31.5112 25.7544 31.4533 25.8514C31.5275 25.9468 31.6032 26.0414 31.6802 26.1354C31.7016 26.1244 31.7066 26.0557 31.7095 25.9426C31.715 25.7407 31.835 25.6434 31.9275 25.5653C31.9703 25.5293 32.007 25.4975 32.0238 25.4626C32.1122 25.2769 32.0219 25.0675 31.9472 24.8825C31.9057 24.7807 31.8681 24.6862 31.8623 24.6083C31.8597 24.5749 31.8452 24.5446 31.8306 24.5137C31.8193 24.4897 31.8078 24.4654 31.8015 24.4391C31.7562 24.2479 31.7888 24.0908 31.8152 23.9449C31.8304 23.8614 31.8438 23.7813 31.8417 23.701C31.8411 23.6765 31.8393 23.6518 31.8373 23.6279C31.8344 23.593 31.8317 23.5597 31.8333 23.5302C31.8368 23.4629 31.8659 23.4106 31.8968 23.3533C31.9127 23.324 31.9291 23.2933 31.9427 23.2586C31.9604 23.2136 31.9492 23.136 31.9373 23.055C31.9289 22.9977 31.9203 22.9387 31.9207 22.888C31.9214 22.7962 31.9622 22.7511 31.9996 22.7088C32.0158 22.6904 32.0313 22.6723 32.0427 22.6515C32.0473 22.643 32.0464 22.6293 32.0416 22.6116C32.098 22.5293 32.1485 22.4465 32.1956 22.3651C32.434 21.9542 32.5812 21.6073 33.0576 21.584C33.1484 21.5788 33.2246 21.5301 33.2895 21.4606C33.5795 21.3879 33.8706 21.2989 34.161 21.1924C34.3116 21.3025 34.4596 21.3789 34.6018 21.4178C34.8695 21.4903 35.0416 21.4136 35.2392 21.3167C35.3857 21.2445 35.5465 21.1613 35.7825 21.1037C36.1788 21.0066 36.5654 20.8477 36.9053 20.5691C37.2444 20.293 37.5805 19.9179 37.7813 19.6267C37.8911 19.4694 38.1279 19.3708 38.3485 19.2662C38.6585 19.1209 38.9363 18.9609 38.7505 18.7131C38.6911 18.6341 38.5721 18.5325 38.4552 18.4358C38.372 18.3669 38.2903 18.3003 38.2318 18.2448C38.2829 18.1816 38.3332 18.1173 38.3832 18.0522C38.6005 17.9871 38.8594 17.8349 38.7327 17.5686C38.781 17.4973 38.8282 17.4252 38.8743 17.3548C38.9726 17.2004 39.0668 17.0461 39.1578 16.8864C39.1877 16.8343 39.2174 16.7812 39.2468 16.7274C39.2471 16.7269 39.2474 16.7264 39.2477 16.7259C39.3068 16.6179 39.3643 16.5081 39.4199 16.3978C39.4437 16.3506 39.4671 16.303 39.4903 16.2551C39.5489 16.1338 39.6054 16.0102 39.6599 15.8862C39.6889 15.8208 39.7172 15.7532 39.745 15.6866C39.7902 15.578 39.834 15.4668 39.8761 15.3546C39.9443 15.1721 40.0082 14.9913 40.0678 14.8033C40.0777 14.7726 40.1077 14.7432 40.1531 14.7214C40.1985 14.6996 40.2554 14.6871 40.314 14.6871C40.3726 14.6871 40.4296 14.6999 40.4748 14.7227C40.5197 14.7455 40.5487 14.7766 40.5576 14.8088C40.6115 15.0068 40.6597 15.2035 40.7018 15.4079C40.7278 15.5336 40.752 15.6604 40.7734 15.7868C40.7867 15.8644 40.7987 15.9438 40.8102 16.0218C40.8317 16.1695 40.8501 16.3201 40.865 16.471C40.8708 16.5306 40.8763 16.5903 40.8812 16.6501C40.8929 16.7902 40.9013 16.9322 40.907 17.0749C40.907 17.0757 40.907 17.0766 40.9071 17.0775C40.9098 17.1478 40.912 17.2181 40.9135 17.2877C40.9176 17.5023 40.9157 17.7164 40.9056 17.9362C40.9016 18.05 40.8941 18.1677 40.8849 18.286C40.8798 18.3517 40.8743 18.4174 40.8684 18.482C40.865 18.5172 40.8612 18.5528 40.8573 18.5887C40.771 19.4133 40.5899 20.2396 40.3075 21.0552C40.0268 21.868 39.6475 22.6645 39.1782 23.4188C38.7075 24.1748 38.1459 24.8893 37.5016 25.5434C35.5007 27.593 32.6405 29.0306 29.5445 29.3809C26.3571 29.7701 22.8775 28.9787 20.035 27.0847C19.2346 26.5571 18.4649 25.9294 17.777 25.2448C17.0819 24.5526 16.4631 23.8044 15.9105 22.9785C15.7427 22.7281 15.578 22.4648 15.4183 22.1896Z" fill="black"/>
<path d="M24.5517 51.6819C24.4539 50.5289 25.3767 49.4193 25.3785 48.2624C25.3808 46.826 24.499 45.3667 24.6632 43.9269C24.8275 42.4955 25.0633 41.0572 25.3541 39.6234C25.6449 38.188 25.9906 36.7548 26.3734 35.3186C26.7563 33.8856 27.1762 32.4495 27.6169 31.0153C27.9163 30.0411 28.2253 29.0659 28.5381 28.0919C28.6753 27.6643 28.813 27.238 28.9512 26.8106C29.0546 26.4918 29.158 26.173 29.2613 25.8541C29.2759 25.8098 29.335 25.7673 29.4289 25.736C29.5229 25.7047 29.6432 25.6871 29.7676 25.6871C29.8921 25.6872 30.0127 25.705 30.1064 25.7364C30.1998 25.7678 30.2581 25.8103 30.2721 25.8546C30.3722 26.1762 30.4723 26.4977 30.5725 26.8192C30.6835 27.1763 30.7948 27.5328 30.9051 27.8899C30.3947 27.9461 30.0075 28.0232 29.8365 28.1678C29.7493 28.2416 29.713 28.3491 29.8078 28.4284C29.8931 28.4995 30.045 28.5531 30.1899 28.604C30.3413 28.6572 30.4851 28.7077 30.5359 28.7727C30.6222 28.883 30.8389 28.9879 31.0666 29.098C31.1495 29.1381 31.2339 29.1789 31.3139 29.2209C31.4177 29.5617 31.5207 29.9026 31.6228 30.2433C31.5685 30.375 31.5245 30.496 31.5455 30.5987C31.5643 30.6908 31.6721 30.7751 31.8062 30.8591C31.8219 30.9118 31.8375 30.9646 31.8531 31.0173C31.9536 31.3578 32.0525 31.6984 32.1505 32.0391C32.0143 32.3048 31.882 32.5834 31.8239 32.9456C31.7989 33.1017 31.7252 33.2557 31.6545 33.4038C31.5501 33.6225 31.452 33.8282 31.5254 34.0085C31.5744 34.1291 31.5023 34.2559 31.4303 34.3824C31.3338 34.5521 31.2375 34.7214 31.434 34.8749C31.5575 34.9714 31.7077 35.0601 31.8471 35.1422C32.0687 35.2728 32.2626 35.3869 32.276 35.4903C32.301 35.6845 32.4625 35.8526 32.605 36.0008C32.7763 36.1791 32.9201 36.3286 32.7652 36.4598C32.7417 36.4797 32.7105 36.5025 32.675 36.5282C32.488 36.6633 32.1889 36.8795 32.3533 37.1897C32.4119 37.3002 32.5641 37.404 32.7134 37.5056C32.9308 37.6535 33.1418 37.7972 33.0479 37.9511C33.0339 37.974 32.975 37.998 32.9212 38.0199C32.8528 38.0477 32.7931 38.072 32.845 38.0863C32.9973 38.1285 33.1657 38.1954 33.3489 38.2681C33.4835 38.3215 33.6262 38.3781 33.776 38.4303C33.8606 38.829 33.9417 39.2277 34.0185 39.6265C34.0537 39.8092 34.088 39.9919 34.1214 40.1748C33.8921 40.2682 33.6855 40.3639 33.5292 40.4649C33.325 40.5969 33.2624 40.768 33.1813 40.9886C33.1217 41.1509 33.0519 41.3401 32.909 41.5602C32.6444 41.9677 32.7038 42.3863 32.8456 42.6546C32.8756 42.7113 32.9077 42.7683 32.9425 42.8293C33.0746 43.0607 33.2401 43.3494 33.4226 43.8977C33.5952 44.4164 33.64 44.8576 33.6736 45.189C33.6908 45.3581 33.7046 45.4987 33.7315 45.6064C33.7775 45.7908 33.8185 46.0171 33.8595 46.2443C33.9235 46.5999 33.9877 46.9578 34.0733 47.1603C34.1038 47.2324 34.1415 47.3081 34.1818 47.3898C34.2934 47.6163 34.4281 47.8898 34.5059 48.2668C34.5876 48.6626 34.5319 48.9079 34.4108 49.1627C34.3616 49.2663 34.1671 49.3577 33.9661 49.4518C33.6808 49.5854 33.3831 49.7247 33.472 49.9132C33.4927 49.9572 33.5391 50.0042 33.5877 50.0533C33.6771 50.1435 33.774 50.2411 33.7315 50.341C33.7167 50.3759 33.6639 50.4065 33.6121 50.4366C33.5551 50.4697 33.4994 50.5022 33.4963 50.5389C33.4848 50.6763 33.4979 50.8099 33.5097 50.9286C33.525 51.0817 33.5376 51.2101 33.4915 51.2898C33.4091 51.4318 33.4828 51.5871 33.5579 51.7443C33.6152 51.8645 33.6735 51.9858 33.6627 52.1033C33.6317 52.439 33.7722 52.9006 34.0063 53.3763C34.0948 53.5563 33.9739 53.7088 33.8186 53.9042C33.7221 54.0257 33.6118 54.1638 33.5311 54.3356C33.4853 54.4329 33.593 54.5154 33.6925 54.5917C33.7842 54.662 33.8689 54.7272 33.8211 54.7941C33.7787 54.8531 33.5977 54.8904 33.4257 54.9259C33.2342 54.9654 33.0542 55.0025 33.0893 55.0646C33.108 55.0977 33.1986 55.1378 33.3062 55.1856C33.3488 55.2045 33.3938 55.2247 33.4384 55.246C33.4017 55.245 33.3689 55.2447 33.344 55.2447C33.1683 55.2446 33.0758 55.308 32.9852 55.3702C32.949 55.395 32.9132 55.4197 32.8724 55.44C32.7223 55.5148 32.6979 55.6563 32.7049 55.7645C32.7078 55.8102 32.6533 55.8517 32.5897 55.9001C32.5333 55.943 32.4696 55.9915 32.4326 56.0532C32.4114 56.0884 32.3605 56.1155 32.318 56.1378C32.2872 56.154 32.2609 56.1678 32.254 56.1806C32.2481 56.1916 32.2985 56.2006 32.3552 56.2106C32.396 56.2178 32.4402 56.2257 32.4691 56.2353C32.5381 56.2584 32.5589 56.288 32.5367 56.3088C32.5265 56.3184 32.5069 56.326 32.4874 56.3335C32.4647 56.3423 32.4418 56.351 32.4338 56.363C32.3971 56.4182 32.4545 56.4719 32.5142 56.5277C32.5798 56.589 32.6479 56.6529 32.5971 56.724C32.581 56.7464 32.5443 56.7703 32.5087 56.7934C32.4714 56.8176 32.4354 56.8411 32.4259 56.861C32.387 56.9421 32.5126 57.0184 32.6281 57.0885C32.705 57.1351 32.7773 57.1791 32.7938 57.22C32.8241 57.2949 32.9749 57.335 33.0863 57.3647C33.144 57.38 33.1914 57.3926 33.2057 57.4057C33.2015 57.4178 33.1965 57.43 33.1911 57.4419C33.18 57.4529 33.1685 57.4643 33.1722 57.4749C33.1725 57.4757 33.1731 57.4765 33.1734 57.4773C33.1369 57.5443 33.085 57.61 33.0333 57.6754C32.9171 57.8222 32.8021 57.9672 32.867 58.1205C32.8809 58.1535 32.9432 58.1872 33.0065 58.2214C33.084 58.2634 33.1633 58.3063 33.1576 58.35C33.144 58.4542 33.0413 58.5594 32.9401 58.663C32.7879 58.8188 32.6392 58.971 32.8024 59.111C32.8562 59.1572 32.9459 59.2023 33.0363 59.2475C33.0867 59.2726 33.1375 59.298 33.1819 59.3235C33.0995 59.3181 33.022 59.3152 32.9498 59.3125C32.801 59.307 32.6736 59.3022 32.5654 59.2777C32.3096 59.2197 31.9576 59.154 31.7008 59.1613C31.6311 59.1633 31.5535 59.1617 31.4754 59.1599C31.2794 59.1555 31.0791 59.1511 30.9886 59.2049C30.9276 59.2412 30.7875 59.3344 30.9374 59.3937C30.9701 59.4066 31.0348 59.4145 31.1068 59.4232C31.2361 59.439 31.3892 59.4577 31.4248 59.5139C31.4308 59.5233 31.4362 59.5336 31.4413 59.5443C31.4614 59.5867 31.4836 59.6341 31.5875 59.6519C31.7072 59.6723 31.8444 59.668 32.0042 59.6629C32.2125 59.6563 32.4598 59.6484 32.7579 59.6924C32.8168 59.7011 32.837 59.7178 32.8523 59.7303C32.8631 59.7392 32.8718 59.746 32.8895 59.7467C32.9099 59.7474 32.9523 59.7446 33.0059 59.741C33.195 59.7283 33.5256 59.7062 33.5396 59.7983C33.5433 59.8232 33.5276 59.8517 33.5134 59.8773C33.4924 59.9149 33.4751 59.9462 33.5292 59.9504C33.5497 59.952 33.572 59.9531 33.595 59.954C33.5885 59.984 33.582 60.014 33.5755 60.044C33.5111 60.0824 33.5166 60.1364 33.5237 60.2038C33.5255 60.2201 33.5271 60.2374 33.528 60.2553C33.5147 60.3144 33.5014 60.3736 33.4878 60.4328C33.4605 60.4797 33.4159 60.5296 33.3452 60.5823C33.2036 60.6879 32.9699 60.7797 32.7415 60.8695C32.6452 60.9073 32.5496 60.9448 32.4624 60.9828C32.4517 60.968 32.439 60.9546 32.4216 60.9443C32.3022 60.8739 32.0674 60.8457 31.8513 60.8197C31.7076 60.8024 31.572 60.7861 31.4845 60.7591C31.3243 60.7097 31.1369 60.7146 30.9983 60.7183C30.9265 60.7201 30.8676 60.7216 30.8326 60.715C30.8046 60.7097 30.7914 60.6974 30.7778 60.6848C30.7659 60.6738 30.7535 60.6624 30.7309 60.6551C30.4566 60.5667 30.2973 60.5932 30.0656 60.6319C29.9377 60.6532 29.7878 60.6781 29.5842 60.6896C29.3688 60.6994 29.3057 60.6961 29.2199 60.6498C29.1135 60.6859 29.0071 60.722 28.9006 60.7581C28.9076 60.7722 28.9741 60.783 29.0846 60.7981C29.2821 60.825 29.3542 60.9128 29.4106 60.9814C29.4367 61.0132 29.4595 61.0408 29.4898 61.0564C29.6508 61.1394 29.875 61.1153 30.0723 61.094C30.1808 61.0823 30.2813 61.0715 30.3586 61.0799C30.3917 61.0835 30.4245 61.0784 30.4579 61.0732C30.4838 61.0693 30.5101 61.0652 30.5371 61.065C30.7336 61.0639 30.8794 61.113 31.0148 61.1586C31.0923 61.1846 31.1667 61.2095 31.2451 61.2233C31.269 61.2275 31.2933 61.2308 31.317 61.2339C31.3515 61.2385 31.3844 61.2429 31.4126 61.2499C31.4769 61.2657 31.5202 61.2984 31.5674 61.3342C31.5916 61.3525 31.6169 61.3717 31.6466 61.3898C31.6851 61.4133 31.7628 61.4217 31.844 61.4306C31.9014 61.437 31.9604 61.4436 32.0091 61.4557C32.0971 61.4777 32.1289 61.5221 32.1584 61.5633C32.1712 61.5813 32.184 61.5987 32.2004 61.6133C32.2071 61.6192 32.2205 61.6221 32.2388 61.6227C32.3003 61.6904 32.3631 61.755 32.4246 61.8179C32.7331 62.1332 33.0005 62.4061 32.8066 62.8137C32.77 62.8908 32.7773 62.9735 32.8066 63.0571C32.7296 63.3246 32.65 63.5922 32.5684 63.8596C32.3914 63.9126 32.2427 63.9773 32.1261 64.054C31.9071 64.1979 31.8603 64.346 31.805 64.5207C31.7642 64.6499 31.7185 64.7937 31.5954 64.9612C31.3886 65.2427 31.2136 65.5317 31.1226 65.8578C31.0321 66.1825 30.9654 66.5542 30.9417 66.8172C30.9288 66.9606 30.7704 67.1111 30.623 67.2515C30.4157 67.4489 30.2299 67.626 30.4994 67.7342C30.5855 67.7687 30.7349 67.8021 30.8801 67.8346C30.9836 67.8578 31.0846 67.8806 31.1598 67.9029C31.1364 67.9625 31.1133 68.0221 31.0897 68.0816C30.9102 68.1875 30.7177 68.352 30.9179 68.511C30.8932 68.5724 30.8686 68.6339 30.8436 68.6933C30.7914 68.8228 30.7385 68.9495 30.6852 69.0774C30.6676 69.1192 30.6499 69.1613 30.6322 69.2036C30.632 69.204 30.6318 69.2044 30.6316 69.2048C30.5959 69.2899 30.5599 69.3756 30.5237 69.4599C30.5083 69.496 30.4929 69.5321 30.4774 69.5682C30.4383 69.66 30.3989 69.7524 30.3592 69.8432C30.3381 69.8913 30.3171 69.9398 30.2959 69.9884C30.2613 70.0673 30.2266 70.1468 30.1917 70.2259C30.1352 70.3537 30.0781 70.481 30.0205 70.6085C30.011 70.6293 29.9811 70.6494 29.9358 70.6641C29.8904 70.6788 29.8336 70.6871 29.7749 70.6871C29.7163 70.6871 29.6593 70.6787 29.6141 70.6639C29.5691 70.6492 29.5399 70.6291 29.5306 70.6083C29.4746 70.4807 29.4192 70.3533 29.3643 70.2253C29.3303 70.1463 29.2961 70.0668 29.2626 69.9879C29.2419 69.9393 29.2215 69.8908 29.201 69.8427C29.1624 69.7519 29.1239 69.6593 29.0859 69.5675C29.0708 69.5314 29.0558 69.4953 29.0408 69.4592C29.0056 69.3747 28.9707 69.2887 28.936 69.2034C28.9358 69.2029 28.9356 69.2024 28.9354 69.2019C28.9183 69.1599 28.9012 69.118 28.8842 69.0766C28.8325 68.9486 28.7813 68.8218 28.7307 68.6922C28.7033 68.6253 28.6766 68.5555 28.6496 68.4862C28.6346 68.4477 28.6195 68.4092 28.6045 68.3714C28.5966 68.3507 28.5887 68.3298 28.5808 68.3087C28.3935 67.8255 28.2132 67.3457 28.0404 66.8615C27.8675 66.379 27.7017 65.8957 27.5426 65.4139C27.3834 64.9308 27.2312 64.4486 27.085 63.9661C26.1572 60.9034 25.3964 57.8286 24.9203 54.7524C24.852 54.3136 24.7904 53.8633 24.7351 53.4237C24.6798 52.9792 24.6308 52.5439 24.5889 52.0983C24.5758 51.963 24.5635 51.8242 24.5517 51.6819Z" fill="black"/>
<path d="M25.1805 43.0024C26.5763 43.2111 27.9051 43.916 29.3947 44.2683C29.851 44.3733 30.3092 44.4488 30.7703 44.4705C33.2264 44.6032 35.9723 43.6004 37.0463 43.3597C37.0981 43.351 37.1414 43.3438 37.1727 43.3406C39.2318 42.6266 41.3589 41.6856 43.3731 40.6175C44.0545 40.2556 44.7356 39.868 45.3195 39.5077C46.7077 38.6095 48.1137 37.5766 49.4418 36.5027C49.8557 36.1684 50.2774 35.8113 50.6168 35.5162C50.4772 35.7403 50.5757 35.6465 50.6152 35.6061C50.6679 35.5505 50.7337 35.4657 50.7987 35.3788C50.9317 35.1992 51.0707 34.9962 51.2106 34.7867C51.4905 34.3671 51.7746 33.9209 52.0563 33.4768C52.6218 32.5827 53.1888 31.6708 53.7582 30.7603C53.8689 30.5832 53.9795 30.4066 54.0911 30.2277L54.0492 30.3378C54.7982 29.0325 55.322 27.5996 55.8369 26.015C55.8607 25.9425 55.8843 25.8718 55.9082 25.7986C56.1451 25.0873 56.3845 24.3867 56.6242 23.6849C56.8216 23.1077 57.019 22.5308 57.2155 21.9537C57.2429 21.8736 57.3139 21.8036 57.4158 21.7602C57.5179 21.7167 57.642 21.7025 57.7649 21.722C57.8878 21.7416 58.0017 21.7938 58.0849 21.867C58.1679 21.94 58.2128 22.0288 58.2135 22.1134C58.2171 22.7285 58.2196 23.3437 58.2224 23.958C58.2253 24.6403 58.2285 25.321 58.2339 25.9991C58.0206 26.0089 57.8266 26.0298 57.6576 26.066C57.4148 26.1176 57.2232 26.2066 57.0994 26.3501C56.9921 26.4759 56.9259 26.6692 56.9964 26.8327C57.06 26.9787 57.1942 27.1025 57.3219 27.2213C57.4555 27.3451 57.582 27.4636 57.6114 27.596C57.6616 27.8198 57.8405 28.0569 58.0249 28.3131C58.092 28.4059 58.1598 28.5022 58.2225 28.6002C58.195 29.2938 58.1306 30.0161 58.0234 30.7309C57.8923 30.9807 57.7736 31.2053 57.7258 31.4133C57.712 31.4734 57.7074 31.5354 57.7096 31.5991C57.6981 31.6229 57.6756 31.6993 57.6626 31.7224C57.6626 31.8447 57.6936 31.974 57.7361 32.1068C57.712 32.205 57.6876 32.3036 57.6638 32.4009C57.5077 33.0333 57.3491 33.6666 57.187 34.3004C56.8639 34.7138 56.5351 35.1497 56.2039 35.7658C56.0609 36.0313 55.8733 36.2746 55.69 36.5102C55.4178 36.8609 55.1612 37.1832 55.0532 37.5642C54.967 37.8324 54.832 37.9905 54.4516 38.4117C54.4353 38.4294 54.4182 38.4476 54.4001 38.4665C54.1045 38.6926 53.8288 38.8864 53.7763 39.2405C53.7438 39.4674 53.7381 39.7014 53.7327 39.9168C53.7237 40.2602 53.7117 40.5614 53.5799 40.724C53.334 41.0276 53.2198 41.3824 53.1151 41.6964C52.9898 42.0732 52.8783 42.3906 52.582 42.4678C52.5371 42.4795 52.4819 42.4904 52.4208 42.5012C52.0946 42.5614 51.5818 42.648 51.2426 43.1935C51.1217 43.3877 51.0725 43.641 51.0212 43.8905C50.9474 44.2528 50.8683 44.6076 50.5685 44.7461C50.5238 44.7667 50.4479 44.7549 50.3788 44.7438C50.2909 44.7298 50.2142 44.7173 50.226 44.7758C50.2557 44.9232 50.264 45.1043 50.2678 45.3031C50.2672 45.3369 50.2664 45.3713 50.2653 45.4062C50.259 45.5881 50.2516 45.7799 50.2546 45.9713C49.6103 46.6084 48.9791 47.1762 48.3289 47.7246C48.032 47.9749 47.7301 48.2207 47.4279 48.4596C47.1379 48.376 46.8567 48.3122 46.5973 48.2923C46.2556 48.2681 45.9259 48.4018 45.4954 48.5674C45.1782 48.6894 44.8093 48.8267 44.347 48.9251C43.4924 49.1078 42.7714 49.5519 42.3399 49.9252C42.2494 50.004 42.1586 50.0847 42.0607 50.1713C41.7398 50.454 41.3488 50.7991 40.6069 51.2885C40.4347 51.3891 40.2507 51.4888 40.0554 51.5861C38.7085 52.2457 37.6725 52.432 36.911 52.5759C36.5212 52.6452 36.2103 52.6908 35.9689 52.7405C35.5608 52.8251 35.0661 52.9009 34.5772 52.9639C33.812 53.0636 33.0598 53.132 32.6366 53.2156C32.4833 53.2454 32.3287 53.2818 32.1566 53.3197C31.6847 53.4244 31.1139 53.5456 30.339 53.5877C29.6484 53.6246 29.1919 53.5651 28.7584 53.4505C28.6789 53.43 28.6005 53.4076 28.5223 53.3835C28.3091 53.3184 28.1347 53.109 27.9564 52.8918C27.7036 52.5834 27.4476 52.2607 27.0505 52.3072C26.9582 52.3181 26.8553 52.3533 26.7487 52.3901C26.5515 52.4574 26.3375 52.529 26.1345 52.4599C26.0642 52.4359 26.0069 52.375 25.9515 52.3153C25.8906 52.2496 25.8308 52.1853 25.7551 52.1716C25.4725 52.1204 25.1938 52.0915 24.9456 52.0635C24.6257 52.0275 24.3564 51.9927 24.1996 51.9173C23.9199 51.7828 23.5853 51.7932 23.2435 51.7986C22.9826 51.8027 22.7174 51.8041 22.4758 51.7372C22.3377 51.6989 22.1872 51.664 22.0274 51.632C21.4088 51.5093 20.6353 51.4383 19.8034 51.3847C19.4099 51.3591 19.1285 51.1443 18.7716 50.8609C18.5486 50.6839 18.2971 50.4803 17.9577 50.266C17.7653 50.1444 17.5464 50.1734 17.3356 50.1941C17.2093 50.2067 17.0851 50.2158 16.9758 50.1889C16.9078 50.1703 16.8446 50.1414 16.7881 50.0972C16.6484 49.9865 16.6323 49.7769 16.6255 49.5818C16.6177 49.3644 16.6133 49.1606 16.463 49.1215C16.3805 49.0993 16.2545 49.1346 16.1005 49.1729C16.0392 49.1878 15.9753 49.2039 15.9096 49.2183C15.9298 49.1875 15.9464 49.1591 15.9586 49.1374C16.0455 48.9848 15.9563 48.8289 15.8827 48.6813C15.8522 48.6218 15.8217 48.5625 15.8025 48.5038C15.7368 48.2913 15.4831 48.1086 15.2865 47.9924C15.2014 47.9421 15.157 47.8492 15.106 47.7406C15.0597 47.6436 15.0106 47.5357 14.924 47.4342C14.8743 47.3761 14.8556 47.3025 14.8416 47.2421C14.8313 47.1982 14.8225 47.1607 14.8047 47.1403C14.7891 47.1228 14.7458 47.1543 14.6969 47.1898C14.6617 47.2153 14.6235 47.2429 14.5907 47.2556C14.5118 47.2855 14.4514 47.2696 14.4285 47.2272C14.4181 47.2077 14.4163 47.1827 14.4146 47.1579C14.4126 47.129 14.4108 47.1 14.3949 47.0794C14.3207 46.9839 14.2021 46.9717 14.0735 46.9546C13.9328 46.9363 13.7897 46.9188 13.7001 46.7924C13.673 46.7535 13.6555 46.6958 13.6385 46.6398C13.6208 46.5812 13.6033 46.5243 13.5761 46.4929C13.4675 46.3665 13.2699 46.3778 13.0886 46.3879C12.9685 46.395 12.8543 46.4005 12.778 46.3644C12.6403 46.2998 12.4859 46.3725 12.3711 46.4255C12.3117 46.453 12.2628 46.4756 12.2329 46.471C12.2157 46.4528 12.1998 46.4345 12.184 46.4158C12.1733 46.3938 12.1621 46.371 12.143 46.3611C12.1415 46.3604 12.1399 46.3599 12.1384 46.3592C12.0539 46.2493 11.9792 46.1273 11.9085 46.0078C11.7451 45.7361 11.5911 45.4708 11.3134 45.3347C11.2533 45.3052 11.1619 45.3124 11.0703 45.3206C10.9577 45.3303 10.8418 45.3395 10.7773 45.2808C10.6255 45.1424 10.5258 44.9306 10.4331 44.7253C10.2902 44.4138 10.1544 44.1105 9.84087 44.0631C9.73717 44.0473 9.61153 44.0597 9.48539 44.0725C9.41563 44.08 9.34524 44.0875 9.27849 44.0897C9.33941 44.0331 9.3933 43.9772 9.44354 43.9251C9.54709 43.8176 9.63579 43.7257 9.74147 43.6729C9.9908 43.5477 10.3151 43.3591 10.4675 43.1519C10.509 43.0958 10.5609 43.038 10.6133 42.98C10.7448 42.8343 10.8791 42.6856 10.857 42.5497C10.8409 42.4572 10.7962 42.2377 10.6123 42.2794C10.5723 42.2885 10.5192 42.3285 10.46 42.3729C10.354 42.4527 10.2272 42.5463 10.1224 42.5049C10.1047 42.4978 10.0862 42.4893 10.0673 42.48C9.99225 42.4432 9.90795 42.4011 9.81463 42.4583C9.70716 42.5243 9.62507 42.6344 9.52947 42.763C9.40489 42.9303 9.25734 43.1295 8.99892 43.3013C8.94775 43.3353 8.91038 43.3301 8.88188 43.326C8.86185 43.3232 8.84625 43.3213 8.83378 43.334C8.8195 43.3486 8.79626 43.3844 8.76693 43.4299C8.66334 43.59 8.48288 43.8704 8.33657 43.7647C8.29698 43.736 8.26457 43.6878 8.23551 43.6444C8.21111 43.6079 8.18899 43.5749 8.16681 43.5599C8.15022 43.5487 8.13358 43.5477 8.1158 43.5631C8.10016 43.5768 8.08406 43.5923 8.06774 43.6086C8.02738 43.5656 7.98799 43.5234 7.94761 43.4803C7.93209 43.3821 7.84895 43.3182 7.74352 43.2368C7.71818 43.2173 7.69124 43.1962 7.66365 43.1736C7.58383 43.0871 7.50316 42.9996 7.42266 42.9114C7.36944 42.8287 7.32284 42.7288 7.28944 42.6051C7.22193 42.3568 7.23642 42.0566 7.25305 41.7635C7.25967 41.6397 7.26741 41.5176 7.26838 41.4001C7.29811 41.4128 7.32698 41.4221 7.3544 41.4235C7.54109 41.4322 7.7412 41.2962 7.92425 41.1702C8.04604 41.0864 8.16111 41.0076 8.25904 40.9779C8.43846 40.9233 8.55571 40.7767 8.64262 40.6686C8.68769 40.6124 8.72479 40.5666 8.75762 40.5491C8.78397 40.535 8.81055 40.541 8.83808 40.5473C8.86186 40.5525 8.88655 40.5577 8.91205 40.5502C9.22203 40.4581 9.2882 40.304 9.38638 40.0815C9.4405 39.9587 9.50498 39.8154 9.62399 39.6489C9.75317 39.4754 9.80012 39.4329 9.92161 39.4259C9.94201 39.3018 9.96182 39.177 9.98319 39.0533C9.95919 39.0411 9.89978 39.0772 9.80498 39.1407C9.63568 39.2541 9.46528 39.1976 9.33214 39.1519C9.27058 39.1309 9.217 39.1126 9.17479 39.1147C8.95093 39.1267 8.83085 39.321 8.72645 39.4934C8.66893 39.5881 8.61594 39.6761 8.55147 39.7216C8.52392 39.7412 8.50886 39.772 8.49347 39.8033C8.48157 39.8275 8.46956 39.8522 8.45142 39.8723C8.31956 40.0179 8.14998 40.0597 7.99119 40.0964C7.90044 40.1176 7.8132 40.1376 7.73925 40.1755C7.71673 40.1871 7.69511 40.2001 7.67428 40.213C7.64386 40.2317 7.61471 40.2495 7.5851 40.2602C7.51772 40.2848 7.43974 40.2704 7.35444 40.2539C7.31074 40.2454 7.26496 40.2363 7.21758 40.2318C7.15619 40.2259 7.08951 40.2694 7.0196 40.3146C6.9702 40.3465 6.91908 40.3792 6.86691 40.3962C6.77252 40.4269 6.68384 40.3842 6.60157 40.3437C6.56574 40.3261 6.53083 40.3091 6.49739 40.2988C6.48378 40.2946 6.47004 40.2997 6.45609 40.3117C6.31157 40.2533 6.17045 40.1985 6.03298 40.144C5.40608 39.8949 4.84673 39.6416 4.45223 39.0011C4.41834 38.9441 4.38603 38.8838 4.3554 38.8197C4.29056 38.6837 4.18362 38.5655 4.05961 38.461C3.79378 38.0167 3.52946 37.5676 3.26789 37.1129C3.34174 36.9224 3.37784 36.7301 3.37708 36.5424C3.37296 36.1864 3.23265 35.9344 3.0656 35.6309C2.94361 35.4084 2.80585 35.1559 2.70573 34.8199C2.53613 34.2527 2.339 33.6908 2.04623 33.1004C1.75236 32.5111 1.40818 31.8278 1.16961 31.3122C1.03839 31.0322 1.03897 30.6604 1.06307 30.316C1.07673 30.1204 1.09643 29.9301 1.09833 29.7669C1.10909 29.5543 1.06484 29.3997 0.875457 29.3226C0.774268 29.2829 0.613022 29.2634 0.456458 29.2445C0.345012 29.2313 0.235926 29.2174 0.151517 29.1959C0.141877 29.0775 0.133722 28.9643 0.125011 28.8466C0.241722 28.5993 0.344232 28.2501 0.0705169 28.0044C0.0643621 27.8869 0.0563189 27.7615 0.0517959 27.6468C0.0381818 27.3911 0.0288119 27.1433 0.0202385 26.8904C0.0176316 26.8076 0.0157841 26.727 0.0130549 26.6417C0.0130666 26.6408 0.013078 26.64 0.0130897 26.6392C0.00888234 26.4726 0.00526994 26.3038 0.00296956 26.1354C0.00200474 26.0637 0.00183696 25.9946 0.000893474 25.9212C0.000380278 25.7434 -0.00124496 25.5543 0.00180721 25.3774C0.00246733 25.2788 0.00457388 25.1858 0.00643253 25.0874C0.00996232 24.9303 0.0150438 24.7731 0.0219195 24.6136C0.0339457 24.3575 0.0493498 24.105 0.0796532 23.8311C0.0850766 23.788 0.111263 23.7394 0.154761 23.7004C0.198337 23.663 0.255391 23.6376 0.313985 23.6391C0.372622 23.6387 0.429532 23.6593 0.476096 23.6852C0.522512 23.7131 0.554521 23.7486 0.567316 23.7849C0.646998 24.018 0.740899 24.2443 0.836475 24.4685C0.896139 24.6087 0.957571 24.7465 1.01953 24.884C1.05806 24.9704 1.09562 25.0514 1.13495 25.1378C1.20711 25.2919 1.28331 25.4576 1.35769 25.6122C1.38777 25.6762 1.41704 25.7359 1.44711 25.7984C1.51766 25.9451 1.58886 26.092 1.66025 26.2369C1.66068 26.2378 1.66111 26.2387 1.66154 26.2396C1.69729 26.3134 1.73206 26.3823 1.76743 26.4535C1.87577 26.6727 1.98398 26.8868 2.09491 27.1081C2.15278 27.22 2.21292 27.3413 2.27222 27.4569C2.30537 27.5218 2.33969 27.5902 2.37208 27.6517C2.3898 27.6862 2.40768 27.7215 2.42578 27.7573C2.667 28.2267 2.91059 28.6929 3.15546 29.1575C3.306 29.3973 3.49782 29.6535 3.71174 29.9115C4.21531 30.5159 4.82333 31.1218 5.45338 31.7218C6.08506 32.3217 6.74581 32.9191 7.41465 33.5195C7.99639 34.0415 8.585 34.5629 9.17843 35.0915C10.3695 36.1302 11.5757 36.8845 13.0495 37.837C15.6188 39.472 18.7062 41.4392 20.5203 42.0165C20.5262 42.0176 20.5318 42.0185 20.5371 42.0192C21.023 42.1588 21.7147 42.3344 22.3878 42.4806C22.9726 42.609 23.5691 42.7265 24.1779 42.8374C24.2928 42.858 24.4087 42.8782 24.5247 42.8978C24.7374 42.9333 24.9557 42.9684 25.1805 43.0024Z" fill="black"/>
</svg>
