<svg width="59" height="78" viewBox="0 0 59 78" fill="none" xmlns="http://www.w3.org/2000/svg">
<path d="M15.4183 22.1896C14.102 19.9061 14.3956 17.2271 14.3793 14.8464C14.3788 14.7933 14.3783 14.7403 14.3778 14.6871C14.3243 11.7777 14.4571 8.34331 16.3924 5.78366C18.3049 3.24435 21.0314 1.39131 23.9772 0.550594C25.815 0.0197165 27.7296 -0.120741 29.5445 0.101058C30.6377 0.233248 31.7077 0.494217 32.7182 0.873535C35.409 1.87727 37.6351 3.7293 39.0563 5.93219C40.0274 7.42733 40.6414 9.08391 40.883 10.7298C40.99 11.4522 41.0264 12.1714 40.997 12.876C40.9748 13.4007 40.9165 13.9204 40.8246 14.4233C40.8116 14.4935 40.7533 14.5614 40.6598 14.6108C40.5661 14.6603 40.4457 14.6872 40.3213 14.6871C40.1968 14.687 40.0763 14.6602 39.9823 14.6149C39.8886 14.5694 39.8295 14.509 39.814 14.4457C39.7034 13.9877 39.5622 13.5409 39.3935 13.1156C39.2061 12.6418 38.9844 12.1913 38.7341 11.7676C39.1976 11.5413 39.5316 11.3124 39.6193 11.0509C39.6643 10.9178 39.6394 10.7507 39.5069 10.6761C39.3879 10.609 39.217 10.595 39.0548 10.5848C38.8852 10.5741 38.7251 10.5678 38.6411 10.5067C38.4982 10.4027 38.2392 10.3666 37.9703 10.342C37.8723 10.333 37.7728 10.3253 37.6767 10.3157C37.3769 9.9782 37.0573 9.66851 36.7224 9.38762C36.6686 9.22343 36.6082 9.07566 36.5101 8.98899C36.422 8.91118 36.2706 8.89994 36.1023 8.91178C36.0479 8.87376 35.9933 8.83649 35.9383 8.79991C35.5839 8.56357 35.2187 8.35642 34.8469 8.17948C34.6913 7.87763 34.4991 7.5676 34.1557 7.28372C34.0078 7.16181 33.8823 7.004 33.7538 6.85445C33.5654 6.63419 33.3689 6.43185 33.1307 6.40862C32.9722 6.39329 32.8541 6.26766 32.7279 6.1438C32.5611 5.97846 32.3767 5.81614 32.1335 5.94923C31.981 6.03298 31.8348 6.14893 31.7038 6.25929C31.4957 6.43501 31.3262 6.59597 31.2068 6.58523C30.9826 6.56517 30.7638 6.69449 30.584 6.81471C30.3646 6.95908 30.1984 7.08897 30.0662 6.92495C30.046 6.9001 30.023 6.86739 29.9966 6.83037C29.8999 6.69353 29.7542 6.50001 29.5445 6.45725C29.4559 6.43916 29.3576 6.44839 29.2533 6.50104C29.1289 6.56396 29.0184 6.72292 28.9195 6.88048C28.7743 7.11006 28.6527 7.33563 28.4817 7.26486C28.456 7.25429 28.4227 7.19966 28.3918 7.14994C28.3525 7.0867 28.3168 7.03192 28.3097 7.08564C28.289 7.24322 28.2477 7.42088 28.2099 7.61436C28.1819 7.7565 28.1562 7.90715 28.1386 8.06393C27.7889 8.22406 27.4592 8.40857 27.151 8.61269C27.0101 8.70614 26.8729 8.80407 26.7407 8.90554C26.5652 8.73593 26.3901 8.59315 26.2292 8.50226C26.0182 8.38392 25.8347 8.41489 25.6 8.46799C25.4269 8.50752 25.2261 8.55877 24.9527 8.58585C24.442 8.63716 24.1269 9.00934 24.0306 9.31414C24.0094 9.37887 23.9904 9.44524 23.9717 9.51652C23.9036 9.78735 23.8201 10.1214 23.6593 10.6746C23.5112 11.1973 23.3626 11.5909 23.2635 11.895C23.2132 12.0501 23.177 12.1793 23.166 12.2845C23.1474 12.4639 23.1186 12.6784 23.1019 12.8925C23.0743 13.2279 23.0796 13.5632 23.1391 13.7564C23.1601 13.825 23.1888 13.8972 23.2208 13.9742C23.3036 14.1719 23.4092 14.3973 23.4882 14.6871C23.4944 14.7097 23.5004 14.7325 23.5063 14.7558C23.5931 15.0919 23.5589 15.2931 23.4672 15.5267C23.4304 15.6205 23.2504 15.7282 23.0675 15.8486C22.8078 16.017 22.544 16.2183 22.6747 16.3791C22.7051 16.4162 22.7614 16.4492 22.8207 16.4828C22.9296 16.5447 23.0477 16.6052 23.0349 16.7075C23.0305 16.7433 22.989 16.7872 22.9487 16.8308C22.9044 16.8787 22.8616 16.9265 22.8703 16.9617C22.9026 17.0927 22.9613 17.2115 23.0157 17.3146C23.0857 17.4477 23.1487 17.5566 23.1396 17.6468C23.1235 17.8081 23.2598 17.9161 23.3985 18.0141C23.5049 18.0899 23.6132 18.161 23.6626 18.2627C23.803 18.5551 24.1822 18.8497 24.6475 19.0194C24.8229 19.0834 24.8267 19.2636 24.8504 19.504C24.865 19.653 24.887 19.825 24.9619 19.9965C25.0046 20.094 25.1371 20.0637 25.2562 20.0318C25.3664 20.0027 25.4659 19.9728 25.487 20.0489C25.5056 20.1161 25.4261 20.2825 25.3533 20.4423C25.272 20.6199 25.1991 20.7894 25.2726 20.7981C25.3115 20.8025 25.3976 20.752 25.498 20.6899C25.5377 20.6654 25.5795 20.6392 25.6219 20.6138C25.6006 20.6438 25.5822 20.671 25.5685 20.6917C25.471 20.8379 25.4743 20.9512 25.4809 21.063C25.4835 21.1076 25.4867 21.1519 25.4835 21.198C25.4717 21.368 25.5933 21.4697 25.6999 21.5215C25.7448 21.5435 25.7581 21.613 25.7751 21.6945C25.7902 21.7668 25.8084 21.8486 25.8538 21.9134C25.8796 21.9503 25.8842 22.0096 25.8883 22.0591C25.8912 22.095 25.8939 22.1256 25.9041 22.1383C25.913 22.1493 25.9445 22.1086 25.9795 22.0625C26.0048 22.0294 26.032 21.9934 26.0543 21.9721C26.1075 21.9211 26.1459 21.9163 26.1576 21.9462C26.1629 21.96 26.1623 21.9814 26.1618 22.0026C26.1612 22.0274 26.1605 22.0523 26.1696 22.0652C26.2111 22.1246 26.2906 22.0971 26.3715 22.067C26.4609 22.0341 26.5508 21.9978 26.605 22.0741C26.6221 22.0981 26.6333 22.142 26.6445 22.1845C26.6563 22.2291 26.6684 22.2722 26.6862 22.2891C26.759 22.3581 26.8832 22.2689 26.9933 22.1843C27.0667 22.1281 27.1344 22.0742 27.1815 22.0718C27.2682 22.0677 27.3528 21.9354 27.4139 21.8375C27.4456 21.7867 27.4712 21.7449 27.488 21.7348C27.4987 21.7423 27.5093 21.7505 27.5195 21.7591C27.5273 21.7729 27.5354 21.7871 27.5469 21.7865C27.5478 21.7865 27.5487 21.786 27.5496 21.786C27.6057 21.8397 27.6587 21.9074 27.712 21.974C27.8315 22.1237 27.9634 22.2703 28.1365 22.2364C28.1738 22.2291 28.2202 22.1741 28.2663 22.1177C28.3229 22.0487 28.3791 21.9775 28.4227 21.9899C28.5262 22.0193 28.6202 22.1351 28.7196 22.2476C28.8666 22.4165 29.0289 22.5775 29.1893 22.4213C29.2417 22.3697 29.2933 22.2818 29.3434 22.1926C29.3713 22.1429 29.3988 22.0927 29.4261 22.0487C29.4192 22.1311 29.4148 22.2085 29.4107 22.2806C29.4021 22.4293 29.3948 22.5566 29.365 22.6642C29.2952 22.9186 29.2034 23.2674 29.202 23.5243C29.2018 23.594 29.1969 23.6715 29.1917 23.7495C29.1789 23.9451 29.1642 24.1451 29.2332 24.238C29.2788 24.3007 29.404 24.4436 29.4858 24.294C29.5034 24.2614 29.5143 24.1967 29.526 24.1248C29.5317 24.0903 29.5375 24.0542 29.5445 24.019C29.5636 23.9222 29.5905 23.8329 29.6431 23.8062C29.6552 23.8001 29.6683 23.7945 29.6818 23.7893C29.7357 23.7684 29.7957 23.7446 29.8148 23.6401C29.8369 23.5196 29.8266 23.3827 29.8157 23.2231C29.8009 23.0152 29.7865 22.7683 29.8245 22.4688C29.832 22.4095 29.8492 22.3887 29.8621 22.3728C29.8712 22.3617 29.878 22.3527 29.878 22.335C29.878 22.3146 29.8731 22.2724 29.8671 22.219C29.8454 22.0305 29.812 21.7014 29.901 21.6832C29.9253 21.6782 29.9543 21.6924 29.9804 21.705C30.0189 21.7237 30.0512 21.7387 30.0515 21.6845C30.0515 21.6639 30.0511 21.6416 30.0503 21.6186C30.08 21.623 30.1096 21.6272 30.1393 21.6312C30.1822 21.6923 30.2345 21.6821 30.2997 21.668C30.3156 21.6646 30.3323 21.6611 30.3497 21.6582C30.409 21.6649 30.4684 21.6708 30.5278 21.6763C30.5773 21.697 30.6321 21.7339 30.6958 21.7953C30.823 21.9184 30.9579 22.1312 31.0986 22.336C31.1577 22.4223 31.2184 22.5072 31.2788 22.5833C31.2648 22.5973 31.2527 22.6128 31.2449 22.6323C31.1915 22.7656 31.2051 23.002 31.2155 23.2202C31.2224 23.3653 31.2279 23.5023 31.2104 23.5946C31.178 23.7634 31.2161 23.9468 31.2456 24.0824C31.2608 24.1527 31.2731 24.2103 31.2705 24.2462C31.2684 24.2751 31.2543 24.291 31.2396 24.3074C31.2269 24.3217 31.2137 24.3366 31.2076 24.3605C31.1331 24.6512 31.1913 24.8028 31.286 25.022C31.3378 25.143 31.4 25.2844 31.4525 25.4818C31.5045 25.6914 31.5112 25.7544 31.4533 25.8514C31.5275 25.9468 31.6032 26.0414 31.6802 26.1354C31.7016 26.1244 31.7066 26.0557 31.7095 25.9426C31.715 25.7407 31.835 25.6434 31.9275 25.5653C31.9703 25.5293 32.007 25.4975 32.0238 25.4626C32.1122 25.2769 32.0219 25.0675 31.9472 24.8825C31.9057 24.7807 31.8681 24.6862 31.8623 24.6083C31.8597 24.5749 31.8452 24.5446 31.8306 24.5137C31.8193 24.4897 31.8078 24.4654 31.8015 24.4391C31.7562 24.2479 31.7888 24.0908 31.8152 23.9449C31.8304 23.8614 31.8438 23.7813 31.8417 23.701C31.8411 23.6765 31.8393 23.6518 31.8373 23.6279C31.8344 23.593 31.8317 23.5597 31.8333 23.5302C31.8368 23.4629 31.8659 23.4106 31.8968 23.3533C31.9127 23.324 31.9291 23.2933 31.9427 23.2586C31.9604 23.2136 31.9492 23.136 31.9373 23.055C31.9289 22.9977 31.9203 22.9388 31.9207 22.888C31.9214 22.7962 31.9622 22.7511 31.9996 22.7088C32.0158 22.6904 32.0313 22.6723 32.0427 22.6515C32.0473 22.643 32.0464 22.6293 32.0416 22.6116C32.098 22.5294 32.1485 22.4465 32.1956 22.3651C32.434 21.9542 32.5812 21.6073 33.0576 21.584C33.1484 21.5788 33.2246 21.5301 33.2895 21.4606C33.5795 21.3879 33.8706 21.2989 34.161 21.1924C34.3116 21.3025 34.4596 21.3789 34.6018 21.4178C34.8695 21.4903 35.0416 21.4136 35.2392 21.3167C35.3857 21.2445 35.5465 21.1613 35.7825 21.1037C36.1788 21.0066 36.5654 20.8477 36.9053 20.5691C37.2444 20.2931 37.5805 19.9179 37.7813 19.6267C37.8911 19.4694 38.1279 19.3708 38.3485 19.2662C38.6585 19.1209 38.9363 18.9609 38.7505 18.7131C38.6911 18.6341 38.5721 18.5325 38.4552 18.4358C38.372 18.3669 38.2903 18.3003 38.2318 18.2448C38.2829 18.1816 38.3332 18.1173 38.3832 18.0522C38.6005 17.9871 38.8594 17.8349 38.7327 17.5686C38.781 17.4973 38.8282 17.4252 38.8743 17.3548C38.9726 17.2004 39.0668 17.0461 39.1578 16.8864C39.1877 16.8343 39.2174 16.7812 39.2468 16.7274C39.2471 16.7269 39.2474 16.7264 39.2477 16.7259C39.3068 16.6179 39.3643 16.5081 39.4199 16.3978C39.4437 16.3506 39.4671 16.303 39.4903 16.2551C39.5489 16.1338 39.6054 16.0102 39.6599 15.8862C39.6889 15.8208 39.7172 15.7532 39.745 15.6866C39.7902 15.578 39.834 15.4668 39.8761 15.3546C39.9443 15.1721 40.0082 14.9913 40.0678 14.8033C40.0777 14.7726 40.1077 14.7432 40.1531 14.7214C40.1985 14.6996 40.2554 14.6871 40.314 14.6871C40.3726 14.6871 40.4296 14.6999 40.4748 14.7227C40.5197 14.7455 40.5487 14.7766 40.5576 14.8088C40.6115 15.0068 40.6597 15.2035 40.7018 15.4079C40.7278 15.5336 40.752 15.6604 40.7734 15.7868C40.7867 15.8644 40.7987 15.9438 40.8102 16.0218C40.8317 16.1696 40.8501 16.3201 40.865 16.471C40.8708 16.5306 40.8763 16.5903 40.8812 16.6501C40.8929 16.7902 40.9013 16.9322 40.907 17.0749C40.907 17.0758 40.907 17.0766 40.9071 17.0775C40.9098 17.1478 40.912 17.2181 40.9135 17.2877C40.9176 17.5023 40.9157 17.7164 40.9056 17.9362C40.9016 18.05 40.8941 18.1677 40.8849 18.286C40.8798 18.3517 40.8743 18.4174 40.8684 18.482C40.865 18.5172 40.8612 18.5528 40.8573 18.5887C40.771 19.4133 40.5899 20.2396 40.3075 21.0552C40.0268 21.868 39.6475 22.6645 39.1782 23.4188C38.7075 24.1748 38.1459 24.8893 37.5016 25.5434C35.5007 27.593 32.6405 29.0306 29.5445 29.3809C26.3571 29.7701 22.8775 28.9788 20.035 27.0847C19.2346 26.5571 18.4649 25.9294 17.777 25.2448C17.0819 24.5526 16.4631 23.8044 15.9105 22.9785C15.7427 22.7281 15.578 22.4648 15.4183 22.1896Z" fill="black"/>
<path d="M24.5517 51.6819C24.4539 50.5289 25.3767 49.4193 25.3785 48.2624C25.3808 46.826 24.499 45.3667 24.6632 43.9269C24.8275 42.4955 25.0633 41.0572 25.3541 39.6234C25.6449 38.188 25.9906 36.7548 26.3734 35.3186C26.7563 33.8856 27.1762 32.4495 27.6169 31.0153C27.9163 30.0411 28.2253 29.0659 28.5381 28.0919C28.6753 27.6643 28.813 27.238 28.9512 26.8106C29.0546 26.4918 29.158 26.173 29.2613 25.8541C29.2759 25.8098 29.335 25.7673 29.4289 25.736C29.5229 25.7047 29.6432 25.6871 29.7676 25.6871C29.8921 25.6872 30.0127 25.705 30.1064 25.7364C30.1998 25.7678 30.2581 25.8103 30.2721 25.8546C30.3722 26.1762 30.4723 26.4977 30.5725 26.8192C30.6835 27.1763 30.7948 27.5328 30.9051 27.8899C30.3947 27.9461 30.0075 28.0232 29.8365 28.1678C29.7493 28.2416 29.713 28.3491 29.8078 28.4284C29.8931 28.4995 30.045 28.5531 30.1899 28.604C30.3413 28.6572 30.4851 28.7077 30.5359 28.7727C30.6222 28.883 30.8389 28.9879 31.0666 29.098C31.1495 29.1381 31.2339 29.1789 31.3139 29.2209C31.4177 29.5617 31.5207 29.9026 31.6228 30.2433C31.5685 30.375 31.5245 30.496 31.5455 30.5987C31.5643 30.6908 31.6721 30.7751 31.8062 30.8591C31.8219 30.9118 31.8375 30.9646 31.8531 31.0173C31.9536 31.3578 32.0525 31.6984 32.1505 32.0391C32.0143 32.3049 31.882 32.5834 31.8239 32.9456C31.7989 33.1017 31.7252 33.2557 31.6545 33.4038C31.5501 33.6225 31.452 33.8282 31.5254 34.0085C31.5744 34.1291 31.5023 34.2559 31.4303 34.3824C31.3338 34.5521 31.2375 34.7214 31.434 34.8749C31.5575 34.9714 31.7077 35.0601 31.8471 35.1422C32.0687 35.2728 32.2626 35.3869 32.276 35.4903C32.301 35.6845 32.4625 35.8526 32.605 36.0008C32.7763 36.1791 32.9201 36.3286 32.7652 36.4598C32.7417 36.4797 32.7105 36.5025 32.675 36.5282C32.488 36.6633 32.1889 36.8795 32.3533 37.1898C32.4119 37.3002 32.5641 37.404 32.7134 37.5056C32.9308 37.6535 33.1418 37.7972 33.0479 37.9511C33.0339 37.9741 32.975 37.998 32.9212 38.0199C32.8528 38.0477 32.7931 38.072 32.845 38.0863C32.9973 38.1285 33.1657 38.1954 33.3489 38.2681C33.4835 38.3215 33.6262 38.3781 33.776 38.4303C33.8606 38.829 33.9417 39.2277 34.0185 39.6265C34.0537 39.8092 34.088 39.9919 34.1214 40.1748C33.8921 40.2682 33.6855 40.3639 33.5292 40.4649C33.325 40.5969 33.2624 40.768 33.1813 40.9886C33.1217 41.1509 33.0519 41.3401 32.909 41.5602C32.6444 41.9677 32.7038 42.3863 32.8456 42.6546C32.8756 42.7113 32.9077 42.7683 32.9425 42.8293C33.0746 43.0607 33.2401 43.3494 33.4226 43.8977C33.5952 44.4164 33.64 44.8576 33.6736 45.189C33.6908 45.3581 33.7046 45.4987 33.7315 45.6064C33.7775 45.7908 33.8185 46.0171 33.8595 46.2443C33.9235 46.5999 33.9877 46.9578 34.0733 47.1603C34.1038 47.2324 34.1415 47.3081 34.1818 47.3898C34.2934 47.6163 34.4281 47.8898 34.5059 48.2668C34.5876 48.6626 34.5319 48.9079 34.4108 49.1627C34.3616 49.2663 34.1671 49.3577 33.9661 49.4518C33.6808 49.5854 33.3831 49.7247 33.472 49.9132C33.4927 49.9572 33.5391 50.0042 33.5877 50.0533C33.6771 50.1435 33.774 50.2411 33.7315 50.341C33.7167 50.3759 33.6639 50.4065 33.6121 50.4366C33.5551 50.4697 33.4994 50.5022 33.4963 50.5389C33.4848 50.6763 33.4979 50.8099 33.5097 50.9286C33.525 51.0817 33.5376 51.2101 33.4915 51.2898C33.4091 51.4318 33.4828 51.5871 33.5579 51.7443C33.6152 51.8645 33.6735 51.9858 33.6627 52.1033C33.6317 52.439 33.7722 52.9006 34.0063 53.3763C34.0948 53.5563 33.9739 53.7088 33.8186 53.9042C33.7221 54.0257 33.6118 54.1638 33.5311 54.3356C33.4853 54.4329 33.593 54.5154 33.6925 54.5917C33.7842 54.662 33.8689 54.7272 33.8211 54.7941C33.7787 54.8531 33.5977 54.8905 33.4257 54.9259C33.2342 54.9654 33.0542 55.0025 33.0893 55.0646C33.108 55.0977 33.1986 55.1378 33.3062 55.1856C33.3488 55.2045 33.3938 55.2247 33.4384 55.2461C33.4017 55.245 33.3689 55.2447 33.344 55.2447C33.1683 55.2446 33.0758 55.308 32.9852 55.3702C32.949 55.395 32.9132 55.4197 32.8724 55.44C32.7223 55.5148 32.6979 55.6563 32.7049 55.7645C32.7078 55.8102 32.6533 55.8517 32.5897 55.9001C32.5333 55.943 32.4696 55.9915 32.4326 56.0532C32.4114 56.0884 32.3605 56.1155 32.318 56.1378C32.2872 56.154 32.2609 56.1678 32.254 56.1806C32.2481 56.1916 32.2985 56.2006 32.3552 56.2106C32.396 56.2178 32.4402 56.2257 32.4691 56.2353C32.5381 56.2584 32.5589 56.288 32.5367 56.3088C32.5265 56.3184 32.5069 56.326 32.4874 56.3335C32.4647 56.3423 32.4418 56.351 32.4338 56.3631C32.3971 56.4182 32.4545 56.4719 32.5142 56.5277C32.5798 56.589 32.6479 56.6529 32.5971 56.7241C32.581 56.7464 32.5443 56.7703 32.5087 56.7934C32.4714 56.8176 32.4354 56.8411 32.4259 56.861C32.387 56.9421 32.5126 57.0184 32.6281 57.0885C32.705 57.1351 32.7773 57.1791 32.7938 57.22C32.8241 57.2949 32.9749 57.3351 33.0863 57.3647C33.144 57.38 33.1914 57.3926 33.2057 57.4057C33.2015 57.4178 33.1965 57.43 33.1911 57.4419C33.18 57.4529 33.1685 57.4643 33.1722 57.4749C33.1725 57.4757 33.1731 57.4765 33.1734 57.4773C33.1369 57.5443 33.085 57.61 33.0333 57.6754C32.9171 57.8222 32.8021 57.9672 32.867 58.1205C32.8809 58.1536 32.9432 58.1872 33.0065 58.2214C33.084 58.2634 33.1633 58.3063 33.1576 58.35C33.144 58.4542 33.0413 58.5594 32.9401 58.663C32.7879 58.8188 32.6392 58.971 32.8024 59.111C32.8562 59.1572 32.9459 59.2023 33.0363 59.2475C33.0867 59.2727 33.1375 59.298 33.1819 59.3235C33.0995 59.3181 33.022 59.3152 32.9498 59.3125C32.801 59.307 32.6736 59.3022 32.5654 59.2777C32.3096 59.2197 31.9576 59.154 31.7008 59.1613C31.6311 59.1633 31.5535 59.1617 31.4754 59.1599C31.2794 59.1555 31.0791 59.1511 30.9886 59.2049C30.9276 59.2412 30.7875 59.3344 30.9374 59.3937C30.9701 59.4066 31.0348 59.4145 31.1068 59.4232C31.2361 59.439 31.3892 59.4577 31.4248 59.5139C31.4308 59.5233 31.4362 59.5336 31.4413 59.5443C31.4614 59.5867 31.4836 59.6341 31.5875 59.6519C31.7072 59.6723 31.8444 59.668 32.0042 59.6629C32.2125 59.6563 32.4598 59.6484 32.7579 59.6924C32.8168 59.7011 32.837 59.7178 32.8523 59.7303C32.8631 59.7392 32.8718 59.746 32.8895 59.7467C32.9099 59.7474 32.9523 59.7446 33.0059 59.741C33.195 59.7283 33.5256 59.7062 33.5396 59.7983C33.5433 59.8232 33.5276 59.8517 33.5134 59.8773C33.4924 59.9149 33.4751 59.9462 33.5292 59.9504C33.5497 59.952 33.572 59.9531 33.595 59.954C33.5885 59.984 33.582 60.014 33.5755 60.044C33.5111 60.0824 33.5166 60.1364 33.5237 60.2038C33.5255 60.2201 33.5271 60.2374 33.528 60.2553C33.5147 60.3144 33.5014 60.3736 33.4878 60.4328C33.4605 60.4797 33.4159 60.5296 33.3452 60.5823C33.2036 60.6879 32.9699 60.7797 32.7415 60.8695C32.6452 60.9073 32.5496 60.9448 32.4624 60.9828C32.4517 60.968 32.439 60.9546 32.4216 60.9443C32.3022 60.8739 32.0674 60.8457 31.8513 60.8197C31.7076 60.8024 31.572 60.7861 31.4845 60.7591C31.3243 60.7097 31.1369 60.7146 30.9983 60.7183C30.9265 60.7201 30.8676 60.7216 30.8326 60.715C30.8046 60.7097 30.7914 60.6974 30.7778 60.6848C30.7659 60.6738 30.7535 60.6624 30.7309 60.6551C30.4566 60.5667 30.2973 60.5932 30.0656 60.6319C29.9377 60.6532 29.7878 60.6782 29.5842 60.6896C29.3688 60.6994 29.3057 60.6961 29.2199 60.6498C29.1135 60.6859 29.0071 60.722 28.9006 60.7581C28.9076 60.7722 28.9741 60.783 29.0846 60.7981C29.2821 60.825 29.3542 60.9128 29.4106 60.9814C29.4367 61.0132 29.4595 61.0408 29.4898 61.0564C29.6508 61.1394 29.875 61.1153 30.0723 61.094C30.1808 61.0823 30.2813 61.0715 30.3586 61.0799C30.3917 61.0835 30.4245 61.0784 30.4579 61.0732C30.4838 61.0693 30.5101 61.0652 30.5371 61.065C30.7336 61.0639 30.8794 61.113 31.0148 61.1586C31.0923 61.1846 31.1667 61.2095 31.2451 61.2233C31.269 61.2275 31.2933 61.2308 31.317 61.2339C31.3515 61.2385 31.3844 61.2429 31.4126 61.2499C31.4769 61.2657 31.5202 61.2984 31.5674 61.3342C31.5916 61.3525 31.6169 61.3717 31.6466 61.3898C31.6851 61.4133 31.7628 61.4217 31.844 61.4306C31.9014 61.437 31.9604 61.4436 32.0091 61.4557C32.0971 61.4777 32.1289 61.5221 32.1584 61.5633C32.1712 61.5813 32.184 61.5987 32.2004 61.6133C32.2071 61.6193 32.2205 61.6221 32.2388 61.6227C32.3003 61.6904 32.3631 61.755 32.4246 61.8179C32.7331 62.1332 33.0005 62.4061 32.8066 62.8137C32.77 62.8908 32.7773 62.9735 32.8066 63.0571C32.7296 63.3246 32.65 63.5923 32.5684 63.8596C32.3914 63.9126 32.2427 63.9773 32.1261 64.054C31.9071 64.1979 31.8603 64.346 31.805 64.5207C31.7642 64.6499 31.7185 64.7937 31.5954 64.9612C31.3886 65.2427 31.2136 65.5317 31.1226 65.8578C31.0321 66.1825 30.9654 66.5542 30.9417 66.8172C30.9288 66.9606 30.7704 67.1111 30.623 67.2515C30.4157 67.4489 30.2299 67.6261 30.4994 67.7342C30.5855 67.7687 30.7349 67.8021 30.8801 67.8346C30.9836 67.8578 31.0846 67.8806 31.1598 67.9029C31.1364 67.9625 31.1133 68.0221 31.0897 68.0816C30.9102 68.1875 30.7177 68.352 30.9179 68.511C30.8932 68.5724 30.8686 68.6339 30.8436 68.6933C30.7914 68.8228 30.7385 68.9496 30.6852 69.0774C30.6676 69.1192 30.6499 69.1614 30.6322 69.2036C30.632 69.204 30.6318 69.2044 30.6316 69.2048C30.5959 69.2899 30.5599 69.3756 30.5237 69.4599C30.5083 69.496 30.4929 69.5321 30.4774 69.5682C30.4383 69.66 30.3989 69.7524 30.3592 69.8432C30.3381 69.8913 30.3171 69.9398 30.2959 69.9884C30.2613 70.0673 30.2266 70.1468 30.1917 70.2259C30.1352 70.3537 30.0781 70.481 30.0205 70.6085C30.011 70.6293 29.9811 70.6494 29.9358 70.6641C29.8904 70.6788 29.8336 70.6871 29.7749 70.6871C29.7163 70.6871 29.6593 70.6787 29.6141 70.6639C29.5691 70.6492 29.5399 70.6292 29.5306 70.6083C29.4746 70.4807 29.4192 70.3533 29.3643 70.2253C29.3303 70.1463 29.2961 70.0668 29.2626 69.9879C29.2419 69.9393 29.2215 69.8908 29.201 69.8427C29.1624 69.7519 29.1239 69.6593 29.0859 69.5675C29.0708 69.5314 29.0558 69.4953 29.0408 69.4592C29.0056 69.3747 28.9707 69.2887 28.936 69.2034C28.9358 69.2029 28.9356 69.2024 28.9354 69.2019C28.9183 69.1599 28.9012 69.118 28.8842 69.0766C28.8325 68.9486 28.7813 68.8218 28.7307 68.6922C28.7033 68.6253 28.6766 68.5555 28.6496 68.4862C28.6346 68.4477 28.6195 68.4092 28.6045 68.3714C28.5966 68.3507 28.5887 68.3298 28.5808 68.3087C28.3935 67.8255 28.2132 67.3457 28.0404 66.8615C27.8675 66.379 27.7017 65.8957 27.5426 65.4139C27.3834 64.9308 27.2312 64.4487 27.085 63.9661C26.1572 60.9034 25.3964 57.8286 24.9203 54.7524C24.852 54.3136 24.7904 53.8634 24.7351 53.4237C24.6798 52.9792 24.6308 52.5439 24.5889 52.0983C24.5758 51.963 24.5635 51.8242 24.5517 51.6819Z" fill="black"/>
<circle cx="17.312" cy="72.4546" r="3.3234" transform="rotate(8.2828 17.312 72.4546)" fill="black"/>
<path d="M11.3621 74.5848C10.9554 73.6119 11.4155 72.5664 11.5413 71.6761C11.544 71.656 11.5467 71.6359 11.5493 71.6157C11.6781 70.5238 11.762 69.1152 12.6939 68.2395C13.6078 67.3816 14.7947 66.8662 15.9772 66.7707C16.7153 66.7084 17.4479 66.8075 18.1007 67.0367C18.4941 67.1741 18.8665 67.3588 19.2034 67.5821C20.1021 68.1747 20.7269 69.0388 21.0108 69.9271C21.2064 70.5309 21.2517 71.1475 21.1685 71.708C21.1323 71.9541 21.072 72.1892 20.9915 72.4096C20.9313 72.5738 20.86 72.7307 20.7796 72.8769C20.7683 72.8973 20.7304 72.9133 20.6726 72.9203C20.6147 72.9273 20.542 72.9249 20.4682 72.9141C20.3943 72.9033 20.3238 72.8851 20.27 72.8643C20.2163 72.8435 20.1839 72.8219 20.1777 72.8031C20.1338 72.6672 20.0804 72.5376 20.0188 72.4172C19.9505 72.2831 19.8721 72.1595 19.7866 72.0474C20.0856 71.9785 20.3093 71.9064 20.3972 71.8234C20.442 71.7813 20.4525 71.7281 20.3888 71.7076C20.3317 71.689 20.2376 71.6896 20.1483 71.6921C20.0548 71.6946 19.9665 71.6993 19.9303 71.6842C19.8688 71.6585 19.7328 71.6605 19.5916 71.6703C19.5402 71.6738 19.488 71.6782 19.4384 71.6822C19.343 71.6025 19.2439 71.5336 19.1431 71.4753C19.1538 71.4262 19.1584 71.3813 19.1318 71.3615C19.108 71.3438 19.0397 71.3568 18.9597 71.3814C18.9439 71.3744 18.928 71.3676 18.9122 71.361C18.8102 71.3187 18.7083 71.2865 18.6082 71.2642C18.6242 71.1609 18.6271 71.0509 18.574 70.96C18.5512 70.921 18.5456 70.8601 18.5366 70.8006C18.5241 70.7132 18.5032 70.6284 18.4341 70.6374C18.3883 70.6437 18.3789 70.5881 18.3656 70.5315C18.3488 70.4562 18.3229 70.3787 18.2306 70.466C18.1729 70.521 18.1133 70.5934 18.0608 70.6621C17.977 70.7713 17.9114 70.8709 17.886 70.8702C17.8379 70.8689 17.7708 70.9497 17.7186 71.0238C17.6546 71.1127 17.611 71.1911 17.6055 71.0949C17.6046 71.0803 17.604 71.061 17.6031 71.0391C17.6002 70.9581 17.5905 70.8422 17.5513 70.8106C17.5349 70.7973 17.514 70.7993 17.4895 70.8261C17.4601 70.8583 17.4285 70.9472 17.4024 71.0353C17.3637 71.1635 17.3381 71.2893 17.3129 71.2329C17.3091 71.2244 17.305 71.1891 17.3008 71.1568C17.2956 71.1158 17.2904 71.0801 17.2881 71.1113C17.2815 71.2027 17.2723 71.304 17.2664 71.4143C17.2619 71.4953 17.2592 71.5812 17.2592 71.6712C17.2197 71.7246 17.1893 71.7788 17.1662 71.8315C17.1557 71.8557 17.1466 71.8796 17.1389 71.9031C17.0902 71.7743 17.0401 71.6603 16.9957 71.5766C16.9375 71.4674 16.8989 71.4419 16.8471 71.4118C16.8087 71.3899 16.763 71.3653 16.6867 71.3093C16.5429 71.2065 16.4818 71.2913 16.4953 71.3889C16.4977 71.4097 16.5012 71.4313 16.5057 71.4545C16.5234 71.5423 16.5489 71.6505 16.5767 71.7815C16.6046 71.9043 16.5995 71.9597 16.5953 72.0037C16.5935 72.0259 16.5927 72.0439 16.601 72.0622C16.6153 72.0934 16.6266 72.1256 16.64 72.1563C16.6607 72.2042 16.6869 72.2483 16.7314 72.2791C16.7472 72.2901 16.7673 72.3021 16.7891 72.3143C16.8452 72.3457 16.9142 72.377 16.9586 72.4032C16.962 72.4052 16.9653 72.4072 16.9684 72.4092C17.0143 72.4369 16.9809 72.4408 16.908 72.4549C16.8784 72.4603 16.7617 72.4666 16.6414 72.4792C16.4707 72.4959 16.2934 72.5287 16.349 72.5497C16.3619 72.5543 16.3902 72.5575 16.4199 72.5602C16.4745 72.5652 16.5334 72.5671 16.5099 72.5817C16.5017 72.5869 16.471 72.5954 16.441 72.6042C16.408 72.6139 16.3758 72.624 16.3749 72.6291C16.3713 72.648 16.3828 72.6637 16.3934 72.6769C16.4069 72.694 16.4187 72.7074 16.3951 72.7253C16.3531 72.7576 16.4024 72.7657 16.4514 72.7685C16.489 72.7711 16.5267 72.7711 16.5262 72.7864C16.5244 72.8307 16.629 72.8488 16.7708 72.808C16.8241 72.7924 16.7706 72.8426 16.7096 72.9163C16.6716 72.9619 16.6304 73.0164 16.6086 73.0654C16.5965 73.0932 16.6524 73.0587 16.7021 73.0245C16.7481 72.9932 16.7892 72.9625 16.7736 72.9877C16.7599 73.0099 16.6862 73.0899 16.6176 73.1671C16.541 73.2529 16.4709 73.3354 16.4931 73.3274C16.5049 73.323 16.5469 73.2879 16.5957 73.245C16.615 73.228 16.6353 73.21 16.6553 73.192C16.6405 73.2083 16.6273 73.2229 16.6174 73.2341C16.5469 73.3124 16.5175 73.3606 16.4902 73.409C16.4793 73.4283 16.4688 73.4475 16.4558 73.4686C16.4081 73.5462 16.4214 73.5761 16.441 73.5859C16.4492 73.5901 16.4359 73.621 16.4212 73.6576C16.4082 73.6901 16.3941 73.7272 16.3924 73.7532C16.3914 73.7681 16.3788 73.7966 16.3686 73.8205C16.3611 73.8378 16.3549 73.8526 16.355 73.8578C16.3552 73.8622 16.374 73.8384 16.3949 73.8115C16.4101 73.7922 16.4264 73.7712 16.4378 73.758C16.465 73.7264 16.477 73.7194 16.4734 73.7329C16.4717 73.7392 16.4666 73.7499 16.4616 73.7606C16.4557 73.773 16.4498 73.7856 16.4494 73.7911C16.4478 73.8162 16.4766 73.7936 16.5055 73.7694C16.5374 73.7428 16.569 73.7141 16.5663 73.7478C16.5655 73.7584 16.5589 73.78 16.5527 73.801C16.5462 73.8231 16.5402 73.8444 16.5413 73.8516C16.546 73.8809 16.5968 73.8225 16.6409 73.7671C16.6704 73.7304 16.6972 73.6953 16.7085 73.6897C16.7294 73.6797 16.7745 73.6009 16.807 73.5423C16.8238 73.5119 16.8374 73.4869 16.8428 73.4799C16.8435 73.483 16.844 73.4865 16.8443 73.4902C16.8432 73.497 16.842 73.504 16.8444 73.5027C16.8446 73.5026 16.8449 73.5023 16.8451 73.5022C16.8458 73.5265 16.8435 73.5593 16.8419 73.5922C16.838 73.666 16.841 73.7409 16.8806 73.7132C16.8891 73.7073 16.9068 73.6738 16.9241 73.6395C16.9454 73.5975 16.9661 73.5541 16.9718 73.5594C16.9852 73.572 16.9848 73.6359 16.988 73.6995C16.9917 73.7948 17.006 73.8893 17.0518 73.7984C17.0667 73.7683 17.0848 73.7169 17.1018 73.6648C17.1113 73.6358 17.1206 73.6064 17.129 73.5808C17.1202 73.6295 17.1122 73.6752 17.1048 73.7179C17.0893 73.8059 17.0762 73.8812 17.0602 73.9444C17.023 74.0937 16.9678 74.2983 16.9415 74.4501C16.9345 74.4914 16.9256 74.5371 16.9165 74.5831C16.894 74.6985 16.87 74.8163 16.8787 74.8731C16.8841 74.9113 16.904 74.9999 16.9385 74.914C16.9459 74.8954 16.9544 74.8573 16.9636 74.815C16.968 74.7948 16.9726 74.7736 16.9774 74.7529C16.9905 74.6962 17.0046 74.644 17.0194 74.6302C17.0228 74.627 17.0264 74.6242 17.03 74.6217C17.0446 74.6114 17.0607 74.5999 17.073 74.5386C17.0872 74.4679 17.0949 74.386 17.1045 74.2905C17.1167 74.1661 17.1331 74.0187 17.1616 73.8419C17.1672 73.8069 17.1716 73.7952 17.175 73.7863C17.1773 73.78 17.1791 73.775 17.1803 73.7644C17.1817 73.7523 17.1838 73.727 17.1864 73.6949C17.1956 73.5817 17.2142 73.3843 17.2269 73.3771C17.2304 73.3752 17.2333 73.3849 17.236 73.3937C17.2401 73.4067 17.2436 73.4173 17.2466 73.385C17.2477 73.3727 17.2488 73.3594 17.2499 73.3457C17.2535 73.3498 17.257 73.354 17.2606 73.3581C17.2632 73.397 17.2708 73.3941 17.2798 73.3902C17.282 73.3892 17.2843 73.3883 17.2867 73.3879C17.2942 73.3961 17.3019 73.4042 17.3097 73.4124C17.3159 73.4289 17.3225 73.4556 17.3308 73.4979C17.3472 73.5827 17.3669 73.7223 17.3919 73.8582C17.4024 73.9155 17.4138 73.9722 17.4257 74.0238C17.423 74.0305 17.4205 74.0382 17.4189 74.0488C17.408 74.1213 17.4084 74.2623 17.4076 74.3922C17.407 74.4785 17.4059 74.56 17.3998 74.6128C17.3886 74.7094 17.3931 74.8217 17.3973 74.9048C17.3993 74.9478 17.401 74.9831 17.3994 75.0042C17.3981 75.021 17.3939 75.0291 17.3896 75.0374C17.3858 75.0446 17.3819 75.0522 17.3796 75.0658C17.3507 75.2311 17.36 75.3264 17.3795 75.4651C17.3901 75.5416 17.4034 75.6313 17.4122 75.7532C17.4205 75.8823 17.4206 75.9202 17.399 75.9722C17.4183 76.0356 17.4385 76.0989 17.4597 76.1619C17.4668 76.1575 17.4708 76.1174 17.4755 76.0508C17.4839 75.9319 17.5235 75.8865 17.5538 75.8504C17.5678 75.8337 17.5797 75.8191 17.5855 75.8004C17.6163 75.7009 17.5918 75.5679 17.5731 75.4507C17.5626 75.3862 17.5533 75.3265 17.5528 75.28C17.5525 75.2601 17.5488 75.2407 17.5452 75.2209C17.5424 75.2055 17.5395 75.1899 17.5381 75.1738C17.5282 75.0563 17.5388 74.9677 17.5463 74.8853C17.5508 74.8382 17.5544 74.7929 17.5538 74.7457C17.5537 74.7313 17.5532 74.7167 17.5527 74.7024C17.5519 74.6817 17.5512 74.6619 17.5515 74.6449C17.5522 74.606 17.559 74.5791 17.5661 74.5497C17.5697 74.5347 17.5734 74.5189 17.5762 74.5006C17.58 74.4768 17.5762 74.4302 17.5721 74.3817C17.5692 74.3473 17.5662 74.312 17.5653 74.2826C17.5637 74.2295 17.5717 74.2091 17.579 74.1901C17.5821 74.1818 17.585 74.1736 17.587 74.1633C17.5877 74.1591 17.5871 74.1511 17.5855 74.1402C17.5955 74.1013 17.6035 74.0616 17.6102 74.0227C17.6458 73.827 17.6413 73.6629 17.7494 73.7495C17.7703 73.7656 17.7842 73.756 17.7929 73.7339C17.8569 73.7591 17.9254 73.7812 17.9981 73.7989C18.0565 73.8884 18.1115 73.9603 18.1618 74.0125C18.2567 74.1104 18.307 74.1137 18.3651 74.1161C18.4084 74.1176 18.4564 74.1186 18.5393 74.1497C18.6788 74.2019 18.8191 74.2243 18.9358 74.19C19.052 74.1565 19.169 74.0884 19.2375 74.0263C19.2747 73.9931 19.3818 74.0098 19.4843 74.0188C19.628 74.0326 19.7628 74.0296 19.6477 73.9085C19.6109 73.8699 19.541 73.8123 19.4723 73.7575C19.4234 73.7185 19.3753 73.6809 19.3402 73.6516C19.3622 73.6419 19.384 73.6318 19.406 73.6213C19.5169 73.6438 19.6487 73.642 19.5649 73.5388C19.5875 73.5259 19.61 73.5126 19.6323 73.4996C19.6797 73.4705 19.7266 73.4405 19.7734 73.4082C19.7888 73.3977 19.8042 73.3868 19.8196 73.3756C19.8198 73.3755 19.82 73.3754 19.8201 73.3753C19.8512 73.3529 19.882 73.3295 19.9127 73.3056C19.9257 73.2953 19.9388 73.2849 19.9517 73.2743C19.9846 73.2474 20.0173 73.2194 20.0496 73.1907C20.0668 73.1756 20.0838 73.1597 20.1008 73.144C20.1285 73.1183 20.156 73.0915 20.1832 73.064C20.2273 73.0193 20.2705 72.9739 20.3131 72.9254C20.3201 72.9175 20.3391 72.9118 20.3669 72.9094C20.3948 72.9071 20.4291 72.9084 20.4639 72.9135C20.4987 72.9185 20.532 72.9272 20.5578 72.9379C20.5835 72.9486 20.5994 72.9605 20.6034 72.971C20.6274 73.0352 20.6494 73.0996 20.6689 73.1668C20.681 73.2082 20.6924 73.2502 20.7028 73.2922C20.7093 73.318 20.7151 73.3443 20.7209 73.3704C20.7317 73.4197 20.7412 73.4702 20.7494 73.521C20.7526 73.5411 20.7557 73.5612 20.7586 73.5814C20.7654 73.6287 20.7709 73.6768 20.7754 73.7253C20.7754 73.7256 20.7754 73.7259 20.7754 73.7262C20.7776 73.7501 20.7796 73.774 20.7813 73.7978C20.7863 73.871 20.789 73.9444 20.7884 74.0199C20.7887 74.0592 20.7875 74.0997 20.7857 74.1405C20.7847 74.1632 20.7835 74.1859 20.7823 74.2083C20.7815 74.2205 20.7805 74.2328 20.7795 74.2452C20.7584 74.5309 20.7001 74.8211 20.6012 75.1086C20.5029 75.3952 20.3654 75.6775 20.1916 75.9445C20.0173 76.2121 19.8064 76.4646 19.5623 76.6936C18.8055 77.4122 17.6977 77.8943 16.5139 77.9365C15.2953 77.9928 13.9684 77.5636 12.9418 76.7076C12.6522 76.469 12.3794 76.1907 12.1414 75.8923C11.9011 75.5906 11.6935 75.2689 11.5167 74.9183C11.4629 74.8121 11.4112 74.7007 11.3621 74.5848Z" fill="black"/>
<circle cx="45.312" cy="72.4546" r="3.3234" transform="rotate(8.2828 45.312 72.4546)" fill="black"/>
<path d="M39.3621 74.5848C38.9554 73.6119 39.4155 72.5664 39.5413 71.6761C39.544 71.656 39.5467 71.6359 39.5493 71.6157C39.6781 70.5238 39.762 69.1152 40.6939 68.2395C41.6078 67.3816 42.7947 66.8662 43.9772 66.7707C44.7153 66.7084 45.4479 66.8075 46.1007 67.0367C46.4941 67.1741 46.8665 67.3588 47.2034 67.5821C48.1021 68.1747 48.7269 69.0388 49.0108 69.9271C49.2064 70.5309 49.2517 71.1475 49.1685 71.708C49.1323 71.9541 49.072 72.1892 48.9915 72.4096C48.9313 72.5738 48.86 72.7307 48.7796 72.8769C48.7683 72.8973 48.7304 72.9133 48.6726 72.9203C48.6147 72.9273 48.542 72.9249 48.4682 72.9141C48.3943 72.9033 48.3238 72.8851 48.27 72.8643C48.2163 72.8435 48.1839 72.8219 48.1777 72.8031C48.1338 72.6672 48.0804 72.5376 48.0188 72.4172C47.9505 72.2831 47.8721 72.1595 47.7866 72.0474C48.0856 71.9785 48.3093 71.9064 48.3972 71.8234C48.442 71.7813 48.4525 71.7281 48.3888 71.7076C48.3317 71.689 48.2376 71.6896 48.1483 71.6921C48.0548 71.6946 47.9665 71.6993 47.9303 71.6842C47.8688 71.6585 47.7328 71.6605 47.5916 71.6703C47.5402 71.6738 47.488 71.6782 47.4384 71.6822C47.343 71.6025 47.2439 71.5336 47.1431 71.4753C47.1538 71.4262 47.1584 71.3813 47.1318 71.3615C47.108 71.3438 47.0397 71.3568 46.9597 71.3814C46.9439 71.3744 46.928 71.3676 46.9122 71.361C46.8102 71.3187 46.7083 71.2865 46.6082 71.2642C46.6242 71.1609 46.6271 71.0509 46.574 70.96C46.5512 70.921 46.5456 70.8601 46.5366 70.8006C46.5241 70.7132 46.5032 70.6284 46.4341 70.6374C46.3883 70.6437 46.3789 70.5881 46.3656 70.5315C46.3488 70.4562 46.3229 70.3787 46.2306 70.466C46.1729 70.521 46.1133 70.5934 46.0608 70.6621C45.977 70.7713 45.9114 70.8709 45.886 70.8702C45.8379 70.8689 45.7708 70.9497 45.7186 71.0238C45.6546 71.1127 45.611 71.1911 45.6055 71.0949C45.6046 71.0803 45.604 71.061 45.6031 71.0391C45.6002 70.9581 45.5905 70.8422 45.5513 70.8106C45.5349 70.7973 45.514 70.7993 45.4895 70.8261C45.4601 70.8583 45.4285 70.9472 45.4024 71.0353C45.3637 71.1635 45.3381 71.2893 45.3129 71.2329C45.3091 71.2244 45.305 71.1891 45.3008 71.1568C45.2956 71.1158 45.2904 71.0801 45.2881 71.1113C45.2815 71.2027 45.2723 71.304 45.2664 71.4143C45.2619 71.4953 45.2592 71.5812 45.2592 71.6712C45.2197 71.7246 45.1893 71.7788 45.1662 71.8315C45.1557 71.8557 45.1466 71.8796 45.1389 71.9031C45.0902 71.7743 45.0401 71.6603 44.9957 71.5766C44.9375 71.4674 44.8989 71.4419 44.8471 71.4118C44.8087 71.3899 44.763 71.3653 44.6867 71.3093C44.5429 71.2065 44.4818 71.2913 44.4953 71.3889C44.4977 71.4097 44.5012 71.4313 44.5057 71.4545C44.5234 71.5423 44.5489 71.6505 44.5767 71.7815C44.6046 71.9043 44.5995 71.9597 44.5953 72.0037C44.5935 72.0259 44.5927 72.0439 44.601 72.0622C44.6153 72.0934 44.6266 72.1256 44.64 72.1563C44.6607 72.2042 44.6869 72.2483 44.7314 72.2791C44.7472 72.2901 44.7673 72.3021 44.7891 72.3143C44.8452 72.3457 44.9142 72.377 44.9586 72.4032C44.962 72.4052 44.9653 72.4072 44.9684 72.4092C45.0143 72.4369 44.9809 72.4408 44.908 72.4549C44.8784 72.4603 44.7617 72.4666 44.6414 72.4792C44.4707 72.4959 44.2934 72.5287 44.349 72.5497C44.3619 72.5543 44.3902 72.5575 44.4199 72.5602C44.4745 72.5652 44.5334 72.5671 44.5099 72.5817C44.5017 72.5869 44.471 72.5954 44.441 72.6042C44.408 72.6139 44.3758 72.624 44.3749 72.6291C44.3713 72.648 44.3828 72.6637 44.3934 72.6769C44.4069 72.694 44.4187 72.7074 44.3951 72.7253C44.3531 72.7576 44.4024 72.7657 44.4514 72.7685C44.489 72.7711 44.5267 72.7711 44.5262 72.7864C44.5244 72.8307 44.629 72.8488 44.7708 72.808C44.8241 72.7924 44.7706 72.8426 44.7096 72.9163C44.6716 72.9619 44.6304 73.0164 44.6086 73.0654C44.5965 73.0932 44.6524 73.0587 44.7021 73.0245C44.7481 72.9932 44.7892 72.9625 44.7736 72.9877C44.7599 73.0099 44.6862 73.0899 44.6176 73.1671C44.541 73.2529 44.4709 73.3354 44.4931 73.3274C44.5049 73.323 44.5469 73.2879 44.5957 73.245C44.615 73.228 44.6353 73.21 44.6553 73.192C44.6405 73.2083 44.6273 73.2229 44.6174 73.2341C44.5469 73.3124 44.5175 73.3606 44.4902 73.409C44.4793 73.4283 44.4688 73.4475 44.4558 73.4686C44.4081 73.5462 44.4214 73.5761 44.441 73.5859C44.4492 73.5901 44.4359 73.621 44.4212 73.6576C44.4082 73.6901 44.3941 73.7272 44.3924 73.7532C44.3914 73.7681 44.3788 73.7966 44.3686 73.8205C44.3611 73.8378 44.3549 73.8526 44.355 73.8578C44.3552 73.8622 44.374 73.8384 44.3949 73.8115C44.4101 73.7922 44.4264 73.7712 44.4378 73.758C44.465 73.7264 44.477 73.7194 44.4734 73.7329C44.4717 73.7392 44.4666 73.7499 44.4616 73.7606C44.4557 73.773 44.4498 73.7856 44.4494 73.7911C44.4478 73.8162 44.4766 73.7936 44.5055 73.7694C44.5374 73.7428 44.569 73.7141 44.5663 73.7478C44.5655 73.7584 44.5589 73.78 44.5527 73.801C44.5462 73.8231 44.5402 73.8444 44.5413 73.8516C44.546 73.8809 44.5968 73.8225 44.6409 73.7671C44.6704 73.7304 44.6972 73.6953 44.7085 73.6897C44.7294 73.6797 44.7745 73.6009 44.807 73.5423C44.8238 73.5119 44.8374 73.4869 44.8428 73.4799C44.8435 73.483 44.844 73.4865 44.8443 73.4902C44.8432 73.497 44.842 73.504 44.8444 73.5027C44.8446 73.5026 44.8449 73.5023 44.8451 73.5022C44.8458 73.5265 44.8435 73.5593 44.8419 73.5922C44.838 73.666 44.841 73.7409 44.8806 73.7132C44.8891 73.7073 44.9068 73.6738 44.9241 73.6395C44.9454 73.5975 44.9661 73.5541 44.9718 73.5594C44.9852 73.572 44.9848 73.6359 44.988 73.6995C44.9917 73.7948 45.006 73.8893 45.0518 73.7984C45.0667 73.7683 45.0848 73.7169 45.1018 73.6648C45.1113 73.6358 45.1206 73.6064 45.129 73.5808C45.1202 73.6295 45.1122 73.6752 45.1048 73.7179C45.0893 73.8059 45.0762 73.8812 45.0602 73.9444C45.023 74.0937 44.9678 74.2983 44.9415 74.4501C44.9345 74.4914 44.9256 74.5371 44.9165 74.5831C44.894 74.6985 44.87 74.8163 44.8787 74.8731C44.8841 74.9113 44.904 74.9999 44.9385 74.914C44.9459 74.8954 44.9544 74.8573 44.9636 74.815C44.968 74.7948 44.9726 74.7736 44.9774 74.7529C44.9905 74.6962 45.0046 74.644 45.0194 74.6302C45.0228 74.627 45.0264 74.6242 45.03 74.6217C45.0446 74.6114 45.0607 74.5999 45.073 74.5386C45.0872 74.4679 45.0949 74.386 45.1045 74.2905C45.1167 74.1661 45.1331 74.0187 45.1616 73.8419C45.1672 73.8069 45.1716 73.7952 45.175 73.7863C45.1773 73.78 45.1791 73.775 45.1803 73.7644C45.1817 73.7523 45.1838 73.727 45.1864 73.6949C45.1956 73.5817 45.2142 73.3843 45.2269 73.3771C45.2304 73.3752 45.2333 73.3849 45.236 73.3937C45.2401 73.4067 45.2436 73.4173 45.2466 73.385C45.2477 73.3727 45.2488 73.3594 45.2499 73.3457C45.2535 73.3498 45.257 73.354 45.2606 73.3581C45.2632 73.397 45.2708 73.3941 45.2798 73.3902C45.282 73.3892 45.2843 73.3883 45.2867 73.3879C45.2942 73.3961 45.3019 73.4042 45.3097 73.4124C45.3159 73.4289 45.3225 73.4556 45.3308 73.4979C45.3472 73.5827 45.3669 73.7223 45.3919 73.8582C45.4024 73.9155 45.4138 73.9722 45.4257 74.0238C45.423 74.0305 45.4205 74.0382 45.4189 74.0488C45.408 74.1213 45.4084 74.2623 45.4076 74.3922C45.407 74.4785 45.4059 74.56 45.3998 74.6128C45.3886 74.7094 45.3931 74.8217 45.3973 74.9048C45.3993 74.9478 45.401 74.9831 45.3994 75.0042C45.3981 75.021 45.3939 75.0291 45.3896 75.0374C45.3858 75.0446 45.3819 75.0522 45.3796 75.0658C45.3507 75.2311 45.36 75.3264 45.3795 75.4651C45.3901 75.5416 45.4034 75.6313 45.4122 75.7532C45.4205 75.8823 45.4206 75.9202 45.399 75.9722C45.4183 76.0356 45.4385 76.0989 45.4597 76.1619C45.4668 76.1575 45.4708 76.1174 45.4755 76.0508C45.4839 75.9319 45.5235 75.8865 45.5538 75.8504C45.5678 75.8337 45.5797 75.8191 45.5855 75.8004C45.6163 75.7009 45.5918 75.5679 45.5731 75.4507C45.5626 75.3862 45.5533 75.3265 45.5528 75.28C45.5525 75.2601 45.5488 75.2407 45.5452 75.2209C45.5424 75.2055 45.5395 75.1899 45.5381 75.1738C45.5282 75.0563 45.5388 74.9677 45.5463 74.8853C45.5508 74.8382 45.5544 74.7929 45.5538 74.7457C45.5537 74.7313 45.5532 74.7167 45.5527 74.7024C45.5519 74.6817 45.5512 74.6619 45.5515 74.6449C45.5522 74.606 45.559 74.5791 45.5661 74.5497C45.5697 74.5347 45.5734 74.5189 45.5762 74.5006C45.58 74.4768 45.5762 74.4302 45.5721 74.3817C45.5692 74.3473 45.5662 74.312 45.5653 74.2826C45.5637 74.2295 45.5717 74.2091 45.579 74.1901C45.5821 74.1818 45.585 74.1736 45.587 74.1633C45.5877 74.1591 45.5871 74.1511 45.5855 74.1402C45.5955 74.1013 45.6035 74.0616 45.6102 74.0227C45.6458 73.827 45.6413 73.6629 45.7494 73.7495C45.7703 73.7656 45.7842 73.756 45.7929 73.7339C45.8569 73.7591 45.9254 73.7812 45.9981 73.7989C46.0565 73.8884 46.1115 73.9603 46.1618 74.0125C46.2567 74.1104 46.307 74.1137 46.3651 74.1161C46.4084 74.1176 46.4564 74.1186 46.5393 74.1497C46.6788 74.2019 46.8191 74.2243 46.9358 74.19C47.052 74.1565 47.169 74.0884 47.2375 74.0263C47.2747 73.9931 47.3818 74.0098 47.4843 74.0188C47.628 74.0326 47.7628 74.0296 47.6477 73.9085C47.6109 73.8699 47.541 73.8123 47.4723 73.7575C47.4234 73.7185 47.3753 73.6809 47.3402 73.6516C47.3622 73.6419 47.384 73.6318 47.406 73.6213C47.5169 73.6438 47.6487 73.642 47.5649 73.5388C47.5875 73.5259 47.61 73.5126 47.6323 73.4996C47.6797 73.4705 47.7266 73.4405 47.7734 73.4082C47.7888 73.3977 47.8042 73.3868 47.8196 73.3756C47.8198 73.3755 47.82 73.3754 47.8201 73.3753C47.8512 73.3529 47.882 73.3295 47.9127 73.3056C47.9257 73.2953 47.9388 73.2849 47.9517 73.2743C47.9846 73.2474 48.0173 73.2194 48.0496 73.1907C48.0668 73.1756 48.0838 73.1597 48.1008 73.144C48.1285 73.1183 48.156 73.0915 48.1832 73.064C48.2273 73.0193 48.2705 72.9739 48.3131 72.9254C48.3201 72.9175 48.3391 72.9118 48.3669 72.9094C48.3948 72.9071 48.4291 72.9084 48.4639 72.9135C48.4987 72.9185 48.532 72.9272 48.5578 72.9379C48.5835 72.9486 48.5994 72.9605 48.6034 72.971C48.6274 73.0352 48.6494 73.0996 48.6689 73.1668C48.681 73.2082 48.6924 73.2502 48.7028 73.2922C48.7093 73.318 48.7151 73.3443 48.7209 73.3704C48.7317 73.4197 48.7412 73.4702 48.7494 73.521C48.7526 73.5411 48.7557 73.5612 48.7586 73.5814C48.7654 73.6287 48.7709 73.6768 48.7754 73.7253C48.7754 73.7256 48.7754 73.7259 48.7754 73.7262C48.7776 73.7501 48.7796 73.774 48.7813 73.7978C48.7863 73.871 48.789 73.9444 48.7884 74.0199C48.7887 74.0592 48.7875 74.0997 48.7857 74.1405C48.7847 74.1632 48.7835 74.1859 48.7823 74.2083C48.7815 74.2205 48.7805 74.2328 48.7795 74.2452C48.7584 74.5309 48.7001 74.8211 48.6012 75.1086C48.5029 75.3952 48.3654 75.6775 48.1916 75.9445C48.0173 76.2121 47.8064 76.4646 47.5623 76.6936C46.8055 77.4122 45.6977 77.8943 44.5139 77.9365C43.2953 77.9928 41.9684 77.5636 40.9418 76.7076C40.6522 76.469 40.3794 76.1907 40.1414 75.8923C39.9011 75.5906 39.6935 75.2689 39.5167 74.9183C39.4629 74.8121 39.4112 74.7007 39.3621 74.5848Z" fill="black"/>
<path d="M25.1805 43.0024C26.5763 43.2111 27.9051 43.916 29.3947 44.2683C29.851 44.3733 30.3092 44.4488 30.7703 44.4705C33.2264 44.6032 35.9723 43.6004 37.0463 43.3597C37.0981 43.351 37.1414 43.3438 37.1727 43.3406C39.2318 42.6266 41.3589 41.6856 43.3731 40.6175C44.0545 40.2556 44.7356 39.868 45.3195 39.5077C46.7077 38.6095 48.1137 37.5766 49.4418 36.5027C49.8557 36.1684 50.2774 35.8113 50.6168 35.5162C50.4772 35.7403 50.5757 35.6465 50.6152 35.6061C50.6679 35.5505 50.7337 35.4657 50.7987 35.3788C50.9317 35.1992 51.0707 34.9962 51.2106 34.7867C51.4905 34.3671 51.7746 33.9209 52.0563 33.4768C52.6218 32.5827 53.1888 31.6708 53.7582 30.7603C53.8689 30.5832 53.9795 30.4066 54.0911 30.2277L54.0492 30.3378C54.7982 29.0325 55.322 27.5996 55.8369 26.015C55.8607 25.9425 55.8843 25.8718 55.9082 25.7986C56.1451 25.0873 56.3845 24.3867 56.6242 23.6849C56.8216 23.1077 57.019 22.5308 57.2155 21.9537C57.2429 21.8736 57.3139 21.8036 57.4158 21.7602C57.5179 21.7167 57.642 21.7025 57.7649 21.722C57.8878 21.7416 58.0017 21.7938 58.0849 21.867C58.1679 21.94 58.2128 22.0288 58.2135 22.1134C58.2171 22.7285 58.2196 23.3437 58.2224 23.958C58.2253 24.6403 58.2285 25.321 58.2339 25.9991C58.0206 26.0089 57.8266 26.0298 57.6576 26.066C57.4148 26.1176 57.2232 26.2066 57.0994 26.3501C56.9921 26.4759 56.9259 26.6692 56.9964 26.8327C57.06 26.9787 57.1942 27.1025 57.3219 27.2213C57.4555 27.3451 57.582 27.4636 57.6114 27.596C57.6616 27.8198 57.8405 28.0569 58.0249 28.3131C58.092 28.4059 58.1598 28.5023 58.2225 28.6002C58.195 29.2938 58.1306 30.0161 58.0234 30.7309C57.8923 30.9807 57.7736 31.2053 57.7258 31.4133C57.712 31.4734 57.7074 31.5354 57.7096 31.5991C57.6981 31.6229 57.6756 31.6993 57.6626 31.7224C57.6626 31.8447 57.6936 31.974 57.7361 32.1068C57.712 32.205 57.6876 32.3036 57.6638 32.4009C57.5077 33.0333 57.3491 33.6666 57.187 34.3004C56.8639 34.7138 56.5351 35.1497 56.2039 35.7658C56.0609 36.0313 55.8733 36.2746 55.69 36.5102C55.4178 36.8609 55.1612 37.1832 55.0532 37.5642C54.967 37.8324 54.832 37.9905 54.4516 38.4117C54.4353 38.4294 54.4182 38.4476 54.4001 38.4665C54.1045 38.6926 53.8288 38.8864 53.7763 39.2405C53.7438 39.4674 53.7381 39.7014 53.7327 39.9169C53.7237 40.2603 53.7117 40.5614 53.5799 40.724C53.334 41.0276 53.2198 41.3824 53.1151 41.6964C52.9898 42.0732 52.8783 42.3906 52.582 42.4678C52.5371 42.4795 52.4819 42.4904 52.4208 42.5012C52.0946 42.5614 51.5818 42.648 51.2426 43.1935C51.1217 43.3877 51.0725 43.641 51.0212 43.8905C50.9474 44.2528 50.8683 44.6076 50.5685 44.7461C50.5238 44.7667 50.4479 44.7549 50.3788 44.7438C50.2909 44.7298 50.2142 44.7173 50.226 44.7758C50.2557 44.9232 50.264 45.1043 50.2678 45.3031C50.2672 45.3369 50.2664 45.3713 50.2653 45.4062C50.259 45.5881 50.2516 45.7799 50.2546 45.9713C49.6103 46.6084 48.9791 47.1762 48.3289 47.7246C48.032 47.9749 47.7301 48.2207 47.4279 48.4596C47.1379 48.376 46.8567 48.3122 46.5973 48.2923C46.2556 48.2681 45.9259 48.4018 45.4954 48.5674C45.1782 48.6894 44.8093 48.8267 44.347 48.9251C43.4924 49.1078 42.7714 49.5519 42.3399 49.9252C42.2494 50.004 42.1586 50.0847 42.0607 50.1713C41.7398 50.454 41.3488 50.7991 40.6069 51.2885C40.4347 51.3891 40.2507 51.4888 40.0554 51.5861C38.7085 52.2457 37.6725 52.432 36.911 52.5759C36.5212 52.6452 36.2103 52.6908 35.9689 52.7405C35.5608 52.8251 35.0661 52.9009 34.5772 52.9639C33.812 53.0636 33.0598 53.132 32.6366 53.2156C32.4833 53.2454 32.3287 53.2818 32.1566 53.3197C31.6847 53.4244 31.1139 53.5456 30.339 53.5877C29.6484 53.6247 29.1919 53.5652 28.7584 53.4506C28.6789 53.43 28.6005 53.4076 28.5223 53.3835C28.3091 53.3184 28.1347 53.109 27.9564 52.8918C27.7036 52.5835 27.4476 52.2607 27.0505 52.3072C26.9582 52.3181 26.8553 52.3533 26.7487 52.3901C26.5515 52.4574 26.3375 52.529 26.1345 52.4599C26.0642 52.4359 26.0069 52.375 25.9515 52.3153C25.8906 52.2496 25.8308 52.1853 25.7551 52.1716C25.4725 52.1204 25.1938 52.0915 24.9456 52.0635C24.6257 52.0275 24.3564 51.9927 24.1996 51.9173C23.9199 51.7829 23.5853 51.7932 23.2435 51.7986C22.9826 51.8027 22.7174 51.8041 22.4758 51.7372C22.3377 51.6989 22.1872 51.664 22.0274 51.632C21.4088 51.5093 20.6353 51.4383 19.8034 51.3847C19.4099 51.3591 19.1285 51.1443 18.7716 50.8609C18.5486 50.6839 18.2971 50.4803 17.9577 50.266C17.7653 50.1444 17.5464 50.1734 17.3356 50.1941C17.2093 50.2067 17.0851 50.2158 16.9758 50.1889C16.9078 50.1703 16.8446 50.1414 16.7881 50.0972C16.6484 49.9865 16.6323 49.7769 16.6255 49.5818C16.6177 49.3644 16.6133 49.1606 16.463 49.1215C16.3805 49.0993 16.2545 49.1346 16.1005 49.1729C16.0392 49.1878 15.9753 49.2039 15.9096 49.2183C15.9298 49.1875 15.9464 49.1591 15.9586 49.1374C16.0455 48.9848 15.9563 48.8289 15.8827 48.6813C15.8522 48.6218 15.8217 48.5625 15.8025 48.5038C15.7368 48.2913 15.4831 48.1086 15.2865 47.9924C15.2014 47.9421 15.157 47.8492 15.106 47.7407C15.0597 47.6436 15.0106 47.5357 14.924 47.4343C14.8743 47.3761 14.8556 47.3025 14.8416 47.2421C14.8313 47.1982 14.8225 47.1607 14.8047 47.1403C14.7891 47.1228 14.7458 47.1543 14.6969 47.1898C14.6617 47.2153 14.6235 47.2429 14.5907 47.2556C14.5118 47.2855 14.4514 47.2696 14.4285 47.2272C14.4181 47.2077 14.4163 47.1827 14.4146 47.1579C14.4126 47.129 14.4108 47.1 14.3949 47.0794C14.3207 46.9839 14.2021 46.9717 14.0735 46.9546C13.9328 46.9363 13.7897 46.9188 13.7001 46.7925C13.673 46.7535 13.6555 46.6958 13.6385 46.6398C13.6208 46.5812 13.6033 46.5243 13.5761 46.4929C13.4675 46.3665 13.2699 46.3778 13.0886 46.3879C12.9685 46.395 12.8543 46.4005 12.778 46.3644C12.6403 46.2998 12.4859 46.3725 12.3711 46.4255C12.3117 46.453 12.2628 46.4756 12.2329 46.471C12.2157 46.4528 12.1998 46.4345 12.184 46.4158C12.1733 46.3938 12.1621 46.371 12.143 46.3611C12.1415 46.3604 12.1399 46.3599 12.1384 46.3592C12.0539 46.2494 11.9792 46.1273 11.9085 46.0078C11.7451 45.7361 11.5911 45.4708 11.3134 45.3347C11.2533 45.3052 11.1619 45.3124 11.0703 45.3206C10.9577 45.3303 10.8418 45.3395 10.7773 45.2808C10.6255 45.1424 10.5258 44.9306 10.4331 44.7253C10.2902 44.4138 10.1544 44.1105 9.84087 44.0631C9.73717 44.0473 9.61153 44.0597 9.48539 44.0725C9.41563 44.08 9.34524 44.0876 9.27849 44.0897C9.33941 44.0331 9.3933 43.9772 9.44354 43.9251C9.54709 43.8176 9.63579 43.7257 9.74147 43.6729C9.9908 43.5477 10.3151 43.3591 10.4675 43.1519C10.509 43.0958 10.5609 43.038 10.6133 42.98C10.7448 42.8343 10.8791 42.6856 10.857 42.5497C10.8409 42.4572 10.7962 42.2377 10.6123 42.2794C10.5723 42.2885 10.5192 42.3285 10.46 42.3729C10.354 42.4527 10.2272 42.5463 10.1224 42.5049C10.1047 42.4978 10.0862 42.4893 10.0673 42.4801C9.99225 42.4432 9.90795 42.4011 9.81463 42.4583C9.70716 42.5243 9.62507 42.6344 9.52947 42.763C9.40489 42.9303 9.25734 43.1295 8.99892 43.3014C8.94775 43.3353 8.91038 43.3301 8.88188 43.326C8.86185 43.3232 8.84625 43.3213 8.83378 43.334C8.8195 43.3486 8.79626 43.3844 8.76693 43.4299C8.66334 43.59 8.48288 43.8704 8.33657 43.7647C8.29698 43.736 8.26457 43.6878 8.23551 43.6444C8.21111 43.6079 8.18899 43.5749 8.16681 43.5599C8.15022 43.5487 8.13358 43.5477 8.1158 43.5631C8.10016 43.5768 8.08406 43.5923 8.06774 43.6086C8.02738 43.5656 7.98799 43.5234 7.94761 43.4803C7.93209 43.3821 7.84895 43.3182 7.74352 43.2368C7.71818 43.2173 7.69124 43.1962 7.66365 43.1736C7.58383 43.0871 7.50316 42.9996 7.42266 42.9114C7.36944 42.8287 7.32284 42.7288 7.28944 42.6051C7.22193 42.3568 7.23642 42.0566 7.25305 41.7635C7.25967 41.6397 7.26741 41.5176 7.26838 41.4001C7.29811 41.4128 7.32698 41.4221 7.3544 41.4235C7.54109 41.4322 7.7412 41.2962 7.92425 41.1702C8.04604 41.0864 8.16111 41.0076 8.25904 40.9779C8.43846 40.9233 8.55571 40.7767 8.64262 40.6686C8.68769 40.6124 8.72479 40.5666 8.75762 40.5491C8.78397 40.535 8.81055 40.541 8.83808 40.5473C8.86186 40.5525 8.88655 40.5577 8.91205 40.5502C9.22203 40.4581 9.2882 40.304 9.38638 40.0815C9.4405 39.9587 9.50498 39.8154 9.62399 39.6489C9.75317 39.4754 9.80012 39.4329 9.92161 39.4259C9.94201 39.3018 9.96182 39.177 9.98319 39.0533C9.95919 39.0411 9.89978 39.0773 9.80498 39.1407C9.63568 39.2541 9.46528 39.1976 9.33214 39.1519C9.27058 39.1309 9.217 39.1126 9.17479 39.1148C8.95093 39.1267 8.83085 39.321 8.72645 39.4934C8.66893 39.5881 8.61594 39.6761 8.55147 39.7217C8.52392 39.7412 8.50886 39.772 8.49347 39.8033C8.48157 39.8275 8.46956 39.8522 8.45142 39.8723C8.31956 40.0179 8.14998 40.0597 7.99119 40.0964C7.90044 40.1176 7.8132 40.1376 7.73925 40.1755C7.71673 40.1871 7.69511 40.2001 7.67428 40.213C7.64386 40.2317 7.61471 40.2495 7.5851 40.2602C7.51772 40.2848 7.43974 40.2704 7.35444 40.2539C7.31074 40.2454 7.26496 40.2363 7.21758 40.2318C7.15619 40.2259 7.08951 40.2694 7.0196 40.3146C6.9702 40.3465 6.91908 40.3792 6.86691 40.3962C6.77252 40.4269 6.68384 40.3842 6.60157 40.3437C6.56574 40.3261 6.53083 40.3091 6.49739 40.2988C6.48378 40.2946 6.47004 40.2997 6.45609 40.3117C6.31157 40.2533 6.17045 40.1985 6.03298 40.144C5.40608 39.8949 4.84673 39.6416 4.45223 39.0011C4.41834 38.9441 4.38603 38.8838 4.3554 38.8197C4.29056 38.6837 4.18362 38.5655 4.05961 38.461C3.79378 38.0167 3.52946 37.5676 3.26789 37.1129C3.34174 36.9224 3.37784 36.7301 3.37708 36.5424C3.37296 36.1864 3.23265 35.9344 3.0656 35.6309C2.94361 35.4084 2.80585 35.1559 2.70573 34.8199C2.53613 34.2528 2.339 33.6908 2.04623 33.1004C1.75236 32.5111 1.40818 31.8278 1.16961 31.3122C1.03839 31.0322 1.03897 30.6604 1.06307 30.316C1.07673 30.1204 1.09643 29.9301 1.09833 29.7669C1.10909 29.5543 1.06484 29.3997 0.875457 29.3226C0.774268 29.2829 0.613022 29.2634 0.456458 29.2445C0.345012 29.2313 0.235926 29.2174 0.151517 29.1959C0.141877 29.0775 0.133722 28.9643 0.125011 28.8466C0.241722 28.5993 0.344232 28.2501 0.0705169 28.0044C0.0643621 27.8869 0.0563189 27.7615 0.0517959 27.6468C0.0381818 27.3911 0.0288119 27.1433 0.0202385 26.8904C0.0176316 26.8076 0.0157841 26.727 0.0130549 26.6417C0.0130666 26.6409 0.013078 26.64 0.0130897 26.6392C0.00888234 26.4726 0.00526994 26.3038 0.00296956 26.1355C0.00200474 26.0637 0.00183696 25.9946 0.000893474 25.9212C0.000380278 25.7435 -0.00124496 25.5543 0.00180721 25.3774C0.00246733 25.2788 0.00457388 25.1858 0.00643253 25.0874C0.00996232 24.9303 0.0150438 24.7731 0.0219195 24.6136C0.0339457 24.3575 0.0493498 24.105 0.0796532 23.8312C0.0850766 23.788 0.111263 23.7394 0.154761 23.7004C0.198337 23.663 0.255391 23.6376 0.313985 23.6391C0.372622 23.6387 0.429532 23.6593 0.476096 23.6852C0.522512 23.7131 0.554521 23.7486 0.567316 23.7849C0.646998 24.018 0.740899 24.2443 0.836475 24.4685C0.896139 24.6087 0.957571 24.7465 1.01953 24.884C1.05806 24.9704 1.09562 25.0514 1.13495 25.1378C1.20711 25.2919 1.28331 25.4576 1.35769 25.6122C1.38777 25.6762 1.41704 25.7359 1.44711 25.7984C1.51766 25.9451 1.58886 26.092 1.66025 26.2369C1.66068 26.2378 1.66111 26.2387 1.66154 26.2396C1.69729 26.3134 1.73206 26.3823 1.76743 26.4535C1.87577 26.6727 1.98398 26.8868 2.09491 27.1081C2.15278 27.22 2.21292 27.3413 2.27222 27.4569C2.30537 27.5218 2.33969 27.5902 2.37208 27.6517C2.3898 27.6862 2.40768 27.7215 2.42578 27.7573C2.667 28.2267 2.91059 28.6929 3.15546 29.1575C3.306 29.3973 3.49782 29.6535 3.71174 29.9115C4.21531 30.5159 4.82333 31.1218 5.45338 31.7218C6.08506 32.3217 6.74581 32.9191 7.41465 33.5195C7.99639 34.0415 8.585 34.5629 9.17843 35.0915C10.3695 36.1302 11.5757 36.8845 13.0495 37.837C15.6188 39.4721 18.7062 41.4392 20.5203 42.0165C20.5262 42.0176 20.5318 42.0185 20.5371 42.0192C21.023 42.1588 21.7147 42.3344 22.3878 42.4806C22.9726 42.609 23.5691 42.7265 24.1779 42.8374C24.2928 42.858 24.4087 42.8782 24.5247 42.8978C24.7374 42.9333 24.9557 42.9684 25.1805 43.0024Z" fill="black"/>
</svg>
