<svg width="60" height="63" viewBox="0 0 60 63" fill="none" xmlns="http://www.w3.org/2000/svg">
<path d="M25.3403 52.0632C26.8776 51.9654 28.3571 52.8882 29.8996 52.89C31.8149 52.8923 33.7606 52.0105 35.6803 52.1747C37.5888 52.3389 39.5066 52.5748 41.4183 52.8656C43.3321 53.1564 45.2431 53.502 47.1579 53.8849C49.0687 54.2677 50.9835 54.6877 52.8958 55.1284C54.1946 55.4278 55.4949 55.7368 56.7936 56.0496C57.3637 56.1867 57.9322 56.3245 58.502 56.4627C58.9271 56.5661 59.3522 56.6694 59.7773 56.7728C59.8364 56.7874 59.893 56.8465 59.9348 56.9404C59.9765 57.0344 60.0001 57.1547 60 57.2791C59.9999 57.4036 59.9762 57.5242 59.9343 57.6179C59.8924 57.7113 59.8357 57.7696 59.7766 57.7836C59.3479 57.8837 58.9192 57.9838 58.4905 58.0839C58.0144 58.195 57.539 58.3063 57.063 58.4166C56.9881 57.9061 56.8852 57.5189 56.6924 57.348C56.5941 57.2607 56.4506 57.2245 56.345 57.3193C56.2502 57.4045 56.1787 57.5565 56.1109 57.7013C56.0399 57.8528 55.9725 57.9966 55.8859 58.0474C55.7388 58.1336 55.599 58.3504 55.4521 58.5781C55.3987 58.6609 55.3443 58.7454 55.2883 58.8254C54.8339 58.9292 54.3794 59.0322 53.925 59.1343C53.7495 59.08 53.5882 59.036 53.4513 59.0569C53.3285 59.0757 53.216 59.1836 53.104 59.3177C53.0337 59.3333 52.9634 59.349 52.893 59.3646C52.439 59.4651 51.9849 59.564 51.5307 59.6619C51.1763 59.5257 50.8049 59.3935 50.322 59.3354C50.1139 59.3103 49.9085 59.2367 49.7111 59.166C49.4195 59.0616 49.1453 58.9635 48.9048 59.0368C48.744 59.0859 48.5749 59.0137 48.4063 58.9418C48.1801 58.8453 47.9543 58.749 47.7496 58.9454C47.6209 59.069 47.5027 59.2192 47.3932 59.3585C47.2191 59.5802 47.0669 59.7741 46.9291 59.7874C46.6702 59.8125 46.446 59.974 46.2484 60.1164C46.0107 60.2878 45.8114 60.4315 45.6363 60.2767C45.6098 60.2532 45.5794 60.222 45.5452 60.1865C45.3651 59.9995 45.0769 59.7004 44.6631 59.8648C44.5159 59.9234 44.3775 60.0756 44.242 60.2249C44.0448 60.4423 43.8532 60.6533 43.6481 60.5594C43.6174 60.5453 43.5854 60.4864 43.5563 60.4327C43.5192 60.3643 43.4869 60.3046 43.4677 60.3565C43.4115 60.5088 43.3222 60.6772 43.2253 60.8604C43.1541 60.995 43.0786 61.1377 43.009 61.2875C42.4775 61.3721 41.9459 61.4532 41.4142 61.5299C41.1706 61.5651 40.9269 61.5995 40.6831 61.6329C40.5585 61.4036 40.431 61.197 40.2963 61.0407C40.1203 60.8364 39.8921 60.7739 39.598 60.6928C39.3816 60.6332 39.1293 60.5634 38.8358 60.4205C38.2925 60.1559 37.7344 60.2152 37.3767 60.3571C37.3011 60.3871 37.225 60.4191 37.1437 60.454C36.8352 60.5861 36.4503 60.7516 35.7192 60.9341C35.0275 61.1067 34.4394 61.1515 33.9975 61.1851C33.772 61.2023 33.5845 61.2161 33.4409 61.243C33.1951 61.289 32.8933 61.33 32.5904 61.3709C32.1162 61.435 31.6392 61.4992 31.369 61.5848C31.2729 61.6152 31.172 61.6529 31.063 61.6932C30.7611 61.8048 30.3964 61.9395 29.8937 62.0174C29.366 62.099 29.0389 62.0433 28.6992 61.9223C28.5611 61.8731 28.4392 61.6786 28.3137 61.4775C28.1356 61.1923 27.9498 60.8946 27.6985 60.9834C27.6398 61.0042 27.5772 61.0505 27.5117 61.0992C27.3914 61.1886 27.2613 61.2855 27.1281 61.243C27.0817 61.2282 27.0407 61.1753 27.0006 61.1236C26.9565 61.0666 26.9132 61.0109 26.8642 61.0078C26.6811 60.9962 26.503 61.0094 26.3447 61.0212C26.1405 61.0364 25.9693 61.0491 25.8631 61.0029C25.6737 60.9206 25.4667 60.9943 25.257 61.0693C25.0969 61.1267 24.9351 61.185 24.7784 61.1741C24.3308 61.1431 23.7153 61.2836 23.081 61.5178C22.8411 61.6063 22.6378 61.4854 22.3772 61.3301C22.2152 61.2335 22.031 61.1233 21.8021 61.0425C21.6723 60.9968 21.5623 61.1045 21.4606 61.204C21.3668 61.2957 21.2799 61.3804 21.1907 61.3325C21.112 61.2902 21.0622 61.1091 21.0149 60.9371C20.9623 60.7457 20.9128 60.5657 20.83 60.6008C20.7859 60.6195 20.7324 60.7101 20.6686 60.8177C20.6434 60.8603 20.6165 60.9053 20.5881 60.9499C20.5895 60.9132 20.5899 60.8803 20.5899 60.8555C20.59 60.6798 20.5055 60.5873 20.4226 60.4966C20.3895 60.4604 20.3565 60.4247 20.3294 60.3839C20.2298 60.2338 20.0411 60.2094 19.8969 60.2164C19.8358 60.2193 19.7806 60.1648 19.716 60.1012C19.6588 60.0448 19.5942 59.9811 19.5119 59.944C19.4649 59.9229 19.4289 59.872 19.399 59.8295C19.3775 59.7987 19.3591 59.7724 19.342 59.7655C19.3273 59.7596 19.3154 59.8099 19.302 59.8667C19.2924 59.9075 19.2819 59.9517 19.269 59.9806C19.2383 60.0496 19.1988 60.0704 19.1711 60.0482C19.1583 60.038 19.1482 60.0184 19.1381 59.9989C19.1264 59.9761 19.1148 59.9533 19.0987 59.9452C19.0252 59.9086 18.9536 59.966 18.8792 60.0257C18.7975 60.0912 18.7123 60.1594 18.6174 60.1085C18.5875 60.0925 18.5557 60.0558 18.5249 60.0202C18.4927 59.9829 18.4614 59.9469 18.4348 59.9373C18.3266 59.8984 18.225 60.024 18.1315 60.1396C18.0693 60.2165 18.0106 60.2887 17.9562 60.3053C17.8563 60.3356 17.8027 60.4864 17.7632 60.5978C17.7428 60.6555 17.726 60.7028 17.7085 60.7172C17.6925 60.713 17.6762 60.708 17.6602 60.7026C17.6456 60.6915 17.6305 60.68 17.6163 60.6837C17.6152 60.684 17.6141 60.6846 17.6131 60.6849C17.5238 60.6483 17.4361 60.5965 17.3489 60.5448C17.1532 60.4286 16.9599 60.3136 16.7555 60.3784C16.7114 60.3924 16.6665 60.4547 16.6209 60.518C16.5649 60.5955 16.5077 60.6748 16.4494 60.6691C16.3105 60.6555 16.1703 60.5527 16.0322 60.4515C15.8245 60.2993 15.6215 60.1507 15.4348 60.3139C15.3732 60.3677 15.3131 60.4574 15.2529 60.5478C15.2193 60.5982 15.1855 60.649 15.1515 60.6934C15.1587 60.6109 15.1625 60.5335 15.1661 60.4613C15.1735 60.3125 15.1799 60.1851 15.2126 60.0768C15.2899 59.8211 15.3775 59.4691 15.3678 59.2123C15.3651 59.1426 15.3673 59.065 15.3696 58.9869C15.3754 58.7908 15.3814 58.5906 15.3096 58.5001C15.2612 58.4391 15.1369 58.299 15.0578 58.4489C15.0406 58.4816 15.0302 58.5463 15.0185 58.6183C14.9975 58.7476 14.9726 58.9007 14.8976 58.9363C14.885 58.9423 14.8713 58.9477 14.8571 58.9528C14.8006 58.9729 14.7373 58.995 14.7136 59.099C14.6864 59.2187 14.6922 59.3558 14.699 59.5157C14.7078 59.7239 14.7183 59.9713 14.6596 60.2694C14.648 60.3283 14.6258 60.3485 14.609 60.3638C14.5972 60.3746 14.5882 60.3832 14.5873 60.401C14.5863 60.4213 14.59 60.4637 14.5948 60.5173C14.6118 60.7065 14.6412 61.037 14.5184 61.0511C14.4852 61.0548 14.4472 61.0391 14.4131 61.0249C14.3629 61.0039 14.3212 60.9866 14.3156 61.0407C14.3135 61.0612 14.312 61.0835 14.3108 61.1065C14.2708 61.1 14.2308 61.0935 14.1908 61.087C14.1396 61.0225 14.0676 61.0281 13.9778 61.0352C13.956 61.037 13.933 61.0386 13.9091 61.0395C13.8302 61.0261 13.7513 61.0129 13.6724 60.9993C13.6099 60.9719 13.5433 60.9274 13.4731 60.8567C13.3323 60.715 13.2098 60.4814 13.0902 60.2529C13.0397 60.1567 12.9898 60.0611 12.9391 59.9739C12.9588 59.9632 12.9766 59.9505 12.9904 59.9331C13.0842 59.8137 13.1219 59.5789 13.1565 59.3628C13.1796 59.219 13.2013 59.0835 13.2373 58.996C13.3033 58.8358 13.2966 58.6484 13.2918 58.5098C13.2893 58.4379 13.2874 58.3791 13.2962 58.3441C13.3032 58.3161 13.3196 58.3029 13.3364 58.2893C13.3511 58.2774 13.3663 58.2649 13.376 58.2424C13.4939 57.968 13.4585 57.8088 13.4069 57.577C13.3785 57.4492 13.3453 57.2992 13.33 57.0957C13.3169 56.8802 13.3213 56.8172 13.3831 56.7314C13.335 56.625 13.2868 56.5185 13.2387 56.4121C13.2198 56.419 13.2055 56.4856 13.1854 56.5961C13.1494 56.7935 13.0324 56.8657 12.9409 56.9221C12.8986 56.9482 12.8617 56.971 12.8409 57.0013C12.7303 57.1623 12.7624 57.3865 12.7908 57.5837C12.8064 57.6923 12.8208 57.7928 12.8096 57.8701C12.8048 57.9031 12.8116 57.9359 12.8185 57.9694C12.8238 57.9953 12.8292 58.0216 12.8295 58.0486C12.8309 58.2451 12.7655 58.3909 12.7047 58.5263C12.6699 58.6038 12.6368 58.6782 12.6184 58.7566C12.6129 58.7805 12.6084 58.8048 12.6042 58.8285C12.5982 58.863 12.5922 58.8959 12.583 58.9241C12.5618 58.9884 12.5183 59.0317 12.4706 59.0789C12.4461 59.1031 12.4206 59.1283 12.3964 59.1581C12.3651 59.1966 12.3539 59.2743 12.3419 59.3555C12.3335 59.4128 12.3247 59.4719 12.3085 59.5206C12.2792 59.6086 12.22 59.6404 12.165 59.6699C12.1411 59.6827 12.1179 59.6955 12.0984 59.7119C12.0905 59.7186 12.0867 59.732 12.0858 59.7503C11.9956 59.8118 11.9094 59.8746 11.8256 59.9361C11.4052 60.2445 11.0413 60.512 10.4979 60.3181C10.3951 60.2815 10.2848 60.2888 10.1733 60.3181C9.81665 60.2411 9.4598 60.1615 9.10328 60.0799C9.03271 59.9029 8.94639 59.7542 8.84419 59.6376C8.65226 59.4185 8.45483 59.3717 8.22186 59.3165C8.04962 59.2756 7.85793 59.23 7.63455 59.1069C7.25926 58.9 6.87392 58.725 6.43911 58.6341C6.00619 58.5436 5.51055 58.4768 5.15989 58.4532C4.96874 58.4402 4.76795 58.2819 4.58082 58.1345C4.3176 57.9272 4.08141 57.7414 3.93721 58.0108C3.89116 58.0969 3.84664 58.2464 3.80331 58.3916C3.77246 58.495 3.74203 58.596 3.71222 58.6713C3.63285 58.6479 3.55339 58.6248 3.47396 58.6012C3.33283 58.4217 3.11352 58.2292 2.90152 58.4294C2.81959 58.4047 2.73761 58.38 2.65845 58.3551C2.48573 58.3028 2.31674 58.2499 2.14622 58.1967C2.09056 58.179 2.03434 58.1614 1.97799 58.1437C1.97746 58.1434 1.97692 58.1432 1.97639 58.143C1.86296 58.1073 1.74867 58.0714 1.63627 58.0352C1.58813 58.0198 1.53999 58.0043 1.49185 57.9889C1.36951 57.9497 1.24628 57.9104 1.12518 57.8707C1.06108 57.8496 0.996369 57.8286 0.931546 57.8073C0.826381 57.7728 0.720421 57.7381 0.615003 57.7032C0.44452 57.6467 0.274836 57.5895 0.104828 57.532C0.0770242 57.5224 0.0503059 57.4926 0.0306701 57.4473C0.0110414 57.4019 -3.0007e-05 57.345 6.10806e-08 57.2864C3.85052e-05 57.2278 0.0112035 57.1708 0.030899 57.1256C0.0505814 57.0805 0.0772725 57.0514 0.105056 57.0421C0.275186 56.9861 0.445087 56.9307 0.61569 56.8758C0.721127 56.8418 0.827049 56.8076 0.932232 56.774C0.997086 56.7533 1.06174 56.733 1.12587 56.7125C1.24698 56.6739 1.37041 56.6354 1.49276 56.5973C1.5409 56.5823 1.58904 56.5673 1.63719 56.5523C1.74988 56.517 1.86449 56.4822 1.97822 56.4475C1.9789 56.4473 1.97959 56.4471 1.98028 56.4469C2.03623 56.4298 2.09209 56.4126 2.14736 56.3957C2.31795 56.344 2.48704 56.2928 2.65983 56.2421C2.7491 56.2148 2.84213 56.1881 2.93448 56.1611C2.9859 56.1461 3.03722 56.131 3.0876 56.116C3.11515 56.1081 3.14307 56.1002 3.17115 56.0923C3.81542 55.9049 4.45516 55.7247 5.10084 55.5518C5.74411 55.379 6.38851 55.2132 7.03099 55.0541C7.67503 54.8949 8.31794 54.7426 8.96138 54.5965C13.0449 53.6687 17.1447 52.9079 21.2463 52.4318C21.8314 52.3634 22.4317 52.3018 23.0179 52.2466C23.6105 52.1913 24.1909 52.1423 24.7851 52.1004C24.9655 52.0873 25.1505 52.075 25.3403 52.0632Z" fill="black"/>
<circle cx="30.8341" cy="4.89004" r="2.5" transform="rotate(8.2828 30.8341 4.89004)" fill="black"/>
<path d="M25.6597 6.74292C25.2976 5.89492 25.7713 4.97998 25.8794 4.22155C25.8818 4.20431 25.8841 4.18704 25.8863 4.16975C25.9923 3.23874 26.0028 1.98568 26.8245 1.22986C27.6275 0.4936 28.6657 0.0660104 29.6876 0.00799421C30.3253 -0.0307142 30.9534 0.0726021 31.5042 0.286931C31.8362 0.415462 32.1482 0.584328 32.4272 0.785171C33.1721 1.31858 33.6621 2.07502 33.8531 2.82701C33.9854 3.33839 33.9864 3.84946 33.882 4.29998C33.8365 4.49783 33.7713 4.68394 33.6902 4.85523C33.6296 4.98279 33.5604 5.10284 33.4844 5.21282C33.4737 5.22818 33.4365 5.23932 33.3791 5.24272C33.3217 5.24616 33.2494 5.24168 33.1755 5.2309C33.1016 5.2201 33.0309 5.20393 32.9765 5.18677C32.9223 5.16958 32.8892 5.15283 32.8825 5.13911C32.8341 5.03978 32.7786 4.9473 32.7175 4.86378C32.6497 4.77074 32.5749 4.68817 32.496 4.61648C32.7961 4.55399 33.0213 4.49069 33.1124 4.42392C33.159 4.39017 33.1721 4.34907 33.1106 4.33732C33.0554 4.32676 32.9628 4.33326 32.8751 4.34137C32.7832 4.34981 32.6965 4.36012 32.6624 4.35225C32.6044 4.33866 32.4721 4.35213 32.3351 4.37388C32.2852 4.38173 32.2346 4.39057 32.1866 4.39913C32.1046 4.35624 32.0216 4.32317 31.9393 4.29939C31.9572 4.26368 31.9687 4.23079 31.9482 4.22118C31.9299 4.21253 31.8667 4.23368 31.792 4.26642C31.7795 4.26445 31.767 4.2627 31.7546 4.26116C31.6747 4.25112 31.5973 4.24968 31.5236 4.25628C31.5603 4.1755 31.5858 4.08818 31.5644 4.02425C31.5554 3.9969 31.5636 3.947 31.5683 3.89768C31.576 3.82524 31.5748 3.75356 31.5233 3.77352C31.4893 3.7871 31.4925 3.7388 31.4919 3.68924C31.4922 3.62331 31.4839 3.55452 31.4075 3.64918C31.3599 3.70882 31.3097 3.78533 31.2659 3.85763C31.1959 3.97261 31.1425 4.07685 31.1284 4.08027C31.1012 4.08645 31.0528 4.17299 31.0169 4.25171C30.9726 4.34611 30.9457 4.42847 30.955 4.33541C30.9564 4.3213 30.9583 4.30257 30.9603 4.28125C30.9681 4.20246 30.9735 4.08944 30.9548 4.06087C30.9472 4.04878 30.9359 4.05205 30.9219 4.08008C30.9051 4.11358 30.8854 4.20358 30.871 4.29242C30.8491 4.42174 30.8402 4.54819 30.8326 4.49178C30.8314 4.48335 30.8301 4.44802 30.8284 4.41575C30.8264 4.37473 30.824 4.33894 30.8234 4.37011C30.8217 4.46152 30.8202 4.56261 30.8225 4.67254C30.8242 4.75329 30.828 4.83885 30.834 4.92852C30.8402 4.97904 30.8553 5.0265 30.8769 5.06872C30.8868 5.0881 30.898 5.1064 30.9104 5.12352C30.8719 4.99138 30.8322 4.87388 30.7987 4.78627C30.7547 4.67185 30.7345 4.63929 30.7059 4.5988C30.6845 4.56925 30.6585 4.53515 30.6043 4.46703C30.5017 4.34185 30.4803 4.39917 30.5182 4.47791C30.5258 4.49476 30.5345 4.51238 30.5444 4.53119C30.5827 4.60209 30.6342 4.68945 30.7051 4.77425C30.7734 4.85322 30.7977 4.86705 30.8138 4.87886C30.8224 4.88451 30.8297 4.88856 30.844 4.89599C30.8686 4.90868 30.8916 4.91769 30.9155 4.92442C30.9529 4.93503 30.9921 4.93995 31.0431 4.9484C31.0613 4.95145 31.0838 4.95511 31.1079 4.95814C31.17 4.96623 31.2455 4.96945 31.2955 4.95721C31.2994 4.95628 31.3031 4.95525 31.3066 4.95412C31.3584 4.93677 31.3261 4.91233 31.2536 4.89719C31.2241 4.89064 31.1073 4.88647 30.9867 4.88824C30.8154 4.88954 30.6374 4.90629 30.6909 4.90577C30.7033 4.90537 30.7311 4.90323 30.7601 4.90023C30.8135 4.89499 30.8709 4.88575 30.8457 4.88902C30.8368 4.89023 30.8055 4.89525 30.775 4.90067C30.7413 4.90659 30.7085 4.913 30.7068 4.91393C30.7003 4.91733 30.7086 4.918 30.7159 4.91795C30.7253 4.91803 30.7329 4.91713 30.7068 4.92628C30.6601 4.94297 30.7038 4.93406 30.7466 4.91992C30.7794 4.90951 30.8119 4.89654 30.8061 4.89941C30.7893 4.90818 30.87 4.8787 30.9817 4.79218C31.0236 4.75929 30.96 4.79511 30.8854 4.85098C30.8389 4.8855 30.7878 4.92763 30.7531 4.96161C30.7336 4.98102 30.7832 4.93949 30.8269 4.89885C30.8674 4.86165 30.9033 4.82553 30.8823 4.84521C30.8638 4.8626 30.7871 4.93954 30.7156 5.01393C30.6358 5.09656 30.5626 5.17609 30.5796 5.16315C30.5886 5.15619 30.6273 5.11793 30.672 5.07131C30.6897 5.05287 30.7082 5.03323 30.7265 5.01363C30.7117 5.03002 30.6986 5.04469 30.6886 5.0558C30.6181 5.13417 30.5833 5.17753 30.5507 5.2212C30.5376 5.23861 30.5249 5.25595 30.5101 5.27554C30.4558 5.3476 30.4566 5.36722 30.4663 5.36938C30.4704 5.37034 30.4533 5.39838 30.4342 5.4317C30.4171 5.46125 30.3986 5.49503 30.3911 5.51696C30.3868 5.52944 30.3717 5.55617 30.3593 5.57862C30.3503 5.59486 30.3427 5.60881 30.3417 5.61311C30.3408 5.61681 30.3587 5.59247 30.3788 5.56493C30.3932 5.54511 30.4087 5.5236 30.4192 5.50978C30.4443 5.47676 30.4534 5.46784 30.4478 5.48006C30.4452 5.48571 30.4394 5.49595 30.4336 5.50617C30.4269 5.51807 30.4202 5.53008 30.4187 5.53481C30.4117 5.5565 30.4353 5.53063 30.4587 5.50299C30.4845 5.47272 30.5099 5.44024 30.5002 5.46985C30.4971 5.47919 30.4881 5.49942 30.4796 5.51916C30.4707 5.53981 30.4623 5.55988 30.4614 5.56595C30.4579 5.59067 30.501 5.52818 30.5379 5.46917C30.5626 5.43001 30.5849 5.39263 30.5919 5.38502C30.6051 5.37121 30.6461 5.29046 30.6754 5.23042C30.6907 5.19933 30.703 5.17369 30.707 5.16608C30.7064 5.16858 30.7056 5.17151 30.7047 5.17468C30.7024 5.18093 30.7 5.18741 30.7014 5.18559C30.7015 5.18545 30.7016 5.18511 30.7017 5.18496C30.6954 5.20616 30.6861 5.236 30.6776 5.26606C30.6581 5.33344 30.6455 5.40244 30.6684 5.36916C30.6733 5.36196 30.6873 5.32724 30.7009 5.29173C30.7176 5.24825 30.7336 5.2034 30.7344 5.20724C30.7365 5.21638 30.7244 5.27702 30.716 5.33757C30.7024 5.42843 30.6996 5.51919 30.7296 5.42523C30.7393 5.39419 30.7522 5.34184 30.7641 5.28884C30.7708 5.25931 30.7772 5.22947 30.7827 5.20337C30.7745 5.25218 30.7669 5.29801 30.7597 5.34074C30.7449 5.42881 30.7323 5.5042 30.7191 5.56783C30.6885 5.71829 30.6407 5.92429 30.6136 6.07593C30.6063 6.1171 30.5976 6.16285 30.5888 6.20889C30.5667 6.32442 30.5433 6.44229 30.5459 6.49796C30.5472 6.53541 30.5565 6.62222 30.5842 6.5354C30.5902 6.51648 30.5977 6.47832 30.606 6.4359C30.6099 6.41558 30.614 6.39427 30.6181 6.37355C30.6296 6.31653 30.6413 6.26407 30.6514 6.2496C30.6537 6.24628 30.6561 6.24332 30.6585 6.24059C30.6682 6.22969 30.6789 6.21756 30.6892 6.15597C30.7011 6.08503 30.7093 6.00316 30.7195 5.90777C30.7325 5.78349 30.7497 5.63611 30.7732 5.45876C30.7778 5.42369 30.7803 5.41178 30.7822 5.40274C30.7836 5.39637 30.7846 5.39126 30.7857 5.38068C30.787 5.36853 30.7894 5.34321 30.7925 5.31119C30.8031 5.19817 30.8242 5.00099 30.8264 4.99275C30.8271 4.99055 30.8267 5 30.8265 5.00854C30.8262 5.02113 30.8262 5.03153 30.8286 4.99918C30.8296 4.9869 30.8306 4.9736 30.8316 4.95981C30.8317 4.96373 30.8318 4.96764 30.832 4.97156C30.8301 5.0102 30.8315 5.00697 30.8328 5.00271C30.8331 5.00168 30.8334 5.00073 30.8337 5.00018C30.8344 5.00822 30.8353 5.0162 30.8364 5.02436C30.8371 5.04077 30.8381 5.0675 30.8403 5.10988C30.8445 5.19483 30.8537 5.33484 30.8684 5.47133C30.8745 5.52884 30.8816 5.58585 30.8892 5.63778C30.8881 5.6443 30.8872 5.65197 30.8868 5.66249C30.884 5.73442 30.8876 5.87528 30.8898 6.00501C30.8912 6.09129 30.892 6.17268 30.889 6.22531C30.8834 6.32173 30.8874 6.43408 30.8911 6.51714C30.8929 6.56023 30.8945 6.59553 30.8936 6.61655C30.8929 6.63339 30.8901 6.64138 30.8873 6.64966C30.8848 6.65687 30.8822 6.6644 30.8807 6.67799C30.862 6.84302 30.8682 6.93843 30.8833 7.07722C30.8914 7.15376 30.9018 7.24351 30.9094 7.36545C30.9165 7.49456 30.917 7.53244 30.9008 7.58435C30.9159 7.64786 30.9319 7.71125 30.9489 7.77449C30.9545 7.77012 30.9572 7.73005 30.9601 7.66353C30.9655 7.54475 30.9951 7.4999 31.0174 7.46437C31.0277 7.44794 31.0365 7.43351 31.0406 7.41496C31.0618 7.31626 31.0401 7.18305 31.0238 7.06567C31.0146 7.00107 31.0066 6.94122 31.0051 6.89483C31.0044 6.87498 31.0013 6.85549 30.9983 6.8356C30.9959 6.82023 30.9935 6.8046 30.9922 6.78842C30.9824 6.67096 30.9873 6.58277 30.9897 6.50093C30.9911 6.45406 30.9919 6.40911 30.9898 6.36205C30.9891 6.34771 30.9883 6.33311 30.9874 6.31893C30.9861 6.29823 30.9849 6.2785 30.9844 6.26153C30.9833 6.22289 30.9864 6.19639 30.9893 6.16751C30.9909 6.1527 30.9923 6.13724 30.9932 6.11915C30.9942 6.09569 30.9895 6.04929 30.9844 6.00084C30.9808 5.9666 30.977 5.93134 30.9747 5.90218C30.9706 5.84945 30.9736 5.82976 30.9761 5.81147C30.9772 5.80351 30.9782 5.79561 30.9785 5.78557C30.9786 5.78149 30.9776 5.77352 30.9759 5.76265C30.9782 5.72491 30.9789 5.68651 30.9785 5.649C30.9785 5.46019 30.9434 5.30349 31.007 5.405C31.0196 5.42396 31.0246 5.41752 31.0242 5.39883C31.0594 5.43495 31.0998 5.4695 31.1451 5.50129C31.1981 5.59348 31.2465 5.66884 31.2891 5.72531C31.3695 5.83113 31.4051 5.84304 31.4462 5.85619C31.477 5.86563 31.5112 5.87582 31.5786 5.91826C31.6918 5.98946 31.8062 6.03272 31.8955 6.02402C31.9843 6.01589 32.0723 5.97938 32.1218 5.94081C32.1486 5.92033 32.2451 5.95083 32.3382 5.9729C32.4686 6.00506 32.5924 6.01919 32.4707 5.90864C32.4318 5.8734 32.3599 5.8191 32.2893 5.76751C32.239 5.73075 32.1895 5.69536 32.1531 5.66831C32.1716 5.66454 32.19 5.6603 32.2087 5.6558C32.3136 5.68904 32.4365 5.70381 32.3448 5.61712C32.3644 5.61065 32.3839 5.60375 32.4034 5.59693C32.4447 5.58145 32.4861 5.56492 32.5275 5.54628C32.5412 5.54024 32.5549 5.53388 32.5686 5.52729C32.5688 5.52723 32.5689 5.52717 32.5691 5.52712C32.5967 5.51388 32.6244 5.49981 32.652 5.4851C32.6638 5.4788 32.6756 5.47233 32.6874 5.46569C32.7171 5.44889 32.7468 5.43104 32.7765 5.41248C32.7922 5.40271 32.8078 5.39232 32.8235 5.38197C32.849 5.36506 32.8745 5.34718 32.8998 5.32861C32.9409 5.29835 32.9815 5.26718 33.0217 5.23325C33.0284 5.22774 33.0471 5.22426 33.0746 5.22362C33.1022 5.22299 33.1364 5.2252 33.1712 5.23027C33.206 5.23534 33.2394 5.24304 33.2655 5.25208C33.2915 5.2611 33.3077 5.27069 33.3121 5.27879C33.3383 5.32841 33.363 5.37857 33.3855 5.43133C33.3995 5.46378 33.413 5.49686 33.4256 5.5301C33.4333 5.55051 33.4406 5.5714 33.4478 5.59213C33.4612 5.63135 33.4737 5.67164 33.485 5.71235C33.4895 5.72843 33.4938 5.7446 33.498 5.76084C33.5078 5.79891 33.5166 5.83773 33.5244 5.877C33.5244 5.87723 33.5245 5.87747 33.5245 5.87771C33.5283 5.89706 33.532 5.91649 33.5355 5.93581C33.5457 5.99528 33.554 6.05526 33.5595 6.11715C33.563 6.14941 33.5652 6.18266 33.5669 6.21628C33.5678 6.23498 33.5686 6.25374 33.5693 6.27224C33.5696 6.28229 33.5697 6.29245 33.5698 6.30268C33.5742 6.53905 33.5462 6.78281 33.4823 7.02698C33.4189 7.2705 33.3207 7.51306 33.1896 7.74486C33.0582 7.97708 32.8937 8.19861 32.6985 8.40161C32.0946 9.03847 31.1664 9.48936 30.1547 9.55712C29.1139 9.63867 27.9554 9.29531 27.0538 8.5685C26.7995 8.36606 26.5593 8.12819 26.3493 7.87196C26.1373 7.61281 25.9535 7.33536 25.7969 7.0319C25.7492 6.93993 25.7033 6.84346 25.6597 6.74292Z" fill="black"/>
<path d="M13.2725 19.4603C13.7699 20.096 14.9676 19.9887 15.5373 20.5559C16.2447 21.2601 16.3383 22.6006 17.1618 23.192C17.9813 23.7792 18.8548 24.3191 19.765 24.818C20.6759 25.3177 21.6245 25.7775 22.6009 26.2125C23.5757 26.6459 24.5784 27.0546 25.5947 27.4477C26.285 27.7146 26.9827 27.9753 27.6825 28.2327C27.9896 28.3459 28.2964 28.4579 28.6042 28.5702C28.8339 28.6538 29.0637 28.7373 29.2934 28.8209C29.3255 28.8324 29.3882 28.8114 29.4699 28.7604C29.5518 28.7093 29.6456 28.6329 29.7335 28.5449C29.8215 28.4569 29.898 28.3629 29.9488 28.2812C29.9995 28.1997 30.0198 28.1376 30.0079 28.1059C29.9207 27.8771 29.8335 27.6484 29.7464 27.4196C29.6494 27.1656 29.5529 26.9117 29.4555 26.6583C29.0669 26.9916 28.7552 27.2275 28.5633 27.2774C28.4654 27.3028 28.3869 27.2756 28.415 27.1696C28.4403 27.0744 28.5214 26.9406 28.5988 26.8132C28.6798 26.6799 28.7567 26.5534 28.7606 26.4855C28.7674 26.3703 28.8691 26.1656 28.976 25.9505C29.0149 25.8722 29.0546 25.7924 29.0905 25.7152C28.9965 25.4743 28.9018 25.234 28.8066 24.9944C28.7035 24.9681 28.6129 24.9397 28.5773 24.8745C28.5453 24.8159 28.5801 24.6982 28.6337 24.5621C28.6189 24.5252 28.604 24.4882 28.5891 24.4512C28.4929 24.2129 28.3954 23.9756 28.2973 23.7389C28.0704 23.7046 27.84 23.6613 27.621 23.5244C27.5266 23.4654 27.3988 23.4418 27.2761 23.419C27.0948 23.3854 26.9243 23.3537 26.8876 23.2132C26.863 23.1193 26.7497 23.108 26.6367 23.0967C26.4851 23.0816 26.3338 23.0665 26.3973 22.8521C26.4372 22.7174 26.4999 22.5676 26.558 22.4287C26.6506 22.2078 26.7316 22.0146 26.6903 21.9544C26.6126 21.8412 26.6441 21.6444 26.6721 21.4709C26.7056 21.2622 26.7338 21.087 26.5598 21.132C26.5334 21.1389 26.5002 21.1497 26.4625 21.1622C26.2638 21.2281 25.9461 21.3333 25.9099 21.0646C25.8971 20.9689 25.9537 20.8103 26.0094 20.6548C26.0904 20.4284 26.169 20.2086 26.027 20.1994C26.0058 20.1981 25.9523 20.2279 25.9036 20.2552C25.8415 20.2899 25.7874 20.3202 25.8171 20.2764C25.904 20.148 25.9902 19.9961 26.084 19.8308C26.153 19.7094 26.226 19.5807 26.3063 19.4491C26.1703 19.1934 26.0317 18.9401 25.89 18.6899C25.8252 18.5752 25.7596 18.4611 25.6935 18.3477C25.4854 18.4639 25.2923 18.563 25.1322 18.6239C24.9229 18.7035 24.7945 18.6636 24.6288 18.6125C24.5069 18.575 24.3646 18.5313 24.1554 18.5242C23.7681 18.5111 23.6043 18.2634 23.5728 18.0313C23.5662 17.9822 23.5608 17.9316 23.5555 17.877C23.5352 17.6698 23.5104 17.411 23.37 17.0125C23.2372 16.6356 23.0521 16.3872 22.913 16.2005C22.842 16.1053 22.7827 16.0264 22.7488 15.9545C22.6908 15.8314 22.6085 15.6912 22.5258 15.5506C22.3964 15.3305 22.266 15.1093 22.227 14.9493C22.2131 14.8923 22.2026 14.8285 22.1909 14.7598C22.1586 14.5696 22.1194 14.34 21.9892 14.0997C21.8525 13.8475 21.6925 13.7663 21.4817 13.7267C21.3961 13.7106 21.2136 13.8033 21.0252 13.8991C20.7579 14.0352 20.4789 14.1772 20.4491 14.0218C20.4421 13.9855 20.4518 13.9297 20.4621 13.8711C20.481 13.7636 20.5016 13.6471 20.4224 13.6281C20.3948 13.6215 20.3424 13.6437 20.291 13.6656C20.2345 13.6896 20.1791 13.713 20.1589 13.6971C20.0832 13.6378 20.0269 13.5629 19.9769 13.4962C19.9124 13.4102 19.8583 13.3381 19.7865 13.3316C19.6585 13.3201 19.6343 13.1917 19.6101 13.0613C19.5916 12.9618 19.5732 12.8609 19.5078 12.8109C19.321 12.6678 19.1935 12.3417 19.1253 11.9424C19.0995 11.7913 18.939 11.8019 18.7332 11.8157C18.6052 11.8243 18.4594 11.8344 18.3179 11.8071C18.2377 11.7916 18.2734 11.6749 18.3062 11.5671C18.3365 11.4677 18.3644 11.3757 18.2977 11.3767C18.2388 11.3776 18.0924 11.4873 17.9533 11.5915C17.7986 11.7075 17.653 11.8165 17.6474 11.7612C17.6443 11.7317 17.6886 11.6479 17.7413 11.5483C17.7621 11.509 17.784 11.4672 17.8051 11.4252C17.7796 11.4517 17.7565 11.475 17.739 11.4926C17.6148 11.6169 17.5182 11.6512 17.4236 11.6847C17.3858 11.6981 17.3483 11.7112 17.3095 11.7301C17.1667 11.7995 17.0798 11.7472 17.0316 11.6891C17.0112 11.6646 16.9523 11.6828 16.8836 11.7039C16.8226 11.7227 16.7537 11.744 16.6972 11.7398C16.665 11.7375 16.6157 11.7602 16.5746 11.7793C16.5449 11.7931 16.5195 11.8049 16.5084 11.8035C16.4987 11.8023 16.53 11.7623 16.5651 11.7172C16.5904 11.6848 16.6179 11.6497 16.6335 11.6245C16.671 11.5644 16.6711 11.5351 16.6453 11.5406C16.6333 11.5431 16.6157 11.5532 16.5982 11.5633C16.5778 11.5751 16.5574 11.587 16.5458 11.5867C16.4927 11.5856 16.507 11.5186 16.5218 11.449C16.538 11.3725 16.5548 11.2929 16.4839 11.2939C16.4615 11.2942 16.4239 11.3084 16.3873 11.3223C16.3491 11.3368 16.3121 11.3507 16.2955 11.3476C16.2282 11.3353 16.2795 11.209 16.3268 11.0929C16.3582 11.0156 16.3877 10.9429 16.3793 10.9111C16.364 10.8529 16.4509 10.7265 16.515 10.6332C16.5483 10.5848 16.5756 10.5452 16.5793 10.5286C16.5704 10.5256 16.5609 10.5231 16.5512 10.5211C16.5379 10.5236 16.5243 10.5261 16.5216 10.5183C16.5214 10.5177 16.5215 10.5168 16.5213 10.5162C16.4626 10.5092 16.3936 10.5135 16.3249 10.518C16.1706 10.528 16.0181 10.538 15.9886 10.4169C15.9822 10.3908 16.0097 10.3302 16.0376 10.2686C16.0718 10.1932 16.1068 10.1161 16.0813 10.0986C16.0205 10.057 15.8962 10.078 15.7737 10.0986C15.5895 10.1297 15.4096 10.16 15.4562 9.97586C15.4716 9.91508 15.5129 9.82951 15.5546 9.74337C15.5778 9.69537 15.6013 9.64699 15.6202 9.60304C15.5645 9.66402 15.5112 9.7202 15.4614 9.77258C15.3589 9.88055 15.2712 9.97298 15.2067 10.0615C15.0544 10.2709 14.8377 10.5521 14.6526 10.7301C14.6023 10.7784 14.5482 10.834 14.4939 10.8901C14.3574 11.0309 14.218 11.1747 14.1275 11.2123C14.0666 11.2376 13.9217 11.2908 13.9986 11.1557C14.0153 11.1262 14.0572 11.0766 14.1038 11.0214C14.1875 10.9222 14.2866 10.8048 14.2842 10.752C14.2838 10.7431 14.2825 10.7342 14.2809 10.7254C14.2743 10.6904 14.2666 10.6513 14.3314 10.5691C14.406 10.4744 14.5051 10.3796 14.6207 10.2691C14.7712 10.1251 14.9499 9.95405 15.1391 9.72163C15.1765 9.67567 15.1826 9.65322 15.1872 9.63621C15.1905 9.62423 15.1933 9.61479 15.2055 9.60192C15.2195 9.58714 15.2509 9.55856 15.2905 9.52242C15.4306 9.39489 15.6751 9.17201 15.6398 9.11685C15.6302 9.10195 15.6051 9.09908 15.5824 9.09657C15.5491 9.09289 15.5215 9.08974 15.5577 9.04944C15.5715 9.03416 15.5866 9.01789 15.6025 9.00114C15.5831 8.991 15.5638 8.98087 15.5445 8.97073C15.48 8.99742 15.4574 8.967 15.4293 8.92882C15.4225 8.91956 15.4152 8.90996 15.407 8.9005C15.3685 8.88087 15.3301 8.86117 15.2914 8.84172C15.249 8.83801 15.193 8.84497 15.1171 8.86906C14.9651 8.91736 14.7547 9.03743 14.5491 9.15489C14.4624 9.20438 14.3764 9.25353 14.2961 9.29653C14.2958 9.31139 14.2934 9.3269 14.2861 9.34429C14.2363 9.46326 14.0842 9.64318 13.9441 9.80877C13.851 9.91891 13.7631 10.0228 13.7145 10.0979C13.6255 10.2355 13.4906 10.3656 13.3908 10.4618C13.3391 10.5117 13.2967 10.5526 13.2752 10.5805C13.258 10.603 13.2548 10.6183 13.2513 10.6342C13.2483 10.648 13.2451 10.6624 13.2327 10.6819C13.0822 10.9194 12.9565 11.0189 12.7737 11.1638C12.6728 11.2437 12.5545 11.3375 12.405 11.4758C12.2478 11.6233 12.2048 11.6695 12.1669 11.753C12.0739 11.8105 11.9809 11.868 11.888 11.9255C11.8859 11.9136 11.9277 11.8613 11.9984 11.7757C12.1248 11.6229 12.1326 11.5287 12.1388 11.4552C12.1417 11.4211 12.1442 11.3914 12.158 11.3623C12.231 11.2077 12.4014 11.061 12.5513 10.932C12.6339 10.8609 12.7102 10.7952 12.7607 10.7364C12.7824 10.7113 12.8081 10.6906 12.8343 10.6695C12.8545 10.6531 12.8751 10.6366 12.8943 10.6175C13.0338 10.4791 13.1127 10.3519 13.1861 10.2338C13.2281 10.1661 13.2685 10.1013 13.3172 10.0391C13.332 10.0202 13.3476 10.0013 13.3628 9.98306C13.3849 9.9564 13.406 9.93094 13.4226 9.90758C13.4602 9.85437 13.4748 9.8077 13.4906 9.75674C13.4987 9.73061 13.5071 9.70333 13.5192 9.67341C13.535 9.63462 13.5857 9.57553 13.6388 9.51375C13.6762 9.47009 13.7147 9.42506 13.7432 9.38468C13.7946 9.31164 13.7953 9.26735 13.7959 9.22625C13.7961 9.20835 13.7966 9.19079 13.801 9.17198C13.8028 9.16431 13.8109 9.15346 13.8235 9.14019C13.8338 9.06346 13.8464 8.9873 13.859 8.91289C13.9222 8.53987 13.9772 8.21667 13.6399 8.15347C13.5761 8.14153 13.5406 8.09569 13.5202 8.03387C13.3343 7.95692 13.1466 7.88168 12.9575 7.80799C12.8063 7.90715 12.6694 7.98046 12.5492 8.02528C12.3236 8.10943 12.2178 8.06976 12.0928 8.02298C12.0005 7.9884 11.8976 7.95001 11.7282 7.95475C11.4436 7.96272 11.1779 7.94445 10.9533 7.84851C10.7298 7.75299 10.4999 7.61753 10.354 7.50505C10.2744 7.44374 10.0884 7.48172 9.91526 7.51696C9.67168 7.56654 9.45326 7.61088 9.59062 7.36723C9.63453 7.28938 9.72382 7.16728 9.81054 7.04863C9.8723 6.96413 9.9325 6.8815 9.97471 6.81732C9.92894 6.80459 9.88332 6.79165 9.83736 6.77906C9.6584 6.854 9.44147 6.90929 9.50492 6.68959C9.45723 6.67689 9.40961 6.66409 9.36278 6.65258C9.2622 6.62586 9.16252 6.60099 9.062 6.57582C9.02903 6.56776 8.99584 6.55953 8.96253 6.5513C8.96219 6.55125 8.96185 6.5512 8.96151 6.55114C8.89445 6.53459 8.82691 6.5179 8.75991 6.50206C8.73126 6.49523 8.7026 6.4884 8.67395 6.48158C8.60116 6.46419 8.52796 6.44657 8.45524 6.43003C8.41669 6.42134 8.37802 6.41232 8.33908 6.40348C8.27591 6.38914 8.21232 6.37463 8.14876 6.36049C8.04599 6.33761 7.94305 6.31548 7.83969 6.29354C7.82271 6.29003 7.79174 6.30131 7.75248 6.3261C7.71316 6.35094 7.66887 6.38708 7.62744 6.42853C7.58599 6.47 7.5498 6.51443 7.52509 6.55365C7.5005 6.59275 7.48972 6.62321 7.4934 6.64C7.51649 6.74231 7.53993 6.84409 7.56397 6.94579C7.57881 7.00866 7.59363 7.07191 7.60867 7.13439C7.61795 7.17292 7.6274 7.21112 7.63652 7.24926C7.65387 7.32118 7.6721 7.39392 7.6903 7.4659C7.69742 7.49426 7.70453 7.52263 7.71164 7.551C7.72828 7.61743 7.74587 7.68431 7.76322 7.75078C7.76333 7.75117 7.76344 7.75157 7.76355 7.75197C7.77209 7.78467 7.78057 7.81736 7.78894 7.84973C7.81525 7.94915 7.84134 8.04767 7.86922 8.14715C7.8828 8.19937 7.8982 8.25254 7.91314 8.30566C7.92146 8.33524 7.92969 8.36484 7.93769 8.39397C7.94222 8.40975 7.94694 8.42561 7.95168 8.44156C8.05665 8.81145 8.16497 9.17464 8.28068 9.53483C8.39549 9.89412 8.51577 10.2488 8.64 10.5981C8.7648 10.948 8.89404 11.2926 9.02785 11.633C9.87663 13.794 10.8496 15.8428 12.0244 17.691C12.1917 17.9549 12.3693 18.2197 12.5463 18.4748C12.7256 18.7323 12.9048 18.9808 13.0942 19.2294C13.1514 19.3052 13.2109 19.3821 13.2725 19.4603Z" fill="black"/>
<path d="M20.4044 45.8947C21.04 45.3973 20.9327 44.1996 21.4999 43.6299C22.2041 42.9225 23.5447 42.8289 24.136 42.0054C24.7232 41.1859 25.2632 40.3124 25.762 39.4023C26.2617 38.4913 26.7215 37.5427 27.1565 36.5663C27.5899 35.5915 27.9986 34.5889 28.3917 33.5725C28.6587 32.8822 28.9193 32.1845 29.1767 31.4847C29.2899 31.1777 29.402 30.8708 29.5142 30.563C29.5978 30.3333 29.6813 30.1035 29.7649 29.8738C29.7764 29.8417 29.7554 29.779 29.7045 29.6973C29.6534 29.6154 29.5769 29.5216 29.489 29.4337C29.4009 29.3457 29.3069 29.2692 29.2252 29.2184C29.1437 29.1678 29.0816 29.1474 29.0499 29.1593C28.8211 29.2465 28.5924 29.3337 28.3636 29.4209C28.1096 29.5178 27.8557 29.6143 27.6023 29.7117C27.9356 30.1003 28.1715 30.412 28.2214 30.6039C28.2468 30.7019 28.2196 30.7804 28.1136 30.7522C28.0184 30.7269 27.8846 30.6458 27.7572 30.5684C27.6239 30.4874 27.4974 30.4106 27.4296 30.4066C27.3144 30.3998 27.1096 30.2981 26.8945 30.1912C26.8162 30.1523 26.7364 30.1126 26.6592 30.0767C26.4183 30.1707 26.178 30.2654 25.9384 30.3606C25.9121 30.4637 25.8838 30.5543 25.8185 30.5899C25.76 30.6219 25.6423 30.5871 25.5062 30.5335C25.4692 30.5484 25.4322 30.5632 25.3952 30.5781C25.1569 30.6744 24.9196 30.7718 24.6829 30.8699C24.6486 31.0968 24.6053 31.3272 24.4684 31.5462C24.4094 31.6406 24.3858 31.7684 24.3631 31.8911C24.3294 32.0724 24.2977 32.2429 24.1572 32.2796C24.0633 32.3042 24.052 32.4175 24.0407 32.5305C24.0256 32.6821 24.0105 32.8334 23.7962 32.7699C23.6614 32.73 23.5116 32.6674 23.3727 32.6092C23.1518 32.5166 22.9586 32.4356 22.8984 32.4769C22.7853 32.5546 22.5885 32.5231 22.4149 32.4952C22.2062 32.4616 22.0311 32.4334 22.076 32.6074C22.0829 32.6338 22.0938 32.667 22.1062 32.7047C22.1721 32.9034 22.2774 33.2211 22.0086 33.2573C21.9129 33.2701 21.7543 33.2135 21.5988 33.1579C21.3724 33.0768 21.1526 32.9982 21.1434 33.1402C21.1421 33.1615 21.1719 33.2149 21.1992 33.2637C21.2339 33.3257 21.2642 33.3798 21.2204 33.3501C21.092 33.2632 20.9401 33.177 20.7748 33.0832C20.6534 33.0143 20.5247 32.9412 20.3931 32.8609C20.1374 32.9969 19.8841 33.1355 19.6339 33.2772C19.5192 33.342 19.4052 33.4076 19.2917 33.4738C19.4079 33.6819 19.507 33.8749 19.5679 34.0351C19.6475 34.2444 19.6076 34.3727 19.5566 34.5384C19.519 34.6603 19.4753 34.8026 19.4683 35.0119C19.4551 35.3992 19.2075 35.5629 18.9753 35.5944C18.9262 35.601 18.8756 35.6064 18.821 35.6117C18.6139 35.632 18.355 35.6568 17.9565 35.7972C17.5796 35.93 17.3312 36.1152 17.1446 36.2542C17.0493 36.3252 16.9705 36.3845 16.8985 36.4184C16.7754 36.4764 16.6352 36.5587 16.4946 36.6414C16.2746 36.7708 16.0534 36.9012 15.8933 36.9402C15.8363 36.9541 15.7725 36.9646 15.7038 36.9763C15.5136 37.0087 15.284 37.0478 15.0437 37.1781C14.7915 37.3148 14.7103 37.4747 14.6707 37.6855C14.6546 37.7711 14.7473 37.9536 14.8432 38.142C14.9792 38.4093 15.1213 38.6883 14.9658 38.7181C14.9295 38.7251 14.8737 38.7154 14.8152 38.7051C14.7076 38.6862 14.5912 38.6656 14.5721 38.7448C14.5655 38.7724 14.5877 38.8248 14.6096 38.8762C14.6336 38.9327 14.657 38.9881 14.6412 39.0083C14.5819 39.084 14.5069 39.1403 14.4402 39.1903C14.3542 39.2548 14.2822 39.3089 14.2757 39.3807C14.2641 39.5087 14.1357 39.5329 14.0054 39.5571C13.9058 39.5756 13.805 39.594 13.7549 39.6594C13.6119 39.8462 13.2857 39.9737 12.8864 40.0419C12.7354 40.0678 12.7459 40.2282 12.7597 40.434C12.7683 40.562 12.7784 40.7078 12.7511 40.8493C12.7356 40.9295 12.6189 40.8938 12.5111 40.861C12.4117 40.8307 12.3197 40.8028 12.3207 40.8695C12.3216 40.9284 12.4314 41.0748 12.5356 41.2139C12.6515 41.3686 12.7606 41.5142 12.7052 41.5199C12.6757 41.5229 12.592 41.4786 12.4924 41.4259C12.453 41.4051 12.4112 41.3832 12.3692 41.3621C12.3957 41.3876 12.4191 41.4107 12.4366 41.4283C12.5609 41.5525 12.5952 41.649 12.6287 41.7437C12.6421 41.7814 12.6553 41.8189 12.6741 41.8577C12.7435 42.0006 12.6912 42.0874 12.6332 42.1356C12.6086 42.156 12.6268 42.2149 12.648 42.2836C12.6668 42.3447 12.688 42.4135 12.6839 42.47C12.6815 42.5023 12.7042 42.5516 12.7233 42.5926C12.7371 42.6223 12.7489 42.6477 12.7475 42.6588C12.7463 42.6685 12.7063 42.6373 12.6612 42.6021C12.6288 42.5768 12.5937 42.5494 12.5685 42.5337C12.5084 42.4962 12.4792 42.4961 12.4846 42.5219C12.4871 42.5339 12.4973 42.5515 12.5074 42.569C12.5191 42.5894 12.531 42.6098 12.5308 42.6214C12.5296 42.6745 12.4626 42.6602 12.393 42.6454C12.3165 42.6292 12.2369 42.6124 12.2379 42.6833C12.2382 42.7057 12.2525 42.7433 12.2663 42.7799C12.2808 42.8181 12.2947 42.8551 12.2917 42.8717C12.2793 42.9391 12.1531 42.8877 12.0369 42.8404C11.9596 42.809 11.8869 42.7795 11.8551 42.7879C11.7969 42.8032 11.6705 42.7163 11.5772 42.6522C11.5289 42.6189 11.4892 42.5916 11.4726 42.5879C11.4696 42.5968 11.4672 42.6063 11.4651 42.616C11.4676 42.6293 11.4701 42.6429 11.4623 42.6456C11.4617 42.6458 11.4609 42.6457 11.4603 42.6459C11.4532 42.7047 11.4575 42.7736 11.462 42.8423C11.472 42.9966 11.4821 43.1491 11.3609 43.1786C11.3348 43.185 11.2742 43.1575 11.2127 43.1296C11.1372 43.0954 11.0601 43.0604 11.0426 43.0859C11.0011 43.1467 11.022 43.271 11.0427 43.3935C11.0737 43.5777 11.104 43.7576 10.9199 43.711C10.8591 43.6956 10.7735 43.6543 10.6874 43.6126C10.6394 43.5894 10.591 43.5659 10.5471 43.547C10.608 43.6027 10.6642 43.656 10.7166 43.7058C10.8246 43.8083 10.917 43.896 11.0056 43.9605C11.2149 44.1128 11.4961 44.3295 11.6741 44.5146C11.7224 44.5649 11.778 44.619 11.8342 44.6734C11.9749 44.8098 12.1187 44.9492 12.1563 45.0397C12.1816 45.1007 12.2349 45.2455 12.0997 45.1686C12.0703 45.1519 12.0206 45.11 11.9654 45.0634C11.8663 44.9797 11.7488 44.8806 11.696 44.883C11.6871 44.8834 11.6782 44.8847 11.6694 44.8863C11.6344 44.893 11.5954 44.9006 11.5132 44.8358C11.4185 44.7612 11.3236 44.6621 11.2131 44.5465C11.0691 44.396 10.8981 44.2173 10.6657 44.0281C10.6197 43.9908 10.5972 43.9847 10.5802 43.98C10.5683 43.9767 10.5588 43.9739 10.5459 43.9617C10.5312 43.9477 10.5026 43.9163 10.4664 43.8767C10.3389 43.7367 10.116 43.4921 10.0609 43.5274C10.046 43.537 10.0431 43.5622 10.0406 43.5848C10.0369 43.6181 10.0338 43.6457 9.99347 43.6095C9.97819 43.5958 9.96192 43.5806 9.94517 43.5647C9.93503 43.5841 9.92489 43.6034 9.91476 43.6227C9.94145 43.6872 9.91102 43.7098 9.87285 43.7379C9.86358 43.7447 9.85398 43.752 9.84453 43.7602C9.8249 43.7987 9.8052 43.8371 9.78575 43.8758C9.78204 43.9182 9.789 43.9742 9.81309 44.0501C9.86139 44.2021 9.98146 44.4125 10.0989 44.6181C10.1484 44.7048 10.1976 44.7908 10.2406 44.8711C10.2554 44.8714 10.2709 44.8738 10.2883 44.8811C10.4073 44.9309 10.5872 45.083 10.7528 45.2231C10.8629 45.3163 10.9668 45.4041 11.0419 45.4527C11.1795 45.5417 11.3096 45.6766 11.4058 45.7764C11.4557 45.8281 11.4966 45.8705 11.5246 45.892C11.547 45.9092 11.5623 45.9125 11.5782 45.9159C11.592 45.9189 11.6064 45.9221 11.626 45.9345C11.8634 46.085 11.9629 46.2107 12.1078 46.3935C12.1877 46.4944 12.2815 46.6127 12.4198 46.7622C12.5673 46.9194 12.6135 46.9624 12.697 47.0003C12.7545 47.0933 12.812 47.1863 12.8695 47.2793C12.8577 47.2813 12.8053 47.2395 12.7198 47.1688C12.5669 47.0424 12.4728 47.0346 12.3992 47.0284C12.3651 47.0255 12.3354 47.023 12.3063 47.0092C12.1517 46.9362 12.005 46.7658 11.876 46.6159C11.805 46.5333 11.7392 46.457 11.6804 46.4065C11.6553 46.3848 11.6346 46.3591 11.6135 46.333C11.5972 46.3127 11.5806 46.2921 11.5615 46.2729C11.4232 46.1335 11.2959 46.0545 11.1778 45.9811C11.1102 45.9391 11.0453 45.8987 10.9832 45.8501C10.9642 45.8352 10.9454 45.8196 10.9271 45.8045C10.9004 45.7823 10.875 45.7612 10.8516 45.7447C10.7984 45.707 10.7517 45.6924 10.7008 45.6766C10.6746 45.6685 10.6474 45.6601 10.6174 45.648C10.5786 45.6322 10.5196 45.5815 10.4578 45.5285C10.4141 45.491 10.3691 45.4525 10.3287 45.424C10.2557 45.3726 10.2114 45.372 10.1703 45.3714C10.1524 45.3711 10.1348 45.3706 10.116 45.3662C10.1083 45.3644 10.0975 45.3563 10.0842 45.3437C10.0075 45.3334 9.93132 45.3208 9.85692 45.3082C9.4839 45.245 9.1607 45.19 9.0975 45.5274C9.08556 45.5911 9.03971 45.6266 8.9779 45.647C8.90095 45.8329 8.82571 46.0206 8.75202 46.2097C8.85118 46.3609 8.92449 46.4978 8.96931 46.618C9.05345 46.8436 9.01379 46.9494 8.96701 47.0744C8.93242 47.1667 8.89404 47.2696 8.89878 47.439C8.90674 47.7236 8.88847 47.9893 8.79254 48.2139C8.69702 48.4374 8.56156 48.6673 8.44908 48.8132C8.38777 48.8928 8.42575 49.0788 8.46099 49.2519C8.51057 49.4955 8.55491 49.7139 8.31126 49.5766C8.23341 49.5327 8.11131 49.4434 7.99266 49.3567C7.90816 49.2949 7.82553 49.2347 7.76135 49.1925C7.74862 49.2383 7.73568 49.2839 7.72309 49.3298C7.79803 49.5088 7.85332 49.7257 7.63362 49.6623C7.62092 49.71 7.60812 49.7576 7.59661 49.8044C7.56989 49.905 7.54502 50.0047 7.51985 50.1052C7.51179 50.1382 7.50356 50.1714 7.49533 50.2047C7.49528 50.205 7.49523 50.2054 7.49517 50.2057C7.47862 50.2728 7.46193 50.3403 7.44609 50.4073C7.43926 50.436 7.43243 50.4646 7.42561 50.4933C7.40822 50.566 7.3906 50.6393 7.37406 50.712C7.36537 50.7505 7.35635 50.7892 7.34751 50.8281C7.33317 50.8913 7.31866 50.9549 7.30452 51.0184C7.28164 51.1212 7.25951 51.2242 7.23757 51.3275C7.23406 51.3445 7.24534 51.3755 7.27013 51.4147C7.29497 51.454 7.33111 51.4983 7.37256 51.5398C7.41403 51.5812 7.45846 51.6174 7.49768 51.6421C7.53678 51.6667 7.56724 51.6775 7.58403 51.6738C7.68634 51.6507 7.78812 51.6273 7.88982 51.6032C7.95269 51.5884 8.01594 51.5736 8.07842 51.5585C8.11695 51.5493 8.15514 51.5398 8.19329 51.5307C8.26521 51.5133 8.33795 51.4951 8.40992 51.4769C8.43829 51.4698 8.46666 51.4627 8.49503 51.4556C8.56146 51.4389 8.62834 51.4213 8.69481 51.404C8.6952 51.4039 8.6956 51.4038 8.696 51.4037C8.7287 51.3951 8.76139 51.3866 8.79376 51.3783C8.89318 51.352 8.9917 51.3259 9.09118 51.298C9.1434 51.2844 9.19657 51.269 9.24969 51.2541C9.27927 51.2457 9.30887 51.2375 9.338 51.2295C9.35378 51.225 9.36964 51.2203 9.38559 51.2155C9.75548 51.1106 10.1187 51.0022 10.4789 50.8865C10.8381 50.7717 11.1928 50.6514 11.5421 50.5272C11.892 50.4024 12.2366 50.2732 12.5771 50.1394C14.738 49.2906 16.7868 48.3177 18.635 47.1428C18.8989 46.9755 19.1637 46.7979 19.4188 46.6209C19.6763 46.4416 19.9249 46.2624 20.1735 46.0731C20.2492 46.0158 20.3261 45.9563 20.4044 45.8947Z" fill="black"/>
<path d="M46.8387 38.7628C46.3413 38.1272 45.1436 38.2345 44.5739 37.6673C43.8665 36.9631 43.7729 35.6225 42.9494 35.0312C42.1299 34.444 41.2564 33.904 40.3463 33.4052C39.4353 32.9055 38.4867 32.4457 37.5103 32.0107C36.5355 31.5773 35.5329 31.1686 34.5165 30.7755C33.8262 30.5085 33.1285 30.2479 32.4287 29.9905C32.1216 29.8773 31.8148 29.7652 31.507 29.653C31.2773 29.5694 31.0475 29.4859 30.8178 29.4023C30.7857 29.3908 30.723 29.4118 30.6413 29.4627C30.5594 29.5138 30.4656 29.5903 30.3777 29.6782C30.2897 29.7663 30.2132 29.8603 30.1624 29.942C30.1117 30.0235 30.0914 30.0856 30.1033 30.1173C30.1905 30.3461 30.2777 30.5748 30.3649 30.8036C30.4618 31.0576 30.5583 31.3115 30.6557 31.5649C31.0443 31.2316 31.356 30.9957 31.5479 30.9458C31.6458 30.9204 31.7243 30.9476 31.6962 31.0536C31.6709 31.1488 31.5898 31.2826 31.5124 31.41C31.4314 31.5433 31.3545 31.6698 31.3506 31.7376C31.3438 31.8528 31.2421 32.0576 31.1352 32.2727C31.0963 32.351 31.0566 32.4308 31.0207 32.508C31.1147 32.7489 31.2094 32.9892 31.3046 33.2288C31.4077 33.2551 31.4983 33.2835 31.5339 33.3487C31.5659 33.4072 31.5311 33.5249 31.4775 33.6611C31.4924 33.698 31.5072 33.735 31.5221 33.772C31.6183 34.0103 31.7158 34.2476 31.8139 34.4843C32.0408 34.5186 32.2712 34.5619 32.4902 34.6988C32.5846 34.7578 32.7124 34.7814 32.8351 34.8041C33.0164 34.8378 33.1869 34.8695 33.2236 35.01C33.2482 35.1039 33.3615 35.1152 33.4745 35.1265C33.6261 35.1416 33.7774 35.1567 33.7139 35.371C33.674 35.5058 33.6113 35.6556 33.5532 35.7945C33.4606 36.0154 33.3796 36.2086 33.4209 36.2688C33.4986 36.3819 33.4671 36.5788 33.4391 36.7523C33.4056 36.961 33.3774 37.1361 33.5514 37.0912C33.5778 37.0843 33.611 37.0735 33.6487 37.061C33.8474 36.9951 34.1651 36.8898 34.2013 37.1586C34.2141 37.2543 34.1575 37.4129 34.1019 37.5684C34.0208 37.7948 33.9422 38.0146 34.0842 38.0238C34.1054 38.0251 34.1589 37.9953 34.2076 37.968C34.2697 37.9333 34.3238 37.903 34.2941 37.9468C34.2072 38.0752 34.121 38.2271 34.0272 38.3924C33.9582 38.5138 33.8852 38.6425 33.8049 38.7741C33.9409 39.0298 34.0795 39.2831 34.2212 39.5333C34.286 39.648 34.3516 39.762 34.4178 39.8755C34.6258 39.7593 34.8189 39.6602 34.9791 39.5993C35.1884 39.5197 35.3167 39.5596 35.4824 39.6107C35.6043 39.6482 35.7466 39.6919 35.9558 39.699C36.3432 39.7121 36.5069 39.9597 36.5384 40.1919C36.545 40.241 36.5504 40.2916 36.5557 40.3462C36.576 40.5533 36.6008 40.8122 36.7412 41.2107C36.874 41.5876 37.0591 41.836 37.1982 42.0227C37.2692 42.1179 37.3285 42.1968 37.3624 42.2687C37.4204 42.3918 37.5027 42.532 37.5854 42.6726C37.7148 42.8927 37.8452 43.1139 37.8842 43.2739C37.8981 43.3309 37.9086 43.3947 37.9203 43.4634C37.9526 43.6536 37.9918 43.8832 38.122 44.1235C38.2587 44.3757 38.4187 44.4569 38.6295 44.4965C38.7151 44.5126 38.8976 44.4199 39.086 44.324C39.3533 44.188 39.6323 44.0459 39.6621 44.2014C39.6691 44.2377 39.6594 44.2935 39.6491 44.3521C39.6302 44.4596 39.6096 44.576 39.6888 44.5951C39.7164 44.6017 39.7688 44.5795 39.8202 44.5576C39.8767 44.5336 39.9321 44.5102 39.9523 44.5261C40.028 44.5853 40.0843 44.6603 40.1343 44.727C40.1988 44.813 40.2529 44.8851 40.3247 44.8915C40.4527 44.9031 40.4769 45.0315 40.5011 45.1619C40.5196 45.2614 40.538 45.3623 40.6034 45.4123C40.7902 45.5553 40.9177 45.8815 40.9859 46.2808C41.0118 46.4319 41.1722 46.4213 41.378 46.4075C41.506 46.3989 41.6518 46.3888 41.7933 46.4161C41.8735 46.4316 41.8378 46.5483 41.805 46.6561C41.7747 46.7555 41.7468 46.8475 41.8135 46.8465C41.8724 46.8456 42.0188 46.7359 42.1579 46.6317C42.3126 46.5157 42.4582 46.4066 42.4638 46.462C42.4669 46.4915 42.4226 46.5753 42.3699 46.6748C42.3491 46.7142 42.3272 46.756 42.3061 46.798C42.3316 46.7715 42.3547 46.7482 42.3722 46.7306C42.4964 46.6063 42.593 46.572 42.6877 46.5385C42.7254 46.5251 42.7629 46.512 42.8017 46.4931C42.9446 46.4237 43.0314 46.476 43.0796 46.534C43.1 46.5586 43.1589 46.5404 43.2276 46.5193C43.2887 46.5004 43.3575 46.4792 43.414 46.4833C43.4463 46.4857 43.4956 46.463 43.5366 46.4439C43.5663 46.4301 43.5917 46.4183 43.6028 46.4197C43.6125 46.4209 43.5813 46.4609 43.5461 46.506C43.5208 46.5384 43.4933 46.5735 43.4777 46.5987C43.4402 46.6588 43.4401 46.6881 43.4659 46.6826C43.4779 46.6801 43.4955 46.6699 43.513 46.6599C43.5334 46.6481 43.5538 46.6362 43.5654 46.6365C43.6185 46.6376 43.6042 46.7046 43.5894 46.7742C43.5732 46.8507 43.5564 46.9303 43.6273 46.9293C43.6497 46.929 43.6873 46.9147 43.7239 46.9009C43.7621 46.8864 43.7991 46.8725 43.8157 46.8755C43.8831 46.8879 43.8317 47.0142 43.7844 47.1303C43.753 47.2076 43.7235 47.2803 43.7319 47.3121C43.7472 47.3703 43.6603 47.4967 43.5962 47.59C43.5629 47.6384 43.5356 47.678 43.5319 47.6946C43.5408 47.6976 43.5503 47.7 43.56 47.7021C43.5733 47.6996 43.5869 47.6971 43.5896 47.7049C43.5898 47.7055 43.5897 47.7064 43.5899 47.707C43.6486 47.714 43.7176 47.7097 43.7863 47.7052C43.9406 47.6952 44.0931 47.6851 44.1226 47.8063C44.129 47.8324 44.1015 47.893 44.0736 47.9546C44.0394 48.03 44.0044 48.1071 44.0299 48.1246C44.0907 48.1662 44.215 48.1452 44.3375 48.1245C44.5217 48.0935 44.7016 48.0632 44.655 48.2473C44.6396 48.3081 44.5983 48.3937 44.5566 48.4798C44.5334 48.5278 44.5099 48.5762 44.491 48.6201C44.5467 48.5592 44.6 48.503 44.6498 48.4506C44.7523 48.3426 44.84 48.2502 44.9045 48.1616C45.0568 47.9523 45.2735 47.6711 45.4586 47.4931C45.5089 47.4448 45.563 47.3892 45.6174 47.3331C45.7538 47.1923 45.8932 47.0485 45.9837 47.0109C46.0446 46.9856 46.1895 46.9324 46.1126 47.0675C46.0959 47.097 46.054 47.1466 46.0074 47.2018C45.9237 47.301 45.8246 47.4184 45.827 47.4712C45.8274 47.4801 45.8287 47.489 45.8303 47.4978C45.8369 47.5328 45.8446 47.5718 45.7798 47.6541C45.7052 47.7488 45.6061 47.8436 45.4905 47.9541C45.34 48.0981 45.1613 48.2691 44.9721 48.5016C44.9348 48.5475 44.9287 48.57 44.924 48.587C44.9207 48.599 44.9179 48.6084 44.9057 48.6213C44.8917 48.636 44.8603 48.6646 44.8207 48.7008C44.6807 48.8283 44.4361 49.0512 44.4714 49.1063C44.481 49.1212 44.5062 49.1241 44.5288 49.1266C44.5621 49.1303 44.5897 49.1334 44.5535 49.1737C44.5398 49.189 44.5246 49.2053 44.5087 49.222C44.5281 49.2322 44.5474 49.2423 44.5667 49.2525C44.6312 49.2258 44.6538 49.2562 44.6819 49.2944C44.6887 49.3036 44.696 49.3132 44.7042 49.3227C44.7427 49.3423 44.7811 49.362 44.8198 49.3815C44.8622 49.3852 44.9182 49.3782 44.9941 49.3541C45.1461 49.3058 45.3565 49.1858 45.5621 49.0683C45.6488 49.0188 45.7348 48.9697 45.8151 48.9267C45.8154 48.9118 45.8178 48.8963 45.8251 48.8789C45.8749 48.7599 46.027 48.58 46.1671 48.4144C46.2603 48.3043 46.3481 48.2004 46.3967 48.1253C46.4857 47.9877 46.6206 47.8576 46.7204 47.7614C46.7721 47.7115 46.8145 47.6706 46.836 47.6426C46.8532 47.6202 46.8565 47.6049 46.8599 47.589C46.8629 47.5752 46.8661 47.5608 46.8785 47.5413C47.029 47.3038 47.1547 47.2043 47.3375 47.0594C47.4384 46.9795 47.5567 46.8857 47.7062 46.7474C47.8634 46.5999 47.9064 46.5537 47.9443 46.4702C48.0373 46.4127 48.1303 46.3552 48.2232 46.2977C48.2253 46.3096 48.1835 46.3619 48.1128 46.4475C47.9864 46.6003 47.9786 46.6945 47.9724 46.768C47.9695 46.8021 47.967 46.8318 47.9532 46.8609C47.8802 47.0155 47.7098 47.1622 47.5599 47.2912C47.4773 47.3623 47.401 47.428 47.3505 47.4868C47.3288 47.5119 47.3031 47.5326 47.2769 47.5537C47.2567 47.5701 47.2361 47.5866 47.2169 47.6057C47.0775 47.7441 46.9985 47.8713 46.9251 47.9894C46.8831 48.0571 46.8427 48.1219 46.7941 48.1841C46.7792 48.203 46.7636 48.2219 46.7484 48.2401C46.7263 48.2668 46.7052 48.2922 46.6887 48.3156C46.651 48.3688 46.6364 48.4155 46.6206 48.4664C46.6125 48.4926 46.6041 48.5199 46.592 48.5498C46.5762 48.5886 46.5255 48.6477 46.4725 48.7094C46.435 48.7531 46.3965 48.7981 46.368 48.8385C46.3166 48.9115 46.3159 48.9558 46.3154 48.9969C46.3151 49.0148 46.3146 49.0324 46.3102 49.0512C46.3084 49.0589 46.3003 49.0697 46.2877 49.083C46.2774 49.1597 46.2648 49.2359 46.2522 49.3103C46.189 49.6833 46.134 50.0065 46.4714 50.0697C46.5351 50.0817 46.5706 50.1275 46.591 50.1893C46.7769 50.2663 46.9646 50.3415 47.1537 50.4152C47.3049 50.316 47.4418 50.2427 47.562 50.1979C47.7876 50.1138 47.8934 50.1534 48.0184 50.2002C48.1107 50.2348 48.2136 50.2732 48.383 50.2684C48.6676 50.2605 48.9333 50.2787 49.1579 50.3747C49.3814 50.4702 49.6113 50.6057 49.7572 50.7181C49.8368 50.7794 50.0228 50.7415 50.1959 50.7062C50.4395 50.6566 50.6579 50.6123 50.5206 50.856C50.4767 50.9338 50.3874 51.0559 50.3007 51.1746C50.2389 51.2591 50.1787 51.3417 50.1365 51.4059C50.1823 51.4186 50.2279 51.4315 50.2738 51.4441C50.4528 51.3692 50.6697 51.3139 50.6063 51.5336C50.654 51.5463 50.7016 51.5591 50.7484 51.5706C50.849 51.5973 50.9487 51.6222 51.0492 51.6474C51.0822 51.6554 51.1154 51.6637 51.1487 51.6719C51.149 51.6719 51.1494 51.672 51.1497 51.672C51.2168 51.6886 51.2843 51.7053 51.3513 51.7211C51.38 51.728 51.4086 51.7348 51.4373 51.7416C51.51 51.759 51.5832 51.7766 51.656 51.7932C51.6945 51.8018 51.7332 51.8109 51.7721 51.8197C51.8353 51.8341 51.8989 51.8486 51.9624 51.8627C52.0652 51.8856 52.1682 51.9077 52.2715 51.9296C52.2885 51.9332 52.3195 51.9219 52.3587 51.8971C52.398 51.8722 52.4423 51.8361 52.4838 51.7947C52.5252 51.7532 52.5614 51.7088 52.5861 51.6695C52.6107 51.6304 52.6215 51.6 52.6178 51.5832C52.5947 51.4809 52.5713 51.3791 52.5472 51.2774C52.5324 51.2145 52.5176 51.1513 52.5025 51.0888C52.4933 51.0503 52.4838 51.0121 52.4747 50.9739C52.4573 50.902 52.4391 50.8293 52.4209 50.7573C52.4138 50.7289 52.4067 50.7006 52.3996 50.6722C52.3829 50.6058 52.3653 50.5389 52.348 50.4724C52.3479 50.472 52.3478 50.4716 52.3477 50.4712C52.3391 50.4385 52.3306 50.4058 52.3223 50.3735C52.296 50.274 52.2699 50.1755 52.242 50.076C52.2284 50.0238 52.213 49.9707 52.1981 49.9175C52.1897 49.8879 52.1815 49.8584 52.1735 49.8292C52.169 49.8134 52.1643 49.7976 52.1595 49.7816C52.0546 49.4117 51.9462 49.0485 51.8305 48.6884C51.7157 48.3291 51.5954 47.9744 51.4712 47.6251C51.3464 47.2752 51.2172 46.9306 51.0834 46.5902C50.2346 44.4292 49.2616 42.3804 48.0868 40.5322C47.9195 40.2683 47.7419 40.0035 47.5649 39.7484C47.3856 39.4909 47.2064 39.2423 47.0171 38.9938C46.9598 38.918 46.9003 38.8411 46.8387 38.7628Z" fill="black"/>
<path d="M39.7068 11.3285C39.0712 11.8258 39.1785 13.0236 38.6113 13.5933C37.9071 14.3007 36.5665 14.3942 35.9752 15.2178C35.388 16.0373 34.848 16.9108 34.3492 17.8209C33.8495 18.7318 33.3897 19.6805 32.9547 20.6568C32.5213 21.6317 32.1126 22.6343 31.7195 23.6506C31.4525 24.341 31.1919 25.0387 30.9345 25.7385C30.8213 26.0455 30.7093 26.3524 30.597 26.6601C30.5134 26.8899 30.4299 27.1196 30.3463 27.3494C30.3348 27.3815 30.3558 27.4442 30.4068 27.5259C30.4578 27.6078 30.5343 27.7015 30.6222 27.7895C30.7103 27.8774 30.8043 27.954 30.886 28.0048C30.9675 28.0554 31.0296 28.0757 31.0613 28.0639C31.2901 27.9767 31.5188 27.8895 31.7476 27.8023C32.0016 27.7054 32.2555 27.6089 32.5089 27.5115C32.1756 27.1229 31.9397 26.8112 31.8898 26.6193C31.8644 26.5213 31.8916 26.4428 31.9976 26.471C32.0928 26.4963 32.2266 26.5774 32.354 26.6548C32.4873 26.7357 32.6138 26.8126 32.6816 26.8166C32.7968 26.8234 33.0016 26.9251 33.2167 27.032C33.295 27.0709 33.3748 27.1106 33.452 27.1465C33.6929 27.0525 33.9332 26.9578 34.1728 26.8626C34.1991 26.7594 34.2275 26.6689 34.2927 26.6332C34.3512 26.6013 34.4689 26.6361 34.6051 26.6897C34.642 26.6748 34.679 26.6599 34.716 26.6451C34.9543 26.5488 35.1916 26.4514 35.4283 26.3533C35.4626 26.1264 35.5059 25.896 35.6428 25.6769C35.7018 25.5825 35.7254 25.4548 35.7481 25.332C35.7818 25.1508 35.8135 24.9803 35.954 24.9436C36.0479 24.919 36.0592 24.8057 36.0705 24.6926C36.0856 24.541 36.1007 24.3897 36.315 24.4532C36.4498 24.4932 36.5996 24.5558 36.7385 24.614C36.9594 24.7065 37.1526 24.7876 37.2128 24.7462C37.3259 24.6685 37.5228 24.7001 37.6963 24.728C37.905 24.7616 38.0801 24.7898 38.0352 24.6158C38.0283 24.5894 38.0175 24.5561 38.005 24.5184C37.9391 24.3198 37.8338 24.0021 38.1026 23.9659C38.1983 23.953 38.3569 24.0097 38.5124 24.0653C38.7388 24.1463 38.9586 24.225 38.9678 24.083C38.9691 24.0617 38.9393 24.0083 38.912 23.9595C38.8773 23.8975 38.847 23.8434 38.8908 23.873C39.0192 23.96 39.1711 24.0462 39.3364 24.14C39.4578 24.2089 39.5865 24.282 39.7181 24.3623C39.9738 24.2263 40.2271 24.0877 40.4773 23.946C40.592 23.8811 40.706 23.8156 40.8195 23.7494C40.7033 23.5413 40.6042 23.3483 40.5433 23.1881C40.4637 22.9788 40.5036 22.8505 40.5547 22.6848C40.5922 22.5629 40.6359 22.4206 40.643 22.2113C40.6561 21.824 40.9037 21.6603 41.1359 21.6288C41.185 21.6221 41.2356 21.6168 41.2902 21.6114C41.4973 21.5912 41.7562 21.5663 42.1547 21.4259C42.5316 21.2931 42.78 21.108 42.9666 20.969C43.0619 20.898 43.1408 20.8387 43.2127 20.8048C43.3358 20.7467 43.476 20.6645 43.6166 20.5818C43.8366 20.4524 44.0579 20.322 44.2179 20.2829C44.2749 20.2691 44.3387 20.2585 44.4074 20.2469C44.5976 20.2145 44.8272 20.1754 45.0675 20.0451C45.3197 19.9084 45.4009 19.7485 45.4405 19.5377C45.4566 19.452 45.3639 19.2696 45.268 19.0812C45.132 18.8138 44.9899 18.5349 45.1454 18.5051C45.1817 18.4981 45.2375 18.5078 45.2961 18.5181C45.4036 18.5369 45.52 18.5575 45.5391 18.4784C45.5457 18.4508 45.5235 18.3984 45.5016 18.347C45.4776 18.2904 45.4542 18.2351 45.47 18.2148C45.5293 18.1392 45.6043 18.0828 45.671 18.0329C45.757 17.9684 45.829 17.9143 45.8355 17.8425C45.8471 17.7144 45.9755 17.6903 46.1058 17.6661C46.2054 17.6476 46.3062 17.6292 46.3563 17.5638C46.4993 17.3769 46.8255 17.2494 47.2248 17.1813C47.3758 17.1554 47.3653 16.995 47.3515 16.7892C47.3429 16.6612 47.3328 16.5154 47.3601 16.3739C47.3756 16.2937 47.4923 16.3294 47.6001 16.3622C47.6995 16.3925 47.7915 16.4204 47.7905 16.3537C47.7896 16.2947 47.6799 16.1483 47.5757 16.0093C47.4597 15.8546 47.3506 15.709 47.406 15.7033C47.4355 15.7003 47.5192 15.7446 47.6188 15.7972C47.6582 15.818 47.7 15.84 47.742 15.861C47.7155 15.8356 47.6921 15.8125 47.6746 15.7949C47.5503 15.6707 47.516 15.5742 47.4825 15.4795C47.4691 15.4417 47.456 15.4043 47.4371 15.3655C47.3677 15.2226 47.42 15.1358 47.478 15.0876C47.5026 15.0672 47.4844 15.0083 47.4632 14.9395C47.4444 14.8785 47.4232 14.8097 47.4273 14.7531C47.4297 14.7209 47.407 14.6716 47.3879 14.6306C47.3741 14.6009 47.3623 14.5755 47.3637 14.5643C47.3649 14.5547 47.4049 14.5859 47.45 14.6211C47.4824 14.6464 47.5175 14.6738 47.5427 14.6895C47.6028 14.727 47.6321 14.7271 47.6266 14.7012C47.6241 14.6893 47.6139 14.6717 47.6038 14.6542C47.5921 14.6338 47.5802 14.6133 47.5804 14.6018C47.5816 14.5487 47.6486 14.563 47.7182 14.5777C47.7947 14.594 47.8743 14.6108 47.8733 14.5398C47.873 14.5175 47.8587 14.4798 47.8449 14.4433C47.8304 14.4051 47.8165 14.3681 47.8195 14.3515C47.8319 14.2841 47.9582 14.3355 48.0743 14.3827C48.1516 14.4142 48.2243 14.4437 48.2561 14.4353C48.3143 14.4199 48.4407 14.5068 48.534 14.571C48.5824 14.6042 48.622 14.6316 48.6386 14.6353C48.6416 14.6264 48.644 14.6169 48.6461 14.6071C48.6436 14.5939 48.6411 14.5802 48.6489 14.5776C48.6495 14.5774 48.6504 14.5775 48.651 14.5773C48.658 14.5185 48.6537 14.4495 48.6492 14.3809C48.6392 14.2266 48.6291 14.074 48.7503 14.0445C48.7764 14.0382 48.837 14.0657 48.8986 14.0936C48.974 14.1278 49.0511 14.1628 49.0686 14.1373C49.1101 14.0764 49.0892 13.9521 49.0685 13.8297C49.0375 13.6455 49.0072 13.4656 49.1913 13.5122C49.2521 13.5276 49.3377 13.5688 49.4238 13.6106C49.4718 13.6338 49.5202 13.6573 49.5641 13.6762C49.5032 13.6205 49.447 13.5672 49.3946 13.5174C49.2866 13.4149 49.1942 13.3272 49.1056 13.2627C48.8963 13.1103 48.6151 12.8937 48.4371 12.7085C48.3888 12.6583 48.3332 12.6042 48.277 12.5498C48.1363 12.4134 47.9925 12.274 47.9549 12.1835C47.9296 12.1225 47.8764 11.9777 48.0115 12.0545C48.041 12.0713 48.0906 12.1132 48.1458 12.1598C48.2449 12.2435 48.3624 12.3426 48.4152 12.3401C48.4241 12.3397 48.433 12.3385 48.4418 12.3368C48.4768 12.3302 48.5158 12.3226 48.5981 12.3874C48.6928 12.462 48.7876 12.5611 48.8981 12.6766C49.0421 12.8271 49.2131 13.0059 49.4456 13.195C49.4915 13.2324 49.514 13.2385 49.531 13.2432C49.5429 13.2465 49.5524 13.2492 49.5653 13.2614C49.58 13.2755 49.6086 13.3068 49.6448 13.3465C49.7723 13.4865 49.9952 13.7311 50.0503 13.6957C50.0652 13.6862 50.0681 13.661 50.0706 13.6384C50.0743 13.6051 50.0774 13.5775 50.1177 13.6137C50.133 13.6274 50.1493 13.6426 50.166 13.6584C50.1762 13.6391 50.1863 13.6198 50.1964 13.6005C50.1698 13.536 50.2002 13.5133 50.2384 13.4853C50.2476 13.4785 50.2572 13.4712 50.2667 13.463C50.2863 13.4245 50.306 13.386 50.3255 13.3474C50.3292 13.305 50.3222 13.249 50.2981 13.1731C50.2498 13.021 50.1297 12.8107 50.0123 12.605C49.9628 12.5184 49.9136 12.4324 49.8706 12.3521C49.8558 12.3517 49.8403 12.3494 49.8229 12.3421C49.7039 12.2923 49.524 12.1401 49.3584 12.0001C49.2483 11.9069 49.1444 11.8191 49.0693 11.7705C48.9317 11.6815 48.8016 11.5466 48.7054 11.4468C48.6555 11.395 48.6146 11.3527 48.5866 11.3312C48.5642 11.314 48.5489 11.3107 48.533 11.3073C48.5192 11.3043 48.5048 11.3011 48.4853 11.2887C48.2478 11.1382 48.1483 11.0125 48.0034 10.8296C47.9235 10.7288 47.8297 10.6105 47.6914 10.461C47.5439 10.3038 47.4977 10.2608 47.4142 10.2229C47.3567 10.1299 47.2992 10.0369 47.2417 9.94392C47.2535 9.94185 47.3059 9.98363 47.3915 10.0544C47.5443 10.1807 47.6384 10.1886 47.712 10.1948C47.7461 10.1976 47.7758 10.2002 47.8049 10.2139C47.9595 10.287 48.1062 10.4574 48.2352 10.6073C48.3062 10.6898 48.372 10.7662 48.4308 10.8167C48.4559 10.8383 48.4766 10.864 48.4977 10.8902C48.514 10.9105 48.5306 10.9311 48.5497 10.9503C48.688 11.0897 48.8153 11.1687 48.9334 11.2421C49.001 11.2841 49.0659 11.3245 49.128 11.3731C49.147 11.3879 49.1659 11.4035 49.1841 11.4187C49.2108 11.4409 49.2362 11.462 49.2596 11.4785C49.3128 11.5161 49.3595 11.5307 49.4104 11.5465C49.4366 11.5546 49.4638 11.5631 49.4938 11.5752C49.5326 11.5909 49.5917 11.6417 49.6534 11.6947C49.6971 11.7322 49.7421 11.7707 49.7825 11.7992C49.8555 11.8506 49.8998 11.8512 49.9409 11.8518C49.9588 11.8521 49.9764 11.8526 49.9952 11.857C50.0029 11.8588 50.0137 11.8668 50.027 11.8795C50.1037 11.8897 50.1799 11.9024 50.2543 11.915C50.6273 11.9782 50.9505 12.0331 51.0137 11.6958C51.0256 11.632 51.0715 11.5966 51.1333 11.5762C51.2103 11.3903 51.2855 11.2025 51.3592 11.0134C51.26 10.8623 51.1867 10.7253 51.1419 10.6052C51.0578 10.3796 51.0974 10.2737 51.1442 10.1488C51.1788 10.0564 51.2172 9.95354 51.2124 9.78417C51.2045 9.49959 51.2227 9.23385 51.3187 9.00931C51.4142 8.78576 51.5496 8.55591 51.6621 8.40995C51.7234 8.33036 51.6855 8.1444 51.6502 7.97123C51.6006 7.72765 51.5563 7.50923 51.7999 7.64659C51.8778 7.6905 51.9999 7.77979 52.1185 7.86651C52.203 7.92827 52.2857 7.98847 52.3499 8.03068C52.3626 7.98491 52.3755 7.93929 52.3881 7.89333C52.3132 7.71437 52.2579 7.49744 52.4776 7.56089C52.4903 7.5132 52.5031 7.46558 52.5146 7.41875C52.5413 7.31817 52.5662 7.21849 52.5914 7.11797C52.5994 7.085 52.6076 7.05181 52.6159 7.01849C52.6159 7.01815 52.616 7.01781 52.616 7.01747C52.6326 6.95042 52.6493 6.88288 52.6651 6.81588C52.6719 6.78722 52.6788 6.75857 52.6856 6.72991C52.703 6.65713 52.7206 6.58392 52.7371 6.51121C52.7458 6.47265 52.7549 6.43399 52.7637 6.39505C52.778 6.33188 52.7925 6.26828 52.8067 6.20473C52.8296 6.10196 52.8517 5.99902 52.8736 5.89566C52.8771 5.87868 52.8659 5.84771 52.8411 5.80845C52.8162 5.76913 52.7801 5.72484 52.7386 5.68341C52.6972 5.64196 52.6527 5.60577 52.6135 5.58106C52.5744 5.55647 52.544 5.54568 52.5272 5.54937C52.4249 5.57246 52.3231 5.5959 52.2214 5.61993C52.1585 5.63478 52.0953 5.64959 52.0328 5.66464C51.9943 5.67392 51.9561 5.68337 51.9179 5.69249C51.846 5.70984 51.7733 5.72807 51.7013 5.74627C51.6729 5.75338 51.6445 5.7605 51.6162 5.76761C51.5497 5.78425 51.4829 5.80184 51.4164 5.81919C51.416 5.8193 51.4156 5.81941 51.4152 5.81952C51.3825 5.82806 51.3498 5.83654 51.3174 5.8449C51.218 5.87122 51.1195 5.89731 51.02 5.92519C50.9678 5.93877 50.9146 5.95417 50.8615 5.96911C50.8319 5.97743 50.8023 5.98566 50.7732 5.99366C50.7574 5.99819 50.7416 6.0029 50.7256 6.00764C50.3557 6.11261 49.9925 6.22094 49.6324 6.33664C49.2731 6.45146 48.9184 6.57173 48.5691 6.69597C48.2192 6.82077 47.8746 6.95001 47.5341 7.08381C45.3732 7.9326 43.3244 8.90552 41.4762 10.0804C41.2123 10.2476 40.9475 10.4253 40.6924 10.6023C40.4349 10.7816 40.1863 10.9608 39.9377 11.1501C39.862 11.2074 39.7851 11.2668 39.7068 11.3285Z" fill="black"/>
</svg>
