<svg width="60" height="71" viewBox="0 0 60 71" fill="none" xmlns="http://www.w3.org/2000/svg">
<path d="M23.0792 8.92334C22.6572 7.85265 22.9179 6.71398 23.0615 5.67459C23.0647 5.65148 23.0678 5.62835 23.071 5.60519C23.2341 4.33325 23.538 2.86813 24.5318 1.87915C25.516 0.895525 26.8104 0.255203 28.1419 0.0648728C28.973 -0.0565768 29.8152 -0.00495415 30.595 0.198284C31.0649 0.32011 31.5174 0.496564 31.9377 0.721283C33.057 1.31684 33.9298 2.25657 34.433 3.30977C34.7774 4.02491 34.9572 4.79292 34.9735 5.53846C34.981 5.86574 34.9576 6.18824 34.9057 6.50125C34.867 6.73429 34.8125 6.96348 34.7439 7.18368C34.7343 7.2144 34.7068 7.24148 34.6666 7.25825C34.6263 7.27504 34.5768 7.28023 34.5276 7.27302C34.4783 7.2658 34.4324 7.24677 34.3982 7.22078C34.3641 7.19478 34.3446 7.16393 34.3426 7.13429C34.3285 6.91994 34.2998 6.7079 34.2572 6.50293C34.21 6.27469 34.1455 6.05372 34.0661 5.84209C34.2618 5.77458 34.4061 5.69683 34.4535 5.58651C34.4778 5.5304 34.4756 5.45397 34.4258 5.41037C34.3812 5.37117 34.3132 5.35146 34.2485 5.33393C34.1808 5.3156 34.1167 5.29981 34.0854 5.26556C34.0322 5.20733 33.9291 5.16972 33.8211 5.13578C33.7817 5.12339 33.7416 5.11139 33.7029 5.09874C33.5939 4.92104 33.4735 4.75393 33.3437 4.59829C33.3267 4.52048 33.3062 4.44971 33.2679 4.40239C33.2335 4.3599 33.1705 4.34074 33.0993 4.32984C33.0776 4.30795 33.0557 4.28638 33.0335 4.26508C32.8908 4.12756 32.7403 4.00211 32.5841 3.88961C32.5248 3.74479 32.4501 3.5944 32.3074 3.4426C32.2459 3.37736 32.1952 3.29966 32.143 3.22566C32.0664 3.1167 31.9859 3.0157 31.8802 2.98484C31.8097 2.96431 31.761 2.90243 31.7089 2.84102C31.64 2.75914 31.5636 2.6779 31.448 2.7112C31.3755 2.73218 31.3041 2.76667 31.2395 2.80017C31.137 2.85354 31.0516 2.90407 30.9968 2.89C30.894 2.86365 30.7864 2.89804 30.6964 2.93191C30.5868 2.97237 30.5014 3.01134 30.4477 2.93649C30.4395 2.92514 30.4304 2.91048 30.42 2.89387C30.3818 2.83255 30.3243 2.74544 30.2288 2.71424C30.1884 2.70105 30.142 2.69812 30.0899 2.7121C30.028 2.72883 29.9663 2.78463 29.9096 2.84074C29.8266 2.92243 29.7533 3.00427 29.6769 2.96634C29.6654 2.96067 29.6534 2.93713 29.6422 2.91567C29.6279 2.88839 29.6149 2.86468 29.6078 2.88556C29.587 2.94678 29.5548 3.01485 29.5226 3.0895C29.4989 3.14433 29.4753 3.20272 29.4549 3.26405C29.274 3.30938 29.0996 3.36833 28.9334 3.43902C28.8573 3.47139 28.7825 3.50634 28.7098 3.54353C28.6426 3.46866 28.574 3.40463 28.5076 3.36227C28.4205 3.30706 28.3327 3.31389 28.2198 3.32895C28.1367 3.34019 28.0399 3.35581 27.914 3.35963C27.6789 3.36684 27.5037 3.51596 27.4303 3.6448C27.4144 3.67209 27.3993 3.70022 27.3838 3.73056C27.3263 3.84613 27.255 3.98874 27.1281 4.23205C27.0099 4.46239 26.9069 4.63996 26.8354 4.77807C26.7989 4.84855 26.7713 4.90776 26.7565 4.95671C26.7313 5.04015 26.699 5.14037 26.6724 5.24155C26.63 5.39992 26.6032 5.56145 26.611 5.65766C26.6136 5.6918 26.6191 5.72816 26.6256 5.7671C26.6426 5.86715 26.6667 5.98292 26.6771 6.13017C26.678 6.14162 26.6787 6.15324 26.6794 6.16503C26.6901 6.33591 26.6642 6.43423 26.6141 6.54277C26.5941 6.58641 26.5167 6.62637 26.4376 6.67135C26.3255 6.73423 26.2101 6.81038 26.254 6.89729C26.2643 6.91738 26.285 6.9376 26.307 6.9584C26.3475 6.99671 26.3918 7.03556 26.3822 7.08356C26.3788 7.10038 26.3603 7.11788 26.3422 7.13531C26.3224 7.15446 26.3032 7.17362 26.3052 7.19106C26.3125 7.25606 26.3313 7.31743 26.3492 7.37105C26.3723 7.44019 26.3939 7.49731 26.387 7.53887C26.3747 7.61319 26.4265 7.67621 26.4803 7.7353C26.5216 7.78091 26.5641 7.82473 26.5817 7.8769C26.6314 8.02662 26.7819 8.19978 26.9782 8.32707C27.0522 8.3751 27.0507 8.45709 27.0562 8.56662C27.0596 8.63451 27.0656 8.71292 27.0947 8.79603C27.1114 8.84323 27.1702 8.84401 27.2236 8.84292C27.2729 8.84208 27.3177 8.83992 27.3256 8.87525C27.3326 8.90644 27.2938 8.96992 27.2579 9.03107C27.2178 9.09899 27.1814 9.16406 27.2138 9.17528C27.231 9.1812 27.2704 9.16846 27.3167 9.15237C27.335 9.146 27.3543 9.1392 27.3739 9.13276C27.3637 9.14335 27.3548 9.15305 27.3482 9.16045C27.3011 9.21268 27.2999 9.26127 27.3 9.30931C27.3 9.32848 27.3003 9.34753 27.2977 9.3667C27.288 9.43739 27.3394 9.49216 27.3858 9.52432C27.4054 9.53798 27.4094 9.56838 27.4147 9.60402C27.4194 9.63564 27.4251 9.67147 27.4436 9.70275C27.4541 9.72056 27.4543 9.74559 27.4546 9.76649C27.4548 9.78161 27.4551 9.79455 27.4593 9.80078C27.463 9.80616 27.4784 9.79227 27.4956 9.77654C27.508 9.76522 27.5214 9.75293 27.5321 9.74621C27.5577 9.73018 27.5753 9.73187 27.5796 9.74532C27.5816 9.75154 27.5807 9.76031 27.5798 9.76903C27.5787 9.7792 27.5776 9.78942 27.5813 9.79561C27.5982 9.82402 27.6351 9.82012 27.6728 9.8153C27.7145 9.81012 27.7567 9.80367 27.7789 9.83999C27.7859 9.85142 27.7896 9.87042 27.7933 9.88887C27.7971 9.90817 27.8011 9.92688 27.8087 9.93542C27.8395 9.97022 27.8994 9.94502 27.9531 9.92055C27.9889 9.90432 28.0221 9.88855 28.0439 9.89182C28.0842 9.89794 28.1283 9.85187 28.1604 9.81766C28.177 9.79993 28.1905 9.78527 28.1988 9.78273C28.2035 9.78672 28.2081 9.79102 28.2126 9.79542C28.2157 9.80168 28.219 9.80815 28.2244 9.80895C28.2248 9.80901 28.2252 9.80893 28.2257 9.80899C28.2499 9.83575 28.2721 9.86777 28.2944 9.89931C28.3444 9.97008 28.3996 10.04 28.4822 10.0407C28.5 10.0408 28.5242 10.0226 28.5484 10.0039C28.5782 9.98091 28.608 9.95702 28.628 9.96551C28.6756 9.98565 28.7146 10.0393 28.7559 10.0917C28.817 10.1703 28.8844 10.2461 28.9684 10.1957C28.9959 10.179 29.0252 10.1479 29.0538 10.1161C29.0698 10.0984 29.0857 10.0805 29.1012 10.065C29.0932 10.0971 29.0868 10.1275 29.0808 10.1557C29.0684 10.214 29.0578 10.2639 29.0377 10.3045C28.9906 10.4003 28.9288 10.5321 28.914 10.6338C28.9101 10.6614 28.9036 10.6918 28.8969 10.7223C28.8802 10.799 28.8625 10.8772 28.8888 10.9188C28.9063 10.9468 28.9553 11.0119 29.0012 10.9581C29.0112 10.9464 29.0198 10.9215 29.0294 10.8938C29.0339 10.8805 29.0387 10.8666 29.0439 10.8532C29.0583 10.8161 29.0759 10.7826 29.1016 10.7755C29.1075 10.7739 29.1139 10.7725 29.1205 10.7714C29.1465 10.7667 29.1756 10.7612 29.1907 10.7211C29.208 10.6749 29.2115 10.6201 29.2159 10.5562C29.2215 10.473 29.2294 10.3743 29.2654 10.2584C29.2725 10.2354 29.2818 10.2283 29.2889 10.2229C29.2939 10.2191 29.2977 10.216 29.2988 10.209C29.3 10.2009 29.3003 10.1839 29.3007 10.1624C29.3019 10.0864 29.3058 9.95405 29.3497 9.95272C29.3617 9.95235 29.3747 9.95985 29.3865 9.96654C29.4038 9.97641 29.4183 9.98441 29.4219 9.96299C29.4233 9.95486 29.4244 9.94603 29.4256 9.93686C29.4395 9.9405 29.4536 9.94405 29.4676 9.9475C29.4843 9.97436 29.51 9.97358 29.5423 9.97197C29.5502 9.97158 29.5584 9.97123 29.567 9.97113C29.595 9.97735 29.6231 9.9832 29.6513 9.98883C29.6736 9.99992 29.6973 10.0177 29.7235 10.0456C29.7756 10.1015 29.8244 10.1932 29.8758 10.282C29.8974 10.3194 29.9196 10.3563 29.9423 10.3896C29.9347 10.3945 29.9279 10.4 29.9229 10.4073C29.8881 10.4574 29.8776 10.5519 29.8669 10.6389C29.8599 10.6968 29.8528 10.7514 29.8383 10.787C29.8116 10.8522 29.8165 10.9269 29.8207 10.9823C29.8228 11.011 29.8245 11.0345 29.8209 11.0486C29.8179 11.0599 29.8104 11.0654 29.8026 11.0711C29.7958 11.076 29.7887 11.0812 29.7843 11.0903C29.7307 11.2012 29.7472 11.2645 29.7753 11.3567C29.7906 11.4076 29.8092 11.4671 29.8195 11.5482C29.8289 11.6341 29.8276 11.6595 29.7952 11.6946C29.8221 11.7366 29.8497 11.7783 29.8778 11.8198C29.888 11.8167 29.8949 11.7897 29.9038 11.7451C29.9199 11.6654 29.9803 11.6334 30.0272 11.6074C30.0488 11.5954 30.0675 11.5848 30.0775 11.5718C30.1301 11.5028 30.1044 11.4149 30.0837 11.3375C30.0722 11.2949 30.0619 11.2554 30.0647 11.2242C30.0659 11.2108 30.0615 11.198 30.0571 11.185C30.0537 11.1749 30.0502 11.1646 30.0492 11.1538C30.0422 11.0756 30.0682 11.0149 30.0909 10.9583C30.1039 10.9259 30.1159 10.8948 30.1208 10.8627C30.1223 10.853 30.1233 10.8431 30.1242 10.8335C30.1254 10.8195 30.1266 10.8061 30.1295 10.7944C30.1361 10.7679 30.1534 10.7485 30.1719 10.7273C30.1814 10.7164 30.1912 10.705 30.2002 10.6918C30.2117 10.6748 30.2124 10.6433 30.2132 10.6105C30.2137 10.5873 30.2142 10.5634 30.2183 10.5432C30.2257 10.5066 30.2481 10.4906 30.2687 10.4755C30.2777 10.4689 30.2863 10.4624 30.2932 10.4546C30.296 10.4515 30.2967 10.4459 30.2959 10.4386C30.3286 10.4084 30.3587 10.3776 30.3872 10.3471C30.5311 10.1932 30.6317 10.059 30.854 10.0664C30.8964 10.0675 30.9358 10.0502 30.9721 10.024C31.112 10.004 31.2529 9.9764 31.3939 9.94078C31.4511 9.99099 31.5101 10.0273 31.5698 10.0478C31.6822 10.0861 31.7654 10.0594 31.8616 10.0246C31.9329 9.99866 32.0114 9.9683 32.1194 9.95087C32.301 9.92141 32.4821 9.86555 32.6526 9.75621C32.8228 9.64801 32.9985 9.4959 33.1086 9.37505C33.1687 9.30985 33.2758 9.27441 33.3761 9.23623C33.5168 9.18315 33.6441 9.12337 33.5896 9.00688C33.5722 8.96974 33.5324 8.92024 33.4931 8.87291C33.4651 8.8392 33.4376 8.8065 33.4186 8.77952C33.445 8.75318 33.4711 8.72629 33.4971 8.69905C33.5912 8.67802 33.7089 8.6206 33.6798 8.49583C33.7053 8.46574 33.7303 8.43528 33.7546 8.40552C33.8069 8.34014 33.8572 8.2747 33.9062 8.20676C33.9224 8.1846 33.9384 8.16196 33.9544 8.13904C33.9545 8.13882 33.9547 8.13861 33.9548 8.1384C33.9869 8.09235 34.0183 8.04545 34.0489 7.99827C34.062 7.97807 34.0749 7.9577 34.0877 7.93716C34.1202 7.88516 34.1518 7.83212 34.1825 7.7788C34.1988 7.75068 34.2149 7.72157 34.2307 7.69288C34.2564 7.6461 34.2816 7.59815 34.3061 7.54967C34.3459 7.47079 34.3835 7.39253 34.4196 7.31094C34.4255 7.29764 34.4394 7.28606 34.4588 7.27882C34.4782 7.27159 34.5015 7.26921 34.5247 7.2726C34.5479 7.276 34.5697 7.28501 34.586 7.29788C34.6023 7.31071 34.6118 7.32637 34.6132 7.34138C34.6214 7.43347 34.6273 7.52446 34.6299 7.61839C34.6316 7.67612 34.6324 7.7342 34.632 7.79187C34.6318 7.82728 34.631 7.86336 34.63 7.89879C34.628 7.96589 34.6245 8.03396 34.6194 8.10191C34.6174 8.12874 34.6152 8.15557 34.6128 8.1824C34.6071 8.24525 34.5999 8.30874 34.5915 8.37225C34.5914 8.37264 34.5914 8.37302 34.5913 8.3734C34.5871 8.4047 34.5827 8.43593 34.5781 8.46683C34.5635 8.56199 34.5463 8.65643 34.5252 8.75277C34.5147 8.80273 34.5025 8.85414 34.4895 8.90565C34.4823 8.9343 34.4749 8.96288 34.4674 8.99092C34.4633 9.00621 34.4589 9.02166 34.4545 9.03718C34.3542 9.39459 34.2128 9.74507 34.0286 10.0832C33.8452 10.4202 33.6205 10.7425 33.3601 11.0397C33.099 11.3376 32.8018 11.6106 32.4734 11.8514C31.4519 12.607 30.106 13.0339 28.735 12.9755C27.3213 12.9275 25.8668 12.3512 24.7597 11.3436C24.4477 11.0623 24.1554 10.7399 23.9021 10.3987C23.6463 10.0536 23.4271 9.68954 23.2413 9.29643C23.1848 9.17723 23.1305 9.0527 23.0792 8.92334Z" fill="black"/>
<path d="M25.3403 60.9047C26.8776 60.8069 28.3571 61.7297 29.8996 61.7315C31.8149 61.7338 33.7606 60.852 35.6803 61.0162C37.5888 61.1804 39.5066 61.4163 41.4183 61.7071C43.3321 61.9979 45.2431 62.3436 47.1579 62.7264C49.0687 63.1092 50.9835 63.5292 52.8958 63.9699C54.1946 64.2693 55.4949 64.5783 56.7936 64.8911C57.3637 65.0282 57.9322 65.166 58.502 65.3042C58.9271 65.4076 59.3522 65.5109 59.7773 65.6143C59.8364 65.6289 59.893 65.688 59.9348 65.7819C59.9765 65.8759 60.0001 65.9962 60 66.1206C59.9999 66.2451 59.9762 66.3657 59.9343 66.4594C59.8924 66.5528 59.8357 66.6111 59.7766 66.6251C59.3479 66.7252 58.9192 66.8253 58.4905 66.9255C58.0144 67.0365 57.539 67.1478 57.063 67.2581C56.9881 66.7476 56.8852 66.3605 56.6924 66.1895C56.5941 66.1022 56.4506 66.066 56.345 66.1608C56.2502 66.2461 56.1787 66.398 56.1109 66.5428C56.0399 66.6943 55.9725 66.8381 55.8859 66.8889C55.7388 66.9751 55.599 67.1919 55.4521 67.4196C55.3987 67.5024 55.3443 67.5869 55.2883 67.6669C54.8339 67.7707 54.3794 67.8737 53.925 67.9758C53.7495 67.9215 53.5882 67.8775 53.4513 67.8984C53.3285 67.9172 53.216 68.0251 53.104 68.1592C53.0337 68.1748 52.9634 68.1905 52.893 68.2061C52.439 68.3066 51.9849 68.4055 51.5307 68.5034C51.1763 68.3673 50.8049 68.235 50.322 68.1769C50.1139 68.1518 49.9085 68.0782 49.7111 68.0075C49.4195 67.9031 49.1453 67.805 48.9048 67.8783C48.744 67.9274 48.5749 67.8552 48.4063 67.7833C48.1801 67.6868 47.9543 67.5905 47.7496 67.787C47.6209 67.9105 47.5027 68.0607 47.3932 68.2C47.2191 68.4217 47.0669 68.6156 46.9291 68.629C46.6702 68.654 46.446 68.8155 46.2484 68.958C46.0107 69.1293 45.8114 69.2731 45.6363 69.1182C45.6098 69.0947 45.5794 69.0635 45.5452 69.028C45.3651 68.841 45.0769 68.5419 44.6631 68.7063C44.5159 68.7649 44.3775 68.9171 44.242 69.0664C44.0448 69.2838 43.8532 69.4948 43.6481 69.4009C43.6174 69.3868 43.5854 69.328 43.5563 69.2742C43.5192 69.2058 43.4869 69.1461 43.4677 69.198C43.4115 69.3503 43.3222 69.5187 43.2253 69.7019C43.1541 69.8365 43.0786 69.9792 43.009 70.129C42.4775 70.2136 41.9459 70.2947 41.4142 70.3714C41.1706 70.4067 40.9269 70.441 40.6831 70.4744C40.5585 70.2451 40.431 70.0385 40.2963 69.8822C40.1203 69.6779 39.8921 69.6154 39.598 69.5343C39.3816 69.4747 39.1293 69.4049 38.8358 69.262C38.2925 68.9974 37.7344 69.0567 37.3767 69.1986C37.3011 69.2286 37.225 69.2607 37.1437 69.2955C36.8352 69.4276 36.4503 69.5931 35.7192 69.7756C35.0275 69.9482 34.4394 69.993 33.9975 70.0266C33.772 70.0438 33.5845 70.0576 33.4409 70.0845C33.1951 70.1305 32.8933 70.1715 32.5904 70.2124C32.1162 70.2765 31.6392 70.3407 31.369 70.4263C31.2729 70.4568 31.172 70.4945 31.063 70.5347C30.7611 70.6464 30.3964 70.781 29.8937 70.8589C29.366 70.9405 29.0389 70.8848 28.6992 70.7638C28.5611 70.7146 28.4392 70.5201 28.3137 70.3191C28.1356 70.0338 27.9498 69.7361 27.6985 69.8249C27.6398 69.8457 27.5772 69.892 27.5117 69.9407C27.3914 70.0301 27.2613 70.127 27.1281 70.0845C27.0817 70.0697 27.0407 70.0168 27.0006 69.9651C26.9565 69.9081 26.9132 69.8524 26.8642 69.8493C26.6811 69.8377 26.503 69.8509 26.3447 69.8627C26.1405 69.8779 25.9693 69.8906 25.8631 69.8444C25.6737 69.7621 25.4667 69.8358 25.257 69.9108C25.0969 69.9682 24.9351 70.0265 24.7784 70.0156C24.3308 69.9846 23.7153 70.1251 23.081 70.3593C22.8411 70.4478 22.6378 70.3269 22.3772 70.1716C22.2152 70.075 22.031 69.9648 21.8021 69.884C21.6723 69.8383 21.5623 69.946 21.4606 70.0455C21.3668 70.1372 21.2799 70.2219 21.1907 70.174C21.112 70.1317 21.0622 69.9506 21.0149 69.7786C20.9623 69.5872 20.9128 69.4072 20.83 69.4423C20.7859 69.461 20.7324 69.5516 20.6686 69.6592C20.6434 69.7018 20.6165 69.7468 20.5881 69.7914C20.5895 69.7547 20.5899 69.7219 20.5899 69.697C20.59 69.5213 20.5055 69.4288 20.4226 69.3381C20.3895 69.3019 20.3565 69.2662 20.3294 69.2254C20.2298 69.0753 20.0411 69.0509 19.8969 69.0579C19.8358 69.0608 19.7806 69.0063 19.716 68.9427C19.6588 68.8863 19.5942 68.8226 19.5119 68.7855C19.4649 68.7644 19.4289 68.7135 19.399 68.671C19.3775 68.6402 19.3591 68.6139 19.342 68.607C19.3273 68.6011 19.3154 68.6514 19.302 68.7082C19.2924 68.749 19.2819 68.7932 19.269 68.8221C19.2383 68.8911 19.1988 68.9119 19.1711 68.8897C19.1583 68.8795 19.1482 68.8599 19.1381 68.8404C19.1264 68.8176 19.1148 68.7948 19.0987 68.7868C19.0252 68.7501 18.9536 68.8075 18.8792 68.8672C18.7975 68.9328 18.7123 69.0009 18.6174 68.95C18.5875 68.934 18.5557 68.8973 18.5249 68.8617C18.4927 68.8244 18.4614 68.7884 18.4348 68.7788C18.3266 68.7399 18.225 68.8656 18.1315 68.9811C18.0693 69.058 18.0106 69.1302 17.9562 69.1468C17.8563 69.1771 17.8027 69.3279 17.7632 69.4393C17.7428 69.497 17.726 69.5444 17.7085 69.5587C17.6925 69.5545 17.6762 69.5495 17.6602 69.5441C17.6456 69.533 17.6305 69.5215 17.6163 69.5252C17.6152 69.5255 17.6141 69.5261 17.6131 69.5264C17.5238 69.4898 17.4361 69.438 17.3489 69.3863C17.1532 69.2701 16.9599 69.1551 16.7555 69.2199C16.7114 69.2339 16.6665 69.2962 16.6209 69.3595C16.5649 69.437 16.5077 69.5163 16.4494 69.5106C16.3105 69.497 16.1703 69.3943 16.0322 69.2931C15.8245 69.1408 15.6215 68.9922 15.4348 69.1554C15.3732 69.2092 15.3131 69.2989 15.2529 69.3893C15.2193 69.4397 15.1855 69.4905 15.1515 69.5349C15.1587 69.4524 15.1625 69.375 15.1661 69.3028C15.1735 69.154 15.1799 69.0266 15.2126 68.9184C15.2899 68.6626 15.3775 68.3106 15.3678 68.0538C15.3651 67.9841 15.3673 67.9065 15.3696 67.8284C15.3754 67.6323 15.3814 67.4321 15.3096 67.3416C15.2612 67.2806 15.1369 67.1405 15.0578 67.2904C15.0406 67.3231 15.0302 67.3878 15.0185 67.4598C14.9975 67.5891 14.9726 67.7422 14.8976 67.7778C14.885 67.7838 14.8713 67.7892 14.8571 67.7943C14.8006 67.8144 14.7373 67.8366 14.7136 67.9405C14.6864 68.0602 14.6922 68.1973 14.699 68.3572C14.7078 68.5655 14.7183 68.8128 14.6596 69.1109C14.648 69.1698 14.6258 69.19 14.609 69.2053C14.5972 69.2161 14.5882 69.2248 14.5873 69.2425C14.5863 69.2629 14.59 69.3052 14.5948 69.3589C14.6118 69.548 14.6412 69.8786 14.5184 69.8926C14.4852 69.8963 14.4472 69.8806 14.4131 69.8664C14.3629 69.8454 14.3212 69.8281 14.3156 69.8822C14.3135 69.9027 14.312 69.925 14.3108 69.948C14.2708 69.9415 14.2308 69.935 14.1908 69.9285C14.1396 69.864 14.0676 69.8696 13.9778 69.8767C13.956 69.8785 13.933 69.8801 13.9091 69.881C13.8302 69.8676 13.7513 69.8544 13.6724 69.8408C13.6099 69.8134 13.5433 69.7689 13.4731 69.6982C13.3323 69.5565 13.2098 69.3229 13.0902 69.0944C13.0397 68.9982 12.9898 68.9026 12.9391 68.8154C12.9588 68.8047 12.9766 68.792 12.9904 68.7746C13.0842 68.6552 13.1219 68.4204 13.1565 68.2043C13.1796 68.0605 13.2013 67.925 13.2373 67.8375C13.3033 67.6773 13.2966 67.4899 13.2918 67.3513C13.2893 67.2795 13.2874 67.2206 13.2962 67.1856C13.3032 67.1576 13.3196 67.1444 13.3364 67.1308C13.3511 67.1189 13.3663 67.1064 13.376 67.0839C13.4939 66.8095 13.4585 66.6503 13.4069 66.4185C13.3785 66.2907 13.3453 66.1407 13.33 65.9372C13.3169 65.7217 13.3213 65.6587 13.3831 65.5729C13.335 65.4665 13.2868 65.36 13.2387 65.2536C13.2198 65.2605 13.2055 65.3271 13.1854 65.4376C13.1494 65.6351 13.0324 65.7072 12.9409 65.7636C12.8986 65.7897 12.8617 65.8125 12.8409 65.8428C12.7303 66.0038 12.7624 66.228 12.7908 66.4252C12.8064 66.5338 12.8208 66.6343 12.8096 66.7116C12.8048 66.7447 12.8116 66.7775 12.8185 66.8109C12.8238 66.8368 12.8292 66.8631 12.8295 66.8901C12.8309 67.0866 12.7655 67.2324 12.7047 67.3678C12.6699 67.4453 12.6368 67.5197 12.6184 67.5981C12.6129 67.622 12.6084 67.6463 12.6042 67.67C12.5982 67.7045 12.5922 67.7374 12.583 67.7656C12.5618 67.8299 12.5183 67.8732 12.4706 67.9204C12.4461 67.9446 12.4206 67.9698 12.3964 67.9996C12.3651 68.0381 12.3539 68.1158 12.3419 68.197C12.3335 68.2543 12.3247 68.3134 12.3085 68.3621C12.2792 68.4501 12.22 68.4819 12.165 68.5114C12.1411 68.5242 12.1179 68.537 12.0984 68.5534C12.0905 68.5601 12.0867 68.5735 12.0858 68.5918C11.9956 68.6533 11.9094 68.7161 11.8256 68.7776C11.4052 69.086 11.0413 69.3535 10.4979 69.1596C10.3951 69.123 10.2848 69.1303 10.1733 69.1596C9.81665 69.0826 9.4598 69.003 9.10328 68.9214C9.03271 68.7444 8.94639 68.5957 8.84419 68.4791C8.65226 68.2601 8.45483 68.2133 8.22186 68.158C8.04962 68.1171 7.85793 68.0715 7.63455 67.9484C7.25926 67.7415 6.87392 67.5666 6.43911 67.4756C6.00619 67.3851 5.51055 67.3183 5.15989 67.2947C4.96874 67.2817 4.76795 67.1234 4.58082 66.976C4.3176 66.7687 4.08141 66.5829 3.93721 66.8523C3.89116 66.9384 3.84664 67.0879 3.80331 67.2331C3.77246 67.3366 3.74203 67.4376 3.71222 67.5128C3.63285 67.4894 3.55339 67.4663 3.47396 67.4427C3.33283 67.2632 3.11352 67.0707 2.90152 67.2709C2.81959 67.2462 2.73761 67.2215 2.65845 67.1966C2.48573 67.1443 2.31674 67.0914 2.14622 67.0382C2.09056 67.0205 2.03434 67.0029 1.97799 66.9852C1.97746 66.985 1.97692 66.9848 1.97639 66.9846C1.86296 66.9488 1.74867 66.9129 1.63627 66.8767C1.58813 66.8613 1.53999 66.8458 1.49185 66.8304C1.36951 66.7912 1.24628 66.7519 1.12518 66.7122C1.06108 66.6911 0.996369 66.6701 0.931546 66.6488C0.826381 66.6143 0.720421 66.5796 0.615003 66.5447C0.44452 66.4882 0.274836 66.431 0.104828 66.3735C0.0770242 66.3639 0.0503059 66.3341 0.0306701 66.2888C0.0110414 66.2434 -3.0007e-05 66.1865 6.10806e-08 66.1279C3.85052e-05 66.0693 0.0112035 66.0123 0.030899 65.9671C0.0505814 65.922 0.0772725 65.8929 0.105056 65.8836C0.275186 65.8276 0.445087 65.7722 0.61569 65.7173C0.721127 65.6833 0.827049 65.6491 0.932232 65.6155C0.997086 65.5949 1.06174 65.5745 1.12587 65.554C1.24698 65.5154 1.37041 65.4769 1.49276 65.4388C1.5409 65.4238 1.58904 65.4088 1.63719 65.3938C1.74988 65.3586 1.86449 65.3237 1.97822 65.289C1.9789 65.2888 1.97959 65.2886 1.98028 65.2884C2.03623 65.2713 2.09209 65.2542 2.14736 65.2372C2.31795 65.1855 2.48704 65.1343 2.65983 65.0836C2.7491 65.0563 2.84213 65.0296 2.93448 65.0026C2.9859 64.9876 3.03722 64.9725 3.0876 64.9575C3.11515 64.9496 3.14307 64.9417 3.17115 64.9338C3.81542 64.7464 4.45516 64.5662 5.10084 64.3934C5.74411 64.2205 6.38851 64.0547 7.03099 63.8956C7.67503 63.7364 8.31794 63.5841 8.96138 63.438C13.0449 62.5102 17.1447 61.7494 21.2463 61.2733C21.8314 61.2049 22.4317 61.1433 23.0179 61.0881C23.6105 61.0328 24.1909 60.9838 24.7851 60.9419C24.9655 60.9288 25.1505 60.9165 25.3403 60.9047Z" fill="black"/>
<path d="M13.2725 25.3018C13.7699 25.9375 14.9676 25.8302 15.5373 26.3974C16.2447 27.1016 16.3383 28.4421 17.1618 29.0335C17.9813 29.6207 18.8548 30.1606 19.765 30.6595C20.6759 31.1592 21.6245 31.619 22.6009 32.0539C23.5757 32.4874 24.5784 32.8961 25.5947 33.2891C26.285 33.5561 26.9827 33.8168 27.6825 34.0742C27.9896 34.1873 28.2964 34.2994 28.6042 34.4117C28.8339 34.4952 29.0637 34.5788 29.2934 34.6624C29.3255 34.6738 29.3882 34.6529 29.4699 34.6019C29.5518 34.5508 29.6456 34.4744 29.7335 34.3864C29.8215 34.2984 29.898 34.2044 29.9488 34.1227C29.9995 34.0412 30.0198 33.9791 30.0079 33.9474C29.9207 33.7186 29.8335 33.4898 29.7464 33.261C29.6494 33.007 29.5529 32.7532 29.4555 32.4997C29.0669 32.8331 28.7552 33.069 28.5633 33.1188C28.4654 33.1443 28.3869 33.117 28.415 33.011C28.4403 32.9158 28.5214 32.782 28.5988 32.6546C28.6798 32.5214 28.7567 32.3949 28.7606 32.327C28.7674 32.2118 28.8691 32.0071 28.976 31.7919C29.0149 31.7137 29.0546 31.6339 29.0905 31.5566C28.9965 31.3158 28.9018 31.0755 28.8066 30.8358C28.7035 30.8096 28.6129 30.7812 28.5773 30.716C28.5453 30.6574 28.5801 30.5397 28.6337 30.4036C28.6189 30.3666 28.604 30.3297 28.5891 30.2927C28.4929 30.0543 28.3954 29.8171 28.2973 29.5804C28.0704 29.5461 27.84 29.5028 27.621 29.3659C27.5266 29.3069 27.3988 29.2833 27.2761 29.2605C27.0948 29.2269 26.9243 29.1952 26.8876 29.0547C26.863 28.9608 26.7497 28.9495 26.6367 28.9382C26.4851 28.9231 26.3338 28.908 26.3973 28.6936C26.4372 28.5588 26.4999 28.4091 26.558 28.2702C26.6506 28.0493 26.7316 27.8561 26.6903 27.7958C26.6126 27.6827 26.6441 27.4859 26.6721 27.3124C26.7056 27.1036 26.7338 26.9285 26.5598 26.9735C26.5334 26.9803 26.5002 26.9912 26.4625 27.0037C26.2638 27.0695 25.9461 27.1748 25.9099 26.9061C25.8971 26.8104 25.9537 26.6518 26.0094 26.4963C26.0904 26.2699 26.169 26.0501 26.027 26.0409C26.0058 26.0395 25.9523 26.0694 25.9036 26.0967C25.8415 26.1314 25.7874 26.1617 25.8171 26.1179C25.904 25.9895 25.9902 25.8375 26.084 25.6723C26.153 25.5509 26.226 25.4221 26.3063 25.2906C26.1703 25.0348 26.0317 24.7816 25.89 24.5314C25.8252 24.4167 25.7596 24.3026 25.6935 24.1892C25.4854 24.3054 25.2923 24.4045 25.1322 24.4654C24.9229 24.5449 24.7945 24.5051 24.6288 24.454C24.5069 24.4164 24.3646 24.3728 24.1554 24.3657C23.7681 24.3526 23.6043 24.1049 23.5728 23.8728C23.5662 23.8237 23.5608 23.773 23.5555 23.7184C23.5352 23.5113 23.5104 23.2525 23.37 22.854C23.2372 22.477 23.0521 22.2286 22.913 22.042C22.842 21.9468 22.7827 21.8679 22.7488 21.796C22.6908 21.6728 22.6085 21.5326 22.5258 21.392C22.3964 21.172 22.266 20.9508 22.227 20.7908C22.2131 20.7338 22.2026 20.6699 22.1909 20.6013C22.1586 20.4111 22.1194 20.1815 21.9892 19.9412C21.8525 19.6889 21.6925 19.6078 21.4817 19.5682C21.3961 19.5521 21.2136 19.6447 21.0252 19.7406C20.7579 19.8767 20.4789 20.0187 20.4491 19.8633C20.4421 19.827 20.4518 19.7711 20.4621 19.7126C20.481 19.6051 20.5016 19.4886 20.4224 19.4696C20.3948 19.4629 20.3424 19.4852 20.291 19.507C20.2345 19.531 20.1791 19.5545 20.1589 19.5386C20.0832 19.4793 20.0269 19.4044 19.9769 19.3377C19.9124 19.2517 19.8583 19.1796 19.7865 19.1731C19.6585 19.1616 19.6343 19.0332 19.6101 18.9028C19.5916 18.8033 19.5732 18.7024 19.5078 18.6523C19.321 18.5093 19.1935 18.1831 19.1253 17.7838C19.0995 17.6328 18.939 17.6434 18.7332 17.6572C18.6052 17.6657 18.4594 17.6758 18.3179 17.6485C18.2377 17.6331 18.2734 17.5164 18.3062 17.4085C18.3365 17.3092 18.3644 17.2172 18.2977 17.2182C18.2388 17.2191 18.0924 17.3288 17.9533 17.433C17.7986 17.549 17.653 17.658 17.6474 17.6027C17.6443 17.5732 17.6886 17.4894 17.7413 17.3898C17.7621 17.3504 17.784 17.3087 17.8051 17.2666C17.7796 17.2932 17.7565 17.3165 17.739 17.3341C17.6148 17.4584 17.5182 17.4927 17.4236 17.5262C17.3858 17.5396 17.3483 17.5527 17.3095 17.5716C17.1667 17.641 17.0798 17.5887 17.0316 17.5306C17.0112 17.5061 16.9523 17.5242 16.8836 17.5454C16.8226 17.5642 16.7537 17.5855 16.6972 17.5813C16.665 17.5789 16.6157 17.6017 16.5746 17.6207C16.5449 17.6345 16.5195 17.6464 16.5084 17.645C16.4987 17.6437 16.53 17.6037 16.5651 17.5587C16.5904 17.5263 16.6179 17.4911 16.6335 17.466C16.671 17.4059 16.6711 17.3766 16.6453 17.3821C16.6333 17.3846 16.6157 17.3947 16.5982 17.4048C16.5778 17.4166 16.5574 17.4285 16.5458 17.4282C16.4927 17.427 16.507 17.36 16.5218 17.2905C16.538 17.214 16.5548 17.1344 16.4839 17.1354C16.4615 17.1357 16.4239 17.1499 16.3873 17.1638C16.3491 17.1782 16.3121 17.1921 16.2955 17.1891C16.2282 17.1768 16.2795 17.0505 16.3268 16.9343C16.3582 16.8571 16.3877 16.7843 16.3793 16.7525C16.364 16.6943 16.4509 16.5679 16.515 16.4746C16.5483 16.4263 16.5756 16.3866 16.5793 16.37C16.5704 16.3671 16.5609 16.3646 16.5512 16.3626C16.5379 16.365 16.5243 16.3676 16.5216 16.3597C16.5214 16.3592 16.5215 16.3583 16.5213 16.3577C16.4626 16.3507 16.3936 16.355 16.3249 16.3595C16.1706 16.3695 16.0181 16.3795 15.9886 16.2584C15.9822 16.2322 16.0097 16.1717 16.0376 16.1101C16.0718 16.0347 16.1068 15.9575 16.0813 15.9401C16.0205 15.8985 15.8962 15.9195 15.7737 15.9401C15.5895 15.9712 15.4096 16.0015 15.4562 15.8173C15.4716 15.7566 15.5129 15.671 15.5546 15.5848C15.5778 15.5368 15.6013 15.4885 15.6202 15.4445C15.5645 15.5055 15.5112 15.5617 15.4614 15.6141C15.3589 15.722 15.2712 15.8145 15.2067 15.903C15.0544 16.1123 14.8377 16.3936 14.6526 16.5715C14.6023 16.6198 14.5482 16.6755 14.4939 16.7316C14.3574 16.8724 14.218 17.0162 14.1275 17.0537C14.0666 17.0791 13.9217 17.1323 13.9986 16.9971C14.0153 16.9677 14.0572 16.918 14.1038 16.8629C14.1875 16.7637 14.2866 16.6463 14.2842 16.5934C14.2838 16.5846 14.2825 16.5757 14.2809 16.5669C14.2743 16.5318 14.2666 16.4928 14.3314 16.4106C14.406 16.3159 14.5051 16.2211 14.6207 16.1105C14.7712 15.9665 14.9499 15.7955 15.1391 15.5631C15.1765 15.5171 15.1826 15.4947 15.1872 15.4777C15.1905 15.4657 15.1933 15.4563 15.2055 15.4434C15.2195 15.4286 15.2509 15.4 15.2905 15.3639C15.4306 15.2364 15.6751 15.0135 15.6398 14.9583C15.6302 14.9434 15.6051 14.9406 15.5824 14.9381C15.5491 14.9344 15.5215 14.9312 15.5577 14.8909C15.5715 14.8756 15.5866 14.8594 15.6025 14.8426C15.5831 14.8325 15.5638 14.8223 15.5445 14.8122C15.48 14.8389 15.4574 14.8085 15.4293 14.7703C15.4225 14.761 15.4152 14.7514 15.407 14.742C15.3685 14.7223 15.3301 14.7026 15.2914 14.6832C15.249 14.6795 15.193 14.6864 15.1171 14.7105C14.9651 14.7588 14.7547 14.8789 14.5491 14.9964C14.4624 15.0459 14.3764 15.095 14.2961 15.138C14.2958 15.1529 14.2934 15.1684 14.2861 15.1858C14.2363 15.3047 14.0842 15.4847 13.9441 15.6502C13.851 15.7604 13.7631 15.8643 13.7145 15.9394C13.6255 16.077 13.4906 16.207 13.3908 16.3032C13.3391 16.3531 13.2967 16.3941 13.2752 16.422C13.258 16.4444 13.2548 16.4598 13.2513 16.4756C13.2483 16.4895 13.2451 16.5039 13.2327 16.5234C13.0822 16.7608 12.9565 16.8604 12.7737 17.0052C12.6728 17.0851 12.5545 17.179 12.405 17.3172C12.2478 17.4648 12.2048 17.511 12.1669 17.5944C12.0739 17.6519 11.9809 17.7095 11.888 17.767C11.8859 17.7551 11.9277 17.7028 11.9984 17.6172C12.1248 17.4644 12.1326 17.3702 12.1388 17.2966C12.1417 17.2626 12.1442 17.2328 12.158 17.2038C12.231 17.0492 12.4014 16.9025 12.5513 16.7734C12.6339 16.7024 12.7102 16.6366 12.7607 16.5779C12.7824 16.5527 12.8081 16.5321 12.8343 16.5109C12.8545 16.4946 12.8751 16.478 12.8943 16.459C13.0338 16.3206 13.1127 16.1934 13.1861 16.0753C13.2281 16.0076 13.2685 15.9428 13.3172 15.8806C13.332 15.8617 13.3476 15.8428 13.3628 15.8245C13.3849 15.7979 13.406 15.7724 13.4226 15.7491C13.4602 15.6958 13.4748 15.6492 13.4906 15.5982C13.4987 15.5721 13.5071 15.5448 13.5192 15.5149C13.535 15.4761 13.5857 15.417 13.6388 15.3552C13.6762 15.3116 13.7147 15.2665 13.7432 15.2262C13.7946 15.1531 13.7953 15.1088 13.7959 15.0677C13.7961 15.0498 13.7966 15.0323 13.801 15.0135C13.8028 15.0058 13.8109 14.9949 13.8235 14.9817C13.8338 14.9049 13.8464 14.8288 13.859 14.7544C13.9222 14.3813 13.9772 14.0581 13.6399 13.9949C13.5761 13.983 13.5406 13.9372 13.5202 13.8753C13.3343 13.7984 13.1466 13.7232 12.9575 13.6495C12.8063 13.7486 12.6694 13.8219 12.5492 13.8668C12.3236 13.9509 12.2178 13.9112 12.0928 13.8645C12.0005 13.8299 11.8976 13.7915 11.7282 13.7962C11.4436 13.8042 11.1779 13.7859 10.9533 13.69C10.7298 13.5945 10.4999 13.459 10.354 13.3465C10.2744 13.2852 10.0884 13.3232 9.91526 13.3584C9.67168 13.408 9.45326 13.4524 9.59062 13.2087C9.63453 13.1309 9.72382 13.0088 9.81054 12.8901C9.8723 12.8056 9.9325 12.723 9.97471 12.6588C9.92894 12.6461 9.88332 12.6331 9.83736 12.6205C9.6584 12.6955 9.44147 12.7508 9.50492 12.5311C9.45723 12.5184 9.40961 12.5056 9.36278 12.4941C9.2622 12.4673 9.16252 12.4425 9.062 12.4173C9.02903 12.4092 8.99584 12.401 8.96253 12.3928C8.96219 12.3927 8.96185 12.3927 8.96151 12.3926C8.89445 12.3761 8.82691 12.3594 8.75991 12.3435C8.73126 12.3367 8.7026 12.3299 8.67395 12.3231C8.60116 12.3057 8.52796 12.2881 8.45524 12.2715C8.41669 12.2628 8.37802 12.2538 8.33908 12.245C8.27591 12.2306 8.21232 12.2161 8.14876 12.202C8.04599 12.1791 7.94305 12.157 7.83969 12.135C7.82271 12.1315 7.79174 12.1428 7.75248 12.1676C7.71316 12.1924 7.66887 12.2286 7.62744 12.27C7.58599 12.3115 7.5498 12.3559 7.52509 12.3951C7.5005 12.4342 7.48972 12.4647 7.4934 12.4815C7.51649 12.5838 7.53993 12.6856 7.56397 12.7873C7.57881 12.8501 7.59363 12.9134 7.60867 12.9759C7.61795 13.0144 7.6274 13.0526 7.63652 13.0907C7.65387 13.1627 7.6721 13.2354 7.6903 13.3074C7.69742 13.3357 7.70453 13.3641 7.71164 13.3925C7.72828 13.4589 7.74587 13.5258 7.76322 13.5923C7.76333 13.5926 7.76344 13.593 7.76355 13.5934C7.77209 13.6261 7.78057 13.6588 7.78894 13.6912C7.81525 13.7906 7.84134 13.8892 7.86922 13.9886C7.8828 14.0408 7.8982 14.094 7.91314 14.1471C7.92146 14.1767 7.92969 14.2063 7.93769 14.2354C7.94222 14.2512 7.94694 14.2671 7.95168 14.283C8.05665 14.6529 8.16497 15.0161 8.28068 15.3763C8.39549 15.7356 8.51577 16.0903 8.64 16.4396C8.7648 16.7895 8.89404 17.1341 9.02785 17.4745C9.87663 19.6354 10.8496 21.6843 12.0244 23.5325C12.1917 23.7964 12.3693 24.0612 12.5463 24.3163C12.7256 24.5737 12.9048 24.8223 13.0942 25.0709C13.1514 25.1467 13.2109 25.2235 13.2725 25.3018Z" fill="black"/>
<path d="M20.4044 51.7362C21.04 51.2388 20.9327 50.0411 21.4999 49.4714C22.2041 48.764 23.5447 48.6704 24.136 47.8469C24.7232 47.0274 25.2632 46.1539 25.762 45.2437C26.2617 44.3328 26.7215 43.3842 27.1565 42.4078C27.5899 41.433 27.9986 40.4303 28.3917 39.414C28.6587 38.7237 28.9193 38.026 29.1767 37.3262C29.2899 37.0191 29.402 36.7123 29.5142 36.4045C29.5978 36.1748 29.6813 35.945 29.7649 35.7153C29.7764 35.6832 29.7554 35.6205 29.7045 35.5388C29.6534 35.4569 29.5769 35.3631 29.489 35.2752C29.4009 35.1872 29.3069 35.1107 29.2252 35.0599C29.1437 35.0092 29.0816 34.9889 29.0499 35.0008C28.8211 35.088 28.5924 35.1752 28.3636 35.2623C28.1096 35.3593 27.8557 35.4558 27.6023 35.5532C27.9356 35.9418 28.1715 36.2535 28.2214 36.4454C28.2468 36.5433 28.2196 36.6218 28.1136 36.5937C28.0184 36.5684 27.8846 36.4873 27.7572 36.4099C27.6239 36.3289 27.4974 36.252 27.4296 36.2481C27.3144 36.2413 27.1096 36.1396 26.8945 36.0327C26.8162 35.9938 26.7364 35.9541 26.6592 35.9181C26.4183 36.0122 26.178 36.1068 25.9384 36.2021C25.9121 36.3052 25.8838 36.3958 25.8185 36.4314C25.76 36.4634 25.6423 36.4286 25.5062 36.375C25.4692 36.3898 25.4322 36.4047 25.3952 36.4196C25.1569 36.5158 24.9196 36.6133 24.6829 36.7114C24.6486 36.9383 24.6053 37.1687 24.4684 37.3877C24.4094 37.4821 24.3858 37.6099 24.3631 37.7326C24.3294 37.9139 24.2977 38.0844 24.1572 38.1211C24.0633 38.1457 24.052 38.259 24.0407 38.372C24.0256 38.5236 24.0105 38.6749 23.7962 38.6114C23.6614 38.5715 23.5116 38.5088 23.3727 38.4507C23.1518 38.3581 22.9586 38.2771 22.8984 38.3184C22.7853 38.3961 22.5885 38.3645 22.4149 38.3366C22.2062 38.3031 22.0311 38.2749 22.076 38.4489C22.0829 38.4752 22.0938 38.5085 22.1062 38.5462C22.1721 38.7448 22.2774 39.0625 22.0086 39.0987C21.9129 39.1116 21.7543 39.055 21.5988 38.9993C21.3724 38.9183 21.1526 38.8397 21.1434 38.9817C21.1421 39.0029 21.1719 39.0564 21.1992 39.1051C21.2339 39.1671 21.2642 39.2213 21.2204 39.1916C21.092 39.1046 20.9401 39.0185 20.7748 38.9247C20.6534 38.8557 20.5247 38.7826 20.3931 38.7024C20.1374 38.8384 19.8841 38.977 19.6339 39.1186C19.5192 39.1835 19.4052 39.2491 19.2917 39.3152C19.4079 39.5233 19.507 39.7164 19.5679 39.8765C19.6475 40.0858 19.6076 40.2142 19.5566 40.3799C19.519 40.5018 19.4753 40.6441 19.4683 40.8533C19.4551 41.2406 19.2075 41.4044 18.9753 41.4358C18.9262 41.4425 18.8756 41.4479 18.821 41.4532C18.6139 41.4735 18.355 41.4983 17.9565 41.6387C17.5796 41.7715 17.3312 41.9566 17.1446 42.0957C17.0493 42.1666 16.9705 42.226 16.8985 42.2599C16.7754 42.3179 16.6352 42.4001 16.4946 42.4828C16.2746 42.6123 16.0534 42.7427 15.8933 42.7817C15.8363 42.7956 15.7725 42.8061 15.7038 42.8178C15.5136 42.8501 15.284 42.8893 15.0437 43.0195C14.7915 43.1562 14.7103 43.3162 14.6707 43.5269C14.6546 43.6126 14.7473 43.7951 14.8432 43.9835C14.9792 44.2508 15.1213 44.5298 14.9658 44.5596C14.9295 44.5665 14.8737 44.5568 14.8152 44.5466C14.7076 44.5277 14.5912 44.5071 14.5721 44.5863C14.5655 44.6139 14.5877 44.6663 14.6096 44.7177C14.6336 44.7742 14.657 44.8295 14.6412 44.8498C14.5819 44.9255 14.5069 44.9818 14.4402 45.0318C14.3542 45.0963 14.2822 45.1504 14.2757 45.2222C14.2641 45.3502 14.1357 45.3744 14.0054 45.3986C13.9058 45.4171 13.805 45.4355 13.7549 45.5009C13.6119 45.6877 13.2857 45.8152 12.8864 45.8834C12.7354 45.9092 12.7459 46.0697 12.7597 46.2755C12.7683 46.4035 12.7784 46.5493 12.7511 46.6908C12.7356 46.7709 12.6189 46.7353 12.5111 46.7024C12.4117 46.6722 12.3197 46.6443 12.3207 46.711C12.3216 46.7699 12.4314 46.9163 12.5356 47.0554C12.6515 47.2101 12.7606 47.3556 12.7052 47.3613C12.6757 47.3643 12.592 47.32 12.4924 47.2674C12.453 47.2466 12.4112 47.2247 12.3692 47.2036C12.3957 47.2291 12.4191 47.2522 12.4366 47.2697C12.5609 47.3939 12.5952 47.4905 12.6287 47.5851C12.6421 47.6229 12.6553 47.6603 12.6741 47.6992C12.7435 47.842 12.6912 47.9288 12.6332 47.9771C12.6086 47.9975 12.6268 48.0564 12.648 48.1251C12.6668 48.1861 12.688 48.255 12.6839 48.3115C12.6815 48.3437 12.7042 48.393 12.7233 48.4341C12.7371 48.4638 12.7489 48.4892 12.7475 48.5003C12.7463 48.51 12.7063 48.4787 12.6612 48.4436C12.6288 48.4182 12.5937 48.3908 12.5685 48.3751C12.5084 48.3377 12.4792 48.3375 12.4846 48.3634C12.4871 48.3754 12.4973 48.393 12.5074 48.4105C12.5191 48.4308 12.531 48.4513 12.5308 48.4629C12.5296 48.5159 12.4626 48.5017 12.393 48.4869C12.3165 48.4707 12.2369 48.4539 12.2379 48.5248C12.2382 48.5471 12.2525 48.5848 12.2663 48.6214C12.2808 48.6596 12.2947 48.6966 12.2917 48.7132C12.2793 48.7805 12.1531 48.7292 12.0369 48.6819C11.9596 48.6505 11.8869 48.621 11.8551 48.6293C11.7969 48.6447 11.6705 48.5578 11.5772 48.4937C11.5289 48.4604 11.4892 48.4331 11.4726 48.4294C11.4696 48.4383 11.4672 48.4478 11.4651 48.4575C11.4676 48.4707 11.4701 48.4844 11.4623 48.4871C11.4617 48.4873 11.4609 48.4872 11.4603 48.4874C11.4532 48.5461 11.4575 48.6151 11.462 48.6838C11.472 48.8381 11.4821 48.9906 11.3609 49.0201C11.3348 49.0265 11.2742 48.999 11.2127 48.9711C11.1372 48.9369 11.0601 48.9019 11.0426 48.9274C11.0011 48.9882 11.022 49.1125 11.0427 49.235C11.0737 49.4191 11.104 49.5991 10.9199 49.5525C10.8591 49.5371 10.7735 49.4958 10.6874 49.4541C10.6394 49.4308 10.591 49.4074 10.5471 49.3885C10.608 49.4442 10.6642 49.4975 10.7166 49.5472C10.8246 49.6498 10.917 49.7375 11.0056 49.802C11.2149 49.9543 11.4961 50.171 11.6741 50.3561C11.7224 50.4063 11.778 50.4604 11.8342 50.5148C11.9749 50.6513 12.1187 50.7907 12.1563 50.8812C12.1816 50.9421 12.2349 51.087 12.0997 51.0101C12.0703 50.9934 12.0206 50.9514 11.9654 50.9049C11.8663 50.8212 11.7488 50.7221 11.696 50.7245C11.6871 50.7249 11.6782 50.7262 11.6694 50.7278C11.6344 50.7344 11.5954 50.7421 11.5132 50.6773C11.4185 50.6027 11.3236 50.5036 11.2131 50.388C11.0691 50.2375 10.8981 50.0588 10.6657 49.8696C10.6197 49.8322 10.5972 49.8261 10.5802 49.8215C10.5683 49.8182 10.5588 49.8154 10.5459 49.8032C10.5312 49.7892 10.5026 49.7578 10.4664 49.7181C10.3389 49.5781 10.116 49.3336 10.0609 49.3689C10.046 49.3785 10.0431 49.4036 10.0406 49.4262C10.0369 49.4596 10.0338 49.4872 9.99347 49.451C9.97819 49.4372 9.96192 49.4221 9.94517 49.4062C9.93503 49.4255 9.92489 49.4449 9.91476 49.4642C9.94145 49.5287 9.91102 49.5513 9.87285 49.5793C9.86358 49.5862 9.85398 49.5935 9.84453 49.6016C9.8249 49.6401 9.8052 49.6786 9.78575 49.7173C9.78204 49.7597 9.789 49.8157 9.81309 49.8916C9.86139 50.0436 9.98146 50.254 10.0989 50.4596C10.1484 50.5463 10.1976 50.6323 10.2406 50.7126C10.2554 50.7129 10.2709 50.7153 10.2883 50.7226C10.4073 50.7724 10.5872 50.9245 10.7528 51.0646C10.8629 51.1577 10.9668 51.2456 11.0419 51.2941C11.1795 51.3832 11.3096 51.5181 11.4058 51.6179C11.4557 51.6696 11.4966 51.712 11.5246 51.7334C11.547 51.7506 11.5623 51.7539 11.5782 51.7574C11.592 51.7604 11.6064 51.7636 11.626 51.776C11.8634 51.9265 11.9629 52.0521 12.1078 52.235C12.1877 52.3359 12.2815 52.4542 12.4198 52.6037C12.5673 52.7609 12.6135 52.8038 12.697 52.8418C12.7545 52.9347 12.812 53.0277 12.8695 53.1207C12.8577 53.1228 12.8053 53.081 12.7198 53.0103C12.5669 52.8839 12.4728 52.876 12.3992 52.8699C12.3651 52.867 12.3354 52.8645 12.3063 52.8507C12.1517 52.7777 12.005 52.6073 11.876 52.4573C11.805 52.3748 11.7392 52.2984 11.6804 52.2479C11.6553 52.2263 11.6346 52.2006 11.6135 52.1744C11.5972 52.1542 11.5806 52.1336 11.5615 52.1144C11.4232 51.9749 11.2959 51.8959 11.1778 51.8226C11.1102 51.7806 11.0453 51.7402 10.9832 51.6915C10.9642 51.6767 10.9454 51.6611 10.9271 51.6459C10.9004 51.6237 10.875 51.6027 10.8516 51.5861C10.7984 51.5485 10.7517 51.5339 10.7008 51.5181C10.6746 51.51 10.6474 51.5016 10.6174 51.4894C10.5786 51.4737 10.5196 51.4229 10.4578 51.3699C10.4141 51.3325 10.3691 51.2939 10.3287 51.2655C10.2557 51.2141 10.2114 51.2134 10.1703 51.2128C10.1524 51.2126 10.1348 51.2121 10.116 51.2077C10.1083 51.2058 10.0975 51.1978 10.0842 51.1852C10.0075 51.1749 9.93132 51.1623 9.85692 51.1497C9.4839 51.0865 9.1607 51.0315 9.0975 51.3688C9.08556 51.4326 9.03971 51.4681 8.9779 51.4884C8.90095 51.6744 8.82571 51.8621 8.75202 52.0512C8.85118 52.2024 8.92449 52.3393 8.96931 52.4595C9.05345 52.6851 9.01379 52.7909 8.96701 52.9158C8.93242 53.0082 8.89404 53.1111 8.89878 53.2805C8.90674 53.5651 8.88847 53.8308 8.79254 54.0553C8.69702 54.2789 8.56156 54.5087 8.44908 54.6547C8.38777 54.7343 8.42575 54.9203 8.46099 55.0934C8.51057 55.337 8.55491 55.5554 8.31126 55.4181C8.23341 55.3742 8.11131 55.2849 7.99266 55.1981C7.90816 55.1364 7.82553 55.0762 7.76135 55.034C7.74862 55.0797 7.73568 55.1254 7.72309 55.1713C7.79803 55.3503 7.85332 55.5672 7.63362 55.5038C7.62092 55.5515 7.60812 55.5991 7.59661 55.6459C7.56989 55.7465 7.54502 55.8462 7.51985 55.9467C7.51179 55.9797 7.50356 56.0128 7.49533 56.0462C7.49528 56.0465 7.49523 56.0468 7.49517 56.0472C7.47862 56.1142 7.46193 56.1818 7.44609 56.2488C7.43926 56.2774 7.43243 56.3061 7.42561 56.3347C7.40822 56.4075 7.3906 56.4807 7.37406 56.5534C7.36537 56.592 7.35635 56.6307 7.34751 56.6696C7.33317 56.7328 7.31866 56.7964 7.30452 56.8599C7.28164 56.9627 7.25951 57.0656 7.23757 57.169C7.23406 57.186 7.24534 57.2169 7.27013 57.2562C7.29497 57.2955 7.33111 57.3398 7.37256 57.3812C7.41403 57.4227 7.45846 57.4589 7.49768 57.4836C7.53678 57.5082 7.56724 57.519 7.58403 57.5153C7.68634 57.4922 7.78812 57.4688 7.88982 57.4447C7.95269 57.4299 8.01594 57.4151 8.07842 57.4C8.11695 57.3907 8.15514 57.3813 8.19329 57.3722C8.26521 57.3548 8.33795 57.3366 8.40992 57.3184C8.43829 57.3113 8.46666 57.3042 8.49503 57.297C8.56146 57.2804 8.62834 57.2628 8.69481 57.2455C8.6952 57.2454 8.6956 57.2452 8.696 57.2451C8.7287 57.2366 8.76139 57.2281 8.79376 57.2197C8.89318 57.1934 8.9917 57.1673 9.09118 57.1395C9.1434 57.1259 9.19657 57.1105 9.24969 57.0955C9.27927 57.0872 9.30887 57.079 9.338 57.071C9.35378 57.0665 9.36964 57.0617 9.38559 57.057C9.75548 56.952 10.1187 56.8437 10.4789 56.728C10.8381 56.6132 11.1928 56.4929 11.5421 56.3687C11.892 56.2439 12.2366 56.1146 12.5771 55.9808C14.738 55.1321 16.7868 54.1591 18.635 52.9843C18.8989 52.817 19.1637 52.6394 19.4188 52.4624C19.6763 52.2831 19.9249 52.1038 20.1735 51.9145C20.2492 51.8573 20.3261 51.7978 20.4044 51.7362Z" fill="black"/>
<path d="M46.8387 44.6043C46.3413 43.9686 45.1436 44.0759 44.5739 43.5087C43.8665 42.8046 43.7729 41.464 42.9494 40.8727C42.1299 40.2855 41.2564 39.7455 40.3463 39.2466C39.4353 38.747 38.4867 38.2871 37.5103 37.8522C36.5355 37.4188 35.5329 37.0101 34.5165 36.617C33.8262 36.35 33.1285 36.0893 32.4287 35.832C32.1216 35.7188 31.8148 35.6067 31.507 35.4945C31.2773 35.4109 31.0475 35.3273 30.8178 35.2438C30.7857 35.2323 30.723 35.2532 30.6413 35.3042C30.5594 35.3553 30.4656 35.4317 30.3777 35.5197C30.2897 35.6078 30.2132 35.7018 30.1624 35.7835C30.1117 35.8649 30.0914 35.9271 30.1033 35.9588C30.1905 36.1875 30.2777 36.4163 30.3649 36.6451C30.4618 36.8991 30.5583 37.1529 30.6557 37.4064C31.0443 37.0731 31.356 36.8372 31.5479 36.7873C31.6458 36.7619 31.7243 36.7891 31.6962 36.8951C31.6709 36.9903 31.5898 37.1241 31.5124 37.2515C31.4314 37.3848 31.3545 37.5113 31.3506 37.5791C31.3438 37.6943 31.2421 37.8991 31.1352 38.1142C31.0963 38.1925 31.0566 38.2723 31.0207 38.3495C31.1147 38.5904 31.2094 38.8307 31.3046 39.0703C31.4077 39.0965 31.4983 39.1249 31.5339 39.1902C31.5659 39.2487 31.5311 39.3664 31.4775 39.5025C31.4924 39.5395 31.5072 39.5765 31.5221 39.6135C31.6183 39.8518 31.7158 40.0891 31.8139 40.3257C32.0408 40.36 32.2712 40.4034 32.4902 40.5403C32.5846 40.5993 32.7124 40.6229 32.8351 40.6456C33.0164 40.6792 33.1869 40.7109 33.2236 40.8514C33.2482 40.9454 33.3615 40.9567 33.4745 40.9679C33.6261 40.9831 33.7774 40.9982 33.7139 41.2125C33.674 41.3473 33.6113 41.4971 33.5532 41.6359C33.4606 41.8569 33.3796 42.0501 33.4209 42.1103C33.4986 42.2234 33.4671 42.4202 33.4391 42.5938C33.4056 42.8025 33.3774 42.9776 33.5514 42.9326C33.5778 42.9258 33.611 42.9149 33.6487 42.9024C33.8474 42.8366 34.1651 42.7313 34.2013 43C34.2141 43.0957 34.1575 43.2543 34.1019 43.4099C34.0208 43.6363 33.9422 43.8561 34.0842 43.8653C34.1054 43.8666 34.1589 43.8368 34.2076 43.8095C34.2697 43.7748 34.3238 43.7445 34.2941 43.7883C34.2072 43.9167 34.121 44.0686 34.0272 44.2339C33.9582 44.3553 33.8852 44.484 33.8049 44.6156C33.9409 44.8713 34.0795 45.1245 34.2212 45.3748C34.286 45.4894 34.3516 45.6035 34.4178 45.717C34.6258 45.6008 34.8189 45.5017 34.9791 45.4408C35.1884 45.3612 35.3167 45.4011 35.4824 45.4521C35.6043 45.4897 35.7466 45.5333 35.9558 45.5404C36.3432 45.5536 36.5069 45.8012 36.5384 46.0333C36.545 46.0824 36.5504 46.1331 36.5557 46.1877C36.576 46.3948 36.6008 46.6537 36.7412 47.0522C36.874 47.4291 37.0591 47.6775 37.1982 47.8641C37.2692 47.9594 37.3285 48.0382 37.3624 48.1102C37.4204 48.2333 37.5027 48.3735 37.5854 48.5141C37.7148 48.7341 37.8452 48.9553 37.8842 49.1154C37.8981 49.1724 37.9086 49.2362 37.9203 49.3048C37.9526 49.495 37.9918 49.7247 38.122 49.965C38.2587 50.2172 38.4187 50.2983 38.6295 50.338C38.7151 50.3541 38.8976 50.2614 39.086 50.1655C39.3533 50.0295 39.6323 49.8874 39.6621 50.0429C39.6691 50.0791 39.6594 50.135 39.6491 50.1935C39.6302 50.3011 39.6096 50.4175 39.6888 50.4366C39.7164 50.4432 39.7688 50.4209 39.8202 50.3991C39.8767 50.3751 39.9321 50.3517 39.9523 50.3675C40.028 50.4268 40.0843 50.5018 40.1343 50.5685C40.1988 50.6545 40.2529 50.7265 40.3247 50.733C40.4527 50.7446 40.4769 50.873 40.5011 51.0033C40.5196 51.1029 40.538 51.2037 40.6034 51.2538C40.7902 51.3968 40.9177 51.723 40.9859 52.1223C41.0118 52.2733 41.1722 52.2628 41.378 52.249C41.506 52.2404 41.6518 52.2303 41.7933 52.2576C41.8735 52.2731 41.8378 52.3897 41.805 52.4976C41.7747 52.597 41.7468 52.6889 41.8135 52.688C41.8724 52.687 42.0188 52.5773 42.1579 52.4731C42.3126 52.3572 42.4582 52.2481 42.4638 52.3035C42.4669 52.3329 42.4226 52.4167 42.3699 52.5163C42.3491 52.5557 42.3272 52.5975 42.3061 52.6395C42.3316 52.613 42.3547 52.5896 42.3722 52.572C42.4964 52.4478 42.593 52.4135 42.6877 52.38C42.7254 52.3666 42.7629 52.3534 42.8017 52.3346C42.9446 52.2652 43.0314 52.3174 43.0796 52.3755C43.1 52.4001 43.1589 52.3819 43.2276 52.3607C43.2887 52.3419 43.3575 52.3207 43.414 52.3248C43.4463 52.3272 43.4956 52.3045 43.5366 52.2854C43.5663 52.2716 43.5917 52.2598 43.6028 52.2612C43.6125 52.2624 43.5813 52.3024 43.5461 52.3475C43.5208 52.3799 43.4933 52.415 43.4777 52.4402C43.4402 52.5003 43.4401 52.5295 43.4659 52.5241C43.4779 52.5216 43.4955 52.5114 43.513 52.5013C43.5334 52.4896 43.5538 52.4777 43.5654 52.4779C43.6185 52.4791 43.6042 52.5461 43.5894 52.6157C43.5732 52.6922 43.5564 52.7718 43.6273 52.7708C43.6497 52.7705 43.6873 52.7562 43.7239 52.7424C43.7621 52.7279 43.7991 52.714 43.8157 52.717C43.8831 52.7294 43.8317 52.8556 43.7844 52.9718C43.753 53.0491 43.7235 53.1218 43.7319 53.1536C43.7472 53.2118 43.6603 53.3382 43.5962 53.4315C43.5629 53.4798 43.5356 53.5195 43.5319 53.5361C43.5408 53.539 43.5503 53.5415 43.56 53.5436C43.5733 53.5411 43.5869 53.5386 43.5896 53.5464C43.5898 53.547 43.5897 53.5478 43.5899 53.5484C43.6486 53.5555 43.7176 53.5511 43.7863 53.5467C43.9406 53.5367 44.0931 53.5266 44.1226 53.6478C44.129 53.6739 44.1015 53.7345 44.0736 53.796C44.0394 53.8715 44.0044 53.9486 44.0299 53.9661C44.0907 54.0076 44.215 53.9867 44.3375 53.966C44.5217 53.9349 44.7016 53.9047 44.655 54.0888C44.6396 54.1496 44.5983 54.2352 44.5566 54.3213C44.5334 54.3693 44.5099 54.4177 44.491 54.4616C44.5467 54.4006 44.6 54.3445 44.6498 54.2921C44.7523 54.1841 44.84 54.0917 44.9045 54.0031C45.0568 53.7938 45.2735 53.5126 45.4586 53.3346C45.5089 53.2863 45.563 53.2306 45.6174 53.1745C45.7538 53.0337 45.8932 52.89 45.9837 52.8524C46.0446 52.8271 46.1895 52.7738 46.1126 52.909C46.0959 52.9384 46.054 52.9881 46.0074 53.0433C45.9237 53.1424 45.8246 53.2599 45.827 53.3127C45.8274 53.3216 45.8287 53.3305 45.8303 53.3393C45.8369 53.3743 45.8446 53.4133 45.7798 53.4955C45.7052 53.5902 45.6061 53.6851 45.4905 53.7956C45.34 53.9396 45.1613 54.1106 44.9721 54.343C44.9348 54.389 44.9287 54.4114 44.924 54.4285C44.9207 54.4404 44.9179 54.4499 44.9057 54.4627C44.8917 54.4775 44.8603 54.5061 44.8207 54.5423C44.6807 54.6698 44.4361 54.8927 44.4714 54.9478C44.481 54.9627 44.5062 54.9656 44.5288 54.9681C44.5621 54.9718 44.5897 54.9749 44.5535 55.0152C44.5398 55.0305 44.5246 55.0468 44.5087 55.0635C44.5281 55.0737 44.5474 55.0838 44.5667 55.0939C44.6312 55.0672 44.6538 55.0977 44.6819 55.1358C44.6887 55.1451 44.696 55.1547 44.7042 55.1642C44.7427 55.1838 44.7811 55.2035 44.8198 55.2229C44.8622 55.2267 44.9182 55.2197 44.9941 55.1956C45.1461 55.1473 45.3565 55.0272 45.5621 54.9098C45.6488 54.8603 45.7348 54.8111 45.8151 54.7681C45.8154 54.7533 45.8178 54.7378 45.8251 54.7204C45.8749 54.6014 46.027 54.4215 46.1671 54.2559C46.2603 54.1458 46.3481 54.0419 46.3967 53.9668C46.4857 53.8292 46.6206 53.6991 46.7204 53.6029C46.7721 53.553 46.8145 53.5121 46.836 53.4841C46.8532 53.4617 46.8565 53.4464 46.8599 53.4305C46.8629 53.4167 46.8661 53.4023 46.8785 53.3827C47.029 53.1453 47.1547 53.0458 47.3375 52.9009C47.4384 52.821 47.5567 52.7272 47.7062 52.5889C47.8634 52.4414 47.9064 52.3952 47.9443 52.3117C48.0373 52.2542 48.1303 52.1967 48.2232 52.1392C48.2253 52.151 48.1835 52.2034 48.1128 52.2889C47.9864 52.4418 47.9786 52.5359 47.9724 52.6095C47.9695 52.6436 47.967 52.6733 47.9532 52.7024C47.8802 52.857 47.7098 53.0037 47.5599 53.1327C47.4773 53.2037 47.401 53.2695 47.3505 53.3283C47.3288 53.3534 47.3031 53.3741 47.2769 53.3952C47.2567 53.4115 47.2361 53.4281 47.2169 53.4472C47.0775 53.5855 46.9985 53.7128 46.9251 53.8309C46.8831 53.8985 46.8427 53.9634 46.7941 54.0255C46.7792 54.0445 46.7636 54.0633 46.7484 54.0816C46.7263 54.1083 46.7052 54.1337 46.6887 54.1571C46.651 54.2103 46.6364 54.257 46.6206 54.3079C46.6125 54.3341 46.6041 54.3613 46.592 54.3913C46.5762 54.43 46.5255 54.4891 46.4725 54.5509C46.435 54.5946 46.3965 54.6396 46.368 54.68C46.3166 54.753 46.3159 54.7973 46.3154 54.8384C46.3151 54.8563 46.3146 54.8739 46.3102 54.8927C46.3084 54.9004 46.3003 54.9112 46.2877 54.9245C46.2774 55.0012 46.2648 55.0774 46.2522 55.1518C46.189 55.5248 46.134 55.848 46.4714 55.9112C46.5351 55.9231 46.5706 55.969 46.591 56.0308C46.7769 56.1077 46.9646 56.183 47.1537 56.2567C47.3049 56.1575 47.4418 56.0842 47.562 56.0394C47.7876 55.9552 47.8934 55.9949 48.0184 56.0417C48.1107 56.0763 48.2136 56.1147 48.383 56.1099C48.6676 56.102 48.9333 56.1202 49.1579 56.2162C49.3814 56.3117 49.6113 56.4471 49.7572 56.5596C49.8368 56.6209 50.0228 56.5829 50.1959 56.5477C50.4395 56.4981 50.6579 56.4538 50.5206 56.6974C50.4767 56.7753 50.3874 56.8974 50.3007 57.016C50.2389 57.1005 50.1787 57.1832 50.1365 57.2473C50.1823 57.2601 50.2279 57.273 50.2738 57.2856C50.4528 57.2107 50.6697 57.1554 50.6063 57.3751C50.654 57.3878 50.7016 57.4006 50.7484 57.4121C50.849 57.4388 50.9487 57.4637 51.0492 57.4888C51.0822 57.4969 51.1154 57.5051 51.1487 57.5134C51.149 57.5134 51.1494 57.5135 51.1497 57.5135C51.2168 57.5301 51.2843 57.5468 51.3513 57.5626C51.38 57.5694 51.4086 57.5763 51.4373 57.5831C51.51 57.6005 51.5832 57.6181 51.656 57.6346C51.6945 57.6433 51.7332 57.6523 51.7721 57.6612C51.8353 57.6755 51.8989 57.69 51.9624 57.7042C52.0652 57.7271 52.1682 57.7492 52.2715 57.7711C52.2885 57.7746 52.3195 57.7634 52.3587 57.7386C52.398 57.7137 52.4423 57.6776 52.4838 57.6361C52.5252 57.5947 52.5614 57.5502 52.5861 57.511C52.6107 57.4719 52.6215 57.4415 52.6178 57.4247C52.5947 57.3224 52.5713 57.2206 52.5472 57.1189C52.5324 57.056 52.5176 56.9928 52.5025 56.9303C52.4933 56.8918 52.4838 56.8536 52.4747 56.8154C52.4573 56.7435 52.4391 56.6707 52.4209 56.5988C52.4138 56.5704 52.4067 56.542 52.3996 56.5137C52.3829 56.4472 52.3653 56.3804 52.348 56.3139C52.3479 56.3135 52.3478 56.3131 52.3477 56.3127C52.3391 56.28 52.3306 56.2473 52.3223 56.2149C52.296 56.1155 52.2699 56.017 52.242 55.9175C52.2284 55.8653 52.213 55.8121 52.1981 55.759C52.1897 55.7294 52.1815 55.6998 52.1735 55.6707C52.169 55.6549 52.1643 55.6391 52.1595 55.6231C52.0546 55.2532 51.9462 54.89 51.8305 54.5298C51.7157 54.1705 51.5954 53.8159 51.4712 53.4666C51.3464 53.1167 51.2172 52.7721 51.0834 52.4316C50.2346 50.2707 49.2616 48.2219 48.0868 46.3737C47.9195 46.1098 47.7419 45.845 47.5649 45.5899C47.3856 45.3324 47.2064 45.0838 47.0171 44.8352C46.9598 44.7595 46.9003 44.6826 46.8387 44.6043Z" fill="black"/>
<path d="M39.7068 17.1699C39.0712 17.6673 39.1785 18.865 38.6113 19.4348C37.9071 20.1422 36.5665 20.2357 35.9752 21.0593C35.388 21.8787 34.848 22.7523 34.3492 23.6624C33.8495 24.5733 33.3897 25.522 32.9547 26.4983C32.5213 27.4732 32.1126 28.4758 31.7195 29.4921C31.4525 30.1824 31.1919 30.8801 30.9345 31.5799C30.8213 31.887 30.7093 32.1939 30.597 32.5016C30.5134 32.7314 30.4299 32.9611 30.3463 33.1909C30.3348 33.223 30.3558 33.2856 30.4068 33.3674C30.4578 33.4492 30.5343 33.543 30.6222 33.6309C30.7103 33.7189 30.8043 33.7955 30.886 33.8463C30.9675 33.8969 31.0296 33.9172 31.0613 33.9053C31.2901 33.8182 31.5188 33.731 31.7476 33.6438C32.0016 33.5468 32.2555 33.4503 32.5089 33.3529C32.1756 32.9644 31.9397 32.6527 31.8898 32.4607C31.8644 32.3628 31.8916 32.2843 31.9976 32.3124C32.0928 32.3378 32.2266 32.4189 32.354 32.4963C32.4873 32.5772 32.6138 32.6541 32.6816 32.6581C32.7968 32.6648 33.0016 32.7666 33.2167 32.8735C33.295 32.9124 33.3748 32.952 33.452 32.988C33.6929 32.8939 33.9332 32.7993 34.1728 32.704C34.1991 32.6009 34.2275 32.5104 34.2927 32.4747C34.3512 32.4428 34.4689 32.4776 34.6051 32.5312C34.642 32.5163 34.679 32.5014 34.716 32.4866C34.9543 32.3903 35.1916 32.2928 35.4283 32.1948C35.4626 31.9679 35.5059 31.7374 35.6428 31.5184C35.7018 31.424 35.7254 31.2962 35.7481 31.1735C35.7818 30.9922 35.8135 30.8218 35.954 30.785C36.0479 30.7605 36.0592 30.6471 36.0705 30.5341C36.0856 30.3825 36.1007 30.2312 36.315 30.2947C36.4498 30.3346 36.5996 30.3973 36.7385 30.4555C36.9594 30.548 37.1526 30.629 37.2128 30.5877C37.3259 30.51 37.5228 30.5416 37.6963 30.5695C37.905 30.6031 38.0801 30.6313 38.0352 30.4573C38.0283 30.4309 38.0175 30.3976 38.005 30.3599C37.9391 30.1613 37.8338 29.8436 38.1026 29.8074C38.1983 29.7945 38.3569 29.8511 38.5124 29.9068C38.7388 29.9878 38.9586 30.0664 38.9678 29.9244C38.9691 29.9032 38.9393 29.8498 38.912 29.801C38.8773 29.739 38.847 29.6848 38.8908 29.7145C39.0192 29.8015 39.1711 29.8876 39.3364 29.9815C39.4578 30.0504 39.5865 30.1235 39.7181 30.2038C39.9738 30.0677 40.2271 29.9292 40.4773 29.7875C40.592 29.7226 40.706 29.6571 40.8195 29.5909C40.7033 29.3828 40.6042 29.1897 40.5433 29.0296C40.4637 28.8203 40.5036 28.692 40.5547 28.5263C40.5922 28.4043 40.6359 28.262 40.643 28.0528C40.6561 27.6655 40.9037 27.5018 41.1359 27.4703C41.185 27.4636 41.2356 27.4583 41.2902 27.4529C41.4973 27.4327 41.7562 27.4078 42.1547 27.2674C42.5316 27.1346 42.78 26.9495 42.9666 26.8105C43.0619 26.7395 43.1408 26.6802 43.2127 26.6462C43.3358 26.5882 43.476 26.506 43.6166 26.4233C43.8366 26.2939 44.0579 26.1634 44.2179 26.1244C44.2749 26.1105 44.3387 26.1 44.4074 26.0883C44.5976 26.056 44.8272 26.0168 45.0675 25.8866C45.3197 25.7499 45.4009 25.59 45.4405 25.3792C45.4566 25.2935 45.3639 25.111 45.268 24.9226C45.132 24.6553 44.9899 24.3763 45.1454 24.3465C45.1817 24.3396 45.2375 24.3493 45.2961 24.3596C45.4036 24.3784 45.52 24.399 45.5391 24.3199C45.5457 24.2923 45.5235 24.2398 45.5016 24.1884C45.4776 24.1319 45.4542 24.0766 45.47 24.0563C45.5293 23.9807 45.6043 23.9243 45.671 23.8743C45.757 23.8099 45.829 23.7557 45.8355 23.6839C45.8471 23.5559 45.9755 23.5317 46.1058 23.5075C46.2054 23.4891 46.3062 23.4707 46.3563 23.4053C46.4993 23.2184 46.8255 23.0909 47.2248 23.0227C47.3758 22.9969 47.3653 22.8365 47.3515 22.6307C47.3429 22.5027 47.3328 22.3568 47.3601 22.2154C47.3756 22.1352 47.4923 22.1708 47.6001 22.2037C47.6995 22.234 47.7915 22.2618 47.7905 22.1951C47.7896 22.1362 47.6799 21.9898 47.5757 21.8508C47.4597 21.696 47.3506 21.5505 47.406 21.5448C47.4355 21.5418 47.5192 21.5861 47.6188 21.6387C47.6582 21.6595 47.7 21.6815 47.742 21.7025C47.7155 21.6771 47.6921 21.654 47.6746 21.6364C47.5503 21.5122 47.516 21.4156 47.4825 21.321C47.4691 21.2832 47.456 21.2458 47.4371 21.207C47.3677 21.0641 47.42 20.9773 47.478 20.9291C47.5026 20.9086 47.4844 20.8498 47.4632 20.781C47.4444 20.72 47.4232 20.6511 47.4273 20.5946C47.4297 20.5624 47.407 20.5131 47.3879 20.472C47.3741 20.4423 47.3623 20.417 47.3637 20.4058C47.3649 20.3962 47.4049 20.4274 47.45 20.4626C47.4824 20.4879 47.5175 20.5153 47.5427 20.531C47.6028 20.5684 47.6321 20.5686 47.6266 20.5427C47.6241 20.5307 47.6139 20.5132 47.6038 20.4957C47.5921 20.4753 47.5802 20.4548 47.5804 20.4432C47.5816 20.3902 47.6486 20.4044 47.7182 20.4192C47.7947 20.4355 47.8743 20.4522 47.8733 20.3813C47.873 20.359 47.8587 20.3213 47.8449 20.2848C47.8304 20.2465 47.8165 20.2095 47.8195 20.1929C47.8319 20.1256 47.9582 20.177 48.0743 20.2242C48.1516 20.2556 48.2243 20.2851 48.2561 20.2768C48.3143 20.2614 48.4407 20.3483 48.534 20.4125C48.5824 20.4457 48.622 20.4731 48.6386 20.4768C48.6416 20.4679 48.644 20.4583 48.6461 20.4486C48.6436 20.4354 48.6411 20.4217 48.6489 20.4191C48.6495 20.4189 48.6504 20.4189 48.651 20.4188C48.658 20.36 48.6537 20.291 48.6492 20.2223C48.6392 20.0681 48.6291 19.9155 48.7503 19.886C48.7764 19.8796 48.837 19.9071 48.8986 19.9351C48.974 19.9693 49.0511 20.0042 49.0686 19.9787C49.1101 19.9179 49.0892 19.7936 49.0685 19.6712C49.0375 19.487 49.0072 19.3071 49.1913 19.3537C49.2521 19.369 49.3377 19.4103 49.4238 19.452C49.4718 19.4753 49.5202 19.4988 49.5641 19.5176C49.5032 19.462 49.447 19.4086 49.3946 19.3589C49.2866 19.2564 49.1942 19.1686 49.1056 19.1042C48.8963 18.9518 48.6151 18.7352 48.4371 18.55C48.3888 18.4998 48.3332 18.4457 48.277 18.3913C48.1363 18.2548 47.9925 18.1155 47.9549 18.025C47.9296 17.964 47.8764 17.8191 48.0115 17.896C48.041 17.9128 48.0906 17.9547 48.1458 18.0013C48.2449 18.085 48.3624 18.184 48.4152 18.1816C48.4241 18.1812 48.433 18.18 48.4418 18.1783C48.4768 18.1717 48.5158 18.1641 48.5981 18.2288C48.6928 18.3034 48.7876 18.4026 48.8981 18.5181C49.0421 18.6686 49.2131 18.8474 49.4456 19.0365C49.4915 19.0739 49.514 19.08 49.531 19.0847C49.5429 19.0879 49.5524 19.0907 49.5653 19.1029C49.58 19.117 49.6086 19.1483 49.6448 19.188C49.7723 19.328 49.9952 19.5725 50.0503 19.5372C50.0652 19.5276 50.0681 19.5025 50.0706 19.4799C50.0743 19.4466 50.0774 19.419 50.1177 19.4552C50.133 19.4689 50.1493 19.4841 50.166 19.4999C50.1762 19.4806 50.1863 19.4613 50.1964 19.4419C50.1698 19.3774 50.2002 19.3548 50.2384 19.3268C50.2476 19.32 50.2572 19.3126 50.2667 19.3045C50.2863 19.266 50.306 19.2275 50.3255 19.1888C50.3292 19.1465 50.3222 19.0904 50.2981 19.0146C50.2498 18.8625 50.1297 18.6522 50.0123 18.4465C49.9628 18.3599 49.9136 18.2739 49.8706 18.1935C49.8558 18.1932 49.8403 18.1908 49.8229 18.1836C49.7039 18.1338 49.524 17.9816 49.3584 17.8416C49.2483 17.7484 49.1444 17.6606 49.0693 17.612C48.9317 17.523 48.8016 17.388 48.7054 17.2883C48.6555 17.2365 48.6146 17.1942 48.5866 17.1727C48.5642 17.1555 48.5489 17.1522 48.533 17.1488C48.5192 17.1458 48.5048 17.1426 48.4853 17.1302C48.2478 16.9796 48.1483 16.854 48.0034 16.6711C47.9235 16.5703 47.8297 16.452 47.6914 16.3024C47.5439 16.1452 47.4977 16.1023 47.4142 16.0644C47.3567 15.9714 47.2992 15.8784 47.2417 15.7854C47.2535 15.7833 47.3059 15.8251 47.3915 15.8959C47.5443 16.0222 47.6384 16.0301 47.712 16.0363C47.7461 16.0391 47.7758 16.0417 47.8049 16.0554C47.9595 16.1285 48.1062 16.2988 48.2352 16.4488C48.3062 16.5313 48.372 16.6077 48.4308 16.6582C48.4559 16.6798 48.4766 16.7055 48.4977 16.7317C48.514 16.7519 48.5306 16.7726 48.5497 16.7918C48.688 16.9312 48.8153 17.0102 48.9334 17.0835C49.001 17.1256 49.0659 17.1659 49.128 17.2146C49.147 17.2294 49.1659 17.245 49.1841 17.2602C49.2108 17.2824 49.2362 17.3035 49.2596 17.32C49.3128 17.3576 49.3595 17.3722 49.4104 17.388C49.4366 17.3961 49.4638 17.4046 49.4938 17.4167C49.5326 17.4324 49.5917 17.4832 49.6534 17.5362C49.6971 17.5737 49.7421 17.6122 49.7825 17.6406C49.8555 17.6921 49.8998 17.6927 49.9409 17.6933C49.9588 17.6936 49.9764 17.694 49.9952 17.6985C50.0029 17.7003 50.0137 17.7083 50.027 17.721C50.1037 17.7312 50.1799 17.7439 50.2543 17.7565C50.6273 17.8196 50.9505 17.8746 51.0137 17.5373C51.0256 17.4735 51.0715 17.438 51.1333 17.4177C51.2103 17.2318 51.2855 17.044 51.3592 16.8549C51.26 16.7037 51.1867 16.5668 51.1419 16.4467C51.0578 16.2211 51.0974 16.1152 51.1442 15.9903C51.1788 15.8979 51.2172 15.795 51.2124 15.6256C51.2045 15.3411 51.2227 15.0753 51.3187 14.8508C51.4142 14.6272 51.5496 14.3974 51.6621 14.2514C51.7234 14.1718 51.6855 13.9859 51.6502 13.8127C51.6006 13.5691 51.5563 13.3507 51.7999 13.4881C51.8778 13.532 51.9999 13.6213 52.1185 13.708C52.203 13.7697 52.2857 13.8299 52.3499 13.8722C52.3626 13.8264 52.3755 13.7808 52.3881 13.7348C52.3132 13.5558 52.2579 13.3389 52.4776 13.4024C52.4903 13.3547 52.5031 13.3071 52.5146 13.2602C52.5413 13.1596 52.5662 13.06 52.5914 12.9594C52.5994 12.9265 52.6076 12.8933 52.6159 12.86C52.6159 12.8596 52.616 12.8593 52.616 12.859C52.6326 12.7919 52.6493 12.7244 52.6651 12.6574C52.6719 12.6287 52.6788 12.6 52.6856 12.5714C52.703 12.4986 52.7206 12.4254 52.7371 12.3527C52.7458 12.3141 52.7549 12.2755 52.7637 12.2365C52.778 12.1734 52.7925 12.1098 52.8067 12.0462C52.8296 11.9434 52.8517 11.8405 52.8736 11.7371C52.8771 11.7202 52.8659 11.6892 52.8411 11.6499C52.8162 11.6106 52.7801 11.5663 52.7386 11.5249C52.6972 11.4834 52.6527 11.4472 52.6135 11.4225C52.5744 11.3979 52.544 11.3872 52.5272 11.3908C52.4249 11.4139 52.3231 11.4374 52.2214 11.4614C52.1585 11.4763 52.0953 11.4911 52.0328 11.5061C51.9943 11.5154 51.9561 11.5248 51.9179 11.534C51.846 11.5513 51.7733 11.5695 51.7013 11.5877C51.6729 11.5949 51.6445 11.602 51.6162 11.6091C51.5497 11.6257 51.4829 11.6433 51.4164 11.6607C51.416 11.6608 51.4156 11.6609 51.4152 11.661C51.3825 11.6695 51.3498 11.678 51.3174 11.6864C51.218 11.7127 51.1195 11.7388 51.02 11.7667C50.9678 11.7802 50.9146 11.7956 50.8615 11.8106C50.8319 11.8189 50.8023 11.8271 50.7732 11.8351C50.7574 11.8397 50.7416 11.8444 50.7256 11.8491C50.3557 11.9541 49.9925 12.0624 49.6324 12.1781C49.2731 12.2929 48.9184 12.4132 48.5691 12.5374C48.2192 12.6622 47.8746 12.7915 47.5341 12.9253C45.3732 13.7741 43.3244 14.747 41.4762 15.9219C41.2123 16.0891 40.9475 16.2668 40.6924 16.4437C40.4349 16.6231 40.1863 16.8023 39.9377 16.9916C39.862 17.0488 39.7851 17.1083 39.7068 17.1699Z" fill="black"/>
</svg>
