<svg width="59" height="89" viewBox="0 0 59 89" fill="none" xmlns="http://www.w3.org/2000/svg">
<path d="M17.4183 22.1896C16.102 19.9061 16.3956 17.2271 16.3793 14.8464C16.3788 14.7933 16.3783 14.7403 16.3778 14.6871C16.3243 11.7777 16.4571 8.34331 18.3924 5.78366C20.3049 3.24435 23.0314 1.39131 25.9772 0.550594C27.815 0.0197165 29.7296 -0.120741 31.5445 0.101058C32.6377 0.233248 33.7077 0.494217 34.7182 0.873535C37.409 1.87727 39.6351 3.7293 41.0563 5.93219C42.0274 7.42733 42.6414 9.08391 42.883 10.7298C42.99 11.4522 43.0264 12.1714 42.997 12.876C42.9748 13.4007 42.9165 13.9204 42.8246 14.4233C42.8116 14.4935 42.7533 14.5614 42.6598 14.6108C42.5661 14.6603 42.4457 14.6872 42.3213 14.6871C42.1968 14.687 42.0763 14.6602 41.9823 14.6149C41.8886 14.5694 41.8295 14.509 41.814 14.4457C41.7034 13.9877 41.5622 13.5409 41.3935 13.1156C41.2061 12.6418 40.9844 12.1913 40.7341 11.7676C41.1976 11.5413 41.5316 11.3124 41.6193 11.0509C41.6643 10.9178 41.6394 10.7507 41.5069 10.6761C41.3879 10.609 41.217 10.595 41.0548 10.5848C40.8852 10.5741 40.7251 10.5678 40.6411 10.5067C40.4982 10.4027 40.2392 10.3666 39.9703 10.342C39.8723 10.333 39.7728 10.3253 39.6767 10.3157C39.3769 9.9782 39.0573 9.66851 38.7224 9.38762C38.6686 9.22343 38.6082 9.07566 38.5101 8.98899C38.422 8.91118 38.2706 8.89994 38.1023 8.91178C38.0479 8.87376 37.9933 8.83649 37.9383 8.79991C37.5839 8.56357 37.2187 8.35642 36.8469 8.17948C36.6913 7.87763 36.4991 7.5676 36.1557 7.28372C36.0078 7.16181 35.8823 7.004 35.7538 6.85445C35.5654 6.63419 35.3689 6.43185 35.1307 6.40862C34.9722 6.39329 34.8541 6.26766 34.7279 6.1438C34.5611 5.97846 34.3767 5.81614 34.1335 5.94923C33.981 6.03298 33.8348 6.14893 33.7038 6.25929C33.4957 6.43501 33.3262 6.59597 33.2068 6.58523C32.9826 6.56517 32.7638 6.69449 32.584 6.81471C32.3646 6.95908 32.1984 7.08897 32.0662 6.92495C32.046 6.9001 32.023 6.86739 31.9966 6.83037C31.8999 6.69353 31.7542 6.50001 31.5445 6.45725C31.4559 6.43916 31.3576 6.44839 31.2533 6.50104C31.1289 6.56396 31.0184 6.72292 30.9195 6.88048C30.7743 7.11006 30.6527 7.33563 30.4817 7.26486C30.456 7.25429 30.4227 7.19966 30.3918 7.14994C30.3525 7.0867 30.3168 7.03192 30.3097 7.08564C30.289 7.24322 30.2477 7.42088 30.2099 7.61436C30.1819 7.7565 30.1562 7.90715 30.1386 8.06393C29.7889 8.22406 29.4592 8.40857 29.151 8.61269C29.0101 8.70614 28.8729 8.80407 28.7407 8.90554C28.5652 8.73593 28.3901 8.59315 28.2292 8.50226C28.0182 8.38392 27.8347 8.41489 27.6 8.46799C27.4269 8.50752 27.2261 8.55877 26.9527 8.58585C26.442 8.63716 26.1269 9.00934 26.0306 9.31414C26.0094 9.37887 25.9904 9.44524 25.9717 9.51652C25.9036 9.78735 25.8201 10.1214 25.6593 10.6746C25.5112 11.1973 25.3626 11.5909 25.2635 11.895C25.2132 12.0501 25.177 12.1793 25.166 12.2845C25.1474 12.4639 25.1186 12.6784 25.1019 12.8925C25.0743 13.2279 25.0796 13.5632 25.1391 13.7564C25.1601 13.825 25.1888 13.8972 25.2208 13.9742C25.3036 14.1719 25.4092 14.3973 25.4882 14.6871C25.4944 14.7097 25.5004 14.7325 25.5063 14.7558C25.5931 15.0919 25.5589 15.2931 25.4672 15.5267C25.4304 15.6205 25.2504 15.7282 25.0675 15.8486C24.8078 16.017 24.544 16.2183 24.6747 16.3791C24.7051 16.4162 24.7614 16.4492 24.8207 16.4828C24.9296 16.5447 25.0477 16.6052 25.0349 16.7075C25.0305 16.7433 24.989 16.7872 24.9487 16.8308C24.9044 16.8787 24.8616 16.9265 24.8703 16.9617C24.9026 17.0927 24.9613 17.2115 25.0157 17.3146C25.0857 17.4477 25.1487 17.5566 25.1396 17.6468C25.1235 17.8081 25.2598 17.9161 25.3985 18.0141C25.5049 18.0899 25.6132 18.161 25.6626 18.2627C25.803 18.5551 26.1822 18.8497 26.6475 19.0194C26.8229 19.0834 26.8267 19.2636 26.8504 19.504C26.865 19.653 26.887 19.825 26.9619 19.9965C27.0046 20.094 27.1371 20.0637 27.2562 20.0318C27.3664 20.0027 27.4659 19.9728 27.487 20.0489C27.5056 20.1161 27.4261 20.2825 27.3533 20.4423C27.272 20.6199 27.1991 20.7894 27.2726 20.7981C27.3115 20.8025 27.3976 20.752 27.498 20.6899C27.5377 20.6654 27.5795 20.6392 27.6219 20.6138C27.6006 20.6438 27.5822 20.671 27.5685 20.6917C27.471 20.8379 27.4743 20.9512 27.4809 21.063C27.4835 21.1076 27.4867 21.1519 27.4835 21.198C27.4717 21.368 27.5933 21.4697 27.6999 21.5215C27.7448 21.5435 27.7581 21.613 27.7751 21.6945C27.7902 21.7668 27.8084 21.8486 27.8538 21.9134C27.8796 21.9503 27.8842 22.0096 27.8883 22.0591C27.8912 22.095 27.8939 22.1256 27.9041 22.1383C27.913 22.1493 27.9445 22.1086 27.9795 22.0625C28.0048 22.0294 28.032 21.9934 28.0543 21.9721C28.1075 21.9211 28.1459 21.9163 28.1576 21.9462C28.1629 21.96 28.1623 21.9814 28.1618 22.0026C28.1612 22.0274 28.1605 22.0523 28.1696 22.0652C28.2111 22.1246 28.2906 22.0971 28.3715 22.067C28.4609 22.0341 28.5508 21.9978 28.605 22.0741C28.6221 22.0981 28.6333 22.142 28.6445 22.1845C28.6563 22.2291 28.6684 22.2722 28.6862 22.2891C28.759 22.3581 28.8832 22.2689 28.9933 22.1843C29.0667 22.1281 29.1344 22.0742 29.1815 22.0718C29.2682 22.0677 29.3528 21.9354 29.4139 21.8375C29.4456 21.7867 29.4712 21.7449 29.488 21.7348C29.4987 21.7423 29.5093 21.7505 29.5195 21.7591C29.5273 21.7729 29.5354 21.7871 29.5469 21.7865C29.5478 21.7865 29.5487 21.786 29.5496 21.786C29.6057 21.8397 29.6587 21.9074 29.712 21.974C29.8315 22.1237 29.9634 22.2703 30.1365 22.2364C30.1738 22.2291 30.2202 22.1741 30.2663 22.1177C30.3229 22.0487 30.3791 21.9775 30.4227 21.9899C30.5262 22.0193 30.6202 22.1351 30.7196 22.2476C30.8666 22.4165 31.0289 22.5775 31.1893 22.4213C31.2417 22.3697 31.2933 22.2818 31.3434 22.1926C31.3713 22.1429 31.3988 22.0927 31.4261 22.0487C31.4192 22.1311 31.4148 22.2085 31.4107 22.2806C31.4021 22.4293 31.3948 22.5566 31.365 22.6642C31.2952 22.9186 31.2034 23.2674 31.202 23.5243C31.2018 23.594 31.1969 23.6715 31.1917 23.7495C31.1789 23.9451 31.1642 24.1451 31.2332 24.238C31.2788 24.3007 31.404 24.4436 31.4858 24.294C31.5034 24.2614 31.5143 24.1967 31.526 24.1248C31.5317 24.0903 31.5375 24.0542 31.5445 24.019C31.5636 23.9222 31.5905 23.8329 31.6431 23.8062C31.6552 23.8001 31.6683 23.7945 31.6818 23.7893C31.7357 23.7684 31.7957 23.7446 31.8148 23.6401C31.8369 23.5196 31.8266 23.3827 31.8157 23.2231C31.8009 23.0152 31.7865 22.7683 31.8245 22.4688C31.832 22.4095 31.8492 22.3887 31.8621 22.3728C31.8712 22.3617 31.878 22.3527 31.878 22.335C31.878 22.3146 31.8731 22.2724 31.8671 22.219C31.8454 22.0305 31.812 21.7014 31.901 21.6832C31.9253 21.6782 31.9543 21.6924 31.9804 21.705C32.0189 21.7237 32.0512 21.7387 32.0515 21.6845C32.0515 21.6639 32.0511 21.6416 32.0503 21.6186C32.08 21.623 32.1096 21.6272 32.1393 21.6312C32.1822 21.6923 32.2345 21.6821 32.2997 21.668C32.3156 21.6646 32.3323 21.6611 32.3497 21.6582C32.409 21.6649 32.4684 21.6708 32.5278 21.6763C32.5773 21.697 32.6321 21.7339 32.6958 21.7953C32.823 21.9184 32.9579 22.1312 33.0986 22.336C33.1577 22.4223 33.2184 22.5072 33.2788 22.5833C33.2648 22.5973 33.2527 22.6128 33.2449 22.6323C33.1915 22.7656 33.2051 23.002 33.2155 23.2202C33.2224 23.3653 33.2279 23.5023 33.2104 23.5946C33.178 23.7634 33.2161 23.9468 33.2456 24.0824C33.2608 24.1527 33.2731 24.2103 33.2705 24.2462C33.2684 24.2751 33.2543 24.291 33.2396 24.3074C33.2269 24.3217 33.2137 24.3366 33.2076 24.3605C33.1331 24.6512 33.1913 24.8028 33.286 25.022C33.3378 25.143 33.4 25.2844 33.4525 25.4818C33.5045 25.6914 33.5112 25.7544 33.4533 25.8514C33.5275 25.9468 33.6032 26.0414 33.6802 26.1354C33.7016 26.1244 33.7066 26.0557 33.7095 25.9426C33.715 25.7407 33.835 25.6434 33.9275 25.5653C33.9703 25.5293 34.007 25.4975 34.0238 25.4626C34.1122 25.2769 34.0219 25.0675 33.9472 24.8825C33.9057 24.7807 33.8681 24.6862 33.8623 24.6083C33.8597 24.5749 33.8452 24.5446 33.8306 24.5137C33.8193 24.4897 33.8078 24.4654 33.8015 24.4391C33.7562 24.2479 33.7888 24.0908 33.8152 23.9449C33.8304 23.8614 33.8438 23.7813 33.8417 23.701C33.8411 23.6765 33.8393 23.6518 33.8373 23.6279C33.8344 23.593 33.8317 23.5597 33.8333 23.5302C33.8368 23.4629 33.8659 23.4106 33.8968 23.3533C33.9127 23.324 33.9291 23.2933 33.9427 23.2586C33.9604 23.2136 33.9492 23.136 33.9373 23.055C33.9289 22.9977 33.9203 22.9388 33.9207 22.888C33.9214 22.7962 33.9622 22.7511 33.9996 22.7088C34.0158 22.6904 34.0313 22.6723 34.0427 22.6515C34.0473 22.643 34.0464 22.6293 34.0416 22.6116C34.098 22.5294 34.1485 22.4465 34.1956 22.3651C34.434 21.9542 34.5812 21.6073 35.0576 21.584C35.1484 21.5788 35.2246 21.5301 35.2895 21.4606C35.5795 21.3879 35.8706 21.2989 36.161 21.1924C36.3116 21.3025 36.4596 21.3789 36.6018 21.4178C36.8695 21.4903 37.0416 21.4136 37.2392 21.3167C37.3857 21.2445 37.5465 21.1613 37.7825 21.1037C38.1788 21.0066 38.5654 20.8477 38.9053 20.5691C39.2444 20.2931 39.5805 19.9179 39.7813 19.6267C39.8911 19.4694 40.1279 19.3708 40.3485 19.2662C40.6585 19.1209 40.9363 18.9609 40.7505 18.7131C40.6911 18.6341 40.5721 18.5325 40.4552 18.4358C40.372 18.3669 40.2903 18.3003 40.2318 18.2448C40.2829 18.1816 40.3332 18.1173 40.3832 18.0522C40.6005 17.9871 40.8594 17.8349 40.7327 17.5686C40.781 17.4973 40.8282 17.4252 40.8743 17.3548C40.9726 17.2004 41.0668 17.0461 41.1578 16.8864C41.1877 16.8343 41.2174 16.7812 41.2468 16.7274C41.2471 16.7269 41.2474 16.7264 41.2477 16.7259C41.3068 16.6179 41.3643 16.5081 41.4199 16.3978C41.4437 16.3506 41.4671 16.303 41.4903 16.2551C41.5489 16.1338 41.6054 16.0102 41.6599 15.8862C41.6889 15.8208 41.7172 15.7532 41.745 15.6866C41.7902 15.578 41.834 15.4668 41.8761 15.3546C41.9443 15.1721 42.0082 14.9913 42.0678 14.8033C42.0777 14.7726 42.1077 14.7432 42.1531 14.7214C42.1985 14.6996 42.2554 14.6871 42.314 14.6871C42.3726 14.6871 42.4296 14.6999 42.4748 14.7227C42.5197 14.7455 42.5487 14.7766 42.5576 14.8088C42.6115 15.0068 42.6597 15.2035 42.7018 15.4079C42.7278 15.5336 42.752 15.6604 42.7734 15.7868C42.7867 15.8644 42.7987 15.9438 42.8102 16.0218C42.8317 16.1696 42.8501 16.3201 42.865 16.471C42.8708 16.5306 42.8763 16.5903 42.8812 16.6501C42.8929 16.7902 42.9013 16.9322 42.907 17.0749C42.907 17.0758 42.907 17.0766 42.9071 17.0775C42.9098 17.1478 42.912 17.2181 42.9135 17.2877C42.9176 17.5023 42.9157 17.7164 42.9056 17.9362C42.9016 18.05 42.8941 18.1677 42.8849 18.286C42.8798 18.3517 42.8743 18.4174 42.8684 18.482C42.865 18.5172 42.8612 18.5528 42.8573 18.5887C42.771 19.4133 42.5899 20.2396 42.3075 21.0552C42.0268 21.868 41.6475 22.6645 41.1782 23.4188C40.7075 24.1748 40.1459 24.8893 39.5016 25.5434C37.5007 27.593 34.6405 29.0306 31.5445 29.3809C28.3571 29.7701 24.8775 28.9788 22.035 27.0847C21.2346 26.5571 20.4649 25.9294 19.777 25.2448C19.0819 24.5526 18.4631 23.8044 17.9105 22.9785C17.7427 22.7281 17.578 22.4648 17.4183 22.1896Z" fill="black"/>
<path d="M29.5372 65.5807C29.635 66.6055 28.7122 67.5918 28.7104 68.6202C28.7081 69.897 29.5899 71.1942 29.4257 72.4739C29.2615 73.7463 29.0256 75.0248 28.7348 76.2993C28.444 77.5752 28.0984 78.8492 27.7155 80.1257C27.3327 81.3996 26.9127 82.6761 26.472 83.951C26.1727 84.8168 25.8636 85.6837 25.5508 86.5495C25.4137 86.9296 25.2759 87.3085 25.1377 87.6884C25.0343 87.9718 24.931 88.2552 24.8276 88.5386C24.813 88.578 24.7539 88.6158 24.66 88.6436C24.566 88.6714 24.4457 88.6871 24.3213 88.6871C24.1968 88.6871 24.0762 88.6712 23.9825 88.6433C23.8891 88.6154 23.8308 88.5776 23.8168 88.5382C23.7167 88.2524 23.6166 87.9666 23.5165 87.6808C23.4054 87.3633 23.2941 87.0465 23.1838 86.7291C23.6943 86.6791 24.0815 86.6106 24.2524 86.4821C24.3397 86.4165 24.3759 86.3209 24.2811 86.2504C24.1959 86.1872 24.0439 86.1396 23.8991 86.0943C23.7476 86.047 23.6038 86.0021 23.553 85.9444C23.4668 85.8463 23.25 85.7531 23.0223 85.6552C22.9395 85.6196 22.855 85.5833 22.775 85.5459C22.6712 85.243 22.5682 84.94 22.4661 84.6371C22.5204 84.5201 22.5644 84.4126 22.5435 84.3213C22.5247 84.2394 22.4168 84.1644 22.2827 84.0898C22.2671 84.0429 22.2514 83.996 22.2358 83.9491C22.1353 83.6465 22.0364 83.3437 21.9385 83.0409C22.0747 82.8047 22.207 82.5571 22.265 82.2351C22.2901 82.0964 22.3637 81.9595 22.4344 81.8279C22.5388 81.6335 22.6369 81.4506 22.5636 81.2903C22.5145 81.1831 22.5867 81.0704 22.6586 80.958C22.7551 80.8071 22.8514 80.6566 22.655 80.5202C22.5314 80.4344 22.3812 80.3556 22.2419 80.2826C22.0202 80.1665 21.8263 80.065 21.813 79.9732C21.7879 79.8006 21.6264 79.6511 21.484 79.5194C21.3126 79.3609 21.1689 79.228 21.3237 79.1113C21.3472 79.0936 21.3784 79.0734 21.4139 79.0506C21.6009 78.9305 21.9 78.7383 21.7356 78.4625C21.677 78.3643 21.5248 78.2721 21.3755 78.1818C21.1581 78.0503 20.9471 77.9226 21.041 77.7858C21.0551 77.7654 21.114 77.744 21.1677 77.7246C21.2361 77.6999 21.2958 77.6783 21.2439 77.6656C21.0916 77.6281 20.9233 77.5686 20.74 77.504C20.6054 77.4565 20.4627 77.4062 20.3129 77.3598C20.2283 77.0055 20.1472 76.6511 20.0705 76.2966C20.0353 76.1342 20.0009 75.9717 19.9675 75.8092C20.1968 75.7261 20.4034 75.6411 20.5597 75.5513C20.764 75.434 20.8265 75.2819 20.9076 75.0858C20.9672 74.9415 21.037 74.7733 21.1799 74.5777C21.4445 74.2154 21.3852 73.8434 21.2433 73.6049C21.2133 73.5545 21.1813 73.5038 21.1464 73.4496C21.0143 73.2439 20.8488 72.9873 20.6663 72.4999C20.4937 72.0388 20.4489 71.6467 20.4153 71.3521C20.3981 71.2018 20.3843 71.0768 20.3574 70.981C20.3114 70.8172 20.2704 70.616 20.2295 70.414C20.1654 70.0979 20.1012 69.7799 20.0156 69.5998C19.9852 69.5357 19.9475 69.4684 19.9072 69.3958C19.7956 69.1945 19.6609 68.9514 19.583 68.6162C19.5014 68.2644 19.5571 68.0464 19.6781 67.8199C19.7273 67.7278 19.9218 67.6466 20.1229 67.5629C20.4081 67.4442 20.7058 67.3203 20.617 67.1528C20.5962 67.1136 20.5499 67.0719 20.5012 67.0283C20.4118 66.9481 20.3149 66.8613 20.3574 66.7725C20.3722 66.7415 20.4251 66.7143 20.4768 66.6875C20.5338 66.6581 20.5895 66.6293 20.5926 66.5966C20.6042 66.4745 20.591 66.3558 20.5792 66.2502C20.564 66.1141 20.5513 66 20.5975 65.9292C20.6798 65.8029 20.6061 65.6649 20.5311 65.5251C20.4737 65.4183 20.4154 65.3105 20.4263 65.2061C20.4573 64.9077 20.3168 64.4973 20.0826 64.0745C19.9941 63.9145 20.115 63.7789 20.2703 63.6053C20.3669 63.4972 20.4771 63.3745 20.5579 63.2218C20.6036 63.1353 20.4959 63.062 20.3964 62.9942C20.3047 62.9316 20.22 62.8737 20.2679 62.8142C20.3102 62.7618 20.4913 62.7286 20.6633 62.6971C20.8547 62.662 21.0347 62.629 20.9996 62.5738C20.9809 62.5444 20.8903 62.5087 20.7827 62.4662C20.7401 62.4494 20.6951 62.4315 20.6505 62.4125C20.6872 62.4135 20.7201 62.4137 20.7449 62.4137C20.9206 62.4138 21.0131 62.3574 21.1038 62.3022C21.14 62.2801 21.1757 62.2581 21.2165 62.2401C21.3666 62.1736 21.391 62.0478 21.384 61.9517C21.3811 61.911 21.4356 61.8741 21.4992 61.8311C21.5556 61.7929 21.6193 61.7499 21.6564 61.695C21.6775 61.6637 21.7284 61.6397 21.7709 61.6198C21.8017 61.6054 21.828 61.5932 21.8349 61.5818C21.8408 61.572 21.7905 61.564 21.7338 61.5551C21.6929 61.5487 21.6487 61.5417 21.6198 61.5331C21.5508 61.5126 21.53 61.4863 21.5522 61.4678C21.5624 61.4593 21.582 61.4525 21.6015 61.4458C21.6243 61.438 21.6471 61.4303 21.6552 61.4196C21.6918 61.3705 21.6344 61.3228 21.5747 61.2733C21.5092 61.2188 21.441 61.162 21.4919 61.0987C21.5079 61.0788 21.5446 61.0576 21.5802 61.0371C21.6175 61.0156 21.6535 60.9947 21.6631 60.9769C21.702 60.9049 21.5764 60.8371 21.4608 60.7748C21.384 60.7333 21.3117 60.6942 21.2951 60.6579C21.2648 60.5913 21.114 60.5556 21.0026 60.5293C20.9449 60.5156 20.8976 60.5045 20.8832 60.4928C20.8874 60.4821 20.8924 60.4712 20.8978 60.4606C20.9089 60.4508 20.9204 60.4408 20.9167 60.4313C20.9164 60.4306 20.9158 60.4299 20.9155 60.4292C20.9521 60.3696 21.0039 60.3112 21.0556 60.2531C21.1718 60.1226 21.2868 59.9937 21.222 59.8574C21.208 59.828 21.1457 59.7981 21.0824 59.7677C21.0049 59.7304 20.9256 59.6923 20.9314 59.6534C20.945 59.5608 21.0477 59.4673 21.1489 59.3752C21.3011 59.2368 21.4497 59.1014 21.2866 58.977C21.2327 58.9359 21.143 58.8959 21.0526 58.8557C21.0022 58.8333 20.9514 58.8108 20.907 58.7881C20.9895 58.7929 21.0669 58.7955 21.1391 58.7978C21.288 58.8028 21.4153 58.807 21.5236 58.8288C21.7793 58.8804 22.1313 58.9388 22.3881 58.9323C22.4578 58.9305 22.5354 58.9319 22.6135 58.9335C22.8096 58.9374 23.0098 58.9414 23.1003 58.8935C23.1613 58.8613 23.3014 58.7784 23.1515 58.7257C23.1188 58.7142 23.0541 58.7072 22.9821 58.6994C22.8528 58.6854 22.6997 58.6688 22.6641 58.6189C22.6581 58.6105 22.6527 58.6013 22.6476 58.5919C22.6275 58.5542 22.6054 58.512 22.5014 58.4962C22.3817 58.478 22.2446 58.4819 22.0847 58.4864C21.8765 58.4923 21.6291 58.4993 21.331 58.4602C21.2721 58.4524 21.2519 58.4376 21.2366 58.4264C21.2258 58.4186 21.2172 58.4126 21.1994 58.412C21.1791 58.4113 21.1367 58.4138 21.0831 58.417C20.8939 58.4283 20.5634 58.4479 20.5493 58.366C20.5456 58.3439 20.5613 58.3186 20.5755 58.2958C20.5965 58.2624 20.6138 58.2346 20.5597 58.2308C20.5392 58.2294 20.5169 58.2284 20.4939 58.2276C20.5004 58.201 20.5069 58.1743 20.5134 58.1477C20.5779 58.1135 20.5723 58.0655 20.5652 58.0056C20.5634 57.9911 20.5618 57.9758 20.5609 57.9598C20.5743 57.9073 20.5875 57.8546 20.6011 57.8021C20.6285 57.7604 20.673 57.716 20.7437 57.6692C20.8854 57.5753 21.119 57.4937 21.3475 57.4139C21.4437 57.3803 21.5393 57.347 21.6265 57.3132C21.6372 57.3263 21.6499 57.3382 21.6673 57.3474C21.7867 57.4099 22.0215 57.435 22.2376 57.4581C22.3814 57.4735 22.5169 57.488 22.6044 57.512C22.7646 57.5559 22.952 57.5515 23.0906 57.5483C23.1625 57.5466 23.2213 57.5454 23.2563 57.5512C23.2843 57.5559 23.2975 57.5668 23.3111 57.5781C23.323 57.5879 23.3355 57.598 23.358 57.6045C23.6324 57.6831 23.7916 57.6594 24.0234 57.6251C24.1512 57.6061 24.3012 57.584 24.5047 57.5738C24.7202 57.5651 24.7832 57.568 24.869 57.6092C24.9754 57.5771 25.0819 57.545 25.1883 57.5129C25.1814 57.5003 25.1148 57.4908 25.0043 57.4774C24.8069 57.4534 24.7347 57.3754 24.6783 57.3144C24.6522 57.2862 24.6294 57.2616 24.5991 57.2477C24.4381 57.1739 24.2139 57.1954 24.0167 57.2143C23.9081 57.2247 23.8076 57.2343 23.7303 57.2268C23.6973 57.2236 23.6645 57.2282 23.631 57.2328C23.6051 57.2363 23.5788 57.2399 23.5518 57.2401C23.3553 57.241 23.2095 57.1974 23.0741 57.1569C22.9966 57.1337 22.9222 57.1116 22.8438 57.0994C22.8199 57.0957 22.7956 57.0927 22.7719 57.0899C22.7374 57.0859 22.7045 57.0819 22.6763 57.0757C22.612 57.0617 22.5687 57.0326 22.5215 57.0008C22.4973 56.9845 22.4721 56.9675 22.4423 56.9514C22.4038 56.9305 22.3261 56.923 22.2449 56.9151C22.1876 56.9095 22.1285 56.9036 22.0798 56.8928C21.9918 56.8732 21.96 56.8338 21.9305 56.7971C21.9177 56.7812 21.9049 56.7657 21.8885 56.7527C21.8818 56.7474 21.8685 56.7449 21.8501 56.7443C21.7886 56.6842 21.7258 56.6267 21.6643 56.5708C21.3559 56.2906 21.0884 56.048 21.2823 55.6857C21.3189 55.6172 21.3116 55.5436 21.2823 55.4693C21.3593 55.2315 21.4389 54.9936 21.5205 54.756C21.6975 54.7089 21.8462 54.6514 21.9628 54.5832C22.1819 54.4553 22.2287 54.3237 22.2839 54.1683C22.3248 54.0535 22.3704 53.9257 22.4935 53.7768C22.7004 53.5266 22.8754 53.2697 22.9663 52.9798C23.0568 52.6912 23.1236 52.3608 23.1472 52.127C23.1602 51.9996 23.3185 51.8657 23.4659 51.741C23.6732 51.5655 23.859 51.408 23.5896 51.3119C23.5035 51.2812 23.354 51.2515 23.2088 51.2227C23.1054 51.2021 23.0044 51.1818 22.9291 51.1619C22.9525 51.109 22.9756 51.056 22.9992 51.0031C23.1787 50.909 23.3712 50.7628 23.171 50.6215C23.1957 50.5668 23.2204 50.5122 23.2453 50.4594C23.2976 50.3443 23.3505 50.2316 23.4037 50.1179C23.4214 50.0808 23.439 50.0433 23.4568 50.0058C23.457 50.0054 23.4572 50.0051 23.4574 50.0047C23.4931 49.9291 23.529 49.8529 23.5652 49.778C23.5806 49.7459 23.5961 49.7138 23.6115 49.6817C23.6507 49.6001 23.69 49.518 23.7297 49.4372C23.7508 49.3945 23.7718 49.3514 23.7931 49.3081C23.8276 49.238 23.8623 49.1674 23.8972 49.0971C23.9537 48.9835 24.0109 48.8703 24.0685 48.757C24.078 48.7385 24.1078 48.7206 24.1531 48.7076C24.1985 48.6945 24.2554 48.6871 24.314 48.6871C24.3726 48.6871 24.4296 48.6946 24.4748 48.7077C24.5199 48.7208 24.549 48.7386 24.5583 48.7571C24.6143 48.8706 24.6697 48.9838 24.7246 49.0976C24.7586 49.1679 24.7928 49.2385 24.8264 49.3086C24.8471 49.3518 24.8674 49.3949 24.8879 49.4377C24.9265 49.5184 24.965 49.6007 25.0031 49.6823C25.0181 49.7144 25.0331 49.7465 25.0481 49.7786C25.0834 49.8537 25.1182 49.9301 25.1529 50.0059C25.1531 50.0064 25.1533 50.0068 25.1536 50.0073C25.1706 50.0446 25.1878 50.0818 25.2047 50.1187C25.2564 50.2324 25.3076 50.3451 25.3583 50.4603C25.3856 50.5198 25.4123 50.5819 25.4393 50.6434C25.4543 50.6777 25.4694 50.7119 25.4844 50.7455C25.4923 50.7639 25.5002 50.7825 25.5081 50.8012C25.6955 51.2307 25.8757 51.6572 26.0486 52.0877C26.2214 52.5165 26.3872 52.9461 26.5463 53.3744C26.7055 53.8038 26.8578 54.2324 27.0039 54.6614C27.9317 57.3837 28.6925 60.1169 29.1686 62.8513C29.237 63.2414 29.2986 63.6416 29.3538 64.0324C29.4091 64.4274 29.4581 64.8144 29.5 65.2105C29.5131 65.3308 29.5254 65.4541 29.5372 65.5807Z" fill="black"/>
<path d="M41.5372 65.5807C41.635 66.6055 40.7122 67.5918 40.7104 68.6202C40.7081 69.897 41.5899 71.1942 41.4257 72.4739C41.2615 73.7463 41.0256 75.0248 40.7348 76.2993C40.444 77.5752 40.0984 78.8492 39.7155 80.1257C39.3327 81.3996 38.9127 82.6761 38.472 83.951C38.1727 84.8168 37.8636 85.6837 37.5508 86.5495C37.4137 86.9296 37.2759 87.3085 37.1377 87.6884C37.0343 87.9718 36.931 88.2552 36.8276 88.5386C36.813 88.578 36.7539 88.6158 36.66 88.6436C36.566 88.6714 36.4457 88.6871 36.3213 88.6871C36.1968 88.6871 36.0762 88.6712 35.9825 88.6433C35.8891 88.6154 35.8308 88.5776 35.8168 88.5382C35.7167 88.2524 35.6166 87.9666 35.5165 87.6808C35.4054 87.3633 35.2941 87.0465 35.1838 86.7291C35.6943 86.6791 36.0815 86.6106 36.2524 86.4821C36.3397 86.4165 36.3759 86.3209 36.2811 86.2504C36.1959 86.1872 36.0439 86.1396 35.8991 86.0943C35.7476 86.047 35.6038 86.0021 35.553 85.9444C35.4668 85.8463 35.25 85.7531 35.0223 85.6552C34.9395 85.6196 34.855 85.5833 34.775 85.5459C34.6712 85.243 34.5682 84.94 34.4661 84.6371C34.5204 84.5201 34.5644 84.4126 34.5435 84.3213C34.5247 84.2394 34.4168 84.1644 34.2827 84.0898C34.2671 84.0429 34.2514 83.996 34.2358 83.9491C34.1353 83.6465 34.0364 83.3437 33.9385 83.0409C34.0747 82.8047 34.207 82.5571 34.265 82.2351C34.2901 82.0964 34.3637 81.9595 34.4344 81.8279C34.5388 81.6335 34.6369 81.4506 34.5636 81.2903C34.5145 81.1831 34.5867 81.0704 34.6586 80.958C34.7551 80.8071 34.8514 80.6566 34.655 80.5202C34.5314 80.4344 34.3812 80.3556 34.2419 80.2826C34.0202 80.1665 33.8263 80.065 33.813 79.9732C33.7879 79.8006 33.6264 79.6511 33.484 79.5194C33.3126 79.3609 33.1689 79.228 33.3237 79.1113C33.3472 79.0936 33.3784 79.0734 33.4139 79.0506C33.6009 78.9305 33.9 78.7383 33.7356 78.4625C33.677 78.3643 33.5248 78.2721 33.3755 78.1818C33.1581 78.0503 32.9471 77.9226 33.041 77.7858C33.0551 77.7654 33.114 77.744 33.1677 77.7246C33.2361 77.6999 33.2958 77.6783 33.2439 77.6656C33.0916 77.6281 32.9233 77.5686 32.74 77.504C32.6054 77.4565 32.4627 77.4062 32.3129 77.3598C32.2283 77.0055 32.1472 76.6511 32.0705 76.2966C32.0353 76.1342 32.0009 75.9717 31.9675 75.8092C32.1968 75.7261 32.4034 75.6411 32.5597 75.5513C32.764 75.434 32.8265 75.2819 32.9076 75.0858C32.9672 74.9415 33.037 74.7733 33.1799 74.5777C33.4445 74.2154 33.3852 73.8434 33.2433 73.6049C33.2133 73.5545 33.1813 73.5038 33.1464 73.4496C33.0143 73.2439 32.8488 72.9873 32.6663 72.4999C32.4937 72.0388 32.4489 71.6467 32.4153 71.3521C32.3981 71.2018 32.3843 71.0768 32.3574 70.981C32.3114 70.8172 32.2704 70.616 32.2295 70.414C32.1654 70.0979 32.1012 69.7799 32.0156 69.5998C31.9852 69.5357 31.9475 69.4684 31.9072 69.3958C31.7956 69.1945 31.6609 68.9514 31.583 68.6162C31.5014 68.2644 31.5571 68.0464 31.6781 67.8199C31.7273 67.7278 31.9218 67.6466 32.1229 67.5629C32.4081 67.4442 32.7058 67.3203 32.617 67.1528C32.5962 67.1136 32.5499 67.0719 32.5012 67.0283C32.4118 66.9481 32.3149 66.8613 32.3574 66.7725C32.3722 66.7415 32.4251 66.7143 32.4768 66.6875C32.5338 66.6581 32.5895 66.6293 32.5926 66.5966C32.6042 66.4745 32.591 66.3558 32.5792 66.2502C32.564 66.1141 32.5513 66 32.5975 65.9292C32.6798 65.8029 32.6061 65.6649 32.5311 65.5251C32.4737 65.4183 32.4154 65.3105 32.4263 65.2061C32.4573 64.9077 32.3168 64.4973 32.0826 64.0745C31.9941 63.9145 32.115 63.7789 32.2703 63.6053C32.3669 63.4972 32.4771 63.3745 32.5579 63.2218C32.6036 63.1353 32.4959 63.062 32.3964 62.9942C32.3047 62.9316 32.22 62.8737 32.2679 62.8142C32.3102 62.7618 32.4913 62.7286 32.6633 62.6971C32.8547 62.662 33.0347 62.629 32.9996 62.5738C32.9809 62.5444 32.8903 62.5087 32.7827 62.4662C32.7401 62.4494 32.6951 62.4315 32.6505 62.4125C32.6872 62.4135 32.7201 62.4137 32.7449 62.4137C32.9206 62.4138 33.0131 62.3574 33.1038 62.3022C33.14 62.2801 33.1757 62.2581 33.2165 62.2401C33.3666 62.1736 33.391 62.0478 33.384 61.9517C33.3811 61.911 33.4356 61.8741 33.4992 61.8311C33.5556 61.7929 33.6193 61.7499 33.6564 61.695C33.6775 61.6637 33.7284 61.6397 33.7709 61.6198C33.8017 61.6054 33.828 61.5932 33.8349 61.5818C33.8408 61.572 33.7905 61.564 33.7338 61.5551C33.6929 61.5487 33.6487 61.5417 33.6198 61.5331C33.5508 61.5126 33.53 61.4863 33.5522 61.4678C33.5624 61.4593 33.582 61.4525 33.6015 61.4458C33.6243 61.438 33.6471 61.4303 33.6552 61.4196C33.6918 61.3705 33.6344 61.3228 33.5747 61.2733C33.5092 61.2188 33.441 61.162 33.4919 61.0987C33.5079 61.0788 33.5446 61.0576 33.5802 61.0371C33.6175 61.0156 33.6535 60.9947 33.6631 60.9769C33.702 60.9049 33.5764 60.8371 33.4608 60.7748C33.384 60.7333 33.3117 60.6942 33.2951 60.6579C33.2648 60.5913 33.114 60.5556 33.0026 60.5293C32.9449 60.5156 32.8976 60.5045 32.8832 60.4928C32.8874 60.4821 32.8924 60.4712 32.8978 60.4606C32.9089 60.4508 32.9204 60.4408 32.9167 60.4313C32.9164 60.4306 32.9158 60.4299 32.9155 60.4292C32.9521 60.3696 33.0039 60.3112 33.0556 60.2531C33.1718 60.1226 33.2868 59.9937 33.222 59.8574C33.208 59.828 33.1457 59.7981 33.0824 59.7677C33.0049 59.7304 32.9256 59.6923 32.9314 59.6534C32.945 59.5608 33.0477 59.4673 33.1489 59.3752C33.3011 59.2368 33.4497 59.1014 33.2866 58.977C33.2327 58.9359 33.143 58.8959 33.0526 58.8557C33.0022 58.8333 32.9514 58.8108 32.907 58.7881C32.9895 58.7929 33.0669 58.7955 33.1391 58.7978C33.288 58.8028 33.4153 58.807 33.5236 58.8288C33.7793 58.8804 34.1313 58.9388 34.3881 58.9323C34.4578 58.9305 34.5354 58.9319 34.6135 58.9335C34.8096 58.9374 35.0098 58.9414 35.1003 58.8935C35.1613 58.8613 35.3014 58.7784 35.1515 58.7257C35.1188 58.7142 35.0541 58.7072 34.9821 58.6994C34.8528 58.6854 34.6997 58.6688 34.6641 58.6189C34.6581 58.6105 34.6527 58.6013 34.6476 58.5919C34.6275 58.5542 34.6054 58.512 34.5014 58.4962C34.3817 58.478 34.2446 58.4819 34.0847 58.4864C33.8765 58.4923 33.6291 58.4993 33.331 58.4602C33.2721 58.4524 33.2519 58.4376 33.2366 58.4264C33.2258 58.4186 33.2172 58.4126 33.1994 58.412C33.1791 58.4113 33.1367 58.4138 33.0831 58.417C32.8939 58.4283 32.5634 58.4479 32.5493 58.366C32.5456 58.3439 32.5613 58.3186 32.5755 58.2958C32.5965 58.2624 32.6138 58.2346 32.5597 58.2308C32.5392 58.2294 32.5169 58.2284 32.4939 58.2276C32.5004 58.201 32.5069 58.1743 32.5134 58.1477C32.5779 58.1135 32.5723 58.0655 32.5652 58.0056C32.5634 57.9911 32.5618 57.9758 32.5609 57.9598C32.5743 57.9073 32.5875 57.8546 32.6011 57.8021C32.6285 57.7604 32.673 57.716 32.7437 57.6692C32.8854 57.5753 33.119 57.4937 33.3475 57.4139C33.4437 57.3803 33.5393 57.347 33.6265 57.3132C33.6372 57.3263 33.6499 57.3382 33.6673 57.3474C33.7867 57.4099 34.0215 57.435 34.2376 57.4581C34.3814 57.4735 34.5169 57.488 34.6044 57.512C34.7646 57.5559 34.952 57.5515 35.0906 57.5483C35.1625 57.5466 35.2213 57.5454 35.2563 57.5512C35.2843 57.5559 35.2975 57.5668 35.3111 57.5781C35.323 57.5879 35.3355 57.598 35.358 57.6045C35.6324 57.6831 35.7916 57.6594 36.0234 57.6251C36.1512 57.6061 36.3012 57.584 36.5047 57.5738C36.7202 57.5651 36.7832 57.568 36.869 57.6092C36.9754 57.5771 37.0819 57.545 37.1883 57.5129C37.1814 57.5003 37.1148 57.4908 37.0043 57.4774C36.8069 57.4534 36.7347 57.3754 36.6783 57.3144C36.6522 57.2862 36.6294 57.2616 36.5991 57.2477C36.4381 57.1739 36.2139 57.1954 36.0167 57.2143C35.9081 57.2247 35.8076 57.2343 35.7303 57.2268C35.6973 57.2236 35.6645 57.2282 35.631 57.2328C35.6051 57.2363 35.5788 57.2399 35.5518 57.2401C35.3553 57.241 35.2095 57.1974 35.0741 57.1569C34.9966 57.1337 34.9222 57.1116 34.8438 57.0994C34.8199 57.0957 34.7956 57.0927 34.7719 57.0899C34.7374 57.0859 34.7045 57.0819 34.6763 57.0757C34.612 57.0617 34.5687 57.0326 34.5215 57.0008C34.4973 56.9845 34.4721 56.9675 34.4423 56.9514C34.4038 56.9305 34.3261 56.923 34.2449 56.9151C34.1876 56.9095 34.1285 56.9036 34.0798 56.8928C33.9918 56.8732 33.96 56.8338 33.9305 56.7971C33.9177 56.7812 33.9049 56.7657 33.8885 56.7527C33.8818 56.7474 33.8685 56.7449 33.8501 56.7443C33.7886 56.6842 33.7258 56.6267 33.6643 56.5708C33.3559 56.2906 33.0884 56.048 33.2823 55.6857C33.3189 55.6172 33.3116 55.5436 33.2823 55.4693C33.3593 55.2315 33.4389 54.9936 33.5205 54.756C33.6975 54.7089 33.8462 54.6514 33.9628 54.5832C34.1819 54.4553 34.2287 54.3237 34.2839 54.1683C34.3248 54.0535 34.3704 53.9257 34.4935 53.7768C34.7004 53.5266 34.8754 53.2697 34.9663 52.9798C35.0568 52.6912 35.1236 52.3608 35.1472 52.127C35.1602 51.9996 35.3185 51.8657 35.4659 51.741C35.6732 51.5655 35.859 51.408 35.5896 51.3119C35.5035 51.2812 35.354 51.2515 35.2088 51.2227C35.1054 51.2021 35.0044 51.1818 34.9291 51.1619C34.9525 51.109 34.9756 51.056 34.9992 51.0031C35.1787 50.909 35.3712 50.7628 35.171 50.6215C35.1957 50.5668 35.2204 50.5122 35.2453 50.4594C35.2976 50.3443 35.3505 50.2316 35.4037 50.1179C35.4214 50.0808 35.439 50.0433 35.4568 50.0058C35.457 50.0054 35.4572 50.0051 35.4574 50.0047C35.4931 49.9291 35.529 49.8529 35.5652 49.778C35.5806 49.7459 35.5961 49.7138 35.6115 49.6817C35.6507 49.6001 35.69 49.518 35.7297 49.4372C35.7508 49.3945 35.7718 49.3514 35.7931 49.3081C35.8276 49.238 35.8623 49.1674 35.8972 49.0971C35.9537 48.9835 36.0109 48.8703 36.0685 48.757C36.078 48.7385 36.1078 48.7206 36.1531 48.7076C36.1985 48.6945 36.2554 48.6871 36.314 48.6871C36.3726 48.6871 36.4296 48.6946 36.4748 48.7077C36.5199 48.7208 36.549 48.7386 36.5583 48.7571C36.6143 48.8706 36.6697 48.9838 36.7246 49.0976C36.7586 49.1679 36.7928 49.2385 36.8264 49.3086C36.8471 49.3518 36.8674 49.3949 36.8879 49.4377C36.9265 49.5184 36.965 49.6007 37.0031 49.6823C37.0181 49.7144 37.0331 49.7465 37.0481 49.7786C37.0834 49.8537 37.1182 49.9301 37.1529 50.0059C37.1531 50.0064 37.1533 50.0068 37.1536 50.0073C37.1706 50.0446 37.1878 50.0818 37.2047 50.1187C37.2564 50.2324 37.3076 50.3451 37.3583 50.4603C37.3856 50.5198 37.4123 50.5819 37.4393 50.6434C37.4543 50.6777 37.4694 50.7119 37.4844 50.7455C37.4923 50.7639 37.5002 50.7825 37.5081 50.8012C37.6955 51.2307 37.8757 51.6572 38.0486 52.0877C38.2214 52.5165 38.3872 52.9461 38.5463 53.3744C38.7055 53.8038 38.8578 54.2324 39.0039 54.6614C39.9317 57.3837 40.6925 60.1169 41.1686 62.8513C41.237 63.2414 41.2986 63.6416 41.3538 64.0324C41.4091 64.4274 41.4581 64.8144 41.5 65.2105C41.5131 65.3308 41.5254 65.4541 41.5372 65.5807Z" fill="black"/>
<path d="M25.1805 36.0024C26.5763 36.2111 27.9051 36.916 29.3947 37.2683C29.851 37.3733 30.3092 37.4488 30.7703 37.4705C33.2264 37.6032 35.9723 36.6004 37.0463 36.3597C37.0981 36.351 37.1414 36.3438 37.1727 36.3406C39.2318 35.6266 41.3589 34.6856 43.3731 33.6175C44.0545 33.2556 44.7356 32.868 45.3195 32.5077C46.7077 31.6095 48.1137 30.5766 49.4418 29.5027C49.8557 29.1684 50.2774 28.8113 50.6168 28.5162C50.4772 28.7403 50.5757 28.6465 50.6152 28.6061C50.6679 28.5505 50.7337 28.4657 50.7987 28.3788C50.9317 28.1992 51.0707 27.9962 51.2106 27.7867C51.4905 27.3671 51.7746 26.9209 52.0563 26.4768C52.6218 25.5827 53.1888 24.6708 53.7582 23.7603C53.8689 23.5832 53.9795 23.4066 54.0911 23.2277L54.0492 23.3378C54.7982 22.0325 55.322 20.5996 55.8369 19.015C55.8607 18.9425 55.8843 18.8718 55.9082 18.7986C56.1451 18.0873 56.3845 17.3867 56.6242 16.6849C56.8216 16.1077 57.019 15.5308 57.2155 14.9537C57.2429 14.8736 57.3139 14.8036 57.4158 14.7602C57.5179 14.7167 57.642 14.7025 57.7649 14.722C57.8878 14.7416 58.0017 14.7938 58.0849 14.867C58.1679 14.94 58.2128 15.0288 58.2135 15.1134C58.2171 15.7285 58.2196 16.3437 58.2224 16.958C58.2253 17.6403 58.2285 18.321 58.2339 18.9991C58.0206 19.0089 57.8266 19.0298 57.6576 19.066C57.4148 19.1176 57.2232 19.2066 57.0994 19.3501C56.9921 19.4759 56.9259 19.6692 56.9964 19.8327C57.06 19.9787 57.1942 20.1025 57.3219 20.2213C57.4555 20.3451 57.582 20.4636 57.6114 20.596C57.6616 20.8198 57.8405 21.0569 58.0249 21.3131C58.092 21.4059 58.1598 21.5023 58.2225 21.6002C58.195 22.2938 58.1306 23.0161 58.0234 23.7309C57.8923 23.9807 57.7736 24.2053 57.7258 24.4133C57.712 24.4734 57.7074 24.5354 57.7096 24.5991C57.6981 24.6229 57.6756 24.6993 57.6626 24.7224C57.6626 24.8447 57.6936 24.974 57.7361 25.1068C57.712 25.205 57.6876 25.3036 57.6638 25.4009C57.5077 26.0333 57.3491 26.6666 57.187 27.3004C56.8639 27.7138 56.5351 28.1497 56.2039 28.7658C56.0609 29.0313 55.8733 29.2746 55.69 29.5102C55.4178 29.8609 55.1612 30.1832 55.0532 30.5642C54.967 30.8324 54.832 30.9905 54.4516 31.4117C54.4353 31.4294 54.4182 31.4476 54.4001 31.4665C54.1045 31.6926 53.8288 31.8864 53.7763 32.2405C53.7438 32.4674 53.7381 32.7014 53.7327 32.9169C53.7237 33.2603 53.7117 33.5614 53.5799 33.724C53.334 34.0276 53.2198 34.3824 53.1151 34.6964C52.9898 35.0732 52.8783 35.3906 52.582 35.4678C52.5371 35.4795 52.4819 35.4904 52.4208 35.5012C52.0946 35.5614 51.5818 35.648 51.2426 36.1935C51.1217 36.3877 51.0725 36.641 51.0212 36.8905C50.9474 37.2528 50.8683 37.6076 50.5685 37.7461C50.5238 37.7667 50.4479 37.7549 50.3788 37.7438C50.2909 37.7298 50.2142 37.7173 50.226 37.7758C50.2557 37.9232 50.264 38.1043 50.2678 38.3031C50.2672 38.3369 50.2664 38.3713 50.2653 38.4062C50.259 38.5881 50.2516 38.7799 50.2546 38.9713C49.6103 39.6084 48.9791 40.1762 48.3289 40.7246C48.032 40.9749 47.7301 41.2207 47.4279 41.4596C47.1379 41.376 46.8567 41.3122 46.5973 41.2923C46.2556 41.2681 45.9259 41.4018 45.4954 41.5674C45.1782 41.6894 44.8093 41.8267 44.347 41.9251C43.4924 42.1078 42.7714 42.5519 42.3399 42.9252C42.2494 43.004 42.1586 43.0847 42.0607 43.1713C41.7398 43.454 41.3488 43.7991 40.6069 44.2885C40.4347 44.3891 40.2507 44.4888 40.0554 44.5861C38.7085 45.2457 37.6725 45.432 36.911 45.5759C36.5212 45.6452 36.2103 45.6908 35.9689 45.7405C35.5608 45.8251 35.0661 45.9009 34.5772 45.9639C33.812 46.0636 33.0598 46.132 32.6366 46.2156C32.4833 46.2454 32.3287 46.2818 32.1566 46.3197C31.6847 46.4244 31.1139 46.5456 30.339 46.5877C29.6484 46.6247 29.1919 46.5652 28.7584 46.4506C28.6789 46.43 28.6005 46.4076 28.5223 46.3835C28.3091 46.3184 28.1347 46.109 27.9564 45.8918C27.7036 45.5835 27.4476 45.2607 27.0505 45.3072C26.9582 45.3181 26.8553 45.3533 26.7487 45.3901C26.5515 45.4574 26.3375 45.529 26.1345 45.4599C26.0642 45.4359 26.0069 45.375 25.9515 45.3153C25.8906 45.2496 25.8308 45.1853 25.7551 45.1716C25.4725 45.1204 25.1938 45.0915 24.9456 45.0635C24.6257 45.0275 24.3564 44.9927 24.1996 44.9173C23.9199 44.7829 23.5853 44.7932 23.2435 44.7986C22.9826 44.8027 22.7174 44.8041 22.4758 44.7372C22.3377 44.6989 22.1872 44.664 22.0274 44.632C21.4088 44.5093 20.6353 44.4383 19.8034 44.3847C19.4099 44.3591 19.1285 44.1443 18.7716 43.8609C18.5486 43.6839 18.2971 43.4803 17.9577 43.266C17.7653 43.1444 17.5464 43.1734 17.3356 43.1941C17.2093 43.2067 17.0851 43.2158 16.9758 43.1889C16.9078 43.1703 16.8446 43.1414 16.7881 43.0972C16.6484 42.9865 16.6323 42.7769 16.6255 42.5818C16.6177 42.3644 16.6133 42.1606 16.463 42.1215C16.3805 42.0993 16.2545 42.1346 16.1005 42.1729C16.0392 42.1878 15.9753 42.2039 15.9096 42.2183C15.9298 42.1875 15.9464 42.1591 15.9586 42.1374C16.0455 41.9848 15.9563 41.8289 15.8827 41.6813C15.8522 41.6218 15.8217 41.5625 15.8025 41.5038C15.7368 41.2913 15.4831 41.1086 15.2865 40.9924C15.2014 40.9421 15.157 40.8492 15.106 40.7407C15.0597 40.6436 15.0106 40.5357 14.924 40.4343C14.8743 40.3761 14.8556 40.3025 14.8416 40.2421C14.8313 40.1982 14.8225 40.1607 14.8047 40.1403C14.7891 40.1228 14.7458 40.1543 14.6969 40.1898C14.6617 40.2153 14.6235 40.2429 14.5907 40.2556C14.5118 40.2855 14.4514 40.2696 14.4285 40.2272C14.4181 40.2077 14.4163 40.1827 14.4146 40.1579C14.4126 40.129 14.4108 40.1 14.3949 40.0794C14.3207 39.9839 14.2021 39.9717 14.0735 39.9546C13.9328 39.9363 13.7897 39.9188 13.7001 39.7925C13.673 39.7535 13.6555 39.6958 13.6385 39.6398C13.6208 39.5812 13.6033 39.5243 13.5761 39.4929C13.4675 39.3665 13.2699 39.3778 13.0886 39.3879C12.9685 39.395 12.8543 39.4005 12.778 39.3644C12.6403 39.2998 12.4859 39.3725 12.3711 39.4255C12.3117 39.453 12.2628 39.4756 12.2329 39.471C12.2157 39.4528 12.1998 39.4345 12.184 39.4158C12.1733 39.3938 12.1621 39.371 12.143 39.3611C12.1415 39.3604 12.1399 39.3599 12.1384 39.3592C12.0539 39.2494 11.9792 39.1273 11.9085 39.0078C11.7451 38.7361 11.5911 38.4708 11.3134 38.3347C11.2533 38.3052 11.1619 38.3124 11.0703 38.3206C10.9577 38.3303 10.8418 38.3395 10.7773 38.2808C10.6255 38.1424 10.5258 37.9306 10.4331 37.7253C10.2902 37.4138 10.1544 37.1105 9.84087 37.0631C9.73717 37.0473 9.61153 37.0597 9.48539 37.0725C9.41563 37.08 9.34524 37.0876 9.27849 37.0897C9.33941 37.0331 9.3933 36.9772 9.44354 36.9251C9.54709 36.8176 9.63579 36.7257 9.74147 36.6729C9.9908 36.5477 10.3151 36.3591 10.4675 36.1519C10.509 36.0958 10.5609 36.038 10.6133 35.98C10.7448 35.8343 10.8791 35.6856 10.857 35.5497C10.8409 35.4572 10.7962 35.2377 10.6123 35.2794C10.5723 35.2885 10.5192 35.3285 10.46 35.3729C10.354 35.4527 10.2272 35.5463 10.1224 35.5049C10.1047 35.4978 10.0862 35.4893 10.0673 35.4801C9.99225 35.4432 9.90795 35.4011 9.81463 35.4583C9.70716 35.5243 9.62507 35.6344 9.52947 35.763C9.40489 35.9303 9.25734 36.1295 8.99892 36.3014C8.94775 36.3353 8.91038 36.3301 8.88188 36.326C8.86185 36.3232 8.84625 36.3213 8.83378 36.334C8.8195 36.3486 8.79626 36.3844 8.76693 36.4299C8.66334 36.59 8.48288 36.8704 8.33657 36.7647C8.29698 36.736 8.26457 36.6878 8.23551 36.6444C8.21111 36.6079 8.18899 36.5749 8.16681 36.5599C8.15022 36.5487 8.13358 36.5477 8.1158 36.5631C8.10016 36.5768 8.08406 36.5923 8.06774 36.6086C8.02738 36.5656 7.98799 36.5234 7.94761 36.4803C7.93209 36.3821 7.84895 36.3182 7.74352 36.2368C7.71818 36.2173 7.69124 36.1962 7.66365 36.1736C7.58383 36.0871 7.50316 35.9996 7.42266 35.9114C7.36944 35.8287 7.32284 35.7288 7.28944 35.6051C7.22193 35.3568 7.23642 35.0566 7.25305 34.7635C7.25967 34.6397 7.26741 34.5176 7.26838 34.4001C7.29811 34.4128 7.32698 34.4221 7.3544 34.4235C7.54109 34.4322 7.7412 34.2962 7.92425 34.1702C8.04604 34.0864 8.16111 34.0076 8.25904 33.9779C8.43846 33.9233 8.55571 33.7767 8.64262 33.6686C8.68769 33.6124 8.72479 33.5666 8.75762 33.5491C8.78397 33.535 8.81055 33.541 8.83808 33.5473C8.86186 33.5525 8.88655 33.5577 8.91205 33.5502C9.22203 33.4581 9.2882 33.304 9.38638 33.0815C9.4405 32.9587 9.50498 32.8154 9.62399 32.6489C9.75317 32.4754 9.80012 32.4329 9.92161 32.4259C9.94201 32.3018 9.96182 32.177 9.98319 32.0533C9.95919 32.0411 9.89978 32.0773 9.80498 32.1407C9.63568 32.2541 9.46528 32.1976 9.33214 32.1519C9.27058 32.1309 9.217 32.1126 9.17479 32.1148C8.95093 32.1267 8.83085 32.321 8.72645 32.4934C8.66893 32.5881 8.61594 32.6761 8.55147 32.7217C8.52392 32.7412 8.50886 32.772 8.49347 32.8033C8.48157 32.8275 8.46956 32.8522 8.45142 32.8723C8.31956 33.0179 8.14998 33.0597 7.99119 33.0964C7.90044 33.1176 7.8132 33.1376 7.73925 33.1755C7.71673 33.1871 7.69511 33.2001 7.67428 33.213C7.64386 33.2317 7.61471 33.2495 7.5851 33.2602C7.51772 33.2848 7.43974 33.2704 7.35444 33.2539C7.31074 33.2454 7.26496 33.2363 7.21758 33.2318C7.15619 33.2259 7.08951 33.2694 7.0196 33.3146C6.9702 33.3465 6.91908 33.3792 6.86691 33.3962C6.77252 33.4269 6.68384 33.3842 6.60157 33.3437C6.56574 33.3261 6.53083 33.3091 6.49739 33.2988C6.48378 33.2946 6.47004 33.2997 6.45609 33.3117C6.31157 33.2533 6.17045 33.1985 6.03298 33.144C5.40608 32.8949 4.84673 32.6416 4.45223 32.0011C4.41834 31.9441 4.38603 31.8838 4.3554 31.8197C4.29056 31.6837 4.18362 31.5655 4.05961 31.461C3.79378 31.0167 3.52946 30.5676 3.26789 30.1129C3.34174 29.9224 3.37784 29.7301 3.37708 29.5424C3.37296 29.1864 3.23265 28.9344 3.0656 28.6309C2.94361 28.4084 2.80585 28.1559 2.70573 27.8199C2.53613 27.2528 2.339 26.6908 2.04623 26.1004C1.75236 25.5111 1.40818 24.8278 1.16961 24.3122C1.03839 24.0322 1.03897 23.6604 1.06307 23.316C1.07673 23.1204 1.09643 22.9301 1.09833 22.7669C1.10909 22.5543 1.06484 22.3997 0.875457 22.3226C0.774268 22.2829 0.613022 22.2634 0.456458 22.2445C0.345012 22.2313 0.235926 22.2174 0.151517 22.1959C0.141877 22.0775 0.133722 21.9643 0.125011 21.8466C0.241722 21.5993 0.344232 21.2501 0.0705169 21.0044C0.0643621 20.8869 0.0563189 20.7615 0.0517959 20.6468C0.0381818 20.3911 0.0288119 20.1433 0.0202385 19.8904C0.0176316 19.8076 0.0157841 19.727 0.0130549 19.6417C0.0130666 19.6409 0.013078 19.64 0.0130897 19.6392C0.00888234 19.4726 0.00526994 19.3038 0.00296956 19.1355C0.00200474 19.0637 0.00183696 18.9946 0.000893474 18.9212C0.000380278 18.7435 -0.00124496 18.5543 0.00180721 18.3774C0.00246733 18.2788 0.00457388 18.1858 0.00643253 18.0874C0.00996232 17.9303 0.0150438 17.7731 0.0219195 17.6136C0.0339457 17.3575 0.0493498 17.105 0.0796532 16.8312C0.0850766 16.788 0.111263 16.7394 0.154761 16.7004C0.198337 16.663 0.255391 16.6376 0.313985 16.6391C0.372622 16.6387 0.429532 16.6593 0.476096 16.6852C0.522512 16.7131 0.554521 16.7486 0.567316 16.7849C0.646998 17.018 0.740899 17.2443 0.836475 17.4685C0.896139 17.6087 0.957571 17.7465 1.01953 17.884C1.05806 17.9704 1.09562 18.0514 1.13495 18.1378C1.20711 18.2919 1.28331 18.4576 1.35769 18.6122C1.38777 18.6762 1.41704 18.7359 1.44711 18.7984C1.51766 18.9451 1.58886 19.092 1.66025 19.2369C1.66068 19.2378 1.66111 19.2387 1.66154 19.2396C1.69729 19.3134 1.73206 19.3823 1.76743 19.4535C1.87577 19.6727 1.98398 19.8868 2.09491 20.1081C2.15278 20.22 2.21292 20.3413 2.27222 20.4569C2.30537 20.5218 2.33969 20.5902 2.37208 20.6517C2.3898 20.6862 2.40768 20.7215 2.42578 20.7573C2.667 21.2267 2.91059 21.6929 3.15546 22.1575C3.306 22.3973 3.49782 22.6535 3.71174 22.9115C4.21531 23.5159 4.82333 24.1218 5.45338 24.7218C6.08506 25.3217 6.74581 25.9191 7.41465 26.5195C7.99639 27.0415 8.585 27.5629 9.17843 28.0915C10.3695 29.1302 11.5757 29.8845 13.0495 30.837C15.6188 32.4721 18.7062 34.4392 20.5203 35.0165C20.5262 35.0176 20.5318 35.0185 20.5371 35.0192C21.023 35.1588 21.7147 35.3344 22.3878 35.4806C22.9726 35.609 23.5691 35.7265 24.1779 35.8374C24.2928 35.858 24.4087 35.8782 24.5247 35.8978C24.7374 35.9333 24.9557 35.9684 25.1805 36.0024Z" fill="black"/>
</svg>
