<svg width="60" height="48" viewBox="0 0 60 48" fill="none" xmlns="http://www.w3.org/2000/svg">
<path d="M25.3403 37.9419C26.8776 37.8441 28.3571 38.7669 29.8996 38.7687C31.8148 38.771 33.7606 37.8892 35.6802 38.0534C37.5888 38.2177 39.5066 38.4535 41.4183 38.7443C43.3321 39.0351 45.2431 39.3808 47.1579 39.7636C49.0687 40.1465 50.9835 40.5664 52.8958 41.0071C54.1946 41.3065 55.4949 41.6155 56.7936 41.9283C57.3637 42.0655 57.9322 42.2032 58.502 42.3414C58.9271 42.4448 59.3522 42.5482 59.7773 42.6515C59.8364 42.6661 59.893 42.7252 59.9348 42.8191C59.9765 42.9131 60.0001 43.0334 60 43.1578C59.9999 43.2823 59.9762 43.4029 59.9343 43.4966C59.8924 43.59 59.8357 43.6483 59.7766 43.6623C59.3479 43.7624 58.9192 43.8625 58.4905 43.9627C58.0144 44.0737 57.539 44.185 57.063 44.2953C56.988 43.7849 56.8852 43.3977 56.6924 43.2267C56.5941 43.1395 56.4506 43.1032 56.345 43.198C56.2501 43.2833 56.1787 43.4352 56.1109 43.5801C56.0399 43.7315 55.9725 43.8753 55.8859 43.9261C55.7388 44.0124 55.599 44.2291 55.4521 44.4568C55.3987 44.5397 55.3443 44.6241 55.2883 44.7041C54.8338 44.8079 54.3794 44.9109 53.925 45.013C53.7495 44.9587 53.5881 44.9147 53.4513 44.9357C53.3285 44.9545 53.216 45.0623 53.104 45.1964C53.0337 45.2121 52.9634 45.2277 52.893 45.2433C52.439 45.3438 51.9849 45.4427 51.5307 45.5407C51.1763 45.4045 50.8049 45.2722 50.322 45.2141C50.1139 45.1891 49.9085 45.1154 49.7111 45.0447C49.4195 44.9403 49.1452 44.8422 48.9048 44.9156C48.744 44.9646 48.5749 44.8925 48.4063 44.8205C48.1801 44.724 47.9543 44.6277 47.7496 44.8242C47.6209 44.9477 47.5027 45.0979 47.3932 45.2372C47.2191 45.4589 47.0669 45.6528 46.9291 45.6662C46.6702 45.6912 46.446 45.8527 46.2484 45.9952C46.0107 46.1665 45.8114 46.3103 45.6363 46.1554C45.6098 46.1319 45.5794 46.1007 45.5452 46.0652C45.365 45.8782 45.0769 45.5791 44.6631 45.7435C44.5158 45.8021 44.3775 45.9543 44.242 46.1036C44.0448 46.321 43.8532 46.532 43.6481 46.4381C43.6174 46.4241 43.5854 46.3652 43.5563 46.3114C43.5192 46.243 43.4869 46.1833 43.4677 46.2352C43.4115 46.3875 43.3222 46.5559 43.2253 46.7391C43.1541 46.8737 43.0786 47.0164 43.009 47.1662C42.4775 47.2508 41.9459 47.3319 41.4142 47.4087C41.1706 47.4439 40.9269 47.4782 40.6831 47.5116C40.5585 47.2823 40.431 47.0757 40.2963 46.9194C40.1203 46.7152 39.8921 46.6526 39.598 46.5715C39.3816 46.5119 39.1293 46.4421 38.8358 46.2992C38.2925 46.0346 37.7344 46.094 37.3767 46.2358C37.3011 46.2658 37.225 46.2979 37.1437 46.3327C36.8352 46.4648 36.4503 46.6303 35.7192 46.8128C35.0275 46.9854 34.4394 47.0302 33.9975 47.0638C33.772 47.081 33.5845 47.0948 33.4409 47.1217C33.1951 47.1677 32.8933 47.2087 32.5904 47.2496C32.1162 47.3137 31.6391 47.3779 31.369 47.4635C31.2729 47.494 31.172 47.5317 31.063 47.5719C30.7611 47.6836 30.3964 47.8183 29.8937 47.8961C29.366 47.9778 29.0389 47.9221 28.6992 47.801C28.5611 47.7518 28.4392 47.5573 28.3137 47.3563C28.1356 47.071 27.9498 46.7733 27.6985 46.8622C27.6398 46.8829 27.5772 46.9293 27.5117 46.9779C27.3914 47.0673 27.2613 47.1642 27.1281 47.1217C27.0817 47.1069 27.0407 47.0541 27.0006 47.0023C26.9565 46.9453 26.9132 46.8896 26.8642 46.8865C26.6811 46.875 26.503 46.8881 26.3447 46.8999C26.1405 46.9152 25.9693 46.9278 25.8631 46.8817C25.6737 46.7993 25.4667 46.873 25.257 46.9481C25.0969 47.0054 24.9351 47.0637 24.7784 47.0529C24.3308 47.0218 23.7153 47.1624 23.081 47.3965C22.8411 47.485 22.6378 47.3641 22.3772 47.2088C22.2152 47.1123 22.031 47.002 21.8021 46.9213C21.6723 46.8755 21.5623 46.9832 21.4606 47.0827C21.3668 47.1744 21.2799 47.2591 21.1907 47.2113C21.112 47.1689 21.0622 46.9879 21.0149 46.8159C20.9623 46.6244 20.9128 46.4444 20.83 46.4795C20.7859 46.4982 20.7324 46.5888 20.6686 46.6964C20.6434 46.739 20.6165 46.784 20.5881 46.8286C20.5895 46.7919 20.5899 46.7591 20.5899 46.7342C20.59 46.5585 20.5055 46.466 20.4226 46.3754C20.3895 46.3392 20.3565 46.3034 20.3294 46.2626C20.2298 46.1125 20.0411 46.0881 19.8968 46.0951C19.8358 46.098 19.7805 46.0435 19.716 45.9799C19.6588 45.9235 19.5942 45.8598 19.5119 45.8228C19.4649 45.8016 19.4289 45.7507 19.399 45.7082C19.3774 45.6774 19.3591 45.6511 19.342 45.6442C19.3273 45.6383 19.3154 45.6887 19.302 45.7454C19.2924 45.7862 19.2819 45.8304 19.269 45.8593C19.2383 45.9283 19.1988 45.9491 19.1711 45.9269C19.1583 45.9167 19.1482 45.8971 19.1381 45.8776C19.1264 45.8549 19.1148 45.832 19.0987 45.824C19.0252 45.7873 18.9536 45.8447 18.8792 45.9044C18.7975 45.97 18.7123 46.0381 18.6174 45.9873C18.5875 45.9712 18.5557 45.9345 18.5249 45.8989C18.4927 45.8616 18.4614 45.8256 18.4348 45.816C18.3266 45.7771 18.225 45.9028 18.1315 46.0183C18.0693 46.0952 18.0106 46.1675 17.9562 46.184C17.8563 46.2143 17.8027 46.3651 17.7632 46.4765C17.7427 46.5342 17.726 46.5816 17.7085 46.5959C17.6925 46.5917 17.6762 46.5867 17.6602 46.5813C17.6456 46.5702 17.6305 46.5587 17.6163 46.5624C17.6152 46.5627 17.6141 46.5633 17.6131 46.5636C17.5238 46.5271 17.4361 46.4752 17.3489 46.4235C17.1532 46.3073 16.9599 46.1923 16.7555 46.2572C16.7114 46.2711 16.6665 46.3334 16.6209 46.3967C16.5649 46.4742 16.5077 46.5535 16.4494 46.5478C16.3105 46.5342 16.1703 46.4315 16.0322 46.3303C15.8245 46.1781 15.6214 46.0294 15.4348 46.1926C15.3732 46.2464 15.3131 46.3361 15.2529 46.4265C15.2193 46.4769 15.1855 46.5277 15.1515 46.5721C15.1587 46.4897 15.1625 46.4122 15.1661 46.34C15.1735 46.1912 15.1799 46.0638 15.2126 45.9556C15.2899 45.6998 15.3775 45.3478 15.3678 45.091C15.3651 45.0213 15.3672 44.9437 15.3696 44.8656C15.3754 44.6696 15.3814 44.4693 15.3096 44.3788C15.2612 44.3178 15.1369 44.1777 15.0578 44.3276C15.0406 44.3603 15.0301 44.425 15.0185 44.497C14.9975 44.6263 14.9726 44.7794 14.8976 44.815C14.885 44.821 14.8713 44.8264 14.8571 44.8315C14.8006 44.8516 14.7373 44.8738 14.7136 44.9777C14.6864 45.0974 14.6922 45.2346 14.699 45.3944C14.7078 45.6027 14.7183 45.85 14.6596 46.1481C14.648 46.207 14.6258 46.2272 14.609 46.2425C14.5972 46.2533 14.5882 46.262 14.5873 46.2797C14.5863 46.3001 14.59 46.3424 14.5948 46.3961C14.6118 46.5852 14.6412 46.9158 14.5184 46.9298C14.4852 46.9335 14.4472 46.9178 14.4131 46.9036C14.3629 46.8826 14.3212 46.8653 14.3156 46.9194C14.3135 46.9399 14.312 46.9622 14.3108 46.9852C14.2708 46.9787 14.2308 46.9722 14.1908 46.9657C14.1396 46.9013 14.0676 46.9068 13.9778 46.9139C13.956 46.9157 13.933 46.9173 13.9091 46.9182C13.8302 46.9049 13.7513 46.8916 13.6724 46.878C13.6099 46.8507 13.5433 46.8061 13.4731 46.7354C13.3323 46.5938 13.2098 46.3601 13.0902 46.1316C13.0397 46.0354 12.9898 45.9398 12.9391 45.8526C12.9588 45.8419 12.9766 45.8292 12.9904 45.8118C13.0842 45.6924 13.1219 45.4576 13.1565 45.2415C13.1796 45.0978 13.2013 44.9622 13.2373 44.8747C13.3033 44.7145 13.2966 44.5271 13.2918 44.3885C13.2893 44.3167 13.2874 44.2578 13.2962 44.2228C13.3032 44.1948 13.3196 44.1816 13.3364 44.168C13.3511 44.1561 13.3663 44.1437 13.376 44.1211C13.4939 43.8467 13.4585 43.6875 13.4069 43.4558C13.3785 43.3279 13.3453 43.178 13.33 42.9744C13.3169 42.759 13.3213 42.6959 13.3831 42.6101C13.335 42.5037 13.2868 42.3973 13.2387 42.2908C13.2198 42.2978 13.2055 42.3643 13.1854 42.4748C13.1494 42.6723 13.0324 42.7444 12.9409 42.8008C12.8986 42.8269 12.8617 42.8497 12.8409 42.88C12.7303 43.041 12.7624 43.2652 12.7908 43.4625C12.8064 43.571 12.8208 43.6715 12.8096 43.7488C12.8048 43.7819 12.8116 43.8147 12.8185 43.8481C12.8238 43.874 12.8292 43.9003 12.8295 43.9273C12.8309 44.1238 12.7655 44.2696 12.7047 44.405C12.6699 44.4825 12.6368 44.5569 12.6184 44.6353C12.6128 44.6592 12.6084 44.6835 12.6042 44.7072C12.5982 44.7417 12.5922 44.7746 12.583 44.8028C12.5618 44.8671 12.5183 44.9104 12.4706 44.9576C12.4461 44.9818 12.4206 45.0071 12.3964 45.0368C12.3651 45.0753 12.3539 45.153 12.3419 45.2342C12.3335 45.2916 12.3247 45.3506 12.3085 45.3993C12.2792 45.4873 12.22 45.5191 12.165 45.5486C12.1411 45.5614 12.1179 45.5742 12.0984 45.5906C12.0905 45.5973 12.0867 45.6107 12.0858 45.629C11.9956 45.6905 11.9094 45.7533 11.8256 45.8148C11.4052 46.1233 11.0413 46.3907 10.4979 46.1968C10.3951 46.1602 10.2848 46.1675 10.1733 46.1968C9.81665 46.1198 9.4598 46.0402 9.10328 45.9586C9.03271 45.7816 8.94638 45.6329 8.84419 45.5163C8.65226 45.2973 8.45483 45.2505 8.22186 45.1952C8.04962 45.1544 7.85793 45.1087 7.63455 44.9856C7.25926 44.7788 6.87392 44.6038 6.43911 44.5128C6.00619 44.4223 5.51055 44.3556 5.15989 44.3319C4.96874 44.319 4.76795 44.1606 4.58082 44.0132C4.3176 43.8059 4.08141 43.6201 3.93721 43.8896C3.89116 43.9757 3.84664 44.1251 3.80331 44.2703C3.77246 44.3738 3.74203 44.4748 3.71222 44.55C3.63285 44.5266 3.55339 44.5035 3.47395 44.4799C3.33283 44.3004 3.11352 44.1079 2.90152 44.3081C2.81959 44.2834 2.73761 44.2588 2.65845 44.2338C2.48573 44.1816 2.31674 44.1287 2.14622 44.0754C2.09056 44.0578 2.03434 44.0401 1.97799 44.0224C1.97746 44.0222 1.97692 44.022 1.97639 44.0218C1.86296 43.9861 1.74867 43.9501 1.63627 43.9139C1.58813 43.8985 1.53999 43.8831 1.49185 43.8676C1.36951 43.8285 1.24628 43.7891 1.12518 43.7494C1.06108 43.7283 0.996369 43.7073 0.931546 43.6861C0.826381 43.6515 0.720421 43.6168 0.615003 43.5819C0.44452 43.5254 0.274836 43.4683 0.104828 43.4107C0.0770242 43.4012 0.0503059 43.3713 0.0306701 43.326C0.0110414 43.2806 -3.0007e-05 43.2238 6.10806e-08 43.1651C3.85052e-05 43.1065 0.0112035 43.0495 0.030899 43.0043C0.0505814 42.9593 0.0772724 42.9301 0.105056 42.9208C0.275186 42.8648 0.445087 42.8094 0.61569 42.7545C0.721127 42.7205 0.827049 42.6863 0.932232 42.6528C0.997086 42.6321 1.06174 42.6117 1.12587 42.5912C1.24698 42.5526 1.37041 42.5141 1.49276 42.4761C1.5409 42.461 1.58904 42.446 1.63719 42.431C1.74988 42.3958 1.86449 42.3609 1.97822 42.3262C1.9789 42.326 1.97959 42.3258 1.98028 42.3256C2.03623 42.3085 2.09209 42.2914 2.14736 42.2744C2.31795 42.2227 2.48704 42.1715 2.65983 42.1209C2.7491 42.0935 2.84213 42.0668 2.93448 42.0398C2.9859 42.0248 3.03722 42.0097 3.0876 41.9947C3.11515 41.9868 3.14307 41.9789 3.17115 41.971C3.81542 41.7837 4.45516 41.6034 5.10084 41.4306C5.7441 41.2577 6.38851 41.0919 7.03099 40.9328C7.67503 40.7736 8.31794 40.6214 8.96138 40.4752C13.0449 39.5474 17.1447 38.7866 21.2463 38.3105C21.8314 38.2422 22.4317 38.1805 23.0179 38.1253C23.6105 38.07 24.1909 38.021 24.7851 37.9791C24.9655 37.966 25.1505 37.9537 25.3403 37.9419Z" fill="black"/>
<path d="M27.6702 18.9419C28.4388 18.8441 29.1785 19.7669 29.9498 19.7687C30.9074 19.771 31.8803 18.8892 32.8401 19.0534C33.7944 19.2177 34.7533 19.4535 35.7091 19.7443C36.6661 20.0351 37.6216 20.3808 38.579 20.7636C39.5343 21.1465 40.4918 21.5664 41.4479 22.0071C42.0973 22.3065 42.7475 22.6155 43.3968 22.9283C43.6819 23.0655 43.9661 23.2032 44.251 23.3414C44.4635 23.4448 44.6761 23.5482 44.8886 23.6515C44.9182 23.6661 44.9465 23.7252 44.9674 23.8191C44.9883 23.9131 45 24.0334 45 24.1578C45 24.2823 44.9881 24.4029 44.9672 24.4966C44.9462 24.59 44.9179 24.6483 44.8883 24.6623C44.674 24.7624 44.4596 24.8625 44.2453 24.9627C44.0072 25.0737 43.7695 25.185 43.5315 25.2953C43.494 24.7849 43.4426 24.3977 43.3462 24.2267C43.297 24.1395 43.2253 24.1032 43.1725 24.198C43.1251 24.2833 43.0894 24.4352 43.0554 24.5801C43.0199 24.7315 42.9863 24.8753 42.9429 24.9261C42.8694 25.0124 42.7995 25.2291 42.7261 25.4568C42.6994 25.5397 42.6721 25.6241 42.6441 25.7041C42.4169 25.8079 42.1897 25.9109 41.9625 26.013C41.8748 25.9587 41.7941 25.9147 41.7256 25.9357C41.6642 25.9545 41.608 26.0623 41.552 26.1964C41.5169 26.2121 41.4817 26.2277 41.4465 26.2433C41.2195 26.3438 40.9924 26.4427 40.7654 26.5407C40.5882 26.4045 40.4025 26.2722 40.161 26.2141C40.0569 26.1891 39.9543 26.1154 39.8556 26.0447C39.7098 25.9403 39.5726 25.8422 39.4524 25.9156C39.372 25.9646 39.2875 25.8925 39.2031 25.8205C39.09 25.724 38.9771 25.6277 38.8748 25.8242C38.8105 25.9477 38.7514 26.0979 38.6966 26.2372C38.6095 26.4589 38.5334 26.6528 38.4645 26.6662C38.3351 26.6912 38.223 26.8527 38.1242 26.9952C38.0054 27.1665 37.9057 27.3103 37.8182 27.1554C37.8049 27.1319 37.7897 27.1007 37.7726 27.0652C37.6825 26.8782 37.5384 26.5791 37.3316 26.7435C37.2579 26.8021 37.1887 26.9543 37.121 27.1036C37.0224 27.321 36.9266 27.532 36.824 27.4381C36.8087 27.4241 36.7927 27.3652 36.7781 27.3114C36.7596 27.243 36.7434 27.1833 36.7338 27.2352C36.7057 27.3875 36.6611 27.5559 36.6127 27.7391C36.5771 27.8737 36.5393 28.0164 36.5045 28.1662C36.2388 28.2508 35.973 28.3319 35.7071 28.4087C35.5853 28.4439 35.4634 28.4782 35.3416 28.5116C35.2792 28.2823 35.2155 28.0757 35.1482 27.9194C35.0602 27.7152 34.9461 27.6526 34.799 27.5715C34.6908 27.5119 34.5647 27.4421 34.4179 27.2992C34.1463 27.0346 33.8672 27.094 33.6884 27.2358C33.6505 27.2658 33.6125 27.2979 33.5719 27.3327C33.4176 27.4648 33.2252 27.6303 32.8596 27.8128C32.5138 27.9854 32.2197 28.0302 31.9988 28.0638C31.886 28.081 31.7923 28.0948 31.7204 28.1217C31.5976 28.1677 31.4467 28.2087 31.2952 28.2496C31.0581 28.3137 30.8196 28.3779 30.6845 28.4635C30.6365 28.494 30.586 28.5317 30.5315 28.5719C30.3806 28.6836 30.1982 28.8183 29.9468 28.8961C29.683 28.9778 29.5195 28.9221 29.3496 28.801C29.2805 28.7518 29.2196 28.5573 29.1569 28.3563C29.0678 28.071 28.9749 27.7733 28.8492 27.8622C28.8199 27.8829 28.7886 27.9293 28.7559 27.9779C28.6957 28.0673 28.6307 28.1642 28.5641 28.1217C28.5408 28.1069 28.5204 28.0541 28.5003 28.0023C28.4782 27.9453 28.4566 27.8896 28.4321 27.8865C28.3406 27.875 28.2515 27.8881 28.1723 27.8999C28.0703 27.9152 27.9847 27.9278 27.9315 27.8817C27.8369 27.7993 27.7333 27.873 27.6285 27.9481C27.5484 28.0054 27.4675 28.0637 27.3892 28.0529C27.1654 28.0218 26.8576 28.1624 26.5405 28.3965C26.4205 28.485 26.3189 28.3641 26.1886 28.2088C26.1076 28.1123 26.0155 28.002 25.901 27.9213C25.8361 27.8755 25.7812 27.9832 25.7303 28.0827C25.6834 28.1744 25.6399 28.2591 25.5954 28.2113C25.556 28.1689 25.5311 27.9879 25.5075 27.8159C25.4812 27.6244 25.4564 27.4444 25.415 27.4795C25.393 27.4982 25.3662 27.5888 25.3343 27.6964C25.3217 27.739 25.3083 27.784 25.294 27.8286C25.2948 27.7919 25.2949 27.7591 25.295 27.7342C25.295 27.5585 25.2527 27.466 25.2113 27.3754C25.1947 27.3392 25.1783 27.3034 25.1647 27.2626C25.1149 27.1125 25.0205 27.0881 24.9484 27.0951C24.9179 27.098 24.8903 27.0435 24.858 26.9799C24.8294 26.9235 24.7971 26.8598 24.7559 26.8228C24.7325 26.8016 24.7144 26.7507 24.6995 26.7082C24.6887 26.6774 24.6795 26.6511 24.671 26.6442C24.6636 26.6383 24.6577 26.6887 24.651 26.7454C24.6462 26.7862 24.6409 26.8304 24.6345 26.8593C24.6191 26.9283 24.5994 26.9491 24.5855 26.9269C24.5791 26.9167 24.5741 26.8971 24.5691 26.8776C24.5632 26.8549 24.5574 26.832 24.5494 26.824C24.5126 26.7873 24.4768 26.8447 24.4396 26.9044C24.3988 26.97 24.3561 27.0381 24.3087 26.9873C24.2938 26.9712 24.2779 26.9345 24.2625 26.8989C24.2464 26.8616 24.2307 26.8256 24.2174 26.816C24.1633 26.7771 24.1125 26.9028 24.0657 27.0183C24.0347 27.0952 24.0053 27.1675 23.9781 27.184C23.9282 27.2143 23.9014 27.3651 23.8816 27.4765C23.8714 27.5342 23.863 27.5816 23.8543 27.5959C23.8462 27.5917 23.8381 27.5867 23.8301 27.5813C23.8228 27.5702 23.8152 27.5587 23.8081 27.5624C23.8076 27.5627 23.8071 27.5633 23.8065 27.5636C23.7619 27.5271 23.718 27.4752 23.6745 27.4235C23.5766 27.3073 23.4799 27.1923 23.3777 27.2572C23.3557 27.2711 23.3333 27.3334 23.3104 27.3967C23.2825 27.4742 23.2539 27.5535 23.2247 27.5478C23.1553 27.5342 23.0852 27.4315 23.0161 27.3303C22.9122 27.1781 22.8107 27.0294 22.7174 27.1926C22.6866 27.2464 22.6566 27.3361 22.6264 27.4265C22.6096 27.4769 22.5928 27.5277 22.5757 27.5721C22.5793 27.4897 22.5813 27.4122 22.5831 27.34C22.5868 27.1912 22.5899 27.0638 22.6063 26.9556C22.6449 26.6998 22.6887 26.3478 22.6839 26.091C22.6826 26.0213 22.6836 25.9437 22.6848 25.8656C22.6877 25.6696 22.6907 25.4693 22.6548 25.3788C22.6306 25.3178 22.5685 25.1777 22.5289 25.3276C22.5203 25.3603 22.5151 25.425 22.5092 25.497C22.4988 25.6263 22.4863 25.7794 22.4488 25.815C22.4425 25.821 22.4356 25.8264 22.4286 25.8315C22.4003 25.8516 22.3686 25.8738 22.3568 25.9777C22.3432 26.0974 22.3461 26.2346 22.3495 26.3944C22.3539 26.6027 22.3592 26.85 22.3298 27.1481C22.324 27.207 22.3129 27.2272 22.3045 27.2425C22.2986 27.2533 22.2941 27.262 22.2936 27.2797C22.2931 27.3001 22.295 27.3424 22.2974 27.3961C22.3059 27.5852 22.3206 27.9158 22.2592 27.9298C22.2426 27.9335 22.2236 27.9178 22.2065 27.9036C22.1814 27.8826 22.1606 27.8653 22.1578 27.9194C22.1568 27.9399 22.156 27.9622 22.1554 27.9852C22.1354 27.9787 22.1154 27.9722 22.0954 27.9657C22.0698 27.9013 22.0338 27.9068 21.9889 27.9139C21.978 27.9157 21.9665 27.9173 21.9545 27.9182C21.9151 27.9049 21.8757 27.8916 21.8362 27.878C21.805 27.8507 21.7717 27.8061 21.7365 27.7354C21.6662 27.5938 21.6049 27.3601 21.5451 27.1316C21.5199 27.0354 21.4949 26.9398 21.4695 26.8526C21.4794 26.8419 21.4883 26.8292 21.4952 26.8118C21.5421 26.6924 21.5609 26.4576 21.5783 26.2415C21.5898 26.0978 21.6007 25.9622 21.6187 25.8747C21.6516 25.7145 21.6483 25.5271 21.6459 25.3885C21.6446 25.3167 21.6437 25.2578 21.6481 25.2228C21.6516 25.1948 21.6598 25.1816 21.6682 25.168C21.6756 25.1561 21.6832 25.1437 21.688 25.1211C21.747 24.8467 21.7292 24.6875 21.7035 24.4558C21.6893 24.3279 21.6726 24.178 21.665 23.9744C21.6585 23.759 21.6607 23.6959 21.6916 23.6101C21.6675 23.5037 21.6434 23.3973 21.6194 23.2908C21.6099 23.2978 21.6028 23.3643 21.5927 23.4748C21.5747 23.6723 21.5162 23.7444 21.4705 23.8008C21.4493 23.8269 21.4309 23.8497 21.4205 23.88C21.3651 24.041 21.3812 24.2652 21.3954 24.4625C21.4032 24.571 21.4104 24.6715 21.4048 24.7488C21.4024 24.7819 21.4058 24.8147 21.4092 24.8481C21.4119 24.874 21.4146 24.9003 21.4147 24.9273C21.4155 25.1238 21.3827 25.2696 21.3524 25.405C21.335 25.4825 21.3184 25.5569 21.3092 25.6353C21.3064 25.6592 21.3042 25.6835 21.3021 25.7072C21.2991 25.7417 21.2961 25.7746 21.2915 25.8028C21.2809 25.8671 21.2591 25.9104 21.2353 25.9576C21.2231 25.9818 21.2103 26.0071 21.1982 26.0368C21.1826 26.0753 21.1769 26.153 21.171 26.2342C21.1668 26.2916 21.1624 26.3506 21.1543 26.3993C21.1396 26.4873 21.11 26.5191 21.0825 26.5486C21.0705 26.5614 21.059 26.5742 21.0492 26.5906C21.0452 26.5973 21.0433 26.6107 21.0429 26.629C20.9978 26.6905 20.9547 26.7533 20.9128 26.8148C20.7026 27.1233 20.5206 27.3907 20.2489 27.1968C20.1976 27.1602 20.1424 27.1675 20.0867 27.1968C19.9083 27.1198 19.7299 27.0402 19.5516 26.9586C19.5164 26.7816 19.4732 26.6329 19.4221 26.5163C19.3261 26.2973 19.2274 26.2505 19.1109 26.1952C19.0248 26.1544 18.929 26.1087 18.8173 25.9856C18.6296 25.7788 18.437 25.6038 18.2196 25.5128C18.0031 25.4223 17.7553 25.3556 17.5799 25.3319C17.4844 25.319 17.384 25.1606 17.2904 25.0132C17.1588 24.8059 17.0407 24.6201 16.9686 24.8896C16.9456 24.9757 16.9233 25.1251 16.9017 25.2703C16.8862 25.3738 16.871 25.4748 16.8561 25.55C16.8164 25.5266 16.7767 25.5035 16.737 25.4799C16.6664 25.3004 16.5568 25.1079 16.4508 25.3081C16.4098 25.2834 16.3688 25.2588 16.3292 25.2338C16.2429 25.1816 16.1584 25.1287 16.0731 25.0754C16.0453 25.0578 16.0172 25.0401 15.989 25.0224C15.9887 25.0222 15.9885 25.022 15.9882 25.0218C15.9315 24.9861 15.8743 24.9501 15.8181 24.9139C15.7941 24.8985 15.77 24.8831 15.7459 24.8676C15.6848 24.8285 15.6231 24.7891 15.5626 24.7494C15.5305 24.7283 15.4982 24.7073 15.4658 24.6861C15.4132 24.6515 15.3602 24.6168 15.3075 24.5819C15.2223 24.5254 15.1374 24.4683 15.0524 24.4107C15.0385 24.4012 15.0252 24.3713 15.0153 24.326C15.0055 24.2806 15 24.2238 15 24.1651C15 24.1065 15.0056 24.0495 15.0154 24.0043C15.0253 23.9593 15.0386 23.9301 15.0525 23.9208C15.1376 23.8648 15.2225 23.8094 15.3078 23.7545C15.3606 23.7205 15.4135 23.6863 15.4661 23.6528C15.4985 23.6321 15.5309 23.6117 15.5629 23.5912C15.6235 23.5526 15.6852 23.5141 15.7464 23.4761C15.7705 23.461 15.7945 23.446 15.8186 23.431C15.8749 23.3958 15.9322 23.3609 15.9891 23.3262C15.9895 23.326 15.9898 23.3258 15.9901 23.3256C16.0181 23.3085 16.046 23.2914 16.0737 23.2744C16.159 23.2227 16.2435 23.1715 16.3299 23.1209C16.3746 23.0935 16.4211 23.0668 16.4672 23.0398C16.4929 23.0248 16.5186 23.0097 16.5438 22.9947C16.5576 22.9868 16.5715 22.9789 16.5856 22.971C16.9077 22.7837 17.2276 22.6034 17.5504 22.4306C17.8721 22.2577 18.1943 22.0919 18.5155 21.9328C18.8375 21.7736 19.159 21.6214 19.4807 21.4752C21.5224 20.5474 23.5724 19.7866 25.6232 19.3105C25.9157 19.2422 26.2158 19.1805 26.5089 19.1253C26.8052 19.07 27.0955 19.021 27.3925 18.9791C27.4828 18.966 27.5753 18.9537 27.6702 18.9419Z" fill="black"/>
<circle cx="29.7675" cy="5.70216" r="3.3234" transform="rotate(8.2828 29.7675 5.70216)" fill="black"/>
<path d="M23.8176 7.83233C23.4109 6.85949 23.871 5.81395 23.9968 4.92367C23.9995 4.90356 24.0022 4.88342 24.0048 4.86325C24.1337 3.77136 24.2175 2.36275 25.1494 1.4871C26.0633 0.62911 27.2502 0.113764 28.4327 0.0182857C29.1708 -0.0440488 29.9034 0.055005 30.5562 0.284242C30.9496 0.4217 31.322 0.606345 31.6589 0.829623C32.5576 1.4223 33.1824 2.28631 33.4663 3.17462C33.662 3.77844 33.7072 4.39506 33.624 4.95555C33.5878 5.20166 33.5276 5.43679 33.447 5.6572C33.3869 5.82131 33.3155 5.97821 33.2352 6.12447C33.2239 6.14489 33.1859 6.16089 33.1281 6.16787C33.0702 6.17489 32.9976 6.17243 32.9237 6.16164C32.8498 6.15083 32.7794 6.13263 32.7255 6.11187C32.6718 6.09109 32.6394 6.06948 32.6332 6.0507C32.5893 5.91478 32.5359 5.78515 32.4743 5.66475C32.406 5.53065 32.3276 5.4071 32.2421 5.29494C32.5411 5.22606 32.7648 5.15398 32.8527 5.07095C32.8976 5.0289 32.908 4.97569 32.8444 4.95511C32.7872 4.9366 32.6931 4.93716 32.6038 4.93961C32.5103 4.94213 32.422 4.94684 32.3859 4.9318C32.3243 4.90607 32.1883 4.90803 32.0472 4.91781C31.9958 4.92131 31.9436 4.92573 31.8939 4.92975C31.7985 4.85003 31.6994 4.78113 31.5986 4.72282C31.6094 4.67377 31.6139 4.62881 31.5874 4.6091C31.5635 4.59138 31.4952 4.60431 31.4152 4.62897C31.3994 4.62191 31.3836 4.61512 31.3677 4.60858C31.2657 4.56622 31.1639 4.53403 31.0637 4.51175C31.0797 4.4085 31.0826 4.29841 31.0295 4.20751C31.0067 4.16855 31.0011 4.10767 30.9922 4.0482C30.9796 3.96077 30.9587 3.87595 30.8896 3.88499C30.8438 3.89126 30.8344 3.83564 30.8211 3.77907C30.8043 3.70377 30.7785 3.62624 30.6862 3.71353C30.6284 3.76854 30.5689 3.84097 30.5163 3.90963C30.4326 4.01886 30.3669 4.11842 30.3415 4.1178C30.2934 4.11646 30.2264 4.19724 30.1741 4.27136C30.1101 4.36021 30.0665 4.43864 30.0611 4.34241C30.0602 4.32782 30.0596 4.30856 30.0586 4.28664C30.0557 4.20568 30.046 4.08976 30.0068 4.05818C29.9905 4.04483 29.9695 4.04683 29.945 4.0737C29.9157 4.10581 29.884 4.19478 29.858 4.28285C29.8192 4.41105 29.7936 4.53689 29.7684 4.48041C29.7646 4.47196 29.7605 4.43663 29.7563 4.40438C29.7512 4.36337 29.7459 4.32762 29.7437 4.35881C29.7371 4.4503 29.7279 4.55155 29.7219 4.66181C29.7174 4.74282 29.7147 4.82871 29.7147 4.91876C29.6752 4.97216 29.6448 5.02636 29.6217 5.0791C29.6112 5.10328 29.6021 5.1272 29.5945 5.15069C29.5457 5.02181 29.4956 4.90785 29.4512 4.8242C29.393 4.71498 29.3544 4.68947 29.3027 4.65937C29.2642 4.63746 29.2186 4.61283 29.1422 4.55688C28.9984 4.45409 28.9373 4.53881 28.9508 4.63641C28.9532 4.65723 28.9567 4.6789 28.9612 4.7021C28.979 4.78987 29.0044 4.89808 29.0323 5.02901C29.0601 5.15188 29.055 5.20729 29.0508 5.25127C29.049 5.27341 29.0482 5.29141 29.0565 5.3097C29.0708 5.34092 29.0821 5.3732 29.0955 5.40382C29.1162 5.4518 29.1424 5.49581 29.1869 5.52664C29.2027 5.53762 29.2229 5.54965 29.2447 5.56181C29.3007 5.59328 29.3697 5.62457 29.4141 5.65072C29.4175 5.65277 29.4208 5.65478 29.4239 5.65675C29.4698 5.68446 29.4364 5.68833 29.3635 5.7025C29.3339 5.70781 29.2172 5.7142 29.0969 5.72679C28.9262 5.74341 28.7489 5.77621 28.8045 5.79725C28.8174 5.80187 28.8457 5.80507 28.8754 5.80771C28.93 5.81279 28.9889 5.81468 28.9654 5.82927C28.9572 5.83443 28.9265 5.84295 28.8965 5.85178C28.8635 5.86145 28.8314 5.87154 28.8304 5.87662C28.8268 5.89552 28.8384 5.91124 28.8489 5.92445C28.8625 5.94159 28.8742 5.95494 28.8506 5.97286C28.8086 6.00516 28.8579 6.01328 28.907 6.01607C28.9446 6.01864 28.9822 6.01862 28.9817 6.03391C28.9799 6.07823 29.0845 6.09637 29.2263 6.05554C29.2796 6.03993 29.2261 6.09011 29.1652 6.16383C29.1271 6.20944 29.0859 6.264 29.0642 6.31291C29.052 6.34079 29.1079 6.30629 29.1576 6.27207C29.2037 6.24079 29.2447 6.21008 29.2291 6.23525C29.2154 6.25748 29.1417 6.33744 29.0731 6.41467C28.9966 6.50048 28.9265 6.58298 28.9487 6.57494C28.9604 6.5706 29.0024 6.53549 29.0512 6.49257C29.0705 6.4756 29.0908 6.45751 29.1108 6.43954C29.096 6.45586 29.0828 6.4705 29.0729 6.48161C29.0024 6.55998 28.973 6.6082 28.9457 6.65654C28.9348 6.67582 28.9243 6.69502 28.9113 6.71611C28.8636 6.79377 28.8769 6.82368 28.8965 6.83344C28.9047 6.83761 28.8914 6.86854 28.8768 6.90518C28.8637 6.93768 28.8496 6.97475 28.8479 7.00079C28.8469 7.01561 28.8343 7.04412 28.8241 7.06804C28.8166 7.08534 28.8104 7.10019 28.8105 7.10532C28.8107 7.10974 28.8295 7.08597 28.8505 7.05909C28.8656 7.03973 28.8819 7.01873 28.8933 7.00552C28.9206 6.97398 28.9325 6.96695 28.9289 6.98048C28.9272 6.98674 28.9221 6.99746 28.9171 7.00815C28.9112 7.0206 28.9053 7.03315 28.905 7.03863C28.9033 7.06377 28.9321 7.0412 28.961 7.01692C28.9929 6.99035 29.0245 6.96163 29.0219 6.99534C29.0211 7.00596 29.0144 7.02755 29.0082 7.0486C29.0017 7.07062 28.9958 7.092 28.9969 7.09918C29.0015 7.12842 29.0523 7.07001 29.0964 7.01467C29.1259 6.97794 29.1527 6.94283 29.164 6.93728C29.1849 6.92726 29.2301 6.84842 29.2625 6.78982C29.2793 6.75947 29.2929 6.73443 29.2984 6.72745C29.299 6.73052 29.2995 6.73403 29.2999 6.73777C29.2987 6.74454 29.2975 6.75154 29.3 6.75022C29.3001 6.75012 29.3004 6.74981 29.3006 6.74971C29.3013 6.77403 29.299 6.80686 29.2974 6.83976C29.2935 6.91352 29.2966 6.98844 29.3362 6.9608C29.3446 6.95483 29.3623 6.92133 29.3796 6.88703C29.4009 6.84504 29.4216 6.80167 29.4273 6.80698C29.4408 6.81959 29.4403 6.88349 29.4435 6.94701C29.4473 7.04233 29.4615 7.13686 29.5074 7.04593C29.5222 7.01589 29.5403 6.96446 29.5573 6.91235C29.5668 6.88331 29.5761 6.85395 29.5845 6.82831C29.5757 6.87702 29.5677 6.9228 29.5603 6.96548C29.5449 7.05345 29.5317 7.12875 29.5157 7.19192C29.4785 7.34128 29.4233 7.5459 29.397 7.6977C29.39 7.73891 29.3811 7.78462 29.3721 7.83063C29.3495 7.94607 29.3255 8.06385 29.3342 8.12062C29.3396 8.15882 29.3595 8.24741 29.394 8.1616C29.4015 8.14291 29.4099 8.10488 29.4191 8.0626C29.4235 8.04236 29.4281 8.02111 29.4329 8.00049C29.446 7.94371 29.4602 7.8916 29.4749 7.87776C29.4783 7.87459 29.4819 7.87179 29.4855 7.86922C29.5001 7.85896 29.5162 7.84747 29.5285 7.78611C29.5427 7.71544 29.5505 7.63351 29.5601 7.53805C29.5723 7.41369 29.5886 7.26621 29.6171 7.08942C29.6227 7.05446 29.6272 7.04276 29.6305 7.03387C29.6328 7.0276 29.6346 7.02257 29.6358 7.012C29.6372 6.99986 29.6393 6.97451 29.6419 6.94244C29.6511 6.82927 29.6697 6.63186 29.6824 6.62465C29.6859 6.62273 29.6888 6.63247 29.6916 6.64126C29.6956 6.65421 29.6992 6.66488 29.7021 6.63256C29.7032 6.62029 29.7043 6.607 29.7055 6.59322C29.709 6.59739 29.7126 6.60154 29.7162 6.60566C29.7188 6.64458 29.7263 6.64168 29.7353 6.63773C29.7375 6.63677 29.7398 6.63589 29.7422 6.63541C29.7497 6.64365 29.7574 6.65177 29.7652 6.65998C29.7714 6.67642 29.778 6.70313 29.7863 6.74544C29.8027 6.83021 29.8225 6.96982 29.8474 7.10575C29.8579 7.16303 29.8693 7.21977 29.8813 7.27138C29.8785 7.27803 29.8761 7.2858 29.8745 7.29639C29.8635 7.36884 29.8639 7.50985 29.8631 7.63972C29.8625 7.7261 29.8614 7.80757 29.8554 7.86033C29.8441 7.95696 29.8486 8.06927 29.8528 8.15232C29.8548 8.1954 29.8566 8.2307 29.8549 8.25174C29.8536 8.2686 29.8494 8.27664 29.8451 8.28496C29.8413 8.2922 29.8374 8.29977 29.8351 8.31338C29.8063 8.47863 29.8155 8.57396 29.8351 8.71267C29.8456 8.78916 29.8589 8.87883 29.8678 9.00073C29.8761 9.12981 29.8761 9.16771 29.8546 9.21976C29.8738 9.28317 29.894 9.34643 29.9152 9.4095C29.9224 9.40507 29.9263 9.36495 29.931 9.29835C29.9394 9.17945 29.979 9.13409 30.0093 9.09799C30.0233 9.0813 30.0352 9.06662 30.0411 9.04793C30.0718 8.94843 30.0473 8.81544 30.0286 8.69828C30.0181 8.63379 30.0089 8.57405 30.0083 8.52757C30.008 8.50769 30.0044 8.48825 30.0007 8.46841C29.9979 8.45308 29.995 8.43748 29.9937 8.42131C29.9838 8.30386 29.9943 8.21521 30.0019 8.13287C30.0063 8.08571 30.0099 8.04048 30.0093 7.99325C30.0092 7.97886 30.0087 7.96422 30.0082 7.95C30.0074 7.92924 30.0067 7.90946 30.007 7.89241C30.0077 7.85357 30.0146 7.82666 30.0216 7.79728C30.0252 7.78222 30.0289 7.76649 30.0318 7.74813C30.0355 7.72433 30.0317 7.6778 30.0276 7.62922C30.0247 7.59488 30.0217 7.55952 30.0208 7.53017C30.0192 7.47709 30.0273 7.45669 30.0345 7.43768C30.0376 7.4294 30.0406 7.42119 30.0425 7.41089C30.0433 7.4067 30.0427 7.39868 30.041 7.3878C30.051 7.34881 30.059 7.30911 30.0657 7.27026C30.1013 7.07451 30.0968 6.91047 30.2049 6.99709C30.2258 7.01319 30.2398 7.00356 30.2484 6.98146C30.3124 7.00669 30.3809 7.02874 30.4536 7.0465C30.512 7.13591 30.567 7.20781 30.6173 7.26005C30.7122 7.35792 30.7625 7.36127 30.8206 7.36366C30.864 7.36513 30.9119 7.36614 30.9949 7.39729C31.1343 7.44949 31.2746 7.47183 31.3913 7.43755C31.5075 7.40403 31.6245 7.33596 31.693 7.27389C31.7303 7.24067 31.8373 7.2574 31.9399 7.2664C32.0835 7.28015 32.2183 7.27719 32.1033 7.15607C32.0665 7.11746 31.9966 7.05987 31.9279 7.00509C31.8789 6.96606 31.8308 6.92841 31.7957 6.89915C31.8177 6.8895 31.8395 6.87932 31.8616 6.86883C31.9724 6.8914 32.1042 6.88955 32.0204 6.78632C32.0431 6.77348 32.0655 6.76019 32.0878 6.74714C32.1352 6.71807 32.1822 6.68809 32.2289 6.65574C32.2443 6.64521 32.2597 6.63431 32.2752 6.62314C32.2753 6.62304 32.2755 6.62294 32.2757 6.62285C32.3067 6.60041 32.3376 6.57707 32.3682 6.55313C32.3813 6.54288 32.3943 6.53244 32.4073 6.52182C32.4402 6.49495 32.4728 6.46693 32.5051 6.43826C32.5223 6.42315 32.5393 6.40728 32.5563 6.39154C32.584 6.36587 32.6115 6.33909 32.6387 6.3116C32.6828 6.26683 32.726 6.22147 32.7686 6.17297C32.7756 6.16508 32.7946 6.15932 32.8224 6.15699C32.8503 6.15468 32.8846 6.15594 32.9194 6.16101C32.9542 6.16608 32.9875 6.17475 33.0133 6.18548C33.0391 6.19618 33.0549 6.20806 33.0589 6.21853C33.0829 6.28273 33.1049 6.34711 33.1244 6.41438C33.1365 6.45574 33.148 6.49773 33.1584 6.53974C33.1648 6.56553 33.1706 6.5919 33.1764 6.61796C33.1872 6.6673 33.1967 6.71777 33.2049 6.76856C33.2082 6.78862 33.2112 6.80875 33.2141 6.82895C33.2209 6.87627 33.2265 6.92438 33.2309 6.97287C33.2309 6.97316 33.2309 6.97346 33.231 6.97375C33.2331 6.99764 33.2351 7.02159 33.2368 7.04537C33.2418 7.11854 33.2445 7.19197 33.2439 7.26747C33.2442 7.30676 33.243 7.34724 33.2412 7.38804C33.2402 7.41074 33.2391 7.43347 33.2378 7.45585C33.237 7.46803 33.236 7.48033 33.235 7.49271C33.2139 7.77844 33.1556 8.06863 33.0567 8.35611C32.9585 8.64278 32.8209 8.92501 32.6471 9.19206C32.4728 9.45961 32.262 9.71211 32.0178 9.94115C31.261 10.6598 30.1533 11.1419 28.9694 11.1841C27.7508 11.2403 26.4239 10.8111 25.3973 9.95511C25.1077 9.71652 24.8349 9.43821 24.597 9.13987C24.3567 8.83815 24.149 8.51647 23.9722 8.16587C23.9184 8.05961 23.8667 7.94826 23.8176 7.83233Z" fill="black"/>
</svg>
