<svg width="44" height="80" viewBox="0 0 44 80" fill="none" xmlns="http://www.w3.org/2000/svg">
<path d="M8.87379 22.1896C7.55751 19.9061 7.85118 17.2271 7.83485 14.8463C7.83434 14.7933 7.83384 14.7402 7.83335 14.6871C7.77981 11.7777 7.91268 8.3433 9.84791 5.78365C11.7605 3.24434 14.4869 1.39131 17.4327 0.550591C19.2705 0.0197127 21.1851 -0.120744 23 0.101054C24.0932 0.233244 25.1632 0.494213 26.1737 0.873531C28.8645 1.87727 31.0906 3.7293 32.5118 5.93219C33.483 7.42733 34.0969 9.08391 34.3386 10.7298C34.4455 11.4522 34.4819 12.1714 34.4525 12.876C34.4303 13.4007 34.372 13.9204 34.2801 14.4233C34.2672 14.4935 34.2089 14.5614 34.1153 14.6108C34.0216 14.6603 33.9012 14.6872 33.7768 14.6871C33.6524 14.687 33.5318 14.6602 33.4378 14.6149C33.3441 14.5694 33.2851 14.509 33.2696 14.4457C33.159 13.9877 33.0177 13.5409 32.849 13.1156C32.6617 12.6418 32.4399 12.1913 32.1897 11.7676C32.6532 11.5413 32.9871 11.3124 33.0749 11.0508C33.1198 10.9178 33.095 10.7507 32.9624 10.6761C32.8434 10.609 32.6725 10.595 32.5104 10.5848C32.3407 10.5741 32.1806 10.5678 32.0966 10.5066C31.9538 10.4027 31.6948 10.3666 31.4258 10.342C31.3278 10.333 31.2283 10.3253 31.1322 10.3157C30.8324 9.97819 30.5128 9.66851 30.178 9.38761C30.1242 9.22342 30.0637 9.07566 29.9656 8.98899C29.8775 8.91117 29.7262 8.89994 29.5578 8.91178C29.5034 8.87376 29.4488 8.83649 29.3938 8.7999C29.0395 8.56356 28.6742 8.35642 28.3024 8.17948C28.1469 7.87762 27.9546 7.5676 27.6113 7.28371C27.4634 7.16181 27.3379 7.004 27.2093 6.85445C27.021 6.63419 26.8244 6.43184 26.5863 6.40862C26.4278 6.39328 26.3096 6.26765 26.1834 6.1438C26.0167 5.97846 25.8323 5.81614 25.589 5.94923C25.4365 6.03298 25.2903 6.14892 25.1594 6.25929C24.9513 6.435 24.7818 6.59596 24.6624 6.58522C24.4382 6.56516 24.2193 6.69448 24.0395 6.81471C23.8201 6.95908 23.6539 7.08897 23.5217 6.92495C23.5016 6.90009 23.4785 6.86739 23.4522 6.83036C23.3554 6.69353 23.2098 6.5 23 6.45725C22.9115 6.43916 22.8131 6.44839 22.7088 6.50104C22.5844 6.56396 22.474 6.72291 22.375 6.88048C22.2298 7.11006 22.1082 7.33563 21.9373 7.26485C21.9116 7.25428 21.8783 7.19965 21.8473 7.14993C21.808 7.0867 21.7723 7.03192 21.7653 7.08564C21.7445 7.24321 21.7032 7.42087 21.6654 7.61436C21.6375 7.7565 21.6117 7.90714 21.5942 8.06393C21.2445 8.22406 20.9148 8.40856 20.6066 8.61268C20.4656 8.70613 20.3284 8.80406 20.1963 8.90554C20.0207 8.73593 19.8457 8.59315 19.6847 8.50225C19.4738 8.38392 19.2902 8.41489 19.0555 8.46798C18.8825 8.50751 18.6816 8.55877 18.4082 8.58584C17.8976 8.63716 17.5825 9.00934 17.4861 9.31413C17.4649 9.37887 17.4459 9.44524 17.4272 9.51652C17.3591 9.78735 17.2756 10.1214 17.1148 10.6746C16.9668 11.1973 16.8181 11.5909 16.719 11.895C16.6688 12.0501 16.6325 12.1793 16.6216 12.2845C16.6029 12.4639 16.5742 12.6784 16.5575 12.8925C16.5298 13.2279 16.5351 13.5632 16.5947 13.7564C16.6156 13.825 16.6444 13.8972 16.6764 13.9742C16.7591 14.1718 16.8648 14.3973 16.9438 14.6871C16.9499 14.7097 16.9559 14.7325 16.9618 14.7558C17.0486 15.0919 17.0144 15.2931 16.9228 15.5267C16.8859 15.6205 16.7059 15.7282 16.5231 15.8486C16.2633 16.017 15.9996 16.2183 16.1302 16.3791C16.1607 16.4162 16.2169 16.4492 16.2762 16.4828C16.3851 16.5447 16.5032 16.6052 16.4904 16.7075C16.486 16.7433 16.4445 16.7872 16.4043 16.8308C16.3599 16.8787 16.3171 16.9265 16.3258 16.9617C16.3582 17.0927 16.4169 17.2115 16.4712 17.3146C16.5413 17.4477 16.6042 17.5566 16.5951 17.6468C16.579 17.8081 16.7153 17.9161 16.854 18.0141C16.9604 18.0899 17.0688 18.161 17.1182 18.2627C17.2586 18.5551 17.6377 18.8497 18.103 19.0194C18.2784 19.0834 18.2822 19.2636 18.3059 19.504C18.3205 19.653 18.3425 19.825 18.4174 19.9965C18.4602 20.094 18.5927 20.0637 18.7118 20.0318C18.822 20.0027 18.9214 19.9728 18.9425 20.0489C18.9611 20.1161 18.8817 20.2825 18.8088 20.4423C18.7275 20.6199 18.6547 20.7894 18.7281 20.7981C18.7671 20.8025 18.8532 20.752 18.9535 20.6899C18.9932 20.6654 19.0351 20.6392 19.0774 20.6138C19.0562 20.6438 19.0378 20.671 19.024 20.6917C18.9265 20.8379 18.9298 20.9512 18.9365 21.063C18.9391 21.1076 18.9422 21.1518 18.9391 21.198C18.9273 21.368 19.0488 21.4697 19.1554 21.5215C19.2004 21.5435 19.2136 21.613 19.2307 21.6945C19.2457 21.7668 19.264 21.8486 19.3093 21.9134C19.3351 21.9503 19.3397 22.0096 19.3438 22.0591C19.3467 22.095 19.3494 22.1256 19.3597 22.1383C19.3686 22.1493 19.4 22.1086 19.4351 22.0625C19.4603 22.0294 19.4876 21.9934 19.5098 21.9721C19.563 21.9211 19.6015 21.9163 19.6131 21.9462C19.6185 21.96 19.6179 21.9814 19.6173 22.0026C19.6167 22.0274 19.6161 22.0523 19.6251 22.0652C19.6666 22.1246 19.7462 22.0971 19.827 22.067C19.9164 22.0341 20.0063 21.9978 20.0605 22.0741C20.0776 22.0981 20.0888 22.142 20.1001 22.1845C20.1118 22.2291 20.1239 22.2721 20.1417 22.2891C20.2145 22.3581 20.3387 22.2689 20.4488 22.1842C20.5223 22.1281 20.5899 22.0742 20.637 22.0718C20.7237 22.0677 20.8083 21.9354 20.8694 21.8375C20.9011 21.7867 20.9267 21.7448 20.9436 21.7348C20.9542 21.7423 20.9648 21.7505 20.9751 21.7591C20.9828 21.7729 20.9909 21.7871 21.0024 21.7865C21.0033 21.7864 21.0042 21.786 21.0051 21.786C21.0613 21.8397 21.1142 21.9074 21.1676 21.974C21.287 22.1237 21.419 22.2703 21.592 22.2364C21.6294 22.2291 21.6758 22.1741 21.7218 22.1177C21.7785 22.0487 21.8346 21.9775 21.8783 21.9899C21.9817 22.0193 22.0758 22.1351 22.1751 22.2476C22.3222 22.4165 22.4844 22.5775 22.6448 22.4212C22.6972 22.3697 22.7489 22.2818 22.7989 22.1926C22.8268 22.1429 22.8544 22.0927 22.8816 22.0487C22.8747 22.1311 22.8703 22.2084 22.8662 22.2806C22.8577 22.4293 22.8504 22.5566 22.8205 22.6642C22.7507 22.9186 22.659 23.2674 22.6575 23.5243C22.6573 23.594 22.6524 23.6715 22.6472 23.7495C22.6344 23.9451 22.6197 24.1451 22.6887 24.238C22.7343 24.3007 22.8596 24.4436 22.9413 24.294C22.959 24.2614 22.9698 24.1967 22.9816 24.1248C22.9872 24.0903 22.9931 24.0542 23 24.019C23.0191 23.9222 23.0461 23.8329 23.0986 23.8062C23.1107 23.8001 23.1238 23.7945 23.1373 23.7893C23.1913 23.7684 23.2512 23.7446 23.2704 23.6401C23.2924 23.5196 23.2822 23.3827 23.2712 23.2231C23.2564 23.0152 23.242 22.7683 23.2801 22.4688C23.2875 22.4095 23.3047 22.3887 23.3176 22.3728C23.3267 22.3617 23.3336 22.3527 23.3336 22.335C23.3335 22.3146 23.3287 22.2724 23.3226 22.219C23.3009 22.0305 23.2675 21.7014 23.3565 21.6832C23.3808 21.6782 23.4098 21.6924 23.436 21.705C23.4744 21.7237 23.5067 21.7387 23.507 21.6845C23.5071 21.6639 23.5066 21.6416 23.5058 21.6186C23.5355 21.623 23.5652 21.6272 23.5948 21.6312C23.6377 21.6923 23.69 21.6821 23.7553 21.668C23.7711 21.6646 23.7878 21.6611 23.8052 21.6582C23.8645 21.6649 23.9239 21.6708 23.9834 21.6763C24.0329 21.697 24.0876 21.7339 24.1514 21.7953C24.2785 21.9184 24.4134 22.1312 24.5541 22.336C24.6133 22.4223 24.6739 22.5072 24.7343 22.5833C24.7203 22.5973 24.7082 22.6128 24.7004 22.6323C24.647 22.7656 24.6607 23.002 24.671 23.2202C24.6779 23.3653 24.6835 23.5023 24.6659 23.5945C24.6335 23.7634 24.6716 23.9468 24.7011 24.0823C24.7163 24.1526 24.7287 24.2102 24.7261 24.2462C24.7239 24.2751 24.7098 24.291 24.6952 24.3074C24.6824 24.3217 24.6692 24.3366 24.6631 24.3605C24.5887 24.6511 24.6468 24.8028 24.7415 25.022C24.7934 25.143 24.8555 25.2844 24.908 25.4818C24.9601 25.6914 24.9668 25.7544 24.9089 25.8514C24.9831 25.9468 25.0587 26.0414 25.1358 26.1354C25.1571 26.1244 25.1621 26.0557 25.165 25.9426C25.1705 25.7407 25.2905 25.6434 25.383 25.5653C25.4258 25.5293 25.4626 25.4975 25.4793 25.4626C25.5677 25.2769 25.4775 25.0675 25.4027 24.8825C25.3612 24.7807 25.3237 24.6862 25.3178 24.6083C25.3153 24.5749 25.3007 24.5446 25.2861 24.5137C25.2748 24.4897 25.2633 24.4654 25.257 24.4391C25.2117 24.2479 25.2443 24.0908 25.2707 23.9449C25.2859 23.8614 25.2994 23.7813 25.2973 23.701C25.2967 23.6765 25.2948 23.6518 25.2928 23.6279C25.2899 23.593 25.2872 23.5597 25.2888 23.5302C25.2924 23.4629 25.3214 23.4106 25.3524 23.3533C25.3682 23.324 25.3846 23.2933 25.3982 23.2586C25.4159 23.2136 25.4047 23.136 25.3929 23.055C25.3845 22.9977 25.3759 22.9388 25.3762 22.888C25.3769 22.7962 25.4178 22.7511 25.4551 22.7088C25.4714 22.6904 25.4868 22.6723 25.4982 22.6515C25.5028 22.643 25.502 22.6293 25.4972 22.6116C25.5536 22.5293 25.604 22.4465 25.6511 22.3651C25.8896 21.9542 26.0368 21.6073 26.5132 21.584C26.604 21.5788 26.6801 21.5301 26.745 21.4606C27.035 21.3879 27.3261 21.2989 27.6165 21.1924C27.7672 21.3025 27.9151 21.3789 28.0574 21.4178C28.325 21.4903 28.4972 21.4136 28.6947 21.3167C28.8412 21.2445 29.0021 21.1613 29.238 21.1037C29.6343 21.0066 30.021 20.8477 30.3608 20.5691C30.7 20.293 31.0361 19.9179 31.2369 19.6267C31.3466 19.4694 31.5834 19.3708 31.804 19.2662C32.114 19.1209 32.3919 18.9609 32.206 18.7131C32.1466 18.6341 32.0276 18.5325 31.9108 18.4358C31.8275 18.3669 31.7458 18.3003 31.6873 18.2448C31.7384 18.1816 31.7887 18.1173 31.8388 18.0522C32.0561 17.9871 32.315 17.8349 32.1882 17.5686C32.2365 17.4973 32.2837 17.4252 32.3298 17.3548C32.4282 17.2004 32.5223 17.0461 32.6133 16.8864C32.6433 16.8343 32.6729 16.7812 32.7023 16.7274C32.7026 16.7269 32.7029 16.7264 32.7032 16.7259C32.7623 16.6179 32.8198 16.5081 32.8755 16.3978C32.8992 16.3506 32.9227 16.303 32.9458 16.2551C33.0044 16.1338 33.061 16.0102 33.1155 15.8862C33.1444 15.8208 33.1727 15.7532 33.2005 15.6866C33.2457 15.578 33.2895 15.4668 33.3316 15.3546C33.3998 15.1721 33.4637 14.9913 33.5234 14.8033C33.5332 14.7726 33.5633 14.7432 33.6086 14.7214C33.6541 14.6996 33.7109 14.6871 33.7695 14.6871C33.8282 14.6871 33.8852 14.6999 33.9303 14.7227C33.9753 14.7455 34.0043 14.7766 34.0132 14.8088C34.067 15.0068 34.1152 15.2035 34.1573 15.4079C34.1833 15.5336 34.2075 15.6604 34.229 15.7868C34.2422 15.8644 34.2542 15.9438 34.2657 16.0218C34.2872 16.1695 34.3056 16.3201 34.3205 16.471C34.3264 16.5306 34.3318 16.5903 34.3368 16.6501C34.3484 16.7902 34.3569 16.9322 34.3625 17.0749C34.3626 17.0757 34.3626 17.0766 34.3626 17.0775C34.3653 17.1478 34.3675 17.2181 34.369 17.2877C34.3731 17.5023 34.3713 17.7164 34.3612 17.9362C34.3571 18.05 34.3496 18.1677 34.3404 18.286C34.3354 18.3517 34.3298 18.4174 34.324 18.482C34.3205 18.5172 34.3168 18.5528 34.3128 18.5887C34.2265 19.4133 34.0455 20.2396 33.7631 21.0552C33.4823 21.868 33.1031 22.6645 32.6337 23.4188C32.163 24.1748 31.6014 24.8893 30.9571 25.5434C28.9562 27.593 26.0961 29.0306 23 29.3809C19.8126 29.7701 16.333 28.9787 13.4905 27.0847C12.6902 26.5571 11.9204 25.9294 11.2325 25.2448C10.5375 24.5526 9.91866 23.8044 9.36604 22.9785C9.19821 22.7281 9.03351 22.4648 8.87379 22.1896Z" fill="black"/>
<circle cx="8.76749" cy="56.4546" r="3.3234" transform="rotate(8.2828 8.76749 56.4546)" fill="black"/>
<path d="M2.81761 58.5848C2.41091 57.6119 2.87103 56.5664 2.99678 55.6761C2.99952 55.656 3.0022 55.6359 3.00484 55.6157C3.13366 54.5238 3.21753 53.1152 4.1494 52.2395C5.06331 51.3816 6.25025 50.8662 7.43274 50.7707C8.1708 50.7084 8.90343 50.8074 9.55622 51.0367C9.94961 51.1741 10.322 51.3588 10.6589 51.5821C11.5576 52.1747 12.1824 53.0387 12.4663 53.9271C12.662 54.5309 12.7072 55.1475 12.624 55.708C12.5878 55.9541 12.5276 56.1892 12.447 56.4096C12.3869 56.5738 12.3155 56.7307 12.2352 56.8769C12.2239 56.8973 12.1859 56.9133 12.1281 56.9203C12.0702 56.9273 11.9976 56.9249 11.9237 56.9141C11.8498 56.9033 11.7794 56.8851 11.7255 56.8643C11.6718 56.8435 11.6394 56.8219 11.6332 56.8031C11.5893 56.6672 11.5359 56.5376 11.4743 56.4172C11.406 56.2831 11.3276 56.1595 11.2421 56.0474C11.5411 55.9785 11.7648 55.9064 11.8527 55.8234C11.8976 55.7813 11.908 55.7281 11.8444 55.7075C11.7872 55.689 11.6931 55.6896 11.6038 55.692C11.5103 55.6946 11.422 55.6993 11.3859 55.6842C11.3243 55.6585 11.1883 55.6605 11.0472 55.6703C10.9958 55.6737 10.9436 55.6782 10.8939 55.6822C10.7985 55.6025 10.6994 55.5336 10.5986 55.4753C10.6094 55.4262 10.6139 55.3813 10.5874 55.3615C10.5635 55.3438 10.4952 55.3568 10.4152 55.3814C10.3994 55.3744 10.3836 55.3676 10.3677 55.361C10.2657 55.3187 10.1639 55.2865 10.0637 55.2642C10.0797 55.1609 10.0826 55.0509 10.0295 54.96C10.0067 54.921 10.0011 54.8601 9.99216 54.8006C9.97961 54.7132 9.95875 54.6284 9.88961 54.6374C9.8438 54.6437 9.83445 54.5881 9.82108 54.5315C9.80431 54.4562 9.77846 54.3787 9.68615 54.466C9.62841 54.521 9.56885 54.5934 9.5163 54.6621C9.43255 54.7713 9.36688 54.8709 9.34153 54.8702C9.2934 54.8689 9.22636 54.9497 9.17415 55.0238C9.11011 55.1126 9.06654 55.1911 9.06106 55.0949C9.06016 55.0803 9.05956 55.061 9.05864 55.0391C9.05569 54.9581 9.04598 54.8422 9.00682 54.8106C8.99047 54.7973 8.96954 54.7993 8.945 54.8261C8.91565 54.8583 8.88402 54.9472 8.85796 55.0353C8.81919 55.1635 8.79361 55.2893 8.76843 55.2328C8.76458 55.2244 8.76047 55.1891 8.75635 55.1568C8.75115 55.1158 8.74589 55.0801 8.74365 55.1113C8.73706 55.2027 8.72785 55.304 8.72188 55.4143C8.71743 55.4953 8.71472 55.5811 8.71475 55.6712C8.67519 55.7246 8.64479 55.7788 8.62173 55.8315C8.61119 55.8557 8.60212 55.8796 8.59447 55.9031C8.54571 55.7743 8.49558 55.6603 8.45123 55.5766C8.393 55.4674 8.35439 55.4419 8.30266 55.4118C8.26418 55.3899 8.21856 55.3653 8.14217 55.3093C7.99844 55.2065 7.93729 55.2913 7.95078 55.3889C7.95321 55.4097 7.95673 55.4313 7.96123 55.4545C7.97896 55.5423 8.0044 55.6505 8.03227 55.7814C8.06012 55.9043 8.05498 55.9597 8.05079 56.0037C8.04899 56.0258 8.04822 56.0439 8.05654 56.0621C8.07081 56.0934 8.08211 56.1256 8.09549 56.1563C8.11625 56.2042 8.1424 56.2483 8.1869 56.2791C8.20272 56.2901 8.22285 56.3021 8.24466 56.3143C8.30073 56.3457 8.36974 56.377 8.41408 56.4032C8.41751 56.4052 8.4208 56.4072 8.42392 56.4092C8.46981 56.4369 8.43642 56.4408 8.36349 56.4549C8.33393 56.4602 8.21722 56.4666 8.09693 56.4792C7.9262 56.4958 7.74894 56.5287 7.80449 56.5497C7.81744 56.5543 7.84574 56.5575 7.87544 56.5602C7.93002 56.5652 7.98895 56.5671 7.96543 56.5817C7.95724 56.5869 7.92653 56.5954 7.89652 56.6042C7.8635 56.6139 7.83136 56.624 7.8304 56.6291C7.82685 56.648 7.83836 56.6637 7.84888 56.6769C7.86246 56.694 7.87418 56.7074 7.8506 56.7253C7.80863 56.7576 7.8579 56.7657 7.90695 56.7685C7.94456 56.7711 7.98222 56.7711 7.98167 56.7864C7.97994 56.8307 8.08454 56.8488 8.22629 56.808C8.27964 56.7924 8.22613 56.8426 8.16516 56.9163C8.12713 56.9619 8.08591 57.0164 8.06415 57.0654C8.05198 57.0932 8.10793 57.0587 8.15764 57.0245C8.20366 56.9932 8.24468 56.9625 8.22914 56.9877C8.2154 57.0099 8.14172 57.0899 8.07309 57.1671C7.99657 57.2529 7.92646 57.3354 7.94865 57.3274C7.9604 57.323 8.00244 57.2879 8.05121 57.245C8.0705 57.228 8.09079 57.2099 8.11085 57.192C8.09602 57.2083 8.08284 57.2229 8.07288 57.234C8.00238 57.3124 7.97298 57.3606 7.94575 57.409C7.93484 57.4283 7.92429 57.4475 7.91133 57.4686C7.86357 57.5462 7.87693 57.5761 7.89649 57.5859C7.90473 57.59 7.89142 57.621 7.87676 57.6576C7.86371 57.6901 7.8496 57.7272 7.84789 57.7532C7.84689 57.7681 7.83435 57.7966 7.82408 57.8205C7.81664 57.8378 7.81038 57.8526 7.81054 57.8578C7.81069 57.8622 7.82948 57.8384 7.85046 57.8115C7.86557 57.7922 7.88188 57.7712 7.89329 57.758C7.92056 57.7264 7.93253 57.7194 7.9289 57.7329C7.92722 57.7392 7.92213 57.7499 7.9171 57.7606C7.91123 57.773 7.90535 57.7856 7.90497 57.7911C7.9033 57.8162 7.93212 57.7936 7.96098 57.7694C7.9929 57.7428 8.02451 57.7141 8.02186 57.7478C8.02105 57.7584 8.01444 57.78 8.00824 57.801C8.00174 57.8231 7.99577 57.8444 7.99686 57.8516C8.00154 57.8809 8.05233 57.8224 8.09642 57.7671C8.12589 57.7304 8.15269 57.6953 8.164 57.6897C8.18494 57.6797 8.23007 57.6009 8.26249 57.5423C8.27933 57.5119 8.29294 57.4869 8.29836 57.4799C8.29901 57.483 8.2995 57.4865 8.29986 57.4902C8.2987 57.497 8.29754 57.504 8.29996 57.5027C8.30015 57.5026 8.30042 57.5023 8.30061 57.5021C8.30133 57.5265 8.29899 57.5593 8.29741 57.5922C8.29348 57.666 8.29657 57.7409 8.33615 57.7132C8.34464 57.7073 8.36232 57.6738 8.37964 57.6395C8.40093 57.5975 8.42163 57.5541 8.42731 57.5594C8.44076 57.572 8.44028 57.6359 8.44348 57.6995C8.44725 57.7948 8.46154 57.8893 8.50735 57.7984C8.52224 57.7683 8.54027 57.7169 8.55731 57.6648C8.56682 57.6358 8.57608 57.6064 8.58449 57.5808C8.57571 57.6295 8.56774 57.6752 8.56028 57.7179C8.54486 57.8059 8.53168 57.8812 8.51574 57.9444C8.4785 58.0937 8.42334 58.2983 8.39701 58.4501C8.38999 58.4914 8.38111 58.5371 8.37206 58.5831C8.34949 58.6985 8.32553 58.8163 8.33424 58.8731C8.33963 58.9113 8.35954 58.9999 8.39404 58.914C8.40146 58.8953 8.4099 58.8573 8.41913 58.815C8.42355 58.7948 8.42815 58.7736 8.4329 58.7529C8.44601 58.6961 8.46016 58.644 8.47491 58.6302C8.4783 58.627 8.48189 58.6242 8.48554 58.6217C8.50007 58.6114 8.51617 58.5999 8.52851 58.5386C8.54272 58.4679 8.55047 58.386 8.56006 58.2905C8.57226 58.1661 8.58861 58.0187 8.61712 57.8419C8.6227 57.8069 8.62715 57.7952 8.63048 57.7863C8.63283 57.78 8.63463 57.775 8.63583 57.7644C8.63722 57.7523 8.63928 57.727 8.64195 57.6949C8.65111 57.5817 8.66972 57.3843 8.68239 57.3771C8.6859 57.3752 8.68883 57.3849 8.69156 57.3937C8.69557 57.4067 8.69916 57.4173 8.70209 57.385C8.7032 57.3727 8.70433 57.3594 8.70546 57.3457C8.70899 57.3498 8.71255 57.354 8.71615 57.3581C8.71876 57.397 8.72629 57.3941 8.73533 57.3902C8.73753 57.3892 8.73983 57.3883 8.7422 57.3878C8.74971 57.3961 8.75739 57.4042 8.76521 57.4124C8.77137 57.4289 8.77805 57.4556 8.78632 57.4979C8.80272 57.5826 8.82247 57.7223 8.84744 57.8582C8.8579 57.9155 8.8693 57.9722 8.88126 58.0238C8.87848 58.0305 8.87606 58.0382 8.87446 58.0488C8.86352 58.1213 8.86394 58.2623 8.86311 58.3922C8.86254 58.4785 8.86143 58.56 8.85536 58.6128C8.84413 58.7094 8.84862 58.8217 8.85278 58.9048C8.85485 58.9478 8.85657 58.9831 8.85492 59.0042C8.85358 59.021 8.84944 59.0291 8.84511 59.0374C8.84134 59.0446 8.83742 59.0522 8.83509 59.0658C8.80627 59.2311 8.8155 59.3264 8.83506 59.4651C8.84562 59.5416 8.85888 59.6313 8.86776 59.7532C8.87607 59.8823 8.8761 59.9202 8.85456 59.9722C8.87383 60.0356 8.89404 60.0989 8.9152 60.1619C8.92236 60.1575 8.92635 60.1174 8.93098 60.0508C8.9394 59.9319 8.97905 59.8865 9.00929 59.8504C9.02328 59.8337 9.03522 59.8191 9.04105 59.8004C9.0718 59.7009 9.04731 59.5679 9.0286 59.4507C9.01809 59.3862 9.00886 59.3265 9.0083 59.28C9.00804 59.2601 9.00437 59.2407 9.00072 59.2209C8.99789 59.2055 8.99504 59.1899 8.99365 59.1738C8.98377 59.0563 8.99432 58.9676 9.00187 58.8853C9.00628 58.8382 9.00988 58.7929 9.00935 58.7457C9.00919 58.7313 9.00871 58.7167 9.00818 58.7024C9.00742 58.6817 9.00668 58.6619 9.00699 58.6448C9.00769 58.606 9.01456 58.5791 9.02161 58.5497C9.02523 58.5347 9.02889 58.5189 9.03177 58.5006C9.03551 58.4768 9.03172 58.4302 9.02764 58.3817C9.02475 58.3473 9.02172 58.312 9.02082 58.2826C9.0192 58.2295 9.02726 58.2091 9.03448 58.1901C9.03762 58.1818 9.04056 58.1736 9.04248 58.1633C9.04326 58.1591 9.04265 58.1511 9.04104 58.1402C9.05099 58.1013 9.05899 58.0616 9.06573 58.0227C9.10132 57.8269 9.09683 57.6629 9.20489 57.7495C9.22585 57.7656 9.23975 57.756 9.24841 57.7339C9.31238 57.7591 9.38091 57.7812 9.45359 57.7989C9.51199 57.8883 9.567 57.9603 9.61734 58.0125C9.71221 58.1104 9.76249 58.1137 9.8206 58.1161C9.86396 58.1176 9.91191 58.1186 9.99487 58.1497C10.1343 58.2019 10.2746 58.2243 10.3913 58.19C10.5075 58.1565 10.6245 58.0884 10.693 58.0263C10.7303 57.9931 10.8373 58.0098 10.9399 58.0188C11.0835 58.0326 11.2183 58.0296 11.1033 57.9085C11.0665 57.8699 10.9966 57.8123 10.9279 57.7575C10.8789 57.7185 10.8308 57.6809 10.7957 57.6516C10.8177 57.6419 10.8395 57.6318 10.8616 57.6213C10.9724 57.6438 11.1042 57.642 11.0204 57.5388C11.0431 57.5259 11.0655 57.5126 11.0878 57.4996C11.1352 57.4705 11.1822 57.4405 11.2289 57.4082C11.2443 57.3977 11.2597 57.3868 11.2752 57.3756C11.2753 57.3755 11.2755 57.3754 11.2757 57.3753C11.3067 57.3529 11.3376 57.3295 11.3682 57.3056C11.3813 57.2953 11.3943 57.2849 11.4073 57.2743C11.4402 57.2474 11.4728 57.2194 11.5051 57.1907C11.5223 57.1756 11.5393 57.1597 11.5563 57.144C11.584 57.1183 11.6115 57.0915 11.6387 57.064C11.6828 57.0193 11.726 56.9739 11.7686 56.9254C11.7756 56.9175 11.7946 56.9118 11.8224 56.9094C11.8503 56.9071 11.8846 56.9084 11.9194 56.9135C11.9542 56.9185 11.9875 56.9272 12.0133 56.9379C12.0391 56.9486 12.0549 56.9605 12.0589 56.971C12.0829 57.0352 12.1049 57.0995 12.1244 57.1668C12.1365 57.2082 12.148 57.2502 12.1584 57.2922C12.1648 57.318 12.1706 57.3443 12.1764 57.3704C12.1872 57.4197 12.1967 57.4702 12.2049 57.521C12.2082 57.5411 12.2112 57.5612 12.2141 57.5814C12.2209 57.6287 12.2265 57.6768 12.2309 57.7253C12.2309 57.7256 12.2309 57.7259 12.231 57.7262C12.2331 57.7501 12.2351 57.774 12.2368 57.7978C12.2418 57.871 12.2445 57.9444 12.2439 58.0199C12.2442 58.0592 12.243 58.0997 12.2412 58.1405C12.2402 58.1632 12.2391 58.1859 12.2378 58.2083C12.237 58.2205 12.236 58.2328 12.235 58.2451C12.2139 58.5309 12.1556 58.8211 12.0567 59.1086C11.9585 59.3952 11.8209 59.6774 11.6471 59.9445C11.4728 60.2121 11.262 60.4646 11.0178 60.6936C10.261 61.4122 9.15326 61.8943 7.96945 61.9365C6.75084 61.9928 5.42388 61.5636 4.39728 60.7075C4.10774 60.469 3.83491 60.1906 3.59695 59.8923C3.35666 59.5906 3.14899 59.2689 2.97221 58.9183C2.91843 58.812 2.86668 58.7007 2.81761 58.5848Z" fill="black"/>
<path d="M16.8936 69.6944C17.9184 69.5966 18.9047 70.5194 19.9331 70.5211C21.2099 70.5234 22.507 69.6417 23.7868 69.8059C25.0592 69.9701 26.3377 70.206 27.6122 70.4968C28.8881 70.7876 30.1621 71.1332 31.4386 71.5161C32.7124 71.8989 33.989 72.3189 35.2638 72.7596C36.1297 73.0589 36.9966 73.3679 37.8624 73.6808C38.2425 73.8179 38.6214 73.9556 39.0013 74.0939C39.2847 74.1972 39.5681 74.3006 39.8515 74.404C39.8909 74.4185 39.9287 74.4777 39.9565 74.5715C39.9843 74.6655 40 74.7859 40 74.9103C40 75.0347 39.9841 75.1554 39.9562 75.249C39.9283 75.3424 39.8905 75.4007 39.8511 75.4147C39.5653 75.5149 39.2795 75.615 38.9937 75.7151C38.6762 75.8262 38.3594 75.9374 38.042 76.0478C37.992 75.5373 37.9234 75.1501 37.795 74.9791C37.7294 74.8919 37.6338 74.8556 37.5633 74.9505C37.5001 75.0357 37.4525 75.1877 37.4072 75.3325C37.3599 75.484 37.315 75.6278 37.2572 75.6786C37.1592 75.7648 37.066 75.9815 36.9681 76.2092C36.9325 76.2921 36.8962 76.3765 36.8588 76.4566C36.5559 76.5604 36.2529 76.6634 35.95 76.7655C35.833 76.7111 35.7254 76.6672 35.6342 76.6881C35.5523 76.7069 35.4773 76.8147 35.4027 76.9489C35.3558 76.9645 35.3089 76.9801 35.262 76.9958C34.9594 77.0963 34.6566 77.1951 34.3538 77.2931C34.1176 77.1569 33.8699 77.0246 33.548 76.9665C33.4092 76.9415 33.2724 76.8678 33.1407 76.7972C32.9464 76.6928 32.7635 76.5946 32.6032 76.668C32.496 76.717 32.3833 76.6449 32.2708 76.573C32.12 76.4765 31.9695 76.3801 31.8331 76.5766C31.7473 76.7002 31.6685 76.8504 31.5955 76.9897C31.4794 77.2114 31.3779 77.4052 31.286 77.4186C31.1135 77.4437 30.964 77.6052 30.8322 77.7476C30.6738 77.9189 30.5409 78.0627 30.4242 77.9079C30.4065 77.8844 30.3863 77.8532 30.3635 77.8177C30.2434 77.6307 30.0512 77.3316 29.7754 77.496C29.6772 77.5546 29.585 77.7067 29.4947 77.8561C29.3632 78.0735 29.2355 78.2845 29.0987 78.1905C29.0783 78.1765 29.0569 78.1176 29.0375 78.0638C29.0128 77.9954 28.9912 77.9357 28.9785 77.9877C28.941 78.14 28.8815 78.3083 28.8169 78.4915C28.7694 78.6261 28.7191 78.7688 28.6727 78.9186C28.3184 79.0033 27.964 79.0844 27.6095 79.1611C27.4471 79.1963 27.2846 79.2306 27.1221 79.2641C27.039 79.0348 26.954 78.8282 26.8642 78.6719C26.7469 78.4676 26.5948 78.405 26.3987 78.324C26.2544 78.2643 26.0862 78.1946 25.8906 78.0516C25.5283 77.7871 25.1563 77.8464 24.9178 77.9883C24.8674 78.0183 24.8167 78.0503 24.7625 78.0851C24.5568 78.2173 24.3002 78.3828 23.8128 78.5652C23.3517 78.7379 22.9596 78.7826 22.665 78.8163C22.5147 78.8334 22.3897 78.8473 22.2939 78.8741C22.1301 78.9202 21.9289 78.9611 21.7269 79.0021C21.4108 79.0662 21.0928 79.1304 20.9127 79.2159C20.8486 79.2464 20.7813 79.2841 20.7087 79.3244C20.5074 79.436 20.2643 79.5707 19.9291 79.6485C19.5773 79.7302 19.3593 79.6745 19.1328 79.5535C19.0407 79.5043 18.9595 79.3097 18.8758 79.1087C18.7571 78.8235 18.6332 78.5258 18.4657 78.6146C18.4265 78.6353 18.3848 78.6817 18.3411 78.7304C18.261 78.8197 18.1742 78.9166 18.0854 78.8741C18.0544 78.8593 18.0272 78.8065 18.0004 78.7547C17.971 78.6978 17.9422 78.6421 17.9095 78.639C17.7874 78.6274 17.6686 78.6406 17.5631 78.6524C17.427 78.6676 17.3129 78.6803 17.2421 78.6341C17.1158 78.5517 16.9778 78.6255 16.838 78.7005C16.7312 78.7578 16.6234 78.8161 16.5189 78.8053C16.2206 78.7743 15.8102 78.9148 15.3874 79.1489C15.2274 79.2374 15.0918 79.1165 14.9182 78.9613C14.8101 78.8647 14.6873 78.7544 14.5347 78.6737C14.4482 78.6279 14.3749 78.7357 14.307 78.8352C14.2445 78.9268 14.1866 79.0116 14.1271 78.9637C14.0747 78.9214 14.0415 78.7403 14.01 78.5683C13.9749 78.3769 13.9419 78.1969 13.8867 78.232C13.8573 78.2507 13.8216 78.3413 13.7791 78.4489C13.7623 78.4914 13.7443 78.5365 13.7254 78.5811C13.7263 78.5444 13.7266 78.5115 13.7266 78.4867C13.7267 78.311 13.6703 78.2184 13.6151 78.1278C13.593 78.0916 13.571 78.0559 13.553 78.0151C13.4865 77.865 13.3607 77.8406 13.2646 77.8475C13.2239 77.8504 13.187 77.796 13.144 77.7324C13.1058 77.6759 13.0628 77.6122 13.0079 77.5752C12.9766 77.5541 12.9526 77.5032 12.9327 77.4607C12.9183 77.4299 12.9061 77.4036 12.8947 77.3967C12.8849 77.3907 12.8769 77.4411 12.868 77.4978C12.8616 77.5386 12.8546 77.5829 12.846 77.6117C12.8255 77.6807 12.7992 77.7015 12.7807 77.6794C12.7722 77.6691 12.7654 77.6495 12.7587 77.63C12.7509 77.6073 12.7432 77.5844 12.7325 77.5764C12.6834 77.5397 12.6357 77.5972 12.5862 77.6568C12.5317 77.7224 12.4749 77.7905 12.4116 77.7397C12.3917 77.7237 12.3705 77.687 12.35 77.6514C12.3285 77.6141 12.3076 77.5781 12.2898 77.5685C12.2178 77.5296 12.15 77.6552 12.0877 77.7708C12.0462 77.8476 12.0071 77.9199 11.9708 77.9365C11.9042 77.9668 11.8685 78.1176 11.8421 78.2289C11.8285 78.2866 11.8174 78.334 11.8057 78.3483C11.795 78.3441 11.7841 78.3392 11.7735 78.3337C11.7637 78.3226 11.7536 78.3112 11.7442 78.3148C11.7435 78.3151 11.7428 78.3158 11.7421 78.3161C11.6825 78.2795 11.6241 78.2276 11.566 78.1759C11.4355 78.0598 11.3066 77.9448 11.1703 78.0096C11.1409 78.0236 11.111 78.0859 11.0806 78.1491C11.0433 78.2266 11.0052 78.3059 10.9663 78.3002C10.8737 78.2866 10.7802 78.1839 10.6881 78.0827C10.5496 77.9305 10.4143 77.7819 10.2899 77.945C10.2488 77.9989 10.2087 78.0886 10.1686 78.179C10.1462 78.2294 10.1237 78.2802 10.101 78.3246C10.1058 78.2421 10.1083 78.1647 10.1107 78.0925C10.1157 77.9436 10.1199 77.8162 10.1417 77.708C10.1933 77.4523 10.2516 77.1002 10.2452 76.8435C10.2434 76.7738 10.2448 76.6962 10.2464 76.618C10.2503 76.422 10.2543 76.2218 10.2064 76.1312C10.1742 76.0702 10.0913 75.9301 10.0386 76.0801C10.0271 76.1127 10.0201 76.1775 10.0123 76.2494C9.99834 76.3787 9.98171 76.5318 9.93176 76.5675C9.92335 76.5735 9.9142 76.5789 9.90475 76.5839C9.86706 76.604 9.82486 76.6262 9.80908 76.7301C9.79091 76.8499 9.79479 76.987 9.79931 77.1469C9.8052 77.3551 9.81221 77.6024 9.77306 77.9005C9.7653 77.9595 9.75051 77.9797 9.73934 77.995C9.73147 78.0058 9.72546 78.0144 9.72485 78.0321C9.72418 78.0525 9.72668 78.0949 9.72988 78.1485C9.74117 78.3377 9.76078 78.6682 9.67892 78.6822C9.65678 78.686 9.63145 78.6702 9.60873 78.656C9.57525 78.6351 9.54745 78.6178 9.54373 78.6719C9.54234 78.6924 9.54134 78.7146 9.54052 78.7377C9.51387 78.7312 9.48722 78.7247 9.46057 78.7182C9.42638 78.6537 9.3784 78.6592 9.31851 78.6664C9.30397 78.6681 9.28865 78.6697 9.27273 78.6706C9.22015 78.6573 9.16754 78.644 9.11496 78.6304C9.07327 78.6031 9.02889 78.5586 8.98205 78.4879C8.88821 78.3462 8.80655 78.1126 8.72677 77.8841C8.69316 77.7878 8.65984 77.6923 8.62607 77.605C8.63923 77.5943 8.6511 77.5817 8.66024 77.5642C8.72281 77.4449 8.74793 77.2101 8.77102 76.994C8.78638 76.8502 8.80088 76.7146 8.82489 76.6272C8.86884 76.4669 8.86443 76.2795 8.8612 76.141C8.85953 76.0691 8.85825 76.0102 8.8641 75.9753C8.86882 75.9473 8.87971 75.9341 8.89096 75.9204C8.90076 75.9085 8.91088 75.8961 8.91735 75.8735C8.99596 75.5992 8.97232 75.44 8.93795 75.2082C8.919 75.0804 8.89685 74.9304 8.88668 74.7269C8.87796 74.5114 8.8809 74.4484 8.92208 74.3625C8.88999 74.2561 8.8579 74.1497 8.8258 74.0433C8.81321 74.0502 8.80367 74.1167 8.79025 74.2273C8.76629 74.4247 8.68826 74.4969 8.62729 74.5532C8.59906 74.5793 8.57448 74.6022 8.56061 74.6324C8.48684 74.7934 8.5083 75.0176 8.52719 75.2149C8.53759 75.3235 8.54717 75.424 8.5397 75.5013C8.53652 75.5343 8.54107 75.5671 8.54565 75.6006C8.5492 75.6264 8.55283 75.6527 8.55298 75.6798C8.55394 75.8762 8.51031 76.022 8.46982 76.1574C8.44663 76.235 8.42451 76.3094 8.41229 76.3877C8.40857 76.4116 8.40561 76.436 8.40283 76.4596C8.39878 76.4942 8.39483 76.5271 8.38864 76.5553C8.37455 76.6195 8.34553 76.6628 8.31372 76.71C8.29741 76.7342 8.28038 76.7595 8.26428 76.7892C8.24342 76.8278 8.2359 76.9055 8.22797 76.9866C8.22236 77.044 8.21648 77.1031 8.20569 77.1518C8.18614 77.2398 8.14666 77.2715 8.11002 77.301C8.09406 77.3139 8.07862 77.3266 8.06561 77.3431C8.06032 77.3498 8.05778 77.3631 8.05722 77.3814C7.99707 77.4429 7.93963 77.5058 7.88373 77.5673C7.60346 77.8757 7.36086 78.1431 6.99857 77.9493C6.93008 77.9126 6.85652 77.92 6.7822 77.9493C6.54443 77.8722 6.30654 77.7927 6.06885 77.7111C6.02181 77.534 5.96426 77.3854 5.89613 77.2687C5.76817 77.0497 5.63655 77.0029 5.48124 76.9477C5.36642 76.9068 5.23862 76.8612 5.0897 76.7381C4.8395 76.5312 4.58261 76.3562 4.29274 76.2653C4.00413 76.1747 3.6737 76.108 3.43993 76.0843C3.31249 76.0714 3.17864 75.9131 3.05388 75.7657C2.8784 75.5584 2.72094 75.3726 2.62481 75.642C2.59411 75.7281 2.56443 75.8776 2.53554 76.0228C2.51497 76.1262 2.49468 76.2272 2.47481 76.3024C2.4219 76.2791 2.36893 76.256 2.31597 76.2324C2.22189 76.0528 2.07568 75.8603 1.93435 76.0606C1.87973 76.0358 1.82507 76.0112 1.7723 75.9862C1.65715 75.934 1.54449 75.8811 1.43081 75.8278C1.3937 75.8102 1.35623 75.7926 1.31866 75.7748C1.3183 75.7746 1.31795 75.7744 1.31759 75.7742C1.24197 75.7385 1.16578 75.7025 1.09085 75.6664C1.05875 75.6509 1.02666 75.6355 0.994564 75.6201C0.913004 75.5809 0.830854 75.5416 0.750119 75.5019C0.707388 75.4807 0.664246 75.4598 0.62103 75.4385C0.550921 75.404 0.480281 75.3693 0.410002 75.3343C0.296347 75.2778 0.183224 75.2207 0.069885 75.1631C0.0513494 75.1536 0.0335372 75.1237 0.0204467 75.0784C0.00736095 75.0331 -2.00047e-05 74.9762 4.07204e-08 74.9176C2.56701e-05 74.8589 0.00746898 74.8019 0.0205993 74.7567C0.0337209 74.7117 0.051515 74.6825 0.0700376 74.6733C0.183457 74.6173 0.296725 74.5619 0.41046 74.5069C0.480751 74.473 0.551366 74.4387 0.621488 74.4052C0.664724 74.3845 0.707825 74.3642 0.750577 74.3437C0.831321 74.3051 0.913607 74.2665 0.995175 74.2285C1.02727 74.2135 1.05936 74.1984 1.09146 74.1834C1.16659 74.1482 1.24299 74.1134 1.31881 74.0786C1.31927 74.0784 1.31973 74.0782 1.32019 74.078C1.35749 74.0609 1.39473 74.0438 1.43157 74.0268C1.5453 73.9751 1.65802 73.9239 1.77322 73.8733C1.83273 73.846 1.89476 73.8193 1.95632 73.7923C1.9906 73.7772 2.02481 73.7621 2.0584 73.7472C2.07677 73.7392 2.09538 73.7314 2.1141 73.7234C2.54361 73.5361 2.97011 73.3559 3.40056 73.183C3.8294 73.0101 4.25901 72.8444 4.68733 72.6852C5.11669 72.5261 5.54529 72.3738 5.97425 72.2277C8.69659 71.2999 11.4298 70.5391 14.1642 70.063C14.5542 69.9946 14.9544 69.933 15.3452 69.8778C15.7403 69.8225 16.1273 69.7734 16.5234 69.7315C16.6437 69.7184 16.767 69.7061 16.8936 69.6944Z" fill="black"/>
<path d="M18.6265 34.6944C19.5745 34.5966 20.4869 35.5194 21.4381 35.5211C22.6192 35.5234 23.819 34.6417 25.0028 34.8059C26.1798 34.9701 27.3624 35.206 28.5413 35.4968C29.7215 35.7876 30.8999 36.1332 32.0807 36.5161C33.259 36.8989 34.4398 37.3189 35.6191 37.7596C36.42 38.0589 37.2219 38.3679 38.0227 38.6808C38.3743 38.8179 38.7248 38.9556 39.0762 39.0939C39.3384 39.1972 39.6005 39.3006 39.8627 39.404C39.8991 39.4185 39.934 39.4777 39.9598 39.5715C39.9855 39.6655 40 39.7859 40 39.9103C39.9999 40.0347 39.9853 40.1554 39.9595 40.249C39.9337 40.3424 39.8987 40.4007 39.8622 40.4147C39.5979 40.5149 39.3335 40.615 39.0692 40.7151C38.7755 40.8262 38.4824 40.9374 38.1889 41.0478C38.1426 40.5373 38.0792 40.1501 37.9603 39.9791C37.8997 39.8919 37.8112 39.8556 37.7461 39.9505C37.6876 40.0357 37.6435 40.1877 37.6017 40.3325C37.5579 40.484 37.5164 40.6278 37.463 40.6786C37.3722 40.7648 37.286 40.9815 37.1955 41.2092C37.1625 41.2921 37.129 41.3765 37.0944 41.4566C36.8142 41.5604 36.534 41.6634 36.2538 41.7655C36.1455 41.7111 36.046 41.6672 35.9616 41.6881C35.8859 41.7069 35.8165 41.8147 35.7475 41.9489C35.7041 41.9645 35.6607 41.9801 35.6174 41.9958C35.3374 42.0963 35.0573 42.1951 34.7773 42.2931C34.5587 42.1569 34.3297 42.0246 34.0319 41.9665C33.9036 41.9415 33.7769 41.8678 33.6552 41.7972C33.4754 41.6928 33.3062 41.5946 33.1579 41.668C33.0588 41.717 32.9545 41.6449 32.8505 41.573C32.711 41.4765 32.5718 41.3801 32.4456 41.5766C32.3662 41.7002 32.2933 41.8504 32.2258 41.9897C32.1184 42.2114 32.0246 42.4052 31.9396 42.4186C31.7799 42.4437 31.6417 42.6052 31.5198 42.7476C31.3733 42.9189 31.2504 43.0627 31.1424 42.9079C31.1261 42.8844 31.1073 42.8532 31.0862 42.8177C30.9751 42.6307 30.7974 42.3316 30.5423 42.496C30.4514 42.5546 30.3661 42.7067 30.2826 42.8561C30.1609 43.0735 30.0428 43.2845 29.9163 43.1905C29.8974 43.1765 29.8777 43.1176 29.8597 43.0638C29.8369 42.9954 29.8169 42.9357 29.8051 42.9877C29.7704 43.14 29.7154 43.3083 29.6556 43.4915C29.6117 43.6261 29.5651 43.7688 29.5222 43.9186C29.1945 44.0033 28.8667 44.0844 28.5387 44.1611C28.3885 44.1963 28.2382 44.2306 28.0879 44.2641C28.0111 44.0348 27.9324 43.8282 27.8494 43.6719C27.7409 43.4676 27.6001 43.405 27.4188 43.324C27.2853 43.2643 27.1298 43.1946 26.9488 43.0516C26.6137 42.7871 26.2695 42.8464 26.049 42.9883C26.0023 43.0183 25.9554 43.0503 25.9053 43.0851C25.7151 43.2173 25.4777 43.3828 25.0268 43.5652C24.6003 43.7379 24.2376 43.7826 23.9651 43.8163C23.8261 43.8334 23.7105 43.8473 23.6219 43.8741C23.4703 43.9202 23.2842 43.9611 23.0974 44.0021C22.805 44.0662 22.5108 44.1304 22.3442 44.2159C22.285 44.2464 22.2227 44.2841 22.1555 44.3244C21.9694 44.436 21.7444 44.5707 21.4344 44.6485C21.109 44.7302 20.9073 44.6745 20.6978 44.5535C20.6127 44.5043 20.5375 44.3097 20.4601 44.1087C20.3503 43.8235 20.2357 43.5258 20.0807 43.6146C20.0446 43.6353 20.0059 43.6817 19.9656 43.7304C19.8914 43.8197 19.8112 43.9166 19.729 43.8741C19.7004 43.8593 19.6751 43.8065 19.6504 43.7547C19.6232 43.6978 19.5965 43.6421 19.5663 43.639C19.4534 43.6274 19.3435 43.6406 19.2459 43.6524C19.12 43.6676 19.0144 43.6803 18.9489 43.6341C18.8321 43.5517 18.7045 43.6255 18.5752 43.7005C18.4764 43.7578 18.3766 43.8161 18.28 43.8053C18.004 43.7743 17.6244 43.9148 17.2333 44.1489C17.0853 44.2374 16.9599 44.1165 16.7993 43.9613C16.6994 43.8647 16.5858 43.7544 16.4446 43.6737C16.3646 43.6279 16.2968 43.7357 16.234 43.8352C16.1762 43.9268 16.1226 44.0116 16.0676 43.9637C16.0191 43.9214 15.9884 43.7403 15.9592 43.5683C15.9268 43.3769 15.8962 43.1969 15.8452 43.232C15.818 43.2507 15.785 43.3413 15.7457 43.4489C15.7301 43.4914 15.7135 43.5365 15.696 43.5811C15.6969 43.5444 15.6971 43.5115 15.6971 43.4867C15.6972 43.311 15.6451 43.2184 15.5939 43.1278C15.5735 43.0916 15.5532 43.0559 15.5365 43.0151C15.475 42.865 15.3586 42.8406 15.2697 42.8475C15.2321 42.8504 15.198 42.796 15.1582 42.7324C15.1229 42.6759 15.0831 42.6122 15.0323 42.5752C15.0034 42.5541 14.9811 42.5032 14.9627 42.4607C14.9494 42.4299 14.9381 42.4036 14.9276 42.3967C14.9185 42.3907 14.9111 42.4411 14.9029 42.4978C14.897 42.5386 14.8905 42.5829 14.8826 42.6117C14.8636 42.6807 14.8393 42.7015 14.8222 42.6794C14.8143 42.6691 14.808 42.6495 14.8018 42.63C14.7946 42.6073 14.7874 42.5844 14.7776 42.5764C14.7322 42.5397 14.6881 42.5972 14.6422 42.6568C14.5918 42.7224 14.5392 42.7905 14.4807 42.7397C14.4623 42.7237 14.4427 42.687 14.4237 42.6514C14.4038 42.6141 14.3845 42.5781 14.3681 42.5685C14.3014 42.5296 14.2387 42.6552 14.1811 42.7708C14.1427 42.8476 14.1066 42.9199 14.073 42.9365C14.0114 42.9668 13.9784 43.1176 13.954 43.2289C13.9414 43.2866 13.9311 43.334 13.9203 43.3483C13.9103 43.3441 13.9003 43.3392 13.8905 43.3337C13.8814 43.3226 13.8721 43.3112 13.8634 43.3148C13.8627 43.3151 13.8621 43.3158 13.8614 43.3161C13.8063 43.2795 13.7523 43.2276 13.6985 43.1759C13.5778 43.0598 13.4586 42.9448 13.3325 43.0096C13.3054 43.0236 13.2777 43.0859 13.2495 43.1491C13.2151 43.2266 13.1798 43.3059 13.1438 43.3002C13.0582 43.2866 12.9717 43.1839 12.8865 43.0827C12.7584 42.9305 12.6332 42.7819 12.5181 42.945C12.4802 42.9989 12.4431 43.0886 12.4059 43.179C12.3852 43.2294 12.3644 43.2802 12.3434 43.3246C12.3478 43.2421 12.3502 43.1647 12.3524 43.0925C12.357 42.9436 12.3609 42.8162 12.3811 42.708C12.4288 42.4523 12.4828 42.1002 12.4768 41.8435C12.4752 41.7738 12.4765 41.6962 12.4779 41.618C12.4815 41.422 12.4852 41.2218 12.4409 41.1312C12.4111 41.0702 12.3344 40.9301 12.2857 41.0801C12.2751 41.1127 12.2686 41.1775 12.2614 41.2494C12.2485 41.3787 12.2331 41.5318 12.1869 41.5675C12.1791 41.5735 12.1706 41.5789 12.1619 41.5839C12.127 41.604 12.088 41.6262 12.0734 41.7301C12.0566 41.8499 12.0602 41.987 12.0644 42.1469C12.0698 42.3551 12.0763 42.6024 12.0401 42.9005C12.0329 42.9595 12.0192 42.9797 12.0089 42.995C12.0016 43.0058 11.996 43.0144 11.9955 43.0321C11.9949 43.0525 11.9972 43.0949 12.0001 43.1485C12.0106 43.3377 12.0287 43.6682 11.953 43.6822C11.9325 43.686 11.9091 43.6702 11.8881 43.656C11.8571 43.6351 11.8314 43.6178 11.8279 43.6719C11.8267 43.6924 11.8257 43.7146 11.825 43.7377C11.8003 43.7312 11.7757 43.7247 11.751 43.7182C11.7194 43.6537 11.675 43.6592 11.6196 43.6664C11.6062 43.6681 11.592 43.6697 11.5773 43.6706C11.5286 43.6573 11.48 43.644 11.4313 43.6304C11.3928 43.6031 11.3517 43.5586 11.3084 43.4879C11.2216 43.3462 11.1461 43.1126 11.0723 42.8841C11.0412 42.7878 11.0104 42.6923 10.9791 42.605C10.9913 42.5943 11.0023 42.5817 11.0107 42.5642C11.0686 42.4449 11.0918 42.2101 11.1132 41.994C11.1274 41.8502 11.1408 41.7146 11.163 41.6272C11.2037 41.4669 11.1996 41.2795 11.1966 41.141C11.1951 41.0691 11.1939 41.0102 11.1993 40.9753C11.2037 40.9473 11.2137 40.9341 11.2241 40.9204C11.2332 40.9085 11.2426 40.8961 11.2486 40.8735C11.3213 40.5992 11.2994 40.44 11.2676 40.2082C11.2501 40.0804 11.2296 39.9304 11.2202 39.7269C11.2121 39.5114 11.2148 39.4484 11.2529 39.3625C11.2232 39.2561 11.1936 39.1497 11.1639 39.0433C11.1522 39.0502 11.1434 39.1167 11.131 39.2273C11.1088 39.4247 11.0366 39.4969 10.9802 39.5532C10.9541 39.5793 10.9314 39.6022 10.9186 39.6324C10.8503 39.7934 10.8702 40.0176 10.8877 40.2149C10.8973 40.3235 10.9061 40.424 10.8992 40.5013C10.8963 40.5343 10.9005 40.5671 10.9047 40.6006C10.908 40.6264 10.9114 40.6527 10.9115 40.6798C10.9124 40.8762 10.872 41.022 10.8346 41.1574C10.8131 41.235 10.7927 41.3094 10.7814 41.3877C10.7779 41.4116 10.7752 41.436 10.7726 41.4596C10.7689 41.4942 10.7652 41.5271 10.7595 41.5553C10.7465 41.6195 10.7196 41.6628 10.6902 41.71C10.6751 41.7342 10.6594 41.7595 10.6445 41.7892C10.6252 41.8278 10.6182 41.9055 10.6109 41.9866C10.6057 42.044 10.6002 42.1031 10.5903 42.1518C10.5722 42.2398 10.5357 42.2715 10.5018 42.301C10.487 42.3139 10.4727 42.3266 10.4607 42.3431C10.4558 42.3498 10.4534 42.3631 10.4529 42.3814C10.3973 42.4429 10.3442 42.5058 10.2924 42.5673C10.0332 42.8757 9.80879 43.1431 9.47368 42.9493C9.41032 42.9126 9.34228 42.92 9.27354 42.9493C9.0536 42.8722 8.83355 42.7927 8.61369 42.7111C8.57017 42.534 8.51694 42.3854 8.45392 42.2687C8.33556 42.0497 8.21381 42.0029 8.07015 41.9477C7.96393 41.9068 7.84572 41.8612 7.70797 41.7381C7.47654 41.5312 7.23891 41.3562 6.97078 41.2653C6.70382 41.1747 6.39817 41.108 6.18193 41.0843C6.06405 41.0714 5.94024 40.9131 5.82484 40.7657C5.66252 40.5584 5.51687 40.3726 5.42795 40.642C5.39955 40.7281 5.3721 40.8776 5.34538 41.0228C5.32635 41.1262 5.30758 41.2272 5.2892 41.3024C5.24026 41.2791 5.19126 41.256 5.14227 41.2324C5.05524 41.0528 4.92 40.8603 4.78927 41.0606C4.73875 41.0358 4.68819 41.0112 4.63938 40.9862C4.53287 40.934 4.42866 40.8811 4.3235 40.8278C4.28918 40.8102 4.25451 40.7926 4.21976 40.7748C4.21943 40.7746 4.2191 40.7744 4.21877 40.7742C4.14882 40.7385 4.07834 40.7025 4.00903 40.6664C3.97935 40.6509 3.94966 40.6355 3.91997 40.6201C3.84453 40.5809 3.76854 40.5416 3.69386 40.5019C3.65433 40.4807 3.61443 40.4598 3.57445 40.4385C3.5096 40.404 3.44426 40.3693 3.37925 40.3343C3.27412 40.2778 3.16948 40.2207 3.06464 40.1631C3.0475 40.1536 3.03102 40.1237 3.01891 40.0784C3.00681 40.0331 2.99998 39.9762 3 39.9176C3.00002 39.8589 3.00691 39.8019 3.01905 39.7567C3.03119 39.7117 3.04765 39.6825 3.06478 39.6733C3.1697 39.6173 3.27447 39.5619 3.37968 39.5069C3.4447 39.473 3.51001 39.4387 3.57488 39.4052C3.61487 39.3845 3.65474 39.3642 3.69428 39.3437C3.76897 39.3051 3.84509 39.2665 3.92054 39.2285C3.95022 39.2135 3.97991 39.1984 4.0096 39.1834C4.0791 39.1482 4.14977 39.1134 4.2199 39.0786C4.22032 39.0784 4.22075 39.0782 4.22117 39.078C4.25568 39.0609 4.29012 39.0438 4.32421 39.0268C4.42941 38.9751 4.53367 38.9239 4.64023 38.8733C4.69528 38.846 4.75265 38.8193 4.8096 38.7923C4.8413 38.7772 4.87295 38.7621 4.90402 38.7472C4.92101 38.7392 4.93823 38.7314 4.95554 38.7234C5.35284 38.5361 5.74735 38.3559 6.14552 38.183C6.5422 38.0101 6.93958 37.8444 7.33578 37.6852C7.73294 37.5261 8.1294 37.3738 8.52618 37.2277C11.0443 36.2999 13.5726 35.5391 16.1019 35.063C16.4627 34.9946 16.8329 34.933 17.1944 34.8778C17.5598 34.8225 17.9177 34.7734 18.2841 34.7315C18.3954 34.7184 18.5095 34.7061 18.6265 34.6944Z" fill="black"/>
<path d="M34.0073 60.0606C33.9095 59.1126 34.8323 58.2002 34.834 57.249C34.8363 56.068 33.9545 54.8681 34.1188 53.6843C34.283 52.5073 34.5189 51.3247 34.8097 50.1458C35.1005 48.9656 35.4461 47.7872 35.829 46.6064C36.2118 45.4281 36.6318 44.2473 37.0725 43.0681C37.3718 42.2671 37.6808 41.4652 37.9937 40.6644C38.1308 40.3128 38.2685 39.9623 38.4068 39.6109C38.5101 39.3487 38.6135 39.0866 38.7169 38.8244C38.7314 38.788 38.7906 38.7531 38.8844 38.7273C38.9784 38.7016 39.0988 38.6871 39.2232 38.6871C39.3476 38.6872 39.4682 38.7018 39.5619 38.7276C39.6553 38.7534 39.7136 38.7884 39.7276 38.8249C39.8278 39.0892 39.9279 39.3536 40.028 39.6179C40.1391 39.9116 40.2503 40.2047 40.3607 40.4983C39.8502 40.5445 39.463 40.6079 39.292 40.7268C39.2048 40.7874 39.1685 40.8759 39.2634 40.941C39.3486 40.9995 39.5006 41.0436 39.6454 41.0854C39.7969 41.1292 39.9407 41.1707 39.9915 41.2242C40.0777 41.3149 40.2944 41.4011 40.5221 41.4916C40.605 41.5246 40.6894 41.5581 40.7695 41.5927C40.8733 41.8729 40.9763 42.1531 41.0784 42.4333C41.024 42.5416 40.9801 42.6411 41.001 42.7255C41.0198 42.8012 41.1276 42.8706 41.2618 42.9396C41.2774 42.983 41.293 43.0264 41.3087 43.0697C41.4092 43.3497 41.508 43.6298 41.606 43.9098C41.4698 44.1284 41.3375 44.3574 41.2794 44.6552C41.2544 44.7836 41.1807 44.9102 41.1101 45.0319C41.0057 45.2117 40.9075 45.3809 40.9809 45.5292C41.0299 45.6283 40.9578 45.7326 40.8858 45.8366C40.7894 45.9761 40.693 46.1153 40.8895 46.2415C41.0131 46.3209 41.1633 46.3938 41.3026 46.4613C41.5243 46.5687 41.7181 46.6625 41.7315 46.7475C41.7566 46.9072 41.9181 47.0454 42.0605 47.1673C42.2318 47.3138 42.3756 47.4367 42.2207 47.5447C42.1973 47.5611 42.1661 47.5798 42.1306 47.6009C41.9436 47.712 41.6445 47.8897 41.8089 48.1448C41.8674 48.2357 42.0196 48.321 42.169 48.4045C42.3863 48.5262 42.5974 48.6443 42.5034 48.7708C42.4894 48.7897 42.4305 48.8094 42.3767 48.8274C42.3083 48.8502 42.2486 48.8702 42.3006 48.882C42.4529 48.9167 42.6212 48.9717 42.8044 49.0315C42.939 49.0754 43.0817 49.122 43.2315 49.1649C43.3162 49.4926 43.3972 49.8204 43.474 50.1484C43.5092 50.2986 43.5435 50.4489 43.577 50.5992C43.3477 50.676 43.1411 50.7547 42.9848 50.8377C42.7805 50.9462 42.7179 51.087 42.6369 51.2683C42.5772 51.4018 42.5075 51.5573 42.3645 51.7383C42.1 52.0734 42.1593 52.4176 42.3012 52.6381C42.3312 52.6848 42.3632 52.7317 42.398 52.7818C42.5302 52.972 42.6957 53.2094 42.8781 53.6603C43.0508 54.0868 43.0955 54.4495 43.1292 54.722C43.1463 54.8611 43.1601 54.9766 43.187 55.0652C43.2331 55.2168 43.274 55.4029 43.315 55.5897C43.3791 55.8821 43.4433 56.1763 43.5288 56.3429C43.5593 56.4021 43.597 56.4644 43.6373 56.5316C43.7489 56.7177 43.8836 56.9427 43.9614 57.2527C44.0431 57.5781 43.9874 57.7798 43.8664 57.9893C43.8172 58.0744 43.6226 58.1496 43.4216 58.227C43.1364 58.3368 42.8387 58.4514 42.9275 58.6064C42.9482 58.6426 42.9946 58.6812 43.0433 58.7215C43.1326 58.7957 43.2295 58.8759 43.187 58.9581C43.1722 58.9867 43.1194 59.012 43.0676 59.0367C43.0107 59.0639 42.955 59.0906 42.9519 59.1208C42.9403 59.2337 42.9535 59.3436 42.9653 59.4412C42.9805 59.5671 42.9932 59.6727 42.947 59.7382C42.8646 59.855 42.9383 59.9826 43.0134 60.1119C43.0707 60.2107 43.129 60.3105 43.1182 60.4071C43.0872 60.6831 43.2277 61.0627 43.4618 61.4538C43.5503 61.6018 43.4294 61.7272 43.2742 61.8878C43.1776 61.9877 43.0673 62.1013 42.9866 62.2425C42.9408 62.3225 43.0485 62.3903 43.148 62.4531C43.2397 62.5109 43.3245 62.5645 43.2766 62.6195C43.2343 62.668 43.0532 62.6987 42.8812 62.7279C42.6898 62.7603 42.5098 62.7909 42.5449 62.8419C42.5636 62.8691 42.6542 62.9021 42.7618 62.9414C42.8043 62.957 42.8494 62.9736 42.894 62.9911C42.8573 62.9902 42.8244 62.99 42.7995 62.99C42.6239 62.9899 42.5313 63.042 42.4407 63.0932C42.4045 63.1136 42.3688 63.1339 42.328 63.1506C42.1779 63.2121 42.1535 63.3285 42.1604 63.4174C42.1633 63.455 42.1089 63.4891 42.0453 63.5289C41.9888 63.5642 41.9251 63.604 41.8881 63.6548C41.867 63.6837 41.8161 63.706 41.7735 63.7244C41.7428 63.7377 41.7165 63.749 41.7096 63.7595C41.7036 63.7686 41.754 63.776 41.8107 63.7842C41.8515 63.7901 41.8958 63.7966 41.9246 63.8045C41.9936 63.8235 42.0144 63.8478 41.9923 63.8649C41.982 63.8728 41.9624 63.8791 41.9429 63.8853C41.9202 63.8925 41.8973 63.8997 41.8893 63.9095C41.8526 63.9549 41.9101 63.999 41.9697 64.0449C42.0353 64.0953 42.1034 64.1479 42.0526 64.2064C42.0366 64.2248 41.9999 64.2444 41.9642 64.2634C41.927 64.2833 41.891 64.3026 41.8814 64.319C41.8425 64.3857 41.9681 64.4484 42.0837 64.506C42.1605 64.5444 42.2328 64.5805 42.2494 64.6141C42.2797 64.6757 42.4305 64.7087 42.5418 64.7331C42.5995 64.7457 42.6469 64.756 42.6612 64.7668C42.657 64.7768 42.6521 64.7868 42.6466 64.7966C42.6355 64.8057 42.6241 64.815 42.6277 64.8237C42.628 64.8244 42.6287 64.825 42.629 64.8257C42.5924 64.8808 42.5405 64.9348 42.4888 64.9886C42.3727 65.1093 42.2577 65.2285 42.3225 65.3546C42.3365 65.3817 42.3987 65.4094 42.462 65.4376C42.5395 65.4721 42.6188 65.5073 42.6131 65.5433C42.5995 65.6289 42.4968 65.7154 42.3956 65.8006C42.2434 65.9287 42.0948 66.0539 42.2579 66.169C42.3118 66.2069 42.4015 66.244 42.4919 66.2812C42.5423 66.3019 42.5931 66.3227 42.6375 66.3437C42.555 66.3393 42.4776 66.3369 42.4054 66.3347C42.2565 66.3301 42.1291 66.3262 42.0209 66.306C41.7652 66.2584 41.4131 66.2043 41.1564 66.2103C41.0867 66.212 41.0091 66.2106 40.9309 66.2092C40.7349 66.2056 40.5347 66.2019 40.4441 66.2462C40.3831 66.276 40.243 66.3527 40.393 66.4014C40.4256 66.412 40.4904 66.4185 40.5623 66.4257C40.6916 66.4386 40.8447 66.454 40.8804 66.5002C40.8864 66.508 40.8918 66.5165 40.8968 66.5252C40.9169 66.5601 40.9391 66.5991 41.043 66.6137C41.1628 66.6305 41.2999 66.6269 41.4598 66.6227C41.668 66.6173 41.9153 66.6108 42.2134 66.647C42.2724 66.6542 42.2926 66.6679 42.3079 66.6782C42.3187 66.6855 42.3273 66.6911 42.345 66.6916C42.3654 66.6922 42.4078 66.6899 42.4614 66.687C42.6506 66.6765 42.9811 66.6584 42.9951 66.7341C42.9989 66.7546 42.9831 66.778 42.9689 66.799C42.948 66.83 42.9307 66.8557 42.9848 66.8592C43.0053 66.8604 43.0275 66.8614 43.0506 66.8621C43.0441 66.8868 43.0376 66.9114 43.0311 66.9361C42.9666 66.9677 42.9721 67.0121 42.9793 67.0675C42.981 67.0809 42.9826 67.0951 42.9835 67.1098C42.9702 67.1585 42.9569 67.2071 42.9433 67.2558C42.916 67.2943 42.8715 67.3354 42.8008 67.3787C42.6591 67.4655 42.4255 67.541 42.197 67.6148C42.1007 67.6459 42.0052 67.6767 41.9179 67.708C41.9072 67.6958 41.8946 67.6848 41.8771 67.6764C41.7578 67.6185 41.523 67.5953 41.3069 67.5739C41.1631 67.5597 41.0275 67.5463 40.9401 67.5241C40.7798 67.4834 40.5924 67.4875 40.4539 67.4905C40.382 67.492 40.3231 67.4932 40.2882 67.4878C40.2601 67.4834 40.247 67.4734 40.2333 67.463C40.2214 67.4539 40.209 67.4445 40.1864 67.4385C39.9121 67.3658 39.7529 67.3877 39.5211 67.4195C39.3933 67.437 39.2433 67.4575 39.0398 67.4669C38.8243 67.475 38.7613 67.4723 38.6754 67.4342C38.569 67.4639 38.4626 67.4935 38.3562 67.5232C38.3631 67.5349 38.4296 67.5437 38.5402 67.5561C38.7376 67.5783 38.8098 67.6505 38.8661 67.7069C38.8922 67.733 38.9151 67.7557 38.9453 67.7685C39.1063 67.8368 39.3305 67.8169 39.5278 67.7995C39.6364 67.7898 39.7369 67.781 39.8142 67.7879C39.8472 67.7908 39.88 67.7866 39.9135 67.7824C39.9393 67.7791 39.9656 67.7757 39.9927 67.7756C40.1891 67.7747 40.3349 67.8151 40.4703 67.8525C40.5479 67.874 40.6223 67.8944 40.7006 67.9057C40.7245 67.9092 40.7489 67.9119 40.7725 67.9145C40.8071 67.9182 40.84 67.9219 40.8682 67.9276C40.9324 67.9406 40.9757 67.9675 41.0229 67.9969C41.0471 68.012 41.0724 68.0278 41.1021 68.0426C41.1407 68.0619 41.2184 68.0689 41.2995 68.0762C41.3569 68.0814 41.416 68.0869 41.4647 68.0968C41.5527 68.1149 41.5844 68.1514 41.6139 68.1853C41.6268 68.2001 41.6395 68.2144 41.656 68.2264C41.6627 68.2313 41.676 68.2337 41.6943 68.2342C41.7558 68.2898 41.8186 68.3429 41.8802 68.3947C42.1886 68.6539 42.456 68.8783 42.2622 69.2134C42.2255 69.2768 42.2328 69.3448 42.2622 69.4136C42.1851 69.6335 42.1056 69.8536 42.024 70.0734C41.8469 70.1169 41.6983 70.1702 41.5816 70.2332C41.3626 70.3515 41.3158 70.4733 41.2605 70.617C41.2197 70.7232 41.1741 70.8414 41.051 70.9791C40.8441 71.2106 40.6691 71.4482 40.5782 71.7163C40.4876 71.9833 40.4209 72.2889 40.3972 72.5052C40.3843 72.623 40.2259 72.7469 40.0786 72.8623C39.8713 73.0246 39.6855 73.1702 39.9549 73.2592C40.041 73.2876 40.1905 73.315 40.3357 73.3417C40.4391 73.3608 40.5401 73.3795 40.6153 73.3979C40.592 73.4468 40.5689 73.4958 40.5453 73.5448C40.3657 73.6319 40.1732 73.7671 40.3735 73.8978C40.3487 73.9484 40.3241 73.9989 40.2991 74.0477C40.2469 74.1542 40.194 74.2584 40.1407 74.3636C40.1231 74.3979 40.1055 74.4326 40.0877 74.4673C40.0875 74.4677 40.0873 74.468 40.0871 74.4683C40.0514 74.5383 40.0154 74.6088 39.9793 74.6781C39.9638 74.7078 39.9484 74.7374 39.933 74.7671C39.8938 74.8426 39.8545 74.9186 39.8148 74.9932C39.7936 75.0328 39.7727 75.0727 39.7514 75.1127C39.7169 75.1775 39.6822 75.2428 39.6472 75.3079C39.5907 75.413 39.5336 75.5176 39.476 75.6225C39.4665 75.6396 39.4366 75.6561 39.3913 75.6682C39.346 75.6803 39.2891 75.6871 39.2305 75.6871C39.1718 75.6871 39.1148 75.6802 39.0696 75.668C39.0246 75.6559 38.9954 75.6395 38.9862 75.6223C38.9302 75.5174 38.8748 75.4126 38.8198 75.3074C38.7859 75.2424 38.7516 75.1771 38.7181 75.1122C38.6974 75.0722 38.6771 75.0324 38.6566 74.9928C38.618 74.9181 38.5794 74.842 38.5414 74.7666C38.5264 74.7369 38.5113 74.7072 38.4963 74.6775C38.4611 74.608 38.4263 74.5373 38.3915 74.4672C38.3913 74.4668 38.3911 74.4664 38.3909 74.4659C38.3738 74.4314 38.3567 74.397 38.3397 74.3629C38.288 74.2577 38.2368 74.1534 38.1862 74.0469C38.1589 73.9918 38.1322 73.9345 38.1052 73.8775C38.0901 73.8458 38.075 73.8142 38.0601 73.7831C38.0521 73.7661 38.0442 73.7489 38.0363 73.7316C37.849 73.3343 37.6688 72.9398 37.4959 72.5416C37.323 72.1449 37.1573 71.7475 36.9981 71.3513C36.839 70.9542 36.6867 70.5577 36.5406 70.1609C35.6127 67.6428 34.852 65.1145 34.3759 62.5852C34.3075 62.2244 34.2459 61.8542 34.1906 61.4927C34.1354 61.1273 34.0863 60.7694 34.0444 60.403C34.0313 60.2917 34.019 60.1776 34.0073 60.0606Z" fill="black"/>
</svg>
