<svg width="74" height="74" viewBox="0 0 74 74" fill="none" xmlns="http://www.w3.org/2000/svg">
<path d="M31.2531 30.0073C33.1491 29.9095 34.9738 30.8323 36.8762 30.8341C39.2383 30.8364 41.638 29.9546 44.0056 30.1188C46.3595 30.2831 48.7248 30.5189 51.0826 30.8097C53.443 31.1005 55.7999 31.4462 58.1615 31.829C60.518 32.2119 62.8797 32.6318 65.2381 33.0725C66.84 33.3719 68.4437 33.6809 70.0454 33.9937C70.7486 34.1308 71.4496 34.2686 72.1524 34.4068C72.6767 34.5102 73.201 34.6136 73.7253 34.7169C73.7982 34.7315 73.8681 34.7906 73.9195 34.8845C73.971 34.9785 74.0001 35.0988 74 35.2232C73.9999 35.3477 73.9706 35.4683 73.919 35.562C73.8673 35.6554 73.7974 35.7137 73.7245 35.7277C73.1958 35.8278 72.667 35.9279 72.1383 36.0281C71.551 36.1391 70.9648 36.2504 70.3777 36.3607C70.2853 35.8503 70.1584 35.4631 69.9207 35.2921C69.7994 35.2049 69.6225 35.1686 69.4922 35.2634C69.3752 35.3487 69.2871 35.5006 69.2034 35.6454C69.1159 35.7969 69.0328 35.9407 68.9259 35.9915C68.7445 36.0778 68.572 36.2945 68.391 36.5222C68.3251 36.6051 68.258 36.6895 68.1889 36.7695C67.6284 36.8733 67.0679 36.9763 66.5076 37.0784C66.2911 37.0241 66.0921 36.9801 65.9232 37.0011C65.7718 37.0198 65.6331 37.1277 65.495 37.2618C65.4082 37.2775 65.3215 37.2931 65.2347 37.3087C64.6748 37.4092 64.1147 37.5081 63.5546 37.6061C63.1175 37.4699 62.6594 37.3376 62.0638 37.2795C61.8071 37.2545 61.5538 37.1808 61.3104 37.1101C60.9508 37.0057 60.6125 36.9076 60.3159 36.981C60.1176 37.03 59.9091 36.9579 59.7011 36.8859C59.4221 36.7894 59.1436 36.6931 58.8912 36.8896C58.7325 37.0131 58.5867 37.1633 58.4517 37.3026C58.2368 37.5243 58.0492 37.7182 57.8792 37.7316C57.5599 37.7566 57.2834 37.9181 57.0397 38.0606C56.7466 38.2319 56.5007 38.3757 56.2848 38.2208C56.2521 38.1973 56.2146 38.1661 56.1725 38.1306C55.9502 37.9436 55.5948 37.6445 55.0845 37.8089C54.9029 37.8675 54.7322 38.0197 54.5651 38.169C54.3219 38.3864 54.0856 38.5974 53.8326 38.5035C53.7948 38.4895 53.7553 38.4306 53.7194 38.3768C53.6737 38.3084 53.6338 38.2487 53.6102 38.3006C53.5408 38.4529 53.4308 38.6213 53.3112 38.8045C53.2234 38.9391 53.1303 39.0818 53.0445 39.2316C52.389 39.3162 51.7333 39.3973 51.0775 39.4741C50.777 39.5093 50.4765 39.5436 50.1759 39.577C50.0221 39.3477 49.8648 39.1411 49.6988 38.9848C49.4817 38.7806 49.2003 38.718 48.8375 38.6369C48.5706 38.5773 48.2595 38.5075 47.8975 38.3646C47.2274 38.1 46.5391 38.1594 46.098 38.3012C46.0047 38.3312 45.9109 38.3633 45.8106 38.3981C45.4301 38.5302 44.9554 38.6957 44.0536 38.8782C43.2006 39.0508 42.4752 39.0956 41.9303 39.1292C41.6521 39.1464 41.4209 39.1602 41.2438 39.1871C40.9406 39.2331 40.5684 39.2741 40.1948 39.315C39.61 39.3791 39.0216 39.4433 38.6885 39.5289C38.5699 39.5594 38.4455 39.5971 38.3111 39.6373C37.9387 39.749 37.4889 39.8837 36.8689 39.9615C36.2181 40.0432 35.8147 39.9875 35.3956 39.8664C35.2253 39.8172 35.0751 39.6227 34.9203 39.4217C34.7006 39.1364 34.4715 38.8387 34.1615 38.9276C34.0891 38.9483 34.0119 38.9947 33.9311 39.0433C33.7828 39.1327 33.6223 39.2296 33.458 39.1871C33.4007 39.1723 33.3503 39.1195 33.3008 39.0677C33.2463 39.0107 33.193 38.955 33.1325 38.9519C32.9067 38.9404 32.687 38.9535 32.4917 38.9653C32.24 38.9806 32.0288 38.9932 31.8978 38.9471C31.6643 38.8647 31.4089 38.9384 31.1503 39.0135C30.9528 39.0708 30.7533 39.1291 30.5601 39.1183C30.008 39.0872 29.2489 39.2278 28.4666 39.4619C28.1707 39.5504 27.9199 39.4295 27.5986 39.2742C27.3987 39.1777 27.1716 39.0674 26.8892 38.9867C26.7291 38.9409 26.5935 39.0486 26.468 39.1481C26.3524 39.2398 26.2452 39.3245 26.1352 39.2767C26.0381 39.2343 25.9767 39.0533 25.9184 38.8813C25.8535 38.6898 25.7925 38.5098 25.6903 38.5449C25.636 38.5636 25.5699 38.6542 25.4913 38.7618C25.4602 38.8044 25.4271 38.8494 25.392 38.894C25.3938 38.8573 25.3942 38.8245 25.3942 38.7996C25.3943 38.6239 25.2901 38.5314 25.1879 38.4408C25.147 38.4046 25.1064 38.3688 25.073 38.328C24.9501 38.1779 24.7173 38.1535 24.5394 38.1605C24.4642 38.1634 24.396 38.1089 24.3164 38.0453C24.2458 37.9889 24.1662 37.9252 24.0646 37.8882C24.0067 37.867 23.9623 37.8161 23.9255 37.7736C23.8988 37.7428 23.8762 37.7165 23.8552 37.7096C23.837 37.7037 23.8223 37.7541 23.8058 37.8108C23.7939 37.8516 23.781 37.8958 23.7651 37.9247C23.7272 37.9937 23.6785 38.0145 23.6443 37.9923C23.6285 37.9821 23.6161 37.9625 23.6037 37.943C23.5892 37.9203 23.5749 37.8974 23.5551 37.8894C23.4644 37.8527 23.3761 37.9101 23.2844 37.9698C23.1836 38.0354 23.0785 38.1035 22.9615 38.0527C22.9246 38.0366 22.8854 37.9999 22.8474 37.9643C22.8077 37.927 22.769 37.891 22.7362 37.8814C22.6028 37.8425 22.4775 37.9682 22.3622 38.0837C22.2855 38.1606 22.2131 38.2329 22.1459 38.2494C22.0228 38.2797 21.9567 38.4305 21.908 38.5419C21.8827 38.5996 21.8621 38.647 21.8405 38.6613C21.8207 38.6571 21.8006 38.6521 21.7809 38.6467C21.7629 38.6356 21.7442 38.6241 21.7267 38.6278C21.7254 38.6281 21.7241 38.6287 21.7228 38.629C21.6127 38.5925 21.5045 38.5406 21.397 38.4889C21.1556 38.3727 20.9172 38.2577 20.6651 38.3226C20.6107 38.3365 20.5554 38.3988 20.4991 38.4621C20.4301 38.5396 20.3595 38.6189 20.2877 38.6132C20.1163 38.5996 19.9434 38.4969 19.773 38.3957C19.5168 38.2435 19.2665 38.0948 19.0363 38.258C18.9603 38.3118 18.8862 38.4015 18.8119 38.4919C18.7704 38.5423 18.7288 38.5931 18.6868 38.6375C18.6957 38.5551 18.7004 38.4776 18.7049 38.4054C18.714 38.2566 18.7218 38.1292 18.7622 38.021C18.8575 37.7652 18.9656 37.4132 18.9536 37.1564C18.9503 37.0867 18.9529 37.0091 18.9558 36.931C18.963 36.735 18.9704 36.5347 18.8819 36.4442C18.8222 36.3832 18.6689 36.2431 18.5713 36.393C18.5501 36.4257 18.5372 36.4904 18.5228 36.5624C18.4969 36.6917 18.4662 36.8448 18.3737 36.8804C18.3582 36.8864 18.3413 36.8918 18.3238 36.8969C18.2541 36.917 18.176 36.9392 18.1468 37.0431C18.1132 37.1628 18.1204 37.3 18.1287 37.4598C18.1396 37.6681 18.1526 37.9154 18.0802 38.2135C18.0658 38.2724 18.0385 38.2926 18.0178 38.3079C18.0032 38.3187 17.9921 38.3274 17.991 38.3451C17.9897 38.3655 17.9944 38.4078 18.0003 38.4615C18.0212 38.6506 18.0574 38.9812 17.906 38.9952C17.865 38.9989 17.8182 38.9832 17.7761 38.969C17.7142 38.948 17.6628 38.9307 17.6559 38.9848C17.6533 39.0053 17.6515 39.0276 17.65 39.0506C17.6007 39.0441 17.5514 39.0376 17.502 39.0311C17.4388 38.9667 17.35 38.9722 17.2392 38.9793C17.2123 38.9811 17.184 38.9827 17.1546 38.9836C17.0573 38.9703 16.9599 38.957 16.8627 38.9434C16.7855 38.9161 16.7035 38.8715 16.6168 38.8008C16.4432 38.6592 16.2921 38.4255 16.1445 38.197C16.0823 38.1008 16.0207 38.0052 15.9582 37.918C15.9826 37.9073 16.0045 37.8946 16.0215 37.8772C16.1372 37.7578 16.1837 37.523 16.2264 37.3069C16.2548 37.1632 16.2816 37.0276 16.326 36.9401C16.4074 36.7799 16.3992 36.5925 16.3932 36.4539C16.3901 36.3821 16.3878 36.3232 16.3986 36.2882C16.4073 36.2602 16.4275 36.247 16.4483 36.2334C16.4664 36.2215 16.4851 36.2091 16.4971 36.1865C16.6425 35.9121 16.5988 35.7529 16.5352 35.5212C16.5002 35.3933 16.4592 35.2434 16.4404 35.0398C16.4242 34.8244 16.4297 34.7613 16.5059 34.6755C16.4465 34.5691 16.3871 34.4627 16.3277 34.3562C16.3044 34.3632 16.2868 34.4297 16.262 34.5402C16.2176 34.7377 16.0733 34.8098 15.9605 34.8662C15.9083 34.8923 15.8628 34.9151 15.8371 34.9454C15.7007 35.1064 15.7403 35.3306 15.7753 35.5279C15.7945 35.6364 15.8123 35.7369 15.7984 35.8142C15.7926 35.8473 15.801 35.8801 15.8095 35.9135C15.816 35.9394 15.8227 35.9657 15.823 35.9927C15.8248 36.1892 15.7441 36.335 15.6692 36.4704C15.6263 36.5479 15.5853 36.6223 15.5627 36.7007C15.5559 36.7246 15.5504 36.7489 15.5452 36.7726C15.5377 36.8071 15.5304 36.84 15.519 36.8682C15.4929 36.9325 15.4392 36.9758 15.3804 37.023C15.3502 37.0472 15.3187 37.0725 15.2889 37.1022C15.2503 37.1407 15.2364 37.2184 15.2217 37.2996C15.2114 37.357 15.2005 37.416 15.1805 37.4647C15.1444 37.5527 15.0713 37.5845 15.0035 37.614C14.974 37.6268 14.9455 37.6396 14.9214 37.656C14.9116 37.6627 14.9069 37.6761 14.9059 37.6944C14.7946 37.7559 14.6883 37.8187 14.5849 37.8802C14.0664 38.1887 13.6176 38.4561 12.9474 38.2622C12.8206 38.2256 12.6846 38.2329 12.5471 38.2622C12.1072 38.1852 11.6671 38.1056 11.2274 38.024C11.1403 37.847 11.0339 37.6983 10.9078 37.5817C10.6711 37.3627 10.4276 37.3159 10.1403 37.2606C9.92787 37.2198 9.69145 37.1741 9.41595 37.051C8.95308 36.8442 8.47783 36.6692 7.94157 36.5782C7.40764 36.4877 6.79634 36.421 6.36387 36.3973C6.12811 36.3844 5.88048 36.226 5.64968 36.0786C5.32505 35.8713 5.03374 35.6855 4.85589 35.955C4.79909 36.0411 4.74419 36.1905 4.69075 36.3357C4.6527 36.4392 4.61517 36.5402 4.5784 36.6154C4.48052 36.592 4.38251 36.5689 4.28454 36.5453C4.11049 36.3658 3.84001 36.1733 3.57855 36.3735C3.47749 36.3488 3.37638 36.3242 3.27876 36.2992C3.06573 36.247 2.85731 36.1941 2.647 36.1408C2.57835 36.1232 2.50902 36.1055 2.43952 36.0878C2.43886 36.0876 2.4382 36.0874 2.43754 36.0872C2.29764 36.0515 2.15669 36.0155 2.01807 35.9793C1.95869 35.9639 1.89932 35.9485 1.83994 35.933C1.68906 35.8939 1.53708 35.8545 1.38772 35.8148C1.30867 35.7937 1.22886 35.7727 1.14891 35.7515C1.0192 35.7169 0.888519 35.6822 0.758504 35.6473C0.548241 35.5908 0.338964 35.5337 0.129287 35.4761C0.0949965 35.4666 0.0620439 35.4367 0.0378265 35.3914C0.0136178 35.346 -3.70065e-05 35.2892 7.53327e-08 35.2305C4.74904e-05 35.1719 0.0138176 35.1149 0.0381088 35.0697C0.0623837 35.0247 0.0953027 34.9955 0.12957 34.9862C0.339396 34.9302 0.54894 34.8748 0.759351 34.8199C0.88939 34.7859 1.02003 34.7517 1.14975 34.7181C1.22974 34.6975 1.30948 34.6771 1.38857 34.6566C1.53794 34.618 1.69017 34.5795 1.84107 34.5415C1.90045 34.5264 1.95982 34.5114 2.0192 34.4964C2.15819 34.4612 2.29953 34.4263 2.4398 34.3916C2.44065 34.3914 2.4415 34.3912 2.44234 34.391C2.51135 34.3739 2.58025 34.3568 2.64841 34.3398C2.85881 34.2881 3.06735 34.2369 3.28045 34.1863C3.39056 34.1589 3.5053 34.1322 3.6192 34.1052C3.68261 34.0902 3.7459 34.0751 3.80805 34.0601C3.84202 34.0522 3.87646 34.0443 3.91108 34.0364C4.70569 33.8491 5.4947 33.6688 6.29104 33.496C7.0844 33.3231 7.87916 33.1573 8.67156 32.9982C9.46588 32.839 10.2588 32.6867 11.0524 32.5406C16.0887 31.6128 21.1452 30.852 26.2038 30.3759C26.9254 30.3076 27.6657 30.2459 28.3887 30.1907C29.1196 30.1354 29.8355 30.0864 30.5682 30.0445C30.7908 30.0314 31.0189 30.0191 31.2531 30.0073Z" fill="black"/>
<path d="M31.0073 42.7469C30.9095 40.8509 31.8323 39.0262 31.834 37.1238C31.8363 34.7617 30.9545 32.362 31.1188 29.9944C31.283 27.6405 31.5189 25.2752 31.8097 22.9174C32.1005 20.557 32.4461 18.2001 32.829 15.8385C33.2118 13.482 33.6318 11.1203 34.0725 8.76189C34.3718 7.15997 34.6808 5.5563 34.9937 3.95455C35.1308 3.2514 35.2685 2.55036 35.4068 1.84756C35.5101 1.32326 35.6135 0.798973 35.7169 0.274666C35.7314 0.201775 35.7906 0.131943 35.8844 0.080452C35.9784 0.0289612 36.0988 -6.86646e-05 36.2232 0C36.3476 9.15527e-05 36.4682 0.0293579 36.5619 0.0810165C36.6553 0.132652 36.7136 0.202629 36.7276 0.275513C36.8278 0.804222 36.9279 1.33298 37.028 1.86168C37.1391 2.44896 37.2503 3.03519 37.3607 3.6223C36.8502 3.71473 36.463 3.8416 36.292 4.07932C36.2048 4.20065 36.1685 4.37755 36.2634 4.50784C36.3486 4.62481 36.5006 4.71294 36.6454 4.79662C36.7969 4.88411 36.9407 4.96719 36.9915 5.0741C37.0777 5.25554 37.2944 5.42796 37.5221 5.60903C37.605 5.67493 37.6894 5.74204 37.7695 5.81115C37.8733 6.37157 37.9763 6.93207 38.0784 7.49245C38.024 7.70892 37.9801 7.90794 38.001 8.07678C38.0198 8.22821 38.1276 8.36694 38.2618 8.50501C38.2774 8.59176 38.293 8.67852 38.3087 8.76528C38.4092 9.3252 38.508 9.88531 38.606 10.4454C38.4698 10.8825 38.3375 11.3406 38.2794 11.9362C38.2544 12.1929 38.1807 12.4462 38.1101 12.6896C38.0057 13.0492 37.9075 13.3875 37.9809 13.6841C38.0299 13.8824 37.9578 14.0909 37.8858 14.2989C37.7894 14.5779 37.693 14.8564 37.8895 15.1088C38.0131 15.2675 38.1633 15.4133 38.3026 15.5483C38.5243 15.7632 38.7181 15.9508 38.7315 16.1208C38.7566 16.4401 38.9181 16.7166 39.0605 16.9603C39.2318 17.2534 39.3756 17.4993 39.2207 17.7152C39.1973 17.7479 39.1661 17.7854 39.1306 17.8275C38.9436 18.0498 38.6445 18.4052 38.8089 18.9155C38.8674 19.0971 39.0196 19.2678 39.169 19.4349C39.3863 19.6781 39.5974 19.9144 39.5034 20.1674C39.4894 20.2052 39.4305 20.2447 39.3767 20.2806C39.3083 20.3263 39.2486 20.3662 39.3006 20.3898C39.4529 20.4592 39.6212 20.5692 39.8044 20.6888C39.939 20.7766 40.0817 20.8697 40.2315 20.9555C40.3162 21.611 40.3972 22.2667 40.474 22.9225C40.5092 23.223 40.5435 23.5235 40.577 23.8241C40.3477 23.9779 40.1411 24.1352 39.9848 24.3012C39.7805 24.5183 39.7179 24.7997 39.6369 25.1625C39.5772 25.4294 39.5075 25.7405 39.3645 26.1025C39.1 26.7726 39.1593 27.4609 39.3012 27.902C39.3312 27.9953 39.3632 28.0891 39.398 28.1894C39.5302 28.5699 39.6956 29.0446 39.8781 29.9464C40.0508 30.7994 40.0955 31.5248 40.1292 32.0697C40.1463 32.3479 40.1601 32.5791 40.187 32.7562C40.2331 33.0594 40.274 33.4316 40.315 33.8052C40.3791 34.39 40.4433 34.9784 40.5288 35.3115C40.5593 35.4301 40.597 35.5545 40.6373 35.6889C40.7489 36.0613 40.8836 36.5111 40.9614 37.1311C41.0431 37.7819 40.9874 38.1853 40.8664 38.6044C40.8172 38.7747 40.6226 38.9249 40.4216 39.0797C40.1364 39.2994 39.8387 39.5285 39.9275 39.8385C39.9482 39.9109 39.9946 39.9881 40.0433 40.0689C40.1326 40.2172 40.2295 40.3777 40.187 40.542C40.1722 40.5993 40.1194 40.6497 40.0676 40.6992C40.0107 40.7537 39.955 40.807 39.9519 40.8675C39.9403 41.0933 39.9535 41.313 39.9653 41.5083C39.9805 41.76 39.9932 41.9712 39.947 42.1022C39.8646 42.3357 39.9383 42.5911 40.0134 42.8497C40.0707 43.0472 40.129 43.2467 40.1182 43.4399C40.0872 43.992 40.2277 44.7511 40.4618 45.5334C40.5503 45.8293 40.4294 46.0801 40.2742 46.4014C40.1776 46.6013 40.0673 46.8284 39.9866 47.1108C39.9408 47.2709 40.0485 47.4065 40.148 47.532C40.2397 47.6476 40.3245 47.7548 40.2766 47.8648C40.2343 47.9619 40.0532 48.0233 39.8812 48.0816C39.6898 48.1465 39.5098 48.2075 39.5449 48.3097C39.5636 48.364 39.6542 48.4301 39.7618 48.5087C39.8043 48.5398 39.8494 48.5729 39.894 48.608C39.8573 48.6062 39.8244 48.6058 39.7995 48.6058C39.6239 48.6057 39.5313 48.7099 39.4407 48.8121C39.4045 48.853 39.3688 48.8936 39.328 48.927C39.1779 49.0499 39.1535 49.2827 39.1604 49.4606C39.1633 49.5358 39.1089 49.604 39.0453 49.6836C38.9888 49.7542 38.9251 49.8338 38.8881 49.9354C38.867 49.9933 38.8161 50.0377 38.7735 50.0745C38.7428 50.1012 38.7165 50.1238 38.7096 50.1448C38.7036 50.163 38.754 50.1777 38.8107 50.1942C38.8515 50.2061 38.8958 50.219 38.9246 50.2349C38.9936 50.2728 39.0144 50.3215 38.9923 50.3557C38.982 50.3715 38.9624 50.3839 38.9429 50.3963C38.9202 50.4108 38.8973 50.4251 38.8893 50.4449C38.8526 50.5356 38.9101 50.6239 38.9697 50.7156C39.0353 50.8164 39.1034 50.9215 39.0526 51.0385C39.0366 51.0754 38.9999 51.1146 38.9642 51.1526C38.927 51.1923 38.891 51.231 38.8814 51.2638C38.8425 51.3972 38.9681 51.5225 39.0837 51.6378C39.1605 51.7145 39.2328 51.7869 39.2494 51.8541C39.2797 51.9772 39.4305 52.0433 39.5418 52.092C39.5995 52.1173 39.6469 52.1379 39.6612 52.1595C39.657 52.1793 39.6521 52.1994 39.6466 52.2191C39.6355 52.2371 39.6241 52.2558 39.6277 52.2733C39.628 52.2746 39.6287 52.2759 39.629 52.2772C39.5924 52.3873 39.5405 52.4955 39.4888 52.603C39.3727 52.8444 39.2577 53.0828 39.3225 53.3349C39.3365 53.3893 39.3987 53.4446 39.462 53.5009C39.5395 53.5699 39.6188 53.6405 39.6131 53.7123C39.5995 53.8837 39.4968 54.0566 39.3956 54.227C39.2434 54.4832 39.0948 54.7335 39.2579 54.9637C39.3118 55.0397 39.4015 55.1138 39.4919 55.1881C39.5423 55.2296 39.5931 55.2712 39.6375 55.3132C39.555 55.3043 39.4776 55.2996 39.4054 55.2951C39.2565 55.286 39.1291 55.2782 39.0209 55.2378C38.7652 55.1425 38.4131 55.0344 38.1564 55.0464C38.0867 55.0497 38.0091 55.0471 37.9309 55.0442C37.7349 55.037 37.5347 55.0296 37.4441 55.1181C37.3831 55.1778 37.243 55.3311 37.393 55.4287C37.4256 55.4499 37.4904 55.4628 37.5623 55.4772C37.6916 55.5031 37.8447 55.5338 37.8804 55.6263C37.8864 55.6418 37.8918 55.6587 37.8968 55.6762C37.9169 55.7459 37.9391 55.824 38.043 55.8532C38.1628 55.8868 38.2999 55.8796 38.4598 55.8713C38.668 55.8604 38.9153 55.8474 39.2134 55.9198C39.2724 55.9342 39.2926 55.9615 39.3079 55.9822C39.3187 55.9968 39.3273 56.0079 39.345 56.009C39.3654 56.0103 39.4078 56.0056 39.4614 55.9997C39.6506 55.9788 39.9811 55.9426 39.9951 56.094C39.9989 56.135 39.9831 56.1818 39.9689 56.2239C39.948 56.2858 39.9307 56.3372 39.9848 56.3441C40.0053 56.3467 40.0275 56.3485 40.0506 56.35C40.0441 56.3993 40.0376 56.4486 40.0311 56.498C39.9666 56.5612 39.9721 56.65 39.9793 56.7608C39.981 56.7877 39.9826 56.816 39.9835 56.8454C39.9702 56.9427 39.9569 57.0401 39.9433 57.1373C39.916 57.2145 39.8715 57.2965 39.8008 57.3832C39.6591 57.5568 39.4255 57.7079 39.197 57.8555C39.1007 57.9177 39.0052 57.9793 38.9179 58.0418C38.9072 58.0174 38.8946 57.9955 38.8771 57.9785C38.7578 57.8628 38.523 57.8163 38.3069 57.7736C38.1631 57.7452 38.0275 57.7184 37.9401 57.674C37.7798 57.5926 37.5924 57.6008 37.4539 57.6068C37.382 57.6099 37.3231 57.6122 37.2882 57.6014C37.2601 57.5927 37.247 57.5725 37.2333 57.5517C37.2214 57.5336 37.209 57.5149 37.1864 57.5029C36.9121 57.3575 36.7529 57.4012 36.5211 57.4648C36.3933 57.4998 36.2433 57.5408 36.0398 57.5596C35.8243 57.5758 35.7613 57.5703 35.6754 57.4941C35.569 57.5535 35.4626 57.6129 35.3562 57.6723C35.3631 57.6956 35.4296 57.7132 35.5402 57.738C35.7376 57.7824 35.8098 57.9267 35.8661 58.0395C35.8922 58.0917 35.9151 58.1372 35.9453 58.1629C36.1063 58.2993 36.3305 58.2597 36.5278 58.2247C36.6364 58.2055 36.7369 58.1877 36.8142 58.2016C36.8472 58.2074 36.88 58.199 36.9135 58.1905C36.9393 58.184 36.9656 58.1773 36.9927 58.177C37.1891 58.1752 37.3349 58.2559 37.4703 58.3308C37.5479 58.3737 37.6223 58.4147 37.7006 58.4373C37.7245 58.4441 37.7489 58.4496 37.7725 58.4548C37.8071 58.4623 37.84 58.4696 37.8682 58.481C37.9324 58.5071 37.9757 58.5608 38.0229 58.6196C38.0471 58.6498 38.0724 58.6813 38.1021 58.7111C38.1407 58.7497 38.2184 58.7636 38.2995 58.7783C38.3569 58.7886 38.416 58.7995 38.4647 58.8195C38.5527 58.8556 38.5844 58.9287 38.6139 58.9965C38.6268 59.026 38.6395 59.0545 38.656 59.0786C38.6627 59.0884 38.676 59.0931 38.6943 59.0941C38.7558 59.2054 38.8186 59.3117 38.8802 59.4151C39.1886 59.9336 39.456 60.3824 39.2622 61.0526C39.2255 61.1794 39.2328 61.3154 39.2622 61.4529C39.1851 61.8928 39.1056 62.3329 39.024 62.7726C38.8469 62.8597 38.6983 62.9661 38.5816 63.0922C38.3626 63.3289 38.3158 63.5724 38.2605 63.8597C38.2197 64.0721 38.1741 64.3086 38.051 64.5841C37.8441 65.0469 37.6691 65.5222 37.5782 66.0584C37.4876 66.5924 37.4209 67.2037 37.3972 67.6361C37.3843 67.8719 37.2259 68.1195 37.0786 68.3503C36.8713 68.675 36.6855 68.9663 36.9549 69.1441C37.041 69.2009 37.1905 69.2558 37.3357 69.3092C37.4391 69.3473 37.5401 69.3848 37.6153 69.4216C37.592 69.5195 37.5689 69.6175 37.5453 69.7155C37.3657 69.8895 37.1732 70.16 37.3735 70.4215C37.3487 70.5225 37.3241 70.6236 37.2991 70.7212C37.2469 70.9343 37.194 71.1427 37.1407 71.353C37.1231 71.4216 37.1055 71.491 37.0877 71.5605C37.0875 71.5611 37.0873 71.5618 37.0871 71.5625C37.0514 71.7024 37.0154 71.8433 36.9793 71.9819C36.9638 72.0413 36.9484 72.1007 36.933 72.1601C36.8938 72.3109 36.8545 72.4629 36.8148 72.6123C36.7936 72.6913 36.7727 72.7711 36.7514 72.8511C36.7169 72.9808 36.6822 73.1115 36.6472 73.2415C36.5907 73.4518 36.5336 73.661 36.476 73.8707C36.4665 73.905 36.4366 73.938 36.3913 73.9622C36.346 73.9864 36.2891 74 36.2305 74C36.1718 74 36.1148 73.9862 36.0696 73.9619C36.0246 73.9376 35.9954 73.9047 35.9862 73.8704C35.9302 73.6606 35.8748 73.4511 35.8198 73.2406C35.7859 73.1106 35.7516 72.98 35.7181 72.8502C35.6974 72.7703 35.6771 72.6905 35.6566 72.6114C35.618 72.4621 35.5794 72.3098 35.5414 72.1589C35.5264 72.0996 35.5113 72.0402 35.4963 71.9808C35.4611 71.8418 35.4263 71.7005 35.3915 71.5602C35.3913 71.5594 35.3911 71.5585 35.3909 71.5577C35.3738 71.4886 35.3567 71.4198 35.3397 71.3516C35.288 71.1412 35.2368 70.9327 35.1862 70.7195C35.1589 70.6094 35.1322 70.4947 35.1052 70.3808C35.0901 70.3174 35.075 70.2541 35.0601 70.192C35.0521 70.158 35.0442 70.1235 35.0363 70.0889C34.849 69.2943 34.6688 68.5053 34.4959 67.709C34.323 66.9156 34.1573 66.1208 33.9981 65.3284C33.839 64.5341 33.6867 63.7412 33.5406 62.9476C32.6127 57.9113 31.852 52.8548 31.3759 47.7962C31.3075 47.0746 31.2459 46.3343 31.1906 45.6113C31.1354 44.8804 31.0863 44.1645 31.0444 43.4318C31.0313 43.2092 31.019 42.9811 31.0073 42.7469Z" fill="black"/>
<circle cx="57.7675" cy="10.7675" r="3.3234" transform="rotate(8.2828 57.7675 10.7675)" fill="black"/>
<path d="M51.8176 12.8977C51.4109 11.9248 51.871 10.8793 51.9968 9.98901C51.9995 9.9689 52.0022 9.94876 52.0048 9.92859C52.1337 8.8367 52.2175 7.42809 53.1494 6.55244C54.0633 5.69445 55.2502 5.1791 56.4327 5.08362C57.1708 5.02129 57.9034 5.12034 58.5562 5.34958C58.9496 5.48704 59.322 5.67168 59.6589 5.89496C60.5576 6.48764 61.1824 7.35165 61.4663 8.23996C61.662 8.84378 61.7072 9.4604 61.624 10.0209C61.5878 10.267 61.5276 10.5021 61.447 10.7225C61.3869 10.8866 61.3155 11.0435 61.2352 11.1898C61.2239 11.2102 61.1859 11.2262 61.1281 11.2332C61.0702 11.2402 60.9976 11.2378 60.9237 11.227C60.8498 11.2162 60.7794 11.198 60.7255 11.1772C60.6718 11.1564 60.6394 11.1348 60.6332 11.116C60.5893 10.9801 60.5359 10.8505 60.4743 10.7301C60.406 10.596 60.3276 10.4724 60.2421 10.3603C60.5411 10.2914 60.7648 10.2193 60.8527 10.1363C60.8976 10.0942 60.908 10.041 60.8444 10.0204C60.7872 10.0019 60.6931 10.0025 60.6038 10.0049C60.5103 10.0075 60.422 10.0122 60.3859 9.99714C60.3243 9.97141 60.1883 9.97337 60.0472 9.98315C59.9958 9.98665 59.9436 9.99107 59.8939 9.99509C59.7985 9.91537 59.6994 9.84646 59.5986 9.78816C59.6094 9.7391 59.6139 9.69415 59.5874 9.67444C59.5635 9.65672 59.4952 9.66965 59.4152 9.6943C59.3994 9.68725 59.3836 9.68046 59.3677 9.67392C59.2657 9.63156 59.1639 9.59937 59.0637 9.57709C59.0797 9.47384 59.0826 9.36375 59.0295 9.27285C59.0067 9.23389 59.0011 9.17301 58.9922 9.11354C58.9796 9.02611 58.9587 8.94129 58.8896 8.95033C58.8438 8.9566 58.8344 8.90098 58.8211 8.84441C58.8043 8.76911 58.7785 8.69158 58.6862 8.77887C58.6284 8.83388 58.5689 8.9063 58.5163 8.97497C58.4326 9.0842 58.3669 9.18376 58.3415 9.18314C58.2934 9.1818 58.2264 9.26258 58.1741 9.3367C58.1101 9.42555 58.0665 9.50397 58.0611 9.40775C58.0602 9.39316 58.0596 9.37389 58.0586 9.35198C58.0557 9.27102 58.046 9.15509 58.0068 9.12351C57.9905 9.11016 57.9695 9.11217 57.945 9.13904C57.9157 9.17115 57.884 9.26011 57.858 9.34819C57.8192 9.47639 57.7936 9.60223 57.7684 9.54574C57.7646 9.53729 57.7605 9.50197 57.7563 9.46972C57.7512 9.42871 57.7459 9.39295 57.7437 9.42415C57.7371 9.51563 57.7279 9.61689 57.7219 9.72715C57.7174 9.80815 57.7147 9.89404 57.7147 9.9841C57.6752 10.0375 57.6448 10.0917 57.6217 10.1444C57.6112 10.1686 57.6021 10.1925 57.5945 10.216C57.5457 10.0872 57.4956 9.97319 57.4512 9.88953C57.393 9.78032 57.3544 9.75481 57.3027 9.72471C57.2642 9.7028 57.2186 9.67817 57.1422 9.62222C56.9984 9.51943 56.9373 9.60415 56.9508 9.70175C56.9532 9.72257 56.9567 9.74423 56.9612 9.76744C56.979 9.85521 57.0044 9.96342 57.0323 10.0943C57.0601 10.2172 57.055 10.2726 57.0508 10.3166C57.049 10.3387 57.0482 10.3568 57.0565 10.375C57.0708 10.4063 57.0821 10.4385 57.0955 10.4692C57.1162 10.5171 57.1424 10.5611 57.1869 10.592C57.2027 10.603 57.2229 10.615 57.2447 10.6271C57.3007 10.6586 57.3697 10.6899 57.4141 10.7161C57.4175 10.7181 57.4208 10.7201 57.4239 10.7221C57.4698 10.7498 57.4364 10.7537 57.3635 10.7678C57.3339 10.7731 57.2172 10.7795 57.0969 10.7921C56.9262 10.8087 56.7489 10.8415 56.8045 10.8626C56.8174 10.8672 56.8457 10.8704 56.8754 10.873C56.93 10.8781 56.9889 10.88 56.9654 10.8946C56.9572 10.8998 56.9265 10.9083 56.8965 10.9171C56.8635 10.9268 56.8314 10.9369 56.8304 10.942C56.8268 10.9609 56.8384 10.9766 56.8489 10.9898C56.8625 11.0069 56.8742 11.0203 56.8506 11.0382C56.8086 11.0705 56.8579 11.0786 56.907 11.0814C56.9446 11.084 56.9822 11.084 56.9817 11.0992C56.9799 11.1436 57.0845 11.1617 57.2263 11.1209C57.2796 11.1053 57.2261 11.1554 57.1652 11.2292C57.1271 11.2748 57.0859 11.3293 57.0642 11.3783C57.052 11.4061 57.1079 11.3716 57.1576 11.3374C57.2037 11.3061 57.2447 11.2754 57.2291 11.3006C57.2154 11.3228 57.1417 11.4028 57.0731 11.48C56.9966 11.5658 56.9265 11.6483 56.9487 11.6403C56.9604 11.6359 57.0024 11.6008 57.0512 11.5579C57.0705 11.5409 57.0908 11.5228 57.1108 11.5049C57.096 11.5212 57.0828 11.5358 57.0729 11.5469C57.0024 11.6253 56.973 11.6735 56.9457 11.7219C56.9348 11.7412 56.9243 11.7604 56.9113 11.7815C56.8636 11.8591 56.8769 11.889 56.8965 11.8988C56.9047 11.9029 56.8914 11.9339 56.8768 11.9705C56.8637 12.003 56.8496 12.0401 56.8479 12.0661C56.8469 12.081 56.8343 12.1095 56.8241 12.1334C56.8166 12.1507 56.8104 12.1655 56.8105 12.1707C56.8107 12.1751 56.8295 12.1513 56.8505 12.1244C56.8656 12.1051 56.8819 12.0841 56.8933 12.0709C56.9206 12.0393 56.9325 12.0323 56.9289 12.0458C56.9272 12.0521 56.9221 12.0628 56.9171 12.0735C56.9112 12.0859 56.9053 12.0985 56.905 12.104C56.9033 12.1291 56.9321 12.1065 56.961 12.0823C56.9929 12.0557 57.0245 12.027 57.0219 12.0607C57.0211 12.0713 57.0144 12.0929 57.0082 12.1139C57.0017 12.136 56.9958 12.1573 56.9969 12.1645C57.0015 12.1938 57.0523 12.1353 57.0964 12.08C57.1259 12.0433 57.1527 12.0082 57.164 12.0026C57.1849 11.9926 57.2301 11.9138 57.2625 11.8552C57.2793 11.8248 57.2929 11.7998 57.2984 11.7928C57.299 11.7959 57.2995 11.7994 57.2999 11.8031C57.2987 11.8099 57.2975 11.8169 57.3 11.8156C57.3001 11.8155 57.3004 11.8152 57.3006 11.815C57.3013 11.8394 57.299 11.8722 57.2974 11.9051C57.2935 11.9789 57.2966 12.0538 57.3362 12.0261C57.3446 12.0202 57.3623 11.9867 57.3796 11.9524C57.4009 11.9104 57.4216 11.867 57.4273 11.8723C57.4408 11.8849 57.4403 11.9488 57.4435 12.0123C57.4473 12.1077 57.4615 12.2022 57.5074 12.1113C57.5222 12.0812 57.5403 12.0298 57.5573 11.9777C57.5668 11.9487 57.5761 11.9193 57.5845 11.8937C57.5757 11.9424 57.5677 11.9881 57.5603 12.0308C57.5449 12.1188 57.5317 12.1941 57.5157 12.2573C57.4785 12.4066 57.4233 12.6112 57.397 12.763C57.39 12.8043 57.3811 12.85 57.3721 12.896C57.3495 13.0114 57.3255 13.1292 57.3342 13.186C57.3396 13.2242 57.3595 13.3128 57.394 13.2269C57.4015 13.2082 57.4099 13.1702 57.4191 13.1279C57.4235 13.1077 57.4281 13.0865 57.4329 13.0658C57.446 13.009 57.4602 12.9569 57.4749 12.9431C57.4783 12.9399 57.4819 12.9371 57.4855 12.9346C57.5001 12.9243 57.5162 12.9128 57.5285 12.8515C57.5427 12.7808 57.5505 12.6988 57.5601 12.6034C57.5723 12.479 57.5886 12.3315 57.6171 12.1548C57.6227 12.1198 57.6272 12.1081 57.6305 12.0992C57.6328 12.0929 57.6346 12.0879 57.6358 12.0773C57.6372 12.0652 57.6393 12.0398 57.6419 12.0078C57.6511 11.8946 57.6697 11.6972 57.6824 11.69C57.6859 11.6881 57.6888 11.6978 57.6916 11.7066C57.6956 11.7196 57.6992 11.7302 57.7021 11.6979C57.7032 11.6856 57.7043 11.6723 57.7055 11.6586C57.709 11.6627 57.7126 11.6669 57.7162 11.671C57.7188 11.7099 57.7263 11.707 57.7353 11.7031C57.7375 11.7021 57.7398 11.7012 57.7422 11.7007C57.7497 11.709 57.7574 11.7171 57.7652 11.7253C57.7714 11.7418 57.778 11.7685 57.7863 11.8108C57.8027 11.8955 57.8225 12.0352 57.8474 12.1711C57.8579 12.2284 57.8693 12.2851 57.8813 12.3367C57.8785 12.3434 57.8761 12.3511 57.8745 12.3617C57.8635 12.4342 57.8639 12.5752 57.8631 12.7051C57.8625 12.7914 57.8614 12.8729 57.8554 12.9257C57.8441 13.0223 57.8486 13.1346 57.8528 13.2177C57.8548 13.2607 57.8566 13.296 57.8549 13.3171C57.8536 13.3339 57.8494 13.342 57.8451 13.3503C57.8413 13.3575 57.8374 13.3651 57.8351 13.3787C57.8063 13.544 57.8155 13.6393 57.8351 13.778C57.8456 13.8545 57.8589 13.9442 57.8678 14.0661C57.8761 14.1951 57.8761 14.233 57.8546 14.2851C57.8738 14.3485 57.894 14.4118 57.9152 14.4748C57.9224 14.4704 57.9263 14.4303 57.931 14.3637C57.9394 14.2448 57.979 14.1994 58.0093 14.1633C58.0233 14.1466 58.0352 14.132 58.0411 14.1133C58.0718 14.0138 58.0473 13.8808 58.0286 13.7636C58.0181 13.6991 58.0089 13.6394 58.0083 13.5929C58.008 13.573 58.0044 13.5536 58.0007 13.5338C57.9979 13.5184 57.995 13.5028 57.9937 13.4867C57.9838 13.3692 57.9943 13.2805 58.0019 13.1982C58.0063 13.1511 58.0099 13.1058 58.0093 13.0586C58.0092 13.0442 58.0087 13.0296 58.0082 13.0153C58.0074 12.9946 58.0067 12.9748 58.007 12.9577C58.0077 12.9189 58.0146 12.892 58.0216 12.8626C58.0252 12.8476 58.0289 12.8318 58.0318 12.8135C58.0355 12.7897 58.0317 12.7431 58.0276 12.6946C58.0247 12.6602 58.0217 12.6249 58.0208 12.5955C58.0192 12.5424 58.0273 12.522 58.0345 12.503C58.0376 12.4947 58.0406 12.4865 58.0425 12.4762C58.0433 12.472 58.0427 12.464 58.041 12.4531C58.051 12.4142 58.059 12.3745 58.0657 12.3356C58.1013 12.1398 58.0968 11.9758 58.2049 12.0624C58.2258 12.0785 58.2397 12.0689 58.2484 12.0468C58.3124 12.072 58.3809 12.0941 58.4536 12.1118C58.512 12.2012 58.567 12.2732 58.6173 12.3254C58.7122 12.4233 58.7625 12.4266 58.8206 12.429C58.864 12.4305 58.9119 12.4315 58.9949 12.4626C59.1343 12.5148 59.2746 12.5372 59.3913 12.5029C59.5075 12.4694 59.6245 12.4013 59.693 12.3392C59.7303 12.306 59.8373 12.3227 59.9399 12.3317C60.0835 12.3455 60.2183 12.3425 60.1033 12.2214C60.0665 12.1828 59.9966 12.1252 59.9279 12.0704C59.8789 12.0314 59.8308 11.9937 59.7957 11.9645C59.8177 11.9548 59.8395 11.9447 59.8616 11.9342C59.9724 11.9567 60.1042 11.9549 60.0204 11.8517C60.0431 11.8388 60.0655 11.8255 60.0878 11.8125C60.1352 11.7834 60.1822 11.7534 60.2289 11.7211C60.2443 11.7106 60.2597 11.6996 60.2752 11.6885C60.2753 11.6884 60.2755 11.6883 60.2757 11.6882C60.3067 11.6658 60.3376 11.6424 60.3682 11.6185C60.3813 11.6082 60.3943 11.5978 60.4073 11.5872C60.4402 11.5603 60.4728 11.5323 60.5051 11.5036C60.5223 11.4885 60.5393 11.4726 60.5563 11.4569C60.584 11.4312 60.6115 11.4044 60.6387 11.3769C60.6828 11.3322 60.726 11.2868 60.7686 11.2383C60.7756 11.2304 60.7946 11.2247 60.8224 11.2223C60.8503 11.22 60.8846 11.2213 60.9194 11.2263C60.9542 11.2314 60.9875 11.2401 61.0133 11.2508C61.0391 11.2615 61.0549 11.2734 61.0589 11.2839C61.0829 11.3481 61.1049 11.4124 61.1244 11.4797C61.1365 11.5211 61.148 11.5631 61.1584 11.6051C61.1648 11.6309 61.1706 11.6572 61.1764 11.6833C61.1872 11.7326 61.1967 11.7831 61.2049 11.8339C61.2082 11.854 61.2112 11.8741 61.2141 11.8943C61.2209 11.9416 61.2265 11.9897 61.2309 12.0382C61.2309 12.0385 61.2309 12.0388 61.231 12.0391C61.2331 12.063 61.2351 12.0869 61.2368 12.1107C61.2418 12.1839 61.2445 12.2573 61.2439 12.3328C61.2442 12.3721 61.243 12.4126 61.2412 12.4534C61.2402 12.4761 61.2391 12.4988 61.2378 12.5212C61.237 12.5334 61.236 12.5457 61.235 12.558C61.2139 12.8438 61.1556 13.134 61.0567 13.4214C60.9585 13.7081 60.8209 13.9903 60.6471 14.2574C60.4728 14.5249 60.262 14.7775 60.0178 15.0065C59.261 15.7251 58.1533 16.2072 56.9694 16.2494C55.7508 16.3056 54.4239 15.8765 53.3973 15.0204C53.1077 14.7819 52.8349 14.5035 52.597 14.2052C52.3567 13.9035 52.149 13.5818 51.9722 13.2312C51.9184 13.1249 51.8667 13.0136 51.8176 12.8977Z" fill="black"/>
</svg>
