<svg width="74" height="74" viewBox="0 0 74 74" fill="none" xmlns="http://www.w3.org/2000/svg">
<path d="M31.2531 30.0073C33.1491 29.9095 34.9738 30.8323 36.8762 30.8341C39.2383 30.8364 41.638 29.9546 44.0056 30.1188C46.3595 30.2831 48.7248 30.5189 51.0826 30.8097C53.443 31.1005 55.7999 31.4462 58.1615 31.829C60.518 32.2119 62.8797 32.6318 65.2381 33.0725C66.84 33.3719 68.4437 33.6809 70.0454 33.9937C70.7486 34.1309 71.4496 34.2686 72.1524 34.4068C72.6767 34.5102 73.201 34.6136 73.7253 34.7169C73.7982 34.7315 73.8681 34.7906 73.9195 34.8845C73.971 34.9785 74.0001 35.0988 74 35.2232C73.9999 35.3477 73.9706 35.4683 73.919 35.562C73.8673 35.6554 73.7974 35.7137 73.7245 35.7277C73.1958 35.8278 72.667 35.9279 72.1383 36.0281C71.551 36.1391 70.9648 36.2504 70.3777 36.3607C70.2853 35.8503 70.1584 35.4631 69.9207 35.2921C69.7994 35.2049 69.6225 35.1686 69.4922 35.2634C69.3752 35.3487 69.2871 35.5006 69.2034 35.6454C69.1159 35.7969 69.0328 35.9407 68.9259 35.9915C68.7445 36.0778 68.572 36.2945 68.391 36.5222C68.3251 36.6051 68.258 36.6895 68.1889 36.7695C67.6284 36.8733 67.0679 36.9763 66.5076 37.0784C66.2911 37.0241 66.0921 36.9801 65.9232 37.0011C65.7718 37.0198 65.6331 37.1277 65.495 37.2618C65.4082 37.2775 65.3215 37.2931 65.2347 37.3087C64.6748 37.4092 64.1147 37.5081 63.5546 37.6061C63.1175 37.4699 62.6594 37.3376 62.0638 37.2795C61.8071 37.2545 61.5538 37.1808 61.3104 37.1101C60.9508 37.0057 60.6125 36.9076 60.3159 36.981C60.1176 37.03 59.9091 36.9579 59.7011 36.8859C59.4221 36.7894 59.1436 36.6931 58.8912 36.8896C58.7325 37.0131 58.5867 37.1633 58.4517 37.3026C58.2368 37.5243 58.0492 37.7182 57.8792 37.7316C57.5599 37.7566 57.2834 37.9181 57.0397 38.0606C56.7466 38.2319 56.5007 38.3757 56.2848 38.2208C56.2521 38.1973 56.2146 38.1661 56.1725 38.1306C55.9502 37.9436 55.5948 37.6445 55.0845 37.8089C54.9029 37.8675 54.7323 38.0197 54.5651 38.169C54.3219 38.3864 54.0856 38.5974 53.8326 38.5035C53.7948 38.4895 53.7553 38.4306 53.7194 38.3768C53.6737 38.3084 53.6338 38.2487 53.6102 38.3006C53.5408 38.4529 53.4308 38.6213 53.3112 38.8045C53.2234 38.9391 53.1303 39.0818 53.0445 39.2316C52.3889 39.3162 51.7333 39.3973 51.0775 39.4741C50.7771 39.5093 50.4765 39.5436 50.1759 39.577C50.0221 39.3477 49.8649 39.1411 49.6988 38.9848C49.4817 38.7806 49.2003 38.718 48.8375 38.6369C48.5706 38.5773 48.2595 38.5075 47.8975 38.3646C47.2274 38.1 46.5391 38.1594 46.098 38.3012C46.0047 38.3312 45.9109 38.3633 45.8106 38.3981C45.4301 38.5302 44.9554 38.6957 44.0536 38.8782C43.2006 39.0508 42.4752 39.0956 41.9303 39.1292C41.6521 39.1464 41.4209 39.1602 41.2438 39.1871C40.9406 39.2331 40.5684 39.2741 40.1948 39.315C39.61 39.3791 39.0216 39.4433 38.6885 39.5289C38.5699 39.5594 38.4455 39.5971 38.3111 39.6373C37.9387 39.749 37.4889 39.8837 36.8689 39.9615C36.2181 40.0432 35.8147 39.9875 35.3956 39.8664C35.2253 39.8172 35.0751 39.6227 34.9203 39.4217C34.7006 39.1364 34.4715 38.8387 34.1615 38.9276C34.0891 38.9483 34.0119 38.9947 33.9311 39.0433C33.7828 39.1327 33.6223 39.2296 33.458 39.1871C33.4007 39.1723 33.3503 39.1195 33.3008 39.0677C33.2463 39.0107 33.193 38.955 33.1325 38.9519C32.9067 38.9404 32.687 38.9535 32.4917 38.9653C32.24 38.9806 32.0288 38.9932 31.8978 38.9471C31.6643 38.8647 31.4089 38.9384 31.1503 39.0135C30.9528 39.0708 30.7533 39.1291 30.5601 39.1183C30.008 39.0872 29.2489 39.2278 28.4666 39.4619C28.1707 39.5504 27.9199 39.4295 27.5986 39.2742C27.3987 39.1777 27.1716 39.0674 26.8892 38.9867C26.7291 38.9409 26.5935 39.0486 26.468 39.1481C26.3524 39.2398 26.2452 39.3245 26.1352 39.2767C26.0381 39.2343 25.9767 39.0533 25.9184 38.8813C25.8535 38.6898 25.7925 38.5098 25.6903 38.5449C25.636 38.5636 25.5699 38.6542 25.4913 38.7618C25.4602 38.8044 25.4271 38.8494 25.392 38.894C25.3938 38.8573 25.3942 38.8245 25.3942 38.7996C25.3943 38.6239 25.2901 38.5314 25.1879 38.4408C25.147 38.4046 25.1064 38.3688 25.073 38.328C24.9501 38.1779 24.7173 38.1535 24.5394 38.1605C24.4642 38.1634 24.396 38.1089 24.3164 38.0453C24.2458 37.9889 24.1662 37.9252 24.0646 37.8882C24.0067 37.867 23.9623 37.8161 23.9255 37.7736C23.8989 37.7428 23.8762 37.7165 23.8552 37.7096C23.837 37.7037 23.8223 37.7541 23.8058 37.8108C23.7939 37.8516 23.781 37.8958 23.7651 37.9247C23.7272 37.9937 23.6785 38.0145 23.6443 37.9923C23.6285 37.9821 23.6161 37.9625 23.6037 37.943C23.5892 37.9203 23.5749 37.8974 23.5551 37.8894C23.4644 37.8527 23.3761 37.9101 23.2844 37.9698C23.1836 38.0354 23.0785 38.1035 22.9615 38.0527C22.9246 38.0366 22.8854 37.9999 22.8474 37.9643C22.8077 37.927 22.769 37.891 22.7362 37.8814C22.6028 37.8425 22.4775 37.9682 22.3622 38.0837C22.2855 38.1606 22.2131 38.2329 22.1459 38.2494C22.0228 38.2797 21.9567 38.4305 21.908 38.5419C21.8827 38.5996 21.8621 38.647 21.8405 38.6613C21.8207 38.6571 21.8006 38.6521 21.7809 38.6467C21.7629 38.6356 21.7442 38.6241 21.7267 38.6278C21.7254 38.6281 21.7241 38.6287 21.7228 38.629C21.6127 38.5925 21.5045 38.5406 21.397 38.4889C21.1556 38.3727 20.9172 38.2577 20.6651 38.3226C20.6107 38.3365 20.5554 38.3988 20.4991 38.4621C20.4301 38.5396 20.3595 38.6189 20.2877 38.6132C20.1163 38.5996 19.9434 38.4969 19.773 38.3957C19.5168 38.2435 19.2665 38.0948 19.0363 38.258C18.9603 38.3118 18.8862 38.4015 18.8119 38.4919C18.7704 38.5423 18.7288 38.5931 18.6868 38.6375C18.6957 38.5551 18.7004 38.4776 18.7049 38.4054C18.714 38.2566 18.7218 38.1292 18.7622 38.021C18.8575 37.7652 18.9656 37.4132 18.9536 37.1564C18.9503 37.0867 18.9529 37.0091 18.9558 36.931C18.963 36.735 18.9704 36.5347 18.8819 36.4442C18.8222 36.3832 18.6689 36.2431 18.5713 36.393C18.5501 36.4257 18.5372 36.4904 18.5228 36.5624C18.4969 36.6917 18.4662 36.8448 18.3737 36.8804C18.3582 36.8864 18.3413 36.8918 18.3238 36.8969C18.2541 36.917 18.176 36.9392 18.1468 37.0431C18.1132 37.1628 18.1204 37.3 18.1287 37.4598C18.1396 37.6681 18.1526 37.9154 18.0802 38.2135C18.0658 38.2724 18.0385 38.2926 18.0178 38.3079C18.0032 38.3187 17.9921 38.3274 17.991 38.3451C17.9897 38.3655 17.9944 38.4078 18.0003 38.4615C18.0212 38.6506 18.0574 38.9812 17.906 38.9952C17.865 38.9989 17.8182 38.9832 17.7761 38.969C17.7142 38.948 17.6628 38.9307 17.6559 38.9848C17.6533 39.0053 17.6515 39.0276 17.65 39.0506C17.6007 39.0441 17.5514 39.0376 17.502 39.0311C17.4388 38.9667 17.35 38.9722 17.2392 38.9793C17.2123 38.9811 17.184 38.9827 17.1546 38.9836C17.0573 38.9703 16.9599 38.957 16.8627 38.9434C16.7855 38.9161 16.7035 38.8715 16.6168 38.8008C16.4432 38.6592 16.2921 38.4255 16.1445 38.197C16.0823 38.1008 16.0207 38.0052 15.9582 37.918C15.9826 37.9073 16.0045 37.8946 16.0215 37.8772C16.1372 37.7578 16.1837 37.523 16.2264 37.3069C16.2548 37.1632 16.2816 37.0276 16.326 36.9401C16.4074 36.7799 16.3992 36.5925 16.3932 36.4539C16.3901 36.3821 16.3878 36.3232 16.3986 36.2882C16.4073 36.2602 16.4275 36.247 16.4483 36.2334C16.4664 36.2215 16.4851 36.2091 16.4971 36.1865C16.6425 35.9121 16.5988 35.7529 16.5352 35.5212C16.5002 35.3933 16.4592 35.2434 16.4404 35.0398C16.4242 34.8244 16.4297 34.7613 16.5059 34.6755C16.4465 34.5691 16.3871 34.4627 16.3277 34.3562C16.3044 34.3632 16.2868 34.4297 16.262 34.5402C16.2176 34.7377 16.0733 34.8098 15.9605 34.8662C15.9083 34.8923 15.8628 34.9151 15.8371 34.9454C15.7007 35.1064 15.7403 35.3306 15.7753 35.5279C15.7945 35.6364 15.8123 35.7369 15.7984 35.8142C15.7926 35.8473 15.801 35.8801 15.8095 35.9135C15.816 35.9394 15.8227 35.9657 15.823 35.9927C15.8248 36.1892 15.7441 36.335 15.6692 36.4704C15.6263 36.5479 15.5853 36.6223 15.5627 36.7007C15.5558 36.7246 15.5504 36.7489 15.5452 36.7726C15.5377 36.8071 15.5304 36.84 15.519 36.8682C15.4929 36.9325 15.4392 36.9758 15.3804 37.023C15.3502 37.0472 15.3187 37.0725 15.2889 37.1022C15.2503 37.1407 15.2364 37.2184 15.2217 37.2996C15.2114 37.357 15.2005 37.416 15.1805 37.4647C15.1444 37.5527 15.0713 37.5845 15.0035 37.614C14.974 37.6268 14.9455 37.6396 14.9214 37.656C14.9116 37.6627 14.9069 37.6761 14.9059 37.6944C14.7946 37.7559 14.6883 37.8187 14.5849 37.8802C14.0664 38.1887 13.6176 38.4561 12.9474 38.2622C12.8206 38.2256 12.6846 38.2329 12.5471 38.2622C12.1072 38.1852 11.6671 38.1056 11.2274 38.024C11.1403 37.847 11.0339 37.6983 10.9078 37.5817C10.6711 37.3627 10.4276 37.3159 10.1403 37.2606C9.92787 37.2198 9.69145 37.1741 9.41595 37.051C8.95308 36.8442 8.47783 36.6692 7.94157 36.5782C7.40764 36.4877 6.79634 36.421 6.36387 36.3973C6.12811 36.3844 5.88048 36.226 5.64968 36.0786C5.32505 35.8713 5.03374 35.6855 4.85589 35.955C4.79909 36.0411 4.74419 36.1905 4.69075 36.3357C4.6527 36.4392 4.61517 36.5402 4.5784 36.6154C4.48052 36.592 4.38251 36.5689 4.28454 36.5453C4.11049 36.3658 3.84001 36.1733 3.57855 36.3735C3.47749 36.3488 3.37638 36.3242 3.27876 36.2992C3.06573 36.247 2.85731 36.1941 2.647 36.1408C2.57835 36.1232 2.50902 36.1055 2.43952 36.0878C2.43886 36.0876 2.4382 36.0874 2.43754 36.0872C2.29764 36.0515 2.15669 36.0155 2.01807 35.9793C1.95869 35.9639 1.89932 35.9485 1.83994 35.933C1.68906 35.8939 1.53708 35.8545 1.38772 35.8148C1.30867 35.7937 1.22886 35.7727 1.14891 35.7515C1.0192 35.7169 0.888519 35.6822 0.758504 35.6473C0.548241 35.5908 0.338964 35.5337 0.129287 35.4761C0.0949965 35.4666 0.0620439 35.4367 0.0378265 35.3914C0.0136178 35.346 -3.70065e-05 35.2892 7.53327e-08 35.2305C4.74904e-05 35.1719 0.0138176 35.1149 0.0381088 35.0697C0.0623837 35.0247 0.0953027 34.9955 0.12957 34.9862C0.339396 34.9302 0.54894 34.8748 0.759351 34.8199C0.88939 34.7859 1.02003 34.7517 1.14975 34.7181C1.22974 34.6975 1.30948 34.6771 1.38857 34.6566C1.53794 34.618 1.69017 34.5795 1.84107 34.5415C1.90045 34.5264 1.95982 34.5114 2.0192 34.4964C2.15819 34.4612 2.29953 34.4263 2.4398 34.3916C2.44065 34.3914 2.4415 34.3912 2.44234 34.391C2.51135 34.3739 2.58025 34.3568 2.64841 34.3398C2.85881 34.2881 3.06735 34.2369 3.28045 34.1863C3.39056 34.1589 3.5053 34.1322 3.6192 34.1052C3.68261 34.0902 3.7459 34.0751 3.80805 34.0601C3.84202 34.0522 3.87646 34.0443 3.91108 34.0364C4.70569 33.8491 5.4947 33.6688 6.29104 33.496C7.0844 33.3231 7.87916 33.1573 8.67156 32.9982C9.46588 32.839 10.2588 32.6867 11.0524 32.5406C16.0887 31.6128 21.1452 30.852 26.2038 30.3759C26.9254 30.3076 27.6657 30.2459 28.3887 30.1907C29.1196 30.1354 29.8355 30.0864 30.5682 30.0445C30.7908 30.0314 31.019 30.0191 31.2531 30.0073Z" fill="black"/>
<path d="M31.0073 42.7469C30.9095 40.8509 31.8323 39.0262 31.834 37.1238C31.8363 34.7617 30.9545 32.362 31.1188 29.9944C31.283 27.6405 31.5189 25.2752 31.8097 22.9174C32.1005 20.557 32.4461 18.2001 32.829 15.8385C33.2118 13.482 33.6318 11.1203 34.0725 8.76189C34.3718 7.15998 34.6808 5.55628 34.9937 3.95455C35.1308 3.2514 35.2685 2.55036 35.4068 1.84756C35.5101 1.32326 35.6135 0.798973 35.7169 0.274666C35.7314 0.201775 35.7906 0.131943 35.8844 0.080452C35.9784 0.0289612 36.0988 -6.86646e-05 36.2232 0C36.3476 0.000106812 36.4682 0.0293503 36.5619 0.0810165C36.6553 0.132652 36.7136 0.202629 36.7276 0.275513C36.8278 0.804222 36.9279 1.33298 37.028 1.86168C37.1391 2.44896 37.2503 3.03519 37.3607 3.6223C36.8502 3.71473 36.463 3.8416 36.292 4.07932C36.2048 4.20065 36.1685 4.37755 36.2634 4.50784C36.3486 4.62482 36.5006 4.71292 36.6454 4.79662C36.7969 4.88411 36.9407 4.96719 36.9915 5.0741C37.0777 5.25554 37.2944 5.42796 37.5221 5.60903C37.605 5.67493 37.6894 5.74204 37.7695 5.81115C37.8733 6.37157 37.9763 6.93207 38.0784 7.49245C38.024 7.70892 37.9801 7.90794 38.001 8.07678C38.0198 8.22821 38.1276 8.36694 38.2618 8.50501C38.2774 8.59176 38.293 8.67852 38.3087 8.76528C38.4092 9.3252 38.508 9.88531 38.606 10.4454C38.4698 10.8825 38.3375 11.3406 38.2794 11.9362C38.2544 12.1929 38.1807 12.4462 38.1101 12.6896C38.0057 13.0492 37.9075 13.3875 37.9809 13.6841C38.0299 13.8824 37.9578 14.0909 37.8858 14.2989C37.7894 14.5779 37.693 14.8564 37.8895 15.1088C38.0131 15.2675 38.1633 15.4133 38.3026 15.5483C38.5243 15.7632 38.7181 15.9508 38.7315 16.1208C38.7566 16.4401 38.9181 16.7166 39.0605 16.9603C39.2318 17.2534 39.3756 17.4993 39.2207 17.7152C39.1973 17.7479 39.1661 17.7854 39.1306 17.8275C38.9436 18.0498 38.6445 18.4052 38.8089 18.9155C38.8674 19.0971 39.0196 19.2677 39.169 19.4349C39.3863 19.6781 39.5974 19.9144 39.5034 20.1674C39.4894 20.2052 39.4305 20.2447 39.3767 20.2806C39.3083 20.3263 39.2486 20.3662 39.3006 20.3898C39.4529 20.4592 39.6212 20.5692 39.8044 20.6888C39.939 20.7766 40.0817 20.8697 40.2315 20.9555C40.3162 21.6111 40.3972 22.2667 40.474 22.9225C40.5092 23.2229 40.5435 23.5235 40.577 23.8241C40.3477 23.9779 40.1411 24.1351 39.9848 24.3012C39.7805 24.5183 39.7179 24.7997 39.6369 25.1625C39.5772 25.4294 39.5075 25.7405 39.3645 26.1025C39.1 26.7726 39.1593 27.4609 39.3012 27.902C39.3312 27.9953 39.3632 28.0891 39.398 28.1894C39.5302 28.5699 39.6957 29.0446 39.8781 29.9464C40.0508 30.7994 40.0955 31.5248 40.1292 32.0697C40.1463 32.3479 40.1601 32.5791 40.187 32.7562C40.2331 33.0594 40.274 33.4316 40.315 33.8052C40.3791 34.39 40.4433 34.9784 40.5288 35.3115C40.5593 35.4301 40.597 35.5545 40.6373 35.6889C40.7489 36.0613 40.8836 36.5111 40.9614 37.1311C41.0431 37.7819 40.9874 38.1853 40.8664 38.6044C40.8172 38.7747 40.6226 38.9249 40.4216 39.0797C40.1364 39.2994 39.8387 39.5285 39.9275 39.8385C39.9482 39.9109 39.9946 39.9881 40.0433 40.0689C40.1326 40.2172 40.2295 40.3777 40.187 40.542C40.1722 40.5993 40.1194 40.6497 40.0676 40.6992C40.0107 40.7537 39.955 40.807 39.9519 40.8675C39.9403 41.0933 39.9535 41.313 39.9653 41.5083C39.9805 41.76 39.9932 41.9712 39.947 42.1022C39.8646 42.3357 39.9383 42.5911 40.0134 42.8497C40.0707 43.0472 40.129 43.2467 40.1182 43.4399C40.0872 43.992 40.2277 44.7511 40.4618 45.5334C40.5503 45.8293 40.4294 46.0801 40.2742 46.4014C40.1776 46.6013 40.0673 46.8284 39.9866 47.1108C39.9408 47.2709 40.0485 47.4065 40.148 47.532C40.2397 47.6476 40.3245 47.7548 40.2766 47.8648C40.2343 47.9619 40.0532 48.0233 39.8812 48.0816C39.6898 48.1465 39.5098 48.2075 39.5449 48.3097C39.5636 48.364 39.6542 48.4301 39.7618 48.5087C39.8043 48.5398 39.8494 48.5729 39.894 48.608C39.8573 48.6062 39.8244 48.6058 39.7995 48.6058C39.6239 48.6057 39.5313 48.7099 39.4407 48.8121C39.4045 48.853 39.3688 48.8936 39.328 48.927C39.1779 49.0499 39.1535 49.2827 39.1604 49.4606C39.1633 49.5358 39.1089 49.604 39.0453 49.6836C38.9888 49.7542 38.9251 49.8338 38.8881 49.9354C38.867 49.9933 38.8161 50.0377 38.7735 50.0745C38.7428 50.1011 38.7165 50.1238 38.7096 50.1448C38.7036 50.163 38.754 50.1777 38.8107 50.1942C38.8515 50.2061 38.8958 50.219 38.9246 50.2349C38.9936 50.2728 39.0144 50.3215 38.9923 50.3557C38.982 50.3715 38.9624 50.3839 38.9429 50.3963C38.9202 50.4108 38.8973 50.4251 38.8893 50.4449C38.8526 50.5356 38.9101 50.6239 38.9697 50.7156C39.0353 50.8164 39.1034 50.9215 39.0526 51.0385C39.0366 51.0754 38.9999 51.1146 38.9642 51.1526C38.927 51.1923 38.891 51.231 38.8814 51.2638C38.8425 51.3972 38.9681 51.5225 39.0837 51.6378C39.1605 51.7145 39.2328 51.7869 39.2494 51.8541C39.2797 51.9772 39.4305 52.0433 39.5418 52.092C39.5995 52.1173 39.6469 52.1379 39.6612 52.1595C39.657 52.1793 39.6521 52.1994 39.6466 52.2191C39.6355 52.2371 39.6241 52.2558 39.6277 52.2733C39.628 52.2746 39.6287 52.2759 39.629 52.2772C39.5924 52.3873 39.5405 52.4955 39.4888 52.603C39.3727 52.8444 39.2577 53.0828 39.3225 53.3349C39.3365 53.3893 39.3987 53.4446 39.462 53.5009C39.5395 53.5699 39.6188 53.6405 39.6131 53.7123C39.5995 53.8837 39.4968 54.0566 39.3956 54.227C39.2434 54.4832 39.0948 54.7335 39.2579 54.9637C39.3118 55.0397 39.4015 55.1138 39.4919 55.1881C39.5423 55.2296 39.5931 55.2712 39.6375 55.3132C39.555 55.3043 39.4776 55.2996 39.4054 55.2951C39.2565 55.286 39.1291 55.2782 39.0209 55.2378C38.7652 55.1425 38.4131 55.0344 38.1564 55.0464C38.0867 55.0497 38.0091 55.0471 37.9309 55.0442C37.7349 55.037 37.5347 55.0296 37.4441 55.1181C37.3831 55.1778 37.243 55.3311 37.393 55.4287C37.4256 55.4499 37.4904 55.4628 37.5623 55.4772C37.6916 55.5031 37.8447 55.5338 37.8804 55.6263C37.8864 55.6418 37.8918 55.6587 37.8968 55.6762C37.9169 55.7459 37.9391 55.824 38.043 55.8532C38.1628 55.8868 38.2999 55.8796 38.4598 55.8713C38.668 55.8604 38.9153 55.8474 39.2134 55.9198C39.2724 55.9342 39.2926 55.9615 39.3079 55.9822C39.3187 55.9968 39.3273 56.0079 39.345 56.009C39.3654 56.0103 39.4078 56.0056 39.4614 55.9997C39.6506 55.9788 39.9811 55.9426 39.9951 56.094C39.9989 56.135 39.9831 56.1818 39.9689 56.2239C39.948 56.2858 39.9307 56.3372 39.9848 56.3441C40.0053 56.3467 40.0275 56.3485 40.0506 56.35C40.0441 56.3993 40.0376 56.4486 40.0311 56.498C39.9666 56.5612 39.9721 56.65 39.9793 56.7608C39.981 56.7877 39.9826 56.816 39.9835 56.8454C39.9702 56.9427 39.9569 57.0401 39.9433 57.1373C39.916 57.2145 39.8715 57.2965 39.8008 57.3832C39.6591 57.5568 39.4255 57.7079 39.197 57.8555C39.1007 57.9177 39.0052 57.9793 38.9179 58.0418C38.9072 58.0174 38.8946 57.9955 38.8771 57.9785C38.7578 57.8628 38.523 57.8163 38.3069 57.7736C38.1631 57.7452 38.0275 57.7184 37.9401 57.674C37.7798 57.5926 37.5924 57.6008 37.4539 57.6068C37.382 57.6099 37.3231 57.6122 37.2882 57.6014C37.2601 57.5927 37.247 57.5725 37.2333 57.5517C37.2214 57.5336 37.209 57.5149 37.1864 57.5029C36.9121 57.3575 36.7529 57.4012 36.5211 57.4648C36.3933 57.4998 36.2433 57.5408 36.0398 57.5596C35.8243 57.5758 35.7613 57.5703 35.6754 57.4941C35.569 57.5535 35.4626 57.6129 35.3562 57.6723C35.3631 57.6956 35.4296 57.7132 35.5402 57.738C35.7376 57.7824 35.8098 57.9267 35.8661 58.0395C35.8922 58.0917 35.9151 58.1372 35.9453 58.1629C36.1063 58.2993 36.3305 58.2597 36.5278 58.2247C36.6364 58.2055 36.7369 58.1877 36.8142 58.2016C36.8472 58.2074 36.88 58.199 36.9135 58.1905C36.9393 58.184 36.9656 58.1773 36.9927 58.177C37.1891 58.1752 37.3349 58.2559 37.4703 58.3308C37.5479 58.3737 37.6223 58.4147 37.7006 58.4373C37.7245 58.4442 37.7489 58.4496 37.7725 58.4548C37.8071 58.4623 37.84 58.4696 37.8682 58.481C37.9324 58.5071 37.9757 58.5608 38.0229 58.6196C38.0471 58.6498 38.0724 58.6813 38.1021 58.7111C38.1407 58.7497 38.2184 58.7636 38.2995 58.7783C38.3569 58.7886 38.416 58.7995 38.4647 58.8195C38.5527 58.8556 38.5844 58.9287 38.6139 58.9965C38.6268 59.026 38.6395 59.0545 38.656 59.0786C38.6627 59.0884 38.676 59.0931 38.6943 59.0941C38.7558 59.2054 38.8186 59.3117 38.8802 59.4151C39.1886 59.9336 39.456 60.3824 39.2622 61.0526C39.2255 61.1794 39.2328 61.3154 39.2622 61.4529C39.1851 61.8928 39.1056 62.3329 39.024 62.7726C38.8469 62.8597 38.6983 62.9661 38.5816 63.0922C38.3626 63.3289 38.3158 63.5724 38.2605 63.8597C38.2197 64.0721 38.1741 64.3086 38.051 64.5841C37.8441 65.0469 37.6691 65.5222 37.5782 66.0584C37.4876 66.5924 37.4209 67.2037 37.3972 67.6361C37.3843 67.8719 37.2259 68.1195 37.0786 68.3503C36.8713 68.675 36.6855 68.9663 36.9549 69.1441C37.041 69.2009 37.1905 69.2558 37.3357 69.3092C37.4391 69.3473 37.5401 69.3848 37.6153 69.4216C37.592 69.5195 37.5689 69.6175 37.5453 69.7155C37.3657 69.8895 37.1732 70.16 37.3735 70.4215C37.3487 70.5225 37.3241 70.6236 37.2991 70.7212C37.2469 70.9343 37.194 71.1427 37.1407 71.353C37.1231 71.4216 37.1055 71.491 37.0877 71.5605C37.0875 71.5611 37.0873 71.5618 37.0871 71.5625C37.0514 71.7024 37.0154 71.8433 36.9793 71.9819C36.9638 72.0413 36.9484 72.1007 36.933 72.1601C36.8938 72.3109 36.8545 72.4629 36.8148 72.6123C36.7936 72.6913 36.7727 72.7711 36.7514 72.8511C36.7169 72.9808 36.6822 73.1115 36.6472 73.2415C36.5907 73.4518 36.5336 73.661 36.476 73.8707C36.4665 73.905 36.4366 73.938 36.3913 73.9622C36.346 73.9864 36.2891 74 36.2305 74C36.1718 74 36.1148 73.9862 36.0696 73.9619C36.0246 73.9376 35.9954 73.9047 35.9862 73.8704C35.9302 73.6606 35.8748 73.4511 35.8198 73.2406C35.7859 73.1106 35.7516 72.98 35.7181 72.8502C35.6974 72.7703 35.6771 72.6905 35.6566 72.6114C35.618 72.4621 35.5794 72.3098 35.5414 72.1589C35.5264 72.0996 35.5113 72.0402 35.4963 71.9808C35.4611 71.8418 35.4263 71.7005 35.3915 71.5602C35.3913 71.5594 35.3911 71.5585 35.3909 71.5577C35.3738 71.4886 35.3567 71.4198 35.3397 71.3516C35.288 71.1412 35.2368 70.9327 35.1862 70.7195C35.1589 70.6094 35.1322 70.4947 35.1052 70.3808C35.0901 70.3174 35.075 70.2541 35.0601 70.192C35.0521 70.158 35.0442 70.1235 35.0363 70.0889C34.849 69.2943 34.6688 68.5053 34.4959 67.709C34.323 66.9156 34.1573 66.1208 33.9981 65.3284C33.839 64.5341 33.6867 63.7412 33.5406 62.9476C32.6127 57.9113 31.852 52.8548 31.3759 47.7962C31.3075 47.0746 31.2459 46.3343 31.1906 45.6113C31.1354 44.8804 31.0863 44.1645 31.0444 43.4318C31.0313 43.2092 31.019 42.981 31.0073 42.7469Z" fill="black"/>
</svg>
