<svg width="63" height="74" viewBox="0 0 63 74" fill="none" xmlns="http://www.w3.org/2000/svg">
<path d="M10.5585 36.1746C11.199 36.0768 11.8155 36.9996 12.4582 37.0014C13.2562 37.0036 14.0669 36.1219 14.8668 36.2861C15.662 36.4503 16.4611 36.6862 17.2576 36.977C18.0551 37.2678 18.8513 37.6134 19.6491 37.9963C20.4453 38.3791 21.2431 38.7991 22.0399 39.2398C22.5811 39.5391 23.1229 39.8482 23.664 40.161C23.9016 40.2981 24.1384 40.4358 24.3758 40.5741C24.553 40.6775 24.7301 40.7808 24.9072 40.8842C24.9318 40.8988 24.9554 40.9579 24.9728 41.0517C24.9902 41.1458 25 41.2661 25 41.3905C25 41.515 24.9901 41.6356 24.9726 41.7292C24.9552 41.8227 24.9315 41.881 24.9069 41.895C24.7283 41.9951 24.5497 42.0952 24.3711 42.1953C24.1726 42.3064 23.9746 42.4177 23.7762 42.528C23.745 42.0175 23.7022 41.6303 23.6219 41.4593C23.5809 41.3721 23.5211 41.3359 23.4771 41.4307C23.4376 41.5159 23.4078 41.6679 23.3795 41.8127C23.35 41.9642 23.3219 42.108 23.2858 42.1588C23.2245 42.245 23.1662 42.4618 23.1051 42.6894C23.0828 42.7723 23.0601 42.8568 23.0368 42.9368C22.8474 43.0406 22.6581 43.1436 22.4688 43.2457C22.3956 43.1913 22.3284 43.1474 22.2714 43.1683C22.2202 43.1871 22.1733 43.295 22.1267 43.4291C22.0974 43.4447 22.0681 43.4604 22.0388 43.476C21.8496 43.5765 21.6604 43.6753 21.4711 43.7733C21.3235 43.6371 21.1687 43.5048 20.9675 43.4468C20.8808 43.4217 20.7952 43.3481 20.713 43.2774C20.5915 43.173 20.4772 43.0749 20.377 43.1482C20.31 43.1973 20.2396 43.1251 20.1693 43.0532C20.075 42.9567 19.981 42.8604 19.8957 43.0568C19.842 43.1804 19.7928 43.3306 19.7472 43.4699C19.6746 43.6916 19.6112 43.8855 19.5538 43.8988C19.4459 43.9239 19.3525 44.0854 19.2702 44.2278C19.1711 44.3992 19.0881 44.5429 19.0151 44.3881C19.0041 44.3646 18.9914 44.3334 18.9772 44.2979C18.9021 44.1109 18.782 43.8118 18.6096 43.9762C18.5483 44.0348 18.4906 44.187 18.4342 44.3363C18.352 44.5537 18.2722 44.7647 18.1867 44.6708C18.1739 44.6567 18.1606 44.5978 18.1484 44.544C18.133 44.4757 18.1195 44.416 18.1115 44.4679C18.0881 44.6202 18.0509 44.7885 18.0105 44.9718C17.9809 45.1063 17.9494 45.249 17.9204 45.3988C17.699 45.4835 17.4775 45.5646 17.2559 45.6413C17.1544 45.6765 17.0529 45.7109 16.9513 45.7443C16.8994 45.515 16.8462 45.3084 16.7901 45.1521C16.7168 44.9478 16.6217 44.8853 16.4992 44.8042C16.409 44.7446 16.3039 44.6748 16.1816 44.5319C15.9552 44.2673 15.7227 44.3266 15.5736 44.4685C15.5421 44.4985 15.5104 44.5305 15.4765 44.5654C15.348 44.6975 15.1876 44.863 14.883 45.0455C14.5948 45.2181 14.3497 45.2629 14.1656 45.2965C14.0717 45.3137 13.9936 45.3275 13.9337 45.3544C13.8313 45.4004 13.7055 45.4414 13.5793 45.4823C13.3818 45.5464 13.183 45.6106 13.0704 45.6962C13.0304 45.7266 12.9883 45.7643 12.9429 45.8046C12.8171 45.9162 12.6652 46.0509 12.4557 46.1287C12.2358 46.2104 12.0995 46.1547 11.958 46.0337C11.9004 45.9845 11.8497 45.7899 11.7974 45.5889C11.7232 45.3037 11.6458 45.006 11.541 45.0948C11.5166 45.1156 11.4905 45.1619 11.4632 45.2106C11.4131 45.3 11.3589 45.3969 11.3034 45.3544C11.284 45.3395 11.267 45.2867 11.2503 45.235C11.2319 45.178 11.2139 45.1223 11.1934 45.1192C11.1171 45.1076 11.0429 45.1208 10.9769 45.1326C10.8919 45.1478 10.8205 45.1605 10.7763 45.1143C10.6974 45.0319 10.6111 45.1057 10.5238 45.1807C10.457 45.2381 10.3896 45.2963 10.3243 45.2855C10.1378 45.2545 9.88137 45.395 9.6171 45.6291C9.51711 45.7177 9.4324 45.5968 9.32385 45.4415C9.25633 45.3449 9.17959 45.2347 9.08419 45.1539C9.03011 45.1082 8.98431 45.2159 8.9419 45.3154C8.90284 45.407 8.86662 45.4918 8.82946 45.4439C8.79666 45.4016 8.77592 45.2205 8.75622 45.0485C8.7343 44.8571 8.71368 44.6771 8.67917 44.7122C8.66081 44.7309 8.63848 44.8215 8.61193 44.9291C8.60143 44.9717 8.59022 45.0167 8.57836 45.0613C8.57897 45.0246 8.57912 44.9917 8.57913 44.9669C8.57916 44.7912 8.54396 44.6987 8.50941 44.608C8.49562 44.5718 8.48188 44.5361 8.4706 44.4953C8.42907 44.3452 8.35044 44.3208 8.29035 44.3278C8.26493 44.3307 8.2419 44.2762 8.21501 44.2126C8.19115 44.1562 8.16425 44.0924 8.12995 44.0554C8.11038 44.0343 8.09536 43.9834 8.08293 43.9409C8.07394 43.9101 8.06628 43.8838 8.05919 43.8769C8.05304 43.871 8.04807 43.9213 8.0425 43.978C8.03848 44.0189 8.03412 44.0631 8.02876 44.092C8.01596 44.161 7.9995 44.1818 7.98795 44.1596C7.98261 44.1494 7.9784 44.1298 7.97421 44.1103C7.96934 44.0875 7.96449 44.0646 7.95781 44.0566C7.92715 44.02 7.89733 44.0774 7.86635 44.1371C7.8323 44.2026 7.79679 44.2708 7.75725 44.2199C7.74481 44.2039 7.73156 44.1672 7.71872 44.1316C7.7053 44.0943 7.69224 44.0583 7.68115 44.0487C7.6361 44.0098 7.59375 44.1354 7.55479 44.251C7.52888 44.3278 7.50443 44.4001 7.48174 44.4167C7.44014 44.447 7.41781 44.5978 7.40134 44.7092C7.39281 44.7669 7.38585 44.8142 7.37855 44.8286C7.37186 44.8244 7.36507 44.8194 7.35843 44.814C7.35233 44.8029 7.34603 44.7914 7.34012 44.7951C7.33967 44.7953 7.33923 44.796 7.33878 44.7963C7.30158 44.7597 7.26504 44.7079 7.22873 44.6562C7.14717 44.54 7.06662 44.425 6.98144 44.4898C6.96309 44.5038 6.94439 44.5661 6.92537 44.6293C6.90206 44.7069 6.87822 44.7861 6.85394 44.7804C6.79606 44.7668 6.73763 44.6641 6.68008 44.5629C6.59353 44.4107 6.50894 44.2621 6.43117 44.4252C6.40551 44.4791 6.38047 44.5688 6.35536 44.6592C6.34136 44.7096 6.3273 44.7604 6.31311 44.8048C6.31612 44.7223 6.31772 44.6449 6.31921 44.5727C6.32229 44.4238 6.32495 44.2965 6.33857 44.1882C6.37078 43.9325 6.40728 43.5804 6.40323 43.3237C6.40213 43.254 6.40302 43.1764 6.40399 43.0983C6.40643 42.9022 6.40892 42.702 6.37901 42.6115C6.35885 42.5504 6.30705 42.4104 6.2741 42.5603C6.26693 42.5929 6.26256 42.6577 6.2577 42.7297C6.24896 42.859 6.23857 43.0121 6.20735 43.0477C6.20209 43.0537 6.19637 43.0591 6.19047 43.0641C6.16691 43.0842 6.14054 43.1064 6.13067 43.2104C6.11932 43.3301 6.12174 43.4672 6.12457 43.6271C6.12825 43.8353 6.13263 44.0827 6.10817 44.3808C6.10331 44.4397 6.09407 44.4599 6.08709 44.4752C6.08217 44.486 6.07841 44.4946 6.07803 44.5124C6.07761 44.5327 6.07918 44.5751 6.08118 44.6287C6.08823 44.8179 6.10049 45.1484 6.04932 45.1625C6.03548 45.1662 6.01965 45.1505 6.00546 45.1363C5.98453 45.1153 5.96716 45.098 5.96483 45.1521C5.96396 45.1726 5.96334 45.1948 5.96283 45.2179C5.94617 45.2114 5.92951 45.2049 5.91285 45.1984C5.89149 45.1339 5.8615 45.1394 5.82407 45.1466C5.81498 45.1483 5.80541 45.1499 5.79546 45.1509C5.76259 45.1375 5.72971 45.1243 5.69685 45.1107C5.67079 45.0833 5.64306 45.0388 5.61378 44.9681C5.55513 44.8264 5.50409 44.5928 5.45423 44.3643C5.43322 44.268 5.4124 44.1725 5.39129 44.0853C5.39952 44.0745 5.40694 44.0619 5.41265 44.0445C5.45176 43.9251 5.46746 43.6903 5.48189 43.4742C5.49149 43.3304 5.50055 43.1949 5.51555 43.1074C5.54303 42.9472 5.54027 42.7598 5.53825 42.6212C5.5372 42.5493 5.53641 42.4905 5.54006 42.4555C5.54301 42.4275 5.54982 42.4143 5.55685 42.4007C5.56297 42.3888 5.5693 42.3763 5.57335 42.3537C5.62247 42.0794 5.6077 41.9202 5.58622 41.6884C5.57438 41.5606 5.56053 41.4106 5.55418 41.2071C5.54872 40.9916 5.55056 40.9286 5.5763 40.8428C5.55624 40.7363 5.53619 40.6299 5.51613 40.5235C5.50826 40.5304 5.50229 40.597 5.49391 40.7075C5.47893 40.9049 5.43016 40.9771 5.39205 41.0335C5.37441 41.0596 5.35905 41.0824 5.35038 41.1127C5.30428 41.2737 5.31769 41.4979 5.32949 41.6951C5.33599 41.8037 5.34198 41.9042 5.33731 41.9815C5.33533 42.0145 5.33817 42.0473 5.34103 42.0808C5.34325 42.1067 5.34552 42.1329 5.34561 42.16C5.34621 42.3564 5.31894 42.5023 5.29364 42.6377C5.27914 42.7152 5.26532 42.7896 5.25768 42.868C5.25535 42.8918 5.25351 42.9162 5.25177 42.9399C5.24924 42.9744 5.24677 43.0073 5.2429 43.0355C5.23409 43.0997 5.21595 43.1431 5.19607 43.1903C5.18588 43.2145 5.17524 43.2397 5.16518 43.2695C5.15214 43.308 5.14744 43.3857 5.14248 43.4669C5.13897 43.5242 5.1353 43.5833 5.12855 43.632C5.11634 43.72 5.09166 43.7518 5.06876 43.7812C5.05879 43.7941 5.04914 43.8068 5.04101 43.8233C5.0377 43.83 5.03611 43.8433 5.03576 43.8617C4.99817 43.9232 4.96227 43.986 4.92733 44.0475C4.75216 44.3559 4.60053 44.6233 4.37411 44.4295C4.3313 44.3929 4.28532 44.4002 4.23888 44.4295C4.09027 44.3524 3.94159 44.2729 3.79303 44.1913C3.76363 44.0143 3.72766 43.8656 3.68508 43.749C3.60511 43.5299 3.52284 43.4831 3.42578 43.4279C3.35401 43.387 3.27414 43.3414 3.18106 43.2183C3.02469 43.0114 2.86413 42.8364 2.68296 42.7455C2.50258 42.655 2.29606 42.5882 2.14996 42.5645C2.07031 42.5516 1.98665 42.3933 1.90868 42.2459C1.799 42.0386 1.70059 41.8528 1.6405 42.1222C1.62132 42.2083 1.60277 42.3578 1.58471 42.503C1.57186 42.6064 1.55918 42.7074 1.54676 42.7827C1.51369 42.7593 1.48058 42.7362 1.44748 42.7126C1.38868 42.5331 1.2973 42.3406 1.20897 42.5408C1.17483 42.516 1.14067 42.4914 1.10769 42.4665C1.03572 42.4142 0.965309 42.3613 0.894257 42.308C0.871064 42.2904 0.847643 42.2728 0.824162 42.255C0.82394 42.2548 0.823717 42.2546 0.823495 42.2544C0.776232 42.2187 0.728611 42.1828 0.681779 42.1466C0.66172 42.1312 0.641662 42.1157 0.621603 42.1003C0.570628 42.0611 0.519284 42.0218 0.468825 41.9821C0.442117 41.961 0.415154 41.94 0.388144 41.9187C0.344325 41.8842 0.300175 41.8495 0.256251 41.8145C0.185217 41.7581 0.114515 41.7009 0.0436781 41.6433C0.0320934 41.6338 0.0209608 41.6039 0.0127792 41.5587C0.00460059 41.5133 -1.25029e-05 41.4564 2.54502e-08 41.3978C1.60436e-05 41.3392 0.00466811 41.2822 0.0128746 41.237C0.0210756 41.1919 0.0321968 41.1628 0.0437735 41.1535C0.114661 41.0975 0.185453 41.0421 0.256537 40.9872C0.30047 40.9532 0.344604 40.919 0.38843 40.8854C0.415452 40.8647 0.442391 40.8444 0.469111 40.8239C0.519575 40.7853 0.571004 40.7468 0.621984 40.7087C0.642043 40.6937 0.662102 40.6787 0.682161 40.6636C0.729119 40.6284 0.776869 40.5936 0.824258 40.5589C0.824544 40.5586 0.82483 40.5584 0.825116 40.5582C0.84843 40.5412 0.871705 40.524 0.894734 40.5071C0.965814 40.4554 1.03627 40.4042 1.10826 40.3535C1.14546 40.3262 1.18422 40.2995 1.2227 40.2725C1.24412 40.2575 1.26551 40.2424 1.2865 40.2274C1.29798 40.2195 1.30961 40.2116 1.32131 40.2036C1.58976 40.0163 1.85632 39.8361 2.12535 39.6632C2.39338 39.4904 2.66188 39.3246 2.92958 39.1655C3.19793 39.0063 3.46581 38.854 3.73391 38.7079C5.43537 37.7801 7.14364 37.0193 8.85264 36.5432C9.0964 36.4748 9.34653 36.4132 9.59078 36.358C9.8377 36.3027 10.0796 36.2537 10.3271 36.2118C10.4023 36.1986 10.4794 36.1864 10.5585 36.1746Z" fill="black"/>
<path d="M31.7201 17.6486C31.8179 18.7193 30.8951 19.7497 30.8933 20.824C30.891 22.1579 31.7728 23.5131 31.6086 24.85C31.4444 26.1793 31.2085 27.5149 30.9177 28.8464C30.6269 30.1793 30.2812 31.5103 29.8984 32.8439C29.5156 34.1746 29.0956 35.5082 28.6549 36.84C28.3555 37.7446 28.0465 38.6503 27.7337 39.5548C27.5966 39.9518 27.4588 40.3477 27.3206 40.7446C27.2172 41.0407 27.1139 41.3367 27.0105 41.6328C26.9959 41.6739 26.9368 41.7134 26.8429 41.7425C26.7489 41.7715 26.6286 41.7879 26.5042 41.7879C26.3797 41.7878 26.2591 41.7713 26.1654 41.7421C26.072 41.713 26.0137 41.6735 25.9997 41.6323C25.8996 41.3337 25.7995 41.0352 25.6993 40.7366C25.5883 40.405 25.477 40.0739 25.3667 39.7424C25.8772 39.6902 26.2644 39.6185 26.4353 39.4843C26.5226 39.4158 26.5588 39.3159 26.464 39.2423C26.3787 39.1763 26.2268 39.1265 26.082 39.0792C25.9305 39.0298 25.7867 38.9829 25.7359 38.9225C25.6497 38.8201 25.4329 38.7227 25.2052 38.6205C25.1224 38.5833 25.0379 38.5453 24.9579 38.5063C24.8541 38.1898 24.7511 37.8734 24.649 37.5569C24.7033 37.4347 24.7473 37.3223 24.7264 37.2269C24.7076 37.1414 24.5997 37.0631 24.4656 36.9851C24.45 36.9361 24.4343 36.8871 24.4187 36.8381C24.3182 36.5219 24.2193 36.2057 24.1214 35.8893C24.2575 35.6425 24.3898 35.3838 24.4479 35.0475C24.473 34.9026 24.5466 34.7595 24.6173 34.622C24.7217 34.419 24.8198 34.2279 24.7465 34.0605C24.6974 33.9485 24.7696 33.8307 24.8415 33.7133C24.938 33.5557 25.0343 33.3985 24.8379 33.2559C24.7143 33.1663 24.5641 33.084 24.4248 33.0077C24.2031 32.8864 24.0092 32.7804 23.9958 32.6844C23.9708 32.5041 23.8093 32.348 23.6668 32.2104C23.4955 32.0449 23.3517 31.906 23.5066 31.7841C23.5301 31.7656 23.5613 31.7445 23.5968 31.7207C23.7838 31.5952 24.0829 31.3944 23.9185 31.1063C23.8599 31.0037 23.7077 30.9074 23.5584 30.813C23.341 30.6756 23.13 30.5422 23.2239 30.3993C23.238 30.378 23.2968 30.3557 23.3506 30.3354C23.419 30.3096 23.4787 30.2871 23.4268 30.2737C23.2745 30.2346 23.1061 30.1724 22.9229 30.1049C22.7883 30.0553 22.6456 30.0027 22.4958 29.9543C22.4112 29.5841 22.3301 29.2139 22.2534 28.8435C22.2181 28.6739 22.1838 28.5041 22.1504 28.3344C22.3797 28.2476 22.5863 28.1587 22.7426 28.065C22.9469 27.9424 23.0094 27.7835 23.0905 27.5786C23.1501 27.4279 23.2199 27.2522 23.3628 27.0478C23.6274 26.6694 23.5681 26.2807 23.4262 26.0316C23.3962 25.9789 23.3641 25.9259 23.3293 25.8693C23.1972 25.6545 23.0317 25.3864 22.8492 24.8771C22.6766 24.3955 22.6318 23.9858 22.5982 23.6781C22.581 23.521 22.5672 23.3904 22.5403 23.2904C22.4943 23.1192 22.4533 22.909 22.4124 22.698C22.3483 22.3678 22.2841 22.0356 22.1985 21.8474C22.1681 21.7805 22.1304 21.7102 22.0901 21.6343C21.9784 21.424 21.8438 21.17 21.7659 20.8199C21.6843 20.4524 21.74 20.2246 21.861 19.988C21.9102 19.8918 22.1047 19.8069 22.3057 19.7195C22.591 19.5955 22.8887 19.4661 22.7999 19.291C22.7791 19.2502 22.7328 19.2066 22.6841 19.1609C22.5947 19.0772 22.4978 18.9866 22.5403 18.8938C22.5551 18.8614 22.608 18.8329 22.6597 18.805C22.7167 18.7743 22.7724 18.7441 22.7755 18.71C22.7871 18.5825 22.7739 18.4584 22.7621 18.3481C22.7469 18.2059 22.7342 18.0867 22.7804 18.0127C22.8627 17.8809 22.789 17.7367 22.714 17.5906C22.6566 17.4791 22.5983 17.3664 22.6092 17.2573C22.6402 16.9456 22.4997 16.5169 22.2655 16.0751C22.177 15.908 22.2979 15.7664 22.4532 15.585C22.5498 15.4721 22.66 15.3438 22.7408 15.1844C22.7865 15.094 22.6788 15.0174 22.5793 14.9465C22.4876 14.8812 22.4029 14.8207 22.4508 14.7586C22.4931 14.7038 22.6742 14.6691 22.8462 14.6362C23.0376 14.5995 23.2176 14.565 23.1825 14.5074C23.1638 14.4767 23.0732 14.4394 22.9656 14.395C22.923 14.3774 22.878 14.3587 22.8334 14.3389C22.8701 14.3399 22.9029 14.3401 22.9278 14.3401C23.1035 14.3402 23.196 14.2814 23.2867 14.2236C23.3229 14.2006 23.3586 14.1776 23.3994 14.1587C23.5495 14.0893 23.5739 13.9579 23.5669 13.8575C23.564 13.815 23.6185 13.7765 23.6821 13.7315C23.7385 13.6916 23.8022 13.6467 23.8393 13.5893C23.8604 13.5566 23.9113 13.5315 23.9538 13.5107C23.9846 13.4957 24.0109 13.4829 24.0178 13.4711C24.0237 13.4608 23.9734 13.4525 23.9166 13.4432C23.8758 13.4364 23.8316 13.4292 23.8027 13.4202C23.7337 13.3988 23.7129 13.3713 23.7351 13.352C23.7453 13.3431 23.7649 13.336 23.7844 13.329C23.8072 13.3209 23.83 13.3128 23.838 13.3016C23.8747 13.2504 23.8173 13.2005 23.7576 13.1487C23.6921 13.0918 23.6239 13.0325 23.6748 12.9664C23.6908 12.9456 23.7275 12.9234 23.7631 12.902C23.8004 12.8795 23.8364 12.8577 23.846 12.8392C23.8849 12.7639 23.7593 12.6931 23.6437 12.6279C23.5668 12.5846 23.4946 12.5438 23.478 12.5058C23.4477 12.4363 23.2969 12.399 23.1855 12.3715C23.1278 12.3572 23.0804 12.3456 23.0661 12.3334C23.0703 12.3222 23.0753 12.3108 23.0807 12.2997C23.0918 12.2895 23.1033 12.279 23.0996 12.2691C23.0993 12.2684 23.0987 12.2676 23.0984 12.2669C23.135 12.2047 23.1868 12.1436 23.2385 12.0829C23.3547 11.9466 23.4697 11.812 23.4049 11.6696C23.3909 11.6389 23.3286 11.6077 23.2653 11.5759C23.1878 11.5369 23.1085 11.4971 23.1142 11.4565C23.1278 11.3597 23.2305 11.2621 23.3317 11.1659C23.484 11.0212 23.6326 10.8798 23.4694 10.7498C23.4156 10.7069 23.3259 10.6651 23.2355 10.6231C23.1851 10.5997 23.1343 10.5762 23.0899 10.5525C23.1724 10.5575 23.2498 10.5602 23.322 10.5627C23.4708 10.5678 23.5982 10.5722 23.7064 10.595C23.9622 10.6489 24.3142 10.7099 24.571 10.7031C24.6407 10.7013 24.7183 10.7027 24.7964 10.7044C24.9925 10.7085 25.1927 10.7126 25.2832 10.6626C25.3442 10.6289 25.4843 10.5423 25.3344 10.4873C25.3017 10.4753 25.237 10.468 25.165 10.4598C25.0357 10.4452 24.8826 10.4279 24.847 10.3757C24.841 10.3669 24.8356 10.3573 24.8305 10.3475C24.8104 10.3081 24.7882 10.264 24.6843 10.2475C24.5646 10.2285 24.4275 10.2326 24.2676 10.2373C24.0594 10.2435 23.812 10.2508 23.5139 10.2099C23.455 10.2018 23.4348 10.1863 23.4195 10.1747C23.4087 10.1664 23.4 10.1602 23.3823 10.1595C23.3619 10.1588 23.3196 10.1614 23.2659 10.1648C23.0768 10.1766 22.7462 10.1971 22.7322 10.1115C22.7285 10.0884 22.7442 10.0619 22.7584 10.0382C22.7794 10.0032 22.7967 9.9742 22.7426 9.97031C22.7221 9.96885 22.6998 9.96781 22.6768 9.96696C22.6833 9.93911 22.6898 9.91127 22.6963 9.88343C22.7608 9.84772 22.7552 9.79759 22.7481 9.73502C22.7463 9.71983 22.7447 9.70383 22.7438 9.6872C22.7572 9.63227 22.7704 9.5773 22.784 9.52237C22.8114 9.47882 22.8559 9.43246 22.9266 9.38353C23.0683 9.28549 23.3019 9.20018 23.5304 9.11684C23.6266 9.08172 23.7222 9.04692 23.8094 9.01163C23.8201 9.02538 23.8328 9.03778 23.8502 9.04734C23.9696 9.1127 24.2044 9.13894 24.4205 9.16306C24.5643 9.17911 24.6998 9.19426 24.7873 9.21934C24.9475 9.26525 25.1349 9.26065 25.2735 9.25728C25.3453 9.25552 25.4042 9.2542 25.4392 9.2603C25.4672 9.26523 25.4804 9.27661 25.494 9.28836C25.5059 9.2986 25.5184 9.30918 25.5409 9.31594C25.8153 9.39805 25.9745 9.37336 26.2063 9.33746C26.3341 9.31766 26.4841 9.29452 26.6876 9.2839C26.9031 9.27478 26.9661 9.27785 27.0519 9.32088C27.1583 9.28735 27.2648 9.25382 27.3712 9.22029C27.3643 9.20714 27.2977 9.19717 27.1872 9.18315C26.9898 9.15812 26.9176 9.0766 26.8612 9.0129C26.8351 8.98341 26.8123 8.95774 26.782 8.94324C26.621 8.86618 26.3968 8.8886 26.1996 8.90833C26.091 8.91919 25.9905 8.92921 25.9132 8.9214C25.8801 8.91808 25.8473 8.92283 25.8139 8.92762C25.788 8.93132 25.7617 8.93512 25.7347 8.93527C25.5382 8.93628 25.3924 8.89069 25.257 8.8484C25.1795 8.82417 25.1051 8.80107 25.0267 8.7883C25.0028 8.78441 24.9785 8.78132 24.9548 8.77841C24.9203 8.77418 24.8874 8.77005 24.8592 8.76359C24.7949 8.74887 24.7516 8.71855 24.7044 8.68532C24.6802 8.66828 24.655 8.65049 24.6252 8.63367C24.5867 8.61188 24.509 8.60402 24.4278 8.59573C24.3705 8.58987 24.3114 8.58374 24.2627 8.57246C24.1747 8.55204 24.1429 8.51079 24.1134 8.47251C24.1006 8.45584 24.0878 8.43972 24.0714 8.42612C24.0647 8.42059 24.0513 8.41794 24.033 8.41736C23.9715 8.35452 23.9087 8.29451 23.8472 8.23611C23.5388 7.94331 23.2713 7.68987 23.4652 7.31139C23.5018 7.23983 23.4945 7.16299 23.4652 7.08535C23.5422 6.83695 23.6218 6.58842 23.7034 6.34012C23.8804 6.29097 24.0291 6.23084 24.1457 6.15967C24.3647 6.026 24.4116 5.88849 24.4668 5.72624C24.5077 5.60628 24.5533 5.47277 24.6764 5.3172C24.8833 5.05582 25.0582 4.78744 25.1492 4.48461C25.2397 4.1831 25.3065 3.8379 25.3301 3.59368C25.3431 3.46055 25.5014 3.32071 25.6488 3.19038C25.8561 3.00706 26.0419 2.84256 25.7725 2.74213C25.6864 2.71005 25.5369 2.67905 25.3917 2.64888C25.2882 2.62738 25.1872 2.60619 25.112 2.58543C25.1354 2.53015 25.1585 2.47481 25.1821 2.41949C25.3616 2.3212 25.5541 2.16846 25.3539 2.02081C25.3786 1.96374 25.4033 1.90665 25.4282 1.85152C25.4805 1.73122 25.5334 1.61353 25.5866 1.49476C25.6043 1.456 25.6219 1.41685 25.6396 1.3776C25.6398 1.37723 25.64 1.37686 25.6403 1.37648C25.676 1.29748 25.7119 1.21789 25.7481 1.1396C25.7635 1.10608 25.779 1.07255 25.7944 1.03902C25.8336 0.953813 25.8729 0.867991 25.9126 0.783648C25.9337 0.739006 25.9547 0.693936 25.976 0.648789C26.0105 0.575545 26.0452 0.501748 26.0801 0.428328C26.1366 0.309592 26.1938 0.191414 26.2513 0.0730087C26.2609 0.0536446 26.2907 0.0350363 26.336 0.0213607C26.3814 0.00768997 26.4383 -2.08988e-05 26.4969 4.25405e-08C26.5555 2.68175e-05 26.6125 0.00780283 26.6577 0.0215201C26.7028 0.0352282 26.7319 0.0538176 26.7412 0.0731681C26.7972 0.191657 26.8526 0.309987 26.9075 0.428806C26.9415 0.50224 26.9757 0.576011 27.0093 0.649267C27.0299 0.694435 27.0503 0.739463 27.0708 0.784126C27.1094 0.868478 27.1479 0.954442 27.186 1.03966C27.201 1.07318 27.216 1.10671 27.231 1.14024C27.2663 1.21873 27.3011 1.29855 27.3358 1.37776C27.336 1.37824 27.3362 1.37872 27.3364 1.37919C27.3535 1.41816 27.3706 1.45707 27.3876 1.49556C27.4393 1.61437 27.4905 1.73213 27.5412 1.85248C27.5685 1.91465 27.5952 1.97945 27.6222 2.04376C27.6372 2.07957 27.6523 2.11531 27.6673 2.15041C27.6752 2.16959 27.6831 2.18904 27.691 2.20859C27.8784 2.65731 28.0586 3.10287 28.2315 3.55256C28.4043 4.00057 28.5701 4.44937 28.7292 4.89684C28.8884 5.34539 29.0407 5.79315 29.1868 6.24128C30.1146 9.08531 30.8754 11.9407 31.3515 14.7973C31.4199 15.2048 31.4815 15.6229 31.5367 16.0311C31.592 16.4439 31.641 16.8481 31.6829 17.2619C31.696 17.3876 31.7083 17.5164 31.7201 17.6486Z" fill="black"/>
<path d="M52.2367 38.7344C51.5952 38.8216 50.9888 37.8886 50.3461 37.8762C49.5483 37.8606 48.7282 38.7289 47.9302 38.5514C47.1368 38.3739 46.3404 38.1248 45.5471 37.8208C44.7529 37.5168 43.9605 37.1579 43.1669 36.7618C42.375 36.3658 41.5817 35.9326 40.7898 35.4787C40.2519 35.1704 39.7136 34.8524 39.1759 34.5306C38.9398 34.3895 38.7045 34.2479 38.4686 34.1057C38.2926 33.9994 38.1166 33.8931 37.9406 33.7868C37.9162 33.7718 37.8932 33.7123 37.8768 33.6181C37.8605 33.5238 37.8519 33.4033 37.8533 33.2789C37.8547 33.1545 37.8659 33.034 37.8843 32.9407C37.9028 32.8476 37.927 32.7897 37.9518 32.7761C38.1315 32.6789 38.3111 32.5818 38.4908 32.4846C38.6904 32.3769 38.8896 32.2689 39.0891 32.1618C39.1149 32.6728 39.1535 33.0607 39.232 33.233C39.272 33.3209 39.3314 33.3582 39.3764 33.264C39.4169 33.1795 39.4483 33.028 39.4781 32.8837C39.5093 32.7327 39.5389 32.5894 39.5756 32.5392C39.6378 32.454 39.6983 32.2382 39.762 32.0115C39.7851 31.9291 39.8087 31.845 39.8329 31.7653C40.0233 31.6647 40.2138 31.5648 40.4042 31.4659C40.4767 31.5215 40.5435 31.5665 40.6007 31.5465C40.6521 31.5286 40.7001 31.4216 40.7482 31.2882C40.7776 31.273 40.8071 31.2579 40.8366 31.2427C41.0268 31.1454 41.2171 31.0497 41.4073 30.9549C41.5535 31.0935 41.7068 31.2284 41.9074 31.2898C41.9938 31.3163 42.0786 31.3913 42.1601 31.4634C42.2804 31.5698 42.3936 31.6698 42.4946 31.5981C42.5621 31.5502 42.6318 31.6235 42.7013 31.6966C42.7945 31.7947 42.8875 31.8925 42.9749 31.6975C43.0298 31.5748 43.0807 31.4255 43.1278 31.2869C43.2027 31.0665 43.2682 30.8736 43.3258 30.8612C43.4339 30.838 43.529 30.678 43.6129 30.5369C43.7138 30.3673 43.7983 30.2249 43.8696 30.381C43.8804 30.4046 43.8927 30.436 43.9066 30.4718C43.9796 30.66 44.0965 30.9611 44.2706 30.7995C44.3326 30.742 44.3919 30.5908 44.4499 30.4424C44.5345 30.2264 44.6165 30.0167 44.701 30.112C44.7136 30.1263 44.7263 30.1854 44.7379 30.2394C44.7526 30.308 44.7654 30.3679 44.7739 30.3162C44.799 30.1642 44.838 29.9965 44.8803 29.814C44.9115 29.6799 44.9444 29.5377 44.9751 29.3884C45.1974 29.3075 45.4197 29.2301 45.6421 29.157C45.744 29.1235 45.8458 29.0908 45.9478 29.0591C45.9972 29.2893 46.0481 29.4967 46.1025 29.6539C46.1737 29.8594 46.268 29.9236 46.3897 30.0066C46.4792 30.0678 46.5836 30.1393 46.7043 30.2842C46.9278 30.5526 47.161 30.4971 47.3115 30.3577C47.3433 30.3282 47.3754 30.2967 47.4096 30.2624C47.5396 30.1325 47.7017 29.9697 48.0083 29.7922C48.2983 29.6244 48.5438 29.5837 48.7282 29.5531C48.8224 29.5375 48.9006 29.525 48.9607 29.4991C49.0636 29.4548 49.1898 29.4159 49.3165 29.3771C49.5147 29.3163 49.7141 29.2554 49.8276 29.1717C49.868 29.1419 49.9104 29.1049 49.9562 29.0654C50.0832 28.9558 50.2366 28.8237 50.4469 28.7493C50.6676 28.6713 50.8033 28.7293 50.9435 28.8527C51.0005 28.9028 51.0492 29.0982 51.0993 29.3001C51.1704 29.5865 51.2446 29.8855 51.3503 29.7984C51.375 29.7781 51.4015 29.7321 51.4293 29.6839C51.4804 29.5954 51.5357 29.4994 51.5907 29.5428C51.6099 29.558 51.6264 29.6111 51.6425 29.6631C51.6603 29.7204 51.6777 29.7764 51.6981 29.7798C51.7743 29.7926 51.8486 29.7807 51.9147 29.77C51.9999 29.7562 52.0714 29.7447 52.1151 29.7916C52.1931 29.8753 52.2802 29.803 52.3684 29.7294C52.4357 29.6732 52.5037 29.616 52.5689 29.6279C52.755 29.662 53.013 29.5258 53.2797 29.2961C53.3806 29.2092 53.464 29.3315 53.5709 29.4886C53.6374 29.5863 53.7129 29.6978 53.8074 29.7801C53.861 29.8268 53.908 29.7198 53.9514 29.621C53.9915 29.53 54.0286 29.4459 54.0652 29.4944C54.0976 29.5372 54.1164 29.7186 54.1342 29.891C54.1541 30.0827 54.1728 30.2631 54.2076 30.2285C54.2262 30.2101 54.2495 30.1199 54.2772 30.0128C54.2882 29.9704 54.2999 29.9255 54.3122 29.8811C54.3112 29.9178 54.3107 29.9507 54.3104 29.9755C54.3085 30.1512 54.3427 30.2443 54.3763 30.3355C54.3897 30.372 54.403 30.4079 54.4138 30.4489C54.4537 30.5997 54.5321 30.6254 54.5923 30.6194C54.6177 30.6169 54.6402 30.6718 54.6664 30.7358C54.6896 30.7927 54.7158 30.8568 54.7497 30.8944C54.7691 30.9158 54.7835 30.967 54.7955 31.0097C54.8042 31.0406 54.8115 31.0671 54.8185 31.0741C54.8246 31.0801 54.8301 31.0299 54.8363 30.9732C54.8408 30.9325 54.8456 30.8883 54.8513 30.8595C54.8648 30.7908 54.8815 30.7702 54.8928 30.7926C54.898 30.8029 54.902 30.8226 54.906 30.8422C54.9106 30.865 54.9152 30.8879 54.9218 30.896C54.9521 30.9332 54.9825 30.8763 55.0142 30.8171C55.0489 30.7521 55.0851 30.6846 55.1241 30.7361C55.1364 30.7523 55.1493 30.7892 55.1617 30.8251C55.1747 30.8626 55.1874 30.8988 55.1984 30.9086C55.243 30.9482 55.2867 30.8233 55.3269 30.7084C55.3536 30.632 55.3789 30.5601 55.4017 30.5439C55.4436 30.5143 55.4676 30.3639 55.4853 30.2528C55.4944 30.1953 55.5019 30.148 55.5093 30.1338C55.516 30.1381 55.5227 30.1432 55.5293 30.1487C55.5353 30.1599 55.5414 30.1715 55.5474 30.1679C55.5479 30.1677 55.5483 30.167 55.5487 30.1667C55.5855 30.2039 55.6215 30.2564 55.6573 30.3087C55.7376 30.4262 55.8169 30.5425 55.9027 30.4791C55.9212 30.4654 55.9406 30.4035 55.9603 30.3405C55.9844 30.2634 56.0091 30.1845 56.0334 30.1906C56.0911 30.2052 56.1484 30.3089 56.2048 30.411C56.2897 30.5646 56.3727 30.7147 56.4522 30.5528C56.4785 30.4994 56.5045 30.4101 56.5306 30.3201C56.5451 30.27 56.5597 30.2194 56.5744 30.1752C56.5705 30.2577 56.568 30.3351 56.5658 30.4072C56.5611 30.556 56.5571 30.6834 56.5423 30.7914C56.5073 31.0465 56.467 31.398 56.4683 31.6548C56.4687 31.7245 56.4669 31.8021 56.4651 31.8802C56.4606 32.0762 56.4559 32.2763 56.4849 32.3674C56.5044 32.4287 56.5546 32.5697 56.5892 32.4203C56.5967 32.3877 56.6018 32.3231 56.6074 32.2512C56.6176 32.122 56.6296 31.9691 56.6612 31.934C56.6665 31.9281 56.6723 31.9228 56.6783 31.9178C56.702 31.8981 56.7286 31.8764 56.7396 31.7726C56.7523 31.6531 56.7513 31.5159 56.7502 31.356C56.7488 31.1477 56.7471 30.9003 56.7747 30.6027C56.7802 30.5438 56.7897 30.5238 56.7968 30.5086C56.8018 30.4979 56.8057 30.4893 56.8063 30.4716C56.8069 30.4512 56.8058 30.4088 56.8044 30.3552C56.7994 30.1659 56.7907 29.8352 56.842 29.822C56.8558 29.8185 56.8715 29.8345 56.8855 29.8489C56.9062 29.8702 56.9234 29.8878 56.9263 29.8338C56.9274 29.8133 56.9283 29.791 56.9291 29.768C56.9456 29.7748 56.9622 29.7815 56.9788 29.7883C56.9995 29.8531 57.0295 29.8481 57.067 29.8416C57.0761 29.84 57.0857 29.8386 57.0957 29.8378C57.1284 29.8517 57.1611 29.8655 57.1938 29.8796C57.2196 29.9074 57.2468 29.9524 57.2754 30.0236C57.3325 30.1662 57.381 30.4007 57.4284 30.63C57.4484 30.7266 57.4681 30.8225 57.4883 30.91C57.48 30.9206 57.4724 30.9332 57.4665 30.9505C57.4261 31.0692 57.4079 31.3037 57.3911 31.5196C57.38 31.6632 57.3695 31.7986 57.3535 31.8858C57.3243 32.0456 57.3251 32.233 57.3256 32.3716C57.3259 32.4435 57.326 32.5024 57.322 32.5373C57.3188 32.5652 57.3118 32.5783 57.3046 32.5918C57.2984 32.6036 57.2919 32.6159 57.2876 32.6384C57.2356 32.9119 57.2486 33.0714 57.2676 33.3035C57.2781 33.4315 57.2903 33.5817 57.2945 33.7853C57.2976 34.0009 57.2951 34.0639 57.2684 34.1493C57.2873 34.256 57.3062 34.3628 57.3252 34.4695C57.3331 34.4627 57.3398 34.3963 57.3493 34.2859C57.3664 34.0887 57.416 34.0174 57.4547 33.9617C57.4726 33.9358 57.4882 33.9133 57.4972 33.8832C57.545 33.7229 57.5341 33.4985 57.5244 33.3011C57.519 33.1924 57.5141 33.0918 57.5196 33.0146C57.522 32.9816 57.5195 32.9487 57.517 32.9152C57.515 32.8893 57.5131 32.863 57.5133 32.836C57.5148 32.6395 57.5436 32.4942 57.5704 32.3592C57.5857 32.2819 57.6003 32.2077 57.6088 32.1295C57.6114 32.1057 57.6135 32.0813 57.6155 32.0577C57.6184 32.0232 57.6212 31.9904 57.6254 31.9622C57.6349 31.8981 57.6535 31.8551 57.6739 31.8082C57.6843 31.7842 57.6952 31.7591 57.7056 31.7296C57.7191 31.6912 57.7246 31.6136 57.7304 31.5325C57.7346 31.4752 57.7389 31.4162 57.7461 31.3677C57.7593 31.2799 57.7843 31.2485 57.8075 31.2194C57.8176 31.2067 57.8274 31.1941 57.8357 31.1778C57.8391 31.1712 57.8408 31.1579 57.8414 31.1395C57.8796 31.0787 57.9162 31.0165 57.9518 30.9555C58.1303 30.65 58.2848 30.3851 58.5091 30.5827C58.5515 30.6201 58.5975 30.6135 58.6443 30.585C58.792 30.6645 58.9398 30.7465 59.0875 30.8306C59.115 31.0081 59.1493 31.1573 59.1907 31.2747C59.2683 31.495 59.35 31.5432 59.4465 31.6001C59.5178 31.6421 59.5972 31.689 59.6889 31.8137C59.843 32.0231 60.0017 32.2008 60.1818 32.2947C60.3612 32.3883 60.567 32.4584 60.7128 32.4845C60.7923 32.4988 60.8743 32.6585 60.9506 32.8072C61.0581 33.0163 61.1545 33.2037 61.2174 32.9353C61.2376 32.8495 61.2577 32.7004 61.2773 32.5554C61.2913 32.4522 61.3051 32.3515 61.3183 32.2764C61.3511 32.3003 61.384 32.324 61.4168 32.3481C61.4737 32.5287 61.563 32.7226 61.6534 32.5239C61.6873 32.5492 61.7212 32.5744 61.7539 32.5999C61.8253 32.6533 61.8951 32.7074 61.9656 32.7619C61.9886 32.7799 62.0118 32.7979 62.0351 32.816C62.0353 32.8162 62.0355 32.8164 62.0358 32.8167C62.0826 32.8531 62.1299 32.8899 62.1763 32.9268C62.1962 32.9426 62.2161 32.9584 62.236 32.9741C62.2865 33.0142 62.3374 33.0543 62.3875 33.0949C62.4139 33.1164 62.4407 33.1378 62.4674 33.1596C62.5109 33.1948 62.5547 33.2303 62.5982 33.2659C62.6686 33.3236 62.7387 33.3819 62.8089 33.4407C62.8204 33.4504 62.8312 33.4804 62.8389 33.5259C62.8466 33.5714 62.8506 33.6283 62.8499 33.6869C62.8493 33.7455 62.844 33.8025 62.8353 33.8475C62.8266 33.8924 62.8152 33.9214 62.8035 33.9305C62.7321 33.9853 62.6607 34.0395 62.589 34.0933C62.5447 34.1265 62.5002 34.16 62.456 34.1928C62.4288 34.213 62.4016 34.2329 62.3747 34.253C62.3238 34.2907 62.272 34.3284 62.2206 34.3656C62.2004 34.3803 62.1802 34.395 62.16 34.4097C62.1126 34.4441 62.0645 34.4782 62.0168 34.5121C62.0165 34.5123 62.0162 34.5125 62.0159 34.5127C61.9924 34.5294 61.9689 34.5461 61.9457 34.5627C61.8741 34.6132 61.8031 34.6633 61.7306 34.7127C61.6931 34.7394 61.654 34.7655 61.6153 34.7918C61.5937 34.8065 61.5722 34.8213 61.551 34.8359C61.5394 34.8436 61.5277 34.8513 61.5159 34.859C61.2455 35.0419 60.9771 35.2177 60.7062 35.3861C60.4363 35.5545 60.1661 35.7158 59.8967 35.8705C59.6267 36.0251 59.3572 36.173 59.0876 36.3146C57.3764 37.2141 55.6601 37.9465 53.9462 38.3942C53.7018 38.4585 53.451 38.516 53.2062 38.5671C52.9587 38.6183 52.7164 38.6633 52.4684 38.7011C52.3931 38.713 52.3159 38.724 52.2367 38.7344Z" fill="black"/>
<path d="M31.1047 56.1863C31.0184 55.1141 31.9522 54.0991 31.9655 53.0249C31.9822 51.6911 31.1151 50.3214 31.2937 48.9872C31.4722 47.6608 31.7224 46.3291 32.0275 45.0025C32.3326 43.6745 32.6926 42.3494 33.0897 41.0222C33.4868 39.6979 33.9211 38.3713 34.3761 37.0469C34.6851 36.1473 35.0038 35.2469 35.3264 34.3477C35.4677 33.9529 35.6097 33.5593 35.7522 33.1648C35.8588 32.8704 35.9653 32.5761 36.0718 32.2818C36.0869 32.2408 36.1464 32.2024 36.2405 32.1749C36.3349 32.1474 36.4554 32.133 36.5797 32.1351C36.7042 32.1372 36.8246 32.1557 36.918 32.1865C37.011 32.2172 37.0689 32.2576 37.0825 32.299C37.1794 32.5992 37.2763 32.8995 37.3731 33.1997C37.4806 33.5331 37.5883 33.866 37.6951 34.1994C37.1841 34.2431 36.7962 34.3083 36.6238 34.4397C36.5358 34.5067 36.4985 34.6061 36.5925 34.6812C36.677 34.7487 36.8285 34.8009 36.9727 34.8506C37.1237 34.9025 37.2669 34.9518 37.3171 35.013C37.4022 35.1169 37.6179 35.2179 37.8444 35.3239C37.9269 35.3625 38.0109 35.4018 38.0905 35.4421C38.1909 35.7603 38.2905 36.0785 38.3891 36.3967C38.3335 36.518 38.2883 36.6296 38.3082 36.7253C38.3261 36.8112 38.4331 36.8913 38.5664 36.9715C38.5815 37.0207 38.5966 37.07 38.6117 37.1192C38.7087 37.437 38.8042 37.755 38.8987 38.0729C38.7599 38.3174 38.6248 38.5739 38.5632 38.9092C38.5366 39.0538 38.4614 39.1956 38.3892 39.3319C38.2827 39.5332 38.1825 39.7226 38.254 39.8913C38.3019 40.004 38.2285 40.1206 38.1553 40.2369C38.0571 40.3928 37.9591 40.5485 38.154 40.6943C38.2766 40.7859 38.4259 40.8707 38.5643 40.9493C38.7847 41.0743 38.9774 41.1835 38.9897 41.2797C39.0128 41.4604 39.1726 41.6192 39.3136 41.7592C39.4831 41.9276 39.6254 42.0688 39.4692 42.1881C39.4455 42.2062 39.4141 42.2268 39.3784 42.25C39.19 42.3724 38.8888 42.5682 39.0501 42.859C39.1076 42.9626 39.2587 43.0614 39.407 43.1583C39.6229 43.2993 39.8324 43.4362 39.737 43.5775C39.7227 43.5986 39.6636 43.6199 39.6096 43.6393C39.5409 43.664 39.481 43.6855 39.5328 43.6997C39.6846 43.7414 39.8523 43.8064 40.0347 43.8769C40.1688 43.9287 40.3109 43.9837 40.4601 44.0346C40.5408 44.4062 40.6179 44.7777 40.6906 45.1493C40.724 45.3196 40.7565 45.4899 40.7881 45.6602C40.5579 45.7432 40.3504 45.8285 40.1931 45.9197C39.9875 46.0389 39.9233 46.1968 39.84 46.4003C39.7787 46.55 39.7071 46.7245 39.562 46.9265C39.2934 47.3005 39.3485 47.6902 39.4877 47.9417C39.5171 47.9948 39.5486 48.0483 39.5828 48.1055C39.7126 48.3226 39.8752 48.5934 40.0522 49.1056C40.2196 49.5901 40.2599 50.0005 40.2902 50.3088C40.3057 50.4661 40.3181 50.5969 40.3439 50.6974C40.3881 50.8693 40.4268 51.0802 40.4655 51.2918C40.526 51.6231 40.5866 51.9564 40.6701 52.1459C40.6999 52.2134 40.7368 52.2843 40.7763 52.3609C40.8856 52.573 41.0176 52.8292 41.0916 53.1806C41.1693 53.5495 41.1112 53.7763 40.9876 54.0109C40.9374 54.1063 40.7419 54.1879 40.54 54.272C40.2535 54.3913 39.9544 54.5157 40.0414 54.6922C40.0617 54.7334 40.1075 54.7778 40.1557 54.8242C40.2442 54.9095 40.3401 55.0017 40.2966 55.0938C40.2814 55.1259 40.2283 55.1535 40.1762 55.1806C40.119 55.2104 40.063 55.2396 40.0595 55.2736C40.0465 55.4009 40.0584 55.5253 40.069 55.6357C40.0827 55.7781 40.0941 55.8976 40.0471 55.9708C39.9633 56.1013 40.0355 56.2467 40.1089 56.394C40.1651 56.5065 40.2221 56.6201 40.2101 56.729C40.1758 57.0402 40.3116 57.4712 40.541 57.9168C40.6277 58.0854 40.5053 58.225 40.3481 58.4039C40.2503 58.5151 40.1387 58.6415 40.0562 58.7996C40.0095 58.8893 40.1164 58.9676 40.2151 59.0401C40.3061 59.107 40.3902 59.1689 40.3416 59.2302C40.2987 59.2843 40.1173 59.316 39.9449 59.3461C39.7532 59.3795 39.5728 59.411 39.6073 59.4693C39.6257 59.5003 39.7158 59.5391 39.823 59.5853C39.8653 59.6035 39.9102 59.623 39.9545 59.6436C39.9178 59.6419 39.885 59.6411 39.8601 59.6407C39.6845 59.6377 39.5913 59.695 39.5001 59.7513C39.4636 59.7737 39.4277 59.7961 39.3867 59.8143C39.2358 59.8812 39.21 60.0122 39.2159 60.1128C39.2184 60.1553 39.1635 60.1929 39.0994 60.2368C39.0425 60.2757 38.9784 60.3196 38.9407 60.3763C38.9193 60.4087 38.8681 60.433 38.8253 60.453C38.7944 60.4675 38.768 60.4799 38.761 60.4916C38.7549 60.5018 38.8052 60.511 38.8618 60.5212C38.9025 60.5286 38.9467 60.5366 38.9754 60.5461C39.0442 60.5686 39.0647 60.5965 39.0423 60.6154C39.032 60.6242 39.0123 60.6309 38.9927 60.6375C38.9699 60.6453 38.947 60.653 38.9388 60.6641C38.9016 60.7147 38.9585 60.7655 39.0176 60.8183C39.0826 60.8763 39.15 60.9368 39.0985 61.002C39.0823 61.0225 39.0453 61.0441 39.0095 61.0649C38.9719 61.0868 38.9357 61.108 38.9259 61.1264C38.8862 61.201 39.0111 61.2739 39.1259 61.3409C39.2023 61.3855 39.2741 61.4276 39.2903 61.4658C39.3198 61.5358 39.4702 61.5756 39.5813 61.605C39.6388 61.6202 39.686 61.6326 39.7002 61.6451C39.6959 61.6562 39.6908 61.6675 39.6853 61.6785C39.6741 61.6885 39.6625 61.6988 39.666 61.7088C39.6663 61.7095 39.667 61.7103 39.6672 61.711C39.63 61.7726 39.5775 61.8328 39.5252 61.8926C39.4075 62.027 39.2911 62.1598 39.3544 62.3032C39.368 62.3341 39.43 62.3664 39.4929 62.3992C39.57 62.4395 39.6488 62.4806 39.6427 62.5211C39.628 62.6177 39.5243 62.7136 39.4221 62.8081C39.2683 62.9502 39.1182 63.0892 39.2799 63.2219C39.3333 63.2656 39.4225 63.309 39.5125 63.3525C39.5626 63.3767 39.6132 63.401 39.6573 63.4255C39.5749 63.4191 39.4975 63.4151 39.4253 63.4114C39.2766 63.4038 39.1492 63.3973 39.0413 63.3727C38.7862 63.3146 38.4348 63.2478 38.178 63.2503C38.1083 63.2509 38.0307 63.2482 37.9526 63.2452C37.7567 63.2379 37.5565 63.2304 37.4655 63.2789C37.4041 63.3116 37.2631 63.3958 37.4124 63.4534C37.4449 63.4659 37.5096 63.4743 37.5814 63.4836C37.7106 63.5004 37.8635 63.5203 37.8985 63.5731C37.9044 63.582 37.9097 63.5916 37.9147 63.6016C37.9344 63.6413 37.9561 63.6857 38.0598 63.7039C38.1793 63.7249 38.3165 63.7231 38.4764 63.7211C38.6846 63.7184 38.932 63.7152 39.2296 63.761C39.2885 63.7701 39.3085 63.7859 39.3237 63.7978C39.3344 63.8062 39.343 63.8126 39.3607 63.8136C39.381 63.8146 39.4234 63.8127 39.4771 63.8102C39.6664 63.8016 39.9971 63.7866 40.0102 63.8723C40.0137 63.8955 39.9976 63.9217 39.9832 63.9452C39.9618 63.9798 39.9442 64.0086 39.9983 64.0134C40.0188 64.0152 40.041 64.0166 40.064 64.0178C40.0572 64.0456 40.0504 64.0733 40.0436 64.101C39.9788 64.1357 39.9838 64.1859 39.9903 64.2486C39.9918 64.2638 39.9933 64.2798 39.994 64.2965C39.9801 64.3512 39.9662 64.4059 39.952 64.4606C39.9242 64.5037 39.8792 64.5493 39.808 64.5971C39.6653 64.6928 39.4308 64.7742 39.2014 64.8537C39.1048 64.8872 39.0089 64.9204 38.9213 64.9543C38.9107 64.9404 38.8982 64.9277 38.8809 64.9179C38.7622 64.8506 38.5277 64.8204 38.3119 64.7927C38.1683 64.7743 38.033 64.7569 37.9458 64.7303C37.7861 64.6818 37.5987 64.6833 37.4601 64.6843C37.3882 64.6849 37.3293 64.6852 37.2944 64.6786C37.2664 64.6732 37.2534 64.6616 37.2399 64.6496C37.2281 64.6392 37.2158 64.6284 37.1933 64.6212C36.9199 64.5346 36.7604 64.5566 36.5283 64.5887C36.4003 64.6063 36.25 64.627 36.0464 64.6342C35.8309 64.6398 35.7679 64.6356 35.6826 64.5912C35.5758 64.623 35.469 64.6547 35.3623 64.6865C35.369 64.6997 35.4355 64.7108 35.5458 64.7267C35.743 64.755 35.8142 64.8377 35.8699 64.9023C35.8957 64.9322 35.9183 64.9583 35.9484 64.9733C36.1085 65.053 36.3329 65.0343 36.5304 65.0179C36.639 65.0088 36.7396 65.0005 36.8168 65.0096C36.8498 65.0134 36.8827 65.0092 36.9162 65.005C36.9421 65.0017 36.9684 64.9984 36.9955 64.9987C37.1919 65.0009 37.3372 65.0489 37.4721 65.0935C37.5494 65.119 37.6235 65.1433 37.7017 65.1574C37.7256 65.1617 37.7499 65.1652 37.7735 65.1685C37.808 65.1733 37.8409 65.1779 37.869 65.1849C37.9331 65.2007 37.976 65.2317 38.0229 65.2657C38.0469 65.2831 38.072 65.3014 38.1015 65.3187C38.1398 65.3411 38.2174 65.3502 38.2985 65.3599C38.3558 65.3667 38.4148 65.3738 38.4633 65.3859C38.5511 65.4078 38.5824 65.4496 38.6115 65.4883C38.6242 65.5052 38.6367 65.5215 38.653 65.5354C38.6597 65.541 38.673 65.5439 38.6913 65.5448C38.7521 65.6087 38.8143 65.6697 38.8752 65.7291C39.1804 66.027 39.4451 66.2849 39.2472 66.6602C39.2097 66.7311 39.2162 66.8081 39.2447 66.8862C39.165 67.1333 39.0828 67.3805 38.9985 67.6274C38.821 67.6736 38.6717 67.7313 38.5543 67.8005C38.3339 67.9305 38.2856 68.0673 38.2286 68.2286C38.1865 68.3478 38.1394 68.4806 38.0146 68.6341C37.805 68.892 37.6271 69.1575 37.533 69.4588C37.4392 69.7588 37.3687 70.1029 37.3424 70.3467C37.3281 70.4796 37.1683 70.6168 37.0195 70.7447C36.8103 70.9245 36.6227 71.0859 36.891 71.1908C36.9767 71.2243 37.1259 71.2578 37.2707 71.2904C37.3739 71.3136 37.4747 71.3365 37.5497 71.3585C37.5257 71.4134 37.502 71.4683 37.4778 71.5233C37.2973 71.6186 37.1032 71.7681 37.3018 71.9191C37.2764 71.9757 37.2512 72.0324 37.2256 72.0871C37.1721 72.2065 37.1179 72.3233 37.0634 72.4412C37.0453 72.4797 37.0273 72.5185 37.0091 72.5575C37.0089 72.5579 37.0087 72.5582 37.0085 72.5586C36.9719 72.637 36.9351 72.716 36.8981 72.7937C36.8823 72.8269 36.8665 72.8602 36.8507 72.8935C36.8107 72.978 36.7704 73.0632 36.7298 73.1469C36.7082 73.1912 36.6868 73.2359 36.665 73.2807C36.6297 73.3533 36.5942 73.4266 36.5585 73.4994C36.5007 73.6172 36.4423 73.7344 36.3835 73.8518C36.3737 73.8711 36.3437 73.8892 36.2982 73.9021C36.2527 73.915 36.1958 73.9218 36.1372 73.9208C36.0785 73.9198 36.0216 73.9111 35.9766 73.8966C35.9317 73.8821 35.9027 73.8631 35.8937 73.8436C35.839 73.7241 35.7848 73.6049 35.7312 73.4852C35.698 73.4112 35.6646 73.3368 35.6318 73.263C35.6117 73.2175 35.5918 73.1722 35.5718 73.1272C35.5341 73.0422 35.4965 72.9556 35.4594 72.8697C35.4447 72.836 35.4301 72.8022 35.4154 72.7684C35.381 72.6893 35.347 72.6089 35.3132 72.5292C35.313 72.5287 35.3128 72.5282 35.3126 72.5277C35.2959 72.4885 35.2792 72.4493 35.2627 72.4105C35.2122 72.2908 35.1623 72.1722 35.113 72.0511C35.0863 71.9884 35.0603 71.9232 35.034 71.8584C35.0194 71.8224 35.0047 71.7864 34.9901 71.751C34.9823 71.7317 34.9747 71.7122 34.967 71.6925C34.7845 71.2407 34.6091 70.7921 34.4411 70.3396C34.2731 69.8887 34.1122 69.4372 33.9579 68.9871C33.8036 68.536 33.6561 68.0857 33.5148 67.6352C32.6178 64.7759 31.8878 61.908 31.4425 59.0436C31.3786 58.6351 31.3215 58.216 31.2706 57.8068C31.2198 57.3932 31.1751 56.9881 31.1377 56.5737C31.1259 56.4478 31.115 56.3187 31.1047 56.1863Z" fill="black"/>
<circle cx="50.4607" cy="14.7675" r="3.3234" transform="rotate(8.2828 50.4607 14.7675)" fill="black"/>
<path d="M44.5108 16.8977C44.1041 15.9248 44.5642 14.8793 44.69 13.989C44.6927 13.9689 44.6954 13.9488 44.698 13.9286C44.8269 12.8367 44.9107 11.4281 45.8426 10.5524C46.7565 9.69445 47.9435 9.1791 49.1259 9.08362C49.864 9.02129 50.5966 9.12034 51.2494 9.34958C51.6428 9.48704 52.0152 9.67168 52.3521 9.89496C53.2508 10.4876 53.8756 11.3516 54.1595 12.24C54.3552 12.8438 54.4004 13.4604 54.3172 14.0209C54.281 14.267 54.2208 14.5021 54.1403 14.7225C54.0801 14.8866 54.0088 15.0435 53.9284 15.1898C53.9171 15.2102 53.8792 15.2262 53.8213 15.2332C53.7634 15.2402 53.6908 15.2378 53.6169 15.227C53.543 15.2162 53.4726 15.198 53.4187 15.1772C53.365 15.1564 53.3326 15.1348 53.3264 15.116C53.2825 14.9801 53.2291 14.8505 53.1675 14.7301C53.0992 14.596 53.0208 14.4724 52.9353 14.3603C53.2343 14.2914 53.458 14.2193 53.5459 14.1363C53.5908 14.0942 53.6012 14.041 53.5376 14.0204C53.4804 14.0019 53.3863 14.0025 53.297 14.0049C53.2035 14.0075 53.1152 14.0122 53.0791 13.9971C53.0175 13.9714 52.8815 13.9734 52.7404 13.9831C52.689 13.9866 52.6368 13.9911 52.5871 13.9951C52.4917 13.9154 52.3926 13.8465 52.2918 13.7882C52.3026 13.7391 52.3071 13.6941 52.2806 13.6744C52.2567 13.6567 52.1884 13.6697 52.1084 13.6943C52.0926 13.6872 52.0768 13.6805 52.0609 13.6739C51.9589 13.6316 51.8571 13.5994 51.7569 13.5771C51.7729 13.4738 51.7758 13.3638 51.7227 13.2728C51.7 13.2339 51.6943 13.173 51.6854 13.1135C51.6728 13.0261 51.652 12.9413 51.5828 12.9503C51.537 12.9566 51.5277 12.901 51.5143 12.8444C51.4975 12.7691 51.4717 12.6916 51.3794 12.7789C51.3216 12.8339 51.2621 12.9063 51.2095 12.975C51.1258 13.0842 51.0601 13.1838 51.0347 13.1831C50.9866 13.1818 50.9196 13.2626 50.8674 13.3367C50.8033 13.4255 50.7597 13.504 50.7543 13.4078C50.7534 13.3932 50.7528 13.3739 50.7519 13.352C50.7489 13.271 50.7392 13.1551 50.7 13.1235C50.6837 13.1102 50.6627 13.1122 50.6382 13.139C50.6089 13.1712 50.5772 13.2601 50.5512 13.3482C50.5124 13.4764 50.4868 13.6022 50.4616 13.5457C50.4578 13.5373 50.4537 13.502 50.4496 13.4697C50.4444 13.4287 50.4391 13.393 50.4369 13.4241C50.4303 13.5156 50.4211 13.6169 50.4151 13.7272C50.4106 13.8082 50.4079 13.894 50.408 13.9841C50.3684 14.0375 50.338 14.0917 50.3149 14.1444C50.3044 14.1686 50.2953 14.1925 50.2877 14.216C50.2389 14.0872 50.1888 13.9732 50.1444 13.8895C50.0862 13.7803 50.0476 13.7548 49.9959 13.7247C49.9574 13.7028 49.9118 13.6782 49.8354 13.6222C49.6916 13.5194 49.6305 13.6041 49.644 13.7017C49.6464 13.7226 49.6499 13.7442 49.6544 13.7674C49.6722 13.8552 49.6976 13.9634 49.7255 14.0943C49.7533 14.2172 49.7482 14.2726 49.744 14.3166C49.7422 14.3387 49.7414 14.3568 49.7497 14.375C49.764 14.4063 49.7753 14.4385 49.7887 14.4692C49.8095 14.5171 49.8356 14.5611 49.8801 14.592C49.8959 14.603 49.9161 14.615 49.9379 14.6271C49.9939 14.6586 50.0629 14.6899 50.1073 14.7161C50.1107 14.7181 50.114 14.7201 50.1171 14.7221C50.163 14.7498 50.1296 14.7537 50.0567 14.7678C50.0271 14.7731 49.9104 14.7795 49.7901 14.7921C49.6194 14.8087 49.4422 14.8415 49.4977 14.8626C49.5106 14.8672 49.539 14.8704 49.5686 14.873C49.6232 14.8781 49.6822 14.88 49.6586 14.8946C49.6505 14.8998 49.6197 14.9083 49.5897 14.9171C49.5567 14.9268 49.5246 14.9369 49.5236 14.942C49.5201 14.9609 49.5316 14.9766 49.5421 14.9898C49.5557 15.0069 49.5674 15.0203 49.5438 15.0382C49.5018 15.0705 49.5511 15.0786 49.6002 15.0814C49.6378 15.084 49.6754 15.084 49.6749 15.0992C49.6731 15.1436 49.7777 15.1617 49.9195 15.1209C49.9728 15.1053 49.9193 15.1554 49.8584 15.2292C49.8203 15.2748 49.7791 15.3293 49.7574 15.3783C49.7452 15.4061 49.8011 15.3716 49.8508 15.3374C49.8969 15.3061 49.9379 15.2754 49.9223 15.3006C49.9086 15.3228 49.8349 15.4028 49.7663 15.48C49.6898 15.5658 49.6197 15.6483 49.6419 15.6403C49.6536 15.6359 49.6957 15.6008 49.7444 15.5579C49.7637 15.5409 49.784 15.5228 49.8041 15.5049C49.7892 15.5212 49.776 15.5358 49.7661 15.5469C49.6956 15.6253 49.6662 15.6735 49.639 15.7219C49.628 15.7412 49.6175 15.7604 49.6045 15.7815C49.5568 15.8591 49.5701 15.889 49.5897 15.8988C49.5979 15.9029 49.5846 15.9339 49.57 15.9705C49.5569 16.003 49.5428 16.0401 49.5411 16.0661C49.5401 16.081 49.5276 16.1095 49.5173 16.1334C49.5098 16.1507 49.5036 16.1655 49.5037 16.1707C49.5039 16.1751 49.5227 16.1513 49.5437 16.1244C49.5588 16.1051 49.5751 16.0841 49.5865 16.0709C49.6138 16.0393 49.6257 16.0323 49.6221 16.0458C49.6204 16.0521 49.6153 16.0628 49.6103 16.0735C49.6044 16.0859 49.5986 16.0985 49.5982 16.104C49.5965 16.1291 49.6253 16.1065 49.6542 16.0823C49.6861 16.0557 49.7177 16.027 49.7151 16.0607C49.7143 16.0713 49.7076 16.0929 49.7014 16.1139C49.695 16.136 49.689 16.1573 49.6901 16.1645C49.6947 16.1938 49.7455 16.1353 49.7896 16.08C49.8191 16.0433 49.8459 16.0082 49.8572 16.0026C49.8781 15.9926 49.9233 15.9138 49.9557 15.8552C49.9725 15.8248 49.9861 15.7998 49.9916 15.7928C49.9922 15.7959 49.9927 15.7994 49.9931 15.8031C49.9919 15.8099 49.9907 15.8169 49.9932 15.8156C49.9934 15.8155 49.9936 15.8152 49.9938 15.815C49.9945 15.8394 49.9922 15.8722 49.9906 15.9051C49.9867 15.9789 49.9898 16.0538 50.0294 16.0261C50.0378 16.0202 50.0555 15.9867 50.0728 15.9524C50.0941 15.9104 50.1148 15.867 50.1205 15.8723C50.134 15.8849 50.1335 15.9488 50.1367 16.0123C50.1405 16.1077 50.1547 16.2022 50.2006 16.1113C50.2155 16.0812 50.2335 16.0298 50.2505 15.9777C50.26 15.9487 50.2693 15.9193 50.2777 15.8937C50.2689 15.9424 50.2609 15.9881 50.2535 16.0308C50.2381 16.1188 50.2249 16.1941 50.2089 16.2573C50.1717 16.4066 50.1165 16.6112 50.0902 16.763C50.0832 16.8043 50.0743 16.85 50.0653 16.896C50.0427 17.0114 50.0187 17.1292 50.0274 17.186C50.0328 17.2242 50.0527 17.3128 50.0872 17.2269C50.0947 17.2082 50.1031 17.1702 50.1123 17.1279C50.1168 17.1077 50.1214 17.0865 50.1261 17.0658C50.1392 17.009 50.1534 16.9569 50.1681 16.9431C50.1715 16.9399 50.1751 16.9371 50.1787 16.9346C50.1933 16.9243 50.2094 16.9128 50.2217 16.8515C50.2359 16.7808 50.2437 16.6988 50.2533 16.6034C50.2655 16.479 50.2818 16.3315 50.3103 16.1548C50.3159 16.1198 50.3204 16.1081 50.3237 16.0992C50.326 16.0929 50.3278 16.0879 50.329 16.0773C50.3304 16.0652 50.3325 16.0398 50.3352 16.0078C50.3443 15.8946 50.3629 15.6972 50.3756 15.69C50.3791 15.6881 50.382 15.6978 50.3848 15.7066C50.3888 15.7196 50.3924 15.7302 50.3953 15.6979C50.3964 15.6856 50.3975 15.6723 50.3987 15.6586C50.4022 15.6627 50.4058 15.6669 50.4094 15.671C50.412 15.7099 50.4195 15.707 50.4285 15.7031C50.4307 15.7021 50.433 15.7012 50.4354 15.7007C50.4429 15.709 50.4506 15.7171 50.4584 15.7253C50.4646 15.7418 50.4713 15.7685 50.4795 15.8108C50.4959 15.8955 50.5157 16.0352 50.5406 16.1711C50.5511 16.2284 50.5625 16.2851 50.5745 16.3367C50.5717 16.3434 50.5693 16.3511 50.5677 16.3617C50.5567 16.4342 50.5571 16.5752 50.5563 16.7051C50.5557 16.7914 50.5546 16.8729 50.5486 16.9257C50.5373 17.0223 50.5418 17.1346 50.546 17.2177C50.5481 17.2607 50.5498 17.296 50.5481 17.3171C50.5468 17.3339 50.5426 17.342 50.5383 17.3503C50.5346 17.3575 50.5306 17.3651 50.5283 17.3787C50.4995 17.544 50.5087 17.6393 50.5283 17.778C50.5388 17.8545 50.5521 17.9442 50.561 18.0661C50.5693 18.1951 50.5693 18.233 50.5478 18.2851C50.567 18.3485 50.5873 18.4118 50.6084 18.4748C50.6156 18.4704 50.6196 18.4303 50.6242 18.3637C50.6326 18.2448 50.6723 18.1994 50.7025 18.1633C50.7165 18.1466 50.7284 18.132 50.7343 18.1133C50.765 18.0138 50.7405 17.8808 50.7218 17.7636C50.7113 17.6991 50.7021 17.6394 50.7015 17.5929C50.7012 17.573 50.6976 17.5536 50.6939 17.5338C50.6911 17.5184 50.6882 17.5028 50.6869 17.4867C50.677 17.3692 50.6875 17.2805 50.6951 17.1982C50.6995 17.1511 50.7031 17.1058 50.7026 17.0586C50.7024 17.0442 50.7019 17.0296 50.7014 17.0153C50.7006 16.9946 50.6999 16.9748 50.7002 16.9577C50.7009 16.9189 50.7078 16.892 50.7148 16.8626C50.7184 16.8476 50.7221 16.8318 50.725 16.8135C50.7287 16.7897 50.7249 16.7431 50.7208 16.6946C50.718 16.6602 50.7149 16.6249 50.714 16.5955C50.7124 16.5424 50.7205 16.522 50.7277 16.503C50.7308 16.4947 50.7338 16.4865 50.7357 16.4762C50.7365 16.472 50.7359 16.464 50.7343 16.4531C50.7442 16.4142 50.7522 16.3745 50.7589 16.3356C50.7945 16.1398 50.79 15.9758 50.8981 16.0624C50.9191 16.0785 50.933 16.0689 50.9416 16.0468C51.0056 16.072 51.0741 16.0941 51.1468 16.1118C51.2052 16.2012 51.2602 16.2732 51.3105 16.3254C51.4054 16.4233 51.4557 16.4266 51.5138 16.429C51.5572 16.4305 51.6051 16.4315 51.6881 16.4626C51.8275 16.5148 51.9678 16.5372 52.0845 16.5029C52.2007 16.4694 52.3177 16.4013 52.3862 16.3392C52.4235 16.306 52.5305 16.3227 52.6331 16.3317C52.7767 16.3455 52.9116 16.3425 52.7965 16.2214C52.7597 16.1828 52.6898 16.1252 52.6211 16.0704C52.5721 16.0314 52.524 15.9937 52.4889 15.9645C52.5109 15.9548 52.5327 15.9447 52.5548 15.9342C52.6656 15.9567 52.7974 15.9549 52.7136 15.8517C52.7363 15.8388 52.7587 15.8255 52.781 15.8125C52.8284 15.7834 52.8754 15.7534 52.9221 15.7211C52.9375 15.7106 52.9529 15.6996 52.9684 15.6885C52.9685 15.6884 52.9687 15.6883 52.9689 15.6882C52.9999 15.6658 53.0308 15.6424 53.0614 15.6185C53.0745 15.6082 53.0875 15.5978 53.1005 15.5872C53.1334 15.5603 53.166 15.5323 53.1983 15.5036C53.2155 15.4885 53.2325 15.4726 53.2496 15.4569C53.2772 15.4312 53.3047 15.4044 53.3319 15.3769C53.376 15.3322 53.4192 15.2868 53.4618 15.2383C53.4688 15.2304 53.4878 15.2247 53.5156 15.2223C53.5435 15.22 53.5778 15.2213 53.6126 15.2263C53.6474 15.2314 53.6807 15.2401 53.7065 15.2508C53.7323 15.2615 53.7482 15.2734 53.7521 15.2839C53.7761 15.3481 53.7981 15.4124 53.8176 15.4797C53.8297 15.5211 53.8412 15.5631 53.8516 15.6051C53.858 15.6309 53.8638 15.6572 53.8696 15.6833C53.8804 15.7326 53.8899 15.7831 53.8981 15.8339C53.9014 15.854 53.9044 15.8741 53.9073 15.8943C53.9141 15.9416 53.9197 15.9897 53.9241 16.0382C53.9241 16.0385 53.9242 16.0388 53.9242 16.0391C53.9263 16.063 53.9283 16.0869 53.93 16.1107C53.935 16.1839 53.9377 16.2573 53.9371 16.3328C53.9374 16.3721 53.9362 16.4126 53.9344 16.4534C53.9334 16.4761 53.9323 16.4988 53.931 16.5212C53.9302 16.5334 53.9292 16.5457 53.9282 16.558C53.9071 16.8438 53.8488 17.134 53.7499 17.4214C53.6517 17.7081 53.5141 17.9903 53.3403 18.2574C53.166 18.5249 52.9552 18.7775 52.711 19.0065C51.9542 19.7251 50.8465 20.2072 49.6627 20.2494C48.444 20.3056 47.1171 19.8765 46.0905 19.0204C45.8009 18.7819 45.5281 18.5035 45.2902 18.2052C45.0499 17.9035 44.8422 17.5818 44.6654 17.2312C44.6116 17.1249 44.5599 17.0136 44.5108 16.8977Z" fill="black"/>
</svg>
