<svg width="59" height="89" viewBox="0 0 59 89" fill="none" xmlns="http://www.w3.org/2000/svg">
<path d="M46.6165 48.9926C47.3779 49.5658 47.4189 50.8628 48.115 51.5112C48.9791 52.3163 50.4584 52.4862 51.2144 53.4118C51.9653 54.3328 52.6717 55.3102 53.338 56.3253C54.0052 57.3413 54.6339 58.3963 55.239 59.4801C55.8422 60.5623 56.422 61.6734 56.9866 62.7986C57.37 63.5628 57.7475 64.3348 58.1218 65.1089C58.2862 65.4486 58.4494 65.7879 58.6129 66.1283C58.7348 66.3824 58.8566 66.6365 58.9784 66.8906C58.9952 66.9261 58.9806 66.9932 58.9356 67.0795C58.8906 67.1659 58.8193 67.264 58.7347 67.3551C58.65 67.4463 58.5572 67.5248 58.4746 67.5759C58.3921 67.6268 58.3268 67.6457 58.2905 67.6312C58.0287 67.5247 57.7668 67.4183 57.5049 67.3119C57.2141 67.1935 56.9236 67.0757 56.6334 66.9569C56.9467 66.5512 57.1636 66.2243 57.1928 66.0181C57.2077 65.9129 57.1675 65.8262 57.0553 65.8514C56.9544 65.8741 56.8188 65.9555 56.6896 66.0332C56.5545 66.1144 56.4262 66.1916 56.3525 66.1924C56.2273 66.1939 56.0167 66.2941 55.7954 66.3995C55.7149 66.4378 55.6329 66.4769 55.5531 66.512C55.2771 66.3975 55.0016 66.2823 54.7268 66.1666C54.6844 66.0531 54.6414 65.9532 54.5653 65.9111C54.497 65.8734 54.3728 65.9052 54.2309 65.9566C54.1885 65.9386 54.1461 65.9205 54.1036 65.9025C53.8301 65.7857 53.5576 65.6676 53.2856 65.5489C53.2181 65.3004 53.1402 65.0477 52.9614 64.8025C52.8844 64.6969 52.8417 64.5567 52.8005 64.4221C52.7397 64.2233 52.6825 64.0363 52.5239 63.9892C52.4179 63.9577 52.3905 63.8339 52.3632 63.7104C52.3266 63.5448 52.2901 63.3795 52.0639 63.4376C51.9217 63.4742 51.7661 63.5347 51.6219 63.5909C51.3923 63.6803 51.1917 63.7586 51.1203 63.7106C50.9862 63.6203 50.775 63.6447 50.5888 63.6662C50.3648 63.6921 50.1769 63.7138 50.2032 63.5269C50.2071 63.4986 50.2146 63.4629 50.2233 63.4226C50.2691 63.2099 50.3423 62.8698 50.0434 62.8168C49.937 62.7979 49.771 62.8514 49.6081 62.904C49.3711 62.9806 49.141 63.0549 49.1121 62.9C49.1079 62.8769 49.1334 62.8203 49.1569 62.7687C49.1866 62.703 49.2126 62.6457 49.1686 62.6757C49.0396 62.7637 48.8848 62.8497 48.7163 62.9433C48.5926 63.0121 48.4614 63.085 48.328 63.1656C48.0302 63.0047 47.7348 62.8412 47.4422 62.6744C47.3081 62.598 47.1746 62.5209 47.0417 62.4432C47.1414 62.2228 47.2243 62.0179 47.2697 61.8468C47.3291 61.6233 47.2685 61.4817 47.1907 61.2989C47.1335 61.1644 47.0669 61.0074 47.0315 60.7795C46.9659 60.3577 46.6733 60.1671 46.4151 60.121C46.3605 60.1113 46.3043 60.1029 46.2439 60.0943C46.0146 60.0617 45.728 60.0216 45.2734 59.8486C44.8433 59.685 44.547 59.4711 44.3244 59.3104C44.2108 59.2284 44.1167 59.1599 44.0335 59.1193C43.8911 59.0499 43.7268 58.9534 43.562 58.8563C43.3041 58.7044 43.0448 58.5513 42.8645 58.5007C42.8003 58.4827 42.729 58.468 42.6524 58.4518C42.44 58.407 42.1835 58.3527 41.9033 58.1989C41.6093 58.0374 41.4993 57.8594 41.4281 57.6281C41.3991 57.5341 41.4764 57.3404 41.5564 57.1404C41.6699 56.8567 41.7885 56.5605 41.6144 56.5202C41.5738 56.5108 41.514 56.5185 41.4513 56.5267C41.3361 56.5417 41.2114 56.5582 41.1801 56.4712C41.1691 56.4408 41.1866 56.3849 41.2037 56.3302C41.2225 56.2699 41.2408 56.2109 41.2208 56.1881C41.1459 56.1028 41.0564 56.0377 40.9768 55.98C40.8742 55.9055 40.7882 55.843 40.7716 55.7646C40.742 55.6247 40.5983 55.5919 40.4524 55.559C40.3411 55.5338 40.2283 55.5087 40.1648 55.435C39.9836 55.2246 39.6098 55.0693 39.1639 54.9749C38.9952 54.9391 38.9855 54.7652 38.9734 54.5421C38.9658 54.4033 38.9576 54.2452 38.909 54.09C38.8815 54.002 38.7585 54.0349 38.6448 54.0651C38.5401 54.093 38.4432 54.1186 38.4354 54.0461C38.4286 53.9821 38.5293 53.8285 38.6249 53.6826C38.7314 53.5202 38.8315 53.3675 38.7701 53.3585C38.7375 53.3537 38.6517 53.3976 38.5496 53.4498C38.5093 53.4704 38.4665 53.4921 38.4233 53.5129C38.4489 53.4866 38.4714 53.4626 38.4884 53.4444C38.6079 53.3157 38.6327 53.2124 38.6568 53.1112C38.6665 53.0708 38.6759 53.0308 38.6914 52.9895C38.7485 52.8377 38.6798 52.7406 38.6099 52.6853C38.5803 52.6618 38.5924 52.5987 38.6065 52.525C38.619 52.4596 38.6331 52.3858 38.6211 52.3241C38.6142 52.289 38.6326 52.2365 38.648 52.1928C38.6592 52.1612 38.6688 52.1343 38.6658 52.122C38.6632 52.1115 38.6235 52.1434 38.5789 52.1794C38.5468 52.2053 38.5119 52.2333 38.4865 52.2491C38.4257 52.2867 38.3937 52.2854 38.3962 52.2575C38.3974 52.2447 38.4061 52.226 38.4149 52.2075C38.425 52.186 38.4353 52.1643 38.4335 52.1517C38.4252 52.094 38.3538 52.1061 38.2796 52.1186C38.1981 52.1324 38.1132 52.1466 38.1049 52.0695C38.1023 52.0452 38.1129 52.005 38.1232 51.966C38.134 51.9251 38.1443 51.8856 38.1388 51.8674C38.1164 51.7935 37.985 51.843 37.8641 51.8884C37.7838 51.9187 37.7081 51.947 37.6722 51.9364C37.6064 51.9167 37.4796 52.0047 37.386 52.0698C37.3375 52.1035 37.2977 52.1312 37.28 52.1344C37.2756 52.1245 37.2717 52.1141 37.2682 52.1034C37.2691 52.0891 37.27 52.0744 37.2612 52.0711C37.2605 52.0709 37.2596 52.0709 37.2589 52.0707C37.2434 52.0064 37.239 51.9316 37.2348 51.8571C37.2254 51.6899 37.2162 51.5245 37.0797 51.4863C37.0503 51.478 36.9876 51.5048 36.924 51.5321C36.8459 51.5654 36.7661 51.5995 36.7437 51.5709C36.6901 51.5027 36.6966 51.3686 36.703 51.2365C36.7127 51.0377 36.722 50.8436 36.5267 50.8849C36.4622 50.8986 36.374 50.9391 36.2853 50.9801C36.2358 51.0029 36.186 51.026 36.1404 51.0443C36.1998 50.9869 36.2542 50.9317 36.3049 50.8803C36.4095 50.7743 36.4991 50.6836 36.5875 50.618C36.7964 50.463 37.0754 50.2417 37.2457 50.0494C37.2919 49.9972 37.3457 49.9412 37.3999 49.8849C37.5359 49.7437 37.6748 49.5994 37.7039 49.503C37.7236 49.4379 37.7627 49.2831 37.6249 49.3598C37.5949 49.3765 37.5462 49.4196 37.4919 49.4675C37.3945 49.5534 37.2791 49.6552 37.221 49.6499C37.2112 49.649 37.2013 49.6472 37.1915 49.6449C37.1522 49.636 37.1085 49.6257 37.0271 49.6919C36.9334 49.7682 36.8427 49.8712 36.737 49.9912C36.5994 50.1476 36.4359 50.3333 36.2065 50.5271C36.1612 50.5654 36.1374 50.5709 36.1194 50.5751C36.1068 50.5781 36.0968 50.5806 36.0843 50.5933C36.07 50.6078 36.0429 50.6404 36.0086 50.6817C35.8876 50.8275 35.676 51.0821 35.611 51.0409C35.5934 51.0297 35.5869 51.0022 35.5812 50.9775C35.5728 50.9411 35.5657 50.9109 35.5264 50.9482C35.5115 50.9624 35.4957 50.978 35.4794 50.9944C35.4658 50.9729 35.4521 50.9513 35.4385 50.9298C35.4592 50.861 35.4229 50.8349 35.3774 50.8025C35.3663 50.7946 35.3549 50.7861 35.3435 50.7768C35.3169 50.7339 35.2902 50.6911 35.2638 50.648C35.2542 50.6018 35.2544 50.5412 35.2707 50.4599C35.3034 50.297 35.407 50.0744 35.5083 49.8567C35.551 49.765 35.5935 49.674 35.6299 49.5888C35.6461 49.5892 35.6628 49.5874 35.6808 49.5804C35.8044 49.5323 35.9812 49.376 36.1439 49.2321C36.2521 49.1364 36.3541 49.0462 36.4299 48.9972C36.5687 48.9074 36.6932 48.7672 36.7852 48.6636C36.833 48.6099 36.8722 48.5659 36.8999 48.544C36.9222 48.5264 36.9385 48.5236 36.9554 48.5207C36.9702 48.5182 36.9855 48.5154 37.0053 48.5029C37.2452 48.3513 37.3375 48.2197 37.4718 48.0282C37.5459 47.9226 37.6329 47.7987 37.7645 47.6432C37.9051 47.4797 37.95 47.4354 38.0363 47.3984C38.0869 47.3002 38.1376 47.202 38.1882 47.1038C38.175 47.101 38.1232 47.1437 38.0389 47.2163C37.8884 47.3459 37.7864 47.3497 37.7067 47.3527C37.6698 47.354 37.6376 47.3553 37.6076 47.3688C37.4481 47.4404 37.3101 47.6182 37.1887 47.7747C37.1219 47.8608 37.0601 47.9405 37.0024 47.9924C36.9778 48.0147 36.9586 48.0416 36.9389 48.069C36.9237 48.0902 36.9083 48.1117 36.89 48.1316C36.757 48.2762 36.6282 48.3557 36.5087 48.4294C36.4402 48.4717 36.3746 48.5123 36.313 48.562C36.2943 48.5772 36.2757 48.5932 36.2577 48.6088C36.2315 48.6315 36.2064 48.6532 36.183 48.67C36.1298 48.7082 36.0806 48.7217 36.0269 48.7363C35.9994 48.7437 35.9707 48.7515 35.9395 48.7632C35.8992 48.7783 35.8412 48.8305 35.7806 48.885C35.7378 48.9236 35.6937 48.9632 35.6532 48.992C35.5801 49.0443 35.5317 49.0427 35.4868 49.0413C35.4673 49.0406 35.4481 49.0403 35.4281 49.0441C35.42 49.0457 35.4092 49.0539 35.3963 49.067C35.3137 49.0742 35.232 49.0841 35.1523 49.094C34.7524 49.1437 34.406 49.1871 34.2923 48.8171C34.2708 48.7471 34.2159 48.7062 34.1456 48.6809C34.0368 48.4748 33.9296 48.2668 33.824 48.0574C33.9125 47.8981 33.9746 47.7529 34.0078 47.6245C34.07 47.3835 34.0126 47.2664 33.9449 47.1281C33.8948 47.0259 33.8392 46.9121 33.822 46.7281C33.7931 46.4191 33.7379 46.1292 33.6033 45.8801C33.4692 45.6322 33.2905 45.3753 33.1481 45.2109C33.0705 45.1212 33.0875 44.9209 33.1032 44.7344C33.1252 44.472 33.1448 44.2368 32.8964 44.3737C32.817 44.4175 32.6952 44.5084 32.5768 44.5967C32.4925 44.6596 32.4101 44.7208 32.3454 44.7635C32.3254 44.713 32.3052 44.6628 32.2854 44.6122C32.3437 44.4214 32.3755 44.1883 32.1435 44.2461C32.1233 44.1936 32.103 44.1411 32.0842 44.0896C32.0417 43.9789 32.0013 43.8692 31.9604 43.7587C31.9473 43.7224 31.9339 43.6859 31.9205 43.6492C31.9203 43.6489 31.9202 43.6485 31.9201 43.6481C31.8932 43.5744 31.866 43.5001 31.8398 43.4264C31.8285 43.3949 31.8172 43.3634 31.806 43.3319C31.7773 43.2518 31.7484 43.1713 31.7207 43.0914C31.706 43.0491 31.6911 43.0065 31.6762 42.9637C31.6522 42.8943 31.6279 42.8244 31.604 42.7546C31.5654 42.6417 31.5276 42.5286 31.4899 42.4151C31.4838 42.3965 31.492 42.3633 31.514 42.3219C31.536 42.2804 31.5696 42.2341 31.6095 42.1912C31.6494 42.1482 31.6933 42.1111 31.7329 42.0862C31.7724 42.0615 31.8043 42.0513 31.8232 42.0561C31.9382 42.0865 32.0527 42.1171 32.1672 42.1484C32.2379 42.1678 32.3091 42.1871 32.3795 42.2066C32.4228 42.2187 32.4659 42.2309 32.5088 42.2428C32.5898 42.2653 32.6718 42.2888 32.753 42.3123C32.785 42.3215 32.817 42.3306 32.849 42.3398C32.9239 42.3613 32.9994 42.3838 33.0744 42.4061C33.0748 42.4062 33.0753 42.4063 33.0757 42.4065C33.1127 42.4174 33.1495 42.4283 33.1861 42.4391C33.2983 42.4727 33.4096 42.5061 33.5222 42.5415C33.5811 42.5589 33.6413 42.5784 33.7014 42.5973C33.7349 42.6079 33.7684 42.6183 33.8013 42.6285C33.8192 42.6342 33.8371 42.6402 33.8552 42.6461C34.2739 42.7791 34.6856 42.9154 35.0951 43.0595C35.5034 43.2026 35.9074 43.3515 36.3061 43.5043C36.7055 43.6578 37.0997 43.8159 37.4899 43.9787C39.9668 45.0116 42.3375 46.1738 44.5153 47.5454C44.8262 47.7407 45.1395 47.9474 45.442 48.1528C45.7475 48.3609 46.0432 48.5684 46.3403 48.7869C46.4308 48.853 46.5227 48.9216 46.6165 48.9926Z" fill="black"/>
<path d="M8.02243 51.9007C8.6508 51.1841 9.94727 51.24 10.6457 50.5943C11.513 49.7926 11.7928 48.3301 12.7722 47.6452C13.7466 46.965 14.774 46.3335 15.8359 45.7447C16.8988 45.1551 17.9978 44.6069 19.1237 44.0843C20.2478 43.5635 21.3991 43.0681 22.5632 42.5891C23.354 42.2637 24.1519 41.9448 24.9518 41.6293C25.3028 41.4907 25.6534 41.3532 26.005 41.2155C26.2675 41.113 26.5299 41.0104 26.7924 40.9079C26.829 40.8938 26.8949 40.9134 26.9776 40.9647C27.0604 41.016 27.1529 41.0944 27.2375 41.1856C27.3221 41.2769 27.3934 41.3752 27.4382 41.4615C27.4828 41.5475 27.4968 41.614 27.4796 41.6491C27.354 41.9023 27.2283 42.1555 27.1026 42.4087C26.9629 42.6899 26.8237 42.9708 26.6836 43.2514C26.3025 42.9086 25.9926 42.6679 25.7892 42.6235C25.6854 42.6008 25.5959 42.6344 25.6127 42.7482C25.6278 42.8505 25.6988 42.9918 25.7667 43.1264C25.8376 43.2672 25.905 43.4009 25.9004 43.4745C25.8925 43.5994 25.9768 43.8169 26.0653 44.0454C26.0975 44.1286 26.1303 44.2133 26.1594 44.2955C26.0247 44.5622 25.8893 44.8283 25.7534 45.0937C25.637 45.1275 25.5342 45.163 25.4866 45.2357C25.4438 45.301 25.4663 45.4272 25.507 45.5725C25.4858 45.6135 25.4647 45.6545 25.4435 45.6954C25.3066 45.9595 25.1686 46.2225 25.0299 46.4848C24.7771 46.5336 24.5192 46.5924 24.2614 46.7524C24.1503 46.8214 24.0074 46.8535 23.8701 46.8845C23.6673 46.9303 23.4765 46.9734 23.4177 47.1281C23.3784 47.2315 23.2529 47.2495 23.1278 47.2675C22.9599 47.2917 22.7923 47.3158 22.8334 47.5456C22.8593 47.6902 22.908 47.8499 22.9533 47.9979C23.0253 48.2335 23.0884 48.4394 23.0352 48.507C22.9353 48.634 22.9438 48.8464 22.9513 49.0337C22.9605 49.259 22.9681 49.448 22.7837 49.4079C22.7557 49.4018 22.7208 49.3917 22.6812 49.38C22.4725 49.3185 22.1388 49.2201 22.0636 49.5142C22.0369 49.6189 22.0778 49.7885 22.1182 49.9548C22.1769 50.1969 22.2338 50.4319 22.0772 50.4491C22.0538 50.4517 21.9993 50.4219 21.9495 50.3947C21.8863 50.3601 21.831 50.33 21.8577 50.3761C21.9359 50.5113 22.01 50.6721 22.0909 50.8471C22.1502 50.9756 22.2132 51.1119 22.2836 51.2509C22.1009 51.5359 21.9158 51.8183 21.7276 52.0976C21.6415 52.2256 21.5546 52.353 21.4672 52.4797C21.2549 52.3639 21.0567 52.266 20.8895 52.2079C20.671 52.132 20.5253 52.1818 20.3372 52.2458C20.1988 52.2928 20.0374 52.3475 19.8075 52.3659C19.3819 52.3998 19.17 52.6774 19.1048 52.9314C19.091 52.9852 19.0784 53.0405 19.0654 53.1002C19.0158 53.3264 18.9544 53.6092 18.748 54.0497C18.5528 54.4663 18.3174 54.7458 18.1405 54.9558C18.0502 55.063 17.9749 55.1518 17.9283 55.2317C17.8485 55.3686 17.7399 55.5252 17.6308 55.6823C17.4601 55.9281 17.2881 56.1753 17.2242 56.3513C17.2015 56.414 17.1815 56.484 17.1597 56.5592C17.0991 56.7677 17.0259 57.0194 16.8516 57.2873C16.6686 57.5685 16.4829 57.6649 16.247 57.7187C16.1511 57.7405 15.9637 57.649 15.7702 57.5543C15.4957 57.42 15.2092 57.2797 15.156 57.4502C15.1436 57.49 15.1468 57.5503 15.1503 57.6134C15.1567 57.7294 15.1638 57.855 15.0747 57.8797C15.0437 57.8883 14.9892 57.8668 14.9359 57.8457C14.8772 57.8224 14.8197 57.7997 14.7955 57.818C14.7048 57.8863 14.6333 57.9707 14.5697 58.0458C14.4878 58.1426 14.419 58.2237 14.3396 58.2344C14.198 58.2534 14.1546 58.3943 14.1108 58.5373C14.0774 58.6465 14.0439 58.7571 13.9658 58.8149C13.7424 58.9799 13.5597 59.3411 13.4322 59.7787C13.384 59.9443 13.2098 59.9409 12.9865 59.9364C12.8475 59.9336 12.6893 59.93 12.5309 59.9669C12.4411 59.9878 12.4646 60.1128 12.4863 60.2285C12.5063 60.335 12.5246 60.4336 12.4518 60.4359C12.3874 60.4379 12.2417 60.326 12.1034 60.2198C11.9494 60.1015 11.8045 59.9903 11.791 60.0508C11.7838 60.083 11.8212 60.1719 11.8656 60.2775C11.8832 60.3193 11.9016 60.3636 11.9191 60.4082C11.8948 60.3807 11.8726 60.3564 11.8557 60.3382C11.7362 60.2094 11.6351 60.177 11.536 60.1453C11.4964 60.1327 11.4572 60.1203 11.4172 60.1018C11.27 60.0336 11.1681 60.0948 11.1077 60.1604C11.0821 60.1881 11.02 60.1714 10.9476 60.1519C10.8833 60.1345 10.8108 60.1149 10.7484 60.1223C10.7128 60.1265 10.6619 60.1043 10.6195 60.0857C10.5888 60.0722 10.5626 60.0606 10.5502 60.0627C10.5395 60.0645 10.5684 60.1064 10.6009 60.1536C10.6243 60.1876 10.6497 60.2244 10.6635 60.2509C10.6965 60.3144 10.6928 60.3462 10.6652 60.3416C10.6525 60.3395 10.6346 60.3293 10.6168 60.3193C10.596 60.3075 10.5752 60.2956 10.5625 60.2965C10.5043 60.3004 10.511 60.3726 10.518 60.4475C10.5257 60.5298 10.5335 60.6155 10.456 60.6181C10.4316 60.6188 10.3923 60.6053 10.3541 60.5921C10.3142 60.5783 10.2755 60.565 10.257 60.5692C10.1816 60.586 10.2211 60.7207 10.2575 60.8447C10.2816 60.9271 10.3043 61.0047 10.291 61.0397C10.2664 61.1038 10.3448 61.2368 10.4027 61.335C10.4326 61.3859 10.4573 61.4276 10.4592 61.4455C10.449 61.4491 10.4383 61.4523 10.4274 61.455C10.4132 61.453 10.3986 61.451 10.3947 61.4596C10.3944 61.4602 10.3943 61.4612 10.3941 61.4618C10.3288 61.4725 10.2539 61.4713 10.1793 61.4699C10.0118 61.4668 9.84624 61.4637 9.79793 61.5969C9.78752 61.6256 9.8096 61.6901 9.832 61.7556C9.85944 61.8359 9.88751 61.918 9.85728 61.9383C9.78524 61.9866 9.65199 61.9701 9.52073 61.9539C9.32329 61.9295 9.13041 61.9057 9.15703 62.1035C9.16582 62.1689 9.19967 62.2598 9.23392 62.3514C9.25301 62.4024 9.27231 62.4538 9.28714 62.5006C9.23429 62.4371 9.18336 62.3788 9.13586 62.3243C9.03796 62.2121 8.95419 62.1161 8.89536 62.023C8.75635 61.8032 8.55648 61.5083 8.37743 61.3242C8.32884 61.2742 8.27702 61.2165 8.22492 61.1582C8.09422 61.012 7.96073 60.8628 7.86669 60.8265C7.80331 60.8021 7.65183 60.7515 7.71807 60.8946C7.73251 60.9258 7.77182 60.9776 7.81549 61.0353C7.89395 61.1389 7.98682 61.2615 7.97719 61.3191C7.97557 61.3288 7.97305 61.3385 7.97007 61.3482C7.95819 61.3866 7.94467 61.4294 8.00466 61.5155C8.07378 61.6147 8.16968 61.7128 8.28151 61.8272C8.42714 61.9761 8.60013 62.153 8.77636 62.3961C8.81118 62.4442 8.81489 62.4683 8.81773 62.4866C8.81973 62.4994 8.82153 62.5095 8.83318 62.5229C8.84658 62.5383 8.87711 62.5678 8.91575 62.6051C9.05208 62.7366 9.2902 62.9666 9.24423 63.0283C9.23178 63.045 9.2039 63.0494 9.17882 63.0533C9.14187 63.059 9.11127 63.0638 9.14552 63.1058C9.15854 63.1217 9.17299 63.1387 9.18811 63.1561C9.16562 63.1681 9.14312 63.1801 9.12063 63.1921C9.0536 63.1663 9.02482 63.2006 8.98909 63.2435C8.98041 63.2539 8.97111 63.2647 8.96095 63.2754C8.91622 63.2987 8.87152 63.3221 8.82662 63.3452C8.77975 63.3514 8.71937 63.3467 8.63953 63.3243C8.47954 63.2795 8.26524 63.1597 8.05574 63.0424C7.96746 62.993 7.87988 62.9439 7.79765 62.9012C7.79928 62.8851 7.79872 62.8683 7.79306 62.8498C7.7543 62.7229 7.61162 62.535 7.48027 62.362C7.39289 62.247 7.31052 62.1385 7.2673 62.0593C7.18811 61.9142 7.05766 61.7796 6.96121 61.6801C6.91119 61.6284 6.87027 61.5861 6.85045 61.5568C6.8346 61.5333 6.83303 61.5168 6.83137 61.4997C6.82992 61.4848 6.82832 61.4693 6.81735 61.4487C6.68405 61.1981 6.55971 61.0963 6.37877 60.948C6.27897 60.8663 6.16193 60.7703 6.01661 60.6275C5.86412 60.475 5.82323 60.427 5.79278 60.3381C5.69863 60.2803 5.60449 60.2225 5.51034 60.1647C5.50651 60.1777 5.54529 60.2325 5.61139 60.3219C5.72943 60.4817 5.7256 60.5837 5.72261 60.6634C5.72123 60.7003 5.7201 60.7325 5.73127 60.7634C5.79076 60.9278 5.95781 61.0787 6.10481 61.2114C6.18572 61.2844 6.26058 61.3521 6.30807 61.4134C6.3284 61.4397 6.3538 61.4608 6.37966 61.4825C6.39965 61.4992 6.42001 61.5162 6.4385 61.5359C6.57278 61.6793 6.64238 61.8137 6.70703 61.9384C6.74405 62.0098 6.77965 62.0783 6.82468 62.1434C6.83839 62.1632 6.85296 62.183 6.86716 62.202C6.8879 62.2299 6.90762 62.2565 6.92261 62.2811C6.95675 62.337 6.96653 62.3871 6.97707 62.4417C6.98248 62.4697 6.98812 62.4989 6.99743 62.5308C7.0095 62.5722 7.05725 62.6339 7.10708 62.6984C7.14229 62.744 7.17849 62.791 7.20428 62.8334C7.25089 62.9102 7.24573 62.9584 7.24095 63.003C7.23886 63.0225 7.23707 63.0416 7.23943 63.0618C7.2404 63.07 7.24776 63.0814 7.25985 63.0952C7.2609 63.1781 7.26468 63.2603 7.26862 63.3406C7.28838 63.743 7.30578 64.0917 6.92829 64.1775C6.85692 64.1938 6.81202 64.2454 6.78158 64.3137C6.56795 64.4068 6.35253 64.4982 6.13586 64.5879C5.98356 64.4877 5.84342 64.415 5.71787 64.3723C5.48213 64.2923 5.36105 64.3408 5.21816 64.398C5.11251 64.4403 4.99483 64.4873 4.81012 64.4907C4.49976 64.4965 4.20655 64.5299 3.94815 64.6456C3.69087 64.7609 3.42143 64.9198 3.24682 65.0496C3.15162 65.1203 2.95315 65.0884 2.76832 65.0589C2.50833 65.0173 2.27519 64.9802 2.39326 65.2382C2.43101 65.3206 2.51256 65.4489 2.59175 65.5735C2.64816 65.6622 2.7031 65.749 2.7408 65.8167C2.68903 65.8329 2.63739 65.8492 2.58544 65.8653C2.39952 65.7929 2.16946 65.7438 2.20981 65.9794C2.15595 65.9957 2.10214 66.012 2.04938 66.0269C1.93578 66.0611 1.82341 66.0932 1.71008 66.1257C1.67294 66.1361 1.63552 66.1467 1.59798 66.1574C1.5976 66.1575 1.59722 66.1575 1.59685 66.1576C1.52128 66.179 1.44516 66.2006 1.36975 66.2212C1.33749 66.2301 1.30523 66.239 1.27297 66.2479C1.19102 66.2705 1.10858 66.2933 1.02683 66.315C0.983486 66.3264 0.939977 66.3382 0.896199 66.3498C0.825176 66.3686 0.753666 66.3876 0.682246 66.4062C0.566757 66.4363 0.451191 66.4656 0.335178 66.4947C0.316134 66.4994 0.283734 66.4887 0.244052 66.4637C0.204319 66.4387 0.160632 66.4017 0.120779 66.3587C0.0809135 66.3157 0.0471818 66.2692 0.0253377 66.2278C0.00359965 66.1866 -0.00417083 66.154 0.00208231 66.1355C0.0408848 66.0231 0.0800042 65.9113 0.119764 65.7994C0.144329 65.7303 0.16891 65.6608 0.193641 65.5921C0.208889 65.5497 0.224287 65.5077 0.239311 65.4657C0.267816 65.3867 0.297388 65.3066 0.326832 65.2274C0.338371 65.1962 0.349909 65.165 0.361448 65.1338C0.38844 65.0607 0.416537 64.9871 0.444323 64.9139C0.444495 64.9135 0.444667 64.9131 0.444839 64.9126C0.458509 64.8766 0.472117 64.8407 0.485554 64.805C0.527504 64.6956 0.569096 64.5871 0.612766 64.4775C0.634537 64.4201 0.658422 64.3615 0.6818 64.3029C0.694816 64.2703 0.707736 64.2377 0.720347 64.2056C0.727388 64.1883 0.73465 64.1708 0.741948 64.1532C0.905759 63.7456 1.07235 63.3452 1.24663 62.9476C1.41981 62.5511 1.59835 62.1593 1.78052 61.7731C1.96339 61.3863 2.15041 61.005 2.34187 60.628C3.55662 58.235 4.89237 55.9576 6.42256 53.8881C6.64051 53.5926 6.86995 53.2957 7.09736 53.0093C7.32764 52.7202 7.55666 52.4408 7.79671 52.1608C7.86937 52.0755 7.94464 51.9889 8.02243 51.9007Z" fill="black"/>
<path d="M24.3723 63.3468C24.2745 61.8095 25.1973 60.33 25.1991 58.7875C25.2014 56.8723 24.3196 54.9265 24.4838 53.0069C24.648 51.0983 24.8839 49.1805 25.1747 47.2688C25.4655 45.355 25.8112 43.444 26.194 41.5292C26.5769 39.6184 26.9968 37.7036 27.4375 35.7913C27.7369 34.4925 28.0459 33.1922 28.3587 31.8935C28.4958 31.3234 28.6336 30.755 28.7718 30.1851C28.8752 29.76 28.9785 29.3349 29.0819 28.9098C29.0965 28.8507 29.1556 28.7941 29.2495 28.7523C29.3435 28.7106 29.4638 28.687 29.5882 28.6871C29.7127 28.6872 29.8333 28.7109 29.927 28.7528C30.0204 28.7947 30.0787 28.8514 30.0927 28.9105C30.1928 29.3392 30.2929 29.7679 30.3931 30.1966C30.5041 30.6727 30.6154 31.1481 30.7257 31.6241C30.2152 31.6991 29.8281 31.8019 29.6571 31.9947C29.5698 32.093 29.5336 32.2365 29.6284 32.3421C29.7137 32.437 29.8656 32.5084 30.0104 32.5763C30.1619 32.6472 30.3057 32.7146 30.3565 32.8012C30.4427 32.9483 30.6595 33.0882 30.8872 33.235C30.97 33.2884 31.0545 33.3428 31.1345 33.3988C31.2383 33.8533 31.3413 34.3077 31.4434 34.7621C31.3891 34.9376 31.3451 35.099 31.3661 35.2358C31.3848 35.3586 31.4927 35.4711 31.6268 35.5831C31.6425 35.6534 31.6581 35.7237 31.6737 35.7941C31.7742 36.2481 31.8731 36.7022 31.9711 37.1564C31.8349 37.5108 31.7026 37.8822 31.6445 38.3651C31.6195 38.5732 31.5458 38.7786 31.4751 38.976C31.3707 39.2676 31.2726 39.5419 31.3459 39.7823C31.395 39.9431 31.3229 40.1122 31.2509 40.2808C31.1544 40.507 31.0581 40.7328 31.2546 40.9375C31.3781 41.0662 31.5283 41.1844 31.6676 41.2939C31.8893 41.468 32.0832 41.6202 32.0966 41.758C32.1216 42.0169 32.2831 42.2411 32.4256 42.4387C32.5969 42.6764 32.7407 42.8757 32.5858 43.0508C32.5623 43.0773 32.5311 43.1077 32.4956 43.1419C32.3086 43.3221 32.0095 43.6102 32.1739 44.024C32.2325 44.1713 32.3847 44.3096 32.534 44.4451C32.7514 44.6424 32.9624 44.8339 32.8685 45.0391C32.8544 45.0697 32.7956 45.1017 32.7418 45.1308C32.6734 45.1679 32.6137 45.2003 32.6656 45.2194C32.8179 45.2756 32.9863 45.3649 33.1695 45.4618C33.3041 45.533 33.4468 45.6085 33.5966 45.6781C33.6812 46.2096 33.7623 46.7412 33.8391 47.2729C33.8743 47.5165 33.9086 47.7602 33.942 48.004C33.7127 48.1286 33.5061 48.2561 33.3498 48.3908C33.1456 48.5668 33.083 48.795 33.0019 49.0891C32.9423 49.3055 32.8725 49.5578 32.7296 49.8513C32.465 50.3946 32.5243 50.9527 32.6662 51.3104C32.6962 51.386 32.7283 51.4621 32.7631 51.5434C32.8952 51.8519 33.0607 52.2368 33.2432 52.9679C33.4158 53.6596 33.4606 54.2477 33.4942 54.6896C33.5114 54.9151 33.5252 55.1026 33.5521 55.2462C33.5981 55.492 33.6391 55.7938 33.68 56.0967C33.7441 56.5709 33.8083 57.048 33.8939 57.3181C33.9244 57.4142 33.9621 57.5151 34.0023 57.6241C34.114 57.926 34.2486 58.2907 34.3265 58.7934C34.4082 59.3211 34.3525 59.6482 34.2314 59.988C34.1822 60.126 33.9877 60.2479 33.7867 60.3734C33.5014 60.5515 33.2037 60.7373 33.2925 60.9886C33.3133 61.0473 33.3597 61.1099 33.4083 61.1754C33.4977 61.2957 33.5946 61.4258 33.5521 61.559C33.5373 61.6054 33.4845 61.6464 33.4327 61.6865C33.3757 61.7306 33.32 61.7739 33.3169 61.8229C33.3053 62.006 33.3185 62.1841 33.3303 62.3425C33.3456 62.5466 33.3582 62.7178 33.312 62.824C33.2297 63.0134 33.3034 63.2204 33.3785 63.4301C33.4358 63.5903 33.4941 63.752 33.4832 63.9087C33.4522 64.3563 33.5927 64.9718 33.8269 65.6061C33.9154 65.846 33.7945 66.0494 33.6392 66.3099C33.5426 66.4719 33.4324 66.6561 33.3516 66.8851C33.3059 67.0148 33.4136 67.1248 33.5131 67.2265C33.6048 67.3203 33.6895 67.4072 33.6417 67.4964C33.5993 67.5751 33.4182 67.6249 33.2462 67.6722C33.0548 67.7248 32.8748 67.7743 32.9099 67.8571C32.9286 67.9012 33.0192 67.9547 33.1268 68.0185C33.1694 68.0437 33.2144 68.0706 33.259 68.099C33.2223 68.0976 33.1895 68.0972 33.1646 68.0972C32.9889 68.0971 32.8964 68.1816 32.8057 68.2645C32.7696 68.2976 32.7338 68.3306 32.693 68.3577C32.5429 68.4573 32.5185 68.6461 32.5255 68.7903C32.5284 68.8513 32.4739 68.9066 32.4103 68.9711C32.3539 69.0284 32.2902 69.0929 32.2531 69.1752C32.232 69.2222 32.1811 69.2582 32.1386 69.2881C32.1078 69.3097 32.0815 69.328 32.0746 69.3451C32.0687 69.3598 32.119 69.3717 32.1758 69.3851C32.2166 69.3948 32.2608 69.4052 32.2897 69.4181C32.3587 69.4488 32.3795 69.4883 32.3573 69.516C32.3471 69.5288 32.3275 69.539 32.308 69.549C32.2853 69.5607 32.2624 69.5723 32.2544 69.5884C32.2177 69.6619 32.2751 69.7335 32.3348 69.8079C32.4004 69.8896 32.4685 69.9748 32.4176 70.0697C32.4016 70.0996 32.3649 70.1314 32.3293 70.1622C32.292 70.1944 32.256 70.2257 32.2464 70.2523C32.2075 70.3605 32.3332 70.4621 32.4487 70.5556C32.5256 70.6178 32.5979 70.6765 32.6144 70.7309C32.6447 70.8308 32.7955 70.8844 32.9069 70.9239C32.9646 70.9444 33.012 70.9611 33.0263 70.9786C33.0221 70.9947 33.0171 71.0109 33.0117 71.0269C33.0006 71.0415 32.9891 71.0566 32.9928 71.0708C32.9931 71.0719 32.9937 71.073 32.994 71.074C32.9574 71.1633 32.9056 71.251 32.8539 71.3382C32.7377 71.5339 32.6227 71.7272 32.6875 71.9316C32.7015 71.9757 32.7638 72.0206 32.8271 72.0662C32.9046 72.1222 32.9839 72.1794 32.9782 72.2377C32.9646 72.3766 32.8619 72.5168 32.7607 72.6549C32.6084 72.8626 32.4598 73.0657 32.623 73.2523C32.6768 73.3139 32.7665 73.374 32.8569 73.4343C32.9073 73.4678 32.9581 73.5016 33.0025 73.5356C32.9201 73.5284 32.8426 73.5246 32.7704 73.521C32.6216 73.5136 32.4942 73.5072 32.386 73.4745C32.1302 73.3972 31.7782 73.3096 31.5214 73.3194C31.4517 73.322 31.3741 73.3199 31.296 73.3175C31.0999 73.3117 30.8997 73.3057 30.8092 73.3775C30.7482 73.4259 30.6081 73.5502 30.758 73.6293C30.7907 73.6465 30.8554 73.657 30.9274 73.6686C31.0567 73.6896 31.2098 73.7145 31.2454 73.7895C31.2514 73.8021 31.2568 73.8158 31.2619 73.83C31.282 73.8865 31.3042 73.9498 31.4081 73.9735C31.5278 74.0007 31.6649 73.9949 31.8248 73.9881C32.0331 73.9793 32.2804 73.9688 32.5785 74.0275C32.6374 74.0392 32.6576 74.0613 32.6729 74.0781C32.6837 74.0899 32.6924 74.0989 32.7101 74.0998C32.7305 74.1008 32.7728 74.0971 32.8265 74.0923C33.0156 74.0753 33.3462 74.0459 33.3602 74.1687C33.3639 74.2019 33.3482 74.2399 33.334 74.274C33.313 74.3242 33.2957 74.3659 33.3498 74.3715C33.3703 74.3736 33.3926 74.3751 33.4156 74.3763C33.4091 74.4163 33.4026 74.4563 33.3961 74.4963C33.3316 74.5475 33.3372 74.6195 33.3443 74.7093C33.3461 74.7312 33.3477 74.7541 33.3486 74.778C33.3353 74.8569 33.322 74.9358 33.3084 75.0147C33.281 75.0772 33.2365 75.1438 33.1658 75.214C33.0242 75.3548 32.7905 75.4773 32.562 75.5969C32.4658 75.6474 32.3702 75.6973 32.283 75.748C32.2723 75.7283 32.2596 75.7105 32.2422 75.6967C32.1228 75.6029 31.888 75.5652 31.6719 75.5306C31.5281 75.5075 31.3926 75.4858 31.3051 75.4498C31.1449 75.3838 30.9575 75.3905 30.8189 75.3953C30.7471 75.3978 30.6882 75.3997 30.6532 75.391C30.6252 75.3839 30.612 75.3675 30.5984 75.3507C30.5865 75.336 30.574 75.3208 30.5515 75.3111C30.2771 75.1932 30.1179 75.2286 29.8861 75.2802C29.7583 75.3086 29.6083 75.3418 29.4048 75.3571C29.1894 75.3702 29.1263 75.3658 29.0405 75.304C28.9341 75.3521 28.8277 75.4003 28.7212 75.4484C28.7282 75.4673 28.7947 75.4816 28.9052 75.5017C29.1027 75.5377 29.1748 75.6547 29.2312 75.7462C29.2573 75.7885 29.2801 75.8254 29.3104 75.8462C29.4714 75.9568 29.6956 75.9247 29.8929 75.8963C30.0014 75.8807 30.1019 75.8664 30.1792 75.8776C30.2123 75.8823 30.2451 75.8755 30.2785 75.8686C30.3044 75.8633 30.3307 75.8579 30.3577 75.8576C30.5542 75.8562 30.7 75.9216 30.8354 75.9824C30.9129 76.0172 30.9873 76.0503 31.0657 76.0687C31.0896 76.0743 31.1139 76.0787 31.1376 76.0829C31.1721 76.0889 31.205 76.0949 31.2332 76.1041C31.2975 76.1253 31.3408 76.1688 31.388 76.2165C31.4122 76.241 31.4375 76.2665 31.4672 76.2907C31.5057 76.322 31.5834 76.3333 31.6646 76.3452C31.722 76.3536 31.781 76.3624 31.8297 76.3786C31.9177 76.4079 31.9495 76.4671 31.979 76.5221C31.9918 76.546 32.0046 76.5692 32.021 76.5887C32.0277 76.5966 32.0411 76.6004 32.0594 76.6013C32.1209 76.6915 32.1837 76.7777 32.2452 76.8615C32.5537 77.2819 32.8211 77.6458 32.6272 78.1893C32.5906 78.292 32.5979 78.4023 32.6272 78.5138C32.5502 78.8705 32.4706 79.2273 32.389 79.5838C32.212 79.6544 32.0633 79.7407 31.9467 79.8429C31.7277 80.0348 31.6809 80.2323 31.6256 80.4652C31.5847 80.6375 31.5391 80.8292 31.416 81.0526C31.2091 81.4279 31.0342 81.8132 30.9432 82.248C30.8527 82.6809 30.7859 83.1766 30.7623 83.5272C30.7493 83.7184 30.591 83.9192 30.4436 84.1063C30.2363 84.3695 30.0505 84.6057 30.3199 84.7499C30.406 84.7959 30.5555 84.8405 30.7007 84.8838C30.8042 84.9146 30.9052 84.9451 30.9804 84.9749C30.957 85.0543 30.9339 85.1337 30.9103 85.2132C30.7308 85.3543 30.5383 85.5736 30.7385 85.7856C30.7138 85.8675 30.6891 85.9495 30.6642 86.0287C30.612 86.2014 30.5591 86.3704 30.5058 86.5409C30.4882 86.5966 30.4705 86.6528 30.4528 86.7091C30.4526 86.7097 30.4524 86.7102 30.4522 86.7107C30.4164 86.8242 30.3805 86.9384 30.3443 87.0508C30.3289 87.099 30.3134 87.1471 30.298 87.1953C30.2588 87.3176 30.2195 87.4408 30.1798 87.5619C30.1587 87.626 30.1377 87.6907 30.1165 87.7556C30.0819 87.8607 30.0472 87.9667 30.0123 88.0721C29.9558 88.2426 29.8986 88.4123 29.8411 88.5823C29.8315 88.6101 29.8017 88.6368 29.7564 88.6564C29.711 88.6761 29.6541 88.6871 29.5955 88.6871C29.5369 88.6871 29.4799 88.6759 29.4347 88.6562C29.3896 88.6365 29.3605 88.6098 29.3512 88.5821C29.2952 88.4119 29.2398 88.242 29.1849 88.0714C29.1509 87.966 29.1167 87.8601 29.0831 87.7549C29.0625 87.69 29.0421 87.6254 29.0216 87.5612C28.983 87.4401 28.9445 87.3167 28.9065 87.1943C28.8914 87.1462 28.8764 87.0981 28.8614 87.0499C28.8262 86.9372 28.7913 86.8226 28.7566 86.7089C28.7564 86.7082 28.7562 86.7075 28.756 86.7068C28.7389 86.6509 28.7218 86.595 28.7048 86.5397C28.6531 86.3692 28.6019 86.2001 28.5513 86.0273C28.5239 85.938 28.4972 85.845 28.4702 85.7526C28.4552 85.7012 28.4401 85.6499 28.4251 85.5995C28.4172 85.572 28.4093 85.544 28.4014 85.516C28.214 84.8717 28.0338 84.2319 27.861 83.5863C27.6881 82.943 27.5223 82.2986 27.3632 81.6561C27.204 81.0121 27.0517 80.3692 26.9056 79.7257C25.9778 75.6422 25.217 71.5424 24.7409 67.4408C24.6726 66.8557 24.6109 66.2554 24.5557 65.6692C24.5004 65.0766 24.4514 64.4962 24.4095 63.902C24.3964 63.7216 24.3841 63.5366 24.3723 63.3468Z" fill="black"/>
<path d="M16.2388 22.1896C14.9226 19.9061 15.2162 17.2271 15.1999 14.8464C15.1994 14.7933 15.1989 14.7403 15.1984 14.6871C15.1449 11.7777 15.2777 8.34331 17.213 5.78366C19.1255 3.24435 21.852 1.39131 24.7977 0.550594C26.6356 0.0197165 28.5502 -0.120741 30.3651 0.101058C31.4583 0.233248 32.5283 0.494217 33.5388 0.873535C36.2296 1.87727 38.4556 3.7293 39.8768 5.93219C40.848 7.42733 41.4619 9.08391 41.7036 10.7298C41.8105 11.4522 41.847 12.1714 41.8176 12.876C41.7954 13.4007 41.7371 13.9204 41.6452 14.4233C41.6322 14.4935 41.5739 14.5614 41.4804 14.6108C41.3867 14.6603 41.2663 14.6872 41.1419 14.6871C41.0174 14.687 40.8969 14.6602 40.8029 14.6149C40.7092 14.5694 40.6501 14.509 40.6346 14.4457C40.524 13.9877 40.3828 13.5409 40.2141 13.1156C40.0267 12.6418 39.805 12.1913 39.5547 11.7676C40.0182 11.5413 40.3522 11.3124 40.4399 11.0509C40.4849 10.9178 40.46 10.7507 40.3274 10.6761C40.2085 10.609 40.0375 10.595 39.8754 10.5848C39.7057 10.5741 39.5457 10.5678 39.4617 10.5067C39.3188 10.4027 39.0598 10.3666 38.7908 10.342C38.6929 10.333 38.5933 10.3253 38.4972 10.3157C38.1975 9.9782 37.8778 9.66851 37.543 9.38762C37.4892 9.22343 37.4287 9.07566 37.3306 8.98899C37.2426 8.91118 37.0912 8.89994 36.9228 8.91178C36.8685 8.87376 36.8138 8.83649 36.7589 8.79991C36.4045 8.56357 36.0393 8.35642 35.6675 8.17948C35.5119 7.87763 35.3197 7.5676 34.9763 7.28372C34.8284 7.16181 34.7029 7.004 34.5744 6.85445C34.386 6.63419 34.1894 6.43185 33.9513 6.40862C33.7928 6.39329 33.6747 6.26766 33.5485 6.1438C33.3817 5.97846 33.1973 5.81614 32.9541 5.94923C32.8016 6.03298 32.6553 6.14893 32.5244 6.25929C32.3163 6.43501 32.1468 6.59597 32.0274 6.58523C31.8032 6.56517 31.5844 6.69449 31.4045 6.81471C31.1852 6.95908 31.019 7.08897 30.8868 6.92495C30.8666 6.9001 30.8436 6.86739 30.8172 6.83037C30.7205 6.69353 30.5748 6.50001 30.3651 6.45725C30.2765 6.43916 30.1782 6.44839 30.0739 6.50104C29.9495 6.56396 29.839 6.72292 29.74 6.88048C29.5949 7.11006 29.4733 7.33563 29.3023 7.26486C29.2766 7.25429 29.2433 7.19966 29.2124 7.14994C29.1731 7.0867 29.1374 7.03192 29.1303 7.08564C29.1096 7.24322 29.0683 7.42088 29.0305 7.61436C29.0025 7.7565 28.9768 7.90715 28.9592 8.06393C28.6095 8.22406 28.2798 8.40857 27.9716 8.61269C27.8307 8.70614 27.6934 8.80407 27.5613 8.90554C27.3858 8.73593 27.2107 8.59315 27.0497 8.50226C26.8388 8.38392 26.6553 8.41489 26.4206 8.46799C26.2475 8.50752 26.0467 8.55877 25.7733 8.58585C25.2626 8.63716 24.9475 9.00934 24.8511 9.31414C24.83 9.37887 24.811 9.44524 24.7923 9.51652C24.7241 9.78735 24.6407 10.1214 24.4799 10.6746C24.3318 11.1973 24.1832 11.5909 24.0841 11.895C24.0338 12.0501 23.9976 12.1793 23.9866 12.2845C23.9679 12.4639 23.9392 12.6784 23.9225 12.8925C23.8949 13.2279 23.9002 13.5632 23.9597 13.7564C23.9807 13.825 24.0094 13.8972 24.0414 13.9742C24.1242 14.1719 24.2298 14.3973 24.3088 14.6871C24.315 14.7097 24.321 14.7325 24.3268 14.7558C24.4137 15.0919 24.3795 15.2931 24.2878 15.5267C24.251 15.6205 24.071 15.7282 23.8881 15.8486C23.6284 16.017 23.3646 16.2183 23.4953 16.3791C23.5257 16.4162 23.582 16.4492 23.6412 16.4828C23.7502 16.5447 23.8683 16.6052 23.8555 16.7075C23.8511 16.7433 23.8096 16.7872 23.7693 16.8308C23.725 16.8787 23.6822 16.9265 23.6909 16.9617C23.7232 17.0927 23.7819 17.2115 23.8363 17.3146C23.9063 17.4477 23.9693 17.5566 23.9602 17.6468C23.9441 17.8081 24.0804 17.9161 24.2191 18.0141C24.3255 18.0899 24.4338 18.161 24.4832 18.2627C24.6236 18.5551 25.0028 18.8497 25.4681 19.0194C25.6435 19.0834 25.6473 19.2636 25.6709 19.504C25.6856 19.653 25.7076 19.825 25.7824 19.9965C25.8252 20.094 25.9577 20.0637 26.0768 20.0318C26.187 20.0027 26.2865 19.9728 26.3075 20.0489C26.3261 20.1161 26.2467 20.2825 26.1739 20.4423C26.0926 20.6199 26.0197 20.7894 26.0931 20.7981C26.1321 20.8025 26.2182 20.752 26.3186 20.6899C26.3582 20.6654 26.4001 20.6392 26.4425 20.6138C26.4212 20.6438 26.4028 20.671 26.3891 20.6917C26.2916 20.8379 26.2949 20.9512 26.3015 21.063C26.3041 21.1076 26.3073 21.1519 26.3041 21.198C26.2923 21.368 26.4138 21.4697 26.5204 21.5215C26.5654 21.5435 26.5787 21.613 26.5957 21.6945C26.6108 21.7668 26.629 21.8486 26.6743 21.9134C26.7002 21.9503 26.7048 22.0096 26.7089 22.0591C26.7118 22.095 26.7145 22.1256 26.7247 22.1383C26.7336 22.1493 26.765 22.1086 26.8001 22.0625C26.8253 22.0294 26.8526 21.9934 26.8749 21.9721C26.9281 21.9211 26.9665 21.9163 26.9781 21.9462C26.9835 21.96 26.9829 21.9814 26.9824 22.0026C26.9818 22.0274 26.9811 22.0523 26.9901 22.0652C27.0317 22.1246 27.1112 22.0971 27.1921 22.067C27.2815 22.0341 27.3714 21.9978 27.4256 22.0741C27.4427 22.0981 27.4539 22.142 27.4651 22.1845C27.4769 22.2291 27.4889 22.2722 27.5067 22.2891C27.5796 22.3581 27.7037 22.2689 27.8139 22.1843C27.8873 22.1281 27.955 22.0742 28.002 22.0718C28.0888 22.0677 28.1734 21.9354 28.2345 21.8375C28.2662 21.7867 28.2918 21.7449 28.3086 21.7348C28.3193 21.7423 28.3299 21.7505 28.3401 21.7591C28.3479 21.7729 28.356 21.7871 28.3675 21.7865C28.3683 21.7865 28.3693 21.786 28.3702 21.786C28.4263 21.8397 28.4793 21.9074 28.5326 21.974C28.652 22.1237 28.784 22.2703 28.9571 22.2364C28.9944 22.2291 29.0408 22.1741 29.0869 22.1177C29.1435 22.0487 29.1997 21.9775 29.2433 21.9899C29.3468 22.0193 29.4408 22.1351 29.5402 22.2476C29.6872 22.4165 29.8495 22.5775 30.0099 22.4213C30.0623 22.3697 30.1139 22.2818 30.164 22.1926C30.1919 22.1429 30.2194 22.0927 30.2467 22.0487C30.2397 22.1311 30.2354 22.2085 30.2313 22.2806C30.2227 22.4293 30.2154 22.5566 30.1856 22.6642C30.1158 22.9186 30.024 23.2674 30.0226 23.5243C30.0224 23.594 30.0175 23.6715 30.0123 23.7495C29.9994 23.9451 29.9848 24.1451 30.0537 24.238C30.0994 24.3007 30.2246 24.4436 30.3064 24.294C30.324 24.2614 30.3348 24.1967 30.3466 24.1248C30.3523 24.0903 30.3581 24.0542 30.3651 24.019C30.3842 23.9222 30.4111 23.8329 30.4637 23.8062C30.4757 23.8001 30.4889 23.7945 30.5024 23.7893C30.5563 23.7684 30.6163 23.7446 30.6354 23.6401C30.6574 23.5196 30.6472 23.3827 30.6363 23.2231C30.6215 23.0152 30.6071 22.7683 30.6451 22.4688C30.6526 22.4095 30.6697 22.3887 30.6827 22.3728C30.6917 22.3617 30.6986 22.3527 30.6986 22.335C30.6985 22.3146 30.6937 22.2724 30.6877 22.219C30.666 22.0305 30.6326 21.7014 30.7216 21.6832C30.7458 21.6782 30.7749 21.6924 30.801 21.705C30.8395 21.7237 30.8718 21.7387 30.872 21.6845C30.8721 21.6639 30.8716 21.6416 30.8709 21.6186C30.9005 21.623 30.9302 21.6272 30.9599 21.6312C31.0028 21.6923 31.0551 21.6821 31.1203 21.668C31.1362 21.6646 31.1529 21.6611 31.1703 21.6582C31.2296 21.6649 31.289 21.6708 31.3484 21.6763C31.3979 21.697 31.4527 21.7339 31.5164 21.7953C31.6435 21.9184 31.7785 22.1312 31.9192 22.336C31.9783 22.4223 32.039 22.5072 32.0994 22.5833C32.0854 22.5973 32.0733 22.6128 32.0655 22.6323C32.012 22.7656 32.0257 23.002 32.0361 23.2202C32.043 23.3653 32.0485 23.5023 32.031 23.5946C31.9986 23.7634 32.0366 23.9468 32.0662 24.0824C32.0813 24.1527 32.0937 24.2103 32.0911 24.2462C32.089 24.2751 32.0749 24.291 32.0602 24.3074C32.0475 24.3217 32.0342 24.3366 32.0282 24.3605C31.9537 24.6512 32.0119 24.8028 32.1066 25.022C32.1584 25.143 32.2205 25.2844 32.2731 25.4818C32.3251 25.6914 32.3318 25.7544 32.2739 25.8514C32.3481 25.9468 32.4237 26.0414 32.5008 26.1354C32.5222 26.1244 32.5272 26.0557 32.5301 25.9426C32.5356 25.7407 32.6556 25.6434 32.7481 25.5653C32.7909 25.5293 32.8276 25.4975 32.8443 25.4626C32.9328 25.2769 32.8425 25.0675 32.7678 24.8825C32.7263 24.7807 32.6887 24.6862 32.6829 24.6083C32.6803 24.5749 32.6658 24.5446 32.6512 24.5137C32.6399 24.4897 32.6284 24.4654 32.6221 24.4391C32.5768 24.2479 32.6094 24.0908 32.6357 23.9449C32.651 23.8614 32.6644 23.7813 32.6623 23.701C32.6617 23.6765 32.6598 23.6518 32.6579 23.6279C32.655 23.593 32.6523 23.5597 32.6538 23.5302C32.6574 23.4629 32.6865 23.4106 32.7174 23.3533C32.7333 23.324 32.7496 23.2933 32.7633 23.2586C32.781 23.2136 32.7698 23.136 32.7579 23.055C32.7495 22.9977 32.7409 22.9388 32.7413 22.888C32.742 22.7962 32.7828 22.7511 32.8201 22.7088C32.8364 22.6904 32.8518 22.6723 32.8633 22.6515C32.8679 22.643 32.867 22.6293 32.8622 22.6116C32.9186 22.5294 32.9691 22.4465 33.0162 22.3651C33.2546 21.9542 33.4018 21.6073 33.8782 21.584C33.969 21.5788 34.0452 21.5301 34.1101 21.4606C34.4001 21.3879 34.6912 21.2989 34.9815 21.1924C35.1322 21.3025 35.2802 21.3789 35.4224 21.4178C35.6901 21.4903 35.8622 21.4136 36.0597 21.3167C36.2063 21.2445 36.3671 21.1613 36.6031 21.1037C36.9993 21.0066 37.386 20.8477 37.7258 20.5691C38.065 20.2931 38.4011 19.9179 38.6019 19.6267C38.7116 19.4694 38.9485 19.3708 39.1691 19.2662C39.479 19.1209 39.7569 18.9609 39.5711 18.7131C39.5117 18.6341 39.3927 18.5325 39.2758 18.4358C39.1926 18.3669 39.1109 18.3003 39.0524 18.2448C39.1035 18.1816 39.1538 18.1173 39.2038 18.0522C39.4211 17.9871 39.68 17.8349 39.5533 17.5686C39.6016 17.4973 39.6488 17.4252 39.6949 17.3548C39.7932 17.2004 39.8874 17.0461 39.9784 16.8864C40.0083 16.8343 40.038 16.7812 40.0674 16.7274C40.0677 16.7269 40.068 16.7264 40.0683 16.7259C40.1273 16.6179 40.1848 16.5081 40.2405 16.3978C40.2643 16.3506 40.2877 16.303 40.3108 16.2551C40.3695 16.1338 40.426 16.0102 40.4805 15.8862C40.5095 15.8208 40.5378 15.7532 40.5656 15.6866C40.6108 15.578 40.6545 15.4668 40.6967 15.3546C40.7649 15.1721 40.8288 14.9913 40.8884 14.8033C40.8983 14.7726 40.9283 14.7432 40.9737 14.7214C41.0191 14.6996 41.076 14.6871 41.1346 14.6871C41.1932 14.6871 41.2502 14.6999 41.2954 14.7227C41.3403 14.7455 41.3693 14.7766 41.3782 14.8088C41.4321 15.0068 41.4803 15.2035 41.5223 15.4079C41.5484 15.5336 41.5726 15.6604 41.594 15.7868C41.6073 15.8644 41.6193 15.9438 41.6308 16.0218C41.6523 16.1696 41.6707 16.3201 41.6855 16.471C41.6914 16.5306 41.6969 16.5903 41.7018 16.6501C41.7135 16.7902 41.7219 16.9322 41.7276 17.0749C41.7276 17.0758 41.7276 17.0766 41.7277 17.0775C41.7304 17.1478 41.7325 17.2181 41.7341 17.2877C41.7382 17.5023 41.7363 17.7164 41.7262 17.9362C41.7221 18.05 41.7147 18.1677 41.7055 18.286C41.7004 18.3517 41.6949 18.4174 41.689 18.482C41.6856 18.5172 41.6818 18.5528 41.6778 18.5887C41.5916 19.4133 41.4105 20.2396 41.1281 21.0552C40.8474 21.868 40.4681 22.6645 39.9987 23.4188C39.5281 24.1748 38.9665 24.8893 38.3222 25.5434C36.3213 27.593 33.4611 29.0306 30.3651 29.3809C27.1777 29.7701 23.6981 28.9788 20.8556 27.0847C20.0552 26.5571 19.2855 25.9294 18.5976 25.2448C17.9025 24.5526 17.2837 23.8044 16.7311 22.9785C16.5633 22.7281 16.3986 22.4648 16.2388 22.1896Z" fill="black"/>
</svg>
