<svg width="59" height="74" viewBox="0 0 59 74" fill="none" xmlns="http://www.w3.org/2000/svg">
<path d="M16.4182 22.1896C15.1019 19.9061 15.3956 17.2271 15.3793 14.8463C15.3788 14.7933 15.3783 14.7402 15.3778 14.6871C15.3242 11.7777 15.4571 8.3433 17.3923 5.78365C19.3049 3.24434 22.0314 1.39131 24.9771 0.550591C26.815 0.0197127 28.7295 -0.120744 30.5444 0.101054C31.6377 0.233244 32.7077 0.494213 33.7181 0.873531C36.409 1.87727 38.635 3.7293 40.0562 5.93219C41.0274 7.42733 41.6413 9.08391 41.883 10.7298C41.9899 11.4522 42.0263 12.1714 41.997 12.876C41.9747 13.4007 41.9165 13.9204 41.8245 14.4233C41.8116 14.4935 41.7533 14.5614 41.6598 14.6108C41.5661 14.6603 41.4456 14.6872 41.3213 14.6871C41.1968 14.687 41.0762 14.6602 40.9823 14.6149C40.8886 14.5694 40.8295 14.509 40.814 14.4457C40.7034 13.9877 40.5622 13.5409 40.3934 13.1156C40.2061 12.6418 39.9844 12.1913 39.7341 11.7676C40.1976 11.5413 40.5316 11.3124 40.6193 11.0508C40.6642 10.9178 40.6394 10.7507 40.5068 10.6761C40.3879 10.609 40.2169 10.595 40.0548 10.5848C39.8851 10.5741 39.725 10.5678 39.641 10.5066C39.4982 10.4027 39.2392 10.3666 38.9702 10.342C38.8723 10.333 38.7727 10.3253 38.6766 10.3157C38.3768 9.97819 38.0572 9.66851 37.7224 9.38761C37.6686 9.22342 37.6081 9.07566 37.51 8.98899C37.422 8.91117 37.2706 8.89994 37.1022 8.91178C37.0479 8.87376 36.9932 8.83649 36.9383 8.7999C36.5839 8.56356 36.2187 8.35642 35.8469 8.17948C35.6913 7.87762 35.499 7.5676 35.1557 7.28371C35.0078 7.16181 34.8823 7.004 34.7538 6.85445C34.5654 6.63419 34.3688 6.43184 34.1307 6.40862C33.9722 6.39328 33.8541 6.26765 33.7278 6.1438C33.5611 5.97846 33.3767 5.81614 33.1335 5.94923C32.981 6.03298 32.8347 6.14892 32.7038 6.25929C32.4957 6.435 32.3262 6.59596 32.2068 6.58522C31.9826 6.56516 31.7638 6.69448 31.5839 6.81471C31.3645 6.95908 31.1984 7.08897 31.0661 6.92495C31.046 6.90009 31.023 6.86739 30.9966 6.83036C30.8998 6.69353 30.7542 6.5 30.5444 6.45725C30.4559 6.43916 30.3576 6.44839 30.2532 6.50104C30.1289 6.56396 30.0184 6.72291 29.9194 6.88048C29.7743 7.11006 29.6526 7.33563 29.4817 7.26485C29.456 7.25428 29.4227 7.19965 29.3917 7.14993C29.3524 7.0867 29.3167 7.03192 29.3097 7.08564C29.289 7.24321 29.2477 7.42087 29.2099 7.61436C29.1819 7.7565 29.1562 7.90714 29.1386 8.06393C28.7889 8.22406 28.4592 8.40856 28.151 8.61268C28.0101 8.70613 27.8728 8.80406 27.7407 8.90554C27.5651 8.73593 27.3901 8.59315 27.2291 8.50225C27.0182 8.38392 26.8347 8.41489 26.6 8.46798C26.4269 8.50751 26.226 8.55877 25.9526 8.58584C25.442 8.63716 25.1269 9.00934 25.0305 9.31413C25.0093 9.37887 24.9903 9.44524 24.9717 9.51652C24.9035 9.78735 24.8201 10.1214 24.6592 10.6746C24.5112 11.1973 24.3625 11.5909 24.2635 11.895C24.2132 12.0501 24.177 12.1793 24.166 12.2845C24.1473 12.4639 24.1186 12.6784 24.1019 12.8925C24.0742 13.2279 24.0795 13.5632 24.1391 13.7564C24.1601 13.825 24.1888 13.8972 24.2208 13.9742C24.3035 14.1718 24.4092 14.3973 24.4882 14.6871C24.4944 14.7097 24.5004 14.7325 24.5062 14.7558C24.593 15.0919 24.5589 15.2931 24.4672 15.5267C24.4303 15.6205 24.2503 15.7282 24.0675 15.8486C23.8078 16.017 23.544 16.2183 23.6747 16.3791C23.7051 16.4162 23.7613 16.4492 23.8206 16.4828C23.9296 16.5447 24.0476 16.6052 24.0349 16.7075C24.0305 16.7433 23.989 16.7872 23.9487 16.8308C23.9044 16.8787 23.8616 16.9265 23.8703 16.9617C23.9026 17.0927 23.9613 17.2115 24.0157 17.3146C24.0857 17.4477 24.1486 17.5566 24.1395 17.6468C24.1234 17.8081 24.2597 17.9161 24.3984 18.0141C24.5049 18.0899 24.6132 18.161 24.6626 18.2627C24.803 18.5551 25.1821 18.8497 25.6475 19.0194C25.8229 19.0834 25.8267 19.2636 25.8503 19.504C25.8649 19.653 25.8869 19.825 25.9618 19.9965C26.0046 20.094 26.1371 20.0637 26.2562 20.0318C26.3664 20.0027 26.4659 19.9728 26.4869 20.0489C26.5055 20.1161 26.4261 20.2825 26.3533 20.4423C26.272 20.6199 26.1991 20.7894 26.2725 20.7981C26.3115 20.8025 26.3976 20.752 26.498 20.6899C26.5376 20.6654 26.5795 20.6392 26.6218 20.6138C26.6006 20.6438 26.5822 20.671 26.5684 20.6917C26.4709 20.8379 26.4742 20.9512 26.4809 21.063C26.4835 21.1076 26.4867 21.1518 26.4835 21.198C26.4717 21.368 26.5932 21.4697 26.6998 21.5215C26.7448 21.5435 26.758 21.613 26.7751 21.6945C26.7902 21.7668 26.8084 21.8486 26.8537 21.9134C26.8795 21.9503 26.8842 22.0096 26.8882 22.0591C26.8912 22.095 26.8939 22.1256 26.9041 22.1383C26.913 22.1493 26.9444 22.1086 26.9795 22.0625C27.0047 22.0294 27.032 21.9934 27.0542 21.9721C27.1075 21.9211 27.1459 21.9163 27.1575 21.9462C27.1629 21.96 27.1623 21.9814 27.1618 22.0026C27.1611 22.0274 27.1605 22.0523 27.1695 22.0652C27.211 22.1246 27.2906 22.0971 27.3715 22.067C27.4608 22.0341 27.5508 21.9978 27.605 22.0741C27.622 22.0981 27.6332 22.142 27.6445 22.1845C27.6563 22.2291 27.6683 22.2721 27.6861 22.2891C27.759 22.3581 27.8831 22.2689 27.9932 22.1842C28.0667 22.1281 28.1344 22.0742 28.1814 22.0718C28.2682 22.0677 28.3528 21.9354 28.4139 21.8375C28.4455 21.7867 28.4711 21.7448 28.488 21.7348C28.4986 21.7423 28.5092 21.7505 28.5195 21.7591C28.5273 21.7729 28.5353 21.7871 28.5468 21.7865C28.5477 21.7864 28.5487 21.786 28.5496 21.786C28.6057 21.8397 28.6586 21.9074 28.712 21.974C28.8314 22.1237 28.9634 22.2703 29.1365 22.2364C29.1738 22.2291 29.2202 22.1741 29.2663 22.1177C29.3229 22.0487 29.3791 21.9775 29.4227 21.9899C29.5261 22.0193 29.6202 22.1351 29.7196 22.2476C29.8666 22.4165 30.0288 22.5775 30.1893 22.4212C30.2416 22.3697 30.2933 22.2818 30.3433 22.1926C30.3713 22.1429 30.3988 22.0927 30.426 22.0487C30.4191 22.1311 30.4148 22.2084 30.4107 22.2806C30.4021 22.4293 30.3948 22.5566 30.3649 22.6642C30.2951 22.9186 30.2034 23.2674 30.202 23.5243C30.2018 23.594 30.1969 23.6715 30.1917 23.7495C30.1788 23.9451 30.1642 24.1451 30.2331 24.238C30.2788 24.3007 30.404 24.4436 30.4858 24.294C30.5034 24.2614 30.5142 24.1967 30.526 24.1248C30.5316 24.0903 30.5375 24.0542 30.5444 24.019C30.5635 23.9222 30.5905 23.8329 30.6431 23.8062C30.6551 23.8001 30.6682 23.7945 30.6818 23.7893C30.7357 23.7684 30.7957 23.7446 30.8148 23.6401C30.8368 23.5196 30.8266 23.3827 30.8156 23.2231C30.8009 23.0152 30.7864 22.7683 30.8245 22.4688C30.832 22.4095 30.8491 22.3887 30.862 22.3728C30.8711 22.3617 30.878 22.3527 30.878 22.335C30.8779 22.3146 30.8731 22.2724 30.8671 22.219C30.8454 22.0305 30.812 21.7014 30.901 21.6832C30.9252 21.6782 30.9543 21.6924 30.9804 21.705C31.0189 21.7237 31.0512 21.7387 31.0514 21.6845C31.0515 21.6639 31.051 21.6416 31.0503 21.6186C31.0799 21.623 31.1096 21.6272 31.1393 21.6312C31.1822 21.6923 31.2345 21.6821 31.2997 21.668C31.3156 21.6646 31.3323 21.6611 31.3496 21.6582C31.409 21.6649 31.4683 21.6708 31.5278 21.6763C31.5773 21.697 31.6321 21.7339 31.6958 21.7953C31.8229 21.9184 31.9579 22.1312 32.0986 22.336C32.1577 22.4223 32.2183 22.5072 32.2788 22.5833C32.2647 22.5973 32.2526 22.6128 32.2448 22.6323C32.1914 22.7656 32.2051 23.002 32.2155 23.2202C32.2224 23.3653 32.2279 23.5023 32.2103 23.5945C32.178 23.7634 32.216 23.9468 32.2456 24.0823C32.2607 24.1526 32.2731 24.2102 32.2705 24.2462C32.2684 24.2751 32.2543 24.291 32.2396 24.3074C32.2269 24.3217 32.2136 24.3366 32.2076 24.3605C32.1331 24.6511 32.1912 24.8028 32.286 25.022C32.3378 25.143 32.3999 25.2844 32.4524 25.4818C32.5045 25.6914 32.5112 25.7544 32.4533 25.8514C32.5275 25.9468 32.6031 26.0414 32.6802 26.1354C32.7016 26.1244 32.7065 26.0557 32.7095 25.9426C32.715 25.7407 32.835 25.6434 32.9275 25.5653C32.9702 25.5293 33.007 25.4975 33.0237 25.4626C33.1122 25.2769 33.0219 25.0675 32.9472 24.8825C32.9057 24.7807 32.8681 24.6862 32.8622 24.6083C32.8597 24.5749 32.8452 24.5446 32.8306 24.5137C32.8193 24.4897 32.8078 24.4654 32.8015 24.4391C32.7562 24.2479 32.7888 24.0908 32.8151 23.9449C32.8304 23.8614 32.8438 23.7813 32.8417 23.701C32.8411 23.6765 32.8392 23.6518 32.8373 23.6279C32.8344 23.593 32.8316 23.5597 32.8332 23.5302C32.8368 23.4629 32.8658 23.4106 32.8968 23.3533C32.9127 23.324 32.929 23.2933 32.9427 23.2586C32.9604 23.2136 32.9491 23.136 32.9373 23.055C32.9289 22.9977 32.9203 22.9388 32.9206 22.888C32.9213 22.7962 32.9622 22.7511 32.9995 22.7088C33.0158 22.6904 33.0312 22.6723 33.0426 22.6515C33.0473 22.643 33.0464 22.6293 33.0416 22.6116C33.098 22.5293 33.1485 22.4465 33.1956 22.3651C33.434 21.9542 33.5812 21.6073 34.0576 21.584C34.1484 21.5788 34.2246 21.5301 34.2894 21.4606C34.5794 21.3879 34.8706 21.2989 35.1609 21.1924C35.3116 21.3025 35.4595 21.3789 35.6018 21.4178C35.8695 21.4903 36.0416 21.4136 36.2391 21.3167C36.3856 21.2445 36.5465 21.1613 36.7824 21.1037C37.1787 21.0066 37.5654 20.8477 37.9052 20.5691C38.2444 20.293 38.5805 19.9179 38.7813 19.6267C38.891 19.4694 39.1279 19.3708 39.3485 19.2662C39.6584 19.1209 39.9363 18.9609 39.7505 18.7131C39.6911 18.6341 39.572 18.5325 39.4552 18.4358C39.372 18.3669 39.2903 18.3003 39.2317 18.2448C39.2829 18.1816 39.3332 18.1173 39.3832 18.0522C39.6005 17.9871 39.8594 17.8349 39.7327 17.5686C39.7809 17.4973 39.8282 17.4252 39.8742 17.3548C39.9726 17.2004 40.0667 17.0461 40.1578 16.8864C40.1877 16.8343 40.2174 16.7812 40.2467 16.7274C40.247 16.7269 40.2474 16.7264 40.2477 16.7259C40.3067 16.6179 40.3642 16.5081 40.4199 16.3978C40.4437 16.3506 40.4671 16.303 40.4902 16.2551C40.5488 16.1338 40.6054 16.0102 40.6599 15.8862C40.6888 15.8208 40.7172 15.7532 40.745 15.6866C40.7902 15.578 40.8339 15.4668 40.8761 15.3546C40.9442 15.1721 41.0082 14.9913 41.0678 14.8033C41.0777 14.7726 41.1077 14.7432 41.1531 14.7214C41.1985 14.6996 41.2553 14.6871 41.314 14.6871C41.3726 14.6871 41.4296 14.6999 41.4747 14.7227C41.5197 14.7455 41.5487 14.7766 41.5576 14.8088C41.6115 15.0068 41.6597 15.2035 41.7017 15.4079C41.7278 15.5336 41.7519 15.6604 41.7734 15.7868C41.7867 15.8644 41.7986 15.9438 41.8102 16.0218C41.8317 16.1695 41.85 16.3201 41.8649 16.471C41.8708 16.5306 41.8762 16.5903 41.8812 16.6501C41.8929 16.7902 41.9013 16.9322 41.907 17.0749C41.907 17.0757 41.907 17.0766 41.907 17.0775C41.9098 17.1478 41.9119 17.2181 41.9135 17.2877C41.9176 17.5023 41.9157 17.7164 41.9056 17.9362C41.9015 18.05 41.894 18.1677 41.8849 18.286C41.8798 18.3517 41.8743 18.4174 41.8684 18.482C41.865 18.5172 41.8612 18.5528 41.8572 18.5887C41.771 19.4133 41.5899 20.2396 41.3075 21.0552C41.0267 21.868 40.6475 22.6645 40.1781 23.4188C39.7075 24.1748 39.1459 24.8893 38.5016 25.5434C36.5007 27.593 33.6405 29.0306 30.5444 29.3809C27.3571 29.7701 23.8775 28.9787 21.035 27.0847C20.2346 26.5571 19.4648 25.9294 18.7769 25.2448C18.0819 24.5526 17.4631 23.8044 16.9105 22.9785C16.7426 22.7281 16.5779 22.4648 16.4182 22.1896Z" fill="black"/>
<circle cx="30.3119" cy="45.4546" r="3.3234" transform="rotate(8.2828 30.3119 45.4546)" fill="black"/>
<path d="M24.362 47.5848C23.9553 46.6119 24.4155 45.5664 24.5412 44.6761C24.5439 44.656 24.5466 44.6359 24.5493 44.6157C24.6781 43.5238 24.762 42.1152 25.6938 41.2395C26.6077 40.3816 27.7947 39.8662 28.9772 39.7707C29.7152 39.7084 30.4479 39.8074 31.1007 40.0367C31.494 40.1741 31.8664 40.3588 32.2033 40.5821C33.1021 41.1747 33.7269 42.0387 34.0108 42.9271C34.2064 43.5309 34.2516 44.1475 34.1684 44.708C34.1323 44.9541 34.072 45.1892 33.9915 45.4096C33.9313 45.5738 33.86 45.7307 33.7796 45.8769C33.7683 45.8973 33.7304 45.9133 33.6726 45.9203C33.6146 45.9273 33.542 45.9249 33.4682 45.9141C33.3943 45.9033 33.3238 45.8851 33.2699 45.8643C33.2162 45.8435 33.1838 45.8219 33.1776 45.8031C33.1337 45.6672 33.0803 45.5376 33.0188 45.4172C32.9505 45.2831 32.872 45.1595 32.7865 45.0474C33.0855 44.9785 33.3093 44.9064 33.3971 44.8234C33.442 44.7813 33.4524 44.7281 33.3888 44.7075C33.3316 44.689 33.2375 44.6896 33.1482 44.692C33.0548 44.6946 32.9665 44.6993 32.9303 44.6842C32.8687 44.6585 32.7327 44.6605 32.5916 44.6703C32.5402 44.6737 32.488 44.6782 32.4383 44.6822C32.343 44.6025 32.2439 44.5336 32.1431 44.4753C32.1538 44.4262 32.1583 44.3813 32.1318 44.3615C32.108 44.3438 32.0396 44.3568 31.9596 44.3814C31.9438 44.3744 31.928 44.3676 31.9122 44.361C31.8101 44.3187 31.7083 44.2865 31.6081 44.2642C31.6242 44.1609 31.627 44.0509 31.5739 43.96C31.5512 43.921 31.5455 43.8601 31.5366 43.8006C31.524 43.7132 31.5032 43.6284 31.434 43.6374C31.3882 43.6437 31.3789 43.5881 31.3655 43.5315C31.3487 43.4562 31.3229 43.3787 31.2306 43.466C31.1728 43.521 31.1133 43.5934 31.0607 43.6621C30.977 43.7713 30.9113 43.8709 30.886 43.8702C30.8378 43.8689 30.7708 43.9497 30.7186 44.0238C30.6545 44.1126 30.611 44.1911 30.6055 44.0949C30.6046 44.0803 30.604 44.061 30.6031 44.0391C30.6001 43.9581 30.5904 43.8422 30.5513 43.8106C30.5349 43.7973 30.514 43.7993 30.4894 43.8261C30.4601 43.8583 30.4285 43.9472 30.4024 44.0353C30.3636 44.1635 30.338 44.2893 30.3129 44.2328C30.309 44.2244 30.3049 44.1891 30.3008 44.1568C30.2956 44.1158 30.2903 44.0801 30.2881 44.1113C30.2815 44.2027 30.2723 44.304 30.2663 44.4143C30.2619 44.4953 30.2592 44.5811 30.2592 44.6712C30.2196 44.7246 30.1892 44.7788 30.1662 44.8315C30.1556 44.8557 30.1466 44.8796 30.1389 44.9031C30.0901 44.7743 30.04 44.6603 29.9957 44.5766C29.9374 44.4674 29.8988 44.4419 29.8471 44.4118C29.8086 44.3899 29.763 44.3653 29.6866 44.3093C29.5429 44.2065 29.4817 44.2913 29.4952 44.3889C29.4976 44.4097 29.5012 44.4313 29.5057 44.4545C29.5234 44.5423 29.5488 44.6505 29.5767 44.7814C29.6046 44.9043 29.5994 44.9597 29.5952 45.0037C29.5934 45.0258 29.5927 45.0439 29.601 45.0621C29.6152 45.0934 29.6265 45.1256 29.6399 45.1563C29.6607 45.2042 29.6868 45.2483 29.7313 45.2791C29.7472 45.2901 29.7673 45.3021 29.7891 45.3143C29.8452 45.3457 29.9142 45.377 29.9585 45.4032C29.9619 45.4052 29.9652 45.4072 29.9684 45.4092C30.0142 45.4369 29.9809 45.4408 29.9079 45.4549C29.8784 45.4602 29.7616 45.4666 29.6414 45.4792C29.4706 45.4958 29.2934 45.5287 29.3489 45.5497C29.3619 45.5543 29.3902 45.5575 29.4199 45.5602C29.4744 45.5652 29.5334 45.5671 29.5099 45.5817C29.5017 45.5869 29.471 45.5954 29.441 45.6042C29.4079 45.6139 29.3758 45.624 29.3748 45.6291C29.3713 45.648 29.3828 45.6637 29.3933 45.6769C29.4069 45.694 29.4186 45.7074 29.395 45.7253C29.3531 45.7576 29.4023 45.7657 29.4514 45.7685C29.489 45.7711 29.5267 45.7711 29.5261 45.7864C29.5244 45.8307 29.629 45.8488 29.7707 45.808C29.8241 45.7924 29.7706 45.8426 29.7096 45.9163C29.6716 45.9619 29.6303 46.0164 29.6086 46.0654C29.5964 46.0932 29.6524 46.0587 29.7021 46.0245C29.7481 45.9932 29.7891 45.9625 29.7736 45.9877C29.7598 46.0099 29.6862 46.0899 29.6175 46.1671C29.541 46.2529 29.4709 46.3354 29.4931 46.3274C29.5048 46.323 29.5469 46.2879 29.5956 46.245C29.6149 46.228 29.6352 46.2099 29.6553 46.192C29.6405 46.2083 29.6273 46.2229 29.6173 46.234C29.5468 46.3124 29.5174 46.3606 29.4902 46.409C29.4793 46.4283 29.4687 46.4475 29.4558 46.4686C29.408 46.5462 29.4214 46.5761 29.4409 46.5859C29.4492 46.59 29.4359 46.621 29.4212 46.6576C29.4081 46.6901 29.394 46.7272 29.3923 46.7532C29.3913 46.7681 29.3788 46.7966 29.3685 46.8205C29.3611 46.8378 29.3548 46.8526 29.355 46.8578C29.3551 46.8622 29.3739 46.8384 29.3949 46.8115C29.41 46.7922 29.4263 46.7712 29.4377 46.758C29.465 46.7264 29.477 46.7194 29.4733 46.7329C29.4717 46.7392 29.4666 46.7499 29.4615 46.7606C29.4557 46.773 29.4498 46.7856 29.4494 46.7911C29.4477 46.8162 29.4766 46.7936 29.5054 46.7694C29.5373 46.7428 29.5689 46.7141 29.5663 46.7478C29.5655 46.7584 29.5589 46.78 29.5527 46.801C29.5462 46.8231 29.5402 46.8444 29.5413 46.8516C29.546 46.8809 29.5968 46.8224 29.6409 46.7671C29.6703 46.7304 29.6971 46.6953 29.7084 46.6897C29.7294 46.6797 29.7745 46.6009 29.8069 46.5423C29.8238 46.5119 29.8374 46.4869 29.8428 46.4799C29.8434 46.483 29.8439 46.4865 29.8443 46.4902C29.8431 46.497 29.842 46.504 29.8444 46.5027C29.8446 46.5026 29.8449 46.5023 29.845 46.5021C29.8458 46.5265 29.8434 46.5593 29.8418 46.5922C29.8379 46.666 29.841 46.7409 29.8806 46.7132C29.8891 46.7073 29.9068 46.6738 29.9241 46.6395C29.9454 46.5975 29.9661 46.5541 29.9717 46.5594C29.9852 46.572 29.9847 46.6359 29.9879 46.6995C29.9917 46.7948 30.006 46.8893 30.0518 46.7984C30.0667 46.7683 30.0847 46.7169 30.1017 46.6648C30.1112 46.6358 30.1205 46.6064 30.1289 46.5808C30.1201 46.6295 30.1122 46.6752 30.1047 46.7179C30.0893 46.8059 30.0761 46.8812 30.0602 46.9444C30.0229 47.0937 29.9678 47.2983 29.9414 47.4501C29.9344 47.4914 29.9255 47.5371 29.9165 47.5831C29.8939 47.6985 29.87 47.8163 29.8787 47.8731C29.8841 47.9113 29.904 47.9999 29.9385 47.914C29.9459 47.8953 29.9543 47.8573 29.9636 47.815C29.968 47.7948 29.9726 47.7736 29.9773 47.7529C29.9904 47.6961 30.0046 47.644 30.0193 47.6302C30.0227 47.627 30.0263 47.6242 30.03 47.6217C30.0445 47.6114 30.0606 47.5999 30.0729 47.5386C30.0872 47.4679 30.0949 47.386 30.1045 47.2905C30.1167 47.1661 30.133 47.0187 30.1616 46.8419C30.1671 46.8069 30.1716 46.7952 30.1749 46.7863C30.1773 46.78 30.1791 46.775 30.1803 46.7644C30.1817 46.7523 30.1837 46.727 30.1864 46.6949C30.1955 46.5817 30.2142 46.3843 30.2268 46.3771C30.2303 46.3752 30.2333 46.3849 30.236 46.3937C30.24 46.4067 30.2436 46.4173 30.2465 46.385C30.2476 46.3727 30.2488 46.3594 30.2499 46.3457C30.2534 46.3498 30.257 46.354 30.2606 46.3581C30.2632 46.397 30.2707 46.3941 30.2798 46.3902C30.282 46.3892 30.2843 46.3883 30.2866 46.3878C30.2941 46.3961 30.3018 46.4042 30.3096 46.4124C30.3158 46.4289 30.3225 46.4556 30.3308 46.4979C30.3472 46.5826 30.3669 46.7223 30.3919 46.8582C30.4023 46.9155 30.4137 46.9722 30.4257 47.0238C30.4229 47.0305 30.4205 47.0382 30.4189 47.0488C30.408 47.1213 30.4084 47.2623 30.4075 47.3922C30.407 47.4785 30.4059 47.56 30.3998 47.6128C30.3886 47.7094 30.3931 47.8217 30.3972 47.9048C30.3993 47.9478 30.401 47.9831 30.3994 48.0042C30.398 48.021 30.3939 48.0291 30.3895 48.0374C30.3858 48.0446 30.3818 48.0522 30.3795 48.0658C30.3507 48.2311 30.3599 48.3264 30.3795 48.4651C30.3901 48.5416 30.4033 48.6313 30.4122 48.7532C30.4205 48.8823 30.4205 48.9202 30.399 48.9722C30.4183 49.0356 30.4385 49.0989 30.4596 49.1619C30.4668 49.1575 30.4708 49.1174 30.4754 49.0508C30.4838 48.9319 30.5235 48.8865 30.5537 48.8504C30.5677 48.8337 30.5797 48.8191 30.5855 48.8004C30.6162 48.7009 30.5917 48.5679 30.573 48.4507C30.5625 48.3862 30.5533 48.3265 30.5527 48.28C30.5525 48.2601 30.5488 48.2407 30.5452 48.2209C30.5423 48.2055 30.5395 48.1899 30.5381 48.1738C30.5282 48.0563 30.5388 47.9676 30.5463 47.8853C30.5507 47.8382 30.5543 47.7929 30.5538 47.7457C30.5536 47.7313 30.5531 47.7167 30.5526 47.7024C30.5519 47.6817 30.5511 47.6619 30.5514 47.6448C30.5521 47.606 30.559 47.5791 30.566 47.5497C30.5697 47.5347 30.5733 47.5189 30.5762 47.5006C30.5799 47.4768 30.5761 47.4302 30.5721 47.3817C30.5692 47.3473 30.5662 47.312 30.5653 47.2826C30.5636 47.2295 30.5717 47.2091 30.5789 47.1901C30.5821 47.1818 30.585 47.1736 30.5869 47.1633C30.5877 47.1591 30.5871 47.1511 30.5855 47.1402C30.5954 47.1013 30.6034 47.0616 30.6102 47.0227C30.6458 46.8269 30.6413 46.6629 30.7493 46.7495C30.7703 46.7656 30.7842 46.756 30.7928 46.7339C30.8568 46.7591 30.9253 46.7812 30.998 46.7989C31.0564 46.8883 31.1114 46.9603 31.1618 47.0125C31.2566 47.1104 31.3069 47.1137 31.365 47.1161C31.4084 47.1176 31.4563 47.1186 31.5393 47.1497C31.6788 47.2019 31.819 47.2243 31.9357 47.19C32.0519 47.1565 32.1689 47.0884 32.2375 47.0263C32.2747 46.9931 32.3817 47.0098 32.4843 47.0188C32.6279 47.0326 32.7628 47.0296 32.6477 46.9085C32.6109 46.8699 32.541 46.8123 32.4723 46.7575C32.4234 46.7185 32.3753 46.6809 32.3401 46.6516C32.3621 46.6419 32.3839 46.6318 32.406 46.6213C32.5169 46.6438 32.6486 46.642 32.5648 46.5388C32.5875 46.5259 32.61 46.5126 32.6323 46.4996C32.6797 46.4705 32.7266 46.4405 32.7734 46.4082C32.7888 46.3977 32.8042 46.3868 32.8196 46.3756C32.8198 46.3755 32.8199 46.3754 32.8201 46.3753C32.8511 46.3529 32.882 46.3295 32.9126 46.3056C32.9257 46.2953 32.9387 46.2849 32.9517 46.2743C32.9846 46.2474 33.0172 46.2194 33.0496 46.1907C33.0667 46.1756 33.0838 46.1597 33.1008 46.144C33.1284 46.1183 33.1559 46.0915 33.1831 46.064C33.2272 46.0193 33.2704 45.9739 33.313 45.9254C33.32 45.9175 33.339 45.9118 33.3669 45.9094C33.3947 45.9071 33.429 45.9084 33.4638 45.9135C33.4986 45.9185 33.5319 45.9272 33.5578 45.9379C33.5835 45.9486 33.5994 45.9605 33.6034 45.971C33.6273 46.0352 33.6493 46.0995 33.6688 46.1668C33.6809 46.2082 33.6924 46.2502 33.7028 46.2922C33.7092 46.318 33.7151 46.3443 33.7208 46.3704C33.7316 46.4197 33.7412 46.4702 33.7493 46.521C33.7526 46.5411 33.7557 46.5612 33.7586 46.5814C33.7654 46.6287 33.7709 46.6768 33.7753 46.7253C33.7754 46.7256 33.7754 46.7259 33.7754 46.7262C33.7776 46.7501 33.7795 46.774 33.7813 46.7978C33.7862 46.871 33.7889 46.9444 33.7883 47.0199C33.7886 47.0592 33.7874 47.0997 33.7856 47.1405C33.7846 47.1632 33.7835 47.1859 33.7822 47.2083C33.7814 47.2205 33.7805 47.2328 33.7794 47.2451C33.7584 47.5309 33.7001 47.8211 33.6011 48.1086C33.5029 48.3952 33.3653 48.6774 33.1915 48.9445C33.0172 49.2121 32.8064 49.4646 32.5623 49.6936C31.8055 50.4122 30.6977 50.8943 29.5139 50.9365C28.2953 50.9928 26.9683 50.5636 25.9417 49.7075C25.6522 49.469 25.3793 49.1906 25.1414 48.8923C24.9011 48.5906 24.6934 48.2689 24.5166 47.9183C24.4629 47.812 24.4111 47.7007 24.362 47.5848Z" fill="black"/>
<path d="M25.1805 63.0024C26.5763 63.2111 27.905 63.916 29.3947 64.2683C29.851 64.3733 30.3092 64.4488 30.7703 64.4705C33.2263 64.6032 35.9723 63.6004 37.0463 63.3597C37.0981 63.351 37.1413 63.3438 37.1727 63.3406C39.2318 62.6266 41.3588 61.6856 43.3731 60.6175C44.0545 60.2556 44.7356 59.868 45.3195 59.5077C46.7077 58.6095 48.1137 57.5766 49.4418 56.5027C49.8556 56.1684 50.2774 55.8113 50.6167 55.5162C50.4772 55.7403 50.5757 55.6465 50.6151 55.6061C50.6679 55.5505 50.7336 55.4657 50.7987 55.3788C50.9317 55.1992 51.0706 54.9962 51.2106 54.7867C51.4904 54.3671 51.7745 53.9209 52.0563 53.4768C52.6218 52.5827 53.1887 51.6708 53.7581 50.7603C53.8689 50.5832 53.9795 50.4066 54.0911 50.2277L54.0492 50.3378C54.7982 49.0325 55.3219 47.5996 55.8369 46.015C55.8607 45.9425 55.8843 45.8718 55.9082 45.7986C56.1451 45.0873 56.3845 44.3867 56.6242 43.6849C56.8216 43.1077 57.019 42.5308 57.2154 41.9537C57.2429 41.8736 57.3139 41.8036 57.4158 41.7602C57.5179 41.7167 57.642 41.7025 57.7648 41.722C57.8878 41.7416 58.0016 41.7938 58.0848 41.867C58.1678 41.94 58.2128 42.0288 58.2135 42.1134C58.217 42.7285 58.2196 43.3437 58.2223 43.958C58.2252 44.6403 58.2284 45.321 58.2338 45.9991C58.0206 46.0089 57.8265 46.0298 57.6576 46.066C57.4147 46.1176 57.2231 46.2066 57.0993 46.3501C56.9921 46.4759 56.9259 46.6692 56.9964 46.8327C57.06 46.9787 57.1942 47.1025 57.3219 47.2213C57.4554 47.3451 57.5819 47.4636 57.6114 47.596C57.6616 47.8198 57.8405 48.0569 58.0248 48.3131C58.092 48.4059 58.1598 48.5022 58.2224 48.6002C58.195 49.2938 58.1306 50.0161 58.0234 50.7309C57.8922 50.9807 57.7736 51.2053 57.7258 51.4133C57.712 51.4734 57.7073 51.5354 57.7095 51.5991C57.698 51.6229 57.6755 51.6993 57.6625 51.7224C57.6626 51.8447 57.6936 51.974 57.7361 52.1068C57.7119 52.205 57.6876 52.3036 57.6638 52.4009C57.5077 53.0333 57.349 53.6666 57.187 54.3004C56.8639 54.7138 56.5351 55.1497 56.2038 55.7658C56.0609 56.0313 55.8733 56.2746 55.69 56.5102C55.4178 56.8609 55.1612 57.1832 55.0531 57.5642C54.9669 57.8324 54.832 57.9905 54.4516 58.4117C54.4352 58.4294 54.4181 58.4476 54.4001 58.4665C54.1045 58.6926 53.8287 58.8864 53.7762 59.2405C53.7437 59.4674 53.738 59.7014 53.7327 59.9168C53.7237 60.2602 53.7117 60.5614 53.5799 60.724C53.334 61.0276 53.2198 61.3824 53.115 61.6964C52.9897 62.0732 52.8783 62.3906 52.582 62.4678C52.537 62.4795 52.4819 62.4904 52.4207 62.5012C52.0945 62.5614 51.5818 62.648 51.2426 63.1935C51.1217 63.3877 51.0725 63.641 51.0212 63.8905C50.9474 64.2528 50.8683 64.6076 50.5685 64.7461C50.5238 64.7667 50.4479 64.7549 50.3787 64.7438C50.2908 64.7298 50.2142 64.7173 50.2259 64.7758C50.2556 64.9232 50.264 65.1043 50.2678 65.3031C50.2672 65.3369 50.2663 65.3713 50.2653 65.4062C50.259 65.5881 50.2516 65.7799 50.2545 65.9713C49.6103 66.6084 48.9791 67.1762 48.3289 67.7246C48.0319 67.9749 47.73 68.2207 47.4279 68.4596C47.1379 68.376 46.8566 68.3122 46.5973 68.2923C46.2556 68.2681 45.9259 68.4018 45.4954 68.5674C45.1782 68.6894 44.8093 68.8267 44.347 68.9251C43.4924 69.1078 42.7714 69.5519 42.3399 69.9252C42.2494 70.004 42.1586 70.0847 42.0606 70.1713C41.7397 70.454 41.3487 70.7991 40.6068 71.2885C40.4347 71.3891 40.2507 71.4888 40.0554 71.5861C38.7085 72.2457 37.6725 72.432 36.9109 72.5759C36.5212 72.6452 36.2102 72.6908 35.9689 72.7405C35.5608 72.8251 35.0661 72.9009 34.5772 72.9639C33.8119 73.0636 33.0598 73.132 32.6365 73.2156C32.4833 73.2454 32.3286 73.2818 32.1566 73.3197C31.6847 73.4244 31.1139 73.5456 30.339 73.5877C29.6484 73.6246 29.1918 73.5651 28.7584 73.4505C28.6789 73.43 28.6005 73.4076 28.5222 73.3835C28.3091 73.3184 28.1346 73.109 27.9564 72.8918C27.7036 72.5834 27.4475 72.2607 27.0504 72.3072C26.9582 72.3181 26.8552 72.3533 26.7487 72.3901C26.5515 72.4574 26.3375 72.529 26.1344 72.4599C26.0642 72.4359 26.0069 72.375 25.9514 72.3153C25.8905 72.2496 25.8308 72.1853 25.7551 72.1716C25.4725 72.1204 25.1938 72.0915 24.9456 72.0635C24.6256 72.0275 24.3563 71.9927 24.1996 71.9173C23.9199 71.7828 23.5853 71.7932 23.2435 71.7986C22.9825 71.8027 22.7173 71.8041 22.4758 71.7372C22.3376 71.6989 22.1871 71.664 22.0274 71.632C21.4087 71.5093 20.6353 71.4383 19.8034 71.3847C19.4099 71.3591 19.1284 71.1443 18.7716 70.8609C18.5486 70.6839 18.2971 70.4803 17.9576 70.266C17.7653 70.1444 17.5464 70.1734 17.3355 70.1941C17.2093 70.2067 17.0851 70.2158 16.9757 70.1889C16.9077 70.1703 16.8445 70.1414 16.7881 70.0972C16.6483 69.9865 16.6323 69.7769 16.6255 69.5818C16.6177 69.3644 16.6132 69.1606 16.463 69.1215C16.3805 69.0993 16.2544 69.1346 16.1005 69.1729C16.0392 69.1878 15.9753 69.2039 15.9096 69.2183C15.9298 69.1875 15.9464 69.1591 15.9585 69.1374C16.0454 68.9848 15.9563 68.8289 15.8827 68.6813C15.8522 68.6218 15.8217 68.5625 15.8025 68.5038C15.7368 68.2913 15.483 68.1086 15.2865 67.9924C15.2013 67.9421 15.1569 67.8492 15.1059 67.7406C15.0597 67.6436 15.0106 67.5357 14.924 67.4342C14.8742 67.3761 14.8555 67.3025 14.8416 67.2421C14.8313 67.1982 14.8225 67.1607 14.8046 67.1403C14.7891 67.1228 14.7458 67.1543 14.6969 67.1898C14.6617 67.2153 14.6235 67.2429 14.5907 67.2556C14.5118 67.2855 14.4514 67.2696 14.4285 67.2272C14.4181 67.2077 14.4163 67.1827 14.4146 67.1579C14.4126 67.129 14.4107 67.1 14.3949 67.0794C14.3206 66.9839 14.2021 66.9717 14.0735 66.9546C13.9328 66.9363 13.7897 66.9188 13.7 66.7924C13.673 66.7535 13.6554 66.6958 13.6385 66.6398C13.6207 66.5812 13.6033 66.5243 13.5761 66.4929C13.4674 66.3665 13.2699 66.3778 13.0886 66.3879C12.9685 66.395 12.8543 66.4005 12.778 66.3644C12.6402 66.2998 12.4859 66.3725 12.3711 66.4255C12.3116 66.453 12.2628 66.4756 12.2329 66.471C12.2157 66.4528 12.1998 66.4345 12.184 66.4158C12.1732 66.3938 12.1621 66.371 12.143 66.3611C12.1415 66.3604 12.1398 66.3599 12.1384 66.3592C12.0538 66.2493 11.9792 66.1273 11.9085 66.0078C11.745 65.7361 11.5911 65.4708 11.3134 65.3347C11.2533 65.3052 11.1619 65.3124 11.0703 65.3206C10.9577 65.3303 10.8418 65.3395 10.7773 65.2808C10.6254 65.1424 10.5258 64.9306 10.4331 64.7253C10.2902 64.4138 10.1544 64.1105 9.84084 64.0631C9.73714 64.0473 9.6115 64.0597 9.48536 64.0725C9.4156 64.08 9.34521 64.0875 9.27846 64.0897C9.33938 64.0331 9.39327 63.9772 9.44351 63.9251C9.54706 63.8176 9.63576 63.7257 9.74144 63.6729C9.99077 63.5477 10.3151 63.3591 10.4675 63.1519C10.5089 63.0958 10.5608 63.038 10.6133 62.98C10.7448 62.8343 10.879 62.6856 10.857 62.5497C10.8409 62.4572 10.7961 62.2377 10.6122 62.2794C10.5723 62.2885 10.5191 62.3285 10.46 62.3729C10.3539 62.4527 10.2272 62.5463 10.1224 62.5049C10.1047 62.4978 10.0862 62.4893 10.0673 62.48C9.99222 62.4432 9.90792 62.4011 9.8146 62.4583C9.70712 62.5243 9.62504 62.6344 9.52944 62.763C9.40486 62.9303 9.25731 63.1295 8.99889 63.3013C8.94772 63.3353 8.91035 63.3301 8.88185 63.326C8.86182 63.3232 8.84622 63.3213 8.83375 63.334C8.81947 63.3486 8.79623 63.3844 8.7669 63.4299C8.66331 63.59 8.48285 63.8704 8.33653 63.7647C8.29695 63.736 8.26454 63.6878 8.23548 63.6444C8.21108 63.6079 8.18896 63.5749 8.16678 63.5599C8.15019 63.5487 8.13355 63.5477 8.11577 63.5631C8.10013 63.5768 8.08403 63.5923 8.0677 63.6086C8.02735 63.5656 7.98796 63.5234 7.94758 63.4803C7.93205 63.3821 7.84892 63.3182 7.74349 63.2368C7.71815 63.2173 7.69121 63.1962 7.66362 63.1736C7.5838 63.0871 7.50313 62.9996 7.42263 62.9114C7.36941 62.8287 7.32281 62.7288 7.28941 62.6051C7.2219 62.3568 7.23639 62.0566 7.25302 61.7635C7.25964 61.6397 7.26738 61.5176 7.26835 61.4001C7.29808 61.4128 7.32695 61.4221 7.35437 61.4235C7.54106 61.4322 7.74117 61.2962 7.92422 61.1702C8.04601 61.0864 8.16108 61.0076 8.25901 60.9779C8.43843 60.9233 8.55568 60.7767 8.64259 60.6686C8.68766 60.6124 8.72476 60.5666 8.75758 60.5491C8.78394 60.535 8.81052 60.541 8.83805 60.5473C8.86183 60.5525 8.88652 60.5577 8.91202 60.5502C9.222 60.4581 9.28817 60.304 9.38635 60.0815C9.44047 59.9587 9.50495 59.8154 9.62396 59.6489C9.75314 59.4754 9.80009 59.4329 9.92158 59.4259C9.94197 59.3018 9.96179 59.177 9.98316 59.0533C9.95916 59.0411 9.89975 59.0772 9.80495 59.1407C9.63565 59.2541 9.46525 59.1976 9.33211 59.1519C9.27055 59.1309 9.21697 59.1126 9.17476 59.1147C8.9509 59.1267 8.83082 59.321 8.72642 59.4934C8.6689 59.5881 8.61591 59.6761 8.55144 59.7216C8.52389 59.7412 8.50883 59.772 8.49344 59.8033C8.48154 59.8275 8.46953 59.8522 8.45139 59.8723C8.31952 60.0179 8.14995 60.0597 7.99116 60.0964C7.90041 60.1176 7.81317 60.1376 7.73922 60.1755C7.7167 60.1871 7.69508 60.2001 7.67425 60.213C7.64383 60.2317 7.61468 60.2495 7.58507 60.2602C7.51769 60.2848 7.4397 60.2704 7.35441 60.2539C7.31071 60.2454 7.26493 60.2363 7.21755 60.2318C7.15616 60.2259 7.08948 60.2694 7.01957 60.3146C6.97017 60.3465 6.91904 60.3792 6.86688 60.3962C6.77249 60.4269 6.68381 60.3842 6.60154 60.3437C6.56571 60.3261 6.5308 60.3091 6.49736 60.2988C6.48375 60.2946 6.47001 60.2997 6.45606 60.3117C6.31153 60.2533 6.17042 60.1985 6.03295 60.144C5.40605 59.8949 4.8467 59.6416 4.4522 59.0011C4.41831 58.9441 4.386 58.8838 4.35537 58.8197C4.29053 58.6837 4.18359 58.5655 4.05958 58.461C3.79375 58.0167 3.52943 57.5676 3.26786 57.1129C3.34171 56.9224 3.37781 56.7301 3.37705 56.5424C3.37293 56.1864 3.23262 55.9344 3.06557 55.6309C2.94358 55.4084 2.80582 55.1559 2.70569 54.8199C2.5361 54.2527 2.33897 53.6908 2.0462 53.1004C1.75233 52.5111 1.40815 51.8278 1.16958 51.3122C1.03836 51.0322 1.03894 50.6604 1.06304 50.316C1.0767 50.1204 1.0964 49.9301 1.0983 49.7669C1.10906 49.5543 1.06481 49.3997 0.875426 49.3226C0.774238 49.2829 0.612991 49.2634 0.456427 49.2445C0.344982 49.2313 0.235895 49.2174 0.151486 49.1959C0.141846 49.0775 0.133691 48.9643 0.124981 48.8466C0.241692 48.5993 0.344201 48.2501 0.0704864 48.0044C0.0643316 47.8869 0.0562884 47.7615 0.0517654 47.6468C0.0381513 47.3911 0.0287814 47.1433 0.020208 46.8904C0.0176011 46.8076 0.0157536 46.727 0.0130244 46.6417C0.0130361 46.6408 0.0130475 46.64 0.0130592 46.6392C0.00885183 46.4726 0.00523943 46.3038 0.00293905 46.1354C0.00197423 46.0637 0.00180644 45.9946 0.000862956 45.9212C0.00034976 45.7434 -0.00127548 45.5543 0.0017767 45.3774C0.00243682 45.2788 0.00454336 45.1858 0.00640202 45.0874C0.0099318 44.9303 0.0150133 44.7731 0.021889 44.6136C0.0339152 44.3575 0.0493193 44.105 0.0796227 43.8311C0.0850461 43.788 0.111233 43.7394 0.154731 43.7004C0.198307 43.663 0.25536 43.6376 0.313954 43.6391C0.372591 43.6387 0.429501 43.6593 0.476065 43.6852C0.522481 43.7131 0.554491 43.7486 0.567286 43.7849C0.646967 44.018 0.740869 44.2443 0.836444 44.4685C0.896109 44.6087 0.95754 44.7465 1.0195 44.884C1.05803 44.9704 1.09559 45.0514 1.13492 45.1378C1.20708 45.2919 1.28327 45.4576 1.35766 45.6122C1.38774 45.6762 1.41701 45.7359 1.44708 45.7984C1.51763 45.9451 1.58883 46.092 1.66022 46.2369C1.66065 46.2378 1.66108 46.2387 1.66151 46.2396C1.69726 46.3134 1.73203 46.3823 1.7674 46.4535C1.87574 46.6727 1.98395 46.8868 2.09488 47.1081C2.15275 47.22 2.21289 47.3413 2.27219 47.4569C2.30534 47.5218 2.33966 47.5902 2.37205 47.6517C2.38977 47.6862 2.40765 47.7215 2.42575 47.7573C2.66697 48.2267 2.91056 48.6929 3.15543 49.1575C3.30597 49.3973 3.49779 49.6535 3.71171 49.9115C4.21528 50.5159 4.8233 51.1218 5.45335 51.7218C6.08503 52.3217 6.74578 52.9191 7.41462 53.5195C7.99636 54.0415 8.58497 54.5629 9.1784 55.0915C10.3695 56.1302 11.5757 56.8845 13.0494 57.837C15.6188 59.472 18.7062 61.4392 20.5203 62.0165C20.5262 62.0176 20.5318 62.0185 20.5371 62.0192C21.023 62.1588 21.7147 62.3344 22.3877 62.4806C22.9726 62.609 23.569 62.7265 24.1778 62.8374C24.2928 62.858 24.4087 62.8782 24.5247 62.8978C24.7374 62.9333 24.9557 62.9684 25.1805 63.0024Z" fill="black"/>
</svg>
