<svg width="34" height="68" viewBox="0 0 34 68" fill="none" xmlns="http://www.w3.org/2000/svg">
<path d="M17.0043 63.9234C16.5824 62.8527 16.8431 61.714 16.9867 60.6746C16.9898 60.6515 16.9929 60.6284 16.9961 60.6052C17.1592 59.3333 17.4632 57.8681 18.457 56.8792C19.4411 55.8955 20.7355 55.2552 22.067 55.0649C22.8981 54.9434 23.7403 54.9951 24.5202 55.1983C24.99 55.3201 25.4425 55.4966 25.8628 55.7213C26.9822 56.3169 27.8549 57.2566 28.3582 58.3098C28.7025 59.0249 28.8823 59.7929 28.8986 60.5385C28.9061 60.8658 28.8827 61.1883 28.8309 61.5013C28.7921 61.7343 28.7376 61.9635 28.669 62.1837C28.6594 62.2144 28.6319 62.2415 28.5917 62.2583C28.5514 62.2751 28.502 62.2802 28.4528 62.273C28.4035 62.2658 28.3575 62.2468 28.3233 62.2208C28.2892 62.1948 28.2698 62.1639 28.2677 62.1343C28.2536 61.92 28.225 61.7079 28.1823 61.5029C28.1351 61.2747 28.0707 61.0537 27.9912 60.8421C28.1869 60.7746 28.3313 60.6968 28.3787 60.5865C28.4029 60.5304 28.4007 60.454 28.351 60.4104C28.3063 60.3712 28.2384 60.3515 28.1737 60.3339C28.106 60.3156 28.0418 60.2998 28.0105 60.2656C27.9574 60.2073 27.8543 60.1697 27.7462 60.1358C27.7068 60.1234 27.6667 60.1114 27.6281 60.0988C27.5191 59.9211 27.3987 59.7539 27.2688 59.5983C27.2518 59.5205 27.2313 59.4497 27.193 59.4024C27.1587 59.3599 27.0956 59.3408 27.0245 59.3299C27.0027 59.308 26.9808 59.2864 26.9586 59.2651C26.8159 59.1276 26.6655 59.0021 26.5092 58.8896C26.45 58.7448 26.3752 58.5944 26.2326 58.4426C26.1711 58.3774 26.1204 58.2997 26.0681 58.2257C25.9916 58.1167 25.9111 58.0157 25.8053 57.9849C25.7348 57.9643 25.6862 57.9024 25.634 57.841C25.5651 57.7592 25.4887 57.6779 25.3731 57.7112C25.3006 57.7322 25.2292 57.7667 25.1647 57.8002C25.0621 57.8536 24.9768 57.9041 24.922 57.89C24.8191 57.8637 24.7115 57.8981 24.6215 57.9319C24.5119 57.9724 24.4265 58.0114 24.3729 57.9365C24.3647 57.9252 24.3556 57.9105 24.3452 57.8939C24.3069 57.8326 24.2494 57.7455 24.1539 57.7143C24.1136 57.7011 24.0671 57.6981 24.0151 57.7121C23.9531 57.7289 23.8915 57.7846 23.8347 57.8408C23.7517 57.9224 23.6785 58.0043 23.602 57.9664C23.5906 57.9607 23.5785 57.9371 23.5673 57.9157C23.5531 57.8884 23.54 57.8647 23.533 57.8856C23.5121 57.9468 23.4799 58.0149 23.4477 58.0895C23.424 58.1443 23.4005 58.2027 23.3801 58.2641C23.1991 58.3094 23.0248 58.3683 22.8585 58.439C22.7825 58.4714 22.7077 58.5064 22.635 58.5435C22.5678 58.4687 22.4991 58.4046 22.4327 58.3623C22.3456 58.3071 22.2578 58.3139 22.145 58.329C22.0618 58.3402 21.965 58.3558 21.8391 58.3596C21.604 58.3669 21.4289 58.516 21.3554 58.6448C21.3395 58.6721 21.3244 58.7002 21.3089 58.7306C21.2514 58.8461 21.1801 58.9888 21.0532 59.2321C20.935 59.4624 20.832 59.64 20.7605 59.7781C20.7241 59.8486 20.6964 59.9078 20.6817 59.9567C20.6564 60.0402 20.6241 60.1404 20.5975 60.2416C20.5551 60.3999 20.5284 60.5615 20.5361 60.6577C20.5387 60.6918 20.5442 60.7282 20.5507 60.7671C20.5677 60.8672 20.5918 60.9829 20.6023 61.1302C20.6031 61.1416 20.6039 61.1533 20.6045 61.165C20.6152 61.3359 20.5893 61.4342 20.5393 61.5428C20.5192 61.5864 20.4418 61.6264 20.3628 61.6714C20.2506 61.7342 20.1352 61.8104 20.1791 61.8973C20.1894 61.9174 20.2102 61.9376 20.2322 61.9584C20.2726 61.9967 20.317 62.0356 20.3073 62.0836C20.3039 62.1004 20.2854 62.1179 20.2674 62.1353C20.2475 62.1545 20.2283 62.1736 20.2303 62.1911C20.2377 62.2561 20.2564 62.3174 20.2744 62.3711C20.2974 62.4402 20.319 62.4973 20.3121 62.5389C20.2999 62.6132 20.3517 62.6762 20.4055 62.7353C20.4467 62.7809 20.4893 62.8247 20.5068 62.8769C20.5565 63.0266 20.707 63.1998 20.9033 63.3271C20.9774 63.3751 20.9759 63.4571 20.9813 63.5666C20.9847 63.6345 20.9907 63.7129 21.0199 63.796C21.0365 63.8432 21.0954 63.844 21.1487 63.8429C21.198 63.8421 21.2429 63.8399 21.2508 63.8753C21.2577 63.9065 21.2189 63.9699 21.183 64.0311C21.143 64.099 21.1066 64.1641 21.1389 64.1753C21.1561 64.1812 21.1956 64.1685 21.2418 64.1524C21.2601 64.146 21.2795 64.1392 21.299 64.1328C21.2888 64.1434 21.2799 64.1531 21.2733 64.1605C21.2263 64.2127 21.225 64.2613 21.2251 64.3093C21.2252 64.3285 21.2255 64.3475 21.2228 64.3667C21.2131 64.4374 21.2645 64.4922 21.3109 64.5243C21.3305 64.538 21.3345 64.5684 21.3398 64.604C21.3445 64.6357 21.3503 64.6715 21.3687 64.7028C21.3792 64.7206 21.3795 64.7456 21.3798 64.7665C21.38 64.7816 21.3802 64.7946 21.3844 64.8008C21.3881 64.8062 21.4035 64.7923 21.4207 64.7766C21.4331 64.7652 21.4465 64.7529 21.4572 64.7462C21.4829 64.7302 21.5004 64.7319 21.5047 64.7453C21.5067 64.7516 21.5058 64.7603 21.5049 64.769C21.5038 64.7792 21.5028 64.7894 21.5064 64.7956C21.5233 64.824 21.5602 64.8201 21.5979 64.8153C21.6396 64.8101 21.6819 64.8037 21.7041 64.84C21.7111 64.8514 21.7147 64.8704 21.7184 64.8889C21.7223 64.9082 21.7263 64.9269 21.7338 64.9354C21.7646 64.9702 21.8245 64.945 21.8782 64.9206C21.914 64.9043 21.9472 64.8886 21.9691 64.8918C22.0093 64.898 22.0534 64.8519 22.0855 64.8177C22.1022 64.7999 22.1157 64.7853 22.1239 64.7827C22.1286 64.7867 22.1333 64.791 22.1377 64.7954C22.1409 64.8017 22.1441 64.8082 22.1495 64.809C22.1499 64.809 22.1504 64.8089 22.1508 64.809C22.175 64.8358 22.1972 64.8678 22.2195 64.8993C22.2695 64.9701 22.3248 65.0401 22.4073 65.0407C22.4251 65.0409 22.4494 65.0226 22.4736 65.0039C22.5033 64.9809 22.5331 64.957 22.5532 64.9655C22.6007 64.9857 22.6398 65.0393 22.6811 65.0917C22.7421 65.1703 22.8096 65.2461 22.8936 65.1957C22.9211 65.1791 22.9503 65.1479 22.979 65.1161C22.995 65.0984 23.0109 65.0805 23.0263 65.065C23.0184 65.0971 23.0119 65.1275 23.0059 65.1558C22.9935 65.214 22.9829 65.264 22.9629 65.3045C22.9158 65.4004 22.854 65.5321 22.8392 65.6338C22.8353 65.6615 22.8287 65.6918 22.822 65.7224C22.8053 65.799 22.7876 65.8773 22.814 65.9188C22.8314 65.9468 22.8805 66.0119 22.9264 65.9581C22.9363 65.9464 22.945 65.9215 22.9545 65.8938C22.9591 65.8805 22.9639 65.8666 22.9691 65.8532C22.9834 65.8161 23.001 65.7826 23.0268 65.7755C23.0327 65.7739 23.0391 65.7726 23.0456 65.7714C23.0717 65.7667 23.1007 65.7612 23.1158 65.7211C23.1332 65.6749 23.1367 65.6201 23.1411 65.5562C23.1467 65.473 23.1545 65.3744 23.1905 65.2584C23.1976 65.2355 23.207 65.2283 23.214 65.2229C23.219 65.2191 23.2228 65.216 23.2239 65.209C23.2251 65.2009 23.2254 65.1839 23.2258 65.1624C23.227 65.0864 23.2309 64.9541 23.2748 64.9527C23.2868 64.9524 23.2999 64.9599 23.3116 64.9666C23.3289 64.9764 23.3435 64.9844 23.3471 64.963C23.3484 64.9549 23.3496 64.946 23.3507 64.9369C23.3647 64.9405 23.3787 64.9441 23.3927 64.9475C23.4094 64.9744 23.4351 64.9736 23.4675 64.972C23.4753 64.9716 23.4835 64.9712 23.4921 64.9711C23.5202 64.9774 23.5483 64.9832 23.5765 64.9888C23.5988 64.9999 23.6225 65.0177 23.6486 65.0456C23.7007 65.1015 23.7495 65.1932 23.8009 65.282C23.8225 65.3194 23.8448 65.3563 23.8675 65.3897C23.8599 65.3945 23.8531 65.4 23.848 65.4073C23.8133 65.4574 23.8027 65.5519 23.7921 65.6389C23.785 65.6969 23.7779 65.7515 23.7634 65.787C23.7367 65.8522 23.7417 65.9269 23.7458 65.9823C23.7479 66.011 23.7497 66.0345 23.746 66.0486C23.743 66.0599 23.7355 66.0654 23.7277 66.0711C23.7209 66.076 23.7139 66.0812 23.7095 66.0903C23.6558 66.2013 23.6723 66.2646 23.7004 66.3568C23.7158 66.4076 23.7343 66.4671 23.7447 66.5482C23.754 66.6342 23.7528 66.6595 23.7204 66.6947C23.7473 66.7366 23.7748 66.7783 23.8029 66.8198C23.8132 66.8167 23.82 66.7897 23.8289 66.7451C23.845 66.6654 23.9054 66.6334 23.9523 66.6074C23.974 66.5954 23.9927 66.5848 24.0026 66.5719C24.0552 66.5028 24.0296 66.4149 24.0089 66.3375C23.9973 66.2949 23.987 66.2555 23.9899 66.2242C23.9911 66.2108 23.9867 66.198 23.9822 66.185C23.9788 66.1749 23.9753 66.1646 23.9743 66.1538C23.9673 66.0756 23.9934 66.0149 24.016 65.9583C24.029 65.9259 24.041 65.8948 24.046 65.8628C24.0475 65.853 24.0484 65.8431 24.0493 65.8335C24.0506 65.8195 24.0518 65.8061 24.0547 65.7944C24.0613 65.7679 24.0785 65.7485 24.097 65.7273C24.1065 65.7164 24.1164 65.705 24.1253 65.6919C24.1368 65.6748 24.1376 65.6434 24.1383 65.6105C24.1388 65.5873 24.1393 65.5634 24.1434 65.5432C24.1508 65.5066 24.1733 65.4906 24.1939 65.4755C24.2028 65.4689 24.2114 65.4624 24.2184 65.4546C24.2212 65.4515 24.2219 65.4459 24.221 65.4387C24.2537 65.4085 24.2838 65.3776 24.3123 65.3471C24.4563 65.1932 24.5568 65.059 24.7791 65.0664C24.8215 65.0675 24.8609 65.0503 24.8972 65.024C25.0371 65.004 25.178 64.9764 25.319 64.9408C25.3763 64.991 25.4352 65.0273 25.4949 65.0478C25.6073 65.0861 25.6906 65.0594 25.7867 65.0246C25.858 64.9987 25.9365 64.9683 26.0446 64.9509C26.2261 64.9214 26.4072 64.8656 26.5778 64.7562C26.7479 64.648 26.9236 64.4959 27.0337 64.3751C27.0938 64.3099 27.201 64.2744 27.3012 64.2362C27.4419 64.1832 27.5692 64.1234 27.5147 64.0069C27.4973 63.9698 27.4575 63.9203 27.4182 63.8729C27.3903 63.8392 27.3627 63.8065 27.3437 63.7795C27.3701 63.7532 27.3962 63.7263 27.4222 63.6991C27.5163 63.678 27.634 63.6206 27.605 63.4958C27.6304 63.4658 27.6554 63.4353 27.6798 63.4055C27.7321 63.3402 27.7823 63.2747 27.8314 63.2068C27.8475 63.1846 27.8636 63.162 27.8795 63.1391C27.8797 63.1388 27.8798 63.1386 27.88 63.1384C27.912 63.0924 27.9435 63.0455 27.974 62.9983C27.9871 62.9781 28 62.9577 28.0128 62.9372C28.0453 62.8852 28.0769 62.8321 28.1076 62.7788C28.1239 62.7507 28.14 62.7216 28.1558 62.6929C28.1816 62.6461 28.2068 62.5982 28.2313 62.5497C28.271 62.4708 28.3086 62.3925 28.3447 62.311C28.3507 62.2977 28.3645 62.2861 28.3839 62.2788C28.4033 62.2716 28.4267 62.2692 28.4499 62.2726C28.4731 62.276 28.4948 62.285 28.5112 62.2979C28.5275 62.3107 28.5369 62.3264 28.5383 62.3414C28.5465 62.4335 28.5524 62.5245 28.555 62.6184C28.5567 62.6761 28.5575 62.7342 28.5571 62.7919C28.557 62.8273 28.5561 62.8634 28.5551 62.8988C28.5532 62.9659 28.5496 63.034 28.5445 63.1019C28.5425 63.1288 28.5403 63.1556 28.5379 63.1824C28.5322 63.2453 28.5251 63.3088 28.5166 63.3723C28.5166 63.3727 28.5165 63.373 28.5165 63.3734C28.5123 63.4047 28.5078 63.4359 28.5032 63.4668C28.4886 63.562 28.4714 63.6564 28.4503 63.7528C28.4398 63.8027 28.4276 63.8542 28.4146 63.9057C28.4074 63.9343 28.4 63.9629 28.3926 63.9909C28.3884 64.0062 28.384 64.0217 28.3796 64.0372C28.2794 64.3946 28.138 64.7451 27.9537 65.0832C27.7703 65.4202 27.5457 65.7425 27.2853 66.0397C27.0242 66.3376 26.727 66.6107 26.3985 66.8514C25.377 67.607 24.0312 68.0339 22.6601 67.9756C21.2465 67.9275 19.7919 67.3512 18.6849 66.3436C18.3728 66.0623 18.0805 65.74 17.8273 65.3987C17.5714 65.0536 17.3522 64.6896 17.1664 64.2964C17.11 64.1772 17.0557 64.0527 17.0043 63.9234Z" fill="black"/>
<path d="M4.00429 8.92336C3.58236 7.85267 3.84305 6.714 3.98666 5.6746C3.9898 5.6515 3.99295 5.62837 3.99612 5.60521C4.15922 4.33326 4.46316 2.86814 5.45696 1.87916C6.4411 0.89554 7.7355 0.255218 9.06701 0.064888C9.89813 -0.0565614 10.7403 -0.00493886 11.5202 0.198299C11.99 0.320125 12.4425 0.496579 12.8628 0.721298C13.9822 1.31685 14.8549 2.25659 15.3582 3.30979C15.7025 4.02493 15.8823 4.79293 15.8986 5.53848C15.9061 5.86575 15.8827 6.18826 15.8309 6.50126C15.7921 6.73431 15.7376 6.96349 15.669 7.18369C15.6594 7.21442 15.6319 7.2415 15.5917 7.25826C15.5514 7.27505 15.502 7.28025 15.4528 7.27304C15.4035 7.26581 15.3575 7.24678 15.3233 7.2208C15.2892 7.1948 15.2698 7.16395 15.2677 7.13431C15.2536 6.91996 15.225 6.70792 15.1823 6.50295C15.1351 6.2747 15.0707 6.05373 14.9912 5.8421C15.1869 5.77459 15.3313 5.69685 15.3787 5.58652C15.4029 5.53042 15.4007 5.45398 15.351 5.41038C15.3063 5.37119 15.2384 5.35148 15.1737 5.33394C15.106 5.31562 15.0418 5.29983 15.0105 5.26557C14.9574 5.20735 14.8543 5.16973 14.7462 5.13579C14.7068 5.1234 14.6667 5.1114 14.6281 5.09875C14.5191 4.92106 14.3987 4.75394 14.2688 4.5983C14.2518 4.52049 14.2313 4.44972 14.193 4.4024C14.1587 4.35991 14.0956 4.34076 14.0245 4.32985C14.0027 4.30797 13.9808 4.28639 13.9586 4.26509C13.8159 4.12758 13.6655 4.00213 13.5092 3.88962C13.45 3.7448 13.3752 3.59442 13.2326 3.44261C13.1711 3.37737 13.1204 3.29968 13.0681 3.22568C12.9916 3.11671 12.9111 3.01572 12.8053 2.98485C12.7348 2.96432 12.6862 2.90245 12.634 2.84104C12.5651 2.75916 12.4887 2.67791 12.3731 2.71121C12.3006 2.7322 12.2292 2.76669 12.1647 2.80018C12.0621 2.85355 11.9768 2.90409 11.922 2.89001C11.8191 2.86367 11.7115 2.89805 11.6215 2.93193C11.5119 2.97239 11.4265 3.01136 11.3729 2.93651C11.3647 2.92516 11.3556 2.91049 11.3452 2.89389C11.3069 2.83257 11.2494 2.74545 11.1539 2.71426C11.1136 2.70107 11.0671 2.69814 11.0151 2.71212C10.9531 2.72885 10.8915 2.78465 10.8347 2.84075C10.7517 2.92245 10.6785 3.00428 10.602 2.96636C10.5906 2.96069 10.5785 2.93714 10.5673 2.91569C10.5531 2.88841 10.54 2.86469 10.533 2.88557C10.5121 2.9468 10.4799 3.01486 10.4477 3.08952C10.424 3.14435 10.4005 3.20274 10.3801 3.26406C10.1991 3.30939 10.0248 3.36834 9.8585 3.43904C9.78246 3.47141 9.70768 3.50636 9.63496 3.54355C9.56777 3.46868 9.49913 3.40465 9.4327 3.36228C9.34562 3.30708 9.25782 3.3139 9.14498 3.32896C9.06181 3.34021 8.96504 3.35582 8.8391 3.35965C8.60401 3.36685 8.42888 3.51598 8.35539 3.64481C8.3395 3.67211 8.3244 3.70023 8.30893 3.73058C8.2514 3.84615 8.18009 3.98876 8.05321 4.23207C7.93502 4.46241 7.83205 4.63997 7.76049 4.77808C7.72407 4.84857 7.69644 4.90778 7.68165 4.95672C7.65644 5.04016 7.62412 5.14038 7.59752 5.24157C7.55513 5.39993 7.52839 5.56146 7.5361 5.65768C7.53875 5.69182 7.54424 5.72817 7.55075 5.76711C7.56771 5.86717 7.59182 5.98293 7.60228 6.13018C7.6031 6.14164 7.60385 6.15326 7.60452 6.16505C7.61524 6.33593 7.58933 6.43424 7.53928 6.54278C7.5192 6.58642 7.44184 6.62638 7.36277 6.67136C7.25062 6.73425 7.13521 6.8104 7.17915 6.89731C7.18941 6.91739 7.21018 6.93761 7.23218 6.95842C7.27261 6.99673 7.31696 7.03558 7.3073 7.08357C7.30394 7.1004 7.28542 7.1179 7.26739 7.13533C7.24755 7.15448 7.22833 7.17363 7.2303 7.19107C7.23765 7.25607 7.25644 7.31744 7.27437 7.37107C7.29743 7.4402 7.31904 7.49733 7.31215 7.53888C7.29986 7.6132 7.35167 7.67622 7.40548 7.73532C7.44671 7.78093 7.48926 7.82474 7.50681 7.87691C7.5565 8.02664 7.707 8.19979 7.90335 8.32708C7.97738 8.37512 7.97587 8.4571 7.98131 8.56664C7.98471 8.63453 7.99072 8.71294 8.01989 8.79605C8.03655 8.84324 8.09538 8.84402 8.14871 8.84294C8.19801 8.8421 8.24289 8.83994 8.25077 8.87526C8.25773 8.90646 8.21893 8.96994 8.18301 9.03108C8.14296 9.09901 8.10657 9.16407 8.13893 9.1753C8.15611 9.18122 8.19558 9.16847 8.24183 9.15239C8.26012 9.14602 8.27946 9.13922 8.29901 9.13278C8.28881 9.14337 8.27994 9.15306 8.2733 9.16046C8.22628 9.21269 8.225 9.26129 8.22514 9.30932C8.22517 9.32849 8.22545 9.34754 8.22284 9.36672C8.21314 9.4374 8.26454 9.49218 8.31094 9.52434C8.33051 9.538 8.33452 9.5684 8.33982 9.60404C8.34451 9.63565 8.35028 9.67149 8.3687 9.70276C8.3792 9.72058 8.37947 9.7456 8.37977 9.7665C8.37999 9.78163 8.38024 9.79456 8.38445 9.80079C8.3881 9.80617 8.4035 9.79229 8.42073 9.77655C8.43313 9.76523 8.44654 9.75294 8.45725 9.74623C8.48285 9.7302 8.50041 9.73188 8.50474 9.74534C8.50674 9.75156 8.50581 9.76032 8.5049 9.76905C8.50384 9.77921 8.50276 9.78943 8.50643 9.79562C8.52333 9.82403 8.5602 9.82013 8.59793 9.81532C8.6396 9.81014 8.68187 9.80368 8.70408 9.84C8.71108 9.85144 8.71472 9.87043 8.71842 9.88888C8.72227 9.90818 8.72628 9.92689 8.73381 9.93544C8.76465 9.97023 8.82454 9.94504 8.87824 9.92057C8.91403 9.90434 8.94723 9.88856 8.96907 9.89184C9.00931 9.89795 9.05345 9.85188 9.08552 9.81768C9.10216 9.79995 9.11566 9.78529 9.12391 9.78275C9.12861 9.78674 9.13326 9.79103 9.13774 9.79543C9.14085 9.8017 9.14411 9.80817 9.14951 9.80897C9.14992 9.80903 9.15038 9.80895 9.15079 9.809C9.17504 9.83577 9.19722 9.86779 9.21953 9.89932C9.26952 9.97009 9.32476 10.0401 9.40733 10.0407C9.42514 10.0409 9.44936 10.0226 9.47358 10.0039C9.50331 9.98092 9.5331 9.95704 9.55317 9.96552C9.60073 9.98567 9.63977 10.0393 9.68106 10.0917C9.74214 10.1703 9.80957 10.2461 9.89359 10.1957C9.92108 10.1791 9.95031 10.1479 9.97898 10.1161C9.99497 10.0984 10.0109 10.0805 10.0263 10.065C10.0184 10.0971 10.0119 10.1275 10.0059 10.1558C9.99352 10.214 9.98289 10.264 9.96285 10.3045C9.91577 10.4004 9.85395 10.5321 9.83918 10.6338C9.83525 10.6615 9.82872 10.6918 9.82202 10.7224C9.8053 10.799 9.78761 10.8773 9.81398 10.9188C9.83142 10.9468 9.88046 11.0119 9.92638 10.9581C9.93632 10.9464 9.94499 10.9215 9.95452 10.8938C9.95909 10.8805 9.96386 10.8666 9.96907 10.8532C9.98342 10.8161 10.001 10.7826 10.0268 10.7755C10.0327 10.7739 10.0391 10.7726 10.0456 10.7714C10.0717 10.7667 10.1007 10.7612 10.1158 10.7211C10.1332 10.6749 10.1367 10.6201 10.1411 10.5562C10.1467 10.473 10.1545 10.3744 10.1905 10.2584C10.1976 10.2355 10.207 10.2283 10.214 10.2229C10.219 10.2191 10.2228 10.216 10.2239 10.209C10.2251 10.2009 10.2254 10.1839 10.2258 10.1624C10.227 10.0864 10.2309 9.95407 10.2748 9.95274C10.2868 9.95237 10.2999 9.95986 10.3116 9.96656C10.3289 9.97643 10.3435 9.98443 10.3471 9.963C10.3484 9.95487 10.3496 9.94604 10.3507 9.93688C10.3647 9.94051 10.3787 9.94406 10.3927 9.94752C10.4094 9.97437 10.4351 9.9736 10.4675 9.97198C10.4753 9.97159 10.4835 9.97124 10.4921 9.97114C10.5202 9.97737 10.5483 9.98321 10.5765 9.98884C10.5988 9.99993 10.6225 10.0177 10.6486 10.0456C10.7007 10.1015 10.7495 10.1932 10.8009 10.282C10.8225 10.3194 10.8448 10.3563 10.8675 10.3897C10.8599 10.3945 10.8531 10.4 10.848 10.4073C10.8133 10.4574 10.8027 10.5519 10.7921 10.6389C10.785 10.6969 10.7779 10.7515 10.7634 10.787C10.7367 10.8522 10.7417 10.9269 10.7458 10.9823C10.7479 11.011 10.7497 11.0345 10.746 11.0486C10.743 11.0599 10.7355 11.0654 10.7277 11.0711C10.7209 11.076 10.7139 11.0812 10.7095 11.0903C10.6558 11.2013 10.6723 11.2646 10.7004 11.3568C10.7158 11.4076 10.7343 11.4671 10.7447 11.5482C10.754 11.6342 10.7528 11.6595 10.7204 11.6947C10.7473 11.7366 10.7748 11.7783 10.8029 11.8198C10.8132 11.8167 10.82 11.7897 10.8289 11.7451C10.845 11.6654 10.9054 11.6334 10.9523 11.6074C10.974 11.5954 10.9927 11.5848 11.0026 11.5719C11.0552 11.5028 11.0296 11.4149 11.0089 11.3375C10.9973 11.2949 10.987 11.2555 10.9899 11.2242C10.9911 11.2108 10.9867 11.198 10.9822 11.185C10.9788 11.1749 10.9753 11.1646 10.9743 11.1538C10.9673 11.0756 10.9934 11.0149 11.016 10.9583C11.029 10.9259 11.041 10.8948 11.046 10.8628C11.0475 10.853 11.0484 10.8431 11.0493 10.8335C11.0506 10.8195 11.0518 10.8061 11.0547 10.7944C11.0613 10.7679 11.0785 10.7485 11.097 10.7273C11.1065 10.7164 11.1164 10.705 11.1253 10.6919C11.1368 10.6748 11.1376 10.6434 11.1383 10.6105C11.1388 10.5873 11.1393 10.5634 11.1434 10.5432C11.1508 10.5066 11.1733 10.4906 11.1939 10.4755C11.2028 10.4689 11.2114 10.4624 11.2184 10.4546C11.2212 10.4515 11.2219 10.4459 11.221 10.4387C11.2537 10.4085 11.2838 10.3776 11.3123 10.3471C11.4563 10.1932 11.5568 10.059 11.7791 10.0664C11.8215 10.0675 11.8609 10.0503 11.8972 10.024C12.0371 10.004 12.178 9.97642 12.319 9.9408C12.3763 9.99101 12.4352 10.0273 12.4949 10.0478C12.6073 10.0861 12.6906 10.0594 12.7867 10.0246C12.858 9.99867 12.9365 9.96832 13.0446 9.95089C13.2261 9.92143 13.4072 9.86556 13.5778 9.75623C13.7479 9.64802 13.9236 9.49592 14.0337 9.37506C14.0938 9.30986 14.201 9.27442 14.3012 9.23624C14.4419 9.18316 14.5692 9.12338 14.5147 9.00689C14.4973 8.96975 14.4575 8.92025 14.4182 8.87293C14.3903 8.83922 14.3627 8.80651 14.3437 8.77953C14.3701 8.7532 14.3962 8.72631 14.4222 8.69906C14.5163 8.67803 14.634 8.62062 14.605 8.49584C14.6304 8.46576 14.6554 8.43529 14.6798 8.40553C14.7321 8.34016 14.7823 8.27471 14.8314 8.20678C14.8475 8.18461 14.8636 8.16198 14.8795 8.13905C14.8797 8.13884 14.8798 8.13863 14.88 8.13841C14.912 8.09236 14.9435 8.04547 14.974 7.99828C14.9871 7.97808 15 7.95771 15.0128 7.93717C15.0453 7.88518 15.0769 7.83213 15.1076 7.77881C15.1239 7.75069 15.14 7.72159 15.1558 7.6929C15.1816 7.64612 15.2068 7.59817 15.2313 7.54968C15.271 7.4708 15.3086 7.39255 15.3447 7.31096C15.3507 7.29766 15.3645 7.28608 15.3839 7.27883C15.4033 7.2716 15.4267 7.26923 15.4499 7.27262C15.4731 7.27601 15.4948 7.28503 15.5112 7.29789C15.5275 7.31073 15.5369 7.32638 15.5383 7.34139C15.5465 7.43349 15.5524 7.52448 15.555 7.6184C15.5567 7.67614 15.5575 7.73422 15.5571 7.79189C15.557 7.82729 15.5561 7.86337 15.5551 7.89881C15.5532 7.9659 15.5496 8.03397 15.5445 8.10192C15.5425 8.12875 15.5403 8.15558 15.5379 8.18241C15.5322 8.24527 15.5251 8.30876 15.5166 8.37227C15.5166 8.37265 15.5165 8.37303 15.5165 8.37342C15.5123 8.40471 15.5078 8.43595 15.5032 8.46684C15.4886 8.56201 15.4714 8.65645 15.4503 8.75279C15.4398 8.80275 15.4276 8.85416 15.4146 8.90567C15.4074 8.93432 15.4 8.96289 15.3926 8.99093C15.3884 9.00622 15.384 9.02168 15.3796 9.0372C15.2794 9.3946 15.138 9.74508 14.9537 10.0832C14.7703 10.4202 14.5457 10.7425 14.2853 11.0397C14.0242 11.3376 13.727 11.6107 13.3985 11.8514C12.377 12.607 11.0312 13.0339 9.6601 12.9756C8.24647 12.9275 6.79194 12.3512 5.68485 11.3436C5.37281 11.0623 5.08049 10.74 4.82727 10.3987C4.57144 10.0536 4.3522 9.68955 4.16641 9.29644C4.10997 9.17725 4.05568 9.05271 4.00429 8.92336Z" fill="black"/>
<path d="M0.00660558 29.1686C-0.0866978 28.3994 0.840412 27.6651 0.846688 26.8938C0.854571 25.9363 -0.0214909 24.9583 0.148321 23.9994C0.318141 23.0461 0.559606 22.0886 0.855986 21.1345C1.15238 20.1793 1.5036 19.2258 1.89204 18.2706C2.28047 17.3175 2.70602 16.3626 3.1523 15.409C3.45544 14.7614 3.76826 14.1131 4.08489 13.4655C4.22367 13.1813 4.36306 12.8979 4.50295 12.6138C4.60757 12.4018 4.71218 12.1899 4.81679 11.978C4.83154 11.9485 4.89083 11.9205 4.9848 11.9002C5.07892 11.8799 5.19935 11.8688 5.32373 11.8696C5.44819 11.8703 5.56874 11.8829 5.66228 11.9044C5.75557 11.9259 5.8137 11.9546 5.82754 11.9842C5.92641 12.1991 6.02528 12.4141 6.12414 12.629C6.23381 12.8677 6.34368 13.106 6.45262 13.3447C5.94194 13.3792 5.55446 13.4283 5.38291 13.5237C5.29541 13.5724 5.25872 13.6439 5.35326 13.6973C5.43821 13.7452 5.58996 13.7818 5.73458 13.8166C5.88584 13.8529 6.02945 13.8875 6.07998 13.9311C6.16579 14.0051 6.38211 14.0763 6.60937 14.151C6.69208 14.1782 6.77637 14.2059 6.85625 14.2344C6.95872 14.4622 7.06038 14.6901 7.16115 14.9178C7.10628 15.0053 7.06186 15.0857 7.08239 15.1543C7.10082 15.2158 7.20833 15.2726 7.34214 15.3294C7.35757 15.3647 7.373 15.3999 7.38843 15.4352C7.48758 15.6628 7.58511 15.8904 7.68177 16.1181C7.54454 16.2945 7.41116 16.4794 7.35168 16.7205C7.32603 16.8244 7.25178 16.9267 7.18052 17.0249C7.07526 17.1701 6.97633 17.3067 7.049 17.4274C7.09758 17.508 7.02494 17.5921 6.9525 17.676C6.85535 17.7886 6.75836 17.9009 6.95423 18.0044C7.07741 18.0695 7.22727 18.1294 7.36627 18.185C7.58742 18.2734 7.78086 18.3506 7.79382 18.4196C7.81813 18.5492 7.97895 18.6622 8.12083 18.7618C8.29147 18.8817 8.43464 18.9822 8.27928 19.0688C8.25572 19.0819 8.22442 19.0969 8.18884 19.1138C8.00131 19.2028 7.70137 19.3452 7.86458 19.553C7.92271 19.627 8.07448 19.697 8.22341 19.7656C8.44022 19.8655 8.65067 19.9625 8.55616 20.0646C8.54201 20.0798 8.48304 20.0955 8.42917 20.1097C8.36067 20.1278 8.30088 20.1437 8.35275 20.1536C8.50489 20.1826 8.67297 20.2282 8.85589 20.2777C8.99028 20.3141 9.13276 20.3527 9.28235 20.3883C9.36544 20.6546 9.44497 20.9208 9.52017 21.1872C9.55466 21.3092 9.58828 21.4312 9.621 21.5533C9.39132 21.6143 9.18436 21.6768 9.02767 21.7432C8.8229 21.83 8.75967 21.9438 8.67775 22.0903C8.61747 22.1982 8.54698 22.3239 8.40318 22.4698C8.13704 22.7399 8.19473 23.0193 8.33556 23.199C8.36534 23.237 8.39715 23.2752 8.43175 23.3161C8.56298 23.4711 8.72732 23.6645 8.90768 24.0311C9.07827 24.378 9.12131 24.6723 9.15366 24.8934C9.17016 25.0063 9.18344 25.1001 9.20991 25.1721C9.25521 25.2952 9.29531 25.4464 9.33536 25.5981C9.39805 25.8355 9.46085 26.0744 9.54564 26.21C9.57583 26.2582 9.61323 26.3089 9.6532 26.3636C9.76393 26.5152 9.89755 26.6984 9.9739 26.9502C10.054 27.2145 9.99739 27.3777 9.87537 27.5469C9.82576 27.6156 9.63086 27.6754 9.42948 27.737C9.14373 27.8244 8.84549 27.9155 8.93358 28.0417C8.95415 28.0712 9.00033 28.1027 9.04879 28.1358C9.13781 28.1964 9.23433 28.262 9.19146 28.3284C9.1765 28.3515 9.12356 28.3717 9.07167 28.3914C9.01458 28.4132 8.95877 28.4345 8.95551 28.459C8.94341 28.5504 8.95605 28.6396 8.9674 28.7188C8.98204 28.821 8.9942 28.9067 8.94771 28.9595C8.86479 29.0537 8.93791 29.1576 9.01235 29.2629C9.06921 29.3433 9.12703 29.4246 9.11574 29.5028C9.08343 29.7264 9.22213 30.035 9.4544 30.3535C9.54222 30.474 9.42071 30.575 9.26469 30.7043C9.16765 30.7848 9.05685 30.8762 8.97544 30.9902C8.92932 31.0548 9.0367 31.1104 9.1359 31.1619C9.22729 31.2093 9.31179 31.2533 9.26366 31.2976C9.22111 31.3367 9.03988 31.3605 8.86774 31.3831C8.67618 31.4083 8.49601 31.432 8.53089 31.4736C8.54946 31.4958 8.63989 31.5231 8.74732 31.5556C8.7898 31.5684 8.83477 31.5822 8.87929 31.5966C8.84256 31.5957 8.80972 31.5953 8.78486 31.5952C8.60917 31.5941 8.5164 31.6358 8.42552 31.6767C8.38923 31.6931 8.3534 31.7094 8.31254 31.7227C8.16215 31.7716 8.13718 31.8658 8.14373 31.938C8.14645 31.9685 8.09182 31.9958 8.02805 32.0277C7.97144 32.056 7.90753 32.0879 7.87027 32.1289C7.84902 32.1522 7.79799 32.1699 7.7554 32.1846C7.72456 32.1952 7.69822 32.2042 7.69126 32.2127C7.68527 32.2201 7.7356 32.2263 7.79228 32.2333C7.83308 32.2384 7.87727 32.2439 7.90611 32.2505C7.97501 32.2663 7.9957 32.2861 7.97345 32.2999C7.96317 32.3062 7.94354 32.3111 7.92401 32.3161C7.90125 32.3218 7.87833 32.3275 7.87028 32.3354C7.83338 32.372 7.89061 32.4081 7.95006 32.4456C8.01539 32.4869 8.08327 32.5299 8.03215 32.577C8.01605 32.5919 7.97925 32.6076 7.94354 32.6228C7.90616 32.6387 7.87009 32.6541 7.86042 32.6674C7.8212 32.7212 7.94652 32.7728 8.0618 32.8202C8.13847 32.8517 8.21059 32.8815 8.22701 32.9088C8.257 32.9589 8.40766 32.9866 8.51888 33.007C8.57652 33.0176 8.62386 33.0262 8.63814 33.035C8.63389 33.043 8.62885 33.0512 8.62337 33.0591C8.61224 33.0663 8.60075 33.0738 8.60436 33.081C8.60463 33.0815 8.60528 33.082 8.60557 33.0826C8.56875 33.127 8.51664 33.1705 8.46467 33.2138C8.34793 33.311 8.23239 33.407 8.29661 33.5096C8.31045 33.5317 8.3726 33.5545 8.43573 33.5777C8.51309 33.6061 8.5922 33.6352 8.58633 33.6643C8.57232 33.7337 8.46921 33.8032 8.3676 33.8716C8.21479 33.9746 8.06556 34.0752 8.22817 34.1695C8.28184 34.2006 8.37135 34.2312 8.46159 34.2619C8.51187 34.2789 8.56259 34.2961 8.6069 34.3134C8.52445 34.3093 8.44702 34.3069 8.37482 34.3047C8.226 34.3002 8.09863 34.2962 7.99052 34.2792C7.73501 34.2391 7.38322 34.1932 7.12644 34.1966C7.05675 34.1975 6.97915 34.196 6.90102 34.1944C6.705 34.1903 6.50481 34.1861 6.41405 34.2215C6.35289 34.2453 6.21244 34.3067 6.36214 34.3471C6.39475 34.3559 6.45948 34.3615 6.5314 34.3678C6.66063 34.379 6.81365 34.3924 6.84907 34.43C6.85503 34.4364 6.86041 34.4433 6.86541 34.4504C6.88534 34.4788 6.90735 34.5106 7.01121 34.523C7.13085 34.5373 7.26799 34.5352 7.42789 34.5328C7.63614 34.5296 7.8835 34.5258 8.18143 34.5569C8.24032 34.563 8.26044 34.5742 8.27571 34.5827C8.28646 34.5887 8.29509 34.5932 8.31281 34.5938C8.33318 34.5944 8.37557 34.5928 8.4292 34.5907C8.61842 34.5833 8.94903 34.5706 8.96268 34.632C8.96634 34.6487 8.9505 34.6676 8.93618 34.6845C8.91508 34.7095 8.89767 34.7303 8.95173 34.7334C8.97225 34.7345 8.99448 34.7354 9.01752 34.7362C9.0109 34.7561 9.00429 34.7761 8.99767 34.796C8.93305 34.8213 8.93836 34.8573 8.94526 34.9022C8.94694 34.9132 8.94847 34.9247 8.94933 34.9366C8.93575 34.976 8.92225 35.0153 8.90843 35.0547C8.8809 35.0858 8.83617 35.1188 8.76528 35.1535C8.6232 35.2231 8.38921 35.283 8.16039 35.3415C8.06397 35.3661 7.96827 35.3905 7.88091 35.4154C7.87024 35.4054 7.85764 35.3965 7.84024 35.3895C7.72117 35.3419 7.48649 35.3217 7.27046 35.3031C7.12677 35.2907 6.99128 35.279 6.90393 35.2605C6.74389 35.2266 6.55648 35.2288 6.4179 35.2305C6.34602 35.2313 6.28714 35.2319 6.2522 35.2273C6.22421 35.2236 6.21108 35.2154 6.19748 35.2068C6.18563 35.1994 6.17324 35.1918 6.15069 35.1868C5.87671 35.1262 5.71737 35.143 5.48547 35.1674C5.35757 35.1809 5.20749 35.1966 5.00394 35.2031C4.78843 35.2084 4.72541 35.2058 4.63976 35.1744C4.5332 35.1978 4.42664 35.2213 4.32009 35.2447C4.32695 35.2542 4.39344 35.2618 4.50393 35.2725C4.70124 35.2916 4.77305 35.3506 4.82916 35.3966C4.85514 35.4179 4.87787 35.4365 4.90807 35.4471C5.06873 35.5033 5.29302 35.4886 5.49037 35.4755C5.599 35.4684 5.69954 35.4618 5.77678 35.4678C5.80982 35.4704 5.84264 35.4672 5.87611 35.464C5.90199 35.4614 5.9283 35.4589 5.95535 35.4589C6.15179 35.4593 6.29742 35.4929 6.43264 35.5241C6.51007 35.5419 6.58437 35.559 6.66268 35.5686C6.68655 35.5715 6.71089 35.5739 6.73453 35.5761C6.76905 35.5793 6.80195 35.5825 6.83012 35.5873C6.8943 35.5982 6.93748 35.6203 6.98455 35.6444C7.00867 35.6568 7.03387 35.6697 7.06353 35.6819C7.10198 35.6978 7.17964 35.7039 7.26077 35.7103C7.3181 35.7149 7.37716 35.7196 7.42578 35.728C7.51371 35.7432 7.54531 35.773 7.57463 35.8006C7.5874 35.8127 7.60009 35.8243 7.61647 35.8342C7.62314 35.8382 7.63649 35.8402 7.65482 35.8407C7.71604 35.8862 7.77861 35.9296 7.83988 35.9719C8.14708 36.1839 8.41342 36.3674 8.218 36.638C8.18105 36.6891 8.18805 36.7443 8.21705 36.8003C8.13895 36.9781 8.05835 37.1561 7.97571 37.3339C7.79849 37.3681 7.64958 37.4104 7.53263 37.4608C7.31305 37.5555 7.26567 37.6539 7.20974 37.7701C7.16838 37.856 7.1222 37.9516 6.99844 38.0625C6.79048 38.249 6.61437 38.4406 6.52216 38.6575C6.43036 38.8734 6.36217 39.1208 6.33747 39.296C6.32399 39.3915 6.16506 39.491 6.01714 39.5837C5.80908 39.7141 5.6226 39.8311 5.89158 39.9048C5.97754 39.9283 6.12688 39.9514 6.27197 39.9739C6.3753 39.99 6.47621 40.0058 6.55135 40.0211C6.52776 40.0607 6.50442 40.1003 6.48059 40.1398C6.30065 40.2093 6.10752 40.3179 6.30711 40.425C6.28213 40.4659 6.25727 40.5067 6.23207 40.5461C6.17934 40.6322 6.12595 40.7164 6.07217 40.8013C6.05439 40.829 6.03658 40.8571 6.01867 40.8851C6.01847 40.8854 6.01826 40.8857 6.01806 40.8859C5.98202 40.9424 5.94573 40.9994 5.90923 41.0553C5.89365 41.0793 5.87808 41.1033 5.8625 41.1273C5.82297 41.1882 5.7833 41.2496 5.74323 41.3099C5.72193 41.3419 5.70078 41.3741 5.67931 41.4064C5.64447 41.4588 5.60945 41.5115 5.5742 41.564C5.51721 41.6489 5.45958 41.7334 5.40151 41.8181C5.3919 41.832 5.36195 41.8451 5.3166 41.8547C5.27118 41.8642 5.21428 41.8694 5.15567 41.8691C5.09704 41.8687 5.04006 41.8628 4.99492 41.8527C4.94994 41.8426 4.92086 41.8291 4.91167 41.8151C4.85615 41.7297 4.80125 41.6445 4.74683 41.5589C4.71319 41.5059 4.67925 41.4528 4.64601 41.4C4.62552 41.3674 4.60538 41.335 4.58504 41.3028C4.54682 41.242 4.50863 41.1801 4.47097 41.1187C4.45608 41.0945 4.44119 41.0704 4.42631 41.0462C4.39142 40.9897 4.35691 40.9322 4.32251 40.8751C4.32231 40.8748 4.32211 40.8744 4.32191 40.8741C4.30498 40.846 4.28803 40.818 4.27122 40.7902C4.22002 40.7046 4.1693 40.6198 4.11918 40.5331C4.09212 40.4883 4.06569 40.4416 4.03896 40.3953C4.02407 40.3695 4.00911 40.3438 3.99432 40.3185C3.98644 40.3047 3.97865 40.2906 3.9708 40.2766C3.78536 39.9533 3.60702 39.6324 3.43603 39.3086C3.26505 38.9859 3.10118 38.6628 2.94392 38.3406C2.78664 38.0177 2.63624 37.6953 2.49201 37.3728C1.57613 35.3256 0.827351 33.2713 0.363238 31.2177C0.296588 30.9248 0.236728 30.6243 0.183203 30.3309C0.129667 30.0343 0.0823291 29.7438 0.0421467 29.4465C0.0295728 29.3561 0.0178332 29.2636 0.00660558 29.1686Z" fill="black"/>
<path d="M23.9324 44.1156C23.8346 43.2188 24.7574 42.3558 24.7591 41.456C24.7614 40.3388 23.8797 39.2038 24.0439 38.084C24.2081 36.9707 24.444 35.852 24.7348 34.7368C25.0256 33.6204 25.3712 32.5056 25.7541 31.3887C26.1369 30.2741 26.5569 29.1571 26.9976 28.0416C27.2969 27.2839 27.6059 26.5254 27.9188 25.7679C28.0559 25.4353 28.1936 25.1037 28.3319 24.7713C28.4352 24.5233 28.5386 24.2754 28.642 24.0274C28.6566 23.9929 28.7157 23.9599 28.8095 23.9355C28.9035 23.9112 29.0239 23.8974 29.1483 23.8975C29.2727 23.8975 29.3934 23.9113 29.487 23.9358C29.5804 23.9602 29.6387 23.9933 29.6527 24.0278C29.7529 24.2778 29.853 24.5279 29.9531 24.778C30.0642 25.0557 30.1754 25.333 30.2858 25.6107C29.7753 25.6544 29.3881 25.7144 29.2171 25.8269C29.1299 25.8843 29.0936 25.9679 29.1885 26.0295C29.2737 26.0849 29.4257 26.1266 29.5705 26.1661C29.722 26.2075 29.8658 26.2468 29.9166 26.2974C30.0028 26.3832 30.2195 26.4647 30.4472 26.5504C30.5301 26.5816 30.6145 26.6133 30.6946 26.646C30.7984 26.911 30.9014 27.1761 31.0035 27.4412C30.9491 27.5436 30.9052 27.6377 30.9261 27.7176C30.9449 27.7892 31.0527 27.8548 31.1869 27.9201C31.2025 27.9611 31.2182 28.0022 31.2338 28.0432C31.3343 28.308 31.4331 28.5729 31.5311 28.8379C31.3949 29.0446 31.2626 29.2613 31.2045 29.543C31.1795 29.6644 31.1059 29.7842 31.0352 29.8993C30.9308 30.0694 30.8326 30.2294 30.906 30.3697C30.9551 30.4634 30.8829 30.5621 30.811 30.6605C30.7145 30.7924 30.6181 30.9241 30.8146 31.0435C30.9382 31.1186 31.0884 31.1875 31.2277 31.2514C31.4494 31.353 31.6433 31.4418 31.6566 31.5222C31.6817 31.6732 31.8432 31.804 31.9856 31.9192C32.157 32.0579 32.3007 32.1741 32.1459 32.2763C32.1224 32.2917 32.0912 32.3095 32.0557 32.3294C31.8687 32.4345 31.5696 32.6026 31.734 32.844C31.7926 32.9299 31.9447 33.0106 32.0941 33.0896C32.3115 33.2047 32.5225 33.3164 32.4286 33.4361C32.4145 33.454 32.3556 33.4726 32.3018 33.4896C32.2334 33.5112 32.1737 33.5301 32.2257 33.5413C32.378 33.5741 32.5463 33.6262 32.7295 33.6827C32.8641 33.7242 33.0068 33.7683 33.1566 33.8089C33.2413 34.1189 33.3224 34.429 33.3991 34.7392C33.4343 34.8813 33.4686 35.0234 33.5021 35.1656C33.2728 35.2384 33.0662 35.3127 32.9099 35.3913C32.7056 35.4939 32.643 35.6271 32.562 35.7986C32.5023 35.9249 32.4326 36.072 32.2896 36.2432C32.0251 36.5602 32.0844 36.8857 32.2263 37.0944C32.2563 37.1385 32.2883 37.1829 32.3232 37.2303C32.4553 37.4102 32.6208 37.6348 32.8033 38.0613C32.9759 38.4647 33.0206 38.8078 33.0543 39.0656C33.0714 39.1971 33.0853 39.3065 33.1122 39.3903C33.1582 39.5336 33.1992 39.7097 33.2401 39.8864C33.3042 40.163 33.3684 40.4413 33.4539 40.5988C33.4844 40.6549 33.5221 40.7138 33.5624 40.7774C33.674 40.9535 33.8087 41.1662 33.8865 41.4595C33.9682 41.7673 33.9125 41.9581 33.7915 42.1563C33.7423 42.2368 33.5477 42.3079 33.3467 42.3811C33.0615 42.485 32.7638 42.5934 32.8526 42.74C32.8733 42.7742 32.9197 42.8108 32.9684 42.849C33.0577 42.9191 33.1546 42.995 33.1122 43.0727C33.0973 43.0998 33.0445 43.1237 32.9927 43.1471C32.9358 43.1728 32.8801 43.1981 32.877 43.2267C32.8654 43.3335 32.8786 43.4374 32.8904 43.5297C32.9056 43.6488 32.9183 43.7487 32.8721 43.8107C32.7897 43.9211 32.8635 44.0419 32.9385 44.1642C32.9958 44.2576 33.0541 44.352 33.0433 44.4434C33.0123 44.7045 33.1528 45.0635 33.3869 45.4335C33.4754 45.5735 33.3545 45.6921 33.1993 45.8441C33.1027 45.9386 32.9924 46.046 32.9117 46.1796C32.866 46.2553 32.9737 46.3194 33.0732 46.3788C33.1648 46.4335 33.2496 46.4842 33.2017 46.5362C33.1594 46.5821 32.9783 46.6112 32.8063 46.6387C32.6149 46.6694 32.4349 46.6983 32.47 46.7466C32.4887 46.7723 32.5793 46.8036 32.6869 46.8408C32.7294 46.8555 32.7745 46.8712 32.8191 46.8878C32.7824 46.8869 32.7495 46.8867 32.7247 46.8867C32.549 46.8866 32.4564 46.9359 32.3658 46.9843C32.3296 47.0036 32.2939 47.0228 32.2531 47.0386C32.103 47.0968 32.0786 47.2068 32.0855 47.291C32.0884 47.3266 32.034 47.3588 31.9704 47.3964C31.9139 47.4299 31.8502 47.4675 31.8132 47.5155C31.7921 47.5429 31.7412 47.564 31.6987 47.5814C31.6679 47.5939 31.6416 47.6047 31.6347 47.6146C31.6287 47.6232 31.6791 47.6302 31.7358 47.638C31.7767 47.6436 31.8209 47.6497 31.8498 47.6572C31.9187 47.6751 31.9395 47.6982 31.9174 47.7143C31.9071 47.7218 31.8875 47.7277 31.868 47.7336C31.8453 47.7404 31.8224 47.7472 31.8144 47.7565C31.7777 47.7995 31.8352 47.8412 31.8948 47.8846C31.9604 47.9322 32.0285 47.982 31.9777 48.0373C31.9617 48.0547 31.925 48.0733 31.8894 48.0912C31.8521 48.1101 31.8161 48.1283 31.8065 48.1439C31.7676 48.2069 31.8932 48.2662 32.0088 48.3208C32.0856 48.357 32.1579 48.3913 32.1745 48.423C32.2048 48.4813 32.3556 48.5125 32.4669 48.5356C32.5246 48.5475 32.572 48.5573 32.5864 48.5675C32.5822 48.5769 32.5772 48.5864 32.5717 48.5957C32.5606 48.6042 32.5492 48.613 32.5528 48.6213C32.5531 48.6219 32.5538 48.6225 32.5541 48.6232C32.5175 48.6752 32.4657 48.7264 32.4139 48.7772C32.2978 48.8914 32.1828 49.0042 32.2476 49.1234C32.2616 49.1491 32.3239 49.1753 32.3871 49.2019C32.4646 49.2346 32.5439 49.268 32.5382 49.302C32.5246 49.383 32.4219 49.4648 32.3207 49.5453C32.1685 49.6665 32.0199 49.7849 32.183 49.8938C32.2369 49.9297 32.3266 49.9648 32.417 50C32.4674 50.0196 32.5182 50.0392 32.5626 50.0591C32.4801 50.0549 32.4027 50.0527 32.3305 50.0506C32.1816 50.0463 32.0542 50.0425 31.946 50.0235C31.6903 49.9784 31.3382 49.9273 31.0815 49.9329C31.0118 49.9345 30.9342 49.9332 30.856 49.9319C30.66 49.9285 30.4598 49.925 30.3692 49.9669C30.3082 49.9951 30.1681 50.0676 30.3181 50.1137C30.3507 50.1238 30.4155 50.1299 30.4874 50.1367C30.6167 50.1489 30.7698 50.1635 30.8055 50.2072C30.8115 50.2145 30.8169 50.2225 30.8219 50.2308C30.842 50.2638 30.8642 50.3007 30.9682 50.3145C31.0879 50.3304 31.225 50.327 31.3849 50.3231C31.5931 50.3179 31.8404 50.3118 32.1385 50.346C32.1975 50.3528 32.2177 50.3658 32.233 50.3755C32.2438 50.3824 32.2524 50.3877 32.2701 50.3882C32.2905 50.3888 32.3329 50.3866 32.3865 50.3838C32.5757 50.3739 32.9062 50.3568 32.9202 50.4284C32.924 50.4478 32.9083 50.4699 32.894 50.4898C32.8731 50.5191 32.8558 50.5434 32.9099 50.5467C32.9304 50.5479 32.9526 50.5488 32.9757 50.5495C32.9692 50.5728 32.9627 50.5961 32.9562 50.6195C32.8917 50.6494 32.8972 50.6914 32.9044 50.7438C32.9061 50.7565 32.9077 50.7699 32.9087 50.7838C32.8953 50.8298 32.882 50.8759 32.8684 50.9219C32.8411 50.9584 32.7966 50.9972 32.7259 51.0382C32.5842 51.1203 32.3506 51.1917 32.1221 51.2615C32.0258 51.2909 31.9303 51.3201 31.8431 51.3497C31.8323 51.3381 31.8197 51.3277 31.8022 51.3197C31.6829 51.265 31.4481 51.243 31.232 51.2228C31.0882 51.2094 30.9526 51.1967 30.8652 51.1757C30.7049 51.1372 30.5176 51.1411 30.379 51.1439C30.3071 51.1454 30.2482 51.1465 30.2133 51.1414C30.1853 51.1372 30.1721 51.1277 30.1584 51.1179C30.1465 51.1093 30.1341 51.1004 30.1115 51.0948C29.8372 51.026 29.678 51.0467 29.4462 51.0768C29.3184 51.0933 29.1684 51.1127 28.9649 51.1216C28.7494 51.1292 28.6864 51.1267 28.6005 51.0906C28.4941 51.1187 28.3877 51.1468 28.2813 51.1749C28.2882 51.1859 28.3547 51.1943 28.4653 51.206C28.6627 51.227 28.7349 51.2952 28.7912 51.3486C28.8174 51.3733 28.8402 51.3948 28.8705 51.4069C29.0314 51.4715 29.2556 51.4527 29.4529 51.4362C29.5615 51.4271 29.662 51.4187 29.7393 51.4252C29.7723 51.428 29.8051 51.424 29.8386 51.42C29.8644 51.4169 29.8907 51.4137 29.9178 51.4136C30.1142 51.4128 30.26 51.4509 30.3954 51.4864C30.473 51.5067 30.5474 51.526 30.6257 51.5367C30.6496 51.54 30.674 51.5426 30.6976 51.545C30.7322 51.5485 30.7651 51.552 30.7933 51.5574C30.8575 51.5697 30.9008 51.5951 30.948 51.623C30.9722 51.6372 30.9975 51.6521 31.0272 51.6662C31.0658 51.6845 31.1435 51.691 31.2247 51.698C31.282 51.7029 31.3411 51.708 31.3898 51.7175C31.4778 51.7346 31.5095 51.7691 31.539 51.8012C31.5519 51.8152 31.5646 51.8287 31.5811 51.84C31.5878 51.8447 31.6011 51.8469 31.6195 51.8474C31.6809 51.9 31.7438 51.9503 31.8053 51.9992C32.1137 52.2444 32.3811 52.4567 32.1873 52.7737C32.1506 52.8336 32.158 52.898 32.1873 52.963C32.1102 53.1711 32.0307 53.3792 31.9491 53.5872C31.7721 53.6284 31.6234 53.6787 31.5067 53.7383C31.2877 53.8503 31.2409 53.9655 31.1857 54.1014C31.1448 54.2018 31.0992 54.3137 30.9761 54.444C30.7692 54.6629 30.5942 54.8877 30.5033 55.1413C30.4127 55.3938 30.346 55.683 30.3223 55.8875C30.3094 55.999 30.1511 56.1162 30.0037 56.2253C29.7964 56.3789 29.6106 56.5166 29.88 56.6008C29.9661 56.6276 30.1156 56.6536 30.2608 56.6789C30.3642 56.6969 30.4652 56.7146 30.5404 56.732C30.5171 56.7783 30.494 56.8247 30.4704 56.871C30.2908 56.9533 30.0984 57.0812 30.2986 57.2049C30.2738 57.2527 30.2492 57.3005 30.2242 57.3467C30.172 57.4475 30.1191 57.546 30.0658 57.6455C30.0482 57.678 30.0306 57.7108 30.0128 57.7436C30.0126 57.7439 30.0124 57.7443 30.0122 57.7446C29.9765 57.8107 29.9406 57.8774 29.9044 57.943C29.8889 57.9711 29.8735 57.9991 29.8581 58.0272C29.8189 58.0986 29.7796 58.1705 29.7399 58.2411C29.7188 58.2785 29.6978 58.3162 29.6765 58.3541C29.642 58.4154 29.6073 58.4772 29.5723 58.5387C29.5158 58.6382 29.4587 58.7371 29.4011 58.8363C29.3916 58.8525 29.3617 58.8681 29.3164 58.8796C29.2711 58.891 29.2142 58.8975 29.1556 58.8975C29.097 58.8974 29.0399 58.8909 28.9947 58.8794C28.9497 58.868 28.9205 58.8524 28.9113 58.8362C28.8553 58.7369 28.7999 58.6378 28.7449 58.5383C28.711 58.4768 28.6767 58.415 28.6432 58.3537C28.6225 58.3158 28.6022 58.2781 28.5817 58.2407C28.5431 58.1701 28.5045 58.0981 28.4665 58.0267C28.4515 57.9986 28.4365 57.9705 28.4214 57.9424C28.3862 57.8767 28.3514 57.8098 28.3166 57.7435C28.3164 57.7431 28.3162 57.7427 28.316 57.7423C28.2989 57.7097 28.2818 57.6771 28.2648 57.6448C28.2132 57.5453 28.1619 57.4467 28.1113 57.3459C28.084 57.2938 28.0573 57.2395 28.0303 57.1857C28.0152 57.1557 28.0001 57.1258 27.9852 57.0964C27.9772 57.0803 27.9694 57.064 27.9614 57.0476C27.7741 56.6718 27.5939 56.2986 27.421 55.922C27.2481 55.5467 27.0824 55.1708 26.9232 54.796C26.7641 54.4204 26.6118 54.0453 26.4657 53.67C25.5379 51.2879 24.7771 48.8964 24.301 46.5038C24.2326 46.1625 24.171 45.8123 24.1158 45.4704C24.0605 45.1247 24.0115 44.7861 23.9695 44.4395C23.9564 44.3342 23.9442 44.2263 23.9324 44.1156Z" fill="black"/>
<path d="M12.2893 31.5895C12.7636 30.9768 13.9392 31.1062 14.4859 30.5621C15.1646 29.8866 15.229 28.5752 16.0238 28.0126C16.8147 27.454 17.6596 26.9427 18.5411 26.4724C19.4234 26.0014 20.3434 25.5702 21.2911 25.1639C22.2374 24.7591 23.2113 24.379 24.199 24.0146C24.8699 23.767 25.5481 23.5258 26.2285 23.2879C26.527 23.1833 26.8254 23.0797 27.1246 22.976C27.348 22.8988 27.5714 22.8216 27.7948 22.7444C27.826 22.7338 27.8878 22.7556 27.9689 22.8072C28.0502 22.8589 28.1436 22.9357 28.2315 23.0236C28.3195 23.1117 28.3964 23.2053 28.4478 23.2864C28.4991 23.3672 28.5203 23.4285 28.5093 23.4593C28.4285 23.6817 28.3477 23.9041 28.267 24.1264C28.1771 24.3733 28.0878 24.62 27.9975 24.8663C27.61 24.5319 27.2999 24.2945 27.1108 24.2417C27.0144 24.2148 26.938 24.2399 26.9677 24.3443C26.9945 24.4381 27.0766 24.5708 27.1551 24.6972C27.2371 24.8294 27.315 24.9549 27.3202 25.0215C27.3292 25.1345 27.433 25.3371 27.5421 25.55C27.5818 25.6275 27.6223 25.7065 27.6591 25.7829C27.5718 26.0169 27.484 26.2504 27.3955 26.4833C27.295 26.5069 27.2069 26.5329 27.1733 26.5961C27.1432 26.6528 27.1797 26.7688 27.2349 26.9032C27.2211 26.9392 27.2073 26.9751 27.1935 27.011C27.1041 27.2426 27.0134 27.473 26.9221 27.7029C26.7005 27.7319 26.4756 27.7697 26.2638 27.8993C26.1726 27.9552 26.0479 27.9757 25.9281 27.9955C25.7512 28.0248 25.5848 28.0524 25.5517 28.1893C25.5295 28.2808 25.4187 28.2896 25.3082 28.2983C25.16 28.3101 25.0121 28.3218 25.0786 28.5331C25.1205 28.6659 25.1849 28.814 25.2447 28.9512C25.3399 29.1695 25.4232 29.3604 25.3839 29.4186C25.3101 29.5278 25.345 29.7213 25.3759 29.8919C25.413 30.097 25.4442 30.2692 25.2728 30.2216C25.2468 30.2143 25.214 30.203 25.1769 30.19C24.9809 30.1215 24.6675 30.0119 24.6375 30.2744C24.6268 30.3679 24.6855 30.5244 24.7432 30.6779C24.8272 30.9014 24.9087 31.1183 24.7698 31.1244C24.749 31.1253 24.696 31.095 24.6477 31.0673C24.5862 31.032 24.5326 31.0012 24.5625 31.0447C24.6504 31.1723 24.7378 31.3229 24.8331 31.4867C24.9031 31.6071 24.9773 31.7346 25.0586 31.8652C24.9306 32.1129 24.8 32.3582 24.6662 32.6005C24.605 32.7115 24.5431 32.822 24.4806 32.9318C24.2744 32.8137 24.0832 32.7127 23.9251 32.6498C23.7184 32.5676 23.5935 32.604 23.4322 32.6507C23.3135 32.685 23.175 32.7249 22.9701 32.7276C22.591 32.7326 22.4356 32.9719 22.4095 33.1986C22.4039 33.2466 22.3997 33.2961 22.3956 33.3495C22.38 33.552 22.3609 33.8051 22.2314 34.1927C22.109 34.5592 21.9327 34.7988 21.8002 34.9788C21.7326 35.0707 21.6761 35.1468 21.6443 35.2166C21.59 35.336 21.5123 35.4717 21.4341 35.6078C21.3118 35.8207 21.1885 36.0348 21.1535 36.1908C21.1411 36.2463 21.1321 36.3086 21.122 36.3756C21.0942 36.5613 21.0605 36.7855 20.9378 37.0183C20.809 37.2626 20.654 37.3389 20.4483 37.3734C20.3646 37.3874 20.184 37.2929 19.9975 37.1952C19.7328 37.0564 19.4566 36.9116 19.4306 37.0633C19.4245 37.0987 19.4351 37.1536 19.4464 37.2112C19.4671 37.3169 19.4896 37.4314 19.4124 37.4485C19.3855 37.4544 19.3337 37.4315 19.2829 37.4091C19.2271 37.3844 19.1724 37.3604 19.1528 37.3755C19.0799 37.432 19.0263 37.5043 18.9786 37.5687C18.9172 37.6516 18.8657 37.7211 18.7955 37.726C18.6703 37.7347 18.6492 37.86 18.6281 37.9872C18.612 38.0844 18.5961 38.1828 18.533 38.2305C18.3529 38.3669 18.2346 38.6838 18.1759 39.0736C18.1536 39.2211 17.9963 39.2075 17.7944 39.1898C17.6688 39.1788 17.5257 39.1659 17.3877 39.1898C17.3094 39.2033 17.3467 39.3183 17.3811 39.4247C17.4128 39.5227 17.442 39.6133 17.3766 39.611C17.3188 39.6089 17.1732 39.4985 17.0348 39.3935C16.8809 39.2768 16.7361 39.167 16.7316 39.2211C16.7293 39.2499 16.7744 39.3329 16.828 39.4315C16.8492 39.4705 16.8715 39.5119 16.893 39.5535C16.8675 39.527 16.8444 39.5037 16.8268 39.4861C16.7026 39.3618 16.6073 39.3263 16.5139 39.2915C16.4766 39.2776 16.4397 39.264 16.4013 39.2447C16.2599 39.1738 16.1759 39.2233 16.1299 39.2792C16.1104 39.3028 16.0523 39.2838 15.9845 39.2617C15.9244 39.242 15.8565 39.2198 15.8012 39.2227C15.7697 39.2244 15.7209 39.2011 15.6803 39.1816C15.6509 39.1675 15.6258 39.1554 15.6149 39.1565C15.6055 39.1576 15.6369 39.1974 15.6723 39.2422C15.6977 39.2745 15.7253 39.3095 15.7412 39.3344C15.7791 39.3941 15.7798 39.4228 15.7544 39.4169C15.7426 39.4142 15.7252 39.4039 15.7078 39.3936C15.6876 39.3817 15.6673 39.3696 15.656 39.3697C15.604 39.3697 15.6194 39.4356 15.6353 39.5041C15.6527 39.5794 15.6708 39.6577 15.6013 39.6553C15.5794 39.6545 15.5422 39.6398 15.5061 39.6255C15.4684 39.6105 15.4318 39.5962 15.4156 39.5988C15.3499 39.6095 15.4028 39.7343 15.4515 39.8491C15.4838 39.9254 15.5142 39.9972 15.5066 40.0282C15.4928 40.0849 15.5805 40.2105 15.6452 40.3032C15.6788 40.3513 15.7064 40.3907 15.7103 40.407C15.7017 40.4097 15.6924 40.412 15.6829 40.4137C15.6699 40.4111 15.6564 40.4083 15.654 40.4159C15.6538 40.4165 15.6539 40.4173 15.6537 40.4179C15.5963 40.4236 15.5287 40.418 15.4613 40.4122C15.3099 40.3993 15.1603 40.3863 15.1338 40.5044C15.1281 40.5299 15.1563 40.5898 15.1849 40.6507C15.2199 40.7253 15.2558 40.8016 15.2311 40.8181C15.1724 40.8576 15.0502 40.8346 14.9298 40.8118C14.7487 40.7777 14.5719 40.7443 14.6212 40.9257C14.6376 40.9855 14.6797 41.0702 14.7223 41.1555C14.7461 41.203 14.7701 41.2508 14.7895 41.2943C14.7337 41.2334 14.6803 41.1773 14.6305 41.1249C14.5279 41.0171 14.44 40.9248 14.3751 40.8367C14.2216 40.6285 14.0036 40.3486 13.8186 40.1705C13.7684 40.1221 13.7143 40.0665 13.6599 40.0104C13.5233 39.8697 13.3839 39.7261 13.2944 39.6874C13.2342 39.6614 13.0912 39.6063 13.1692 39.7402C13.1863 39.7694 13.2283 39.8189 13.2751 39.8739C13.3591 39.9728 13.4585 40.0898 13.4573 40.1415C13.457 40.1502 13.456 40.1589 13.4546 40.1675C13.4488 40.2017 13.4421 40.2398 13.5072 40.3216C13.5822 40.4159 13.6813 40.5108 13.7967 40.6215C13.9471 40.7656 14.1257 40.9368 14.3157 41.1683C14.3533 41.2141 14.3597 41.2362 14.3646 41.253C14.3681 41.2648 14.371 41.2741 14.3832 41.2869C14.3972 41.3017 14.4285 41.3303 14.4682 41.3666C14.6079 41.4943 14.852 41.7177 14.8185 41.771C14.8094 41.7854 14.7849 41.7877 14.7628 41.7897C14.7302 41.7926 14.7032 41.7951 14.7395 41.8354C14.7533 41.8506 14.7685 41.8669 14.7843 41.8836C14.7656 41.8931 14.7469 41.9027 14.7281 41.9122C14.6644 41.8847 14.6429 41.9141 14.6162 41.9509C14.6097 41.9599 14.6027 41.9691 14.5949 41.9782C14.5576 41.9967 14.5203 42.0152 14.4828 42.0335C14.4414 42.0362 14.3863 42.0283 14.3115 42.0031C14.1616 41.9527 13.9531 41.8308 13.7492 41.7116C13.6633 41.6613 13.5781 41.6114 13.4985 41.5677C13.4979 41.5531 13.4952 41.5379 13.4877 41.5207C13.4365 41.4031 13.2838 41.2238 13.1433 41.0587C13.0497 40.9489 12.9616 40.8453 12.9125 40.7708C12.8225 40.6342 12.6876 40.504 12.5879 40.4077C12.5362 40.3578 12.4939 40.3168 12.4723 40.289C12.455 40.2667 12.4514 40.2516 12.4478 40.236C12.4445 40.2224 12.4411 40.2082 12.4286 40.1888C12.2763 39.9531 12.1512 39.8531 11.9691 39.7074C11.8686 39.6271 11.7508 39.5328 11.6015 39.3943C11.4445 39.2465 11.4015 39.2004 11.3627 39.1179C11.2704 39.0597 11.1781 39.0014 11.0859 38.9432C11.0841 38.9548 11.1261 39.0069 11.1971 39.0922C11.324 39.2445 11.3336 39.3369 11.3412 39.4091C11.3447 39.4425 11.3478 39.4717 11.3618 39.5004C11.4365 39.6534 11.6064 39.8005 11.756 39.93C11.8383 40.0013 11.9144 40.0673 11.9651 40.1259C11.9868 40.1509 12.0124 40.1717 12.0385 40.1929C12.0586 40.2093 12.0791 40.226 12.0983 40.2451C12.2378 40.3834 12.3177 40.5097 12.392 40.6269C12.4345 40.694 12.4754 40.7584 12.5243 40.8203C12.5393 40.8391 12.5549 40.8579 12.5702 40.8761C12.5924 40.9027 12.6136 40.9281 12.6303 40.9513C12.6682 41.0042 12.6835 41.0502 12.7 41.1004C12.7084 41.1262 12.7173 41.1531 12.7298 41.1827C12.7459 41.221 12.7969 41.2799 12.8501 41.3415C12.8877 41.385 12.9263 41.4299 12.955 41.4701C13.0069 41.5427 13.0084 41.5861 13.0098 41.6264C13.0104 41.6439 13.0113 41.6611 13.016 41.6796C13.0179 41.6872 13.026 41.698 13.0387 41.7112C13.0503 41.7866 13.0642 41.8615 13.0781 41.9346C13.1475 42.3014 13.208 42.6191 12.8788 42.6742C12.8165 42.6846 12.7827 42.7288 12.764 42.7889C12.5835 42.8605 12.401 42.9304 12.2173 42.9988C12.0672 42.8986 11.9315 42.824 11.8129 42.7776C11.5902 42.6906 11.4873 42.7273 11.3658 42.7706C11.2761 42.8026 11.176 42.8381 11.01 42.8301C10.731 42.8165 10.4711 42.829 10.253 42.9184C10.036 43.0074 9.81352 43.1355 9.6728 43.2427C9.59608 43.3012 9.41313 43.2602 9.24276 43.2221C9.00311 43.1686 8.78823 43.1207 8.92775 43.3622C8.97235 43.4394 9.0623 43.5608 9.14967 43.6788C9.21189 43.7629 9.27255 43.845 9.31521 43.9088C9.27063 43.9203 9.22619 43.9321 9.18142 43.9435C9.00458 43.8664 8.79093 43.8078 8.85755 44.0244C8.81109 44.0358 8.76469 44.0474 8.71905 44.0577C8.62105 44.0819 8.5239 44.1042 8.42594 44.1268C8.3938 44.1341 8.36145 44.1415 8.32898 44.1488C8.32865 44.1489 8.32831 44.1489 8.32798 44.149C8.26263 44.1638 8.1968 44.1788 8.13148 44.193C8.10354 44.1991 8.07561 44.2052 8.04767 44.2113C7.97672 44.2268 7.90536 44.2426 7.83446 44.2573C7.79686 44.2651 7.75916 44.2731 7.72119 44.281C7.6596 44.2938 7.59759 44.3067 7.53561 44.3192C7.43539 44.3396 7.335 44.3592 7.23418 44.3786C7.21761 44.3817 7.18704 44.37 7.14808 44.3449C7.10906 44.3198 7.06493 44.2835 7.0235 44.242C6.98205 44.2005 6.94569 44.1563 6.92069 44.1173C6.8958 44.0785 6.88462 44.0485 6.88788 44.0321C6.90843 43.9323 6.92932 43.8331 6.95081 43.734C6.96408 43.6727 6.9773 43.611 6.99078 43.5501C6.99908 43.5125 7.00757 43.4753 7.01572 43.4381C7.03126 43.368 7.04764 43.2971 7.06402 43.227C7.07041 43.1993 7.0768 43.1717 7.0832 43.144C7.09814 43.0793 7.11402 43.0141 7.12967 42.9494C7.12977 42.949 7.12987 42.9486 7.12997 42.9482C7.13767 42.9163 7.14532 42.8845 7.15285 42.8529C7.17661 42.7561 7.20018 42.6601 7.22547 42.5632C7.23771 42.5123 7.25172 42.4605 7.26528 42.4088C7.27283 42.38 7.28029 42.3512 7.28753 42.3228C7.29165 42.3074 7.29595 42.292 7.30027 42.2764C7.3956 41.9162 7.49434 41.5626 7.60039 41.2121C7.70558 40.8624 7.8162 40.5174 7.93082 40.1777C8.04598 39.8374 8.1656 39.5024 8.28977 39.1716C9.07744 37.0718 9.989 35.0844 11.1025 33.2976C11.261 33.0424 11.4296 32.7866 11.5978 32.5403C11.7683 32.2917 11.9388 32.0518 12.1192 31.8121C12.1738 31.739 12.2305 31.6649 12.2893 31.5895Z" fill="black"/>
</svg>
