<svg width="34" height="67" viewBox="0 0 34 67" fill="none" xmlns="http://www.w3.org/2000/svg">
<path d="M6.00429 8.92336C5.58236 7.85267 5.84305 6.714 5.98666 5.6746C5.9898 5.6515 5.99295 5.62837 5.99612 5.60521C6.15922 4.33326 6.46316 2.86815 7.45696 1.87916C8.4411 0.895541 9.7355 0.255218 11.067 0.064888C11.8981 -0.0565615 12.7403 -0.00493889 13.5202 0.198299C13.99 0.320126 14.4425 0.496579 14.8628 0.721298C15.9822 1.31685 16.8549 2.25659 17.3582 3.30979C17.7025 4.02493 17.8823 4.79293 17.8986 5.53848C17.9061 5.86575 17.8827 6.18826 17.8309 6.50126C17.7921 6.73431 17.7376 6.96349 17.669 7.18369C17.6594 7.21442 17.6319 7.2415 17.5917 7.25826C17.5514 7.27505 17.502 7.28025 17.4528 7.27304C17.4035 7.26581 17.3575 7.24679 17.3233 7.2208C17.2892 7.1948 17.2698 7.16395 17.2677 7.13431C17.2536 6.91996 17.225 6.70792 17.1823 6.50295C17.1351 6.2747 17.0707 6.05373 16.9912 5.8421C17.1869 5.7746 17.3313 5.69685 17.3787 5.58652C17.4029 5.53042 17.4007 5.45398 17.351 5.41038C17.3063 5.37119 17.2384 5.35148 17.1737 5.33394C17.106 5.31562 17.0418 5.29983 17.0105 5.26557C16.9574 5.20735 16.8543 5.16973 16.7462 5.13579C16.7068 5.1234 16.6667 5.1114 16.6281 5.09875C16.5191 4.92105 16.3987 4.75395 16.2688 4.5983C16.2518 4.52049 16.2313 4.44972 16.193 4.4024C16.1587 4.35991 16.0956 4.34076 16.0245 4.32985C16.0027 4.30797 15.9808 4.28639 15.9586 4.26509C15.8159 4.12758 15.6655 4.00213 15.5092 3.88962C15.45 3.7448 15.3752 3.59442 15.2326 3.44261C15.1711 3.37737 15.1204 3.29968 15.0681 3.22568C14.9916 3.11672 14.9111 3.01572 14.8053 2.98485C14.7348 2.96432 14.6862 2.90245 14.634 2.84104C14.5651 2.75916 14.4887 2.67791 14.3731 2.71121C14.3006 2.7322 14.2292 2.76669 14.1647 2.80018C14.0621 2.85355 13.9768 2.90409 13.922 2.89001C13.8191 2.86367 13.7115 2.89805 13.6215 2.93193C13.5119 2.97239 13.4265 3.01136 13.3729 2.93651C13.3647 2.92516 13.3556 2.91049 13.3452 2.89389C13.3069 2.83257 13.2494 2.74545 13.1539 2.71426C13.1136 2.70107 13.0671 2.69814 13.0151 2.71212C12.9531 2.72885 12.8915 2.78465 12.8347 2.84075C12.7517 2.92245 12.6785 3.00428 12.602 2.96636C12.5906 2.96069 12.5785 2.93714 12.5673 2.91569C12.5531 2.88841 12.54 2.86469 12.533 2.88557C12.5121 2.9468 12.4799 3.01486 12.4477 3.08952C12.424 3.14435 12.4005 3.20274 12.3801 3.26406C12.1991 3.30939 12.0248 3.36834 11.8585 3.43904C11.7825 3.47141 11.7077 3.50636 11.635 3.54355C11.5678 3.46868 11.4991 3.40465 11.4327 3.36228C11.3456 3.30708 11.2578 3.3139 11.145 3.32896C11.0618 3.34021 10.965 3.35582 10.8391 3.35965C10.604 3.36685 10.4289 3.51598 10.3554 3.64481C10.3395 3.67211 10.3244 3.70023 10.3089 3.73058C10.2514 3.84615 10.1801 3.98876 10.0532 4.23207C9.93502 4.46241 9.83205 4.63997 9.76049 4.77808C9.72407 4.84857 9.69644 4.90778 9.68165 4.95672C9.65644 5.04016 9.62412 5.14038 9.59752 5.24157C9.55513 5.39993 9.52839 5.56146 9.5361 5.65768C9.53875 5.69182 9.54424 5.72817 9.55075 5.76711C9.56771 5.86717 9.59182 5.98293 9.60228 6.13018C9.6031 6.14164 9.60385 6.15326 9.60452 6.16505C9.61524 6.33593 9.58933 6.43424 9.53928 6.54278C9.5192 6.58642 9.44184 6.62638 9.36277 6.67136C9.25062 6.73425 9.13521 6.8104 9.17915 6.89731C9.18941 6.91739 9.21018 6.93761 9.23218 6.95842C9.27261 6.99673 9.31696 7.03558 9.3073 7.08357C9.30394 7.1004 9.28542 7.1179 9.26739 7.13533C9.24755 7.15448 9.22833 7.17363 9.2303 7.19107C9.23765 7.25607 9.25644 7.31744 9.27437 7.37107C9.29743 7.4402 9.31904 7.49733 9.31215 7.53888C9.29986 7.6132 9.35167 7.67622 9.40548 7.73532C9.44671 7.78093 9.48926 7.82474 9.50681 7.87691C9.5565 8.02664 9.707 8.19979 9.90335 8.32708C9.97738 8.37512 9.97587 8.4571 9.98131 8.56664C9.98471 8.63453 9.99072 8.71294 10.0199 8.79605C10.0365 8.84324 10.0954 8.84402 10.1487 8.84294C10.198 8.8421 10.2429 8.83994 10.2508 8.87526C10.2577 8.90646 10.2189 8.96994 10.183 9.03108C10.143 9.09901 10.1066 9.16407 10.1389 9.1753C10.1561 9.18122 10.1956 9.16847 10.2418 9.15239C10.2601 9.14602 10.2795 9.13922 10.299 9.13278C10.2888 9.14337 10.2799 9.15306 10.2733 9.16046C10.2263 9.21269 10.225 9.26129 10.2251 9.30932C10.2252 9.32849 10.2255 9.34754 10.2228 9.36672C10.2131 9.4374 10.2645 9.49218 10.3109 9.52434C10.3305 9.538 10.3345 9.5684 10.3398 9.60404C10.3445 9.63565 10.3503 9.67149 10.3687 9.70276C10.3792 9.72058 10.3795 9.7456 10.3798 9.7665C10.38 9.78163 10.3802 9.79456 10.3844 9.80079C10.3881 9.80617 10.4035 9.79229 10.4207 9.77655C10.4331 9.76523 10.4465 9.75294 10.4572 9.74623C10.4829 9.7302 10.5004 9.73188 10.5047 9.74534C10.5067 9.75156 10.5058 9.76032 10.5049 9.76905C10.5038 9.77921 10.5028 9.78943 10.5064 9.79562C10.5233 9.82403 10.5602 9.82013 10.5979 9.81532C10.6396 9.81014 10.6819 9.80368 10.7041 9.84C10.7111 9.85144 10.7147 9.87043 10.7184 9.88888C10.7223 9.90818 10.7263 9.92689 10.7338 9.93544C10.7646 9.97023 10.8245 9.94504 10.8782 9.92057C10.914 9.90434 10.9472 9.88856 10.9691 9.89184C11.0093 9.89795 11.0534 9.85188 11.0855 9.81768C11.1022 9.79995 11.1157 9.78529 11.1239 9.78275C11.1286 9.78674 11.1333 9.79103 11.1377 9.79543C11.1409 9.8017 11.1441 9.80817 11.1495 9.80897C11.1499 9.80903 11.1504 9.80895 11.1508 9.809C11.175 9.83577 11.1972 9.86779 11.2195 9.89932C11.2695 9.97009 11.3248 10.0401 11.4073 10.0407C11.4251 10.0409 11.4494 10.0226 11.4736 10.0039C11.5033 9.98092 11.5331 9.95704 11.5532 9.96552C11.6007 9.98567 11.6398 10.0393 11.6811 10.0917C11.7421 10.1703 11.8096 10.2461 11.8936 10.1957C11.9211 10.1791 11.9503 10.1479 11.979 10.1161C11.995 10.0984 12.0109 10.0805 12.0263 10.065C12.0184 10.0971 12.0119 10.1275 12.0059 10.1558C11.9935 10.214 11.9829 10.264 11.9629 10.3045C11.9158 10.4004 11.854 10.5321 11.8392 10.6338C11.8353 10.6615 11.8287 10.6918 11.822 10.7224C11.8053 10.799 11.7876 10.8773 11.814 10.9188C11.8314 10.9468 11.8805 11.0119 11.9264 10.9581C11.9363 10.9464 11.945 10.9215 11.9545 10.8938C11.9591 10.8805 11.9639 10.8666 11.9691 10.8532C11.9834 10.8161 12.001 10.7826 12.0268 10.7755C12.0327 10.7739 12.0391 10.7726 12.0456 10.7714C12.0717 10.7667 12.1007 10.7612 12.1158 10.7211C12.1332 10.6749 12.1367 10.6201 12.1411 10.5562C12.1467 10.473 12.1545 10.3744 12.1905 10.2584C12.1976 10.2355 12.207 10.2283 12.214 10.2229C12.219 10.2191 12.2228 10.216 12.2239 10.209C12.2251 10.2009 12.2254 10.1839 12.2258 10.1624C12.227 10.0864 12.2309 9.95407 12.2748 9.95274C12.2868 9.95237 12.2999 9.95986 12.3116 9.96656C12.3289 9.97643 12.3435 9.98443 12.3471 9.963C12.3484 9.95487 12.3496 9.94604 12.3507 9.93688C12.3647 9.94051 12.3787 9.94406 12.3927 9.94752C12.4094 9.97437 12.4351 9.9736 12.4675 9.97198C12.4753 9.97159 12.4835 9.97124 12.4921 9.97114C12.5202 9.97737 12.5483 9.98321 12.5765 9.98884C12.5988 9.99993 12.6225 10.0177 12.6486 10.0456C12.7007 10.1015 12.7495 10.1932 12.8009 10.282C12.8225 10.3194 12.8448 10.3563 12.8675 10.3897C12.8599 10.3945 12.8531 10.4 12.848 10.4073C12.8133 10.4574 12.8027 10.5519 12.7921 10.6389C12.785 10.6969 12.7779 10.7515 12.7634 10.787C12.7367 10.8522 12.7417 10.9269 12.7458 10.9823C12.7479 11.011 12.7497 11.0345 12.746 11.0486C12.743 11.0599 12.7355 11.0654 12.7277 11.0711C12.7209 11.076 12.7139 11.0812 12.7095 11.0903C12.6558 11.2013 12.6723 11.2646 12.7004 11.3568C12.7158 11.4076 12.7343 11.4671 12.7447 11.5482C12.754 11.6342 12.7528 11.6595 12.7204 11.6947C12.7473 11.7366 12.7748 11.7783 12.8029 11.8198C12.8132 11.8167 12.82 11.7897 12.8289 11.7451C12.845 11.6654 12.9054 11.6334 12.9523 11.6074C12.974 11.5954 12.9927 11.5848 13.0026 11.5719C13.0552 11.5028 13.0296 11.4149 13.0089 11.3375C12.9973 11.2949 12.987 11.2555 12.9899 11.2242C12.9911 11.2108 12.9867 11.198 12.9822 11.185C12.9788 11.1749 12.9753 11.1646 12.9743 11.1538C12.9673 11.0756 12.9934 11.0149 13.016 10.9583C13.029 10.9259 13.041 10.8948 13.046 10.8628C13.0475 10.853 13.0484 10.8431 13.0493 10.8335C13.0506 10.8195 13.0518 10.8061 13.0547 10.7944C13.0613 10.7679 13.0785 10.7485 13.097 10.7273C13.1065 10.7164 13.1164 10.705 13.1253 10.6919C13.1368 10.6748 13.1376 10.6434 13.1383 10.6105C13.1388 10.5873 13.1393 10.5634 13.1434 10.5432C13.1508 10.5066 13.1733 10.4906 13.1939 10.4755C13.2028 10.4689 13.2114 10.4624 13.2184 10.4546C13.2212 10.4515 13.2219 10.4459 13.221 10.4387C13.2537 10.4085 13.2838 10.3776 13.3123 10.3471C13.4563 10.1932 13.5568 10.059 13.7791 10.0664C13.8215 10.0675 13.8609 10.0503 13.8972 10.024C14.0371 10.004 14.178 9.97642 14.319 9.9408C14.3763 9.99101 14.4352 10.0273 14.4949 10.0478C14.6073 10.0861 14.6906 10.0594 14.7867 10.0246C14.858 9.99867 14.9365 9.96832 15.0446 9.95089C15.2261 9.92143 15.4072 9.86556 15.5778 9.75623C15.7479 9.64802 15.9236 9.49592 16.0337 9.37506C16.0938 9.30986 16.201 9.27442 16.3012 9.23624C16.4419 9.18316 16.5692 9.12338 16.5147 9.00689C16.4973 8.96975 16.4575 8.92025 16.4182 8.87293C16.3903 8.83922 16.3627 8.80651 16.3437 8.77953C16.3701 8.7532 16.3962 8.72631 16.4222 8.69906C16.5163 8.67803 16.634 8.62062 16.605 8.49584C16.6304 8.46576 16.6554 8.43529 16.6798 8.40553C16.7321 8.34016 16.7823 8.27471 16.8314 8.20678C16.8475 8.18461 16.8636 8.16198 16.8795 8.13905C16.8797 8.13884 16.8798 8.13863 16.88 8.13841C16.912 8.09236 16.9434 8.04547 16.974 7.99828C16.9871 7.97808 17 7.95771 17.0128 7.93717C17.0453 7.88518 17.0769 7.83213 17.1076 7.77881C17.1239 7.75069 17.14 7.72159 17.1558 7.6929C17.1816 7.64612 17.2068 7.59817 17.2313 7.54968C17.271 7.4708 17.3086 7.39255 17.3447 7.31096C17.3507 7.29766 17.3645 7.28608 17.3839 7.27883C17.4033 7.2716 17.4267 7.26923 17.4499 7.27262C17.4731 7.27601 17.4948 7.28503 17.5112 7.29789C17.5275 7.31073 17.5369 7.32638 17.5383 7.34139C17.5465 7.43349 17.5524 7.52448 17.555 7.6184C17.5567 7.67614 17.5575 7.73422 17.5571 7.79189C17.557 7.82729 17.5561 7.86337 17.5551 7.89881C17.5532 7.9659 17.5496 8.03397 17.5445 8.10192C17.5425 8.12875 17.5403 8.15558 17.5379 8.18241C17.5322 8.24527 17.5251 8.30876 17.5166 8.37227C17.5166 8.37265 17.5165 8.37303 17.5165 8.37342C17.5123 8.40471 17.5078 8.43595 17.5032 8.46684C17.4886 8.56201 17.4714 8.65645 17.4503 8.75279C17.4398 8.80275 17.4276 8.85416 17.4146 8.90567C17.4074 8.93432 17.4 8.96289 17.3926 8.99093C17.3884 9.00622 17.384 9.02168 17.3796 9.0372C17.2794 9.3946 17.138 9.74508 16.9537 10.0832C16.7703 10.4202 16.5457 10.7425 16.2853 11.0397C16.0242 11.3376 15.727 11.6107 15.3985 11.8514C14.377 12.607 13.0312 13.0339 11.6601 12.9756C10.2465 12.9275 8.79194 12.3512 7.68485 11.3436C7.37282 11.0623 7.0805 10.74 6.82727 10.3987C6.57144 10.0536 6.3522 9.68955 6.16641 9.29644C6.10997 9.17725 6.05568 9.05271 6.00429 8.92336Z" fill="black"/>
<path d="M0.00660558 28.1686C-0.0866978 27.3994 0.840412 26.6651 0.846688 25.8938C0.854571 24.9362 -0.0214909 23.9583 0.148321 22.9994C0.318141 22.0461 0.559606 21.0886 0.855986 20.1345C1.15238 19.1793 1.5036 18.2258 1.89204 17.2706C2.28047 16.3175 2.70602 15.3626 3.1523 14.409C3.45544 13.7614 3.76826 13.1131 4.08489 12.4655C4.22367 12.1813 4.36306 11.8979 4.50295 11.6138C4.60757 11.4018 4.71218 11.1899 4.81679 10.978C4.83154 10.9485 4.89083 10.9205 4.9848 10.9002C5.07892 10.8799 5.19935 10.8688 5.32373 10.8696C5.44819 10.8703 5.56874 10.8829 5.66228 10.9044C5.75557 10.9259 5.8137 10.9546 5.82754 10.9842C5.92641 11.1991 6.02528 11.4141 6.12414 11.629C6.23381 11.8677 6.34368 12.106 6.45262 12.3447C5.94194 12.3792 5.55446 12.4283 5.38291 12.5237C5.29541 12.5724 5.25872 12.6439 5.35326 12.6973C5.43821 12.7452 5.58996 12.7818 5.73458 12.8166C5.88584 12.8529 6.02945 12.8875 6.07998 12.9311C6.16579 13.0051 6.38211 13.0763 6.60937 13.151C6.69208 13.1782 6.77637 13.2059 6.85625 13.2344C6.95872 13.4622 7.06038 13.6901 7.16115 13.9178C7.10628 14.0053 7.06186 14.0857 7.08239 14.1543C7.10082 14.2158 7.20833 14.2726 7.34214 14.3294C7.35757 14.3647 7.373 14.3999 7.38843 14.4352C7.48758 14.6628 7.58511 14.8904 7.68177 15.1181C7.54454 15.2944 7.41116 15.4794 7.35168 15.7205C7.32603 15.8244 7.25178 15.9267 7.18052 16.0249C7.07526 16.1701 6.97633 16.3067 7.049 16.4274C7.09758 16.508 7.02494 16.5921 6.9525 16.676C6.85535 16.7886 6.75836 16.9009 6.95423 17.0044C7.07741 17.0695 7.22727 17.1294 7.36627 17.185C7.58742 17.2734 7.78086 17.3506 7.79382 17.4196C7.81813 17.5492 7.97895 17.6622 8.12083 17.7618C8.29147 17.8817 8.43464 17.9822 8.27928 18.0688C8.25572 18.0819 8.22442 18.0969 8.18884 18.1138C8.00131 18.2028 7.70137 18.3452 7.86458 18.553C7.92271 18.627 8.07448 18.697 8.22341 18.7656C8.44022 18.8655 8.65067 18.9625 8.55616 19.0646C8.54201 19.0798 8.48304 19.0955 8.42917 19.1097C8.36067 19.1278 8.30088 19.1437 8.35275 19.1536C8.50489 19.1826 8.67297 19.2282 8.85589 19.2777C8.99028 19.3141 9.13276 19.3527 9.28235 19.3883C9.36544 19.6546 9.44497 19.9208 9.52017 20.1872C9.55466 20.3092 9.58828 20.4312 9.621 20.5533C9.39132 20.6143 9.18436 20.6768 9.02767 20.7432C8.8229 20.83 8.75967 20.9438 8.67775 21.0903C8.61747 21.1982 8.54698 21.3239 8.40318 21.4698C8.13704 21.7399 8.19473 22.0193 8.33556 22.199C8.36534 22.237 8.39715 22.2752 8.43175 22.3161C8.56298 22.4711 8.72732 22.6645 8.90768 23.0311C9.07827 23.3779 9.12131 23.6723 9.15366 23.8934C9.17016 24.0063 9.18344 24.1001 9.20991 24.1721C9.25521 24.2952 9.29531 24.4464 9.33536 24.5981C9.39805 24.8355 9.46085 25.0744 9.54564 25.21C9.57583 25.2582 9.61323 25.3089 9.6532 25.3636C9.76393 25.5152 9.89755 25.6984 9.9739 25.9502C10.054 26.2145 9.99739 26.3777 9.87537 26.5469C9.82576 26.6156 9.63086 26.6754 9.42948 26.737C9.14373 26.8244 8.84549 26.9155 8.93358 27.0417C8.95415 27.0712 9.00033 27.1027 9.04879 27.1358C9.13781 27.1964 9.23433 27.262 9.19146 27.3284C9.1765 27.3515 9.12356 27.3717 9.07167 27.3914C9.01458 27.4132 8.95877 27.4345 8.95551 27.459C8.94341 27.5504 8.95605 27.6396 8.9674 27.7188C8.98204 27.821 8.9942 27.9067 8.94771 27.9595C8.86479 28.0537 8.93791 28.1576 9.01235 28.2629C9.06921 28.3433 9.12703 28.4246 9.11574 28.5028C9.08343 28.7264 9.22213 29.035 9.4544 29.3535C9.54222 29.474 9.42071 29.575 9.26469 29.7043C9.16765 29.7848 9.05685 29.8762 8.97544 29.9902C8.92932 30.0548 9.0367 30.1104 9.1359 30.1619C9.22729 30.2093 9.31179 30.2533 9.26366 30.2976C9.22111 30.3367 9.03988 30.3605 8.86774 30.3831C8.67618 30.4083 8.49601 30.432 8.53089 30.4736C8.54946 30.4958 8.63989 30.5231 8.74732 30.5556C8.7898 30.5684 8.83477 30.5822 8.87929 30.5966C8.84256 30.5957 8.80972 30.5953 8.78486 30.5952C8.60917 30.5941 8.5164 30.6358 8.42552 30.6767C8.38923 30.6931 8.3534 30.7094 8.31254 30.7227C8.16215 30.7716 8.13718 30.8658 8.14373 30.938C8.14645 30.9685 8.09182 30.9958 8.02805 31.0277C7.97144 31.056 7.90754 31.0879 7.87027 31.1289C7.84902 31.1522 7.79799 31.1699 7.7554 31.1846C7.72456 31.1952 7.69822 31.2042 7.69126 31.2127C7.68527 31.2201 7.7356 31.2263 7.79228 31.2333C7.83308 31.2384 7.87727 31.2439 7.90611 31.2505C7.97501 31.2663 7.99569 31.2861 7.97345 31.2999C7.96317 31.3062 7.94354 31.3111 7.92401 31.3161C7.90125 31.3218 7.87833 31.3275 7.87028 31.3354C7.83338 31.372 7.89061 31.4081 7.95006 31.4456C8.01539 31.4869 8.08327 31.5299 8.03215 31.577C8.01605 31.5919 7.97925 31.6076 7.94354 31.6228C7.90616 31.6387 7.87009 31.6541 7.86042 31.6674C7.8212 31.7212 7.94652 31.7728 8.0618 31.8202C8.13847 31.8517 8.21058 31.8815 8.22701 31.9088C8.257 31.9589 8.40766 31.9866 8.51888 32.007C8.57652 32.0176 8.62386 32.0262 8.63814 32.035C8.63389 32.043 8.62885 32.0512 8.62337 32.0591C8.61224 32.0663 8.60075 32.0738 8.60436 32.081C8.60463 32.0815 8.60528 32.082 8.60557 32.0826C8.56875 32.127 8.51664 32.1705 8.46467 32.2138C8.34793 32.311 8.23239 32.407 8.29661 32.5096C8.31045 32.5317 8.3726 32.5545 8.43573 32.5777C8.51309 32.6061 8.5922 32.6352 8.58633 32.6643C8.57232 32.7337 8.46921 32.8032 8.3676 32.8716C8.21479 32.9746 8.06556 33.0752 8.22817 33.1695C8.28184 33.2006 8.37135 33.2312 8.46159 33.2619C8.51187 33.2789 8.56259 33.2961 8.6069 33.3134C8.52445 33.3093 8.44702 33.3069 8.37482 33.3047C8.226 33.3002 8.09863 33.2962 7.99052 33.2792C7.73501 33.2391 7.38322 33.1932 7.12644 33.1966C7.05675 33.1975 6.97915 33.196 6.90102 33.1944C6.705 33.1903 6.50481 33.1861 6.41405 33.2215C6.35289 33.2453 6.21244 33.3067 6.36214 33.3471C6.39475 33.3559 6.45948 33.3615 6.5314 33.3678C6.66063 33.379 6.81365 33.3924 6.84907 33.43C6.85503 33.4364 6.86041 33.4433 6.86541 33.4504C6.88534 33.4788 6.90735 33.5106 7.01121 33.523C7.13085 33.5373 7.26799 33.5352 7.42789 33.5328C7.63614 33.5296 7.8835 33.5258 8.18142 33.5569C8.24032 33.563 8.26044 33.5742 8.27571 33.5827C8.28647 33.5887 8.29509 33.5932 8.31281 33.5938C8.33318 33.5944 8.37557 33.5928 8.4292 33.5907C8.61842 33.5833 8.94903 33.5706 8.96268 33.632C8.96634 33.6487 8.9505 33.6676 8.93618 33.6845C8.91508 33.7095 8.89767 33.7303 8.95173 33.7334C8.97225 33.7345 8.99448 33.7354 9.01752 33.7362C9.0109 33.7561 9.00429 33.7761 8.99767 33.796C8.93305 33.8213 8.93836 33.8573 8.94526 33.9022C8.94694 33.9132 8.94847 33.9247 8.94933 33.9366C8.93575 33.976 8.92225 34.0153 8.90843 34.0547C8.8809 34.0858 8.83617 34.1188 8.76528 34.1535C8.6232 34.2231 8.3892 34.283 8.16039 34.3415C8.06397 34.3661 7.96827 34.3905 7.88091 34.4154C7.87024 34.4054 7.85764 34.3965 7.84024 34.3895C7.72117 34.3419 7.48649 34.3217 7.27046 34.3031C7.12677 34.2907 6.99128 34.279 6.90393 34.2605C6.74389 34.2266 6.55648 34.2288 6.4179 34.2305C6.34602 34.2313 6.28714 34.2319 6.2522 34.2273C6.22421 34.2236 6.21108 34.2154 6.19748 34.2068C6.18563 34.1994 6.17324 34.1918 6.15069 34.1868C5.87671 34.1262 5.71737 34.143 5.48547 34.1674C5.35758 34.1809 5.20749 34.1966 5.00394 34.2031C4.78843 34.2084 4.72541 34.2058 4.63976 34.1744C4.5332 34.1978 4.42664 34.2213 4.32009 34.2447C4.32695 34.2542 4.39344 34.2618 4.50393 34.2725C4.70124 34.2916 4.77305 34.3506 4.82916 34.3966C4.85514 34.4179 4.87787 34.4365 4.90807 34.4471C5.06873 34.5033 5.29302 34.4886 5.49037 34.4755C5.599 34.4684 5.69954 34.4618 5.77678 34.4678C5.80982 34.4704 5.84264 34.4672 5.87611 34.464C5.90199 34.4614 5.9283 34.4589 5.95535 34.4589C6.15179 34.4593 6.29742 34.4929 6.43264 34.5241C6.51007 34.5419 6.58437 34.559 6.66268 34.5686C6.68655 34.5715 6.71089 34.5739 6.73453 34.5761C6.76905 34.5793 6.80195 34.5825 6.83012 34.5873C6.8943 34.5982 6.93748 34.6203 6.98455 34.6444C7.00867 34.6568 7.03387 34.6697 7.06353 34.6819C7.10198 34.6978 7.17964 34.7039 7.26077 34.7103C7.3181 34.7149 7.37716 34.7196 7.42578 34.728C7.51371 34.7432 7.54531 34.773 7.57463 34.8006C7.5874 34.8127 7.60009 34.8243 7.61647 34.8342C7.62314 34.8382 7.63649 34.8402 7.65482 34.8407C7.71604 34.8862 7.77861 34.9296 7.83988 34.9719C8.14708 35.1839 8.41342 35.3674 8.218 35.638C8.18105 35.6891 8.18805 35.7443 8.21705 35.8003C8.13895 35.9781 8.05835 36.1561 7.97571 36.3339C7.79849 36.3681 7.64958 36.4104 7.53263 36.4608C7.31305 36.5555 7.26567 36.6539 7.20974 36.7701C7.16838 36.856 7.1222 36.9516 6.99844 37.0625C6.79048 37.249 6.61437 37.4406 6.52216 37.6575C6.43036 37.8734 6.36217 38.1208 6.33747 38.296C6.32399 38.3915 6.16506 38.491 6.01714 38.5837C5.80908 38.7141 5.6226 38.8311 5.89158 38.9048C5.97754 38.9283 6.12688 38.9514 6.27197 38.9739C6.3753 38.99 6.47621 39.0058 6.55135 39.0211C6.52776 39.0607 6.50442 39.1003 6.48059 39.1398C6.30065 39.2093 6.10752 39.3179 6.30711 39.425C6.28213 39.4659 6.25727 39.5067 6.23207 39.5461C6.17934 39.6322 6.12595 39.7164 6.07217 39.8013C6.05439 39.829 6.03658 39.8571 6.01867 39.8851C6.01847 39.8854 6.01826 39.8857 6.01806 39.8859C5.98202 39.9424 5.94573 39.9994 5.90923 40.0553C5.89365 40.0793 5.87808 40.1033 5.8625 40.1273C5.82297 40.1882 5.7833 40.2496 5.74323 40.3099C5.72192 40.3419 5.70078 40.3741 5.67931 40.4064C5.64447 40.4588 5.60945 40.5115 5.5742 40.564C5.51721 40.6489 5.45958 40.7334 5.40151 40.8181C5.3919 40.832 5.36195 40.8451 5.3166 40.8547C5.27118 40.8642 5.21428 40.8694 5.15567 40.8691C5.09704 40.8687 5.04006 40.8628 4.99492 40.8527C4.94994 40.8426 4.92086 40.8291 4.91167 40.8151C4.85615 40.7297 4.80125 40.6445 4.74683 40.5589C4.71319 40.5059 4.67925 40.4528 4.64601 40.4C4.62552 40.3674 4.60538 40.335 4.58504 40.3028C4.54682 40.242 4.50863 40.1801 4.47097 40.1187C4.45608 40.0945 4.44119 40.0704 4.42631 40.0462C4.39142 39.9897 4.35691 39.9322 4.32251 39.8751C4.32231 39.8748 4.32211 39.8744 4.32191 39.8741C4.30498 39.846 4.28803 39.818 4.27122 39.7902C4.22002 39.7046 4.1693 39.6198 4.11918 39.5331C4.09212 39.4883 4.06569 39.4416 4.03896 39.3953C4.02407 39.3695 4.00911 39.3438 3.99432 39.3185C3.98644 39.3047 3.97865 39.2906 3.9708 39.2766C3.78536 38.9533 3.60702 38.6324 3.43603 38.3086C3.26505 37.9859 3.10118 37.6628 2.94392 37.3406C2.78664 37.0177 2.63624 36.6953 2.49201 36.3728C1.57613 34.3256 0.827351 32.2713 0.363238 30.2177C0.296588 29.9248 0.236728 29.6243 0.183203 29.3309C0.129667 29.0343 0.0823291 28.7438 0.0421467 28.4465C0.0295728 28.3561 0.0178332 28.2636 0.00660558 28.1686Z" fill="black"/>
<path d="M23.9324 43.1156C23.8346 42.2188 24.7574 41.3558 24.7591 40.456C24.7614 39.3388 23.8797 38.2038 24.0439 37.084C24.2081 35.9707 24.444 34.852 24.7348 33.7368C25.0256 32.6204 25.3712 31.5056 25.7541 30.3887C26.1369 29.2741 26.5569 28.1571 26.9976 27.0416C27.2969 26.2839 27.6059 25.5254 27.9188 24.7679C28.0559 24.4353 28.1936 24.1037 28.3319 23.7713C28.4352 23.5233 28.5386 23.2754 28.642 23.0274C28.6566 22.9929 28.7157 22.9599 28.8095 22.9355C28.9035 22.9112 29.0239 22.8974 29.1483 22.8975C29.2727 22.8975 29.3934 22.9113 29.487 22.9358C29.5804 22.9602 29.6387 22.9933 29.6527 23.0278C29.7529 23.2778 29.853 23.5279 29.9531 23.778C30.0642 24.0557 30.1754 24.333 30.2858 24.6107C29.7753 24.6544 29.3881 24.7144 29.2171 24.8269C29.1299 24.8843 29.0936 24.9679 29.1885 25.0295C29.2737 25.0849 29.4257 25.1266 29.5705 25.1661C29.722 25.2075 29.8658 25.2468 29.9166 25.2974C30.0028 25.3832 30.2195 25.4647 30.4472 25.5504C30.5301 25.5816 30.6146 25.6133 30.6946 25.646C30.7984 25.911 30.9014 26.1761 31.0035 26.4412C30.9491 26.5436 30.9052 26.6377 30.9261 26.7176C30.9449 26.7892 31.0527 26.8548 31.1869 26.9201C31.2025 26.9611 31.2182 27.0022 31.2338 27.0432C31.3343 27.308 31.4331 27.5729 31.5311 27.8379C31.3949 28.0446 31.2626 28.2613 31.2045 28.543C31.1795 28.6644 31.1059 28.7842 31.0352 28.8993C30.9308 29.0694 30.8326 29.2294 30.906 29.3697C30.9551 29.4634 30.8829 29.5621 30.811 29.6605C30.7145 29.7924 30.6181 29.9241 30.8146 30.0435C30.9382 30.1186 31.0884 30.1875 31.2277 30.2514C31.4494 30.353 31.6433 30.4418 31.6566 30.5222C31.6817 30.6732 31.8432 30.804 31.9856 30.9192C32.157 31.0579 32.3007 31.1741 32.1459 31.2763C32.1224 31.2917 32.0912 31.3095 32.0557 31.3294C31.8687 31.4345 31.5696 31.6026 31.734 31.844C31.7926 31.9299 31.9447 32.0106 32.0941 32.0896C32.3115 32.2047 32.5225 32.3164 32.4286 32.4361C32.4145 32.454 32.3556 32.4726 32.3018 32.4896C32.2334 32.5112 32.1737 32.5301 32.2257 32.5413C32.378 32.5741 32.5463 32.6262 32.7295 32.6827C32.8641 32.7242 33.0068 32.7683 33.1566 32.8089C33.2413 33.1189 33.3224 33.429 33.3991 33.7392C33.4343 33.8813 33.4686 34.0234 33.5021 34.1656C33.2728 34.2384 33.0662 34.3127 32.9099 34.3913C32.7056 34.494 32.643 34.6271 32.562 34.7986C32.5023 34.9249 32.4326 35.072 32.2896 35.2432C32.0251 35.5602 32.0844 35.8857 32.2263 36.0944C32.2563 36.1385 32.2883 36.1829 32.3232 36.2303C32.4553 36.4102 32.6208 36.6348 32.8033 37.0613C32.9759 37.4647 33.0206 37.8078 33.0543 38.0656C33.0714 38.1971 33.0853 38.3065 33.1122 38.3903C33.1582 38.5336 33.1992 38.7097 33.2401 38.8864C33.3042 39.163 33.3684 39.4413 33.4539 39.5988C33.4844 39.6549 33.5221 39.7138 33.5624 39.7774C33.674 39.9535 33.8087 40.1662 33.8865 40.4595C33.9682 40.7673 33.9125 40.9581 33.7915 41.1563C33.7423 41.2368 33.5477 41.3079 33.3467 41.3811C33.0615 41.485 32.7638 41.5934 32.8526 41.74C32.8733 41.7742 32.9197 41.8108 32.9684 41.849C33.0577 41.9191 33.1546 41.995 33.1122 42.0727C33.0973 42.0998 33.0445 42.1237 32.9927 42.1471C32.9358 42.1728 32.8801 42.1981 32.877 42.2267C32.8654 42.3335 32.8786 42.4374 32.8904 42.5297C32.9056 42.6488 32.9183 42.7487 32.8721 42.8107C32.7897 42.9211 32.8635 43.0419 32.9385 43.1642C32.9958 43.2576 33.0541 43.352 33.0433 43.4434C33.0123 43.7045 33.1528 44.0635 33.3869 44.4335C33.4754 44.5735 33.3545 44.6921 33.1993 44.8441C33.1027 44.9386 32.9924 45.046 32.9117 45.1796C32.866 45.2553 32.9737 45.3194 33.0732 45.3788C33.1648 45.4335 33.2496 45.4842 33.2017 45.5362C33.1594 45.5821 32.9783 45.6112 32.8063 45.6387C32.6149 45.6694 32.4349 45.6983 32.47 45.7466C32.4887 45.7723 32.5793 45.8036 32.6869 45.8408C32.7294 45.8555 32.7745 45.8712 32.8191 45.8878C32.7824 45.8869 32.7495 45.8867 32.7247 45.8867C32.549 45.8866 32.4564 45.9359 32.3658 45.9843C32.3296 46.0036 32.2939 46.0228 32.2531 46.0386C32.103 46.0968 32.0786 46.2068 32.0855 46.291C32.0884 46.3266 32.034 46.3588 31.9704 46.3964C31.9139 46.4299 31.8502 46.4675 31.8132 46.5155C31.7921 46.5429 31.7412 46.564 31.6987 46.5814C31.6679 46.5939 31.6416 46.6047 31.6347 46.6146C31.6287 46.6232 31.6791 46.6302 31.7358 46.638C31.7766 46.6436 31.8209 46.6497 31.8498 46.6572C31.9187 46.6751 31.9395 46.6982 31.9174 46.7143C31.9071 46.7218 31.8875 46.7277 31.868 46.7336C31.8453 46.7404 31.8224 46.7472 31.8144 46.7565C31.7777 46.7995 31.8352 46.8412 31.8948 46.8846C31.9604 46.9322 32.0285 46.982 31.9777 47.0373C31.9617 47.0547 31.925 47.0733 31.8894 47.0912C31.8521 47.11 31.8161 47.1283 31.8065 47.1439C31.7676 47.2069 31.8932 47.2662 32.0088 47.3208C32.0856 47.357 32.1579 47.3913 32.1745 47.423C32.2048 47.4813 32.3556 47.5125 32.4669 47.5356C32.5246 47.5475 32.572 47.5573 32.5864 47.5675C32.5822 47.5769 32.5772 47.5864 32.5717 47.5957C32.5606 47.6042 32.5492 47.613 32.5528 47.6213C32.5531 47.6219 32.5538 47.6225 32.5541 47.6232C32.5175 47.6752 32.4657 47.7264 32.4139 47.7772C32.2978 47.8914 32.1828 48.0042 32.2476 48.1234C32.2616 48.1491 32.3239 48.1753 32.3871 48.2019C32.4646 48.2346 32.5439 48.268 32.5382 48.302C32.5246 48.383 32.4219 48.4648 32.3207 48.5453C32.1685 48.6665 32.0199 48.7849 32.183 48.8938C32.2369 48.9297 32.3266 48.9648 32.417 49C32.4674 49.0196 32.5182 49.0393 32.5626 49.0591C32.4801 49.0549 32.4027 49.0527 32.3305 49.0506C32.1816 49.0463 32.0542 49.0425 31.946 49.0235C31.6903 48.9784 31.3382 48.9273 31.0815 48.9329C31.0118 48.9345 30.9342 48.9332 30.856 48.9319C30.66 48.9285 30.4598 48.925 30.3692 48.9669C30.3082 48.9951 30.1681 49.0676 30.3181 49.1137C30.3507 49.1238 30.4155 49.1299 30.4874 49.1367C30.6167 49.1489 30.7698 49.1635 30.8055 49.2072C30.8115 49.2145 30.8169 49.2225 30.8219 49.2308C30.842 49.2638 30.8642 49.3007 30.9682 49.3145C31.0879 49.3304 31.225 49.327 31.3849 49.3231C31.5931 49.3179 31.8404 49.3118 32.1385 49.346C32.1975 49.3528 32.2177 49.3658 32.233 49.3755C32.2438 49.3824 32.2524 49.3877 32.2701 49.3882C32.2905 49.3888 32.3329 49.3866 32.3865 49.3838C32.5757 49.3739 32.9062 49.3568 32.9202 49.4284C32.924 49.4478 32.9083 49.4699 32.894 49.4898C32.8731 49.5191 32.8558 49.5434 32.9099 49.5467C32.9304 49.5479 32.9526 49.5488 32.9757 49.5495C32.9692 49.5728 32.9627 49.5961 32.9562 49.6195C32.8917 49.6494 32.8972 49.6914 32.9044 49.7438C32.9061 49.7565 32.9077 49.7699 32.9087 49.7838C32.8953 49.8298 32.882 49.8759 32.8684 49.9219C32.8411 49.9584 32.7966 49.9972 32.7259 50.0382C32.5842 50.1203 32.3506 50.1917 32.1221 50.2615C32.0258 50.2909 31.9303 50.3201 31.8431 50.3497C31.8323 50.3381 31.8197 50.3277 31.8022 50.3197C31.6829 50.265 31.4481 50.243 31.232 50.2228C31.0882 50.2094 30.9526 50.1967 30.8652 50.1757C30.7049 50.1372 30.5176 50.1411 30.379 50.1439C30.3071 50.1454 30.2482 50.1465 30.2133 50.1414C30.1853 50.1372 30.1721 50.1277 30.1584 50.1179C30.1465 50.1093 30.1341 50.1004 30.1115 50.0948C29.8372 50.026 29.678 50.0467 29.4462 50.0768C29.3184 50.0933 29.1684 50.1127 28.9649 50.1216C28.7494 50.1292 28.6864 50.1267 28.6005 50.0906C28.4941 50.1187 28.3877 50.1468 28.2813 50.1749C28.2882 50.1859 28.3547 50.1943 28.4653 50.206C28.6627 50.227 28.7349 50.2952 28.7912 50.3486C28.8174 50.3733 28.8402 50.3948 28.8705 50.4069C29.0314 50.4715 29.2556 50.4527 29.4529 50.4362C29.5615 50.4271 29.662 50.4187 29.7393 50.4252C29.7723 50.428 29.8051 50.424 29.8386 50.42C29.8644 50.4169 29.8907 50.4137 29.9178 50.4136C30.1142 50.4128 30.26 50.4509 30.3954 50.4864C30.473 50.5067 30.5474 50.526 30.6257 50.5367C30.6496 50.54 30.674 50.5426 30.6976 50.545C30.7322 50.5485 30.7651 50.552 30.7933 50.5574C30.8575 50.5697 30.9008 50.5951 30.948 50.623C30.9722 50.6372 30.9975 50.6521 31.0272 50.6662C31.0658 50.6845 31.1435 50.691 31.2247 50.698C31.282 50.7029 31.3411 50.708 31.3898 50.7175C31.4778 50.7346 31.5095 50.7691 31.539 50.8012C31.5519 50.8152 31.5646 50.8287 31.5811 50.84C31.5878 50.8447 31.6011 50.8469 31.6195 50.8474C31.6809 50.9 31.7438 50.9503 31.8053 50.9992C32.1137 51.2444 32.3811 51.4567 32.1873 51.7737C32.1506 51.8336 32.158 51.898 32.1873 51.963C32.1102 52.1711 32.0307 52.3792 31.9491 52.5872C31.7721 52.6284 31.6234 52.6787 31.5067 52.7383C31.2877 52.8503 31.2409 52.9655 31.1857 53.1014C31.1448 53.2018 31.0992 53.3137 30.9761 53.444C30.7692 53.6629 30.5942 53.8877 30.5033 54.1413C30.4127 54.3938 30.346 54.683 30.3223 54.8875C30.3094 54.999 30.1511 55.1162 30.0037 55.2253C29.7964 55.3789 29.6106 55.5166 29.88 55.6008C29.9661 55.6276 30.1156 55.6536 30.2608 55.6789C30.3642 55.6969 30.4652 55.7146 30.5404 55.732C30.5171 55.7783 30.494 55.8247 30.4704 55.871C30.2908 55.9533 30.0984 56.0812 30.2986 56.2049C30.2738 56.2527 30.2492 56.3005 30.2242 56.3467C30.172 56.4475 30.1191 56.546 30.0658 56.6455C30.0482 56.678 30.0306 56.7108 30.0128 56.7436C30.0126 56.7439 30.0124 56.7443 30.0122 56.7446C29.9765 56.8107 29.9406 56.8774 29.9044 56.943C29.8889 56.9711 29.8735 56.9991 29.8581 57.0272C29.8189 57.0986 29.7796 57.1705 29.7399 57.2411C29.7188 57.2785 29.6978 57.3162 29.6765 57.3541C29.642 57.4154 29.6073 57.4772 29.5723 57.5387C29.5158 57.6382 29.4587 57.7371 29.4011 57.8363C29.3916 57.8525 29.3617 57.8681 29.3164 57.8796C29.2711 57.891 29.2142 57.8975 29.1556 57.8975C29.097 57.8974 29.0399 57.8909 28.9947 57.8794C28.9497 57.868 28.9205 57.8524 28.9113 57.8362C28.8553 57.7369 28.7999 57.6378 28.7449 57.5383C28.711 57.4768 28.6767 57.415 28.6432 57.3537C28.6225 57.3158 28.6022 57.2781 28.5817 57.2407C28.5431 57.1701 28.5045 57.0981 28.4665 57.0267C28.4515 56.9986 28.4365 56.9705 28.4214 56.9424C28.3862 56.8767 28.3514 56.8098 28.3166 56.7435C28.3164 56.7431 28.3162 56.7427 28.316 56.7423C28.2989 56.7097 28.2818 56.6771 28.2648 56.6448C28.2132 56.5453 28.1619 56.4467 28.1113 56.3459C28.084 56.2938 28.0573 56.2395 28.0303 56.1857C28.0152 56.1557 28.0001 56.1258 27.9852 56.0964C27.9772 56.0803 27.9694 56.064 27.9614 56.0476C27.7741 55.6718 27.5939 55.2986 27.421 54.922C27.2481 54.5467 27.0824 54.1708 26.9232 53.796C26.7641 53.4204 26.6118 53.0453 26.4657 52.67C25.5379 50.2879 24.7771 47.8964 24.301 45.5038C24.2326 45.1625 24.171 44.8123 24.1158 44.4704C24.0605 44.1247 24.0115 43.7861 23.9695 43.4395C23.9564 43.3342 23.9442 43.2263 23.9324 43.1156Z" fill="black"/>
<path d="M12.2893 30.5895C12.7636 29.9768 13.9392 30.1062 14.4859 29.5621C15.1646 28.8866 15.229 27.5752 16.0238 27.0126C16.8147 26.454 17.6596 25.9427 18.5411 25.4724C19.4234 25.0014 20.3434 24.5702 21.2911 24.1639C22.2374 23.7591 23.2113 23.379 24.199 23.0146C24.8699 22.767 25.5481 22.5258 26.2285 22.2879C26.527 22.1833 26.8254 22.0797 27.1246 21.976C27.348 21.8988 27.5714 21.8216 27.7948 21.7444C27.826 21.7338 27.8878 21.7556 27.9689 21.8072C28.0502 21.8589 28.1436 21.9357 28.2315 22.0236C28.3195 22.1117 28.3964 22.2053 28.4478 22.2864C28.4991 22.3672 28.5203 22.4285 28.5093 22.4593C28.4285 22.6817 28.3477 22.9041 28.267 23.1264C28.1771 23.3733 28.0878 23.62 27.9975 23.8663C27.61 23.5319 27.2999 23.2945 27.1108 23.2417C27.0144 23.2148 26.938 23.2399 26.9677 23.3443C26.9945 23.4381 27.0766 23.5708 27.1551 23.6972C27.2371 23.8294 27.315 23.9549 27.3202 24.0215C27.3292 24.1345 27.433 24.3371 27.5421 24.55C27.5818 24.6275 27.6223 24.7065 27.6591 24.7829C27.5718 25.0169 27.484 25.2504 27.3955 25.4833C27.295 25.5069 27.2069 25.5329 27.1733 25.5961C27.1432 25.6528 27.1797 25.7688 27.2349 25.9032C27.2211 25.9392 27.2073 25.9751 27.1935 26.011C27.1041 26.2426 27.0134 26.473 26.9221 26.7029C26.7005 26.7319 26.4756 26.7697 26.2638 26.8993C26.1726 26.9552 26.0479 26.9757 25.9281 26.9955C25.7512 27.0248 25.5848 27.0524 25.5517 27.1893C25.5295 27.2808 25.4187 27.2896 25.3082 27.2983C25.16 27.3101 25.0121 27.3218 25.0786 27.5331C25.1205 27.6659 25.1849 27.814 25.2447 27.9512C25.3399 28.1695 25.4232 28.3604 25.3839 28.4186C25.3101 28.5278 25.345 28.7213 25.3759 28.8919C25.413 29.097 25.4442 29.2692 25.2728 29.2216C25.2468 29.2143 25.214 29.203 25.1769 29.19C24.9809 29.1215 24.6675 29.0119 24.6375 29.2744C24.6268 29.3679 24.6855 29.5244 24.7432 29.6779C24.8272 29.9014 24.9087 30.1183 24.7698 30.1244C24.749 30.1253 24.696 30.095 24.6477 30.0673C24.5862 30.032 24.5326 30.0012 24.5625 30.0447C24.6504 30.1723 24.7378 30.3229 24.8331 30.4867C24.9031 30.6071 24.9773 30.7346 25.0586 30.8652C24.9306 31.1129 24.8 31.3582 24.6662 31.6005C24.605 31.7115 24.5431 31.822 24.4806 31.9318C24.2744 31.8137 24.0832 31.7127 23.9251 31.6498C23.7184 31.5676 23.5935 31.604 23.4322 31.6507C23.3135 31.685 23.175 31.7249 22.9701 31.7276C22.591 31.7326 22.4356 31.9719 22.4095 32.1986C22.4039 32.2466 22.3997 32.2961 22.3956 32.3495C22.38 32.552 22.3609 32.8051 22.2314 33.1927C22.109 33.5592 21.9326 33.7988 21.8002 33.9788C21.7326 34.0707 21.6761 34.1468 21.6443 34.2166C21.59 34.336 21.5123 34.4717 21.4341 34.6078C21.3118 34.8207 21.1885 35.0348 21.1535 35.1908C21.1411 35.2463 21.1321 35.3086 21.122 35.3756C21.0942 35.5613 21.0605 35.7855 20.9378 36.0183C20.809 36.2626 20.654 36.3389 20.4483 36.3734C20.3646 36.3874 20.184 36.2929 19.9975 36.1952C19.7328 36.0564 19.4566 35.9116 19.4306 36.0633C19.4245 36.0987 19.4351 36.1536 19.4464 36.2112C19.4671 36.3169 19.4896 36.4314 19.4124 36.4485C19.3855 36.4544 19.3337 36.4315 19.2829 36.4091C19.2271 36.3844 19.1724 36.3604 19.1528 36.3755C19.0799 36.432 19.0263 36.5043 18.9786 36.5687C18.9172 36.6516 18.8657 36.7211 18.7955 36.726C18.6703 36.7347 18.6492 36.86 18.6281 36.9872C18.612 37.0844 18.5961 37.1828 18.533 37.2305C18.3529 37.3669 18.2346 37.6838 18.1759 38.0736C18.1536 38.2211 17.9963 38.2075 17.7944 38.1898C17.6688 38.1788 17.5257 38.1659 17.3877 38.1898C17.3094 38.2033 17.3467 38.3183 17.3811 38.4247C17.4128 38.5227 17.442 38.6133 17.3766 38.611C17.3188 38.6089 17.1732 38.4985 17.0348 38.3935C16.8809 38.2768 16.7361 38.167 16.7316 38.2211C16.7293 38.2499 16.7744 38.3329 16.828 38.4315C16.8492 38.4705 16.8715 38.5119 16.893 38.5535C16.8675 38.527 16.8444 38.5037 16.8268 38.4861C16.7026 38.3618 16.6073 38.3263 16.5139 38.2915C16.4766 38.2776 16.4397 38.264 16.4013 38.2447C16.2599 38.1738 16.1759 38.2233 16.1299 38.2792C16.1104 38.3028 16.0523 38.2838 15.9845 38.2617C15.9244 38.242 15.8565 38.2198 15.8012 38.2227C15.7697 38.2244 15.7209 38.2011 15.6803 38.1816C15.6509 38.1675 15.6258 38.1554 15.6149 38.1565C15.6055 38.1576 15.6369 38.1974 15.6723 38.2422C15.6977 38.2745 15.7253 38.3095 15.7412 38.3344C15.7791 38.3941 15.7798 38.4228 15.7544 38.4169C15.7426 38.4142 15.7252 38.4039 15.7078 38.3936C15.6876 38.3817 15.6673 38.3696 15.656 38.3697C15.604 38.3697 15.6194 38.4356 15.6353 38.5041C15.6527 38.5794 15.6708 38.6577 15.6013 38.6553C15.5794 38.6545 15.5422 38.6398 15.5061 38.6255C15.4684 38.6105 15.4318 38.5962 15.4156 38.5988C15.3499 38.6095 15.4028 38.7343 15.4515 38.8491C15.4838 38.9254 15.5142 38.9972 15.5066 39.0282C15.4928 39.0849 15.5805 39.2105 15.6452 39.3032C15.6788 39.3513 15.7064 39.3907 15.7103 39.407C15.7017 39.4097 15.6924 39.412 15.6829 39.4137C15.6699 39.4111 15.6564 39.4083 15.654 39.4159C15.6538 39.4165 15.6539 39.4173 15.6537 39.4179C15.5963 39.4236 15.5287 39.418 15.4613 39.4122C15.3099 39.3993 15.1603 39.3863 15.1338 39.5044C15.1281 39.5299 15.1563 39.5898 15.1849 39.6507C15.2199 39.7253 15.2558 39.8016 15.2311 39.8181C15.1724 39.8576 15.0502 39.8346 14.9298 39.8118C14.7487 39.7777 14.5719 39.7443 14.6212 39.9257C14.6376 39.9855 14.6797 40.0702 14.7223 40.1555C14.7461 40.203 14.7701 40.2508 14.7895 40.2943C14.7337 40.2334 14.6803 40.1773 14.6305 40.1249C14.5279 40.0171 14.44 39.9248 14.3751 39.8367C14.2216 39.6285 14.0036 39.3486 13.8186 39.1705C13.7684 39.1222 13.7143 39.0665 13.6599 39.0104C13.5233 38.8697 13.3839 38.7261 13.2944 38.6874C13.2342 38.6614 13.0912 38.6063 13.1692 38.7402C13.1863 38.7694 13.2283 38.8189 13.2751 38.8739C13.3591 38.9728 13.4585 39.0898 13.4573 39.1415C13.457 39.1502 13.456 39.1589 13.4546 39.1675C13.4488 39.2017 13.4421 39.2398 13.5072 39.3216C13.5822 39.4159 13.6813 39.5108 13.7967 39.6215C13.9471 39.7656 14.1257 39.9368 14.3157 40.1683C14.3533 40.2141 14.3597 40.2362 14.3646 40.253C14.3681 40.2648 14.371 40.2741 14.3832 40.2869C14.3972 40.3017 14.4285 40.3303 14.4682 40.3666C14.6079 40.4943 14.852 40.7177 14.8185 40.771C14.8094 40.7854 14.7849 40.7877 14.7628 40.7897C14.7302 40.7926 14.7032 40.7951 14.7395 40.8354C14.7533 40.8506 14.7685 40.8669 14.7843 40.8836C14.7656 40.8931 14.7469 40.9027 14.7281 40.9122C14.6644 40.8847 14.6429 40.9141 14.6162 40.9509C14.6097 40.9599 14.6027 40.9691 14.5949 40.9782C14.5576 40.9967 14.5203 41.0152 14.4828 41.0335C14.4414 41.0362 14.3863 41.0283 14.3115 41.0031C14.1616 40.9527 13.9531 40.8308 13.7492 40.7116C13.6633 40.6613 13.5781 40.6114 13.4985 40.5677C13.4979 40.5531 13.4952 40.5379 13.4877 40.5207C13.4365 40.4031 13.2838 40.2238 13.1433 40.0587C13.0497 39.9489 12.9616 39.8453 12.9125 39.7708C12.8225 39.6342 12.6876 39.504 12.5879 39.4077C12.5362 39.3578 12.4939 39.3168 12.4723 39.289C12.455 39.2667 12.4514 39.2516 12.4478 39.236C12.4445 39.2224 12.4411 39.2082 12.4286 39.1888C12.2763 38.9531 12.1512 38.8531 11.9691 38.7074C11.8686 38.6271 11.7508 38.5328 11.6015 38.3943C11.4445 38.2465 11.4015 38.2004 11.3627 38.1179C11.2704 38.0597 11.1781 38.0014 11.0859 37.9432C11.0841 37.9548 11.1261 38.0069 11.1971 38.0922C11.324 38.2445 11.3336 38.3369 11.3412 38.4091C11.3447 38.4425 11.3478 38.4717 11.3618 38.5004C11.4365 38.6534 11.6064 38.8005 11.756 38.93C11.8383 39.0013 11.9144 39.0673 11.9651 39.1259C11.9868 39.1509 12.0124 39.1717 12.0385 39.1929C12.0586 39.2093 12.0791 39.226 12.0983 39.2451C12.2378 39.3834 12.3177 39.5097 12.392 39.6269C12.4345 39.694 12.4754 39.7584 12.5243 39.8203C12.5393 39.8391 12.5549 39.8579 12.5702 39.8761C12.5924 39.9027 12.6136 39.9281 12.6303 39.9513C12.6682 40.0042 12.6835 40.0502 12.7 40.1004C12.7084 40.1262 12.7173 40.1531 12.7298 40.1827C12.7459 40.221 12.7969 40.2799 12.8501 40.3415C12.8877 40.385 12.9263 40.4299 12.955 40.4701C13.0069 40.5427 13.0084 40.5861 13.0098 40.6264C13.0104 40.6439 13.0113 40.6611 13.016 40.6796C13.0179 40.6872 13.026 40.698 13.0387 40.7112C13.0503 40.7866 13.0642 40.8615 13.0781 40.9346C13.1475 41.3014 13.208 41.6191 12.8788 41.6742C12.8165 41.6846 12.7827 41.7288 12.764 41.7889C12.5835 41.8605 12.401 41.9304 12.2173 41.9988C12.0672 41.8986 11.9315 41.824 11.8129 41.7776C11.5902 41.6906 11.4873 41.7273 11.3658 41.7706C11.2761 41.8026 11.176 41.8381 11.01 41.8301C10.731 41.8165 10.4711 41.829 10.253 41.9184C10.036 42.0074 9.81352 42.1355 9.6728 42.2427C9.59608 42.3012 9.41313 42.2602 9.24276 42.2221C9.00311 42.1686 8.78823 42.1207 8.92775 42.3622C8.97235 42.4394 9.0623 42.5608 9.14967 42.6788C9.21189 42.7629 9.27255 42.845 9.31521 42.9088C9.27063 42.9203 9.22619 42.9321 9.18142 42.9435C9.00458 42.8664 8.79093 42.8078 8.85755 43.0244C8.81109 43.0358 8.76469 43.0474 8.71905 43.0577C8.62105 43.0819 8.5239 43.1042 8.42594 43.1268C8.3938 43.1341 8.36145 43.1415 8.32898 43.1488C8.32865 43.1489 8.32831 43.1489 8.32798 43.149C8.26263 43.1638 8.1968 43.1788 8.13148 43.193C8.10354 43.1991 8.07561 43.2052 8.04767 43.2113C7.97672 43.2268 7.90536 43.2426 7.83446 43.2573C7.79686 43.2651 7.75916 43.2731 7.72119 43.281C7.6596 43.2938 7.59759 43.3067 7.53561 43.3192C7.43539 43.3396 7.335 43.3592 7.23418 43.3786C7.21761 43.3817 7.18704 43.37 7.14808 43.3449C7.10906 43.3198 7.06493 43.2835 7.0235 43.242C6.98205 43.2005 6.94569 43.1563 6.92069 43.1173C6.8958 43.0785 6.88462 43.0485 6.88788 43.0321C6.90843 42.9323 6.92932 42.8331 6.95081 42.734C6.96408 42.6727 6.9773 42.611 6.99078 42.5501C6.99908 42.5125 7.00757 42.4753 7.01572 42.4381C7.03126 42.368 7.04764 42.2971 7.06402 42.227C7.07041 42.1993 7.0768 42.1717 7.0832 42.144C7.09814 42.0793 7.11402 42.0141 7.12967 41.9494C7.12977 41.949 7.12987 41.9486 7.12997 41.9482C7.13767 41.9163 7.14532 41.8845 7.15285 41.8529C7.17661 41.7561 7.20018 41.6601 7.22547 41.5632C7.23772 41.5123 7.25172 41.4605 7.26528 41.4088C7.27283 41.38 7.28029 41.3512 7.28753 41.3228C7.29165 41.3074 7.29595 41.292 7.30027 41.2764C7.3956 40.9162 7.49434 40.5626 7.60039 40.2121C7.70558 39.8624 7.8162 39.5174 7.93082 39.1777C8.04598 38.8374 8.1656 38.5024 8.28977 38.1716C9.07744 36.0718 9.989 34.0844 11.1025 32.2976C11.261 32.0424 11.4297 31.7866 11.5978 31.5403C11.7683 31.2917 11.9388 31.0518 12.1192 30.8121C12.1738 30.739 12.2305 30.6649 12.2893 30.5895Z" fill="black"/>
<circle cx="24.6926" cy="60.665" r="3.3234" transform="rotate(8.2828 24.6926 60.665)" fill="black"/>
<path d="M18.7427 62.7951C18.336 61.8223 18.7961 60.7768 18.9219 59.8865C18.9246 59.8664 18.9273 59.8462 18.93 59.8261C19.0588 58.7342 19.1426 57.3255 20.0745 56.4499C20.9884 55.5919 22.1754 55.0766 23.3578 54.9811C24.0959 54.9188 24.8285 55.0178 25.4813 55.247C25.8747 55.3845 26.2471 55.5691 26.584 55.7924C27.4827 56.3851 28.1075 57.2491 28.3914 58.1374C28.5871 58.7412 28.6323 59.3579 28.5491 59.9184C28.5129 60.1645 28.4527 60.3996 28.3722 60.62C28.312 60.7841 28.2407 60.941 28.1603 61.0873C28.149 61.1077 28.1111 61.1237 28.0532 61.1307C27.9953 61.1377 27.9227 61.1352 27.8488 61.1244C27.7749 61.1136 27.7045 61.0954 27.6506 61.0747C27.5969 61.0539 27.5645 61.0323 27.5583 61.0135C27.5144 60.8776 27.461 60.7479 27.3994 60.6275C27.3311 60.4935 27.2527 60.3699 27.1672 60.2577C27.4662 60.1889 27.6899 60.1168 27.7778 60.0337C27.8227 59.9917 27.8331 59.9385 27.7695 59.9179C27.7123 59.8994 27.6182 59.9 27.5289 59.9024C27.4354 59.9049 27.3472 59.9096 27.311 59.8946C27.2494 59.8689 27.1134 59.8708 26.9723 59.8806C26.9209 59.8841 26.8687 59.8885 26.819 59.8926C26.7236 59.8128 26.6245 59.7439 26.5237 59.6856C26.5345 59.6366 26.539 59.5916 26.5125 59.5719C26.4886 59.5542 26.4203 59.5671 26.3403 59.5918C26.3245 59.5847 26.3087 59.5779 26.2928 59.5714C26.1908 59.529 26.089 59.4968 25.9888 59.4746C26.0048 59.3713 26.0077 59.2612 25.9546 59.1703C25.9319 59.1313 25.9262 59.0705 25.9173 59.011C25.9047 58.9236 25.8839 58.8387 25.8147 58.8478C25.7689 58.8541 25.7596 58.7984 25.7462 58.7419C25.7294 58.6666 25.7036 58.589 25.6113 58.6763C25.5535 58.7313 25.494 58.8038 25.4414 58.8724C25.3577 58.9817 25.292 59.0812 25.2666 59.0806C25.2185 59.0793 25.1515 59.16 25.0993 59.2342C25.0352 59.323 24.9916 59.4014 24.9862 59.3052C24.9853 59.2906 24.9847 59.2714 24.9838 59.2494C24.9808 59.1685 24.9711 59.0526 24.9319 59.021C24.9156 59.0076 24.8946 59.0096 24.8701 59.0365C24.8408 59.0686 24.8091 59.1576 24.7831 59.2456C24.7443 59.3738 24.7187 59.4997 24.6935 59.4432C24.6897 59.4348 24.6856 59.3994 24.6815 59.3672C24.6763 59.3262 24.671 59.2904 24.6688 59.3216C24.6622 59.4131 24.653 59.5143 24.647 59.6246C24.6425 59.7056 24.6398 59.7915 24.6399 59.8816C24.6003 59.935 24.5699 59.9892 24.5468 60.0419C24.5363 60.0661 24.5272 60.09 24.5196 60.1135C24.4708 59.9846 24.4207 59.8706 24.3763 59.787C24.3181 59.6778 24.2795 59.6523 24.2278 59.6222C24.1893 59.6003 24.1437 59.5756 24.0673 59.5197C23.9235 59.4169 23.8624 59.5016 23.8759 59.5992C23.8783 59.62 23.8818 59.6417 23.8863 59.6649C23.9041 59.7527 23.9295 59.8609 23.9574 59.9918C23.9852 60.1147 23.9801 60.1701 23.9759 60.2141C23.9741 60.2362 23.9733 60.2542 23.9817 60.2725C23.9959 60.3037 24.0072 60.336 24.0206 60.3666C24.0414 60.4146 24.0675 60.4586 24.112 60.4894C24.1278 60.5004 24.148 60.5125 24.1698 60.5246C24.2258 60.5561 24.2948 60.5874 24.3392 60.6135C24.3426 60.6156 24.3459 60.6176 24.349 60.6195C24.3949 60.6473 24.3615 60.6511 24.2886 60.6653C24.259 60.6706 24.1423 60.677 24.022 60.6896C23.8513 60.7062 23.6741 60.739 23.7296 60.76C23.7425 60.7647 23.7709 60.7679 23.8005 60.7705C23.8551 60.7756 23.9141 60.7775 23.8905 60.7921C23.8824 60.7972 23.8516 60.8057 23.8216 60.8146C23.7886 60.8243 23.7565 60.8343 23.7555 60.8394C23.752 60.8583 23.7635 60.874 23.774 60.8872C23.7876 60.9044 23.7993 60.9177 23.7757 60.9357C23.7337 60.968 23.783 60.9761 23.8321 60.9789C23.8697 60.9814 23.9073 60.9814 23.9068 60.9967C23.905 61.041 24.0096 61.0592 24.1514 61.0183C24.2048 61.0027 24.1512 61.0529 24.0903 61.1266C24.0522 61.1722 24.011 61.2268 23.9893 61.2757C23.9771 61.3036 24.033 61.2691 24.0827 61.2349C24.1288 61.2036 24.1698 61.1729 24.1543 61.198C24.1405 61.2203 24.0668 61.3002 23.9982 61.3775C23.9217 61.4633 23.8516 61.5458 23.8738 61.5377C23.8855 61.5334 23.9276 61.4983 23.9763 61.4554C23.9956 61.4384 24.0159 61.4203 24.036 61.4023C24.0211 61.4187 24.0079 61.4333 23.998 61.4444C23.9275 61.5228 23.8981 61.571 23.8709 61.6193C23.86 61.6386 23.8494 61.6578 23.8364 61.6789C23.7887 61.7566 23.802 61.7865 23.8216 61.7962C23.8298 61.8004 23.8165 61.8313 23.8019 61.868C23.7888 61.9005 23.7747 61.9375 23.773 61.9636C23.772 61.9784 23.7595 62.0069 23.7492 62.0308C23.7417 62.0481 23.7355 62.063 23.7356 62.0681C23.7358 62.0725 23.7546 62.0488 23.7756 62.0219C23.7907 62.0025 23.807 61.9815 23.8184 61.9683C23.8457 61.9368 23.8576 61.9297 23.854 61.9433C23.8523 61.9495 23.8472 61.9603 23.8422 61.9709C23.8363 61.9834 23.8305 61.996 23.8301 62.0014C23.8284 62.0266 23.8572 62.004 23.8861 61.9797C23.918 61.9532 23.9496 61.9244 23.947 61.9581C23.9462 61.9688 23.9395 61.9903 23.9334 62.0114C23.9269 62.0334 23.9209 62.0548 23.922 62.062C23.9266 62.0912 23.9774 62.0328 24.0215 61.9775C24.051 61.9407 24.0778 61.9056 24.0891 61.9001C24.11 61.8901 24.1552 61.8112 24.1876 61.7526C24.2044 61.7223 24.218 61.6972 24.2235 61.6902C24.2241 61.6933 24.2246 61.6968 24.225 61.7006C24.2238 61.7073 24.2226 61.7143 24.2251 61.713C24.2253 61.7129 24.2255 61.7126 24.2257 61.7125C24.2264 61.7368 24.2241 61.7697 24.2225 61.8026C24.2186 61.8763 24.2217 61.9512 24.2613 61.9236C24.2697 61.9176 24.2874 61.8841 24.3047 61.8498C24.326 61.8078 24.3467 61.7645 24.3524 61.7698C24.3659 61.7824 24.3654 61.8463 24.3686 61.9098C24.3724 62.0051 24.3867 62.0997 24.4325 62.0087C24.4474 61.9787 24.4654 61.9273 24.4824 61.8752C24.4919 61.8461 24.5012 61.8167 24.5096 61.7911C24.5008 61.8398 24.4929 61.8856 24.4854 61.9283C24.47 62.0163 24.4568 62.0916 24.4408 62.1547C24.4036 62.3041 24.3484 62.5087 24.3221 62.6605C24.3151 62.7017 24.3062 62.7474 24.2972 62.7934C24.2746 62.9089 24.2506 63.0267 24.2593 63.0834C24.2647 63.1216 24.2846 63.2102 24.3191 63.1244C24.3266 63.1057 24.335 63.0677 24.3442 63.0254C24.3487 63.0052 24.3533 62.9839 24.358 62.9633C24.3711 62.9065 24.3853 62.8544 24.4 62.8406C24.4034 62.8374 24.407 62.8346 24.4106 62.832C24.4252 62.8218 24.4413 62.8103 24.4536 62.7489C24.4678 62.6782 24.4756 62.5963 24.4852 62.5009C24.4974 62.3765 24.5137 62.229 24.5422 62.0522C24.5478 62.0173 24.5523 62.0056 24.5556 61.9967C24.5579 61.9904 24.5597 61.9854 24.5609 61.9748C24.5623 61.9627 24.5644 61.9373 24.5671 61.9052C24.5762 61.7921 24.5948 61.5947 24.6075 61.5875C24.611 61.5855 24.6139 61.5953 24.6167 61.6041C24.6207 61.617 24.6243 61.6277 24.6272 61.5954C24.6283 61.5831 24.6294 61.5698 24.6306 61.556C24.6341 61.5602 24.6377 61.5643 24.6413 61.5685C24.6439 61.6074 24.6514 61.6045 24.6604 61.6005C24.6626 61.5996 24.6649 61.5987 24.6673 61.5982C24.6748 61.6065 24.6825 61.6146 24.6903 61.6228C24.6965 61.6392 24.7032 61.6659 24.7114 61.7082C24.7278 61.793 24.7476 61.9326 24.7726 62.0685C24.783 62.1258 24.7944 62.1826 24.8064 62.2342C24.8036 62.2408 24.8012 62.2486 24.7996 62.2592C24.7886 62.3316 24.789 62.4726 24.7882 62.6025C24.7877 62.6889 24.7865 62.7704 24.7805 62.8231C24.7692 62.9198 24.7737 63.0321 24.7779 63.1151C24.78 63.1582 24.7817 63.1935 24.78 63.2145C24.7787 63.2314 24.7746 63.2394 24.7702 63.2478C24.7665 63.255 24.7625 63.2626 24.7602 63.2762C24.7314 63.4414 24.7406 63.5368 24.7602 63.6755C24.7707 63.752 24.784 63.8416 24.7929 63.9635C24.8012 64.0926 24.8012 64.1305 24.7797 64.1826C24.7989 64.246 24.8192 64.3092 24.8403 64.3723C24.8475 64.3679 24.8515 64.3278 24.8561 64.2612C24.8645 64.1423 24.9042 64.0969 24.9344 64.0608C24.9484 64.0441 24.9603 64.0294 24.9662 64.0107C24.9969 63.9112 24.9724 63.7782 24.9537 63.6611C24.9432 63.5966 24.934 63.5368 24.9334 63.4904C24.9331 63.4705 24.9295 63.4511 24.9258 63.4312C24.923 63.4159 24.9202 63.4003 24.9188 63.3841C24.9089 63.2667 24.9194 63.178 24.927 63.0957C24.9314 63.0485 24.935 63.0033 24.9345 62.9561C24.9343 62.9417 24.9338 62.927 24.9333 62.9128C24.9325 62.892 24.9318 62.8723 24.9321 62.8552C24.9328 62.8164 24.9397 62.7895 24.9467 62.7601C24.9503 62.745 24.954 62.7293 24.9569 62.7109C24.9606 62.6871 24.9568 62.6406 24.9527 62.592C24.9499 62.5577 24.9468 62.5223 24.9459 62.493C24.9443 62.4399 24.9524 62.4195 24.9596 62.4005C24.9627 62.3922 24.9657 62.384 24.9676 62.3737C24.9684 62.3695 24.9678 62.3615 24.9662 62.3506C24.9761 62.3116 24.9841 62.2719 24.9908 62.2331C25.0264 62.0373 25.0219 61.8733 25.13 61.9599C25.151 61.976 25.1649 61.9664 25.1735 61.9443C25.2375 61.9695 25.306 61.9915 25.3787 62.0093C25.4371 62.0987 25.4921 62.1706 25.5425 62.2229C25.6373 62.3207 25.6876 62.3241 25.7457 62.3265C25.7891 62.3279 25.837 62.3289 25.92 62.3601C26.0594 62.4123 26.1997 62.4346 26.3164 62.4004C26.4326 62.3668 26.5496 62.2988 26.6181 62.2367C26.6554 62.2035 26.7624 62.2202 26.865 62.2292C27.0086 62.243 27.1435 62.24 27.0284 62.1189C26.9916 62.0803 26.9217 62.0227 26.853 61.9679C26.804 61.9289 26.7559 61.8912 26.7208 61.862C26.7428 61.8523 26.7646 61.8421 26.7867 61.8316C26.8975 61.8542 27.0293 61.8524 26.9455 61.7491C26.9682 61.7363 26.9906 61.723 27.0129 61.7099C27.0604 61.6809 27.1073 61.6509 27.154 61.6185C27.1694 61.608 27.1849 61.5971 27.2003 61.5859C27.2004 61.5858 27.2006 61.5857 27.2008 61.5856C27.2318 61.5632 27.2627 61.5399 27.2933 61.5159C27.3064 61.5057 27.3194 61.4952 27.3324 61.4846C27.3653 61.4577 27.3979 61.4297 27.4302 61.4011C27.4474 61.386 27.4644 61.3701 27.4815 61.3543C27.5091 61.3287 27.5366 61.3019 27.5638 61.2744C27.6079 61.2296 27.6511 61.1843 27.6937 61.1358C27.7007 61.1279 27.7197 61.1221 27.7475 61.1198C27.7754 61.1175 27.8097 61.1187 27.8445 61.1238C27.8793 61.1289 27.9126 61.1375 27.9384 61.1483C27.9642 61.159 27.9801 61.1709 27.984 61.1813C28.008 61.2455 28.03 61.3099 28.0495 61.3772C28.0616 61.4185 28.0731 61.4605 28.0835 61.5025C28.0899 61.5283 28.0957 61.5547 28.1015 61.5808C28.1123 61.6301 28.1218 61.6806 28.13 61.7314C28.1333 61.7514 28.1363 61.7715 28.1392 61.7917C28.146 61.8391 28.1516 61.8872 28.156 61.9357C28.156 61.936 28.1561 61.9363 28.1561 61.9365C28.1582 61.9604 28.1602 61.9844 28.1619 62.0082C28.1669 62.0813 28.1696 62.1548 28.169 62.2303C28.1693 62.2696 28.1681 62.31 28.1663 62.3508C28.1653 62.3735 28.1642 62.3963 28.1629 62.4186C28.1621 62.4308 28.1611 62.4431 28.1601 62.4555C28.1391 62.7412 28.0807 63.0314 27.9818 63.3189C27.8836 63.6056 27.746 63.8878 27.5722 64.1549C27.3979 64.4224 27.1871 64.6749 26.9429 64.9039C26.1861 65.6226 25.0784 66.1047 23.8946 66.1469C22.676 66.2031 21.349 65.7739 20.3224 64.9179C20.0329 64.6793 19.76 64.401 19.5221 64.1027C19.2818 63.801 19.0741 63.4793 18.8973 63.1287C18.8435 63.0224 18.7918 62.9111 18.7427 62.7951Z" fill="black"/>
</svg>
