<svg width="30" height="81" viewBox="0 0 30 81" fill="none" xmlns="http://www.w3.org/2000/svg">
<path d="M1.87379 22.1896C0.557513 19.9061 0.851181 17.2271 0.834853 14.8464C0.834344 14.7933 0.83384 14.7403 0.833351 14.6871C0.779807 11.7777 0.912679 8.34331 2.84791 5.78366C4.76046 3.24435 7.48692 1.39131 10.4327 0.550594C12.2705 0.0197165 14.1851 -0.120741 16 0.101058C17.0932 0.233248 18.1632 0.494217 19.1737 0.873535C21.8645 1.87727 24.0906 3.7293 25.5118 5.93219C26.483 7.42733 27.0969 9.08391 27.3386 10.7298C27.4455 11.4522 27.4819 12.1714 27.4525 12.876C27.4303 13.4007 27.372 13.9204 27.2801 14.4233C27.2672 14.4935 27.2089 14.5614 27.1153 14.6108C27.0216 14.6603 26.9012 14.6872 26.7768 14.6871C26.6524 14.687 26.5318 14.6602 26.4378 14.6149C26.3441 14.5694 26.2851 14.509 26.2696 14.4457C26.159 13.9877 26.0177 13.5409 25.849 13.1156C25.6617 12.6418 25.4399 12.1913 25.1897 11.7676C25.6532 11.5413 25.9871 11.3124 26.0749 11.0509C26.1198 10.9178 26.095 10.7507 25.9624 10.6761C25.8434 10.609 25.6725 10.595 25.5104 10.5848C25.3407 10.5741 25.1806 10.5678 25.0966 10.5067C24.9538 10.4027 24.6948 10.3666 24.4258 10.342C24.3278 10.333 24.2283 10.3253 24.1322 10.3157C23.8324 9.9782 23.5128 9.66851 23.178 9.38762C23.1242 9.22343 23.0637 9.07566 22.9656 8.98899C22.8775 8.91118 22.7262 8.89994 22.5578 8.91178C22.5034 8.87376 22.4488 8.83649 22.3938 8.79991C22.0395 8.56357 21.6742 8.35642 21.3024 8.17948C21.1469 7.87763 20.9546 7.5676 20.6113 7.28372C20.4634 7.16181 20.3379 7.004 20.2093 6.85445C20.021 6.63419 19.8244 6.43185 19.5863 6.40862C19.4278 6.39329 19.3096 6.26766 19.1834 6.1438C19.0167 5.97846 18.8323 5.81614 18.589 5.94923C18.4365 6.03298 18.2903 6.14893 18.1594 6.25929C17.9513 6.43501 17.7818 6.59597 17.6624 6.58523C17.4382 6.56517 17.2193 6.69449 17.0395 6.81471C16.8201 6.95908 16.6539 7.08897 16.5217 6.92495C16.5016 6.9001 16.4785 6.86739 16.4522 6.83037C16.3554 6.69353 16.2098 6.50001 16 6.45725C15.9115 6.43916 15.8131 6.44839 15.7088 6.50104C15.5844 6.56396 15.474 6.72292 15.375 6.88048C15.2298 7.11006 15.1082 7.33563 14.9373 7.26486C14.9116 7.25429 14.8783 7.19966 14.8473 7.14994C14.808 7.0867 14.7723 7.03192 14.7653 7.08564C14.7445 7.24322 14.7032 7.42088 14.6654 7.61436C14.6375 7.7565 14.6117 7.90715 14.5942 8.06393C14.2445 8.22406 13.9148 8.40857 13.6066 8.61269C13.4656 8.70614 13.3284 8.80407 13.1963 8.90554C13.0207 8.73593 12.8457 8.59315 12.6847 8.50226C12.4738 8.38392 12.2902 8.41489 12.0555 8.46799C11.8825 8.50752 11.6816 8.55877 11.4082 8.58585C10.8976 8.63716 10.5825 9.00934 10.4861 9.31414C10.4649 9.37887 10.4459 9.44524 10.4272 9.51652C10.3591 9.78735 10.2756 10.1214 10.1148 10.6746C9.96675 11.1973 9.81811 11.5909 9.71904 11.895C9.66877 12.0501 9.63253 12.1793 9.62156 12.2845C9.60289 12.4639 9.57417 12.6784 9.55746 12.8925C9.5298 13.2279 9.53511 13.5632 9.59468 13.7564C9.61564 13.825 9.64435 13.8972 9.67637 13.9742C9.75911 14.1719 9.86475 14.3973 9.94378 14.6871C9.94993 14.7097 9.95594 14.7325 9.96179 14.7558C10.0486 15.0919 10.0144 15.2931 9.92277 15.5267C9.8859 15.6205 9.70591 15.7282 9.52306 15.8486C9.26335 16.017 8.99956 16.2183 9.13023 16.3791C9.16067 16.4162 9.21691 16.4492 9.27619 16.4828C9.38513 16.5447 9.50321 16.6052 9.49043 16.7075C9.48603 16.7433 9.44455 16.7872 9.40427 16.8308C9.35994 16.8787 9.31714 16.9265 9.32582 16.9617C9.35817 17.0927 9.41688 17.2115 9.47124 17.3146C9.54126 17.4477 9.6042 17.5566 9.5951 17.6468C9.579 17.8081 9.7153 17.9161 9.85401 18.0141C9.96042 18.0899 10.0688 18.161 10.1182 18.2627C10.2586 18.5551 10.6377 18.8497 11.103 19.0194C11.2784 19.0834 11.2822 19.2636 11.3059 19.504C11.3205 19.653 11.3425 19.825 11.4174 19.9965C11.4602 20.094 11.5927 20.0637 11.7118 20.0318C11.822 20.0027 11.9214 19.9728 11.9425 20.0489C11.9611 20.1161 11.8817 20.2825 11.8088 20.4423C11.7275 20.6199 11.6547 20.7894 11.7281 20.7981C11.7671 20.8025 11.8532 20.752 11.9535 20.6899C11.9932 20.6654 12.0351 20.6392 12.0774 20.6138C12.0562 20.6438 12.0378 20.671 12.024 20.6917C11.9265 20.8379 11.9298 20.9512 11.9365 21.063C11.9391 21.1076 11.9422 21.1519 11.9391 21.198C11.9273 21.368 12.0488 21.4697 12.1554 21.5215C12.2004 21.5435 12.2136 21.613 12.2307 21.6945C12.2457 21.7668 12.264 21.8486 12.3093 21.9134C12.3351 21.9503 12.3397 22.0096 12.3438 22.0591C12.3467 22.095 12.3494 22.1256 12.3597 22.1383C12.3686 22.1493 12.4 22.1086 12.4351 22.0625C12.4603 22.0294 12.4876 21.9934 12.5098 21.9721C12.563 21.9211 12.6015 21.9163 12.6131 21.9462C12.6185 21.96 12.6179 21.9814 12.6173 22.0026C12.6167 22.0274 12.6161 22.0523 12.6251 22.0652C12.6666 22.1246 12.7462 22.0971 12.827 22.067C12.9164 22.0341 13.0063 21.9978 13.0605 22.0741C13.0776 22.0981 13.0888 22.142 13.1001 22.1845C13.1118 22.2291 13.1239 22.2722 13.1417 22.2891C13.2145 22.3581 13.3387 22.2689 13.4488 22.1843C13.5223 22.1281 13.5899 22.0742 13.637 22.0718C13.7237 22.0677 13.8083 21.9354 13.8694 21.8375C13.9011 21.7867 13.9267 21.7449 13.9436 21.7348C13.9542 21.7423 13.9648 21.7505 13.9751 21.7591C13.9828 21.7729 13.9909 21.7871 14.0024 21.7865C14.0033 21.7865 14.0042 21.786 14.0051 21.786C14.0613 21.8397 14.1142 21.9074 14.1676 21.974C14.287 22.1237 14.419 22.2703 14.592 22.2364C14.6294 22.2291 14.6758 22.1741 14.7218 22.1177C14.7785 22.0487 14.8346 21.9775 14.8783 21.9899C14.9817 22.0193 15.0758 22.1351 15.1751 22.2476C15.3222 22.4165 15.4844 22.5775 15.6448 22.4213C15.6972 22.3697 15.7489 22.2818 15.7989 22.1926C15.8268 22.1429 15.8544 22.0927 15.8816 22.0487C15.8747 22.1311 15.8703 22.2085 15.8662 22.2806C15.8577 22.4293 15.8504 22.5566 15.8205 22.6642C15.7507 22.9186 15.659 23.2674 15.6575 23.5243C15.6573 23.594 15.6524 23.6715 15.6472 23.7495C15.6344 23.9451 15.6197 24.1451 15.6887 24.238C15.7343 24.3007 15.8596 24.4436 15.9413 24.294C15.959 24.2614 15.9698 24.1967 15.9816 24.1248C15.9872 24.0903 15.9931 24.0542 16 24.019C16.0191 23.9222 16.0461 23.8329 16.0986 23.8062C16.1107 23.8001 16.1238 23.7945 16.1373 23.7893C16.1913 23.7684 16.2512 23.7446 16.2704 23.6401C16.2924 23.5196 16.2822 23.3827 16.2712 23.2231C16.2564 23.0152 16.242 22.7683 16.2801 22.4688C16.2875 22.4095 16.3047 22.3887 16.3176 22.3728C16.3267 22.3617 16.3336 22.3527 16.3336 22.335C16.3335 22.3146 16.3287 22.2724 16.3226 22.219C16.3009 22.0305 16.2675 21.7014 16.3565 21.6832C16.3808 21.6782 16.4098 21.6924 16.436 21.705C16.4744 21.7237 16.5067 21.7387 16.507 21.6845C16.5071 21.6639 16.5066 21.6416 16.5058 21.6186C16.5355 21.623 16.5652 21.6272 16.5948 21.6312C16.6377 21.6923 16.69 21.6821 16.7553 21.668C16.7711 21.6646 16.7878 21.6611 16.8052 21.6582C16.8645 21.6649 16.9239 21.6708 16.9834 21.6763C17.0329 21.697 17.0876 21.7339 17.1514 21.7953C17.2785 21.9184 17.4134 22.1312 17.5541 22.336C17.6133 22.4223 17.6739 22.5072 17.7343 22.5833C17.7203 22.5973 17.7082 22.6128 17.7004 22.6323C17.647 22.7656 17.6607 23.002 17.671 23.2202C17.6779 23.3653 17.6835 23.5023 17.6659 23.5946C17.6335 23.7634 17.6716 23.9468 17.7011 24.0824C17.7163 24.1527 17.7287 24.2103 17.7261 24.2462C17.7239 24.2751 17.7098 24.291 17.6952 24.3074C17.6824 24.3217 17.6692 24.3366 17.6631 24.3605C17.5887 24.6512 17.6468 24.8028 17.7415 25.022C17.7934 25.143 17.8555 25.2844 17.908 25.4818C17.9601 25.6914 17.9668 25.7544 17.9089 25.8514C17.9831 25.9468 18.0587 26.0414 18.1358 26.1354C18.1571 26.1244 18.1621 26.0557 18.165 25.9426C18.1705 25.7407 18.2905 25.6434 18.383 25.5653C18.4258 25.5293 18.4626 25.4975 18.4793 25.4626C18.5677 25.2769 18.4775 25.0675 18.4027 24.8825C18.3612 24.7807 18.3237 24.6862 18.3178 24.6083C18.3153 24.5749 18.3007 24.5446 18.2861 24.5137C18.2748 24.4897 18.2633 24.4654 18.257 24.4391C18.2117 24.2479 18.2443 24.0908 18.2707 23.9449C18.2859 23.8614 18.2994 23.7813 18.2973 23.701C18.2967 23.6765 18.2948 23.6518 18.2928 23.6279C18.2899 23.593 18.2872 23.5597 18.2888 23.5302C18.2924 23.4629 18.3214 23.4106 18.3524 23.3533C18.3682 23.324 18.3846 23.2933 18.3982 23.2586C18.4159 23.2136 18.4047 23.136 18.3929 23.055C18.3845 22.9977 18.3759 22.9388 18.3762 22.888C18.3769 22.7962 18.4178 22.7511 18.4551 22.7088C18.4714 22.6904 18.4868 22.6723 18.4982 22.6515C18.5028 22.643 18.502 22.6293 18.4972 22.6116C18.5536 22.5294 18.604 22.4465 18.6511 22.3651C18.8896 21.9542 19.0368 21.6073 19.5132 21.584C19.604 21.5788 19.6801 21.5301 19.745 21.4606C20.035 21.3879 20.3261 21.2989 20.6165 21.1924C20.7672 21.3025 20.9151 21.3789 21.0574 21.4178C21.325 21.4903 21.4972 21.4136 21.6947 21.3167C21.8412 21.2445 22.0021 21.1613 22.238 21.1037C22.6343 21.0066 23.021 20.8477 23.3608 20.5691C23.7 20.2931 24.0361 19.9179 24.2369 19.6267C24.3466 19.4694 24.5834 19.3708 24.804 19.2662C25.114 19.1209 25.3919 18.9609 25.206 18.7131C25.1466 18.6341 25.0276 18.5325 24.9108 18.4358C24.8275 18.3669 24.7458 18.3003 24.6873 18.2448C24.7384 18.1816 24.7887 18.1173 24.8388 18.0522C25.0561 17.9871 25.315 17.8349 25.1882 17.5686C25.2365 17.4973 25.2837 17.4252 25.3298 17.3548C25.4282 17.2004 25.5223 17.0461 25.6133 16.8864C25.6433 16.8343 25.6729 16.7812 25.7023 16.7274C25.7026 16.7269 25.7029 16.7264 25.7032 16.7259C25.7623 16.6179 25.8198 16.5081 25.8755 16.3978C25.8992 16.3506 25.9227 16.303 25.9458 16.2551C26.0044 16.1338 26.061 16.0102 26.1155 15.8862C26.1444 15.8208 26.1727 15.7532 26.2005 15.6866C26.2457 15.578 26.2895 15.4668 26.3316 15.3546C26.3998 15.1721 26.4637 14.9913 26.5234 14.8033C26.5332 14.7726 26.5633 14.7432 26.6086 14.7214C26.6541 14.6996 26.7109 14.6871 26.7695 14.6871C26.8282 14.6871 26.8852 14.6999 26.9303 14.7227C26.9753 14.7455 27.0043 14.7766 27.0132 14.8088C27.067 15.0068 27.1152 15.2035 27.1573 15.4079C27.1833 15.5336 27.2075 15.6604 27.229 15.7868C27.2422 15.8644 27.2542 15.9438 27.2657 16.0218C27.2872 16.1696 27.3056 16.3201 27.3205 16.471C27.3264 16.5306 27.3318 16.5903 27.3368 16.6501C27.3484 16.7902 27.3569 16.9322 27.3625 17.0749C27.3626 17.0758 27.3626 17.0766 27.3626 17.0775C27.3653 17.1478 27.3675 17.2181 27.369 17.2877C27.3731 17.5023 27.3713 17.7164 27.3612 17.9362C27.3571 18.05 27.3496 18.1677 27.3404 18.286C27.3354 18.3517 27.3298 18.4174 27.324 18.482C27.3205 18.5172 27.3168 18.5528 27.3128 18.5887C27.2265 19.4133 27.0455 20.2396 26.7631 21.0552C26.4823 21.868 26.1031 22.6645 25.6337 23.4188C25.163 24.1748 24.6014 24.8893 23.9571 25.5434C21.9562 27.593 19.0961 29.0306 16 29.3809C12.8126 29.7701 9.33303 28.9788 6.49052 27.0847C5.69018 26.5571 4.92041 25.9294 4.23252 25.2448C3.53748 24.5526 2.91866 23.8044 2.36604 22.9785C2.19821 22.7281 2.03351 22.4648 1.87379 22.1896Z" fill="black"/>
<path d="M12.6702 32.6944C13.4388 32.5966 14.1785 33.5194 14.9498 33.5211C15.9074 33.5234 16.8803 32.6417 17.8401 32.8059C18.7944 32.9701 19.7533 33.206 20.7092 33.4968C21.6661 33.7876 22.6216 34.1332 23.579 34.5161C24.5343 34.8989 25.4918 35.3189 26.4479 35.7596C27.0973 36.0589 27.7474 36.3679 28.3968 36.6808C28.6819 36.8179 28.9661 36.9556 29.251 37.0939C29.4635 37.1972 29.6761 37.3006 29.8886 37.404C29.9182 37.4185 29.9465 37.4777 29.9674 37.5715C29.9883 37.6655 30 37.7859 30 37.9103C30 38.0347 29.9881 38.1554 29.9672 38.249C29.9462 38.3424 29.9179 38.4007 29.8883 38.4147C29.674 38.5149 29.4596 38.615 29.2453 38.7151C29.0072 38.8262 28.7695 38.9374 28.5315 39.0478C28.494 38.5373 28.4426 38.1501 28.3462 37.9791C28.297 37.8919 28.2253 37.8556 28.1725 37.9505C28.1251 38.0357 28.0894 38.1877 28.0554 38.3325C28.0199 38.484 27.9863 38.6278 27.9429 38.6786C27.8694 38.7648 27.7995 38.9815 27.7261 39.2092C27.6994 39.2921 27.6721 39.3765 27.6441 39.4566C27.4169 39.5604 27.1897 39.6634 26.9625 39.7655C26.8748 39.7111 26.7941 39.6672 26.7256 39.6881C26.6642 39.7069 26.608 39.8147 26.552 39.9489C26.5169 39.9645 26.4817 39.9801 26.4465 39.9958C26.2195 40.0963 25.9924 40.1951 25.7654 40.2931C25.5882 40.1569 25.4025 40.0246 25.161 39.9665C25.0569 39.9415 24.9543 39.8679 24.8556 39.7972C24.7098 39.6928 24.5726 39.5946 24.4524 39.668C24.372 39.7171 24.2875 39.6449 24.2031 39.573C24.09 39.4765 23.9771 39.3801 23.8748 39.5766C23.8105 39.7002 23.7514 39.8504 23.6966 39.9897C23.6095 40.2114 23.5334 40.4053 23.4645 40.4186C23.3351 40.4437 23.223 40.6052 23.1242 40.7476C23.0054 40.919 22.9057 41.0627 22.8182 40.9079C22.8049 40.8844 22.7897 40.8532 22.7726 40.8177C22.6825 40.6307 22.5384 40.3316 22.3316 40.496C22.2579 40.5546 22.1887 40.7067 22.121 40.8561C22.0224 41.0735 21.9266 41.2845 21.824 41.1906C21.8087 41.1765 21.7927 41.1176 21.7781 41.0638C21.7596 40.9954 21.7434 40.9357 21.7339 40.9877C21.7057 41.14 21.6611 41.3083 21.6127 41.4915C21.5771 41.6261 21.5393 41.7688 21.5045 41.9186C21.2388 42.0033 20.973 42.0844 20.7071 42.1611C20.5853 42.1963 20.4634 42.2306 20.3416 42.2641C20.2792 42.0348 20.2155 41.8282 20.1482 41.6719C20.0602 41.4676 19.9461 41.405 19.799 41.324C19.6908 41.2643 19.5647 41.1946 19.4179 41.0516C19.1462 40.7871 18.8672 40.8464 18.6884 40.9883C18.6505 41.0183 18.6125 41.0503 18.5719 41.0852C18.4176 41.2173 18.2252 41.3828 17.8596 41.5653C17.5138 41.7379 17.2197 41.7826 16.9988 41.8163C16.886 41.8334 16.7923 41.8473 16.7204 41.8741C16.5976 41.9202 16.4467 41.9612 16.2952 42.0021C16.0581 42.0662 15.8196 42.1304 15.6845 42.2159C15.6365 42.2464 15.586 42.2841 15.5315 42.3244C15.3806 42.436 15.1982 42.5707 14.9468 42.6485C14.683 42.7302 14.5195 42.6745 14.3496 42.5535C14.2805 42.5043 14.2196 42.3097 14.1569 42.1087C14.0678 41.8235 13.9749 41.5258 13.8492 41.6146C13.8199 41.6353 13.7886 41.6817 13.7559 41.7304C13.6957 41.8197 13.6307 41.9166 13.5641 41.8741C13.5408 41.8593 13.5204 41.8065 13.5003 41.7547C13.4783 41.6978 13.4566 41.6421 13.4321 41.639C13.3406 41.6274 13.2515 41.6406 13.1723 41.6524C13.0703 41.6676 12.9847 41.6803 12.9315 41.6341C12.8369 41.5517 12.7333 41.6255 12.6285 41.7005C12.5484 41.7578 12.4675 41.8161 12.3892 41.8053C12.1654 41.7743 11.8576 41.9148 11.5405 42.1489C11.4205 42.2374 11.3189 42.1165 11.1886 41.9613C11.1076 41.8647 11.0155 41.7544 10.901 41.6737C10.8361 41.6279 10.7812 41.7357 10.7303 41.8352C10.6834 41.9268 10.6399 42.0116 10.5954 41.9637C10.556 41.9214 10.5311 41.7403 10.5075 41.5683C10.4812 41.3769 10.4564 41.1969 10.415 41.232C10.393 41.2507 10.3662 41.3413 10.3343 41.4489C10.3217 41.4914 10.3083 41.5365 10.294 41.5811C10.2948 41.5444 10.2949 41.5115 10.295 41.4867C10.295 41.311 10.2528 41.2184 10.2113 41.1278C10.1947 41.0916 10.1783 41.0559 10.1647 41.0151C10.1149 40.865 10.0205 40.8406 9.94843 40.8475C9.91792 40.8504 9.89028 40.796 9.85802 40.7324C9.82938 40.6759 9.7971 40.6122 9.75594 40.5752C9.73246 40.5541 9.71443 40.5032 9.69952 40.4607C9.68873 40.4299 9.67954 40.4036 9.67102 40.3967C9.66365 40.3907 9.65769 40.4411 9.65099 40.4978C9.64618 40.5386 9.64094 40.5829 9.63451 40.6118C9.61915 40.6807 9.59939 40.7015 9.58554 40.6794C9.57913 40.6691 9.57408 40.6495 9.56906 40.63C9.56321 40.6073 9.55739 40.5844 9.54937 40.5764C9.51258 40.5397 9.4768 40.5972 9.43962 40.6568C9.39876 40.7224 9.35614 40.7905 9.3087 40.7397C9.29377 40.7237 9.27787 40.687 9.26247 40.6514C9.24635 40.6141 9.23069 40.5781 9.21738 40.5685C9.16331 40.5296 9.1125 40.6552 9.06575 40.7708C9.03465 40.8476 9.00531 40.9199 8.97808 40.9365C8.92817 40.9668 8.90137 41.1176 8.88161 41.2289C8.87138 41.2866 8.86302 41.334 8.85426 41.3484C8.84623 41.3442 8.83808 41.3392 8.83011 41.3337C8.8228 41.3226 8.81523 41.3112 8.80814 41.3148C8.8076 41.3151 8.80707 41.3158 8.80654 41.3161C8.7619 41.2795 8.71805 41.2277 8.67447 41.1759C8.57661 41.0598 8.47994 40.9448 8.37773 41.0096C8.35571 41.0236 8.33326 41.0859 8.31044 41.1491C8.28247 41.2266 8.25386 41.3059 8.22472 41.3002C8.15527 41.2866 8.08515 41.1839 8.0161 41.0827C7.91223 40.9305 7.81072 40.7819 7.71741 40.945C7.68661 40.9989 7.65656 41.0886 7.62643 41.179C7.60963 41.2294 7.59275 41.2802 7.57573 41.3246C7.57934 41.2421 7.58126 41.1647 7.58305 41.0925C7.58675 40.9436 7.58994 40.8162 7.60629 40.708C7.64494 40.4523 7.68874 40.1002 7.68388 39.8435C7.68256 39.7738 7.68362 39.6962 7.68479 39.618C7.68772 39.422 7.6907 39.2218 7.65481 39.1312C7.63062 39.0702 7.56846 38.9301 7.52892 39.0801C7.52032 39.1127 7.51507 39.1775 7.50924 39.2494C7.49876 39.3787 7.48628 39.5318 7.44882 39.5675C7.44251 39.5735 7.43565 39.5789 7.42856 39.5839C7.40029 39.604 7.36864 39.6262 7.35681 39.7301C7.34318 39.8499 7.34609 39.987 7.34948 40.1469C7.3539 40.3551 7.35915 40.6024 7.3298 40.9005C7.32398 40.9595 7.31289 40.9797 7.30451 40.995C7.2986 41.0058 7.29409 41.0144 7.29364 41.0321C7.29313 41.0525 7.29501 41.0949 7.29741 41.1485C7.30588 41.3377 7.32058 41.6682 7.25919 41.6822C7.24258 41.686 7.22358 41.6703 7.20655 41.656C7.18144 41.6351 7.16059 41.6178 7.15779 41.6719C7.15675 41.6924 7.156 41.7146 7.15539 41.7377C7.1354 41.7312 7.11541 41.7247 7.09542 41.7182C7.06979 41.6537 7.0338 41.6592 6.98888 41.6664C6.97798 41.6681 6.96649 41.6697 6.95455 41.6707C6.91511 41.6573 6.87565 41.644 6.83622 41.6304C6.80495 41.6031 6.77167 41.5586 6.73654 41.4879C6.66616 41.3462 6.60491 41.1126 6.54508 40.8841C6.51987 40.7878 6.49488 40.6923 6.46955 40.6051C6.47942 40.5943 6.48832 40.5817 6.49518 40.5642C6.54211 40.4449 6.56095 40.2101 6.57827 39.994C6.58979 39.8502 6.60066 39.7146 6.61867 39.6272C6.65163 39.4669 6.64832 39.2796 6.6459 39.141C6.64465 39.0691 6.64369 39.0102 6.64808 38.9753C6.65161 38.9473 6.65979 38.9341 6.66822 38.9204C6.67557 38.9085 6.68316 38.8961 6.68802 38.8735C6.74697 38.5992 6.72924 38.44 6.70347 38.2082C6.68925 38.0804 6.67264 37.9304 6.66501 37.7269C6.65847 37.5114 6.66067 37.4484 6.69156 37.3625C6.66749 37.2561 6.64342 37.1497 6.61935 37.0433C6.60991 37.0502 6.60275 37.1167 6.59269 37.2273C6.57472 37.4247 6.51619 37.4969 6.47046 37.5532C6.44929 37.5794 6.43086 37.6022 6.42045 37.6325C6.36513 37.7934 6.38122 38.0176 6.39539 38.2149C6.40319 38.3235 6.41038 38.424 6.40478 38.5013C6.40239 38.5343 6.4058 38.5671 6.40924 38.6006C6.4119 38.6264 6.41462 38.6527 6.41473 38.6798C6.41546 38.8762 6.38273 39.022 6.35236 39.1574C6.33497 39.235 6.31839 39.3094 6.30922 39.3877C6.30643 39.4116 6.30421 39.436 6.30212 39.4596C6.29908 39.4942 6.29612 39.5271 6.29148 39.5553C6.28091 39.6195 6.25915 39.6628 6.23529 39.71C6.22306 39.7342 6.21029 39.7595 6.19821 39.7892C6.18256 39.8278 6.17693 39.9055 6.17097 39.9866C6.16677 40.044 6.16236 40.1031 6.15427 40.1518C6.1396 40.2398 6.10999 40.2715 6.08251 40.301C6.07054 40.3139 6.05897 40.3266 6.04921 40.3431C6.04524 40.3498 6.04333 40.3631 6.04292 40.3815C5.9978 40.4429 5.95472 40.5058 5.9128 40.5673C5.70259 40.8757 5.52064 41.1431 5.24893 40.9493C5.19756 40.9126 5.14239 40.92 5.08665 40.9493C4.90833 40.8722 4.7299 40.7927 4.55164 40.7111C4.51636 40.534 4.47319 40.3854 4.42209 40.2687C4.32613 40.0497 4.22741 40.0029 4.11093 39.9477C4.02481 39.9068 3.92897 39.8612 3.81728 39.7381C3.62963 39.5312 3.43696 39.3562 3.21955 39.2653C3.0031 39.1747 2.75527 39.108 2.57995 39.0843C2.48437 39.0714 2.38398 38.9131 2.29041 38.7657C2.1588 38.5584 2.0407 38.3726 1.96861 38.642C1.94558 38.7281 1.92332 38.8776 1.90166 39.0228C1.88623 39.1262 1.87101 39.2272 1.85611 39.3024C1.81642 39.2791 1.7767 39.256 1.73698 39.2324C1.66641 39.0528 1.55676 38.8604 1.45076 39.0606C1.40979 39.0358 1.3688 39.0112 1.32923 38.9862C1.24287 38.934 1.15837 38.8811 1.07311 38.8278C1.04528 38.8102 1.01717 38.7926 0.988995 38.7748C0.988728 38.7746 0.988461 38.7744 0.988194 38.7742C0.931478 38.7385 0.874334 38.7025 0.818135 38.6664C0.794064 38.6509 0.769994 38.6355 0.745923 38.6201C0.684753 38.5809 0.623141 38.5416 0.562589 38.5019C0.530541 38.4807 0.498184 38.4598 0.465773 38.4385C0.413191 38.404 0.36021 38.3693 0.307502 38.3343C0.22226 38.2778 0.137418 38.2207 0.0524138 38.1631C0.0385121 38.1536 0.0251529 38.1237 0.0153351 38.0784C0.00552071 38.0331 -1.50035e-05 37.9762 3.05403e-08 37.9176C1.92526e-05 37.859 0.00560174 37.8019 0.0154495 37.7567C0.0252907 37.7117 0.0386362 37.6825 0.0525282 37.6733C0.137593 37.6173 0.222543 37.5619 0.307845 37.5069C0.360564 37.473 0.413524 37.4387 0.466116 37.4052C0.498543 37.3845 0.530869 37.3642 0.562933 37.3437C0.62349 37.3051 0.685205 37.2665 0.746381 37.2285C0.770452 37.2135 0.794522 37.1985 0.818593 37.1834C0.874942 37.1482 0.932243 37.1134 0.989109 37.0786C0.989452 37.0784 0.989796 37.0782 0.990139 37.078C1.01812 37.0609 1.04605 37.0438 1.07368 37.0268C1.15898 36.9751 1.24352 36.9239 1.32991 36.8733C1.37455 36.846 1.42107 36.8193 1.46724 36.7923C1.49295 36.7772 1.51861 36.7621 1.5438 36.7472C1.55758 36.7392 1.57154 36.7314 1.58557 36.7234C1.90771 36.5361 2.22758 36.3559 2.55042 36.183C2.87205 36.0101 3.19425 35.8444 3.5155 35.6852C3.83752 35.5261 4.15897 35.3738 4.48069 35.2277C6.52244 34.2999 8.57237 33.5391 10.6232 33.063C10.9157 32.9946 11.2158 32.933 11.5089 32.8778C11.8052 32.8225 12.0955 32.7734 12.3925 32.7315C12.4828 32.7184 12.5753 32.7061 12.6702 32.6944Z" fill="black"/>
<path d="M19.9927 57.5807C20.0905 58.6055 19.1677 59.5918 19.166 60.6202C19.1637 61.897 20.0455 63.1942 19.8812 64.4739C19.717 65.7463 19.4811 67.0248 19.1903 68.2993C18.8995 69.5752 18.5539 70.8492 18.171 72.1257C17.7882 73.3996 17.3682 74.6761 16.9275 75.951C16.6282 76.8168 16.3192 77.6837 16.0063 78.5495C15.8692 78.9296 15.7315 79.3085 15.5932 79.6884C15.4899 79.9718 15.3865 80.2552 15.2831 80.5386C15.2686 80.578 15.2094 80.6158 15.1156 80.6436C15.0216 80.6714 14.9012 80.6871 14.7768 80.6871C14.6524 80.6871 14.5318 80.6712 14.4381 80.6433C14.3447 80.6154 14.2864 80.5776 14.2724 80.5382C14.1722 80.2524 14.0721 79.9666 13.972 79.6808C13.8609 79.3633 13.7497 79.0465 13.6393 78.7291C14.1498 78.6791 14.537 78.6106 14.708 78.4821C14.7952 78.4165 14.8315 78.3209 14.7366 78.2504C14.6514 78.1872 14.4994 78.1396 14.3546 78.0943C14.2031 78.047 14.0593 78.0021 14.0085 77.9444C13.9223 77.8463 13.7056 77.7531 13.4779 77.6552C13.395 77.6196 13.3106 77.5833 13.2305 77.5459C13.1267 77.243 13.0237 76.94 12.9216 76.6371C12.976 76.5201 13.0199 76.4126 12.999 76.3213C12.9802 76.2394 12.8724 76.1644 12.7382 76.0898C12.7226 76.0429 12.707 75.996 12.6913 75.9491C12.5908 75.6465 12.492 75.3437 12.394 75.0409C12.5302 74.8047 12.6625 74.5571 12.7206 74.2351C12.7456 74.0964 12.8193 73.9595 12.8899 73.8279C12.9943 73.6335 13.0925 73.4506 13.0191 73.2903C12.9701 73.1831 13.0422 73.0704 13.1142 72.958C13.2106 72.8071 13.307 72.6566 13.1105 72.5202C12.9869 72.4344 12.8367 72.3556 12.6974 72.2826C12.4757 72.1665 12.2819 72.065 12.2685 71.9732C12.2434 71.8006 12.0819 71.6511 11.9395 71.5194C11.7682 71.3609 11.6244 71.228 11.7793 71.1113C11.8027 71.0936 11.8339 71.0734 11.8694 71.0506C12.0564 70.9305 12.3555 70.7383 12.1911 70.4625C12.1326 70.3643 11.9804 70.2721 11.831 70.1818C11.6137 70.0503 11.4026 69.9226 11.4966 69.7858C11.5106 69.7654 11.5695 69.744 11.6233 69.7246C11.6917 69.6999 11.7514 69.6783 11.6994 69.6656C11.5471 69.6281 11.3788 69.5686 11.1956 69.504C11.061 69.4565 10.9183 69.4062 10.7685 69.3598C10.6838 69.0055 10.6028 68.6511 10.526 68.2966C10.4908 68.1342 10.4565 67.9717 10.423 67.8092C10.6523 67.7261 10.8589 67.6411 11.0152 67.5513C11.2195 67.434 11.2821 67.2819 11.3631 67.0858C11.4228 66.9415 11.4925 66.7733 11.6355 66.5777C11.9 66.2154 11.8407 65.8434 11.6988 65.6049C11.6688 65.5545 11.6368 65.5038 11.602 65.4496C11.4698 65.2439 11.3043 64.9873 11.1219 64.4999C10.9492 64.0388 10.9045 63.6467 10.8708 63.3521C10.8537 63.2018 10.8399 63.0768 10.813 62.981C10.7669 62.8172 10.726 62.616 10.685 62.414C10.6209 62.0979 10.5567 61.7799 10.4712 61.5998C10.4407 61.5357 10.403 61.4684 10.3627 61.3958C10.2511 61.1945 10.1164 60.9514 10.0386 60.6162C9.9569 60.2644 10.0126 60.0464 10.1336 59.8199C10.1828 59.7278 10.3774 59.6466 10.5784 59.5629C10.8636 59.4442 11.1613 59.3203 11.0725 59.1528C11.0518 59.1136 11.0054 59.0719 10.9567 59.0283C10.8674 58.9481 10.7705 58.8613 10.813 58.7725C10.8278 58.7415 10.8806 58.7143 10.9324 58.6875C10.9893 58.6581 11.045 58.6293 11.0481 58.5966C11.0597 58.4745 11.0465 58.3558 11.0347 58.2502C11.0195 58.1141 11.0068 58 11.053 57.9292C11.1354 57.8029 11.0617 57.6649 10.9866 57.5251C10.9293 57.4183 10.871 57.3105 10.8818 57.2061C10.9128 56.9077 10.7723 56.4973 10.5382 56.0745C10.4497 55.9145 10.5706 55.7789 10.7258 55.6053C10.8224 55.4972 10.9327 55.3745 11.0134 55.2218C11.0592 55.1353 10.9515 55.062 10.852 54.9942C10.7603 54.9316 10.6755 54.8737 10.7234 54.8142C10.7657 54.7618 10.9468 54.7286 11.1188 54.6971C11.3102 54.662 11.4902 54.629 11.4551 54.5738C11.4364 54.5444 11.3458 54.5087 11.2382 54.4662C11.1957 54.4494 11.1506 54.4315 11.106 54.4125C11.1427 54.4135 11.1756 54.4137 11.2005 54.4137C11.3761 54.4138 11.4687 54.3574 11.5593 54.3022C11.5955 54.2801 11.6312 54.2581 11.672 54.2401C11.8221 54.1736 11.8465 54.0478 11.8396 53.9517C11.8367 53.911 11.8911 53.8741 11.9547 53.8311C12.0112 53.7929 12.0749 53.7499 12.1119 53.695C12.133 53.6637 12.1839 53.6397 12.2265 53.6198C12.2572 53.6054 12.2835 53.5932 12.2904 53.5818C12.2964 53.572 12.246 53.564 12.1893 53.5551C12.1485 53.5487 12.1042 53.5417 12.0754 53.5331C12.0064 53.5126 11.9856 53.4863 12.0077 53.4678C12.018 53.4593 12.0376 53.4525 12.0571 53.4458C12.0798 53.438 12.1027 53.4303 12.1107 53.4196C12.1474 53.3705 12.0899 53.3228 12.0303 53.2733C11.9647 53.2188 11.8966 53.162 11.9474 53.0987C11.9634 53.0788 12.0001 53.0576 12.0358 53.0371C12.073 53.0156 12.109 52.9947 12.1186 52.9769C12.1575 52.9049 12.0319 52.8371 11.9163 52.7748C11.8395 52.7333 11.7672 52.6942 11.7506 52.6579C11.7203 52.5913 11.5695 52.5556 11.4582 52.5293C11.4005 52.5156 11.3531 52.5045 11.3388 52.4928C11.343 52.4821 11.3479 52.4712 11.3534 52.4606C11.3645 52.4508 11.3759 52.4408 11.3723 52.4313C11.372 52.4306 11.3713 52.4299 11.371 52.4292C11.4076 52.3696 11.4595 52.3112 11.5112 52.2531C11.6273 52.1226 11.7423 51.9937 11.6775 51.8574C11.6635 51.828 11.6013 51.7981 11.538 51.7677C11.4605 51.7304 11.3812 51.6923 11.3869 51.6534C11.4005 51.5608 11.5032 51.4673 11.6044 51.3752C11.7566 51.2368 11.9052 51.1014 11.7421 50.977C11.6882 50.9359 11.5985 50.8959 11.5081 50.8557C11.4577 50.8333 11.4069 50.8108 11.3625 50.7881C11.445 50.7929 11.5224 50.7955 11.5946 50.7978C11.7435 50.8028 11.8709 50.807 11.9791 50.8288C12.2348 50.8804 12.5869 50.9388 12.8436 50.9323C12.9133 50.9305 12.9909 50.9319 13.0691 50.9335C13.2651 50.9374 13.4653 50.9414 13.5559 50.8935C13.6169 50.8613 13.757 50.7784 13.607 50.7257C13.5744 50.7142 13.5096 50.7072 13.4377 50.6994C13.3084 50.6854 13.1553 50.6688 13.1196 50.6189C13.1136 50.6105 13.1082 50.6013 13.1032 50.5919C13.0831 50.5542 13.0609 50.512 12.957 50.4962C12.8372 50.478 12.7001 50.4819 12.5402 50.4864C12.332 50.4923 12.0847 50.4993 11.7866 50.4602C11.7276 50.4524 11.7074 50.4376 11.6921 50.4264C11.6813 50.4186 11.6727 50.4126 11.655 50.412C11.6346 50.4113 11.5922 50.4138 11.5386 50.417C11.3494 50.4283 11.0189 50.4479 11.0049 50.366C11.0011 50.3439 11.0169 50.3186 11.0311 50.2958C11.052 50.2624 11.0693 50.2346 11.0152 50.2308C10.9947 50.2294 10.9725 50.2284 10.9494 50.2276C10.9559 50.201 10.9624 50.1743 10.9689 50.1477C11.0334 50.1135 11.0279 50.0655 11.0207 50.0056C11.019 49.9911 11.0174 49.9758 11.0165 49.9598C11.0298 49.9073 11.0431 49.8546 11.0567 49.8021C11.084 49.7604 11.1285 49.716 11.1992 49.6692C11.3409 49.5753 11.5745 49.4937 11.803 49.4139C11.8993 49.3803 11.9948 49.347 12.0821 49.3132C12.0928 49.3263 12.1054 49.3382 12.1229 49.3474C12.2422 49.4099 12.477 49.435 12.6931 49.4581C12.8369 49.4735 12.9725 49.488 13.0599 49.512C13.2202 49.5559 13.4076 49.5515 13.5461 49.5483C13.618 49.5466 13.6769 49.5454 13.7118 49.5512C13.7399 49.5559 13.753 49.5668 13.7667 49.5781C13.7786 49.5879 13.791 49.598 13.8136 49.6045C14.0879 49.6831 14.2471 49.6594 14.4789 49.6251C14.6067 49.6061 14.7567 49.584 14.9602 49.5738C15.1757 49.5651 15.2387 49.568 15.3246 49.6092C15.431 49.5771 15.5374 49.545 15.6438 49.5129C15.6369 49.5003 15.5704 49.4908 15.4598 49.4774C15.2624 49.4534 15.1902 49.3754 15.1339 49.3144C15.1078 49.2862 15.0849 49.2616 15.0547 49.2477C14.8937 49.1739 14.6695 49.1954 14.4722 49.2143C14.3636 49.2247 14.2631 49.2343 14.1858 49.2268C14.1528 49.2236 14.12 49.2282 14.0865 49.2328C14.0607 49.2363 14.0344 49.2399 14.0073 49.2401C13.8109 49.241 13.6651 49.1974 13.5297 49.1569C13.4521 49.1337 13.3777 49.1116 13.2994 49.0994C13.2755 49.0957 13.2511 49.0927 13.2275 49.0899C13.1929 49.0859 13.16 49.0819 13.1318 49.0757C13.0676 49.0617 13.0243 49.0326 12.9771 49.0008C12.9529 48.9845 12.9276 48.9675 12.8979 48.9514C12.8593 48.9305 12.7816 48.923 12.7005 48.9151C12.6431 48.9095 12.584 48.9036 12.5353 48.8928C12.4473 48.8732 12.4156 48.8338 12.3861 48.7971C12.3732 48.7812 12.3605 48.7657 12.344 48.7527C12.3373 48.7474 12.324 48.7449 12.3057 48.7443C12.2442 48.6842 12.1814 48.6267 12.1198 48.5708C11.8114 48.2906 11.544 48.048 11.7378 47.6857C11.7745 47.6172 11.7672 47.5436 11.7378 47.4693C11.8149 47.2315 11.8944 46.9936 11.976 46.756C12.1531 46.7089 12.3017 46.6514 12.4184 46.5832C12.6374 46.4553 12.6842 46.3237 12.7395 46.1683C12.7803 46.0535 12.8259 45.9257 12.949 45.7768C13.1559 45.5266 13.3309 45.2697 13.4218 44.9798C13.5124 44.6912 13.5791 44.3608 13.6028 44.127C13.6157 43.9996 13.7741 43.8657 13.9214 43.741C14.1287 43.5655 14.3145 43.408 14.0451 43.3119C13.959 43.2812 13.8095 43.2515 13.6643 43.2227C13.5609 43.2021 13.4599 43.1818 13.3847 43.1619C13.408 43.109 13.4311 43.056 13.4547 43.0031C13.6343 42.909 13.8268 42.7628 13.6265 42.6215C13.6513 42.5668 13.6759 42.5122 13.7009 42.4594C13.7531 42.3443 13.806 42.2316 13.8593 42.1179C13.8769 42.0808 13.8945 42.0433 13.9123 42.0058C13.9125 42.0054 13.9127 42.0051 13.9129 42.0047C13.9486 41.9291 13.9846 41.8529 14.0207 41.778C14.0362 41.7459 14.0516 41.7138 14.067 41.6817C14.1062 41.6001 14.1455 41.518 14.1852 41.4372C14.2064 41.3945 14.2273 41.3514 14.2486 41.3081C14.2831 41.238 14.3178 41.1674 14.3528 41.0971C14.4093 40.9835 14.4664 40.8703 14.524 40.757C14.5335 40.7385 14.5634 40.7206 14.6087 40.7076C14.654 40.6945 14.7109 40.6871 14.7695 40.6871C14.8282 40.6871 14.8852 40.6946 14.9304 40.7077C14.9754 40.7208 15.0046 40.7386 15.0138 40.7571C15.0698 40.8706 15.1252 40.9838 15.1802 41.0976C15.2141 41.1679 15.2484 41.2385 15.2819 41.3086C15.3026 41.3518 15.3229 41.3949 15.3434 41.4377C15.382 41.5184 15.4206 41.6007 15.4586 41.6823C15.4736 41.7144 15.4887 41.7465 15.5037 41.7786C15.5389 41.8537 15.5737 41.9301 15.6085 42.0059C15.6087 42.0064 15.6089 42.0068 15.6091 42.0073C15.6262 42.0446 15.6433 42.0818 15.6603 42.1187C15.712 42.2324 15.7632 42.3451 15.8138 42.4603C15.8411 42.5198 15.8678 42.5819 15.8948 42.6434C15.9099 42.6777 15.925 42.7119 15.9399 42.7455C15.9479 42.7639 15.9558 42.7825 15.9637 42.8012C16.151 43.2307 16.3312 43.6572 16.5041 44.0877C16.677 44.5165 16.8427 44.9461 17.0019 45.3744C17.161 45.8038 17.3133 46.2324 17.4594 46.6614C18.3873 49.3837 19.148 52.1169 19.6241 54.8513C19.6925 55.2414 19.7541 55.6416 19.8094 56.0324C19.8646 56.4274 19.9137 56.8144 19.9556 57.2105C19.9687 57.3308 19.981 57.4541 19.9927 57.5807Z" fill="black"/>
</svg>
