<svg width="66" height="68" viewBox="0 0 66 68" fill="none" xmlns="http://www.w3.org/2000/svg">
<path d="M19.8237 19.6088C20.5155 20.4388 21.9003 20.5186 22.6651 21.2809C23.6147 22.2272 23.9543 23.8138 25.0206 24.6479C26.0814 25.4765 27.1974 26.2589 28.3493 26.9996C29.5022 27.7412 30.6925 28.4427 31.911 29.1198C33.1275 29.7948 34.3723 30.4457 35.6304 31.0806C36.485 31.5118 37.3471 31.9369 38.2111 32.3585C38.5903 32.5437 38.969 32.7277 39.3488 32.912C39.6323 33.0493 39.9158 33.1867 40.1993 33.324C40.2389 33.3429 40.3087 33.3291 40.3958 33.2835C40.4829 33.2376 40.5797 33.1642 40.6676 33.0762C40.7555 32.9882 40.8291 32.8911 40.8746 32.8042C40.9199 32.7174 40.9331 32.6481 40.9137 32.6089C40.7723 32.3259 40.6309 32.0429 40.4895 31.76C40.3324 31.4457 40.1758 31.1318 40.0182 30.8181C39.6201 31.142 39.2954 31.3649 39.0791 31.3904C38.9687 31.4034 38.8721 31.358 38.8869 31.2386C38.9002 31.1314 38.9723 30.9886 39.0411 30.8526C39.1131 30.7104 39.1814 30.5754 39.1745 30.4966C39.1626 30.3628 39.2467 30.1403 39.335 29.9066C39.3672 29.8216 39.3999 29.7349 39.4288 29.6506C39.2773 29.3523 39.1252 29.0545 38.9725 28.7574C38.8471 28.709 38.7362 28.6602 38.6832 28.5776C38.6358 28.5036 38.6563 28.3716 38.6958 28.2214C38.672 28.1755 38.6482 28.1296 38.6245 28.0838C38.4708 27.788 38.3159 27.4933 38.1604 27.1992C37.8887 27.1201 37.6113 27.0298 37.3312 26.8318C37.2105 26.7465 37.0568 26.697 36.9091 26.6492C36.6909 26.5787 36.4858 26.5124 36.4186 26.3414C36.3737 26.2272 36.239 26.1945 36.1047 26.1619C35.9245 26.1182 35.7446 26.0745 35.7822 25.8343C35.8059 25.6832 35.8536 25.5185 35.8979 25.3658C35.9685 25.1229 36.0302 24.9104 35.9715 24.8328C35.861 24.6869 35.8643 24.4617 35.8672 24.2632C35.8707 24.0244 35.8737 23.8241 35.6776 23.847C35.6478 23.8504 35.6107 23.8575 35.5687 23.8656C35.3473 23.9087 34.9931 23.9775 34.9046 23.6565C34.8731 23.5422 34.9122 23.3661 34.9508 23.1934C35.0069 22.9421 35.0612 22.698 34.8933 22.6629C34.8682 22.6577 34.8107 22.6835 34.7583 22.7071C34.6916 22.7371 34.6333 22.7633 34.6606 22.7171C34.7404 22.5816 34.8153 22.4184 34.8969 22.2408C34.9568 22.1104 35.0203 21.9721 35.0918 21.8318C34.8886 21.5088 34.6828 21.1884 34.4739 20.8709C34.3782 20.7254 34.2818 20.5805 34.1848 20.4362C33.961 20.5367 33.7518 20.6197 33.5746 20.6635C33.3431 20.7208 33.1859 20.6521 32.983 20.5639C32.8337 20.4989 32.6595 20.4234 32.4131 20.3792C31.9571 20.2973 31.7228 19.9791 31.6461 19.7018C31.6299 19.6431 31.6149 19.5828 31.5993 19.518C31.54 19.2718 31.4665 18.9643 31.2336 18.4734C31.0134 18.009 30.7539 17.6862 30.559 17.4437C30.4595 17.3199 30.3765 17.2174 30.3244 17.1272C30.2353 16.9731 30.1149 16.7947 29.9939 16.6158C29.8045 16.3358 29.6137 16.0542 29.5406 15.86C29.5145 15.7909 29.4912 15.7143 29.4658 15.6319C29.3953 15.4035 29.31 15.1278 29.1162 14.8239C28.9127 14.5049 28.7115 14.3824 28.4577 14.2998C28.3546 14.2663 28.1567 14.3435 27.9524 14.4236C27.6626 14.5371 27.3601 14.6556 27.2985 14.4684C27.2841 14.4247 27.2859 14.3609 27.2879 14.2941C27.2916 14.1714 27.2957 14.0385 27.1997 14.0026C27.1662 13.9901 27.1086 14.0072 27.0522 14.0239C26.9901 14.0423 26.9293 14.0603 26.9028 14.0382C26.804 13.9558 26.7251 13.8583 26.6551 13.7716C26.5648 13.6598 26.4891 13.5661 26.4038 13.5462C26.2519 13.5107 26.2015 13.3561 26.1508 13.1992C26.112 13.0794 26.0732 12.9581 25.988 12.8882C25.7445 12.6886 25.5392 12.2846 25.3908 11.8051C25.3346 11.6237 25.1485 11.6086 24.9098 11.5894C24.7613 11.5775 24.5921 11.5643 24.4217 11.5081C24.3251 11.4762 24.3469 11.3456 24.3669 11.2249C24.3853 11.1136 24.4022 11.0107 24.3242 11.0004C24.2553 10.9913 24.1026 11.0948 23.9576 11.193C23.7962 11.3023 23.6444 11.4051 23.6282 11.3392C23.6196 11.3042 23.6572 11.2136 23.7017 11.106C23.7194 11.0634 23.7379 11.0183 23.7553 10.9726C23.7301 10.9993 23.707 11.0227 23.6895 11.0403C23.5653 11.1646 23.458 11.1882 23.3529 11.2113C23.3109 11.2205 23.2693 11.2294 23.2271 11.2449C23.0716 11.3017 22.9609 11.2255 22.8945 11.1492C22.8664 11.117 22.8005 11.1281 22.7236 11.1411C22.6553 11.1527 22.5783 11.1658 22.5114 11.1512C22.4732 11.1429 22.4193 11.1611 22.3745 11.1764C22.3421 11.1874 22.3144 11.1969 22.3011 11.1934C22.2896 11.1903 22.3193 11.1488 22.3528 11.1021C22.3769 11.0684 22.403 11.032 22.417 11.0052C22.4506 10.9412 22.4457 10.9069 22.4164 10.9089C22.4028 10.9098 22.3839 10.9186 22.3651 10.9275C22.3433 10.9377 22.3213 10.9482 22.3077 10.9459C22.2454 10.9354 22.2506 10.8594 22.256 10.7804C22.2619 10.6935 22.2679 10.6032 22.185 10.5922C22.1589 10.5887 22.1172 10.5989 22.0767 10.6089C22.0344 10.6193 21.9935 10.6292 21.9735 10.6228C21.8925 10.5968 21.931 10.4577 21.9664 10.3297C21.99 10.2446 22.012 10.1644 21.9968 10.1257C21.9688 10.0549 22.0489 9.92172 22.1081 9.82343C22.1388 9.7725 22.164 9.73071 22.1655 9.71191C22.1545 9.70693 22.143 9.70239 22.1312 9.69835C22.1161 9.69894 22.1006 9.69955 22.0961 9.68995C22.0958 9.68922 22.0957 9.68823 22.0954 9.6875C22.0253 9.66916 21.9453 9.66242 21.8656 9.65585C21.6865 9.64111 21.5095 9.62672 21.4542 9.4797C21.4423 9.44802 21.4641 9.38176 21.4862 9.31443C21.5134 9.23194 21.5411 9.14755 21.5082 9.12273C21.4298 9.06359 21.2878 9.06681 21.1479 9.07001C20.9374 9.07482 20.7318 9.07943 20.7548 8.87168C20.7624 8.80312 20.7961 8.70995 20.8302 8.61619C20.8492 8.56393 20.8684 8.51129 20.883 8.46303C20.8282 8.52492 20.7754 8.58159 20.7261 8.63442C20.6245 8.74333 20.5376 8.83656 20.4772 8.92927C20.3347 9.14836 20.1291 9.44066 19.9427 9.6174C19.8922 9.66537 19.8383 9.7213 19.7842 9.77771C19.6485 9.91924 19.5099 10.0638 19.4103 10.0922C19.3432 10.1114 19.1827 10.149 19.2495 10.0038C19.2641 9.9722 19.3047 9.92122 19.3498 9.86457C19.4309 9.76276 19.5268 9.64215 19.5149 9.57986C19.5129 9.56938 19.5099 9.55876 19.5065 9.54818C19.4927 9.50598 19.477 9.45896 19.5388 9.37375C19.61 9.2756 19.7098 9.18152 19.8262 9.07182C19.9779 8.92895 20.158 8.75927 20.3397 8.51942C20.3756 8.47199 20.3789 8.44673 20.3814 8.42761C20.3832 8.41414 20.3848 8.40355 20.3969 8.39056C20.4108 8.37566 20.4427 8.34756 20.483 8.31202C20.6251 8.18664 20.8734 7.96747 20.8225 7.89678C20.8087 7.87769 20.7788 7.87001 20.7519 7.8632C20.7122 7.85316 20.6793 7.84474 20.7148 7.80373C20.7283 7.78819 20.7433 7.77173 20.759 7.75483C20.7346 7.73963 20.7102 7.72444 20.6858 7.70925C20.6148 7.72946 20.5831 7.68993 20.5437 7.64039C20.5342 7.62837 20.5239 7.61586 20.5127 7.60339C20.4643 7.57379 20.4158 7.54411 20.3672 7.51468C20.3169 7.50307 20.2524 7.50161 20.1677 7.51682C19.9978 7.54731 19.772 7.6519 19.5512 7.75422C19.4582 7.79733 19.3659 7.84017 19.2791 7.87676C19.2813 7.89412 19.2812 7.91188 19.2756 7.931C19.2377 8.06184 19.0903 8.24652 18.9546 8.41649C18.8644 8.52955 18.7793 8.63617 18.7353 8.71584C18.6546 8.86177 18.5188 8.99101 18.4185 9.08659C18.3664 9.13617 18.3238 9.17686 18.3034 9.20592C18.2871 9.22924 18.2859 9.24664 18.2846 9.26464C18.2835 9.28032 18.2822 9.29664 18.271 9.31741C18.1354 9.56975 18.0053 9.66479 17.8159 9.80315C17.7114 9.87946 17.5889 9.96907 17.4375 10.1054C17.2786 10.2513 17.2362 10.2981 17.2061 10.3893C17.107 10.4408 17.008 10.4922 16.9089 10.5436C16.9044 10.5294 16.9444 10.4752 17.0126 10.3871C17.1344 10.2297 17.1275 10.1208 17.1221 10.0356C17.1196 9.9962 17.1175 9.96181 17.1286 9.9301C17.1877 9.76151 17.3621 9.6189 17.5156 9.49344C17.6001 9.42438 17.6783 9.36043 17.7274 9.30024C17.7484 9.27451 17.775 9.25469 17.802 9.23444C17.823 9.21878 17.8443 9.20289 17.8635 9.18387C18.0031 9.04568 18.0738 8.91017 18.1395 8.78437C18.1771 8.71232 18.2133 8.6433 18.2596 8.57881C18.2738 8.55916 18.2888 8.53974 18.3035 8.52095C18.3249 8.49352 18.3452 8.46731 18.3606 8.44278C18.3955 8.38689 18.4046 8.33472 18.4144 8.27772C18.4194 8.2485 18.4246 8.21799 18.4337 8.18501C18.4454 8.14227 18.4948 8.08175 18.5463 8.01846C18.5827 7.97374 18.6201 7.9276 18.6465 7.88517C18.6942 7.80842 18.6874 7.75664 18.681 7.70859C18.6782 7.68766 18.6758 7.66718 18.6778 7.6459C18.6786 7.63723 18.6861 7.6259 18.6987 7.61252C18.6975 7.52438 18.6993 7.43732 18.7013 7.35232C18.7113 6.92613 18.7202 6.55692 18.3142 6.425C18.2374 6.40006 18.188 6.34027 18.1535 6.26435C17.9225 6.14231 17.6896 6.02194 17.4555 5.90317C17.2954 5.99341 17.1475 6.05579 17.0144 6.0877C16.7646 6.14757 16.6338 6.08294 16.4794 6.0067C16.3652 5.95033 16.2381 5.88771 16.0405 5.8642C15.7084 5.82471 15.394 5.75771 15.1144 5.60679C14.8361 5.45653 14.5436 5.25839 14.3533 5.10157C14.2495 5.01609 14.0382 5.02867 13.8414 5.04026C13.5645 5.05655 13.3162 5.07102 13.4353 4.80914C13.4734 4.72547 13.5571 4.59774 13.6383 4.47361C13.6962 4.3852 13.7525 4.29872 13.791 4.23077C13.7352 4.20801 13.6795 4.18502 13.6235 4.16238C13.4267 4.21948 13.182 4.24704 13.2187 4.00053C13.1606 3.97747 13.1026 3.9543 13.0458 3.93278C12.9234 3.88422 12.8023 3.83798 12.6802 3.79125C12.6402 3.77615 12.5999 3.76081 12.5595 3.74546C12.5591 3.74534 12.5587 3.74522 12.5583 3.7451C12.4769 3.7142 12.3949 3.68305 12.3137 3.653C12.2789 3.64009 12.2442 3.62717 12.2094 3.61426C12.1212 3.5814 12.0324 3.5482 11.9444 3.51634C11.8977 3.49955 11.8509 3.48234 11.8037 3.4653C11.7272 3.43767 11.6503 3.40976 11.5734 3.38229C11.449 3.33785 11.3246 3.29427 11.1998 3.25083C11.1793 3.2438 11.1449 3.2517 11.1032 3.27401C11.0614 3.29637 11.0157 3.3311 10.9743 3.37256C10.9328 3.41404 10.8981 3.45988 10.8758 3.50159C10.8537 3.54318 10.8463 3.57701 10.8535 3.59732C10.8981 3.72113 10.9431 3.8444 10.9887 3.96768C11.0168 4.04388 11.045 4.12053 11.0734 4.19631C11.0909 4.24303 11.1085 4.28941 11.1257 4.33566C11.1584 4.42289 11.1922 4.51124 11.2259 4.59869C11.2391 4.63315 11.2523 4.6676 11.2655 4.70206C11.2964 4.78274 11.3285 4.86411 11.3602 4.94496C11.3604 4.94544 11.3606 4.94593 11.3608 4.94641C11.3764 4.98619 11.392 5.02594 11.4073 5.0653C11.4552 5.18629 11.5027 5.3062 11.5524 5.42752C11.5773 5.49103 11.6044 5.55597 11.6311 5.62077C11.6459 5.65685 11.6606 5.69293 11.675 5.72844C11.683 5.7477 11.6912 5.76709 11.6995 5.78659C11.886 6.23795 12.0752 6.68204 12.2725 7.12388C12.4687 7.56452 12.6705 8.00068 12.8759 8.43123C13.0822 8.86255 13.2927 9.28846 13.5079 9.71026C14.873 12.3876 16.3644 14.9548 18.0579 17.3217C18.2992 17.6596 18.5527 18.0003 18.8038 18.3295C19.0581 18.6619 19.3107 18.9839 19.5752 19.3076C19.6552 19.4062 19.7381 19.5065 19.8237 19.6088Z" fill="black"/>
<path d="M26.9556 54.2216C27.7857 53.5298 27.8654 52.145 28.6277 51.3802C29.5741 50.4306 31.1607 50.0911 31.9947 49.0247C32.8233 47.9639 33.6058 46.8479 34.3464 45.696C35.0881 44.5431 35.7895 43.3528 36.4666 42.1343C37.1417 40.9178 37.7925 39.673 38.4274 38.4149C38.8586 37.5603 39.2837 36.6982 39.7053 35.8342C39.8906 35.4551 40.0745 35.0763 40.2588 34.6965C40.3962 34.413 40.5335 34.1295 40.6708 33.846C40.6898 33.8064 40.676 33.7366 40.6303 33.6495C40.5845 33.5624 40.511 33.4657 40.423 33.3777C40.335 33.2898 40.2379 33.2162 40.151 33.1707C40.0642 33.1254 39.9949 33.1122 39.9557 33.1316C39.6728 33.273 39.3898 33.4144 39.1068 33.5558C38.7926 33.7129 38.4786 33.8695 38.165 34.0271C38.4888 34.4252 38.7117 34.7499 38.7372 34.9662C38.7502 35.0766 38.7048 35.1732 38.5855 35.1584C38.4782 35.1451 38.3354 35.073 38.1994 35.0042C38.0572 34.9322 37.9222 34.8639 37.8434 34.8709C37.7096 34.8827 37.4871 34.7986 37.2535 34.7103C37.1684 34.6782 37.0818 34.6454 36.9974 34.6165C36.6991 34.768 36.4013 34.9201 36.1042 35.0728C36.0558 35.1982 36.007 35.3091 35.9245 35.3621C35.8504 35.4096 35.7185 35.389 35.5682 35.3495C35.5223 35.3733 35.4764 35.3971 35.4306 35.4208C35.1348 35.5745 34.8401 35.7294 34.546 35.8849C34.4669 36.1566 34.3766 36.434 34.1787 36.7141C34.0933 36.8348 34.0438 36.9885 33.9961 37.1362C33.9256 37.3544 33.8592 37.5595 33.6883 37.6267C33.574 37.6716 33.5413 37.8063 33.5087 37.9406C33.465 38.1208 33.4214 38.3007 33.1811 38.2631C33.03 38.2394 32.8653 38.1917 32.7126 38.1474C32.4697 38.0769 32.2573 38.0151 32.1796 38.0738C32.0337 38.1843 31.8086 38.1811 31.61 38.1781C31.3712 38.1746 31.1709 38.1716 31.1938 38.3678C31.1972 38.3975 31.2043 38.4346 31.2125 38.4766C31.2555 38.698 31.3243 39.0522 31.0033 39.1407C30.889 39.1722 30.7129 39.1331 30.5402 39.0945C30.2889 39.0385 30.0449 38.9841 30.0097 39.152C30.0045 39.1771 30.0303 39.2346 30.0539 39.2871C30.0839 39.3537 30.1101 39.412 30.0639 39.3847C29.9284 39.3049 29.7652 39.23 29.5877 39.1484C29.4572 39.0885 29.319 39.025 29.1786 38.9535C28.8557 39.1567 28.5352 39.3625 28.2177 39.5714C28.0723 39.6671 27.9274 39.7635 27.7831 39.8605C27.8835 40.0843 27.9665 40.2935 28.0104 40.4707C28.0677 40.7023 27.999 40.8594 27.9107 41.0623C27.8458 41.2116 27.7702 41.3858 27.726 41.6322C27.6442 42.0882 27.326 42.3225 27.0486 42.3992C26.99 42.4154 26.9297 42.4304 26.8648 42.446C26.6187 42.5053 26.3111 42.5788 25.8202 42.8117C25.3558 43.0319 25.033 43.2914 24.7905 43.4863C24.6667 43.5858 24.5642 43.6688 24.4741 43.7209C24.3199 43.81 24.1415 43.9304 23.9626 44.0514C23.6826 44.2408 23.4011 44.4316 23.2069 44.5047C23.1377 44.5308 23.0611 44.5541 22.9787 44.5795C22.7503 44.65 22.4746 44.7353 22.1707 44.9291C21.8518 45.1326 21.7293 45.3338 21.6467 45.5876C21.6131 45.6907 21.6904 45.8886 21.7704 46.0929C21.8839 46.3827 22.0025 46.6852 21.8153 46.7468C21.7715 46.7612 21.7078 46.7594 21.641 46.7574C21.5182 46.7537 21.3853 46.7496 21.3494 46.8456C21.3369 46.8791 21.354 46.9367 21.3707 46.9931C21.3892 47.0552 21.4071 47.116 21.3851 47.1425C21.3026 47.2413 21.2052 47.3202 21.1184 47.3902C21.0066 47.4805 20.9129 47.5563 20.893 47.6415C20.8575 47.7935 20.7029 47.8438 20.546 47.8945C20.4262 47.9333 20.3049 47.9721 20.2351 48.0573C20.0354 48.3008 19.6314 48.5061 19.1519 48.6545C18.9705 48.7107 18.9554 48.8968 18.9362 49.1355C18.9243 49.284 18.9111 49.4532 18.8549 49.6236C18.823 49.7202 18.6924 49.6984 18.5717 49.6784C18.4605 49.66 18.3575 49.6431 18.3472 49.7211C18.3382 49.79 18.4416 49.9427 18.5398 50.0877C18.6491 50.2491 18.7519 50.4009 18.6861 50.4171C18.651 50.4257 18.5605 50.3881 18.4528 50.3436C18.4103 50.3259 18.3651 50.3074 18.3195 50.29C18.3462 50.3152 18.3696 50.3383 18.3872 50.3558C18.5114 50.48 18.535 50.5873 18.5581 50.6924C18.5673 50.7344 18.5762 50.776 18.5917 50.8182C18.6485 50.9737 18.5723 51.0844 18.496 51.1508C18.4638 51.1789 18.4749 51.2448 18.488 51.3217C18.4995 51.39 18.5126 51.467 18.4981 51.5339C18.4897 51.5721 18.5079 51.626 18.5232 51.6708C18.5343 51.7032 18.5438 51.7309 18.5402 51.7442C18.5371 51.7557 18.4956 51.726 18.4489 51.6925C18.4152 51.6684 18.3788 51.6423 18.352 51.6283C18.288 51.5947 18.2538 51.5996 18.2557 51.6289C18.2566 51.6425 18.2655 51.6614 18.2743 51.6802C18.2846 51.702 18.295 51.724 18.2927 51.7376C18.2822 51.7999 18.2062 51.7947 18.1272 51.7893C18.0404 51.7834 17.95 51.7774 17.939 51.8603C17.9355 51.8864 17.9458 51.9281 17.9557 51.9686C17.9661 52.0109 17.976 52.0518 17.9697 52.0718C17.9436 52.1528 17.8045 52.1143 17.6765 52.0789C17.5914 52.0553 17.5112 52.0333 17.4726 52.0485C17.4017 52.0765 17.2686 51.9964 17.1703 51.9372C17.1193 51.9065 17.0776 51.8813 17.0587 51.8798C17.0538 51.8908 17.0492 51.9023 17.0452 51.9141C17.0458 51.9292 17.0464 51.9447 17.0368 51.9492C17.0361 51.9495 17.0351 51.9496 17.0343 51.9499C17.016 52.02 17.0092 52.1 17.0027 52.1797C16.9879 52.3588 16.9736 52.5358 16.8265 52.5911C16.7949 52.603 16.7286 52.5812 16.6613 52.5591C16.5788 52.5319 16.4944 52.5042 16.4696 52.5371C16.4104 52.6155 16.4136 52.7575 16.4168 52.8974C16.4217 53.1079 16.4263 53.3135 16.2185 53.2905C16.15 53.2829 16.0568 53.2492 15.963 53.2151C15.9108 53.1961 15.8581 53.1769 15.8099 53.1623C15.8718 53.2171 15.9284 53.2699 15.9813 53.3192C16.0902 53.4208 16.1834 53.5077 16.2761 53.5681C16.4952 53.7106 16.7875 53.9162 16.9642 54.1026C17.0122 54.1531 17.0681 54.207 17.1245 54.2611C17.2661 54.3968 17.4106 54.5354 17.4391 54.635C17.4583 54.7021 17.4958 54.8626 17.3507 54.7958C17.319 54.7812 17.2681 54.7406 17.2114 54.6955C17.1096 54.6144 16.989 54.5185 16.9267 54.5304C16.9162 54.5324 16.9056 54.5354 16.895 54.5388C16.8528 54.5526 16.8058 54.5683 16.7206 54.5065C16.6224 54.4353 16.5284 54.3355 16.4187 54.2191C16.2758 54.0674 16.1061 53.8873 15.8663 53.7056C15.8188 53.6697 15.7936 53.6664 15.7744 53.6639C15.761 53.6621 15.7504 53.6605 15.7374 53.6484C15.7225 53.6345 15.6944 53.6026 15.6589 53.5623C15.5335 53.4202 15.3143 53.1719 15.2436 53.2228C15.2245 53.2366 15.2168 53.2665 15.21 53.2934C15.2 53.3331 15.1916 53.366 15.1506 53.3305C15.135 53.317 15.1186 53.302 15.1017 53.2863C15.0865 53.3107 15.0713 53.3351 15.0561 53.3595C15.0763 53.4305 15.0368 53.4622 14.9872 53.5016C14.9752 53.5111 14.9627 53.5214 14.9502 53.5326C14.9206 53.581 14.8909 53.6295 14.8615 53.6781C14.8499 53.7284 14.8484 53.7929 14.8637 53.8776C14.8941 54.0475 14.9987 54.2733 15.1011 54.4941C15.1442 54.5871 15.187 54.6794 15.2236 54.7662C15.241 54.764 15.2587 54.7641 15.2778 54.7697C15.4087 54.8076 15.5934 54.955 15.7633 55.0907C15.8764 55.1809 15.983 55.266 16.0627 55.31C16.2086 55.3907 16.3378 55.5265 16.4334 55.6268C16.483 55.6789 16.5237 55.7215 16.5528 55.7419C16.5761 55.7582 16.5935 55.7594 16.6115 55.7607C16.6272 55.7618 16.6435 55.7631 16.6642 55.7743C16.9166 55.9099 17.0116 56.04 17.15 56.2294C17.2263 56.3339 17.3159 56.4564 17.4523 56.6078C17.5982 56.7667 17.6449 56.8091 17.7362 56.8392C17.7876 56.9383 17.839 57.0373 17.8904 57.1364C17.8762 57.1409 17.8221 57.1009 17.7339 57.0327C17.5765 56.9109 17.4676 56.9178 17.3825 56.9232C17.343 56.9257 17.3086 56.9278 17.2769 56.9167C17.1083 56.8576 16.9657 56.6832 16.8403 56.5297C16.7712 56.4452 16.7073 56.367 16.6471 56.3179C16.6213 56.2969 16.6015 56.2703 16.5813 56.2433C16.5656 56.2223 16.5497 56.201 16.5307 56.1818C16.3925 56.0422 16.257 55.9715 16.1312 55.9058C16.0592 55.8682 15.9901 55.832 15.9256 55.7857C15.906 55.7715 15.8866 55.7565 15.8678 55.7418C15.8404 55.7204 15.8141 55.7001 15.7896 55.6847C15.7337 55.6498 15.6816 55.6407 15.6246 55.6309C15.5953 55.6259 15.5648 55.6207 15.5318 55.6116C15.4891 55.5999 15.4286 55.5505 15.3653 55.499C15.3206 55.4626 15.2744 55.4252 15.232 55.3988C15.1553 55.3511 15.1035 55.3579 15.0554 55.3643C15.0345 55.3671 15.014 55.3695 14.9927 55.3675C14.9841 55.3667 14.9727 55.3592 14.9594 55.3466C14.8712 55.3478 14.7842 55.346 14.6992 55.344C14.273 55.334 13.9038 55.3251 13.7718 55.7311C13.7469 55.8079 13.6871 55.8573 13.6112 55.8918C13.4891 56.1228 13.3688 56.3557 13.25 56.5898C13.3402 56.7499 13.4026 56.8978 13.4345 57.0309C13.4944 57.2807 13.4298 57.4115 13.3535 57.5659C13.2972 57.6801 13.2345 57.8072 13.211 58.0048C13.1715 58.3369 13.1045 58.6513 12.9536 58.9309C12.8034 59.2092 12.6052 59.5017 12.4484 59.692C12.3629 59.7957 12.3755 60.0071 12.3871 60.2039C12.4034 60.4808 12.4179 60.7291 12.156 60.61C12.0723 60.5719 11.9446 60.4882 11.8204 60.407C11.732 60.3491 11.6456 60.2928 11.5776 60.2543C11.5548 60.3101 11.5319 60.3658 11.5092 60.4218C11.5663 60.6186 11.5939 60.8633 11.3474 60.8266C11.3243 60.8847 11.3011 60.9427 11.2796 60.9995C11.2311 61.1219 11.1848 61.243 11.1381 61.3651C11.123 61.4051 11.1076 61.4454 11.0923 61.4858C11.0922 61.4862 11.0921 61.4866 11.0919 61.487C11.061 61.5684 11.0299 61.6504 10.9998 61.7316C10.9869 61.7664 10.974 61.8011 10.9611 61.8359C10.9282 61.9241 10.895 62.0129 10.8632 62.1009C10.8464 62.1476 10.8292 62.1944 10.8121 62.2416C10.7845 62.318 10.7566 62.395 10.7291 62.4719C10.6847 62.5963 10.6411 62.7206 10.5977 62.8455C10.5906 62.866 10.5985 62.9004 10.6208 62.9421C10.6432 62.9839 10.6779 63.0296 10.7194 63.071C10.7609 63.1125 10.8067 63.1472 10.8484 63.1695C10.89 63.1916 10.9238 63.199 10.9442 63.1918C11.068 63.1472 11.1912 63.1022 11.3145 63.0566C11.3907 63.0285 11.4674 63.0002 11.5431 62.9719C11.5899 62.9544 11.6362 62.9368 11.6825 62.9196C11.7697 62.8869 11.8581 62.8531 11.9455 62.8194C11.98 62.8062 12.0144 62.793 12.0489 62.7798C12.1296 62.7489 12.2109 62.7168 12.2918 62.6851C12.2923 62.6849 12.2928 62.6847 12.2932 62.6845C12.333 62.6689 12.3728 62.6533 12.4121 62.638C12.5331 62.5901 12.653 62.5426 12.7744 62.4929C12.8379 62.468 12.9028 62.4409 12.9676 62.4142C13.0037 62.3994 13.0398 62.3847 13.0753 62.3703C13.0945 62.3623 13.1139 62.3541 13.1334 62.3458C13.5848 62.1593 14.0289 61.9701 14.4707 61.7728C14.9114 61.5766 15.3475 61.3748 15.7781 61.1694C16.2094 60.9631 16.6353 60.7526 17.0571 60.5374C19.7344 59.1723 22.3017 57.6809 24.6685 55.9874C25.0064 55.7461 25.3471 55.4926 25.6764 55.2415C26.0088 54.9872 26.3307 54.7346 26.6545 54.4701C26.7531 54.3901 26.8533 54.3072 26.9556 54.2216Z" fill="black"/>
<path d="M45.5684 48.0897C44.8767 47.2597 43.4918 47.1799 42.7271 46.4176C41.7775 45.4712 41.4379 43.8847 40.3716 43.0506C39.3108 42.222 38.1947 41.4396 37.0429 40.6989C35.8899 39.9573 34.6996 39.2558 33.4811 38.5787C32.2647 37.9037 31.0199 37.2528 29.7618 36.6179C28.9072 36.1867 28.0451 35.7616 27.181 35.34C26.8019 35.1547 26.4231 34.9708 26.0433 34.7865C25.7598 34.6491 25.4763 34.5118 25.1928 34.3745C25.1532 34.3556 25.0834 34.3693 24.9964 34.415C24.9093 34.4608 24.8125 34.5343 24.7246 34.6223C24.6366 34.7103 24.563 34.8074 24.5175 34.8943C24.4722 34.9811 24.4591 35.0504 24.4784 35.0896C24.6198 35.3726 24.7612 35.6555 24.9026 35.9385C25.0598 36.2528 25.2164 36.5667 25.374 36.8804C25.772 36.5565 26.0967 36.3336 26.313 36.3081C26.4234 36.2951 26.52 36.3405 26.5053 36.4598C26.4919 36.5671 26.4199 36.7099 26.351 36.8459C26.2791 36.9881 26.2107 37.1231 26.2177 37.2019C26.2295 37.3357 26.1455 37.5582 26.0571 37.7919C26.025 37.8769 25.9922 37.9636 25.9633 38.0479C26.1149 38.3462 26.267 38.644 26.4197 38.9411C26.545 38.9895 26.6559 39.0383 26.7089 39.1209C26.7564 39.1949 26.7358 39.3268 26.6964 39.4771C26.7201 39.523 26.7439 39.5689 26.7677 39.6147C26.9213 39.9105 27.0762 40.2052 27.2317 40.4993C27.5034 40.5784 27.7808 40.6687 28.0609 40.8666C28.1816 40.952 28.3354 41.0015 28.4831 41.0492C28.7012 41.1198 28.9064 41.1861 28.9735 41.357C29.0184 41.4713 29.1531 41.504 29.2875 41.5366C29.4677 41.5803 29.6475 41.624 29.6099 41.8642C29.5863 42.0153 29.5385 42.18 29.4942 42.3327C29.4237 42.5756 29.3619 42.7881 29.4207 42.8657C29.5311 43.0116 29.5279 43.2367 29.525 43.4353C29.5214 43.6741 29.5185 43.8744 29.7146 43.8515C29.7443 43.8481 29.7814 43.841 29.8234 43.8329C30.0449 43.7898 30.399 43.721 30.4875 44.042C30.519 44.1563 30.4799 44.3324 30.4414 44.5051C30.3853 44.7564 30.3309 45.0005 30.4989 45.0356C30.524 45.0408 30.5814 45.015 30.6339 44.9914C30.7006 44.9614 30.7588 44.9352 30.7316 44.9814C30.6517 45.1169 30.5769 45.2801 30.4953 45.4577C30.4353 45.5881 30.3718 45.7263 30.3003 45.8667C30.5036 46.1896 30.7093 46.5101 30.9183 46.8276C31.014 46.9731 31.1103 47.1179 31.2073 47.2622C31.4312 47.1618 31.6404 47.0788 31.8175 47.0349C32.0491 46.9776 32.2063 47.0463 32.4092 47.1346C32.5585 47.1995 32.7327 47.2751 32.979 47.3193C33.435 47.4012 33.6693 47.7193 33.746 47.9967C33.7623 48.0554 33.7772 48.1157 33.7929 48.1805C33.8521 48.4267 33.9256 48.7342 34.1585 49.2251C34.3788 49.6895 34.6383 50.0123 34.8332 50.2548C34.9327 50.3786 35.0157 50.4811 35.0678 50.5713C35.1569 50.7254 35.2773 50.9038 35.3983 51.0827C35.5877 51.3627 35.7784 51.6442 35.8516 51.8384C35.8776 51.9076 35.9009 51.9842 35.9264 52.0666C35.9969 52.295 36.0822 52.5707 36.276 52.8746C36.4794 53.1935 36.6807 53.3161 36.9344 53.3986C37.0376 53.4322 37.2355 53.3549 37.4397 53.2749C37.7296 53.1614 38.032 53.0428 38.0936 53.2301C38.108 53.2738 38.1062 53.3375 38.1042 53.4044C38.1006 53.5271 38.0964 53.66 38.1924 53.6959C38.2259 53.7084 38.2835 53.6913 38.34 53.6746C38.4021 53.6561 38.4629 53.6382 38.4893 53.6602C38.5881 53.7427 38.667 53.8402 38.737 53.9269C38.8273 54.0387 38.9031 54.1324 38.9883 54.1523C39.1403 54.1878 39.1906 54.3424 39.2414 54.4993C39.2801 54.6191 39.319 54.7404 39.4042 54.8103C39.6476 55.0099 39.8529 55.4139 40.0013 55.8934C40.0575 56.0748 40.2437 56.0899 40.4824 56.1091C40.6309 56.121 40.8 56.1342 40.9704 56.1904C41.067 56.2223 41.0453 56.3529 41.0253 56.4736C41.0069 56.5849 40.99 56.6878 41.068 56.6981C41.1369 56.7071 41.2895 56.6037 41.4346 56.5055C41.596 56.3962 41.7478 56.2934 41.7639 56.3592C41.7725 56.3943 41.735 56.4848 41.6904 56.5925C41.6728 56.635 41.6543 56.6802 41.6368 56.7258C41.6621 56.6991 41.6851 56.6757 41.7027 56.6582C41.8269 56.5339 41.9341 56.5103 42.0392 56.4872C42.0812 56.478 42.1228 56.4691 42.1651 56.4536C42.3205 56.3968 42.4312 56.473 42.4976 56.5493C42.5258 56.5815 42.5917 56.5704 42.6686 56.5574C42.7368 56.5458 42.8138 56.5327 42.8808 56.5473C42.9189 56.5556 42.9728 56.5374 43.0176 56.5221C43.0501 56.511 43.0778 56.5015 43.0911 56.5051C43.1026 56.5082 43.0729 56.5497 43.0394 56.5964C43.0153 56.6301 42.9892 56.6665 42.9751 56.6933C42.9416 56.7573 42.9464 56.7916 42.9758 56.7896C42.9894 56.7887 43.0082 56.7799 43.027 56.771C43.0489 56.7608 43.0708 56.7503 43.0844 56.7526C43.1468 56.7631 43.1416 56.8391 43.1362 56.9181C43.1303 57.0049 43.1243 57.0953 43.2072 57.1063C43.2333 57.1098 43.275 57.0996 43.3154 57.0896C43.3577 57.0792 43.3987 57.0693 43.4187 57.0757C43.4997 57.1017 43.4612 57.2408 43.4257 57.3688C43.4022 57.4539 43.3801 57.5341 43.3953 57.5728C43.4233 57.6436 43.3432 57.7768 43.284 57.8751C43.2534 57.926 43.2282 57.9678 43.2267 57.9866C43.2376 57.9916 43.2492 57.9961 43.2609 58.0001C43.276 57.9995 43.2916 57.9989 43.296 58.0085C43.2964 58.0093 43.2964 58.0103 43.2968 58.011C43.3668 58.0293 43.4469 58.0361 43.5266 58.0426C43.7056 58.0574 43.8826 58.0718 43.938 58.2188C43.9499 58.2505 43.9281 58.3167 43.9059 58.3841C43.8788 58.4666 43.851 58.5509 43.8839 58.5758C43.9623 58.6349 44.1043 58.6317 44.2443 58.6285C44.4547 58.6237 44.6603 58.6191 44.6373 58.8268C44.6297 58.8954 44.596 58.9885 44.5619 59.0823C44.5429 59.1346 44.5237 59.1872 44.5092 59.2355C44.5639 59.1736 44.6168 59.1169 44.6661 59.0641C44.7676 58.9552 44.8546 58.8619 44.9149 58.7692C45.0575 58.5501 45.2631 58.2578 45.4494 58.0811C45.5 58.0331 45.5538 57.9772 45.6079 57.9208C45.7436 57.7792 45.8823 57.6347 45.9818 57.6062C46.0489 57.587 46.2095 57.5495 46.1426 57.6947C46.128 57.7263 46.0874 57.7773 46.0423 57.8339C45.9613 57.9357 45.8654 58.0563 45.8773 58.1186C45.8793 58.1291 45.8822 58.1397 45.8857 58.1503C45.8995 58.1925 45.9151 58.2395 45.8533 58.3247C45.7822 58.4229 45.6823 58.517 45.5659 58.6267C45.4143 58.7695 45.2342 58.9392 45.0525 59.1791C45.0166 59.2265 45.0133 59.2518 45.0107 59.2709C45.0089 59.2844 45.0073 59.2949 44.9952 59.3079C44.9813 59.3228 44.9495 59.3509 44.9092 59.3865C44.767 59.5119 44.5188 59.731 44.5696 59.8017C44.5834 59.8208 44.6134 59.8285 44.6403 59.8353C44.6799 59.8453 44.7128 59.8537 44.6773 59.8948C44.6639 59.9103 44.6489 59.9268 44.6332 59.9437C44.6576 59.9589 44.682 59.974 44.7063 59.9892C44.7773 59.969 44.809 60.0086 44.8484 60.0581C44.858 60.0701 44.8682 60.0826 44.8794 60.0951C44.9279 60.1247 44.9763 60.1544 45.025 60.1838C45.0753 60.1954 45.1397 60.1969 45.2245 60.1817C45.3943 60.1512 45.6202 60.0466 45.8409 59.9443C45.934 59.9012 46.0263 59.8583 46.113 59.8217C46.1108 59.8044 46.111 59.7866 46.1165 59.7675C46.1544 59.6366 46.3018 59.452 46.4375 59.282C46.5278 59.1689 46.6128 59.0623 46.6569 58.9827C46.7375 58.8367 46.8733 58.7075 46.9737 58.6119C47.0258 58.5623 47.0683 58.5216 47.0887 58.4926C47.105 58.4692 47.1063 58.4519 47.1076 58.4339C47.1087 58.4182 47.11 58.4018 47.1211 58.3811C47.2567 58.1287 47.3869 58.0337 47.5763 57.8953C47.6807 57.819 47.8032 57.7294 47.9547 57.5931C48.1135 57.4472 48.1559 57.4004 48.186 57.3091C48.2851 57.2577 48.3842 57.2063 48.4833 57.1549C48.4877 57.1691 48.4478 57.2233 48.3796 57.3114C48.2577 57.4688 48.2647 57.5777 48.2701 57.6629C48.2726 57.7023 48.2747 57.7367 48.2636 57.7684C48.2045 57.937 48.03 58.0796 47.8765 58.2051C47.792 58.2741 47.7138 58.3381 47.6647 58.3982C47.6437 58.424 47.6172 58.4438 47.5901 58.464C47.5692 58.4797 47.5479 58.4956 47.5287 58.5146C47.389 58.6528 47.3183 58.7883 47.2526 58.9141C47.215 58.9862 47.1789 59.0552 47.1325 59.1197C47.1184 59.1393 47.1034 59.1588 47.0887 59.1775C47.0673 59.205 47.0469 59.2312 47.0316 59.2557C46.9966 59.3116 46.9876 59.3638 46.9778 59.4208C46.9728 59.45 46.9676 59.4805 46.9585 59.5135C46.9467 59.5562 46.8974 59.6167 46.8459 59.68C46.8095 59.7247 46.7721 59.7709 46.7457 59.8133C46.6979 59.8901 46.7048 59.9418 46.7111 59.9899C46.7139 60.0108 46.7164 60.0313 46.7144 60.0526C46.7136 60.0613 46.706 60.0726 46.6935 60.086C46.6947 60.1741 46.6929 60.2612 46.6909 60.3462C46.6809 60.7724 46.6719 61.1416 47.078 61.2735C47.1547 61.2984 47.2042 61.3582 47.2386 61.4341C47.4696 61.5562 47.7025 61.6765 47.9367 61.7953C48.0968 61.7051 48.2446 61.6427 48.3777 61.6108C48.6276 61.5509 48.7584 61.6155 48.9128 61.6918C49.0269 61.7482 49.1541 61.8108 49.3517 61.8343C49.6837 61.8738 49.9982 61.9408 50.2777 62.0917C50.556 62.242 50.8485 62.4401 51.0388 62.5969C51.1426 62.6824 51.354 62.6698 51.5508 62.6582C51.8277 62.6419 52.0759 62.6275 51.9568 62.8893C51.9187 62.973 51.8351 63.1007 51.7538 63.2249C51.696 63.3133 51.6396 63.3998 51.6012 63.4677C51.657 63.4905 51.7127 63.5135 51.7687 63.5361C51.9655 63.479 52.2101 63.4514 52.1735 63.698C52.2315 63.721 52.2895 63.7442 52.3464 63.7657C52.4688 63.8143 52.5898 63.8605 52.7119 63.9072C52.7519 63.9223 52.7922 63.9377 52.8327 63.953C52.8331 63.9531 52.8335 63.9533 52.8339 63.9534C52.9153 63.9843 52.9973 64.0154 53.0785 64.0455C53.1132 64.0584 53.148 64.0713 53.1827 64.0842C53.271 64.1171 53.3598 64.1503 53.4478 64.1821C53.4944 64.1989 53.5413 64.2161 53.5884 64.2332C53.6649 64.2608 53.7419 64.2887 53.8188 64.3162C53.9431 64.3606 54.0675 64.4042 54.1924 64.4477C54.2129 64.4547 54.2472 64.4468 54.289 64.4245C54.3308 64.4021 54.3764 64.3674 54.4179 64.3259C54.4593 64.2844 54.4941 64.2386 54.5163 64.1969C54.5384 64.1553 54.5458 64.1215 54.5386 64.1012C54.494 63.9774 54.4491 63.8541 54.4035 63.7308C54.3753 63.6546 54.3471 63.578 54.3188 63.5022C54.3013 63.4555 54.2837 63.4091 54.2664 63.3628C54.2338 63.2756 54.1999 63.1872 54.1662 63.0998C54.153 63.0653 54.1398 63.0309 54.1266 62.9964C54.0958 62.9157 54.0637 62.8344 54.0319 62.7535C54.0317 62.753 54.0315 62.7526 54.0313 62.7521C54.0157 62.7123 54.0002 62.6725 53.9848 62.6332C53.9369 62.5122 53.8895 62.3923 53.8397 62.271C53.8149 62.2075 53.7877 62.1425 53.7611 62.0777C53.7463 62.0416 53.7316 62.0056 53.7172 61.97C53.7092 61.9508 53.7009 61.9314 53.6926 61.9119C53.5062 61.4605 53.317 61.0164 53.1196 60.5746C52.9235 60.134 52.7217 59.6978 52.5162 59.2673C52.31 58.8359 52.0994 58.41 51.8843 57.9882C50.5191 55.3109 49.0277 52.7436 47.3342 50.3768C47.093 50.0389 46.8394 49.6982 46.5883 49.369C46.3341 49.0366 46.0814 48.7146 45.817 48.3909C45.7369 48.2923 45.6541 48.192 45.5684 48.0897Z" fill="black"/>
<path d="M37.4366 13.4769C36.6065 14.1686 36.5267 15.5535 35.7644 16.3182C34.8181 17.2678 33.2315 17.6074 32.3974 18.6737C31.5688 19.7345 30.7864 20.8506 30.0458 22.0024C29.3041 23.1554 28.6026 24.3457 27.9255 25.5642C27.2505 26.7806 26.5996 28.0254 25.9647 29.2835C25.5335 30.1381 25.1084 31.0002 24.6868 31.8643C24.5016 32.2434 24.3176 32.6222 24.1333 33.002C23.996 33.2855 23.8587 33.569 23.7213 33.8525C23.7024 33.892 23.7162 33.9619 23.7619 34.0489C23.8077 34.136 23.8811 34.2328 23.9691 34.3207C24.0572 34.4087 24.1542 34.4822 24.2412 34.5277C24.3279 34.5731 24.3972 34.5862 24.4364 34.5669C24.7194 34.4255 25.0024 34.2841 25.2854 34.1427C25.5996 33.9855 25.9135 33.8289 26.2272 33.6713C25.9033 33.2733 25.6805 32.9486 25.6549 32.7323C25.642 32.6219 25.6873 32.5252 25.8067 32.54C25.9139 32.5533 26.0567 32.6254 26.1927 32.6943C26.3349 32.7662 26.4699 32.8346 26.5488 32.8276C26.6826 32.8158 26.905 32.8998 27.1387 32.9881C27.2237 33.0203 27.3104 33.0531 27.3947 33.0819C27.693 32.9304 27.9908 32.7783 28.2879 32.6256C28.3363 32.5003 28.3851 32.3893 28.4677 32.3364C28.5418 32.2889 28.6737 32.3095 28.8239 32.3489C28.8698 32.3252 28.9157 32.3014 28.9616 32.2776C29.2573 32.124 29.552 31.9691 29.8461 31.8136C29.9252 31.5419 30.0155 31.2645 30.2135 30.9844C30.2988 30.8636 30.3483 30.7099 30.3961 30.5622C30.4666 30.3441 30.533 30.1389 30.7039 30.0718C30.8181 30.0269 30.8508 29.8922 30.8834 29.7578C30.9271 29.5776 30.9708 29.3978 31.211 29.4354C31.3621 29.459 31.5268 29.5068 31.6795 29.5511C31.9225 29.6216 32.1349 29.6834 32.2126 29.6246C32.3584 29.5142 32.5836 29.5174 32.7821 29.5203C33.0209 29.5238 33.2212 29.5268 33.1984 29.3307C33.1949 29.301 33.1879 29.2639 33.1797 29.2218C33.1366 29.0004 33.0678 28.6463 33.3888 28.5578C33.5032 28.5263 33.6792 28.5654 33.8519 28.6039C34.1032 28.66 34.3473 28.7144 34.3824 28.5464C34.3876 28.5213 34.3618 28.4639 34.3382 28.4114C34.3082 28.3447 34.282 28.2865 34.3282 28.3137C34.4637 28.3936 34.627 28.4684 34.8045 28.55C34.9349 28.6099 35.0732 28.6735 35.2135 28.745C35.5365 28.5417 35.8569 28.3359 36.1744 28.127C36.3199 28.0313 36.4648 27.935 36.6091 27.838C36.5086 27.6141 36.4256 27.4049 36.3818 27.2278C36.3245 26.9962 36.3932 26.839 36.4814 26.6361C36.5464 26.4868 36.6219 26.3126 36.6661 26.0663C36.748 25.6103 37.0662 25.376 37.3435 25.2993C37.4022 25.283 37.4625 25.268 37.5274 25.2524C37.7735 25.1932 38.081 25.1197 38.572 24.8868C39.0364 24.6665 39.3591 24.407 39.6016 24.2121C39.7254 24.1126 39.828 24.0296 39.9181 23.9775C40.0723 23.8884 40.2506 23.768 40.4295 23.647C40.7095 23.4576 40.9911 23.2669 41.1853 23.1937C41.2544 23.1677 41.331 23.1444 41.4134 23.1189C41.6418 23.0484 41.9176 22.9631 42.2214 22.7693C42.5404 22.5659 42.6629 22.3646 42.7455 22.1109C42.779 22.0077 42.7018 21.8098 42.6217 21.6056C42.5082 21.3157 42.3897 21.0133 42.5769 20.9517C42.6206 20.9373 42.6844 20.9391 42.7512 20.9411C42.8739 20.9447 43.0068 20.9489 43.0427 20.8529C43.0552 20.8194 43.0381 20.7618 43.0214 20.7053C43.003 20.6432 42.985 20.5824 43.0071 20.556C43.0895 20.4572 43.187 20.3783 43.2737 20.3083C43.3855 20.218 43.4792 20.1422 43.4991 20.057C43.5346 19.905 43.6892 19.8547 43.8461 19.8039C43.9659 19.7652 44.0872 19.7263 44.1571 19.6412C44.3567 19.3977 44.7607 19.1924 45.2402 19.044C45.4216 18.9878 45.4367 18.8016 45.4559 18.5629C45.4678 18.4144 45.481 18.2453 45.5373 18.0749C45.5691 17.9783 45.6997 18 45.8204 18.02C45.9317 18.0384 46.0346 18.0553 46.0449 17.9773C46.054 17.9084 45.9505 17.7558 45.8523 17.6107C45.743 17.4493 45.6402 17.2975 45.7061 17.2814C45.7411 17.2728 45.8317 17.3103 45.9393 17.3549C45.9819 17.3725 46.027 17.391 46.0727 17.4085C46.046 17.3832 46.0226 17.3602 46.005 17.3426C45.8807 17.2184 45.8571 17.1112 45.834 17.0061C45.8248 16.9641 45.8159 16.9225 45.8005 16.8802C45.7436 16.7248 45.8198 16.6141 45.8961 16.5477C45.9283 16.5195 45.9172 16.4536 45.9042 16.3767C45.8926 16.3085 45.8795 16.2315 45.8941 16.1645C45.9024 16.1264 45.8842 16.0725 45.8689 16.0277C45.8579 15.9952 45.8484 15.9676 45.8519 15.9542C45.855 15.9427 45.8965 15.9724 45.9432 16.0059C45.9769 16.03 46.0133 16.0561 46.0401 16.0702C46.1041 16.1037 46.1384 16.0989 46.1364 16.0695C46.1355 16.0559 46.1267 16.0371 46.1179 16.0183C46.1076 15.9964 46.0971 15.9745 46.0994 15.9609C46.1099 15.8985 46.1859 15.9037 46.2649 15.9091C46.3518 15.915 46.4421 15.921 46.4531 15.8381C46.4566 15.812 46.4464 15.7703 46.4364 15.7299C46.426 15.6876 46.4161 15.6466 46.4225 15.6266C46.4485 15.5456 46.5876 15.5841 46.7156 15.6196C46.8007 15.6431 46.8809 15.6652 46.9196 15.65C46.9904 15.622 47.1236 15.7021 47.2219 15.7613C47.2728 15.7919 47.3146 15.8172 47.3334 15.8186C47.3384 15.8077 47.3429 15.7961 47.347 15.7844C47.3464 15.7693 47.3457 15.7537 47.3554 15.7493C47.3561 15.7489 47.3571 15.7489 47.3578 15.7485C47.3761 15.6785 47.3829 15.5984 47.3894 15.5187C47.4042 15.3397 47.4186 15.1627 47.5656 15.1073C47.5973 15.0954 47.6635 15.1172 47.7309 15.1394C47.8134 15.1665 47.8978 15.1943 47.9226 15.1614C47.9817 15.083 47.9785 14.941 47.9753 14.801C47.9705 14.5906 47.9659 14.385 48.1736 14.408C48.2422 14.4156 48.3354 14.4493 48.4291 14.4834C48.4814 14.5024 48.534 14.5216 48.5823 14.5361C48.5204 14.4814 48.4637 14.4285 48.4109 14.3792C48.302 14.2777 48.2087 14.1907 48.116 14.1304C47.8969 13.9878 47.6046 13.7823 47.4279 13.5959C47.3799 13.5453 47.324 13.4915 47.2676 13.4374C47.1261 13.3017 46.9815 13.163 46.9531 13.0635C46.9339 12.9964 46.8963 12.8358 47.0415 12.9027C47.0731 12.9173 47.1241 12.9579 47.1807 13.003C47.2825 13.084 47.4031 13.1799 47.4654 13.168C47.4759 13.166 47.4865 13.1631 47.4971 13.1596C47.5393 13.1458 47.5863 13.1302 47.6715 13.192C47.7697 13.2631 47.8638 13.363 47.9735 13.4794C48.1163 13.631 48.286 13.8111 48.5259 13.9928C48.5733 14.0287 48.5986 14.032 48.6177 14.0346C48.6312 14.0364 48.6417 14.038 48.6547 14.0501C48.6696 14.064 48.6977 14.0958 48.7333 14.1361C48.8587 14.2783 49.0778 14.5265 49.1485 14.4757C49.1676 14.4619 49.1753 14.4319 49.1821 14.405C49.1921 14.3654 49.2006 14.3325 49.2416 14.368C49.2571 14.3814 49.2736 14.3964 49.2905 14.4121C49.3057 14.3877 49.3209 14.3634 49.3361 14.339C49.3158 14.268 49.3554 14.2363 49.4049 14.1969C49.4169 14.1873 49.4294 14.1771 49.4419 14.1659C49.4715 14.1174 49.5012 14.069 49.5306 14.0203C49.5422 13.97 49.5437 13.9056 49.5285 13.8208C49.498 13.651 49.3934 13.4252 49.2911 13.2044C49.248 13.1113 49.2051 13.019 49.1685 12.9323C49.1512 12.9345 49.1334 12.9343 49.1143 12.9288C48.9835 12.8909 48.7988 12.7435 48.6288 12.6078C48.5157 12.5176 48.4091 12.4325 48.3295 12.3884C48.1835 12.3078 48.0543 12.172 47.9587 12.0716C47.9091 12.0196 47.8684 11.977 47.8394 11.9566C47.8161 11.9403 47.7987 11.9391 47.7807 11.9378C47.765 11.9366 47.7487 11.9353 47.7279 11.9242C47.4756 11.7886 47.3805 11.6584 47.2421 11.469C47.1658 11.3646 47.0762 11.2421 46.9399 11.0906C46.794 10.9318 46.7472 10.8894 46.656 10.8593C46.6045 10.7602 46.5531 10.6611 46.5017 10.562C46.5159 10.5576 46.5701 10.5975 46.6582 10.6657C46.8156 10.7876 46.9245 10.7806 47.0097 10.7752C47.0491 10.7727 47.0835 10.7706 47.1152 10.7817C47.2838 10.8408 47.4264 11.0153 47.5519 11.1688C47.6209 11.2533 47.6849 11.3315 47.7451 11.3806C47.7708 11.4016 47.7906 11.4281 47.8109 11.4552C47.8265 11.4761 47.8424 11.4974 47.8614 11.5166C47.9996 11.6563 48.1351 11.727 48.2609 11.7927C48.333 11.8303 48.402 11.8665 48.4665 11.9128C48.4861 11.9269 48.5056 11.9419 48.5244 11.9566C48.5518 11.978 48.578 11.9984 48.6025 12.0137C48.6584 12.0487 48.7106 12.0577 48.7676 12.0675C48.7968 12.0725 48.8273 12.0777 48.8603 12.0868C48.903 12.0986 48.9635 12.1479 49.0268 12.1994C49.0716 12.2358 49.1177 12.2732 49.1601 12.2996C49.2369 12.3474 49.2887 12.3405 49.3367 12.3342C49.3576 12.3314 49.3781 12.329 49.3994 12.3309C49.4081 12.3317 49.4194 12.3393 49.4328 12.3518C49.5209 12.3507 49.608 12.3524 49.693 12.3544C50.1192 12.3644 50.4884 12.3734 50.6203 11.9673C50.6452 11.8906 50.705 11.8411 50.7809 11.8067C50.903 11.5757 51.0234 11.3428 51.1421 11.1086C51.0519 10.9485 50.9895 10.8007 50.9576 10.6676C50.8977 10.4177 50.9624 10.2869 51.0386 10.1325C51.095 10.0184 51.1576 9.89124 51.1811 9.69362C51.2206 9.36158 51.2876 9.04712 51.4385 8.76759C51.5888 8.48929 51.7869 8.19677 51.9437 8.00646C52.0292 7.90271 52.0166 7.69136 52.005 7.49452C51.9887 7.21766 51.9743 6.96937 52.2362 7.0885C52.3198 7.12658 52.4476 7.21024 52.5717 7.29148C52.6601 7.34934 52.7466 7.40569 52.8145 7.44414C52.8373 7.38833 52.8603 7.33266 52.8829 7.27666C52.8258 7.07985 52.7983 6.83519 53.0448 6.87183C53.0678 6.81378 53.091 6.75579 53.1125 6.69895C53.1611 6.57653 53.2073 6.45548 53.2541 6.3334C53.2691 6.29339 53.2845 6.25309 53.2998 6.21265C53.3 6.21224 53.3001 6.21183 53.3002 6.21143C53.3311 6.13003 53.3622 6.04804 53.3923 5.96682C53.4052 5.93208 53.4181 5.89734 53.431 5.86259C53.4639 5.77434 53.4971 5.68555 53.529 5.59753C53.5457 5.55086 53.563 5.50401 53.58 5.45688C53.6076 5.38041 53.6355 5.30342 53.663 5.22653C53.7074 5.1022 53.751 4.97781 53.7945 4.85294C53.8015 4.83245 53.7936 4.7981 53.7713 4.75636C53.7489 4.71456 53.7142 4.66887 53.6727 4.62744C53.6313 4.586 53.5854 4.55121 53.5437 4.529C53.5021 4.50689 53.4683 4.49949 53.448 4.50668C53.3242 4.55129 53.2009 4.59621 53.0776 4.64182C53.0014 4.67 52.9248 4.69821 52.849 4.72656C52.8023 4.74403 52.7559 4.76166 52.7096 4.77889C52.6224 4.81156 52.5341 4.84539 52.4466 4.87907C52.4121 4.89227 52.3777 4.90547 52.3432 4.91867C52.2626 4.94956 52.1812 4.98164 52.1003 5.01337C52.0999 5.01357 52.0994 5.01377 52.0989 5.01396C52.0591 5.02958 52.0194 5.04512 51.98 5.06048C51.859 5.10836 51.7391 5.15584 51.6178 5.20557C51.5543 5.23044 51.4893 5.2576 51.4245 5.28422C51.3884 5.29904 51.3524 5.31375 51.3169 5.32813C51.2976 5.33614 51.2782 5.34439 51.2587 5.35268C50.8073 5.53912 50.3633 5.72834 49.9214 5.9257C49.4808 6.12186 49.0446 6.32362 48.6141 6.5291C48.1827 6.73534 47.7568 6.94587 47.335 7.16104C44.6577 8.5262 42.0905 10.0176 39.7236 11.7111C39.3857 11.9523 39.045 12.2059 38.7158 12.457C38.3834 12.7112 38.0614 12.9639 37.7377 13.2283C37.6391 13.3084 37.5388 13.3912 37.4366 13.4769Z" fill="black"/>
<circle cx="6.11434" cy="34.7675" r="3.3234" transform="rotate(8.2828 6.11434 34.7675)" fill="black"/>
<path d="M0.164463 36.8977C-0.242236 35.9248 0.217881 34.8793 0.343631 33.989C0.346371 33.9689 0.349056 33.9488 0.351696 33.9286C0.480519 32.8367 0.564385 31.4281 1.49626 30.5524C2.41016 29.6944 3.5971 29.1791 4.77959 29.0836C5.51765 29.0213 6.25029 29.1203 6.90307 29.3496C7.29646 29.487 7.66885 29.6717 8.00574 29.895C8.90448 30.4876 9.52929 31.3516 9.81318 32.24C10.0088 32.8438 10.054 33.4604 9.97084 34.0209C9.93469 34.267 9.87441 34.5021 9.7939 34.7225C9.73372 34.8866 9.6624 35.0435 9.58202 35.1898C9.57072 35.2102 9.5328 35.2262 9.47498 35.2332C9.41706 35.2402 9.34442 35.2378 9.27058 35.227C9.19668 35.2162 9.12622 35.198 9.07236 35.1772C9.01866 35.1564 8.98624 35.1348 8.98006 35.116C8.93616 34.9801 8.88275 34.8505 8.82117 34.7301C8.75289 34.596 8.67446 34.4724 8.58896 34.3603C8.88795 34.2914 9.11169 34.2193 9.19953 34.1363C9.24441 34.0942 9.25485 34.041 9.19121 34.0204C9.13406 34.0019 9.03996 34.0025 8.95064 34.0049C8.85718 34.0075 8.7689 34.0122 8.73271 33.9971C8.67115 33.9714 8.53516 33.9734 8.39401 33.9831C8.34261 33.9866 8.29041 33.9911 8.24076 33.9951C8.14539 33.9154 8.04629 33.8465 7.94549 33.7882C7.95621 33.7391 7.96075 33.6941 7.93421 33.6744C7.91039 33.6567 7.84205 33.6697 7.76204 33.6943C7.74624 33.6872 7.73042 33.6805 7.71457 33.6739C7.61256 33.6316 7.51072 33.5994 7.41056 33.5771C7.42659 33.4738 7.42946 33.3638 7.37636 33.2728C7.3536 33.2339 7.34796 33.173 7.33901 33.1135C7.32646 33.0261 7.3056 32.9413 7.23646 32.9503C7.19065 32.9566 7.1813 32.901 7.16794 32.8444C7.15117 32.7691 7.12532 32.6916 7.03301 32.7789C6.97526 32.8339 6.91571 32.9063 6.86316 32.975C6.77941 33.0842 6.71374 33.1838 6.68839 33.1831C6.64025 33.1818 6.57321 33.2626 6.521 33.3367C6.45696 33.4255 6.41339 33.504 6.40791 33.4078C6.40702 33.3932 6.40641 33.3739 6.4055 33.352C6.40255 33.271 6.39284 33.1551 6.35367 33.1235C6.33732 33.1102 6.31639 33.1122 6.29185 33.139C6.26251 33.1712 6.23088 33.2601 6.20482 33.3482C6.16605 33.4764 6.14046 33.6022 6.11529 33.5457C6.11144 33.5373 6.10733 33.502 6.1032 33.4697C6.09801 33.4287 6.09275 33.393 6.09051 33.4241C6.08392 33.5156 6.07471 33.6169 6.06873 33.7272C6.06428 33.8082 6.06157 33.894 6.0616 33.9841C6.02205 34.0375 5.99165 34.0917 5.96859 34.1444C5.95805 34.1686 5.94897 34.1925 5.94132 34.216C5.89257 34.0872 5.84244 33.9732 5.79808 33.8895C5.73986 33.7803 5.70125 33.7548 5.64951 33.7247C5.61104 33.7028 5.56542 33.6782 5.48903 33.6222C5.34529 33.5194 5.28415 33.6041 5.29763 33.7017C5.30006 33.7226 5.30358 33.7442 5.30809 33.7674C5.32582 33.8552 5.35126 33.9634 5.37913 34.0943C5.40698 34.2172 5.40184 34.2726 5.39764 34.3166C5.39584 34.3387 5.39508 34.3568 5.4034 34.375C5.41766 34.4063 5.42897 34.4385 5.44234 34.4692C5.4631 34.5171 5.48925 34.5611 5.53376 34.592C5.54958 34.603 5.56971 34.615 5.59152 34.6271C5.64758 34.6586 5.71659 34.6899 5.76093 34.7161C5.76437 34.7181 5.76765 34.7201 5.77078 34.7221C5.81666 34.7498 5.78327 34.7537 5.71035 34.7678C5.68078 34.7731 5.56407 34.7795 5.44379 34.7921C5.27306 34.8087 5.0958 34.8415 5.15134 34.8626C5.16429 34.8672 5.1926 34.8704 5.22229 34.873C5.27687 34.8781 5.3358 34.88 5.31229 34.8946C5.3041 34.8998 5.27338 34.9083 5.24338 34.9171C5.21036 34.9268 5.17821 34.9369 5.17726 34.942C5.1737 34.9609 5.18522 34.9766 5.19573 34.9898C5.20931 35.0069 5.22104 35.0203 5.19746 35.0382C5.15549 35.0705 5.20476 35.0786 5.25381 35.0814C5.29142 35.084 5.32907 35.084 5.32853 35.0992C5.32679 35.1436 5.43139 35.1617 5.57315 35.1209C5.6265 35.1053 5.57299 35.1554 5.51202 35.2292C5.47398 35.2748 5.43276 35.3293 5.41101 35.3783C5.39883 35.4061 5.45479 35.3716 5.5045 35.3374C5.55052 35.3061 5.59153 35.2754 5.576 35.3006C5.56226 35.3228 5.48858 35.4028 5.41994 35.48C5.34342 35.5658 5.27332 35.6483 5.29551 35.6403C5.30725 35.6359 5.3493 35.6008 5.39807 35.5579C5.41736 35.5409 5.43764 35.5228 5.4577 35.5049C5.44288 35.5212 5.4297 35.5358 5.41974 35.5469C5.34924 35.6253 5.31984 35.6735 5.2926 35.7219C5.2817 35.7412 5.27115 35.7604 5.25819 35.7815C5.21043 35.8591 5.22378 35.889 5.24334 35.8988C5.25159 35.9029 5.23828 35.9339 5.22361 35.9705C5.21056 36.003 5.19646 36.0401 5.19475 36.0661C5.19375 36.081 5.1812 36.1095 5.17093 36.1334C5.16349 36.1507 5.15724 36.1655 5.15739 36.1707C5.15755 36.1751 5.17633 36.1513 5.19732 36.1244C5.21243 36.1051 5.22874 36.0841 5.24014 36.0709C5.26742 36.0393 5.27938 36.0323 5.27576 36.0458C5.27408 36.0521 5.26899 36.0628 5.26395 36.0735C5.25808 36.0859 5.2522 36.0985 5.25182 36.104C5.25015 36.1291 5.27898 36.1065 5.30783 36.0823C5.33976 36.0557 5.37136 36.027 5.36872 36.0607C5.36791 36.0713 5.36129 36.0929 5.3551 36.1139C5.3486 36.136 5.34263 36.1573 5.34372 36.1645C5.34839 36.1938 5.39919 36.1353 5.44328 36.08C5.47275 36.0433 5.49955 36.0082 5.51085 36.0026C5.53179 35.9926 5.57692 35.9138 5.60934 35.8552C5.62618 35.8248 5.63979 35.7998 5.64521 35.7928C5.64586 35.7959 5.64635 35.7994 5.64672 35.8031C5.64555 35.8099 5.64439 35.8169 5.64682 35.8156C5.647 35.8155 5.64728 35.8152 5.64746 35.815C5.64819 35.8394 5.64584 35.8722 5.64426 35.9051C5.64033 35.9789 5.64343 36.0538 5.68301 36.0261C5.69149 36.0202 5.70917 35.9867 5.72649 35.9524C5.74779 35.9104 5.76849 35.867 5.77417 35.8723C5.78761 35.8849 5.78713 35.9488 5.79034 36.0123C5.79411 36.1077 5.8084 36.2022 5.85421 36.1113C5.8691 36.0812 5.88713 36.0298 5.90416 35.9777C5.91367 35.9487 5.92294 35.9193 5.93135 35.8937C5.92257 35.9424 5.9146 35.9881 5.90714 36.0308C5.89172 36.1188 5.87853 36.1941 5.86259 36.2573C5.82535 36.4066 5.77019 36.6112 5.74387 36.763C5.73684 36.8043 5.72796 36.85 5.71892 36.896C5.69634 37.0114 5.67239 37.1292 5.68109 37.186C5.68648 37.2242 5.7064 37.3128 5.74089 37.2269C5.74831 37.2082 5.75676 37.1702 5.76599 37.1279C5.7704 37.1077 5.775 37.0865 5.77976 37.0658C5.79287 37.009 5.80702 36.9569 5.82176 36.9431C5.82516 36.9399 5.82874 36.9371 5.83239 36.9346C5.84693 36.9243 5.86303 36.9128 5.87537 36.8515C5.88957 36.7808 5.89732 36.6988 5.90692 36.6034C5.91912 36.479 5.93547 36.3315 5.96397 36.1548C5.96956 36.1198 5.97401 36.1081 5.97734 36.0992C5.97968 36.0929 5.98148 36.0879 5.98269 36.0773C5.98407 36.0652 5.98614 36.0398 5.9888 36.0078C5.99797 35.8946 6.01658 35.6972 6.02925 35.69C6.03275 35.6881 6.03568 35.6978 6.03842 35.7066C6.04243 35.7196 6.04601 35.7302 6.04894 35.6979C6.05006 35.6856 6.05118 35.6723 6.05231 35.6586C6.05584 35.6627 6.05941 35.6669 6.06301 35.671C6.06561 35.7099 6.07315 35.707 6.08218 35.7031C6.08438 35.7021 6.08668 35.7012 6.08905 35.7007C6.09657 35.709 6.10424 35.7171 6.11207 35.7253C6.11823 35.7418 6.1249 35.7685 6.13318 35.8108C6.14958 35.8955 6.16933 36.0352 6.1943 36.1711C6.20476 36.2284 6.21616 36.2851 6.22811 36.3367C6.22534 36.3434 6.22292 36.3511 6.22131 36.3617C6.21037 36.4342 6.21079 36.5752 6.20996 36.7051C6.2094 36.7914 6.20828 36.8729 6.20222 36.9257C6.19098 37.0223 6.19548 37.1346 6.19963 37.2177C6.2017 37.2607 6.20342 37.296 6.20178 37.3171C6.20044 37.3339 6.1963 37.342 6.19197 37.3503C6.1882 37.3575 6.18427 37.3651 6.18195 37.3787C6.15312 37.544 6.16236 37.6393 6.18192 37.778C6.19248 37.8545 6.20573 37.9442 6.21461 38.0661C6.22292 38.1951 6.22296 38.233 6.20142 38.2851C6.22069 38.3485 6.2409 38.4118 6.26205 38.4748C6.26922 38.4704 6.2732 38.4303 6.27783 38.3637C6.28625 38.2448 6.3259 38.1994 6.35615 38.1633C6.37013 38.1466 6.38208 38.132 6.38791 38.1133C6.41866 38.0138 6.39417 37.8808 6.37545 37.7636C6.36495 37.6991 6.35572 37.6394 6.35516 37.5929C6.3549 37.573 6.35123 37.5536 6.34757 37.5338C6.34475 37.5184 6.3419 37.5028 6.34051 37.4867C6.33062 37.3692 6.34117 37.2805 6.34872 37.1982C6.35313 37.1511 6.35673 37.1058 6.3562 37.0586C6.35605 37.0442 6.35556 37.0296 6.35504 37.0153C6.35428 36.9946 6.35354 36.9748 6.35384 36.9577C6.35455 36.9189 6.36142 36.892 6.36847 36.8626C6.37208 36.8476 6.37574 36.8318 6.37863 36.8135C6.38236 36.7897 6.37857 36.7431 6.37449 36.6946C6.3716 36.6602 6.36858 36.6249 6.36767 36.5955C6.36606 36.5424 6.37412 36.522 6.38134 36.503C6.38448 36.4947 6.38741 36.4865 6.38934 36.4762C6.39011 36.472 6.38951 36.464 6.3879 36.4531C6.39785 36.4142 6.40584 36.3745 6.41259 36.3356C6.44818 36.1398 6.44369 35.9758 6.55174 36.0624C6.5727 36.0785 6.58661 36.0689 6.59527 36.0468C6.65924 36.072 6.72777 36.0941 6.80045 36.1118C6.85885 36.2012 6.91385 36.2732 6.9642 36.3254C7.05906 36.4233 7.10935 36.4266 7.16745 36.429C7.21081 36.4305 7.25876 36.4315 7.34172 36.4626C7.48119 36.5148 7.62144 36.5372 7.73815 36.5029C7.85435 36.4694 7.97133 36.4013 8.03989 36.3392C8.07712 36.306 8.18417 36.3227 8.28671 36.3317C8.43035 36.3455 8.5652 36.3425 8.45012 36.2214C8.41331 36.1828 8.34341 36.1252 8.27471 36.0704C8.22579 36.0314 8.17768 35.9937 8.14254 35.9645C8.16453 35.9548 8.18637 35.9447 8.20842 35.9342C8.31929 35.9567 8.45104 35.9549 8.36727 35.8517C8.38991 35.8388 8.41238 35.8255 8.43467 35.8125C8.4821 35.7834 8.52902 35.7534 8.57579 35.7211C8.59118 35.7106 8.6066 35.6996 8.62202 35.6885C8.62218 35.6884 8.62235 35.6883 8.62252 35.6882C8.65353 35.6658 8.68442 35.6424 8.71505 35.6185C8.72812 35.6082 8.74115 35.5978 8.75412 35.5872C8.78702 35.5603 8.81964 35.5323 8.85198 35.5036C8.86913 35.4885 8.88619 35.4726 8.9032 35.4569C8.93085 35.4312 8.95834 35.4044 8.98557 35.3769C9.02965 35.3322 9.07287 35.2868 9.11544 35.2383C9.12246 35.2304 9.14146 35.2247 9.16928 35.2223C9.19714 35.22 9.23144 35.2213 9.26623 35.2263C9.30105 35.2314 9.33436 35.2401 9.36018 35.2508C9.38591 35.2615 9.4018 35.2734 9.40579 35.2839C9.42975 35.3481 9.45176 35.4124 9.47124 35.4797C9.48333 35.5211 9.49482 35.5631 9.50522 35.6051C9.51166 35.6309 9.51749 35.6572 9.52326 35.6833C9.53404 35.7326 9.54359 35.7831 9.55177 35.8339C9.55501 35.854 9.55808 35.8741 9.56099 35.8943C9.56779 35.9416 9.57331 35.9897 9.57775 36.0382C9.57778 36.0385 9.5778 36.0388 9.57782 36.0391C9.57999 36.063 9.58196 36.0869 9.58369 36.1107C9.58867 36.1839 9.59137 36.2573 9.59073 36.3328C9.59103 36.3721 9.58984 36.4126 9.58805 36.4534C9.58706 36.4761 9.58592 36.4988 9.58466 36.5212C9.58386 36.5334 9.58289 36.5457 9.58185 36.558C9.5608 36.8438 9.50248 37.134 9.40355 37.4214C9.30532 37.7081 9.16774 37.9903 8.99395 38.2574C8.81966 38.5249 8.60881 38.7775 8.36469 39.0065C7.60787 39.7251 6.50012 40.2072 5.3163 40.2494C4.0977 40.3056 2.77074 39.8765 1.74414 39.0204C1.4546 38.7819 1.18176 38.5035 0.943809 38.2052C0.703512 37.9035 0.495843 37.5818 0.319066 37.2312C0.265282 37.1249 0.213537 37.0136 0.164463 36.8977Z" fill="black"/>
<circle cx="61.1143" cy="35.7675" r="3.3234" transform="rotate(8.2828 61.1143 35.7675)" fill="black"/>
<path d="M55.1645 37.8977C54.7578 36.9248 55.2179 35.8793 55.3436 34.989C55.3464 34.9689 55.3491 34.9488 55.3517 34.9286C55.4805 33.8367 55.5644 32.4281 56.4963 31.5524C57.4102 30.6944 58.5971 30.1791 59.7796 30.0836C60.5177 30.0213 61.2503 30.1203 61.9031 30.3496C62.2965 30.487 62.6689 30.6717 63.0057 30.895C63.9045 31.4876 64.5293 32.3516 64.8132 33.24C65.0088 33.8438 65.054 34.4604 64.9708 35.0209C64.9347 35.267 64.8744 35.5021 64.7939 35.7225C64.7337 35.8866 64.6624 36.0435 64.582 36.1898C64.5707 36.2102 64.5328 36.2262 64.475 36.2332C64.4171 36.2402 64.3444 36.2378 64.2706 36.227C64.1967 36.2162 64.1262 36.198 64.0724 36.1772C64.0187 36.1564 63.9862 36.1348 63.9801 36.116C63.9362 35.9801 63.8828 35.8505 63.8212 35.7301C63.7529 35.596 63.6745 35.4724 63.589 35.3603C63.888 35.2914 64.1117 35.2193 64.1995 35.1363C64.2444 35.0942 64.2549 35.041 64.1912 35.0204C64.1341 35.0019 64.04 35.0025 63.9506 35.0049C63.8572 35.0075 63.7689 35.0122 63.7327 34.9971C63.6712 34.9714 63.5352 34.9734 63.394 34.9831C63.3426 34.9866 63.2904 34.9911 63.2408 34.9951C63.1454 34.9154 63.0463 34.8465 62.9455 34.7882C62.9562 34.7391 62.9607 34.6941 62.9342 34.6744C62.9104 34.6567 62.8421 34.6697 62.762 34.6943C62.7462 34.6872 62.7304 34.6805 62.7146 34.6739C62.6126 34.6316 62.5107 34.5994 62.4106 34.5771C62.4266 34.4738 62.4295 34.3638 62.3764 34.2728C62.3536 34.2339 62.348 34.173 62.339 34.1135C62.3265 34.0261 62.3056 33.9413 62.2365 33.9503C62.1907 33.9566 62.1813 33.901 62.1679 33.8444C62.1512 33.7691 62.1253 33.6916 62.033 33.7789C61.9753 33.8339 61.9157 33.9063 61.8632 33.975C61.7794 34.0842 61.7137 34.1838 61.6884 34.1831C61.6403 34.1818 61.5732 34.2626 61.521 34.3367C61.457 34.4255 61.4134 34.504 61.4079 34.4078C61.407 34.3932 61.4064 34.3739 61.4055 34.352C61.4025 34.271 61.3928 34.1551 61.3537 34.1235C61.3373 34.1102 61.3164 34.1122 61.2919 34.139C61.2625 34.1712 61.2309 34.2601 61.2048 34.3482C61.166 34.4764 61.1405 34.6022 61.1153 34.5457C61.1114 34.5373 61.1073 34.502 61.1032 34.4697C61.098 34.4287 61.0927 34.393 61.0905 34.4241C61.0839 34.5156 61.0747 34.6169 61.0687 34.7272C61.0643 34.8082 61.0616 34.894 61.0616 34.9841C61.022 35.0375 60.9916 35.0917 60.9686 35.1444C60.958 35.1686 60.949 35.1925 60.9413 35.216C60.8926 35.0872 60.8424 34.9732 60.7981 34.8895C60.7399 34.7803 60.7012 34.7548 60.6495 34.7247C60.611 34.7028 60.5654 34.6782 60.489 34.6222C60.3453 34.5194 60.2841 34.6041 60.2976 34.7017C60.3001 34.7226 60.3036 34.7442 60.3081 34.7674C60.3258 34.8552 60.3513 34.9634 60.3791 35.0943C60.407 35.2172 60.4018 35.2726 60.3976 35.3166C60.3958 35.3387 60.3951 35.3568 60.4034 35.375C60.4177 35.4063 60.429 35.4385 60.4423 35.4692C60.4631 35.5171 60.4893 35.5611 60.5338 35.592C60.5496 35.603 60.5697 35.615 60.5915 35.6271C60.6476 35.6586 60.7166 35.6899 60.7609 35.7161C60.7644 35.7181 60.7677 35.7201 60.7708 35.7221C60.8167 35.7498 60.7833 35.7537 60.7103 35.7678C60.6808 35.7731 60.5641 35.7795 60.4438 35.7921C60.2731 35.8087 60.0958 35.8415 60.1513 35.8626C60.1643 35.8672 60.1926 35.8704 60.2223 35.873C60.2769 35.8781 60.3358 35.88 60.3123 35.8946C60.3041 35.8998 60.2734 35.9083 60.2434 35.9171C60.2104 35.9268 60.1782 35.9369 60.1773 35.942C60.1737 35.9609 60.1852 35.9766 60.1957 35.9898C60.2093 36.0069 60.221 36.0203 60.1975 36.0382C60.1555 36.0705 60.2048 36.0786 60.2538 36.0814C60.2914 36.084 60.3291 36.084 60.3285 36.0992C60.3268 36.1436 60.4314 36.1617 60.5731 36.1209C60.6265 36.1053 60.573 36.1554 60.512 36.2292C60.474 36.2748 60.4328 36.3293 60.411 36.3783C60.3988 36.4061 60.4548 36.3716 60.5045 36.3374C60.5505 36.3061 60.5915 36.2754 60.576 36.3006C60.5623 36.3228 60.4886 36.4028 60.4199 36.48C60.3434 36.5658 60.2733 36.6483 60.2955 36.6403C60.3073 36.6359 60.3493 36.6008 60.3981 36.5579C60.4174 36.5409 60.4376 36.5228 60.4577 36.5049C60.4429 36.5212 60.4297 36.5358 60.4197 36.5469C60.3492 36.6253 60.3198 36.6735 60.2926 36.7219C60.2817 36.7412 60.2711 36.7604 60.2582 36.7815C60.2104 36.8591 60.2238 36.889 60.2433 36.8988C60.2516 36.9029 60.2383 36.9339 60.2236 36.9705C60.2106 37.003 60.1965 37.0401 60.1947 37.0661C60.1937 37.081 60.1812 37.1095 60.1709 37.1334C60.1635 37.1507 60.1572 37.1655 60.1574 37.1707C60.1575 37.1751 60.1763 37.1513 60.1973 37.1244C60.2124 37.1051 60.2287 37.0841 60.2401 37.0709C60.2674 37.0393 60.2794 37.0323 60.2758 37.0458C60.2741 37.0521 60.269 37.0628 60.264 37.0735C60.2581 37.0859 60.2522 37.0985 60.2518 37.104C60.2502 37.1291 60.279 37.1065 60.3078 37.0823C60.3398 37.0557 60.3714 37.027 60.3687 37.0607C60.3679 37.0713 60.3613 37.0929 60.3551 37.1139C60.3486 37.136 60.3426 37.1573 60.3437 37.1645C60.3484 37.1938 60.3992 37.1353 60.4433 37.08C60.4727 37.0433 60.4995 37.0082 60.5109 37.0026C60.5318 36.9926 60.5769 36.9138 60.6093 36.8552C60.6262 36.8248 60.6398 36.7998 60.6452 36.7928C60.6459 36.7959 60.6464 36.7994 60.6467 36.8031C60.6456 36.8099 60.6444 36.8169 60.6468 36.8156C60.647 36.8155 60.6473 36.8152 60.6475 36.815C60.6482 36.8394 60.6458 36.8722 60.6443 36.9051C60.6403 36.9789 60.6434 37.0538 60.683 37.0261C60.6915 37.0202 60.7092 36.9867 60.7265 36.9524C60.7478 36.9104 60.7685 36.867 60.7742 36.8723C60.7876 36.8849 60.7871 36.9488 60.7903 37.0123C60.7941 37.1077 60.8084 37.2022 60.8542 37.1113C60.8691 37.0812 60.8871 37.0298 60.9042 36.9777C60.9137 36.9487 60.9229 36.9193 60.9313 36.8937C60.9226 36.9424 60.9146 36.9881 60.9071 37.0308C60.8917 37.1188 60.8785 37.1941 60.8626 37.2573C60.8254 37.4066 60.7702 37.6112 60.7439 37.763C60.7368 37.8043 60.728 37.85 60.7189 37.896C60.6963 38.0114 60.6724 38.1292 60.6811 38.186C60.6865 38.2242 60.7064 38.3128 60.7409 38.2269C60.7483 38.2082 60.7568 38.1702 60.766 38.1279C60.7704 38.1077 60.775 38.0865 60.7798 38.0658C60.7929 38.009 60.807 37.9569 60.8218 37.9431C60.8252 37.9399 60.8287 37.9371 60.8324 37.9346C60.8469 37.9243 60.863 37.9128 60.8754 37.8515C60.8896 37.7808 60.8973 37.6988 60.9069 37.6034C60.9191 37.479 60.9355 37.3315 60.964 37.1548C60.9696 37.1198 60.974 37.1081 60.9773 37.0992C60.9797 37.0929 60.9815 37.0879 60.9827 37.0773C60.9841 37.0652 60.9861 37.0398 60.9888 37.0078C60.998 36.8946 61.0166 36.6972 61.0292 36.69C61.0328 36.6881 61.0357 36.6978 61.0384 36.7066C61.0424 36.7196 61.046 36.7302 61.0489 36.6979C61.0501 36.6856 61.0512 36.6723 61.0523 36.6586C61.0558 36.6627 61.0594 36.6669 61.063 36.671C61.0656 36.7099 61.0731 36.707 61.0822 36.7031C61.0844 36.7021 61.0867 36.7012 61.0891 36.7007C61.0966 36.709 61.1042 36.7171 61.1121 36.7253C61.1182 36.7418 61.1249 36.7685 61.1332 36.8108C61.1496 36.8955 61.1693 37.0352 61.1943 37.1711C61.2048 37.2284 61.2162 37.2851 61.2281 37.3367C61.2253 37.3434 61.2229 37.3511 61.2213 37.3617C61.2104 37.4342 61.2108 37.5752 61.21 37.7051C61.2094 37.7914 61.2083 37.8729 61.2022 37.9257C61.191 38.0223 61.1955 38.1346 61.1996 38.2177C61.2017 38.2607 61.2034 38.296 61.2018 38.3171C61.2004 38.3339 61.1963 38.342 61.192 38.3503C61.1882 38.3575 61.1843 38.3651 61.1819 38.3787C61.1531 38.544 61.1624 38.6393 61.1819 38.778C61.1925 38.8545 61.2057 38.9442 61.2146 39.0661C61.2229 39.1951 61.223 39.233 61.2014 39.2851C61.2207 39.3485 61.2409 39.4118 61.2621 39.4748C61.2692 39.4704 61.2732 39.4303 61.2778 39.3637C61.2863 39.2448 61.3259 39.1994 61.3561 39.1633C61.3701 39.1466 61.3821 39.132 61.3879 39.1133C61.4187 39.0138 61.3942 38.8808 61.3755 38.7636C61.3649 38.6991 61.3557 38.6394 61.3552 38.5929C61.3549 38.573 61.3512 38.5536 61.3476 38.5338C61.3447 38.5184 61.3419 38.5028 61.3405 38.4867C61.3306 38.3692 61.3412 38.2805 61.3487 38.1982C61.3531 38.1511 61.3567 38.1058 61.3562 38.0586C61.356 38.0442 61.3556 38.0296 61.355 38.0153C61.3543 37.9946 61.3535 37.9748 61.3538 37.9577C61.3545 37.9189 61.3614 37.892 61.3685 37.8626C61.3721 37.8476 61.3757 37.8318 61.3786 37.8135C61.3824 37.7897 61.3786 37.7431 61.3745 37.6946C61.3716 37.6602 61.3686 37.6249 61.3677 37.5955C61.3661 37.5424 61.3741 37.522 61.3813 37.503C61.3845 37.4947 61.3874 37.4865 61.3893 37.4762C61.3901 37.472 61.3895 37.464 61.3879 37.4531C61.3978 37.4142 61.4058 37.3745 61.4126 37.3356C61.4482 37.1398 61.4437 36.9758 61.5517 37.0624C61.5727 37.0785 61.5866 37.0689 61.5953 37.0468C61.6592 37.072 61.7278 37.0941 61.8004 37.1118C61.8588 37.2012 61.9139 37.2732 61.9642 37.3254C62.0591 37.4233 62.1093 37.4266 62.1675 37.429C62.2108 37.4305 62.2588 37.4315 62.3417 37.4626C62.4812 37.5148 62.6214 37.5372 62.7382 37.5029C62.8543 37.4694 62.9713 37.4013 63.0399 37.3392C63.0771 37.306 63.1842 37.3227 63.2867 37.3317C63.4304 37.3455 63.5652 37.3425 63.4501 37.2214C63.4133 37.1828 63.3434 37.1252 63.2747 37.0704C63.2258 37.0314 63.1777 36.9937 63.1425 36.9645C63.1645 36.9548 63.1864 36.9447 63.2084 36.9342C63.3193 36.9567 63.451 36.9549 63.3673 36.8517C63.3899 36.8388 63.4124 36.8255 63.4347 36.8125C63.4821 36.7834 63.529 36.7534 63.5758 36.7211C63.5912 36.7106 63.6066 36.6996 63.622 36.6885C63.6222 36.6884 63.6223 36.6883 63.6225 36.6882C63.6535 36.6658 63.6844 36.6424 63.715 36.6185C63.7281 36.6082 63.7412 36.5978 63.7541 36.5872C63.787 36.5603 63.8196 36.5323 63.852 36.5036C63.8691 36.4885 63.8862 36.4726 63.9032 36.4569C63.9308 36.4312 63.9583 36.4044 63.9856 36.3769C64.0297 36.3322 64.0729 36.2868 64.1154 36.2383C64.1225 36.2304 64.1415 36.2247 64.1693 36.2223C64.1971 36.22 64.2314 36.2213 64.2662 36.2263C64.301 36.2314 64.3344 36.2401 64.3602 36.2508C64.3859 36.2615 64.4018 36.2734 64.4058 36.2839C64.4297 36.3481 64.4518 36.4124 64.4712 36.4797C64.4833 36.5211 64.4948 36.5631 64.5052 36.6051C64.5117 36.6309 64.5175 36.6572 64.5233 36.6833C64.534 36.7326 64.5436 36.7831 64.5518 36.8339C64.555 36.854 64.5581 36.8741 64.561 36.8943C64.5678 36.9416 64.5733 36.9897 64.5778 37.0382C64.5778 37.0385 64.5778 37.0388 64.5778 37.0391C64.58 37.063 64.582 37.0869 64.5837 37.1107C64.5887 37.1839 64.5914 37.2573 64.5907 37.3328C64.591 37.3721 64.5898 37.4126 64.588 37.4534C64.5871 37.4761 64.5859 37.4988 64.5847 37.5212C64.5839 37.5334 64.5829 37.5457 64.5818 37.558C64.5608 37.8438 64.5025 38.134 64.4035 38.4214C64.3053 38.7081 64.1677 38.9903 63.994 39.2574C63.8197 39.5249 63.6088 39.7775 63.3647 40.0065C62.6079 40.7251 61.5001 41.2072 60.3163 41.2494C59.0977 41.3056 57.7707 40.8765 56.7441 40.0204C56.4546 39.7819 56.1818 39.5035 55.9438 39.2052C55.7035 38.9035 55.4958 38.5818 55.3191 38.2312C55.2653 38.1249 55.2135 38.0136 55.1645 37.8977Z" fill="black"/>
</svg>
