<svg width="61" height="68" viewBox="0 0 61 68" fill="none" xmlns="http://www.w3.org/2000/svg">
<path d="M17.6276 19.6088C18.3194 20.4388 19.7042 20.5186 20.469 21.2809C21.4186 22.2272 21.7582 23.8138 22.8245 24.6479C23.8853 25.4765 25.0013 26.2589 26.1532 26.9996C27.3061 27.7412 28.4964 28.4427 29.7149 29.1198C30.9314 29.7948 32.1762 30.4457 33.4343 31.0806C34.2889 31.5118 35.151 31.9369 36.015 32.3585C36.3942 32.5437 36.7729 32.7277 37.1527 32.912C37.4362 33.0493 37.7197 33.1867 38.0033 33.324C38.0428 33.3429 38.1126 33.3291 38.1997 33.2835C38.2868 33.2376 38.3836 33.1642 38.4715 33.0762C38.5595 32.9882 38.633 32.8911 38.6785 32.8042C38.7238 32.7174 38.737 32.6481 38.7176 32.6089C38.5762 32.3259 38.4348 32.0429 38.2935 31.76C38.1363 31.4457 37.9797 31.1318 37.8221 30.8181C37.424 31.142 37.0993 31.3649 36.883 31.3904C36.7727 31.4034 36.676 31.358 36.6908 31.2386C36.7041 31.1314 36.7762 30.9886 36.845 30.8526C36.917 30.7104 36.9854 30.5754 36.9784 30.4966C36.9665 30.3628 37.0506 30.1403 37.1389 29.9066C37.1711 29.8216 37.2038 29.7349 37.2327 29.6506C37.0812 29.3523 36.9291 29.0545 36.7764 28.7574C36.6511 28.709 36.5401 28.6602 36.4872 28.5776C36.4397 28.5036 36.4602 28.3716 36.4997 28.2214C36.4759 28.1755 36.4522 28.1296 36.4284 28.0838C36.2747 27.788 36.1198 27.4933 35.9643 27.1992C35.6926 27.1201 35.4152 27.0298 35.1351 26.8318C35.0144 26.7465 34.8607 26.697 34.713 26.6492C34.4948 26.5787 34.2897 26.5124 34.2225 26.3414C34.1777 26.2272 34.0429 26.1945 33.9086 26.1619C33.7284 26.1182 33.5485 26.0745 33.5861 25.8343C33.6098 25.6832 33.6575 25.5185 33.7018 25.3658C33.7724 25.1229 33.8341 24.9104 33.7754 24.8328C33.665 24.6869 33.6682 24.4617 33.6711 24.2632C33.6746 24.0244 33.6776 23.8241 33.4815 23.847C33.4517 23.8504 33.4146 23.8575 33.3726 23.8656C33.1512 23.9087 32.797 23.9775 32.7085 23.6565C32.677 23.5422 32.7161 23.3661 32.7547 23.1934C32.8108 22.9421 32.8651 22.698 32.6972 22.6629C32.6721 22.6577 32.6146 22.6835 32.5622 22.7071C32.4955 22.7371 32.4372 22.7633 32.4645 22.7171C32.5443 22.5816 32.6192 22.4184 32.7008 22.2408C32.7607 22.1104 32.8242 21.9721 32.8957 21.8318C32.6925 21.5088 32.4867 21.1884 32.2778 20.8709C32.1821 20.7254 32.0857 20.5805 31.9887 20.4362C31.7649 20.5367 31.5557 20.6197 31.3785 20.6635C31.147 20.7208 30.9898 20.6521 30.7869 20.5639C30.6376 20.4989 30.4634 20.4234 30.2171 20.3792C29.761 20.2973 29.5267 19.9791 29.45 19.7018C29.4338 19.6431 29.4188 19.5828 29.4032 19.518C29.3439 19.2718 29.2704 18.9643 29.0376 18.4734C28.8173 18.009 28.5578 17.6862 28.3629 17.4437C28.2634 17.3199 28.1804 17.2174 28.1283 17.1272C28.0392 16.9731 27.9188 16.7947 27.7978 16.6158C27.6084 16.3358 27.4176 16.0543 27.3445 15.86C27.3184 15.7909 27.2951 15.7143 27.2697 15.6319C27.1992 15.4035 27.1139 15.1278 26.9201 14.8239C26.7167 14.5049 26.5154 14.3824 26.2616 14.2998C26.1585 14.2663 25.9606 14.3435 25.7563 14.4236C25.4665 14.5371 25.164 14.6556 25.1024 14.4684C25.088 14.4247 25.0898 14.3609 25.0918 14.2941C25.0955 14.1714 25.0996 14.0385 25.0036 14.0026C24.9702 13.9901 24.9126 14.0072 24.8561 14.0239C24.794 14.0423 24.7332 14.0603 24.7067 14.0382C24.6079 13.9558 24.529 13.8583 24.459 13.7716C24.3687 13.6598 24.293 13.5661 24.2077 13.5462C24.0558 13.5107 24.0054 13.3561 23.9547 13.1992C23.916 13.0794 23.8771 12.9581 23.7919 12.8882C23.5484 12.6886 23.3431 12.2846 23.1947 11.8051C23.1385 11.6237 22.9524 11.6086 22.7137 11.5894C22.5652 11.5775 22.396 11.5643 22.2256 11.5081C22.129 11.4762 22.1508 11.3456 22.1708 11.2249C22.1892 11.1136 22.2061 11.0107 22.1281 11.0004C22.0592 10.9913 21.9065 11.0948 21.7615 11.193C21.6001 11.3023 21.4483 11.4051 21.4321 11.3392C21.4236 11.3042 21.4611 11.2136 21.5056 11.106C21.5233 11.0634 21.5418 11.0183 21.5593 10.9726C21.534 10.9993 21.5109 11.0227 21.4934 11.0403C21.3692 11.1646 21.2619 11.1882 21.1568 11.2113C21.1148 11.2205 21.0732 11.2294 21.031 11.2449C20.8755 11.3017 20.7649 11.2255 20.6984 11.1492C20.6703 11.117 20.6044 11.1281 20.5275 11.1411C20.4592 11.1527 20.3822 11.1658 20.3153 11.1512C20.2771 11.1429 20.2233 11.1611 20.1784 11.1764C20.146 11.1874 20.1183 11.1969 20.105 11.1934C20.0935 11.1903 20.1232 11.1488 20.1567 11.1021C20.1808 11.0684 20.2069 11.032 20.2209 11.0052C20.2545 10.9412 20.2497 10.9069 20.2203 10.9089C20.2067 10.9098 20.1878 10.9186 20.1691 10.9275C20.1472 10.9377 20.1253 10.9482 20.1117 10.9459C20.0493 10.9354 20.0545 10.8594 20.0599 10.7804C20.0658 10.6935 20.0718 10.6032 19.9889 10.5922C19.9628 10.5887 19.9211 10.5989 19.8806 10.6089C19.8383 10.6193 19.7974 10.6292 19.7774 10.6228C19.6964 10.5968 19.7349 10.4577 19.7703 10.3297C19.7939 10.2446 19.816 10.1644 19.8007 10.1257C19.7727 10.0549 19.8528 9.92172 19.912 9.82343C19.9427 9.77249 19.9679 9.73072 19.9694 9.71191C19.9585 9.70693 19.9469 9.70239 19.9351 9.69835C19.92 9.69895 19.9045 9.69955 19.9 9.68995C19.8997 9.68922 19.8996 9.68823 19.8993 9.6875C19.8293 9.66916 19.7492 9.66242 19.6695 9.65585C19.4904 9.64111 19.3135 9.62672 19.2581 9.4797C19.2462 9.44802 19.268 9.38176 19.2901 9.31443C19.3173 9.23194 19.345 9.14755 19.3121 9.12273C19.2338 9.06359 19.0917 9.06681 18.9518 9.07001C18.7414 9.07481 18.5358 9.07943 18.5588 8.87168C18.5663 8.80312 18.6 8.70995 18.6341 8.61619C18.6531 8.56393 18.6723 8.51129 18.6869 8.46303C18.6321 8.52492 18.5793 8.58159 18.53 8.63442C18.4284 8.74333 18.3415 8.83656 18.2812 8.92927C18.1386 9.14836 17.933 9.44066 17.7466 9.6174C17.6961 9.66537 17.6422 9.7213 17.5881 9.77771C17.4524 9.91924 17.3138 10.0638 17.2142 10.0922C17.1471 10.1114 16.9866 10.149 17.0534 10.0038C17.068 9.9722 17.1086 9.92122 17.1537 9.86457C17.2348 9.76276 17.3307 9.64215 17.3188 9.57986C17.3168 9.56938 17.3138 9.55876 17.3104 9.54818C17.2966 9.50598 17.281 9.45896 17.3427 9.37375C17.4139 9.2756 17.5137 9.18152 17.6302 9.07182C17.7818 8.92895 17.9619 8.75927 18.1436 8.51942C18.1795 8.47199 18.1828 8.44673 18.1853 8.42761C18.1871 8.41414 18.1888 8.40355 18.2008 8.39056C18.2147 8.37566 18.2466 8.34756 18.2869 8.31202C18.429 8.18663 18.6773 7.96747 18.6264 7.89678C18.6126 7.87769 18.5827 7.87001 18.5558 7.8632C18.5161 7.85316 18.4832 7.84474 18.5187 7.80373C18.5322 7.78819 18.5472 7.77173 18.5629 7.75483C18.5385 7.73963 18.5141 7.72444 18.4897 7.70925C18.4188 7.72946 18.387 7.68993 18.3476 7.64039C18.3381 7.62837 18.3278 7.61586 18.3167 7.60339C18.2682 7.57379 18.2197 7.54411 18.1711 7.51468C18.1208 7.50307 18.0564 7.50161 17.9716 7.51682C17.8017 7.54731 17.5759 7.6519 17.3551 7.75422C17.2621 7.79733 17.1698 7.84017 17.083 7.87676C17.0852 7.89412 17.0851 7.91188 17.0796 7.931C17.0416 8.06184 16.8942 8.24652 16.7586 8.41649C16.6683 8.52955 16.5832 8.63617 16.5392 8.71584C16.4585 8.86178 16.3227 8.99101 16.2224 9.08659C16.1703 9.13617 16.1277 9.17686 16.1073 9.20592C16.091 9.22924 16.0898 9.24664 16.0885 9.26464C16.0874 9.28032 16.0861 9.29664 16.0749 9.31741C15.9393 9.56975 15.8092 9.66479 15.6198 9.80315C15.5153 9.87946 15.3928 9.96907 15.2414 10.1054C15.0825 10.2513 15.0401 10.2981 15.01 10.3893C14.9109 10.4408 14.8119 10.4922 14.7128 10.5436C14.7083 10.5294 14.7483 10.4752 14.8165 10.3871C14.9383 10.2297 14.9314 10.1208 14.926 10.0356C14.9235 9.9962 14.9214 9.96181 14.9325 9.9301C14.9916 9.76151 15.166 9.6189 15.3195 9.49344C15.404 9.42438 15.4822 9.36043 15.5313 9.30024C15.5523 9.27451 15.5789 9.25469 15.606 9.23444C15.6269 9.21878 15.6482 9.20289 15.6674 9.18387C15.807 9.04568 15.8777 8.91017 15.9434 8.78437C15.981 8.71232 16.0172 8.6433 16.0636 8.57881C16.0777 8.55916 16.0927 8.53974 16.1074 8.52095C16.1288 8.49352 16.1491 8.46731 16.1645 8.44278C16.1994 8.38689 16.2085 8.33472 16.2183 8.27772C16.2233 8.2485 16.2285 8.21799 16.2376 8.18501C16.2493 8.14227 16.2987 8.08175 16.3502 8.01846C16.3866 7.97374 16.424 7.9276 16.4504 7.88517C16.4981 7.80842 16.4913 7.75664 16.4849 7.70859C16.4821 7.68766 16.4797 7.66718 16.4817 7.6459C16.4825 7.63723 16.49 7.6259 16.5026 7.61252C16.5014 7.52438 16.5032 7.43732 16.5052 7.35232C16.5152 6.92613 16.5241 6.55692 16.1181 6.425C16.0413 6.40006 15.9919 6.34027 15.9574 6.26435C15.7264 6.14231 15.4935 6.02194 15.2594 5.90317C15.0993 5.99341 14.9514 6.05579 14.8184 6.0877C14.5685 6.14757 14.4377 6.08294 14.2833 6.0067C14.1691 5.95033 14.042 5.88771 13.8444 5.8642C13.5123 5.82471 13.1979 5.75771 12.9183 5.60679C12.64 5.45653 12.3475 5.25839 12.1572 5.10157C12.0535 5.01609 11.8421 5.02867 11.6453 5.04026C11.3684 5.05655 11.1201 5.07102 11.2392 4.80914C11.2773 4.72547 11.361 4.59774 11.4422 4.47361C11.5001 4.3852 11.5564 4.29872 11.5949 4.23077C11.5391 4.20801 11.4834 4.18502 11.4274 4.16238C11.2306 4.21948 10.9859 4.24704 11.0226 4.00053C10.9645 3.97747 10.9065 3.9543 10.8497 3.93278C10.7273 3.88422 10.6062 3.83798 10.4841 3.79125C10.4441 3.77615 10.4038 3.76081 10.3634 3.74546C10.363 3.74534 10.3626 3.74522 10.3622 3.7451C10.2808 3.7142 10.1988 3.68305 10.1176 3.653C10.0828 3.64009 10.0481 3.62717 10.0133 3.61426C9.92509 3.5814 9.8363 3.5482 9.74828 3.51634C9.70161 3.49955 9.65476 3.48234 9.60763 3.4653C9.53116 3.43766 9.45416 3.40976 9.37728 3.38229C9.25295 3.33785 9.12856 3.29427 9.00369 3.25083C8.9832 3.2438 8.94885 3.2517 8.9071 3.27401C8.86531 3.29637 8.81962 3.3311 8.77819 3.37256C8.73675 3.41404 8.70196 3.45988 8.67975 3.50159C8.65764 3.54318 8.65024 3.57701 8.65743 3.59732C8.70203 3.72113 8.74696 3.8444 8.79257 3.96768C8.82075 4.04388 8.84896 4.12053 8.8773 4.19631C8.89478 4.24303 8.91241 4.28941 8.92964 4.33566C8.9623 4.42289 8.99614 4.51124 9.02982 4.59869C9.04302 4.63315 9.05622 4.6676 9.06942 4.70206C9.10031 4.78274 9.13239 4.86411 9.16412 4.94496C9.16432 4.94544 9.16452 4.94593 9.16471 4.94641C9.18033 4.98619 9.19587 5.02594 9.21123 5.0653C9.25911 5.18629 9.30659 5.3062 9.35632 5.42752C9.38119 5.49103 9.40835 5.55597 9.43497 5.62077C9.44979 5.65685 9.46451 5.69293 9.47888 5.72844C9.48689 5.7477 9.49514 5.7671 9.50343 5.78659C9.68987 6.23795 9.87909 6.68204 10.0764 7.12388C10.2726 7.56452 10.4744 8.00068 10.6798 8.43123C10.8861 8.86255 11.0966 9.28846 11.3118 9.71026C12.677 12.3876 14.1683 14.9548 15.8619 17.3217C16.1031 17.6596 16.3567 18.0003 16.6078 18.3295C16.862 18.6619 17.1146 18.9839 17.3791 19.3076C17.4591 19.4062 17.542 19.5065 17.6276 19.6088Z" fill="black"/>
<path d="M24.7595 54.2216C25.5896 53.5298 25.6694 52.145 26.4316 51.3802C27.378 50.4306 28.9646 50.0911 29.7987 49.0247C30.6272 47.9639 31.4097 46.8479 32.1503 45.696C32.892 44.5431 33.5935 43.3528 34.2705 42.1343C34.9456 40.9178 35.5964 39.673 36.2313 38.4149C36.6625 37.5603 37.0876 36.6982 37.5092 35.8342C37.6945 35.4551 37.8785 35.0763 38.0628 34.6965C38.2001 34.413 38.3374 34.1295 38.4747 33.846C38.4937 33.8064 38.4799 33.7366 38.4342 33.6495C38.3884 33.5624 38.3149 33.4657 38.2269 33.3777C38.1389 33.2898 38.0419 33.2162 37.9549 33.1707C37.8681 33.1254 37.7988 33.1122 37.7597 33.1316C37.4767 33.273 37.1937 33.4144 36.9107 33.5558C36.5965 33.7129 36.2825 33.8695 35.9689 34.0271C36.2927 34.4252 36.5156 34.7499 36.5411 34.9662C36.5541 35.0766 36.5087 35.1732 36.3894 35.1584C36.2822 35.1451 36.1393 35.073 36.0034 35.0042C35.8611 34.9322 35.7261 34.8639 35.6473 34.8709C35.5135 34.8827 35.291 34.7986 35.0574 34.7103C34.9723 34.6782 34.8857 34.6454 34.8013 34.6165C34.503 34.768 34.2053 34.9201 33.9082 35.0728C33.8597 35.1982 33.8109 35.3091 33.7284 35.3621C33.6543 35.4096 33.5224 35.389 33.3721 35.3495C33.3262 35.3733 33.2804 35.3971 33.2345 35.4208C32.9387 35.5745 32.644 35.7294 32.3499 35.8849C32.2708 36.1566 32.1805 36.434 31.9826 36.7141C31.8973 36.8348 31.8477 36.9885 31.8 37.1362C31.7295 37.3544 31.6631 37.5595 31.4922 37.6267C31.3779 37.6716 31.3453 37.8063 31.3126 37.9406C31.2689 38.1208 31.2253 38.3007 30.985 38.2631C30.834 38.2394 30.6693 38.1917 30.5165 38.1474C30.2736 38.0769 30.0612 38.0151 29.9835 38.0738C29.8376 38.1843 29.6125 38.1811 29.4139 38.1781C29.1752 38.1746 28.9748 38.1716 28.9977 38.3678C29.0012 38.3975 29.0082 38.4346 29.0164 38.4766C29.0594 38.698 29.1283 39.0522 28.8072 39.1407C28.6929 39.1722 28.5168 39.1331 28.3442 39.0945C28.0928 39.0385 27.8488 38.9841 27.8136 39.152C27.8084 39.1771 27.8342 39.2346 27.8578 39.2871C27.8878 39.3537 27.914 39.412 27.8678 39.3847C27.7323 39.3049 27.5691 39.23 27.3916 39.1484C27.2612 39.0885 27.1229 39.025 26.9825 38.9535C26.6596 39.1567 26.3391 39.3625 26.0216 39.5714C25.8762 39.6671 25.7313 39.7635 25.587 39.8605C25.6874 40.0843 25.7704 40.2935 25.8143 40.4707C25.8716 40.7023 25.8029 40.8594 25.7146 41.0623C25.6497 41.2116 25.5742 41.3858 25.5299 41.6322C25.4481 42.0882 25.1299 42.3225 24.8525 42.3992C24.7939 42.4154 24.7336 42.4304 24.6687 42.446C24.4226 42.5053 24.115 42.5788 23.6241 42.8117C23.1597 43.0319 22.8369 43.2914 22.5944 43.4863C22.4707 43.5858 22.3681 43.6688 22.278 43.7209C22.1238 43.81 21.9454 43.9304 21.7665 44.0514C21.4865 44.2408 21.205 44.4316 21.0108 44.5047C20.9417 44.5308 20.8651 44.5541 20.7826 44.5795C20.5543 44.65 20.2785 44.7353 19.9746 44.9291C19.6557 45.1326 19.5332 45.3338 19.4506 45.5876C19.417 45.6907 19.4943 45.8886 19.5743 46.0929C19.6878 46.3827 19.8064 46.6852 19.6192 46.7468C19.5755 46.7612 19.5117 46.7594 19.4449 46.7574C19.3221 46.7537 19.1892 46.7496 19.1533 46.8456C19.1408 46.8791 19.1579 46.9367 19.1747 46.9931C19.1931 47.0552 19.2111 47.116 19.189 47.1425C19.1066 47.2413 19.0091 47.3202 18.9223 47.3902C18.8105 47.4805 18.7168 47.5563 18.6969 47.6415C18.6614 47.7935 18.5068 47.8438 18.35 47.8945C18.2301 47.9333 18.1089 47.9721 18.039 48.0573C17.8394 48.3008 17.4353 48.5061 16.9558 48.6545C16.7745 48.7107 16.7593 48.8968 16.7402 49.1355C16.7282 49.284 16.715 49.4532 16.6588 49.6236C16.6269 49.7202 16.4963 49.6984 16.3756 49.6784C16.2644 49.66 16.1614 49.6431 16.1511 49.7211C16.1421 49.79 16.2455 49.9427 16.3437 50.0877C16.453 50.2491 16.5558 50.4009 16.49 50.4171C16.455 50.4257 16.3644 50.3881 16.2568 50.3436C16.2142 50.3259 16.169 50.3074 16.1234 50.29C16.1501 50.3152 16.1735 50.3383 16.1911 50.3558C16.3154 50.48 16.339 50.5873 16.362 50.6924C16.3712 50.7344 16.3802 50.776 16.3956 50.8182C16.4524 50.9737 16.3763 51.0844 16.3 51.1508C16.2677 51.1789 16.2789 51.2448 16.2919 51.3217C16.3034 51.39 16.3165 51.467 16.302 51.5339C16.2937 51.5721 16.3118 51.626 16.3271 51.6708C16.3382 51.7032 16.3477 51.7309 16.3441 51.7442C16.341 51.7557 16.2995 51.726 16.2528 51.6925C16.2192 51.6684 16.1827 51.6423 16.1559 51.6283C16.0919 51.5947 16.0577 51.5996 16.0596 51.6289C16.0605 51.6425 16.0694 51.6614 16.0782 51.6802C16.0885 51.702 16.0989 51.724 16.0966 51.7376C16.0861 51.7999 16.0101 51.7947 15.9311 51.7893C15.8443 51.7834 15.7539 51.7774 15.7429 51.8603C15.7395 51.8864 15.7497 51.9281 15.7596 51.9686C15.77 52.0109 15.78 52.0518 15.7736 52.0718C15.7476 52.1528 15.6084 52.1143 15.4804 52.0789C15.3953 52.0553 15.3152 52.0333 15.2765 52.0485C15.2056 52.0765 15.0725 51.9964 14.9742 51.9372C14.9232 51.9065 14.8815 51.8813 14.8627 51.8798C14.8577 51.8908 14.8531 51.9023 14.8491 51.9141C14.8497 51.9292 14.8503 51.9447 14.8407 51.9492C14.84 51.9495 14.839 51.9496 14.8383 51.9499C14.8199 52.02 14.8132 52.1 14.8066 52.1797C14.7919 52.3588 14.7775 52.5358 14.6305 52.5911C14.5988 52.603 14.5325 52.5812 14.4652 52.5591C14.3827 52.5319 14.2983 52.5042 14.2735 52.5371C14.2143 52.6155 14.2176 52.7575 14.2208 52.8974C14.2256 53.1079 14.2302 53.3135 14.0224 53.2905C13.9539 53.2829 13.8607 53.2492 13.7669 53.2151C13.7147 53.1961 13.662 53.1769 13.6138 53.1623C13.6757 53.2171 13.7323 53.2699 13.7852 53.3192C13.8941 53.4208 13.9873 53.5077 14.08 53.5681C14.2991 53.7106 14.5914 53.9162 14.7682 54.1026C14.8161 54.1531 14.8721 54.207 14.9285 54.2611C15.07 54.3968 15.2145 54.5354 15.243 54.635C15.2622 54.7021 15.2997 54.8626 15.1546 54.7958C15.123 54.7812 15.072 54.7406 15.0153 54.6955C14.9135 54.6144 14.7929 54.5185 14.7306 54.5304C14.7201 54.5324 14.7095 54.5354 14.6989 54.5388C14.6567 54.5526 14.6097 54.5683 14.5245 54.5065C14.4264 54.4353 14.3323 54.3355 14.2226 54.2191C14.0797 54.0674 13.91 53.8873 13.6702 53.7056C13.6227 53.6697 13.5975 53.6664 13.5784 53.6639C13.5649 53.6621 13.5543 53.6605 13.5413 53.6484C13.5264 53.6345 13.4983 53.6026 13.4628 53.5623C13.3374 53.4202 13.1182 53.1719 13.0475 53.2228C13.0284 53.2366 13.0208 53.2665 13.0139 53.2934C13.0039 53.3331 12.9955 53.366 12.9545 53.3305C12.9389 53.317 12.9225 53.302 12.9056 53.2863C12.8904 53.3107 12.8752 53.3351 12.86 53.3595C12.8802 53.4305 12.8407 53.4622 12.7911 53.5016C12.7791 53.5111 12.7666 53.5214 12.7541 53.5326C12.7245 53.581 12.6949 53.6295 12.6654 53.6781C12.6538 53.7284 12.6524 53.7929 12.6676 53.8776C12.6981 54.0475 12.8027 54.2733 12.905 54.4941C12.9481 54.5871 12.9909 54.6794 13.0275 54.7662C13.0449 54.764 13.0626 54.7641 13.0818 54.7697C13.2126 54.8076 13.3973 54.955 13.5672 55.0907C13.6803 55.1809 13.7869 55.266 13.8666 55.31C14.0125 55.3907 14.1418 55.5265 14.2373 55.6268C14.2869 55.6789 14.3276 55.7215 14.3567 55.7419C14.38 55.7582 14.3974 55.7594 14.4154 55.7607C14.4311 55.7618 14.4474 55.7631 14.4682 55.7743C14.7205 55.9099 14.8155 56.04 14.9539 56.2294C15.0302 56.3339 15.1198 56.4564 15.2562 56.6078C15.4021 56.7667 15.4488 56.8091 15.5401 56.8392C15.5915 56.9383 15.6429 57.0373 15.6944 57.1364C15.6801 57.1409 15.626 57.1009 15.5379 57.0327C15.3805 56.9109 15.2715 56.9178 15.1864 56.9232C15.147 56.9257 15.1126 56.9278 15.0809 56.9167C14.9123 56.8576 14.7697 56.6832 14.6442 56.5297C14.5751 56.4452 14.5112 56.367 14.451 56.3179C14.4253 56.2969 14.4054 56.2703 14.3852 56.2433C14.3695 56.2223 14.3536 56.201 14.3346 56.1818C14.1964 56.0422 14.0609 55.9715 13.9351 55.9058C13.8631 55.8682 13.7941 55.832 13.7296 55.7857C13.7099 55.7715 13.6905 55.7565 13.6717 55.7418C13.6443 55.7204 13.6181 55.7001 13.5935 55.6847C13.5376 55.6498 13.4855 55.6407 13.4285 55.6309C13.3993 55.6259 13.3687 55.6207 13.3358 55.6116C13.293 55.5999 13.2325 55.5505 13.1692 55.499C13.1245 55.4626 13.0784 55.4252 13.0359 55.3988C12.9592 55.3511 12.9074 55.3579 12.8593 55.3643C12.8384 55.3671 12.8179 55.3695 12.7966 55.3675C12.788 55.3667 12.7767 55.3592 12.7633 55.3466C12.6751 55.3478 12.5881 55.346 12.5031 55.344C12.0769 55.334 11.7077 55.3251 11.5758 55.7311C11.5508 55.8079 11.491 55.8573 11.4151 55.8918C11.2931 56.1228 11.1727 56.3557 11.0539 56.5898C11.1442 56.7499 11.2065 56.8978 11.2384 57.0309C11.2983 57.2807 11.2337 57.4115 11.1575 57.5659C11.1011 57.6801 11.0385 57.8072 11.015 58.0048C10.9755 58.3369 10.9085 58.6513 10.7575 58.9309C10.6073 59.2092 10.4091 59.5017 10.2523 59.692C10.1668 59.7957 10.1794 60.0071 10.191 60.2039C10.2073 60.4808 10.2218 60.7291 9.9599 60.61C9.87622 60.5719 9.74849 60.4882 9.62436 60.407C9.53596 60.3491 9.44948 60.2928 9.38153 60.2543C9.35876 60.3101 9.33577 60.3658 9.31314 60.4218C9.37023 60.6186 9.39779 60.8633 9.15129 60.8266C9.12823 60.8847 9.10506 60.9427 9.08353 60.9995C9.03497 61.1219 8.98873 61.243 8.942 61.3651C8.92691 61.4051 8.91156 61.4454 8.89621 61.4858C8.89609 61.4862 8.89597 61.4866 8.89585 61.487C8.86496 61.5684 8.83381 61.6504 8.80376 61.7316C8.79084 61.7664 8.77793 61.8011 8.76501 61.8359C8.73216 61.9241 8.69896 62.0129 8.6671 62.1009C8.65031 62.1476 8.6331 62.1944 8.61606 62.2416C8.58842 62.318 8.56052 62.395 8.53305 62.4719C8.48861 62.5963 8.44502 62.7206 8.40159 62.8455C8.39456 62.866 8.40246 62.9004 8.42476 62.9421C8.44713 62.9839 8.48186 63.0296 8.52332 63.071C8.5648 63.1125 8.61063 63.1472 8.65235 63.1695C8.69394 63.1916 8.72777 63.199 8.74807 63.1918C8.87189 63.1472 8.99516 63.1022 9.11844 63.0566C9.19464 63.0285 9.27128 63.0002 9.34706 62.9719C9.39379 62.9544 9.44016 62.9368 9.48642 62.9196C9.57365 62.8869 9.662 62.8531 9.74945 62.8194C9.7839 62.8062 9.81836 62.793 9.85281 62.7798C9.93349 62.7489 10.0149 62.7168 10.0957 62.6851C10.0962 62.6849 10.0967 62.6847 10.0972 62.6845C10.1369 62.6689 10.1767 62.6533 10.2161 62.638C10.337 62.5901 10.457 62.5426 10.5783 62.4929C10.6418 62.468 10.7067 62.4409 10.7715 62.4142C10.8076 62.3994 10.8437 62.3847 10.8792 62.3703C10.8985 62.3623 10.9179 62.3541 10.9373 62.3458C11.3887 62.1593 11.8328 61.9701 12.2746 61.7728C12.7153 61.5766 13.1514 61.3748 13.582 61.1694C14.0133 60.9631 14.4392 60.7526 14.861 60.5374C17.5383 59.1723 20.1056 57.6809 22.4724 55.9874C22.8104 55.7461 23.1511 55.4926 23.4803 55.2415C23.8127 54.9872 24.1347 54.7346 24.4584 54.4701C24.557 54.3901 24.6572 54.3072 24.7595 54.2216Z" fill="black"/>
<path d="M43.3723 48.0897C42.6806 47.2597 41.2958 47.1799 40.531 46.4176C39.5814 45.4712 39.2418 43.8847 38.1755 43.0506C37.1147 42.222 35.9986 41.4396 34.8468 40.6989C33.6938 39.9573 32.5035 39.2558 31.285 38.5787C30.0686 37.9037 28.8238 37.2528 27.5657 36.6179C26.7111 36.1867 25.849 35.7616 24.985 35.34C24.6058 35.1547 24.227 34.9708 23.8473 34.7865C23.5637 34.6491 23.2802 34.5118 22.9967 34.3745C22.9572 34.3556 22.8873 34.3693 22.8003 34.415C22.7132 34.4608 22.6164 34.5343 22.5285 34.6223C22.4405 34.7103 22.367 34.8074 22.3215 34.8943C22.2761 34.9811 22.263 35.0504 22.2823 35.0896C22.4237 35.3726 22.5651 35.6555 22.7065 35.9385C22.8637 36.2528 23.0203 36.5667 23.1779 36.8804C23.5759 36.5565 23.9006 36.3336 24.117 36.3081C24.2273 36.2951 24.324 36.3405 24.3092 36.4598C24.2959 36.5671 24.2238 36.7099 24.155 36.8459C24.083 36.9881 24.0146 37.1231 24.0216 37.2019C24.0334 37.3357 23.9494 37.5582 23.8611 37.7919C23.8289 37.8769 23.7961 37.9636 23.7673 38.0479C23.9188 38.3462 24.0709 38.644 24.2236 38.9411C24.3489 38.9895 24.4599 39.0383 24.5128 39.1209C24.5603 39.1949 24.5397 39.3268 24.5003 39.4771C24.5241 39.523 24.5478 39.5689 24.5716 39.6147C24.7252 39.9105 24.8801 40.2052 25.0356 40.4993C25.3073 40.5784 25.5847 40.6687 25.8648 40.8666C25.9856 40.952 26.1393 41.0015 26.287 41.0492C26.5051 41.1198 26.7103 41.1861 26.7774 41.357C26.8223 41.4713 26.957 41.504 27.0914 41.5366C27.2716 41.5803 27.4515 41.624 27.4138 41.8642C27.3902 42.0153 27.3425 42.18 27.2981 42.3327C27.2276 42.5756 27.1658 42.7881 27.2246 42.8657C27.335 43.0116 27.3318 43.2367 27.3289 43.4353C27.3254 43.6741 27.3224 43.8744 27.5185 43.8515C27.5483 43.8481 27.5854 43.841 27.6274 43.8329C27.8488 43.7898 28.2029 43.721 28.2915 44.042C28.323 44.1563 28.2838 44.3324 28.2453 44.5051C28.1892 44.7564 28.1348 45.0004 28.3028 45.0356C28.3279 45.0408 28.3854 45.015 28.4378 44.9914C28.5045 44.9614 28.5627 44.9352 28.5355 44.9814C28.4556 45.1169 28.3808 45.2801 28.2992 45.4577C28.2393 45.5881 28.1757 45.7263 28.1043 45.8667C28.3075 46.1896 28.5133 46.5101 28.7222 46.8276C28.8179 46.9731 28.9142 47.1179 29.0112 47.2622C29.2351 47.1618 29.4443 47.0788 29.6214 47.0349C29.853 46.9776 30.0102 47.0463 30.2131 47.1346C30.3624 47.1995 30.5366 47.2751 30.7829 47.3193C31.2389 47.4011 31.4732 47.7194 31.55 47.9967C31.5662 48.0554 31.5812 48.1157 31.5968 48.1805C31.656 48.4266 31.7296 48.7342 31.9624 49.2251C32.1827 49.6895 32.4422 50.0123 32.6371 50.2548C32.7366 50.3786 32.8196 50.4811 32.8717 50.5713C32.9608 50.7254 33.0812 50.9038 33.2022 51.0827C33.3916 51.3627 33.5823 51.6442 33.6555 51.8384C33.6816 51.9076 33.7048 51.9842 33.7303 52.0666C33.8008 52.295 33.8861 52.5707 34.0799 52.8746C34.2833 53.1935 34.4846 53.3161 34.7384 53.3986C34.8415 53.4322 35.0394 53.3549 35.2436 53.2749C35.5335 53.1614 35.836 53.0428 35.8976 53.2301C35.9119 53.2738 35.9101 53.3375 35.9081 53.4044C35.9045 53.5271 35.9004 53.66 35.9963 53.6959C36.0298 53.7084 36.0874 53.6913 36.1439 53.6746C36.206 53.6561 36.2668 53.6382 36.2933 53.6602C36.3921 53.7427 36.4709 53.8402 36.541 53.9269C36.6312 54.0387 36.707 54.1324 36.7922 54.1523C36.9442 54.1878 36.9946 54.3424 37.0453 54.4993C37.084 54.6191 37.1229 54.7404 37.2081 54.8103C37.4515 55.0099 37.6569 55.4139 37.8052 55.8934C37.8614 56.0748 38.0476 56.0899 38.2863 56.1091C38.4348 56.121 38.6039 56.1342 38.7744 56.1904C38.8709 56.2223 38.8492 56.3529 38.8292 56.4736C38.8108 56.5849 38.7939 56.6878 38.8719 56.6981C38.9408 56.7071 39.0935 56.6037 39.2385 56.5055C39.3999 56.3962 39.5517 56.2934 39.5678 56.3592C39.5764 56.3943 39.5389 56.4848 39.4943 56.5925C39.4767 56.635 39.4582 56.6802 39.4407 56.7258C39.466 56.6992 39.489 56.6757 39.5066 56.6582C39.6308 56.5339 39.738 56.5103 39.8432 56.4872C39.8851 56.478 39.9267 56.4691 39.969 56.4536C40.1244 56.3968 40.2351 56.473 40.3016 56.5493C40.3297 56.5815 40.3956 56.5704 40.4725 56.5574C40.5408 56.5458 40.6178 56.5327 40.6847 56.5473C40.7229 56.5556 40.7767 56.5374 40.8215 56.5221C40.854 56.511 40.8817 56.5015 40.895 56.5051C40.9065 56.5082 40.8768 56.5497 40.8433 56.5964C40.8192 56.6301 40.7931 56.6665 40.779 56.6933C40.7455 56.7573 40.7503 56.7916 40.7797 56.7896C40.7933 56.7887 40.8122 56.7799 40.8309 56.771C40.8528 56.7608 40.8747 56.7503 40.8883 56.7526C40.9507 56.7631 40.9455 56.8391 40.9401 56.9181C40.9342 57.0049 40.9282 57.0953 41.0111 57.1063C41.0372 57.1098 41.0789 57.0996 41.1193 57.0896C41.1617 57.0792 41.2026 57.0693 41.2226 57.0757C41.3036 57.1017 41.2651 57.2408 41.2297 57.3688C41.2061 57.4539 41.184 57.5341 41.1993 57.5728C41.2273 57.6436 41.1471 57.7768 41.088 57.8751C41.0573 57.926 41.0321 57.9678 41.0306 57.9866C41.0415 57.9916 41.0531 57.9961 41.0648 58.0001C41.0799 57.9995 41.0955 57.9989 41.1 58.0085C41.1003 58.0093 41.1004 58.0103 41.1007 58.011C41.1707 58.0293 41.2508 58.0361 41.3305 58.0426C41.5095 58.0574 41.6865 58.0718 41.7419 58.2188C41.7538 58.2505 41.732 58.3167 41.7098 58.3841C41.6827 58.4666 41.655 58.5509 41.6878 58.5758C41.7662 58.6349 41.9083 58.6317 42.0482 58.6285C42.2586 58.6237 42.4642 58.6191 42.4412 58.8268C42.4336 58.8954 42.4 58.9885 42.3659 59.0823C42.3469 59.1346 42.3276 59.1872 42.3131 59.2355C42.3678 59.1736 42.4207 59.1169 42.47 59.0641C42.5716 58.9552 42.6585 58.8619 42.7188 58.7692C42.8614 58.5501 43.067 58.2578 43.2533 58.0811C43.3039 58.0331 43.3577 57.9772 43.4118 57.9208C43.5476 57.7793 43.6862 57.6347 43.7857 57.6062C43.8528 57.587 44.0134 57.5495 43.9465 57.6947C43.932 57.7263 43.8914 57.7773 43.8463 57.8339C43.7652 57.9357 43.6693 58.0563 43.6812 58.1186C43.6832 58.1291 43.6862 58.1397 43.6896 58.1503C43.7034 58.1925 43.719 58.2395 43.6572 58.3247C43.5861 58.4229 43.4862 58.517 43.3698 58.6267C43.2182 58.7695 43.0381 58.9392 42.8564 59.1791C42.8205 59.2265 42.8172 59.2518 42.8147 59.2709C42.8129 59.2844 42.8112 59.2949 42.7991 59.3079C42.7852 59.3228 42.7534 59.3509 42.7131 59.3865C42.571 59.5119 42.3227 59.731 42.3736 59.8017C42.3873 59.8208 42.4173 59.8285 42.4442 59.8353C42.4839 59.8453 42.5167 59.8537 42.4813 59.8948C42.4678 59.9103 42.4528 59.9268 42.4371 59.9437C42.4615 59.9589 42.4859 59.974 42.5103 59.9892C42.5812 59.969 42.6129 60.0086 42.6523 60.0581C42.6619 60.0701 42.6722 60.0826 42.6833 60.0951C42.7318 60.1247 42.7802 60.1544 42.8289 60.1838C42.8792 60.1954 42.9436 60.1969 43.0284 60.1817C43.1982 60.1512 43.4241 60.0466 43.6449 59.9443C43.7379 59.9012 43.8302 59.8583 43.9169 59.8217C43.9148 59.8044 43.9149 59.7866 43.9204 59.7675C43.9584 59.6366 44.1057 59.452 44.2414 59.282C44.3317 59.1689 44.4168 59.0623 44.4608 58.9827C44.5414 58.8367 44.6772 58.7075 44.7776 58.6119C44.8297 58.5623 44.8723 58.5216 44.8926 58.4926C44.9089 58.4692 44.9102 58.4519 44.9115 58.4339C44.9126 58.4182 44.9139 58.4018 44.925 58.3811C45.0607 58.1287 45.1908 58.0337 45.3802 57.8953C45.4847 57.819 45.6072 57.7294 45.7586 57.5931C45.9175 57.4472 45.9598 57.4004 45.99 57.3091C46.089 57.2577 46.1881 57.2063 46.2872 57.1549C46.2916 57.1691 46.2517 57.2233 46.1835 57.3114C46.0617 57.4688 46.0686 57.5777 46.074 57.6629C46.0765 57.7023 46.0786 57.7367 46.0675 57.7684C46.0084 57.937 45.834 58.0796 45.6804 58.2051C45.5959 58.2741 45.5178 58.3381 45.4687 58.3982C45.4477 58.424 45.4211 58.4438 45.394 58.464C45.3731 58.4797 45.3518 58.4956 45.3326 58.5146C45.193 58.6528 45.1222 58.7883 45.0566 58.9141C45.019 58.9862 44.9828 59.0552 44.9364 59.1197C44.9223 59.1393 44.9073 59.1588 44.8926 59.1775C44.8712 59.205 44.8509 59.2312 44.8355 59.2557C44.8006 59.3116 44.7915 59.3638 44.7817 59.4208C44.7767 59.45 44.7715 59.4805 44.7624 59.5135C44.7506 59.5562 44.7013 59.6167 44.6498 59.68C44.6134 59.7247 44.576 59.7709 44.5496 59.8133C44.5019 59.8901 44.5087 59.9418 44.5151 59.9899C44.5178 60.0108 44.5203 60.0313 44.5183 60.0526C44.5175 60.0613 44.5099 60.0726 44.4974 60.086C44.4986 60.1741 44.4968 60.2612 44.4948 60.3462C44.4848 60.7724 44.4758 61.1416 44.8819 61.2735C44.9586 61.2984 45.0081 61.3582 45.0425 61.4341C45.2736 61.5562 45.5064 61.6765 45.7406 61.7953C45.9007 61.7051 46.0486 61.6427 46.1816 61.6108C46.4315 61.5509 46.5623 61.6155 46.7167 61.6918C46.8308 61.7482 46.958 61.8108 47.1556 61.8343C47.4876 61.8738 47.8021 61.9408 48.0816 62.0917C48.3599 62.242 48.6525 62.4401 48.8428 62.5969C48.9465 62.6824 49.1579 62.6698 49.3547 62.6582C49.6316 62.6419 49.8799 62.6275 49.7607 62.8893C49.7226 62.973 49.639 63.1007 49.5577 63.2249C49.4999 63.3133 49.4435 63.3998 49.4051 63.4677C49.4609 63.4905 49.5166 63.5135 49.5726 63.5361C49.7694 63.479 50.014 63.4514 49.9774 63.698C50.0354 63.721 50.0934 63.7442 50.1503 63.7657C50.2727 63.8143 50.3937 63.8605 50.5158 63.9072C50.5558 63.9223 50.5961 63.9377 50.6366 63.953C50.637 63.9531 50.6374 63.9533 50.6378 63.9534C50.7192 63.9843 50.8012 64.0154 50.8824 64.0455C50.9171 64.0584 50.9519 64.0713 50.9866 64.0842C51.0749 64.1171 51.1637 64.1503 51.2517 64.1821C51.2984 64.1989 51.3452 64.2161 51.3923 64.2332C51.4688 64.2608 51.5458 64.2887 51.6227 64.3162C51.747 64.3606 51.8714 64.4042 51.9963 64.4477C52.0168 64.4547 52.0511 64.4468 52.0929 64.4245C52.1347 64.4021 52.1804 64.3674 52.2218 64.3259C52.2632 64.2844 52.298 64.2386 52.3202 64.1969C52.3423 64.1553 52.3497 64.1215 52.3425 64.1012C52.2979 63.9774 52.253 63.8541 52.2074 63.7308C52.1792 63.6546 52.151 63.578 52.1227 63.5022C52.1052 63.4555 52.0876 63.4091 52.0703 63.3628C52.0377 63.2756 52.0038 63.1872 51.9702 63.0998C51.957 63.0653 51.9438 63.0309 51.9306 62.9964C51.8997 62.9157 51.8676 62.8344 51.8359 62.7535C51.8357 62.753 51.8355 62.7526 51.8353 62.7521C51.8197 62.7123 51.8041 62.6725 51.7888 62.6332C51.7409 62.5122 51.6934 62.3923 51.6437 62.271C51.6188 62.2075 51.5916 62.1425 51.565 62.0777C51.5502 62.0416 51.5355 62.0056 51.5211 61.97C51.5131 61.9508 51.5048 61.9314 51.4965 61.9119C51.3101 61.4605 51.1209 61.0164 50.9235 60.5746C50.7274 60.134 50.5256 59.6978 50.3201 59.2673C50.1139 58.8359 49.9034 58.41 49.6882 57.9882C48.323 55.3109 46.8317 52.7436 45.1381 50.3768C44.8969 50.0389 44.6433 49.6982 44.3922 49.369C44.138 49.0366 43.8853 48.7146 43.6209 48.3909C43.5408 48.2923 43.458 48.192 43.3723 48.0897Z" fill="black"/>
<path d="M35.2405 13.4769C34.4104 14.1686 34.3306 15.5535 33.5683 16.3182C32.622 17.2678 31.0354 17.6074 30.2013 18.6737C29.3728 19.7345 28.5903 20.8506 27.8497 22.0024C27.108 23.1554 26.4065 24.3457 25.7294 25.5642C25.0544 26.7806 24.4035 28.0254 23.7687 29.2835C23.3374 30.1381 22.9123 31.0002 22.4907 31.8643C22.3055 32.2434 22.1215 32.6222 21.9372 33.002C21.7999 33.2855 21.6626 33.569 21.5253 33.8525C21.5063 33.892 21.5201 33.9619 21.5658 34.0489C21.6116 34.136 21.685 34.2328 21.773 34.3207C21.8611 34.4087 21.9581 34.4822 22.0451 34.5277C22.1319 34.5731 22.2011 34.5862 22.2403 34.5669C22.5233 34.4255 22.8063 34.2841 23.0893 34.1427C23.4035 33.9855 23.7175 33.8289 24.0311 33.6713C23.7072 33.2733 23.4844 32.9486 23.4589 32.7323C23.4459 32.6219 23.4912 32.5252 23.6106 32.54C23.7178 32.5534 23.8606 32.6254 23.9966 32.6943C24.1388 32.7662 24.2739 32.8346 24.3527 32.8276C24.4865 32.8158 24.7089 32.8998 24.9426 32.9881C25.0276 33.0203 25.1143 33.0531 25.1986 33.0819C25.4969 32.9304 25.7947 32.7783 26.0918 32.6256C26.1402 32.5003 26.189 32.3893 26.2716 32.3364C26.3457 32.2889 26.4776 32.3095 26.6279 32.3489C26.6737 32.3252 26.7196 32.3014 26.7655 32.2776C27.0612 32.124 27.3559 31.9691 27.65 31.8136C27.7291 31.5419 27.8194 31.2645 28.0174 30.9844C28.1027 30.8636 28.1523 30.7099 28.2 30.5622C28.2705 30.3441 28.3369 30.1389 28.5078 30.0718C28.622 30.0269 28.6547 29.8922 28.6873 29.7578C28.7311 29.5776 28.7747 29.3978 29.0149 29.4354C29.166 29.459 29.3307 29.5068 29.4834 29.5511C29.7264 29.6216 29.9388 29.6834 30.0165 29.6246C30.1623 29.5142 30.3875 29.5174 30.586 29.5203C30.8248 29.5238 31.0251 29.5268 31.0023 29.3307C30.9988 29.301 30.9918 29.2639 30.9836 29.2218C30.9406 29.0004 30.8717 28.6463 31.1928 28.5578C31.3071 28.5263 31.4832 28.5654 31.6558 28.6039C31.9072 28.66 32.1512 28.7144 32.1863 28.5464C32.1916 28.5213 32.1658 28.4639 32.1421 28.4114C32.1121 28.3447 32.0859 28.2865 32.1321 28.3137C32.2677 28.3936 32.4309 28.4684 32.6084 28.55C32.7388 28.6099 32.8771 28.6735 33.0175 28.745C33.3404 28.5417 33.6608 28.3359 33.9783 28.127C34.1238 28.0313 34.2687 27.935 34.413 27.838C34.3125 27.6141 34.2296 27.4049 34.1857 27.2278C34.1284 26.9962 34.1971 26.839 34.2853 26.6361C34.3503 26.4868 34.4258 26.3126 34.47 26.0663C34.5519 25.6103 34.8701 25.376 35.1474 25.2993C35.2061 25.283 35.2664 25.268 35.3313 25.2524C35.5774 25.1932 35.8849 25.1197 36.3759 24.8868C36.8403 24.6665 37.1631 24.407 37.4055 24.2121C37.5293 24.1126 37.6319 24.0296 37.722 23.9775C37.8762 23.8884 38.0545 23.768 38.2334 23.647C38.5134 23.4576 38.795 23.2669 38.9892 23.1937C39.0583 23.1677 39.1349 23.1444 39.2173 23.1189C39.4457 23.0484 39.7215 22.9631 40.0253 22.7693C40.3443 22.5659 40.4668 22.3646 40.5494 22.1109C40.5829 22.0077 40.5057 21.8098 40.4257 21.6056C40.3121 21.3157 40.1936 21.0133 40.3808 20.9517C40.4245 20.9373 40.4883 20.9391 40.5551 20.9411C40.6778 20.9447 40.8107 20.9489 40.8466 20.8529C40.8592 20.8194 40.8421 20.7618 40.8253 20.7053C40.8069 20.6432 40.7889 20.5824 40.811 20.556C40.8934 20.4572 40.9909 20.3783 41.0776 20.3083C41.1894 20.218 41.2831 20.1422 41.3031 20.057C41.3385 19.905 41.4932 19.8547 41.65 19.8039C41.7698 19.7652 41.8911 19.7263 41.961 19.6412C42.1606 19.3977 42.5646 19.1924 43.0441 19.044C43.2255 18.9878 43.2406 18.8016 43.2598 18.5629C43.2717 18.4144 43.2849 18.2453 43.3412 18.0749C43.3731 17.9783 43.5036 18 43.6244 18.02C43.7356 18.0384 43.8385 18.0553 43.8488 17.9773C43.8579 17.9084 43.7545 17.7558 43.6562 17.6107C43.5469 17.4493 43.4441 17.2975 43.51 17.2814C43.545 17.2728 43.6356 17.3103 43.7432 17.3549C43.7858 17.3725 43.831 17.391 43.8766 17.4085C43.8499 17.3832 43.8265 17.3602 43.8089 17.3426C43.6846 17.2184 43.661 17.1112 43.638 17.0061C43.6288 16.9641 43.6198 16.9225 43.6044 16.8802C43.5476 16.7248 43.6237 16.6141 43.7 16.5477C43.7323 16.5195 43.7211 16.4536 43.7081 16.3767C43.6965 16.3085 43.6834 16.2315 43.698 16.1645C43.7063 16.1264 43.6881 16.0725 43.6728 16.0277C43.6618 15.9952 43.6523 15.9676 43.6558 15.9542C43.6589 15.9427 43.7004 15.9724 43.7472 16.0059C43.7808 16.03 43.8173 16.0561 43.844 16.0702C43.908 16.1037 43.9423 16.0989 43.9403 16.0695C43.9394 16.0559 43.9306 16.0371 43.9218 16.0183C43.9115 15.9964 43.9011 15.9745 43.9033 15.9609C43.9138 15.8985 43.9899 15.9037 44.0689 15.9091C44.1557 15.915 44.246 15.921 44.257 15.8381C44.2605 15.812 44.2503 15.7703 44.2403 15.7299C44.2299 15.6876 44.22 15.6466 44.2264 15.6266C44.2524 15.5456 44.3915 15.5841 44.5195 15.6196C44.6047 15.6431 44.6848 15.6652 44.7235 15.65C44.7943 15.622 44.9275 15.7021 45.0258 15.7613C45.0767 15.7919 45.1185 15.8172 45.1373 15.8186C45.1423 15.8077 45.1468 15.7961 45.1509 15.7844C45.1503 15.7693 45.1497 15.7537 45.1593 15.7493C45.16 15.7489 45.161 15.7489 45.1617 15.7485C45.1801 15.6785 45.1868 15.5984 45.1934 15.5187C45.2081 15.3397 45.2225 15.1627 45.3695 15.1073C45.4012 15.0954 45.4675 15.1172 45.5348 15.1394C45.6173 15.1665 45.7017 15.1943 45.7265 15.1614C45.7856 15.083 45.7824 14.941 45.7792 14.801C45.7744 14.5906 45.7698 14.385 45.9775 14.408C46.0461 14.4156 46.1393 14.4493 46.233 14.4834C46.2853 14.5024 46.3379 14.5216 46.3862 14.5361C46.3243 14.4814 46.2676 14.4285 46.2148 14.3792C46.1059 14.2777 46.0127 14.1907 45.92 14.1304C45.7009 13.9878 45.4086 13.7823 45.2318 13.5959C45.1839 13.5453 45.1279 13.4915 45.0715 13.4374C44.93 13.3017 44.7855 13.163 44.757 13.0635C44.7378 12.9964 44.7002 12.8358 44.8454 12.9027C44.877 12.9173 44.928 12.9579 44.9847 13.003C45.0865 13.084 45.2071 13.1799 45.2694 13.168C45.2798 13.166 45.2905 13.1631 45.301 13.1596C45.3432 13.1458 45.3903 13.1302 45.4755 13.192C45.5736 13.2631 45.6677 13.363 45.7774 13.4794C45.9203 13.631 46.09 13.8111 46.3298 13.9928C46.3772 14.0287 46.4025 14.032 46.4216 14.0346C46.4351 14.0364 46.4457 14.038 46.4587 14.0501C46.4736 14.064 46.5017 14.0958 46.5372 14.1361C46.6626 14.2783 46.8817 14.5265 46.9524 14.4757C46.9715 14.4619 46.9792 14.432 46.986 14.405C46.9961 14.3654 47.0045 14.3325 47.0455 14.368C47.061 14.3814 47.0775 14.3964 47.0944 14.4121C47.1096 14.3877 47.1248 14.3634 47.14 14.339C47.1198 14.268 47.1593 14.2363 47.2088 14.1969C47.2208 14.1873 47.2334 14.1771 47.2458 14.1659C47.2754 14.1174 47.3051 14.069 47.3345 14.0203C47.3462 13.97 47.3476 13.9056 47.3324 13.8208C47.3019 13.651 47.1973 13.4252 47.095 13.2044C47.0519 13.1113 47.009 13.019 46.9725 12.9323C46.9551 12.9345 46.9373 12.9343 46.9182 12.9288C46.7874 12.8909 46.6027 12.7435 46.4327 12.6078C46.3197 12.5176 46.213 12.4325 46.1334 12.3884C45.9874 12.3078 45.8582 12.172 45.7626 12.0716C45.713 12.0196 45.6724 11.977 45.6433 11.9566C45.62 11.9403 45.6026 11.9391 45.5846 11.9378C45.5689 11.9366 45.5526 11.9353 45.5318 11.9242C45.2795 11.7886 45.1844 11.6584 45.0461 11.469C44.9698 11.3646 44.8801 11.2421 44.7438 11.0906C44.5979 10.9318 44.5512 10.8894 44.4599 10.8593C44.4085 10.7602 44.357 10.6611 44.3056 10.562C44.3199 10.5576 44.374 10.5975 44.4621 10.6657C44.6195 10.7876 44.7285 10.7806 44.8136 10.7752C44.853 10.7727 44.8874 10.7706 44.9191 10.7817C45.0877 10.8408 45.2303 11.0153 45.3558 11.1688C45.4248 11.2533 45.4888 11.3315 45.549 11.3806C45.5747 11.4016 45.5945 11.4281 45.6148 11.4552C45.6304 11.4761 45.6463 11.4974 45.6653 11.5166C45.8035 11.6563 45.939 11.727 46.0648 11.7927C46.1369 11.8303 46.2059 11.8665 46.2704 11.9128C46.2901 11.9269 46.3095 11.9419 46.3283 11.9566C46.3557 11.978 46.3819 11.9984 46.4064 12.0137C46.4623 12.0487 46.5145 12.0577 46.5715 12.0675C46.6007 12.0725 46.6312 12.0777 46.6642 12.0868C46.7069 12.0986 46.7675 12.1479 46.8308 12.1994C46.8755 12.2358 46.9216 12.2732 46.964 12.2996C47.0408 12.3474 47.0926 12.3405 47.1406 12.3342C47.1616 12.3314 47.182 12.329 47.2033 12.3309C47.212 12.3317 47.2233 12.3393 47.2367 12.3518C47.3248 12.3507 47.4119 12.3524 47.4969 12.3544C47.9231 12.3644 48.2923 12.3734 48.4242 11.9673C48.4492 11.8906 48.5089 11.8411 48.5849 11.8067C48.7069 11.5757 48.8273 11.3428 48.946 11.1086C48.8558 10.9485 48.7934 10.8007 48.7615 10.6676C48.7016 10.4177 48.7663 10.2869 48.8425 10.1325C48.8989 10.0184 48.9615 9.89124 48.985 9.69362C49.0245 9.36158 49.0915 9.04712 49.2424 8.76759C49.3927 8.48929 49.5908 8.19677 49.7476 8.00646C49.8331 7.90271 49.8205 7.69136 49.809 7.49452C49.7927 7.21766 49.7782 6.96937 50.0401 7.0885C50.1237 7.12658 50.2515 7.21024 50.3756 7.29148C50.464 7.34934 50.5505 7.40569 50.6184 7.44414C50.6412 7.38833 50.6642 7.33266 50.6868 7.27666C50.6297 7.07985 50.6022 6.83519 50.8487 6.87183C50.8717 6.81378 50.8949 6.75579 50.9164 6.69895C50.965 6.57653 51.0112 6.45548 51.058 6.3334C51.0731 6.29339 51.0884 6.25309 51.1038 6.21265C51.1039 6.21224 51.104 6.21183 51.1041 6.21143C51.135 6.13003 51.1662 6.04804 51.1962 5.96682C51.2091 5.93208 51.222 5.89734 51.235 5.86259C51.2678 5.77434 51.301 5.68555 51.3329 5.59753C51.3497 5.55086 51.3669 5.50401 51.3839 5.45688C51.4115 5.38041 51.4394 5.30342 51.4669 5.22653C51.5114 5.1022 51.5549 4.97781 51.5984 4.85294C51.6054 4.83245 51.5975 4.7981 51.5752 4.75636C51.5528 4.71456 51.5181 4.66887 51.4767 4.62744C51.4352 4.586 51.3893 4.55121 51.3476 4.529C51.306 4.50689 51.2722 4.49949 51.2519 4.50668C51.1281 4.55129 51.0048 4.59621 50.8815 4.64182C50.8053 4.67 50.7287 4.69821 50.6529 4.72656C50.6062 4.74403 50.5598 4.76166 50.5136 4.77889C50.4263 4.81156 50.338 4.84539 50.2505 4.87907C50.2161 4.89227 50.1816 4.90547 50.1472 4.91867C50.0665 4.94956 49.9851 4.98164 49.9043 5.01337C49.9038 5.01357 49.9033 5.01377 49.9028 5.01396C49.863 5.02958 49.8233 5.04512 49.7839 5.06048C49.6629 5.10836 49.543 5.15584 49.4217 5.20557C49.3582 5.23044 49.2932 5.2576 49.2284 5.28422C49.1924 5.29904 49.1563 5.31375 49.1208 5.32813C49.1015 5.33614 49.0821 5.34439 49.0626 5.35268C48.6113 5.53912 48.1672 5.72834 47.7253 5.9257C47.2847 6.12185 46.8485 6.32362 46.418 6.5291C45.9867 6.73534 45.5608 6.94587 45.139 7.16104C42.4616 8.5262 39.8944 10.0176 37.5275 11.7111C37.1896 11.9523 36.8489 12.2059 36.5197 12.457C36.1873 12.7112 35.8653 12.9639 35.5416 13.2283C35.443 13.3084 35.3428 13.3912 35.2405 13.4769Z" fill="black"/>
<path d="M0.229947 38.0259C-0.191983 36.9552 0.0687088 35.8165 0.212314 34.7771C0.21545 34.754 0.218603 34.7309 0.221776 34.7077C0.384872 33.4358 0.688815 31.9707 1.68261 30.9817C2.66675 29.9981 3.96115 29.3578 5.29267 29.1674C6.12379 29.046 6.96595 29.0976 7.74583 29.3008C8.21569 29.4227 8.6682 29.5991 9.08847 29.8238C10.2078 30.4194 11.0805 31.3591 11.5838 32.4123C11.9282 33.1275 12.108 33.8955 12.1243 34.641C12.1318 34.9683 12.1084 35.2908 12.0565 35.6038C12.0178 35.8368 11.9633 36.066 11.8947 36.2862C11.8851 36.317 11.8576 36.344 11.8174 36.3608C11.7771 36.3776 11.7276 36.3828 11.6784 36.3756C11.6291 36.3684 11.5832 36.3493 11.549 36.3233C11.5149 36.2973 11.4954 36.2665 11.4934 36.2368C11.4793 36.0225 11.4506 35.8105 11.408 35.6055C11.3608 35.3772 11.2963 35.1563 11.2169 34.9446C11.4126 34.8771 11.5569 34.7994 11.6043 34.6891C11.6286 34.633 11.6264 34.5565 11.5766 34.5129C11.532 34.4737 11.464 34.454 11.3993 34.4365C11.3316 34.4182 11.2675 34.4024 11.2362 34.3681C11.183 34.3099 11.0799 34.2723 10.9719 34.2383C10.9325 34.2259 10.8924 34.2139 10.8537 34.2013C10.7447 34.0236 10.6243 33.8565 10.4945 33.7008C10.4775 33.623 10.457 33.5523 10.4187 33.5049C10.3843 33.4625 10.3213 33.4433 10.2501 33.4324C10.2284 33.4105 10.2064 33.3889 10.1843 33.3676C10.0415 33.2301 9.89114 33.1047 9.73488 32.9922C9.67563 32.8473 9.60087 32.697 9.45822 32.5452C9.39671 32.4799 9.34602 32.4022 9.29379 32.3282C9.21723 32.2193 9.13672 32.1183 9.03095 32.0874C8.96048 32.0669 8.91183 32.005 8.85968 31.9436C8.79077 31.8617 8.71438 31.7805 8.59879 31.8138C8.52627 31.8347 8.45486 31.8692 8.39033 31.9027C8.28775 31.9561 8.20243 32.0066 8.14762 31.9926C8.04479 31.9662 7.93716 32.0006 7.84715 32.0345C7.73758 32.0749 7.65218 32.1139 7.59851 32.039C7.59033 32.0277 7.58123 32.013 7.57081 31.9964C7.53258 31.9351 7.47509 31.848 7.37957 31.8168C7.33922 31.8036 7.29276 31.8007 7.24074 31.8147C7.17875 31.8314 7.11714 31.8872 7.06039 31.9433C6.97738 32.025 6.90413 32.1068 6.8277 32.0689C6.81622 32.0632 6.80418 32.0397 6.79296 32.0182C6.77873 31.9909 6.7657 31.9672 6.75862 31.9881C6.73779 32.0493 6.70558 32.1174 6.67339 32.1921C6.64967 32.2469 6.62611 32.3053 6.60572 32.3666C6.42476 32.4119 6.25042 32.4709 6.08416 32.5416C6.00811 32.5739 5.93334 32.6089 5.86061 32.6461C5.79342 32.5712 5.72478 32.5072 5.65836 32.4648C5.57128 32.4096 5.48347 32.4164 5.37064 32.4315C5.28746 32.4427 5.1907 32.4584 5.06475 32.4622C4.82966 32.4694 4.65453 32.6185 4.58105 32.7474C4.56516 32.7746 4.55005 32.8028 4.53458 32.8331C4.47705 32.9487 4.40575 33.0913 4.27887 33.3346C4.16068 33.5649 4.0577 33.7425 3.98615 33.8806C3.94973 33.9511 3.92209 34.0103 3.90731 34.0593C3.88209 34.1427 3.84978 34.2429 3.82317 34.3441C3.78078 34.5025 3.75404 34.664 3.76176 34.7602C3.7644 34.7944 3.76989 34.8307 3.7764 34.8697C3.79336 34.9697 3.81747 35.0855 3.82794 35.2327C3.82875 35.2442 3.8295 35.2558 3.83018 35.2676C3.84089 35.4385 3.81498 35.5368 3.76493 35.6453C3.74485 35.689 3.66749 35.7289 3.58842 35.7739C3.47628 35.8368 3.36086 35.9129 3.4048 35.9998C3.41507 36.0199 3.43583 36.0402 3.45784 36.061C3.49827 36.0993 3.54261 36.1381 3.53295 36.1861C3.5296 36.2029 3.51107 36.2204 3.49304 36.2379C3.4732 36.257 3.45398 36.2762 3.45595 36.2936C3.46331 36.3586 3.48209 36.42 3.50002 36.4736C3.52309 36.5427 3.5447 36.5999 3.5378 36.6414C3.52551 36.7157 3.57732 36.7788 3.63113 36.8379C3.67237 36.8835 3.71491 36.9273 3.73246 36.9795C3.78215 37.1292 3.93266 37.3023 4.129 37.4296C4.20303 37.4777 4.20153 37.5596 4.20697 37.6692C4.21036 37.7371 4.21637 37.8155 4.24554 37.8986C4.2622 37.9458 4.32103 37.9466 4.37436 37.9455C4.42367 37.9446 4.46854 37.9425 4.47643 37.9778C4.48339 38.009 4.44458 38.0725 4.40866 38.1336C4.36861 38.2015 4.33223 38.2666 4.36459 38.2778C4.38177 38.2838 4.42123 38.271 4.46749 38.2549C4.48577 38.2486 4.50511 38.2418 4.52466 38.2353C4.51446 38.2459 4.5056 38.2556 4.49895 38.263C4.45193 38.3152 4.45066 38.3638 4.4508 38.4119C4.45083 38.431 4.45111 38.4501 4.44849 38.4693C4.43879 38.5399 4.49019 38.5947 4.53659 38.6269C4.55617 38.6405 4.56017 38.6709 4.56548 38.7066C4.57017 38.7382 4.57593 38.774 4.59436 38.8053C4.60485 38.8231 4.60512 38.8481 4.60543 38.869C4.60564 38.8842 4.60589 38.8971 4.6101 38.9033C4.61376 38.9087 4.62916 38.8948 4.64638 38.8791C4.65879 38.8678 4.6722 38.8555 4.6829 38.8488C4.70851 38.8327 4.72606 38.8344 4.7304 38.8479C4.73239 38.8541 4.73146 38.8629 4.73055 38.8716C4.7295 38.8817 4.72842 38.892 4.73209 38.8982C4.74898 38.9266 4.78586 38.9227 4.82359 38.9179C4.86526 38.9127 4.90752 38.9062 4.92973 38.9425C4.93673 38.954 4.94037 38.973 4.94407 38.9914C4.94793 39.0107 4.95193 39.0294 4.95947 39.038C4.9903 39.0728 5.0502 39.0476 5.1039 39.0231C5.13969 39.0069 5.17289 38.9911 5.19473 38.9944C5.23497 39.0005 5.2791 38.9544 5.31118 38.9202C5.32781 38.9025 5.34131 38.8878 5.34957 38.8853C5.35426 38.8893 5.35891 38.8936 5.3634 38.898C5.36651 38.9042 5.36976 38.9107 5.37516 38.9115C5.37557 38.9116 5.37604 38.9115 5.37645 38.9115C5.4007 38.9383 5.42287 38.9703 5.44519 39.0019C5.49517 39.0726 5.55042 39.1426 5.63299 39.1433C5.6508 39.1434 5.67501 39.1252 5.69923 39.1064C5.72896 39.0835 5.75876 39.0596 5.77882 39.0681C5.82638 39.0882 5.86543 39.1418 5.90671 39.1942C5.96779 39.2728 6.03522 39.3486 6.11924 39.2983C6.14674 39.2816 6.17596 39.2504 6.20464 39.2187C6.22062 39.201 6.23652 39.183 6.25195 39.1675C6.24402 39.1997 6.23759 39.23 6.23159 39.2583C6.21918 39.3166 6.20855 39.3665 6.18851 39.407C6.14142 39.5029 6.07961 39.6347 6.06484 39.7364C6.06091 39.764 6.05438 39.7944 6.04768 39.8249C6.03096 39.9015 6.01326 39.9798 6.03963 40.0213C6.05708 40.0493 6.10612 40.1144 6.15204 40.0606C6.16197 40.0489 6.17064 40.024 6.18018 39.9963C6.18474 39.9831 6.18951 39.9692 6.19472 39.9557C6.20907 39.9187 6.22665 39.8851 6.25242 39.8781C6.25834 39.8764 6.26471 39.8751 6.27125 39.8739C6.29733 39.8692 6.32639 39.8638 6.34147 39.8236C6.35882 39.7774 6.3623 39.7226 6.36674 39.6587C6.37231 39.5755 6.38018 39.4769 6.41616 39.3609C6.42326 39.338 6.43264 39.3309 6.4397 39.3255C6.44468 39.3216 6.44848 39.3186 6.44955 39.3115C6.45077 39.3035 6.45106 39.2865 6.45145 39.2649C6.45266 39.189 6.45658 39.0566 6.5005 39.0553C6.51246 39.0549 6.52554 39.0624 6.53729 39.0691C6.5546 39.079 6.56913 39.087 6.57271 39.0655C6.57406 39.0574 6.57524 39.0486 6.57635 39.0394C6.59034 39.0431 6.60435 39.0466 6.61837 39.0501C6.63505 39.0769 6.6608 39.0761 6.69311 39.0745C6.70095 39.0741 6.7092 39.0738 6.71776 39.0737C6.74582 39.0799 6.77394 39.0858 6.80212 39.0914C6.82444 39.1025 6.84813 39.1202 6.87427 39.1481C6.92636 39.2041 6.97519 39.2958 7.02657 39.3845C7.04816 39.4219 7.07043 39.4588 7.09314 39.4922C7.08554 39.497 7.07873 39.5026 7.07366 39.5099C7.03892 39.5599 7.02838 39.6544 7.01774 39.7415C7.01067 39.7994 7.0036 39.854 6.98908 39.8896C6.96239 39.9547 6.9673 40.0295 6.97149 40.0848C6.9736 40.1135 6.97531 40.137 6.97165 40.1511C6.9687 40.1624 6.96117 40.168 6.95337 40.1736C6.94657 40.1786 6.93952 40.1837 6.93513 40.1929C6.88148 40.3038 6.89799 40.3671 6.92609 40.4593C6.94144 40.5101 6.95996 40.5696 6.97033 40.6508C6.97969 40.7367 6.97844 40.762 6.94604 40.7972C6.97294 40.8391 7.00045 40.8809 7.02857 40.9224C7.03884 40.9192 7.04566 40.8923 7.0546 40.8476C7.07066 40.7679 7.1311 40.736 7.17797 40.71C7.19963 40.698 7.21831 40.6873 7.22825 40.6744C7.2809 40.6054 7.25522 40.5175 7.23451 40.4401C7.22298 40.3975 7.21265 40.358 7.21553 40.3267C7.21674 40.3134 7.21231 40.3006 7.20788 40.2875C7.20445 40.2774 7.20097 40.2672 7.19998 40.2564C7.19297 40.1781 7.21903 40.1175 7.24166 40.0609C7.25468 40.0285 7.26668 39.9973 7.27163 39.9653C7.27314 39.9555 7.2741 39.9456 7.27495 39.936C7.27621 39.922 7.27741 39.9086 7.28032 39.897C7.28693 39.8704 7.30417 39.8511 7.3227 39.8298C7.3322 39.8189 7.34204 39.8075 7.35095 39.7944C7.3625 39.7774 7.36323 39.7459 7.36395 39.7131C7.36446 39.6898 7.36499 39.6659 7.36906 39.6457C7.37645 39.6092 7.39891 39.5931 7.41952 39.578C7.4285 39.5715 7.43709 39.5649 7.44402 39.5572C7.44683 39.554 7.44753 39.5485 7.44669 39.5412C7.47936 39.511 7.50945 39.4801 7.53795 39.4497C7.68192 39.2957 7.7825 39.1616 8.00479 39.1689C8.04715 39.17 8.0866 39.1528 8.12285 39.1265C8.2628 39.1065 8.40367 39.079 8.54469 39.0433C8.60194 39.0935 8.66089 39.1298 8.7206 39.1503C8.83295 39.1887 8.91622 39.162 9.01236 39.1272C9.08366 39.1012 9.16215 39.0709 9.27023 39.0534C9.45177 39.024 9.63286 38.9681 9.80341 38.8588C9.97355 38.7506 10.1493 38.5985 10.2594 38.4776C10.3195 38.4124 10.4266 38.377 10.5268 38.3388C10.6676 38.2857 10.7949 38.2259 10.7404 38.1094C10.723 38.0723 10.6832 38.0228 10.6439 37.9755C10.6159 37.9418 10.5884 37.9091 10.5694 37.8821C10.5958 37.8557 10.6219 37.8288 10.6479 37.8016C10.742 37.7806 10.8597 37.7232 10.8306 37.5984C10.8561 37.5683 10.8811 37.5378 10.9054 37.5081C10.9577 37.4427 11.008 37.3773 11.057 37.3093C11.0731 37.2872 11.0892 37.2645 11.1051 37.2416C11.1053 37.2414 11.1055 37.2412 11.1056 37.241C11.1377 37.1949 11.1691 37.148 11.1997 37.1008C11.2128 37.0806 11.2257 37.0603 11.2385 37.0397C11.271 36.9877 11.3026 36.9347 11.3333 36.8813C11.3496 36.8532 11.3657 36.8241 11.3815 36.7954C11.4072 36.7487 11.4324 36.7007 11.4569 36.6522C11.4967 36.5733 11.5343 36.4951 11.5704 36.4135C11.5763 36.4002 11.5902 36.3886 11.6096 36.3814C11.629 36.3741 11.6523 36.3718 11.6755 36.3752C11.6987 36.3786 11.7205 36.3876 11.7368 36.4004C11.7531 36.4133 11.7626 36.4289 11.764 36.4439C11.7722 36.536 11.778 36.627 11.7807 36.7209C11.7824 36.7787 11.7832 36.8368 11.7828 36.8944C11.7826 36.9298 11.7817 36.9659 11.7808 37.0013C11.7788 37.0684 11.7753 37.1365 11.7702 37.2045C11.7682 37.2313 11.766 37.2581 11.7636 37.285C11.7579 37.3478 11.7507 37.4113 11.7423 37.4748C11.7422 37.4752 11.7422 37.4756 11.7421 37.476C11.7379 37.5073 11.7335 37.5385 11.7289 37.5694C11.7143 37.6645 11.6971 37.759 11.676 37.8553C11.6655 37.9053 11.6533 37.9567 11.6403 38.0082C11.6331 38.0369 11.6257 38.0654 11.6182 38.0935C11.614 38.1088 11.6097 38.1242 11.6052 38.1397C11.505 38.4971 11.3636 38.8476 11.1794 39.1857C10.996 39.5228 10.7713 39.8451 10.5109 40.1423C10.2498 40.4402 9.95261 40.7132 9.62419 40.954C8.60267 41.7095 7.25683 42.1365 5.88575 42.0781C4.47212 42.0301 3.01759 41.4538 1.91051 40.4461C1.59847 40.1648 1.30615 39.8425 1.05293 39.5012C0.797092 39.1561 0.577851 38.7921 0.392062 38.399C0.335622 38.2798 0.281331 38.1553 0.229947 38.0259Z" fill="black"/>
<path d="M48.2299 38.0259C47.808 36.9552 48.0687 35.8165 48.2123 34.7771C48.2154 34.754 48.2186 34.7309 48.2218 34.7077C48.3849 33.4358 48.6888 31.9707 49.6826 30.9817C50.6667 29.9981 51.9611 29.3578 53.2927 29.1674C54.1238 29.046 54.9659 29.0976 55.7458 29.3008C56.2157 29.4227 56.6682 29.5991 57.0885 29.8238C58.2078 30.4194 59.0805 31.3591 59.5838 32.4123C59.9282 33.1275 60.108 33.8955 60.1243 34.641C60.1318 34.9683 60.1084 35.2908 60.0565 35.6038C60.0178 35.8368 59.9633 36.066 59.8947 36.2862C59.8851 36.317 59.8576 36.344 59.8174 36.3608C59.7771 36.3776 59.7276 36.3828 59.6784 36.3756C59.6291 36.3684 59.5832 36.3493 59.549 36.3233C59.5148 36.2973 59.4954 36.2665 59.4934 36.2368C59.4793 36.0225 59.4506 35.8105 59.408 35.6055C59.3608 35.3772 59.2963 35.1563 59.2169 34.9446C59.4126 34.8771 59.5569 34.7994 59.6043 34.6891C59.6285 34.633 59.6264 34.5565 59.5766 34.5129C59.532 34.4737 59.464 34.454 59.3993 34.4365C59.3316 34.4182 59.2675 34.4024 59.2362 34.3681C59.183 34.3099 59.0799 34.2723 58.9718 34.2383C58.9325 34.2259 58.8924 34.2139 58.8537 34.2013C58.7447 34.0236 58.6243 33.8565 58.4945 33.7008C58.4774 33.623 58.4569 33.5523 58.4187 33.5049C58.3843 33.4625 58.3213 33.4433 58.2501 33.4324C58.2284 33.4105 58.2064 33.3889 58.1843 33.3676C58.0415 33.2301 57.8911 33.1047 57.7349 32.9922C57.6756 32.8473 57.6009 32.697 57.4582 32.5452C57.3967 32.4799 57.346 32.4022 57.2938 32.3282C57.2172 32.2193 57.1367 32.1183 57.0309 32.0874C56.9605 32.0669 56.9118 32.005 56.8597 31.9436C56.7908 31.8617 56.7144 31.7805 56.5988 31.8138C56.5263 31.8347 56.4549 31.8692 56.3903 31.9027C56.2877 31.9561 56.2024 32.0066 56.1476 31.9926C56.0448 31.9662 55.9372 32.0006 55.8471 32.0345C55.7376 32.0749 55.6522 32.1139 55.5985 32.039C55.5903 32.0277 55.5812 32.013 55.5708 31.9964C55.5326 31.9351 55.4751 31.848 55.3796 31.8168C55.3392 31.8036 55.2928 31.8007 55.2407 31.8147C55.1787 31.8314 55.1171 31.8872 55.0604 31.9433C54.9774 32.025 54.9041 32.1068 54.8277 32.0689C54.8162 32.0632 54.8042 32.0397 54.793 32.0182C54.7787 31.9909 54.7657 31.9672 54.7586 31.9881C54.7378 32.0493 54.7056 32.1174 54.6734 32.1921C54.6497 32.2469 54.6261 32.3053 54.6057 32.3666C54.4247 32.4119 54.2504 32.4709 54.0842 32.5416C54.0081 32.5739 53.9333 32.6089 53.8606 32.6461C53.7934 32.5712 53.7248 32.5072 53.6583 32.4648C53.5713 32.4096 53.4835 32.4164 53.3706 32.4315C53.2875 32.4427 53.1907 32.4584 53.0647 32.4622C52.8297 32.4694 52.6545 32.6185 52.581 32.7474C52.5652 32.7746 52.55 32.8028 52.5346 32.8331C52.477 32.9487 52.4057 33.0913 52.2789 33.3346C52.1607 33.5649 52.0577 33.7425 51.9861 33.8806C51.9497 33.9511 51.9221 34.0103 51.9073 34.0593C51.8821 34.1427 51.8498 34.2429 51.8232 34.3441C51.7808 34.5025 51.754 34.664 51.7618 34.7602C51.7644 34.7944 51.7699 34.8307 51.7764 34.8697C51.7934 34.9697 51.8175 35.0855 51.8279 35.2327C51.8287 35.2442 51.8295 35.2558 51.8302 35.2676C51.8409 35.4385 51.815 35.5368 51.7649 35.6453C51.7448 35.689 51.6675 35.7289 51.5884 35.7739C51.4763 35.8368 51.3609 35.9129 51.4048 35.9998C51.4151 36.0199 51.4358 36.0402 51.4578 36.061C51.4983 36.0993 51.5426 36.1381 51.5329 36.1861C51.5296 36.2029 51.5111 36.2204 51.493 36.2379C51.4732 36.257 51.454 36.2762 51.4559 36.2936C51.4633 36.3586 51.4821 36.42 51.5 36.4736C51.5231 36.5427 51.5447 36.5999 51.5378 36.6414C51.5255 36.7157 51.5773 36.7788 51.6311 36.8379C51.6724 36.8835 51.7149 36.9273 51.7325 36.9795C51.7821 37.1292 51.9326 37.3023 52.129 37.4296C52.203 37.4777 52.2015 37.5596 52.207 37.6692C52.2104 37.7371 52.2164 37.8155 52.2455 37.8986C52.2622 37.9458 52.321 37.9466 52.3744 37.9455C52.4237 37.9446 52.4685 37.9425 52.4764 37.9778C52.4834 38.009 52.4446 38.0725 52.4087 38.1336C52.3686 38.2015 52.3322 38.2666 52.3646 38.2778C52.3818 38.2838 52.4212 38.271 52.4675 38.2549C52.4858 38.2486 52.5051 38.2418 52.5247 38.2353C52.5145 38.2459 52.5056 38.2556 52.4989 38.263C52.4519 38.3152 52.4506 38.3638 52.4508 38.4119C52.4508 38.431 52.4511 38.4501 52.4485 38.4693C52.4388 38.5399 52.4902 38.5947 52.5366 38.6269C52.5562 38.6405 52.5602 38.6709 52.5655 38.7066C52.5702 38.7382 52.5759 38.774 52.5943 38.8053C52.6048 38.8231 52.6051 38.8481 52.6054 38.869C52.6056 38.8842 52.6059 38.8971 52.6101 38.9033C52.6138 38.9087 52.6291 38.8948 52.6464 38.8791C52.6588 38.8678 52.6722 38.8555 52.6829 38.8488C52.7085 38.8327 52.7261 38.8344 52.7304 38.8479C52.7324 38.8541 52.7315 38.8629 52.7305 38.8716C52.7295 38.8817 52.7284 38.892 52.7321 38.8982C52.749 38.9266 52.7858 38.9227 52.8236 38.9179C52.8652 38.9127 52.9075 38.9062 52.9297 38.9425C52.9367 38.954 52.9404 38.973 52.9441 38.9914C52.9479 39.0107 52.9519 39.0294 52.9595 39.038C52.9903 39.0728 53.0502 39.0476 53.1039 39.0231C53.1397 39.0069 53.1729 38.9911 53.1947 38.9944C53.235 39.0005 53.2791 38.9544 53.3112 38.9202C53.3278 38.9025 53.3413 38.8878 53.3496 38.8853C53.3543 38.8893 53.3589 38.8936 53.3634 38.898C53.3665 38.9042 53.3698 38.9107 53.3752 38.9115C53.3756 38.9116 53.376 38.9115 53.3764 38.9115C53.4007 38.9383 53.4229 38.9703 53.4452 39.0019C53.4952 39.0726 53.5504 39.1426 53.633 39.1433C53.6508 39.1434 53.675 39.1252 53.6992 39.1064C53.729 39.0835 53.7587 39.0596 53.7788 39.0681C53.8264 39.0882 53.8654 39.1418 53.9067 39.1942C53.9678 39.2728 54.0352 39.3486 54.1192 39.2983C54.1467 39.2816 54.176 39.2504 54.2046 39.2187C54.2206 39.201 54.2365 39.183 54.2519 39.1675C54.244 39.1997 54.2376 39.23 54.2316 39.2583C54.2192 39.3166 54.2085 39.3665 54.1885 39.407C54.1414 39.5029 54.0796 39.6347 54.0648 39.7364C54.0609 39.764 54.0544 39.7944 54.0477 39.8249C54.031 39.9015 54.0133 39.9798 54.0396 40.0213C54.0571 40.0493 54.1061 40.1144 54.152 40.0606C54.162 40.0489 54.1706 40.024 54.1802 39.9963C54.1847 39.9831 54.1895 39.9692 54.1947 39.9557C54.2091 39.9187 54.2266 39.8851 54.2524 39.8781C54.2583 39.8764 54.2647 39.8751 54.2712 39.8739C54.2973 39.8692 54.3264 39.8638 54.3415 39.8236C54.3588 39.7774 54.3623 39.7226 54.3667 39.6587C54.3723 39.5755 54.3802 39.4769 54.4162 39.3609C54.4232 39.338 54.4326 39.3309 54.4397 39.3255C54.4447 39.3216 54.4485 39.3186 54.4495 39.3115C54.4508 39.3035 54.451 39.2865 54.4514 39.2649C54.4526 39.189 54.4566 39.0566 54.5005 39.0553C54.5125 39.0549 54.5255 39.0624 54.5373 39.0691C54.5546 39.079 54.5691 39.087 54.5727 39.0655C54.574 39.0574 54.5752 39.0486 54.5763 39.0394C54.5903 39.0431 54.6043 39.0466 54.6184 39.0501C54.635 39.0769 54.6608 39.0761 54.6931 39.0745C54.7009 39.0741 54.7092 39.0738 54.7178 39.0737C54.7458 39.0799 54.7739 39.0858 54.8021 39.0914C54.8244 39.1025 54.8481 39.1202 54.8743 39.1481C54.9264 39.2041 54.9752 39.2958 55.0266 39.3845C55.0481 39.4219 55.0704 39.4588 55.0931 39.4922C55.0855 39.497 55.0787 39.5026 55.0737 39.5099C55.0389 39.5599 55.0284 39.6544 55.0177 39.7415C55.0107 39.7994 55.0036 39.854 54.9891 39.8896C54.9624 39.9547 54.9673 40.0295 54.9715 40.0848C54.9736 40.1135 54.9753 40.137 54.9716 40.1511C54.9687 40.1624 54.9612 40.168 54.9534 40.1736C54.9466 40.1786 54.9395 40.1837 54.9351 40.1929C54.8815 40.3038 54.898 40.3671 54.9261 40.4593C54.9414 40.5101 54.96 40.5696 54.9703 40.6508C54.9797 40.7367 54.9784 40.762 54.946 40.7972C54.9729 40.8391 55.0004 40.8809 55.0286 40.9224C55.0388 40.9192 55.0457 40.8923 55.0546 40.8476C55.0707 40.7679 55.1311 40.736 55.178 40.71C55.1996 40.698 55.2183 40.6873 55.2282 40.6744C55.2809 40.6054 55.2552 40.5175 55.2345 40.4401C55.223 40.3975 55.2126 40.358 55.2155 40.3267C55.2167 40.3134 55.2123 40.3006 55.2079 40.2875C55.2044 40.2774 55.201 40.2672 55.2 40.2564C55.193 40.1781 55.219 40.1175 55.2417 40.0609C55.2547 40.0285 55.2667 39.9973 55.2716 39.9653C55.2731 39.9555 55.2741 39.9456 55.2749 39.936C55.2762 39.922 55.2774 39.9086 55.2803 39.897C55.2869 39.8704 55.3042 39.8511 55.3227 39.8298C55.3322 39.8189 55.342 39.8075 55.3509 39.7944C55.3625 39.7774 55.3632 39.7459 55.3639 39.7131C55.3644 39.6898 55.365 39.6659 55.3691 39.6457C55.3764 39.6092 55.3989 39.5931 55.4195 39.578C55.4285 39.5715 55.4371 39.5649 55.444 39.5572C55.4468 39.554 55.4475 39.5485 55.4467 39.5412C55.4794 39.511 55.5094 39.4801 55.5379 39.4497C55.6819 39.2957 55.7825 39.1616 56.0048 39.1689C56.0471 39.17 56.0866 39.1528 56.1228 39.1265C56.2628 39.1065 56.4037 39.079 56.5447 39.0433C56.6019 39.0935 56.6609 39.1298 56.7206 39.1503C56.8329 39.1887 56.9162 39.162 57.0124 39.1272C57.0837 39.1012 57.1621 39.0709 57.2702 39.0534C57.4518 39.024 57.6329 38.9681 57.8034 38.8588C57.9735 38.7506 58.1492 38.5985 58.2594 38.4776C58.3195 38.4124 58.4266 38.377 58.5268 38.3388C58.6676 38.2857 58.7949 38.2259 58.7404 38.1094C58.7229 38.0723 58.6832 38.0228 58.6439 37.9755C58.6159 37.9418 58.5884 37.9091 58.5694 37.8821C58.5958 37.8557 58.6219 37.8288 58.6479 37.8016C58.742 37.7806 58.8597 37.7232 58.8306 37.5984C58.8561 37.5683 58.8811 37.5378 58.9054 37.5081C58.9577 37.4427 59.0079 37.3773 59.057 37.3093C59.0731 37.2872 59.0892 37.2645 59.1051 37.2416C59.1053 37.2414 59.1055 37.2412 59.1056 37.241C59.1377 37.1949 59.1691 37.148 59.1997 37.1008C59.2127 37.0806 59.2257 37.0603 59.2385 37.0397C59.271 36.9877 59.3026 36.9347 59.3333 36.8813C59.3496 36.8532 59.3657 36.8241 59.3815 36.7954C59.4072 36.7487 59.4324 36.7007 59.4569 36.6522C59.4967 36.5733 59.5343 36.4951 59.5704 36.4135C59.5763 36.4002 59.5902 36.3886 59.6096 36.3814C59.629 36.3741 59.6523 36.3718 59.6755 36.3752C59.6987 36.3786 59.7204 36.3876 59.7368 36.4004C59.7531 36.4133 59.7625 36.4289 59.7639 36.4439C59.7722 36.536 59.778 36.627 59.7807 36.7209C59.7824 36.7787 59.7831 36.8368 59.7828 36.8944C59.7826 36.9298 59.7817 36.9659 59.7808 37.0013C59.7788 37.0684 59.7753 37.1365 59.7702 37.2045C59.7682 37.2313 59.766 37.2581 59.7636 37.285C59.7579 37.3478 59.7507 37.4113 59.7423 37.4748C59.7422 37.4752 59.7422 37.4756 59.7421 37.476C59.7379 37.5073 59.7335 37.5385 59.7288 37.5694C59.7142 37.6645 59.6971 37.759 59.676 37.8553C59.6655 37.9053 59.6533 37.9567 59.6403 38.0082C59.6331 38.0369 59.6257 38.0654 59.6182 38.0935C59.614 38.1088 59.6097 38.1242 59.6052 38.1397C59.505 38.4971 59.3636 38.8476 59.1794 39.1857C58.996 39.5228 58.7713 39.8451 58.5109 40.1423C58.2498 40.4402 57.9526 40.7132 57.6242 40.954C56.6027 41.7095 55.2568 42.1365 53.8857 42.0781C52.4721 42.0301 51.0176 41.4538 49.9105 40.4461C49.5985 40.1648 49.3061 39.8425 49.0529 39.5012C48.7971 39.1561 48.5778 38.7921 48.3921 38.399C48.3356 38.2798 48.2813 38.1553 48.2299 38.0259Z" fill="black"/>
</svg>
