<svg width="59" height="61" viewBox="0 0 59 61" fill="none" xmlns="http://www.w3.org/2000/svg">
<path d="M22.3279 55.9606C21.906 54.8899 22.1667 53.7512 22.3103 52.7118C22.3134 52.6887 22.3166 52.6656 22.3198 52.6424C22.4829 51.3705 22.7868 49.9053 23.7806 48.9164C24.7647 47.9327 26.0591 47.2924 27.3907 47.1021C28.2218 46.9806 29.0639 47.0323 29.8438 47.2355C30.3137 47.3573 30.7662 47.5338 31.1865 47.7585C32.3058 48.3541 33.1785 49.2938 33.6818 50.347C34.0262 51.0621 34.206 51.8301 34.2223 52.5757C34.2298 52.903 34.2063 53.2255 34.1545 53.5385C34.1158 53.7715 34.0613 54.0007 33.9927 54.2209C33.983 54.2516 33.9556 54.2787 33.9154 54.2955C33.8751 54.3123 33.8256 54.3174 33.7764 54.3102C33.7271 54.303 33.6812 54.284 33.647 54.258C33.6128 54.232 33.5934 54.2011 33.5914 54.1715C33.5773 53.9572 33.5486 53.7451 33.506 53.5401C33.4588 53.3119 33.3943 53.0909 33.3148 52.8793C33.5106 52.8118 33.6549 52.734 33.7023 52.6237C33.7265 52.5676 33.7244 52.4912 33.6746 52.4476C33.63 52.4084 33.562 52.3887 33.4973 52.3711C33.4296 52.3528 33.3654 52.337 33.3342 52.3028C33.281 52.2445 33.1779 52.2069 33.0698 52.173C33.0305 52.1606 32.9904 52.1486 32.9517 52.136C32.8427 51.9583 32.7223 51.7911 32.5925 51.6355C32.5754 51.5577 32.5549 51.4869 32.5167 51.4396C32.4823 51.3971 32.4193 51.378 32.3481 51.3671C32.3264 51.3452 32.3044 51.3236 32.2823 51.3023C32.1395 51.1648 31.9891 51.0393 31.8329 50.9268C31.7736 50.782 31.6989 50.6316 31.5562 50.4798C31.4947 50.4146 31.444 50.3369 31.3918 50.2629C31.3152 50.1539 31.2347 50.0529 31.1289 50.0221C31.0585 50.0015 31.0098 49.9396 30.9577 49.8782C30.8888 49.7964 30.8124 49.7151 30.6968 49.7484C30.6243 49.7694 30.5528 49.8039 30.4883 49.8374C30.3857 49.8908 30.3004 49.9413 30.2456 49.9272C30.1428 49.9009 30.0351 49.9353 29.9451 49.9691C29.8356 50.0096 29.7502 50.0486 29.6965 49.9737C29.6883 49.9624 29.6792 49.9477 29.6688 49.9311C29.6306 49.8698 29.5731 49.7827 29.4776 49.7515C29.4372 49.7383 29.3907 49.7353 29.3387 49.7493C29.2767 49.7661 29.2151 49.8218 29.1584 49.878C29.0754 49.9596 29.0021 50.0415 28.9257 50.0036C28.9142 49.9979 28.9022 49.9743 28.8909 49.9529C28.8767 49.9256 28.8637 49.9019 28.8566 49.9228C28.8358 49.984 28.8036 50.0521 28.7714 50.1267C28.7476 50.1815 28.7241 50.2399 28.7037 50.3013C28.5227 50.3466 28.3484 50.4055 28.1821 50.4762C28.1061 50.5086 28.0313 50.5436 27.9586 50.5807C27.8914 50.5059 27.8228 50.4419 27.7563 50.3995C27.6693 50.3443 27.5815 50.3511 27.4686 50.3662C27.3854 50.3774 27.2887 50.393 27.1627 50.3968C26.9276 50.4041 26.7525 50.5532 26.679 50.682C26.6631 50.7093 26.648 50.7374 26.6326 50.7678C26.575 50.8833 26.5037 51.026 26.3768 51.2693C26.2587 51.4996 26.1557 51.6772 26.0841 51.8153C26.0477 51.8858 26.0201 51.945 26.0053 51.9939C25.9801 52.0774 25.9478 52.1776 25.9212 52.2788C25.8788 52.4371 25.852 52.5987 25.8597 52.6949C25.8624 52.729 25.8679 52.7654 25.8744 52.8043C25.8913 52.9044 25.9155 53.0201 25.9259 53.1674C25.9267 53.1788 25.9275 53.1905 25.9282 53.2022C25.9389 53.3731 25.913 53.4714 25.8629 53.58C25.8428 53.6236 25.7655 53.6636 25.6864 53.7086C25.5743 53.7714 25.4588 53.8476 25.5028 53.9345C25.5131 53.9546 25.5338 53.9748 25.5558 53.9956C25.5963 54.0339 25.6406 54.0728 25.6309 54.1208C25.6276 54.1376 25.6091 54.1551 25.591 54.1725C25.5712 54.1917 25.552 54.2108 25.5539 54.2283C25.5613 54.2933 25.5801 54.3546 25.598 54.4083C25.6211 54.4774 25.6427 54.5345 25.6358 54.5761C25.6235 54.6504 25.6753 54.7134 25.7291 54.7725C25.7704 54.8181 25.8129 54.8619 25.8304 54.9141C25.8801 55.0638 26.0306 55.237 26.227 55.3643C26.301 55.4123 26.2995 55.4943 26.305 55.6038C26.3083 55.6717 26.3144 55.7501 26.3435 55.8332C26.3602 55.8804 26.419 55.8812 26.4723 55.8801C26.5216 55.8793 26.5665 55.8771 26.5744 55.9125C26.5814 55.9437 26.5426 56.0071 26.5066 56.0683C26.4666 56.1362 26.4302 56.2013 26.4626 56.2125C26.4798 56.2184 26.5192 56.2057 26.5655 56.1896C26.5838 56.1832 26.6031 56.1764 26.6226 56.17C26.6124 56.1806 26.6036 56.1903 26.5969 56.1977C26.5499 56.2499 26.5486 56.2985 26.5488 56.3465C26.5488 56.3657 26.5491 56.3847 26.5465 56.4039C26.5368 56.4746 26.5882 56.5294 26.6346 56.5615C26.6542 56.5752 26.6582 56.6056 26.6635 56.6412C26.6682 56.6729 26.6739 56.7087 26.6923 56.74C26.7028 56.7578 26.7031 56.7828 26.7034 56.8037C26.7036 56.8188 26.7039 56.8318 26.7081 56.838C26.7117 56.8434 26.7271 56.8295 26.7444 56.8138C26.7568 56.8024 26.7702 56.7901 26.7809 56.7834C26.8065 56.7674 26.824 56.7691 26.8284 56.7825C26.8304 56.7888 26.8294 56.7975 26.8285 56.8062C26.8275 56.8164 26.8264 56.8266 26.8301 56.8328C26.847 56.8612 26.8838 56.8573 26.9216 56.8525C26.9632 56.8473 27.0055 56.8409 27.0277 56.8772C27.0347 56.8886 27.0384 56.9076 27.0421 56.9261C27.0459 56.9454 27.0499 56.9641 27.0575 56.9726C27.0883 57.0074 27.1482 56.9822 27.2019 56.9578C27.2377 56.9415 27.2709 56.9258 27.2927 56.929C27.3329 56.9352 27.3771 56.8891 27.4092 56.8549C27.4258 56.8371 27.4393 56.8225 27.4476 56.82C27.4522 56.8239 27.4569 56.8282 27.4614 56.8326C27.4645 56.8389 27.4677 56.8454 27.4731 56.8462C27.4736 56.8462 27.474 56.8461 27.4744 56.8462C27.4987 56.873 27.5209 56.905 27.5432 56.9365C27.5932 57.0073 27.6484 57.0773 27.731 57.0779C27.7488 57.0781 27.773 57.0598 27.7972 57.0411C27.8269 57.0181 27.8567 56.9942 27.8768 57.0027C27.9244 57.0229 27.9634 57.0765 28.0047 57.1289C28.0658 57.2075 28.1332 57.2833 28.2172 57.2329C28.2447 57.2163 28.2739 57.1851 28.3026 57.1533C28.3186 57.1356 28.3345 57.1177 28.3499 57.1022C28.342 57.1343 28.3356 57.1647 28.3296 57.193C28.3172 57.2513 28.3065 57.3012 28.2865 57.3417C28.2394 57.4376 28.1776 57.5693 28.1628 57.671C28.1589 57.6987 28.1524 57.729 28.1457 57.7596C28.1289 57.8362 28.1112 57.9145 28.1376 57.956C28.1551 57.984 28.2041 58.0491 28.25 57.9953C28.26 57.9836 28.2686 57.9587 28.2782 57.931C28.2827 57.9177 28.2875 57.9038 28.2927 57.8904C28.3071 57.8533 28.3246 57.8198 28.3504 57.8127C28.3563 57.8111 28.3627 57.8098 28.3692 57.8086C28.3953 57.8039 28.4244 57.7984 28.4395 57.7583C28.4568 57.7121 28.4603 57.6573 28.4647 57.5934C28.4703 57.5102 28.4782 57.4116 28.5141 57.2956C28.5212 57.2727 28.5306 57.2656 28.5377 57.2601C28.5427 57.2563 28.5465 57.2532 28.5475 57.2462C28.5488 57.2381 28.549 57.2211 28.5494 57.1996C28.5506 57.1236 28.5546 56.9913 28.5985 56.9899C28.6104 56.9896 28.6235 56.9971 28.6353 57.0038C28.6526 57.0136 28.6671 57.0216 28.6707 57.0002C28.672 56.9921 28.6732 56.9832 28.6743 56.9741C28.6883 56.9777 28.7023 56.9813 28.7164 56.9847C28.733 57.0116 28.7588 57.0108 28.7911 57.0092C28.7989 57.0088 28.8072 57.0084 28.8157 57.0083C28.8438 57.0146 28.8719 57.0204 28.9001 57.026C28.9224 57.0371 28.9461 57.0549 28.9722 57.0828C29.0243 57.1387 29.0732 57.2304 29.1246 57.3192C29.1461 57.3566 29.1684 57.3935 29.1911 57.4269C29.1835 57.4317 29.1767 57.4372 29.1716 57.4445C29.1369 57.4946 29.1264 57.5891 29.1157 57.6762C29.1086 57.7341 29.1016 57.7887 29.0871 57.8242C29.0604 57.8894 29.0653 57.9641 29.0695 58.0195C29.0716 58.0482 29.0733 58.0717 29.0696 58.0858C29.0667 58.0971 29.0592 58.1026 29.0514 58.1083C29.0446 58.1133 29.0375 58.1184 29.0331 58.1276C28.9795 58.2385 28.996 58.3018 29.0241 58.394C29.0394 58.4448 29.0579 58.5043 29.0683 58.5854C29.0777 58.6714 29.0764 58.6967 29.044 58.7319C29.0709 58.7738 29.0984 58.8155 29.1266 58.857C29.1368 58.8539 29.1436 58.8269 29.1526 58.7823C29.1686 58.7026 29.2291 58.6706 29.276 58.6446C29.2976 58.6326 29.3163 58.622 29.3262 58.6091C29.3789 58.54 29.3532 58.4521 29.3325 58.3747C29.321 58.3321 29.3106 58.2927 29.3135 58.2614C29.3147 58.248 29.3103 58.2352 29.3059 58.2222C29.3024 58.2121 29.299 58.2018 29.298 58.191C29.291 58.1128 29.317 58.0521 29.3396 57.9955C29.3527 57.9631 29.3647 57.932 29.3696 57.9C29.3711 57.8902 29.3721 57.8803 29.3729 57.8707C29.3742 57.8567 29.3754 57.8433 29.3783 57.8316C29.3849 57.8051 29.4022 57.7857 29.4207 57.7645C29.4302 57.7536 29.44 57.7422 29.4489 57.7291C29.4605 57.712 29.4612 57.6806 29.4619 57.6477C29.4624 57.6245 29.463 57.6006 29.467 57.5804C29.4744 57.5438 29.4969 57.5278 29.5175 57.5127C29.5265 57.5061 29.5351 57.4996 29.542 57.4918C29.5448 57.4887 29.5455 57.4831 29.5447 57.4759C29.5773 57.4457 29.6074 57.4148 29.6359 57.3843C29.7799 57.2304 29.8805 57.0962 30.1028 57.1036C30.1451 57.1047 30.1846 57.0875 30.2208 57.0612C30.3608 57.0412 30.5017 57.0136 30.6427 56.978C30.6999 57.0282 30.7589 57.0645 30.8186 57.085C30.9309 57.1233 31.0142 57.0966 31.1103 57.0618C31.1816 57.0359 31.2601 57.0055 31.3682 56.9881C31.5498 56.9586 31.7308 56.9028 31.9014 56.7934C32.0715 56.6852 32.2472 56.5331 32.3574 56.4123C32.4175 56.3471 32.5246 56.3116 32.6248 56.2734C32.7656 56.2204 32.8929 56.1606 32.8384 56.0441C32.8209 56.007 32.7811 55.9575 32.7419 55.9101C32.7139 55.8764 32.6864 55.8437 32.6674 55.8167C32.6938 55.7904 32.7199 55.7635 32.7459 55.7363C32.84 55.7152 32.9577 55.6578 32.9286 55.533C32.9541 55.503 32.9791 55.4725 33.0034 55.4427C33.0557 55.3774 33.1059 55.3119 33.155 55.244C33.1711 55.2218 33.1872 55.1992 33.2031 55.1763C33.2033 55.176 33.2035 55.1758 33.2036 55.1756C33.2357 55.1296 33.2671 55.0827 33.2977 55.0355C33.3107 55.0153 33.3237 54.9949 33.3365 54.9744C33.3689 54.9224 33.4006 54.8693 33.4313 54.816C33.4475 54.7879 33.4637 54.7588 33.4795 54.7301C33.5052 54.6833 33.5304 54.6354 33.5549 54.5869C33.5947 54.508 33.6323 54.4297 33.6684 54.3482C33.6743 54.3349 33.6882 54.3233 33.7075 54.316C33.727 54.3088 33.7503 54.3064 33.7735 54.3098C33.7967 54.3132 33.8184 54.3222 33.8348 54.3351C33.8511 54.3479 33.8605 54.3636 33.8619 54.3786C33.8702 54.4707 33.876 54.5617 33.8787 54.6556C33.8804 54.7133 33.8811 54.7714 33.8808 54.8291C33.8806 54.8645 33.8797 54.9006 33.8788 54.936C33.8768 55.0031 33.8732 55.0712 33.8682 55.1391C33.8662 55.166 33.864 55.1928 33.8615 55.2196C33.8559 55.2825 33.8487 55.346 33.8403 55.4095C33.8402 55.4099 33.8402 55.4102 33.8401 55.4106C33.8359 55.4419 33.8315 55.4732 33.8268 55.504C33.8122 55.5992 33.7951 55.6936 33.7739 55.79C33.7635 55.8399 33.7513 55.8914 33.7383 55.9429C33.7311 55.9715 33.7237 56.0001 33.7162 56.0281C33.712 56.0434 33.7077 56.0589 33.7032 56.0744C33.603 56.4318 33.4616 56.7823 33.2773 57.1204C33.094 57.4574 32.8693 57.7797 32.6089 58.0769C32.3478 58.3748 32.0506 58.6479 31.7222 58.8886C30.7007 59.6442 29.3548 60.0711 27.9837 60.0128C26.5701 59.9647 25.1156 59.3884 24.0085 58.3808C23.6965 58.0995 23.4041 57.7772 23.1509 57.4359C22.8951 57.0908 22.6758 56.7268 22.49 56.3336C22.4336 56.2144 22.3793 56.0899 22.3279 55.9606Z" fill="black"/>
<circle cx="29.4993" cy="5.70216" r="3.3234" transform="rotate(8.2828 29.4993 5.70216)" fill="black"/>
<path d="M23.5494 7.83233C23.1427 6.85949 23.6028 5.81395 23.7286 4.92367C23.7313 4.90356 23.734 4.88342 23.7367 4.86325C23.8655 3.77136 23.9493 2.36275 24.8812 1.4871C25.7951 0.629111 26.9821 0.113764 28.1645 0.0182857C28.9026 -0.0440488 29.6352 0.055005 30.288 0.284242C30.6814 0.4217 31.0538 0.606345 31.3907 0.829623C32.2894 1.4223 32.9142 2.28631 33.1981 3.17462C33.3938 3.77844 33.439 4.39506 33.3558 4.95555C33.3197 5.20166 33.2594 5.4368 33.1789 5.6572C33.1187 5.82131 33.0474 5.97821 32.967 6.12447C32.9557 6.14489 32.9178 6.16089 32.8599 6.16787C32.802 6.17489 32.7294 6.17243 32.6555 6.16164C32.5816 6.15084 32.5112 6.13263 32.4573 6.11187C32.4036 6.09109 32.3712 6.06948 32.365 6.0507C32.3211 5.91478 32.2677 5.78515 32.2061 5.66475C32.1378 5.53065 32.0594 5.4071 31.9739 5.29494C32.2729 5.22606 32.4967 5.15398 32.5845 5.07095C32.6294 5.0289 32.6398 4.97569 32.5762 4.95511C32.519 4.9366 32.4249 4.93716 32.3356 4.93961C32.2421 4.94213 32.1539 4.94684 32.1177 4.9318C32.0561 4.90607 31.9201 4.90803 31.779 4.91781C31.7276 4.92131 31.6754 4.92573 31.6257 4.92975C31.5303 4.85003 31.4312 4.78113 31.3305 4.72282C31.3412 4.67377 31.3457 4.62881 31.3192 4.6091C31.2953 4.59138 31.227 4.60431 31.147 4.62897C31.1312 4.62191 31.1154 4.61512 31.0995 4.60858C30.9975 4.56622 30.8957 4.53403 30.7955 4.51175C30.8116 4.4085 30.8144 4.29841 30.7613 4.20751C30.7386 4.16855 30.7329 4.10767 30.724 4.0482C30.7114 3.96077 30.6906 3.87595 30.6214 3.88499C30.5756 3.89126 30.5663 3.83564 30.5529 3.77907C30.5361 3.70377 30.5103 3.62624 30.418 3.71353C30.3602 3.76854 30.3007 3.84097 30.2481 3.90963C30.1644 4.01886 30.0987 4.11842 30.0733 4.1178C30.0252 4.11646 29.9582 4.19724 29.906 4.27136C29.8419 4.36021 29.7984 4.43864 29.7929 4.34241C29.792 4.32782 29.7914 4.30856 29.7905 4.28664C29.7875 4.20568 29.7778 4.08976 29.7386 4.05818C29.7223 4.04483 29.7013 4.04683 29.6768 4.0737C29.6475 4.10581 29.6158 4.19478 29.5898 4.28285C29.551 4.41105 29.5254 4.53689 29.5002 4.48041C29.4964 4.47196 29.4923 4.43663 29.4882 4.40438C29.483 4.36337 29.4777 4.32762 29.4755 4.35881C29.4689 4.4503 29.4597 4.55155 29.4537 4.66181C29.4492 4.74282 29.4465 4.82871 29.4466 4.91876C29.407 4.97216 29.3766 5.02636 29.3535 5.0791C29.343 5.10328 29.3339 5.1272 29.3263 5.15069C29.2775 5.02181 29.2274 4.90785 29.183 4.8242C29.1248 4.71498 29.0862 4.68947 29.0345 4.65937C28.996 4.63746 28.9504 4.61283 28.874 4.55688C28.7302 4.45409 28.6691 4.53881 28.6826 4.63641C28.685 4.65723 28.6885 4.6789 28.693 4.7021C28.7108 4.78987 28.7362 4.89808 28.7641 5.02901C28.7919 5.15188 28.7868 5.20729 28.7826 5.25127C28.7808 5.27341 28.78 5.29141 28.7884 5.3097C28.8026 5.34092 28.8139 5.3732 28.8273 5.40382C28.8481 5.4518 28.8742 5.49581 28.9187 5.52664C28.9345 5.53762 28.9547 5.54965 28.9765 5.56181C29.0325 5.59328 29.1015 5.62457 29.1459 5.65072C29.1493 5.65277 29.1526 5.65478 29.1557 5.65675C29.2016 5.68446 29.1682 5.68833 29.0953 5.7025C29.0657 5.70781 28.949 5.7142 28.8287 5.72679C28.658 5.74341 28.4808 5.77621 28.5363 5.79725C28.5492 5.80187 28.5776 5.80507 28.6072 5.80771C28.6618 5.81279 28.7208 5.81468 28.6972 5.82927C28.6891 5.83443 28.6583 5.84295 28.6283 5.85178C28.5953 5.86146 28.5632 5.87154 28.5622 5.87662C28.5587 5.89552 28.5702 5.91124 28.5807 5.92445C28.5943 5.94159 28.606 5.95494 28.5824 5.97286C28.5404 6.00516 28.5897 6.01328 28.6388 6.01607C28.6764 6.01864 28.714 6.01862 28.7135 6.03391C28.7117 6.07823 28.8164 6.09637 28.9581 6.05554C29.0115 6.03993 28.9579 6.09011 28.897 6.16383C28.8589 6.20944 28.8177 6.264 28.796 6.31291C28.7838 6.34079 28.8397 6.30629 28.8895 6.27207C28.9355 6.24079 28.9765 6.21008 28.961 6.23525C28.9472 6.25748 28.8735 6.33744 28.8049 6.41467C28.7284 6.50048 28.6583 6.58298 28.6805 6.57494C28.6922 6.5706 28.7343 6.53549 28.783 6.49257C28.8023 6.4756 28.8226 6.45751 28.8427 6.43954C28.8278 6.45586 28.8147 6.4705 28.8047 6.48161C28.7342 6.55998 28.7048 6.6082 28.6776 6.65654C28.6667 6.67582 28.6561 6.69502 28.6431 6.71611C28.5954 6.79377 28.6087 6.82368 28.6283 6.83344C28.6365 6.83761 28.6232 6.86854 28.6086 6.90518C28.5955 6.93768 28.5814 6.97474 28.5797 7.00079C28.5787 7.01561 28.5662 7.04412 28.5559 7.06804C28.5484 7.08534 28.5422 7.10019 28.5424 7.10532C28.5425 7.10974 28.5613 7.08597 28.5823 7.05909C28.5974 7.03973 28.6137 7.01873 28.6251 7.00552C28.6524 6.97399 28.6643 6.96695 28.6607 6.98048C28.659 6.98674 28.6539 6.99746 28.6489 7.00815C28.643 7.0206 28.6372 7.03315 28.6368 7.03863C28.6351 7.06377 28.6639 7.0412 28.6928 7.01692C28.7247 6.99035 28.7563 6.96163 28.7537 6.99534C28.7529 7.00596 28.7462 7.02755 28.7401 7.0486C28.7336 7.07062 28.7276 7.092 28.7287 7.09918C28.7333 7.12842 28.7841 7.07 28.8282 7.01467C28.8577 6.97794 28.8845 6.94283 28.8958 6.93728C28.9167 6.92726 28.9619 6.84842 28.9943 6.78982C29.0111 6.75947 29.0248 6.73443 29.0302 6.72745C29.0308 6.73052 29.0313 6.73403 29.0317 6.73777C29.0305 6.74454 29.0293 6.75154 29.0318 6.75022C29.032 6.75012 29.0322 6.74981 29.0324 6.74971C29.0331 6.77403 29.0308 6.80686 29.0292 6.83976C29.0253 6.91352 29.0284 6.98844 29.068 6.9608C29.0764 6.95483 29.0941 6.92133 29.1114 6.88703C29.1327 6.84504 29.1534 6.80167 29.1591 6.80698C29.1726 6.81959 29.1721 6.88349 29.1753 6.94701C29.1791 7.04233 29.1934 7.13686 29.2392 7.04593C29.2541 7.01589 29.2721 6.96446 29.2891 6.91235C29.2986 6.88331 29.3079 6.85395 29.3163 6.82831C29.3075 6.87702 29.2996 6.9228 29.2921 6.96548C29.2767 7.05345 29.2635 7.12875 29.2475 7.19192C29.2103 7.34128 29.1551 7.5459 29.1288 7.6977C29.1218 7.73891 29.1129 7.78462 29.1039 7.83063C29.0813 7.94607 29.0573 8.06385 29.066 8.12062C29.0714 8.15882 29.0914 8.24741 29.1258 8.1616C29.1333 8.14291 29.1417 8.10488 29.1509 8.0626C29.1554 8.04236 29.16 8.02112 29.1647 8.00049C29.1778 7.94371 29.192 7.8916 29.2067 7.87776C29.2101 7.87459 29.2137 7.87179 29.2173 7.86922C29.2319 7.85896 29.248 7.84747 29.2603 7.78611C29.2745 7.71544 29.2823 7.63351 29.2919 7.53805C29.3041 7.41369 29.3204 7.26621 29.3489 7.08942C29.3545 7.05446 29.359 7.04276 29.3623 7.03387C29.3646 7.0276 29.3664 7.02257 29.3676 7.012C29.369 6.99986 29.3711 6.97451 29.3738 6.94244C29.3829 6.82927 29.4015 6.63187 29.4142 6.62465C29.4177 6.62273 29.4206 6.63247 29.4234 6.64126C29.4274 6.65421 29.431 6.66488 29.4339 6.63256C29.435 6.62029 29.4361 6.607 29.4373 6.59322C29.4408 6.59739 29.4444 6.60154 29.448 6.60566C29.4506 6.64458 29.4581 6.64168 29.4671 6.63773C29.4693 6.63677 29.4716 6.63589 29.474 6.63541C29.4815 6.64365 29.4892 6.65177 29.497 6.65998C29.5032 6.67642 29.5099 6.70313 29.5181 6.74544C29.5345 6.83021 29.5543 6.96982 29.5793 7.10575C29.5897 7.16303 29.6011 7.21977 29.6131 7.27138C29.6103 7.27803 29.6079 7.2858 29.6063 7.29639C29.5953 7.36884 29.5958 7.50985 29.5949 7.63972C29.5944 7.7261 29.5932 7.80757 29.5872 7.86033C29.5759 7.95696 29.5804 8.06927 29.5846 8.15232C29.5867 8.1954 29.5884 8.2307 29.5867 8.25174C29.5854 8.2686 29.5813 8.27664 29.5769 8.28496C29.5732 8.2922 29.5692 8.29977 29.5669 8.31338C29.5381 8.47863 29.5473 8.57396 29.5669 8.71267C29.5774 8.78916 29.5907 8.87883 29.5996 9.00073C29.6079 9.12981 29.6079 9.16771 29.5864 9.21976C29.6056 9.28317 29.6259 9.34643 29.647 9.4095C29.6542 9.40507 29.6582 9.36495 29.6628 9.29835C29.6712 9.17945 29.7109 9.13409 29.7411 9.09799C29.7551 9.0813 29.767 9.06662 29.7729 9.04793C29.8036 8.94843 29.7791 8.81544 29.7604 8.69828C29.7499 8.63379 29.7407 8.57405 29.7401 8.52757C29.7399 8.50769 29.7362 8.48825 29.7325 8.46841C29.7297 8.45308 29.7269 8.43748 29.7255 8.42131C29.7156 8.30386 29.7261 8.21521 29.7337 8.13287C29.7381 8.08571 29.7417 8.04048 29.7412 7.99325C29.741 7.97886 29.7405 7.96422 29.74 7.95C29.7392 7.92924 29.7385 7.90946 29.7388 7.89241C29.7395 7.85357 29.7464 7.82666 29.7534 7.79728C29.757 7.78222 29.7607 7.76649 29.7636 7.74813C29.7673 7.72433 29.7635 7.6778 29.7594 7.62922C29.7566 7.59488 29.7535 7.55952 29.7526 7.53017C29.751 7.47709 29.7591 7.45669 29.7663 7.43768C29.7694 7.4294 29.7724 7.42119 29.7743 7.41089C29.7751 7.4067 29.7745 7.39868 29.7729 7.3878C29.7828 7.34881 29.7908 7.30911 29.7975 7.27026C29.8331 7.07451 29.8286 6.91047 29.9367 6.99709C29.9577 7.01319 29.9716 7.00356 29.9802 6.98146C30.0442 7.00669 30.1127 7.02874 30.1854 7.0465C30.2438 7.13591 30.2988 7.20781 30.3492 7.26005C30.444 7.35792 30.4943 7.36127 30.5524 7.36366C30.5958 7.36513 30.6437 7.36614 30.7267 7.39729C30.8661 7.44949 31.0064 7.47183 31.1231 7.43755C31.2393 7.40403 31.3563 7.33596 31.4248 7.27389C31.4621 7.24067 31.5691 7.2574 31.6717 7.2664C31.8153 7.28015 31.9502 7.27719 31.8351 7.15607C31.7983 7.11746 31.7284 7.05987 31.6597 7.00509C31.6107 6.96606 31.5626 6.92841 31.5275 6.89915C31.5495 6.8895 31.5713 6.87932 31.5934 6.86883C31.7043 6.8914 31.836 6.88955 31.7522 6.78632C31.7749 6.77348 31.7973 6.76019 31.8196 6.74714C31.8671 6.71807 31.914 6.68809 31.9607 6.65574C31.9761 6.64521 31.9916 6.63431 32.007 6.62314C32.0071 6.62304 32.0073 6.62294 32.0075 6.62285C32.0385 6.60041 32.0694 6.57707 32.1 6.55313C32.1131 6.54288 32.1261 6.53244 32.1391 6.52182C32.172 6.49495 32.2046 6.46693 32.2369 6.43826C32.2541 6.42315 32.2711 6.40728 32.2882 6.39154C32.3158 6.36587 32.3433 6.33909 32.3705 6.3116C32.4146 6.26683 32.4578 6.22147 32.5004 6.17297C32.5074 6.16508 32.5264 6.15932 32.5542 6.15699C32.5821 6.15468 32.6164 6.15594 32.6512 6.16101C32.686 6.16608 32.7193 6.17475 32.7451 6.18548C32.7709 6.19618 32.7868 6.20806 32.7907 6.21853C32.8147 6.28273 32.8367 6.34711 32.8562 6.41438C32.8683 6.45574 32.8798 6.49773 32.8902 6.53974C32.8966 6.56553 32.9024 6.5919 32.9082 6.61796C32.919 6.6673 32.9285 6.71777 32.9367 6.76856C32.94 6.78862 32.943 6.80875 32.9459 6.82895C32.9528 6.87627 32.9583 6.92438 32.9627 6.97287C32.9627 6.97316 32.9628 6.97346 32.9628 6.97375C32.9649 6.99764 32.9669 7.02159 32.9686 7.04537C32.9736 7.11854 32.9763 7.19197 32.9757 7.26747C32.976 7.30676 32.9748 7.34724 32.973 7.38804C32.972 7.41074 32.9709 7.43347 32.9696 7.45585C32.9688 7.46803 32.9678 7.48033 32.9668 7.49271C32.9458 7.77844 32.8874 8.06863 32.7885 8.35611C32.6903 8.64278 32.5527 8.92501 32.3789 9.19206C32.2046 9.45961 31.9938 9.71211 31.7497 9.94115C30.9928 10.6598 29.8851 11.1419 28.7013 11.1841C27.4827 11.2403 26.1557 10.8111 25.1291 9.95511C24.8396 9.71653 24.5667 9.43821 24.3288 9.13987C24.0885 8.83815 23.8808 8.51647 23.704 8.16587C23.6502 8.05961 23.5985 7.94826 23.5494 7.83233Z" fill="black"/>
<path d="M33.0533 32.6193C31.6575 32.4107 30.3287 31.7058 28.839 31.3534C28.3828 31.2484 27.9246 31.173 27.4635 31.1512C25.0074 31.0186 22.2615 32.0213 21.1875 32.2621C21.1357 32.2708 21.0924 32.278 21.0611 32.2812C19.002 32.9952 16.8749 33.9361 14.8607 35.0043C14.1793 35.3662 13.4982 35.7537 12.9143 36.1141C11.5261 37.0123 10.1201 38.0452 8.79196 39.1191C8.37813 39.4534 7.9564 39.8105 7.61704 40.1056C7.7566 39.8815 7.6581 39.9752 7.61863 40.0156C7.56586 40.0712 7.50013 40.156 7.43505 40.243C7.30211 40.4225 7.16312 40.6255 7.0232 40.8351C6.74333 41.2547 6.45922 41.7009 6.17748 42.145C5.61199 43.0391 5.04503 43.9509 4.47562 44.8615C4.36489 45.0386 4.2543 45.2152 4.14265 45.3941L4.1846 45.284C3.43555 46.5893 2.91182 48.0222 2.39687 49.6068C2.37305 49.6793 2.34951 49.75 2.32561 49.8232C2.08866 50.5345 1.84927 51.235 1.60961 51.9369C1.41219 52.514 1.21481 53.091 1.01834 53.6681C0.990852 53.7481 0.919861 53.8182 0.817947 53.8616C0.715858 53.9051 0.591755 53.9193 0.468918 53.8997C0.346008 53.8801 0.232143 53.828 0.148922 53.7548C0.0659218 53.6818 0.0209885 53.593 0.0202751 53.5083C0.0167351 52.8932 0.0141563 52.2781 0.0114403 51.6638C0.00852585 50.9815 0.0053215 50.3008 -5.72205e-05 49.6227C0.2132 49.6129 0.40723 49.592 0.576214 49.5557C0.819035 49.5042 1.01063 49.4152 1.13444 49.2717C1.2417 49.1458 1.3079 48.9526 1.23736 48.7891C1.17381 48.6431 1.03955 48.5192 0.911896 48.4005C0.778332 48.2767 0.651844 48.1581 0.622364 48.0258C0.572193 47.802 0.393299 47.5649 0.208923 47.3087C0.141766 47.2158 0.0739517 47.1195 0.0113449 47.0215C0.0388107 46.328 0.103146 45.6057 0.210396 44.8908C0.341522 44.6411 0.460213 44.4165 0.508003 44.2085C0.521755 44.1483 0.526421 44.0864 0.524239 44.0227C0.535721 43.9989 0.558235 43.9224 0.571232 43.8994C0.571159 43.7771 0.54015 43.6478 0.497665 43.515C0.521824 43.4168 0.546188 43.3182 0.570007 43.2209C0.726055 42.5885 0.884743 41.9552 1.04675 41.3213C1.36991 40.908 1.69865 40.472 2.02992 39.856C2.17287 39.5904 2.36049 39.3471 2.54377 39.1116C2.81596 38.7609 3.0726 38.4386 3.18063 38.0576C3.26683 37.7894 3.40175 37.6312 3.78216 37.2101C3.79853 37.1924 3.81563 37.1741 3.8337 37.1553C4.12926 36.9292 4.40503 36.7353 4.45753 36.3813C4.49002 36.1543 4.49574 35.9204 4.50106 35.7049C4.51006 35.3615 4.52209 35.0604 4.65385 34.8978C4.8998 34.5942 5.01401 34.2394 5.11874 33.9254C5.24403 33.5486 5.35551 33.2312 5.6518 33.1539C5.69674 33.1422 5.75186 33.1313 5.81303 33.1206C6.13924 33.0604 6.65195 32.9738 6.9912 32.4282C7.11205 32.2341 7.1613 31.9808 7.21258 31.7313C7.28638 31.369 7.36551 31.0141 7.66531 30.8756C7.71001 30.855 7.7859 30.8669 7.85502 30.8779C7.94293 30.892 8.01957 30.9045 8.00782 30.8459C7.97814 30.6986 7.96978 30.5174 7.96596 30.3187C7.96656 30.2849 7.96741 30.2505 7.96845 30.2156C7.97478 30.0337 7.98216 29.8418 7.97923 29.6504C8.62347 29.0133 9.25469 28.4456 9.90486 27.8972C10.2018 27.6469 10.5037 27.401 10.8059 27.1621C11.0959 27.2458 11.3771 27.3096 11.6365 27.3294C11.9782 27.3537 12.3079 27.2199 12.7383 27.0543C13.0555 26.9323 13.4245 26.7951 13.8867 26.6966C14.7414 26.514 15.4624 26.0699 15.8939 25.6965C15.9844 25.6178 16.0752 25.5371 16.1731 25.4505C16.494 25.1678 16.885 24.8227 17.6269 24.3333C17.7991 24.2326 17.9831 24.133 18.1784 24.0357C19.5253 23.3761 20.5613 23.1898 21.3228 23.0459C21.7126 22.9765 22.0235 22.9309 22.2649 22.8813C22.673 22.7967 23.1677 22.7208 23.6566 22.6579C24.4218 22.5582 25.174 22.4897 25.5972 22.4062C25.7505 22.3763 25.9051 22.34 26.0772 22.3021C26.5491 22.1973 27.1199 22.0762 27.8948 22.034C28.5854 21.9971 29.0419 22.0566 29.4754 22.1712C29.5549 22.1918 29.6333 22.2142 29.7115 22.2382C29.9247 22.3034 30.0991 22.5127 30.2774 22.7299C30.5302 23.0383 30.7862 23.3611 31.1833 23.3145C31.2756 23.3036 31.3785 23.2684 31.4851 23.2317C31.6823 23.1644 31.8963 23.0928 32.0993 23.1619C32.1695 23.1859 32.2269 23.2468 32.2823 23.3065C32.3432 23.3721 32.403 23.4365 32.4787 23.4502C32.7613 23.5014 33.04 23.5303 33.2882 23.5583C33.6081 23.5943 33.8774 23.6291 34.0342 23.7045C34.3139 23.8389 34.6484 23.8285 34.9903 23.8232C35.2512 23.8191 35.5164 23.8177 35.758 23.8846C35.8961 23.9229 36.0466 23.9578 36.2064 23.9897C36.825 24.1125 37.5984 24.1835 38.4304 24.2371C38.8239 24.2627 39.1053 24.4774 39.4622 24.7608C39.6852 24.9379 39.9367 25.1414 40.2761 25.3558C40.4685 25.4774 40.6874 25.4484 40.8982 25.4277C41.0245 25.4151 41.1487 25.406 41.258 25.4329C41.326 25.4515 41.3892 25.4804 41.4457 25.5246C41.5854 25.6353 41.6015 25.8449 41.6083 26.0399C41.6161 26.2574 41.6205 26.4612 41.7708 26.5003C41.8532 26.5225 41.9793 26.4871 42.1333 26.4489C42.1946 26.4339 42.2585 26.4179 42.3242 26.4035C42.304 26.4343 42.2874 26.4627 42.2752 26.4843C42.1883 26.637 42.2775 26.7929 42.3511 26.9405C42.3816 27 42.4121 27.0593 42.4313 27.1179C42.497 27.3304 42.7507 27.5132 42.9473 27.6294C43.0324 27.6797 43.0768 27.7726 43.1278 27.8811C43.1741 27.9781 43.2232 28.086 43.3098 28.1875C43.3595 28.2457 43.3782 28.3193 43.3922 28.3797C43.4025 28.4236 43.4113 28.4611 43.4291 28.4814C43.4446 28.499 43.488 28.4674 43.5369 28.432C43.5721 28.4065 43.6103 28.3789 43.6431 28.3662C43.722 28.3363 43.7824 28.3521 43.8053 28.3946C43.8157 28.4141 43.8175 28.4391 43.8192 28.4639C43.8212 28.4928 43.823 28.5218 43.8389 28.5424C43.9131 28.6378 44.0317 28.6501 44.1603 28.6672C44.301 28.6855 44.4441 28.703 44.5337 28.8293C44.5608 28.8683 44.5783 28.9259 44.5953 28.9819C44.613 29.0405 44.6305 29.0974 44.6577 29.1289C44.7663 29.2553 44.9639 29.2439 45.1452 29.2338C45.2653 29.2268 45.3795 29.2213 45.4558 29.2573C45.5935 29.322 45.7478 29.2493 45.8627 29.1963C45.9221 29.1688 45.971 29.1462 46.0009 29.1508C46.018 29.169 46.034 29.1872 46.0498 29.206C46.0605 29.228 46.0717 29.2508 46.0908 29.2607C46.0923 29.2614 46.0939 29.2618 46.0954 29.2626C46.1799 29.3724 46.2545 29.4945 46.3253 29.6139C46.4887 29.8856 46.6427 30.151 46.9204 30.287C46.9805 30.3166 47.0719 30.3094 47.1635 30.3012C47.2761 30.2915 47.392 30.2822 47.4565 30.341C47.6083 30.4794 47.708 30.6912 47.8007 30.8964C47.9436 31.2079 48.0794 31.5113 48.3929 31.5586C48.4966 31.5744 48.6223 31.5621 48.7484 31.5493C48.8182 31.5418 48.8886 31.5342 48.9553 31.532C48.8944 31.5886 48.8405 31.6445 48.7903 31.6967C48.6867 31.8041 48.598 31.896 48.4923 31.9489C48.243 32.0741 47.9187 32.2627 47.7663 32.4698C47.7248 32.526 47.6729 32.5838 47.6205 32.6418C47.489 32.7874 47.3547 32.9362 47.3768 33.072C47.3928 33.1646 47.4376 33.3841 47.6215 33.3424C47.6615 33.3332 47.7146 33.2933 47.7738 33.2489C47.8798 33.1691 48.0066 33.0755 48.1114 33.1169C48.129 33.1239 48.1476 33.1325 48.1664 33.1417C48.2415 33.1786 48.3258 33.2207 48.4192 33.1634C48.5266 33.0975 48.6087 32.9873 48.7043 32.8588C48.8289 32.6915 48.9765 32.4923 49.2349 32.3204C49.286 32.2865 49.3234 32.2917 49.3519 32.2957C49.3719 32.2986 49.3875 32.3005 49.4 32.2878C49.4143 32.2732 49.4375 32.2373 49.4669 32.1919C49.5705 32.0318 49.7509 31.7513 49.8972 31.8571C49.9368 31.8858 49.9692 31.934 49.9983 31.9774C50.0227 32.0138 50.0448 32.0468 50.067 32.0619C50.0836 32.0731 50.1002 32.074 50.118 32.0586C50.1336 32.045 50.1497 32.0295 50.1661 32.0132C50.2064 32.0562 50.2458 32.0984 50.2862 32.1415C50.3017 32.2396 50.3848 32.3036 50.4903 32.3849C50.5156 32.4044 50.5426 32.4256 50.5701 32.4481C50.65 32.5347 50.7306 32.6222 50.8111 32.7104C50.8644 32.793 50.911 32.893 50.9444 33.0166C51.0119 33.2649 50.9974 33.5652 50.9807 33.8582C50.9741 33.9821 50.9664 34.1042 50.9654 34.2216C50.9357 34.2089 50.9068 34.1997 50.8794 34.1983C50.6927 34.1896 50.4926 34.3255 50.3095 34.4515C50.1878 34.5353 50.0727 34.6142 49.9748 34.6439C49.7953 34.6985 49.6781 34.8451 49.5912 34.9532C49.5461 35.0093 49.509 35.0551 49.4762 35.0727C49.4498 35.0868 49.4232 35.0807 49.3957 35.0745C49.3719 35.0693 49.3472 35.064 49.3217 35.0716C49.0118 35.1637 48.9456 35.3178 48.8474 35.5403C48.7933 35.663 48.7288 35.8063 48.6098 35.9728C48.4806 36.1463 48.4337 36.1888 48.3122 36.1958C48.2918 36.3199 48.272 36.4448 48.2506 36.5684C48.2746 36.5806 48.334 36.5445 48.4288 36.4811C48.5981 36.3677 48.7685 36.4242 48.9017 36.4698C48.9632 36.4908 49.0168 36.5092 49.059 36.507C49.2829 36.495 49.4029 36.3008 49.5073 36.1284C49.5649 36.0336 49.6179 35.9457 49.6823 35.9001C49.7099 35.8806 49.7249 35.8498 49.7403 35.8185C49.7522 35.7942 49.7642 35.7695 49.7824 35.7495C49.9142 35.6038 50.0838 35.5621 50.2426 35.5254C50.3334 35.5042 50.4206 35.4842 50.4945 35.4463C50.5171 35.4347 50.5387 35.4216 50.5595 35.4088C50.5899 35.39 50.6191 35.3723 50.6487 35.3615C50.7161 35.3369 50.7941 35.3514 50.8794 35.3679C50.9231 35.3763 50.9688 35.3854 51.0162 35.39C51.0776 35.3958 51.1443 35.3524 51.2142 35.3072C51.2636 35.2753 51.3147 35.2426 51.3669 35.2256C51.4613 35.1948 51.55 35.2376 51.6322 35.2781C51.6681 35.2957 51.703 35.3126 51.7364 35.323C51.75 35.3272 51.7638 35.3221 51.7777 35.3101C51.9222 35.3685 52.0633 35.4233 52.2008 35.4778C52.8277 35.7269 53.3871 35.9802 53.7816 36.6206C53.8155 36.6776 53.8478 36.738 53.8784 36.802C53.9432 36.9381 54.0502 37.0562 54.1742 37.1608C54.44 37.6051 54.7043 38.0542 54.9659 38.5089C54.8921 38.6993 54.856 38.8917 54.8567 39.0794C54.8608 39.4353 55.0011 39.6873 55.1682 39.9908C55.2902 40.2134 55.4279 40.4658 55.5281 40.8018C55.6977 41.369 55.8948 41.9309 56.1876 42.5214C56.4814 43.1107 56.8256 43.794 57.0642 44.3096C57.1954 44.5895 57.1948 44.9613 57.1707 45.3058C57.1571 45.5014 57.1374 45.6917 57.1355 45.8549C57.1247 46.0675 57.169 46.2221 57.3583 46.2992C57.4595 46.3389 57.6208 46.3584 57.7773 46.3772C57.8888 46.3905 57.9979 46.4044 58.0823 46.4258C58.0919 46.5443 58.1001 46.6574 58.1088 46.7752C57.9921 47.0225 57.8896 47.3717 58.1633 47.6173C58.1694 47.7349 58.1775 47.8603 58.182 47.975C58.1956 48.2307 58.205 48.4784 58.2136 48.7314C58.2162 48.8142 58.218 48.8947 58.2207 48.9801C58.2207 48.9809 58.2207 48.9817 58.2207 48.9825C58.2249 49.1492 58.2285 49.3179 58.2308 49.4863C58.2318 49.5581 58.232 49.6272 58.2329 49.7005C58.2334 49.8783 58.235 50.0674 58.232 50.2443C58.2313 50.3429 58.2292 50.436 58.2274 50.5343C58.2238 50.6915 58.2188 50.8486 58.2119 51.0082C58.1998 51.2643 58.1844 51.5168 58.1541 51.7906C58.1487 51.8337 58.1225 51.8824 58.079 51.9214C58.0355 51.9588 57.9784 51.9841 57.9198 51.9827C57.8612 51.983 57.8043 51.9624 57.7577 51.9366C57.7113 51.9087 57.6793 51.8731 57.6665 51.8368C57.5868 51.6038 57.4929 51.3775 57.3973 51.1533C57.3377 51.0131 57.2762 50.8753 57.2143 50.7377C57.1757 50.6514 57.1382 50.5704 57.0988 50.484C57.0267 50.3299 56.9505 50.1642 56.8761 50.0096C56.846 49.9456 56.8168 49.8858 56.7867 49.8234C56.7161 49.6766 56.6449 49.5297 56.5735 49.3848C56.5731 49.3839 56.5727 49.3831 56.5723 49.3822C56.5365 49.3084 56.5017 49.2395 56.4664 49.1683C56.358 48.949 56.2498 48.735 56.1389 48.5136C56.081 48.4017 56.0209 48.2805 55.9616 48.1649C55.9284 48.1 55.8941 48.0316 55.8617 47.97C55.844 47.9355 55.8261 47.9002 55.808 47.8645C55.5668 47.3951 55.3232 46.9288 55.0783 46.4643C54.9278 46.2245 54.736 45.9682 54.5221 45.7103C54.0185 45.1058 53.4105 44.5 52.7804 43.9C52.1487 43.3001 51.488 42.7026 50.8191 42.1022C50.2374 41.5803 49.6488 41.0589 49.0554 40.5303C47.8643 39.4916 46.6581 38.7373 45.1843 37.7847C42.615 36.1497 39.5276 34.1825 37.7135 33.6053C37.7076 33.6042 37.702 33.6033 37.6967 33.6026C37.2108 33.463 36.5191 33.2874 35.846 33.1412C35.2612 33.0128 34.6647 32.8953 34.0559 32.7843C33.941 32.7638 33.8251 32.7436 33.7091 32.724C33.4964 32.6884 33.2781 32.6534 33.0533 32.6193Z" fill="black"/>
</svg>
