<svg width="65" height="57" viewBox="0 0 65 57" fill="none" xmlns="http://www.w3.org/2000/svg">
<path d="M40.5178 8.92336C40.0958 7.85267 40.3565 6.714 40.5001 5.6746C40.5033 5.6515 40.5064 5.62837 40.5096 5.60521C40.6727 4.33326 40.9766 2.86815 41.9704 1.87916C42.9546 0.895541 44.249 0.255218 45.5805 0.064888C46.4116 -0.0565615 47.2538 -0.00493889 48.0336 0.198299C48.5035 0.320126 48.956 0.496579 49.3763 0.721298C50.4956 1.31685 51.3684 2.25659 51.8716 3.30979C52.216 4.02493 52.3958 4.79293 52.4121 5.53848C52.4196 5.86575 52.3962 6.18826 52.3443 6.50126C52.3056 6.73431 52.2511 6.96349 52.1825 7.18369C52.1729 7.21442 52.1454 7.2415 52.1052 7.25826C52.0649 7.27505 52.0154 7.28025 51.9662 7.27304C51.9169 7.26581 51.871 7.24679 51.8368 7.2208C51.8027 7.1948 51.7832 7.16395 51.7812 7.13431C51.7671 6.91996 51.7384 6.70792 51.6958 6.50295C51.6486 6.2747 51.5841 6.05373 51.5047 5.8421C51.7004 5.7746 51.8447 5.69685 51.8921 5.58652C51.9164 5.53042 51.9142 5.45398 51.8644 5.41038C51.8198 5.37119 51.7518 5.35148 51.6871 5.33394C51.6194 5.31562 51.5553 5.29983 51.524 5.26557C51.4708 5.20735 51.3677 5.16973 51.2597 5.13579C51.2203 5.1234 51.1802 5.1114 51.1415 5.09875C51.0325 4.92105 50.9121 4.75395 50.7823 4.5983C50.7653 4.52049 50.7448 4.44972 50.7065 4.4024C50.6721 4.35991 50.6091 4.34076 50.5379 4.32985C50.5162 4.30797 50.4943 4.28639 50.4721 4.26509C50.3294 4.12758 50.1789 4.00213 50.0227 3.88962C49.9634 3.7448 49.8887 3.59442 49.746 3.44261C49.6845 3.37737 49.6338 3.29968 49.5816 3.22568C49.505 3.11672 49.4245 3.01572 49.3188 2.98485C49.2483 2.96432 49.1996 2.90245 49.1475 2.84104C49.0786 2.75916 49.0022 2.67791 48.8866 2.71121C48.8141 2.7322 48.7427 2.76669 48.6781 2.80018C48.5756 2.85355 48.4902 2.90409 48.4354 2.89001C48.3326 2.86367 48.225 2.89805 48.135 2.93193C48.0254 2.97239 47.94 3.01136 47.8863 2.93651C47.8781 2.92516 47.869 2.91049 47.8586 2.89389C47.8204 2.83257 47.7629 2.74545 47.6674 2.71426C47.627 2.70107 47.5806 2.69814 47.5285 2.71212C47.4666 2.72885 47.4049 2.78465 47.3482 2.84075C47.2652 2.92245 47.1919 3.00428 47.1155 2.96636C47.104 2.96069 47.092 2.93714 47.0808 2.91569C47.0665 2.88841 47.0535 2.86469 47.0464 2.88557C47.0256 2.9468 46.9934 3.01486 46.9612 3.08952C46.9375 3.14435 46.9139 3.20274 46.8935 3.26406C46.7126 3.30939 46.5382 3.36834 46.372 3.43904C46.2959 3.47141 46.2211 3.50636 46.1484 3.54355C46.0812 3.46868 46.0126 3.40465 45.9462 3.36228C45.8591 3.30708 45.7713 3.3139 45.6584 3.32896C45.5753 3.34021 45.4785 3.35582 45.3526 3.35965C45.1175 3.36685 44.9423 3.51598 44.8689 3.64481C44.853 3.67211 44.8379 3.70023 44.8224 3.73058C44.7649 3.84615 44.6936 3.98876 44.5667 4.23207C44.4485 4.46241 44.3455 4.63997 44.274 4.77808C44.2375 4.84857 44.2099 4.90778 44.1951 4.95672C44.1699 5.04016 44.1376 5.14038 44.111 5.24157C44.0686 5.39993 44.0418 5.56146 44.0496 5.65768C44.0522 5.69182 44.0577 5.72817 44.0642 5.76711C44.0812 5.86717 44.1053 5.98293 44.1157 6.13018C44.1166 6.14164 44.1173 6.15326 44.118 6.16505C44.1287 6.33593 44.1028 6.43424 44.0527 6.54278C44.0327 6.58642 43.9553 6.62638 43.8762 6.67136C43.7641 6.73425 43.6487 6.8104 43.6926 6.89731C43.7029 6.91739 43.7236 6.93761 43.7456 6.95842C43.7861 6.99673 43.8304 7.03558 43.8208 7.08357C43.8174 7.1004 43.7989 7.1179 43.7808 7.13533C43.761 7.15448 43.7418 7.17363 43.7438 7.19107C43.7511 7.25607 43.7699 7.31744 43.7878 7.37107C43.8109 7.4402 43.8325 7.49733 43.8256 7.53888C43.8133 7.6132 43.8651 7.67622 43.9189 7.73532C43.9602 7.78093 44.0027 7.82474 44.0203 7.87691C44.07 8.02664 44.2205 8.19979 44.4168 8.32708C44.4908 8.37512 44.4893 8.4571 44.4948 8.56664C44.4982 8.63453 44.5042 8.71294 44.5333 8.79605C44.55 8.84324 44.6088 8.84402 44.6622 8.84294C44.7115 8.8421 44.7563 8.83994 44.7642 8.87526C44.7712 8.90646 44.7324 8.96994 44.6965 9.03108C44.6564 9.09901 44.62 9.16407 44.6524 9.1753C44.6696 9.18122 44.709 9.16847 44.7553 9.15239C44.7736 9.14602 44.7929 9.13922 44.8125 9.13278C44.8023 9.14337 44.7934 9.15306 44.7868 9.16046C44.7397 9.21269 44.7385 9.26129 44.7386 9.30932C44.7386 9.32849 44.7389 9.34754 44.7363 9.36672C44.7266 9.4374 44.778 9.49218 44.8244 9.52434C44.844 9.538 44.848 9.5684 44.8533 9.60404C44.858 9.63565 44.8637 9.67149 44.8822 9.70276C44.8927 9.72058 44.8929 9.7456 44.8932 9.7665C44.8934 9.78163 44.8937 9.79456 44.8979 9.80079C44.9016 9.80617 44.917 9.79229 44.9342 9.77655C44.9466 9.76523 44.96 9.75294 44.9707 9.74623C44.9963 9.7302 45.0139 9.73188 45.0182 9.74534C45.0202 9.75156 45.0193 9.76032 45.0184 9.76905C45.0173 9.77921 45.0162 9.78943 45.0199 9.79562C45.0368 9.82403 45.0737 9.82013 45.1114 9.81532C45.1531 9.81014 45.1953 9.80368 45.2175 9.84C45.2245 9.85144 45.2282 9.87043 45.2319 9.88888C45.2357 9.90818 45.2397 9.92689 45.2473 9.93544C45.2781 9.97023 45.338 9.94504 45.3917 9.92057C45.4275 9.90434 45.4607 9.88856 45.4825 9.89184C45.5228 9.89795 45.5669 9.85188 45.599 9.81768C45.6156 9.79995 45.6291 9.78529 45.6374 9.78275C45.6421 9.78674 45.6467 9.79103 45.6512 9.79543C45.6543 9.8017 45.6576 9.80817 45.663 9.80897C45.6634 9.80903 45.6638 9.80895 45.6642 9.809C45.6885 9.83577 45.7107 9.86779 45.733 9.89932C45.783 9.97009 45.8382 10.0401 45.9208 10.0407C45.9386 10.0409 45.9628 10.0226 45.987 10.0039C46.0168 9.98092 46.0466 9.95704 46.0666 9.96552C46.1142 9.98567 46.1532 10.0393 46.1945 10.0917C46.2556 10.1703 46.323 10.2461 46.407 10.1957C46.4345 10.1791 46.4638 10.1479 46.4924 10.1161C46.5084 10.0984 46.5243 10.0805 46.5398 10.065C46.5318 10.0971 46.5254 10.1275 46.5194 10.1558C46.507 10.214 46.4964 10.264 46.4763 10.3045C46.4292 10.4004 46.3674 10.5321 46.3526 10.6338C46.3487 10.6615 46.3422 10.6918 46.3355 10.7224C46.3188 10.799 46.3011 10.8773 46.3274 10.9188C46.3449 10.9468 46.3939 11.0119 46.4398 10.9581C46.4498 10.9464 46.4584 10.9215 46.468 10.8938C46.4725 10.8805 46.4773 10.8666 46.4825 10.8532C46.4969 10.8161 46.5145 10.7826 46.5402 10.7755C46.5461 10.7739 46.5525 10.7726 46.5591 10.7714C46.5851 10.7667 46.6142 10.7612 46.6293 10.7211C46.6466 10.6749 46.6501 10.6201 46.6545 10.5562C46.6601 10.473 46.668 10.3744 46.704 10.2584C46.7111 10.2355 46.7204 10.2283 46.7275 10.2229C46.7325 10.2191 46.7363 10.216 46.7374 10.209C46.7386 10.2009 46.7389 10.1839 46.7393 10.1624C46.7405 10.0864 46.7444 9.95407 46.7883 9.95274C46.8003 9.95237 46.8133 9.95986 46.8251 9.96656C46.8424 9.97643 46.8569 9.98443 46.8605 9.963C46.8619 9.95487 46.863 9.94604 46.8642 9.93688C46.8781 9.94051 46.8922 9.94406 46.9062 9.94752C46.9228 9.97437 46.9486 9.9736 46.9809 9.97198C46.9888 9.97159 46.997 9.97124 47.0056 9.97114C47.0336 9.97737 47.0617 9.98321 47.0899 9.98884C47.1122 9.99993 47.1359 10.0177 47.1621 10.0456C47.2142 10.1015 47.263 10.1932 47.3144 10.282C47.336 10.3194 47.3582 10.3563 47.3809 10.3897C47.3733 10.3945 47.3665 10.4 47.3615 10.4073C47.3267 10.4574 47.3162 10.5519 47.3055 10.6389C47.2985 10.6969 47.2914 10.7515 47.2769 10.787C47.2502 10.8522 47.2551 10.9269 47.2593 10.9823C47.2614 11.011 47.2631 11.0345 47.2595 11.0486C47.2565 11.0599 47.249 11.0654 47.2412 11.0711C47.2344 11.076 47.2273 11.0812 47.2229 11.0903C47.1693 11.2013 47.1858 11.2646 47.2139 11.3568C47.2292 11.4076 47.2478 11.4671 47.2581 11.5482C47.2675 11.6342 47.2662 11.6595 47.2338 11.6947C47.2607 11.7366 47.2883 11.7783 47.3164 11.8198C47.3266 11.8167 47.3335 11.7897 47.3424 11.7451C47.3585 11.6654 47.4189 11.6334 47.4658 11.6074C47.4874 11.5954 47.5061 11.5848 47.5161 11.5719C47.5687 11.5028 47.543 11.4149 47.5223 11.3375C47.5108 11.2949 47.5005 11.2555 47.5033 11.2242C47.5045 11.2108 47.5001 11.198 47.4957 11.185C47.4923 11.1749 47.4888 11.1646 47.4878 11.1538C47.4808 11.0756 47.5068 11.0149 47.5295 10.9583C47.5425 10.9259 47.5545 10.8948 47.5594 10.8628C47.5609 10.853 47.5619 10.8431 47.5628 10.8335C47.564 10.8195 47.5652 10.8061 47.5681 10.7944C47.5747 10.7679 47.592 10.7485 47.6105 10.7273C47.62 10.7164 47.6298 10.705 47.6388 10.6919C47.6503 10.6748 47.651 10.6434 47.6518 10.6105C47.6523 10.5873 47.6528 10.5634 47.6569 10.5432C47.6643 10.5066 47.6867 10.4906 47.7073 10.4755C47.7163 10.4689 47.7249 10.4624 47.7318 10.4546C47.7346 10.4515 47.7353 10.4459 47.7345 10.4387C47.7672 10.4085 47.7973 10.3776 47.8258 10.3471C47.9697 10.1932 48.0703 10.059 48.2926 10.0664C48.335 10.0675 48.3744 10.0503 48.4107 10.024C48.5506 10.004 48.6915 9.97642 48.8325 9.9408C48.8897 9.99101 48.9487 10.0273 49.0084 10.0478C49.1208 10.0861 49.204 10.0594 49.3002 10.0246C49.3715 9.99867 49.45 9.96832 49.558 9.95089C49.7396 9.92143 49.9207 9.86556 50.0912 9.75623C50.2613 9.64802 50.4371 9.49592 50.5472 9.37506C50.6073 9.30986 50.7144 9.27442 50.8147 9.23624C50.9554 9.18316 51.0827 9.12338 51.0282 9.00689C51.0108 8.96975 50.971 8.92025 50.9317 8.87293C50.9037 8.83922 50.8762 8.80651 50.8572 8.77953C50.8836 8.7532 50.9097 8.72631 50.9357 8.69906C51.0298 8.67803 51.1475 8.62062 51.1184 8.49584C51.1439 8.46576 51.1689 8.43529 51.1932 8.40553C51.2455 8.34016 51.2958 8.27471 51.3448 8.20678C51.361 8.18461 51.377 8.16198 51.393 8.13905C51.3931 8.13884 51.3933 8.13863 51.3934 8.13841C51.4255 8.09236 51.4569 8.04547 51.4875 7.99828C51.5006 7.97808 51.5135 7.95771 51.5263 7.93717C51.5588 7.88518 51.5904 7.83213 51.6211 7.77881C51.6374 7.75069 51.6535 7.72159 51.6693 7.6929C51.695 7.64612 51.7202 7.59817 51.7447 7.54968C51.7845 7.4708 51.8221 7.39255 51.8582 7.31096C51.8641 7.29766 51.878 7.28608 51.8974 7.27883C51.9168 7.2716 51.9401 7.26923 51.9633 7.27262C51.9865 7.27601 52.0083 7.28503 52.0246 7.29789C52.0409 7.31073 52.0504 7.32638 52.0518 7.34139C52.06 7.43349 52.0658 7.52448 52.0685 7.6184C52.0702 7.67614 52.071 7.73422 52.0706 7.79189C52.0704 7.82729 52.0695 7.86337 52.0686 7.89881C52.0666 7.9659 52.0631 8.03397 52.058 8.10192C52.056 8.12875 52.0538 8.15558 52.0514 8.18241C52.0457 8.24527 52.0385 8.30876 52.0301 8.37227C52.03 8.37265 52.03 8.37303 52.0299 8.37342C52.0257 8.40471 52.0213 8.43595 52.0167 8.46684C52.0021 8.56201 51.9849 8.65645 51.9638 8.75279C51.9533 8.80275 51.9411 8.85416 51.9281 8.90567C51.9209 8.93432 51.9135 8.96289 51.906 8.99093C51.9019 9.00622 51.8975 9.02168 51.8931 9.0372C51.7928 9.3946 51.6514 9.74508 51.4672 10.0832C51.2838 10.4202 51.0591 10.7425 50.7987 11.0397C50.5376 11.3376 50.2404 11.6107 49.912 11.8514C48.8905 12.607 47.5446 13.0339 46.1736 12.9756C44.7599 12.9275 43.3054 12.3512 42.1983 11.3436C41.8863 11.0623 41.594 10.74 41.3407 10.3987C41.0849 10.0536 40.8657 9.68955 40.6799 9.29644C40.6234 9.17725 40.5691 9.05271 40.5178 8.92336Z" fill="black"/>
<circle cx="32.206" cy="50.665" r="3.3234" transform="rotate(8.2828 32.206 50.665)" fill="black"/>
<path d="M26.2561 52.7951C25.8494 51.8223 26.3096 50.7768 26.4353 49.8865C26.4381 49.8664 26.4407 49.8462 26.4434 49.8261C26.5722 48.7342 26.6561 47.3255 27.5879 46.4499C28.5018 45.5919 29.6888 45.0766 30.8713 44.9811C31.6093 44.9188 32.342 45.0178 32.9948 45.247C33.3881 45.3845 33.7605 45.5691 34.0974 45.7924C34.9962 46.3851 35.621 47.2491 35.9049 48.1374C36.1005 48.7412 36.1457 49.3579 36.0625 49.9184C36.0264 50.1645 35.9661 50.3996 35.8856 50.62C35.8254 50.7841 35.7541 50.941 35.6737 51.0873C35.6624 51.1077 35.6245 51.1237 35.5667 51.1307C35.5087 51.1377 35.4361 51.1352 35.3623 51.1244C35.2884 51.1136 35.2179 51.0954 35.164 51.0747C35.1103 51.0539 35.0779 51.0323 35.0717 51.0135C35.0278 50.8776 34.9744 50.7479 34.9129 50.6275C34.8446 50.4935 34.7661 50.3699 34.6806 50.2577C34.9796 50.1889 35.2034 50.1168 35.2912 50.0337C35.3361 49.9917 35.3465 49.9385 35.2829 49.9179C35.2257 49.8994 35.1316 49.9 35.0423 49.9024C34.9489 49.9049 34.8606 49.9096 34.8244 49.8946C34.7628 49.8689 34.6268 49.8708 34.4857 49.8806C34.4343 49.8841 34.3821 49.8885 34.3324 49.8926C34.2371 49.8128 34.138 49.7439 34.0372 49.6856C34.0479 49.6366 34.0524 49.5916 34.0259 49.5719C34.0021 49.5542 33.9337 49.5671 33.8537 49.5918C33.8379 49.5847 33.8221 49.5779 33.8063 49.5714C33.7042 49.529 33.6024 49.4968 33.5022 49.4746C33.5183 49.3713 33.5211 49.2612 33.468 49.1703C33.4453 49.1313 33.4396 49.0705 33.4307 49.011C33.4181 48.9236 33.3973 48.8387 33.3281 48.8478C33.2823 48.8541 33.273 48.7984 33.2596 48.7419C33.2429 48.6666 33.217 48.589 33.1247 48.6763C33.0669 48.7313 33.0074 48.8038 32.9548 48.8724C32.8711 48.9817 32.8054 49.0812 32.7801 49.0806C32.7319 49.0793 32.6649 49.16 32.6127 49.2342C32.5486 49.323 32.5051 49.4014 32.4996 49.3052C32.4987 49.2906 32.4981 49.2714 32.4972 49.2494C32.4942 49.1685 32.4845 49.0526 32.4454 49.021C32.429 49.0076 32.4081 49.0096 32.3835 49.0365C32.3542 49.0686 32.3226 49.1576 32.2965 49.2456C32.2577 49.3738 32.2321 49.4997 32.207 49.4432C32.2031 49.4348 32.199 49.3994 32.1949 49.3672C32.1897 49.3262 32.1844 49.2904 32.1822 49.3216C32.1756 49.4131 32.1664 49.5143 32.1604 49.6246C32.156 49.7056 32.1533 49.7915 32.1533 49.8816C32.1137 49.935 32.0833 49.9892 32.0603 50.0419C32.0497 50.0661 32.0407 50.09 32.033 50.1135C31.9843 49.9846 31.9341 49.8706 31.8898 49.787C31.8315 49.6778 31.7929 49.6523 31.7412 49.6222C31.7027 49.6003 31.6571 49.5756 31.5807 49.5197C31.437 49.4169 31.3758 49.5016 31.3893 49.5992C31.3917 49.62 31.3953 49.6417 31.3998 49.6649C31.4175 49.7527 31.4429 49.8609 31.4708 49.9918C31.4987 50.1147 31.4935 50.1701 31.4893 50.2141C31.4875 50.2362 31.4868 50.2542 31.4951 50.2725C31.5093 50.3037 31.5206 50.336 31.534 50.3666C31.5548 50.4146 31.5809 50.4586 31.6254 50.4894C31.6413 50.5004 31.6614 50.5125 31.6832 50.5246C31.7393 50.5561 31.8083 50.5874 31.8526 50.6135C31.856 50.6156 31.8593 50.6176 31.8625 50.6195C31.9083 50.6473 31.875 50.6511 31.802 50.6653C31.7725 50.6706 31.6558 50.677 31.5355 50.6896C31.3647 50.7062 31.1875 50.739 31.243 50.76C31.256 50.7647 31.2843 50.7679 31.314 50.7705C31.3686 50.7756 31.4275 50.7775 31.404 50.7921C31.3958 50.7972 31.3651 50.8057 31.3351 50.8146C31.302 50.8243 31.2699 50.8343 31.2689 50.8394C31.2654 50.8583 31.2769 50.874 31.2874 50.8872C31.301 50.9044 31.3127 50.9177 31.2891 50.9357C31.2472 50.968 31.2964 50.9761 31.3455 50.9789C31.3831 50.9814 31.4208 50.9814 31.4202 50.9967C31.4185 51.041 31.5231 51.0592 31.6648 51.0183C31.7182 51.0027 31.6647 51.0529 31.6037 51.1266C31.5657 51.1722 31.5244 51.2268 31.5027 51.2757C31.4905 51.3036 31.5465 51.2691 31.5962 51.2349C31.6422 51.2036 31.6832 51.1729 31.6677 51.198C31.6539 51.2203 31.5803 51.3002 31.5116 51.3775C31.4351 51.4633 31.365 51.5458 31.3872 51.5377C31.3989 51.5334 31.441 51.4983 31.4897 51.4554C31.509 51.4384 31.5293 51.4203 31.5494 51.4023C31.5346 51.4187 31.5214 51.4333 31.5114 51.4444C31.4409 51.5228 31.4115 51.571 31.3843 51.6193C31.3734 51.6386 31.3628 51.6578 31.3499 51.6789C31.3021 51.7566 31.3155 51.7865 31.335 51.7962C31.3433 51.8004 31.33 51.8313 31.3153 51.868C31.3022 51.9005 31.2881 51.9375 31.2864 51.9636C31.2854 51.9784 31.2729 52.0069 31.2626 52.0308C31.2552 52.0481 31.2489 52.063 31.2491 52.0681C31.2492 52.0725 31.268 52.0488 31.289 52.0219C31.3041 52.0025 31.3204 51.9815 31.3318 51.9683C31.3591 51.9368 31.3711 51.9297 31.3674 51.9433C31.3658 51.9495 31.3607 51.9603 31.3556 51.9709C31.3498 51.9834 31.3439 51.996 31.3435 52.0014C31.3418 52.0266 31.3707 52.004 31.3995 51.9797C31.4314 51.9532 31.463 51.9244 31.4604 51.9581C31.4596 51.9688 31.453 51.9903 31.4468 52.0114C31.4403 52.0334 31.4343 52.0548 31.4354 52.062C31.4401 52.0912 31.4909 52.0328 31.535 51.9775C31.5644 51.9407 31.5912 51.9056 31.6025 51.9001C31.6235 51.8901 31.6686 51.8112 31.701 51.7526C31.7179 51.7223 31.7315 51.6972 31.7369 51.6902C31.7375 51.6933 31.738 51.6968 31.7384 51.7006C31.7372 51.7073 31.7361 51.7143 31.7385 51.713C31.7387 51.7129 31.739 51.7126 31.7391 51.7125C31.7399 51.7368 31.7375 51.7697 31.7359 51.8026C31.732 51.8763 31.7351 51.9512 31.7747 51.9236C31.7832 51.9176 31.8009 51.8841 31.8182 51.8498C31.8395 51.8078 31.8602 51.7645 31.8658 51.7698C31.8793 51.7824 31.8788 51.8463 31.882 51.9098C31.8858 52.0051 31.9001 52.0997 31.9459 52.0087C31.9608 51.9787 31.9788 51.9273 31.9958 51.8752C32.0054 51.8461 32.0146 51.8167 32.023 51.7911C32.0143 51.8398 32.0063 51.8856 31.9988 51.9283C31.9834 52.0163 31.9702 52.0916 31.9543 52.1547C31.917 52.3041 31.8619 52.5087 31.8356 52.6605C31.8285 52.7017 31.8196 52.7474 31.8106 52.7934C31.788 52.9089 31.7641 53.0267 31.7728 53.0834C31.7782 53.1216 31.7981 53.2102 31.8326 53.1244C31.84 53.1057 31.8484 53.0677 31.8577 53.0254C31.8621 53.0052 31.8667 52.9839 31.8714 52.9633C31.8846 52.9065 31.8987 52.8544 31.9134 52.8406C31.9168 52.8374 31.9204 52.8346 31.9241 52.832C31.9386 52.8218 31.9547 52.8103 31.9671 52.7489C31.9813 52.6782 31.989 52.5963 31.9986 52.5009C32.0108 52.3765 32.0272 52.229 32.0557 52.0522C32.0612 52.0173 32.0657 52.0056 32.069 51.9967C32.0714 51.9904 32.0732 51.9854 32.0744 51.9748C32.0758 51.9627 32.0778 51.9373 32.0805 51.9052C32.0896 51.7921 32.1083 51.5947 32.1209 51.5875C32.1244 51.5855 32.1274 51.5953 32.1301 51.6041C32.1341 51.617 32.1377 51.6277 32.1406 51.5954C32.1417 51.5831 32.1429 51.5698 32.144 51.556C32.1475 51.5602 32.1511 51.5643 32.1547 51.5685C32.1573 51.6074 32.1648 51.6045 32.1739 51.6005C32.1761 51.5996 32.1784 51.5987 32.1807 51.5982C32.1883 51.6065 32.1959 51.6146 32.2038 51.6228C32.2099 51.6392 32.2166 51.6659 32.2249 51.7082C32.2413 51.793 32.261 51.9326 32.286 52.0685C32.2964 52.1258 32.3078 52.1826 32.3198 52.2342C32.317 52.2408 32.3146 52.2486 32.313 52.2592C32.3021 52.3316 32.3025 52.4726 32.3016 52.6025C32.3011 52.6889 32.3 52.7704 32.2939 52.8231C32.2827 52.9198 32.2872 53.0321 32.2913 53.1151C32.2934 53.1582 32.2951 53.1935 32.2935 53.2145C32.2921 53.2314 32.288 53.2394 32.2837 53.2478C32.2799 53.255 32.276 53.2626 32.2736 53.2762C32.2448 53.4414 32.254 53.5368 32.2736 53.6755C32.2842 53.752 32.2974 53.8416 32.3063 53.9635C32.3146 54.0926 32.3146 54.1305 32.2931 54.1826C32.3124 54.246 32.3326 54.3092 32.3537 54.3723C32.3609 54.3679 32.3649 54.3278 32.3695 54.2612C32.3779 54.1423 32.4176 54.0969 32.4478 54.0608C32.4618 54.0441 32.4738 54.0294 32.4796 54.0107C32.5103 53.9112 32.4859 53.7782 32.4671 53.6611C32.4566 53.5966 32.4474 53.5368 32.4468 53.4904C32.4466 53.4705 32.4429 53.4511 32.4393 53.4312C32.4364 53.4159 32.4336 53.4003 32.4322 53.3841C32.4223 53.2667 32.4329 53.178 32.4404 53.0957C32.4448 53.0485 32.4484 53.0033 32.4479 52.9561C32.4477 52.9417 32.4472 52.927 32.4467 52.9128C32.446 52.892 32.4452 52.8723 32.4455 52.8552C32.4462 52.8164 32.4531 52.7895 32.4601 52.7601C32.4638 52.745 32.4674 52.7293 32.4703 52.7109C32.474 52.6871 32.4703 52.6406 32.4662 52.592C32.4633 52.5577 32.4603 52.5223 32.4594 52.493C32.4577 52.4399 32.4658 52.4195 32.473 52.4005C32.4762 52.3922 32.4791 52.384 32.481 52.3737C32.4818 52.3695 32.4812 52.3615 32.4796 52.3506C32.4895 52.3116 32.4975 52.2719 32.5043 52.2331C32.5399 52.0373 32.5354 51.8733 32.6434 51.9599C32.6644 51.976 32.6783 51.9664 32.6869 51.9443C32.7509 51.9695 32.8194 51.9915 32.8921 52.0093C32.9505 52.0987 33.0055 52.1706 33.0559 52.2229C33.1507 52.3207 33.201 52.3241 33.2591 52.3265C33.3025 52.3279 33.3504 52.3289 33.4334 52.3601C33.5729 52.4123 33.7131 52.4346 33.8298 52.4004C33.946 52.3668 34.063 52.2988 34.1316 52.2367C34.1688 52.2035 34.2759 52.2202 34.3784 52.2292C34.522 52.243 34.6569 52.24 34.5418 52.1189C34.505 52.0803 34.4351 52.0227 34.3664 51.9679C34.3175 51.9289 34.2694 51.8912 34.2342 51.862C34.2562 51.8523 34.2781 51.8421 34.3001 51.8316C34.411 51.8542 34.5427 51.8524 34.459 51.7491C34.4816 51.7363 34.5041 51.723 34.5264 51.7099C34.5738 51.6809 34.6207 51.6509 34.6675 51.6185C34.6829 51.608 34.6983 51.5971 34.7137 51.5859C34.7139 51.5858 34.714 51.5857 34.7142 51.5856C34.7452 51.5632 34.7761 51.5399 34.8067 51.5159C34.8198 51.5057 34.8328 51.4952 34.8458 51.4846C34.8787 51.4577 34.9113 51.4297 34.9437 51.4011C34.9608 51.386 34.9779 51.3701 34.9949 51.3543C35.0225 51.3287 35.05 51.3019 35.0773 51.2744C35.1213 51.2296 35.1645 51.1843 35.2071 51.1358C35.2141 51.1279 35.2331 51.1221 35.261 51.1198C35.2888 51.1175 35.3231 51.1187 35.3579 51.1238C35.3927 51.1289 35.426 51.1375 35.4519 51.1483C35.4776 51.159 35.4935 51.1709 35.4975 51.1813C35.5214 51.2455 35.5434 51.3099 35.5629 51.3772C35.575 51.4185 35.5865 51.4605 35.5969 51.5025C35.6033 51.5283 35.6092 51.5547 35.6149 51.5808C35.6257 51.6301 35.6353 51.6806 35.6435 51.7314C35.6467 51.7514 35.6498 51.7715 35.6527 51.7917C35.6595 51.8391 35.665 51.8872 35.6694 51.9357C35.6695 51.936 35.6695 51.9363 35.6695 51.9365C35.6717 51.9604 35.6736 51.9844 35.6754 52.0082C35.6804 52.0813 35.6831 52.1548 35.6824 52.2303C35.6827 52.2696 35.6815 52.31 35.6797 52.3508C35.6787 52.3735 35.6776 52.3963 35.6763 52.4186C35.6755 52.4308 35.6746 52.4431 35.6735 52.4555C35.6525 52.7412 35.5942 53.0314 35.4952 53.3189C35.397 53.6056 35.2594 53.8878 35.0856 54.1549C34.9113 54.4224 34.7005 54.6749 34.4564 54.9039C33.6996 55.6226 32.5918 56.1047 31.408 56.1469C30.1894 56.2031 28.8624 55.7739 27.8358 54.9179C27.5463 54.6793 27.2734 54.401 27.0355 54.1027C26.7952 53.801 26.5875 53.4793 26.4107 53.1287C26.357 53.0224 26.3052 52.9111 26.2561 52.7951Z" fill="black"/>
<path d="M28.2877 30.1943C29.6988 30.5171 30.9213 31.2205 32.5426 31.8947C32.7551 31.9994 33.0045 32.0937 33.2681 32.1653C34.5197 32.5013 36.0388 32.5203 37.3609 32.5668C37.8529 32.5604 38.5987 32.5625 39.2912 32.6335C41.4072 32.8423 43.6433 33.0399 45.8549 33.2832C46.3223 33.3338 46.7815 33.3857 47.2505 33.4392C48.5416 33.6675 50.0742 33.4518 51.9195 33.2599C52.0381 33.2474 52.1507 33.2365 52.2701 33.2244C53.5914 33.1135 54.9854 32.8729 56.4622 32.6669C56.9073 32.6402 57.5094 32.461 58.0811 32.2435C58.7358 31.9931 59.3996 31.6787 60.0239 31.3273L59.9371 31.4041C60.5182 30.9771 61.082 30.5251 61.6192 30.0406C62.0984 29.6078 62.5553 29.1511 62.9805 28.6591C63.1526 28.4601 63.3194 28.2551 63.479 28.0445C63.6098 27.8621 63.7426 27.6823 63.8679 27.4963C63.9063 27.4397 63.971 27.3988 64.0509 27.3822C64.1308 27.3659 64.2189 27.3755 64.2983 27.4114C64.3776 27.4475 64.443 27.5078 64.4816 27.5808C64.52 27.6538 64.528 27.7334 64.5057 27.8026C64.4324 28.0302 64.3497 28.2537 64.2779 28.4631C64.2762 28.4656 64.2726 28.4738 64.2709 28.4763C64.1673 28.7464 64.0539 29.0135 63.9326 29.2768C63.6865 29.8112 63.4085 30.3303 63.1069 30.8353C62.7696 30.6853 62.4826 30.6112 62.2459 30.7089C62.1248 30.7593 61.9977 30.8699 61.9664 31.0072C61.9387 31.1302 61.9626 31.2639 61.9848 31.3914C62.0077 31.5252 62.0287 31.6523 61.9847 31.7533C61.9102 31.9245 61.9067 32.1505 61.8985 32.3901C61.8957 32.477 61.8919 32.5663 61.8845 32.6543C61.7831 32.7903 61.6809 32.9247 61.5767 33.0587C61.5537 33.0774 61.4912 33.1405 61.4662 33.1564C61.1789 33.4471 60.884 33.7227 60.5789 33.9894C60.3732 34.0825 60.1856 34.167 60.0465 34.2716C59.9217 34.3654 59.8391 34.504 59.7625 34.6583C59.6899 34.7139 59.6167 34.769 59.5425 34.8237C59.0616 35.1758 58.5563 35.5117 57.9439 35.812C57.7571 35.8448 57.5621 35.8749 57.3456 35.9023C57.0642 35.9204 56.7592 35.956 56.4039 36.0299C56.1679 36.079 55.9236 36.0954 55.6872 36.1112C55.338 36.1346 55.0067 36.1561 54.7434 36.2809C54.5673 36.3644 54.3579 36.368 54.1489 36.3699C53.8683 36.3726 53.589 36.3721 53.3784 36.5625C53.2693 36.6611 53.1703 36.7694 53.0764 36.8738C53.0574 36.8961 53.0388 36.9182 53.0206 36.94C52.8597 37.1346 52.7202 37.3051 52.5661 37.3495C52.2795 37.4322 52.0514 37.6003 51.8483 37.7488C51.6039 37.9274 51.394 38.078 51.1642 38.0176C51.129 38.0086 51.0881 37.9952 51.0424 37.9798C50.7988 37.8982 50.4178 37.7695 49.9141 37.9773C49.7336 38.0511 49.5707 38.1855 49.4035 38.3154C49.1611 38.5042 48.906 38.6835 48.6094 38.6431C48.5652 38.637 48.5162 38.5996 48.4726 38.5652C48.4169 38.5214 48.3688 38.4828 48.3443 38.5209C48.2728 38.6326 48.1529 38.7578 48.0192 38.8917C47.9206 38.9901 47.8144 39.0933 47.7156 39.2001C47.5266 39.2182 47.3421 39.2326 47.1563 39.2437C46.6835 39.2799 46.2197 39.3147 45.7474 39.3473C45.4624 39.3671 45.18 39.3863 44.8928 39.4046C44.7515 39.2416 44.6039 39.0943 44.4486 38.982C44.2482 38.8353 43.9811 38.7866 43.6374 38.7231C43.3866 38.6764 43.094 38.6217 42.7498 38.5142C42.1188 38.3154 41.4632 38.3405 41.0388 38.4277C40.9481 38.4461 40.858 38.4659 40.7629 38.4875C40.3944 38.5683 39.9385 38.6724 39.0516 38.7606C38.2117 38.8427 37.4744 38.8262 36.8515 38.7788C36.7206 38.7687 36.5955 38.7572 36.4775 38.7451C36.3245 38.7305 36.197 38.719 36.0854 38.713C35.7745 38.6969 35.3977 38.6624 35.0253 38.624C34.4393 38.5638 33.8516 38.4902 33.5082 38.4778C33.3858 38.4735 33.2566 38.4725 33.1162 38.4701C32.7263 38.4626 32.2556 38.4528 31.5913 38.3305C31.1591 38.2499 30.8197 38.1458 30.5121 38.0162C30.4101 37.9653 30.3047 37.9057 30.1936 37.8387C30.0747 37.7672 29.9921 37.6018 29.902 37.4303C29.7745 37.1871 29.6324 36.9322 29.3441 36.92C29.2759 36.917 29.201 36.9308 29.12 36.9447C28.9735 36.9709 28.812 36.999 28.6725 36.9322C28.6231 36.9087 28.5875 36.8613 28.5517 36.8146C28.5124 36.7633 28.4737 36.7131 28.4196 36.6969C28.2168 36.6363 28.013 36.5934 27.8317 36.5553C27.5977 36.506 27.4 36.464 27.2865 36.4011C27.0846 36.289 26.8338 36.2767 26.5781 36.2631C26.3828 36.2528 26.1845 36.2417 26.0042 36.1848C25.9118 36.1556 25.8123 36.1282 25.7059 36.1024C25.1755 35.9719 24.5896 35.8859 23.9972 35.8551C23.7252 35.841 23.5367 35.6997 23.294 35.5212C23.1435 35.4104 22.9722 35.285 22.7495 35.1708C22.6228 35.106 22.4916 35.1517 22.3716 35.1947C22.2604 35.2342 22.1591 35.2716 22.0761 35.2185C22.0029 35.1715 21.9793 35.0365 21.9569 34.9084C21.9319 34.7657 21.9063 34.6312 21.8161 34.6373C21.768 34.6406 21.6991 34.691 21.6192 34.7516C21.5875 34.7756 21.5537 34.801 21.5185 34.8258C21.525 34.8009 21.5299 34.7784 21.5333 34.7613C21.5574 34.6407 21.4835 34.5599 21.4095 34.4812C21.3799 34.4497 21.3506 34.4187 21.3278 34.3854C21.2439 34.2626 21.0497 34.2105 20.8994 34.1907C20.8806 34.1882 20.8628 34.1824 20.8456 34.174C20.7985 34.153 20.755 34.1173 20.7072 34.0776C20.6472 34.0278 20.5801 33.9716 20.4878 33.93C20.4355 33.9064 20.3999 33.8644 20.3706 33.8294C20.3497 33.8041 20.3305 33.7822 20.3115 33.7741C20.2949 33.7672 20.2752 33.7996 20.2531 33.8362C20.2372 33.8625 20.2199 33.891 20.2017 33.9085C20.1581 33.9502 20.1103 33.9569 20.0812 33.9363C20.0676 33.9268 20.0578 33.9112 20.0483 33.8958C20.0372 33.8778 20.0263 33.8597 20.0085 33.8511C19.9268 33.8113 19.8395 33.8374 19.7451 33.8638C19.643 33.8931 19.5366 33.9234 19.4331 33.8697C19.4004 33.8528 19.3696 33.8214 19.3373 33.7906C19.3041 33.7585 19.2722 33.7275 19.2428 33.7157C19.1249 33.668 18.9915 33.7344 18.8714 33.796C18.7903 33.8367 18.7166 33.8755 18.6518 33.8763C18.5334 33.8776 18.4571 33.9718 18.3982 34.0409C18.3681 34.0767 18.3437 34.1062 18.3222 34.1128C18.3046 34.1068 18.2869 34.1003 18.2697 34.0936C18.2546 34.0831 18.2392 34.0724 18.2224 34.0722C18.2212 34.0722 18.2199 34.0724 18.2187 34.0724C18.1215 34.0301 18.0299 33.978 17.9384 33.9262C17.7332 33.8099 17.5319 33.6959 17.3025 33.7066C17.2531 33.7089 17.1984 33.7447 17.1423 33.7811C17.074 33.8258 17.0052 33.8718 16.9437 33.859C16.7977 33.8284 16.6606 33.7373 16.5256 33.6489C16.3231 33.5161 16.1231 33.3896 15.9223 33.4859C15.8562 33.5177 15.79 33.575 15.7246 33.6333C15.6882 33.6657 15.6518 33.6986 15.6157 33.7271C15.6271 33.6701 15.635 33.6163 15.6423 33.5662C15.6575 33.4628 15.6705 33.3743 15.7098 33.3014C15.8022 33.1289 15.9159 32.8916 15.9215 32.7117C15.923 32.6628 15.93 32.6089 15.9373 32.5546C15.9555 32.4185 15.9747 32.2794 15.9014 32.2095C15.8523 32.1624 15.7222 32.0539 15.6284 32.153C15.608 32.1745 15.5935 32.219 15.5776 32.2684C15.5488 32.3573 15.5153 32.4624 15.4335 32.4827C15.4197 32.4861 15.4047 32.4891 15.3893 32.4918C15.3281 32.5026 15.2593 32.5149 15.2307 32.5865C15.198 32.6689 15.2003 32.7651 15.2025 32.8773C15.2055 33.0233 15.2079 33.1966 15.1399 33.4026C15.1264 33.4434 15.1035 33.4566 15.0861 33.4667C15.0739 33.4738 15.0645 33.4795 15.0631 33.4919C15.0616 33.5061 15.0644 33.5359 15.0678 33.5736C15.0782 33.6856 15.0939 33.8681 15.0263 33.9261C15.0133 33.9369 14.9974 33.9434 14.9776 33.9443C14.9437 33.9459 14.9047 33.9337 14.8692 33.9228C14.8178 33.9067 14.7747 33.8936 14.7679 33.9313C14.7654 33.9456 14.7635 33.9612 14.7618 33.9773C14.7202 33.9718 14.6778 33.9664 14.6364 33.9611C14.5837 33.915 14.5065 33.9177 14.4115 33.9217C14.3882 33.9227 14.3636 33.9236 14.3379 33.9241C14.2543 33.9141 14.1687 33.9046 14.0841 33.8951C14.0171 33.876 13.9439 33.845 13.8679 33.796C13.7138 33.6978 13.5774 33.536 13.4426 33.3782C13.3858 33.3118 13.3285 33.2459 13.2712 33.186C13.293 33.1781 13.3125 33.1688 13.3276 33.1563C13.431 33.0708 13.4702 32.9059 13.5066 32.754C13.5308 32.653 13.5544 32.5578 13.5942 32.4961C13.6672 32.383 13.6584 32.252 13.6518 32.155C13.6484 32.1048 13.6457 32.0636 13.6554 32.039C13.6632 32.0193 13.6817 32.0099 13.7008 32.0001C13.7173 31.9916 13.7346 31.9827 13.7456 31.9668C13.8789 31.7737 13.8382 31.6626 13.7772 31.5008C13.7436 31.4116 13.7039 31.307 13.6849 31.1647C13.6684 31.0141 13.6724 30.9699 13.7445 30.9091C13.6871 30.8351 13.6306 30.7612 13.5729 30.6875C13.5507 30.6926 13.5344 30.7394 13.5118 30.8171C13.4716 30.9558 13.3359 31.0085 13.2301 31.0501C13.1813 31.0694 13.1386 31.0863 13.1148 31.1081C12.9883 31.2237 13.0303 31.3798 13.066 31.517C13.0858 31.5926 13.1041 31.6625 13.0924 31.7169C13.0874 31.7402 13.0958 31.7629 13.1043 31.7862C13.1108 31.8041 13.1175 31.8224 13.1182 31.8413C13.1229 31.9787 13.0504 32.0825 12.9838 32.179C12.9455 32.2343 12.9091 32.2874 12.8898 32.3428C12.8839 32.3597 12.8793 32.3769 12.875 32.3936C12.8688 32.4179 12.8627 32.4411 12.8528 32.4612C12.8301 32.5068 12.7818 32.5385 12.7287 32.5732C12.7016 32.591 12.6731 32.6096 12.6465 32.6313C12.612 32.6594 12.6011 32.7142 12.5896 32.7715C12.5815 32.8119 12.5729 32.8536 12.5559 32.8883C12.525 32.951 12.4591 32.9755 12.3981 32.9985C12.3716 33.0085 12.3459 33.0184 12.3244 33.0308C12.3156 33.0358 12.3117 33.0453 12.3113 33.0582C12.2116 33.1051 12.1167 33.1531 12.0246 33.2003C11.5623 33.4375 11.1696 33.6459 10.5573 33.5535C10.4411 33.5362 10.3191 33.5505 10.1981 33.5808C9.79961 33.5586 9.40307 33.5394 9.01579 33.5259C8.9341 33.4203 8.83726 33.3336 8.73183 33.2677C8.72381 33.262 8.71562 33.2564 8.70724 33.251C8.50239 33.1227 8.28727 33.1226 8.03264 33.1274C7.84382 33.1311 7.63073 33.138 7.37068 33.1018C6.93395 33.0412 6.48267 33.014 5.99304 33.0671C5.50543 33.1196 4.95646 33.2205 4.5874 33.319C4.50704 33.3403 4.42166 33.3472 4.33477 33.346C4.18367 33.35 4.03437 33.3293 3.89315 33.3103C3.56702 33.2644 3.27473 33.2338 3.20038 33.4673C3.17705 33.5416 3.17336 33.6563 3.17237 33.7671C3.17138 33.8461 3.1719 33.9229 3.16635 33.9829C3.08853 33.9994 3.01201 34.017 2.93616 34.0359C2.76151 33.981 2.49773 33.9699 2.40915 34.1969C2.3366 34.2239 2.26527 34.2531 2.19725 34.2826C2.04981 34.3482 1.91055 34.4209 1.77715 34.5053C1.73348 34.5328 1.69021 34.5618 1.64754 34.5923C1.64712 34.5926 1.6467 34.5929 1.64627 34.5931C1.64191 34.5963 1.63756 34.5994 1.63321 34.6026C1.54543 34.6691 1.45881 34.7401 1.37504 34.8132C1.33734 34.8462 1.30009 34.8798 1.26294 34.9146C1.16903 35.0023 1.07733 35.0953 0.989736 35.1904C0.943009 35.2413 0.897674 35.2926 0.852343 35.3464C0.779322 35.4327 0.70838 35.5228 0.640815 35.615C0.532254 35.7631 0.429296 35.9211 0.348007 36.0723C0.334767 36.097 0.309325 36.1149 0.274928 36.1258C0.240628 36.1359 0.200191 36.1381 0.159583 36.1321C0.118966 36.1264 0.0808239 36.1102 0.0539143 36.0826C0.0272702 36.0544 0.0140391 36.0202 0.0159972 35.9866C0.0287101 35.7841 0.0647426 35.5815 0.111521 35.3799C0.140806 35.255 0.174873 35.1303 0.213398 35.0073C0.237509 34.9309 0.262559 34.8566 0.289661 34.7815C0.340256 34.6411 0.398295 34.4992 0.462069 34.3601C0.487314 34.305 0.513177 34.2507 0.539999 34.1966C0.599462 34.0767 0.665029 33.9565 0.735042 33.8388C0.739426 33.8315 0.743829 33.8243 0.748252 33.8171C0.748733 33.8163 0.749214 33.8155 0.749695 33.8147C0.788563 33.7514 0.82922 33.6892 0.871169 33.6287C1.00097 33.4422 1.14645 33.2671 1.3073 33.1013C1.39 33.0149 1.4801 32.9291 1.57212 32.8471C1.62322 32.8015 1.6753 32.7568 1.72669 32.714C1.75499 32.6906 1.78398 32.6673 1.81315 32.6443C2.41912 32.1575 3.12805 31.8066 3.72064 31.4981C3.78384 31.4658 3.84985 31.4332 3.91331 31.402C4.64043 31.0471 5.36484 30.7477 6.10094 30.4698C6.80777 30.2072 7.49821 29.964 8.29331 29.7616C8.33066 29.7519 8.36843 29.7423 8.40661 29.7327C10.6688 29.1855 12.8191 28.8031 15.2092 28.622C17.6368 28.4897 19.7055 28.7868 21.7002 28.9233C22.316 28.9799 22.9243 29.0599 23.5225 29.1578C24.271 29.2797 25.023 29.4368 25.7259 29.5993C26.3273 29.7377 26.9134 29.8871 27.3962 29.9941C27.4905 30.0155 27.5852 30.0368 27.6806 30.0583C27.8768 30.1022 28.0788 30.1475 28.2877 30.1943Z" fill="black"/>
<path d="M20.1037 12.6599C19.3483 12.5151 18.6397 12.0491 17.7994 11.7973C17.499 11.7109 17.1968 11.6482 16.8935 11.633C15.5773 11.5274 13.9925 12.2779 14.0356 12.3383C13.9439 12.3856 13.8507 12.4308 13.7553 12.4736C12.5191 13.0283 11.2036 13.7815 10.0397 14.5828C9.87737 14.6946 9.71687 14.8096 9.57593 14.912C8.57925 15.6859 7.52995 16.6291 6.64074 17.5192C6.59873 17.5607 6.55618 17.604 6.51902 17.6402C6.61098 17.4555 6.53452 17.5486 6.5065 17.5815C6.46777 17.6304 6.42379 17.6951 6.37859 17.765C6.28793 17.9057 6.19358 18.0637 6.09956 18.2235C5.91109 18.5448 5.72054 18.8824 5.53063 19.219C5.1498 19.8958 4.76756 20.5805 4.38125 21.2667L4.40408 21.1938C4.38001 21.2411 4.35653 21.2872 4.333 21.3344C3.86879 22.2386 3.53058 23.2409 3.18626 24.3149C3.17323 24.3564 3.16048 24.3955 3.14781 24.434C2.98841 24.9195 2.82736 25.401 2.66604 25.8837C2.54551 26.2438 2.42505 26.6037 2.30499 26.9639C2.28817 27.0138 2.24069 27.0578 2.17082 27.0855C2.10084 27.1133 2.01462 27.123 1.92828 27.1117C1.8419 27.1003 1.76087 27.0687 1.70061 27.0238C1.64051 26.979 1.60651 26.9241 1.6035 26.8716C1.58279 26.4893 1.56251 26.1071 1.54225 25.7252C1.51984 25.301 1.49726 24.8779 1.47431 24.4554C1.83707 24.4367 2.11748 24.3823 2.25772 24.23C2.26583 24.2212 2.27354 24.2118 2.28076 24.2021C2.33698 24.1248 2.36342 24.0195 2.31516 23.9308C2.26628 23.8406 2.16858 23.765 2.07547 23.6932C1.97816 23.6176 1.88573 23.5465 1.86039 23.4652C1.81724 23.328 1.68307 23.1853 1.54328 23.032C1.49241 22.9761 1.44065 22.9193 1.3924 22.8606C1.37864 22.4404 1.37637 22.0047 1.39582 21.5608C1.46753 21.4027 1.5318 21.2584 1.54803 21.127C1.56254 21.0094 1.51554 20.8863 1.45189 20.7579C1.45836 20.6894 1.4654 20.6205 1.47258 20.5525C1.47927 20.4909 1.48589 20.4308 1.49321 20.3693C1.50045 20.3526 1.51228 20.2987 1.52043 20.2824C1.57515 19.938 1.63089 19.5932 1.68756 19.2484C1.87952 18.985 2.07448 18.7048 2.25379 18.3159C2.33158 18.1469 2.44076 17.9923 2.54593 17.8441C2.70185 17.6235 2.84953 17.4161 2.87613 17.1947C2.89408 17.0462 2.99455 16.9209 3.09746 16.7926C3.23635 16.6189 3.37316 16.454 3.3346 16.1985C3.31936 16.0346 3.25471 15.9065 3.33314 15.598C3.33224 15.5918 3.33134 15.5857 3.33047 15.5795C3.29881 15.3422 3.2729 15.1397 3.34251 15.0229C3.47365 14.8036 3.50666 14.5663 3.53923 14.3545C3.57804 14.1005 3.6136 13.8879 3.8007 13.8229C3.82917 13.8129 3.86418 13.8034 3.90339 13.7934C4.11186 13.7386 4.44066 13.6578 4.59603 13.2866C4.65186 13.1538 4.65255 12.9863 4.65467 12.8213C4.65769 12.5813 4.66514 12.3454 4.84322 12.2412C4.86993 12.2255 4.92102 12.2297 4.96757 12.2338C5.02677 12.2389 5.07844 12.2435 5.06325 12.2057C5.01887 12.0949 4.9869 11.9533 4.95408 11.7978C4.9297 11.6838 4.90472 11.5624 4.87302 11.4415C5.02139 11.2357 5.17419 11.0308 5.33253 10.8267C5.5254 10.5844 5.7165 10.3594 5.90547 10.1452C6.0744 9.954 6.24425 9.76934 6.41629 9.58877C6.61706 9.62695 6.80788 9.65403 6.98126 9.6512C7.20658 9.64865 7.40701 9.53952 7.66763 9.40506C7.85977 9.30592 8.08365 9.1939 8.37161 9.10388C8.90327 8.93744 9.31871 8.60131 9.55607 8.32675C9.6063 8.26852 9.65578 8.20948 9.70948 8.14584C9.91437 7.90562 10.1678 7.60191 10.7484 7.12984C10.8808 7.0229 11.0126 6.92452 11.1424 6.83392C11.8266 6.40983 12.3748 6.2442 12.7884 6.12289C13.0676 6.044 13.288 5.99419 13.4555 5.94687C13.74 5.86625 14.0806 5.7939 14.4124 5.73607C14.9325 5.6445 15.431 5.58696 15.7102 5.52388C15.8086 5.50136 15.9149 5.47441 16.0256 5.44653C16.336 5.36946 16.7093 5.28167 17.2136 5.25184C17.7195 5.22247 18.0312 5.28114 18.3399 5.38498C18.353 5.38921 18.366 5.39351 18.379 5.3979C18.5161 5.44427 18.6281 5.59172 18.7398 5.74461C18.8994 5.96184 19.0589 6.18918 19.3173 6.16025C19.3775 6.15349 19.445 6.12987 19.5152 6.10533C19.6447 6.06033 19.7867 6.0129 19.9169 6.06381C19.9625 6.0816 19.9978 6.12486 20.0322 6.16733C20.0704 6.21411 20.1072 6.25988 20.1561 6.27058C20.3388 6.3105 20.5196 6.33541 20.6808 6.35959C20.8885 6.39069 21.0632 6.42074 21.1628 6.47684C21.3401 6.57678 21.5589 6.57749 21.7832 6.58297C21.9542 6.58704 22.1281 6.59369 22.2829 6.64751C22.2869 6.64891 22.2909 6.65031 22.295 6.65171C22.7171 6.79757 23.3219 6.88753 24.005 6.97897C24.2669 7.0148 24.4421 7.17792 24.6683 7.39828C24.8095 7.53625 24.9695 7.69517 25.2013 7.88135C25.2024 7.88223 25.2035 7.88311 25.2046 7.88399C25.3686 8.00526 25.532 8.01641 25.6847 8.02956C25.8236 8.04023 25.9494 8.05138 26.0228 8.14109C26.0851 8.21868 26.063 8.35777 26.0377 8.48697C26.0089 8.63042 25.9833 8.76668 26.0688 8.79824C26.1148 8.81547 26.2005 8.79963 26.2993 8.77938C26.3388 8.77162 26.3809 8.76379 26.4244 8.75752C26.4077 8.77709 26.3935 8.79521 26.383 8.80909C26.3099 8.90794 26.3402 9.01192 26.37 9.11518C26.3824 9.15683 26.3923 9.19622 26.3966 9.2358C26.4129 9.38166 26.5484 9.51173 26.6606 9.59766C26.7095 9.63511 26.7251 9.6975 26.7453 9.77224C26.7635 9.83892 26.7813 9.91203 26.8251 9.98317C26.8502 10.0238 26.8533 10.0734 26.8551 10.1141C26.8566 10.1437 26.8578 10.169 26.8669 10.1832C26.8747 10.1955 26.9063 10.1762 26.9419 10.1544C26.9676 10.1388 26.9954 10.1219 27.018 10.1147C27.0723 10.0979 27.1095 10.1109 27.1192 10.1399C27.1236 10.1532 27.1218 10.1698 27.12 10.1864C27.1178 10.2057 27.1156 10.225 27.1234 10.2392C27.1597 10.3051 27.2356 10.3184 27.3161 10.334C27.4051 10.3518 27.4953 10.3684 27.5384 10.4552C27.552 10.4826 27.5569 10.5217 27.5612 10.5592C27.5658 10.5987 27.5704 10.6369 27.5843 10.6586C27.6414 10.7476 27.7686 10.7451 27.8884 10.7458C27.9681 10.7463 28.0414 10.7454 28.0867 10.7718C28.1695 10.8202 28.2779 10.7774 28.3581 10.7458C28.3996 10.7295 28.4337 10.716 28.4525 10.72C28.4614 10.7325 28.4701 10.7455 28.4784 10.7586C28.483 10.7736 28.4878 10.7892 28.4993 10.7966C28.5001 10.7971 28.5012 10.7975 28.502 10.798C28.5448 10.8739 28.5781 10.9559 28.612 11.0387C28.686 11.2224 28.7576 11.4042 28.9239 11.5039C28.9594 11.5251 29.0193 11.5229 29.0803 11.5209C29.1551 11.5185 29.2324 11.5169 29.267 11.5569C29.3507 11.6534 29.3914 11.7959 29.43 11.9353C29.4887 12.1456 29.5436 12.3499 29.7436 12.3915C29.8099 12.4054 29.8934 12.4013 29.9766 12.3962C30.0232 12.3935 30.0701 12.3909 30.1141 12.3916C30.068 12.427 30.0266 12.4622 29.988 12.495C29.9084 12.5626 29.8403 12.6204 29.7653 12.6519C29.5882 12.7263 29.3565 12.8416 29.2338 12.9732C29.2005 13.0089 29.1602 13.0454 29.1195 13.082C29.0174 13.1739 28.9136 13.2681 28.9127 13.3581C28.9118 13.4185 28.918 13.5659 29.0428 13.5441C29.0697 13.5394 29.1084 13.5151 29.1515 13.4881C29.1519 13.4878 29.1523 13.4875 29.1527 13.4873C29.2309 13.438 29.3238 13.3799 29.3878 13.4104C29.3984 13.4155 29.4099 13.4219 29.4212 13.4286C29.4665 13.4555 29.5165 13.4853 29.5841 13.4507C29.6616 13.4105 29.7274 13.3404 29.8041 13.2586C29.9039 13.1522 30.0224 13.0255 30.2102 12.9201C30.2474 12.8992 30.2714 12.904 30.29 12.9079C30.303 12.9106 30.3131 12.9124 30.3227 12.9045C30.3336 12.8953 30.3527 12.8724 30.3768 12.8433C30.4619 12.7406 30.6106 12.5612 30.6963 12.637C30.7194 12.6575 30.7362 12.6912 30.7508 12.7212C30.7722 12.7651 30.7909 12.8027 30.8219 12.7804C30.8337 12.772 30.846 12.7624 30.8586 12.7522C30.8811 12.7828 30.904 12.8138 30.9268 12.8448C30.9271 12.9112 30.9771 12.9592 31.0401 13.02C31.0553 13.0348 31.0713 13.0505 31.0875 13.0672C31.133 13.1305 31.1785 13.1943 31.2239 13.259C31.2515 13.3182 31.2727 13.3887 31.2825 13.4744C31.3022 13.6464 31.26 13.8477 31.2159 14.0428C31.1973 14.1251 31.1784 14.2066 31.1639 14.2846C31.1455 14.2742 31.1273 14.2662 31.1092 14.2636C30.985 14.2456 30.8358 14.3242 30.699 14.397C30.6081 14.4455 30.5225 14.4914 30.4537 14.5054C30.3279 14.5314 30.2332 14.6225 30.1629 14.6894C30.1264 14.7242 30.0964 14.7525 30.0726 14.7624C30.0535 14.7703 30.0367 14.765 30.0192 14.7595C30.004 14.7548 29.9883 14.75 29.9705 14.7537C29.7548 14.799 29.6934 14.8981 29.6019 15.0397C29.5516 15.118 29.4918 15.2092 29.3933 15.3129C29.2871 15.4207 29.2511 15.4465 29.1708 15.4459C29.1421 15.5262 29.1132 15.6065 29.0835 15.6861C29.0977 15.6951 29.141 15.674 29.2109 15.6367C29.3359 15.5701 29.4404 15.6148 29.5217 15.6508C29.5593 15.6674 29.5921 15.6821 29.62 15.6827C29.7685 15.686 29.8728 15.5658 29.9634 15.4584C30.0134 15.3995 30.0595 15.3447 30.1078 15.3183C30.1284 15.307 30.1422 15.2876 30.1563 15.2679C30.1672 15.2526 30.1783 15.2371 30.1928 15.2249C30.2981 15.1365 30.4156 15.1186 30.5253 15.1036C30.5881 15.0949 30.6483 15.0868 30.7021 15.0662C30.7185 15.0599 30.7344 15.0526 30.7499 15.0454C30.7724 15.0348 30.7939 15.0249 30.815 15.0196C30.8628 15.0074 30.9125 15.0213 30.9671 15.0374C30.995 15.0455 31.0241 15.0541 31.055 15.0598C31.0949 15.0673 31.1447 15.0428 31.1968 15.0173C31.2336 14.9992 31.2716 14.9808 31.3083 14.9727C31.3748 14.9581 31.4282 14.9913 31.4774 15.0224C31.4989 15.036 31.5198 15.049 31.5406 15.0575C31.549 15.061 31.5588 15.0584 31.5695 15.0514C31.6578 15.0977 31.7438 15.1407 31.8274 15.1828C32.0085 15.2745 32.1779 15.3636 32.326 15.4767C32.5084 15.6072 32.6555 15.7755 32.746 16.048C32.7762 16.1387 32.8355 16.2179 32.9082 16.2895C33.0415 16.5857 33.1734 16.8856 33.3028 17.1896C33.2342 17.3114 33.1889 17.4329 33.1711 17.5562C33.136 17.7851 33.2061 17.9561 33.2859 18.1573C33.3459 18.3076 33.4105 18.4734 33.4438 18.6967C33.4982 19.0701 33.5711 19.441 33.7062 19.8382C33.8413 20.233 34 20.6942 34.1045 21.0455C34.1532 21.2061 34.1304 21.4029 34.087 21.5917C34.0777 21.6218 34.0681 21.6517 34.0585 21.681C33.972 21.94 33.8936 22.1737 34.1064 22.2557C34.1744 22.2818 34.2848 22.2946 34.3928 22.3103C34.4697 22.3211 34.5447 22.3318 34.602 22.3459C34.602 22.4187 34.6018 22.4902 34.6017 22.5642C34.5068 22.714 34.418 22.9337 34.5952 23.0891C34.5935 23.1631 34.5927 23.2411 34.5899 23.3121C34.5867 23.4726 34.5807 23.6258 34.5746 23.784C34.5724 23.8354 34.5698 23.8858 34.5677 23.9389C34.5676 23.9394 34.5676 23.9399 34.5675 23.9404C34.5625 24.0441 34.5573 24.1495 34.5511 24.2539C34.5486 24.2991 34.5454 24.3408 34.5429 24.3871C34.5357 24.4994 34.528 24.6135 34.5189 24.7257C34.5141 24.7854 34.5089 24.8436 34.5038 24.9053C34.4947 25.0006 34.4858 25.102 34.475 25.1991C34.4576 25.3588 34.4381 25.5141 34.4111 25.6826C34.4065 25.71 34.3873 25.7395 34.3564 25.7622C34.3255 25.7854 34.2855 25.7994 34.2445 25.7988C34.2035 25.7988 34.1636 25.7871 34.1313 25.7703C34.0992 25.7537 34.0774 25.7314 34.0691 25.7081C34.0183 25.5626 33.9605 25.4223 33.9016 25.2807C33.8652 25.1946 33.827 25.1043 33.7896 25.0201C33.7661 24.9654 33.7431 24.9139 33.7196 24.8612C33.6753 24.762 33.6299 24.6612 33.5847 24.5622C33.5665 24.5212 33.549 24.4849 33.5308 24.445C33.4884 24.353 33.4456 24.26 33.4028 24.1688C33.4026 24.1683 33.4023 24.1677 33.402 24.1671C33.3807 24.1207 33.3597 24.077 33.3386 24.0323C33.2737 23.8935 33.2092 23.7596 33.143 23.6188C33.1087 23.5493 33.0726 23.4705 33.0376 23.3988C33.0179 23.3579 32.998 23.3164 32.9782 23.2752C32.9677 23.2535 32.9572 23.2315 32.9465 23.2091C32.7525 22.8061 32.5585 22.4123 32.3624 22.0117C32.3143 21.9304 32.2609 21.8465 32.203 21.7605C31.9431 21.3772 31.6086 20.9761 31.2579 20.5801C30.905 20.182 30.5302 19.7827 30.1494 19.3815C29.6892 18.8974 29.2158 18.4088 28.7413 17.9144C28.0517 17.2157 27.3668 16.7121 26.5013 16.0415C25.1338 14.9982 23.6061 13.8304 22.5243 13.2968C22.4444 13.2615 22.3746 13.2379 22.3607 13.2468C22.1999 13.196 21.9473 13.1144 21.6901 13.0421C21.312 12.9345 20.9047 12.833 20.4845 12.7383C20.4803 12.7374 20.4762 12.7364 20.472 12.7355C20.3525 12.7097 20.2299 12.6844 20.1037 12.6599Z" fill="black"/>
</svg>
