<svg width="60" height="73" viewBox="0 0 60 73" fill="none" xmlns="http://www.w3.org/2000/svg">
<path d="M37.6097 50.8795C35.8395 52.7328 33.7044 54.0848 31.8858 55.902C31.8463 55.9414 31.807 55.9809 31.7678 56.0205C30.8294 57.0786 29.2903 56.9589 28.2322 56.0205C26.0017 53.8133 23.3892 51.9208 21.2348 49.6295C19.0552 47.3105 16.8952 44.9504 14.7656 42.574C13.4349 41.0893 12.1146 39.5969 10.8009 38.0965C9.89025 37.289 9.99334 35.9643 10.8009 35.0537C11.7045 34.2625 12.6109 33.4738 13.5201 32.6866C15.9344 30.5972 18.3692 28.5187 20.8098 26.4521C22.4675 25.0484 24.131 23.6471 25.7943 22.2493C26.5243 21.6355 27.2527 21.0241 27.9829 20.4112C28.5277 19.9541 29.0726 19.4969 29.6174 19.0398C29.6933 18.9763 29.7851 18.9347 29.8741 18.9253C29.9632 18.916 30.042 18.9393 30.0947 18.9921C30.1474 19.045 30.1706 19.1242 30.161 19.2133C30.1513 19.3022 30.1092 19.3938 30.0454 19.4694C29.5827 20.0171 29.12 20.5648 28.6572 21.1125C28.1432 21.7208 27.6302 22.3282 27.116 22.936C26.8111 22.8078 26.5256 22.7647 26.2259 22.9193C26.073 22.9983 25.8885 23.1519 25.8043 23.3166C25.7287 23.4646 25.7089 23.6133 25.6904 23.7547C25.671 23.9026 25.6527 24.0429 25.5721 24.1666C25.4353 24.3766 25.3625 24.6333 25.2861 24.9029C25.2583 25.0011 25.23 25.101 25.1979 25.201C24.7064 25.7806 24.2145 26.3598 23.7224 26.9386C23.4925 27.1224 23.2836 27.2939 23.1312 27.4642C22.9944 27.6169 22.9077 27.7951 22.8326 27.984C22.7564 28.0735 22.6801 28.1631 22.6038 28.2526C22.1114 28.8302 21.6182 29.4074 21.1245 29.9842C20.6491 30.3441 20.1552 30.7257 19.5614 31.2702C19.3055 31.5048 19.0323 31.7156 18.7697 31.9182C18.3817 32.2176 18.0168 32.4992 17.7646 32.8137C17.5959 33.024 17.3661 33.1926 17.1367 33.3609C16.8292 33.5865 16.5223 33.8118 16.3644 34.1363C16.2652 34.3404 16.1896 34.5434 16.1197 34.7316C16.0085 35.0309 15.9114 35.2925 15.7546 35.4606C15.4602 35.7763 15.2645 36.109 15.092 36.4024C14.8846 36.7551 14.7107 37.051 14.4387 37.1916C14.3975 37.2129 14.3485 37.2355 14.2931 37.2607C14.0883 37.3541 13.7974 37.4868 13.4976 37.7504L13.4976 35.3998C13.6095 35.5271 13.745 35.6559 13.911 35.7804C14.1095 35.9291 14.3371 36.0276 14.5601 36.1239C14.8848 36.2642 15.2001 36.4004 15.402 36.682C15.4321 36.7241 15.4449 36.7868 15.4564 36.8439C15.471 36.9166 15.4839 36.9801 15.5285 36.9806C15.6593 36.9823 15.8359 37.016 16.0279 37.0525C16.1689 37.0793 16.3184 37.1078 16.464 37.1262C17.1263 37.7167 17.7872 38.3088 18.4464 38.9029C18.7484 39.175 19.0502 39.4477 19.3516 39.7207C19.4013 39.965 19.4639 40.2029 19.5563 40.4279C19.677 40.722 19.9194 41.0174 20.2316 41.3984C20.4614 41.6788 20.7291 42.0057 21.0143 42.4122C21.5424 43.1648 22.2253 43.7973 22.707 44.1587C22.8089 44.2351 22.9121 44.3111 23.0227 44.3922C23.4423 44.6996 23.9662 45.0831 24.9053 45.8673C25.7936 46.6092 26.5057 47.2834 27.0407 47.7898C27.3138 48.0483 27.5406 48.2634 27.7213 48.4213C28.0304 48.6914 28.4035 49.0297 28.7779 49.3693C29.3639 49.9009 29.9534 50.4359 30.308 50.7179C30.4342 50.8183 30.5691 50.9212 30.7146 51.0325C31.0888 51.3188 31.5352 51.6604 32.0975 52.1553L27.9025 52.1553C27.9409 52.1118 27.9801 52.0675 28.0203 52.0225C28.6076 51.366 29.0167 51.0042 29.4684 50.6551C29.6521 50.5132 29.8782 50.4522 30.1114 50.3896C30.4423 50.3007 30.7875 50.208 31.0461 49.8741C31.1064 49.7962 31.1605 49.7027 31.2171 49.6049C31.3209 49.4252 31.4331 49.2308 31.6081 49.0918C31.6692 49.0434 31.7398 49.0176 31.809 48.9922C31.8852 48.9644 31.9598 48.937 32.0189 48.8806C32.2396 48.6697 32.444 48.4542 32.6255 48.2626C32.8597 48.0155 33.0561 47.8084 33.2008 47.7028C33.4589 47.5146 33.6717 47.2393 33.8869 46.9604C34.0513 46.7473 34.2173 46.5319 34.4065 46.3519C34.9471 45.8376 35.6129 45.0525 36.2611 44.2057C36.5063 43.8854 36.7972 43.697 37.1701 43.4559C37.4021 43.3059 37.6659 43.1356 37.97 42.9C38.1424 42.7665 38.2262 42.5912 38.304 42.4291C38.3756 42.2797 38.442 42.1413 38.5674 42.0565C38.6782 41.9817 38.8137 41.9999 38.9424 42.0171C39.0856 42.0363 39.2203 42.0544 39.303 41.9419C39.347 41.882 39.3717 41.7804 39.4011 41.6597C39.4128 41.6119 39.4254 41.5611 39.44 41.5086C39.4539 41.5259 39.4674 41.5403 39.4779 41.5509C39.5523 41.6255 39.6912 41.5652 39.8273 41.5059C39.8817 41.4823 39.9357 41.4586 39.9849 41.444C40.1661 41.3902 40.3988 41.1782 40.5658 41.0053C40.6365 40.9321 40.7248 40.8901 40.8278 40.841C40.9192 40.7975 41.0223 40.7484 41.1351 40.6671C41.1994 40.6207 41.2635 40.5998 41.3166 40.5827C41.3551 40.5703 41.3879 40.5598 41.4109 40.5427C41.4309 40.5278 41.4235 40.4924 41.4152 40.4526C41.4093 40.4239 41.4028 40.3928 41.4057 40.3654C41.4127 40.2999 41.4504 40.2445 41.4925 40.2213C41.5119 40.2105 41.5322 40.2069 41.5523 40.2033C41.5757 40.1992 41.5991 40.1952 41.6214 40.1797C41.7237 40.1085 41.7837 39.9998 41.846 39.8869C41.9145 39.7628 41.986 39.6334 42.1194 39.5432C42.1614 39.5148 42.2145 39.4929 42.2659 39.4717C42.3197 39.4495 42.3718 39.4279 42.4073 39.4005C42.5512 39.2896 42.6177 39.1165 42.6789 38.9573C42.7196 38.8514 42.758 38.7516 42.8152 38.6804C42.92 38.5499 42.9192 38.4227 42.9185 38.3289C42.9182 38.2803 42.9178 38.2405 42.9323 38.2138C42.953 38.1967 42.9743 38.1796 42.9954 38.1631C43.0174 38.1505 43.0401 38.1376 43.0552 38.1193C43.0564 38.1179 43.0574 38.1164 43.0585 38.115C43.1792 38.0253 43.3046 37.944 43.4292 37.8632C43.7092 37.6818 43.9858 37.5027 44.1992 37.2343C44.2452 37.1765 44.2717 37.0972 44.2986 37.0165C44.3317 36.9177 44.3655 36.8167 44.4366 36.7504C44.606 36.5925 44.8149 36.4708 45.0206 36.3509C45.33 36.1707 45.6323 35.9945 45.783 35.7053C45.8328 35.6099 45.8655 35.501 45.8982 35.3916C45.9164 35.3307 45.9346 35.2693 45.9559 35.2104C45.9824 35.2539 46.0107 35.2912 46.0371 35.3261C46.0916 35.398 46.1381 35.4595 46.1455 35.544C46.1629 35.7436 46.209 35.9962 46.3294 36.0937C46.3621 36.1201 46.3925 36.1555 46.4229 36.1914C46.4992 36.2815 46.5771 36.3735 46.7001 36.3273C46.783 36.2962 46.9889 36.2091 47.0185 36.0523C47.0249 36.0182 47.0098 35.9783 46.993 35.9341C46.985 35.9129 46.9766 35.8906 46.97 35.8674L46.97 37.2828C46.9061 37.3011 46.8351 37.3059 46.7593 37.2522C46.7419 37.2399 46.7234 37.226 46.7045 37.2115C46.6294 37.1534 46.5454 37.0882 46.4734 37.1044C46.3905 37.1231 46.3391 37.1881 46.2793 37.2639C46.2014 37.3627 46.1088 37.48 45.9132 37.5373C45.8744 37.5486 45.8397 37.531 45.8135 37.5177C45.795 37.5084 45.7807 37.5014 45.7721 37.5079C45.7623 37.5153 45.7487 37.5378 45.7316 37.5662C45.6713 37.6664 45.5657 37.8413 45.4151 37.7025C45.3743 37.665 45.3362 37.6135 45.3021 37.5673C45.2518 37.4992 45.21 37.4428 45.1805 37.4591C45.1693 37.4654 45.1581 37.473 45.1469 37.4814C45.1025 37.4315 45.0582 37.3816 45.0138 37.3318C44.9808 37.244 44.8936 37.1615 44.7847 37.0587C44.7582 37.0337 44.7305 37.0073 44.702 36.9795C44.6147 36.8809 44.5273 36.7823 44.4401 36.6836C44.378 36.5983 44.3185 36.5009 44.2656 36.3881C44.1599 36.1622 44.1146 35.9187 44.0705 35.6807C44.052 35.5804 44.0336 35.481 44.0109 35.3843C44.0387 35.403 44.0651 35.4186 44.0886 35.4274C44.2499 35.4874 44.3939 35.4322 44.5264 35.3813C44.6146 35.3474 44.6977 35.3156 44.7772 35.3209C44.9229 35.3306 44.9946 35.2433 45.0477 35.1788C45.0752 35.1454 45.098 35.1181 45.1231 35.1136C45.1434 35.1101 45.1682 35.1238 45.1939 35.1378C45.2162 35.1501 45.2394 35.1627 45.2605 35.1646C45.5158 35.1872 45.5416 35.0778 45.5791 34.9187C45.5999 34.831 45.6243 34.7282 45.6927 34.6239C45.7687 34.5171 45.8006 34.4955 45.9099 34.5319C45.8983 34.43 45.8867 34.3281 45.8751 34.2263C45.8499 34.2069 45.8048 34.2183 45.7342 34.2415C45.6081 34.2829 45.4395 34.1755 45.3078 34.0917C45.2468 34.0529 45.1937 34.0191 45.1563 34.0074C44.9576 33.9453 44.9005 34.0784 44.8502 34.1955C44.8225 34.2599 44.7968 34.3195 44.7508 34.3391C44.7311 34.3475 44.7253 34.3694 44.7192 34.3917C44.7145 34.409 44.7097 34.4265 44.6985 34.4383C44.6169 34.5233 44.4779 34.508 44.3489 34.4939C44.275 34.4858 44.2043 34.4783 44.1495 34.4899C44.1327 34.4935 44.1172 34.4986 44.1022 34.5037C44.0804 34.5112 44.0595 34.5182 44.0366 34.5192C43.9844 34.5216 43.9147 34.4886 43.8385 34.4524C43.7994 34.4339 43.7585 34.4145 43.7175 34.3986C43.6642 34.3781 43.618 34.3978 43.5695 34.4182C43.5353 34.4326 43.4998 34.4473 43.4601 34.4489C43.3882 34.4516 43.3049 34.3953 43.2276 34.3431C43.194 34.3203 43.1613 34.2984 43.1313 34.2824C43.1191 34.2759 43.1089 34.2771 43.1002 34.2838C42.9678 34.2036 42.8396 34.1287 42.7146 34.056C42.0883 33.6914 41.546 33.376 40.9878 32.6533C40.8823 32.5167 40.7491 32.3898 40.6053 32.2708C40.2177 31.8178 39.8309 31.3635 39.4454 30.9087C39.4373 30.7505 39.3986 30.5856 39.3277 30.4157C39.1944 30.0966 38.9816 29.8441 38.7305 29.5461C38.5448 29.3258 38.3383 29.0805 38.1273 28.765C37.7727 28.2349 37.3928 27.7066 36.919 27.1556C36.4472 26.607 35.8914 25.9945 35.4882 25.5712C35.2684 25.3405 35.099 25.0367 34.941 24.7536C34.7187 24.3554 34.5192 23.9983 34.2349 23.9426C34.1441 23.9249 34.0282 23.9358 33.9156 23.9464C33.8353 23.9539 33.7566 23.9609 33.6896 23.9577C33.6059 23.8542 33.5221 23.7508 33.4385 23.6471C33.3483 23.4047 33.1716 23.0645 32.8368 22.8996C32.7507 22.7926 32.6645 22.6855 32.5818 22.5816C32.4004 22.3559 32.2237 22.1343 32.0454 21.9108C31.9873 21.8377 31.9285 21.7639 31.8696 21.69C31.8691 21.6893 31.8685 21.6886 31.868 21.6879C31.7494 21.539 31.63 21.3891 31.5129 21.2413C31.4627 21.178 31.4125 21.1147 31.3623 21.0514C31.2348 20.8906 31.1062 20.7287 30.9804 20.5692C30.9138 20.4847 30.8464 20.3995 30.779 20.3141C30.6698 20.1755 30.5596 20.0359 30.4502 19.8968C30.2732 19.6719 30.0975 19.4477 29.9216 19.2229C29.8929 19.1861 29.874 19.142 29.8701 19.0996C29.8662 19.0572 29.8773 19.0201 29.9022 18.9952C29.9271 18.9704 29.9645 18.9594 30.0069 18.9634C30.0492 18.9675 30.093 18.9866 30.1297 19.0154C30.3539 19.1921 30.5777 19.3688 30.802 19.5466C30.9407 19.6565 31.0801 19.7668 31.2183 19.8765C31.3035 19.9441 31.3883 20.0117 31.4726 20.0786C31.6317 20.2049 31.7935 20.3341 31.9538 20.4621C32.0169 20.5125 32.08 20.5628 32.1431 20.6132C32.2909 20.7311 32.4407 20.8513 32.5895 20.9706C32.5904 20.9714 32.5913 20.9721 32.5922 20.9728C32.6654 21.0315 32.7385 21.0901 32.8108 21.148C33.0338 21.3271 33.2548 21.5047 33.4799 21.6868C33.5967 21.7804 33.7177 21.8787 33.838 21.9761C33.9049 22.0303 33.9718 22.0844 34.0375 22.1374C34.0734 22.1665 34.1096 22.1961 34.1461 22.2258C34.9848 22.9056 35.8153 23.5831 36.6495 24.2707C37.481 24.9555 38.3107 25.6446 39.1354 26.3342C39.962 27.0257 40.7842 27.7188 41.6045 28.4151C44.1665 30.5896 46.7159 32.7859 49.2448 35.008C50.1828 35.8398 50.0766 37.2042 49.2448 38.1423C46.9514 40.7524 44.6306 43.3407 42.2781 45.8983C41.6177 46.6168 40.9364 47.3504 40.269 48.0647C39.594 48.7866 38.9308 49.4914 38.2483 50.2094C38.0412 50.4276 37.8284 50.6508 37.6097 50.8795Z" fill="black"/>
<path d="M25.3403 62.9047C26.8776 62.8069 28.3571 63.7297 29.8996 63.7314C31.8149 63.7337 33.7606 62.852 35.6803 63.0162C37.5888 63.1804 39.5066 63.4163 41.4183 63.7071C43.3321 63.9979 45.2431 64.3435 47.1579 64.7264C49.0687 65.1092 50.9835 65.5292 52.8958 65.9699C54.1946 66.2692 55.4949 66.5782 56.7936 66.8911C57.3637 67.0282 57.9322 67.1659 58.502 67.3042C58.9271 67.4075 59.3522 67.5109 59.7773 67.6143C59.8364 67.6289 59.893 67.688 59.9348 67.7818C59.9765 67.8758 60.0001 67.9962 60 68.1206C59.9999 68.245 59.9762 68.3657 59.9343 68.4593C59.8924 68.5527 59.8357 68.611 59.7766 68.6251C59.3479 68.7252 58.9192 68.8253 58.4905 68.9254C58.0144 69.0365 57.539 69.1477 57.063 69.2581C56.9881 68.7476 56.8852 68.3604 56.6924 68.1894C56.5941 68.1022 56.4506 68.0659 56.345 68.1608C56.2502 68.246 56.1787 68.398 56.1109 68.5428C56.0399 68.6943 55.9725 68.8381 55.8859 68.8889C55.7388 68.9751 55.599 69.1918 55.4521 69.4195C55.3987 69.5024 55.3443 69.5869 55.2883 69.6669C54.8339 69.7707 54.3794 69.8737 53.925 69.9758C53.7495 69.9214 53.5882 69.8775 53.4513 69.8984C53.3285 69.9172 53.216 70.025 53.104 70.1592C53.0337 70.1748 52.9634 70.1905 52.893 70.2061C52.439 70.3066 51.9849 70.4054 51.5307 70.5034C51.1763 70.3672 50.8049 70.2349 50.322 70.1768C50.1139 70.1518 49.9085 70.0782 49.7111 70.0075C49.4195 69.9031 49.1453 69.8049 48.9048 69.8783C48.744 69.9274 48.5749 69.8552 48.4063 69.7833C48.1801 69.6868 47.9543 69.5904 47.7496 69.7869C47.6209 69.9105 47.5027 70.0607 47.3932 70.2C47.2191 70.4217 47.0669 70.6156 46.9291 70.6289C46.6702 70.654 46.446 70.8155 46.2484 70.9579C46.0107 71.1293 45.8114 71.273 45.6363 71.1182C45.6098 71.0947 45.5794 71.0635 45.5452 71.028C45.3651 70.841 45.0769 70.5419 44.6631 70.7063C44.5159 70.7649 44.3775 70.917 44.242 71.0664C44.0448 71.2838 43.8532 71.4948 43.6481 71.4009C43.6174 71.3868 43.5854 71.3279 43.5563 71.2741C43.5192 71.2057 43.4869 71.146 43.4677 71.198C43.4115 71.3503 43.3222 71.5186 43.2253 71.7018C43.1541 71.8364 43.0786 71.9791 43.009 72.1289C42.4775 72.2136 41.9459 72.2947 41.4142 72.3714C41.1706 72.4066 40.9269 72.441 40.6831 72.4744C40.5585 72.2451 40.431 72.0385 40.2963 71.8822C40.1203 71.6779 39.8921 71.6154 39.598 71.5343C39.3816 71.4746 39.1293 71.4049 38.8358 71.2619C38.2925 70.9974 37.7344 71.0567 37.3767 71.1986C37.3011 71.2286 37.225 71.2606 37.1437 71.2955C36.8352 71.4276 36.4503 71.5931 35.7192 71.7756C35.0275 71.9482 34.4394 71.9929 33.9975 72.0266C33.772 72.0437 33.5845 72.0576 33.4409 72.0845C33.1951 72.1305 32.8933 72.1715 32.5904 72.2124C32.1162 72.2765 31.6392 72.3407 31.369 72.4263C31.2729 72.4567 31.172 72.4944 31.063 72.5347C30.7611 72.6463 30.3964 72.781 29.8937 72.8588C29.366 72.9405 29.0389 72.8848 28.6992 72.7638C28.5611 72.7146 28.4392 72.52 28.3137 72.319C28.1356 72.0338 27.9498 71.7361 27.6985 71.8249C27.6398 71.8457 27.5772 71.892 27.5117 71.9407C27.3914 72.03 27.2613 72.1269 27.1281 72.0845C27.0817 72.0696 27.0407 72.0168 27.0006 71.965C26.9565 71.9081 26.9132 71.8524 26.8642 71.8493C26.6811 71.8377 26.503 71.8509 26.3447 71.8627C26.1405 71.8779 25.9693 71.8906 25.8631 71.8444C25.6737 71.762 25.4667 71.8358 25.257 71.9108C25.0969 71.9681 24.9351 72.0264 24.7784 72.0156C24.3308 71.9846 23.7153 72.1251 23.081 72.3592C22.8411 72.4478 22.6378 72.3268 22.3772 72.1716C22.2152 72.075 22.031 71.9647 21.8021 71.884C21.6723 71.8383 21.5623 71.946 21.4606 72.0455C21.3668 72.1371 21.2799 72.2219 21.1907 72.174C21.112 72.1317 21.0622 71.9506 21.0149 71.7786C20.9623 71.5872 20.9128 71.4072 20.83 71.4423C20.7859 71.461 20.7324 71.5516 20.6686 71.6592C20.6434 71.7017 20.6165 71.7468 20.5881 71.7914C20.5895 71.7547 20.5899 71.7218 20.5899 71.697C20.59 71.5213 20.5055 71.4287 20.4226 71.3381C20.3895 71.3019 20.3565 71.2662 20.3294 71.2254C20.2298 71.0753 20.0411 71.0509 19.8969 71.0578C19.8358 71.0607 19.7806 71.0063 19.716 70.9427C19.6588 70.8862 19.5942 70.8225 19.5119 70.7855C19.4649 70.7644 19.4289 70.7135 19.399 70.671C19.3775 70.6402 19.3591 70.6139 19.342 70.607C19.3273 70.601 19.3154 70.6514 19.302 70.7081C19.2924 70.749 19.2819 70.7932 19.269 70.8221C19.2383 70.891 19.1988 70.9119 19.1711 70.8897C19.1583 70.8794 19.1482 70.8598 19.1381 70.8403C19.1264 70.8176 19.1148 70.7947 19.0987 70.7867C19.0252 70.75 18.9536 70.8075 18.8792 70.8671C18.7975 70.9327 18.7123 71.0008 18.6174 70.95C18.5875 70.934 18.5557 70.8973 18.5249 70.8617C18.4927 70.8244 18.4614 70.7884 18.4348 70.7788C18.3266 70.7399 18.225 70.8655 18.1315 70.9811C18.0693 71.0579 18.0106 71.1302 17.9562 71.1468C17.8563 71.1771 17.8027 71.3279 17.7632 71.4392C17.7428 71.4969 17.726 71.5443 17.7085 71.5587C17.6925 71.5545 17.6762 71.5495 17.6602 71.544C17.6456 71.5329 17.6305 71.5215 17.6163 71.5252C17.6152 71.5254 17.6141 71.5261 17.6131 71.5264C17.5238 71.4898 17.4361 71.438 17.3489 71.3862C17.1532 71.2701 16.9599 71.1551 16.7555 71.2199C16.7114 71.2339 16.6665 71.2962 16.6209 71.3594C16.5649 71.4369 16.5077 71.5162 16.4494 71.5105C16.3105 71.4969 16.1703 71.3942 16.0322 71.293C15.8245 71.1408 15.6215 70.9922 15.4348 71.1553C15.3732 71.2092 15.3131 71.2989 15.2529 71.3893C15.2193 71.4397 15.1855 71.4905 15.1515 71.5349C15.1587 71.4524 15.1625 71.375 15.1661 71.3028C15.1735 71.1539 15.1799 71.0265 15.2126 70.9183C15.2899 70.6626 15.3775 70.3105 15.3678 70.0538C15.3651 69.9841 15.3673 69.9065 15.3696 69.8284C15.3754 69.6323 15.3814 69.4321 15.3096 69.3415C15.2612 69.2805 15.1369 69.1404 15.0578 69.2904C15.0406 69.323 15.0302 69.3878 15.0185 69.4597C14.9975 69.589 14.9726 69.7421 14.8976 69.7778C14.885 69.7838 14.8713 69.7892 14.8571 69.7942C14.8006 69.8143 14.7373 69.8365 14.7136 69.9405C14.6864 70.0602 14.6922 70.1973 14.699 70.3572C14.7078 70.5654 14.7183 70.8128 14.6596 71.1109C14.648 71.1698 14.6258 71.19 14.609 71.2053C14.5972 71.2161 14.5882 71.2247 14.5873 71.2425C14.5863 71.2628 14.59 71.3052 14.5948 71.3588C14.6118 71.548 14.6412 71.8785 14.5184 71.8925C14.4852 71.8963 14.4472 71.8806 14.4131 71.8663C14.3629 71.8454 14.3212 71.8281 14.3156 71.8822C14.3135 71.9027 14.312 71.9249 14.3108 71.948C14.2708 71.9415 14.2308 71.935 14.1908 71.9285C14.1396 71.864 14.0676 71.8695 13.9778 71.8767C13.956 71.8784 13.933 71.88 13.9091 71.881C13.8302 71.8676 13.7513 71.8543 13.6724 71.8408C13.6099 71.8134 13.5433 71.7689 13.4731 71.6982C13.3323 71.5565 13.2098 71.3229 13.0902 71.0944C13.0397 70.9981 12.9898 70.9026 12.9391 70.8154C12.9588 70.8046 12.9766 70.792 12.9904 70.7745C13.0842 70.6552 13.1219 70.4204 13.1565 70.2043C13.1796 70.0605 13.2013 69.925 13.2373 69.8375C13.3033 69.6773 13.2966 69.4899 13.2918 69.3513C13.2893 69.2794 13.2874 69.2205 13.2962 69.1856C13.3032 69.1576 13.3196 69.1444 13.3364 69.1307C13.3511 69.1189 13.3663 69.1064 13.376 69.0838C13.4939 68.8095 13.4585 68.6503 13.4069 68.4185C13.3785 68.2907 13.3453 68.1407 13.33 67.9372C13.3169 67.7217 13.3213 67.6587 13.3831 67.5729C13.335 67.4664 13.2868 67.36 13.2387 67.2536C13.2198 67.2605 13.2055 67.3271 13.1854 67.4376C13.1494 67.635 13.0324 67.7072 12.9409 67.7636C12.8986 67.7897 12.8617 67.8125 12.8409 67.8428C12.7303 68.0037 12.7624 68.2279 12.7908 68.4252C12.8064 68.5338 12.8208 68.6343 12.8096 68.7116C12.8048 68.7446 12.8116 68.7774 12.8185 68.8109C12.8238 68.8367 12.8292 68.863 12.8295 68.8901C12.8309 69.0865 12.7655 69.2324 12.7047 69.3677C12.6699 69.4453 12.6368 69.5197 12.6184 69.598C12.6129 69.6219 12.6084 69.6463 12.6042 69.6699C12.5982 69.7045 12.5922 69.7374 12.583 69.7656C12.5618 69.8298 12.5183 69.8731 12.4706 69.9203C12.4461 69.9446 12.4206 69.9698 12.3964 69.9996C12.3651 70.0381 12.3539 70.1158 12.3419 70.197C12.3335 70.2543 12.3247 70.3134 12.3085 70.3621C12.2792 70.4501 12.22 70.4819 12.165 70.5113C12.1411 70.5242 12.1179 70.5369 12.0984 70.5534C12.0905 70.5601 12.0867 70.5734 12.0858 70.5918C11.9956 70.6532 11.9094 70.7161 11.8256 70.7776C11.4052 71.086 11.0413 71.3534 10.4979 71.1596C10.3951 71.1229 10.2848 71.1303 10.1733 71.1596C9.81665 71.0825 9.4598 71.003 9.10328 70.9214C9.03271 70.7444 8.94639 70.5957 8.84419 70.479C8.65226 70.26 8.45483 70.2132 8.22186 70.158C8.04962 70.1171 7.85793 70.0715 7.63455 69.9484C7.25926 69.7415 6.87392 69.5665 6.43911 69.4756C6.00619 69.3851 5.51055 69.3183 5.15989 69.2946C4.96874 69.2817 4.76795 69.1234 4.58082 68.976C4.3176 68.7687 4.08141 68.5829 3.93721 68.8523C3.89116 68.9384 3.84664 69.0879 3.80331 69.2331C3.77246 69.3365 3.74203 69.4375 3.71222 69.5128C3.63285 69.4894 3.55339 69.4663 3.47396 69.4427C3.33283 69.2632 3.11352 69.0707 2.90152 69.2709C2.81959 69.2461 2.73761 69.2215 2.65845 69.1965C2.48573 69.1443 2.31674 69.0914 2.14622 69.0381C2.09056 69.0205 2.03434 69.0029 1.97799 68.9851C1.97746 68.9849 1.97692 68.9847 1.97639 68.9845C1.86296 68.9488 1.74867 68.9129 1.63627 68.8767C1.58813 68.8612 1.53999 68.8458 1.49185 68.8304C1.36951 68.7912 1.24628 68.7519 1.12518 68.7122C1.06108 68.6911 0.996369 68.6701 0.931546 68.6488C0.826381 68.6143 0.720421 68.5796 0.615003 68.5446C0.44452 68.4881 0.274836 68.431 0.104828 68.3734C0.0770242 68.3639 0.0503059 68.334 0.0306701 68.2887C0.0110414 68.2434 -3.0007e-05 68.1865 6.10806e-08 68.1279C3.85052e-05 68.0693 0.0112035 68.0123 0.030899 67.967C0.0505814 67.922 0.0772725 67.8929 0.105056 67.8836C0.275186 67.8276 0.445087 67.7722 0.61569 67.7173C0.721127 67.6833 0.827049 67.649 0.932232 67.6155C0.997086 67.5948 1.06174 67.5745 1.12587 67.554C1.24698 67.5154 1.37041 67.4768 1.49276 67.4388C1.5409 67.4238 1.58904 67.4088 1.63719 67.3937C1.74988 67.3585 1.86449 67.3237 1.97822 67.2889C1.9789 67.2887 1.97959 67.2885 1.98028 67.2883C2.03623 67.2712 2.09209 67.2541 2.14736 67.2372C2.31795 67.1855 2.48704 67.1342 2.65983 67.0836C2.7491 67.0563 2.84213 67.0296 2.93448 67.0026C2.9859 66.9876 3.03722 66.9724 3.0876 66.9575C3.11515 66.9495 3.14307 66.9417 3.17115 66.9337C3.81542 66.7464 4.45516 66.5662 5.10084 66.3933C5.74411 66.2204 6.38851 66.0547 7.03099 65.8956C7.67503 65.7364 8.31794 65.5841 8.96138 65.438C13.0449 64.5102 17.1447 63.7494 21.2463 63.2733C21.8314 63.2049 22.4317 63.1433 23.0179 63.0881C23.6105 63.0328 24.1909 62.9838 24.7851 62.9418C24.9655 62.9287 25.1505 62.9165 25.3403 62.9047Z" fill="black"/>
<path d="M23.6386 8.92334C23.2167 7.85265 23.4774 6.71398 23.621 5.67459C23.6241 5.65148 23.6273 5.62835 23.6304 5.60519C23.7935 4.33325 24.0975 2.86813 25.0913 1.87915C26.0754 0.895525 27.3698 0.255203 28.7013 0.0648728C29.5324 -0.0565768 30.3746 -0.00495415 31.1545 0.198284C31.6243 0.32011 32.0768 0.496564 32.4971 0.721283C33.6165 1.31684 34.4892 2.25657 34.9925 3.30977C35.3368 4.02491 35.5166 4.79292 35.5329 5.53846C35.5404 5.86574 35.517 6.18824 35.4652 6.50125C35.4265 6.73429 35.3719 6.96348 35.3033 7.18368C35.2937 7.2144 35.2663 7.24148 35.226 7.25825C35.1857 7.27504 35.1363 7.28023 35.0871 7.27302C35.0378 7.2658 34.9918 7.24677 34.9576 7.22078C34.9235 7.19478 34.9041 7.16393 34.9021 7.13429C34.8879 6.91994 34.8593 6.7079 34.8167 6.50293C34.7694 6.27469 34.705 6.05372 34.6255 5.84209C34.8212 5.77458 34.9656 5.69683 35.013 5.58651C35.0372 5.5304 35.035 5.45397 34.9853 5.41037C34.9406 5.37117 34.8727 5.35146 34.808 5.33393C34.7403 5.3156 34.6761 5.29981 34.6448 5.26556C34.5917 5.20733 34.4886 5.16972 34.3805 5.13578C34.3412 5.12339 34.3011 5.11139 34.2624 5.09874C34.1534 4.92104 34.033 4.75393 33.9032 4.59829C33.8861 4.52048 33.8656 4.44971 33.8273 4.40239C33.793 4.3599 33.7299 4.34074 33.6588 4.32984C33.637 4.30795 33.6151 4.28638 33.593 4.26508C33.4502 4.12756 33.2998 4.00211 33.1435 3.88961C33.0843 3.74479 33.0095 3.5944 32.8669 3.4426C32.8054 3.37736 32.7547 3.29966 32.7024 3.22566C32.6259 3.1167 32.5454 3.0157 32.4396 2.98484C32.3691 2.96431 32.3205 2.90243 32.2683 2.84102C32.1994 2.75914 32.123 2.6779 32.0074 2.7112C31.9349 2.73218 31.8635 2.76667 31.799 2.80017C31.6964 2.85354 31.6111 2.90407 31.5563 2.89C31.4534 2.86365 31.3458 2.89804 31.2558 2.93191C31.1462 2.97237 31.0608 3.01134 31.0072 2.93649C30.999 2.92514 30.9899 2.91048 30.9795 2.89387C30.9412 2.83255 30.8837 2.74544 30.7882 2.71424C30.7479 2.70105 30.7014 2.69812 30.6494 2.7121C30.5874 2.72883 30.5258 2.78463 30.469 2.84074C30.386 2.92243 30.3128 3.00427 30.2364 2.96634C30.2249 2.96067 30.2128 2.93713 30.2016 2.91567C30.1874 2.88839 30.1744 2.86468 30.1673 2.88556C30.1464 2.94678 30.1142 3.01485 30.082 3.0895C30.0583 3.14433 30.0348 3.20272 30.0144 3.26405C29.8334 3.30938 29.6591 3.36833 29.4928 3.43902C29.4168 3.47139 29.342 3.50634 29.2693 3.54353C29.2021 3.46866 29.1334 3.40463 29.067 3.36227C28.9799 3.30706 28.8921 3.31389 28.7793 3.32895C28.6961 3.34019 28.5994 3.35581 28.4734 3.35963C28.2383 3.36684 28.0632 3.51596 27.9897 3.6448C27.9738 3.67209 27.9587 3.70022 27.9432 3.73056C27.8857 3.84613 27.8144 3.98874 27.6875 4.23205C27.5693 4.46239 27.4664 4.63996 27.3948 4.77807C27.3584 4.84855 27.3307 4.90776 27.316 4.95671C27.2907 5.04015 27.2584 5.14037 27.2318 5.24155C27.1894 5.39992 27.1627 5.56145 27.1704 5.65766C27.1731 5.6918 27.1785 5.72816 27.1851 5.7671C27.202 5.86715 27.2261 5.98292 27.2366 6.13017C27.2374 6.14162 27.2382 6.15324 27.2388 6.16503C27.2495 6.33591 27.2236 6.43423 27.1736 6.54277C27.1535 6.58641 27.0761 6.62637 26.9971 6.67135C26.8849 6.73423 26.7695 6.81038 26.8135 6.89729C26.8237 6.91738 26.8445 6.9376 26.8665 6.9584C26.9069 6.99671 26.9513 7.03556 26.9416 7.08356C26.9383 7.10038 26.9197 7.11788 26.9017 7.13531C26.8819 7.15446 26.8626 7.17362 26.8646 7.19106C26.872 7.25606 26.8907 7.31743 26.9087 7.37105C26.9317 7.44019 26.9534 7.49731 26.9465 7.53887C26.9342 7.61319 26.986 7.67621 27.0398 7.7353C27.081 7.78091 27.1236 7.82473 27.1411 7.8769C27.1908 8.02662 27.3413 8.19978 27.5377 8.32707C27.6117 8.3751 27.6102 8.45709 27.6156 8.56662C27.619 8.63451 27.625 8.71292 27.6542 8.79603C27.6709 8.84323 27.7297 8.84401 27.783 8.84292C27.8323 8.84208 27.8772 8.83992 27.8851 8.87525C27.892 8.90644 27.8532 8.96992 27.8173 9.03107C27.7773 9.09899 27.7409 9.16406 27.7732 9.17528C27.7904 9.1812 27.8299 9.16846 27.8761 9.15237C27.8944 9.146 27.9138 9.1392 27.9333 9.13276C27.9231 9.14335 27.9143 9.15305 27.9076 9.16045C27.8606 9.21268 27.8593 9.26127 27.8595 9.30931C27.8595 9.32848 27.8598 9.34753 27.8571 9.3667C27.8474 9.43739 27.8988 9.49216 27.9452 9.52432C27.9648 9.53798 27.9688 9.56838 27.9741 9.60402C27.9788 9.63564 27.9846 9.67147 28.003 9.70275C28.0135 9.72056 28.0138 9.74559 28.0141 9.76649C28.0143 9.78161 28.0145 9.79455 28.0188 9.80078C28.0224 9.80616 28.0378 9.79227 28.055 9.77654C28.0674 9.76522 28.0808 9.75293 28.0916 9.74621C28.1172 9.73018 28.1347 9.73187 28.139 9.74532C28.141 9.75154 28.1401 9.76031 28.1392 9.76903C28.1382 9.7792 28.1371 9.78942 28.1407 9.79561C28.1576 9.82402 28.1945 9.82012 28.2322 9.8153C28.2739 9.81012 28.3162 9.80367 28.3384 9.83999C28.3454 9.85142 28.349 9.87042 28.3527 9.88887C28.3566 9.90817 28.3606 9.92688 28.3681 9.93542C28.399 9.97022 28.4589 9.94502 28.5126 9.92055C28.5483 9.90432 28.5815 9.88855 28.6034 9.89182C28.6436 9.89794 28.6878 9.85187 28.7198 9.81766C28.7365 9.79993 28.75 9.78527 28.7582 9.78273C28.7629 9.78672 28.7676 9.79102 28.7721 9.79542C28.7752 9.80168 28.7784 9.80815 28.7838 9.80895C28.7842 9.80901 28.7847 9.80893 28.7851 9.80899C28.8094 9.83575 28.8315 9.86777 28.8538 9.89931C28.9038 9.97008 28.9591 10.04 29.0416 10.0407C29.0595 10.0408 29.0837 10.0226 29.1079 10.0039C29.1376 9.98091 29.1674 9.95702 29.1875 9.96551C29.235 9.98565 29.2741 10.0393 29.3154 10.0917C29.3764 10.1703 29.4439 10.2461 29.5279 10.1957C29.5554 10.179 29.5846 10.1479 29.6133 10.1161C29.6293 10.0984 29.6452 10.0805 29.6606 10.065C29.6527 10.0971 29.6462 10.1275 29.6402 10.1557C29.6278 10.214 29.6172 10.2639 29.5972 10.3045C29.5501 10.4003 29.4883 10.5321 29.4735 10.6338C29.4696 10.6614 29.463 10.6918 29.4563 10.7223C29.4396 10.799 29.4219 10.8772 29.4483 10.9188C29.4657 10.9468 29.5148 11.0119 29.5607 10.9581C29.5706 10.9464 29.5793 10.9215 29.5888 10.8938C29.5934 10.8805 29.5982 10.8666 29.6034 10.8532C29.6177 10.8161 29.6353 10.7826 29.6611 10.7755C29.667 10.7739 29.6734 10.7725 29.6799 10.7714C29.706 10.7667 29.735 10.7612 29.7501 10.7211C29.7675 10.6749 29.771 10.6201 29.7754 10.5562C29.781 10.473 29.7888 10.3743 29.8248 10.2584C29.8319 10.2354 29.8413 10.2283 29.8484 10.2229C29.8533 10.2191 29.8571 10.216 29.8582 10.209C29.8594 10.2009 29.8597 10.1839 29.8601 10.1624C29.8613 10.0864 29.8652 9.95405 29.9091 9.95272C29.9211 9.95235 29.9342 9.95985 29.9459 9.96654C29.9633 9.97641 29.9778 9.98441 29.9814 9.96299C29.9827 9.95486 29.9839 9.94603 29.985 9.93686C29.999 9.9405 30.013 9.94405 30.027 9.9475C30.0437 9.97436 30.0694 9.97358 30.1018 9.97197C30.1096 9.97158 30.1179 9.97123 30.1264 9.97113C30.1545 9.97735 30.1826 9.9832 30.2108 9.98883C30.2331 9.99992 30.2568 10.0177 30.2829 10.0456C30.335 10.1015 30.3838 10.1932 30.4352 10.282C30.4568 10.3194 30.4791 10.3563 30.5018 10.3896C30.4942 10.3945 30.4874 10.4 30.4823 10.4073C30.4476 10.4574 30.437 10.5519 30.4264 10.6389C30.4193 10.6968 30.4123 10.7514 30.3977 10.787C30.371 10.8522 30.376 10.9269 30.3801 10.9823C30.3823 11.011 30.384 11.0345 30.3803 11.0486C30.3774 11.0599 30.3698 11.0654 30.362 11.0711C30.3552 11.076 30.3482 11.0812 30.3438 11.0903C30.2901 11.2012 30.3066 11.2645 30.3347 11.3567C30.3501 11.4076 30.3686 11.4671 30.379 11.5482C30.3883 11.6341 30.3871 11.6595 30.3547 11.6946C30.3816 11.7366 30.4091 11.7783 30.4372 11.8198C30.4475 11.8167 30.4543 11.7897 30.4633 11.7451C30.4793 11.6654 30.5397 11.6334 30.5866 11.6074C30.6083 11.5954 30.627 11.5848 30.6369 11.5718C30.6896 11.5028 30.6639 11.4149 30.6432 11.3375C30.6316 11.2949 30.6213 11.2554 30.6242 11.2242C30.6254 11.2108 30.621 11.198 30.6165 11.185C30.6131 11.1749 30.6096 11.1646 30.6086 11.1538C30.6016 11.0756 30.6277 11.0149 30.6503 10.9583C30.6633 10.9259 30.6753 10.8948 30.6803 10.8627C30.6818 10.853 30.6827 10.8431 30.6836 10.8335C30.6849 10.8195 30.6861 10.8061 30.689 10.7944C30.6956 10.7679 30.7128 10.7485 30.7314 10.7273C30.7409 10.7164 30.7507 10.705 30.7596 10.6918C30.7712 10.6748 30.7719 10.6433 30.7726 10.6105C30.7731 10.5873 30.7736 10.5634 30.7777 10.5432C30.7851 10.5066 30.8076 10.4906 30.8282 10.4755C30.8372 10.4689 30.8457 10.4624 30.8527 10.4546C30.8555 10.4515 30.8562 10.4459 30.8553 10.4386C30.888 10.4084 30.9181 10.3776 30.9466 10.3471C31.0906 10.1932 31.1911 10.059 31.4134 10.0664C31.4558 10.0675 31.4953 10.0502 31.5315 10.024C31.6715 10.004 31.8123 9.9764 31.9533 9.94078C32.0106 9.99099 32.0695 10.0273 32.1292 10.0478C32.2416 10.0861 32.3249 10.0594 32.421 10.0246C32.4923 9.99866 32.5708 9.9683 32.6789 9.95087C32.8604 9.92141 33.0415 9.86555 33.2121 9.75621C33.3822 9.64801 33.5579 9.4959 33.6681 9.37505C33.7281 9.30985 33.8353 9.27441 33.9355 9.23623C34.0763 9.18315 34.2035 9.12337 34.149 9.00688C34.1316 8.96974 34.0918 8.92024 34.0525 8.87291C34.0246 8.8392 33.997 8.8065 33.978 8.77952C34.0044 8.75318 34.0305 8.72629 34.0565 8.69905C34.1506 8.67802 34.2683 8.6206 34.2393 8.49583C34.2647 8.46574 34.2898 8.43528 34.3141 8.40552C34.3664 8.34014 34.4166 8.2747 34.4657 8.20676C34.4818 8.1846 34.4979 8.16196 34.5138 8.13904C34.514 8.13882 34.5141 8.13861 34.5143 8.1384C34.5463 8.09235 34.5778 8.04545 34.6083 7.99827C34.6214 7.97807 34.6343 7.9577 34.6472 7.93716C34.6796 7.88516 34.7113 7.83212 34.7419 7.7788C34.7582 7.75068 34.7743 7.72157 34.7901 7.69288C34.8159 7.6461 34.8411 7.59815 34.8656 7.54967C34.9053 7.47079 34.9429 7.39253 34.979 7.31094C34.985 7.29764 34.9988 7.28606 35.0182 7.27882C35.0376 7.27159 35.061 7.26921 35.0842 7.2726C35.1074 7.276 35.1291 7.28501 35.1455 7.29788C35.1618 7.31071 35.1712 7.32637 35.1726 7.34138C35.1808 7.43347 35.1867 7.52446 35.1893 7.61839C35.191 7.67612 35.1918 7.7342 35.1914 7.79187C35.1913 7.82728 35.1904 7.86336 35.1894 7.89879C35.1875 7.96589 35.1839 8.03396 35.1788 8.10191C35.1768 8.12874 35.1746 8.15557 35.1722 8.1824C35.1666 8.24525 35.1594 8.30874 35.1509 8.37225C35.1509 8.37264 35.1508 8.37302 35.1508 8.3734C35.1466 8.4047 35.1422 8.43593 35.1375 8.46683C35.1229 8.56199 35.1057 8.65643 35.0846 8.75277C35.0741 8.80273 35.0619 8.85414 35.049 8.90565C35.0417 8.9343 35.0343 8.96288 35.0269 8.99092C35.0227 9.00621 35.0183 9.02166 35.0139 9.03718C34.9137 9.39459 34.7723 9.74507 34.588 10.0832C34.4046 10.4202 34.18 10.7425 33.9196 11.0397C33.6585 11.3376 33.3613 11.6106 33.0328 11.8514C32.0113 12.607 30.6655 13.0339 29.2944 12.9755C27.8808 12.9275 26.4262 12.3512 25.3192 11.3436C25.0071 11.0623 24.7148 10.7399 24.4616 10.3987C24.2057 10.0536 23.9865 9.68954 23.8007 9.29643C23.7443 9.17723 23.69 9.0527 23.6386 8.92334Z" fill="black"/>
</svg>
