<svg width="60" height="61" viewBox="0 0 60 61" fill="none" xmlns="http://www.w3.org/2000/svg">
<path d="M37.6097 43.0381C35.8395 44.8913 33.7044 46.2433 31.8858 48.0605C31.8463 48.0999 31.807 48.1394 31.7678 48.1791C30.8294 49.2372 29.2903 49.1174 28.2322 48.1791C26.0017 45.9718 23.3892 44.0793 21.2348 41.788C19.0552 39.4691 16.8952 37.1089 14.7656 34.7325C13.4349 33.2478 12.1146 31.7554 10.8009 30.2551C9.89025 29.4475 9.99334 28.1229 10.8009 27.2122C11.7045 26.421 12.6109 25.6323 13.5201 24.8451C15.9344 22.7557 18.3692 20.6772 20.8098 18.6106C22.4675 17.2069 24.131 15.8056 25.7943 14.4078C26.5244 13.7941 27.2527 13.1826 27.9829 12.5697C28.5277 12.1126 29.0726 11.6554 29.6174 11.1983C29.6933 11.1348 29.7851 11.0932 29.8741 11.0838C29.9632 11.0745 30.042 11.0978 30.0947 11.1507C30.1474 11.2036 30.1706 11.2827 30.161 11.3718C30.1513 11.4608 30.1092 11.5524 30.0454 11.6279C29.5827 12.1756 29.12 12.7233 28.6572 13.271C28.1432 13.8793 27.6302 14.4867 27.116 15.0945C26.8111 14.9663 26.5256 14.9233 26.2259 15.0779C26.073 15.1568 25.8885 15.3104 25.8043 15.4752C25.7287 15.6231 25.7089 15.7718 25.6904 15.9132C25.671 16.0611 25.6527 16.2015 25.5721 16.3252C25.4353 16.5351 25.3625 16.7918 25.2861 17.0615C25.2583 17.1596 25.23 17.2595 25.1979 17.3595C24.7064 17.9391 24.2145 18.5184 23.7224 19.0972C23.4925 19.2809 23.2836 19.4525 23.1312 19.6227C22.9944 19.7754 22.9077 19.9537 22.8326 20.1425C22.7564 20.2321 22.6801 20.3216 22.6038 20.4111C22.1114 20.9888 21.6182 21.5659 21.1245 22.1427C20.6491 22.5026 20.1552 22.8842 19.5614 23.4287C19.3055 23.6633 19.0323 23.8741 18.7697 24.0768C18.3817 24.3761 18.0168 24.6577 17.7646 24.9722C17.5959 25.1825 17.3661 25.3512 17.1367 25.5194C16.8292 25.7451 16.5223 25.9703 16.3644 26.2948C16.2652 26.4989 16.1896 26.702 16.1197 26.8901C16.0085 27.1894 15.9114 27.451 15.7546 27.6191C15.4602 27.9348 15.2645 28.2676 15.092 28.5609C14.8846 28.9136 14.7107 29.2096 14.4387 29.3501C14.3975 29.3714 14.3485 29.394 14.2931 29.4192C14.0883 29.5126 13.7974 29.6453 13.4976 29.9089L13.4976 27.5584C13.6095 27.6856 13.745 27.8144 13.911 27.9389C14.1095 28.0877 14.3371 28.1861 14.5601 28.2825C14.8848 28.4227 15.2001 28.5589 15.402 28.8405C15.4321 28.8826 15.4449 28.9453 15.4564 29.0025C15.471 29.0751 15.4839 29.1386 15.5285 29.1392C15.6593 29.1408 15.8359 29.1745 16.0279 29.211C16.1689 29.2379 16.3184 29.2663 16.464 29.2847C17.1263 29.8752 17.7872 30.4673 18.4464 31.0614C18.7484 31.3336 19.0502 31.6062 19.3516 31.8793C19.4013 32.1235 19.4639 32.3614 19.5563 32.5864C19.677 32.8805 19.9194 33.1759 20.2316 33.5569C20.4614 33.8373 20.7291 34.1642 21.0143 34.5707C21.5424 35.3233 22.2253 35.9559 22.707 36.3172C22.8089 36.3936 22.9121 36.4696 23.0227 36.5507C23.4423 36.8582 23.9662 37.2416 24.9053 38.0259C25.7936 38.7677 26.5057 39.4419 27.0407 39.9483C27.3138 40.2068 27.5406 40.4219 27.7213 40.5798C28.0304 40.8499 28.4035 41.1882 28.7779 41.5278C29.3639 42.0594 29.9534 42.5944 30.308 42.8764C30.4342 42.9768 30.5691 43.0798 30.7146 43.1911C31.0888 43.4774 31.5352 43.819 32.0975 44.3138L27.9025 44.3138C27.9409 44.2703 27.9801 44.226 28.0203 44.1811C28.6076 43.5245 29.0167 43.1627 29.4684 42.8136C29.6521 42.6717 29.8782 42.6107 30.1114 42.5481C30.4423 42.4592 30.7875 42.3666 31.0461 42.0327C31.1064 41.9547 31.1605 41.8612 31.2171 41.7634C31.3209 41.5838 31.4331 41.3893 31.6081 41.2503C31.6692 41.2019 31.7398 41.1761 31.809 41.1508C31.8852 41.1229 31.9598 41.0956 32.0189 41.0391C32.2396 40.8283 32.444 40.6127 32.6255 40.4211C32.8597 40.1741 33.0561 39.9669 33.2008 39.8613C33.4589 39.6731 33.6717 39.3979 33.8869 39.1189C34.0513 38.9058 34.2173 38.6904 34.4065 38.5104C34.9471 37.9961 35.6129 37.2111 36.2611 36.3642C36.5063 36.0439 36.7972 35.8556 37.1701 35.6144C37.4021 35.4644 37.6659 35.2941 37.97 35.0586C38.1424 34.925 38.2262 34.7498 38.304 34.5876C38.3756 34.4382 38.442 34.2998 38.5674 34.2151C38.6782 34.1402 38.8137 34.1584 38.9424 34.1757C39.0856 34.1949 39.2203 34.2129 39.303 34.1004C39.347 34.0405 39.3717 33.939 39.4011 33.8182C39.4128 33.7704 39.4254 33.7196 39.44 33.6672C39.4539 33.6845 39.4674 33.6988 39.4779 33.7094C39.5523 33.784 39.6912 33.7237 39.8273 33.6645C39.8817 33.6408 39.9357 33.6171 39.9849 33.6025C40.1661 33.5487 40.3988 33.3367 40.5658 33.1638C40.6365 33.0906 40.7248 33.0486 40.8278 32.9995C40.9192 32.956 41.0223 32.9069 41.1351 32.8256C41.1994 32.7792 41.2635 32.7583 41.3166 32.7412C41.3551 32.7289 41.3879 32.7184 41.4109 32.7012C41.4309 32.6863 41.4235 32.6509 41.4152 32.6111C41.4093 32.5824 41.4028 32.5513 41.4057 32.5239C41.4127 32.4584 41.4504 32.403 41.4925 32.3798C41.5119 32.369 41.5322 32.3654 41.5523 32.3619C41.5757 32.3577 41.5991 32.3537 41.6214 32.3382C41.7237 32.2671 41.7837 32.1584 41.846 32.0454C41.9145 31.9213 41.986 31.7919 42.1194 31.7017C42.1614 31.6733 42.2145 31.6514 42.2659 31.6302C42.3197 31.608 42.3718 31.5864 42.4073 31.5591C42.5512 31.4481 42.6177 31.2751 42.6789 31.1158C42.7196 31.01 42.758 30.9101 42.8152 30.8389C42.92 30.7084 42.9192 30.5813 42.9185 30.4875C42.9182 30.4388 42.9178 30.399 42.9323 30.3723C42.953 30.3552 42.9743 30.3381 42.9954 30.3216C43.0174 30.3091 43.0401 30.2961 43.0552 30.2778C43.0564 30.2764 43.0574 30.2749 43.0585 30.2735C43.1792 30.1838 43.3046 30.1025 43.4292 30.0217C43.7092 29.8403 43.9858 29.6613 44.1992 29.3929C44.2452 29.335 44.2717 29.2557 44.2986 29.1751C44.3317 29.0763 44.3655 28.9752 44.4366 28.9089C44.606 28.751 44.8149 28.6293 45.0206 28.5095C45.33 28.3292 45.6323 28.153 45.783 27.8639C45.8328 27.7684 45.8655 27.6595 45.8982 27.5502C45.9164 27.4892 45.9346 27.4279 45.9559 27.3689C45.9824 27.4124 46.0107 27.4498 46.0371 27.4846C46.0916 27.5565 46.1381 27.618 46.1455 27.7025C46.1629 27.9021 46.209 28.1547 46.3294 28.2522C46.3621 28.2786 46.3925 28.3141 46.4229 28.35C46.4992 28.4401 46.5771 28.532 46.7001 28.4858C46.783 28.4547 46.9889 28.3676 47.0185 28.2108C47.0249 28.1767 47.0098 28.1369 46.993 28.0926C46.985 28.0714 46.9766 28.0491 46.97 28.0259L46.97 29.4413C46.9061 29.4596 46.8351 29.4645 46.7593 29.4108C46.7419 29.3985 46.7234 29.3846 46.7045 29.37C46.6294 29.3119 46.5454 29.2467 46.4734 29.2629C46.3905 29.2816 46.3391 29.3466 46.2793 29.4225C46.2014 29.5212 46.1088 29.6385 45.9132 29.6958C45.8744 29.7071 45.8397 29.6895 45.8135 29.6763C45.795 29.6669 45.7807 29.66 45.7721 29.6664C45.7623 29.6739 45.7487 29.6963 45.7316 29.7247C45.6713 29.8249 45.5657 29.9998 45.4151 29.861C45.3743 29.8235 45.3362 29.772 45.3021 29.7258C45.2518 29.6578 45.21 29.6013 45.1805 29.6176C45.1693 29.6239 45.1581 29.6316 45.1469 29.6399C45.1025 29.59 45.0582 29.5402 45.0138 29.4903C44.9808 29.4025 44.8936 29.32 44.7847 29.2172C44.7582 29.1922 44.7305 29.1658 44.702 29.1381C44.6147 29.0395 44.5273 28.9408 44.4401 28.8421C44.378 28.7568 44.3185 28.6595 44.2656 28.5467C44.1599 28.3207 44.1146 28.0772 44.0705 27.8392C44.052 27.739 44.0336 27.6395 44.0109 27.5428C44.0387 27.5615 44.0651 27.5772 44.0886 27.5859C44.2499 27.6459 44.3939 27.5907 44.5264 27.5398C44.6146 27.506 44.6977 27.4741 44.7772 27.4794C44.9229 27.4891 44.9946 27.4018 45.0477 27.3373C45.0752 27.3039 45.098 27.2767 45.1231 27.2722C45.1434 27.2686 45.1682 27.2823 45.1939 27.2964C45.2162 27.3086 45.2394 27.3213 45.2605 27.3231C45.5158 27.3457 45.5416 27.2363 45.5791 27.0773C45.5999 26.9895 45.6243 26.8867 45.6927 26.7824C45.7687 26.6756 45.8006 26.654 45.9099 26.6904C45.8983 26.5886 45.8867 26.4867 45.8751 26.3848C45.8499 26.3655 45.8048 26.3768 45.7342 26.4C45.6081 26.4414 45.4395 26.3341 45.3078 26.2502C45.2468 26.2114 45.1937 26.1776 45.1563 26.1659C44.9576 26.1038 44.9005 26.2369 44.8502 26.354C44.8225 26.4184 44.7968 26.478 44.7508 26.4976C44.7311 26.506 44.7253 26.5279 44.7192 26.5502C44.7145 26.5675 44.7097 26.5851 44.6985 26.5968C44.6169 26.6818 44.4779 26.6666 44.3489 26.6524C44.275 26.6443 44.2043 26.6368 44.1495 26.6485C44.1327 26.652 44.1172 26.6571 44.1022 26.6622C44.0804 26.6697 44.0595 26.6767 44.0366 26.6777C43.9844 26.6801 43.9147 26.6471 43.8385 26.6109C43.7994 26.5924 43.7585 26.573 43.7175 26.5572C43.6642 26.5366 43.618 26.5563 43.5695 26.5767C43.5353 26.5911 43.4998 26.6058 43.4601 26.6074C43.3882 26.6102 43.3049 26.5538 43.2276 26.5016C43.194 26.4788 43.1613 26.4569 43.1313 26.4409C43.1191 26.4344 43.1089 26.4356 43.1002 26.4424C42.9678 26.3621 42.8396 26.2872 42.7146 26.2145C42.0883 25.8499 41.546 25.5345 40.9878 24.8118C40.8823 24.6752 40.7491 24.5483 40.6053 24.4293C40.2177 23.9763 39.8309 23.522 39.4454 23.0672C39.4373 22.909 39.3986 22.7442 39.3277 22.5742C39.1944 22.2551 38.9816 22.0026 38.7305 21.7046C38.5448 21.4843 38.3383 21.239 38.1273 20.9235C37.7727 20.3935 37.3928 19.8651 36.919 19.3141C36.4472 18.7655 35.8914 18.153 35.4882 17.7298C35.2684 17.499 35.099 17.1952 34.941 16.9121C34.7187 16.514 34.5192 16.1568 34.2349 16.1011C34.1441 16.0834 34.0282 16.0943 33.9156 16.1049C33.8353 16.1124 33.7566 16.1194 33.6896 16.1162C33.6059 16.0127 33.5221 15.9093 33.4385 15.8057C33.3483 15.5632 33.1716 15.2231 32.8368 15.0582C32.7507 14.9511 32.6645 14.844 32.5818 14.7402C32.4004 14.5144 32.2237 14.2928 32.0454 14.0693C31.9873 13.9962 31.9285 13.9225 31.8696 13.8485C31.8691 13.8478 31.8685 13.8471 31.868 13.8464C31.7494 13.6976 31.63 13.5476 31.5129 13.3998C31.4627 13.3365 31.4125 13.2732 31.3623 13.2099C31.2348 13.0492 31.1062 12.8873 30.9804 12.7277C30.9138 12.6432 30.8464 12.558 30.779 12.4726C30.6698 12.334 30.5596 12.1944 30.4502 12.0553C30.2732 11.8305 30.0975 11.6062 29.9216 11.3815C29.8929 11.3447 29.874 11.3005 29.8701 11.2581C29.8662 11.2158 29.8773 11.1786 29.9022 11.1538C29.9271 11.1289 29.9645 11.1179 30.0069 11.1219C30.0492 11.126 30.093 11.1451 30.1297 11.1739C30.3539 11.3506 30.5777 11.5274 30.802 11.7051C30.9407 11.815 31.0801 11.9253 31.2183 12.035C31.3035 12.1027 31.3883 12.1702 31.4726 12.2371C31.6317 12.3635 31.7935 12.4926 31.9538 12.6206C32.0169 12.671 32.08 12.7214 32.1431 12.7717C32.2909 12.8896 32.4407 13.0099 32.5895 13.1292C32.5904 13.1299 32.5913 13.1306 32.5922 13.1313C32.6654 13.19 32.7385 13.2486 32.8108 13.3065C33.0338 13.4856 33.2548 13.6632 33.4799 13.8453C33.5967 13.939 33.7177 14.0373 33.838 14.1346C33.9049 14.1889 33.9718 14.2429 34.0375 14.296C34.0734 14.3251 34.1096 14.3546 34.1461 14.3843C34.9848 15.0642 35.8153 15.7416 36.6495 16.4292C37.481 17.114 38.3107 17.8031 39.1354 18.4928C39.962 19.1842 40.7842 19.8773 41.6045 20.5736C44.1665 22.7481 46.7159 24.9444 49.2448 27.1665C50.1828 27.9983 50.0766 29.3628 49.2448 30.3008C46.9514 32.9109 44.6306 35.4992 42.2781 38.0569C41.6177 38.7753 40.9364 39.5089 40.269 40.2232C39.594 40.9451 38.9308 41.6499 38.2483 42.3679C38.0412 42.5862 37.8284 42.8094 37.6097 43.0381Z" fill="black"/>
<circle cx="30.8341" cy="4.89004" r="2.5" transform="rotate(8.2828 30.8341 4.89004)" fill="black"/>
<path d="M25.6597 6.74292C25.2975 5.89492 25.7713 4.97998 25.8794 4.22155C25.8817 4.20431 25.884 4.18704 25.8862 4.16975C25.9922 3.23874 26.0027 1.98568 26.8244 1.22986C27.6275 0.4936 28.6656 0.0660107 29.6875 0.00799421C30.3253 -0.0307141 30.9533 0.0726021 31.5042 0.286931C31.8362 0.415462 32.1482 0.584328 32.4272 0.785171C33.1721 1.31858 33.662 2.07502 33.853 2.82701C33.9854 3.33839 33.9864 3.84946 33.8819 4.29998C33.8364 4.49783 33.7712 4.68394 33.6901 4.85523C33.6296 4.98279 33.5603 5.10284 33.4844 5.21282C33.4737 5.22818 33.4364 5.23932 33.3791 5.24272C33.3217 5.24616 33.2493 5.24168 33.1755 5.2309C33.1016 5.2201 33.0308 5.20393 32.9764 5.18677C32.9223 5.16958 32.8892 5.15283 32.8824 5.13911C32.834 5.03978 32.7786 4.9473 32.7174 4.86378C32.6496 4.77074 32.5748 4.68817 32.496 4.61648C32.796 4.55399 33.0212 4.49069 33.1123 4.42392C33.1589 4.39017 33.172 4.34907 33.1105 4.33732C33.0553 4.32676 32.9628 4.33326 32.875 4.34137C32.7831 4.34981 32.6964 4.36012 32.6623 4.35225C32.6044 4.33866 32.4721 4.35213 32.335 4.37388C32.2851 4.38173 32.2345 4.39057 32.1865 4.39913C32.1046 4.35624 32.0215 4.32317 31.9393 4.29939C31.9571 4.26368 31.9686 4.23079 31.9482 4.22118C31.9298 4.21253 31.8666 4.23368 31.7919 4.26642C31.7794 4.26445 31.767 4.2627 31.7545 4.26116C31.6746 4.25112 31.5972 4.24968 31.5235 4.25628C31.5602 4.1755 31.5858 4.08818 31.5644 4.02425C31.5553 3.9969 31.5635 3.947 31.5683 3.89768C31.5759 3.82524 31.5747 3.75356 31.5232 3.77352C31.4892 3.7871 31.4924 3.7388 31.4919 3.68924C31.4922 3.62331 31.4838 3.55452 31.4075 3.64918C31.3598 3.70882 31.3096 3.78533 31.2658 3.85763C31.1959 3.97261 31.1425 4.07685 31.1283 4.08027C31.1011 4.08645 31.0527 4.17299 31.0168 4.25171C30.9725 4.34611 30.9456 4.42847 30.955 4.33541C30.9563 4.3213 30.9583 4.30257 30.9602 4.28125C30.968 4.20246 30.9734 4.08944 30.9548 4.06087C30.9471 4.04878 30.9358 4.05205 30.9218 4.08008C30.905 4.11358 30.8854 4.20358 30.8709 4.29242C30.8491 4.42174 30.8401 4.54819 30.8326 4.49178C30.8314 4.48335 30.83 4.44802 30.8284 4.41575C30.8264 4.37473 30.8239 4.33894 30.8233 4.37011C30.8216 4.46152 30.8201 4.56261 30.8225 4.67254C30.8242 4.75329 30.8279 4.83885 30.834 4.92852C30.8401 4.97904 30.8553 5.0265 30.8768 5.06872C30.8867 5.0881 30.898 5.1064 30.9103 5.12352C30.8718 4.99138 30.8321 4.87388 30.7986 4.78627C30.7547 4.67185 30.7344 4.63929 30.7059 4.5988C30.6844 4.56925 30.6584 4.53515 30.6042 4.46703C30.5016 4.34185 30.4802 4.39917 30.5181 4.47791C30.5257 4.49476 30.5344 4.51238 30.5444 4.53119C30.5826 4.60209 30.6341 4.68945 30.705 4.77425C30.7733 4.85322 30.7976 4.86705 30.8138 4.87886C30.8224 4.88451 30.8296 4.88856 30.844 4.89599C30.8685 4.90868 30.8916 4.91769 30.9155 4.92442C30.9528 4.93503 30.9921 4.93995 31.0431 4.9484C31.0612 4.95145 31.0837 4.95511 31.1079 4.95814C31.17 4.96623 31.2455 4.96945 31.2955 4.95721C31.2993 4.95628 31.303 4.95525 31.3066 4.95412C31.3583 4.93677 31.326 4.91233 31.2535 4.89719C31.2241 4.89064 31.1072 4.88647 30.9866 4.88824C30.8154 4.88954 30.6373 4.90629 30.6908 4.90577C30.7033 4.90537 30.731 4.90323 30.7601 4.90023C30.8134 4.89499 30.8709 4.88575 30.8456 4.88902C30.8368 4.89023 30.8055 4.89525 30.7749 4.90067C30.7412 4.90659 30.7084 4.913 30.7067 4.91393C30.7003 4.91733 30.7085 4.918 30.7158 4.91795C30.7252 4.91803 30.7329 4.91713 30.7067 4.92628C30.6601 4.94297 30.7037 4.93406 30.7465 4.91992C30.7794 4.90951 30.8119 4.89654 30.806 4.89941C30.7893 4.90818 30.87 4.8787 30.9816 4.79218C31.0236 4.75929 30.96 4.79511 30.8854 4.85098C30.8388 4.8855 30.7877 4.92763 30.753 4.96161C30.7335 4.98102 30.7831 4.93949 30.8269 4.89885C30.8674 4.86165 30.9032 4.82553 30.8823 4.84521C30.8638 4.8626 30.787 4.93954 30.7155 5.01393C30.6357 5.09656 30.5626 5.17609 30.5796 5.16315C30.5885 5.15619 30.6272 5.11793 30.6719 5.07131C30.6896 5.05287 30.7082 5.03323 30.7264 5.01363C30.7117 5.03002 30.6985 5.04469 30.6886 5.0558C30.6181 5.13417 30.5832 5.17753 30.5506 5.2212C30.5375 5.23861 30.5248 5.25595 30.5101 5.27554C30.4558 5.3476 30.4566 5.36722 30.4663 5.36938C30.4703 5.37034 30.4532 5.39838 30.4341 5.4317C30.4171 5.46125 30.3985 5.49503 30.391 5.51696C30.3867 5.52944 30.3716 5.55617 30.3592 5.57862C30.3502 5.59486 30.3427 5.60881 30.3416 5.61311C30.3407 5.61681 30.3587 5.59247 30.3787 5.56493C30.3931 5.54511 30.4087 5.5236 30.4192 5.50978C30.4442 5.47676 30.4534 5.46784 30.4478 5.48006C30.4452 5.48571 30.4393 5.49595 30.4336 5.50617C30.4269 5.51807 30.4201 5.53008 30.4186 5.53481C30.4116 5.5565 30.4352 5.53063 30.4586 5.50299C30.4845 5.47272 30.5098 5.44024 30.5001 5.46985C30.4971 5.47919 30.4881 5.49942 30.4795 5.51916C30.4706 5.53981 30.4623 5.55988 30.4614 5.56595C30.4578 5.59067 30.5009 5.52818 30.5378 5.46917C30.5625 5.43 30.5848 5.39263 30.5919 5.38502C30.605 5.37121 30.646 5.29046 30.6754 5.23042C30.6906 5.19933 30.7029 5.17369 30.7069 5.16608C30.7063 5.16858 30.7055 5.17151 30.7047 5.17468C30.7023 5.18093 30.7 5.18741 30.7013 5.18559C30.7014 5.18545 30.7016 5.18511 30.7017 5.18496C30.6954 5.20616 30.686 5.236 30.6775 5.26606C30.658 5.33344 30.6454 5.40244 30.6684 5.36916C30.6733 5.36196 30.6873 5.32724 30.7008 5.29173C30.7175 5.24825 30.7335 5.2034 30.7344 5.20724C30.7364 5.21638 30.7243 5.27702 30.7159 5.33757C30.7024 5.42843 30.6995 5.51919 30.7295 5.42523C30.7392 5.39419 30.7522 5.34184 30.7641 5.28884C30.7707 5.25931 30.7771 5.22947 30.7826 5.20337C30.7745 5.25218 30.7668 5.298 30.7597 5.34074C30.7449 5.42881 30.7322 5.5042 30.7191 5.56783C30.6884 5.71829 30.6407 5.92429 30.6135 6.07593C30.6063 6.1171 30.5976 6.16285 30.5887 6.20889C30.5666 6.32442 30.5432 6.44229 30.5458 6.49796C30.5471 6.53541 30.5565 6.62222 30.5842 6.5354C30.5901 6.51648 30.5977 6.47832 30.6059 6.4359C30.6098 6.41558 30.6139 6.39427 30.6181 6.37355C30.6295 6.31653 30.6413 6.26407 30.6513 6.2496C30.6536 6.24628 30.656 6.24332 30.6585 6.24059C30.6681 6.22969 30.6788 6.21756 30.6891 6.15597C30.701 6.08503 30.7093 6.00316 30.7194 5.90777C30.7324 5.78349 30.7496 5.63611 30.7731 5.45876C30.7777 5.42369 30.7803 5.41178 30.7822 5.40274C30.7835 5.39637 30.7845 5.39126 30.7857 5.38068C30.787 5.36853 30.7893 5.34321 30.7924 5.31119C30.803 5.19817 30.8242 5.00099 30.8263 4.99275C30.827 4.99055 30.8266 5 30.8264 5.00854C30.8261 5.02113 30.8261 5.03153 30.8286 4.99918C30.8295 4.9869 30.8305 4.9736 30.8315 4.95981C30.8316 4.96373 30.8317 4.96764 30.8319 4.97156C30.8301 5.0102 30.8315 5.00697 30.8327 5.00271C30.8331 5.00168 30.8334 5.00073 30.8337 5.00018C30.8344 5.00822 30.8353 5.0162 30.8363 5.02436C30.8371 5.04077 30.838 5.0675 30.8402 5.10988C30.8444 5.19483 30.8537 5.33484 30.8684 5.47133C30.8745 5.52884 30.8816 5.58585 30.8891 5.63778C30.8881 5.6443 30.8872 5.65197 30.8868 5.66249C30.8839 5.73442 30.8876 5.87528 30.8897 6.00501C30.8911 6.0913 30.8919 6.17268 30.8889 6.22531C30.8834 6.32173 30.8873 6.43408 30.891 6.51714C30.8929 6.56023 30.8944 6.59553 30.8935 6.61655C30.8928 6.63339 30.8901 6.64138 30.8872 6.64966C30.8847 6.65687 30.8821 6.6644 30.8806 6.67799C30.862 6.84302 30.8681 6.93843 30.8832 7.07722C30.8914 7.15376 30.9017 7.24351 30.9093 7.36545C30.9165 7.49456 30.9169 7.53244 30.9007 7.58435C30.9158 7.64786 30.9319 7.71125 30.9489 7.77449C30.9544 7.77012 30.9572 7.73005 30.9601 7.66353C30.9654 7.54475 30.995 7.4999 31.0173 7.46437C31.0277 7.44794 31.0364 7.43351 31.0405 7.41496C31.0617 7.31626 31.04 7.18305 31.0237 7.06567C31.0146 7.00107 31.0066 6.94122 31.005 6.89483C31.0044 6.87498 31.0013 6.85549 30.9982 6.8356C30.9959 6.82023 30.9935 6.8046 30.9921 6.78842C30.9823 6.67096 30.9873 6.58277 30.9896 6.50093C30.991 6.45406 30.9918 6.40911 30.9897 6.36205C30.9891 6.34771 30.9882 6.33311 30.9873 6.31893C30.9861 6.29823 30.9848 6.2785 30.9843 6.26153C30.9832 6.22288 30.9863 6.19639 30.9893 6.16751C30.9908 6.1527 30.9923 6.13724 30.9931 6.11915C30.9942 6.09569 30.9894 6.04929 30.9843 6.00084C30.9807 5.9666 30.9769 5.93134 30.9746 5.90218C30.9705 5.84945 30.9735 5.82976 30.9761 5.81147C30.9772 5.80351 30.9781 5.79561 30.9784 5.78557C30.9785 5.78149 30.9776 5.77352 30.9759 5.76265C30.9781 5.72491 30.9788 5.68651 30.9785 5.649C30.9785 5.46019 30.9434 5.30349 31.007 5.405C31.0196 5.42396 31.0245 5.41752 31.0242 5.39883C31.0594 5.43495 31.0998 5.4695 31.1451 5.50129C31.1981 5.59348 31.2465 5.66884 31.2891 5.72531C31.3694 5.83113 31.405 5.84304 31.4461 5.85619C31.4769 5.86563 31.5111 5.87582 31.5785 5.91826C31.6918 5.98946 31.8061 6.03272 31.8954 6.02402C31.9842 6.01589 32.0723 5.97938 32.1218 5.94081C32.1486 5.92033 32.2451 5.95083 32.3382 5.9729C32.4685 6.00506 32.5923 6.01919 32.4707 5.90864C32.4317 5.8734 32.3598 5.8191 32.2892 5.76751C32.2389 5.73075 32.1895 5.69536 32.153 5.66831C32.1715 5.66454 32.1899 5.6603 32.2087 5.6558C32.3136 5.68904 32.4365 5.70381 32.3448 5.61712C32.3644 5.61065 32.3839 5.60375 32.4034 5.59693C32.4447 5.58145 32.486 5.56492 32.5275 5.54628C32.5411 5.54024 32.5548 5.53388 32.5686 5.52729C32.5687 5.52723 32.5689 5.52717 32.569 5.52712C32.5967 5.51388 32.6244 5.49981 32.652 5.4851C32.6638 5.4788 32.6755 5.47233 32.6873 5.46569C32.7171 5.44889 32.7468 5.43104 32.7764 5.41248C32.7921 5.40271 32.8078 5.39232 32.8235 5.38197C32.849 5.36506 32.8744 5.34718 32.8998 5.32861C32.9408 5.29835 32.9814 5.26718 33.0217 5.23325C33.0283 5.22774 33.047 5.22426 33.0746 5.22362C33.1022 5.22299 33.1363 5.2252 33.1711 5.23027C33.2059 5.23534 33.2394 5.24304 33.2655 5.25208C33.2914 5.2611 33.3077 5.27069 33.312 5.27879C33.3383 5.32841 33.3629 5.37857 33.3855 5.43133C33.3994 5.46378 33.4129 5.49686 33.4255 5.5301C33.4333 5.55051 33.4405 5.5714 33.4477 5.59213C33.4612 5.63135 33.4737 5.67164 33.485 5.71235C33.4894 5.72843 33.4938 5.7446 33.498 5.76084C33.5078 5.79891 33.5165 5.83773 33.5243 5.877C33.5244 5.87723 33.5244 5.87747 33.5244 5.87771C33.5283 5.89706 33.5319 5.91649 33.5354 5.93581C33.5457 5.99528 33.554 6.05526 33.5595 6.11715C33.5629 6.14941 33.5651 6.18266 33.5668 6.21628C33.5678 6.23498 33.5686 6.25374 33.5693 6.27224C33.5695 6.28229 33.5697 6.29245 33.5697 6.30268C33.5742 6.53905 33.5462 6.78281 33.4822 7.02698C33.4189 7.2705 33.3206 7.51306 33.1896 7.74486C33.0581 7.97708 32.8936 8.19861 32.6985 8.40161C32.0945 9.03847 31.1664 9.48936 30.1546 9.55712C29.1138 9.63867 27.9554 9.29531 27.0538 8.5685C26.7994 8.36606 26.5593 8.12819 26.3493 7.87196C26.1373 7.61281 25.9535 7.33536 25.7968 7.0319C25.7491 6.93993 25.7032 6.84346 25.6597 6.74292Z" fill="black"/>
<path d="M25.3403 50.0632C26.8776 49.9654 28.3571 50.8882 29.8996 50.89C31.8149 50.8923 33.7606 50.0105 35.6803 50.1747C37.5888 50.3389 39.5066 50.5748 41.4183 50.8656C43.3321 51.1564 45.2431 51.502 47.1579 51.8849C49.0687 52.2677 50.9835 52.6877 52.8958 53.1284C54.1946 53.4278 55.4949 53.7368 56.7936 54.0496C57.3637 54.1867 57.9322 54.3245 58.502 54.4627C58.9271 54.5661 59.3522 54.6694 59.7773 54.7728C59.8364 54.7874 59.893 54.8465 59.9348 54.9404C59.9765 55.0344 60.0001 55.1547 60 55.2791C59.9999 55.4036 59.9762 55.5242 59.9343 55.6179C59.8924 55.7113 59.8357 55.7696 59.7766 55.7836C59.3479 55.8837 58.9192 55.9838 58.4905 56.0839C58.0144 56.195 57.539 56.3063 57.063 56.4166C56.9881 55.9061 56.8852 55.5189 56.6924 55.348C56.5941 55.2607 56.4506 55.2245 56.345 55.3193C56.2502 55.4045 56.1787 55.5565 56.1109 55.7013C56.0399 55.8528 55.9725 55.9966 55.8859 56.0474C55.7388 56.1336 55.599 56.3504 55.4521 56.5781C55.3987 56.6609 55.3443 56.7454 55.2883 56.8254C54.8339 56.9292 54.3794 57.0322 53.925 57.1343C53.7495 57.08 53.5882 57.036 53.4513 57.0569C53.3285 57.0757 53.216 57.1836 53.104 57.3177C53.0337 57.3333 52.9634 57.349 52.893 57.3646C52.439 57.4651 51.9849 57.564 51.5307 57.6619C51.1763 57.5257 50.8049 57.3935 50.322 57.3354C50.1139 57.3103 49.9085 57.2367 49.7111 57.166C49.4195 57.0616 49.1453 56.9635 48.9048 57.0368C48.744 57.0859 48.5749 57.0137 48.4063 56.9418C48.1801 56.8453 47.9543 56.749 47.7496 56.9454C47.6209 57.069 47.5027 57.2192 47.3932 57.3585C47.2191 57.5802 47.0669 57.7741 46.9291 57.7874C46.6702 57.8125 46.446 57.974 46.2484 58.1164C46.0107 58.2878 45.8114 58.4315 45.6363 58.2767C45.6098 58.2532 45.5794 58.222 45.5452 58.1865C45.3651 57.9995 45.0769 57.7004 44.6631 57.8648C44.5158 57.9234 44.3775 58.0756 44.242 58.2249C44.0448 58.4423 43.8532 58.6533 43.6481 58.5594C43.6174 58.5453 43.5854 58.4864 43.5563 58.4327C43.5192 58.3643 43.4869 58.3046 43.4677 58.3565C43.4115 58.5088 43.3222 58.6772 43.2253 58.8604C43.1541 58.995 43.0786 59.1377 43.009 59.2875C42.4775 59.3721 41.9459 59.4532 41.4142 59.5299C41.1706 59.5651 40.9269 59.5995 40.6831 59.6329C40.5585 59.4036 40.431 59.197 40.2963 59.0407C40.1203 58.8364 39.8921 58.7739 39.598 58.6928C39.3816 58.6332 39.1293 58.5634 38.8358 58.4205C38.2925 58.1559 37.7344 58.2152 37.3767 58.3571C37.3011 58.3871 37.225 58.4191 37.1437 58.454C36.8352 58.5861 36.4503 58.7516 35.7192 58.9341C35.0275 59.1067 34.4394 59.1515 33.9975 59.1851C33.772 59.2023 33.5845 59.2161 33.4409 59.243C33.1951 59.289 32.8933 59.33 32.5904 59.3709C32.1162 59.435 31.6392 59.4992 31.369 59.5848C31.2729 59.6152 31.172 59.6529 31.063 59.6932C30.7611 59.8048 30.3964 59.9395 29.8937 60.0174C29.366 60.099 29.0389 60.0433 28.6992 59.9223C28.5611 59.8731 28.4392 59.6786 28.3137 59.4775C28.1356 59.1923 27.9498 58.8946 27.6985 58.9834C27.6398 59.0042 27.5772 59.0505 27.5117 59.0992C27.3914 59.1886 27.2613 59.2855 27.1281 59.243C27.0817 59.2282 27.0407 59.1753 27.0006 59.1236C26.9565 59.0666 26.9132 59.0109 26.8642 59.0078C26.6811 58.9962 26.503 59.0094 26.3447 59.0212C26.1405 59.0364 25.9693 59.0491 25.8631 59.0029C25.6737 58.9206 25.4667 58.9943 25.257 59.0693C25.0969 59.1267 24.9351 59.185 24.7784 59.1741C24.3308 59.1431 23.7153 59.2836 23.081 59.5178C22.8411 59.6063 22.6378 59.4854 22.3772 59.3301C22.2152 59.2335 22.031 59.1233 21.8021 59.0425C21.6723 58.9968 21.5623 59.1045 21.4606 59.204C21.3668 59.2957 21.2799 59.3804 21.1907 59.3325C21.112 59.2902 21.0622 59.1091 21.0149 58.9371C20.9623 58.7457 20.9128 58.5657 20.83 58.6008C20.7859 58.6195 20.7324 58.7101 20.6686 58.8177C20.6434 58.8603 20.6165 58.9053 20.5881 58.9499C20.5895 58.9132 20.5899 58.8803 20.5899 58.8555C20.59 58.6798 20.5055 58.5873 20.4226 58.4966C20.3895 58.4604 20.3565 58.4247 20.3294 58.3839C20.2298 58.2338 20.0411 58.2094 19.8969 58.2164C19.8358 58.2193 19.7806 58.1648 19.716 58.1012C19.6588 58.0448 19.5942 57.9811 19.5119 57.944C19.4649 57.9229 19.4289 57.872 19.399 57.8295C19.3775 57.7987 19.3591 57.7724 19.342 57.7655C19.3273 57.7596 19.3154 57.8099 19.302 57.8667C19.2924 57.9075 19.2819 57.9517 19.269 57.9806C19.2383 58.0496 19.1988 58.0704 19.1711 58.0482C19.1583 58.038 19.1482 58.0184 19.1381 57.9989C19.1264 57.9761 19.1148 57.9533 19.0987 57.9452C19.0252 57.9086 18.9536 57.966 18.8792 58.0257C18.7975 58.0912 18.7123 58.1594 18.6174 58.1085C18.5875 58.0925 18.5557 58.0558 18.5249 58.0202C18.4927 57.9829 18.4614 57.9469 18.4348 57.9373C18.3266 57.8984 18.225 58.024 18.1315 58.1396C18.0693 58.2165 18.0106 58.2887 17.9562 58.3053C17.8563 58.3356 17.8027 58.4864 17.7632 58.5978C17.7428 58.6555 17.726 58.7028 17.7085 58.7172C17.6925 58.713 17.6762 58.708 17.6602 58.7026C17.6456 58.6915 17.6305 58.68 17.6163 58.6837C17.6152 58.684 17.6141 58.6846 17.6131 58.6849C17.5238 58.6483 17.4361 58.5965 17.3489 58.5448C17.1532 58.4286 16.9599 58.3136 16.7555 58.3784C16.7114 58.3924 16.6665 58.4547 16.6209 58.518C16.5649 58.5955 16.5077 58.6748 16.4494 58.6691C16.3105 58.6555 16.1703 58.5527 16.0322 58.4515C15.8245 58.2993 15.6214 58.1507 15.4348 58.3139C15.3732 58.3677 15.3131 58.4574 15.2529 58.5478C15.2193 58.5982 15.1855 58.649 15.1515 58.6934C15.1587 58.6109 15.1625 58.5335 15.1661 58.4613C15.1735 58.3125 15.1799 58.1851 15.2126 58.0768C15.2899 57.8211 15.3775 57.4691 15.3678 57.2123C15.3651 57.1426 15.3672 57.065 15.3696 56.9869C15.3754 56.7908 15.3814 56.5906 15.3096 56.5001C15.2612 56.4391 15.1369 56.299 15.0578 56.4489C15.0406 56.4816 15.0301 56.5463 15.0185 56.6183C14.9975 56.7476 14.9726 56.9007 14.8976 56.9363C14.885 56.9423 14.8713 56.9477 14.8571 56.9528C14.8006 56.9729 14.7373 56.995 14.7136 57.099C14.6864 57.2187 14.6922 57.3558 14.699 57.5157C14.7078 57.7239 14.7183 57.9713 14.6596 58.2694C14.648 58.3283 14.6258 58.3485 14.609 58.3638C14.5972 58.3746 14.5882 58.3832 14.5873 58.401C14.5863 58.4213 14.59 58.4637 14.5948 58.5173C14.6118 58.7065 14.6412 59.037 14.5184 59.0511C14.4852 59.0548 14.4472 59.0391 14.4131 59.0249C14.3629 59.0039 14.3212 58.9866 14.3156 59.0407C14.3135 59.0612 14.312 59.0835 14.3108 59.1065C14.2708 59.1 14.2308 59.0935 14.1908 59.087C14.1396 59.0225 14.0676 59.0281 13.9778 59.0352C13.956 59.037 13.933 59.0386 13.9091 59.0395C13.8302 59.0261 13.7513 59.0129 13.6724 58.9993C13.6099 58.9719 13.5433 58.9274 13.4731 58.8567C13.3323 58.715 13.2098 58.4814 13.0902 58.2529C13.0397 58.1567 12.9898 58.0611 12.9391 57.9739C12.9588 57.9632 12.9766 57.9505 12.9904 57.9331C13.0842 57.8137 13.1219 57.5789 13.1565 57.3628C13.1796 57.219 13.2013 57.0835 13.2373 56.996C13.3033 56.8358 13.2966 56.6484 13.2918 56.5098C13.2893 56.4379 13.2874 56.3791 13.2962 56.3441C13.3032 56.3161 13.3196 56.3029 13.3364 56.2893C13.3511 56.2774 13.3663 56.2649 13.376 56.2424C13.4939 55.968 13.4585 55.8088 13.4069 55.577C13.3785 55.4492 13.3453 55.2992 13.33 55.0957C13.3169 54.8802 13.3213 54.8172 13.3831 54.7314C13.335 54.625 13.2868 54.5185 13.2387 54.4121C13.2198 54.419 13.2055 54.4856 13.1854 54.5961C13.1494 54.7935 13.0324 54.8657 12.9409 54.9221C12.8986 54.9482 12.8617 54.971 12.8409 55.0013C12.7303 55.1623 12.7624 55.3865 12.7908 55.5837C12.8064 55.6923 12.8208 55.7928 12.8096 55.8701C12.8048 55.9031 12.8116 55.9359 12.8185 55.9694C12.8238 55.9953 12.8292 56.0216 12.8295 56.0486C12.8309 56.2451 12.7655 56.3909 12.7047 56.5263C12.6699 56.6038 12.6368 56.6782 12.6184 56.7566C12.6129 56.7805 12.6084 56.8048 12.6042 56.8285C12.5982 56.863 12.5922 56.8959 12.583 56.9241C12.5618 56.9884 12.5183 57.0317 12.4706 57.0789C12.4461 57.1031 12.4206 57.1283 12.3964 57.1581C12.3651 57.1966 12.3539 57.2743 12.3419 57.3555C12.3335 57.4128 12.3247 57.4719 12.3085 57.5206C12.2792 57.6086 12.22 57.6404 12.165 57.6699C12.1411 57.6827 12.1179 57.6955 12.0984 57.7119C12.0905 57.7186 12.0867 57.732 12.0858 57.7503C11.9956 57.8118 11.9094 57.8746 11.8256 57.9361C11.4052 58.2445 11.0413 58.512 10.4979 58.3181C10.3951 58.2815 10.2848 58.2888 10.1733 58.3181C9.81665 58.2411 9.4598 58.1615 9.10328 58.0799C9.03271 57.9029 8.94639 57.7542 8.84419 57.6376C8.65226 57.4185 8.45483 57.3717 8.22186 57.3165C8.04962 57.2756 7.85793 57.23 7.63455 57.1069C7.25926 56.9 6.87392 56.725 6.43911 56.6341C6.00619 56.5436 5.51055 56.4768 5.15989 56.4532C4.96874 56.4402 4.76795 56.2819 4.58082 56.1345C4.3176 55.9272 4.08141 55.7414 3.93721 56.0108C3.89116 56.0969 3.84664 56.2464 3.80331 56.3916C3.77246 56.495 3.74203 56.596 3.71222 56.6713C3.63285 56.6479 3.55339 56.6248 3.47396 56.6012C3.33283 56.4217 3.11352 56.2292 2.90152 56.4294C2.81959 56.4047 2.73761 56.38 2.65845 56.3551C2.48573 56.3028 2.31674 56.2499 2.14622 56.1967C2.09056 56.179 2.03434 56.1614 1.97799 56.1437C1.97746 56.1434 1.97692 56.1432 1.97639 56.143C1.86296 56.1073 1.74867 56.0714 1.63627 56.0352C1.58813 56.0198 1.53999 56.0043 1.49185 55.9889C1.36951 55.9497 1.24628 55.9104 1.12518 55.8707C1.06108 55.8496 0.996369 55.8286 0.931546 55.8073C0.826381 55.7728 0.720421 55.7381 0.615003 55.7032C0.44452 55.6467 0.274836 55.5895 0.104828 55.532C0.0770242 55.5224 0.0503059 55.4926 0.0306701 55.4473C0.0110414 55.4019 -3.0007e-05 55.345 6.10806e-08 55.2864C3.85052e-05 55.2278 0.0112035 55.1708 0.030899 55.1256C0.0505814 55.0805 0.0772725 55.0514 0.105056 55.0421C0.275186 54.9861 0.445087 54.9307 0.61569 54.8758C0.721127 54.8418 0.827049 54.8076 0.932232 54.774C0.997086 54.7533 1.06174 54.733 1.12587 54.7125C1.24698 54.6739 1.37041 54.6354 1.49276 54.5973C1.5409 54.5823 1.58904 54.5673 1.63719 54.5523C1.74988 54.517 1.86449 54.4822 1.97822 54.4475C1.9789 54.4473 1.97959 54.4471 1.98028 54.4469C2.03623 54.4298 2.09209 54.4126 2.14736 54.3957C2.31795 54.344 2.48704 54.2928 2.65983 54.2421C2.7491 54.2148 2.84213 54.1881 2.93448 54.1611C2.9859 54.1461 3.03722 54.131 3.0876 54.116C3.11515 54.1081 3.14307 54.1002 3.17115 54.0923C3.81542 53.9049 4.45516 53.7247 5.10084 53.5518C5.74411 53.379 6.38851 53.2132 7.03099 53.0541C7.67503 52.8949 8.31794 52.7426 8.96138 52.5965C13.0449 51.6687 17.1447 50.9079 21.2463 50.4318C21.8314 50.3634 22.4317 50.3018 23.0179 50.2466C23.6105 50.1913 24.1909 50.1423 24.7851 50.1004C24.9655 50.0873 25.1505 50.075 25.3403 50.0632Z" fill="black"/>
</svg>
