<svg width="51" height="68" viewBox="0 0 51 68" fill="none" xmlns="http://www.w3.org/2000/svg">
<path d="M40.0815 17.2991C39.9882 16.5299 40.9153 15.7956 40.9216 15.0243C40.9295 14.0667 40.0534 13.0888 40.2232 12.1299C40.393 11.1766 40.6345 10.2191 40.9309 9.26495C41.2273 8.30975 41.5785 7.35628 41.9669 6.40113C42.3554 5.44802 42.7809 4.49306 43.2272 3.53954C43.5303 2.89187 43.8431 2.24355 44.1598 1.59604C44.2986 1.31178 44.4379 1.02838 44.5778 0.744283C44.6825 0.532336 44.7871 0.320388 44.8917 0.108444C44.9064 0.0789814 44.9657 0.0510148 45.0597 0.0306898C45.1538 0.0103695 45.2742 -0.000700793 45.3986 5.49452e-05C45.5231 0.000820636 45.6436 0.0133893 45.7372 0.0348792C45.8305 0.056358 45.8886 0.0850663 45.9024 0.114696C46.0013 0.329622 46.1002 0.544553 46.199 0.759483C46.3087 0.998211 46.4186 1.23652 46.5275 1.47518C46.0168 1.50967 45.6293 1.55884 45.4578 1.65421C45.3703 1.70288 45.3336 1.77439 45.4281 1.82776C45.5131 1.87568 45.6648 1.91229 45.8095 1.94706C45.9607 1.98343 46.1043 2.01794 46.1549 2.06158C46.2407 2.13563 46.457 2.2068 46.6843 2.28154C46.767 2.30874 46.8513 2.33644 46.9311 2.36493C47.0336 2.59273 47.1353 2.82055 47.236 3.04833C47.1812 3.13577 47.1367 3.21619 47.1573 3.28476C47.1757 3.34627 47.2832 3.40313 47.417 3.45989C47.4325 3.49515 47.4479 3.53041 47.4633 3.56568C47.5625 3.79325 47.66 4.0209 47.7567 4.24855C47.6194 4.42494 47.4861 4.60988 47.4266 4.85099C47.4009 4.95491 47.3267 5.05715 47.2554 5.15544C47.1502 5.30062 47.0512 5.43718 47.1239 5.55785C47.1725 5.63851 47.0998 5.72263 47.0274 5.80654C46.9302 5.91908 46.8333 6.03141 47.0291 6.13489C47.1523 6.19995 47.3022 6.25994 47.4412 6.31548C47.6623 6.40387 47.8558 6.48109 47.8687 6.55007C47.893 6.67966 48.0538 6.79271 48.1957 6.89234C48.3664 7.01217 48.5095 7.11266 48.3542 7.19928C48.3306 7.21241 48.2993 7.22741 48.2637 7.2443C48.0762 7.33331 47.7763 7.47565 47.9395 7.68347C47.9976 7.75745 48.1494 7.82752 48.2983 7.89614C48.5151 7.99603 48.7256 8.09304 48.631 8.19506C48.6169 8.2103 48.5579 8.22596 48.5041 8.24021C48.4356 8.25833 48.3758 8.27417 48.4276 8.28405C48.5798 8.31305 48.7479 8.35866 48.9308 8.40819C49.0652 8.44458 49.2076 8.48316 49.3572 8.51883C49.4403 8.78507 49.5199 9.05133 49.5951 9.31765C49.6296 9.43966 49.6632 9.5617 49.6959 9.68377C49.4662 9.74476 49.2593 9.80731 49.1026 9.87371C48.8978 9.96052 48.8346 10.0743 48.7526 10.2208C48.6924 10.3287 48.6219 10.4544 48.4781 10.6003C48.2119 10.8704 48.2696 11.1498 48.4104 11.3295C48.4402 11.3675 48.472 11.4057 48.5066 11.4466C48.6379 11.6016 48.8022 11.795 48.9826 12.1616C49.1532 12.5084 49.1962 12.8028 49.2285 13.0239C49.2451 13.1368 49.2583 13.2306 49.2848 13.3026C49.3301 13.4257 49.3702 13.5768 49.4103 13.7286C49.4729 13.966 49.5357 14.2049 49.6205 14.3405C49.6507 14.3887 49.6881 14.4394 49.7281 14.4941C49.8388 14.6457 49.9724 14.8289 50.0488 15.0807C50.1289 15.345 50.0723 15.5082 49.9503 15.6774C49.9007 15.7461 49.7057 15.8059 49.5044 15.8675C49.2186 15.9548 48.9204 16.046 49.0085 16.1722C49.029 16.2016 49.0752 16.2332 49.1237 16.2662C49.2127 16.3269 49.3092 16.3925 49.2663 16.4589C49.2514 16.482 49.1985 16.5022 49.1466 16.5219C49.0895 16.5437 49.0337 16.565 49.0304 16.5895C49.0183 16.6809 49.0309 16.7701 49.0423 16.8493C49.0569 16.9515 49.0691 17.0371 49.0226 17.09C48.9397 17.1842 49.0128 17.2881 49.0872 17.3934C49.1441 17.4738 49.2019 17.5551 49.1906 17.6333C49.1583 17.8569 49.297 18.1655 49.5293 18.484C49.6171 18.6045 49.4956 18.7054 49.3396 18.8348C49.2425 18.9152 49.1317 19.0067 49.0503 19.1207C49.0042 19.1853 49.1116 19.2409 49.2108 19.2924C49.3022 19.3398 49.3867 19.3838 49.3386 19.4281C49.296 19.4672 49.1148 19.491 48.9426 19.5136C48.7511 19.5388 48.5709 19.5625 48.6058 19.6041C48.6244 19.6263 48.7148 19.6536 48.8222 19.6861C48.8647 19.6989 48.9097 19.7127 48.9542 19.7271C48.9175 19.7262 48.8846 19.7258 48.8598 19.7257C48.6841 19.7246 48.5913 19.7663 48.5004 19.8072C48.4641 19.8236 48.4283 19.8398 48.3874 19.8531C48.237 19.9021 48.2121 19.9963 48.2186 20.0685C48.2213 20.099 48.1667 20.1263 48.1029 20.1582C48.0463 20.1865 47.9824 20.2184 47.9452 20.2594C47.9239 20.2827 47.8729 20.3004 47.8303 20.3151C47.7995 20.3257 47.7731 20.3347 47.7661 20.3432C47.7602 20.3506 47.8105 20.3568 47.8672 20.3638C47.908 20.3689 47.9522 20.3744 47.981 20.381C48.0499 20.3968 48.0706 20.4166 48.0483 20.4304C48.0381 20.4367 48.0184 20.4416 47.9989 20.4465C47.9761 20.4523 47.9532 20.4579 47.9452 20.4659C47.9083 20.5025 47.9655 20.5386 48.0249 20.5761C48.0903 20.6174 48.1582 20.6604 48.107 20.7075C48.0909 20.7224 48.0541 20.7381 48.0184 20.7533C47.9811 20.7692 47.945 20.7846 47.9353 20.7979C47.8961 20.8517 48.0214 20.9032 48.1367 20.9507C48.2134 20.9822 48.2855 21.012 48.3019 21.0393C48.3319 21.0894 48.4825 21.1171 48.5938 21.1375C48.6514 21.1481 48.6987 21.1567 48.713 21.1655C48.7088 21.1735 48.7037 21.1817 48.6983 21.1896C48.6871 21.1968 48.6756 21.2043 48.6792 21.2115C48.6795 21.212 48.6802 21.2125 48.6805 21.2131C48.6436 21.2575 48.5915 21.301 48.5396 21.3443C48.4228 21.4415 48.3073 21.5375 48.3715 21.6401C48.3853 21.6622 48.4475 21.685 48.5106 21.7082C48.588 21.7366 48.6671 21.7657 48.6612 21.7948C48.6472 21.8641 48.5441 21.9337 48.4425 22.0021C48.2897 22.1051 48.1404 22.2057 48.3031 22.3C48.3567 22.3311 48.4462 22.3617 48.5365 22.3924C48.5868 22.4094 48.6375 22.4266 48.6818 22.4439C48.5993 22.4398 48.5219 22.4374 48.4497 22.4352C48.3009 22.4307 48.1735 22.4267 48.0654 22.4097C47.8099 22.3696 47.4581 22.3237 47.2013 22.3271C47.1316 22.328 47.054 22.3265 46.9759 22.3249C46.7799 22.3208 46.5797 22.3166 46.4889 22.352C46.4278 22.3758 46.2873 22.4372 46.437 22.4776C46.4696 22.4864 46.5344 22.492 46.6063 22.4983C46.7355 22.5095 46.8885 22.5229 46.924 22.5605C46.9299 22.5669 46.9353 22.5738 46.9403 22.5809C46.9602 22.6093 46.9822 22.6411 47.0861 22.6535C47.2057 22.6678 47.3429 22.6657 47.5028 22.6633C47.711 22.6601 47.9584 22.6563 48.2563 22.6873C48.3152 22.6935 48.3353 22.7047 48.3506 22.7132C48.3614 22.7192 48.37 22.7237 48.3877 22.7243C48.4081 22.7249 48.4505 22.7233 48.5041 22.7212C48.6933 22.7138 49.0239 22.7011 49.0376 22.7625C49.0412 22.7792 49.0254 22.7981 49.0111 22.815C48.99 22.84 48.9726 22.8607 49.0266 22.8639C49.0471 22.865 49.0694 22.8659 49.0924 22.8666C49.0858 22.8866 49.0792 22.9065 49.0726 22.9265C49.0079 22.9518 49.0133 22.9878 49.0202 23.0327C49.0218 23.0437 49.0234 23.0552 49.0242 23.0671C49.0106 23.1065 48.9971 23.1458 48.9833 23.1852C48.9558 23.2163 48.9111 23.2493 48.8402 23.284C48.6981 23.3536 48.4641 23.4135 48.2353 23.472C48.1389 23.4966 48.0432 23.521 47.9558 23.5459C47.9451 23.5359 47.9325 23.5269 47.9151 23.52C47.7961 23.4724 47.5614 23.4521 47.3454 23.4336C47.2017 23.4212 47.0662 23.4095 46.9788 23.391C46.8188 23.3571 46.6314 23.3593 46.4928 23.3609C46.4209 23.3618 46.362 23.3624 46.3271 23.3578C46.2991 23.3541 46.286 23.3459 46.2724 23.3373C46.2605 23.3299 46.2481 23.3223 46.2256 23.3173C45.9516 23.2567 45.7923 23.2735 45.5604 23.2979C45.4325 23.3114 45.2824 23.3271 45.0788 23.3336C44.8633 23.3389 44.8003 23.3363 44.7146 23.3049C44.6081 23.3283 44.5015 23.3518 44.395 23.3752C44.4018 23.3847 44.4683 23.3923 44.5788 23.403C44.7761 23.4221 44.8479 23.481 44.9041 23.5271C44.93 23.5484 44.9528 23.567 44.983 23.5776C45.1436 23.6338 45.3679 23.6191 45.5653 23.606C45.6739 23.5989 45.7744 23.5923 45.8517 23.5983C45.8847 23.6009 45.9175 23.5977 45.951 23.5944C45.9769 23.5919 46.0032 23.5894 46.0302 23.5894C46.2267 23.5898 46.3723 23.6234 46.5075 23.6546C46.585 23.6724 46.6593 23.6894 46.7376 23.6991C46.7614 23.702 46.7858 23.7044 46.8094 23.7066C46.8439 23.7098 46.8768 23.713 46.905 23.7178C46.9692 23.7287 47.0124 23.7507 47.0594 23.7749C47.0836 23.7873 47.1088 23.8002 47.1384 23.8124C47.1769 23.8283 47.2545 23.8344 47.3357 23.8408C47.393 23.8454 47.452 23.8501 47.5007 23.8585C47.5886 23.8737 47.6202 23.9035 47.6495 23.9311C47.6623 23.9432 47.675 23.9548 47.6914 23.9647C47.698 23.9687 47.7114 23.9707 47.7297 23.9712C47.7909 24.0166 47.8535 24.0601 47.9148 24.1024C48.222 24.3144 48.4883 24.4979 48.2929 24.7685C48.2559 24.8196 48.2629 24.8748 48.2919 24.9307C48.2138 25.1086 48.1332 25.2866 48.0506 25.4644C47.8734 25.4986 47.7245 25.5409 47.6075 25.5913C47.3879 25.686 47.3406 25.7844 47.2846 25.9006C47.2433 25.9865 47.1971 26.082 47.0733 26.193C46.8654 26.3795 46.6893 26.5711 46.5971 26.788C46.5053 27.0039 46.4371 27.2513 46.4124 27.4265C46.3989 27.522 46.2399 27.6215 46.092 27.7142C45.884 27.8446 45.6975 27.9616 45.9665 28.0352C46.0524 28.0588 46.2018 28.0819 46.3469 28.1044C46.4502 28.1205 46.5511 28.1363 46.6262 28.1516C46.6027 28.1911 46.5793 28.2307 46.5555 28.2703C46.3755 28.3398 46.1824 28.4484 46.382 28.5555C46.357 28.5964 46.3322 28.6372 46.307 28.6766C46.2542 28.7627 46.2008 28.8469 46.1471 28.9318C46.1293 28.9595 46.1115 28.9875 46.0936 29.0156C46.0934 29.0159 46.0932 29.0161 46.0929 29.0164C46.0569 29.0729 46.0206 29.1299 45.9841 29.1858C45.9685 29.2098 45.953 29.2338 45.9374 29.2578C45.8979 29.3187 45.8582 29.3801 45.8181 29.4404C45.7968 29.4723 45.7757 29.5046 45.7542 29.5369C45.7194 29.5892 45.6843 29.642 45.6491 29.6945C45.5921 29.7794 45.5345 29.8639 45.4764 29.9486C45.4668 29.9625 45.4368 29.9756 45.3915 29.9852C45.3461 29.9947 45.2892 29.9999 45.2306 29.9996C45.1719 29.9992 45.115 29.9933 45.0698 29.9832C45.0248 29.9731 44.9957 29.9596 44.9866 29.9456C44.931 29.8602 44.8761 29.775 44.8217 29.6893C44.7881 29.6364 44.7541 29.5833 44.7209 29.5305C44.7004 29.4979 44.6803 29.4655 44.6599 29.4333C44.6217 29.3725 44.5835 29.3106 44.5459 29.2492C44.531 29.225 44.5161 29.2009 44.5012 29.1767C44.4663 29.1202 44.4318 29.0627 44.3974 29.0056C44.3972 29.0052 44.397 29.0049 44.3968 29.0046C44.3799 28.9765 44.3629 28.9484 44.3461 28.9207C44.2949 28.8351 44.2442 28.7503 44.1941 28.6636C44.167 28.6188 44.1406 28.5721 44.1138 28.5258C44.099 28.5 44.084 28.4742 44.0692 28.449C44.0613 28.4351 44.0535 28.4211 44.0457 28.4071C43.8603 28.0838 43.6819 27.7629 43.5109 27.4391C43.3399 27.1164 43.1761 26.7933 43.0188 26.4711C42.8615 26.1482 42.7111 25.8258 42.5669 25.5032C41.651 23.4561 40.9022 21.4018 40.4381 19.3482C40.3715 19.0553 40.3116 18.7548 40.2581 18.4614C40.2046 18.1648 40.1572 17.8743 40.117 17.5769C40.1045 17.4866 40.0927 17.3941 40.0815 17.2991Z" fill="black"/>
<path d="M13.0073 47.2461C12.9095 46.3493 13.8323 45.4863 13.834 44.5865C13.8363 43.4693 12.9545 42.3343 13.1188 41.2145C13.283 40.1011 13.5189 38.9824 13.8097 37.8673C14.1005 36.7509 14.4461 35.6361 14.829 34.5192C15.2118 33.4046 15.6318 32.2876 16.0725 31.1721C16.3718 30.4144 16.6808 29.6559 16.9937 28.8983C17.1308 28.5658 17.2685 28.2342 17.4068 27.9018C17.5101 27.6538 17.6135 27.4058 17.7169 27.1579C17.7314 27.1234 17.7906 27.0904 17.8844 27.066C17.9784 27.0417 18.0988 27.0279 18.2232 27.028C18.3476 27.028 18.4682 27.0418 18.5619 27.0663C18.6553 27.0907 18.7136 27.1238 18.7276 27.1583C18.8278 27.4083 18.9279 27.6584 19.028 27.9085C19.1391 28.1862 19.2503 28.4635 19.3607 28.7412C18.8502 28.7849 18.463 28.8449 18.292 28.9574C18.2048 29.0147 18.1685 29.0984 18.2634 29.16C18.3486 29.2154 18.5006 29.257 18.6454 29.2966C18.7969 29.338 18.9407 29.3773 18.9915 29.4279C19.0777 29.5137 19.2944 29.5952 19.5221 29.6809C19.605 29.712 19.6894 29.7438 19.7695 29.7765C19.8733 30.0415 19.9763 30.3066 20.0784 30.5717C20.024 30.6741 19.9801 30.7682 20.001 30.8481C20.0198 30.9197 20.1276 30.9853 20.2618 31.0506C20.2774 31.0916 20.293 31.1327 20.3087 31.1737C20.4092 31.4385 20.508 31.7034 20.606 31.9684C20.4698 32.1751 20.3375 32.3918 20.2794 32.6735C20.2544 32.7949 20.1807 32.9146 20.1101 33.0298C20.0057 33.1999 19.9075 33.3599 19.9809 33.5002C20.0299 33.5939 19.9578 33.6926 19.8858 33.791C19.7894 33.9229 19.693 34.0546 19.8895 34.174C20.0131 34.2491 20.1633 34.318 20.3026 34.3819C20.5243 34.4835 20.7181 34.5723 20.7315 34.6527C20.7566 34.8037 20.9181 34.9345 21.0605 35.0497C21.2318 35.1884 21.3756 35.3046 21.2207 35.4067C21.1973 35.4222 21.1661 35.4399 21.1306 35.4599C20.9436 35.565 20.6445 35.7331 20.8089 35.9745C20.8674 36.0604 21.0196 36.1411 21.169 36.2201C21.3863 36.3352 21.5974 36.4469 21.5034 36.5666C21.4894 36.5845 21.4305 36.6031 21.3767 36.6201C21.3083 36.6417 21.2486 36.6606 21.3006 36.6718C21.4529 36.7046 21.6212 36.7567 21.8044 36.8132C21.939 36.8547 22.0817 36.8988 22.2315 36.9394C22.3162 37.2494 22.3972 37.5595 22.474 37.8697C22.5092 38.0118 22.5435 38.1539 22.577 38.2961C22.3477 38.3688 22.1411 38.4432 21.9848 38.5218C21.7805 38.6244 21.7179 38.7575 21.6369 38.9291C21.5772 39.0554 21.5075 39.2025 21.3645 39.3737C21.1 39.6907 21.1593 40.0162 21.3012 40.2249C21.3312 40.269 21.3632 40.3134 21.398 40.3608C21.5302 40.5407 21.6956 40.7653 21.8781 41.1918C22.0508 41.5952 22.0955 41.9383 22.1292 42.1961C22.1463 42.3276 22.1601 42.437 22.187 42.5208C22.2331 42.6641 22.274 42.8402 22.315 43.0169C22.3791 43.2935 22.4433 43.5718 22.5288 43.7293C22.5593 43.7854 22.597 43.8443 22.6373 43.9078C22.7489 44.084 22.8836 44.2967 22.9614 44.59C23.0431 44.8978 22.9874 45.0886 22.8664 45.2868C22.8172 45.3673 22.6226 45.4384 22.4216 45.5116C22.1364 45.6155 21.8387 45.7239 21.9275 45.8705C21.9482 45.9047 21.9946 45.9413 22.0433 45.9795C22.1326 46.0496 22.2295 46.1255 22.187 46.2032C22.1722 46.2303 22.1194 46.2542 22.0676 46.2776C22.0107 46.3033 21.955 46.3286 21.9519 46.3572C21.9403 46.464 21.9535 46.5679 21.9653 46.6602C21.9805 46.7793 21.9932 46.8792 21.947 46.9412C21.8646 47.0516 21.9383 47.1724 22.0134 47.2947C22.0707 47.3881 22.129 47.4825 22.1182 47.5739C22.0872 47.835 22.2277 48.194 22.4618 48.564C22.5503 48.704 22.4294 48.8226 22.2742 48.9746C22.1776 49.0691 22.0673 49.1765 21.9866 49.3101C21.9408 49.3858 22.0485 49.4499 22.148 49.5093C22.2397 49.564 22.3245 49.6147 22.2766 49.6667C22.2343 49.7126 22.0532 49.7417 21.8812 49.7692C21.6898 49.7999 21.5098 49.8288 21.5449 49.8771C21.5636 49.9028 21.6542 49.9341 21.7618 49.9712C21.8043 49.986 21.8494 50.0016 21.894 50.0182C21.8573 50.0174 21.8244 50.0172 21.7995 50.0172C21.6239 50.0171 21.5313 50.0664 21.4407 50.1148C21.4045 50.1341 21.3688 50.1533 21.328 50.1691C21.1779 50.2273 21.1535 50.3373 21.1604 50.4215C21.1633 50.457 21.1089 50.4893 21.0453 50.5269C20.9888 50.5603 20.9251 50.598 20.8881 50.646C20.867 50.6734 20.8161 50.6945 20.7735 50.7119C20.7428 50.7244 20.7165 50.7352 20.7096 50.7451C20.7036 50.7537 20.754 50.7607 20.8107 50.7685C20.8515 50.7741 20.8958 50.7802 20.9246 50.7877C20.9936 50.8056 21.0144 50.8287 20.9923 50.8448C20.982 50.8523 20.9624 50.8582 20.9429 50.8641C20.9202 50.8709 20.8973 50.8777 20.8893 50.887C20.8526 50.9299 20.9101 50.9717 20.9697 51.0151C21.0353 51.0627 21.1034 51.1125 21.0526 51.1678C21.0366 51.1852 20.9999 51.2038 20.9642 51.2217C20.927 51.2405 20.891 51.2588 20.8814 51.2743C20.8425 51.3374 20.9681 51.3967 21.0837 51.4513C21.1605 51.4875 21.2328 51.5218 21.2494 51.5535C21.2797 51.6118 21.4305 51.643 21.5418 51.6661C21.5995 51.678 21.6469 51.6878 21.6612 51.698C21.657 51.7074 21.6521 51.7169 21.6466 51.7262C21.6355 51.7347 21.6241 51.7435 21.6277 51.7518C21.628 51.7524 21.6287 51.753 21.629 51.7537C21.5924 51.8057 21.5405 51.8569 21.4888 51.9077C21.3727 52.0219 21.2577 52.1347 21.3225 52.2539C21.3365 52.2796 21.3987 52.3058 21.462 52.3324C21.5395 52.3651 21.6188 52.3984 21.6131 52.4324C21.5995 52.5135 21.4968 52.5953 21.3956 52.6758C21.2434 52.797 21.0948 52.9154 21.2579 53.0243C21.3118 53.0602 21.4015 53.0953 21.4919 53.1305C21.5423 53.15 21.5931 53.1697 21.6375 53.1896C21.555 53.1854 21.4776 53.1831 21.4054 53.1811C21.2565 53.1767 21.1291 53.173 21.0209 53.154C20.7652 53.1089 20.4131 53.0578 20.1564 53.0634C20.0867 53.065 20.0091 53.0637 19.9309 53.0624C19.7349 53.0589 19.5347 53.0555 19.4441 53.0973C19.3831 53.1256 19.243 53.1981 19.393 53.2442C19.4256 53.2542 19.4904 53.2604 19.5623 53.2672C19.6916 53.2794 19.8447 53.294 19.8804 53.3377C19.8864 53.345 19.8918 53.353 19.8968 53.3613C19.9169 53.3943 19.9391 53.4312 20.043 53.445C20.1628 53.4609 20.2999 53.4575 20.4598 53.4536C20.668 53.4484 20.9153 53.4423 21.2134 53.4765C21.2724 53.4833 21.2926 53.4963 21.3079 53.506C21.3187 53.5129 21.3273 53.5182 21.345 53.5187C21.3654 53.5193 21.4078 53.5171 21.4614 53.5143C21.6506 53.5044 21.9811 53.4873 21.9951 53.5589C21.9989 53.5783 21.9831 53.6004 21.9689 53.6203C21.948 53.6496 21.9307 53.6739 21.9848 53.6772C22.0053 53.6784 22.0275 53.6793 22.0506 53.68C22.0441 53.7033 22.0376 53.7266 22.0311 53.75C21.9666 53.7799 21.9721 53.8219 21.9793 53.8743C21.981 53.887 21.9826 53.9004 21.9835 53.9143C21.9702 53.9603 21.9569 54.0064 21.9433 54.0524C21.916 54.0888 21.8715 54.1277 21.8008 54.1687C21.6591 54.2508 21.4255 54.3222 21.197 54.392C21.1007 54.4214 21.0052 54.4506 20.9179 54.4801C20.9072 54.4686 20.8946 54.4582 20.8771 54.4502C20.7578 54.3955 20.523 54.3735 20.3069 54.3533C20.1631 54.3399 20.0275 54.3272 19.9401 54.3062C19.7798 54.2677 19.5924 54.2716 19.4539 54.2744C19.382 54.2759 19.3231 54.277 19.2882 54.2719C19.2601 54.2677 19.247 54.2582 19.2333 54.2484C19.2214 54.2398 19.209 54.2309 19.1864 54.2253C18.9121 54.1565 18.7529 54.1772 18.5211 54.2072C18.3933 54.2238 18.2433 54.2432 18.0398 54.2521C17.8243 54.2597 17.7613 54.2572 17.6754 54.2211C17.569 54.2492 17.4626 54.2773 17.3562 54.3054C17.3631 54.3164 17.4296 54.3247 17.5402 54.3365C17.7376 54.3574 17.8098 54.4257 17.8661 54.4791C17.8922 54.5038 17.9151 54.5253 17.9453 54.5374C18.1063 54.602 18.3305 54.5832 18.5278 54.5667C18.6364 54.5576 18.7369 54.5492 18.8142 54.5557C18.8472 54.5585 18.88 54.5545 18.9135 54.5505C18.9393 54.5474 18.9656 54.5442 18.9927 54.5441C19.1891 54.5433 19.3349 54.5814 19.4703 54.6169C19.5479 54.6372 19.6223 54.6565 19.7006 54.6672C19.7245 54.6705 19.7489 54.673 19.7725 54.6755C19.8071 54.679 19.84 54.6825 19.8682 54.6879C19.9324 54.7002 19.9757 54.7256 20.0229 54.7534C20.0471 54.7677 20.0724 54.7826 20.1021 54.7967C20.1407 54.815 20.2184 54.8215 20.2995 54.8285C20.3569 54.8334 20.416 54.8385 20.4647 54.848C20.5527 54.8651 20.5844 54.8996 20.6139 54.9317C20.6268 54.9457 20.6395 54.9592 20.656 54.9705C20.6627 54.9752 20.676 54.9774 20.6943 54.9779C20.7558 55.0305 20.8186 55.0808 20.8802 55.1297C21.1886 55.3749 21.456 55.5872 21.2622 55.9042C21.2255 55.9641 21.2328 56.0285 21.2622 56.0935C21.1851 56.3016 21.1056 56.5097 21.024 56.7177C20.8469 56.7589 20.6983 56.8092 20.5816 56.8688C20.3626 56.9808 20.3158 57.096 20.2605 57.2319C20.2197 57.3323 20.1741 57.4442 20.051 57.5745C19.8441 57.7934 19.6691 58.0182 19.5782 58.2718C19.4876 58.5243 19.4209 58.8135 19.3972 59.018C19.3843 59.1295 19.2259 59.2466 19.0786 59.3558C18.8713 59.5094 18.6855 59.6471 18.9549 59.7312C19.041 59.7581 19.1905 59.7841 19.3357 59.8094C19.4391 59.8274 19.5401 59.8451 19.6153 59.8625C19.592 59.9088 19.5689 59.9551 19.5453 60.0015C19.3657 60.0838 19.1732 60.2117 19.3735 60.3354C19.3487 60.3832 19.3241 60.431 19.2991 60.4772C19.2469 60.5779 19.194 60.6765 19.1407 60.776C19.1231 60.8085 19.1055 60.8413 19.0877 60.8741C19.0875 60.8744 19.0873 60.8748 19.0871 60.8751C19.0514 60.9412 19.0154 61.0079 18.9793 61.0735C18.9638 61.1015 18.9484 61.1296 18.933 61.1577C18.8938 61.2291 18.8545 61.301 18.8148 61.3716C18.7936 61.409 18.7727 61.4467 18.7514 61.4846C18.7169 61.5459 18.6822 61.6077 18.6472 61.6692C18.5907 61.7687 18.5336 61.8676 18.476 61.9668C18.4665 61.983 18.4366 61.9986 18.3913 62.0101C18.346 62.0215 18.2891 62.028 18.2305 62.028C18.1718 62.0279 18.1148 62.0214 18.0696 62.0099C18.0246 61.9984 17.9954 61.9829 17.9862 61.9667C17.9302 61.8674 17.8748 61.7683 17.8198 61.6688C17.7859 61.6073 17.7516 61.5455 17.7181 61.4842C17.6974 61.4463 17.6771 61.4086 17.6566 61.3712C17.618 61.3005 17.5794 61.2285 17.5414 61.1572C17.5264 61.1291 17.5113 61.101 17.4963 61.0729C17.4611 61.0072 17.4263 60.9403 17.3915 60.874C17.3913 60.8736 17.3911 60.8732 17.3909 60.8728C17.3738 60.8402 17.3567 60.8076 17.3397 60.7753C17.288 60.6758 17.2368 60.5772 17.1862 60.4764C17.1589 60.4243 17.1322 60.37 17.1052 60.3162C17.0901 60.2862 17.075 60.2562 17.0601 60.2269C17.0521 60.2108 17.0442 60.1945 17.0363 60.1781C16.849 59.8023 16.6688 59.4291 16.4959 59.0525C16.323 58.6772 16.1573 58.3013 15.9981 57.9265C15.839 57.5509 15.6867 57.1758 15.5406 56.8005C14.6127 54.4184 13.852 52.0269 13.3759 49.6343C13.3075 49.293 13.2459 48.9428 13.1906 48.6009C13.1354 48.2552 13.0863 47.9166 13.0444 47.57C13.0313 47.4647 13.019 47.3568 13.0073 47.2461Z" fill="black"/>
<path d="M29.6702 23.0352C30.4388 22.9374 31.1785 23.8602 31.9498 23.862C32.9074 23.8643 33.8803 22.9825 34.8401 23.1467C35.7944 23.311 36.7533 23.5468 37.7092 23.8376C38.6661 24.1284 39.6216 24.4741 40.579 24.8569C41.5343 25.2398 42.4918 25.6597 43.4479 26.1004C44.0973 26.3998 44.7474 26.7088 45.3968 27.0216C45.6819 27.1587 45.9661 27.2965 46.251 27.4347C46.4635 27.5381 46.6761 27.6415 46.8886 27.7448C46.9182 27.7594 46.9465 27.8185 46.9674 27.9124C46.9883 28.0064 47 28.1267 47 28.2511C47 28.3756 46.9881 28.4962 46.9672 28.5899C46.9462 28.6833 46.9179 28.7416 46.8883 28.7556C46.674 28.8557 46.4596 28.9558 46.2453 29.056C46.0072 29.167 45.7695 29.2783 45.5315 29.3886C45.494 28.8781 45.4426 28.491 45.3462 28.32C45.297 28.2328 45.2253 28.1965 45.1725 28.2913C45.1251 28.3766 45.0894 28.5285 45.0554 28.6733C45.0199 28.8248 44.9863 28.9686 44.9429 29.0194C44.8694 29.1057 44.7995 29.3224 44.7261 29.5501C44.6994 29.6329 44.6721 29.7174 44.6441 29.7974C44.4169 29.9012 44.1897 30.0042 43.9625 30.1063C43.8748 30.052 43.7941 30.008 43.7256 30.029C43.6642 30.0477 43.608 30.1556 43.552 30.2897C43.5169 30.3054 43.4817 30.321 43.4465 30.3366C43.2195 30.4371 42.9924 30.536 42.7654 30.634C42.5882 30.4978 42.4025 30.3655 42.161 30.3074C42.0569 30.2824 41.9543 30.2087 41.8556 30.138C41.7098 30.0336 41.5726 29.9355 41.4524 30.0088C41.372 30.0579 41.2875 29.9858 41.2031 29.9138C41.09 29.8173 40.9771 29.721 40.8748 29.9175C40.8105 30.041 40.7514 30.1912 40.6966 30.3305C40.6095 30.5522 40.5334 30.7461 40.4645 30.7595C40.3351 30.7845 40.223 30.946 40.1242 31.0885C40.0054 31.2598 39.9057 31.4036 39.8182 31.2487C39.8049 31.2252 39.7897 31.194 39.7726 31.1585C39.6825 30.9715 39.5384 30.6724 39.3316 30.8368C39.2579 30.8954 39.1887 31.0476 39.121 31.1969C39.0224 31.4143 38.9266 31.6253 38.824 31.5314C38.8087 31.5173 38.7927 31.4585 38.7781 31.4047C38.7596 31.3363 38.7434 31.2766 38.7339 31.3285C38.7057 31.4808 38.6611 31.6492 38.6127 31.8324C38.5771 31.967 38.5393 32.1097 38.5045 32.2595C38.2388 32.3441 37.973 32.4252 37.7071 32.502C37.5853 32.5372 37.4634 32.5715 37.3416 32.6049C37.2792 32.3756 37.2155 32.169 37.1482 32.0127C37.0602 31.8085 36.9461 31.7459 36.799 31.6648C36.6908 31.6052 36.5647 31.5354 36.4179 31.3925C36.1462 31.1279 35.8672 31.1873 35.6884 31.3291C35.6505 31.3591 35.6125 31.3912 35.5719 31.426C35.4176 31.5581 35.2252 31.7236 34.8596 31.9061C34.5138 32.0787 34.2197 32.1235 33.9988 32.1571C33.886 32.1743 33.7923 32.1881 33.7204 32.215C33.5976 32.261 33.4467 32.302 33.2952 32.3429C33.0581 32.407 32.8196 32.4712 32.6845 32.5568C32.6365 32.5873 32.586 32.625 32.5315 32.6652C32.3806 32.7769 32.1982 32.9115 31.9468 32.9894C31.683 33.0711 31.5195 33.0154 31.3496 32.8943C31.2805 32.8451 31.2196 32.6506 31.1569 32.4496C31.0678 32.1643 30.9749 31.8666 30.8492 31.9554C30.8199 31.9762 30.7886 32.0226 30.7559 32.0712C30.6957 32.1606 30.6307 32.2575 30.5641 32.215C30.5408 32.2002 30.5204 32.1474 30.5003 32.0956C30.4783 32.0386 30.4566 31.9829 30.4321 31.9798C30.3406 31.9682 30.2515 31.9814 30.1723 31.9932C30.0703 32.0085 29.9847 32.0211 29.9315 31.9749C29.8369 31.8926 29.7333 31.9663 29.6285 32.0414C29.5484 32.0987 29.4675 32.157 29.3892 32.1461C29.1654 32.1151 28.8576 32.2556 28.5405 32.4898C28.4205 32.5783 28.3189 32.4574 28.1886 32.3021C28.1076 32.2056 28.0155 32.0953 27.901 32.0145C27.8361 31.9688 27.7812 32.0765 27.7303 32.176C27.6834 32.2677 27.6399 32.3524 27.5954 32.3046C27.556 32.2622 27.5311 32.0811 27.5075 31.9091C27.4812 31.7177 27.4564 31.5377 27.415 31.5728C27.393 31.5915 27.3662 31.6821 27.3343 31.7897C27.3217 31.8323 27.3083 31.8773 27.294 31.9219C27.2948 31.8852 27.2949 31.8524 27.295 31.8275C27.295 31.6518 27.2528 31.5593 27.2113 31.4686C27.1947 31.4325 27.1783 31.3967 27.1647 31.3559C27.1149 31.2058 27.0205 31.1814 26.9484 31.1884C26.9179 31.1913 26.8903 31.1368 26.858 31.0732C26.8294 31.0168 26.7971 30.9531 26.7559 30.916C26.7325 30.8949 26.7144 30.844 26.6995 30.8015C26.6887 30.7707 26.6795 30.7444 26.671 30.7375C26.6636 30.7316 26.6577 30.7819 26.651 30.8387C26.6462 30.8795 26.6409 30.9237 26.6345 30.9526C26.6191 31.0216 26.5994 31.0424 26.5855 31.0202C26.5791 31.01 26.5741 30.9904 26.5691 30.9709C26.5632 30.9482 26.5574 30.9253 26.5494 30.9173C26.5126 30.8806 26.4768 30.938 26.4396 30.9977C26.3988 31.0633 26.3561 31.1314 26.3087 31.0805C26.2938 31.0645 26.2779 31.0278 26.2625 30.9922C26.2464 30.9549 26.2307 30.9189 26.2174 30.9093C26.1633 30.8704 26.1125 30.9961 26.0657 31.1116C26.0347 31.1885 26.0053 31.2608 25.9781 31.2773C25.9282 31.3076 25.9014 31.4584 25.8816 31.5698C25.8714 31.6275 25.863 31.6749 25.8543 31.6892C25.8462 31.685 25.8381 31.68 25.8301 31.6746C25.8228 31.6635 25.8152 31.652 25.8081 31.6557C25.8076 31.656 25.8071 31.6566 25.8065 31.6569C25.7619 31.6204 25.718 31.5685 25.6745 31.5168C25.5766 31.4006 25.4799 31.2856 25.3777 31.3504C25.3557 31.3644 25.3333 31.4267 25.3104 31.49C25.2825 31.5675 25.2539 31.6468 25.2247 31.6411C25.1553 31.6275 25.0852 31.5248 25.0161 31.4236C24.9122 31.2714 24.8107 31.1227 24.7174 31.2859C24.6866 31.3397 24.6566 31.4294 24.6264 31.5198C24.6096 31.5702 24.5928 31.621 24.5757 31.6654C24.5793 31.583 24.5813 31.5055 24.5831 31.4333C24.5868 31.2845 24.5899 31.1571 24.6063 31.0489C24.6449 30.7931 24.6887 30.4411 24.6839 30.1843C24.6826 30.1146 24.6836 30.037 24.6848 29.9589C24.6877 29.7628 24.6907 29.5626 24.6548 29.4721C24.6306 29.4111 24.5685 29.271 24.5289 29.4209C24.5203 29.4536 24.5151 29.5183 24.5092 29.5903C24.4988 29.7196 24.4863 29.8727 24.4488 29.9083C24.4425 29.9143 24.4356 29.9197 24.4286 29.9248C24.4003 29.9449 24.3686 29.9671 24.3568 30.071C24.3432 30.1907 24.3461 30.3278 24.3495 30.4877C24.3539 30.696 24.3592 30.9433 24.3298 31.2414C24.324 31.3003 24.3129 31.3205 24.3045 31.3358C24.2986 31.3466 24.2941 31.3553 24.2936 31.373C24.2931 31.3934 24.295 31.4357 24.2974 31.4894C24.3059 31.6785 24.3206 32.0091 24.2592 32.0231C24.2426 32.0268 24.2236 32.0111 24.2065 31.9969C24.1814 31.9759 24.1606 31.9586 24.1578 32.0127C24.1568 32.0332 24.156 32.0555 24.1554 32.0785C24.1354 32.072 24.1154 32.0655 24.0954 32.059C24.0698 31.9945 24.0338 32.0001 23.9889 32.0072C23.978 32.009 23.9665 32.0106 23.9545 32.0115C23.9151 31.9982 23.8757 31.9849 23.8362 31.9713C23.805 31.9439 23.7717 31.8994 23.7365 31.8287C23.6662 31.6871 23.6049 31.4534 23.5451 31.2249C23.5199 31.1287 23.4949 31.0331 23.4695 30.9459C23.4794 30.9352 23.4883 30.9225 23.4952 30.9051C23.5421 30.7857 23.5609 30.5509 23.5783 30.3348C23.5898 30.191 23.6007 30.0555 23.6187 29.968C23.6516 29.8078 23.6483 29.6204 23.6459 29.4818C23.6446 29.41 23.6437 29.3511 23.6481 29.3161C23.6516 29.2881 23.6598 29.2749 23.6682 29.2613C23.6756 29.2494 23.6832 29.2369 23.688 29.2144C23.747 28.94 23.7292 28.7808 23.7035 28.5491C23.6893 28.4212 23.6726 28.2712 23.665 28.0677C23.6585 27.8523 23.6607 27.7892 23.6916 27.7034C23.6675 27.597 23.6434 27.4906 23.6194 27.3841C23.6099 27.3911 23.6028 27.4576 23.5927 27.5681C23.5747 27.7656 23.5162 27.8377 23.4705 27.8941C23.4493 27.9202 23.4309 27.943 23.4205 27.9733C23.3651 28.1343 23.3812 28.3585 23.3954 28.5558C23.4032 28.6643 23.4104 28.7648 23.4048 28.8421C23.4024 28.8752 23.4058 28.908 23.4092 28.9414C23.4119 28.9673 23.4146 28.9936 23.4147 29.0206C23.4155 29.2171 23.3827 29.3629 23.3524 29.4983C23.335 29.5758 23.3184 29.6502 23.3092 29.7286C23.3064 29.7525 23.3042 29.7768 23.3021 29.8005C23.2991 29.835 23.2961 29.8679 23.2915 29.8961C23.2809 29.9604 23.2591 30.0037 23.2353 30.0509C23.2231 30.0751 23.2103 30.1004 23.1982 30.1301C23.1826 30.1686 23.1769 30.2463 23.171 30.3275C23.1668 30.3849 23.1624 30.4439 23.1543 30.4926C23.1396 30.5806 23.11 30.6124 23.0825 30.6419C23.0705 30.6547 23.059 30.6675 23.0492 30.6839C23.0452 30.6906 23.0433 30.704 23.0429 30.7223C22.9978 30.7838 22.9547 30.8466 22.9128 30.9081C22.7026 31.2166 22.5206 31.484 22.2489 31.2901C22.1976 31.2535 22.1424 31.2608 22.0867 31.2901C21.9083 31.2131 21.7299 31.1335 21.5516 31.0519C21.5164 30.8749 21.4732 30.7262 21.4221 30.6096C21.3261 30.3906 21.2274 30.3438 21.1109 30.2885C21.0248 30.2476 20.929 30.202 20.8173 30.0789C20.6296 29.8721 20.437 29.6971 20.2196 29.6061C20.0031 29.5156 19.7553 29.4488 19.5799 29.4252C19.4844 29.4122 19.384 29.2539 19.2904 29.1065C19.1588 28.8992 19.0407 28.7134 18.9686 28.9828C18.9456 29.0689 18.9233 29.2184 18.9017 29.3636C18.8862 29.4671 18.871 29.5681 18.8561 29.6433C18.8164 29.6199 18.7767 29.5968 18.737 29.5732C18.6664 29.3937 18.5568 29.2012 18.4508 29.4014C18.4098 29.3767 18.3688 29.3521 18.3292 29.3271C18.2429 29.2749 18.1584 29.222 18.0731 29.1687C18.0453 29.1511 18.0172 29.1334 17.989 29.1157C17.9887 29.1155 17.9885 29.1153 17.9882 29.1151C17.9315 29.0793 17.8743 29.0434 17.8181 29.0072C17.7941 28.9918 17.77 28.9763 17.7459 28.9609C17.6848 28.9217 17.6231 28.8824 17.5626 28.8427C17.5305 28.8216 17.4982 28.8006 17.4658 28.7794C17.4132 28.7448 17.3602 28.7101 17.3075 28.6752C17.2223 28.6187 17.1374 28.5615 17.0524 28.504C17.0385 28.4944 17.0252 28.4646 17.0153 28.4193C17.0055 28.3739 17 28.317 17 28.2584C17 28.1998 17.0056 28.1428 17.0154 28.0976C17.0253 28.0526 17.0386 28.0234 17.0525 28.0141C17.1376 27.9581 17.2225 27.9027 17.3078 27.8478C17.3606 27.8138 17.4135 27.7796 17.4661 27.746C17.4985 27.7254 17.5309 27.705 17.5629 27.6845C17.6235 27.6459 17.6852 27.6074 17.7464 27.5694C17.7705 27.5543 17.7945 27.5393 17.8186 27.5243C17.8749 27.4891 17.9322 27.4542 17.9891 27.4195C17.9895 27.4193 17.9898 27.4191 17.9901 27.4189C18.0181 27.4018 18.046 27.3847 18.0737 27.3677C18.159 27.316 18.2435 27.2648 18.3299 27.2142C18.3746 27.1868 18.4211 27.1601 18.4672 27.1331C18.4929 27.1181 18.5186 27.103 18.5438 27.088C18.5576 27.0801 18.5715 27.0722 18.5856 27.0643C18.9077 26.877 19.2276 26.6967 19.5504 26.5239C19.8721 26.351 20.1943 26.1852 20.5155 26.0261C20.8375 25.8669 21.159 25.7146 21.4807 25.5685C23.5224 24.6407 25.5724 23.8799 27.6232 23.4038C27.9157 23.3355 28.2158 23.2738 28.5089 23.2186C28.8052 23.1633 29.0955 23.1143 29.3925 23.0724C29.4828 23.0593 29.5753 23.047 29.6702 23.0352Z" fill="black"/>
<path d="M21.1169 57.0352C22.398 56.9374 23.6309 57.8602 24.9164 57.862C26.5124 57.8643 28.1338 56.9825 29.7335 57.1467C31.324 57.311 32.9222 57.5468 34.5152 57.8376C36.1101 58.1284 37.7026 58.4741 39.2983 58.8569C40.8906 59.2398 42.4863 59.6597 44.0798 60.1004C45.1622 60.3998 46.2457 60.7088 47.328 61.0216C47.8031 61.1587 48.2768 61.2965 48.7516 61.4347C49.1059 61.5381 49.4602 61.6415 49.8144 61.7448C49.8637 61.7594 49.9109 61.8185 49.9456 61.9124C49.9804 62.0064 50 62.1267 50 62.2511C49.9999 62.3756 49.9802 62.4962 49.9453 62.5899C49.9104 62.6833 49.8631 62.7416 49.8138 62.7556C49.4566 62.8557 49.0994 62.9558 48.7421 63.056C48.3453 63.167 47.9492 63.2783 47.5525 63.3886C47.49 62.8781 47.4043 62.491 47.2437 62.32C47.1617 62.2328 47.0422 62.1965 46.9542 62.2913C46.8751 62.3766 46.8156 62.5285 46.759 62.6733C46.6999 62.8248 46.6438 62.9686 46.5716 63.0194C46.449 63.1057 46.3325 63.3224 46.2101 63.5501C46.1656 63.6329 46.1202 63.7174 46.0735 63.7974C45.6949 63.9012 45.3162 64.0042 44.9375 64.1063C44.7913 64.052 44.6568 64.008 44.5427 64.029C44.4404 64.0477 44.3467 64.1556 44.2534 64.2897C44.1948 64.3054 44.1361 64.321 44.0775 64.3366C43.6992 64.4371 43.3207 64.536 42.9423 64.634C42.6469 64.4978 42.3374 64.3655 41.935 64.3074C41.7616 64.2824 41.5904 64.2087 41.4259 64.138C41.1829 64.0336 40.9544 63.9355 40.754 64.0088C40.62 64.0579 40.4791 63.9858 40.3386 63.9138C40.15 63.8173 39.9619 63.721 39.7913 63.9175C39.6841 64.041 39.5856 64.1912 39.4944 64.3305C39.3492 64.5522 39.2224 64.7461 39.1076 64.7595C38.8918 64.7845 38.705 64.946 38.5403 65.0885C38.3423 65.2598 38.1762 65.4036 38.0303 65.2487C38.0082 65.2252 37.9829 65.194 37.9544 65.1585C37.8042 64.9715 37.564 64.6724 37.2193 64.8368C37.0965 64.8954 36.9812 65.0476 36.8683 65.1969C36.704 65.4143 36.5443 65.6253 36.3734 65.5314C36.3479 65.5173 36.3212 65.4585 36.2969 65.4047C36.266 65.3363 36.239 65.2766 36.2231 65.3285C36.1762 65.4808 36.1019 65.6492 36.0211 65.8324C35.9618 65.967 35.8989 66.1097 35.8409 66.2595C35.3979 66.3441 34.9549 66.4252 34.5118 66.502C34.3088 66.5372 34.1057 66.5715 33.9026 66.6049C33.7987 66.3756 33.6925 66.169 33.5803 66.0127C33.4336 65.8085 33.2434 65.7459 32.9983 65.6648C32.818 65.6052 32.6078 65.5354 32.3632 65.3925C31.9104 65.1279 31.4453 65.1873 31.1473 65.3291C31.0842 65.3591 31.0209 65.3912 30.9531 65.426C30.696 65.5581 30.3753 65.7236 29.766 65.9061C29.1896 66.0787 28.6995 66.1235 28.3313 66.1571C28.1433 66.1743 27.9871 66.1881 27.8674 66.215C27.6626 66.261 27.4111 66.302 27.1586 66.3429C26.7635 66.407 26.366 66.4712 26.1409 66.5568C26.0608 66.5873 25.9767 66.625 25.8859 66.6652C25.6343 66.7769 25.3303 66.9115 24.9114 66.9894C24.4717 67.0711 24.1991 67.0154 23.916 66.8943C23.8009 66.8451 23.6994 66.6506 23.5948 66.4496C23.4463 66.1643 23.2915 65.8666 23.0821 65.9554C23.0332 65.9762 22.981 66.0226 22.9264 66.0712C22.8262 66.1606 22.7178 66.2575 22.6068 66.215C22.5681 66.2002 22.534 66.1474 22.5005 66.0956C22.4637 66.0386 22.4277 65.9829 22.3868 65.9798C22.2343 65.9682 22.0858 65.9814 21.9539 65.9932C21.7838 66.0085 21.6411 66.0211 21.5526 65.9749C21.3948 65.8926 21.2222 65.9663 21.0475 66.0414C20.914 66.0987 20.7792 66.157 20.6487 66.1461C20.2757 66.1151 19.7627 66.2556 19.2342 66.4898C19.0342 66.5783 18.8648 66.4574 18.6477 66.3021C18.5127 66.2056 18.3592 66.0953 18.1684 66.0145C18.0602 65.9688 17.9686 66.0765 17.8838 66.176C17.8057 66.2677 17.7332 66.3524 17.6589 66.3046C17.5933 66.2622 17.5518 66.0811 17.5124 65.9091C17.4686 65.7177 17.4274 65.5377 17.3583 65.5728C17.3216 65.5915 17.277 65.6821 17.2239 65.7897C17.2029 65.8323 17.1804 65.8773 17.1567 65.9219C17.1579 65.8852 17.1582 65.8524 17.1583 65.8275C17.1583 65.6518 17.0879 65.5593 17.0188 65.4686C16.9912 65.4325 16.9638 65.3967 16.9412 65.3559C16.8581 65.2058 16.7009 65.1814 16.5807 65.1884C16.5299 65.1913 16.4838 65.1368 16.43 65.0732C16.3823 65.0168 16.3285 64.9531 16.2599 64.916C16.2208 64.8949 16.1907 64.844 16.1659 64.8015C16.1479 64.7707 16.1326 64.7444 16.1184 64.7375C16.1061 64.7316 16.0961 64.7819 16.085 64.8387C16.077 64.8795 16.0682 64.9237 16.0575 64.9526C16.0319 65.0216 15.999 65.0424 15.9759 65.0202C15.9652 65.01 15.9568 64.9904 15.9484 64.9709C15.9387 64.9482 15.929 64.9253 15.9156 64.9173C15.8543 64.8806 15.7947 64.938 15.7327 64.9977C15.6646 65.0633 15.5936 65.1314 15.5145 65.0805C15.4896 65.0645 15.4631 65.0278 15.4374 64.9922C15.4106 64.9549 15.3845 64.9189 15.3623 64.9093C15.2722 64.8704 15.1875 64.9961 15.1096 65.1116C15.0578 65.1885 15.0089 65.2608 14.9635 65.2773C14.8803 65.3076 14.8356 65.4584 14.8027 65.5698C14.7856 65.6275 14.7717 65.6749 14.7571 65.6892C14.7437 65.685 14.7301 65.68 14.7169 65.6746C14.7047 65.6635 14.6921 65.652 14.6802 65.6557C14.6793 65.656 14.6785 65.6566 14.6776 65.6569C14.6032 65.6204 14.5301 65.5685 14.4575 65.5168C14.2943 65.4006 14.1332 65.2856 13.9629 65.3504C13.9262 65.3644 13.8888 65.4267 13.8507 65.49C13.8041 65.5675 13.7564 65.6468 13.7079 65.6411C13.5921 65.6275 13.4753 65.5248 13.3602 65.4236C13.1871 65.2714 13.0179 65.1227 12.8623 65.2859C12.811 65.3397 12.7609 65.4294 12.7107 65.5198C12.6827 65.5702 12.6546 65.621 12.6262 65.6654C12.6322 65.583 12.6354 65.5055 12.6384 65.4333C12.6446 65.2845 12.6499 65.1571 12.6771 65.0489C12.7416 64.7931 12.8146 64.4411 12.8065 64.1843C12.8043 64.1146 12.806 64.037 12.808 63.9589C12.8129 63.7628 12.8178 63.5626 12.758 63.4721C12.7177 63.4111 12.6141 63.271 12.5482 63.4209C12.5339 63.4536 12.5251 63.5183 12.5154 63.5903C12.4979 63.7196 12.4771 63.8727 12.4147 63.9083C12.4042 63.9143 12.3927 63.9197 12.3809 63.9248C12.3338 63.9449 12.2811 63.9671 12.2613 64.071C12.2386 64.1907 12.2435 64.3278 12.2491 64.4877C12.2565 64.696 12.2653 64.9433 12.2163 65.2414C12.2066 65.3003 12.1881 65.3205 12.1742 65.3358C12.1643 65.3466 12.1568 65.3553 12.1561 65.373C12.1552 65.3934 12.1584 65.4357 12.1624 65.4894C12.1765 65.6785 12.201 66.0091 12.0986 66.0231C12.071 66.0268 12.0393 66.0111 12.0109 65.9969C11.9691 65.9759 11.9343 65.9586 11.9297 66.0127C11.9279 66.0332 11.9267 66.0555 11.9257 66.0785C11.8923 66.072 11.859 66.0655 11.8257 66.059C11.783 65.9945 11.723 66.0001 11.6481 66.0072C11.63 66.009 11.6108 66.0106 11.5909 66.0115C11.5252 65.9982 11.4594 65.9849 11.3937 65.9713C11.3416 65.9439 11.2861 65.8994 11.2276 65.8287C11.1103 65.6871 11.0082 65.4534 10.9085 65.2249C10.8664 65.1287 10.8248 65.0331 10.7826 64.9459C10.799 64.9352 10.8139 64.9225 10.8253 64.9051C10.9035 64.7857 10.9349 64.5509 10.9638 64.3348C10.983 64.191 11.0011 64.0555 11.0311 63.968C11.0861 63.8078 11.0805 63.6204 11.0765 63.4818C11.0744 63.41 11.0728 63.3511 11.0801 63.3161C11.086 63.2881 11.0996 63.2749 11.1137 63.2613C11.1259 63.2494 11.1386 63.2369 11.1467 63.2144C11.2449 62.94 11.2154 62.7808 11.1724 62.5491C11.1488 62.4212 11.1211 62.2712 11.1084 62.0677C11.0974 61.8523 11.1011 61.7892 11.1526 61.7034C11.1125 61.597 11.0724 61.4906 11.0323 61.3841C11.0165 61.3911 11.0046 61.4576 10.9878 61.5681C10.9579 61.7656 10.8603 61.8377 10.7841 61.8941C10.7488 61.9202 10.7181 61.943 10.7008 61.9733C10.6086 62.1343 10.6354 62.3585 10.659 62.5558C10.672 62.6643 10.684 62.7648 10.6746 62.8421C10.6707 62.8752 10.6763 62.908 10.6821 62.9414C10.6865 62.9673 10.691 62.9936 10.6912 63.0206C10.6924 63.2171 10.6379 63.3629 10.5873 63.4983C10.5583 63.5758 10.5306 63.6502 10.5154 63.7286C10.5107 63.7525 10.507 63.7768 10.5035 63.8005C10.4985 63.835 10.4935 63.8679 10.4858 63.8961C10.4682 63.9604 10.4319 64.0037 10.3921 64.0509C10.3718 64.0751 10.3505 64.1004 10.3304 64.1301C10.3043 64.1686 10.2949 64.2463 10.285 64.3275C10.2779 64.3849 10.2706 64.4439 10.2571 64.4926C10.2327 64.5806 10.1833 64.6124 10.1375 64.6419C10.1176 64.6547 10.0983 64.6675 10.082 64.6839C10.0754 64.6906 10.0722 64.704 10.0715 64.7223C9.99634 64.7838 9.92454 64.8466 9.85466 64.9081C9.50432 65.2166 9.20107 65.484 8.74821 65.2901C8.6626 65.2535 8.57065 65.2608 8.47775 65.2901C8.18054 65.2131 7.88317 65.1335 7.58607 65.0519C7.52726 64.8749 7.45532 64.7262 7.37016 64.6096C7.21022 64.3906 7.04569 64.3438 6.85155 64.2885C6.70802 64.2476 6.54828 64.202 6.36213 64.0789C6.04938 63.8721 5.72826 63.6971 5.36592 63.6061C5.00516 63.5156 4.59212 63.4488 4.29991 63.4252C4.14061 63.4122 3.97329 63.2539 3.81735 63.1065C3.598 62.8992 3.40117 62.7134 3.28101 62.9828C3.24263 63.0689 3.20553 63.2184 3.16943 63.3636C3.14372 63.4671 3.11836 63.5681 3.09352 63.6433C3.02737 63.6199 2.96116 63.5968 2.89496 63.5732C2.77736 63.3937 2.5946 63.2012 2.41794 63.4014C2.34966 63.3767 2.28134 63.3521 2.21538 63.3271C2.07144 63.2749 1.93062 63.222 1.78851 63.1687C1.74213 63.1511 1.69529 63.1334 1.64832 63.1157C1.64788 63.1155 1.64743 63.1153 1.64699 63.1151C1.55246 63.0793 1.45722 63.0434 1.36356 63.0072C1.32344 62.9918 1.28332 62.9763 1.24321 62.9609C1.14126 62.9217 1.03857 62.8824 0.937649 62.8427C0.884235 62.8216 0.830308 62.8006 0.776288 62.7794C0.688651 62.7448 0.600351 62.7101 0.512503 62.6752C0.370433 62.6187 0.22903 62.5615 0.0873563 62.504C0.0641868 62.4944 0.0419215 62.4646 0.0255584 62.4193C0.00920119 62.3739 -2.50058e-05 62.317 5.09005e-08 62.2584C3.20872e-05 62.1998 0.00933623 62.1428 0.0257492 62.0976C0.0421512 62.0526 0.0643937 62.0234 0.087547 62.0141C0.229321 61.9581 0.370906 61.9027 0.513075 61.8478C0.600939 61.8138 0.689207 61.7796 0.77686 61.746C0.830905 61.7254 0.884781 61.705 0.938221 61.6845C1.03915 61.6459 1.14201 61.6074 1.24397 61.5694C1.28409 61.5543 1.3242 61.5393 1.36432 61.5243C1.45824 61.4891 1.55374 61.4542 1.64852 61.4195C1.64909 61.4193 1.64966 61.4191 1.65023 61.4189C1.69686 61.4018 1.74341 61.3847 1.78947 61.3677C1.93163 61.316 2.07253 61.2648 2.21652 61.2142C2.29092 61.1868 2.36845 61.1601 2.4454 61.1331C2.48825 61.1181 2.53101 61.103 2.573 61.088C2.59596 61.0801 2.61923 61.0722 2.64262 61.0643C3.17952 60.877 3.71264 60.6967 4.2507 60.5239C4.78675 60.351 5.32376 60.1852 5.85916 60.0261C6.39586 59.8669 6.93162 59.7146 7.46781 59.5685C10.8707 58.6407 14.2873 57.8799 17.7053 57.4038C18.1928 57.3355 18.6931 57.2738 19.1816 57.2186C19.6754 57.1633 20.1591 57.1143 20.6542 57.0724C20.8046 57.0593 20.9588 57.047 21.1169 57.0352Z" fill="black"/>
<circle cx="12.7675" cy="22.7955" r="3.3234" transform="rotate(8.2828 12.7675 22.7955)" fill="black"/>
<path d="M6.81761 24.9256C6.41091 23.9528 6.87103 22.9072 6.99678 22.017C6.99952 21.9968 7.0022 21.9767 7.00484 21.9565C7.13366 20.8647 7.21753 19.456 8.1494 18.5804C9.06331 17.7224 10.2502 17.2071 11.4327 17.1116C12.1708 17.0492 12.9034 17.1483 13.5562 17.3775C13.9496 17.515 14.322 17.6996 14.6589 17.9229C15.5576 18.5156 16.1824 19.3796 16.4663 20.2679C16.662 20.8717 16.7072 21.4884 16.624 22.0488C16.5878 22.295 16.5276 22.5301 16.447 22.7505C16.3869 22.9146 16.3155 23.0715 16.2352 23.2178C16.2239 23.2382 16.1859 23.2542 16.1281 23.2612C16.0702 23.2682 15.9976 23.2657 15.9237 23.2549C15.8498 23.2441 15.7794 23.2259 15.7255 23.2052C15.6718 23.1844 15.6394 23.1628 15.6332 23.144C15.5893 23.0081 15.5359 22.8784 15.4743 22.758C15.406 22.6239 15.3276 22.5004 15.2421 22.3882C15.5411 22.3194 15.7648 22.2473 15.8527 22.1642C15.8976 22.1222 15.908 22.069 15.8444 22.0484C15.7872 22.0299 15.6931 22.0304 15.6038 22.0329C15.5103 22.0354 15.422 22.0401 15.3859 22.0251C15.3243 21.9994 15.1883 22.0013 15.0472 22.0111C14.9958 22.0146 14.9436 22.019 14.8939 22.023C14.7985 21.9433 14.6994 21.8744 14.5986 21.8161C14.6094 21.7671 14.6139 21.7221 14.5874 21.7024C14.5635 21.6847 14.4952 21.6976 14.4152 21.7223C14.3994 21.7152 14.3836 21.7084 14.3677 21.7019C14.2657 21.6595 14.1639 21.6273 14.0637 21.605C14.0797 21.5018 14.0826 21.3917 14.0295 21.3008C14.0067 21.2618 14.0011 21.201 13.9922 21.1415C13.9796 21.0541 13.9587 20.9692 13.8896 20.9783C13.8438 20.9846 13.8344 20.9289 13.8211 20.8724C13.8043 20.7971 13.7785 20.7195 13.6862 20.8068C13.6284 20.8618 13.5689 20.9343 13.5163 21.0029C13.4326 21.1122 13.3669 21.2117 13.3415 21.2111C13.2934 21.2098 13.2264 21.2905 13.1741 21.3647C13.1101 21.4535 13.0665 21.5319 13.0611 21.4357C13.0602 21.4211 13.0596 21.4018 13.0586 21.3799C13.0557 21.299 13.046 21.183 13.0068 21.1515C12.9905 21.1381 12.9695 21.1401 12.945 21.167C12.9157 21.1991 12.884 21.2881 12.858 21.3761C12.8192 21.5043 12.7936 21.6302 12.7684 21.5737C12.7646 21.5652 12.7605 21.5299 12.7563 21.4977C12.7512 21.4567 12.7459 21.4209 12.7437 21.4521C12.7371 21.5436 12.7279 21.6448 12.7219 21.7551C12.7174 21.8361 12.7147 21.922 12.7147 22.0121C12.6752 22.0654 12.6448 22.1197 12.6217 22.1724C12.6112 22.1966 12.6021 22.2205 12.5945 22.244C12.5457 22.1151 12.4956 22.0011 12.4512 21.9175C12.393 21.8083 12.3544 21.7828 12.3027 21.7527C12.2642 21.7308 12.2186 21.7061 12.1422 21.6502C11.9984 21.5474 11.9373 21.6321 11.9508 21.7297C11.9532 21.7505 11.9567 21.7722 11.9612 21.7954C11.979 21.8832 12.0044 21.9914 12.0323 22.1223C12.0601 22.2452 12.055 22.3006 12.0508 22.3446C12.049 22.3667 12.0482 22.3847 12.0565 22.403C12.0708 22.4342 12.0821 22.4665 12.0955 22.4971C12.1162 22.5451 12.1424 22.5891 12.1869 22.6199C12.2027 22.6309 12.2229 22.6429 12.2447 22.6551C12.3007 22.6866 12.3697 22.7179 12.4141 22.744C12.4175 22.7461 12.4208 22.7481 12.4239 22.75C12.4698 22.7778 12.4364 22.7816 12.3635 22.7958C12.3339 22.8011 12.2172 22.8075 12.0969 22.8201C11.9262 22.8367 11.7489 22.8695 11.8045 22.8905C11.8174 22.8952 11.8457 22.8984 11.8754 22.901C11.93 22.9061 11.9889 22.908 11.9654 22.9226C11.9572 22.9277 11.9265 22.9362 11.8965 22.9451C11.8635 22.9547 11.8314 22.9648 11.8304 22.9699C11.8268 22.9888 11.8384 23.0045 11.8489 23.0177C11.8625 23.0349 11.8742 23.0482 11.8506 23.0661C11.8086 23.0985 11.8579 23.1066 11.907 23.1094C11.9446 23.1119 11.9822 23.1119 11.9817 23.1272C11.9799 23.1715 12.0845 23.1897 12.2263 23.1488C12.2796 23.1332 12.2261 23.1834 12.1652 23.2571C12.1271 23.3027 12.0859 23.3573 12.0642 23.4062C12.052 23.4341 12.1079 23.3996 12.1576 23.3654C12.2037 23.3341 12.2447 23.3034 12.2291 23.3285C12.2154 23.3508 12.1417 23.4307 12.0731 23.508C11.9966 23.5938 11.9265 23.6763 11.9487 23.6682C11.9604 23.6639 12.0024 23.6288 12.0512 23.5859C12.0705 23.5689 12.0908 23.5508 12.1108 23.5328C12.096 23.5491 12.0828 23.5638 12.0729 23.5749C12.0024 23.6533 11.973 23.7015 11.9457 23.7498C11.9348 23.7691 11.9243 23.7883 11.9113 23.8094C11.8636 23.8871 11.8769 23.917 11.8965 23.9267C11.9047 23.9309 11.8914 23.9618 11.8768 23.9985C11.8637 24.031 11.8496 24.068 11.8479 24.0941C11.8469 24.1089 11.8343 24.1374 11.8241 24.1613C11.8166 24.1786 11.8104 24.1935 11.8105 24.1986C11.8107 24.203 11.8295 24.1793 11.8505 24.1524C11.8656 24.133 11.8819 24.112 11.8933 24.0988C11.9206 24.0673 11.9325 24.0602 11.9289 24.0738C11.9272 24.08 11.9221 24.0907 11.9171 24.1014C11.9112 24.1139 11.9053 24.1264 11.905 24.1319C11.9033 24.1571 11.9321 24.1345 11.961 24.1102C11.9929 24.0836 12.0245 24.0549 12.0219 24.0886C12.0211 24.0993 12.0144 24.1208 12.0082 24.1419C12.0017 24.1639 11.9958 24.1853 11.9969 24.1925C12.0015 24.2217 12.0523 24.1633 12.0964 24.108C12.1259 24.0712 12.1527 24.0361 12.164 24.0306C12.1849 24.0206 12.2301 23.9417 12.2625 23.8831C12.2793 23.8528 12.2929 23.8277 12.2984 23.8207C12.299 23.8238 12.2995 23.8273 12.2999 23.8311C12.2987 23.8378 12.2975 23.8448 12.3 23.8435C12.3001 23.8434 12.3004 23.8431 12.3006 23.843C12.3013 23.8673 12.299 23.9002 12.2974 23.9331C12.2935 24.0068 12.2966 24.0817 12.3362 24.0541C12.3446 24.0481 12.3623 24.0146 12.3796 23.9803C12.4009 23.9383 12.4216 23.895 12.4273 23.9003C12.4408 23.9129 12.4403 23.9768 12.4435 24.0403C12.4473 24.1356 12.4615 24.2302 12.5074 24.1392C12.5222 24.1092 12.5403 24.0578 12.5573 24.0056C12.5668 23.9766 12.5761 23.9472 12.5845 23.9216C12.5757 23.9703 12.5677 24.0161 12.5603 24.0588C12.5449 24.1467 12.5317 24.222 12.5157 24.2852C12.4785 24.4346 12.4233 24.6392 12.397 24.791C12.39 24.8322 12.3811 24.8779 12.3721 24.9239C12.3495 25.0394 12.3255 25.1571 12.3342 25.2139C12.3396 25.2521 12.3595 25.3407 12.394 25.2549C12.4015 25.2362 12.4099 25.1982 12.4191 25.1559C12.4235 25.1356 12.4281 25.1144 12.4329 25.0938C12.446 25.037 12.4602 24.9849 12.4749 24.9711C12.4783 24.9679 12.4819 24.9651 12.4855 24.9625C12.5001 24.9523 12.5162 24.9408 12.5285 24.8794C12.5427 24.8087 12.5505 24.7268 12.5601 24.6313C12.5723 24.507 12.5886 24.3595 12.6171 24.1827C12.6227 24.1478 12.6272 24.1361 12.6305 24.1272C12.6328 24.1209 12.6346 24.1159 12.6358 24.1053C12.6372 24.0932 12.6393 24.0678 12.6419 24.0357C12.6511 23.9226 12.6697 23.7252 12.6824 23.7179C12.6859 23.716 12.6888 23.7258 12.6916 23.7346C12.6956 23.7475 12.6992 23.7582 12.7021 23.7258C12.7032 23.7136 12.7043 23.7003 12.7055 23.6865C12.709 23.6907 12.7126 23.6948 12.7162 23.699C12.7188 23.7379 12.7263 23.735 12.7353 23.731C12.7375 23.7301 12.7398 23.7292 12.7422 23.7287C12.7497 23.7369 12.7574 23.7451 12.7652 23.7533C12.7714 23.7697 12.778 23.7964 12.7863 23.8387C12.8027 23.9235 12.8225 24.0631 12.8474 24.199C12.8579 24.2563 12.8693 24.3131 12.8813 24.3647C12.8785 24.3713 12.8761 24.3791 12.8745 24.3897C12.8635 24.4621 12.8639 24.6031 12.8631 24.733C12.8625 24.8194 12.8614 24.9009 12.8554 24.9536C12.8441 25.0503 12.8486 25.1626 12.8528 25.2456C12.8548 25.2887 12.8566 25.324 12.8549 25.345C12.8536 25.3619 12.8494 25.3699 12.8451 25.3782C12.8413 25.3855 12.8374 25.3931 12.8351 25.4067C12.8063 25.5719 12.8155 25.6673 12.8351 25.806C12.8456 25.8825 12.8589 25.9721 12.8678 26.094C12.8761 26.2231 12.8761 26.261 12.8546 26.313C12.8738 26.3765 12.894 26.4397 12.9152 26.5028C12.9224 26.4984 12.9263 26.4582 12.931 26.3916C12.9394 26.2727 12.979 26.2274 13.0093 26.1913C13.0233 26.1746 13.0352 26.1599 13.0411 26.1412C13.0718 26.0417 13.0473 25.9087 13.0286 25.7916C13.0181 25.7271 13.0089 25.6673 13.0083 25.6209C13.008 25.601 13.0044 25.5815 13.0007 25.5617C12.9979 25.5464 12.995 25.5308 12.9937 25.5146C12.9838 25.3972 12.9943 25.3085 13.0019 25.2262C13.0063 25.179 13.0099 25.1338 13.0093 25.0865C13.0092 25.0722 13.0087 25.0575 13.0082 25.0433C13.0074 25.0225 13.0067 25.0028 13.007 24.9857C13.0077 24.9469 13.0146 24.92 13.0216 24.8906C13.0252 24.8755 13.0289 24.8598 13.0318 24.8414C13.0355 24.8176 13.0317 24.7711 13.0276 24.7225C13.0247 24.6882 13.0217 24.6528 13.0208 24.6235C13.0192 24.5704 13.0273 24.55 13.0345 24.531C13.0376 24.5227 13.0406 24.5145 13.0425 24.5042C13.0433 24.5 13.0427 24.492 13.041 24.4811C13.051 24.4421 13.059 24.4024 13.0657 24.3636C13.1013 24.1678 13.0968 24.0038 13.2049 24.0904C13.2258 24.1065 13.2397 24.0969 13.2484 24.0748C13.3124 24.1 13.3809 24.122 13.4536 24.1398C13.512 24.2292 13.567 24.3011 13.6173 24.3533C13.7122 24.4512 13.7625 24.4546 13.8206 24.457C13.864 24.4584 13.9119 24.4594 13.9949 24.4906C14.1343 24.5428 14.2746 24.5651 14.3913 24.5308C14.5075 24.4973 14.6245 24.4292 14.693 24.3672C14.7303 24.334 14.8373 24.3507 14.9399 24.3597C15.0835 24.3734 15.2183 24.3705 15.1033 24.2494C15.0665 24.2108 14.9966 24.1532 14.9279 24.0984C14.8789 24.0594 14.8308 24.0217 14.7957 23.9924C14.8177 23.9828 14.8395 23.9726 14.8616 23.9621C14.9724 23.9847 15.1042 23.9828 15.0204 23.8796C15.0431 23.8668 15.0655 23.8535 15.0878 23.8404C15.1352 23.8114 15.1822 23.7814 15.2289 23.749C15.2443 23.7385 15.2597 23.7276 15.2752 23.7164C15.2753 23.7163 15.2755 23.7162 15.2757 23.7161C15.3067 23.6937 15.3376 23.6704 15.3682 23.6464C15.3813 23.6362 15.3943 23.6257 15.4073 23.6151C15.4402 23.5882 15.4728 23.5602 15.5051 23.5315C15.5223 23.5164 15.5393 23.5006 15.5563 23.4848C15.584 23.4592 15.6115 23.4324 15.6387 23.4049C15.6828 23.3601 15.726 23.3148 15.7686 23.2663C15.7756 23.2584 15.7946 23.2526 15.8224 23.2503C15.8503 23.248 15.8846 23.2492 15.9194 23.2543C15.9542 23.2594 15.9875 23.268 16.0133 23.2788C16.0391 23.2895 16.0549 23.3014 16.0589 23.3118C16.0829 23.376 16.1049 23.4404 16.1244 23.5077C16.1365 23.549 16.148 23.591 16.1584 23.633C16.1648 23.6588 16.1706 23.6852 16.1764 23.7113C16.1872 23.7606 16.1967 23.8111 16.2049 23.8619C16.2082 23.8819 16.2112 23.902 16.2141 23.9222C16.2209 23.9696 16.2265 24.0177 16.2309 24.0662C16.2309 24.0665 16.2309 24.0667 16.231 24.067C16.2331 24.0909 16.2351 24.1149 16.2368 24.1387C16.2418 24.2118 16.2445 24.2853 16.2439 24.3608C16.2442 24.4001 16.243 24.4405 16.2412 24.4813C16.2402 24.504 16.2391 24.5268 16.2378 24.5491C16.237 24.5613 16.236 24.5736 16.235 24.586C16.2139 24.8717 16.1556 25.1619 16.0567 25.4494C15.9585 25.7361 15.8209 26.0183 15.6471 26.2853C15.4728 26.5529 15.262 26.8054 15.0178 27.0344C14.261 27.7531 13.1533 28.2352 11.9694 28.2774C10.7508 28.3336 9.42388 27.9044 8.39728 27.0484C8.10774 26.8098 7.83491 26.5315 7.59695 26.2332C7.35666 25.9314 7.14899 25.6098 6.97221 25.2592C6.91843 25.1529 6.86668 25.0416 6.81761 24.9256Z" fill="black"/>
</svg>
