<svg width="51" height="69" viewBox="0 0 51 69" fill="none" xmlns="http://www.w3.org/2000/svg">
<path d="M40.0815 19.2058C39.9882 18.4366 40.9153 17.7023 40.9216 16.9311C40.9295 15.9735 40.0534 14.9955 40.2232 14.0366C40.393 13.0833 40.6345 12.1258 40.9309 11.1717C41.2273 10.2165 41.5785 9.26302 41.9669 8.30787C42.3554 7.35476 42.7809 6.3998 43.2272 5.44628C43.5303 4.79861 43.8431 4.15029 44.1598 3.50278C44.2986 3.21852 44.4379 2.93512 44.5778 2.65102C44.6825 2.43907 44.7871 2.22713 44.8917 2.01518C44.9064 1.98572 44.9657 1.95775 45.0597 1.93743C45.1538 1.91711 45.2742 1.90604 45.3986 1.90679C45.5231 1.90756 45.6436 1.92013 45.7372 1.94162C45.8305 1.9631 45.8886 1.9918 45.9024 2.02143C46.0013 2.23636 46.1002 2.45129 46.199 2.66622C46.3087 2.90495 46.4186 3.14326 46.5275 3.38192C46.0168 3.41641 45.6293 3.46558 45.4578 3.56095C45.3703 3.60962 45.3336 3.68113 45.4281 3.7345C45.5131 3.78242 45.6648 3.81903 45.8095 3.8538C45.9607 3.89016 46.1043 3.92468 46.1549 3.96832C46.2407 4.04237 46.457 4.11354 46.6843 4.18828C46.767 4.21548 46.8513 4.24318 46.9311 4.27166C47.0336 4.49947 47.1353 4.72729 47.236 4.95507C47.1812 5.04251 47.1367 5.12293 47.1573 5.1915C47.1757 5.25301 47.2832 5.30987 47.417 5.36663C47.4325 5.40189 47.4479 5.43715 47.4633 5.47242C47.5625 5.69998 47.66 5.92764 47.7567 6.15529C47.6194 6.33168 47.4861 6.51662 47.4266 6.75773C47.4009 6.86165 47.3267 6.96389 47.2554 7.06218C47.1502 7.20736 47.0512 7.34392 47.1239 7.46459C47.1725 7.54525 47.0998 7.62937 47.0274 7.71328C46.9302 7.82582 46.8333 7.93815 47.0291 8.04163C47.1523 8.10669 47.3022 8.16668 47.4412 8.22222C47.6623 8.31061 47.8558 8.38782 47.8687 8.45681C47.893 8.5864 48.0538 8.69945 48.1957 8.79907C48.3664 8.9189 48.5095 9.0194 48.3542 9.10602C48.3306 9.11915 48.2993 9.13415 48.2637 9.15104C48.0762 9.24005 47.7763 9.38239 47.9395 9.59021C47.9976 9.66419 48.1494 9.73426 48.2983 9.80288C48.5151 9.90277 48.7256 9.99978 48.631 10.1018C48.6169 10.117 48.5579 10.1327 48.5041 10.147C48.4356 10.1651 48.3758 10.1809 48.4276 10.1908C48.5798 10.2198 48.7479 10.2654 48.9308 10.3149C49.0652 10.3513 49.2076 10.3899 49.3572 10.4256C49.4403 10.6918 49.5199 10.9581 49.5951 11.2244C49.6296 11.3464 49.6632 11.4684 49.6959 11.5905C49.4662 11.6515 49.2593 11.714 49.1026 11.7805C48.8978 11.8673 48.8346 11.981 48.7526 12.1276C48.6924 12.2354 48.6219 12.3611 48.4781 12.5071C48.2119 12.7772 48.2696 13.0566 48.4104 13.2362C48.4402 13.2742 48.472 13.3124 48.5066 13.3533C48.6379 13.5083 48.8022 13.7017 48.9826 14.0684C49.1532 14.4152 49.1962 14.7095 49.2285 14.9306C49.2451 15.0435 49.2583 15.1373 49.2848 15.2093C49.3301 15.3324 49.3702 15.4836 49.4103 15.6353C49.4729 15.8727 49.5357 16.1116 49.6205 16.2472C49.6507 16.2954 49.6881 16.3461 49.7281 16.4008C49.8388 16.5524 49.9724 16.7356 50.0488 16.9874C50.1289 17.2517 50.0723 17.4149 49.9503 17.5841C49.9007 17.6528 49.7057 17.7126 49.5044 17.7742C49.2186 17.8616 48.9204 17.9527 49.0085 18.0789C49.029 18.1084 49.0752 18.14 49.1237 18.173C49.2127 18.2336 49.3092 18.2993 49.2663 18.3656C49.2514 18.3888 49.1985 18.4089 49.1466 18.4287C49.0895 18.4504 49.0337 18.4717 49.0304 18.4962C49.0183 18.5877 49.0309 18.6768 49.0423 18.7561C49.0569 18.8582 49.0691 18.9439 49.0226 18.9967C48.9397 19.0909 49.0128 19.1949 49.0872 19.3001C49.1441 19.3806 49.2019 19.4618 49.1906 19.54C49.1583 19.7637 49.297 20.0722 49.5293 20.3907C49.6171 20.5112 49.4956 20.6122 49.3396 20.7415C49.2425 20.822 49.1317 20.9134 49.0503 21.0274C49.0042 21.0921 49.1116 21.1477 49.2108 21.1991C49.3022 21.2465 49.3867 21.2905 49.3386 21.3348C49.296 21.3739 49.1148 21.3977 48.9426 21.4204C48.7511 21.4456 48.5709 21.4693 48.6058 21.5109C48.6244 21.533 48.7148 21.5603 48.8222 21.5928C48.8647 21.6057 48.9097 21.6194 48.9542 21.6339C48.9175 21.6329 48.8846 21.6326 48.8598 21.6324C48.6841 21.6313 48.5913 21.673 48.5004 21.714C48.4641 21.7303 48.4283 21.7466 48.3874 21.7599C48.237 21.8088 48.2121 21.9031 48.2186 21.9752C48.2213 22.0057 48.1667 22.033 48.1029 22.0649C48.0463 22.0932 47.9824 22.1251 47.9452 22.1661C47.9239 22.1894 47.8729 22.2072 47.8303 22.2218C47.7995 22.2324 47.7731 22.2415 47.7661 22.25C47.7602 22.2573 47.8105 22.2636 47.8672 22.2706C47.908 22.2756 47.9522 22.2811 47.981 22.2877C48.0499 22.3035 48.0706 22.3234 48.0483 22.3371C48.0381 22.3434 48.0184 22.3484 47.9989 22.3533C47.9761 22.359 47.9532 22.3647 47.9452 22.3727C47.9083 22.4092 47.9655 22.4453 48.0249 22.4829C48.0903 22.5241 48.1582 22.5671 48.107 22.6143C48.0909 22.6291 48.0541 22.6448 48.0184 22.66C47.9811 22.6759 47.945 22.6913 47.9353 22.7046C47.8961 22.7584 48.0214 22.81 48.1367 22.8574C48.2134 22.889 48.2855 22.9187 48.3019 22.946C48.3319 22.9961 48.4825 23.0238 48.5938 23.0442C48.6514 23.0548 48.6987 23.0634 48.713 23.0723C48.7088 23.0803 48.7037 23.0884 48.6983 23.0963C48.6871 23.1036 48.6756 23.1111 48.6792 23.1182C48.6795 23.1187 48.6802 23.1193 48.6805 23.1198C48.6436 23.1642 48.5915 23.2078 48.5396 23.251C48.4228 23.3482 48.3073 23.4442 48.3715 23.5468C48.3853 23.5689 48.4475 23.5917 48.5106 23.6149C48.588 23.6433 48.6671 23.6724 48.6612 23.7015C48.6472 23.7709 48.5441 23.8404 48.4425 23.9089C48.2897 24.0118 48.1404 24.1125 48.3031 24.2067C48.3567 24.2379 48.4462 24.2684 48.5365 24.2991C48.5868 24.3162 48.6375 24.3334 48.6818 24.3506C48.5993 24.3465 48.5219 24.3442 48.4497 24.342C48.3009 24.3374 48.1735 24.3335 48.0654 24.3165C47.8099 24.2763 47.4581 24.2305 47.2013 24.2338C47.1316 24.2348 47.054 24.2332 46.9759 24.2316C46.7799 24.2275 46.5797 24.2234 46.4889 24.2587C46.4278 24.2826 46.2873 24.3439 46.437 24.3843C46.4696 24.3931 46.5344 24.3987 46.6063 24.405C46.7355 24.4162 46.8885 24.4296 46.924 24.4673C46.9299 24.4736 46.9353 24.4805 46.9403 24.4876C46.9602 24.516 46.9822 24.5478 47.0861 24.5602C47.2057 24.5746 47.3429 24.5725 47.5028 24.57C47.711 24.5668 47.9584 24.563 48.2563 24.5941C48.3152 24.6003 48.3353 24.6115 48.3506 24.6199C48.3614 24.6259 48.37 24.6305 48.3877 24.631C48.4081 24.6316 48.4505 24.63 48.5041 24.6279C48.6933 24.6206 49.0239 24.6078 49.0376 24.6693C49.0412 24.6859 49.0254 24.7048 49.0111 24.7218C48.99 24.7467 48.9726 24.7675 49.0266 24.7706C49.0471 24.7718 49.0694 24.7726 49.0924 24.7734C49.0858 24.7933 49.0792 24.8133 49.0726 24.8332C49.0079 24.8585 49.0133 24.8945 49.0202 24.9395C49.0218 24.9504 49.0234 24.9619 49.0242 24.9738C49.0106 25.0132 48.9971 25.0526 48.9833 25.0919C48.9558 25.123 48.9111 25.1561 48.8402 25.1908C48.6981 25.2603 48.4641 25.3202 48.2353 25.3787C48.1389 25.4033 48.0432 25.4278 47.9558 25.4526C47.9451 25.4427 47.9325 25.4337 47.9151 25.4267C47.7961 25.3791 47.5614 25.3589 47.3454 25.3403C47.2017 25.3279 47.0662 25.3163 46.9788 25.2978C46.8188 25.2639 46.6314 25.2661 46.4928 25.2677C46.4209 25.2685 46.362 25.2691 46.3271 25.2645C46.2991 25.2608 46.286 25.2526 46.2724 25.2441C46.2605 25.2367 46.2481 25.229 46.2256 25.224C45.9516 25.1635 45.7923 25.1803 45.5604 25.2047C45.4325 25.2181 45.2824 25.2339 45.0788 25.2403C44.8633 25.2456 44.8003 25.243 44.7146 25.2116C44.6081 25.2351 44.5015 25.2585 44.395 25.282C44.4018 25.2915 44.4683 25.299 44.5788 25.3097C44.7761 25.3288 44.8479 25.3878 44.9041 25.4338C44.93 25.4552 44.9528 25.4737 44.983 25.4843C45.1436 25.5406 45.3679 25.5258 45.5653 25.5128C45.6739 25.5056 45.7744 25.499 45.8517 25.5051C45.8847 25.5076 45.9175 25.5044 45.951 25.5012C45.9769 25.4987 46.0032 25.4961 46.0302 25.4962C46.2267 25.4966 46.3723 25.5302 46.5075 25.5613C46.585 25.5792 46.6593 25.5962 46.7376 25.6058C46.7614 25.6087 46.7858 25.6111 46.8094 25.6133C46.8439 25.6166 46.8768 25.6197 46.905 25.6245C46.9692 25.6355 47.0124 25.6575 47.0594 25.6816C47.0836 25.694 47.1088 25.7069 47.1384 25.7192C47.1769 25.735 47.2545 25.7411 47.3357 25.7475C47.393 25.7521 47.452 25.7568 47.5007 25.7652C47.5886 25.7804 47.6202 25.8102 47.6495 25.8378C47.6623 25.8499 47.675 25.8615 47.6914 25.8714C47.698 25.8754 47.7114 25.8774 47.7297 25.8779C47.7909 25.9234 47.8535 25.9668 47.9148 26.0091C48.222 26.2211 48.4883 26.4046 48.2929 26.6752C48.2559 26.7264 48.2629 26.7816 48.2919 26.8375C48.2138 27.0154 48.1332 27.1933 48.0506 27.3711C47.8734 27.4053 47.7245 27.4476 47.6075 27.498C47.3879 27.5927 47.3406 27.6912 47.2846 27.8073C47.2433 27.8932 47.1971 27.9888 47.0733 28.0998C46.8654 28.2862 46.6893 28.4778 46.5971 28.6947C46.5053 28.9106 46.4371 29.1581 46.4124 29.3332C46.3989 29.4287 46.2399 29.5282 46.092 29.6209C45.884 29.7513 45.6975 29.8683 45.9665 29.942C46.0524 29.9655 46.2018 29.9886 46.3469 30.0112C46.4502 30.0272 46.5511 30.043 46.6262 30.0583C46.6027 30.0979 46.5793 30.1375 46.5555 30.1771C46.3755 30.2466 46.1824 30.3551 46.382 30.4623C46.357 30.5031 46.3322 30.5439 46.307 30.5834C46.2542 30.6694 46.2008 30.7536 46.1471 30.8386C46.1293 30.8663 46.1115 30.8943 46.0936 30.9224C46.0934 30.9226 46.0932 30.9229 46.0929 30.9232C46.0569 30.9797 46.0206 31.0366 45.9841 31.0926C45.9685 31.1166 45.953 31.1405 45.9374 31.1645C45.8979 31.2255 45.8582 31.2868 45.8181 31.3472C45.7968 31.3791 45.7757 31.4113 45.7542 31.4436C45.7194 31.496 45.6843 31.5488 45.6491 31.6013C45.5921 31.6862 45.5345 31.7707 45.4764 31.8553C45.4668 31.8692 45.4368 31.8824 45.3915 31.8919C45.3461 31.9015 45.2892 31.9067 45.2306 31.9063C45.1719 31.906 45.115 31.9 45.0698 31.8899C45.0248 31.8798 44.9957 31.8663 44.9866 31.8524C44.931 31.767 44.8761 31.6817 44.8217 31.5961C44.7881 31.5432 44.7541 31.49 44.7209 31.4372C44.7004 31.4047 44.6803 31.3722 44.6599 31.34C44.6217 31.2793 44.5835 31.2173 44.5459 31.1559C44.531 31.1318 44.5161 31.1076 44.5012 31.0835C44.4663 31.0269 44.4318 30.9694 44.3974 30.9123C44.3972 30.912 44.397 30.9116 44.3968 30.9113C44.3799 30.8832 44.3629 30.8552 44.3461 30.8275C44.2949 30.7419 44.2442 30.657 44.1941 30.5703C44.167 30.5255 44.1406 30.4789 44.1138 30.4325C44.099 30.4067 44.084 30.381 44.0692 30.3557C44.0613 30.3419 44.0535 30.3279 44.0457 30.3138C43.8603 29.9906 43.6819 29.6696 43.5109 29.3458C43.3399 29.0232 43.1761 28.7 43.0188 28.3778C42.8615 28.0549 42.7111 27.7326 42.5669 27.41C41.651 25.3628 40.9022 23.3085 40.4381 21.255C40.3715 20.962 40.3116 20.6615 40.2581 20.3681C40.2046 20.0715 40.1572 19.781 40.117 19.4837C40.1045 19.3934 40.0927 19.3008 40.0815 19.2058Z" fill="black"/>
<path d="M13.0073 49.1528C12.9095 48.2561 13.8323 47.3931 13.834 46.4932C13.8363 45.376 12.9545 44.241 13.1188 43.1212C13.283 42.0079 13.5189 40.8892 13.8097 39.774C14.1005 38.6576 14.4461 37.5429 14.829 36.4259C15.2118 35.3113 15.6318 34.1943 16.0725 33.0788C16.3718 32.3212 16.6808 31.5627 16.9937 30.8051C17.1308 30.4725 17.2685 30.1409 17.4068 29.8085C17.5101 29.5606 17.6135 29.3126 17.7169 29.0646C17.7314 29.0301 17.7906 28.9971 17.8844 28.9727C17.9784 28.9484 18.0988 28.9347 18.2232 28.9347C18.3476 28.9347 18.4682 28.9486 18.5619 28.973C18.6553 28.9974 18.7136 29.0305 18.7276 29.065C18.8278 29.3151 18.9279 29.5651 19.028 29.8152C19.1391 30.093 19.2503 30.3703 19.3607 30.6479C18.8502 30.6917 18.463 30.7517 18.292 30.8641C18.2048 30.9215 18.1685 31.0052 18.2634 31.0668C18.3486 31.1221 18.5006 31.1638 18.6454 31.2034C18.7969 31.2448 18.9407 31.284 18.9915 31.3346C19.0777 31.4204 19.2944 31.502 19.5221 31.5876C19.605 31.6188 19.6894 31.6505 19.7695 31.6832C19.8733 31.9483 19.9763 32.2134 20.0784 32.4784C20.024 32.5808 19.9801 32.6749 20.001 32.7548C20.0198 32.8264 20.1276 32.892 20.2618 32.9573C20.2774 32.9984 20.293 33.0394 20.3087 33.0804C20.4092 33.3453 20.508 33.6102 20.606 33.8751C20.4698 34.0818 20.3375 34.2985 20.2794 34.5802C20.2544 34.7016 20.1807 34.8214 20.1101 34.9365C20.0057 35.1066 19.9075 35.2666 19.9809 35.4069C20.0299 35.5007 19.9578 35.5993 19.8858 35.6977C19.7894 35.8297 19.693 35.9614 19.8895 36.0808C20.0131 36.1558 20.1633 36.2248 20.3026 36.2886C20.5243 36.3902 20.7181 36.479 20.7315 36.5594C20.7566 36.7104 20.9181 36.8412 21.0605 36.9565C21.2318 37.0951 21.3756 37.2114 21.2207 37.3135C21.1973 37.329 21.1661 37.3467 21.1306 37.3666C20.9436 37.4717 20.6445 37.6399 20.8089 37.8812C20.8674 37.9671 21.0196 38.0478 21.169 38.1269C21.3863 38.2419 21.5974 38.3537 21.5034 38.4733C21.4894 38.4912 21.4305 38.5099 21.3767 38.5269C21.3083 38.5485 21.2486 38.5674 21.3006 38.5785C21.4529 38.6113 21.6212 38.6634 21.8044 38.7199C21.939 38.7615 22.0817 38.8055 22.2315 38.8461C22.3162 39.1561 22.3972 39.4662 22.474 39.7764C22.5092 39.9185 22.5435 40.0607 22.577 40.2029C22.3477 40.2756 22.1411 40.35 21.9848 40.4285C21.7805 40.5312 21.7179 40.6643 21.6369 40.8359C21.5772 40.9621 21.5075 41.1092 21.3645 41.2805C21.1 41.5974 21.1593 41.923 21.3012 42.1316C21.3312 42.1757 21.3632 42.2201 21.398 42.2675C21.5302 42.4475 21.6956 42.672 21.8781 43.0985C22.0508 43.502 22.0955 43.8451 22.1292 44.1028C22.1463 44.2344 22.1601 44.3437 22.187 44.4275C22.2331 44.5709 22.274 44.7469 22.315 44.9236C22.3791 45.2002 22.4433 45.4785 22.5288 45.6361C22.5593 45.6922 22.597 45.751 22.6373 45.8146C22.7489 45.9907 22.8836 46.2035 22.9614 46.4967C23.0431 46.8045 22.9874 46.9953 22.8664 47.1935C22.8172 47.2741 22.6226 47.3451 22.4216 47.4184C22.1364 47.5222 21.8387 47.6306 21.9275 47.7772C21.9482 47.8115 21.9946 47.848 22.0433 47.8862C22.1326 47.9564 22.2295 48.0322 22.187 48.11C22.1722 48.1371 22.1194 48.1609 22.0676 48.1843C22.0107 48.2101 21.955 48.2353 21.9519 48.2639C21.9403 48.3707 21.9535 48.4746 21.9653 48.567C21.9805 48.6861 21.9932 48.7859 21.947 48.8479C21.8646 48.9583 21.9383 49.0791 22.0134 49.2014C22.0707 49.2949 22.129 49.3892 22.1182 49.4806C22.0872 49.7417 22.2277 50.1008 22.4618 50.4708C22.5503 50.6107 22.4294 50.7293 22.2742 50.8813C22.1776 50.9758 22.0673 51.0833 21.9866 51.2168C21.9408 51.2925 22.0485 51.3567 22.148 51.416C22.2397 51.4707 22.3245 51.5214 22.2766 51.5734C22.2343 51.6194 22.0532 51.6484 21.8812 51.676C21.6898 51.7067 21.5098 51.7355 21.5449 51.7839C21.5636 51.8096 21.6542 51.8408 21.7618 51.878C21.8043 51.8927 21.8494 51.9084 21.894 51.925C21.8573 51.9241 21.8244 51.9239 21.7995 51.9239C21.6239 51.9239 21.5313 51.9732 21.4407 52.0215C21.4045 52.0408 21.3688 52.0601 21.328 52.0759C21.1779 52.134 21.1535 52.2441 21.1604 52.3282C21.1633 52.3638 21.1089 52.396 21.0453 52.4337C20.9888 52.4671 20.9251 52.5047 20.8881 52.5528C20.867 52.5802 20.8161 52.6012 20.7735 52.6186C20.7428 52.6312 20.7165 52.6419 20.7096 52.6518C20.7036 52.6604 20.754 52.6674 20.8107 52.6752C20.8515 52.6808 20.8958 52.6869 20.9246 52.6944C20.9936 52.7124 21.0144 52.7354 20.9923 52.7516C20.982 52.759 20.9624 52.7649 20.9429 52.7708C20.9202 52.7776 20.8973 52.7844 20.8893 52.7938C20.8526 52.8367 20.9101 52.8784 20.9697 52.9218C21.0353 52.9695 21.1034 53.0192 21.0526 53.0745C21.0366 53.092 20.9999 53.1105 20.9642 53.1285C20.927 53.1473 20.891 53.1656 20.8814 53.1811C20.8425 53.2442 20.9681 53.3034 21.0837 53.358C21.1605 53.3943 21.2328 53.4285 21.2494 53.4603C21.2797 53.5185 21.4305 53.5498 21.5418 53.5728C21.5995 53.5848 21.6469 53.5945 21.6612 53.6047C21.657 53.6141 21.6521 53.6236 21.6466 53.6329C21.6355 53.6414 21.6241 53.6503 21.6277 53.6585C21.628 53.6592 21.6287 53.6598 21.629 53.6604C21.5924 53.7125 21.5405 53.7636 21.4888 53.8145C21.3727 53.9287 21.2577 54.0414 21.3225 54.1607C21.3365 54.1864 21.3987 54.2126 21.462 54.2392C21.5395 54.2718 21.6188 54.3052 21.6131 54.3392C21.5995 54.4202 21.4968 54.502 21.3956 54.5826C21.2434 54.7038 21.0948 54.8222 21.2579 54.931C21.3118 54.967 21.4015 55.002 21.4919 55.0372C21.5423 55.0568 21.5931 55.0765 21.6375 55.0963C21.555 55.0921 21.4776 55.0899 21.4054 55.0878C21.2565 55.0835 21.1291 55.0798 21.0209 55.0607C20.7652 55.0156 20.4131 54.9645 20.1564 54.9702C20.0867 54.9717 20.0091 54.9705 19.9309 54.9691C19.7349 54.9657 19.5347 54.9622 19.4441 55.0041C19.3831 55.0323 19.243 55.1048 19.393 55.1509C19.4256 55.161 19.4904 55.1671 19.5623 55.1739C19.6916 55.1861 19.8447 55.2007 19.8804 55.2444C19.8864 55.2518 19.8918 55.2598 19.8968 55.268C19.9169 55.301 19.9391 55.3379 20.043 55.3518C20.1628 55.3676 20.2999 55.3643 20.4598 55.3603C20.668 55.3551 20.9153 55.349 21.2134 55.3833C21.2724 55.3901 21.2926 55.403 21.3079 55.4128C21.3187 55.4197 21.3273 55.4249 21.345 55.4255C21.3654 55.426 21.4078 55.4238 21.4614 55.421C21.6506 55.4112 21.9811 55.394 21.9951 55.4656C21.9989 55.485 21.9831 55.5072 21.9689 55.5271C21.948 55.5563 21.9307 55.5807 21.9848 55.5839C22.0053 55.5851 22.0275 55.586 22.0506 55.5867C22.0441 55.6101 22.0376 55.6334 22.0311 55.6567C21.9666 55.6866 21.9721 55.7286 21.9793 55.781C21.981 55.7937 21.9826 55.8071 21.9835 55.8211C21.9702 55.8671 21.9569 55.9131 21.9433 55.9591C21.916 55.9956 21.8715 56.0344 21.8008 56.0754C21.6591 56.1575 21.4255 56.229 21.197 56.2988C21.1007 56.3282 21.0052 56.3573 20.9179 56.3869C20.9072 56.3754 20.8946 56.365 20.8771 56.357C20.7578 56.3022 20.523 56.2803 20.3069 56.26C20.1631 56.2466 20.0275 56.2339 19.9401 56.2129C19.7798 56.1745 19.5924 56.1783 19.4539 56.1811C19.382 56.1826 19.3231 56.1837 19.2882 56.1786C19.2601 56.1745 19.247 56.1649 19.2333 56.1551C19.2214 56.1465 19.209 56.1377 19.1864 56.132C18.9121 56.0632 18.7529 56.0839 18.5211 56.114C18.3933 56.1306 18.2433 56.15 18.0398 56.1588C17.8243 56.1665 17.7613 56.1639 17.6754 56.1279C17.569 56.156 17.4626 56.184 17.3562 56.2121C17.3631 56.2231 17.4296 56.2315 17.5402 56.2432C17.7376 56.2642 17.8098 56.3325 17.8661 56.3858C17.8922 56.4105 17.9151 56.432 17.9453 56.4442C18.1063 56.5087 18.3305 56.4899 18.5278 56.4734C18.6364 56.4643 18.7369 56.4559 18.8142 56.4625C18.8472 56.4652 18.88 56.4613 18.9135 56.4572C18.9393 56.4541 18.9656 56.451 18.9927 56.4508C19.1891 56.45 19.3349 56.4882 19.4703 56.5236C19.5479 56.5439 19.6223 56.5632 19.7006 56.5739C19.7245 56.5772 19.7489 56.5798 19.7725 56.5822C19.8071 56.5858 19.84 56.5892 19.8682 56.5946C19.9324 56.607 19.9757 56.6324 20.0229 56.6602C20.0471 56.6745 20.0724 56.6894 20.1021 56.7034C20.1407 56.7217 20.2184 56.7283 20.2995 56.7352C20.3569 56.7401 20.416 56.7453 20.4647 56.7547C20.5527 56.7718 20.5844 56.8064 20.6139 56.8384C20.6268 56.8524 20.6395 56.8659 20.656 56.8773C20.6627 56.8819 20.676 56.8841 20.6943 56.8846C20.7558 56.9373 20.8186 56.9875 20.8802 57.0364C21.1886 57.2817 21.456 57.4939 21.2622 57.8109C21.2255 57.8709 21.2328 57.9352 21.2622 58.0003C21.1851 58.2083 21.1056 58.4165 21.024 58.6244C20.8469 58.6656 20.6983 58.716 20.5816 58.7756C20.3626 58.8875 20.3158 59.0027 20.2605 59.1386C20.2197 59.2391 20.1741 59.3509 20.051 59.4812C19.8441 59.7001 19.6691 59.9249 19.5782 60.1785C19.4876 60.4311 19.4209 60.7202 19.3972 60.9248C19.3843 61.0363 19.2259 61.1534 19.0786 61.2625C18.8713 61.4161 18.6855 61.5539 18.9549 61.638C19.041 61.6649 19.1905 61.6908 19.3357 61.7161C19.4391 61.7341 19.5401 61.7518 19.6153 61.7692C19.592 61.8155 19.5689 61.8619 19.5453 61.9082C19.3657 61.9905 19.1732 62.1185 19.3735 62.2421C19.3487 62.2899 19.3241 62.3378 19.2991 62.3839C19.2469 62.4847 19.194 62.5833 19.1407 62.6827C19.1231 62.7152 19.1055 62.748 19.0877 62.7809C19.0875 62.7812 19.0873 62.7815 19.0871 62.7818C19.0514 62.848 19.0154 62.9146 18.9793 62.9802C18.9638 63.0083 18.9484 63.0364 18.933 63.0644C18.8938 63.1358 18.8545 63.2077 18.8148 63.2783C18.7936 63.3157 18.7727 63.3535 18.7514 63.3913C18.7169 63.4526 18.6822 63.5144 18.6472 63.5759C18.5907 63.6754 18.5336 63.7744 18.476 63.8735C18.4665 63.8898 18.4366 63.9053 18.3913 63.9168C18.346 63.9283 18.2891 63.9347 18.2305 63.9347C18.1718 63.9347 18.1148 63.9282 18.0696 63.9167C18.0246 63.9052 17.9954 63.8896 17.9862 63.8734C17.9302 63.7742 17.8748 63.6751 17.8198 63.5755C17.7859 63.514 17.7516 63.4522 17.7181 63.3909C17.6974 63.3531 17.6771 63.3153 17.6566 63.2779C17.618 63.2073 17.5794 63.1353 17.5414 63.0639C17.5264 63.0358 17.5113 63.0077 17.4963 62.9797C17.4611 62.9139 17.4263 62.8471 17.3915 62.7807C17.3913 62.7803 17.3911 62.7799 17.3909 62.7795C17.3738 62.7469 17.3567 62.7143 17.3397 62.6821C17.288 62.5826 17.2368 62.4839 17.1862 62.3831C17.1589 62.3311 17.1322 62.2768 17.1052 62.2229C17.0901 62.1929 17.075 62.163 17.0601 62.1336C17.0521 62.1175 17.0442 62.1012 17.0363 62.0849C16.849 61.709 16.6688 61.3358 16.4959 60.9592C16.323 60.584 16.1573 60.2081 15.9981 59.8333C15.839 59.4576 15.6867 59.0826 15.5406 58.7072C14.6127 56.3252 13.852 53.9336 13.3759 51.541C13.3075 51.1997 13.2459 50.8496 13.1906 50.5076C13.1354 50.1619 13.0863 49.8233 13.0444 49.4767C13.0313 49.3715 13.019 49.2636 13.0073 49.1528Z" fill="black"/>
<path d="M29.6702 24.942C30.4388 24.8442 31.1785 25.767 31.9498 25.7687C32.9074 25.771 33.8803 24.8892 34.8401 25.0534C35.7944 25.2177 36.7533 25.4536 37.7092 25.7444C38.6661 26.0352 39.6216 26.3808 40.579 26.7636C41.5343 27.1465 42.4918 27.5665 43.4479 28.0072C44.0973 28.3065 44.7474 28.6155 45.3968 28.9284C45.6819 29.0655 45.9661 29.2032 46.251 29.3414C46.4635 29.4448 46.6761 29.5482 46.8886 29.6516C46.9182 29.6661 46.9465 29.7253 46.9674 29.8191C46.9883 29.9131 47 30.0335 47 30.1579C47 30.2823 46.9881 30.4029 46.9672 30.4966C46.9462 30.59 46.9179 30.6483 46.8883 30.6623C46.674 30.7625 46.4596 30.8626 46.2453 30.9627C46.0072 31.0738 45.7695 31.185 45.5315 31.2954C45.494 30.7849 45.4426 30.3977 45.3462 30.2267C45.297 30.1395 45.2253 30.1032 45.1725 30.1981C45.1251 30.2833 45.0894 30.4353 45.0554 30.5801C45.0199 30.7316 44.9863 30.8754 44.9429 30.9261C44.8694 31.0124 44.7995 31.2291 44.7261 31.4568C44.6994 31.5397 44.6721 31.6241 44.6441 31.7042C44.4169 31.808 44.1897 31.911 43.9625 32.0131C43.8748 31.9587 43.7941 31.9148 43.7256 31.9357C43.6642 31.9545 43.608 32.0623 43.552 32.1965C43.5169 32.2121 43.4817 32.2277 43.4465 32.2434C43.2195 32.3438 42.9924 32.4427 42.7654 32.5407C42.5882 32.4045 42.4025 32.2722 42.161 32.2141C42.0569 32.1891 41.9543 32.1154 41.8556 32.0448C41.7098 31.9403 41.5726 31.8422 41.4524 31.9156C41.372 31.9646 41.2875 31.8925 41.2031 31.8205C41.09 31.724 40.9771 31.6277 40.8748 31.8242C40.8105 31.9478 40.7514 32.098 40.6966 32.2373C40.6095 32.4589 40.5334 32.6528 40.4645 32.6662C40.3351 32.6913 40.223 32.8527 40.1242 32.9952C40.0054 33.1665 39.9057 33.3103 39.8182 33.1554C39.8049 33.132 39.7897 33.1007 39.7726 33.0653C39.6825 32.8783 39.5384 32.5792 39.3316 32.7436C39.2579 32.8021 39.1887 32.9543 39.121 33.1037C39.0224 33.321 38.9266 33.532 38.824 33.4381C38.8087 33.4241 38.7927 33.3652 38.7781 33.3114C38.7596 33.243 38.7434 33.1833 38.7339 33.2353C38.7057 33.3876 38.6611 33.5559 38.6127 33.7391C38.5771 33.8737 38.5393 34.0164 38.5045 34.1662C38.2388 34.2509 37.973 34.3319 37.7071 34.4087C37.5853 34.4439 37.4634 34.4782 37.3416 34.5117C37.2792 34.2823 37.2155 34.0758 37.1482 33.9195C37.0602 33.7152 36.9461 33.6526 36.799 33.5716C36.6908 33.5119 36.5647 33.4422 36.4179 33.2992C36.1462 33.0347 35.8672 33.094 35.6884 33.2359C35.6505 33.2659 35.6125 33.2979 35.5719 33.3327C35.4176 33.4649 35.2252 33.6303 34.8596 33.8128C34.5138 33.9855 34.2197 34.0302 33.9988 34.0639C33.886 34.081 33.7923 34.0948 33.7204 34.1217C33.5976 34.1678 33.4467 34.2087 33.2952 34.2497C33.0581 34.3138 32.8196 34.3779 32.6845 34.4635C32.6365 34.494 32.586 34.5317 32.5315 34.572C32.3806 34.6836 32.1982 34.8183 31.9468 34.8961C31.683 34.9778 31.5195 34.9221 31.3496 34.8011C31.2805 34.7519 31.2196 34.5573 31.1569 34.3563C31.0678 34.0711 30.9749 33.7734 30.8492 33.8622C30.8199 33.8829 30.7886 33.9293 30.7559 33.9779C30.6957 34.0673 30.6307 34.1642 30.5641 34.1217C30.5408 34.1069 30.5204 34.0541 30.5003 34.0023C30.4783 33.9454 30.4566 33.8897 30.4321 33.8866C30.3406 33.875 30.2515 33.8881 30.1723 33.9C30.0703 33.9152 29.9847 33.9279 29.9315 33.8817C29.8369 33.7993 29.7333 33.873 29.6285 33.9481C29.5484 34.0054 29.4675 34.0637 29.3892 34.0529C29.1654 34.0219 28.8576 34.1624 28.5405 34.3965C28.4205 34.485 28.3189 34.3641 28.1886 34.2089C28.1076 34.1123 28.0155 34.002 27.901 33.9213C27.8361 33.8755 27.7812 33.9832 27.7303 34.0827C27.6834 34.1744 27.6399 34.2592 27.5954 34.2113C27.556 34.169 27.5311 33.9879 27.5075 33.8159C27.4812 33.6245 27.4564 33.4444 27.415 33.4796C27.393 33.4983 27.3662 33.5888 27.3343 33.6965C27.3217 33.739 27.3083 33.7841 27.294 33.8287C27.2948 33.7919 27.2949 33.7591 27.295 33.7342C27.295 33.5585 27.2528 33.466 27.2113 33.3754C27.1947 33.3392 27.1783 33.3035 27.1647 33.2627C27.1149 33.1126 27.0205 33.0881 26.9484 33.0951C26.9179 33.098 26.8903 33.0436 26.858 32.98C26.8294 32.9235 26.7971 32.8598 26.7559 32.8228C26.7325 32.8017 26.7144 32.7508 26.6995 32.7082C26.6887 32.6775 26.6795 32.6512 26.671 32.6443C26.6636 32.6383 26.6577 32.6887 26.651 32.7454C26.6462 32.7862 26.6409 32.8305 26.6345 32.8593C26.6191 32.9283 26.5994 32.9491 26.5855 32.927C26.5791 32.9167 26.5741 32.8971 26.5691 32.8776C26.5632 32.8549 26.5574 32.832 26.5494 32.824C26.5126 32.7873 26.4768 32.8448 26.4396 32.9044C26.3988 32.97 26.3561 33.0381 26.3087 32.9873C26.2938 32.9713 26.2779 32.9346 26.2625 32.8989C26.2464 32.8617 26.2307 32.8257 26.2174 32.8161C26.1633 32.7772 26.1125 32.9028 26.0657 33.0184C26.0347 33.0952 26.0053 33.1675 25.9781 33.1841C25.9282 33.2144 25.9014 33.3652 25.8816 33.4765C25.8714 33.5342 25.863 33.5816 25.8543 33.5959C25.8462 33.5917 25.8381 33.5867 25.8301 33.5813C25.8228 33.5702 25.8152 33.5588 25.8081 33.5624C25.8076 33.5627 25.8071 33.5634 25.8065 33.5636C25.7619 33.5271 25.718 33.4752 25.6745 33.4235C25.5766 33.3074 25.4799 33.1924 25.3777 33.2572C25.3557 33.2712 25.3333 33.3334 25.3104 33.3967C25.2825 33.4742 25.2539 33.5535 25.2247 33.5478C25.1553 33.5342 25.0852 33.4315 25.0161 33.3303C24.9122 33.1781 24.8107 33.0294 24.7174 33.1926C24.6866 33.2465 24.6566 33.3362 24.6264 33.4266C24.6096 33.4769 24.5928 33.5278 24.5757 33.5722C24.5793 33.4897 24.5813 33.4123 24.5831 33.34C24.5868 33.1912 24.5899 33.0638 24.6063 32.9556C24.6449 32.6999 24.6887 32.3478 24.6839 32.0911C24.6826 32.0214 24.6836 31.9438 24.6848 31.8656C24.6877 31.6696 24.6907 31.4694 24.6548 31.3788C24.6306 31.3178 24.5685 31.1777 24.5289 31.3276C24.5203 31.3603 24.5151 31.4251 24.5092 31.497C24.4988 31.6263 24.4863 31.7794 24.4488 31.8151C24.4425 31.8211 24.4356 31.8265 24.4286 31.8315C24.4003 31.8516 24.3686 31.8738 24.3568 31.9777C24.3432 32.0975 24.3461 32.2346 24.3495 32.3945C24.3539 32.6027 24.3592 32.85 24.3298 33.1481C24.324 33.2071 24.3129 33.2272 24.3045 33.2426C24.2986 33.2534 24.2941 33.262 24.2936 33.2797C24.2931 33.3001 24.295 33.3425 24.2974 33.3961C24.3059 33.5853 24.3206 33.9158 24.2592 33.9298C24.2426 33.9336 24.2236 33.9178 24.2065 33.9036C24.1814 33.8827 24.1606 33.8654 24.1578 33.9195C24.1568 33.94 24.156 33.9622 24.1554 33.9853C24.1354 33.9788 24.1154 33.9723 24.0954 33.9658C24.0698 33.9013 24.0338 33.9068 23.9889 33.914C23.978 33.9157 23.9665 33.9173 23.9545 33.9182C23.9151 33.9049 23.8757 33.8916 23.8362 33.878C23.805 33.8507 23.7717 33.8061 23.7365 33.7355C23.6662 33.5938 23.6049 33.3601 23.5451 33.1317C23.5199 33.0354 23.4949 32.9399 23.4695 32.8526C23.4794 32.8419 23.4883 32.8293 23.4952 32.8118C23.5421 32.6925 23.5609 32.4577 23.5783 32.2415C23.5898 32.0978 23.6007 31.9622 23.6187 31.8748C23.6516 31.7145 23.6483 31.5271 23.6459 31.3886C23.6446 31.3167 23.6437 31.2578 23.6481 31.2229C23.6516 31.1948 23.6598 31.1817 23.6682 31.168C23.6756 31.1561 23.6832 31.1437 23.688 31.1211C23.747 30.8468 23.7292 30.6875 23.7035 30.4558C23.6893 30.328 23.6726 30.178 23.665 29.9745C23.6585 29.759 23.6607 29.696 23.6916 29.6101C23.6675 29.5037 23.6434 29.3973 23.6194 29.2909C23.6099 29.2978 23.6028 29.3643 23.5927 29.4749C23.5747 29.6723 23.5162 29.7444 23.4705 29.8008C23.4493 29.8269 23.4309 29.8498 23.4205 29.88C23.3651 30.041 23.3812 30.2652 23.3954 30.4625C23.4032 30.5711 23.4104 30.6716 23.4048 30.7488C23.4024 30.7819 23.4058 30.8147 23.4092 30.8482C23.4119 30.874 23.4146 30.9003 23.4147 30.9274C23.4155 31.1238 23.3827 31.2696 23.3524 31.405C23.335 31.4826 23.3184 31.557 23.3092 31.6353C23.3064 31.6592 23.3042 31.6836 23.3021 31.7072C23.2991 31.7418 23.2961 31.7747 23.2915 31.8029C23.2809 31.8671 23.2591 31.9104 23.2353 31.9576C23.2231 31.9818 23.2103 32.0071 23.1982 32.0368C23.1826 32.0754 23.1769 32.1531 23.171 32.2342C23.1668 32.2916 23.1624 32.3507 23.1543 32.3993C23.1396 32.4874 23.11 32.5191 23.0825 32.5486C23.0705 32.5615 23.059 32.5742 23.0492 32.5907C23.0452 32.5973 23.0433 32.6107 23.0429 32.629C22.9978 32.6905 22.9547 32.7533 22.9128 32.8149C22.7026 33.1233 22.5206 33.3907 22.2489 33.1969C22.1976 33.1602 22.1424 33.1675 22.0867 33.1969C21.9083 33.1198 21.7299 33.0402 21.5516 32.9586C21.5164 32.7816 21.4732 32.633 21.4221 32.5163C21.3261 32.2973 21.2274 32.2505 21.1109 32.1952C21.0248 32.1544 20.929 32.1088 20.8173 31.9857C20.6296 31.7788 20.437 31.6038 20.2196 31.5129C20.0031 31.4223 19.7553 31.3556 19.5799 31.3319C19.4844 31.319 19.384 31.1606 19.2904 31.0133C19.1588 30.806 19.0407 30.6202 18.9686 30.8896C18.9456 30.9757 18.9233 31.1252 18.9017 31.2704C18.8862 31.3738 18.871 31.4748 18.8561 31.55C18.8164 31.5267 18.7767 31.5036 18.737 31.48C18.6664 31.3004 18.5568 31.1079 18.4508 31.3082C18.4098 31.2834 18.3688 31.2588 18.3292 31.2338C18.2429 31.1816 18.1584 31.1287 18.0731 31.0754C18.0453 31.0578 18.0172 31.0401 17.989 31.0224C17.9887 31.0222 17.9885 31.022 17.9882 31.0218C17.9315 30.9861 17.8743 30.9501 17.8181 30.914C17.7941 30.8985 17.77 30.8831 17.7459 30.8677C17.6848 30.8285 17.6231 30.7892 17.5626 30.7495C17.5305 30.7283 17.4982 30.7074 17.4658 30.6861C17.4132 30.6516 17.3602 30.6169 17.3075 30.5819C17.2223 30.5254 17.1374 30.4683 17.0524 30.4107C17.0385 30.4012 17.0252 30.3713 17.0153 30.326C17.0055 30.2806 17 30.2238 17 30.1652C17 30.1065 17.0056 30.0495 17.0154 30.0043C17.0253 29.9593 17.0386 29.9301 17.0525 29.9209C17.1376 29.8648 17.2225 29.8094 17.3078 29.7545C17.3606 29.7206 17.4135 29.6863 17.4661 29.6528C17.4985 29.6321 17.5309 29.6118 17.5629 29.5912C17.6235 29.5527 17.6852 29.5141 17.7464 29.4761C17.7705 29.4611 17.7945 29.446 17.8186 29.431C17.8749 29.3958 17.9322 29.3609 17.9891 29.3262C17.9895 29.326 17.9898 29.3258 17.9901 29.3256C18.0181 29.3085 18.046 29.2914 18.0737 29.2744C18.159 29.2227 18.2435 29.1715 18.3299 29.1209C18.3746 29.0936 18.4211 29.0669 18.4672 29.0399C18.4929 29.0248 18.5186 29.0097 18.5438 28.9948C18.5576 28.9868 18.5715 28.9789 18.5856 28.971C18.9077 28.7837 19.2276 28.6035 19.5504 28.4306C19.8721 28.2577 20.1943 28.092 20.5155 27.9328C20.8375 27.7737 21.159 27.6214 21.4807 27.4753C23.5224 26.5474 25.5724 25.7867 27.6232 25.3106C27.9157 25.2422 28.2158 25.1806 28.5089 25.1253C28.8052 25.0701 29.0955 25.021 29.3925 24.9791C29.4828 24.966 29.5753 24.9537 29.6702 24.942Z" fill="black"/>
<path d="M21.1169 58.942C22.398 58.8442 23.6309 59.767 24.9164 59.7687C26.5124 59.771 28.1338 58.8892 29.7335 59.0534C31.324 59.2177 32.9222 59.4536 34.5152 59.7444C36.1101 60.0352 37.7026 60.3808 39.2983 60.7636C40.8906 61.1465 42.4863 61.5665 44.0798 62.0072C45.1622 62.3065 46.2457 62.6155 47.328 62.9284C47.8031 63.0655 48.2768 63.2032 48.7516 63.3414C49.1059 63.4448 49.4602 63.5482 49.8144 63.6516C49.8637 63.6661 49.9109 63.7253 49.9456 63.8191C49.9804 63.9131 50 64.0335 50 64.1579C49.9999 64.2823 49.9802 64.4029 49.9453 64.4966C49.9104 64.59 49.8631 64.6483 49.8138 64.6623C49.4566 64.7625 49.0994 64.8626 48.7421 64.9627C48.3453 65.0738 47.9492 65.185 47.5525 65.2954C47.49 64.7849 47.4043 64.3977 47.2437 64.2267C47.1617 64.1395 47.0422 64.1032 46.9542 64.1981C46.8751 64.2833 46.8156 64.4353 46.759 64.5801C46.6999 64.7316 46.6438 64.8754 46.5716 64.9261C46.449 65.0124 46.3325 65.2291 46.2101 65.4568C46.1656 65.5397 46.1202 65.6241 46.0735 65.7042C45.6949 65.808 45.3162 65.911 44.9375 66.0131C44.7913 65.9587 44.6568 65.9148 44.5427 65.9357C44.4404 65.9545 44.3467 66.0623 44.2534 66.1965C44.1948 66.2121 44.1361 66.2277 44.0775 66.2434C43.6992 66.3438 43.3207 66.4427 42.9423 66.5407C42.6469 66.4045 42.3374 66.2722 41.935 66.2141C41.7616 66.1891 41.5904 66.1154 41.4259 66.0448C41.1829 65.9403 40.9544 65.8422 40.754 65.9156C40.62 65.9646 40.4791 65.8925 40.3386 65.8205C40.15 65.724 39.9619 65.6277 39.7913 65.8242C39.6841 65.9478 39.5856 66.098 39.4944 66.2373C39.3492 66.4589 39.2224 66.6528 39.1076 66.6662C38.8918 66.6913 38.705 66.8527 38.5403 66.9952C38.3423 67.1665 38.1762 67.3103 38.0303 67.1554C38.0082 67.132 37.9829 67.1007 37.9544 67.0653C37.8042 66.8783 37.564 66.5792 37.2193 66.7436C37.0965 66.8021 36.9812 66.9543 36.8683 67.1037C36.704 67.321 36.5443 67.532 36.3734 67.4381C36.3479 67.4241 36.3212 67.3652 36.2969 67.3114C36.266 67.243 36.239 67.1833 36.2231 67.2353C36.1762 67.3876 36.1019 67.5559 36.0211 67.7391C35.9618 67.8737 35.8989 68.0164 35.8409 68.1662C35.3979 68.2509 34.9549 68.3319 34.5118 68.4087C34.3088 68.4439 34.1057 68.4782 33.9026 68.5117C33.7987 68.2823 33.6925 68.0758 33.5803 67.9195C33.4336 67.7152 33.2434 67.6526 32.9983 67.5716C32.818 67.5119 32.6078 67.4422 32.3632 67.2992C31.9104 67.0347 31.4453 67.094 31.1473 67.2359C31.0842 67.2659 31.0209 67.2979 30.9531 67.3327C30.696 67.4649 30.3753 67.6303 29.766 67.8128C29.1896 67.9855 28.6995 68.0302 28.3313 68.0639C28.1433 68.081 27.9871 68.0948 27.8674 68.1217C27.6626 68.1678 27.4111 68.2087 27.1586 68.2497C26.7635 68.3138 26.366 68.3779 26.1409 68.4635C26.0608 68.494 25.9767 68.5317 25.8859 68.572C25.6343 68.6836 25.3303 68.8183 24.9114 68.8961C24.4717 68.9778 24.1991 68.9221 23.916 68.8011C23.8009 68.7519 23.6994 68.5573 23.5948 68.3563C23.4463 68.0711 23.2915 67.7734 23.0821 67.8622C23.0332 67.8829 22.981 67.9293 22.9264 67.9779C22.8262 68.0673 22.7178 68.1642 22.6068 68.1217C22.5681 68.1069 22.534 68.0541 22.5005 68.0023C22.4637 67.9454 22.4277 67.8897 22.3868 67.8866C22.2343 67.875 22.0858 67.8881 21.9539 67.9C21.7838 67.9152 21.6411 67.9279 21.5526 67.8817C21.3948 67.7993 21.2222 67.873 21.0475 67.9481C20.914 68.0054 20.7792 68.0637 20.6487 68.0529C20.2757 68.0219 19.7627 68.1624 19.2342 68.3965C19.0342 68.485 18.8648 68.3641 18.6477 68.2089C18.5127 68.1123 18.3592 68.002 18.1684 67.9213C18.0602 67.8755 17.9686 67.9832 17.8838 68.0827C17.8057 68.1744 17.7332 68.2592 17.6589 68.2113C17.5933 68.169 17.5518 67.9879 17.5124 67.8159C17.4686 67.6245 17.4274 67.4444 17.3583 67.4796C17.3216 67.4983 17.277 67.5888 17.2239 67.6965C17.2029 67.739 17.1804 67.7841 17.1567 67.8287C17.1579 67.7919 17.1582 67.7591 17.1583 67.7342C17.1583 67.5585 17.0879 67.466 17.0188 67.3754C16.9912 67.3392 16.9638 67.3035 16.9412 67.2627C16.8581 67.1126 16.7009 67.0881 16.5807 67.0951C16.5299 67.098 16.4838 67.0436 16.43 66.98C16.3823 66.9235 16.3285 66.8598 16.2599 66.8228C16.2208 66.8017 16.1907 66.7508 16.1659 66.7082C16.1479 66.6775 16.1326 66.6512 16.1184 66.6443C16.1061 66.6383 16.0961 66.6887 16.085 66.7454C16.077 66.7862 16.0682 66.8305 16.0575 66.8593C16.0319 66.9283 15.999 66.9491 15.9759 66.927C15.9652 66.9167 15.9568 66.8971 15.9484 66.8776C15.9387 66.8549 15.929 66.832 15.9156 66.824C15.8543 66.7873 15.7947 66.8448 15.7327 66.9044C15.6646 66.97 15.5936 67.0381 15.5145 66.9873C15.4896 66.9713 15.4631 66.9346 15.4374 66.8989C15.4106 66.8617 15.3845 66.8257 15.3623 66.8161C15.2722 66.7772 15.1875 66.9028 15.1096 67.0184C15.0578 67.0952 15.0089 67.1675 14.9635 67.1841C14.8803 67.2144 14.8356 67.3652 14.8027 67.4765C14.7856 67.5342 14.7717 67.5816 14.7571 67.5959C14.7437 67.5917 14.7301 67.5867 14.7169 67.5813C14.7047 67.5702 14.6921 67.5588 14.6802 67.5624C14.6793 67.5627 14.6785 67.5634 14.6776 67.5636C14.6032 67.5271 14.5301 67.4752 14.4575 67.4235C14.2943 67.3074 14.1332 67.1924 13.9629 67.2572C13.9262 67.2712 13.8888 67.3334 13.8507 67.3967C13.8041 67.4742 13.7564 67.5535 13.7079 67.5478C13.5921 67.5342 13.4753 67.4315 13.3602 67.3303C13.1871 67.1781 13.0179 67.0294 12.8623 67.1926C12.811 67.2465 12.7609 67.3362 12.7107 67.4266C12.6827 67.4769 12.6546 67.5278 12.6262 67.5722C12.6322 67.4897 12.6354 67.4123 12.6384 67.34C12.6446 67.1912 12.6499 67.0638 12.6771 66.9556C12.7416 66.6999 12.8146 66.3478 12.8065 66.0911C12.8043 66.0214 12.806 65.9438 12.808 65.8656C12.8129 65.6696 12.8178 65.4694 12.758 65.3788C12.7177 65.3178 12.6141 65.1777 12.5482 65.3276C12.5339 65.3603 12.5251 65.4251 12.5154 65.497C12.4979 65.6263 12.4771 65.7794 12.4147 65.8151C12.4042 65.8211 12.3927 65.8265 12.3809 65.8315C12.3338 65.8516 12.2811 65.8738 12.2613 65.9777C12.2386 66.0975 12.2435 66.2346 12.2491 66.3945C12.2565 66.6027 12.2653 66.85 12.2163 67.1481C12.2066 67.2071 12.1881 67.2272 12.1742 67.2426C12.1643 67.2534 12.1568 67.262 12.1561 67.2797C12.1552 67.3001 12.1584 67.3425 12.1624 67.3961C12.1765 67.5853 12.201 67.9158 12.0986 67.9298C12.071 67.9336 12.0393 67.9178 12.0109 67.9036C11.9691 67.8827 11.9343 67.8654 11.9297 67.9195C11.9279 67.94 11.9267 67.9622 11.9257 67.9853C11.8923 67.9788 11.859 67.9723 11.8257 67.9658C11.783 67.9013 11.723 67.9068 11.6481 67.914C11.63 67.9157 11.6108 67.9173 11.5909 67.9182C11.5252 67.9049 11.4594 67.8916 11.3937 67.878C11.3416 67.8507 11.2861 67.8061 11.2276 67.7355C11.1103 67.5938 11.0082 67.3601 10.9085 67.1317C10.8664 67.0354 10.8248 66.9399 10.7826 66.8526C10.799 66.8419 10.8139 66.8293 10.8253 66.8118C10.9035 66.6925 10.9349 66.4577 10.9638 66.2415C10.983 66.0978 11.0011 65.9622 11.0311 65.8748C11.0861 65.7145 11.0805 65.5271 11.0765 65.3886C11.0744 65.3167 11.0728 65.2578 11.0801 65.2229C11.086 65.1948 11.0996 65.1817 11.1137 65.168C11.1259 65.1561 11.1386 65.1437 11.1467 65.1211C11.2449 64.8468 11.2154 64.6875 11.1724 64.4558C11.1488 64.328 11.1211 64.178 11.1084 63.9745C11.0974 63.759 11.1011 63.696 11.1526 63.6101C11.1125 63.5037 11.0724 63.3973 11.0323 63.2909C11.0165 63.2978 11.0046 63.3643 10.9878 63.4749C10.9579 63.6723 10.8603 63.7444 10.7841 63.8008C10.7488 63.8269 10.7181 63.8498 10.7008 63.88C10.6086 64.041 10.6354 64.2652 10.659 64.4625C10.672 64.5711 10.684 64.6716 10.6746 64.7488C10.6707 64.7819 10.6763 64.8147 10.6821 64.8482C10.6865 64.874 10.691 64.9003 10.6912 64.9274C10.6924 65.1238 10.6379 65.2696 10.5873 65.405C10.5583 65.4826 10.5306 65.557 10.5154 65.6353C10.5107 65.6592 10.507 65.6836 10.5035 65.7072C10.4985 65.7418 10.4935 65.7747 10.4858 65.8029C10.4682 65.8671 10.4319 65.9104 10.3921 65.9576C10.3718 65.9818 10.3505 66.0071 10.3304 66.0368C10.3043 66.0754 10.2949 66.1531 10.285 66.2342C10.2779 66.2916 10.2706 66.3507 10.2571 66.3993C10.2327 66.4874 10.1833 66.5191 10.1375 66.5486C10.1176 66.5615 10.0983 66.5742 10.082 66.5907C10.0754 66.5973 10.0722 66.6107 10.0715 66.629C9.99634 66.6905 9.92454 66.7533 9.85466 66.8149C9.50432 67.1233 9.20107 67.3907 8.74821 67.1969C8.6626 67.1602 8.57065 67.1675 8.47775 67.1969C8.18054 67.1198 7.88317 67.0402 7.58607 66.9586C7.52726 66.7816 7.45532 66.633 7.37016 66.5163C7.21022 66.2973 7.04569 66.2505 6.85155 66.1952C6.70802 66.1544 6.54828 66.1088 6.36213 65.9857C6.04938 65.7788 5.72826 65.6038 5.36592 65.5129C5.00516 65.4223 4.59212 65.3556 4.29991 65.3319C4.14061 65.319 3.97329 65.1606 3.81735 65.0133C3.598 64.806 3.40117 64.6202 3.28101 64.8896C3.24263 64.9757 3.20553 65.1252 3.16943 65.2704C3.14372 65.3738 3.11836 65.4748 3.09352 65.55C3.02737 65.5267 2.96116 65.5036 2.89496 65.48C2.77736 65.3004 2.5946 65.1079 2.41794 65.3082C2.34966 65.2834 2.28134 65.2588 2.21538 65.2338C2.07144 65.1816 1.93062 65.1287 1.78851 65.0754C1.74213 65.0578 1.69529 65.0401 1.64832 65.0224C1.64788 65.0222 1.64743 65.022 1.64699 65.0218C1.55246 64.9861 1.45722 64.9501 1.36356 64.914C1.32344 64.8985 1.28332 64.8831 1.24321 64.8677C1.14126 64.8285 1.03857 64.7892 0.937649 64.7495C0.884235 64.7283 0.830308 64.7074 0.776288 64.6861C0.688651 64.6516 0.600351 64.6169 0.512503 64.5819C0.370433 64.5254 0.22903 64.4683 0.0873563 64.4107C0.0641868 64.4012 0.0419215 64.3713 0.0255584 64.326C0.00920119 64.2806 -2.50058e-05 64.2238 5.09005e-08 64.1652C3.20872e-05 64.1065 0.00933623 64.0495 0.0257492 64.0043C0.0421512 63.9593 0.0643937 63.9301 0.087547 63.9209C0.229321 63.8648 0.370906 63.8094 0.513075 63.7545C0.600939 63.7206 0.689207 63.6863 0.77686 63.6528C0.830905 63.6321 0.884781 63.6118 0.938221 63.5912C1.03915 63.5527 1.14201 63.5141 1.24397 63.4761C1.28409 63.4611 1.3242 63.446 1.36432 63.431C1.45824 63.3958 1.55374 63.3609 1.64852 63.3262C1.64909 63.326 1.64966 63.3258 1.65023 63.3256C1.69686 63.3085 1.74341 63.2914 1.78947 63.2744C1.93163 63.2227 2.07253 63.1715 2.21652 63.1209C2.29092 63.0936 2.36845 63.0669 2.4454 63.0399C2.48825 63.0248 2.53101 63.0097 2.573 62.9948C2.59596 62.9868 2.61923 62.9789 2.64262 62.971C3.17952 62.7837 3.71264 62.6035 4.2507 62.4306C4.78675 62.2577 5.32376 62.092 5.85916 61.9328C6.39586 61.7737 6.93162 61.6214 7.46781 61.4753C10.8707 60.5474 14.2873 59.7867 17.7053 59.3106C18.1928 59.2422 18.6931 59.1806 19.1816 59.1253C19.6754 59.0701 20.1591 59.021 20.6542 58.9791C20.8046 58.966 20.9588 58.9537 21.1169 58.942Z" fill="black"/>
<circle cx="32.7675" cy="5.70219" r="3.3234" transform="rotate(8.2828 32.7675 5.70219)" fill="black"/>
<path d="M26.8176 7.83236C26.4109 6.85952 26.871 5.81398 26.9968 4.9237C26.9995 4.90359 27.0022 4.88345 27.0048 4.86328C27.1337 3.77139 27.2175 2.36278 28.1494 1.48713C29.0633 0.629141 30.2502 0.113794 31.4327 0.0183162C32.1708 -0.0440183 32.9034 0.0550355 33.5562 0.284272C33.9496 0.421731 34.322 0.606375 34.6589 0.829654C35.5576 1.42233 36.1824 2.28634 36.4663 3.17465C36.662 3.77847 36.7072 4.39509 36.624 4.95558C36.5878 5.20169 36.5276 5.43683 36.447 5.65723C36.3869 5.82134 36.3155 5.97824 36.2352 6.1245C36.2239 6.14492 36.1859 6.16092 36.1281 6.1679C36.0702 6.17492 35.9976 6.17246 35.9237 6.16167C35.8498 6.15087 35.7794 6.13266 35.7255 6.1119C35.6718 6.09112 35.6394 6.06951 35.6332 6.05073C35.5893 5.91481 35.5359 5.78518 35.4743 5.66478C35.406 5.53068 35.3276 5.40713 35.2421 5.29497C35.5411 5.22609 35.7648 5.15401 35.8527 5.07098C35.8976 5.02893 35.908 4.97572 35.8444 4.95514C35.7872 4.93663 35.6931 4.93719 35.6038 4.93964C35.5103 4.94216 35.422 4.94687 35.3859 4.93183C35.3243 4.9061 35.1883 4.90806 35.0472 4.91784C34.9958 4.92134 34.9436 4.92576 34.8939 4.92978C34.7985 4.85006 34.6994 4.78116 34.5986 4.72285C34.6094 4.6738 34.6139 4.62884 34.5874 4.60913C34.5635 4.59141 34.4952 4.60434 34.4152 4.629C34.3994 4.62194 34.3836 4.61515 34.3677 4.60861C34.2657 4.56625 34.1639 4.53406 34.0637 4.51178C34.0797 4.40853 34.0826 4.29844 34.0295 4.20754C34.0067 4.16858 34.0011 4.10771 33.9922 4.04823C33.9796 3.9608 33.9587 3.87598 33.8896 3.88502C33.8438 3.89129 33.8344 3.83567 33.8211 3.7791C33.8043 3.7038 33.7785 3.62627 33.6862 3.71356C33.6284 3.76857 33.5689 3.841 33.5163 3.90966C33.4326 4.01889 33.3669 4.11845 33.3415 4.11783C33.2934 4.11649 33.2264 4.19727 33.1741 4.27139C33.1101 4.36024 33.0665 4.43867 33.0611 4.34244C33.0602 4.32785 33.0596 4.30859 33.0586 4.28668C33.0557 4.20571 33.046 4.08979 33.0068 4.05821C32.9905 4.04486 32.9695 4.04686 32.945 4.07373C32.9157 4.10584 32.884 4.19481 32.858 4.28288C32.8192 4.41108 32.7936 4.53692 32.7684 4.48044C32.7646 4.47199 32.7605 4.43666 32.7563 4.40441C32.7512 4.3634 32.7459 4.32765 32.7437 4.35884C32.7371 4.45033 32.7279 4.55158 32.7219 4.66184C32.7174 4.74285 32.7147 4.82874 32.7147 4.91879C32.6752 4.97219 32.6448 5.0264 32.6217 5.07913C32.6112 5.10331 32.6021 5.12723 32.5945 5.15072C32.5457 5.02184 32.4956 4.90788 32.4512 4.82423C32.393 4.71502 32.3544 4.6895 32.3027 4.6594C32.2642 4.63749 32.2186 4.61286 32.1422 4.55691C31.9984 4.45412 31.9373 4.53884 31.9508 4.63644C31.9532 4.65726 31.9567 4.67893 31.9612 4.70213C31.979 4.7899 32.0044 4.89811 32.0323 5.02904C32.0601 5.15191 32.055 5.20733 32.0508 5.2513C32.049 5.27344 32.0482 5.29144 32.0565 5.30974C32.0708 5.34095 32.0821 5.37323 32.0955 5.40385C32.1162 5.45183 32.1424 5.49584 32.1869 5.52667C32.2027 5.53765 32.2229 5.54968 32.2447 5.56184C32.3007 5.59331 32.3697 5.6246 32.4141 5.65075C32.4175 5.6528 32.4208 5.65481 32.4239 5.65678C32.4698 5.68449 32.4364 5.68836 32.3635 5.70253C32.3339 5.70784 32.2172 5.71423 32.0969 5.72682C31.9262 5.74344 31.7489 5.77624 31.8045 5.79728C31.8174 5.8019 31.8457 5.8051 31.8754 5.80774C31.93 5.81283 31.9889 5.81471 31.9654 5.8293C31.9572 5.83446 31.9265 5.84298 31.8965 5.85181C31.8635 5.86149 31.8314 5.87157 31.8304 5.87665C31.8268 5.89555 31.8384 5.91127 31.8489 5.92448C31.8625 5.94162 31.8742 5.95498 31.8506 5.97289C31.8086 6.00519 31.8579 6.01331 31.907 6.0161C31.9446 6.01867 31.9822 6.01866 31.9817 6.03394C31.9799 6.07826 32.0845 6.0964 32.2263 6.05557C32.2796 6.03996 32.2261 6.09014 32.1652 6.16386C32.1271 6.20947 32.0859 6.26403 32.0642 6.31294C32.052 6.34082 32.1079 6.30632 32.1576 6.2721C32.2037 6.24082 32.2447 6.21011 32.2291 6.23528C32.2154 6.25751 32.1417 6.33747 32.0731 6.41471C31.9966 6.50051 31.9265 6.58301 31.9487 6.57498C31.9604 6.57063 32.0024 6.53552 32.0512 6.4926C32.0705 6.47563 32.0908 6.45754 32.1108 6.43957C32.096 6.45589 32.0828 6.47053 32.0729 6.48164C32.0024 6.56001 31.973 6.60823 31.9457 6.65657C31.9348 6.67585 31.9243 6.69505 31.9113 6.71614C31.8636 6.7938 31.8769 6.82371 31.8965 6.83347C31.9047 6.83764 31.8914 6.86857 31.8768 6.90521C31.8637 6.93771 31.8496 6.97478 31.8479 7.00082C31.8469 7.01564 31.8343 7.04415 31.8241 7.06807C31.8166 7.08537 31.8104 7.10022 31.8105 7.10535C31.8107 7.10977 31.8295 7.086 31.8505 7.05912C31.8656 7.03977 31.8819 7.01876 31.8933 7.00555C31.9206 6.97402 31.9325 6.96698 31.9289 6.98051C31.9272 6.98677 31.9221 6.99749 31.9171 7.00818C31.9112 7.02063 31.9053 7.03318 31.905 7.03866C31.9033 7.0638 31.9321 7.04123 31.961 7.01695C31.9929 6.99039 32.0245 6.96166 32.0219 6.99537C32.0211 7.00599 32.0144 7.02758 32.0082 7.04863C32.0017 7.07065 31.9958 7.09203 31.9969 7.09921C32.0015 7.12845 32.0523 7.07004 32.0964 7.0147C32.1259 6.97797 32.1527 6.94286 32.164 6.93731C32.1849 6.92729 32.2301 6.84845 32.2625 6.78985C32.2793 6.7595 32.2929 6.73446 32.2984 6.72748C32.299 6.73055 32.2995 6.73406 32.2999 6.7378C32.2987 6.74457 32.2975 6.75157 32.3 6.75025C32.3001 6.75015 32.3004 6.74985 32.3006 6.74974C32.3013 6.77406 32.299 6.80689 32.2974 6.83979C32.2935 6.91355 32.2966 6.98847 32.3362 6.96083C32.3446 6.95486 32.3623 6.92136 32.3796 6.88706C32.4009 6.84507 32.4216 6.8017 32.4273 6.80701C32.4408 6.81962 32.4403 6.88352 32.4435 6.94704C32.4473 7.04236 32.4615 7.13689 32.5074 7.04596C32.5222 7.01592 32.5403 6.96449 32.5573 6.91238C32.5668 6.88334 32.5761 6.85398 32.5845 6.82834C32.5757 6.87705 32.5677 6.92283 32.5603 6.96551C32.5449 7.05348 32.5317 7.12878 32.5157 7.19195C32.4785 7.34131 32.4233 7.54594 32.397 7.69773C32.39 7.73894 32.3811 7.78466 32.3721 7.83066C32.3495 7.9461 32.3255 8.06388 32.3342 8.12065C32.3396 8.15885 32.3595 8.24744 32.394 8.16163C32.4015 8.14294 32.4099 8.10491 32.4191 8.06263C32.4235 8.04239 32.4281 8.02115 32.4329 8.00052C32.446 7.94374 32.4602 7.89163 32.4749 7.8778C32.4783 7.87462 32.4819 7.87182 32.4855 7.86925C32.5001 7.85899 32.5162 7.8475 32.5285 7.78614C32.5427 7.71547 32.5505 7.63354 32.5601 7.53808C32.5723 7.41372 32.5886 7.26624 32.6171 7.08945C32.6227 7.05449 32.6272 7.04279 32.6305 7.0339C32.6328 7.02763 32.6346 7.0226 32.6358 7.01203C32.6372 6.99989 32.6393 6.97454 32.6419 6.94247C32.6511 6.8293 32.6697 6.6319 32.6824 6.62469C32.6859 6.62276 32.6888 6.6325 32.6916 6.64129C32.6956 6.65424 32.6992 6.66491 32.7021 6.63259C32.7032 6.62033 32.7043 6.60703 32.7055 6.59325C32.709 6.59742 32.7126 6.60157 32.7162 6.60569C32.7188 6.64461 32.7263 6.64171 32.7353 6.63776C32.7375 6.6368 32.7398 6.63592 32.7422 6.63544C32.7497 6.64369 32.7574 6.6518 32.7652 6.66001C32.7714 6.67646 32.778 6.70317 32.7863 6.74547C32.8027 6.83024 32.8225 6.96985 32.8474 7.10578C32.8579 7.16306 32.8693 7.2198 32.8813 7.27141C32.8785 7.27806 32.8761 7.28583 32.8745 7.29642C32.8635 7.36888 32.8639 7.50988 32.8631 7.63975C32.8625 7.72613 32.8614 7.8076 32.8554 7.86036C32.8441 7.95699 32.8486 8.0693 32.8528 8.15235C32.8548 8.19543 32.8566 8.23073 32.8549 8.25177C32.8536 8.26863 32.8494 8.27667 32.8451 8.28499C32.8413 8.29223 32.8374 8.2998 32.8351 8.31341C32.8063 8.47866 32.8155 8.57399 32.8351 8.7127C32.8456 8.78919 32.8589 8.87886 32.8678 9.00076C32.8761 9.12984 32.8761 9.16774 32.8546 9.21979C32.8738 9.2832 32.894 9.34646 32.9152 9.40954C32.9224 9.4051 32.9263 9.36498 32.931 9.29838C32.9394 9.17948 32.979 9.13412 33.0093 9.09802C33.0233 9.08133 33.0352 9.06665 33.0411 9.04796C33.0718 8.94846 33.0473 8.81547 33.0286 8.69831C33.0181 8.63382 33.0089 8.57408 33.0083 8.5276C33.008 8.50772 33.0044 8.48828 33.0007 8.46844C32.9979 8.45311 32.995 8.43751 32.9937 8.42134C32.9838 8.30389 32.9943 8.21524 33.0019 8.1329C33.0063 8.08574 33.0099 8.04051 33.0093 7.99328C33.0092 7.97889 33.0087 7.96425 33.0082 7.95003C33.0074 7.92928 33.0067 7.90949 33.007 7.89244C33.0077 7.8536 33.0146 7.82669 33.0216 7.79731C33.0252 7.78225 33.0289 7.76652 33.0318 7.74816C33.0355 7.72436 33.0317 7.67783 33.0276 7.62925C33.0247 7.59491 33.0217 7.55955 33.0208 7.5302C33.0192 7.47712 33.0273 7.45672 33.0345 7.43771C33.0376 7.42943 33.0406 7.42122 33.0425 7.41092C33.0433 7.40673 33.0427 7.39871 33.041 7.38783C33.051 7.34884 33.059 7.30914 33.0657 7.27029C33.1013 7.07454 33.0968 6.9105 33.2049 6.99712C33.2258 7.01323 33.2397 7.00359 33.2484 6.98149C33.3124 7.00672 33.3809 7.02877 33.4536 7.04653C33.512 7.13594 33.567 7.20785 33.6173 7.26008C33.7122 7.35795 33.7625 7.3613 33.8206 7.36369C33.864 7.36516 33.9119 7.36617 33.9949 7.39732C34.1343 7.44952 34.2746 7.47186 34.3913 7.43758C34.5075 7.40406 34.6245 7.33599 34.693 7.27392C34.7303 7.2407 34.8373 7.25743 34.9399 7.26643C35.0835 7.28018 35.2183 7.27722 35.1033 7.1561C35.0665 7.11749 34.9966 7.0599 34.9279 7.00512C34.8789 6.96609 34.8308 6.92844 34.7957 6.89919C34.8177 6.88953 34.8395 6.87935 34.8616 6.86886C34.9724 6.89143 35.1042 6.88958 35.0204 6.78635C35.0431 6.77351 35.0655 6.76022 35.0878 6.74717C35.1352 6.7181 35.1822 6.68812 35.2289 6.65577C35.2443 6.64525 35.2597 6.63434 35.2752 6.62317C35.2753 6.62307 35.2755 6.62297 35.2757 6.62288C35.3067 6.60044 35.3376 6.5771 35.3682 6.55316C35.3813 6.54291 35.3943 6.53247 35.4073 6.52185C35.4402 6.49498 35.4728 6.46696 35.5051 6.43829C35.5223 6.42318 35.5393 6.40731 35.5563 6.39158C35.584 6.3659 35.6115 6.33912 35.6387 6.31163C35.6828 6.26686 35.726 6.2215 35.7686 6.173C35.7756 6.16511 35.7946 6.15935 35.8224 6.15702C35.8503 6.15471 35.8846 6.15597 35.9194 6.16104C35.9542 6.16612 35.9875 6.17478 36.0133 6.18551C36.0391 6.19621 36.0549 6.20809 36.0589 6.21856C36.0829 6.28276 36.1049 6.34714 36.1244 6.41441C36.1365 6.45577 36.148 6.49776 36.1584 6.53977C36.1648 6.56556 36.1706 6.59193 36.1764 6.61799C36.1872 6.66733 36.1967 6.7178 36.2049 6.76859C36.2082 6.78865 36.2112 6.80878 36.2141 6.82898C36.2209 6.8763 36.2265 6.92441 36.2309 6.9729C36.2309 6.9732 36.2309 6.97349 36.231 6.97378C36.2331 6.99767 36.2351 7.02162 36.2368 7.0454C36.2418 7.11857 36.2445 7.192 36.2439 7.2675C36.2442 7.30679 36.243 7.34727 36.2412 7.38807C36.2402 7.41077 36.2391 7.4335 36.2378 7.45588C36.237 7.46806 36.236 7.48036 36.235 7.49274C36.2139 7.77847 36.1556 8.06866 36.0567 8.35614C35.9585 8.64281 35.8209 8.92504 35.6471 9.19209C35.4728 9.45964 35.262 9.71214 35.0178 9.94118C34.261 10.6598 33.1533 11.1419 31.9694 11.1841C30.7508 11.2403 29.4239 10.8112 28.3973 9.95514C28.1077 9.71656 27.8349 9.43824 27.597 9.1399C27.3567 8.83819 27.149 8.5165 26.9722 8.1659C26.9184 8.05964 26.8667 7.94829 26.8176 7.83236Z" fill="black"/>
</svg>
