<svg width="51" height="69" viewBox="0 0 51 69" fill="none" xmlns="http://www.w3.org/2000/svg">
<path d="M22.0792 8.92336C21.6573 7.85267 21.918 6.714 22.0616 5.6746C22.0647 5.6515 22.0679 5.62837 22.071 5.60521C22.2341 4.33326 22.5381 2.86815 23.5319 1.87916C24.516 0.895541 25.8104 0.255218 27.1419 0.064888C27.9731 -0.0565615 28.8152 -0.00493889 29.5951 0.198299C30.065 0.320126 30.5175 0.496579 30.9377 0.721298C32.0571 1.31685 32.9298 2.25659 33.4331 3.30979C33.7775 4.02493 33.9573 4.79293 33.9735 5.53848C33.981 5.86575 33.9576 6.18826 33.9058 6.50126C33.8671 6.73431 33.8125 6.96349 33.7439 7.18369C33.7343 7.21442 33.7069 7.2415 33.6666 7.25826C33.6263 7.27505 33.5769 7.28025 33.5277 7.27304C33.4784 7.26581 33.4325 7.24679 33.3982 7.2208C33.3641 7.1948 33.3447 7.16395 33.3427 7.13431C33.3285 6.91996 33.2999 6.70792 33.2573 6.50295C33.21 6.2747 33.1456 6.05373 33.0661 5.8421C33.2618 5.7746 33.4062 5.69685 33.4536 5.58652C33.4778 5.53042 33.4757 5.45398 33.4259 5.41038C33.3813 5.37119 33.3133 5.35148 33.2486 5.33394C33.1809 5.31562 33.1167 5.29983 33.0855 5.26557C33.0323 5.20735 32.9292 5.16973 32.8211 5.13579C32.7818 5.1234 32.7417 5.1114 32.703 5.09875C32.594 4.92105 32.4736 4.75395 32.3438 4.5983C32.3267 4.52049 32.3062 4.44972 32.2679 4.4024C32.2336 4.35991 32.1706 4.34076 32.0994 4.32985C32.0777 4.30797 32.0557 4.28639 32.0336 4.26509C31.8908 4.12758 31.7404 4.00213 31.5841 3.88962C31.5249 3.7448 31.4501 3.59442 31.3075 3.44261C31.246 3.37737 31.1953 3.29968 31.1431 3.22568C31.0665 3.11672 30.986 3.01572 30.8802 2.98485C30.8097 2.96432 30.7611 2.90245 30.7089 2.84104C30.64 2.75916 30.5637 2.67791 30.4481 2.71121C30.3755 2.7322 30.3041 2.76669 30.2396 2.80018C30.137 2.85355 30.0517 2.90409 29.9969 2.89001C29.8941 2.86367 29.7864 2.89805 29.6964 2.93193C29.5868 2.97239 29.5014 3.01136 29.4478 2.93651C29.4396 2.92516 29.4305 2.91049 29.4201 2.89389C29.3818 2.83257 29.3244 2.74545 29.2288 2.71426C29.1885 2.70107 29.142 2.69814 29.09 2.71212C29.028 2.72885 28.9664 2.78465 28.9097 2.84075C28.8266 2.92245 28.7534 3.00428 28.677 2.96636C28.6655 2.96069 28.6534 2.93714 28.6422 2.91569C28.628 2.88841 28.615 2.86469 28.6079 2.88557C28.5871 2.9468 28.5548 3.01486 28.5227 3.08952C28.4989 3.14435 28.4754 3.20274 28.455 3.26406C28.274 3.30939 28.0997 3.36834 27.9334 3.43904C27.8574 3.47141 27.7826 3.50636 27.7099 3.54355C27.6427 3.46868 27.574 3.40465 27.5076 3.36228C27.4205 3.30708 27.3327 3.3139 27.2199 3.32896C27.1367 3.34021 27.04 3.35582 26.914 3.35965C26.6789 3.36685 26.5038 3.51598 26.4303 3.64481C26.4144 3.67211 26.3993 3.70023 26.3838 3.73058C26.3263 3.84615 26.255 3.98876 26.1281 4.23207C26.0099 4.46241 25.907 4.63997 25.8354 4.77808C25.799 4.84857 25.7714 4.90778 25.7566 4.95672C25.7314 5.04016 25.699 5.14038 25.6724 5.24157C25.6301 5.39993 25.6033 5.56146 25.611 5.65768C25.6137 5.69182 25.6192 5.72817 25.6257 5.76711C25.6426 5.86717 25.6667 5.98293 25.6772 6.13018C25.678 6.14164 25.6788 6.15326 25.6794 6.16505C25.6902 6.33593 25.6642 6.43424 25.6142 6.54278C25.5941 6.58642 25.5168 6.62638 25.4377 6.67136C25.3255 6.73425 25.2101 6.8104 25.2541 6.89731C25.2643 6.91739 25.2851 6.93761 25.3071 6.95842C25.3475 6.99673 25.3919 7.03558 25.3822 7.08357C25.3789 7.1004 25.3603 7.1179 25.3423 7.13533C25.3225 7.15448 25.3032 7.17363 25.3052 7.19107C25.3126 7.25607 25.3314 7.31744 25.3493 7.37107C25.3724 7.4402 25.394 7.49733 25.3871 7.53888C25.3748 7.6132 25.4266 7.67622 25.4804 7.73532C25.5216 7.78093 25.5642 7.82474 25.5817 7.87691C25.6314 8.02664 25.7819 8.19979 25.9783 8.32708C26.0523 8.37512 26.0508 8.4571 26.0562 8.56664C26.0596 8.63453 26.0656 8.71294 26.0948 8.79605C26.1115 8.84324 26.1703 8.84402 26.2236 8.84294C26.2729 8.8421 26.3178 8.83994 26.3257 8.87526C26.3327 8.90646 26.2938 8.96994 26.2579 9.03108C26.2179 9.09901 26.1815 9.16407 26.2139 9.1753C26.231 9.18122 26.2705 9.16847 26.3168 9.15239C26.335 9.14602 26.3544 9.13922 26.3739 9.13278C26.3637 9.14337 26.3549 9.15306 26.3482 9.16046C26.3012 9.21269 26.2999 9.26129 26.3001 9.30932C26.3001 9.32849 26.3004 9.34754 26.2978 9.36672C26.2881 9.4374 26.3395 9.49218 26.3859 9.52434C26.4054 9.538 26.4094 9.5684 26.4147 9.60404C26.4194 9.63565 26.4252 9.67149 26.4436 9.70276C26.4541 9.72058 26.4544 9.7456 26.4547 9.7665C26.4549 9.78163 26.4552 9.79456 26.4594 9.80079C26.463 9.80617 26.4784 9.79229 26.4956 9.77655C26.5081 9.76523 26.5215 9.75294 26.5322 9.74623C26.5578 9.7302 26.5753 9.73188 26.5797 9.74534C26.5817 9.75156 26.5807 9.76032 26.5798 9.76905C26.5788 9.77921 26.5777 9.78943 26.5814 9.79562C26.5982 9.82403 26.6351 9.82013 26.6729 9.81532C26.7145 9.81014 26.7568 9.80368 26.779 9.84C26.786 9.85144 26.7896 9.87043 26.7933 9.88888C26.7972 9.90818 26.8012 9.92689 26.8087 9.93544C26.8396 9.97023 26.8995 9.94504 26.9532 9.92057C26.989 9.90434 27.0222 9.88856 27.044 9.89184C27.0842 9.89795 27.1284 9.85188 27.1604 9.81768C27.1771 9.79995 27.1906 9.78529 27.1988 9.78275C27.2035 9.78674 27.2082 9.79103 27.2127 9.79543C27.2158 9.8017 27.219 9.80817 27.2244 9.80897C27.2248 9.80903 27.2253 9.80895 27.2257 9.809C27.25 9.83577 27.2721 9.86779 27.2945 9.89932C27.3444 9.97009 27.3997 10.0401 27.4823 10.0407C27.5001 10.0409 27.5243 10.0226 27.5485 10.0039C27.5782 9.98092 27.608 9.95704 27.6281 9.96552C27.6756 9.98567 27.7147 10.0393 27.756 10.0917C27.8171 10.1703 27.8845 10.2461 27.9685 10.1957C27.996 10.1791 28.0252 10.1479 28.0539 10.1161C28.0699 10.0984 28.0858 10.0805 28.1012 10.065C28.0933 10.0971 28.0869 10.1275 28.0809 10.1558C28.0684 10.214 28.0578 10.264 28.0378 10.3045C27.9907 10.4004 27.9289 10.5321 27.9141 10.6338C27.9102 10.6615 27.9036 10.6918 27.8969 10.7224C27.8802 10.799 27.8625 10.8773 27.8889 10.9188C27.9063 10.9468 27.9554 11.0119 28.0013 10.9581C28.0112 10.9464 28.0199 10.9215 28.0294 10.8938C28.034 10.8805 28.0388 10.8666 28.044 10.8532C28.0583 10.8161 28.0759 10.7826 28.1017 10.7755C28.1076 10.7739 28.114 10.7726 28.1205 10.7714C28.1466 10.7667 28.1757 10.7612 28.1907 10.7211C28.2081 10.6749 28.2116 10.6201 28.216 10.5562C28.2216 10.473 28.2294 10.3744 28.2654 10.2584C28.2725 10.2355 28.2819 10.2283 28.289 10.2229C28.2939 10.2191 28.2978 10.216 28.2988 10.209C28.3 10.2009 28.3003 10.1839 28.3007 10.1624C28.3019 10.0864 28.3058 9.95407 28.3498 9.95274C28.3617 9.95237 28.3748 9.95986 28.3866 9.96656C28.4039 9.97643 28.4184 9.98443 28.422 9.963C28.4233 9.95487 28.4245 9.94604 28.4256 9.93688C28.4396 9.94051 28.4536 9.94406 28.4676 9.94752C28.4843 9.97437 28.5101 9.9736 28.5424 9.97198C28.5502 9.97159 28.5585 9.97124 28.567 9.97114C28.5951 9.97737 28.6232 9.98321 28.6514 9.98884C28.6737 9.99993 28.6974 10.0177 28.7235 10.0456C28.7756 10.1015 28.8245 10.1932 28.8758 10.282C28.8974 10.3194 28.9197 10.3563 28.9424 10.3897C28.9348 10.3945 28.928 10.4 28.9229 10.4073C28.8882 10.4574 28.8776 10.5519 28.867 10.6389C28.8599 10.6969 28.8529 10.7515 28.8383 10.787C28.8117 10.8522 28.8166 10.9269 28.8208 10.9823C28.8229 11.011 28.8246 11.0345 28.8209 11.0486C28.818 11.0599 28.8104 11.0654 28.8026 11.0711C28.7958 11.076 28.7888 11.0812 28.7844 11.0903C28.7307 11.2013 28.7473 11.2646 28.7754 11.3568C28.7907 11.4076 28.8092 11.4671 28.8196 11.5482C28.829 11.6342 28.8277 11.6595 28.7953 11.6947C28.8222 11.7366 28.8497 11.7783 28.8778 11.8198C28.8881 11.8167 28.8949 11.7897 28.9039 11.7451C28.9199 11.6654 28.9804 11.6334 29.0272 11.6074C29.0489 11.5954 29.0676 11.5848 29.0775 11.5719C29.1302 11.5028 29.1045 11.4149 29.0838 11.3375C29.0722 11.2949 29.0619 11.2555 29.0648 11.2242C29.066 11.2108 29.0616 11.198 29.0572 11.185C29.0537 11.1749 29.0502 11.1646 29.0492 11.1538C29.0422 11.0756 29.0683 11.0149 29.0909 10.9583C29.1039 10.9259 29.1159 10.8948 29.1209 10.8628C29.1224 10.853 29.1234 10.8431 29.1242 10.8335C29.1255 10.8195 29.1267 10.8061 29.1296 10.7944C29.1362 10.7679 29.1534 10.7485 29.172 10.7273C29.1815 10.7164 29.1913 10.705 29.2002 10.6919C29.2118 10.6748 29.2125 10.6434 29.2132 10.6105C29.2137 10.5873 29.2143 10.5634 29.2183 10.5432C29.2257 10.5066 29.2482 10.4906 29.2688 10.4755C29.2778 10.4689 29.2864 10.4624 29.2933 10.4546C29.2961 10.4515 29.2968 10.4459 29.296 10.4387C29.3286 10.4085 29.3587 10.3776 29.3872 10.3471C29.5312 10.1932 29.6318 10.059 29.8541 10.0664C29.8964 10.0675 29.9359 10.0503 29.9721 10.024C30.1121 10.004 30.2529 9.97642 30.394 9.9408C30.4512 9.99101 30.5102 10.0273 30.5699 10.0478C30.6822 10.0861 30.7655 10.0594 30.8616 10.0246C30.9329 9.99867 31.0114 9.96832 31.1195 9.95089C31.301 9.92143 31.4821 9.86556 31.6527 9.75623C31.8228 9.64802 31.9985 9.49592 32.1087 9.37506C32.1688 9.30986 32.2759 9.27442 32.3761 9.23624C32.5169 9.18316 32.6441 9.12338 32.5897 9.00689C32.5722 8.96975 32.5324 8.92025 32.4932 8.87293C32.4652 8.83922 32.4377 8.80651 32.4186 8.77953C32.4451 8.7532 32.4712 8.72631 32.4972 8.69906C32.5913 8.67803 32.7089 8.62062 32.6799 8.49584C32.7053 8.46576 32.7304 8.43529 32.7547 8.40553C32.807 8.34016 32.8572 8.27471 32.9063 8.20678C32.9224 8.18461 32.9385 8.16198 32.9544 8.13905C32.9546 8.13884 32.9547 8.13863 32.9549 8.13841C32.987 8.09236 33.0184 8.04547 33.049 7.99828C33.062 7.97808 33.075 7.95771 33.0878 7.93717C33.1202 7.88518 33.1519 7.83213 33.1826 7.77881C33.1988 7.75069 33.2149 7.72159 33.2308 7.6929C33.2565 7.64612 33.2817 7.59817 33.3062 7.54968C33.3459 7.4708 33.3836 7.39255 33.4197 7.31096C33.4256 7.29766 33.4394 7.28608 33.4588 7.27883C33.4783 7.2716 33.5016 7.26923 33.5248 7.27262C33.548 7.27601 33.5697 7.28503 33.5861 7.29789C33.6024 7.31073 33.6118 7.32638 33.6132 7.34139C33.6215 7.43349 33.6273 7.52448 33.6299 7.6184C33.6316 7.67614 33.6324 7.73422 33.6321 7.79189C33.6319 7.82729 33.631 7.86337 33.63 7.89881C33.6281 7.9659 33.6245 8.03397 33.6195 8.10192C33.6175 8.12875 33.6152 8.15558 33.6128 8.18241C33.6072 8.24527 33.6 8.30876 33.5915 8.37227C33.5915 8.37265 33.5914 8.37303 33.5914 8.37342C33.5872 8.40471 33.5828 8.43595 33.5781 8.46684C33.5635 8.56201 33.5463 8.65645 33.5252 8.75279C33.5147 8.80275 33.5025 8.85416 33.4896 8.90567C33.4824 8.93432 33.4749 8.96289 33.4675 8.99093C33.4633 9.00622 33.459 9.02168 33.4545 9.0372C33.3543 9.3946 33.2129 9.74508 33.0286 10.0832C32.8453 10.4202 32.6206 10.7425 32.3602 11.0397C32.0991 11.3376 31.8019 11.6107 31.4735 11.8514C30.4519 12.607 29.1061 13.0339 27.735 12.9756C26.3214 12.9275 24.8669 12.3512 23.7598 11.3436C23.4477 11.0623 23.1554 10.74 22.9022 10.3987C22.6464 10.0536 22.4271 9.68955 22.2413 9.29644C22.1849 9.17725 22.1306 9.05271 22.0792 8.92336Z" fill="black"/>
<path d="M40.0815 19.1686C39.9882 18.3994 40.9153 17.6651 40.9216 16.8938C40.9295 15.9362 40.0534 14.9583 40.2232 13.9994C40.393 13.0461 40.6345 12.0886 40.9309 11.1345C41.2273 10.1793 41.5785 9.22579 41.9669 8.27064C42.3554 7.31753 42.7809 6.36257 43.2272 5.40905C43.5303 4.76138 43.8431 4.11306 44.1598 3.46554C44.2986 3.18129 44.4379 2.89789 44.5778 2.61379C44.6825 2.40184 44.7871 2.18989 44.8917 1.97795C44.9064 1.94849 44.9657 1.92052 45.0597 1.9002C45.1538 1.87988 45.2742 1.86881 45.3986 1.86956C45.5231 1.87033 45.6436 1.8829 45.7372 1.90439C45.8305 1.92586 45.8886 1.95457 45.9024 1.9842C46.0013 2.19913 46.1002 2.41406 46.199 2.62899C46.3087 2.86772 46.4186 3.10603 46.5275 3.34469C46.0168 3.37918 45.6293 3.42835 45.4578 3.52372C45.3703 3.57239 45.3336 3.6439 45.4281 3.69726C45.5131 3.74519 45.6648 3.7818 45.8095 3.81657C45.9607 3.85293 46.1043 3.88745 46.1549 3.93109C46.2407 4.00514 46.457 4.07631 46.6843 4.15105C46.767 4.17825 46.8513 4.20595 46.9311 4.23443C47.0336 4.46224 47.1353 4.69006 47.236 4.91783C47.1812 5.00528 47.1367 5.0857 47.1573 5.15427C47.1757 5.21578 47.2832 5.27264 47.417 5.3294C47.4325 5.36466 47.4479 5.39992 47.4633 5.43518C47.5625 5.66275 47.66 5.89041 47.7567 6.11806C47.6194 6.29445 47.4861 6.47939 47.4266 6.7205C47.4009 6.82442 47.3267 6.92666 47.2554 7.02495C47.1502 7.17012 47.0512 7.30669 47.1239 7.42736C47.1725 7.50802 47.0998 7.59214 47.0274 7.67605C46.9302 7.78858 46.8333 7.90091 47.0291 8.0044C47.1523 8.06946 47.3022 8.12944 47.4412 8.18499C47.6623 8.27338 47.8558 8.35059 47.8687 8.41958C47.893 8.54916 48.0538 8.66222 48.1957 8.76184C48.3664 8.88167 48.5095 8.98217 48.3542 9.06879C48.3306 9.08192 48.2993 9.09692 48.2637 9.11381C48.0762 9.20281 47.7763 9.34516 47.9395 9.55297C47.9976 9.62696 48.1494 9.69703 48.2983 9.76565C48.5151 9.86554 48.7256 9.96255 48.631 10.0646C48.6169 10.0798 48.5579 10.0955 48.5041 10.1097C48.4356 10.1278 48.3758 10.1437 48.4276 10.1536C48.5798 10.1826 48.7479 10.2282 48.9308 10.2777C49.0652 10.3141 49.2076 10.3527 49.3572 10.3883C49.4403 10.6546 49.5199 10.9208 49.5951 11.1872C49.6296 11.3092 49.6632 11.4312 49.6959 11.5533C49.4662 11.6143 49.2593 11.6768 49.1026 11.7432C48.8978 11.83 48.8346 11.9438 48.7526 12.0903C48.6924 12.1982 48.6219 12.3239 48.4781 12.4698C48.2119 12.7399 48.2696 13.0193 48.4104 13.199C48.4402 13.237 48.472 13.2752 48.5066 13.3161C48.6379 13.4711 48.8022 13.6645 48.9826 14.0311C49.1532 14.3779 49.1962 14.6723 49.2285 14.8934C49.2451 15.0063 49.2583 15.1001 49.2848 15.1721C49.3301 15.2952 49.3702 15.4464 49.4103 15.5981C49.4729 15.8355 49.5357 16.0744 49.6205 16.21C49.6507 16.2582 49.6881 16.3089 49.7281 16.3636C49.8388 16.5152 49.9724 16.6984 50.0488 16.9502C50.1289 17.2145 50.0723 17.3777 49.9503 17.5469C49.9007 17.6156 49.7057 17.6754 49.5044 17.737C49.2186 17.8244 48.9204 17.9155 49.0085 18.0417C49.029 18.0712 49.0752 18.1027 49.1237 18.1358C49.2127 18.1964 49.3092 18.262 49.2663 18.3284C49.2514 18.3515 49.1985 18.3717 49.1466 18.3914C49.0895 18.4132 49.0337 18.4345 49.0304 18.459C49.0183 18.5504 49.0309 18.6396 49.0423 18.7188C49.0569 18.821 49.0691 18.9067 49.0226 18.9595C48.9397 19.0537 49.0128 19.1576 49.0872 19.2629C49.1441 19.3433 49.2019 19.4246 49.1906 19.5028C49.1583 19.7264 49.297 20.035 49.5293 20.3535C49.6171 20.474 49.4956 20.575 49.3396 20.7043C49.2425 20.7848 49.1317 20.8762 49.0503 20.9902C49.0042 21.0548 49.1116 21.1104 49.2108 21.1619C49.3022 21.2093 49.3867 21.2533 49.3386 21.2976C49.296 21.3367 49.1148 21.3605 48.9426 21.3831C48.7511 21.4083 48.5709 21.432 48.6058 21.4736C48.6244 21.4958 48.7148 21.5231 48.8222 21.5556C48.8647 21.5684 48.9097 21.5822 48.9542 21.5966C48.9175 21.5957 48.8846 21.5953 48.8598 21.5952C48.6841 21.5941 48.5913 21.6358 48.5004 21.6767C48.4641 21.6931 48.4283 21.7094 48.3874 21.7227C48.237 21.7716 48.2121 21.8658 48.2186 21.938C48.2213 21.9685 48.1667 21.9958 48.1029 22.0277C48.0463 22.056 47.9824 22.0879 47.9452 22.1289C47.9239 22.1522 47.8729 22.1699 47.8303 22.1846C47.7995 22.1952 47.7731 22.2042 47.7661 22.2127C47.7602 22.2201 47.8105 22.2263 47.8672 22.2333C47.908 22.2384 47.9522 22.2439 47.981 22.2505C48.0499 22.2663 48.0706 22.2861 48.0483 22.2999C48.0381 22.3062 48.0184 22.3111 47.9989 22.3161C47.9761 22.3218 47.9532 22.3275 47.9452 22.3354C47.9083 22.372 47.9655 22.4081 48.0249 22.4456C48.0903 22.4869 48.1582 22.5299 48.107 22.577C48.0909 22.5919 48.0541 22.6076 48.0184 22.6228C47.9811 22.6387 47.945 22.6541 47.9353 22.6674C47.8961 22.7212 48.0214 22.7728 48.1367 22.8202C48.2134 22.8517 48.2855 22.8815 48.3019 22.9088C48.3319 22.9589 48.4825 22.9866 48.5938 23.007C48.6514 23.0176 48.6987 23.0262 48.713 23.035C48.7088 23.043 48.7037 23.0512 48.6983 23.0591C48.6871 23.0663 48.6756 23.0738 48.6792 23.081C48.6795 23.0815 48.6802 23.082 48.6805 23.0826C48.6436 23.127 48.5915 23.1705 48.5396 23.2138C48.4228 23.311 48.3073 23.407 48.3715 23.5096C48.3853 23.5317 48.4475 23.5545 48.5106 23.5777C48.588 23.6061 48.6671 23.6352 48.6612 23.6643C48.6472 23.7337 48.5441 23.8032 48.4425 23.8716C48.2897 23.9746 48.1404 24.0752 48.3031 24.1695C48.3567 24.2006 48.4462 24.2312 48.5365 24.2619C48.5868 24.2789 48.6375 24.2961 48.6818 24.3134C48.5993 24.3093 48.5219 24.3069 48.4497 24.3047C48.3009 24.3002 48.1735 24.2962 48.0654 24.2792C47.8099 24.2391 47.4581 24.1932 47.2013 24.1966C47.1316 24.1975 47.054 24.196 46.9759 24.1944C46.7799 24.1903 46.5797 24.1861 46.4889 24.2215C46.4278 24.2453 46.2873 24.3067 46.437 24.3471C46.4696 24.3559 46.5344 24.3615 46.6063 24.3678C46.7355 24.379 46.8885 24.3924 46.924 24.43C46.9299 24.4364 46.9353 24.4433 46.9403 24.4504C46.9602 24.4788 46.9822 24.5106 47.0861 24.523C47.2057 24.5373 47.3429 24.5352 47.5028 24.5328C47.711 24.5296 47.9584 24.5258 48.2563 24.5569C48.3152 24.563 48.3353 24.5742 48.3506 24.5827C48.3614 24.5887 48.37 24.5932 48.3877 24.5938C48.4081 24.5944 48.4505 24.5928 48.5041 24.5907C48.6933 24.5833 49.0239 24.5706 49.0376 24.632C49.0412 24.6487 49.0254 24.6676 49.0111 24.6845C48.99 24.7095 48.9726 24.7303 49.0266 24.7334C49.0471 24.7345 49.0694 24.7354 49.0924 24.7362C49.0858 24.7561 49.0792 24.7761 49.0726 24.796C49.0079 24.8213 49.0133 24.8573 49.0202 24.9022C49.0218 24.9132 49.0234 24.9247 49.0242 24.9366C49.0106 24.976 48.9971 25.0153 48.9833 25.0547C48.9558 25.0858 48.9111 25.1188 48.8402 25.1535C48.6981 25.2231 48.4641 25.283 48.2353 25.3415C48.1389 25.3661 48.0432 25.3905 47.9558 25.4154C47.9451 25.4054 47.9325 25.3965 47.9151 25.3895C47.7961 25.3419 47.5614 25.3217 47.3454 25.3031C47.2017 25.2907 47.0662 25.279 46.9788 25.2605C46.8188 25.2266 46.6314 25.2288 46.4928 25.2305C46.4209 25.2313 46.362 25.2319 46.3271 25.2273C46.2991 25.2236 46.286 25.2154 46.2724 25.2068C46.2605 25.1994 46.2481 25.1918 46.2256 25.1868C45.9516 25.1262 45.7923 25.143 45.5604 25.1674C45.4325 25.1809 45.2824 25.1966 45.0788 25.2031C44.8633 25.2084 44.8003 25.2058 44.7146 25.1744C44.6081 25.1978 44.5015 25.2213 44.395 25.2447C44.4018 25.2542 44.4683 25.2618 44.5788 25.2725C44.7761 25.2916 44.8479 25.3506 44.9041 25.3966C44.93 25.4179 44.9528 25.4365 44.983 25.4471C45.1436 25.5033 45.3679 25.4886 45.5653 25.4755C45.6739 25.4684 45.7744 25.4618 45.8517 25.4678C45.8847 25.4704 45.9175 25.4672 45.951 25.464C45.9769 25.4614 46.0032 25.4589 46.0302 25.4589C46.2267 25.4593 46.3723 25.4929 46.5075 25.5241C46.585 25.5419 46.6593 25.559 46.7376 25.5686C46.7614 25.5715 46.7858 25.5739 46.8094 25.5761C46.8439 25.5793 46.8768 25.5825 46.905 25.5873C46.9692 25.5982 47.0124 25.6203 47.0594 25.6444C47.0836 25.6568 47.1088 25.6697 47.1384 25.6819C47.1769 25.6978 47.2545 25.7039 47.3357 25.7103C47.393 25.7149 47.452 25.7196 47.5007 25.728C47.5886 25.7432 47.6202 25.773 47.6495 25.8006C47.6623 25.8127 47.675 25.8243 47.6914 25.8342C47.698 25.8382 47.7114 25.8402 47.7297 25.8407C47.7909 25.8862 47.8535 25.9296 47.9148 25.9719C48.222 26.1839 48.4883 26.3674 48.2929 26.638C48.2559 26.6891 48.2629 26.7443 48.2919 26.8003C48.2138 26.9781 48.1332 27.1561 48.0506 27.3339C47.8734 27.3681 47.7245 27.4104 47.6075 27.4608C47.3879 27.5555 47.3406 27.6539 47.2846 27.7701C47.2433 27.856 47.1971 27.9516 47.0733 28.0625C46.8654 28.249 46.6893 28.4406 46.5971 28.6575C46.5053 28.8734 46.4371 29.1208 46.4124 29.296C46.3989 29.3915 46.2399 29.491 46.092 29.5837C45.884 29.7141 45.6975 29.8311 45.9665 29.9048C46.0524 29.9283 46.2018 29.9514 46.3469 29.9739C46.4502 29.99 46.5511 30.0058 46.6262 30.0211C46.6027 30.0607 46.5793 30.1003 46.5555 30.1398C46.3755 30.2093 46.1824 30.3179 46.382 30.425C46.357 30.4659 46.3322 30.5067 46.307 30.5461C46.2542 30.6322 46.2008 30.7164 46.1471 30.8013C46.1293 30.829 46.1115 30.8571 46.0936 30.8851C46.0934 30.8854 46.0932 30.8857 46.0929 30.8859C46.0569 30.9424 46.0206 30.9994 45.9841 31.0553C45.9685 31.0793 45.953 31.1033 45.9374 31.1273C45.8979 31.1882 45.8582 31.2496 45.8181 31.3099C45.7968 31.3419 45.7757 31.3741 45.7542 31.4064C45.7194 31.4588 45.6843 31.5115 45.6491 31.564C45.5921 31.6489 45.5345 31.7334 45.4764 31.8181C45.4668 31.832 45.4368 31.8451 45.3915 31.8547C45.3461 31.8642 45.2892 31.8694 45.2306 31.8691C45.1719 31.8687 45.115 31.8628 45.0698 31.8527C45.0248 31.8426 44.9957 31.8291 44.9866 31.8151C44.931 31.7297 44.8761 31.6445 44.8217 31.5589C44.7881 31.5059 44.7541 31.4528 44.7209 31.4C44.7004 31.3674 44.6803 31.335 44.6599 31.3028C44.6217 31.242 44.5835 31.1801 44.5459 31.1187C44.531 31.0945 44.5161 31.0704 44.5012 31.0462C44.4663 30.9897 44.4318 30.9322 44.3974 30.8751C44.3972 30.8748 44.397 30.8744 44.3968 30.8741C44.3799 30.846 44.3629 30.818 44.3461 30.7902C44.2949 30.7046 44.2442 30.6198 44.1941 30.5331C44.167 30.4883 44.1406 30.4416 44.1138 30.3953C44.099 30.3695 44.084 30.3438 44.0692 30.3185C44.0613 30.3047 44.0535 30.2906 44.0457 30.2766C43.8603 29.9533 43.6819 29.6324 43.5109 29.3086C43.3399 28.9859 43.1761 28.6628 43.0188 28.3406C42.8615 28.0177 42.7111 27.6953 42.5669 27.3728C41.651 25.3256 40.9022 23.2713 40.4381 21.2177C40.3715 20.9248 40.3116 20.6243 40.2581 20.3309C40.2046 20.0343 40.1572 19.7438 40.117 19.4465C40.1045 19.3561 40.0927 19.2636 40.0815 19.1686Z" fill="black"/>
<path d="M13.0073 49.1156C12.9095 48.2188 13.8323 47.3558 13.834 46.456C13.8363 45.3388 12.9545 44.2038 13.1188 43.084C13.283 41.9707 13.5189 40.852 13.8097 39.7368C14.1005 38.6204 14.4461 37.5056 14.829 36.3887C15.2118 35.2741 15.6318 34.1571 16.0725 33.0416C16.3718 32.2839 16.6808 31.5254 16.9937 30.7679C17.1308 30.4353 17.2685 30.1037 17.4068 29.7713C17.5101 29.5233 17.6135 29.2754 17.7169 29.0274C17.7314 28.9929 17.7906 28.9599 17.8844 28.9355C17.9784 28.9112 18.0988 28.8974 18.2232 28.8975C18.3476 28.8975 18.4682 28.9113 18.5619 28.9358C18.6553 28.9602 18.7136 28.9933 18.7276 29.0278C18.8278 29.2778 18.9279 29.5279 19.028 29.778C19.1391 30.0557 19.2503 30.333 19.3607 30.6107C18.8502 30.6544 18.463 30.7144 18.292 30.8269C18.2048 30.8843 18.1685 30.9679 18.2634 31.0295C18.3486 31.0849 18.5006 31.1266 18.6454 31.1661C18.7969 31.2075 18.9407 31.2468 18.9915 31.2974C19.0777 31.3832 19.2944 31.4647 19.5221 31.5504C19.605 31.5816 19.6894 31.6133 19.7695 31.646C19.8733 31.911 19.9763 32.1761 20.0784 32.4412C20.024 32.5436 19.9801 32.6377 20.001 32.7176C20.0198 32.7892 20.1276 32.8548 20.2618 32.9201C20.2774 32.9611 20.293 33.0022 20.3087 33.0432C20.4092 33.308 20.508 33.5729 20.606 33.8379C20.4698 34.0446 20.3375 34.2613 20.2794 34.543C20.2544 34.6644 20.1807 34.7842 20.1101 34.8993C20.0057 35.0694 19.9075 35.2294 19.9809 35.3697C20.0299 35.4634 19.9578 35.5621 19.8858 35.6605C19.7894 35.7924 19.693 35.9241 19.8895 36.0435C20.0131 36.1186 20.1633 36.1875 20.3026 36.2514C20.5243 36.353 20.7181 36.4418 20.7315 36.5222C20.7566 36.6732 20.9181 36.804 21.0605 36.9192C21.2318 37.0579 21.3756 37.1741 21.2207 37.2763C21.1973 37.2917 21.1661 37.3095 21.1306 37.3294C20.9436 37.4345 20.6445 37.6026 20.8089 37.844C20.8674 37.9299 21.0196 38.0106 21.169 38.0896C21.3863 38.2047 21.5974 38.3164 21.5034 38.4361C21.4894 38.454 21.4305 38.4726 21.3767 38.4896C21.3083 38.5112 21.2486 38.5301 21.3006 38.5413C21.4529 38.5741 21.6212 38.6262 21.8044 38.6827C21.939 38.7242 22.0817 38.7683 22.2315 38.8089C22.3162 39.1189 22.3972 39.429 22.474 39.7392C22.5092 39.8813 22.5435 40.0234 22.577 40.1656C22.3477 40.2384 22.1411 40.3127 21.9848 40.3913C21.7805 40.494 21.7179 40.6271 21.6369 40.7986C21.5772 40.9249 21.5075 41.072 21.3645 41.2432C21.1 41.5602 21.1593 41.8857 21.3012 42.0944C21.3312 42.1385 21.3632 42.1829 21.398 42.2303C21.5302 42.4102 21.6956 42.6348 21.8781 43.0613C22.0508 43.4647 22.0955 43.8078 22.1292 44.0656C22.1463 44.1971 22.1601 44.3065 22.187 44.3903C22.2331 44.5336 22.274 44.7097 22.315 44.8864C22.3791 45.163 22.4433 45.4413 22.5288 45.5988C22.5593 45.6549 22.597 45.7138 22.6373 45.7774C22.7489 45.9535 22.8836 46.1662 22.9614 46.4595C23.0431 46.7673 22.9874 46.9581 22.8664 47.1563C22.8172 47.2368 22.6226 47.3079 22.4216 47.3811C22.1364 47.485 21.8387 47.5934 21.9275 47.74C21.9482 47.7742 21.9946 47.8108 22.0433 47.849C22.1326 47.9191 22.2295 47.995 22.187 48.0727C22.1722 48.0998 22.1194 48.1237 22.0676 48.1471C22.0107 48.1728 21.955 48.1981 21.9519 48.2267C21.9403 48.3335 21.9535 48.4374 21.9653 48.5297C21.9805 48.6488 21.9932 48.7487 21.947 48.8107C21.8646 48.9211 21.9383 49.0419 22.0134 49.1642C22.0707 49.2576 22.129 49.352 22.1182 49.4434C22.0872 49.7045 22.2277 50.0635 22.4618 50.4335C22.5503 50.5735 22.4294 50.6921 22.2742 50.8441C22.1776 50.9386 22.0673 51.046 21.9866 51.1796C21.9408 51.2553 22.0485 51.3194 22.148 51.3788C22.2397 51.4335 22.3245 51.4842 22.2766 51.5362C22.2343 51.5821 22.0532 51.6112 21.8812 51.6387C21.6898 51.6694 21.5098 51.6983 21.5449 51.7466C21.5636 51.7723 21.6542 51.8036 21.7618 51.8408C21.8043 51.8555 21.8494 51.8712 21.894 51.8878C21.8573 51.8869 21.8244 51.8867 21.7995 51.8867C21.6239 51.8866 21.5313 51.9359 21.4407 51.9843C21.4045 52.0036 21.3688 52.0228 21.328 52.0386C21.1779 52.0968 21.1535 52.2068 21.1604 52.291C21.1633 52.3266 21.1089 52.3588 21.0453 52.3964C20.9888 52.4299 20.9251 52.4675 20.8881 52.5155C20.867 52.5429 20.8161 52.564 20.7735 52.5814C20.7428 52.5939 20.7165 52.6047 20.7096 52.6146C20.7036 52.6232 20.754 52.6302 20.8107 52.638C20.8515 52.6436 20.8958 52.6497 20.9246 52.6572C20.9936 52.6751 21.0144 52.6982 20.9923 52.7143C20.982 52.7218 20.9624 52.7277 20.9429 52.7336C20.9202 52.7404 20.8973 52.7472 20.8893 52.7565C20.8526 52.7995 20.9101 52.8412 20.9697 52.8846C21.0353 52.9322 21.1034 52.982 21.0526 53.0373C21.0366 53.0547 20.9999 53.0733 20.9642 53.0912C20.927 53.11 20.891 53.1283 20.8814 53.1439C20.8425 53.2069 20.9681 53.2662 21.0837 53.3208C21.1605 53.357 21.2328 53.3913 21.2494 53.423C21.2797 53.4813 21.4305 53.5125 21.5418 53.5356C21.5995 53.5475 21.6469 53.5573 21.6612 53.5675C21.657 53.5769 21.6521 53.5864 21.6466 53.5957C21.6355 53.6042 21.6241 53.613 21.6277 53.6213C21.628 53.6219 21.6287 53.6225 21.629 53.6232C21.5924 53.6752 21.5405 53.7264 21.4888 53.7772C21.3727 53.8914 21.2577 54.0042 21.3225 54.1234C21.3365 54.1491 21.3987 54.1753 21.462 54.2019C21.5395 54.2346 21.6188 54.268 21.6131 54.302C21.5995 54.383 21.4968 54.4648 21.3956 54.5453C21.2434 54.6665 21.0948 54.7849 21.2579 54.8938C21.3118 54.9297 21.4015 54.9648 21.4919 55C21.5423 55.0196 21.5931 55.0393 21.6375 55.0591C21.555 55.0549 21.4776 55.0527 21.4054 55.0506C21.2565 55.0463 21.1291 55.0425 21.0209 55.0235C20.7652 54.9784 20.4131 54.9273 20.1564 54.9329C20.0867 54.9345 20.0091 54.9332 19.9309 54.9319C19.7349 54.9285 19.5347 54.925 19.4441 54.9669C19.3831 54.9951 19.243 55.0676 19.393 55.1137C19.4256 55.1238 19.4904 55.1299 19.5623 55.1367C19.6916 55.1489 19.8447 55.1635 19.8804 55.2072C19.8864 55.2145 19.8918 55.2225 19.8968 55.2308C19.9169 55.2638 19.9391 55.3007 20.043 55.3145C20.1628 55.3304 20.2999 55.327 20.4598 55.3231C20.668 55.3179 20.9153 55.3118 21.2134 55.346C21.2724 55.3528 21.2926 55.3658 21.3079 55.3755C21.3187 55.3824 21.3273 55.3877 21.345 55.3882C21.3654 55.3888 21.4078 55.3866 21.4614 55.3838C21.6506 55.3739 21.9811 55.3568 21.9951 55.4284C21.9989 55.4478 21.9831 55.4699 21.9689 55.4898C21.948 55.5191 21.9307 55.5434 21.9848 55.5467C22.0053 55.5479 22.0275 55.5488 22.0506 55.5495C22.0441 55.5728 22.0376 55.5961 22.0311 55.6195C21.9666 55.6494 21.9721 55.6914 21.9793 55.7438C21.981 55.7565 21.9826 55.7699 21.9835 55.7838C21.9702 55.8298 21.9569 55.8759 21.9433 55.9219C21.916 55.9584 21.8715 55.9972 21.8008 56.0382C21.6591 56.1203 21.4255 56.1917 21.197 56.2615C21.1007 56.2909 21.0052 56.3201 20.9179 56.3497C20.9072 56.3381 20.8946 56.3277 20.8771 56.3197C20.7578 56.265 20.523 56.243 20.3069 56.2228C20.1631 56.2094 20.0275 56.1967 19.9401 56.1757C19.7798 56.1372 19.5924 56.1411 19.4539 56.1439C19.382 56.1454 19.3231 56.1465 19.2882 56.1414C19.2601 56.1372 19.247 56.1277 19.2333 56.1179C19.2214 56.1093 19.209 56.1004 19.1864 56.0948C18.9121 56.026 18.7529 56.0467 18.5211 56.0768C18.3933 56.0933 18.2433 56.1127 18.0398 56.1216C17.8243 56.1292 17.7613 56.1267 17.6754 56.0906C17.569 56.1187 17.4626 56.1468 17.3562 56.1749C17.3631 56.1859 17.4296 56.1943 17.5402 56.206C17.7376 56.227 17.8098 56.2952 17.8661 56.3486C17.8922 56.3733 17.9151 56.3948 17.9453 56.4069C18.1063 56.4715 18.3305 56.4527 18.5278 56.4362C18.6364 56.4271 18.7369 56.4187 18.8142 56.4252C18.8472 56.428 18.88 56.424 18.9135 56.42C18.9393 56.4169 18.9656 56.4137 18.9927 56.4136C19.1891 56.4128 19.3349 56.4509 19.4703 56.4864C19.5479 56.5067 19.6223 56.526 19.7006 56.5367C19.7245 56.54 19.7489 56.5426 19.7725 56.545C19.8071 56.5485 19.84 56.552 19.8682 56.5574C19.9324 56.5697 19.9757 56.5951 20.0229 56.623C20.0471 56.6372 20.0724 56.6521 20.1021 56.6662C20.1407 56.6845 20.2184 56.691 20.2995 56.698C20.3569 56.7029 20.416 56.708 20.4647 56.7175C20.5527 56.7346 20.5844 56.7691 20.6139 56.8012C20.6268 56.8152 20.6395 56.8287 20.656 56.84C20.6627 56.8447 20.676 56.8469 20.6943 56.8474C20.7558 56.9 20.8186 56.9503 20.8802 56.9992C21.1886 57.2444 21.456 57.4567 21.2622 57.7737C21.2255 57.8336 21.2328 57.898 21.2622 57.963C21.1851 58.1711 21.1056 58.3792 21.024 58.5872C20.8469 58.6284 20.6983 58.6787 20.5816 58.7383C20.3626 58.8503 20.3158 58.9655 20.2605 59.1014C20.2197 59.2018 20.1741 59.3137 20.051 59.444C19.8441 59.6629 19.6691 59.8877 19.5782 60.1413C19.4876 60.3938 19.4209 60.683 19.3972 60.8875C19.3843 60.999 19.2259 61.1162 19.0786 61.2253C18.8713 61.3789 18.6855 61.5166 18.9549 61.6008C19.041 61.6276 19.1905 61.6536 19.3357 61.6789C19.4391 61.6969 19.5401 61.7146 19.6153 61.732C19.592 61.7783 19.5689 61.8247 19.5453 61.871C19.3657 61.9533 19.1732 62.0812 19.3735 62.2049C19.3487 62.2527 19.3241 62.3005 19.2991 62.3467C19.2469 62.4475 19.194 62.546 19.1407 62.6455C19.1231 62.678 19.1055 62.7108 19.0877 62.7436C19.0875 62.7439 19.0873 62.7443 19.0871 62.7446C19.0514 62.8107 19.0154 62.8774 18.9793 62.943C18.9638 62.9711 18.9484 62.9991 18.933 63.0272C18.8938 63.0986 18.8545 63.1705 18.8148 63.2411C18.7936 63.2785 18.7727 63.3162 18.7514 63.3541C18.7169 63.4154 18.6822 63.4772 18.6472 63.5387C18.5907 63.6382 18.5336 63.7371 18.476 63.8363C18.4665 63.8525 18.4366 63.8681 18.3913 63.8796C18.346 63.891 18.2891 63.8975 18.2305 63.8975C18.1718 63.8974 18.1148 63.8909 18.0696 63.8794C18.0246 63.868 17.9954 63.8524 17.9862 63.8362C17.9302 63.7369 17.8748 63.6378 17.8198 63.5383C17.7859 63.4768 17.7516 63.415 17.7181 63.3537C17.6974 63.3158 17.6771 63.2781 17.6566 63.2407C17.618 63.1701 17.5794 63.0981 17.5414 63.0267C17.5264 62.9986 17.5113 62.9705 17.4963 62.9424C17.4611 62.8767 17.4263 62.8098 17.3915 62.7435C17.3913 62.7431 17.3911 62.7427 17.3909 62.7423C17.3738 62.7097 17.3567 62.6771 17.3397 62.6448C17.288 62.5453 17.2368 62.4467 17.1862 62.3459C17.1589 62.2938 17.1322 62.2395 17.1052 62.1857C17.0901 62.1557 17.075 62.1258 17.0601 62.0964C17.0521 62.0803 17.0442 62.064 17.0363 62.0476C16.849 61.6718 16.6688 61.2986 16.4959 60.922C16.323 60.5467 16.1573 60.1708 15.9981 59.796C15.839 59.4204 15.6867 59.0453 15.5406 58.67C14.6127 56.2879 13.852 53.8964 13.3759 51.5038C13.3075 51.1625 13.2459 50.8123 13.1906 50.4704C13.1354 50.1247 13.0863 49.7861 13.0444 49.4395C13.0313 49.3342 13.019 49.2263 13.0073 49.1156Z" fill="black"/>
<path d="M29.6702 24.9047C30.4388 24.8069 31.1785 25.7297 31.9498 25.7315C32.9074 25.7338 33.8803 24.852 34.8401 25.0162C35.7944 25.1805 36.7533 25.4163 37.7092 25.7071C38.6661 25.9979 39.6216 26.3436 40.579 26.7264C41.5343 27.1093 42.4918 27.5292 43.4479 27.9699C44.0973 28.2693 44.7474 28.5783 45.3968 28.8911C45.6819 29.0282 45.9661 29.166 46.251 29.3042C46.4635 29.4076 46.6761 29.511 46.8886 29.6143C46.9182 29.6289 46.9465 29.688 46.9674 29.7819C46.9883 29.8759 47 29.9962 47 30.1206C47 30.2451 46.9881 30.3657 46.9672 30.4594C46.9462 30.5528 46.9179 30.6111 46.8883 30.6251C46.674 30.7252 46.4596 30.8253 46.2453 30.9255C46.0072 31.0365 45.7695 31.1478 45.5315 31.2581C45.494 30.7477 45.4426 30.3605 45.3462 30.1895C45.297 30.1023 45.2253 30.066 45.1725 30.1608C45.1251 30.2461 45.0894 30.398 45.0554 30.5428C45.0199 30.6943 44.9863 30.8381 44.9429 30.8889C44.8694 30.9752 44.7995 31.1919 44.7261 31.4196C44.6994 31.5025 44.6721 31.5869 44.6441 31.6669C44.4169 31.7707 44.1897 31.8737 43.9625 31.9758C43.8748 31.9215 43.7941 31.8775 43.7256 31.8985C43.6642 31.9172 43.608 32.0251 43.552 32.1592C43.5169 32.1749 43.4817 32.1905 43.4465 32.2061C43.2195 32.3066 42.9924 32.4055 42.7654 32.5035C42.5882 32.3673 42.4025 32.235 42.161 32.1769C42.0569 32.1519 41.9543 32.0782 41.8556 32.0075C41.7098 31.9031 41.5726 31.805 41.4524 31.8784C41.372 31.9274 41.2875 31.8553 41.2031 31.7833C41.09 31.6868 40.9771 31.5905 40.8748 31.787C40.8105 31.9105 40.7514 32.0607 40.6966 32.2C40.6095 32.4217 40.5334 32.6156 40.4645 32.629C40.3351 32.654 40.223 32.8155 40.1242 32.958C40.0054 33.1293 39.9057 33.2731 39.8182 33.1182C39.8049 33.0947 39.7897 33.0635 39.7726 33.028C39.6825 32.841 39.5384 32.5419 39.3316 32.7063C39.2579 32.7649 39.1887 32.9171 39.121 33.0664C39.0224 33.2838 38.9266 33.4948 38.824 33.4009C38.8087 33.3869 38.7927 33.328 38.7781 33.2742C38.7596 33.2058 38.7434 33.1461 38.7339 33.198C38.7057 33.3503 38.6611 33.5187 38.6127 33.7019C38.5771 33.8365 38.5393 33.9792 38.5045 34.129C38.2388 34.2136 37.973 34.2947 37.7071 34.3715C37.5853 34.4067 37.4634 34.441 37.3416 34.4744C37.2792 34.2451 37.2155 34.0385 37.1482 33.8822C37.0602 33.678 36.9461 33.6154 36.799 33.5343C36.6908 33.4747 36.5647 33.4049 36.4179 33.262C36.1462 32.9974 35.8672 33.0568 35.6884 33.1986C35.6505 33.2286 35.6125 33.2607 35.5719 33.2955C35.4176 33.4276 35.2252 33.5931 34.8596 33.7756C34.5138 33.9482 34.2197 33.993 33.9988 34.0266C33.886 34.0438 33.7923 34.0576 33.7204 34.0845C33.5976 34.1305 33.4467 34.1715 33.2952 34.2124C33.0581 34.2765 32.8196 34.3407 32.6845 34.4263C32.6365 34.4568 32.586 34.4945 32.5315 34.5347C32.3806 34.6464 32.1982 34.7811 31.9468 34.8589C31.683 34.9406 31.5195 34.8849 31.3496 34.7638C31.2805 34.7146 31.2196 34.5201 31.1569 34.3191C31.0678 34.0338 30.9749 33.7361 30.8492 33.825C30.8199 33.8457 30.7886 33.8921 30.7559 33.9407C30.6957 34.0301 30.6307 34.127 30.5641 34.0845C30.5408 34.0697 30.5204 34.0169 30.5003 33.9651C30.4783 33.9081 30.4566 33.8524 30.4321 33.8493C30.3406 33.8378 30.2515 33.8509 30.1723 33.8627C30.0703 33.878 29.9847 33.8906 29.9315 33.8445C29.8369 33.7621 29.7333 33.8358 29.6285 33.9109C29.5484 33.9682 29.4675 34.0265 29.3892 34.0157C29.1654 33.9846 28.8576 34.1252 28.5405 34.3593C28.4205 34.4478 28.3189 34.3269 28.1886 34.1716C28.1076 34.0751 28.0155 33.9648 27.901 33.8841C27.8361 33.8383 27.7812 33.946 27.7303 34.0455C27.6834 34.1372 27.6399 34.2219 27.5954 34.1741C27.556 34.1317 27.5311 33.9507 27.5075 33.7787C27.4812 33.5872 27.4564 33.4072 27.415 33.4423C27.393 33.461 27.3662 33.5516 27.3343 33.6592C27.3217 33.7018 27.3083 33.7468 27.294 33.7914C27.2948 33.7547 27.2949 33.7219 27.295 33.697C27.295 33.5213 27.2528 33.4288 27.2113 33.3382C27.1947 33.302 27.1783 33.2662 27.1647 33.2254C27.1149 33.0753 27.0205 33.0509 26.9484 33.0579C26.9179 33.0608 26.8903 33.0063 26.858 32.9427C26.8294 32.8863 26.7971 32.8226 26.7559 32.7856C26.7325 32.7644 26.7144 32.7135 26.6995 32.671C26.6887 32.6402 26.6795 32.6139 26.671 32.607C26.6636 32.6011 26.6577 32.6515 26.651 32.7082C26.6462 32.749 26.6409 32.7932 26.6345 32.8221C26.6191 32.8911 26.5994 32.9119 26.5855 32.8897C26.5791 32.8795 26.5741 32.8599 26.5691 32.8404C26.5632 32.8177 26.5574 32.7948 26.5494 32.7868C26.5126 32.7501 26.4768 32.8075 26.4396 32.8672C26.3988 32.9328 26.3561 33.0009 26.3087 32.9501C26.2938 32.934 26.2779 32.8973 26.2625 32.8617C26.2464 32.8244 26.2307 32.7884 26.2174 32.7788C26.1633 32.7399 26.1125 32.8656 26.0657 32.9811C26.0347 33.058 26.0053 33.1303 25.9781 33.1468C25.9282 33.1771 25.9014 33.3279 25.8816 33.4393C25.8714 33.497 25.863 33.5444 25.8543 33.5587C25.8462 33.5545 25.8381 33.5495 25.8301 33.5441C25.8228 33.533 25.8152 33.5215 25.8081 33.5252C25.8076 33.5255 25.8071 33.5261 25.8065 33.5264C25.7619 33.4899 25.718 33.438 25.6745 33.3863C25.5766 33.2701 25.4799 33.1551 25.3777 33.22C25.3557 33.2339 25.3333 33.2962 25.3104 33.3595C25.2825 33.437 25.2539 33.5163 25.2247 33.5106C25.1553 33.497 25.0852 33.3943 25.0161 33.2931C24.9122 33.1409 24.8107 32.9922 24.7174 33.1554C24.6866 33.2092 24.6566 33.2989 24.6264 33.3893C24.6096 33.4397 24.5928 33.4905 24.5757 33.5349C24.5793 33.4525 24.5813 33.375 24.5831 33.3028C24.5868 33.154 24.5899 33.0266 24.6063 32.9184C24.6449 32.6626 24.6887 32.3106 24.6839 32.0538C24.6826 31.9841 24.6836 31.9065 24.6848 31.8284C24.6877 31.6324 24.6907 31.4321 24.6548 31.3416C24.6306 31.2806 24.5685 31.1405 24.5289 31.2904C24.5203 31.3231 24.5151 31.3878 24.5092 31.4598C24.4988 31.5891 24.4863 31.7422 24.4488 31.7778C24.4425 31.7838 24.4356 31.7892 24.4286 31.7943C24.4003 31.8144 24.3686 31.8366 24.3568 31.9405C24.3432 32.0602 24.3461 32.1974 24.3495 32.3572C24.3539 32.5655 24.3592 32.8128 24.3298 33.1109C24.324 33.1698 24.3129 33.19 24.3045 33.2053C24.2986 33.2161 24.2941 33.2248 24.2936 33.2425C24.2931 33.2629 24.295 33.3052 24.2974 33.3589C24.3059 33.548 24.3206 33.8786 24.2592 33.8926C24.2426 33.8963 24.2236 33.8806 24.2065 33.8664C24.1814 33.8454 24.1606 33.8281 24.1578 33.8822C24.1568 33.9027 24.156 33.925 24.1554 33.948C24.1354 33.9415 24.1154 33.935 24.0954 33.9285C24.0698 33.8641 24.0338 33.8696 23.9889 33.8767C23.978 33.8785 23.9665 33.8801 23.9545 33.881C23.9151 33.8677 23.8757 33.8544 23.8362 33.8408C23.805 33.8135 23.7717 33.7689 23.7365 33.6982C23.6662 33.5566 23.6049 33.3229 23.5451 33.0944C23.5199 32.9982 23.4949 32.9026 23.4695 32.8154C23.4794 32.8047 23.4883 32.792 23.4952 32.7746C23.5421 32.6552 23.5609 32.4204 23.5783 32.2043C23.5898 32.0606 23.6007 31.925 23.6187 31.8375C23.6516 31.6773 23.6483 31.4899 23.6459 31.3513C23.6446 31.2795 23.6437 31.2206 23.6481 31.1856C23.6516 31.1576 23.6598 31.1444 23.6682 31.1308C23.6756 31.1189 23.6832 31.1065 23.688 31.0839C23.747 30.8095 23.7292 30.6503 23.7035 30.4186C23.6893 30.2907 23.6726 30.1408 23.665 29.9372C23.6585 29.7218 23.6607 29.6587 23.6916 29.5729C23.6675 29.4665 23.6434 29.3601 23.6194 29.2536C23.6099 29.2606 23.6028 29.3271 23.5927 29.4376C23.5747 29.6351 23.5162 29.7072 23.4705 29.7636C23.4493 29.7897 23.4309 29.8125 23.4205 29.8428C23.3651 30.0038 23.3812 30.228 23.3954 30.4253C23.4032 30.5338 23.4104 30.6343 23.4048 30.7116C23.4024 30.7447 23.4058 30.7775 23.4092 30.8109C23.4119 30.8368 23.4146 30.8631 23.4147 30.8901C23.4155 31.0866 23.3827 31.2324 23.3524 31.3678C23.335 31.4453 23.3184 31.5197 23.3092 31.5981C23.3064 31.622 23.3042 31.6463 23.3021 31.67C23.2991 31.7045 23.2961 31.7374 23.2915 31.7656C23.2809 31.8299 23.2591 31.8732 23.2353 31.9204C23.2231 31.9446 23.2103 31.9699 23.1982 31.9996C23.1826 32.0381 23.1769 32.1158 23.171 32.197C23.1668 32.2544 23.1624 32.3134 23.1543 32.3621C23.1396 32.4501 23.11 32.4819 23.0825 32.5114C23.0705 32.5242 23.059 32.537 23.0492 32.5534C23.0452 32.5601 23.0433 32.5735 23.0429 32.5918C22.9978 32.6533 22.9547 32.7161 22.9128 32.7776C22.7026 33.0861 22.5206 33.3535 22.2489 33.1596C22.1976 33.123 22.1424 33.1303 22.0867 33.1596C21.9083 33.0826 21.7299 33.003 21.5516 32.9214C21.5164 32.7444 21.4732 32.5957 21.4221 32.4791C21.3261 32.2601 21.2274 32.2133 21.1109 32.158C21.0248 32.1172 20.929 32.0715 20.8173 31.9484C20.6296 31.7416 20.437 31.5666 20.2196 31.4756C20.0031 31.3851 19.7553 31.3184 19.5799 31.2947C19.4844 31.2818 19.384 31.1234 19.2904 30.976C19.1588 30.7687 19.0407 30.5829 18.9686 30.8524C18.9456 30.9385 18.9233 31.0879 18.9017 31.2331C18.8862 31.3366 18.871 31.4376 18.8561 31.5128C18.8164 31.4894 18.7767 31.4663 18.737 31.4427C18.6664 31.2632 18.5568 31.0707 18.4508 31.2709C18.4098 31.2462 18.3688 31.2216 18.3292 31.1966C18.2429 31.1444 18.1584 31.0915 18.0731 31.0382C18.0453 31.0206 18.0172 31.0029 17.989 30.9852C17.9887 30.985 17.9885 30.9848 17.9882 30.9846C17.9315 30.9489 17.8743 30.9129 17.8181 30.8767C17.7941 30.8613 17.77 30.8459 17.7459 30.8304C17.6848 30.7913 17.6231 30.7519 17.5626 30.7122C17.5305 30.6911 17.4982 30.6701 17.4658 30.6489C17.4132 30.6143 17.3602 30.5796 17.3075 30.5447C17.2223 30.4882 17.1374 30.4311 17.0524 30.3735C17.0385 30.364 17.0252 30.3341 17.0153 30.2888C17.0055 30.2434 17 30.1866 17 30.1279C17 30.0693 17.0056 30.0123 17.0154 29.9671C17.0253 29.9221 17.0386 29.8929 17.0525 29.8836C17.1376 29.8276 17.2225 29.7722 17.3078 29.7173C17.3606 29.6833 17.4135 29.6491 17.4661 29.6155C17.4985 29.5949 17.5309 29.5745 17.5629 29.554C17.6235 29.5154 17.6852 29.4769 17.7464 29.4389C17.7705 29.4238 17.7945 29.4088 17.8186 29.3938C17.8749 29.3586 17.9322 29.3237 17.9891 29.289C17.9895 29.2888 17.9898 29.2886 17.9901 29.2884C18.0181 29.2713 18.046 29.2542 18.0737 29.2372C18.159 29.1855 18.2435 29.1343 18.3299 29.0837C18.3746 29.0563 18.4211 29.0296 18.4672 29.0026C18.4929 28.9876 18.5186 28.9725 18.5438 28.9575C18.5576 28.9496 18.5715 28.9417 18.5856 28.9338C18.9077 28.7465 19.2276 28.5662 19.5504 28.3934C19.8721 28.2205 20.1943 28.0547 20.5155 27.8956C20.8375 27.7364 21.159 27.5841 21.4807 27.438C23.5224 26.5102 25.5724 25.7494 27.6232 25.2733C27.9157 25.205 28.2158 25.1433 28.5089 25.0881C28.8052 25.0328 29.0955 24.9838 29.3925 24.9419C29.4828 24.9288 29.5753 24.9165 29.6702 24.9047Z" fill="black"/>
<path d="M21.1169 58.9047C22.398 58.8069 23.6309 59.7297 24.9164 59.7315C26.5124 59.7338 28.1338 58.852 29.7335 59.0162C31.324 59.1805 32.9222 59.4163 34.5152 59.7071C36.1101 59.9979 37.7026 60.3436 39.2983 60.7264C40.8906 61.1093 42.4863 61.5292 44.0798 61.9699C45.1622 62.2693 46.2457 62.5783 47.328 62.8911C47.8031 63.0282 48.2768 63.166 48.7516 63.3042C49.1059 63.4076 49.4602 63.511 49.8144 63.6143C49.8637 63.6289 49.9109 63.688 49.9456 63.7819C49.9804 63.8759 50 63.9962 50 64.1206C49.9999 64.2451 49.9802 64.3657 49.9453 64.4594C49.9104 64.5528 49.8631 64.6111 49.8138 64.6251C49.4566 64.7252 49.0994 64.8253 48.7421 64.9255C48.3453 65.0365 47.9492 65.1478 47.5525 65.2581C47.49 64.7477 47.4043 64.3605 47.2437 64.1895C47.1617 64.1023 47.0422 64.066 46.9542 64.1608C46.8751 64.2461 46.8156 64.398 46.759 64.5428C46.6999 64.6943 46.6438 64.8381 46.5716 64.8889C46.449 64.9752 46.3325 65.1919 46.2101 65.4196C46.1656 65.5025 46.1202 65.5869 46.0735 65.6669C45.6949 65.7707 45.3162 65.8737 44.9375 65.9758C44.7913 65.9215 44.6568 65.8775 44.5427 65.8985C44.4404 65.9172 44.3467 66.0251 44.2534 66.1592C44.1948 66.1749 44.1361 66.1905 44.0775 66.2061C43.6992 66.3066 43.3207 66.4055 42.9423 66.5035C42.6469 66.3673 42.3374 66.235 41.935 66.1769C41.7616 66.1519 41.5904 66.0782 41.4259 66.0075C41.1829 65.9031 40.9544 65.805 40.754 65.8784C40.62 65.9274 40.4791 65.8553 40.3386 65.7833C40.15 65.6868 39.9619 65.5905 39.7913 65.787C39.6841 65.9105 39.5856 66.0607 39.4944 66.2C39.3492 66.4217 39.2224 66.6156 39.1076 66.629C38.8918 66.654 38.705 66.8155 38.5403 66.958C38.3423 67.1293 38.1762 67.2731 38.0303 67.1182C38.0082 67.0947 37.9829 67.0635 37.9544 67.028C37.8042 66.841 37.564 66.5419 37.2193 66.7063C37.0965 66.7649 36.9812 66.9171 36.8683 67.0664C36.704 67.2838 36.5443 67.4948 36.3734 67.4009C36.3479 67.3869 36.3212 67.328 36.2969 67.2742C36.266 67.2058 36.239 67.1461 36.2231 67.198C36.1762 67.3503 36.1019 67.5187 36.0211 67.7019C35.9618 67.8365 35.8989 67.9792 35.8409 68.129C35.3979 68.2136 34.9549 68.2947 34.5118 68.3715C34.3088 68.4067 34.1057 68.441 33.9026 68.4744C33.7987 68.2451 33.6925 68.0385 33.5803 67.8822C33.4336 67.678 33.2434 67.6154 32.9983 67.5343C32.818 67.4747 32.6078 67.4049 32.3632 67.262C31.9104 66.9974 31.4453 67.0568 31.1473 67.1986C31.0842 67.2286 31.0209 67.2607 30.9531 67.2955C30.696 67.4276 30.3753 67.5931 29.766 67.7756C29.1896 67.9482 28.6995 67.993 28.3313 68.0266C28.1433 68.0438 27.9871 68.0576 27.8674 68.0845C27.6626 68.1305 27.4111 68.1715 27.1586 68.2124C26.7635 68.2765 26.366 68.3407 26.1409 68.4263C26.0608 68.4568 25.9767 68.4945 25.8859 68.5347C25.6343 68.6464 25.3303 68.7811 24.9114 68.8589C24.4717 68.9406 24.1991 68.8849 23.916 68.7638C23.8009 68.7146 23.6994 68.5201 23.5948 68.3191C23.4463 68.0338 23.2915 67.7361 23.0821 67.825C23.0332 67.8457 22.981 67.8921 22.9264 67.9407C22.8262 68.0301 22.7178 68.127 22.6068 68.0845C22.5681 68.0697 22.534 68.0169 22.5005 67.9651C22.4637 67.9081 22.4277 67.8524 22.3868 67.8493C22.2343 67.8378 22.0858 67.8509 21.9539 67.8627C21.7838 67.878 21.6411 67.8906 21.5526 67.8445C21.3948 67.7621 21.2222 67.8358 21.0475 67.9109C20.914 67.9682 20.7792 68.0265 20.6487 68.0157C20.2757 67.9846 19.7627 68.1252 19.2342 68.3593C19.0342 68.4478 18.8648 68.3269 18.6477 68.1716C18.5127 68.0751 18.3592 67.9648 18.1684 67.8841C18.0602 67.8383 17.9686 67.946 17.8838 68.0455C17.8057 68.1372 17.7332 68.2219 17.6589 68.1741C17.5933 68.1317 17.5518 67.9507 17.5124 67.7787C17.4686 67.5872 17.4274 67.4072 17.3583 67.4423C17.3216 67.461 17.277 67.5516 17.2239 67.6592C17.2029 67.7018 17.1804 67.7468 17.1567 67.7914C17.1579 67.7547 17.1582 67.7219 17.1583 67.697C17.1583 67.5213 17.0879 67.4288 17.0188 67.3382C16.9912 67.302 16.9638 67.2662 16.9412 67.2254C16.8581 67.0753 16.7009 67.0509 16.5807 67.0579C16.5299 67.0608 16.4838 67.0063 16.43 66.9427C16.3823 66.8863 16.3285 66.8226 16.2599 66.7856C16.2208 66.7644 16.1907 66.7135 16.1659 66.671C16.1479 66.6402 16.1326 66.6139 16.1184 66.607C16.1061 66.6011 16.0961 66.6515 16.085 66.7082C16.077 66.749 16.0682 66.7932 16.0575 66.8221C16.0319 66.8911 15.999 66.9119 15.9759 66.8897C15.9652 66.8795 15.9568 66.8599 15.9484 66.8404C15.9387 66.8177 15.929 66.7948 15.9156 66.7868C15.8543 66.7501 15.7947 66.8075 15.7327 66.8672C15.6646 66.9328 15.5936 67.0009 15.5145 66.9501C15.4896 66.934 15.4631 66.8973 15.4374 66.8617C15.4106 66.8244 15.3845 66.7884 15.3623 66.7788C15.2722 66.7399 15.1875 66.8656 15.1096 66.9811C15.0578 67.058 15.0089 67.1303 14.9635 67.1468C14.8803 67.1771 14.8356 67.3279 14.8027 67.4393C14.7856 67.497 14.7717 67.5444 14.7571 67.5587C14.7437 67.5545 14.7301 67.5495 14.7169 67.5441C14.7047 67.533 14.6921 67.5215 14.6802 67.5252C14.6793 67.5255 14.6785 67.5261 14.6776 67.5264C14.6032 67.4899 14.5301 67.438 14.4575 67.3863C14.2943 67.2701 14.1332 67.1551 13.9629 67.22C13.9262 67.2339 13.8888 67.2962 13.8507 67.3595C13.8041 67.437 13.7564 67.5163 13.7079 67.5106C13.5921 67.497 13.4753 67.3943 13.3602 67.2931C13.1871 67.1409 13.0179 66.9922 12.8623 67.1554C12.811 67.2092 12.7609 67.2989 12.7107 67.3893C12.6827 67.4397 12.6546 67.4905 12.6262 67.5349C12.6322 67.4525 12.6354 67.375 12.6384 67.3028C12.6446 67.154 12.6499 67.0266 12.6771 66.9184C12.7416 66.6626 12.8146 66.3106 12.8065 66.0538C12.8043 65.9841 12.806 65.9065 12.808 65.8284C12.8129 65.6324 12.8178 65.4321 12.758 65.3416C12.7177 65.2806 12.6141 65.1405 12.5482 65.2904C12.5339 65.3231 12.5251 65.3878 12.5154 65.4598C12.4979 65.5891 12.4771 65.7422 12.4147 65.7778C12.4042 65.7838 12.3927 65.7892 12.3809 65.7943C12.3338 65.8144 12.2811 65.8366 12.2613 65.9405C12.2386 66.0602 12.2435 66.1974 12.2491 66.3572C12.2565 66.5655 12.2653 66.8128 12.2163 67.1109C12.2066 67.1698 12.1881 67.19 12.1742 67.2053C12.1643 67.2161 12.1568 67.2248 12.1561 67.2425C12.1552 67.2629 12.1584 67.3052 12.1624 67.3589C12.1765 67.548 12.201 67.8786 12.0986 67.8926C12.071 67.8963 12.0393 67.8806 12.0109 67.8664C11.9691 67.8454 11.9343 67.8281 11.9297 67.8822C11.9279 67.9027 11.9267 67.925 11.9257 67.948C11.8923 67.9415 11.859 67.935 11.8257 67.9285C11.783 67.8641 11.723 67.8696 11.6481 67.8767C11.63 67.8785 11.6108 67.8801 11.5909 67.881C11.5252 67.8677 11.4594 67.8544 11.3937 67.8408C11.3416 67.8135 11.2861 67.7689 11.2276 67.6982C11.1103 67.5566 11.0082 67.3229 10.9085 67.0944C10.8664 66.9982 10.8248 66.9026 10.7826 66.8154C10.799 66.8047 10.8139 66.792 10.8253 66.7746C10.9035 66.6552 10.9349 66.4204 10.9638 66.2043C10.983 66.0606 11.0011 65.925 11.0311 65.8375C11.0861 65.6773 11.0805 65.4899 11.0765 65.3513C11.0744 65.2795 11.0728 65.2206 11.0801 65.1856C11.086 65.1576 11.0996 65.1444 11.1137 65.1308C11.1259 65.1189 11.1386 65.1065 11.1467 65.0839C11.2449 64.8095 11.2154 64.6503 11.1724 64.4186C11.1488 64.2907 11.1211 64.1408 11.1084 63.9372C11.0974 63.7218 11.1011 63.6587 11.1526 63.5729C11.1125 63.4665 11.0724 63.3601 11.0323 63.2536C11.0165 63.2606 11.0046 63.3271 10.9878 63.4376C10.9579 63.6351 10.8603 63.7072 10.7841 63.7636C10.7488 63.7897 10.7181 63.8125 10.7008 63.8428C10.6086 64.0038 10.6354 64.228 10.659 64.4253C10.672 64.5338 10.684 64.6343 10.6746 64.7116C10.6707 64.7447 10.6763 64.7775 10.6821 64.8109C10.6865 64.8368 10.691 64.8631 10.6912 64.8901C10.6924 65.0866 10.6379 65.2324 10.5873 65.3678C10.5583 65.4453 10.5306 65.5197 10.5154 65.5981C10.5107 65.622 10.507 65.6463 10.5035 65.67C10.4985 65.7045 10.4935 65.7374 10.4858 65.7656C10.4682 65.8299 10.4319 65.8732 10.3921 65.9204C10.3718 65.9446 10.3505 65.9699 10.3304 65.9996C10.3043 66.0381 10.2949 66.1158 10.285 66.197C10.2779 66.2544 10.2706 66.3134 10.2571 66.3621C10.2327 66.4501 10.1833 66.4819 10.1375 66.5114C10.1176 66.5242 10.0983 66.537 10.082 66.5534C10.0754 66.5601 10.0722 66.5735 10.0715 66.5918C9.99634 66.6533 9.92454 66.7161 9.85466 66.7776C9.50432 67.0861 9.20107 67.3535 8.74821 67.1596C8.6626 67.123 8.57065 67.1303 8.47775 67.1596C8.18054 67.0826 7.88317 67.003 7.58607 66.9214C7.52726 66.7444 7.45532 66.5957 7.37016 66.4791C7.21022 66.2601 7.04569 66.2133 6.85155 66.158C6.70802 66.1172 6.54828 66.0715 6.36213 65.9484C6.04938 65.7416 5.72826 65.5666 5.36592 65.4756C5.00516 65.3851 4.59212 65.3184 4.29991 65.2947C4.14061 65.2818 3.97329 65.1234 3.81735 64.976C3.598 64.7687 3.40117 64.5829 3.28101 64.8524C3.24263 64.9385 3.20553 65.0879 3.16943 65.2331C3.14372 65.3366 3.11836 65.4376 3.09352 65.5128C3.02737 65.4894 2.96116 65.4663 2.89496 65.4427C2.77736 65.2632 2.5946 65.0707 2.41794 65.2709C2.34966 65.2462 2.28134 65.2216 2.21538 65.1966C2.07144 65.1444 1.93062 65.0915 1.78851 65.0382C1.74213 65.0206 1.69529 65.0029 1.64832 64.9852C1.64788 64.985 1.64743 64.9848 1.64699 64.9846C1.55246 64.9489 1.45722 64.9129 1.36356 64.8767C1.32344 64.8613 1.28332 64.8459 1.24321 64.8304C1.14126 64.7913 1.03857 64.7519 0.937649 64.7122C0.884235 64.6911 0.830308 64.6701 0.776288 64.6489C0.688651 64.6143 0.600351 64.5796 0.512503 64.5447C0.370433 64.4882 0.22903 64.4311 0.0873563 64.3735C0.0641868 64.364 0.0419215 64.3341 0.0255584 64.2888C0.00920119 64.2434 -2.50058e-05 64.1866 5.09005e-08 64.1279C3.20872e-05 64.0693 0.00933623 64.0123 0.0257492 63.9671C0.0421512 63.9221 0.0643937 63.8929 0.087547 63.8836C0.229321 63.8276 0.370906 63.7722 0.513075 63.7173C0.600939 63.6833 0.689207 63.6491 0.77686 63.6155C0.830905 63.5949 0.884781 63.5745 0.938221 63.554C1.03915 63.5154 1.14201 63.4769 1.24397 63.4389C1.28409 63.4238 1.3242 63.4088 1.36432 63.3938C1.45824 63.3586 1.55374 63.3237 1.64852 63.289C1.64909 63.2888 1.64966 63.2886 1.65023 63.2884C1.69686 63.2713 1.74341 63.2542 1.78947 63.2372C1.93163 63.1855 2.07253 63.1343 2.21652 63.0837C2.29092 63.0563 2.36845 63.0296 2.4454 63.0026C2.48825 62.9876 2.53101 62.9725 2.573 62.9575C2.59596 62.9496 2.61923 62.9417 2.64262 62.9338C3.17952 62.7465 3.71264 62.5662 4.2507 62.3934C4.78675 62.2205 5.32376 62.0547 5.85916 61.8956C6.39586 61.7364 6.93162 61.5841 7.46781 61.438C10.8707 60.5102 14.2873 59.7494 17.7053 59.2733C18.1928 59.205 18.6931 59.1433 19.1816 59.0881C19.6754 59.0328 20.1591 58.9838 20.6542 58.9419C20.8046 58.9288 20.9588 58.9165 21.1169 58.9047Z" fill="black"/>
</svg>
