<svg width="55" height="66" viewBox="0 0 55 66" fill="none" xmlns="http://www.w3.org/2000/svg">
<path d="M11.4261 35.0546C11.0041 33.9839 11.2648 32.8452 11.4084 31.8058C11.4116 31.7827 11.4147 31.7596 11.4179 31.7364C11.581 30.4645 11.8849 28.9994 12.8787 28.0104C13.8629 27.0268 15.1573 26.3864 16.4888 26.1961C17.3199 26.0747 18.1621 26.1263 18.942 26.3295C19.4118 26.4514 19.8643 26.6278 20.2846 26.8525C21.404 27.4481 22.2767 28.3878 22.78 29.441C23.1243 30.1562 23.3041 30.9242 23.3204 31.6697C23.3279 31.997 23.3045 32.3195 23.2527 32.6325C23.2139 32.8655 23.1594 33.0947 23.0908 33.3149C23.0812 33.3456 23.0537 33.3727 23.0135 33.3895C22.9732 33.4063 22.9238 33.4115 22.8745 33.4043C22.8253 33.397 22.7793 33.378 22.7451 33.352C22.711 33.326 22.6916 33.2952 22.6895 33.2655C22.6754 33.0512 22.6467 32.8391 22.6041 32.6342C22.5569 32.4059 22.4925 32.185 22.413 31.9733C22.6087 31.9058 22.7531 31.8281 22.8004 31.7177C22.8247 31.6616 22.8225 31.5852 22.7728 31.5416C22.7281 31.5024 22.6601 31.4827 22.5954 31.4652C22.5277 31.4468 22.4636 31.4311 22.4323 31.3968C22.3792 31.3386 22.276 31.301 22.168 31.267C22.1286 31.2546 22.0885 31.2426 22.0498 31.23C21.9408 31.0523 21.8205 30.8852 21.6906 30.7295C21.6736 30.6517 21.6531 30.5809 21.6148 30.5336C21.5805 30.4911 21.5174 30.472 21.4463 30.4611C21.4245 30.4392 21.4026 30.4176 21.3804 30.3963C21.2377 30.2588 21.0873 30.1334 20.931 30.0209C20.8718 29.876 20.797 29.7256 20.6543 29.5738C20.5928 29.5086 20.5422 29.4309 20.4899 29.3569C20.4134 29.2479 20.3329 29.1469 20.2271 29.1161C20.1566 29.0955 20.108 29.0337 20.0558 28.9723C19.9869 28.8904 19.9105 28.8091 19.7949 28.8424C19.7224 28.8634 19.651 28.8979 19.5865 28.9314C19.4839 28.9848 19.3986 29.0353 19.3437 29.0212C19.2409 28.9949 19.1333 29.0293 19.0433 29.0632C18.9337 29.1036 18.8483 29.1426 18.7946 29.0677C18.7865 29.0564 18.7774 29.0417 18.7669 29.0251C18.7287 28.9638 18.6712 28.8767 18.5757 28.8455C18.5354 28.8323 18.4889 28.8294 18.4369 28.8433C18.3749 28.8601 18.3133 28.9159 18.2565 28.972C18.1735 29.0537 18.1003 29.1355 18.0238 29.0976C18.0123 29.0919 18.0003 29.0684 17.9891 29.0469C17.9749 29.0196 17.9618 28.9959 17.9547 29.0168C17.9339 29.078 17.9017 29.1461 17.8695 29.2207C17.8458 29.2756 17.8222 29.334 17.8019 29.3953C17.6209 29.4406 17.4466 29.4996 17.2803 29.5703C17.2042 29.6026 17.1295 29.6376 17.0567 29.6748C16.9896 29.5999 16.9209 29.5359 16.8545 29.4935C16.7674 29.4383 16.6796 29.4451 16.5668 29.4602C16.4836 29.4714 16.3868 29.487 16.2609 29.4909C16.0258 29.4981 15.8507 29.6472 15.7772 29.776C15.7613 29.8033 15.7462 29.8315 15.7307 29.8618C15.6732 29.9774 15.6019 30.12 15.475 30.3633C15.3568 30.5936 15.2538 30.7712 15.1823 30.9093C15.1459 30.9798 15.1182 31.039 15.1034 31.0879C15.0782 31.1714 15.0459 31.2716 15.0193 31.3728C14.9769 31.5312 14.9502 31.6927 14.9579 31.7889C14.9605 31.823 14.966 31.8594 14.9725 31.8983C14.9895 31.9984 15.0136 32.1142 15.0241 32.2614C15.0249 32.2729 15.0256 32.2845 15.0263 32.2963C15.037 32.4672 15.0111 32.5655 14.9611 32.674C14.941 32.7176 14.8636 32.7576 14.7846 32.8026C14.6724 32.8655 14.557 32.9416 14.6009 33.0285C14.6112 33.0486 14.632 33.0688 14.654 33.0896C14.6944 33.128 14.7387 33.1668 14.7291 33.2148C14.7257 33.2316 14.7072 33.2491 14.6892 33.2666C14.6693 33.2857 14.6501 33.3049 14.6521 33.3223C14.6594 33.3873 14.6782 33.4487 14.6961 33.5023C14.7192 33.5714 14.7408 33.6286 14.7339 33.6701C14.7216 33.7444 14.7735 33.8074 14.8273 33.8665C14.8685 33.9122 14.911 33.956 14.9286 34.0081C14.9783 34.1579 15.1288 34.331 15.3251 34.4583C15.3992 34.5063 15.3977 34.5883 15.4031 34.6979C15.4065 34.7658 15.4125 34.8442 15.4417 34.9273C15.4583 34.9745 15.5172 34.9752 15.5705 34.9742C15.6198 34.9733 15.6647 34.9712 15.6726 35.0065C15.6795 35.0377 15.6407 35.1012 15.6048 35.1623C15.5647 35.2302 15.5284 35.2953 15.5607 35.3065C15.5779 35.3124 15.6174 35.2997 15.6636 35.2836C15.6819 35.2772 15.7012 35.2704 15.7208 35.264C15.7106 35.2746 15.7017 35.2843 15.6951 35.2917C15.6481 35.3439 15.6468 35.3925 15.6469 35.4405C15.647 35.4597 15.6472 35.4788 15.6446 35.4979C15.6349 35.5686 15.6863 35.6234 15.7327 35.6556C15.7523 35.6692 15.7563 35.6996 15.7616 35.7353C15.7663 35.7669 15.7721 35.8027 15.7905 35.834C15.801 35.8518 15.8012 35.8768 15.8016 35.8977C15.8018 35.9129 15.802 35.9258 15.8062 35.932C15.8099 35.9374 15.8253 35.9235 15.8425 35.9078C15.8549 35.8965 15.8683 35.8842 15.879 35.8775C15.9046 35.8614 15.9222 35.8631 15.9265 35.8766C15.9285 35.8828 15.9276 35.8915 15.9267 35.9003C15.9256 35.9104 15.9245 35.9207 15.9282 35.9268C15.9451 35.9553 15.982 35.9514 16.0197 35.9465C16.0614 35.9414 16.1036 35.9349 16.1259 35.9712C16.1329 35.9827 16.1365 36.0017 16.1402 36.0201C16.1441 36.0394 16.1481 36.0581 16.1556 36.0667C16.1864 36.1015 16.2463 36.0763 16.3 36.0518C16.3358 36.0356 16.369 36.0198 16.3909 36.0231C16.4311 36.0292 16.4752 35.9831 16.5073 35.9489C16.5239 35.9312 16.5374 35.9165 16.5457 35.914C16.5504 35.918 16.555 35.9223 16.5595 35.9267C16.5626 35.9329 16.5659 35.9394 16.5713 35.9402C16.5717 35.9403 16.5722 35.9402 16.5726 35.9402C16.5968 35.967 16.619 35.999 16.6413 36.0305C16.6913 36.1013 16.7465 36.1713 16.8291 36.1719C16.8469 36.1721 16.8711 36.1539 16.8954 36.1351C16.9251 36.1121 16.9549 36.0883 16.975 36.0968C17.0225 36.1169 17.0616 36.1705 17.1028 36.2229C17.1639 36.3015 17.2313 36.3773 17.3154 36.3269C17.3429 36.3103 17.3721 36.2791 17.4008 36.2474C17.4168 36.2297 17.4327 36.2117 17.4481 36.1962C17.4401 36.2284 17.4337 36.2587 17.4277 36.287C17.4153 36.3453 17.4047 36.3952 17.3846 36.4357C17.3375 36.5316 17.2757 36.6634 17.261 36.7651C17.257 36.7927 17.2505 36.823 17.2438 36.8536C17.2271 36.9302 17.2094 37.0085 17.2358 37.05C17.2532 37.078 17.3022 37.1431 17.3482 37.0893C17.3581 37.0776 17.3668 37.0527 17.3763 37.025C17.3809 37.0118 17.3856 36.9979 17.3909 36.9844C17.4052 36.9474 17.4228 36.9138 17.4486 36.9067C17.4545 36.9051 17.4608 36.9038 17.4674 36.9026C17.4935 36.8979 17.5225 36.8924 17.5376 36.8523C17.555 36.8061 17.5584 36.7513 17.5629 36.6874C17.5684 36.6042 17.5763 36.5056 17.6123 36.3896C17.6194 36.3667 17.6288 36.3596 17.6358 36.3542C17.6408 36.3503 17.6446 36.3472 17.6457 36.3402C17.6469 36.3322 17.6472 36.3151 17.6476 36.2936C17.6488 36.2176 17.6527 36.0853 17.6966 36.084C17.7086 36.0836 17.7217 36.0911 17.7334 36.0978C17.7507 36.1077 17.7653 36.1157 17.7688 36.0942C17.7702 36.0861 17.7714 36.0773 17.7725 36.0681C17.7865 36.0717 17.8005 36.0753 17.8145 36.0787C17.8312 36.1056 17.8569 36.1048 17.8892 36.1032C17.8971 36.1028 17.9053 36.1025 17.9139 36.1024C17.9419 36.1086 17.9701 36.1144 17.9982 36.1201C18.0206 36.1312 18.0443 36.1489 18.0704 36.1768C18.1225 36.2327 18.1713 36.3245 18.2227 36.4132C18.2443 36.4506 18.2666 36.4875 18.2893 36.5209C18.2817 36.5257 18.2749 36.5312 18.2698 36.5386C18.2351 36.5886 18.2245 36.6831 18.2139 36.7702C18.2068 36.8281 18.1997 36.8827 18.1852 36.9183C18.1585 36.9834 18.1634 37.0582 18.1676 37.1135C18.1697 37.1422 18.1714 37.1657 18.1678 37.1798C18.1648 37.1911 18.1573 37.1966 18.1495 37.2023C18.1427 37.2073 18.1356 37.2124 18.1313 37.2216C18.0776 37.3325 18.0941 37.3958 18.1222 37.488C18.1376 37.5388 18.1561 37.5983 18.1665 37.6794C18.1758 37.7654 18.1746 37.7907 18.1422 37.8259C18.1691 37.8678 18.1966 37.9096 18.2247 37.9511C18.235 37.9479 18.2418 37.921 18.2507 37.8763C18.2668 37.7966 18.3272 37.7647 18.3741 37.7387C18.3958 37.7267 18.4144 37.716 18.4244 37.7031C18.477 37.6341 18.4513 37.5461 18.4306 37.4688C18.4191 37.4262 18.4088 37.3867 18.4117 37.3554C18.4129 37.3421 18.4084 37.3293 18.404 37.3162C18.4006 37.3061 18.3971 37.2958 18.3961 37.2851C18.3891 37.2068 18.4152 37.1461 18.4378 37.0896C18.4508 37.0572 18.4628 37.026 18.4678 36.994C18.4693 36.9842 18.4702 36.9743 18.4711 36.9647C18.4723 36.9507 18.4735 36.9373 18.4764 36.9257C18.4831 36.8991 18.5003 36.8798 18.5188 36.8585C18.5283 36.8476 18.5382 36.8362 18.5471 36.8231C18.5586 36.8061 18.5594 36.7746 18.5601 36.7417C18.5606 36.7185 18.5611 36.6946 18.5652 36.6744C18.5726 36.6378 18.595 36.6218 18.6156 36.6067C18.6246 36.6001 18.6332 36.5936 18.6401 36.5859C18.643 36.5827 18.6437 36.5772 18.6428 36.5699C18.6755 36.5397 18.7056 36.5088 18.7341 36.4784C18.8781 36.3244 18.9786 36.1902 19.2009 36.1976C19.2433 36.1987 19.2827 36.1815 19.319 36.1552C19.4589 36.1352 19.5998 36.1076 19.7408 36.072C19.7981 36.1222 19.857 36.1585 19.9167 36.179C20.0291 36.2173 20.1124 36.1907 20.2085 36.1559C20.2798 36.1299 20.3583 36.0995 20.4664 36.0821C20.6479 36.0527 20.829 35.9968 20.9995 35.8875C21.1697 35.7792 21.3454 35.6271 21.4555 35.5063C21.5156 35.4411 21.6228 35.4056 21.723 35.3675C21.8637 35.3144 21.991 35.2546 21.9365 35.1381C21.9191 35.101 21.8793 35.0515 21.84 35.0042C21.812 34.9704 21.7845 34.9377 21.7655 34.9108C21.7919 34.8844 21.818 34.8575 21.844 34.8303C21.9381 34.8093 22.0558 34.7518 22.0268 34.6271C22.0522 34.597 22.0772 34.5665 22.1016 34.5368C22.1538 34.4714 22.2041 34.4059 22.2532 34.338C22.2693 34.3158 22.2853 34.2932 22.3013 34.2703C22.3014 34.2701 22.3016 34.2699 22.3018 34.2696C22.3338 34.2236 22.3652 34.1767 22.3958 34.1295C22.4089 34.1093 22.4218 34.0889 22.4346 34.0684C22.4671 34.0164 22.4987 33.9634 22.5294 33.91C22.5457 33.8819 22.5618 33.8528 22.5776 33.8241C22.6033 33.7773 22.6285 33.7294 22.6531 33.6809C22.6928 33.602 22.7304 33.5238 22.7665 33.4422C22.7725 33.4289 22.7863 33.4173 22.8057 33.4101C22.8251 33.4028 22.8484 33.4005 22.8716 33.4038C22.8948 33.4072 22.9166 33.4163 22.933 33.4291C22.9493 33.442 22.9587 33.4576 22.9601 33.4726C22.9683 33.5647 22.9742 33.6557 22.9768 33.7496C22.9785 33.8074 22.9793 33.8654 22.9789 33.9231C22.9787 33.9585 22.9779 33.9946 22.9769 34.03C22.9749 34.0971 22.9714 34.1652 22.9663 34.2331C22.9643 34.26 22.9621 34.2868 22.9597 34.3136C22.954 34.3765 22.9469 34.44 22.9384 34.5035C22.9384 34.5039 22.9383 34.5043 22.9382 34.5046C22.9341 34.5359 22.9296 34.5672 22.925 34.5981C22.9104 34.6932 22.8932 34.7877 22.8721 34.884C22.8616 34.934 22.8494 34.9854 22.8364 35.0369C22.8292 35.0655 22.8218 35.0941 22.8143 35.1222C22.8102 35.1374 22.8058 35.1529 22.8014 35.1684C22.7011 35.5258 22.5598 35.8763 22.3755 36.2144C22.1921 36.5514 21.9675 36.8737 21.7071 37.171C21.446 37.4688 21.1487 37.7419 20.8203 37.9826C19.7988 38.7382 18.453 39.1651 17.0819 39.1068C15.6683 39.0587 14.2137 38.4825 13.1066 37.4748C12.7946 37.1935 12.5023 36.8712 12.2491 36.5299C11.9932 36.1848 11.774 35.8208 11.5882 35.4277C11.5318 35.3085 11.4775 35.1839 11.4261 35.0546Z" fill="black"/>
<path d="M19.4279 17.2991C19.3346 16.5299 20.2617 15.7956 20.268 15.0243C20.2759 14.0667 19.3998 13.0888 19.5696 12.1299C19.7395 11.1766 19.9809 10.2191 20.2773 9.26495C20.5737 8.30975 20.9249 7.35628 21.3134 6.40113C21.7018 5.44802 22.1273 4.49306 22.5736 3.53954C22.8768 2.89187 23.1896 2.24355 23.5062 1.59604C23.645 1.31178 23.7844 1.02838 23.9243 0.744283C24.0289 0.532336 24.1335 0.320388 24.2381 0.108444C24.2529 0.0789814 24.3122 0.0510148 24.4061 0.0306898C24.5003 0.0103695 24.6207 -0.000700793 24.7451 5.49452e-05C24.8695 0.000820636 24.9901 0.0133893 25.0836 0.0348792C25.1769 0.056358 25.235 0.0850663 25.2489 0.114696C25.3477 0.329622 25.4466 0.544553 25.5455 0.759483C25.6551 0.998211 25.765 1.23652 25.8739 1.47518C25.3633 1.50967 24.9758 1.55884 24.8042 1.65421C24.7167 1.70288 24.68 1.77439 24.7746 1.82776C24.8595 1.87568 25.0113 1.91229 25.1559 1.94706C25.3072 1.98343 25.4508 2.01794 25.5013 2.06158C25.5871 2.13563 25.8034 2.2068 26.0307 2.28154C26.1134 2.30874 26.1977 2.33644 26.2776 2.36493C26.38 2.59273 26.4817 2.82055 26.5825 3.04833C26.5276 3.13577 26.4832 3.21619 26.5037 3.28476C26.5221 3.34627 26.6297 3.40313 26.7635 3.45989C26.7789 3.49515 26.7943 3.53041 26.8098 3.56568C26.9089 3.79325 27.0064 4.0209 27.1031 4.24855C26.9659 4.42494 26.8325 4.60988 26.773 4.85099C26.7474 4.95491 26.6731 5.05715 26.6018 5.15544C26.4966 5.30062 26.3977 5.43718 26.4703 5.55785C26.5189 5.63851 26.4463 5.72263 26.3738 5.80654C26.2767 5.91908 26.1797 6.03141 26.3756 6.13489C26.4987 6.19995 26.6486 6.25994 26.7876 6.31548C27.0087 6.40387 27.2022 6.48109 27.2152 6.55007C27.2395 6.67966 27.4003 6.79271 27.5422 6.89234C27.7128 7.01217 27.856 7.11266 27.7006 7.19928C27.677 7.21241 27.6457 7.22741 27.6102 7.2443C27.4226 7.33331 27.1227 7.47565 27.2859 7.68347C27.344 7.75745 27.4958 7.82752 27.6447 7.89614C27.8615 7.99603 28.072 8.09304 27.9775 8.19506C27.9633 8.2103 27.9044 8.22596 27.8505 8.24021C27.782 8.25833 27.7222 8.27417 27.7741 8.28405C27.9262 8.31305 28.0943 8.35866 28.2772 8.40819C28.4116 8.44458 28.5541 8.48316 28.7037 8.51883C28.7868 8.78507 28.8663 9.05133 28.9415 9.31765C28.976 9.43966 29.0096 9.5617 29.0423 9.68377C28.8126 9.74476 28.6057 9.80731 28.449 9.87371C28.2442 9.96052 28.181 10.0743 28.0991 10.2208C28.0388 10.3287 27.9683 10.4544 27.8245 10.6003C27.5584 10.8704 27.6161 11.1498 27.7569 11.3295C27.7867 11.3675 27.8185 11.4057 27.8531 11.4466C27.9843 11.6016 28.1486 11.795 28.329 12.1616C28.4996 12.5084 28.5426 12.8028 28.575 13.0239C28.5915 13.1368 28.6048 13.2306 28.6312 13.3026C28.6765 13.4257 28.7166 13.5768 28.7567 13.7286C28.8194 13.966 28.8822 14.2049 28.967 14.3405C28.9972 14.3887 29.0346 14.4394 29.0745 14.4941C29.1853 14.6457 29.3189 14.8289 29.3952 15.0807C29.4754 15.345 29.4187 15.5082 29.2967 15.6774C29.2471 15.7461 29.0522 15.8059 28.8508 15.8675C28.5651 15.9548 28.2668 16.046 28.3549 16.1722C28.3755 16.2016 28.4217 16.2332 28.4701 16.2662C28.5591 16.3269 28.6557 16.3925 28.6128 16.4589C28.5978 16.482 28.5449 16.5022 28.493 16.5219C28.4359 16.5437 28.3801 16.565 28.3768 16.5895C28.3647 16.6809 28.3774 16.7701 28.3887 16.8493C28.4034 16.9515 28.4155 17.0371 28.369 17.09C28.2861 17.1842 28.3592 17.2881 28.4337 17.3934C28.4905 17.4738 28.5484 17.5551 28.5371 17.6333C28.5048 17.8569 28.6435 18.1655 28.8757 18.484C28.9635 18.6045 28.842 18.7054 28.686 18.8348C28.589 18.9152 28.4782 19.0067 28.3968 19.1207C28.3506 19.1853 28.458 19.2409 28.5572 19.2924C28.6486 19.3398 28.7331 19.3838 28.685 19.4281C28.6424 19.4672 28.4612 19.491 28.2891 19.5136C28.0975 19.5388 27.9173 19.5625 27.9522 19.6041C27.9708 19.6263 28.0612 19.6536 28.1686 19.6861C28.2111 19.6989 28.2561 19.7127 28.3006 19.7271C28.2639 19.7262 28.231 19.7258 28.2062 19.7257C28.0305 19.7246 27.9377 19.7663 27.8468 19.8072C27.8106 19.8236 27.7747 19.8398 27.7339 19.8531C27.5835 19.9021 27.5585 19.9963 27.5651 20.0685C27.5678 20.099 27.5131 20.1263 27.4494 20.1582C27.3928 20.1865 27.3289 20.2184 27.2916 20.2594C27.2703 20.2827 27.2193 20.3004 27.1767 20.3151C27.1459 20.3257 27.1195 20.3347 27.1126 20.3432C27.1066 20.3506 27.1569 20.3568 27.2136 20.3638C27.2544 20.3689 27.2986 20.3744 27.3274 20.381C27.3963 20.3968 27.417 20.4166 27.3948 20.4304C27.3845 20.4367 27.3649 20.4416 27.3453 20.4465C27.3226 20.4523 27.2997 20.4579 27.2916 20.4659C27.2547 20.5025 27.3119 20.5386 27.3714 20.5761C27.4367 20.6174 27.5046 20.6604 27.4535 20.7075C27.4374 20.7224 27.4006 20.7381 27.3649 20.7533C27.3275 20.7692 27.2914 20.7846 27.2817 20.7979C27.2425 20.8517 27.3678 20.9032 27.4831 20.9507C27.5598 20.9822 27.6319 21.012 27.6483 21.0393C27.6783 21.0894 27.829 21.1171 27.9402 21.1375C27.9978 21.1481 28.0452 21.1567 28.0595 21.1655C28.0552 21.1735 28.0502 21.1817 28.0447 21.1896C28.0336 21.1968 28.0221 21.2043 28.0257 21.2115C28.026 21.212 28.0266 21.2125 28.0269 21.2131C27.9901 21.2575 27.938 21.301 27.886 21.3443C27.7693 21.4415 27.6537 21.5375 27.7179 21.6401C27.7318 21.6622 27.7939 21.685 27.8571 21.7082C27.9344 21.7366 28.0135 21.7657 28.0077 21.7948C27.9936 21.8641 27.8905 21.9337 27.7889 22.0021C27.6361 22.1051 27.4869 22.2057 27.6495 22.3C27.7032 22.3311 27.7927 22.3617 27.8829 22.3924C27.9332 22.4094 27.9839 22.4266 28.0282 22.4439C27.9458 22.4398 27.8683 22.4374 27.7961 22.4352C27.6473 22.4307 27.52 22.4267 27.4118 22.4097C27.1563 22.3696 26.8045 22.3237 26.5478 22.3271C26.4781 22.328 26.4005 22.3265 26.3223 22.3249C26.1263 22.3208 25.9261 22.3166 25.8354 22.352C25.7742 22.3758 25.6338 22.4372 25.7835 22.4776C25.8161 22.4864 25.8808 22.492 25.9527 22.4983C26.082 22.5095 26.235 22.5229 26.2704 22.5605C26.2764 22.5669 26.2817 22.5738 26.2867 22.5809C26.3067 22.6093 26.3287 22.6411 26.4325 22.6535C26.5522 22.6678 26.6893 22.6657 26.8492 22.6633C27.0575 22.6601 27.3048 22.6563 27.6028 22.6873C27.6616 22.6935 27.6818 22.7047 27.697 22.7132C27.7078 22.7192 27.7164 22.7237 27.7341 22.7243C27.7545 22.7249 27.7969 22.7233 27.8505 22.7212C28.0397 22.7138 28.3704 22.7011 28.384 22.7625C28.3877 22.7792 28.3718 22.7981 28.3575 22.815C28.3364 22.84 28.319 22.8607 28.3731 22.8639C28.3936 22.865 28.4158 22.8659 28.4388 22.8666C28.4322 22.8866 28.4256 22.9065 28.419 22.9265C28.3544 22.9518 28.3597 22.9878 28.3666 23.0327C28.3683 23.0437 28.3698 23.0552 28.3707 23.0671C28.3571 23.1065 28.3436 23.1458 28.3298 23.1852C28.3022 23.2163 28.2575 23.2493 28.1866 23.284C28.0445 23.3536 27.8105 23.4135 27.5817 23.472C27.4853 23.4966 27.3896 23.521 27.3022 23.5459C27.2916 23.5359 27.279 23.5269 27.2616 23.52C27.1425 23.4724 26.9078 23.4521 26.6918 23.4336C26.5481 23.4212 26.4126 23.4095 26.3253 23.391C26.1652 23.3571 25.9778 23.3593 25.8392 23.3609C25.7673 23.3618 25.7085 23.3624 25.6735 23.3578C25.6455 23.3541 25.6324 23.3459 25.6188 23.3373C25.607 23.3299 25.5946 23.3223 25.572 23.3173C25.298 23.2567 25.1387 23.2735 24.9068 23.2979C24.7789 23.3114 24.6288 23.3271 24.4253 23.3336C24.2098 23.3389 24.1467 23.3363 24.0611 23.3049C23.9545 23.3283 23.848 23.3518 23.7414 23.3752C23.7483 23.3847 23.8148 23.3923 23.9253 23.403C24.1226 23.4221 24.1944 23.481 24.2505 23.5271C24.2765 23.5484 24.2992 23.567 24.3294 23.5776C24.4901 23.6338 24.7143 23.6191 24.9117 23.606C25.0203 23.5989 25.1209 23.5923 25.1981 23.5983C25.2311 23.6009 25.264 23.5977 25.2974 23.5944C25.3233 23.5919 25.3496 23.5894 25.3767 23.5894C25.5731 23.5898 25.7187 23.6234 25.854 23.6546C25.9314 23.6724 26.0057 23.6894 26.084 23.6991C26.1079 23.702 26.1322 23.7044 26.1559 23.7066C26.1904 23.7098 26.2233 23.713 26.2514 23.7178C26.3156 23.7287 26.3588 23.7507 26.4059 23.7749C26.43 23.7873 26.4552 23.8002 26.4849 23.8124C26.5233 23.8283 26.601 23.8344 26.6821 23.8408C26.7394 23.8454 26.7985 23.8501 26.8471 23.8585C26.935 23.8737 26.9666 23.9035 26.996 23.9311C27.0087 23.9432 27.0214 23.9548 27.0378 23.9647C27.0445 23.9687 27.0578 23.9707 27.0761 23.9712C27.1374 24.0166 27.1999 24.0601 27.2612 24.1024C27.5684 24.3144 27.8347 24.4979 27.6393 24.7685C27.6024 24.8196 27.6094 24.8748 27.6384 24.9307C27.5603 25.1086 27.4797 25.2866 27.397 25.4644C27.2198 25.4986 27.0709 25.5409 26.954 25.5913C26.7344 25.686 26.687 25.7844 26.6311 25.9006C26.5897 25.9865 26.5435 26.082 26.4198 26.193C26.2118 26.3795 26.0357 26.5711 25.9435 26.788C25.8517 27.0039 25.7835 27.2513 25.7588 27.4265C25.7453 27.522 25.5864 27.6215 25.4385 27.7142C25.2304 27.8446 25.0439 27.9616 25.3129 28.0352C25.3989 28.0588 25.5482 28.0819 25.6933 28.1044C25.7966 28.1205 25.8975 28.1363 25.9727 28.1516C25.9491 28.1911 25.9257 28.2307 25.9019 28.2703C25.722 28.3398 25.5288 28.4484 25.7284 28.5555C25.7035 28.5964 25.6786 28.6372 25.6534 28.6766C25.6007 28.7627 25.5473 28.8469 25.4935 28.9318C25.4757 28.9595 25.4579 28.9875 25.44 29.0156C25.4398 29.0159 25.4396 29.0161 25.4394 29.0164C25.4033 29.0729 25.3671 29.1299 25.3306 29.1858C25.315 29.2098 25.2994 29.2338 25.2838 29.2578C25.2443 29.3187 25.2046 29.3801 25.1646 29.4404C25.1433 29.4723 25.1221 29.5046 25.1006 29.5369C25.0658 29.5892 25.0308 29.642 24.9955 29.6945C24.9385 29.7794 24.8809 29.8639 24.8228 29.9486C24.8132 29.9625 24.7833 29.9756 24.7379 29.9852C24.6925 29.9947 24.6356 29.9999 24.577 29.9996C24.5184 29.9992 24.4614 29.9933 24.4162 29.9832C24.3713 29.9731 24.3422 29.9596 24.333 29.9456C24.2775 29.8602 24.2226 29.775 24.1682 29.6893C24.1345 29.6364 24.1006 29.5833 24.0673 29.5305C24.0468 29.4979 24.0267 29.4655 24.0064 29.4333C23.9681 29.3725 23.93 29.3106 23.8923 29.2492C23.8774 29.225 23.8625 29.2009 23.8476 29.1767C23.8127 29.1202 23.7782 29.0627 23.7438 29.0056C23.7436 29.0052 23.7434 29.0049 23.7432 29.0046C23.7263 28.9765 23.7094 28.9484 23.6925 28.9207C23.6413 28.8351 23.5906 28.7503 23.5405 28.6636C23.5135 28.6188 23.487 28.5721 23.4603 28.5258C23.4454 28.5 23.4304 28.4742 23.4156 28.449C23.4078 28.4351 23.4 28.4211 23.3921 28.4071C23.2067 28.0838 23.0283 27.7629 22.8574 27.4391C22.6864 27.1164 22.5225 26.7933 22.3652 26.4711C22.208 26.1482 22.0576 25.8258 21.9133 25.5032C20.9975 23.4561 20.2487 21.4018 19.7846 19.3482C19.7179 19.0553 19.6581 18.7548 19.6045 18.4614C19.551 18.1648 19.5037 17.8743 19.4635 17.5769C19.4509 17.4866 19.4392 17.3941 19.4279 17.2991Z" fill="black"/>
<path d="M19.3537 52.3581C19.2559 51.5894 20.1787 50.8497 20.1805 50.0784C20.1827 49.1208 19.301 48.148 19.4652 47.1881C19.6294 46.2339 19.8653 45.275 20.1561 44.3191C20.4469 43.3622 20.7925 42.4067 21.1754 41.4493C21.5582 40.4939 21.9782 39.5365 22.4189 38.5804C22.7182 37.9309 23.0273 37.2808 23.3401 36.6315C23.4772 36.3464 23.615 36.0622 23.7532 35.7773C23.8566 35.5647 23.9599 35.3522 24.0633 35.1396C24.0779 35.1101 24.137 35.0817 24.2309 35.0609C24.3249 35.04 24.4452 35.0282 24.5696 35.0283C24.6941 35.0283 24.8147 35.0402 24.9084 35.0611C25.0018 35.082 25.0601 35.1104 25.0741 35.14C25.1742 35.3543 25.2743 35.5686 25.3744 35.783C25.4855 36.0211 25.5968 36.2587 25.7071 36.4968C25.1966 36.5342 24.8094 36.5857 24.6385 36.682C24.5512 36.7312 24.515 36.8029 24.6098 36.8558C24.695 36.9032 24.847 36.9389 24.9918 36.9728C25.1433 37.0083 25.2871 37.042 25.3379 37.0853C25.4241 37.1589 25.6409 37.2288 25.8686 37.3022C25.9514 37.3289 26.0359 37.3561 26.1159 37.3841C26.2197 37.6113 26.3227 37.8386 26.4248 38.0657C26.3705 38.1535 26.3265 38.2342 26.3474 38.3026C26.3662 38.364 26.4741 38.4203 26.6082 38.4762C26.6238 38.5114 26.6395 38.5466 26.6551 38.5818C26.7556 38.8087 26.8545 39.0358 26.9524 39.2629C26.8162 39.4401 26.6839 39.6258 26.6259 39.8673C26.6008 39.9713 26.5272 40.074 26.4565 40.1727C26.3521 40.3185 26.254 40.4556 26.3273 40.5759C26.3764 40.6562 26.3042 40.7408 26.2323 40.8251C26.1358 40.9382 26.0395 41.0511 26.2359 41.1535C26.3595 41.2178 26.5097 41.2769 26.649 41.3316C26.8707 41.4187 27.0646 41.4948 27.0779 41.5637C27.103 41.6932 27.2645 41.8053 27.4069 41.9041C27.5783 42.0229 27.722 42.1226 27.5672 42.2101C27.5437 42.2234 27.5125 42.2385 27.477 42.2556C27.29 42.3457 26.9909 42.4898 27.1553 42.6967C27.2139 42.7703 27.3661 42.8395 27.5154 42.9073C27.7328 43.0059 27.9438 43.1017 27.8499 43.2042C27.8358 43.2196 27.7769 43.2356 27.7232 43.2501C27.6548 43.2686 27.5951 43.2848 27.647 43.2944C27.7993 43.3225 27.9676 43.3671 28.1509 43.4156C28.2855 43.4512 28.4282 43.489 28.578 43.5237C28.6626 43.7895 28.7437 44.0553 28.8204 44.3212C28.8556 44.443 28.89 44.5648 28.9234 44.6867C28.6941 44.749 28.4875 44.8128 28.3312 44.8801C28.1269 44.9681 28.0644 45.0822 27.9833 45.2293C27.9237 45.3375 27.8539 45.4636 27.711 45.6103C27.4464 45.882 27.5057 46.1611 27.6476 46.3399C27.6776 46.3777 27.7096 46.4157 27.7445 46.4564C27.8766 46.6106 28.0421 46.8031 28.2246 47.1687C28.3972 47.5145 28.442 47.8086 28.4756 48.0295C28.4928 48.1423 28.5066 48.236 28.5335 48.3078C28.5795 48.4307 28.6205 48.5816 28.6614 48.7331C28.7255 48.9701 28.7897 49.2087 28.8753 49.3437C28.9057 49.3918 28.9434 49.4423 28.9837 49.4967C29.0953 49.6477 29.23 49.8301 29.3079 50.0814C29.3895 50.3453 29.3338 50.5088 29.2128 50.6787C29.1636 50.7477 28.9691 50.8086 28.768 50.8714C28.4828 50.9604 28.1851 51.0533 28.2739 51.179C28.2947 51.2084 28.341 51.2397 28.3897 51.2724C28.4791 51.3325 28.576 51.3976 28.5335 51.4642C28.5187 51.4874 28.4658 51.5079 28.4141 51.5279C28.3571 51.55 28.3014 51.5716 28.2983 51.5962C28.2867 51.6877 28.2999 51.7768 28.3117 51.8559C28.3269 51.958 28.3396 52.0436 28.2934 52.0967C28.2111 52.1914 28.2848 52.2949 28.3598 52.3998C28.4172 52.4798 28.4755 52.5607 28.4646 52.639C28.4336 52.8628 28.5741 53.1706 28.8083 53.4877C28.8968 53.6077 28.7759 53.7094 28.6206 53.8396C28.524 53.9207 28.4138 54.0128 28.333 54.1272C28.2873 54.1921 28.395 54.2471 28.4945 54.298C28.5862 54.3449 28.6709 54.3883 28.623 54.4329C28.5807 54.4723 28.3996 54.4972 28.2276 54.5208C28.0362 54.5471 27.8562 54.5719 27.8913 54.6133C27.91 54.6353 28.0006 54.6621 28.1082 54.6939C28.1508 54.7065 28.1958 54.72 28.2404 54.7342C28.2037 54.7335 28.1708 54.7333 28.146 54.7333C27.9703 54.7333 27.8778 54.7755 27.7871 54.817C27.7509 54.8335 27.7152 54.85 27.6744 54.8635C27.5243 54.9134 27.4999 55.0077 27.5069 55.0798C27.5098 55.1103 27.4553 55.138 27.3917 55.1702C27.3353 55.1989 27.2716 55.2312 27.2345 55.2723C27.2134 55.2958 27.1625 55.3138 27.12 55.3287C27.0892 55.3395 27.0629 55.3487 27.056 55.3572C27.0501 55.3646 27.1004 55.3706 27.1571 55.3773C27.198 55.3821 27.2422 55.3873 27.2711 55.3937C27.3401 55.4091 27.3609 55.4289 27.3387 55.4427C27.3285 55.4491 27.3089 55.4542 27.2894 55.4592C27.2666 55.4651 27.2438 55.4709 27.2357 55.4789C27.1991 55.5157 27.2565 55.5515 27.3162 55.5886C27.3817 55.6295 27.4499 55.6721 27.399 55.7196C27.383 55.7345 27.3463 55.7504 27.3107 55.7658C27.2734 55.7819 27.2374 55.7976 27.2278 55.8109C27.1889 55.8649 27.3145 55.9158 27.4301 55.9625C27.5069 55.9936 27.5792 56.0229 27.5958 56.0502C27.6261 56.1001 27.7769 56.1269 27.8883 56.1466C27.946 56.1569 27.9933 56.1652 28.0077 56.174C28.0035 56.182 27.9985 56.1902 27.9931 56.1981C27.982 56.2055 27.9705 56.213 27.9742 56.2201C27.9745 56.2207 27.9751 56.2212 27.9754 56.2217C27.9388 56.2664 27.887 56.3102 27.8353 56.3538C27.7191 56.4517 27.6041 56.5483 27.6689 56.6505C27.6829 56.6726 27.7452 56.695 27.8085 56.7178C27.886 56.7458 27.9653 56.7744 27.9595 56.8035C27.9459 56.873 27.8432 56.9431 27.742 57.0122C27.5898 57.116 27.4412 57.2175 27.6043 57.3109C27.6582 57.3416 27.7479 57.3717 27.8383 57.4018C27.8887 57.4186 27.9395 57.4355 27.9839 57.4525C27.9014 57.4489 27.824 57.447 27.7518 57.4452C27.6029 57.4415 27.4756 57.4383 27.3673 57.422C27.1116 57.3833 26.7596 57.3395 26.5028 57.3444C26.4331 57.3457 26.3555 57.3446 26.2774 57.3435C26.0813 57.3405 25.8811 57.3376 25.7906 57.3735C25.7296 57.3976 25.5895 57.4598 25.7394 57.4993C25.7721 57.5079 25.8368 57.5132 25.9088 57.519C26.0381 57.5295 26.1912 57.542 26.2268 57.5794C26.2328 57.5857 26.2382 57.5926 26.2433 57.5997C26.2634 57.628 26.2855 57.6596 26.3895 57.6715C26.5092 57.6851 26.6463 57.6822 26.8062 57.6788C27.0144 57.6744 27.2618 57.6691 27.5599 57.6985C27.6188 57.7043 27.639 57.7154 27.6543 57.7238C27.6651 57.7297 27.6737 57.7342 27.6915 57.7346C27.7118 57.7351 27.7542 57.7332 27.8078 57.7308C27.997 57.7224 28.3275 57.7077 28.3416 57.7691C28.3453 57.7857 28.3296 57.8047 28.3154 57.8217C28.2944 57.8468 28.2771 57.8677 28.3312 57.8705C28.3517 57.8715 28.374 57.8723 28.397 57.8729C28.3905 57.8929 28.384 57.9128 28.3775 57.9328C28.313 57.9585 28.3186 57.9945 28.3257 58.0394C28.3275 58.0503 28.3291 58.0618 28.33 58.0737C28.3166 58.1131 28.3034 58.1526 28.2898 58.192C28.2624 58.2233 28.2179 58.2566 28.1472 58.2917C28.0055 58.3621 27.7719 58.4233 27.5434 58.4832C27.4472 58.5084 27.3516 58.5334 27.2644 58.5587C27.2537 58.5488 27.241 58.5399 27.2236 58.5331C27.1042 58.4861 26.8694 58.4673 26.6533 58.45C26.5095 58.4385 26.374 58.4276 26.2865 58.4096C26.1263 58.3766 25.9389 58.3799 25.8003 58.3824C25.7284 58.3836 25.6696 58.3846 25.6346 58.3802C25.6066 58.3766 25.5934 58.3685 25.5798 58.36C25.5679 58.3527 25.5554 58.3451 25.5329 58.3402C25.2585 58.2813 25.0993 58.299 24.8675 58.3248C24.7397 58.339 24.5897 58.3556 24.3862 58.3632C24.1707 58.3698 24.1077 58.3676 24.0219 58.3367C23.9155 58.3608 23.809 58.3848 23.7026 58.4089C23.7095 58.4184 23.7761 58.4255 23.8866 58.4356C24.084 58.4535 24.1562 58.5121 24.2126 58.5578C24.2387 58.579 24.2615 58.5974 24.2918 58.6078C24.4528 58.6631 24.677 58.647 24.8742 58.6329C24.9828 58.6251 25.0833 58.6179 25.1606 58.6235C25.1936 58.6259 25.2264 58.6225 25.2599 58.619C25.2858 58.6164 25.3121 58.6136 25.3391 58.6135C25.5356 58.6128 25.6814 58.6455 25.8168 58.6759C25.8943 58.6933 25.9687 58.7099 26.0471 58.719C26.071 58.7218 26.0953 58.7241 26.119 58.7261C26.1535 58.7292 26.1864 58.7321 26.2146 58.7368C26.2789 58.7473 26.3222 58.7691 26.3694 58.793C26.3936 58.8052 26.4188 58.818 26.4486 58.83C26.4871 58.8457 26.5648 58.8513 26.646 58.8573C26.7033 58.8615 26.7624 58.8659 26.8111 58.874C26.8991 58.8887 26.9309 58.9183 26.9604 58.9457C26.9732 58.9577 26.986 58.9693 27.0024 58.979C27.0091 58.983 27.0224 58.9849 27.0408 58.9853C27.1023 59.0305 27.1651 59.0735 27.2266 59.1155C27.535 59.3257 27.8025 59.5076 27.6086 59.7793C27.572 59.8307 27.5793 59.8859 27.6086 59.9416C27.5316 60.1199 27.452 60.2984 27.3704 60.4766C27.1934 60.5119 27.0447 60.5551 26.9281 60.6062C26.709 60.7021 26.6622 60.8008 26.607 60.9173C26.5661 61.0034 26.5205 61.0993 26.3974 61.211C26.1905 61.3986 26.0155 61.5913 25.9246 61.8087C25.8341 62.0252 25.7673 62.273 25.7437 62.4483C25.7307 62.5439 25.5724 62.6443 25.425 62.7378C25.2177 62.8695 25.0319 62.9876 25.3013 63.0597C25.3874 63.0827 25.5369 63.1049 25.6821 63.1266C25.7855 63.142 25.8865 63.1572 25.9618 63.1721C25.9384 63.2118 25.9153 63.2516 25.8917 63.2913C25.7122 63.3618 25.5197 63.4715 25.7199 63.5775C25.6952 63.6185 25.6705 63.6595 25.6456 63.699C25.5933 63.7854 25.5404 63.8699 25.4872 63.9552C25.4695 63.983 25.4519 64.0111 25.4341 64.0393C25.4339 64.0395 25.4337 64.0398 25.4335 64.0401C25.3978 64.0968 25.3619 64.1539 25.3257 64.2101C25.3103 64.2342 25.2948 64.2583 25.2794 64.2823C25.2402 64.3435 25.2009 64.4051 25.1612 64.4657C25.1401 64.4977 25.1191 64.5301 25.0978 64.5625C25.0633 64.6151 25.0286 64.668 24.9937 64.7208C24.9372 64.806 24.88 64.8908 24.8224 64.9758C24.8129 64.9897 24.7831 65.0031 24.7378 65.0129C24.6924 65.0227 24.6355 65.0283 24.5769 65.0283C24.5183 65.0282 24.4613 65.0227 24.4161 65.0128C24.371 65.003 24.3419 64.9896 24.3326 64.9757C24.2766 64.8907 24.2212 64.8057 24.1663 64.7204C24.1323 64.6677 24.0981 64.6147 24.0645 64.5621C24.0438 64.5297 24.0235 64.4974 24.003 64.4653C23.9644 64.4048 23.9259 64.3431 23.8878 64.2819C23.8728 64.2578 23.8578 64.2337 23.8428 64.2097C23.8075 64.1533 23.7727 64.096 23.738 64.0392C23.7378 64.0388 23.7376 64.0385 23.7373 64.0381C23.7203 64.0101 23.7031 63.9822 23.6862 63.9546C23.6345 63.8693 23.5833 63.7847 23.5326 63.6983C23.5053 63.6537 23.4786 63.6072 23.4516 63.561C23.4366 63.5353 23.4215 63.5097 23.4065 63.4845C23.3986 63.4707 23.3907 63.4567 23.3828 63.4427C23.1954 63.1205 23.0152 62.8007 22.8423 62.4778C22.6695 62.1562 22.5037 61.834 22.3446 61.5128C22.1854 61.1907 22.0331 60.8693 21.887 60.5476C20.9592 58.5058 20.1984 56.4559 19.7223 54.4051C19.6539 54.1126 19.5923 53.8124 19.5371 53.5193C19.4818 53.223 19.4328 52.9328 19.3909 52.6357C19.3778 52.5455 19.3655 52.453 19.3537 52.3581Z" fill="black"/>
<path d="M37.0166 27.035C37.7852 26.9372 38.525 27.86 39.2963 27.8617C40.2539 27.864 41.2267 26.9823 42.1866 27.1465C43.1408 27.3107 44.0997 27.5466 45.0556 27.8374C46.0125 28.1282 46.968 28.4738 47.9254 28.8567C48.8808 29.2395 49.8382 29.6595 50.7943 30.1002C51.4437 30.3995 52.0939 30.7085 52.7432 31.0214C53.0283 31.1585 53.3125 31.2962 53.5974 31.4345C53.81 31.5378 54.0225 31.6412 54.2351 31.7446C54.2646 31.7592 54.2929 31.8183 54.3138 31.9121C54.3347 32.0061 54.3465 32.1265 54.3464 32.2509C54.3464 32.3753 54.3345 32.496 54.3136 32.5896C54.2927 32.683 54.2643 32.7413 54.2347 32.7553C54.0204 32.8555 53.806 32.9556 53.5917 33.0557C53.3536 33.1668 53.116 33.278 52.8779 33.3884C52.8405 32.8779 52.789 32.4907 52.6927 32.3197C52.6435 32.2325 52.5717 32.1962 52.5189 32.2911C52.4715 32.3763 52.4358 32.5283 52.4019 32.6731C52.3664 32.8246 52.3327 32.9684 52.2894 33.0192C52.2158 33.1054 52.1459 33.3221 52.0725 33.5498C52.0458 33.6327 52.0186 33.7172 51.9906 33.7972C51.7634 33.901 51.5361 34.004 51.309 34.1061C51.2212 34.0517 51.1405 34.0078 51.0721 34.0287C51.0107 34.0475 50.9544 34.1553 50.8985 34.2895C50.8633 34.3051 50.8281 34.3208 50.7929 34.3364C50.566 34.4369 50.3389 34.5357 50.1118 34.6337C49.9346 34.4975 49.7489 34.3652 49.5074 34.3071C49.4034 34.2821 49.3007 34.2085 49.202 34.1378C49.0562 34.0334 48.9191 33.9352 48.7988 34.0086C48.7184 34.0577 48.6339 33.9855 48.5496 33.9136C48.4365 33.8171 48.3236 33.7207 48.2212 33.9172C48.1569 34.0408 48.0978 34.191 48.0431 34.3303C47.956 34.552 47.8799 34.7459 47.811 34.7592C47.6815 34.7843 47.5694 34.9458 47.4706 35.0882C47.3518 35.2596 47.2521 35.4033 47.1646 35.2485C47.1513 35.225 47.1362 35.1938 47.1191 35.1583C47.029 34.9713 46.8849 34.6722 46.678 34.8366C46.6044 34.8952 46.5352 35.0473 46.4674 35.1967C46.3688 35.4141 46.273 35.6251 46.1705 35.5312C46.1551 35.5171 46.1391 35.4582 46.1246 35.4044C46.1061 35.336 46.0899 35.2763 46.0803 35.3283C46.0522 35.4806 46.0076 35.6489 45.9591 35.8321C45.9235 35.9667 45.8857 36.1094 45.8509 36.2592C45.5852 36.3439 45.3194 36.425 45.0535 36.5017C44.9317 36.5369 44.8099 36.5712 44.688 36.6047C44.6257 36.3754 44.5619 36.1688 44.4946 36.0125C44.4066 35.8082 44.2925 35.7456 44.1454 35.6646C44.0372 35.6049 43.9111 35.5352 43.7644 35.3922C43.4927 35.1277 43.2136 35.187 43.0348 35.3289C42.997 35.3589 42.959 35.3909 42.9183 35.4258C42.7641 35.5579 42.5716 35.7234 42.206 35.9059C41.8602 36.0785 41.5661 36.1232 41.3452 36.1569C41.2324 36.174 41.1387 36.1879 41.0669 36.2148C40.944 36.2608 40.7931 36.3018 40.6416 36.3427C40.4046 36.4068 40.166 36.471 40.031 36.5565C39.9829 36.587 39.9324 36.6247 39.878 36.665C39.727 36.7766 39.5446 36.9113 39.2933 36.9891C39.0294 37.0708 38.8659 37.0151 38.696 36.8941C38.627 36.8449 38.566 36.6503 38.5033 36.4493C38.4142 36.1641 38.3214 35.8664 38.1957 35.9552C38.1663 35.9759 38.135 36.0223 38.1023 36.071C38.0422 36.1603 37.9771 36.2572 37.9105 36.2148C37.8873 36.1999 37.8668 36.1471 37.8468 36.0953C37.8247 36.0384 37.8031 35.9827 37.7785 35.9796C37.687 35.968 37.5979 35.9812 37.5188 35.993C37.4167 36.0082 37.3311 36.0209 37.278 35.9747C37.1833 35.8923 37.0798 35.9661 36.9749 36.0411C36.8949 36.0984 36.814 36.1567 36.7356 36.1459C36.5119 36.1149 36.2041 36.2554 35.887 36.4895C35.767 36.578 35.6653 36.4571 35.5351 36.3019C35.454 36.2053 35.3619 36.095 35.2475 36.0143C35.1826 35.9686 35.1276 36.0763 35.0767 36.1758C35.0298 36.2674 34.9864 36.3522 34.9418 36.3043C34.9024 36.262 34.8775 36.0809 34.8539 35.9089C34.8276 35.7175 34.8028 35.5375 34.7614 35.5726C34.7394 35.5913 34.7126 35.6819 34.6808 35.7895C34.6682 35.832 34.6547 35.8771 34.6405 35.9217C34.6412 35.885 34.6414 35.8521 34.6414 35.8273C34.6414 35.6516 34.5992 35.559 34.5577 35.4684C34.5412 35.4322 34.5247 35.3965 34.5112 35.3557C34.4613 35.2056 34.367 35.1812 34.2949 35.1881C34.2644 35.191 34.2367 35.1366 34.2045 35.073C34.1758 35.0165 34.1435 34.9528 34.1024 34.9158C34.0789 34.8947 34.0609 34.8438 34.046 34.8013C34.0352 34.7705 34.026 34.7442 34.0175 34.7373C34.0101 34.7313 34.0041 34.7817 33.9974 34.8384C33.9926 34.8793 33.9874 34.9235 33.981 34.9524C33.9656 35.0213 33.9458 35.0421 33.932 35.02C33.9256 35.0097 33.9205 34.9901 33.9155 34.9706C33.9096 34.9479 33.9038 34.925 33.8958 34.917C33.859 34.8803 33.8232 34.9378 33.7861 34.9974C33.7452 35.063 33.7026 35.1311 33.6551 35.0803C33.6402 35.0643 33.6243 35.0276 33.6089 34.992C33.5928 34.9547 33.5771 34.9187 33.5638 34.9091C33.5098 34.8702 33.4589 34.9958 33.4122 35.1114C33.3811 35.1882 33.3517 35.2605 33.3245 35.2771C33.2746 35.3074 33.2478 35.4582 33.228 35.5695C33.2178 35.6272 33.2095 35.6746 33.2007 35.689C33.1927 35.6848 33.1845 35.6798 33.1765 35.6743C33.1692 35.6632 33.1617 35.6518 33.1546 35.6554C33.154 35.6557 33.1535 35.6564 33.153 35.6567C33.1083 35.6201 33.0645 35.5683 33.0209 35.5165C32.923 35.4004 32.8264 35.2854 32.7242 35.3502C32.7021 35.3642 32.6797 35.4265 32.6569 35.4897C32.6289 35.5672 32.6003 35.6465 32.5712 35.6408C32.5017 35.6272 32.4316 35.5245 32.3625 35.4233C32.2587 35.2711 32.1572 35.1225 32.0638 35.2856C32.033 35.3395 32.003 35.4292 31.9729 35.5196C31.9561 35.57 31.9392 35.6208 31.9222 35.6652C31.9258 35.5827 31.9277 35.5053 31.9295 35.4331C31.9332 35.2842 31.9364 35.1568 31.9527 35.0486C31.9914 34.7929 32.0352 34.4408 32.0303 34.1841C32.029 34.1144 32.0301 34.0368 32.0312 33.9586C32.0342 33.7626 32.0371 33.5624 32.0012 33.4718C31.9771 33.4108 31.9149 33.2707 31.8754 33.4207C31.8668 33.4533 31.8615 33.5181 31.8557 33.59C31.8452 33.7193 31.8327 33.8724 31.7953 33.9081C31.7889 33.9141 31.7821 33.9195 31.775 33.9245C31.7467 33.9446 31.7151 33.9668 31.7032 34.0708C31.6896 34.1905 31.6925 34.3276 31.6959 34.4875C31.7003 34.6957 31.7056 34.943 31.6762 35.2411C31.6704 35.3001 31.6593 35.3203 31.6509 35.3356C31.645 35.3464 31.6405 35.355 31.6401 35.3727C31.6396 35.3931 31.6414 35.4355 31.6438 35.4891C31.6523 35.6783 31.667 36.0088 31.6056 36.0228C31.589 36.0266 31.57 36.0109 31.553 35.9966C31.5279 35.9757 31.507 35.9584 31.5042 36.0125C31.5032 36.033 31.5024 36.0552 31.5018 36.0783C31.4818 36.0718 31.4618 36.0653 31.4419 36.0588C31.4162 35.9943 31.3802 35.9998 31.3353 36.007C31.3244 36.0087 31.3129 36.0103 31.301 36.0113C31.2615 35.9979 31.2221 35.9846 31.1827 35.971C31.1514 35.9437 31.1181 35.8992 31.083 35.8285C31.0126 35.6868 30.9513 35.4532 30.8915 35.2247C30.8663 35.1284 30.8413 35.0329 30.816 34.9457C30.8259 34.9349 30.8348 34.9223 30.8416 34.9048C30.8885 34.7855 30.9074 34.5507 30.9247 34.3346C30.9362 34.1908 30.9471 34.0552 30.9651 33.9678C30.9981 33.8075 30.9948 33.6202 30.9923 33.4816C30.9911 33.4097 30.9901 33.3508 30.9945 33.3159C30.998 33.2879 31.0062 33.2747 31.0147 33.261C31.022 33.2491 31.0296 33.2367 31.0345 33.2141C31.0934 32.9398 31.0757 32.7806 31.0499 32.5488C31.0357 32.421 31.0191 32.271 31.0114 32.0675C31.0049 31.852 31.0071 31.789 31.038 31.7031C31.0139 31.5967 30.9899 31.4903 30.9658 31.3839C30.9563 31.3908 30.9492 31.4573 30.9391 31.5679C30.9212 31.7653 30.8626 31.8375 30.8169 31.8938C30.7957 31.92 30.7773 31.9428 30.7669 31.9731C30.7116 32.134 30.7277 32.3582 30.7418 32.5555C30.7496 32.6641 30.7568 32.7646 30.7512 32.8419C30.7488 32.8749 30.7522 32.9077 30.7557 32.9412C30.7583 32.967 30.7611 32.9933 30.7612 33.0204C30.7619 33.2168 30.7292 33.3626 30.6988 33.498C30.6814 33.5756 30.6648 33.65 30.6557 33.7283C30.6529 33.7522 30.6506 33.7766 30.6486 33.8002C30.6455 33.8348 30.6426 33.8677 30.6379 33.8959C30.6273 33.9601 30.6056 34.0034 30.5817 34.0506C30.5695 34.0748 30.5567 34.1001 30.5446 34.1298C30.529 34.1684 30.5234 34.2461 30.5174 34.3273C30.5132 34.3846 30.5088 34.4437 30.5007 34.4924C30.486 34.5804 30.4564 34.6121 30.4289 34.6416C30.417 34.6545 30.4054 34.6672 30.3956 34.6837C30.3917 34.6904 30.3898 34.7037 30.3894 34.7221C30.3442 34.7835 30.3012 34.8464 30.2592 34.9079C30.049 35.2163 29.8671 35.4837 29.5954 35.2899C29.544 35.2532 29.4888 35.2606 29.4331 35.2899C29.2548 35.2128 29.0763 35.1333 28.8981 35.0517C28.8628 34.8747 28.8196 34.726 28.7685 34.6093C28.6726 34.3903 28.5738 34.3435 28.4574 34.2883C28.3712 34.2474 28.2754 34.2018 28.1637 34.0787C27.9761 33.8718 27.7834 33.6968 27.566 33.6059C27.3495 33.5153 27.1017 33.4486 26.9264 33.4249C26.8308 33.412 26.7304 33.2537 26.6368 33.1063C26.5052 32.899 26.3871 32.7132 26.315 32.9826C26.292 33.0687 26.2698 33.2182 26.2481 33.3634C26.2327 33.4668 26.2174 33.5678 26.2025 33.643C26.1629 33.6197 26.1231 33.5966 26.0834 33.573C26.0129 33.3934 25.9032 33.201 25.7972 33.4012C25.7562 33.3764 25.7152 33.3518 25.6757 33.3268C25.5893 33.2746 25.5048 33.2217 25.4195 33.1684C25.3917 33.1508 25.3636 33.1332 25.3354 33.1154C25.3352 33.1152 25.3349 33.115 25.3346 33.1148C25.2779 33.0791 25.2208 33.0432 25.1646 33.007C25.1405 32.9915 25.1164 32.9761 25.0924 32.9607C25.0312 32.9215 24.9696 32.8822 24.909 32.8425C24.877 32.8214 24.8446 32.8004 24.8122 32.7791C24.7596 32.7446 24.7066 32.7099 24.6539 32.6749C24.5687 32.6184 24.4839 32.5613 24.3988 32.5037C24.3849 32.4942 24.3716 32.4643 24.3618 32.419C24.352 32.3737 24.3464 32.3168 24.3464 32.2582C24.3465 32.1996 24.352 32.1425 24.3619 32.0973C24.3717 32.0523 24.3851 32.0231 24.399 32.0139C24.484 31.9579 24.569 31.9025 24.6543 31.8475C24.707 31.8136 24.76 31.7793 24.8126 31.7458C24.845 31.7251 24.8773 31.7048 24.9094 31.6843C24.9699 31.6457 25.0316 31.6071 25.0928 31.5691C25.1169 31.5541 25.141 31.5391 25.165 31.524C25.2214 31.4888 25.2787 31.454 25.3355 31.4192C25.3359 31.419 25.3362 31.4188 25.3366 31.4186C25.3646 31.4015 25.3925 31.3844 25.4201 31.3674C25.5054 31.3158 25.59 31.2645 25.6763 31.2139C25.721 31.1866 25.7675 31.1599 25.8137 31.1329C25.8394 31.1178 25.865 31.1027 25.8902 31.0878C25.904 31.0798 25.918 31.072 25.932 31.064C26.2541 30.8767 26.574 30.6965 26.8969 30.5236C27.2185 30.3507 27.5407 30.185 27.8619 30.0258C28.184 29.8667 28.5054 29.7144 28.8271 29.5683C30.8689 28.6405 32.9188 27.8797 34.9696 27.4036C35.2621 27.3352 35.5623 27.2736 35.8554 27.2184C36.1517 27.1631 36.4419 27.1141 36.739 27.0721C36.8292 27.059 36.9217 27.0468 37.0166 27.035Z" fill="black"/>
<circle cx="6.11435" cy="32.7955" r="3.3234" transform="rotate(8.2828 6.11435 32.7955)" fill="black"/>
<path d="M0.164471 34.9257C-0.242229 33.9528 0.217889 32.9073 0.343638 32.017C0.346378 31.9969 0.349064 31.9768 0.351704 31.9566C0.480527 30.8647 0.564392 29.4561 1.49626 28.5805C2.41017 27.7225 3.59711 27.2071 4.7796 27.1116C5.51766 27.0493 6.2503 27.1484 6.90308 27.3776C7.29647 27.5151 7.66886 27.6997 8.00574 27.923C8.90449 28.5157 9.5293 29.3797 9.81319 30.268C10.0088 30.8718 10.0541 31.4884 9.97085 32.0489C9.9347 32.295 9.87442 32.5301 9.79391 32.7505C9.73373 32.9147 9.66241 33.0716 9.58203 33.2178C9.57073 33.2382 9.53281 33.2542 9.47499 33.2612C9.41707 33.2682 9.34443 33.2658 9.27058 33.255C9.19669 33.2442 9.12622 33.226 9.07236 33.2052C9.01867 33.1844 8.98625 33.1628 8.98007 33.144C8.93617 33.0081 8.88276 32.8785 8.82118 32.7581C8.75289 32.624 8.67447 32.5004 8.58896 32.3883C8.88796 32.3194 9.1117 32.2473 9.19954 32.1643C9.24442 32.1223 9.25486 32.069 9.19121 32.0485C9.13407 32.03 9.03997 32.0305 8.95065 32.033C8.85719 32.0355 8.7689 32.0402 8.73271 32.0252C8.67116 31.9994 8.53517 32.0014 8.39401 32.0112C8.34262 32.0147 8.29042 32.0191 8.24077 32.0231C8.1454 31.9434 8.0463 31.8745 7.9455 31.8162C7.95622 31.7671 7.96076 31.7222 7.93422 31.7025C7.91039 31.6847 7.84206 31.6977 7.76205 31.7223C7.74625 31.7153 7.73042 31.7085 7.71458 31.7019C7.61257 31.6596 7.51072 31.6274 7.41057 31.6051C7.4266 31.5019 7.42947 31.3918 7.37637 31.3009C7.35361 31.2619 7.34797 31.201 7.33902 31.1416C7.32647 31.0541 7.30561 30.9693 7.23647 30.9783C7.19066 30.9846 7.18131 30.929 7.16795 30.8724C7.15118 30.7971 7.12533 30.7196 7.03301 30.8069C6.97527 30.8619 6.91571 30.9343 6.86317 31.003C6.77942 31.1122 6.71375 31.2118 6.6884 31.2112C6.64026 31.2098 6.57322 31.2906 6.52101 31.3647C6.45697 31.4536 6.4134 31.532 6.40792 31.4358C6.40703 31.4212 6.40642 31.4019 6.40551 31.38C6.40255 31.299 6.39285 31.1831 6.35368 31.1515C6.33733 31.1382 6.3164 31.1402 6.29186 31.1671C6.26251 31.1992 6.23089 31.2881 6.20482 31.3762C6.16606 31.5044 6.14047 31.6302 6.1153 31.5738C6.11145 31.5653 6.10734 31.53 6.10321 31.4977C6.09801 31.4567 6.09276 31.421 6.09052 31.4522C6.08392 31.5436 6.07472 31.6449 6.06874 31.7552C6.06429 31.8362 6.06158 31.9221 6.06161 32.0121C6.02206 32.0655 5.99165 32.1197 5.96859 32.1725C5.95806 32.1966 5.94898 32.2206 5.94133 32.244C5.89258 32.1152 5.84245 32.0012 5.79809 31.9175C5.73987 31.8083 5.70126 31.7828 5.64952 31.7527C5.61104 31.7308 5.56542 31.7062 5.48904 31.6502C5.3453 31.5474 5.28415 31.6322 5.29764 31.7298C5.30007 31.7506 5.30359 31.7722 5.30809 31.7955C5.32583 31.8832 5.35126 31.9914 5.37913 32.1224C5.40699 32.2452 5.40184 32.3006 5.39765 32.3446C5.39585 32.3668 5.39509 32.3848 5.4034 32.4031C5.41767 32.4343 5.42897 32.4666 5.44235 32.4972C5.46311 32.5452 5.48926 32.5892 5.53377 32.62C5.54959 32.631 5.56972 32.643 5.59153 32.6552C5.64759 32.6866 5.7166 32.7179 5.76094 32.7441C5.76437 32.7461 5.76766 32.7481 5.77078 32.7501C5.81667 32.7778 5.78328 32.7817 5.71036 32.7959C5.68079 32.8012 5.56408 32.8076 5.4438 32.8201C5.27306 32.8368 5.09581 32.8696 5.15135 32.8906C5.1643 32.8952 5.19261 32.8984 5.2223 32.9011C5.27688 32.9061 5.33581 32.908 5.3123 32.9226C5.30411 32.9278 5.27339 32.9363 5.24338 32.9451C5.21037 32.9548 5.17822 32.9649 5.17727 32.97C5.17371 32.9889 5.18522 33.0046 5.19574 33.0178C5.20932 33.0349 5.22104 33.0483 5.19747 33.0662C5.1555 33.0985 5.20477 33.1066 5.25382 33.1094C5.29143 33.112 5.32908 33.112 5.32854 33.1273C5.3268 33.1716 5.4314 33.1897 5.57316 33.1489C5.6265 33.1333 5.573 33.1835 5.51203 33.2572C5.47399 33.3028 5.43277 33.3574 5.41102 33.4063C5.39884 33.4341 5.45479 33.3996 5.5045 33.3654C5.55053 33.3341 5.59154 33.3034 5.57601 33.3286C5.56226 33.3508 5.48858 33.4308 5.41995 33.508C5.34343 33.5938 5.27332 33.6763 5.29551 33.6683C5.30726 33.664 5.34931 33.6288 5.39807 33.5859C5.41736 33.569 5.43765 33.5509 5.45771 33.5329C5.44289 33.5492 5.4297 33.5639 5.41975 33.575C5.34925 33.6533 5.31984 33.7016 5.29261 33.7499C5.2817 33.7692 5.27115 33.7884 5.2582 33.8095C5.21043 33.8871 5.22379 33.917 5.24335 33.9268C5.2516 33.931 5.23828 33.9619 5.22362 33.9985C5.21057 34.031 5.19647 34.0681 5.19476 34.0941C5.19376 34.109 5.18121 34.1375 5.17094 34.1614C5.1635 34.1787 5.15725 34.1935 5.1574 34.1987C5.15755 34.2031 5.17634 34.1793 5.19732 34.1524C5.21243 34.1331 5.22874 34.1121 5.24015 34.0989C5.26743 34.0673 5.27939 34.0603 5.27577 34.0738C5.27409 34.0801 5.26899 34.0908 5.26396 34.1015C5.25809 34.114 5.25221 34.1265 5.25183 34.132C5.25016 34.1571 5.27898 34.1346 5.30784 34.1103C5.33977 34.0837 5.37137 34.055 5.36872 34.0887C5.36792 34.0993 5.3613 34.1209 5.35511 34.142C5.34861 34.164 5.34263 34.1854 5.34372 34.1925C5.3484 34.2218 5.39919 34.1634 5.44328 34.108C5.47275 34.0713 5.49955 34.0362 5.51086 34.0306C5.5318 34.0206 5.57693 33.9418 5.60935 33.8832C5.62619 33.8528 5.6398 33.8278 5.64522 33.8208C5.64587 33.8239 5.64636 33.8274 5.64673 33.8311C5.64556 33.8379 5.6444 33.8449 5.64683 33.8436C5.64701 33.8435 5.64728 33.8432 5.64747 33.8431C5.64819 33.8674 5.64585 33.9002 5.64427 33.9331C5.64034 34.0069 5.64343 34.0818 5.68301 34.0542C5.6915 34.0482 5.70918 34.0147 5.7265 33.9804C5.7478 33.9384 5.76849 33.895 5.77417 33.9003C5.78762 33.9129 5.78714 33.9768 5.79034 34.0404C5.79411 34.1357 5.8084 34.2302 5.85421 34.1393C5.86911 34.1092 5.88714 34.0578 5.90417 34.0057C5.91368 33.9767 5.92294 33.9473 5.93136 33.9217C5.92258 33.9704 5.91461 34.0162 5.90714 34.0588C5.89173 34.1468 5.87854 34.2221 5.8626 34.2853C5.82536 34.4346 5.7702 34.6393 5.74388 34.791C5.73685 34.8323 5.72797 34.878 5.71893 34.924C5.69635 35.0394 5.6724 35.1572 5.6811 35.214C5.68649 35.2522 5.7064 35.3408 5.7409 35.255C5.74832 35.2363 5.75677 35.1982 5.76599 35.156C5.77041 35.1357 5.77501 35.1145 5.77977 35.0938C5.79288 35.0371 5.80703 34.985 5.82177 34.9711C5.82516 34.9679 5.82875 34.9651 5.8324 34.9626C5.84693 34.9523 5.86304 34.9408 5.87538 34.8795C5.88958 34.8088 5.89733 34.7269 5.90693 34.6314C5.91912 34.507 5.93548 34.3596 5.96398 34.1828C5.96957 34.1478 5.97401 34.1361 5.97735 34.1272C5.97969 34.121 5.98149 34.1159 5.9827 34.1054C5.98408 34.0932 5.98614 34.0679 5.98881 34.0358C5.99797 33.9226 6.01658 33.7252 6.02926 33.718C6.03276 33.7161 6.03569 33.7258 6.03842 33.7346C6.04243 33.7476 6.04602 33.7582 6.04895 33.7259C6.05007 33.7136 6.05119 33.7004 6.05232 33.6866C6.05585 33.6907 6.05941 33.6949 6.06301 33.699C6.06562 33.7379 6.07316 33.735 6.08219 33.7311C6.08439 33.7301 6.08669 33.7292 6.08906 33.7288C6.09658 33.737 6.10425 33.7451 6.11208 33.7533C6.11823 33.7698 6.12491 33.7965 6.13318 33.8388C6.14958 33.9236 6.16933 34.0632 6.1943 34.1991C6.20476 34.2564 6.21616 34.3131 6.22812 34.3647C6.22534 34.3714 6.22292 34.3792 6.22132 34.3897C6.21038 34.4622 6.2108 34.6032 6.20997 34.7331C6.2094 34.8195 6.20829 34.9009 6.20223 34.9537C6.19099 35.0503 6.19549 35.1626 6.19964 35.2457C6.20171 35.2888 6.20343 35.324 6.20178 35.3451C6.20045 35.362 6.1963 35.37 6.19198 35.3783C6.18821 35.3856 6.18428 35.3931 6.18195 35.4067C6.15313 35.572 6.16237 35.6673 6.18193 35.806C6.19249 35.8825 6.20574 35.9722 6.21462 36.0941C6.22293 36.2232 6.22297 36.2611 6.20142 36.3131C6.22069 36.3765 6.24091 36.4398 6.26206 36.5029C6.26923 36.4984 6.27321 36.4583 6.27784 36.3917C6.28626 36.2728 6.32591 36.2274 6.35615 36.1913C6.37014 36.1747 6.38208 36.16 6.38792 36.1413C6.41866 36.0418 6.39418 35.9088 6.37546 35.7916C6.36496 35.7271 6.35573 35.6674 6.35516 35.6209C6.3549 35.601 6.35123 35.5816 6.34758 35.5618C6.34476 35.5464 6.3419 35.5308 6.34052 35.5147C6.33063 35.3972 6.34118 35.3086 6.34873 35.2262C6.35314 35.1791 6.35674 35.1338 6.35621 35.0866C6.35605 35.0722 6.35557 35.0576 6.35505 35.0434C6.35429 35.0226 6.35354 35.0028 6.35385 34.9858C6.35456 34.9469 6.36142 34.92 6.36847 34.8906C6.37209 34.8756 6.37575 34.8598 6.37863 34.8415C6.38237 34.8177 6.37858 34.7712 6.3745 34.7226C6.37161 34.6882 6.36859 34.6529 6.36768 34.6235C6.36607 34.5704 6.37413 34.55 6.38134 34.531C6.38449 34.5228 6.38742 34.5145 6.38934 34.5042C6.39012 34.5001 6.38952 34.492 6.38791 34.4812C6.39786 34.4422 6.40585 34.4025 6.41259 34.3636C6.44819 34.1679 6.44369 34.0038 6.55175 34.0904C6.57271 34.1065 6.58661 34.0969 6.59527 34.0748C6.65924 34.1 6.72777 34.1221 6.80046 34.1399C6.85886 34.2293 6.91386 34.3012 6.9642 34.3534C7.05907 34.4513 7.10935 34.4546 7.16746 34.457C7.21082 34.4585 7.25877 34.4595 7.34173 34.4906C7.48119 34.5428 7.62145 34.5652 7.73816 34.5309C7.85436 34.4974 7.97134 34.4293 8.0399 34.3672C8.07713 34.334 8.18418 34.3508 8.28672 34.3598C8.43036 34.3735 8.56521 34.3705 8.45013 34.2494C8.41332 34.2108 8.34342 34.1532 8.27471 34.0984C8.2258 34.0594 8.17769 34.0218 8.14255 33.9925C8.16453 33.9829 8.18638 33.9727 8.20843 33.9622C8.3193 33.9848 8.45105 33.9829 8.36728 33.8797C8.38992 33.8668 8.41239 33.8535 8.43468 33.8405C8.4821 33.8114 8.52903 33.7814 8.5758 33.7491C8.59119 33.7386 8.60661 33.7277 8.62203 33.7165C8.62219 33.7164 8.62236 33.7163 8.62252 33.7162C8.65354 33.6938 8.68443 33.6704 8.71505 33.6465C8.72813 33.6362 8.74116 33.6258 8.75413 33.6152C8.78703 33.5883 8.81965 33.5603 8.85198 33.5316C8.86914 33.5165 8.8862 33.5006 8.90321 33.4849C8.93085 33.4592 8.95835 33.4324 8.98558 33.4049C9.02966 33.3602 9.07287 33.3148 9.11544 33.2663C9.12246 33.2584 9.14147 33.2527 9.16929 33.2503C9.19715 33.248 9.23144 33.2493 9.26624 33.2544C9.30105 33.2594 9.33436 33.2681 9.36019 33.2788C9.38592 33.2895 9.40181 33.3014 9.4058 33.3119C9.42975 33.3761 9.45177 33.4405 9.47125 33.5077C9.48334 33.5491 9.49483 33.5911 9.50523 33.6331C9.51166 33.6589 9.51749 33.6852 9.52327 33.7113C9.53404 33.7606 9.5436 33.8111 9.55178 33.8619C9.55502 33.882 9.55809 33.9021 9.56099 33.9223C9.5678 33.9696 9.57331 34.0177 9.57776 34.0662C9.57778 34.0665 9.57781 34.0668 9.57783 34.0671C9.58 34.091 9.58196 34.1149 9.5837 34.1387C9.58868 34.2119 9.59138 34.2853 9.59074 34.3608C9.59104 34.4001 9.58985 34.4406 9.58806 34.4814C9.58707 34.5041 9.58593 34.5268 9.58467 34.5492C9.58387 34.5614 9.58289 34.5737 9.58185 34.5861C9.5608 34.8718 9.50249 35.162 9.40355 35.4495C9.30532 35.7361 9.16775 36.0184 8.99396 36.2854C8.81967 36.553 8.60882 36.8055 8.3647 37.0345C7.60788 37.7531 6.50013 38.2352 5.31631 38.2774C4.0977 38.3337 2.77075 37.9045 1.74415 37.0485C1.4546 36.8099 1.18177 36.5316 0.943816 36.2332C0.70352 35.9315 0.495851 35.6098 0.319074 35.2592C0.26529 35.153 0.213545 35.0416 0.164471 34.9257Z" fill="black"/>
</svg>
