<svg width="44" height="66" viewBox="0 0 44 66" fill="none" xmlns="http://www.w3.org/2000/svg">
<path d="M0.229847 35.0546C-0.192082 33.9839 0.0686096 32.8452 0.212215 31.8058C0.215351 31.7827 0.218503 31.7596 0.221677 31.7364C0.384773 30.4645 0.688717 28.9994 1.68251 28.0104C2.66665 27.0268 3.96105 26.3864 5.29257 26.1961C6.12369 26.0747 6.96585 26.1263 7.74573 26.3295C8.21559 26.4514 8.6681 26.6278 9.08838 26.8525C10.2077 27.4481 11.0805 28.3878 11.5837 29.441C11.9281 30.1562 12.1079 30.9242 12.1242 31.6697C12.1317 31.997 12.1083 32.3195 12.0564 32.6325C12.0177 32.8655 11.9632 33.0947 11.8946 33.3149C11.885 33.3456 11.8575 33.3727 11.8173 33.3895C11.777 33.4063 11.7275 33.4115 11.6783 33.4043C11.629 33.397 11.5831 33.378 11.5489 33.352C11.5148 33.326 11.4953 33.2952 11.4933 33.2655C11.4792 33.0512 11.4505 32.8391 11.4079 32.6342C11.3607 32.4059 11.2962 32.185 11.2168 31.9733C11.4125 31.9058 11.5568 31.8281 11.6042 31.7177C11.6285 31.6616 11.6263 31.5852 11.5765 31.5416C11.5319 31.5024 11.4639 31.4827 11.3992 31.4652C11.3315 31.4468 11.2674 31.4311 11.2361 31.3968C11.1829 31.3386 11.0798 31.301 10.9718 31.267C10.9324 31.2546 10.8923 31.2426 10.8536 31.23C10.7446 31.0523 10.6242 30.8852 10.4944 30.7295C10.4774 30.6517 10.4569 30.5809 10.4186 30.5336C10.3842 30.4911 10.3212 30.472 10.25 30.4611C10.2283 30.4392 10.2064 30.4176 10.1842 30.3963C10.0414 30.2588 9.89104 30.1334 9.73478 30.0209C9.67553 29.876 9.60077 29.7256 9.45812 29.5738C9.39661 29.5086 9.34592 29.4309 9.29369 29.3569C9.21713 29.2479 9.13662 29.1469 9.03085 29.1161C8.96038 29.0955 8.91173 29.0337 8.85958 28.9723C8.79067 28.8904 8.71428 28.8091 8.59869 28.8424C8.52617 28.8634 8.45476 28.8979 8.39023 28.9314C8.28765 28.9848 8.20233 29.0353 8.14752 29.0212C8.0447 28.9949 7.93707 29.0293 7.84705 29.0632C7.73748 29.1036 7.65208 29.1426 7.59841 29.0677C7.59023 29.0564 7.58113 29.0417 7.57071 29.0251C7.53248 28.9638 7.47499 28.8767 7.37947 28.8455C7.33912 28.8323 7.29266 28.8294 7.24065 28.8433C7.17865 28.8601 7.11704 28.9159 7.06029 28.972C6.97728 29.0537 6.90403 29.1355 6.8276 29.0976C6.81612 29.0919 6.80408 29.0684 6.79286 29.0469C6.77863 29.0196 6.7656 28.9959 6.75852 29.0168C6.73769 29.078 6.70548 29.1461 6.6733 29.2207C6.64957 29.2756 6.62601 29.334 6.60562 29.3953C6.42466 29.4406 6.25032 29.4996 6.08406 29.5703C6.00801 29.6026 5.93324 29.6376 5.86051 29.6748C5.79332 29.5999 5.72468 29.5359 5.65826 29.4935C5.57118 29.4383 5.48338 29.4451 5.37054 29.4602C5.28736 29.4714 5.1906 29.487 5.06465 29.4909C4.82956 29.4981 4.65443 29.6472 4.58095 29.776C4.56506 29.8033 4.54996 29.8315 4.53448 29.8618C4.47695 29.9774 4.40565 30.12 4.27877 30.3633C4.16058 30.5936 4.0576 30.7712 3.98605 30.9093C3.94963 30.9798 3.92199 31.039 3.90721 31.0879C3.882 31.1714 3.84968 31.2716 3.82307 31.3728C3.78069 31.5312 3.75394 31.6927 3.76166 31.7889C3.7643 31.823 3.76979 31.8594 3.7763 31.8983C3.79326 31.9984 3.81737 32.1142 3.82784 32.2614C3.82866 32.2729 3.82941 32.2845 3.83008 32.2963C3.84079 32.4672 3.81488 32.5655 3.76483 32.674C3.74475 32.7176 3.66739 32.7576 3.58832 32.8026C3.47618 32.8655 3.36076 32.9416 3.4047 33.0285C3.41497 33.0486 3.43574 33.0688 3.45774 33.0896C3.49817 33.128 3.54251 33.1668 3.53286 33.2148C3.5295 33.2316 3.51098 33.2491 3.49294 33.2666C3.4731 33.2857 3.45388 33.3049 3.45585 33.3223C3.46321 33.3873 3.48199 33.4487 3.49992 33.5023C3.52299 33.5714 3.5446 33.6286 3.5377 33.6701C3.52541 33.7444 3.57722 33.8074 3.63103 33.8665C3.67227 33.9122 3.71482 33.956 3.73237 34.0081C3.78205 34.1579 3.93256 34.331 4.1289 34.4583C4.20293 34.5063 4.20143 34.5883 4.20687 34.6979C4.21026 34.7658 4.21628 34.8442 4.24544 34.9273C4.2621 34.9745 4.32093 34.9752 4.37426 34.9742C4.42357 34.9733 4.46844 34.9712 4.47633 35.0065C4.48329 35.0377 4.44448 35.1012 4.40856 35.1623C4.36851 35.2302 4.33213 35.2953 4.36449 35.3065C4.38167 35.3124 4.42113 35.2997 4.46739 35.2836C4.48568 35.2772 4.50501 35.2704 4.52456 35.264C4.51437 35.2746 4.5055 35.2843 4.49886 35.2917C4.45183 35.3439 4.45056 35.3925 4.4507 35.4405C4.45073 35.4597 4.45101 35.4788 4.44839 35.4979C4.43869 35.5686 4.49009 35.6234 4.53649 35.6556C4.55607 35.6692 4.56007 35.6996 4.56538 35.7353C4.57007 35.7669 4.57583 35.8027 4.59426 35.834C4.60475 35.8518 4.60502 35.8768 4.60533 35.8977C4.60554 35.9129 4.60579 35.9258 4.61 35.932C4.61366 35.9374 4.62906 35.9235 4.64628 35.9078C4.65869 35.8965 4.6721 35.8842 4.6828 35.8775C4.70841 35.8614 4.72596 35.8631 4.7303 35.8766C4.73229 35.8828 4.73136 35.8915 4.73046 35.9003C4.7294 35.9104 4.72832 35.9207 4.73199 35.9268C4.74888 35.9553 4.78576 35.9514 4.82349 35.9465C4.86516 35.9414 4.90742 35.9349 4.92963 35.9712C4.93663 35.9827 4.94028 36.0017 4.94397 36.0201C4.94783 36.0394 4.95183 36.0581 4.95937 36.0667C4.9902 36.1015 5.0501 36.0763 5.1038 36.0518C5.13959 36.0356 5.17279 36.0198 5.19463 36.0231C5.23487 36.0292 5.27901 35.9831 5.31108 35.9489C5.32771 35.9312 5.34121 35.9165 5.34947 35.914C5.35416 35.918 5.35882 35.9223 5.3633 35.9267C5.36641 35.9329 5.36966 35.9394 5.37506 35.9402C5.37547 35.9403 5.37594 35.9402 5.37635 35.9402C5.4006 35.967 5.42277 35.999 5.44509 36.0305C5.49507 36.1013 5.55032 36.1713 5.63289 36.1719C5.6507 36.1721 5.67491 36.1539 5.69914 36.1351C5.72886 36.1121 5.75866 36.0883 5.77872 36.0968C5.82628 36.1169 5.86533 36.1705 5.90661 36.2229C5.96769 36.3015 6.03512 36.3773 6.11914 36.3269C6.14664 36.3103 6.17586 36.2791 6.20454 36.2474C6.22053 36.2297 6.23642 36.2117 6.25185 36.1962C6.24392 36.2284 6.2375 36.2587 6.23149 36.287C6.21908 36.3453 6.20845 36.3952 6.18841 36.4357C6.14132 36.5316 6.07951 36.6634 6.06474 36.7651C6.06081 36.7927 6.05428 36.823 6.04758 36.8536C6.03086 36.9302 6.01316 37.0085 6.03953 37.05C6.05698 37.078 6.10602 37.1431 6.15194 37.0893C6.16187 37.0776 6.17054 37.0527 6.18008 37.025C6.18464 37.0118 6.18941 36.9979 6.19462 36.9844C6.20897 36.9474 6.22655 36.9138 6.25232 36.9067C6.25824 36.9051 6.26461 36.9038 6.27115 36.9026C6.29723 36.8979 6.32629 36.8924 6.34137 36.8523C6.35872 36.8061 6.36221 36.7513 6.36664 36.6874C6.37222 36.6042 6.38008 36.5056 6.41606 36.3896C6.42316 36.3667 6.43254 36.3596 6.4396 36.3542C6.44458 36.3503 6.44839 36.3472 6.44945 36.3402C6.45067 36.3322 6.45096 36.3151 6.45135 36.2936C6.45256 36.2176 6.45648 36.0853 6.5004 36.084C6.51236 36.0836 6.52544 36.0911 6.53719 36.0978C6.5545 36.1077 6.56903 36.1157 6.57261 36.0942C6.57396 36.0861 6.57514 36.0773 6.57626 36.0681C6.59024 36.0717 6.60425 36.0753 6.61827 36.0787C6.63495 36.1056 6.6607 36.1048 6.69301 36.1032C6.70085 36.1028 6.70911 36.1025 6.71766 36.1024C6.74572 36.1086 6.77384 36.1144 6.80202 36.1201C6.82434 36.1312 6.84803 36.1489 6.87417 36.1768C6.92626 36.2327 6.97509 36.3245 7.02647 36.4132C7.04806 36.4506 7.07033 36.4875 7.09304 36.5209C7.08544 36.5257 7.07863 36.5312 7.07356 36.5386C7.03883 36.5886 7.02828 36.6831 7.01764 36.7702C7.01057 36.8281 7.0035 36.8827 6.98898 36.9183C6.96229 36.9834 6.96721 37.0582 6.97139 37.1135C6.9735 37.1422 6.97521 37.1657 6.97155 37.1798C6.9686 37.1911 6.96107 37.1966 6.95327 37.2023C6.94647 37.2073 6.93942 37.2124 6.93503 37.2216C6.88138 37.3325 6.89789 37.3958 6.92599 37.488C6.94134 37.5388 6.95986 37.5983 6.97023 37.6794C6.97959 37.7654 6.97834 37.7907 6.94594 37.8259C6.97284 37.8678 7.00035 37.9096 7.02847 37.9511C7.03874 37.9479 7.04556 37.921 7.0545 37.8763C7.07057 37.7966 7.131 37.7647 7.17787 37.7387C7.19953 37.7267 7.21821 37.716 7.22815 37.7031C7.2808 37.6341 7.25512 37.5461 7.23442 37.4688C7.22288 37.4262 7.21255 37.3867 7.21543 37.3554C7.21664 37.3421 7.21222 37.3293 7.20779 37.3162C7.20436 37.3061 7.20087 37.2958 7.19988 37.2851C7.19287 37.2068 7.21893 37.1461 7.24156 37.0896C7.25458 37.0572 7.26658 37.026 7.27153 36.994C7.27304 36.9842 7.274 36.9743 7.27485 36.9647C7.27611 36.9507 7.27731 36.9373 7.28022 36.9257C7.28683 36.8991 7.30407 36.8798 7.3226 36.8585C7.3321 36.8476 7.34194 36.8362 7.35086 36.8231C7.3624 36.8061 7.36313 36.7746 7.36385 36.7417C7.36436 36.7185 7.36489 36.6946 7.36896 36.6744C7.37635 36.6378 7.39881 36.6218 7.41942 36.6067C7.4284 36.6001 7.43699 36.5936 7.44392 36.5859C7.44673 36.5827 7.44743 36.5772 7.4466 36.5699C7.47926 36.5397 7.50935 36.5088 7.53786 36.4784C7.68183 36.3244 7.7824 36.1902 8.00469 36.1976C8.04705 36.1987 8.0865 36.1815 8.12276 36.1552C8.2627 36.1352 8.40358 36.1076 8.54459 36.072C8.60184 36.1222 8.66079 36.1585 8.7205 36.179C8.83285 36.2173 8.91612 36.1907 9.01226 36.1559C9.08356 36.1299 9.16205 36.0995 9.27013 36.0821C9.45167 36.0527 9.63277 35.9968 9.80331 35.8875C9.97345 35.7792 10.1492 35.6271 10.2593 35.5063C10.3194 35.4411 10.4265 35.4056 10.5267 35.3675C10.6675 35.3144 10.7948 35.2546 10.7403 35.1381C10.7229 35.101 10.6831 35.0515 10.6438 35.0042C10.6158 34.9704 10.5883 34.9377 10.5693 34.9108C10.5957 34.8844 10.6218 34.8575 10.6478 34.8303C10.7419 34.8093 10.8596 34.7518 10.8305 34.6271C10.856 34.597 10.881 34.5665 10.9053 34.5368C10.9576 34.4714 11.0079 34.4059 11.0569 34.338C11.0731 34.3158 11.0891 34.2932 11.105 34.2703C11.1052 34.2701 11.1054 34.2699 11.1055 34.2696C11.1376 34.2236 11.169 34.1767 11.1996 34.1295C11.2127 34.1093 11.2256 34.0889 11.2384 34.0684C11.2709 34.0164 11.3025 33.9634 11.3332 33.91C11.3495 33.8819 11.3656 33.8528 11.3814 33.8241C11.4071 33.7773 11.4323 33.7294 11.4568 33.6809C11.4966 33.602 11.5342 33.5238 11.5703 33.4422C11.5762 33.4289 11.5901 33.4173 11.6095 33.4101C11.6289 33.4028 11.6522 33.4005 11.6754 33.4038C11.6986 33.4072 11.7204 33.4163 11.7367 33.4291C11.753 33.442 11.7625 33.4576 11.7639 33.4726C11.7721 33.5647 11.7779 33.6557 11.7806 33.7496C11.7823 33.8074 11.7831 33.8654 11.7827 33.9231C11.7825 33.9585 11.7816 33.9946 11.7807 34.03C11.7787 34.0971 11.7752 34.1652 11.7701 34.2331C11.7681 34.26 11.7659 34.2868 11.7635 34.3136C11.7578 34.3765 11.7506 34.44 11.7422 34.5035C11.7421 34.5039 11.7421 34.5043 11.742 34.5046C11.7378 34.5359 11.7334 34.5672 11.7288 34.5981C11.7142 34.6932 11.697 34.7877 11.6759 34.884C11.6654 34.934 11.6532 34.9854 11.6402 35.0369C11.633 35.0655 11.6256 35.0941 11.6181 35.1222C11.6139 35.1374 11.6096 35.1529 11.6051 35.1684C11.5049 35.5258 11.3635 35.8763 11.1793 36.2144C10.9959 36.5514 10.7712 36.8737 10.5108 37.171C10.2497 37.4688 9.95251 37.7419 9.62409 37.9826C8.60257 38.7382 7.25673 39.1651 5.88565 39.1068C4.47202 39.0587 3.0175 38.4825 1.91041 37.4748C1.59837 37.1935 1.30605 36.8712 1.05283 36.5299C0.796993 36.1848 0.577752 35.8208 0.391963 35.4277C0.335523 35.3085 0.281232 35.1839 0.229847 35.0546Z" fill="black"/>
<path d="M8.2317 17.2991C8.1384 16.5299 9.06551 15.7956 9.07179 15.0243C9.07967 14.0667 8.20361 13.0887 8.37342 12.1299C8.54324 11.1766 8.7847 10.2191 9.08108 9.26495C9.37748 8.30975 9.7287 7.35628 10.1171 6.40113C10.5056 5.44802 10.9311 4.49306 11.3774 3.53954C11.6805 2.89187 11.9934 2.24355 12.31 1.59604C12.4488 1.31178 12.5882 1.02838 12.7281 0.744283C12.8327 0.532336 12.9373 0.320388 13.0419 0.108444C13.0566 0.0789814 13.1159 0.0510148 13.2099 0.0306898C13.304 0.0103695 13.4244 -0.000700793 13.5488 5.49452e-05C13.6733 0.000820639 13.7938 0.0133893 13.8874 0.0348792C13.9807 0.056358 14.0388 0.0850663 14.0526 0.114696C14.1515 0.329622 14.2504 0.544553 14.3492 0.759483C14.4589 0.998211 14.5688 1.23652 14.6777 1.47518C14.167 1.50967 13.7796 1.55884 13.608 1.65421C13.5205 1.70288 13.4838 1.77439 13.5784 1.82776C13.6633 1.87568 13.8151 1.91229 13.9597 1.94706C14.1109 1.98343 14.2545 2.01794 14.3051 2.06158C14.3909 2.13563 14.6072 2.2068 14.8345 2.28154C14.9172 2.30874 15.0015 2.33644 15.0813 2.36493C15.1838 2.59273 15.2855 2.82055 15.3863 3.04833C15.3314 3.13576 15.287 3.2162 15.3075 3.28476C15.3259 3.34627 15.4334 3.40313 15.5672 3.45989C15.5827 3.49515 15.5981 3.53041 15.6135 3.56568C15.7127 3.79325 15.8102 4.0209 15.9069 4.24855C15.7696 4.42494 15.6363 4.60988 15.5768 4.85099C15.5511 4.95491 15.4769 5.05715 15.4056 5.15544C15.3004 5.30062 15.2014 5.43718 15.2741 5.55785C15.3227 5.63851 15.25 5.72263 15.1776 5.80654C15.0804 5.91908 14.9835 6.03141 15.1793 6.13489C15.3025 6.19995 15.4524 6.25994 15.5914 6.31548C15.8125 6.40387 16.006 6.48109 16.0189 6.55007C16.0432 6.67966 16.2041 6.79271 16.3459 6.89234C16.5166 7.01217 16.6597 7.11266 16.5044 7.19928C16.4808 7.21241 16.4495 7.22741 16.4139 7.2443C16.2264 7.33331 15.9265 7.47565 16.0897 7.68347C16.1478 7.75746 16.2996 7.82752 16.4485 7.89614C16.6653 7.99603 16.8758 8.09304 16.7813 8.19506C16.7671 8.2103 16.7081 8.22596 16.6543 8.24021C16.5858 8.25833 16.526 8.27417 16.5778 8.28405C16.73 8.31305 16.8981 8.35866 17.081 8.40819C17.2154 8.44458 17.3579 8.48316 17.5074 8.51883C17.5905 8.78507 17.6701 9.05133 17.7453 9.31765C17.7798 9.43966 17.8134 9.5617 17.8461 9.68377C17.6164 9.74476 17.4095 9.80731 17.2528 9.87371C17.048 9.96052 16.9848 10.0742 16.9028 10.2208C16.8426 10.3287 16.7721 10.4544 16.6283 10.6003C16.3621 10.8704 16.4198 11.1498 16.5607 11.3295C16.5904 11.3675 16.6222 11.4057 16.6568 11.4466C16.7881 11.6016 16.9524 11.795 17.1328 12.1616C17.3034 12.5084 17.3464 12.8028 17.3788 13.0239C17.3953 13.1368 17.4085 13.2306 17.435 13.3026C17.4803 13.4257 17.5204 13.5768 17.5605 13.7286C17.6232 13.966 17.6859 14.2049 17.7707 14.3405C17.8009 14.3887 17.8383 14.4394 17.8783 14.4941C17.989 14.6457 18.1226 14.8289 18.199 15.0807C18.2791 15.345 18.2225 15.5082 18.1005 15.6774C18.0509 15.7461 17.856 15.8059 17.6546 15.8675C17.3688 15.9548 17.0706 16.046 17.1587 16.1722C17.1793 16.2016 17.2254 16.2332 17.2739 16.2662C17.3629 16.3269 17.4594 16.3925 17.4166 16.4589C17.4016 16.482 17.3487 16.5022 17.2968 16.5219C17.2397 16.5437 17.1839 16.565 17.1806 16.5895C17.1685 16.6809 17.1811 16.7701 17.1925 16.8493C17.2071 16.9515 17.2193 17.0371 17.1728 17.09C17.0899 17.1842 17.163 17.2881 17.2374 17.3934C17.2943 17.4738 17.3521 17.5551 17.3408 17.6333C17.3085 17.8569 17.4472 18.1655 17.6795 18.484C17.7673 18.6045 17.6458 18.7054 17.4898 18.8348C17.3928 18.9153 17.2819 19.0067 17.2005 19.1207C17.1544 19.1853 17.2618 19.2409 17.361 19.2924C17.4524 19.3398 17.5369 19.3838 17.4888 19.4281C17.4462 19.4672 17.265 19.491 17.0928 19.5136C16.9013 19.5388 16.7211 19.5625 16.756 19.6041C16.7746 19.6263 16.865 19.6536 16.9724 19.6861C17.0149 19.6989 17.0599 19.7127 17.1044 19.7271C17.0677 19.7262 17.0348 19.7258 17.01 19.7257C16.8343 19.7246 16.7415 19.7663 16.6506 19.8072C16.6143 19.8236 16.5785 19.8398 16.5376 19.8531C16.3872 19.9021 16.3623 19.9963 16.3688 20.0685C16.3715 20.099 16.3169 20.1263 16.2531 20.1582C16.1965 20.1865 16.1326 20.2184 16.0954 20.2594C16.0741 20.2827 16.0231 20.3004 15.9805 20.3151C15.9497 20.3257 15.9233 20.3347 15.9164 20.3432C15.9104 20.3506 15.9607 20.3568 16.0174 20.3638C16.0582 20.3689 16.1024 20.3744 16.1312 20.381C16.2001 20.3968 16.2208 20.4166 16.1986 20.4304C16.1883 20.4367 16.1686 20.4416 16.1491 20.4465C16.1263 20.4523 16.1034 20.4579 16.0954 20.4659C16.0585 20.5025 16.1157 20.5386 16.1752 20.5761C16.2405 20.6174 16.3084 20.6604 16.2572 20.7075C16.2411 20.7224 16.2043 20.7381 16.1686 20.7533C16.1313 20.7692 16.0952 20.7846 16.0855 20.7979C16.0463 20.8517 16.1716 20.9032 16.2869 20.9507C16.3636 20.9822 16.4357 21.012 16.4521 21.0393C16.4821 21.0894 16.6328 21.1171 16.744 21.1375C16.8016 21.1481 16.849 21.1567 16.8632 21.1655C16.859 21.1735 16.854 21.1817 16.8485 21.1896C16.8373 21.1968 16.8258 21.2043 16.8295 21.2115C16.8297 21.212 16.8304 21.2125 16.8307 21.2131C16.7938 21.2575 16.7417 21.301 16.6898 21.3443C16.573 21.4415 16.4575 21.5375 16.5217 21.6401C16.5355 21.6622 16.5977 21.685 16.6608 21.7082C16.7382 21.7366 16.8173 21.7657 16.8114 21.7948C16.7974 21.8641 16.6943 21.9337 16.5927 22.0021C16.4399 22.1051 16.2907 22.2057 16.4533 22.3C16.5069 22.3311 16.5965 22.3617 16.6867 22.3924C16.737 22.4094 16.7877 22.4266 16.832 22.4439C16.7495 22.4398 16.6721 22.4374 16.5999 22.4352C16.4511 22.4307 16.3237 22.4267 16.2156 22.4097C15.9601 22.3696 15.6083 22.3237 15.3515 22.3271C15.2818 22.328 15.2043 22.3265 15.1261 22.3249C14.9301 22.3208 14.7299 22.3166 14.6391 22.352C14.578 22.3758 14.4375 22.4372 14.5872 22.4776C14.6198 22.4864 14.6846 22.492 14.7565 22.4983C14.8857 22.5095 15.0388 22.5229 15.0742 22.5605C15.0801 22.5669 15.0855 22.5738 15.0905 22.5809C15.1104 22.6093 15.1324 22.6411 15.2363 22.6535C15.3559 22.6678 15.4931 22.6657 15.653 22.6633C15.8612 22.6601 16.1086 22.6563 16.4065 22.6873C16.4654 22.6935 16.4855 22.7047 16.5008 22.7132C16.5116 22.7192 16.5202 22.7237 16.5379 22.7243C16.5583 22.7249 16.6007 22.7233 16.6543 22.7212C16.8435 22.7138 17.1741 22.7011 17.1878 22.7625C17.1914 22.7792 17.1756 22.7981 17.1613 22.815C17.1402 22.84 17.1228 22.8607 17.1768 22.8639C17.1973 22.865 17.2196 22.8659 17.2426 22.8666C17.236 22.8866 17.2294 22.9065 17.2228 22.9265C17.1581 22.9518 17.1635 22.9878 17.1704 23.0327C17.172 23.0437 17.1736 23.0552 17.1744 23.0671C17.1609 23.1065 17.1474 23.1458 17.1335 23.1852C17.106 23.2163 17.0613 23.2493 16.9904 23.284C16.8483 23.3536 16.6143 23.4135 16.3855 23.472C16.2891 23.4966 16.1934 23.521 16.106 23.5459C16.0953 23.5359 16.0827 23.5269 16.0653 23.52C15.9463 23.4724 15.7116 23.4521 15.4956 23.4336C15.3519 23.4212 15.2164 23.4095 15.129 23.391C14.969 23.3571 14.7816 23.3593 14.643 23.3609C14.5711 23.3618 14.5122 23.3624 14.4773 23.3578C14.4493 23.3541 14.4362 23.3459 14.4226 23.3373C14.4107 23.3299 14.3983 23.3223 14.3758 23.3173C14.1018 23.2567 13.9425 23.2735 13.7106 23.2979C13.5827 23.3114 13.4326 23.3271 13.229 23.3336C13.0135 23.3389 12.9505 23.3363 12.8649 23.3049C12.7583 23.3283 12.6517 23.3518 12.5452 23.3752C12.552 23.3847 12.6185 23.3923 12.729 23.403C12.9263 23.4221 12.9981 23.481 13.0543 23.5271C13.0802 23.5484 13.103 23.567 13.1332 23.5776C13.2938 23.6338 13.5181 23.6191 13.7155 23.606C13.8241 23.5989 13.9246 23.5923 14.0019 23.5983C14.0349 23.6009 14.0677 23.5977 14.1012 23.5944C14.1271 23.5919 14.1534 23.5894 14.1804 23.5894C14.3769 23.5898 14.5225 23.6234 14.6577 23.6546C14.7352 23.6724 14.8095 23.6894 14.8878 23.6991C14.9116 23.702 14.936 23.7044 14.9596 23.7066C14.9941 23.7098 15.027 23.713 15.0552 23.7178C15.1194 23.7287 15.1626 23.7507 15.2096 23.7749C15.2338 23.7873 15.259 23.8002 15.2886 23.8124C15.3271 23.8283 15.4047 23.8344 15.4859 23.8408C15.5432 23.8454 15.6023 23.8501 15.6509 23.8585C15.7388 23.8737 15.7704 23.9035 15.7997 23.9311C15.8125 23.9432 15.8252 23.9548 15.8416 23.9647C15.8482 23.9687 15.8616 23.9707 15.8799 23.9712C15.9411 24.0166 16.0037 24.0601 16.065 24.1024C16.3722 24.3144 16.6385 24.4979 16.4431 24.7685C16.4061 24.8196 16.4131 24.8748 16.4422 24.9307C16.3641 25.1086 16.2834 25.2866 16.2008 25.4644C16.0236 25.4986 15.8747 25.5409 15.7577 25.5913C15.5381 25.686 15.4908 25.7844 15.4348 25.9006C15.3935 25.9865 15.3473 26.082 15.2235 26.193C15.0156 26.3795 14.8395 26.5711 14.7473 26.788C14.6555 27.0039 14.5873 27.2513 14.5626 27.4265C14.5491 27.522 14.3902 27.6215 14.2422 27.7142C14.0342 27.8446 13.8477 27.9616 14.1167 28.0352C14.2026 28.0588 14.352 28.0819 14.4971 28.1044C14.6004 28.1205 14.7013 28.1363 14.7765 28.1516C14.7529 28.1911 14.7295 28.2307 14.7057 28.2703C14.5257 28.3398 14.3326 28.4484 14.5322 28.5555C14.5072 28.5964 14.4824 28.6372 14.4572 28.6766C14.4044 28.7627 14.351 28.8469 14.2973 28.9318C14.2795 28.9595 14.2617 28.9875 14.2438 29.0156C14.2436 29.0159 14.2434 29.0161 14.2432 29.0164C14.2071 29.0729 14.1708 29.1299 14.1343 29.1858C14.1187 29.2098 14.1032 29.2338 14.0876 29.2578C14.0481 29.3187 14.0084 29.3801 13.9683 29.4404C13.947 29.4723 13.9259 29.5046 13.9044 29.5369C13.8696 29.5892 13.8345 29.642 13.7993 29.6945C13.7423 29.7794 13.6847 29.8639 13.6266 29.9486C13.617 29.9625 13.587 29.9756 13.5417 29.9852C13.4963 29.9947 13.4394 29.9999 13.3808 29.9996C13.3221 29.9992 13.2652 29.9933 13.22 29.9832C13.175 29.9731 13.146 29.9596 13.1368 29.9456C13.0813 29.8602 13.0264 29.775 12.9719 29.6893C12.9383 29.6364 12.9043 29.5833 12.8711 29.5305C12.8506 29.4979 12.8305 29.4655 12.8101 29.4333C12.7719 29.3725 12.7337 29.3106 12.6961 29.2492C12.6812 29.225 12.6663 29.2009 12.6514 29.1767C12.6165 29.1202 12.582 29.0627 12.5476 29.0056C12.5474 29.0052 12.5472 29.0049 12.547 29.0046C12.5301 28.9765 12.5131 28.9484 12.4963 28.9207C12.4451 28.8351 12.3944 28.7503 12.3443 28.6636C12.3172 28.6188 12.2908 28.5721 12.2641 28.5258C12.2492 28.5 12.2342 28.4742 12.2194 28.449C12.2115 28.4351 12.2037 28.4211 12.1959 28.4071C12.0105 28.0838 11.8321 27.7629 11.6611 27.4391C11.4901 27.1164 11.3263 26.7933 11.169 26.4711C11.0117 26.1482 10.8613 25.8258 10.7171 25.5032C9.80123 23.4561 9.05245 21.4018 8.58834 19.3482C8.52169 19.0553 8.46183 18.7548 8.4083 18.4614C8.35476 18.1648 8.30743 17.8743 8.26724 17.5769C8.25467 17.4866 8.24293 17.3941 8.2317 17.2991Z" fill="black"/>
<path d="M8.15747 52.3581C8.05967 51.5894 8.98247 50.8497 8.98424 50.0784C8.98652 49.1208 8.10476 48.148 8.26896 47.1881C8.43321 46.2339 8.66907 45.275 8.95987 44.3191C9.25067 43.3622 9.59632 42.4067 9.97917 41.4493C10.362 40.4939 10.782 39.5365 11.2227 38.5804C11.522 37.9309 11.831 37.2808 12.1439 36.6315C12.281 36.3464 12.4187 36.0622 12.557 35.7773C12.6603 35.5647 12.7637 35.3522 12.8671 35.1396C12.8816 35.1101 12.9408 35.0817 13.0346 35.0609C13.1286 35.04 13.249 35.0282 13.3734 35.0283C13.4978 35.0283 13.6185 35.0402 13.7121 35.0611C13.8055 35.082 13.8638 35.1104 13.8778 35.14C13.978 35.3543 14.0781 35.5686 14.1782 35.783C14.2893 36.0211 14.4005 36.2587 14.5109 36.4968C14.0004 36.5342 13.6132 36.5857 13.4422 36.682C13.355 36.7312 13.3187 36.8029 13.4136 36.8558C13.4988 36.9032 13.6508 36.9389 13.7956 36.9728C13.9471 37.0083 14.0909 37.042 14.1417 37.0853C14.2279 37.1589 14.4446 37.2288 14.6723 37.3022C14.7552 37.3289 14.8396 37.3561 14.9197 37.3841C15.0235 37.6113 15.1265 37.8386 15.2286 38.0657C15.1742 38.1535 15.1303 38.2342 15.1512 38.3026C15.17 38.364 15.2778 38.4203 15.412 38.4762C15.4276 38.5114 15.4432 38.5466 15.4589 38.5818C15.5594 38.8087 15.6582 39.0358 15.7562 39.2629C15.62 39.4401 15.4877 39.6258 15.4296 39.8673C15.4046 39.9713 15.331 40.074 15.2603 40.1727C15.1559 40.3185 15.0577 40.4556 15.1311 40.5759C15.1802 40.6562 15.108 40.7408 15.0361 40.8251C14.9396 40.9382 14.8432 41.0511 15.0397 41.1535C15.1633 41.2178 15.3135 41.2769 15.4528 41.3316C15.6745 41.4187 15.8684 41.4948 15.8817 41.5637C15.9068 41.6932 16.0683 41.8053 16.2107 41.9041C16.3821 42.0229 16.5258 42.1226 16.371 42.2101C16.3475 42.2234 16.3163 42.2385 16.2808 42.2556C16.0938 42.3457 15.7947 42.4898 15.9591 42.6967C16.0177 42.7703 16.1698 42.8395 16.3192 42.9073C16.5366 43.0059 16.7476 43.1017 16.6537 43.2042C16.6396 43.2196 16.5807 43.2356 16.5269 43.2501C16.4585 43.2686 16.3988 43.2848 16.4508 43.2944C16.6031 43.3225 16.7714 43.3671 16.9546 43.4156C17.0892 43.4512 17.2319 43.489 17.3817 43.5237C17.4664 43.7895 17.5475 44.0553 17.6242 44.3212C17.6594 44.443 17.6937 44.5648 17.7272 44.6867C17.4979 44.749 17.2913 44.8128 17.135 44.8801C16.9307 44.9681 16.8681 45.0822 16.7871 45.2293C16.7274 45.3375 16.6577 45.4636 16.5147 45.6103C16.2502 45.882 16.3095 46.1611 16.4514 46.3399C16.4814 46.3777 16.5134 46.4157 16.5483 46.4564C16.6804 46.6106 16.8459 46.8031 17.0284 47.1687C17.201 47.5145 17.2457 47.8086 17.2794 48.0295C17.2965 48.1423 17.3104 48.236 17.3372 48.3078C17.3833 48.4307 17.4243 48.5816 17.4652 48.7331C17.5293 48.9701 17.5935 49.2087 17.679 49.3437C17.7095 49.3918 17.7472 49.4423 17.7875 49.4967C17.8991 49.6477 18.0338 49.8301 18.1116 50.0814C18.1933 50.3453 18.1376 50.5088 18.0166 50.6787C17.9674 50.7477 17.7728 50.8086 17.5718 50.8714C17.2866 50.9604 16.9889 51.0533 17.0777 51.179C17.0984 51.2084 17.1448 51.2397 17.1935 51.2724C17.2828 51.3325 17.3797 51.3976 17.3372 51.4642C17.3224 51.4874 17.2696 51.5079 17.2178 51.5279C17.1609 51.55 17.1052 51.5716 17.1021 51.5962C17.0905 51.6877 17.1037 51.7768 17.1155 51.8559C17.1307 51.958 17.1434 52.0436 17.0972 52.0967C17.0148 52.1914 17.0886 52.2949 17.1636 52.3998C17.2209 52.4798 17.2792 52.5607 17.2684 52.639C17.2374 52.8628 17.3779 53.1706 17.612 53.4877C17.7005 53.6077 17.5796 53.7094 17.4244 53.8396C17.3278 53.9207 17.2175 54.0127 17.1368 54.1272C17.0911 54.1921 17.1988 54.2471 17.2983 54.298C17.3899 54.3449 17.4747 54.3883 17.4268 54.4329C17.3845 54.4723 17.2034 54.4972 17.0314 54.5208C16.84 54.5471 16.66 54.5719 16.6951 54.6133C16.7138 54.6353 16.8044 54.6621 16.912 54.6939C16.9545 54.7065 16.9996 54.72 17.0442 54.7342C17.0075 54.7335 16.9746 54.7333 16.9498 54.7333C16.7741 54.7333 16.6815 54.7755 16.5909 54.817C16.5547 54.8335 16.519 54.85 16.4782 54.8635C16.3281 54.9134 16.3037 55.0077 16.3106 55.0798C16.3135 55.1103 16.2591 55.138 16.1955 55.1702C16.139 55.1989 16.0753 55.2312 16.0383 55.2723C16.0172 55.2958 15.9663 55.3138 15.9238 55.3287C15.893 55.3395 15.8667 55.3487 15.8598 55.3572C15.8538 55.3646 15.9042 55.3706 15.9609 55.3773C16.0017 55.3821 16.046 55.3873 16.0749 55.3937C16.1438 55.4091 16.1646 55.4289 16.1425 55.4427C16.1322 55.4491 16.1126 55.4542 16.0931 55.4592C16.0704 55.4651 16.0475 55.4709 16.0395 55.4789C16.0028 55.5157 16.0603 55.5515 16.1199 55.5886C16.1855 55.6295 16.2536 55.6721 16.2028 55.7196C16.1868 55.7345 16.1501 55.7504 16.1145 55.7658C16.0772 55.7819 16.0412 55.7976 16.0316 55.8109C15.9927 55.8649 16.1183 55.9158 16.2339 55.9625C16.3107 55.9936 16.383 56.0229 16.3996 56.0502C16.4299 56.1001 16.5807 56.1269 16.692 56.1466C16.7497 56.1569 16.7971 56.1652 16.8115 56.174C16.8073 56.182 16.8023 56.1902 16.7968 56.1981C16.7857 56.2055 16.7743 56.213 16.7779 56.2201C16.7782 56.2207 16.7789 56.2212 16.7792 56.2217C16.7426 56.2664 16.6908 56.3102 16.639 56.3538C16.5229 56.4517 16.4079 56.5483 16.4727 56.6505C16.4867 56.6726 16.549 56.695 16.6122 56.7178C16.6897 56.7458 16.769 56.7744 16.7633 56.8035C16.7497 56.873 16.647 56.9431 16.5458 57.0122C16.3936 57.116 16.245 57.2175 16.4081 57.3109C16.462 57.3416 16.5517 57.3717 16.6421 57.4018C16.6925 57.4186 16.7433 57.4355 16.7877 57.4525C16.7052 57.4489 16.6278 57.447 16.5556 57.4452C16.4067 57.4415 16.2793 57.4383 16.1711 57.422C15.9154 57.3833 15.5633 57.3395 15.3066 57.3444C15.2369 57.3457 15.1593 57.3446 15.0811 57.3435C14.8851 57.3405 14.6849 57.3376 14.5943 57.3735C14.5333 57.3976 14.3932 57.4598 14.5432 57.4993C14.5758 57.5079 14.6406 57.5132 14.7125 57.519C14.8418 57.5295 14.9949 57.542 15.0306 57.5794C15.0366 57.5857 15.042 57.5926 15.047 57.5997C15.0671 57.628 15.0893 57.6596 15.1932 57.6715C15.313 57.6851 15.4501 57.6822 15.61 57.6788C15.8182 57.6744 16.0655 57.6691 16.3636 57.6985C16.4226 57.7043 16.4428 57.7154 16.4581 57.7238C16.4689 57.7297 16.4775 57.7342 16.4952 57.7346C16.5156 57.7351 16.558 57.7332 16.6116 57.7308C16.8008 57.7224 17.1313 57.7077 17.1453 57.7691C17.1491 57.7857 17.1334 57.8047 17.1191 57.8217C17.0982 57.8468 17.0809 57.8677 17.135 57.8705C17.1555 57.8715 17.1777 57.8723 17.2008 57.8729C17.1943 57.8929 17.1878 57.9128 17.1813 57.9328C17.1168 57.9585 17.1223 57.9945 17.1295 58.0394C17.1312 58.0503 17.1328 58.0618 17.1338 58.0737C17.1204 58.1131 17.1071 58.1526 17.0935 58.192C17.0662 58.2233 17.0217 58.2566 16.951 58.2917C16.8093 58.3621 16.5757 58.4233 16.3472 58.4832C16.2509 58.5084 16.1554 58.5334 16.0682 58.5587C16.0574 58.5488 16.0448 58.5399 16.0273 58.5331C15.908 58.4862 15.6732 58.4673 15.4571 58.45C15.3133 58.4385 15.1777 58.4276 15.0903 58.4096C14.93 58.3766 14.7427 58.3799 14.6041 58.3824C14.5322 58.3836 14.4733 58.3846 14.4384 58.3802C14.4104 58.3766 14.3972 58.3685 14.3835 58.36C14.3716 58.3527 14.3592 58.3451 14.3366 58.3402C14.0623 58.2813 13.9031 58.299 13.6713 58.3248C13.5435 58.339 13.3935 58.3556 13.19 58.3632C12.9745 58.3698 12.9115 58.3676 12.8256 58.3367C12.7192 58.3608 12.6128 58.3848 12.5064 58.4089C12.5133 58.4183 12.5798 58.4255 12.6904 58.4356C12.8878 58.4535 12.96 58.5121 13.0163 58.5578C13.0425 58.579 13.0653 58.5974 13.0956 58.6078C13.2565 58.6631 13.4807 58.647 13.678 58.6329C13.7866 58.6251 13.8871 58.6179 13.9644 58.6235C13.9974 58.6259 14.0302 58.6225 14.0637 58.619C14.0895 58.6164 14.1158 58.6136 14.1429 58.6135C14.3393 58.6128 14.4851 58.6455 14.6205 58.6759C14.6981 58.6933 14.7725 58.7099 14.8508 58.719C14.8747 58.7218 14.8991 58.7241 14.9227 58.7261C14.9573 58.7292 14.9902 58.7321 15.0184 58.7368C15.0826 58.7473 15.1259 58.7691 15.1731 58.793C15.1973 58.8052 15.2226 58.818 15.2523 58.83C15.2909 58.8457 15.3686 58.8513 15.4497 58.8573C15.5071 58.8615 15.5662 58.8659 15.6149 58.874C15.7029 58.8887 15.7346 58.9183 15.7641 58.9457C15.777 58.9577 15.7897 58.9693 15.8062 58.979C15.8129 58.983 15.8262 58.9849 15.8446 58.9853C15.906 59.0305 15.9689 59.0735 16.0304 59.1155C16.3388 59.3257 16.6062 59.5076 16.4124 59.7793C16.3757 59.8307 16.3831 59.8859 16.4124 59.9416C16.3353 60.1199 16.2558 60.2984 16.1742 60.4766C15.9971 60.5119 15.8485 60.5551 15.7318 60.6062C15.5128 60.7021 15.466 60.8008 15.4108 60.9173C15.3699 61.0034 15.3243 61.0993 15.2012 61.211C14.9943 61.3986 14.8193 61.5913 14.7284 61.8087C14.6378 62.0252 14.5711 62.273 14.5474 62.4483C14.5345 62.5439 14.3762 62.6443 14.2288 62.7378C14.0215 62.8695 13.8357 62.9876 14.1051 63.0597C14.1912 63.0827 14.3407 63.1049 14.4859 63.1266C14.5893 63.142 14.6903 63.1572 14.7655 63.1721C14.7422 63.2118 14.7191 63.2516 14.6955 63.2913C14.5159 63.3618 14.3235 63.4715 14.5237 63.5775C14.4989 63.6185 14.4743 63.6595 14.4493 63.699C14.3971 63.7854 14.3442 63.8699 14.2909 63.9552C14.2733 63.983 14.2557 64.0111 14.2379 64.0393C14.2377 64.0395 14.2375 64.0398 14.2373 64.0401C14.2016 64.0968 14.1656 64.1539 14.1295 64.2101C14.114 64.2342 14.0986 64.2583 14.0832 64.2823C14.044 64.3435 14.0047 64.4051 13.965 64.4657C13.9438 64.4977 13.9229 64.5301 13.9016 64.5625C13.8671 64.6151 13.8324 64.668 13.7974 64.7208C13.7409 64.806 13.6838 64.8908 13.6262 64.9758C13.6167 64.9897 13.5868 65.0031 13.5415 65.0129C13.4962 65.0227 13.4393 65.0283 13.3807 65.0283C13.3221 65.0282 13.265 65.0227 13.2198 65.0128C13.1748 65.003 13.1456 64.9896 13.1364 64.9757C13.0804 64.8907 13.025 64.8057 12.97 64.7204C12.9361 64.6677 12.9018 64.6147 12.8683 64.5621C12.8476 64.5297 12.8273 64.4974 12.8068 64.4653C12.7682 64.4048 12.7296 64.3431 12.6916 64.2819C12.6766 64.2578 12.6616 64.2337 12.6465 64.2097C12.6113 64.1533 12.5765 64.096 12.5417 64.0392C12.5415 64.0388 12.5413 64.0385 12.5411 64.0381C12.524 64.0101 12.5069 63.9822 12.4899 63.9546C12.4382 63.8693 12.387 63.7847 12.3364 63.6983C12.3091 63.6537 12.2824 63.6072 12.2554 63.561C12.2403 63.5353 12.2252 63.5097 12.2103 63.4845C12.2023 63.4707 12.1945 63.4567 12.1865 63.4427C11.9992 63.1205 11.819 62.8007 11.6461 62.4778C11.4732 62.1562 11.3075 61.834 11.1483 61.5128C10.9892 61.1907 10.8369 60.8693 10.6908 60.5476C9.76296 58.5058 9.00218 56.4559 8.52607 54.4051C8.45771 54.1126 8.39609 53.8124 8.34085 53.5193C8.28559 53.223 8.23655 52.9328 8.19463 52.6357C8.18153 52.5455 8.16925 52.453 8.15747 52.3581Z" fill="black"/>
<path d="M25.8204 27.035C26.589 26.9372 27.3288 27.86 28.1 27.8617C29.0576 27.864 30.0305 26.9823 30.9903 27.1465C31.9446 27.3107 32.9035 27.5466 33.8594 27.8374C34.8163 28.1282 35.7718 28.4738 36.7292 28.8567C37.6845 29.2395 38.642 29.6595 39.5981 30.1002C40.2475 30.3995 40.8977 30.7085 41.547 31.0214C41.8321 31.1585 42.1163 31.2962 42.4012 31.4345C42.6137 31.5378 42.8263 31.6412 43.0389 31.7446C43.0684 31.7592 43.0967 31.8183 43.1176 31.9121C43.1385 32.0061 43.1502 32.1265 43.1502 32.2509C43.1502 32.3753 43.1383 32.496 43.1174 32.5896C43.0964 32.683 43.0681 32.7413 43.0385 32.7553C42.8242 32.8555 42.6098 32.9556 42.3955 33.0557C42.1574 33.1668 41.9197 33.278 41.6817 33.3884C41.6442 32.8779 41.5928 32.4907 41.4964 32.3197C41.4472 32.2325 41.3755 32.1962 41.3227 32.2911C41.2753 32.3763 41.2396 32.5283 41.2056 32.6731C41.1702 32.8246 41.1365 32.9684 41.0931 33.0192C41.0196 33.1054 40.9497 33.3221 40.8763 33.5498C40.8496 33.6327 40.8224 33.7171 40.7943 33.7972C40.5671 33.901 40.3399 34.004 40.1127 34.1061C40.025 34.0517 39.9443 34.0078 39.8758 34.0287C39.8144 34.0475 39.7582 34.1553 39.7022 34.2895C39.6671 34.3051 39.6319 34.3208 39.5967 34.3364C39.3697 34.4369 39.1426 34.5357 38.9156 34.6337C38.7384 34.4975 38.5527 34.3652 38.3112 34.3071C38.2071 34.2821 38.1045 34.2085 38.0058 34.1378C37.86 34.0334 37.7228 33.9352 37.6026 34.0086C37.5222 34.0577 37.4377 33.9855 37.3533 33.9136C37.2402 33.8171 37.1273 33.7207 37.025 33.9172C36.9607 34.0408 36.9016 34.191 36.8468 34.3303C36.7597 34.552 36.6836 34.7459 36.6147 34.7592C36.4853 34.7843 36.3732 34.9458 36.2744 35.0882C36.1556 35.2596 36.0559 35.4033 35.9684 35.2485C35.9551 35.225 35.9399 35.1938 35.9228 35.1583C35.8327 34.9713 35.6886 34.6722 35.4818 34.8366C35.4081 34.8952 35.339 35.0473 35.2712 35.1967C35.1726 35.4141 35.0768 35.6251 34.9742 35.5312C34.9589 35.5171 34.9429 35.4582 34.9283 35.4044C34.9098 35.336 34.8936 35.2763 34.8841 35.3283C34.856 35.4806 34.8113 35.6489 34.7629 35.8321C34.7273 35.9667 34.6895 36.1094 34.6547 36.2592C34.389 36.3439 34.1232 36.425 33.8573 36.5017C33.7355 36.5369 33.6137 36.5712 33.4918 36.6047C33.4294 36.3754 33.3657 36.1688 33.2984 36.0125C33.2104 35.8082 33.0963 35.7456 32.9492 35.6646C32.841 35.6049 32.7149 35.5352 32.5681 35.3922C32.2965 35.1277 32.0174 35.187 31.8386 35.3289C31.8007 35.3589 31.7627 35.3909 31.7221 35.4258C31.5678 35.5579 31.3754 35.7234 31.0098 35.9059C30.664 36.0785 30.3699 36.1232 30.149 36.1569C30.0362 36.174 29.9425 36.1879 29.8706 36.2148C29.7478 36.2608 29.5969 36.3018 29.4454 36.3427C29.2083 36.4068 28.9698 36.471 28.8347 36.5565C28.7867 36.587 28.7362 36.6247 28.6817 36.665C28.5308 36.7766 28.3484 36.9113 28.097 36.9891C27.8332 37.0708 27.6697 37.0151 27.4998 36.8941C27.4307 36.8449 27.3698 36.6503 27.3071 36.4493C27.218 36.1641 27.1251 35.8664 26.9995 35.9552C26.9701 35.9759 26.9388 36.0223 26.9061 36.071C26.8459 36.1603 26.7809 36.2572 26.7143 36.2148C26.691 36.1999 26.6706 36.1471 26.6505 36.0953C26.6285 36.0384 26.6068 35.9827 26.5823 35.9796C26.4908 35.968 26.4017 35.9812 26.3225 35.993C26.2205 36.0082 26.1349 36.0209 26.0818 35.9747C25.9871 35.8923 25.8836 35.9661 25.7787 36.0411C25.6986 36.0984 25.6177 36.1567 25.5394 36.1459C25.3156 36.1149 25.0079 36.2554 24.6907 36.4895C24.5707 36.578 24.4691 36.4571 24.3388 36.3019C24.2578 36.2053 24.1657 36.095 24.0512 36.0143C23.9863 35.9686 23.9314 36.0763 23.8805 36.1758C23.8336 36.2674 23.7902 36.3522 23.7456 36.3043C23.7062 36.262 23.6813 36.0809 23.6577 35.9089C23.6314 35.7175 23.6066 35.5375 23.5652 35.5726C23.5432 35.5913 23.5164 35.6819 23.4845 35.7895C23.4719 35.832 23.4585 35.8771 23.4442 35.9217C23.445 35.885 23.4451 35.8521 23.4452 35.8273C23.4452 35.6516 23.403 35.559 23.3615 35.4684C23.3449 35.4322 23.3285 35.3965 23.3149 35.3557C23.2651 35.2056 23.1707 35.1812 23.0986 35.1881C23.0681 35.191 23.0405 35.1366 23.0082 35.073C22.9796 35.0165 22.9473 34.9528 22.9061 34.9158C22.8827 34.8947 22.8646 34.8438 22.8497 34.8013C22.8389 34.7705 22.8297 34.7442 22.8212 34.7373C22.8139 34.7313 22.8079 34.7817 22.8012 34.8384C22.7964 34.8793 22.7912 34.9235 22.7847 34.9524C22.7694 35.0213 22.7496 35.0421 22.7357 35.02C22.7293 35.0097 22.7243 34.9901 22.7193 34.9706C22.7134 34.9479 22.7076 34.925 22.6996 34.917C22.6628 34.8803 22.627 34.9378 22.5898 34.9974C22.549 35.063 22.5064 35.1311 22.4589 35.0803C22.444 35.0643 22.4281 35.0276 22.4127 34.992C22.3966 34.9547 22.3809 34.9187 22.3676 34.9091C22.3135 34.8702 22.2627 34.9958 22.216 35.1114C22.1849 35.1882 22.1555 35.2605 22.1283 35.2771C22.0784 35.3074 22.0516 35.4582 22.0318 35.5695C22.0216 35.6272 22.0132 35.6746 22.0045 35.689C21.9964 35.6848 21.9883 35.6798 21.9803 35.6743C21.973 35.6632 21.9654 35.6518 21.9583 35.6554C21.9578 35.6557 21.9573 35.6564 21.9567 35.6567C21.9121 35.6201 21.8683 35.5683 21.8247 35.5165C21.7268 35.4004 21.6301 35.2854 21.5279 35.3502C21.5059 35.3642 21.4835 35.4265 21.4606 35.4897C21.4327 35.5672 21.4041 35.6465 21.3749 35.6408C21.3055 35.6272 21.2354 35.5245 21.1663 35.4233C21.0624 35.2711 20.9609 35.1225 20.8676 35.2856C20.8368 35.3395 20.8068 35.4292 20.7766 35.5196C20.7598 35.57 20.743 35.6208 20.7259 35.6652C20.7295 35.5827 20.7315 35.5053 20.7333 35.4331C20.737 35.2842 20.7401 35.1568 20.7565 35.0486C20.7951 34.7929 20.8389 34.4408 20.8341 34.1841C20.8328 34.1144 20.8338 34.0368 20.835 33.9586C20.8379 33.7626 20.8409 33.5624 20.805 33.4718C20.7808 33.4108 20.7187 33.2707 20.6791 33.4207C20.6705 33.4533 20.6653 33.5181 20.6594 33.59C20.649 33.7193 20.6365 33.8724 20.599 33.9081C20.5927 33.9141 20.5859 33.9195 20.5788 33.9245C20.5505 33.9446 20.5189 33.9668 20.507 34.0708C20.4934 34.1905 20.4963 34.3276 20.4997 34.4875C20.5041 34.6957 20.5094 34.943 20.48 35.2411C20.4742 35.3001 20.4631 35.3203 20.4547 35.3356C20.4488 35.3464 20.4443 35.355 20.4438 35.3727C20.4433 35.3931 20.4452 35.4355 20.4476 35.4891C20.4561 35.6783 20.4708 36.0088 20.4094 36.0228C20.3928 36.0266 20.3738 36.0109 20.3568 35.9966C20.3316 35.9757 20.3108 35.9584 20.308 36.0125C20.307 36.033 20.3062 36.0552 20.3056 36.0783C20.2856 36.0718 20.2656 36.0653 20.2456 36.0588C20.22 35.9943 20.184 35.9998 20.1391 36.007C20.1282 36.0087 20.1167 36.0103 20.1048 36.0113C20.0653 35.9979 20.0259 35.9846 19.9864 35.971C19.9552 35.9437 19.9219 35.8992 19.8867 35.8285C19.8164 35.6868 19.7551 35.4532 19.6953 35.2247C19.6701 35.1284 19.6451 35.0329 19.6198 34.9457C19.6296 34.9349 19.6385 34.9223 19.6454 34.9048C19.6923 34.7855 19.7112 34.5507 19.7285 34.3346C19.74 34.1908 19.7509 34.0552 19.7689 33.9678C19.8018 33.8075 19.7985 33.6202 19.7961 33.4816C19.7949 33.4097 19.7939 33.3508 19.7983 33.3159C19.8018 33.2879 19.81 33.2747 19.8184 33.261C19.8258 33.2491 19.8334 33.2367 19.8382 33.2141C19.8972 32.9398 19.8794 32.7806 19.8537 32.5488C19.8395 32.421 19.8228 32.271 19.8152 32.0675C19.8087 31.852 19.8109 31.789 19.8418 31.7031C19.8177 31.5967 19.7936 31.4903 19.7696 31.3839C19.7601 31.3908 19.753 31.4573 19.7429 31.5679C19.7249 31.7653 19.6664 31.8375 19.6207 31.8938C19.5995 31.92 19.5811 31.9428 19.5707 31.9731C19.5153 32.134 19.5314 32.3582 19.5456 32.5555C19.5534 32.6641 19.5606 32.7646 19.555 32.8419C19.5526 32.8749 19.556 32.9077 19.5594 32.9412C19.5621 32.967 19.5648 32.9933 19.5649 33.0204C19.5657 33.2168 19.5329 33.3626 19.5026 33.498C19.4852 33.5756 19.4686 33.65 19.4594 33.7283C19.4566 33.7522 19.4544 33.7766 19.4523 33.8002C19.4493 33.8348 19.4463 33.8677 19.4417 33.8959C19.4311 33.9601 19.4094 34.0034 19.3855 34.0506C19.3733 34.0748 19.3605 34.1001 19.3484 34.1298C19.3328 34.1684 19.3271 34.2461 19.3212 34.3273C19.317 34.3846 19.3126 34.4437 19.3045 34.4924C19.2898 34.5804 19.2602 34.6121 19.2327 34.6416C19.2208 34.6545 19.2092 34.6672 19.1994 34.6837C19.1954 34.6904 19.1935 34.7037 19.1931 34.7221C19.148 34.7835 19.1049 34.8464 19.063 34.9079C18.8528 35.2163 18.6708 35.4837 18.3991 35.2899C18.3478 35.2532 18.2926 35.2606 18.2369 35.2899C18.0585 35.2128 17.8801 35.1333 17.7018 35.0517C17.6666 34.8747 17.6234 34.726 17.5723 34.6093C17.4763 34.3903 17.3776 34.3435 17.2611 34.2883C17.175 34.2474 17.0792 34.2018 16.9675 34.0787C16.7798 33.8718 16.5872 33.6968 16.3698 33.6059C16.1533 33.5153 15.9055 33.4486 15.7302 33.4249C15.6346 33.412 15.5342 33.2537 15.4406 33.1063C15.309 32.899 15.1909 32.7132 15.1188 32.9826C15.0958 33.0687 15.0735 33.2182 15.0519 33.3634C15.0364 33.4668 15.0212 33.5678 15.0063 33.643C14.9666 33.6197 14.9269 33.5966 14.8872 33.573C14.8166 33.3934 14.707 33.201 14.601 33.4012C14.56 33.3764 14.519 33.3518 14.4794 33.3268C14.3931 33.2746 14.3086 33.2217 14.2233 33.1684C14.1955 33.1508 14.1674 33.1332 14.1392 33.1154C14.1389 33.1152 14.1387 33.115 14.1384 33.1148C14.0817 33.0791 14.0245 33.0432 13.9683 33.007C13.9443 32.9915 13.9202 32.9761 13.8961 32.9607C13.835 32.9215 13.7733 32.8822 13.7128 32.8425C13.6807 32.8214 13.6484 32.8004 13.616 32.7791C13.5634 32.7446 13.5104 32.7099 13.4577 32.6749C13.3725 32.6184 13.2876 32.5613 13.2026 32.5037C13.1887 32.4942 13.1754 32.4643 13.1655 32.419C13.1557 32.3737 13.1502 32.3168 13.1502 32.2582C13.1502 32.1996 13.1558 32.1425 13.1657 32.0973C13.1755 32.0523 13.1888 32.0231 13.2027 32.0139C13.2878 31.9579 13.3728 31.9025 13.4581 31.8475C13.5108 31.8136 13.5637 31.7793 13.6163 31.7458C13.6488 31.7251 13.6811 31.7048 13.7131 31.6843C13.7737 31.6457 13.8354 31.6071 13.8966 31.5691C13.9207 31.5541 13.9447 31.5391 13.9688 31.524C14.0251 31.4888 14.0825 31.454 14.1393 31.4192C14.1397 31.419 14.14 31.4188 14.1403 31.4186C14.1683 31.4015 14.1963 31.3844 14.2239 31.3674C14.3092 31.3158 14.3937 31.2645 14.4801 31.2139C14.5248 31.1866 14.5713 31.1599 14.6174 31.1329C14.6432 31.1178 14.6688 31.1027 14.694 31.0878C14.7078 31.0798 14.7217 31.072 14.7358 31.064C15.0579 30.8767 15.3778 30.6965 15.7006 30.5236C16.0223 30.3507 16.3445 30.185 16.6657 30.0258C16.9877 29.8667 17.3092 29.7144 17.6309 29.5683C19.6727 28.6405 21.7226 27.8797 23.7734 27.4036C24.0659 27.3352 24.366 27.2736 24.6591 27.2184C24.9555 27.1631 25.2457 27.1141 25.5427 27.0721C25.633 27.059 25.7255 27.0468 25.8204 27.035Z" fill="black"/>
</svg>
