<svg width="18" height="66" viewBox="0 0 18 66" fill="none" xmlns="http://www.w3.org/2000/svg">
<path d="M0.00725961 40.5571C-0.0905387 39.0198 0.832262 37.5404 0.83403 35.9978C0.836315 34.0826 -0.045449 32.1369 0.118755 30.2172C0.282999 28.3087 0.518863 26.3909 0.80966 24.4792C1.10047 22.5653 1.44611 20.6543 1.82896 18.7395C2.2118 16.8288 2.63176 14.9139 3.07247 13.0017C3.37181 11.7029 3.68084 10.4025 3.99367 9.10385C4.13079 8.53373 4.26852 7.96531 4.40676 7.39549C4.51013 6.97038 4.6135 6.54528 4.71687 6.12016C4.73144 6.06107 4.79057 6.00444 4.88442 5.96269C4.97843 5.92095 5.09878 5.8974 5.22317 5.89746C5.34763 5.89754 5.46825 5.92126 5.56192 5.96315C5.65533 6.00502 5.71363 6.06175 5.72764 6.12085C5.82776 6.54955 5.92788 6.97824 6.02801 7.40693C6.13906 7.8831 6.25033 8.35842 6.36066 8.83446C5.85019 8.9094 5.46301 9.01228 5.29202 9.20502C5.2048 9.30339 5.16853 9.44684 5.26338 9.55246C5.34861 9.64731 5.50057 9.71876 5.64539 9.7866C5.79686 9.85756 5.94067 9.92492 5.99145 10.0116C6.0777 10.1587 6.29442 10.2985 6.52212 10.4453C6.60499 10.4988 6.68944 10.5532 6.76948 10.6092C6.87328 11.0636 6.97627 11.5181 7.07838 11.9724C7.02402 12.1479 6.98006 12.3093 7.001 12.4462C7.01979 12.569 7.12763 12.6815 7.26177 12.7934C7.2774 12.8638 7.29304 12.9341 7.30868 13.0044C7.40915 13.4584 7.50802 13.9126 7.606 14.3667C7.46981 14.7211 7.33751 15.0925 7.27944 15.5755C7.2544 15.7836 7.18074 15.9889 7.11006 16.1863C7.00566 16.4779 6.90753 16.7522 6.9809 16.9927C7.02994 17.1534 6.9578 17.3225 6.88585 17.4912C6.78936 17.7174 6.69303 17.9432 6.88951 18.1479C7.01306 18.2765 7.16327 18.3948 7.30259 18.5042C7.52425 18.6784 7.71814 18.8306 7.73151 18.9684C7.75657 19.2273 7.91805 19.4515 8.06051 19.6491C8.23184 19.8867 8.37561 20.0861 8.22075 20.2611C8.19727 20.2876 8.16606 20.318 8.13058 20.3522C7.94356 20.5324 7.64446 20.8206 7.80889 21.2343C7.86745 21.3816 8.01963 21.52 8.16896 21.6555C8.38635 21.8527 8.59736 22.0443 8.50345 22.2494C8.48939 22.2801 8.43051 22.312 8.37672 22.3412C8.30833 22.3782 8.24863 22.4106 8.30056 22.4298C8.45287 22.486 8.62121 22.5752 8.80442 22.6721C8.93902 22.7434 9.08172 22.8188 9.23152 22.8884C9.31616 23.4199 9.39725 23.9515 9.474 24.4833C9.50921 24.7269 9.54354 24.9706 9.57697 25.2143C9.34765 25.339 9.14106 25.4665 8.98477 25.6011C8.7805 25.7772 8.71794 26.0053 8.63688 26.2995C8.57723 26.5159 8.50747 26.7681 8.36453 27.0616C8.09997 27.605 8.1593 28.1631 8.30117 28.5207C8.33118 28.5964 8.36321 28.6724 8.39804 28.7537C8.53018 29.0622 8.69565 29.4471 8.87814 30.1783C9.05077 30.8699 9.09552 31.4581 9.12916 31.8999C9.14633 32.1255 9.16015 32.3129 9.18704 32.4566C9.23306 32.7023 9.27404 33.0041 9.31499 33.3071C9.37906 33.7812 9.44325 34.2583 9.52884 34.5284C9.55931 34.6246 9.597 34.7255 9.63729 34.8344C9.74891 35.1363 9.88359 35.5011 9.96142 36.0038C10.0431 36.5315 9.9874 36.8585 9.86637 37.1983C9.81717 37.3364 9.62262 37.4582 9.42161 37.5837C9.13637 37.7618 8.83867 37.9476 8.92749 38.199C8.94824 38.2576 8.9946 38.3203 9.04325 38.3857C9.13263 38.506 9.22952 38.6361 9.18704 38.7693C9.17222 38.8158 9.1194 38.8567 9.06762 38.8968C9.01066 38.941 8.95498 38.9842 8.95186 39.0332C8.9403 39.2163 8.95345 39.3945 8.96527 39.5528C8.9805 39.757 8.99317 39.9282 8.94699 40.0344C8.86462 40.2237 8.93835 40.4308 9.0134 40.6404C9.07073 40.8006 9.12902 40.9624 9.11819 41.119C9.08719 41.5666 9.22769 42.1822 9.46182 42.8164C9.55034 43.0564 9.42942 43.2597 9.27417 43.5202C9.1776 43.6823 9.06733 43.8664 8.98659 44.0954C8.94084 44.2252 9.04855 44.3351 9.14805 44.4369C9.23972 44.5307 9.32447 44.6176 9.2766 44.7067C9.23428 44.7855 9.05319 44.8353 8.88119 44.8825C8.68978 44.9351 8.50975 44.9846 8.54488 45.0675C8.56357 45.1115 8.65415 45.1651 8.76177 45.2288C8.80433 45.254 8.84938 45.2809 8.89398 45.3094C8.85725 45.3079 8.82441 45.3076 8.79955 45.3076C8.62386 45.3075 8.53133 45.392 8.44069 45.4749C8.4045 45.508 8.36876 45.541 8.32798 45.568C8.17788 45.6677 8.15346 45.8564 8.16043 46.0006C8.16333 46.0616 8.10886 46.1169 8.04528 46.1814C7.98883 46.2387 7.92512 46.3033 7.88809 46.3856C7.86698 46.4325 7.81606 46.4686 7.77355 46.4984C7.74278 46.52 7.71648 46.5384 7.70958 46.5554C7.70363 46.5702 7.75399 46.5821 7.81071 46.5955C7.85154 46.6051 7.89577 46.6156 7.92465 46.6284C7.99363 46.6592 8.01444 46.6987 7.99227 46.7264C7.98203 46.7392 7.96243 46.7493 7.94292 46.7594C7.9202 46.771 7.89732 46.7827 7.88931 46.7987C7.85262 46.8723 7.91007 46.9439 7.96973 47.0182C8.03531 47.0999 8.10343 47.1852 8.05259 47.2801C8.03658 47.3099 7.99987 47.3417 7.96425 47.3725C7.92697 47.4048 7.89099 47.4361 7.88139 47.4627C7.84249 47.5708 7.96811 47.6725 8.08366 47.766C8.16051 47.8281 8.2328 47.8868 8.24938 47.9413C8.27967 48.0411 8.43048 48.0947 8.54183 48.1342C8.59952 48.1547 8.64691 48.1714 8.66125 48.1889C8.65705 48.205 8.65206 48.2213 8.64662 48.2372C8.63553 48.2519 8.62409 48.267 8.62774 48.2812C8.62801 48.2823 8.62867 48.2833 8.62895 48.2844C8.5924 48.3737 8.54054 48.4614 8.48882 48.5485C8.37266 48.7442 8.25768 48.9376 8.3225 49.142C8.33647 49.1861 8.39875 49.2309 8.46202 49.2766C8.53953 49.3325 8.61882 49.3897 8.61311 49.448C8.59951 49.5869 8.49681 49.7272 8.39561 49.8653C8.2434 50.073 8.09475 50.276 8.25791 50.4626C8.31177 50.5242 8.40146 50.5843 8.49187 50.6446C8.54226 50.6782 8.59307 50.712 8.63748 50.746C8.555 50.7388 8.47757 50.7349 8.40535 50.7314C8.25651 50.724 8.12912 50.7176 8.02091 50.6849C7.76517 50.6076 7.41312 50.52 7.15636 50.5297C7.08668 50.5324 7.00908 50.5302 6.93094 50.5279C6.73489 50.522 6.53468 50.5161 6.44413 50.5878C6.38312 50.6362 6.24302 50.7605 6.39296 50.8396C6.42562 50.8568 6.49038 50.8673 6.56233 50.879C6.69163 50.8999 6.84473 50.9249 6.88037 50.9998C6.88636 51.0124 6.89178 51.0262 6.89682 51.0403C6.91692 51.0969 6.93911 51.1602 7.04304 51.1838C7.16277 51.2111 7.29989 51.2053 7.45978 51.1985C7.66801 51.1897 7.91534 51.1792 8.21344 51.2379C8.27237 51.2495 8.29255 51.2717 8.30787 51.2884C8.31866 51.3002 8.32731 51.3093 8.34504 51.3102C8.36541 51.3112 8.40779 51.3074 8.46141 51.3026C8.65058 51.2857 8.98111 51.2563 8.99512 51.3791C8.99888 51.4123 8.98314 51.4503 8.96892 51.4844C8.94797 51.5346 8.93069 51.5763 8.98477 51.5819C9.00528 51.584 9.02752 51.5855 9.05057 51.5867C9.04407 51.6267 9.03757 51.6666 9.03107 51.7066C8.9666 51.7579 8.97212 51.8299 8.97928 51.9197C8.98102 51.9415 8.98262 51.9645 8.98355 51.9884C8.9702 52.0672 8.95693 52.1462 8.94334 52.225C8.91599 52.2876 8.87146 52.3541 8.80077 52.4244C8.6591 52.5651 8.42546 52.6876 8.19699 52.8073C8.10072 52.8577 8.00516 52.9077 7.91794 52.9584C7.90722 52.9386 7.89456 52.9208 7.87712 52.9071C7.75778 52.8132 7.52298 52.7756 7.30685 52.7409C7.16309 52.7179 7.02754 52.6961 6.94007 52.6601C6.77984 52.5942 6.59245 52.6008 6.45388 52.6057C6.38201 52.6082 6.32313 52.6101 6.28816 52.6013C6.26015 52.5942 6.24698 52.5779 6.23333 52.561C6.22144 52.5463 6.20899 52.5311 6.18642 52.5214C5.91209 52.4035 5.75286 52.439 5.5211 52.4905C5.39328 52.519 5.24329 52.5522 5.03978 52.5674C4.8243 52.5805 4.76127 52.5761 4.67544 52.5143C4.56902 52.5625 4.4626 52.6106 4.35619 52.6588C4.3631 52.6776 4.42964 52.692 4.54018 52.7121C4.73761 52.748 4.80976 52.8651 4.86614 52.9565C4.89224 52.9989 4.91508 53.0357 4.94534 53.0566C5.10633 53.1672 5.33052 53.135 5.5278 53.1067C5.63638 53.0911 5.73689 53.0767 5.81416 53.0879C5.84721 53.0927 5.88001 53.0859 5.91347 53.079C5.93933 53.0737 5.96562 53.0682 5.99267 53.068C6.18912 53.0665 6.33494 53.132 6.47033 53.1927C6.54787 53.2275 6.62226 53.2607 6.70063 53.279C6.72452 53.2846 6.74887 53.289 6.77253 53.2932C6.80706 53.2993 6.83998 53.3052 6.86818 53.3145C6.93242 53.3356 6.97573 53.3792 7.02293 53.4269C7.04714 53.4513 7.0724 53.4769 7.10214 53.501C7.14068 53.5323 7.21837 53.5436 7.29954 53.5555C7.3569 53.5639 7.41598 53.5727 7.46465 53.5889C7.55266 53.6183 7.58444 53.6775 7.61392 53.7324C7.62676 53.7564 7.63952 53.7795 7.65596 53.799C7.66266 53.807 7.67601 53.8108 7.69434 53.8116C7.75583 53.9019 7.81865 53.988 7.88017 54.0719C8.1886 54.4923 8.45601 54.8562 8.26218 55.3996C8.22553 55.5023 8.23285 55.6127 8.26218 55.7242C8.18512 56.0808 8.10555 56.4377 8.02396 56.7942C7.84694 56.8647 7.69828 56.9511 7.58163 57.0533C7.36261 57.2452 7.31581 57.4426 7.26055 57.6756C7.21969 57.8478 7.17407 58.0395 7.05096 58.2629C6.8441 58.6382 6.66911 59.0235 6.57817 59.4584C6.48764 59.8913 6.4209 60.3869 6.39722 60.7376C6.3843 60.9287 6.22595 61.1295 6.07858 61.3166C5.87128 61.5799 5.68548 61.8161 5.9549 61.9603C6.04099 62.0063 6.19047 62.0508 6.33568 62.0941C6.43911 62.125 6.54011 62.1554 6.61534 62.1852C6.59198 62.2646 6.56886 62.3441 6.54527 62.4235C6.36574 62.5646 6.17325 62.7839 6.37346 62.9959C6.34872 63.0779 6.3241 63.1599 6.29913 63.239C6.2469 63.4117 6.194 63.5807 6.14072 63.7512C6.1231 63.8069 6.10545 63.8631 6.08771 63.9195C6.08751 63.92 6.08731 63.9205 6.08711 63.9211C6.0514 64.0345 6.01544 64.1488 5.97927 64.2612C5.96383 64.3093 5.9484 64.3575 5.93296 64.4056C5.89379 64.528 5.85448 64.6512 5.81476 64.7723C5.79364 64.8364 5.77268 64.9011 5.7514 64.9659C5.71687 65.0711 5.68216 65.177 5.64722 65.2825C5.59073 65.4529 5.53359 65.6226 5.47601 65.7926C5.46649 65.8204 5.43662 65.8472 5.39133 65.8668C5.34596 65.8864 5.28909 65.8975 5.23048 65.8975C5.17185 65.8974 5.11484 65.8863 5.06963 65.8666C5.0246 65.8469 4.99544 65.8202 4.98617 65.7924C4.93015 65.6223 4.87476 65.4524 4.81984 65.2818C4.78588 65.1763 4.75163 65.0704 4.71809 64.9652C4.69741 64.9004 4.67708 64.8357 4.65655 64.7716C4.61797 64.6505 4.57942 64.5271 4.5414 64.4047C4.52637 64.3566 4.51135 64.3084 4.49632 64.2603C4.46111 64.1476 4.42625 64.033 4.39152 63.9192C4.39132 63.9186 4.39112 63.9179 4.39091 63.9172C4.37383 63.8612 4.35671 63.8054 4.33974 63.7501C4.28804 63.5795 4.23683 63.4104 4.1862 63.2376C4.15888 63.1484 4.13217 63.0553 4.10517 62.963C4.09014 62.9116 4.07503 62.8602 4.06008 62.8099C4.05213 62.7823 4.04425 62.7544 4.03632 62.7263C3.849 62.082 3.66878 61.4423 3.49591 60.7966C3.32303 60.1534 3.15729 59.509 2.99814 58.8665C2.83898 58.2224 2.68669 57.5795 2.54058 56.9361C1.61275 52.8526 0.851974 48.7527 0.375864 44.6511C0.307503 44.0661 0.245888 43.4658 0.190648 42.8796C0.135379 42.287 0.086344 41.7065 0.0444243 41.1124C0.0313227 40.9319 0.0190423 40.747 0.00725961 40.5571Z" fill="black"/>
<path d="M5.07915 8.92335C4.65722 7.85266 4.91791 6.714 5.06152 5.6746C5.06466 5.6515 5.06781 5.62837 5.07098 5.60521C5.23408 4.33326 5.53802 2.86815 6.53182 1.87916C7.51596 0.895541 8.81036 0.255218 10.1419 0.064888C10.973 -0.0565615 11.8152 -0.00493886 12.595 0.198299C13.0649 0.320126 13.5174 0.496579 13.9377 0.721298C15.057 1.31685 15.9298 2.25659 16.433 3.30978C16.7774 4.02493 16.9572 4.79293 16.9735 5.53848C16.981 5.86575 16.9576 6.18825 16.9057 6.50126C16.867 6.73431 16.8125 6.96349 16.7439 7.18369C16.7343 7.21442 16.7068 7.2415 16.6666 7.25826C16.6263 7.27505 16.5768 7.28025 16.5276 7.27304C16.4783 7.26581 16.4324 7.24679 16.3982 7.2208C16.3641 7.1948 16.3446 7.16395 16.3426 7.13431C16.3285 6.91996 16.2998 6.70792 16.2572 6.50295C16.21 6.2747 16.1455 6.05373 16.0661 5.8421C16.2618 5.77459 16.4061 5.69685 16.4535 5.58652C16.4778 5.53042 16.4756 5.45398 16.4258 5.41038C16.3812 5.37119 16.3132 5.35148 16.2485 5.33394C16.1808 5.31562 16.1167 5.29983 16.0854 5.26557C16.0322 5.20735 15.9291 5.16973 15.8211 5.13579C15.7817 5.1234 15.7416 5.1114 15.7029 5.09875C15.5939 4.92105 15.4735 4.75395 15.3437 4.5983C15.3267 4.52049 15.3062 4.44972 15.2679 4.4024C15.2335 4.35991 15.1705 4.34076 15.0993 4.32985C15.0776 4.30797 15.0557 4.28639 15.0335 4.26509C14.8908 4.12758 14.7403 4.00213 14.5841 3.88962C14.5248 3.7448 14.4501 3.59442 14.3074 3.44261C14.2459 3.37737 14.1952 3.29968 14.143 3.22568C14.0664 3.11672 13.9859 3.01571 13.8802 2.98485C13.8097 2.96432 13.761 2.90245 13.7089 2.84104C13.64 2.75916 13.5636 2.67791 13.448 2.71121C13.3755 2.7322 13.3041 2.76669 13.2395 2.80018C13.137 2.85355 13.0516 2.90409 12.9968 2.89001C12.894 2.86367 12.7864 2.89805 12.6964 2.93193C12.5868 2.97239 12.5014 3.01136 12.4477 2.93651C12.4395 2.92516 12.4304 2.91049 12.42 2.89389C12.3818 2.83257 12.3243 2.74545 12.2288 2.71426C12.1884 2.70107 12.142 2.69814 12.0899 2.71212C12.028 2.72885 11.9663 2.78465 11.9096 2.84075C11.8266 2.92245 11.7533 3.00428 11.6769 2.96636C11.6654 2.96069 11.6534 2.93714 11.6422 2.91569C11.6279 2.88841 11.6149 2.86469 11.6078 2.88557C11.587 2.9468 11.5548 3.01486 11.5226 3.08952C11.4989 3.14435 11.4753 3.20274 11.4549 3.26406C11.274 3.30939 11.0996 3.36834 10.9334 3.43904C10.8573 3.47141 10.7825 3.50636 10.7098 3.54355C10.6426 3.46868 10.574 3.40465 10.5076 3.36228C10.4205 3.30708 10.3327 3.3139 10.2198 3.32896C10.1367 3.34021 10.0399 3.35582 9.91396 3.35965C9.67887 3.36685 9.50374 3.51598 9.43025 3.64481C9.41436 3.67211 9.39926 3.70023 9.38379 3.73058C9.32626 3.84615 9.25495 3.98876 9.12807 4.23207C9.00988 4.46241 8.90691 4.63997 8.83535 4.77808C8.79893 4.84857 8.7713 4.90778 8.75651 4.95672C8.7313 5.04016 8.69898 5.14038 8.67238 5.24157C8.62999 5.39993 8.60325 5.56146 8.61096 5.65768C8.6136 5.69182 8.6191 5.72817 8.62561 5.76711C8.64257 5.86717 8.66668 5.98293 8.67714 6.13018C8.67796 6.14164 8.67871 6.15326 8.67938 6.16505C8.6901 6.33593 8.66419 6.43424 8.61413 6.54278C8.59406 6.58642 8.5167 6.62638 8.43763 6.67136C8.32548 6.73425 8.21007 6.8104 8.25401 6.89731C8.26427 6.91739 8.28504 6.93761 8.30704 6.95842C8.34747 6.99672 8.39182 7.03558 8.38216 7.08357C8.3788 7.1004 8.36028 7.1179 8.34225 7.13533C8.32241 7.15448 8.30319 7.17363 8.30516 7.19107C8.31251 7.25607 8.3313 7.31744 8.34922 7.37107C8.37229 7.4402 8.3939 7.49733 8.38701 7.53888C8.37471 7.6132 8.42653 7.67622 8.48034 7.73532C8.52157 7.78092 8.56412 7.82474 8.58167 7.87691C8.63136 8.02664 8.78186 8.19979 8.97821 8.32708C9.05224 8.37512 9.05073 8.4571 9.05617 8.56664C9.05957 8.63453 9.06558 8.71294 9.09474 8.79605C9.11141 8.84324 9.17024 8.84402 9.22357 8.84294C9.27287 8.8421 9.31775 8.83993 9.32563 8.87526C9.33259 8.90646 9.29379 8.96994 9.25787 9.03108C9.21782 9.09901 9.18143 9.16407 9.21379 9.1753C9.23097 9.18122 9.27044 9.16847 9.31669 9.15238C9.33498 9.14602 9.35432 9.13922 9.37387 9.13278C9.36367 9.14337 9.3548 9.15306 9.34816 9.16046C9.30114 9.21269 9.29986 9.26129 9.3 9.30932C9.30003 9.32849 9.30031 9.34754 9.29769 9.36672C9.288 9.4374 9.3394 9.49217 9.3858 9.52433C9.40537 9.538 9.40938 9.56839 9.41468 9.60404C9.41937 9.63565 9.42514 9.67149 9.44356 9.70276C9.45406 9.72058 9.45432 9.7456 9.45463 9.7665C9.45485 9.78163 9.4551 9.79456 9.45931 9.80079C9.46296 9.80617 9.47836 9.79228 9.49559 9.77655C9.50799 9.76523 9.5214 9.75294 9.53211 9.74623C9.55771 9.7302 9.57527 9.73188 9.5796 9.74534C9.5816 9.75156 9.58067 9.76032 9.57976 9.76905C9.5787 9.77921 9.57762 9.78943 9.58129 9.79562C9.59819 9.82403 9.63506 9.82013 9.67279 9.81532C9.71446 9.81014 9.75673 9.80368 9.77894 9.84C9.78594 9.85144 9.78958 9.87043 9.79328 9.88888C9.79713 9.90818 9.80114 9.92689 9.80867 9.93544C9.83951 9.97023 9.8994 9.94504 9.9531 9.92057C9.98889 9.90434 10.0221 9.88856 10.0439 9.89184C10.0842 9.89795 10.1283 9.85188 10.1604 9.81768C10.177 9.79995 10.1905 9.78529 10.1988 9.78275C10.2035 9.78673 10.2081 9.79103 10.2126 9.79543C10.2157 9.8017 10.219 9.80817 10.2244 9.80897C10.2248 9.80903 10.2252 9.80895 10.2257 9.809C10.2499 9.83577 10.2721 9.86779 10.2944 9.89932C10.3444 9.97009 10.3996 10.0401 10.4822 10.0407C10.5 10.0409 10.5242 10.0226 10.5484 10.0039C10.5782 9.98092 10.608 9.95704 10.628 9.96552C10.6756 9.98567 10.7146 10.0393 10.7559 10.0917C10.817 10.1703 10.8844 10.2461 10.9684 10.1957C10.9959 10.1791 11.0252 10.1479 11.0538 10.1161C11.0698 10.0984 11.0857 10.0805 11.1012 10.065C11.0932 10.0971 11.0868 10.1275 11.0808 10.1558C11.0684 10.214 11.0578 10.264 11.0377 10.3045C10.9906 10.4004 10.9288 10.5321 10.914 10.6338C10.9101 10.6615 10.9036 10.6918 10.8969 10.7224C10.8802 10.799 10.8625 10.8773 10.8888 10.9188C10.9063 10.9468 10.9553 11.0119 11.0012 10.9581C11.0112 10.9464 11.0198 10.9215 11.0294 10.8938C11.0339 10.8805 11.0387 10.8666 11.0439 10.8532C11.0583 10.8161 11.0759 10.7826 11.1016 10.7755C11.1075 10.7739 11.1139 10.7726 11.1205 10.7714C11.1465 10.7667 11.1756 10.7612 11.1907 10.7211C11.208 10.6749 11.2115 10.6201 11.2159 10.5562C11.2215 10.473 11.2294 10.3744 11.2654 10.2584C11.2725 10.2355 11.2818 10.2283 11.2889 10.2229C11.2939 10.2191 11.2977 10.216 11.2988 10.209C11.3 10.2009 11.3003 10.1839 11.3007 10.1624C11.3019 10.0864 11.3058 9.95407 11.3497 9.95274C11.3617 9.95237 11.3747 9.95986 11.3865 9.96656C11.4038 9.97643 11.4183 9.98443 11.4219 9.963C11.4233 9.95487 11.4244 9.94604 11.4256 9.93688C11.4395 9.94051 11.4536 9.94406 11.4676 9.94752C11.4843 9.97437 11.51 9.9736 11.5423 9.97198C11.5502 9.97159 11.5584 9.97124 11.567 9.97114C11.595 9.97737 11.6231 9.98321 11.6513 9.98884C11.6736 9.99993 11.6973 10.0177 11.7235 10.0456C11.7756 10.1015 11.8244 10.1932 11.8758 10.282C11.8974 10.3194 11.9196 10.3563 11.9423 10.3897C11.9347 10.3945 11.9279 10.4 11.9229 10.4073C11.8881 10.4574 11.8776 10.5519 11.8669 10.6389C11.8599 10.6968 11.8528 10.7515 11.8383 10.787C11.8116 10.8522 11.8165 10.9269 11.8207 10.9823C11.8228 11.011 11.8245 11.0345 11.8209 11.0486C11.8179 11.0599 11.8104 11.0654 11.8026 11.0711C11.7958 11.076 11.7887 11.0812 11.7843 11.0903C11.7307 11.2012 11.7472 11.2646 11.7753 11.3567C11.7906 11.4076 11.8092 11.4671 11.8195 11.5482C11.8289 11.6342 11.8276 11.6595 11.7952 11.6947C11.8221 11.7366 11.8497 11.7783 11.8778 11.8198C11.888 11.8167 11.8949 11.7897 11.9038 11.7451C11.9199 11.6654 11.9803 11.6334 12.0272 11.6074C12.0488 11.5954 12.0675 11.5848 12.0775 11.5719C12.1301 11.5028 12.1044 11.4149 12.0837 11.3375C12.0722 11.2949 12.0619 11.2555 12.0647 11.2242C12.0659 11.2108 12.0615 11.198 12.0571 11.185C12.0537 11.1749 12.0502 11.1646 12.0492 11.1538C12.0422 11.0756 12.0682 11.0149 12.0909 10.9583C12.1039 10.9259 12.1159 10.8948 12.1208 10.8628C12.1223 10.853 12.1233 10.8431 12.1242 10.8335C12.1254 10.8195 12.1266 10.8061 12.1295 10.7944C12.1361 10.7679 12.1534 10.7485 12.1719 10.7273C12.1814 10.7164 12.1912 10.705 12.2002 10.6919C12.2117 10.6748 12.2124 10.6434 12.2132 10.6105C12.2137 10.5873 12.2142 10.5634 12.2183 10.5432C12.2257 10.5066 12.2481 10.4906 12.2687 10.4755C12.2777 10.4689 12.2863 10.4624 12.2932 10.4546C12.296 10.4515 12.2967 10.4459 12.2959 10.4387C12.3286 10.4085 12.3587 10.3776 12.3872 10.3471C12.5311 10.1932 12.6317 10.059 12.854 10.0664C12.8964 10.0675 12.9358 10.0503 12.9721 10.024C13.112 10.004 13.2529 9.97642 13.3939 9.94079C13.4511 9.99101 13.5101 10.0273 13.5698 10.0478C13.6822 10.0861 13.7654 10.0594 13.8616 10.0246C13.9329 9.99867 14.0114 9.96832 14.1194 9.95089C14.301 9.92143 14.4821 9.86556 14.6526 9.75623C14.8228 9.64802 14.9985 9.49591 15.1086 9.37506C15.1687 9.30986 15.2758 9.27442 15.3761 9.23624C15.5168 9.18316 15.6441 9.12338 15.5896 9.00689C15.5722 8.96975 15.5324 8.92025 15.4931 8.87293C15.4651 8.83922 15.4376 8.80651 15.4186 8.77953C15.445 8.75319 15.4711 8.72631 15.4971 8.69906C15.5912 8.67803 15.7089 8.62062 15.6798 8.49584C15.7053 8.46576 15.7303 8.43529 15.7546 8.40553C15.8069 8.34016 15.8572 8.27471 15.9062 8.20678C15.9224 8.18461 15.9384 8.16198 15.9544 8.13905C15.9545 8.13884 15.9547 8.13862 15.9548 8.13841C15.9869 8.09236 16.0183 8.04547 16.0489 7.99828C16.062 7.97808 16.0749 7.95771 16.0877 7.93717C16.1202 7.88518 16.1518 7.83213 16.1825 7.77881C16.1988 7.75069 16.2149 7.72159 16.2307 7.6929C16.2564 7.64612 16.2816 7.59817 16.3061 7.54968C16.3459 7.4708 16.3835 7.39255 16.4196 7.31095C16.4255 7.29766 16.4394 7.28608 16.4588 7.27883C16.4782 7.2716 16.5015 7.26923 16.5247 7.27262C16.5479 7.27601 16.5697 7.28503 16.586 7.29789C16.6023 7.31073 16.6118 7.32638 16.6132 7.34139C16.6214 7.43349 16.6272 7.52448 16.6299 7.6184C16.6316 7.67614 16.6324 7.73422 16.632 7.79189C16.6318 7.82729 16.631 7.86337 16.63 7.89881C16.628 7.9659 16.6245 8.03397 16.6194 8.10192C16.6174 8.12875 16.6152 8.15558 16.6128 8.18241C16.6071 8.24527 16.5999 8.30876 16.5915 8.37227C16.5914 8.37265 16.5914 8.37303 16.5913 8.37342C16.5871 8.40471 16.5827 8.43595 16.5781 8.46684C16.5635 8.56201 16.5463 8.65645 16.5252 8.75278C16.5147 8.80274 16.5025 8.85415 16.4895 8.90567C16.4823 8.93432 16.4749 8.96289 16.4674 8.99093C16.4633 9.00622 16.4589 9.02168 16.4545 9.0372C16.3542 9.3946 16.2128 9.74508 16.0286 10.0832C15.8452 10.4202 15.6205 10.7425 15.3601 11.0397C15.099 11.3376 14.8018 11.6107 14.4734 11.8514C13.4519 12.607 12.106 13.0339 10.735 12.9756C9.32133 12.9275 7.8668 12.3512 6.75971 11.3436C6.44767 11.0623 6.15536 10.74 5.90213 10.3987C5.6463 10.0536 5.42706 9.68955 5.24127 9.29644C5.18483 9.17725 5.13054 9.05271 5.07915 8.92335Z" fill="black"/>
</svg>
